<?xml version="1.0" encoding="UTF-8" standalone="no"?>
<!DOCTYPE svg PUBLIC "-//W3C//DTD SVG 1.1//EN"
 "http://www.w3.org/Graphics/SVG/1.1/DTD/svg11.dtd">
<!-- Generated by graphviz version 2.38.0 (20140413.2041)
 -->
<!-- Title: Configuration::value::str Pages: 1 -->
<svg width="532pt" height="253pt"
 viewBox="0.00 0.00 532.00 252.50" xmlns="http://www.w3.org/2000/svg" xmlns:xlink="http://www.w3.org/1999/xlink">
<g id="graph0" class="graph" transform="scale(1 1) rotate(0) translate(4 248.5)">
<title>Configuration::value::str</title>
<!-- Node21 -->
<g id="node1" class="node"><title>Node21</title>
<polygon fill="#bfbfbf" stroke="black" points="0,-121 0,-140 131,-140 131,-121 0,-121"/>
<text text-anchor="middle" x="65.5" y="-128" font-family="Helvetica,sans-Serif" font-size="10.00">Configuration::value::str</text>
</g>
<!-- Node22 -->
<g id="node2" class="node"><title>Node22</title>
<g id="a_node2"><a xlink:href="classHamiltonianOne.html#a9cb71dcb34ab9f0779c0bd66b758185e" target="_top" xlink:title="HamiltonianOne::build">
<polygon fill="none" stroke="black" points="178,-225 178,-244 300,-244 300,-225 178,-225"/>
<text text-anchor="middle" x="239" y="-232" font-family="Helvetica,sans-Serif" font-size="10.00">HamiltonianOne::build</text>
</a>
</g>
</g>
<!-- Node21&#45;&gt;Node22 -->
<g id="edge1" class="edge"><title>Node21&#45;&gt;Node22</title>
<path fill="none" stroke="midnightblue" d="M82.1909,-147.723C100.669,-166.987 133.156,-197.805 167,-215.5 174.35,-219.343 182.545,-222.459 190.682,-224.97"/>
<polygon fill="midnightblue" stroke="midnightblue" points="84.5643,-145.137 75.1664,-140.245 79.4626,-149.93 84.5643,-145.137"/>
</g>
<!-- Node24 -->
<g id="node4" class="node"><title>Node24</title>
<g id="a_node4"><a xlink:href="classHamiltonianTwo.html#a6ca0a318f25170b69e571a07064a5afb" target="_top" xlink:title="HamiltonianTwo::calculate">
<polygon fill="none" stroke="black" points="169,-187 169,-206 309,-206 309,-187 169,-187"/>
<text text-anchor="middle" x="239" y="-194" font-family="Helvetica,sans-Serif" font-size="10.00">HamiltonianTwo::calculate</text>
</a>
</g>
</g>
<!-- Node21&#45;&gt;Node24 -->
<g id="edge3" class="edge"><title>Node21&#45;&gt;Node24</title>
<path fill="none" stroke="midnightblue" d="M93.6995,-144.816C113.611,-154.899 141.494,-168.205 167,-177.5 176.711,-181.039 187.385,-184.24 197.44,-186.964"/>
<polygon fill="midnightblue" stroke="midnightblue" points="95.1058,-141.604 84.6103,-140.157 91.9125,-147.833 95.1058,-141.604"/>
</g>
<!-- Node26 -->
<g id="node6" class="node"><title>Node26</title>
<g id="a_node6"><a xlink:href="classConfiguration_1_1value.html#a06ed4f6912bcbd72866c5fa651230682" target="_top" xlink:title="Configuration::value\l::operator=">
<polygon fill="none" stroke="black" points="183,-137.5 183,-167.5 295,-167.5 295,-137.5 183,-137.5"/>
<text text-anchor="start" x="191" y="-155.5" font-family="Helvetica,sans-Serif" font-size="10.00">Configuration::value</text>
<text text-anchor="middle" x="239" y="-144.5" font-family="Helvetica,sans-Serif" font-size="10.00">::operator=</text>
</a>
</g>
</g>
<!-- Node21&#45;&gt;Node26 -->
<g id="edge5" class="edge"><title>Node21&#45;&gt;Node26</title>
<path fill="none" stroke="midnightblue" d="M141.397,-140.108C155.338,-141.896 169.667,-143.734 182.879,-145.429"/>
<polygon fill="midnightblue" stroke="midnightblue" points="141.701,-136.618 131.337,-138.817 140.81,-143.561 141.701,-136.618"/>
</g>
<!-- Node27 -->
<g id="node7" class="node"><title>Node27</title>
<g id="a_node7"><a xlink:href="classConfiguration.html#af92a67e07915f5a85c9a5bf1e5029013" target="_top" xlink:title="Configuration::operator==">
<polygon fill="none" stroke="black" points="167,-99 167,-118 311,-118 311,-99 167,-99"/>
<text text-anchor="middle" x="239" y="-106" font-family="Helvetica,sans-Serif" font-size="10.00">Configuration::operator==</text>
</a>
</g>
</g>
<!-- Node21&#45;&gt;Node27 -->
<g id="edge6" class="edge"><title>Node21&#45;&gt;Node27</title>
<path fill="none" stroke="midnightblue" d="M141.486,-120.881C149.881,-119.804 158.416,-118.709 166.762,-117.638"/>
<polygon fill="midnightblue" stroke="midnightblue" points="140.81,-117.439 131.337,-122.183 141.701,-124.382 140.81,-117.439"/>
</g>
<!-- Node28 -->
<g id="node8" class="node"><title>Node28</title>
<g id="a_node8"><a xlink:href="classConfiguration_1_1value.html#ac04a4a29ca6b0a128c32c6df6f8c0e4f" target="_top" xlink:title="Configuration::value\l::operator\&gt;\&gt;">
<polygon fill="none" stroke="black" points="183,-49.5 183,-79.5 295,-79.5 295,-49.5 183,-49.5"/>
<text text-anchor="start" x="191" y="-67.5" font-family="Helvetica,sans-Serif" font-size="10.00">Configuration::value</text>
<text text-anchor="middle" x="239" y="-56.5" font-family="Helvetica,sans-Serif" font-size="10.00">::operator&gt;&gt;</text>
</a>
</g>
</g>
<!-- Node21&#45;&gt;Node28 -->
<g id="edge7" class="edge"><title>Node21&#45;&gt;Node28</title>
<path fill="none" stroke="midnightblue" d="M98.5285,-116.968C118.191,-108.777 143.943,-98.2567 167,-89.5 175.796,-86.1594 185.261,-82.7204 194.322,-79.5025"/>
<polygon fill="midnightblue" stroke="midnightblue" points="97.0011,-113.813 89.126,-120.901 99.7021,-120.271 97.0011,-113.813"/>
</g>
<!-- Node29 -->
<g id="node9" class="node"><title>Node29</title>
<g id="a_node9"><a xlink:href="classConfiguration_1_1value.html#a456d4ba98f8bfea360974a9d03f869f6" target="_top" xlink:title="Configuration::value\l::value">
<polygon fill="none" stroke="black" points="183,-0.5 183,-30.5 295,-30.5 295,-0.5 183,-0.5"/>
<text text-anchor="start" x="191" y="-18.5" font-family="Helvetica,sans-Serif" font-size="10.00">Configuration::value</text>
<text text-anchor="middle" x="239" y="-7.5" font-family="Helvetica,sans-Serif" font-size="10.00">::value</text>
</a>
</g>
</g>
<!-- Node21&#45;&gt;Node29 -->
<g id="edge8" class="edge"><title>Node21&#45;&gt;Node29</title>
<path fill="none" stroke="midnightblue" d="M81.7119,-113.279C100.147,-93.3294 132.988,-60.6321 167,-40.5 173.298,-36.7724 180.238,-33.4793 187.237,-30.609"/>
<polygon fill="midnightblue" stroke="midnightblue" points="79.0761,-110.975 74.9472,-120.732 84.2596,-115.68 79.0761,-110.975"/>
</g>
<!-- Node23 -->
<g id="node3" class="node"><title>Node23</title>
<g id="a_node3"><a xlink:href="classHamiltonianOne.html#ad3ba2d70879a60c9f065b5a2545dfe36" target="_top" xlink:title="HamiltonianOne::HamiltonianOne">
<polygon fill="none" stroke="black" points="347,-225 347,-244 524,-244 524,-225 347,-225"/>
<text text-anchor="middle" x="435.5" y="-232" font-family="Helvetica,sans-Serif" font-size="10.00">HamiltonianOne::HamiltonianOne</text>
</a>
</g>
</g>
<!-- Node22&#45;&gt;Node23 -->
<g id="edge2" class="edge"><title>Node22&#45;&gt;Node23</title>
<path fill="none" stroke="midnightblue" d="M310.405,-234.5C322.196,-234.5 334.558,-234.5 346.721,-234.5"/>
<polygon fill="midnightblue" stroke="midnightblue" points="310.209,-231 300.209,-234.5 310.209,-238 310.209,-231"/>
</g>
<!-- Node25 -->
<g id="node5" class="node"><title>Node25</title>
<g id="a_node5"><a xlink:href="classHamiltonianTwo.html#a8d51d632bd7862cf1e566f6faf9ccc8c" target="_top" xlink:title="HamiltonianTwo::HamiltonianTwo">
<polygon fill="none" stroke="black" points="350,-187 350,-206 521,-206 521,-187 350,-187"/>
<text text-anchor="middle" x="435.5" y="-194" font-family="Helvetica,sans-Serif" font-size="10.00">HamiltonianTwo::HamiltonianTwo</text>
</a>
</g>
</g>
<!-- Node24&#45;&gt;Node25 -->
<g id="edge4" class="edge"><title>Node24&#45;&gt;Node25</title>
<path fill="none" stroke="midnightblue" d="M319.155,-196.5C329.297,-196.5 339.711,-196.5 349.934,-196.5"/>
<polygon fill="midnightblue" stroke="midnightblue" points="319.121,-193 309.121,-196.5 319.121,-200 319.121,-193"/>
</g>
</g>
</svg>
