<?xml version="1.0" encoding="UTF-8" standalone="no"?>
<!DOCTYPE svg PUBLIC "-//W3C//DTD SVG 1.1//EN"
 "http://www.w3.org/Graphics/SVG/1.1/DTD/svg11.dtd">
<!-- Generated by graphviz version 2.38.0 (20140413.2041)
 -->
<!-- Title: pairinteraction.unitmanagement.Units Pages: 1 -->
<svg width="183pt" height="216pt"
 viewBox="0.00 0.00 183.00 216.00" xmlns="http://www.w3.org/2000/svg" xmlns:xlink="http://www.w3.org/1999/xlink">
<g id="graph0" class="graph" transform="scale(1 1) rotate(0) translate(4 212)">
<title>pairinteraction.unitmanagement.Units</title>
<!-- Node1 -->
<g id="node1" class="node"><title>Node1</title>
<polygon fill="#bfbfbf" stroke="black" points="0,-0.5 0,-30.5 175,-30.5 175,-0.5 0,-0.5"/>
<text text-anchor="start" x="8" y="-18.5" font-family="Helvetica,sans-Serif" font-size="10.00">pairinteraction.unitmanagement.</text>
<text text-anchor="middle" x="87.5" y="-7.5" font-family="Helvetica,sans-Serif" font-size="10.00">Units</text>
</g>
<!-- Node2 -->
<g id="node2" class="node"><title>Node2</title>
<polygon fill="none" stroke="#bfbfbf" points="65.5,-188.5 65.5,-207.5 109.5,-207.5 109.5,-188.5 65.5,-188.5"/>
<text text-anchor="middle" x="87.5" y="-195.5" font-family="Helvetica,sans-Serif" font-size="10.00">string</text>
</g>
<!-- Node2&#45;&gt;Node1 -->
<g id="edge1" class="edge"><title>Node2&#45;&gt;Node1</title>
<path fill="none" stroke="#9a32cd" stroke-dasharray="5,2" d="M87.5,-178.09C87.5,-141.701 87.5,-62.6941 87.5,-30.5391"/>
<polygon fill="#9a32cd" stroke="#9a32cd" points="84.0001,-178.294 87.5,-188.294 91.0001,-178.294 84.0001,-178.294"/>
<text text-anchor="middle" x="113" y="-162" font-family="Helvetica,sans-Serif" font-size="10.00"> au_angle</text>
<text text-anchor="middle" x="113" y="-151" font-family="Helvetica,sans-Serif" font-size="10.00">efield</text>
<text text-anchor="middle" x="113" y="-140" font-family="Helvetica,sans-Serif" font-size="10.00">energy</text>
<text text-anchor="middle" x="113" y="-129" font-family="Helvetica,sans-Serif" font-size="10.00">au_energy</text>
<text text-anchor="middle" x="113" y="-118" font-family="Helvetica,sans-Serif" font-size="10.00">length</text>
<text text-anchor="middle" x="113" y="-107" font-family="Helvetica,sans-Serif" font-size="10.00">bfield</text>
<text text-anchor="middle" x="113" y="-96" font-family="Helvetica,sans-Serif" font-size="10.00">au_length</text>
<text text-anchor="middle" x="113" y="-85" font-family="Helvetica,sans-Serif" font-size="10.00">au_efield</text>
<text text-anchor="middle" x="113" y="-74" font-family="Helvetica,sans-Serif" font-size="10.00">angle</text>
<text text-anchor="middle" x="113" y="-63" font-family="Helvetica,sans-Serif" font-size="10.00">au_bfield</text>
<text text-anchor="middle" x="113" y="-52" font-family="Helvetica,sans-Serif" font-size="10.00">...</text>
</g>
</g>
</svg>
