<?xml version="1.0" encoding="UTF-8" standalone="no"?>
<!DOCTYPE svg PUBLIC "-//W3C//DTD SVG 1.1//EN"
 "http://www.w3.org/Graphics/SVG/1.1/DTD/svg11.dtd">
<!-- Generated by graphviz version 2.38.0 (20140413.2041)
 -->
<!-- Title: StateTwo::second Pages: 1 -->
<svg width="497pt" height="104pt"
 viewBox="0.00 0.00 497.00 104.00" xmlns="http://www.w3.org/2000/svg" xmlns:xlink="http://www.w3.org/1999/xlink">
<g id="graph0" class="graph" transform="scale(1 1) rotate(0) translate(4 100)">
<title>StateTwo::second</title>
<!-- Node21 -->
<g id="node1" class="node"><title>Node21</title>
<polygon fill="#bfbfbf" stroke="black" points="0,-38.5 0,-57.5 100,-57.5 100,-38.5 0,-38.5"/>
<text text-anchor="middle" x="50" y="-45.5" font-family="Helvetica,sans-Serif" font-size="10.00">StateTwo::second</text>
</g>
<!-- Node22 -->
<g id="node2" class="node"><title>Node22</title>
<g id="a_node2"><a xlink:href="classHamiltonianTwo.html#a6ca0a318f25170b69e571a07064a5afb" target="_top" xlink:title="HamiltonianTwo::calculate">
<polygon fill="none" stroke="black" points="139,-76.5 139,-95.5 279,-95.5 279,-76.5 139,-76.5"/>
<text text-anchor="middle" x="209" y="-83.5" font-family="Helvetica,sans-Serif" font-size="10.00">HamiltonianTwo::calculate</text>
</a>
</g>
</g>
<!-- Node21&#45;&gt;Node22 -->
<g id="edge1" class="edge"><title>Node21&#45;&gt;Node22</title>
<path fill="none" stroke="midnightblue" d="M100.447,-59.968C122.448,-65.2931 147.994,-71.4762 168.667,-76.4799"/>
<polygon fill="midnightblue" stroke="midnightblue" points="101.16,-56.5398 90.6177,-57.589 99.5137,-63.3433 101.16,-56.5398"/>
</g>
<!-- Node24 -->
<g id="node4" class="node"><title>Node24</title>
<g id="a_node4"><a xlink:href="classBasisnamesOne.html#ab3030f74ccafcc178f38e7a8ada13b9b" target="_top" xlink:title="BasisnamesOne::fromBoth">
<polygon fill="none" stroke="black" points="136,-38.5 136,-57.5 282,-57.5 282,-38.5 136,-38.5"/>
<text text-anchor="middle" x="209" y="-45.5" font-family="Helvetica,sans-Serif" font-size="10.00">BasisnamesOne::fromBoth</text>
</a>
</g>
</g>
<!-- Node21&#45;&gt;Node24 -->
<g id="edge3" class="edge"><title>Node21&#45;&gt;Node24</title>
<path fill="none" stroke="midnightblue" d="M110.281,-48C118.658,-48 127.346,-48 135.931,-48"/>
<polygon fill="midnightblue" stroke="midnightblue" points="110.245,-44.5001 100.245,-48 110.245,-51.5001 110.245,-44.5001"/>
</g>
<!-- Node26 -->
<g id="node6" class="node"><title>Node26</title>
<g id="a_node6"><a xlink:href="classMatrixElements.html#aff6662ca16679a3edff58c5e2b915fbf" target="_top" xlink:title="MatrixElements::getRadial">
<polygon fill="none" stroke="black" points="138.5,-0.5 138.5,-19.5 279.5,-19.5 279.5,-0.5 138.5,-0.5"/>
<text text-anchor="middle" x="209" y="-7.5" font-family="Helvetica,sans-Serif" font-size="10.00">MatrixElements::getRadial</text>
</a>
</g>
</g>
<!-- Node21&#45;&gt;Node26 -->
<g id="edge5" class="edge"><title>Node21&#45;&gt;Node26</title>
<path fill="none" stroke="midnightblue" d="M100.447,-36.032C122.448,-30.7069 147.994,-24.5238 168.667,-19.5201"/>
<polygon fill="midnightblue" stroke="midnightblue" points="99.5137,-32.6567 90.6177,-38.411 101.16,-39.4602 99.5137,-32.6567"/>
</g>
<!-- Node23 -->
<g id="node3" class="node"><title>Node23</title>
<g id="a_node3"><a xlink:href="classHamiltonianTwo.html#a8d51d632bd7862cf1e566f6faf9ccc8c" target="_top" xlink:title="HamiltonianTwo::HamiltonianTwo">
<polygon fill="none" stroke="black" points="318,-76.5 318,-95.5 489,-95.5 489,-76.5 318,-76.5"/>
<text text-anchor="middle" x="403.5" y="-83.5" font-family="Helvetica,sans-Serif" font-size="10.00">HamiltonianTwo::HamiltonianTwo</text>
</a>
</g>
</g>
<!-- Node22&#45;&gt;Node23 -->
<g id="edge2" class="edge"><title>Node22&#45;&gt;Node23</title>
<path fill="none" stroke="midnightblue" d="M289.311,-86C298.703,-86 308.317,-86 317.78,-86"/>
<polygon fill="midnightblue" stroke="midnightblue" points="289.225,-82.5001 279.225,-86 289.225,-89.5001 289.225,-82.5001"/>
</g>
<!-- Node25 -->
<g id="node5" class="node"><title>Node25</title>
<g id="a_node5"><a xlink:href="main_8cpp.html#a3c04138a5bfe5d72780bb7e82a18e627" target="_top" xlink:title="main">
<polygon fill="none" stroke="black" points="383,-38.5 383,-57.5 424,-57.5 424,-38.5 383,-38.5"/>
<text text-anchor="middle" x="403.5" y="-45.5" font-family="Helvetica,sans-Serif" font-size="10.00">main</text>
</a>
</g>
</g>
<!-- Node24&#45;&gt;Node25 -->
<g id="edge4" class="edge"><title>Node24&#45;&gt;Node25</title>
<path fill="none" stroke="midnightblue" d="M292.478,-48C325.798,-48 361.366,-48 382.763,-48"/>
<polygon fill="midnightblue" stroke="midnightblue" points="292.228,-44.5001 282.228,-48 292.228,-51.5001 292.228,-44.5001"/>
</g>
</g>
</svg>
