<?xml version="1.0" encoding="UTF-8" standalone="no"?>
<!DOCTYPE svg PUBLIC "-//W3C//DTD SVG 1.1//EN"
 "http://www.w3.org/Graphics/SVG/1.1/DTD/svg11.dtd">
<!-- Generated by graphviz version 2.38.0 (20140413.2041)
 -->
<!-- Title: Hamiltonianmatrix Pages: 1 -->
<svg width="361pt" height="155pt"
 viewBox="0.00 0.00 361.00 155.00" xmlns="http://www.w3.org/2000/svg" xmlns:xlink="http://www.w3.org/1999/xlink">
<g id="graph0" class="graph" transform="scale(1 1) rotate(0) translate(4 151)">
<title>Hamiltonianmatrix</title>
<!-- Node2 -->
<g id="node1" class="node"><title>Node2</title>
<polygon fill="#bfbfbf" stroke="black" points="248,-66.5 248,-85.5 353,-85.5 353,-66.5 248,-66.5"/>
<text text-anchor="middle" x="300.5" y="-73.5" font-family="Helvetica,sans-Serif" font-size="10.00">Hamiltonianmatrix</text>
</g>
<!-- Node3 -->
<g id="node2" class="node"><title>Node3</title>
<g id="a_node2"><a xlink:href="classSerializable.html" target="_top" xlink:title="Serializable">
<polygon fill="none" stroke="black" points="33,-127.5 33,-146.5 104,-146.5 104,-127.5 33,-127.5"/>
<text text-anchor="middle" x="68.5" y="-134.5" font-family="Helvetica,sans-Serif" font-size="10.00">Serializable</text>
</a>
</g>
</g>
<!-- Node3&#45;&gt;Node2 -->
<g id="edge1" class="edge"><title>Node3&#45;&gt;Node2</title>
<path fill="none" stroke="midnightblue" d="M114.414,-136.275C147.215,-134.588 192.346,-129.833 230,-117 251.481,-109.679 273.607,-95.2049 286.959,-85.5628"/>
<polygon fill="midnightblue" stroke="midnightblue" points="114.06,-132.787 104.222,-136.721 114.366,-139.78 114.06,-132.787"/>
</g>
<!-- Node4 -->
<g id="node3" class="node"><title>Node4</title>
<polygon fill="none" stroke="#bfbfbf" points="0,-89.5 0,-108.5 137,-108.5 137,-89.5 0,-89.5"/>
<text text-anchor="middle" x="68.5" y="-96.5" font-family="Helvetica,sans-Serif" font-size="10.00">vector&lt; eigen_triplet_t &gt;</text>
</g>
<!-- Node4&#45;&gt;Node2 -->
<g id="edge2" class="edge"><title>Node4&#45;&gt;Node2</title>
<path fill="none" stroke="#9a32cd" stroke-dasharray="5,2" d="M147.39,-91.211C180.543,-87.8957 218.305,-84.1195 247.91,-81.159"/>
<polygon fill="#9a32cd" stroke="#9a32cd" points="146.866,-87.7459 137.264,-92.2236 147.562,-94.7111 146.866,-87.7459"/>
<text text-anchor="middle" x="192.5" y="-105" font-family="Helvetica,sans-Serif" font-size="10.00"> triplets_entries</text>
<text text-anchor="middle" x="192.5" y="-94" font-family="Helvetica,sans-Serif" font-size="10.00">triplets_basis</text>
</g>
<!-- Node5 -->
<g id="node4" class="node"><title>Node5</title>
<polygon fill="none" stroke="#bfbfbf" points="0.5,-39 0.5,-69 136.5,-69 136.5,-39 0.5,-39"/>
<text text-anchor="start" x="8.5" y="-57" font-family="Helvetica,sans-Serif" font-size="10.00">SparseMatrix&lt; scalar</text>
<text text-anchor="middle" x="68.5" y="-46" font-family="Helvetica,sans-Serif" font-size="10.00">_t, ORDER, eigen_idx_t &gt;</text>
</g>
<!-- Node5&#45;&gt;Node2 -->
<g id="edge3" class="edge"><title>Node5&#45;&gt;Node2</title>
<path fill="none" stroke="#9a32cd" stroke-dasharray="5,2" d="M146.604,-50.0142C173.16,-49.8221 203.003,-50.9244 230,-55 244.956,-57.2579 261.162,-62.0132 274.16,-66.4286"/>
<polygon fill="#9a32cd" stroke="#9a32cd" points="146.552,-46.5145 136.6,-50.1477 146.646,-53.5139 146.552,-46.5145"/>
<text text-anchor="middle" x="192.5" y="-69" font-family="Helvetica,sans-Serif" font-size="10.00"> basis_</text>
<text text-anchor="middle" x="192.5" y="-58" font-family="Helvetica,sans-Serif" font-size="10.00">entries_</text>
</g>
<!-- Node6 -->
<g id="node5" class="node"><title>Node6</title>
<polygon fill="none" stroke="#bfbfbf" points="19,-0.5 19,-19.5 118,-19.5 118,-0.5 19,-0.5"/>
<text text-anchor="middle" x="68.5" y="-7.5" font-family="Helvetica,sans-Serif" font-size="10.00">vector&lt; byte_t &gt;</text>
</g>
<!-- Node6&#45;&gt;Node2 -->
<g id="edge4" class="edge"><title>Node6&#45;&gt;Node2</title>
<path fill="none" stroke="#9a32cd" stroke-dasharray="5,2" d="M128.233,-14.3797C159.181,-17.9568 197.38,-24.4091 230,-36 250.989,-43.4581 272.89,-57.2186 286.364,-66.4901"/>
<polygon fill="#9a32cd" stroke="#9a32cd" points="128.353,-10.8723 118.034,-13.2735 127.599,-17.8315 128.353,-10.8723"/>
<text text-anchor="middle" x="192.5" y="-39" font-family="Helvetica,sans-Serif" font-size="10.00"> bytes</text>
</g>
</g>
</svg>
