<?xml version="1.0" encoding="UTF-8" standalone="no"?>
<!DOCTYPE svg PUBLIC "-//W3C//DTD SVG 1.1//EN"
 "http://www.w3.org/Graphics/SVG/1.1/DTD/svg11.dtd">
<!-- Generated by graphviz version 2.38.0 (20140413.2041)
 -->
<!-- Title: Hamiltonianmatrix::serialize Pages: 1 -->
<svg width="413pt" height="78pt"
 viewBox="0.00 0.00 413.00 77.50" xmlns="http://www.w3.org/2000/svg" xmlns:xlink="http://www.w3.org/1999/xlink">
<g id="graph0" class="graph" transform="scale(1 1) rotate(0) translate(4 73.5)">
<title>Hamiltonianmatrix::serialize</title>
<!-- Node1 -->
<g id="node1" class="node"><title>Node1</title>
<polygon fill="#bfbfbf" stroke="black" points="0,-22.5 0,-52.5 111,-52.5 111,-22.5 0,-22.5"/>
<text text-anchor="start" x="8" y="-40.5" font-family="Helvetica,sans-Serif" font-size="10.00">Hamiltonianmatrix::</text>
<text text-anchor="middle" x="55.5" y="-29.5" font-family="Helvetica,sans-Serif" font-size="10.00">serialize</text>
</g>
<!-- Node2 -->
<g id="node2" class="node"><title>Node2</title>
<g id="a_node2"><a xlink:href="classHamiltonianmatrix.html#aa8d50e3585a18628f4abbb5bcede4bbb" target="_top" xlink:title="Hamiltonianmatrix::\ldoSerialization">
<polygon fill="none" stroke="black" points="147,-22.5 147,-52.5 258,-52.5 258,-22.5 147,-22.5"/>
<text text-anchor="start" x="155" y="-40.5" font-family="Helvetica,sans-Serif" font-size="10.00">Hamiltonianmatrix::</text>
<text text-anchor="middle" x="202.5" y="-29.5" font-family="Helvetica,sans-Serif" font-size="10.00">doSerialization</text>
</a>
</g>
</g>
<!-- Node1&#45;&gt;Node2 -->
<g id="edge1" class="edge"><title>Node1&#45;&gt;Node2</title>
<path fill="none" stroke="midnightblue" d="M111.318,-37.5C119.529,-37.5 128.061,-37.5 136.459,-37.5"/>
<polygon fill="midnightblue" stroke="midnightblue" points="136.604,-41.0001 146.604,-37.5 136.604,-34.0001 136.604,-41.0001"/>
</g>
<!-- Node3 -->
<g id="node3" class="node"><title>Node3</title>
<g id="a_node3"><a xlink:href="classSerializer.html#a79a572d0a14988acd13217beb7d5547b" target="_top" xlink:title="Serializer::save">
<polygon fill="none" stroke="black" points="305,-50 305,-69 394,-69 394,-50 305,-50"/>
<text text-anchor="middle" x="349.5" y="-57" font-family="Helvetica,sans-Serif" font-size="10.00">Serializer::save</text>
</a>
</g>
</g>
<!-- Node2&#45;&gt;Node3 -->
<g id="edge2" class="edge"><title>Node2&#45;&gt;Node3</title>
<path fill="none" stroke="midnightblue" d="M258.318,-45.8173C270.228,-47.6242 282.815,-49.534 294.685,-51.335"/>
<polygon fill="midnightblue" stroke="midnightblue" points="294.485,-54.8446 304.897,-52.8844 295.535,-47.9238 294.485,-54.8446"/>
</g>
<!-- Node4 -->
<g id="node4" class="node"><title>Node4</title>
<g id="a_node4"><a xlink:href="classHamiltonianmatrix.html#a90ac21dba5d19a54fa78f86f1e428eeb" target="_top" xlink:title="Hamiltonianmatrix::\lsplitComplex">
<polygon fill="none" stroke="black" points="294,-0.5 294,-30.5 405,-30.5 405,-0.5 294,-0.5"/>
<text text-anchor="start" x="302" y="-18.5" font-family="Helvetica,sans-Serif" font-size="10.00">Hamiltonianmatrix::</text>
<text text-anchor="middle" x="349.5" y="-7.5" font-family="Helvetica,sans-Serif" font-size="10.00">splitComplex</text>
</a>
</g>
</g>
<!-- Node2&#45;&gt;Node4 -->
<g id="edge3" class="edge"><title>Node2&#45;&gt;Node4</title>
<path fill="none" stroke="midnightblue" d="M258.318,-29.1827C266.529,-27.937 275.061,-26.6425 283.459,-25.3683"/>
<polygon fill="midnightblue" stroke="midnightblue" points="284.242,-28.7896 293.604,-23.829 283.192,-21.8688 284.242,-28.7896"/>
</g>
</g>
</svg>
