<?xml version="1.0" encoding="UTF-8" standalone="no"?>
<!DOCTYPE svg PUBLIC "-//W3C//DTD SVG 1.1//EN"
 "http://www.w3.org/Graphics/SVG/1.1/DTD/svg11.dtd">
<!-- Generated by graphviz version 2.38.0 (20140413.2041)
 -->
<!-- Title: BasisnamesOne Pages: 1 -->
<svg width="330pt" height="185pt"
 viewBox="0.00 0.00 329.50 185.00" xmlns="http://www.w3.org/2000/svg" xmlns:xlink="http://www.w3.org/1999/xlink">
<g id="graph0" class="graph" transform="scale(1 1) rotate(0) translate(4 181)">
<title>BasisnamesOne</title>
<!-- Node1 -->
<g id="node1" class="node"><title>Node1</title>
<polygon fill="#bfbfbf" stroke="black" points="134,-0.5 134,-19.5 229,-19.5 229,-0.5 134,-0.5"/>
<text text-anchor="middle" x="181.5" y="-7.5" font-family="Helvetica,sans-Serif" font-size="10.00">BasisnamesOne</text>
</g>
<!-- Node2 -->
<g id="node2" class="node"><title>Node2</title>
<g id="a_node2"><a xlink:href="classBasisnames.html" target="_top" xlink:title="Basisnames\&lt; StateOne \&gt;">
<polygon fill="none" stroke="black" points="110,-57.5 110,-76.5 253,-76.5 253,-57.5 110,-57.5"/>
<text text-anchor="middle" x="181.5" y="-64.5" font-family="Helvetica,sans-Serif" font-size="10.00">Basisnames&lt; StateOne &gt;</text>
</a>
</g>
</g>
<!-- Node2&#45;&gt;Node1 -->
<g id="edge1" class="edge"><title>Node2&#45;&gt;Node1</title>
<path fill="none" stroke="midnightblue" d="M181.5,-47.1166C181.5,-37.8173 181.5,-27.0557 181.5,-19.7149"/>
<polygon fill="midnightblue" stroke="midnightblue" points="178,-47.4062 181.5,-57.4062 185,-47.4063 178,-47.4062"/>
</g>
<!-- Node3 -->
<g id="node3" class="node"><title>Node3</title>
<g id="a_node3"><a xlink:href="classstd_1_1vector_3_01StateOne_01_4.html" target="_top" xlink:title="vector\&lt; StateOne \&gt;">
<polygon fill="none" stroke="black" points="0,-157.5 0,-176.5 115,-176.5 115,-157.5 0,-157.5"/>
<text text-anchor="middle" x="57.5" y="-164.5" font-family="Helvetica,sans-Serif" font-size="10.00">vector&lt; StateOne &gt;</text>
</a>
</g>
</g>
<!-- Node3&#45;&gt;Node2 -->
<g id="edge2" class="edge"><title>Node3&#45;&gt;Node2</title>
<path fill="none" stroke="#9a32cd" stroke-dasharray="5,2" d="M66.1725,-147.959C74.6766,-132.007 89.0408,-109.136 107.5,-95 118.358,-86.6851 132.024,-80.7463 144.648,-76.5961"/>
<polygon fill="#9a32cd" stroke="#9a32cd" points="62.8467,-146.779 61.4462,-157.28 69.0901,-149.944 62.8467,-146.779"/>
<text text-anchor="middle" x="128.5" y="-114.5" font-family="Helvetica,sans-Serif" font-size="10.00"> names_</text>
</g>
<!-- Node4 -->
<g id="node4" class="node"><title>Node4</title>
<g id="a_node4"><a xlink:href="classsize__t.html" target="_top" xlink:title="size_t">
<polygon fill="none" stroke="black" points="132.5,-157.5 132.5,-176.5 176.5,-176.5 176.5,-157.5 132.5,-157.5"/>
<text text-anchor="middle" x="154.5" y="-164.5" font-family="Helvetica,sans-Serif" font-size="10.00">size_t</text>
</a>
</g>
</g>
<!-- Node4&#45;&gt;Node2 -->
<g id="edge3" class="edge"><title>Node4&#45;&gt;Node2</title>
<path fill="none" stroke="#9a32cd" stroke-dasharray="5,2" d="M152.787,-146.984C152.174,-132.278 152.895,-111.681 159.5,-95 162.26,-88.0288 167.508,-81.4763 172.186,-76.5724"/>
<polygon fill="#9a32cd" stroke="#9a32cd" points="149.319,-147.583 153.478,-157.327 156.303,-147.116 149.319,-147.583"/>
<text text-anchor="middle" x="173" y="-114.5" font-family="Helvetica,sans-Serif" font-size="10.00"> dim_</text>
</g>
<!-- Node5 -->
<g id="node5" class="node"><title>Node5</title>
<g id="a_node5"><a xlink:href="classint.html" target="_top" xlink:title="int">
<polygon fill="none" stroke="black" points="194,-157.5 194,-176.5 223,-176.5 223,-157.5 194,-157.5"/>
<text text-anchor="middle" x="208.5" y="-164.5" font-family="Helvetica,sans-Serif" font-size="10.00">int</text>
</a>
</g>
</g>
<!-- Node5&#45;&gt;Node2 -->
<g id="edge4" class="edge"><title>Node5&#45;&gt;Node2</title>
<path fill="none" stroke="#9a32cd" stroke-dasharray="5,2" d="M203.407,-147.514C197.552,-126.263 188.193,-92.2919 183.852,-76.5374"/>
<polygon fill="#9a32cd" stroke="#9a32cd" points="200.073,-148.592 206.104,-157.303 206.822,-146.733 200.073,-148.592"/>
<text text-anchor="middle" x="221.5" y="-131" font-family="Helvetica,sans-Serif" font-size="10.00"> delta_j</text>
<text text-anchor="middle" x="221.5" y="-120" font-family="Helvetica,sans-Serif" font-size="10.00">delta_l</text>
<text text-anchor="middle" x="221.5" y="-109" font-family="Helvetica,sans-Serif" font-size="10.00">delta_m</text>
<text text-anchor="middle" x="221.5" y="-98" font-family="Helvetica,sans-Serif" font-size="10.00">delta_n</text>
</g>
<!-- Node6 -->
<g id="node6" class="node"><title>Node6</title>
<g id="a_node6"><a xlink:href="classConfiguration.html" target="_top" xlink:title="Configuration">
<polygon fill="none" stroke="black" points="241.5,-157.5 241.5,-176.5 321.5,-176.5 321.5,-157.5 241.5,-157.5"/>
<text text-anchor="middle" x="281.5" y="-164.5" font-family="Helvetica,sans-Serif" font-size="10.00">Configuration</text>
</a>
</g>
</g>
<!-- Node6&#45;&gt;Node2 -->
<g id="edge5" class="edge"><title>Node6&#45;&gt;Node2</title>
<path fill="none" stroke="#9a32cd" stroke-dasharray="5,2" d="M276.191,-147.693C270.772,-131.89 260.941,-109.396 245.5,-95 236.591,-86.6943 224.75,-80.7396 213.677,-76.5737"/>
<polygon fill="#9a32cd" stroke="#9a32cd" points="272.902,-148.902 279.252,-157.383 279.577,-146.793 272.902,-148.902"/>
<text text-anchor="middle" x="284.5" y="-114.5" font-family="Helvetica,sans-Serif" font-size="10.00"> conf</text>
</g>
</g>
</svg>
