<?xml version="1.0" encoding="UTF-8" standalone="no"?>
<!DOCTYPE svg PUBLIC "-//W3C//DTD SVG 1.1//EN"
 "http://www.w3.org/Graphics/SVG/1.1/DTD/svg11.dtd">
<!-- Generated by graphviz version 2.38.0 (20140413.2041)
 -->
<!-- Title: pairinteraction.guiadditions.GuiDict Pages: 1 -->
<svg width="352pt" height="95pt"
 viewBox="0.00 0.00 352.00 95.00" xmlns="http://www.w3.org/2000/svg" xmlns:xlink="http://www.w3.org/1999/xlink">
<g id="graph0" class="graph" transform="scale(1 1) rotate(0) translate(4 91)">
<title>pairinteraction.guiadditions.GuiDict</title>
<!-- Node1 -->
<g id="node1" class="node"><title>Node1</title>
<polygon fill="#bfbfbf" stroke="black" points="107,-0.5 107,-30.5 256,-30.5 256,-0.5 107,-0.5"/>
<text text-anchor="start" x="115" y="-18.5" font-family="Helvetica,sans-Serif" font-size="10.00">pairinteraction.guiadditions.</text>
<text text-anchor="middle" x="181.5" y="-7.5" font-family="Helvetica,sans-Serif" font-size="10.00">GuiDict</text>
</g>
<!-- Node2 -->
<g id="node2" class="node"><title>Node2</title>
<polygon fill="none" stroke="#bfbfbf" points="0,-67.5 0,-86.5 67,-86.5 67,-67.5 0,-67.5"/>
<text text-anchor="middle" x="33.5" y="-74.5" font-family="Helvetica,sans-Serif" font-size="10.00">collections</text>
</g>
<!-- Node2&#45;&gt;Node1 -->
<g id="edge1" class="edge"><title>Node2&#45;&gt;Node1</title>
<path fill="none" stroke="midnightblue" d="M64.0479,-63.7189C88.0684,-54.062 121.548,-40.6023 146.619,-30.523"/>
<polygon fill="midnightblue" stroke="midnightblue" points="62.6775,-60.4975 54.7048,-67.4751 65.2886,-66.9923 62.6775,-60.4975"/>
</g>
<!-- Node3 -->
<g id="node3" class="node"><title>Node3</title>
<g id="a_node3"><a xlink:href="classMutableMapping.html" target="_top" xlink:title="MutableMapping">
<polygon fill="none" stroke="black" points="85,-67.5 85,-86.5 180,-86.5 180,-67.5 85,-67.5"/>
<text text-anchor="middle" x="132.5" y="-74.5" font-family="Helvetica,sans-Serif" font-size="10.00">MutableMapping</text>
</a>
</g>
</g>
<!-- Node3&#45;&gt;Node1 -->
<g id="edge2" class="edge"><title>Node3&#45;&gt;Node1</title>
<path fill="none" stroke="midnightblue" d="M146.064,-59.5296C153.568,-50.4173 162.795,-39.2136 169.952,-30.523"/>
<polygon fill="midnightblue" stroke="midnightblue" points="143.176,-57.5308 139.521,-67.4751 148.579,-61.9808 143.176,-57.5308"/>
</g>
<!-- Node4 -->
<g id="node4" class="node"><title>Node4</title>
<g id="a_node4"><a xlink:href="classmetaclass.html" target="_top" xlink:title="metaclass">
<polygon fill="none" stroke="black" points="198.5,-67.5 198.5,-86.5 264.5,-86.5 264.5,-67.5 198.5,-67.5"/>
<text text-anchor="middle" x="231.5" y="-74.5" font-family="Helvetica,sans-Serif" font-size="10.00">metaclass</text>
</a>
</g>
</g>
<!-- Node4&#45;&gt;Node1 -->
<g id="edge3" class="edge"><title>Node4&#45;&gt;Node1</title>
<path fill="none" stroke="midnightblue" d="M217.896,-59.8108C210.196,-50.6486 200.662,-39.3032 193.284,-30.523"/>
<polygon fill="midnightblue" stroke="midnightblue" points="215.223,-62.071 224.336,-67.4751 220.582,-57.5676 215.223,-62.071"/>
</g>
<!-- Node5 -->
<g id="node5" class="node"><title>Node5</title>
<polygon fill="none" stroke="#bfbfbf" points="283,-67.5 283,-86.5 344,-86.5 344,-67.5 283,-67.5"/>
<text text-anchor="middle" x="313.5" y="-74.5" font-family="Helvetica,sans-Serif" font-size="10.00">ABCMeta</text>
</g>
<!-- Node5&#45;&gt;Node1 -->
<g id="edge4" class="edge"><title>Node5&#45;&gt;Node1</title>
<path fill="none" stroke="midnightblue" d="M285.393,-63.3306C264.036,-53.7037 234.673,-40.468 212.61,-30.523"/>
<polygon fill="midnightblue" stroke="midnightblue" points="284.033,-66.5565 294.588,-67.4751 286.909,-60.1748 284.033,-66.5565"/>
</g>
</g>
</svg>
