<?xml version="1.0" encoding="UTF-8" standalone="no"?>
<!DOCTYPE svg PUBLIC "-//W3C//DTD SVG 1.1//EN"
 "http://www.w3.org/Graphics/SVG/1.1/DTD/svg11.dtd">
<!-- Generated by graphviz version 2.38.0 (20140413.2041)
 -->
<!-- Title: Basisnames::configure Pages: 1 -->
<svg width="711pt" height="104pt"
 viewBox="0.00 0.00 711.00 104.00" xmlns="http://www.w3.org/2000/svg" xmlns:xlink="http://www.w3.org/1999/xlink">
<g id="graph0" class="graph" transform="scale(1 1) rotate(0) translate(4 100)">
<title>Basisnames::configure</title>
<!-- Node1 -->
<g id="node1" class="node"><title>Node1</title>
<polygon fill="#bfbfbf" stroke="black" points="0,-38.5 0,-57.5 125,-57.5 125,-38.5 0,-38.5"/>
<text text-anchor="middle" x="62.5" y="-45.5" font-family="Helvetica,sans-Serif" font-size="10.00">Basisnames::configure</text>
</g>
<!-- Node2 -->
<g id="node2" class="node"><title>Node2</title>
<g id="a_node2"><a xlink:href="classBasisnamesOne.html#ab3030f74ccafcc178f38e7a8ada13b9b" target="_top" xlink:title="BasisnamesOne::fromBoth">
<polygon fill="none" stroke="black" points="167.5,-76.5 167.5,-95.5 313.5,-95.5 313.5,-76.5 167.5,-76.5"/>
<text text-anchor="middle" x="240.5" y="-83.5" font-family="Helvetica,sans-Serif" font-size="10.00">BasisnamesOne::fromBoth</text>
</a>
</g>
</g>
<!-- Node1&#45;&gt;Node2 -->
<g id="edge1" class="edge"><title>Node1&#45;&gt;Node2</title>
<path fill="none" stroke="midnightblue" d="M117.933,-59.7526C142.819,-65.1258 171.919,-71.4086 195.407,-76.4799"/>
<polygon fill="midnightblue" stroke="midnightblue" points="118.426,-56.2784 107.912,-57.589 116.948,-63.1207 118.426,-56.2784"/>
</g>
<!-- Node4 -->
<g id="node4" class="node"><title>Node4</title>
<g id="a_node4"><a xlink:href="classBasisnamesOne.html#a37fe3571090885a8a594eed4019befa9" target="_top" xlink:title="BasisnamesOne::fromFirst">
<polygon fill="none" stroke="black" points="169,-0.5 169,-19.5 312,-19.5 312,-0.5 169,-0.5"/>
<text text-anchor="middle" x="240.5" y="-7.5" font-family="Helvetica,sans-Serif" font-size="10.00">BasisnamesOne::fromFirst</text>
</a>
</g>
</g>
<!-- Node1&#45;&gt;Node4 -->
<g id="edge3" class="edge"><title>Node1&#45;&gt;Node4</title>
<path fill="none" stroke="midnightblue" d="M117.933,-36.2474C142.819,-30.8742 171.919,-24.5914 195.407,-19.5201"/>
<polygon fill="midnightblue" stroke="midnightblue" points="116.948,-32.8793 107.912,-38.411 118.426,-39.7216 116.948,-32.8793"/>
</g>
<!-- Node7 -->
<g id="node7" class="node"><title>Node7</title>
<g id="a_node7"><a xlink:href="classBasisnamesOne.html#a683ae34cba3c56f9a0185e932de62078" target="_top" xlink:title="BasisnamesOne::fromSecond">
<polygon fill="none" stroke="black" points="161,-38.5 161,-57.5 320,-57.5 320,-38.5 161,-38.5"/>
<text text-anchor="middle" x="240.5" y="-45.5" font-family="Helvetica,sans-Serif" font-size="10.00">BasisnamesOne::fromSecond</text>
</a>
</g>
</g>
<!-- Node1&#45;&gt;Node7 -->
<g id="edge7" class="edge"><title>Node1&#45;&gt;Node7</title>
<path fill="none" stroke="midnightblue" d="M135.261,-48C143.73,-48 152.406,-48 160.962,-48"/>
<polygon fill="midnightblue" stroke="midnightblue" points="135.056,-44.5001 125.056,-48 135.056,-51.5001 135.056,-44.5001"/>
</g>
<!-- Node3 -->
<g id="node3" class="node"><title>Node3</title>
<g id="a_node3"><a xlink:href="main_8cpp.html#a3c04138a5bfe5d72780bb7e82a18e627" target="_top" xlink:title="main">
<polygon fill="none" stroke="black" points="405.5,-38.5 405.5,-57.5 446.5,-57.5 446.5,-38.5 405.5,-38.5"/>
<text text-anchor="middle" x="426" y="-45.5" font-family="Helvetica,sans-Serif" font-size="10.00">main</text>
</a>
</g>
</g>
<!-- Node2&#45;&gt;Node3 -->
<g id="edge2" class="edge"><title>Node2&#45;&gt;Node3</title>
<path fill="none" stroke="midnightblue" d="M297.831,-74.3348C334.29,-66.7846 379.565,-57.4089 405.079,-52.1254"/>
<polygon fill="midnightblue" stroke="midnightblue" points="296.887,-70.9558 287.805,-76.411 298.307,-77.8104 296.887,-70.9558"/>
</g>
<!-- Node4&#45;&gt;Node3 -->
<g id="edge6" class="edge"><title>Node4&#45;&gt;Node3</title>
<path fill="none" stroke="midnightblue" d="M297.831,-21.6652C334.29,-29.2154 379.565,-38.5911 405.079,-43.8746"/>
<polygon fill="midnightblue" stroke="midnightblue" points="298.307,-18.1896 287.805,-19.589 296.887,-25.0442 298.307,-18.1896"/>
</g>
<!-- Node5 -->
<g id="node5" class="node"><title>Node5</title>
<g id="a_node5"><a xlink:href="classHamiltonianTwo.html#a6ca0a318f25170b69e571a07064a5afb" target="_top" xlink:title="HamiltonianTwo::calculate">
<polygon fill="none" stroke="black" points="356,-0.5 356,-19.5 496,-19.5 496,-0.5 356,-0.5"/>
<text text-anchor="middle" x="426" y="-7.5" font-family="Helvetica,sans-Serif" font-size="10.00">HamiltonianTwo::calculate</text>
</a>
</g>
</g>
<!-- Node4&#45;&gt;Node5 -->
<g id="edge4" class="edge"><title>Node4&#45;&gt;Node5</title>
<path fill="none" stroke="midnightblue" d="M322.364,-10C333.538,-10 344.93,-10 355.865,-10"/>
<polygon fill="midnightblue" stroke="midnightblue" points="322.183,-6.5001 312.183,-10 322.183,-13.5001 322.183,-6.5001"/>
</g>
<!-- Node6 -->
<g id="node6" class="node"><title>Node6</title>
<g id="a_node6"><a xlink:href="classHamiltonianTwo.html#a8d51d632bd7862cf1e566f6faf9ccc8c" target="_top" xlink:title="HamiltonianTwo::HamiltonianTwo">
<polygon fill="none" stroke="black" points="532,-0.5 532,-19.5 703,-19.5 703,-0.5 532,-0.5"/>
<text text-anchor="middle" x="617.5" y="-7.5" font-family="Helvetica,sans-Serif" font-size="10.00">HamiltonianTwo::HamiltonianTwo</text>
</a>
</g>
</g>
<!-- Node5&#45;&gt;Node6 -->
<g id="edge5" class="edge"><title>Node5&#45;&gt;Node6</title>
<path fill="none" stroke="midnightblue" d="M506.424,-10C514.874,-10 523.492,-10 531.997,-10"/>
<polygon fill="midnightblue" stroke="midnightblue" points="506.218,-6.5001 496.218,-10 506.218,-13.5001 506.218,-6.5001"/>
</g>
<!-- Node7&#45;&gt;Node3 -->
<g id="edge9" class="edge"><title>Node7&#45;&gt;Node3</title>
<path fill="none" stroke="midnightblue" d="M330.452,-48C358.595,-48 387.089,-48 405.33,-48"/>
<polygon fill="midnightblue" stroke="midnightblue" points="330.119,-44.5001 320.119,-48 330.119,-51.5001 330.119,-44.5001"/>
</g>
<!-- Node7&#45;&gt;Node5 -->
<g id="edge8" class="edge"><title>Node7&#45;&gt;Node5</title>
<path fill="none" stroke="midnightblue" d="M297.907,-36.319C323.93,-30.9301 354.43,-24.6139 379.028,-19.5201"/>
<polygon fill="midnightblue" stroke="midnightblue" points="296.887,-32.9558 287.805,-38.411 298.307,-39.8104 296.887,-32.9558"/>
</g>
</g>
</svg>
