<?xml version="1.0" encoding="UTF-8" standalone="no"?>
<!DOCTYPE svg PUBLIC "-//W3C//DTD SVG 1.1//EN"
 "http://www.w3.org/Graphics/SVG/1.1/DTD/svg11.dtd">
<!-- Generated by graphviz version 2.38.0 (20140413.2041)
 -->
<!-- Title: metaclass Pages: 1 -->
<svg width="338pt" height="151pt"
 viewBox="0.00 0.00 337.50 151.00" xmlns="http://www.w3.org/2000/svg" xmlns:xlink="http://www.w3.org/1999/xlink">
<g id="graph0" class="graph" transform="scale(1 1) rotate(0) translate(4 147)">
<title>metaclass</title>
<!-- Node0 -->
<g id="node1" class="node"><title>Node0</title>
<polygon fill="#bfbfbf" stroke="black" points="127,-123.5 127,-142.5 193,-142.5 193,-123.5 127,-123.5"/>
<text text-anchor="middle" x="160" y="-130.5" font-family="Helvetica,sans-Serif" font-size="10.00">metaclass</text>
</g>
<!-- Node1 -->
<g id="node2" class="node"><title>Node1</title>
<g id="a_node2"><a xlink:href="classpairinteraction_1_1guiadditions_1_1GuiDict.html" target="_top" xlink:title="pairinteraction.guiadditions.\lGuiDict">
<polygon fill="none" stroke="black" points="85.5,-56.5 85.5,-86.5 234.5,-86.5 234.5,-56.5 85.5,-56.5"/>
<text text-anchor="start" x="93.5" y="-74.5" font-family="Helvetica,sans-Serif" font-size="10.00">pairinteraction.guiadditions.</text>
<text text-anchor="middle" x="160" y="-63.5" font-family="Helvetica,sans-Serif" font-size="10.00">GuiDict</text>
</a>
</g>
</g>
<!-- Node0&#45;&gt;Node1 -->
<g id="edge1" class="edge"><title>Node0&#45;&gt;Node1</title>
<path fill="none" stroke="midnightblue" d="M160,-113.235C160,-104.586 160,-94.4969 160,-86.523"/>
<polygon fill="midnightblue" stroke="midnightblue" points="156.5,-113.475 160,-123.475 163.5,-113.475 156.5,-113.475"/>
</g>
<!-- Node2 -->
<g id="node3" class="node"><title>Node2</title>
<g id="a_node3"><a xlink:href="classpairinteraction_1_1app_1_1PlotDict.html" target="_top" xlink:title="pairinteraction.app.PlotDict">
<polygon fill="none" stroke="black" points="0,-0.5 0,-19.5 146,-19.5 146,-0.5 0,-0.5"/>
<text text-anchor="middle" x="73" y="-7.5" font-family="Helvetica,sans-Serif" font-size="10.00">pairinteraction.app.PlotDict</text>
</a>
</g>
</g>
<!-- Node1&#45;&gt;Node2 -->
<g id="edge2" class="edge"><title>Node1&#45;&gt;Node2</title>
<path fill="none" stroke="midnightblue" d="M130.731,-50.483C115.405,-40.0013 97.4304,-27.7081 85.6593,-19.6578"/>
<polygon fill="midnightblue" stroke="midnightblue" points="129.152,-53.6431 139.382,-56.3993 133.104,-47.8652 129.152,-53.6431"/>
</g>
<!-- Node3 -->
<g id="node4" class="node"><title>Node3</title>
<g id="a_node4"><a xlink:href="classpairinteraction_1_1app_1_1SystemDict.html" target="_top" xlink:title="pairinteraction.app.SystemDict">
<polygon fill="none" stroke="black" points="164.5,-0.5 164.5,-19.5 329.5,-19.5 329.5,-0.5 164.5,-0.5"/>
<text text-anchor="middle" x="247" y="-7.5" font-family="Helvetica,sans-Serif" font-size="10.00">pairinteraction.app.SystemDict</text>
</a>
</g>
</g>
<!-- Node1&#45;&gt;Node3 -->
<g id="edge3" class="edge"><title>Node1&#45;&gt;Node3</title>
<path fill="none" stroke="midnightblue" d="M189.269,-50.483C204.595,-40.0013 222.57,-27.7081 234.341,-19.6578"/>
<polygon fill="midnightblue" stroke="midnightblue" points="186.896,-47.8652 180.618,-56.3993 190.848,-53.6431 186.896,-47.8652"/>
</g>
</g>
</svg>
