<?xml version="1.0" encoding="UTF-8" standalone="no"?>
<!DOCTYPE svg PUBLIC "-//W3C//DTD SVG 1.1//EN"
 "http://www.w3.org/Graphics/SVG/1.1/DTD/svg11.dtd">
<!-- Generated by graphviz version 2.38.0 (20140413.2041)
 -->
<!-- Title: sqlite::handle::query Pages: 1 -->
<svg width="333pt" height="104pt"
 viewBox="0.00 0.00 333.00 104.00" xmlns="http://www.w3.org/2000/svg" xmlns:xlink="http://www.w3.org/1999/xlink">
<g id="graph0" class="graph" transform="scale(1 1) rotate(0) translate(4 100)">
<title>sqlite::handle::query</title>
<!-- Node1 -->
<g id="node1" class="node"><title>Node1</title>
<polygon fill="#bfbfbf" stroke="black" points="0,-38.5 0,-57.5 113,-57.5 113,-38.5 0,-38.5"/>
<text text-anchor="middle" x="56.5" y="-45.5" font-family="Helvetica,sans-Serif" font-size="10.00">sqlite::handle::query</text>
</g>
<!-- Node2 -->
<g id="node2" class="node"><title>Node2</title>
<g id="a_node2"><a xlink:href="quantum__defect__test_8cpp.html#aa6d045e9def139cd75c41b225e83676e" target="_top" xlink:title="BOOST_AUTO_TEST_CASE">
<polygon fill="none" stroke="black" points="165.5,-76.5 165.5,-95.5 308.5,-95.5 308.5,-76.5 165.5,-76.5"/>
<text text-anchor="middle" x="237" y="-83.5" font-family="Helvetica,sans-Serif" font-size="10.00">BOOST_AUTO_TEST_CASE</text>
</a>
</g>
</g>
<!-- Node1&#45;&gt;Node2 -->
<g id="edge1" class="edge"><title>Node1&#45;&gt;Node2</title>
<path fill="none" stroke="midnightblue" d="M112.37,-59.681C137.684,-65.0699 167.353,-71.3861 191.281,-76.4799"/>
<polygon fill="midnightblue" stroke="midnightblue" points="113.053,-56.248 102.543,-57.589 111.595,-63.0946 113.053,-56.248"/>
</g>
<!-- Node3 -->
<g id="node3" class="node"><title>Node3</title>
<g id="a_node3"><a xlink:href="classQuantumDefect.html#a6d0386ca03dd44ecd0cd494a140a3858" target="_top" xlink:title="Constructor. ">
<polygon fill="none" stroke="black" points="149,-38.5 149,-57.5 325,-57.5 325,-38.5 149,-38.5"/>
<text text-anchor="middle" x="237" y="-45.5" font-family="Helvetica,sans-Serif" font-size="10.00">QuantumDefect::QuantumDefect</text>
</a>
</g>
</g>
<!-- Node1&#45;&gt;Node3 -->
<g id="edge2" class="edge"><title>Node1&#45;&gt;Node3</title>
<path fill="none" stroke="midnightblue" d="M123.044,-48C131.418,-48 140.092,-48 148.742,-48"/>
<polygon fill="midnightblue" stroke="midnightblue" points="123,-44.5001 113,-48 123,-51.5001 123,-44.5001"/>
</g>
<!-- Node4 -->
<g id="node4" class="node"><title>Node4</title>
<g id="a_node4"><a xlink:href="classsqlite_1_1handle.html#a68073d60aa1d2fd1025369c9ec1853da" target="_top" xlink:title="sqlite::handle::query">
<polygon fill="none" stroke="black" points="180.5,-0.5 180.5,-19.5 293.5,-19.5 293.5,-0.5 180.5,-0.5"/>
<text text-anchor="middle" x="237" y="-7.5" font-family="Helvetica,sans-Serif" font-size="10.00">sqlite::handle::query</text>
</a>
</g>
</g>
<!-- Node1&#45;&gt;Node4 -->
<g id="edge3" class="edge"><title>Node1&#45;&gt;Node4</title>
<path fill="none" stroke="midnightblue" d="M112.37,-36.319C137.684,-30.9301 167.353,-24.6139 191.281,-19.5201"/>
<polygon fill="midnightblue" stroke="midnightblue" points="111.595,-32.9054 102.543,-38.411 113.053,-39.752 111.595,-32.9054"/>
</g>
</g>
</svg>
