<?xml version="1.0" encoding="UTF-8" standalone="no"?>
<!DOCTYPE svg PUBLIC "-//W3C//DTD SVG 1.1//EN"
 "http://www.w3.org/Graphics/SVG/1.1/DTD/svg11.dtd">
<!-- Generated by graphviz version 2.38.0 (20140413.2041)
 -->
<!-- Title: /travis/calc/ConfParser.cpp Pages: 1 -->
<svg width="547pt" height="207pt"
 viewBox="0.00 0.00 547.00 207.00" xmlns="http://www.w3.org/2000/svg" xmlns:xlink="http://www.w3.org/1999/xlink">
<g id="graph0" class="graph" transform="scale(1 1) rotate(0) translate(4 203)">
<title>/travis/calc/ConfParser.cpp</title>
<!-- Node0 -->
<g id="node1" class="node"><title>Node0</title>
<polygon fill="#bfbfbf" stroke="black" points="140,-179.5 140,-198.5 282,-198.5 282,-179.5 140,-179.5"/>
<text text-anchor="middle" x="211" y="-186.5" font-family="Helvetica,sans-Serif" font-size="10.00">/travis/calc/ConfParser.cpp</text>
</g>
<!-- Node1 -->
<g id="node2" class="node"><title>Node1</title>
<g id="a_node2"><a xlink:href="ConfParser_8h.html" target="_top" xlink:title="ConfParser.h">
<polygon fill="none" stroke="black" points="51.5,-118 51.5,-137 128.5,-137 128.5,-118 51.5,-118"/>
<text text-anchor="middle" x="90" y="-125" font-family="Helvetica,sans-Serif" font-size="10.00">ConfParser.h</text>
</a>
</g>
</g>
<!-- Node0&#45;&gt;Node1 -->
<g id="edge1" class="edge"><title>Node0&#45;&gt;Node1</title>
<path fill="none" stroke="midnightblue" d="M193.664,-179.475C173.447,-169.534 139.813,-152.995 116.358,-141.461"/>
<polygon fill="midnightblue" stroke="midnightblue" points="117.822,-138.281 107.304,-137.009 114.733,-144.563 117.822,-138.281"/>
</g>
<!-- Node2 -->
<g id="node3" class="node"><title>Node2</title>
<polygon fill="none" stroke="#bfbfbf" points="0,-56.5 0,-75.5 44,-75.5 44,-56.5 0,-56.5"/>
<text text-anchor="middle" x="22" y="-63.5" font-family="Helvetica,sans-Serif" font-size="10.00">string</text>
</g>
<!-- Node0&#45;&gt;Node2 -->
<g id="edge10" class="edge"><title>Node0&#45;&gt;Node2</title>
<path fill="none" stroke="midnightblue" d="M139.946,-185.176C106.145,-180.205 67.6188,-168.693 42,-143 27.05,-128.006 22.8759,-103.263 21.9067,-86.0997"/>
<polygon fill="midnightblue" stroke="midnightblue" points="25.3946,-85.5545 21.6547,-75.6417 18.3967,-85.7231 25.3946,-85.5545"/>
</g>
<!-- Node10 -->
<g id="node11" class="node"><title>Node10</title>
<polygon fill="none" stroke="#bfbfbf" points="147,-118 147,-137 201,-137 201,-118 147,-118"/>
<text text-anchor="middle" x="174" y="-125" font-family="Helvetica,sans-Serif" font-size="10.00">fstream</text>
</g>
<!-- Node0&#45;&gt;Node10 -->
<g id="edge11" class="edge"><title>Node0&#45;&gt;Node10</title>
<path fill="none" stroke="midnightblue" d="M205.699,-179.475C200.259,-170.727 191.641,-156.869 184.764,-145.809"/>
<polygon fill="midnightblue" stroke="midnightblue" points="187.544,-143.653 179.291,-137.009 181.6,-147.349 187.544,-143.653"/>
</g>
<!-- Node11 -->
<g id="node12" class="node"><title>Node11</title>
<polygon fill="none" stroke="#bfbfbf" points="219.5,-118 219.5,-137 278.5,-137 278.5,-118 219.5,-118"/>
<text text-anchor="middle" x="249" y="-125" font-family="Helvetica,sans-Serif" font-size="10.00">iostream</text>
</g>
<!-- Node0&#45;&gt;Node11 -->
<g id="edge12" class="edge"><title>Node0&#45;&gt;Node11</title>
<path fill="none" stroke="midnightblue" d="M216.444,-179.475C222.088,-170.638 231.061,-156.589 238.159,-145.475"/>
<polygon fill="midnightblue" stroke="midnightblue" points="241.133,-147.321 243.566,-137.009 235.233,-143.553 241.133,-147.321"/>
</g>
<!-- Node12 -->
<g id="node13" class="node"><title>Node12</title>
<polygon fill="none" stroke="#bfbfbf" points="297,-112.5 297,-142.5 409,-142.5 409,-112.5 297,-112.5"/>
<text text-anchor="start" x="305" y="-130.5" font-family="Helvetica,sans-Serif" font-size="10.00">boost/property_tree</text>
<text text-anchor="middle" x="353" y="-119.5" font-family="Helvetica,sans-Serif" font-size="10.00">/ptree.hpp</text>
</g>
<!-- Node0&#45;&gt;Node12 -->
<g id="edge13" class="edge"><title>Node0&#45;&gt;Node12</title>
<path fill="none" stroke="midnightblue" d="M231.345,-179.475C251.835,-170.889 284.07,-157.383 310.211,-146.429"/>
<polygon fill="midnightblue" stroke="midnightblue" points="311.663,-149.616 319.533,-142.523 308.958,-143.16 311.663,-149.616"/>
</g>
<!-- Node13 -->
<g id="node14" class="node"><title>Node13</title>
<polygon fill="none" stroke="#bfbfbf" points="427,-112.5 427,-142.5 539,-142.5 539,-112.5 427,-112.5"/>
<text text-anchor="start" x="435" y="-130.5" font-family="Helvetica,sans-Serif" font-size="10.00">boost/property_tree</text>
<text text-anchor="middle" x="483" y="-119.5" font-family="Helvetica,sans-Serif" font-size="10.00">/json_parser.hpp</text>
</g>
<!-- Node0&#45;&gt;Node13 -->
<g id="edge14" class="edge"><title>Node0&#45;&gt;Node13</title>
<path fill="none" stroke="midnightblue" d="M250.697,-179.437C290.342,-170.87 353.291,-157.228 417.146,-143.182"/>
<polygon fill="midnightblue" stroke="midnightblue" points="417.971,-146.584 426.984,-141.016 416.466,-139.748 417.971,-146.584"/>
</g>
<!-- Node1&#45;&gt;Node2 -->
<g id="edge2" class="edge"><title>Node1&#45;&gt;Node2</title>
<path fill="none" stroke="midnightblue" d="M80.2573,-117.975C69.6532,-108.697 52.4807,-93.6706 39.5212,-82.331"/>
<polygon fill="midnightblue" stroke="midnightblue" points="41.5552,-79.4601 31.7247,-75.5091 36.9457,-84.7282 41.5552,-79.4601"/>
</g>
<!-- Node3 -->
<g id="node4" class="node"><title>Node3</title>
<polygon fill="none" stroke="#bfbfbf" points="62,-56.5 62,-75.5 118,-75.5 118,-56.5 62,-56.5"/>
<text text-anchor="middle" x="90" y="-63.5" font-family="Helvetica,sans-Serif" font-size="10.00">sstream</text>
</g>
<!-- Node1&#45;&gt;Node3 -->
<g id="edge3" class="edge"><title>Node1&#45;&gt;Node3</title>
<path fill="none" stroke="midnightblue" d="M90,-117.975C90,-109.58 90,-96.4806 90,-85.6631"/>
<polygon fill="midnightblue" stroke="midnightblue" points="93.5001,-85.5091 90,-75.5091 86.5001,-85.5091 93.5001,-85.5091"/>
</g>
<!-- Node4 -->
<g id="node5" class="node"><title>Node4</title>
<polygon fill="none" stroke="#bfbfbf" points="136,-56.5 136,-75.5 174,-75.5 174,-56.5 136,-56.5"/>
<text text-anchor="middle" x="155" y="-63.5" font-family="Helvetica,sans-Serif" font-size="10.00">map</text>
</g>
<!-- Node1&#45;&gt;Node4 -->
<g id="edge4" class="edge"><title>Node1&#45;&gt;Node4</title>
<path fill="none" stroke="midnightblue" d="M99.3129,-117.975C109.449,-108.697 125.864,-93.6706 138.252,-82.331"/>
<polygon fill="midnightblue" stroke="midnightblue" points="140.691,-84.8429 145.704,-75.5091 135.965,-79.6795 140.691,-84.8429"/>
</g>
<!-- Node5 -->
<g id="node6" class="node"><title>Node5</title>
<g id="a_node6"><a xlink:href="dtypes_8h.html" target="_top" xlink:title="dtypes.h">
<polygon fill="none" stroke="black" points="192,-56.5 192,-75.5 250,-75.5 250,-56.5 192,-56.5"/>
<text text-anchor="middle" x="221" y="-63.5" font-family="Helvetica,sans-Serif" font-size="10.00">dtypes.h</text>
</a>
</g>
</g>
<!-- Node1&#45;&gt;Node5 -->
<g id="edge5" class="edge"><title>Node1&#45;&gt;Node5</title>
<path fill="none" stroke="midnightblue" d="M108.769,-117.975C130.851,-107.945 167.719,-91.2002 193.139,-79.6546"/>
<polygon fill="midnightblue" stroke="midnightblue" points="194.608,-82.8313 202.266,-75.5091 191.713,-76.4579 194.608,-82.8313"/>
</g>
<!-- Node6 -->
<g id="node7" class="node"><title>Node6</title>
<polygon fill="none" stroke="#bfbfbf" points="95.5,-0.5 95.5,-19.5 142.5,-19.5 142.5,-0.5 95.5,-0.5"/>
<text text-anchor="middle" x="119" y="-7.5" font-family="Helvetica,sans-Serif" font-size="10.00">vector</text>
</g>
<!-- Node5&#45;&gt;Node6 -->
<g id="edge6" class="edge"><title>Node5&#45;&gt;Node6</title>
<path fill="none" stroke="midnightblue" d="M204.612,-56.324C188.329,-47.7034 163.133,-34.3643 144.284,-24.3855"/>
<polygon fill="midnightblue" stroke="midnightblue" points="145.823,-21.2402 135.347,-19.6545 142.548,-27.4267 145.823,-21.2402"/>
</g>
<!-- Node7 -->
<g id="node8" class="node"><title>Node7</title>
<polygon fill="none" stroke="#bfbfbf" points="160.5,-0.5 160.5,-19.5 201.5,-19.5 201.5,-0.5 160.5,-0.5"/>
<text text-anchor="middle" x="181" y="-7.5" font-family="Helvetica,sans-Serif" font-size="10.00">array</text>
</g>
<!-- Node5&#45;&gt;Node7 -->
<g id="edge7" class="edge"><title>Node5&#45;&gt;Node7</title>
<path fill="none" stroke="midnightblue" d="M214.395,-56.083C208.745,-48.4554 200.455,-37.2645 193.549,-27.9408"/>
<polygon fill="midnightblue" stroke="midnightblue" points="196.247,-25.7034 187.482,-19.7511 190.622,-29.87 196.247,-25.7034"/>
</g>
<!-- Node8 -->
<g id="node9" class="node"><title>Node8</title>
<polygon fill="none" stroke="#bfbfbf" points="220,-0.5 220,-19.5 300,-19.5 300,-0.5 220,-0.5"/>
<text text-anchor="middle" x="260" y="-7.5" font-family="Helvetica,sans-Serif" font-size="10.00">Eigen/Sparse</text>
</g>
<!-- Node5&#45;&gt;Node8 -->
<g id="edge8" class="edge"><title>Node5&#45;&gt;Node8</title>
<path fill="none" stroke="midnightblue" d="M227.44,-56.083C232.949,-48.4554 241.031,-37.2645 247.765,-27.9408"/>
<polygon fill="midnightblue" stroke="midnightblue" points="250.662,-29.9071 253.68,-19.7511 244.987,-25.8087 250.662,-29.9071"/>
</g>
<!-- Node9 -->
<g id="node10" class="node"><title>Node9</title>
<polygon fill="none" stroke="#bfbfbf" points="318.5,-0.5 318.5,-19.5 395.5,-19.5 395.5,-0.5 318.5,-0.5"/>
<text text-anchor="middle" x="357" y="-7.5" font-family="Helvetica,sans-Serif" font-size="10.00">Eigen/Dense</text>
</g>
<!-- Node5&#45;&gt;Node9 -->
<g id="edge9" class="edge"><title>Node5&#45;&gt;Node9</title>
<path fill="none" stroke="midnightblue" d="M242.55,-56.4435C265.031,-47.5171 300.488,-33.4387 325.98,-23.3168"/>
<polygon fill="midnightblue" stroke="midnightblue" points="327.549,-26.4598 335.551,-19.5164 324.965,-19.9539 327.549,-26.4598"/>
</g>
</g>
</svg>
