<?xml version="1.0" encoding="UTF-8" standalone="no"?>
<!DOCTYPE svg PUBLIC "-//W3C//DTD SVG 1.1//EN"
 "http://www.w3.org/Graphics/SVG/1.1/DTD/svg11.dtd">
<!-- Generated by graphviz version 2.38.0 (20140413.2041)
 -->
<!-- Title: /travis/calc/Hamiltonianmatrix.h Pages: 1 -->
<svg width="1575pt" height="308pt"
 viewBox="0.00 0.00 1575.00 308.00" xmlns="http://www.w3.org/2000/svg" xmlns:xlink="http://www.w3.org/1999/xlink">
<g id="graph0" class="graph" transform="scale(1 1) rotate(0) translate(4 304)">
<title>/travis/calc/Hamiltonianmatrix.h</title>
<!-- Node1 -->
<g id="node1" class="node"><title>Node1</title>
<polygon fill="#bfbfbf" stroke="black" points="1110,-280.5 1110,-299.5 1278,-299.5 1278,-280.5 1110,-280.5"/>
<text text-anchor="middle" x="1194" y="-287.5" font-family="Helvetica,sans-Serif" font-size="10.00">/travis/calc/Hamiltonianmatrix.h</text>
</g>
<!-- Node2 -->
<g id="node2" class="node"><title>Node2</title>
<g id="a_node2"><a xlink:href="dtypes_8h.html" target="_top" xlink:title="dtypes.h">
<polygon fill="none" stroke="black" points="470,-56.5 470,-75.5 528,-75.5 528,-56.5 470,-56.5"/>
<text text-anchor="middle" x="499" y="-63.5" font-family="Helvetica,sans-Serif" font-size="10.00">dtypes.h</text>
</a>
</g>
</g>
<!-- Node1&#45;&gt;Node2 -->
<g id="edge1" class="edge"><title>Node1&#45;&gt;Node2</title>
<path fill="none" stroke="midnightblue" d="M1109.65,-288.396C1003.93,-286.152 817.682,-277.269 662,-244 588.323,-228.255 551.34,-244.937 502,-188 477.315,-159.515 485.75,-111.542 493.011,-85.3758"/>
<polygon fill="midnightblue" stroke="midnightblue" points="496.417,-86.2019 495.951,-75.6173 489.715,-84.1826 496.417,-86.2019"/>
</g>
<!-- Node3 -->
<g id="node3" class="node"><title>Node3</title>
<polygon fill="none" stroke="#bfbfbf" points="951.5,-0.5 951.5,-19.5 998.5,-19.5 998.5,-0.5 951.5,-0.5"/>
<text text-anchor="middle" x="975" y="-7.5" font-family="Helvetica,sans-Serif" font-size="10.00">vector</text>
</g>
<!-- Node1&#45;&gt;Node3 -->
<g id="edge46" class="edge"><title>Node1&#45;&gt;Node3</title>
<path fill="none" stroke="midnightblue" d="M1193.99,-280.357C1194.48,-266.307 1197.61,-238.618 1214,-224 1280.65,-164.548 1458.25,-241.151 1407,-168 1313.25,-34.1864 1093.13,-13.9909 1008.75,-11.2682"/>
<polygon fill="midnightblue" stroke="midnightblue" points="1008.77,-7.76774 998.683,-11.0072 1008.59,-14.7654 1008.77,-7.76774"/>
</g>
<!-- Node7 -->
<g id="node7" class="node"><title>Node7</title>
<g id="a_node7"><a xlink:href="Serializable_8h.html" target="_top" xlink:title="Serializable.h">
<polygon fill="none" stroke="black" points="1086,-224.5 1086,-243.5 1166,-243.5 1166,-224.5 1086,-224.5"/>
<text text-anchor="middle" x="1126" y="-231.5" font-family="Helvetica,sans-Serif" font-size="10.00">Serializable.h</text>
</a>
</g>
</g>
<!-- Node1&#45;&gt;Node7 -->
<g id="edge6" class="edge"><title>Node1&#45;&gt;Node7</title>
<path fill="none" stroke="midnightblue" d="M1183.07,-280.324C1172.83,-272.185 1157.28,-259.839 1145,-250.087"/>
<polygon fill="midnightblue" stroke="midnightblue" points="1147.13,-247.312 1137.12,-243.834 1142.78,-252.794 1147.13,-247.312"/>
</g>
<!-- Node10 -->
<g id="node10" class="node"><title>Node10</title>
<polygon fill="none" stroke="#bfbfbf" points="927.5,-168.5 927.5,-187.5 984.5,-187.5 984.5,-168.5 927.5,-168.5"/>
<text text-anchor="middle" x="956" y="-175.5" font-family="Helvetica,sans-Serif" font-size="10.00">memory</text>
</g>
<!-- Node1&#45;&gt;Node10 -->
<g id="edge43" class="edge"><title>Node1&#45;&gt;Node10</title>
<path fill="none" stroke="midnightblue" d="M1168.97,-280.407C1145.03,-271.943 1108.06,-258.246 1077,-244 1042.17,-228.026 1003.4,-206.499 979.352,-192.682"/>
<polygon fill="midnightblue" stroke="midnightblue" points="981.006,-189.595 970.598,-187.618 977.502,-195.655 981.006,-189.595"/>
</g>
<!-- Node13 -->
<g id="node13" class="node"><title>Node13</title>
<g id="a_node13"><a xlink:href="Basisnames_8h.html" target="_top" xlink:title="Basisnames.h">
<polygon fill="none" stroke="black" points="671,-224.5 671,-243.5 755,-243.5 755,-224.5 671,-224.5"/>
<text text-anchor="middle" x="713" y="-231.5" font-family="Helvetica,sans-Serif" font-size="10.00">Basisnames.h</text>
</a>
</g>
</g>
<!-- Node1&#45;&gt;Node13 -->
<g id="edge14" class="edge"><title>Node1&#45;&gt;Node13</title>
<path fill="none" stroke="midnightblue" d="M1118.05,-280.473C1019.47,-269.407 850.04,-250.385 764.953,-240.833"/>
<polygon fill="midnightblue" stroke="midnightblue" points="765.334,-237.353 755.006,-239.716 764.553,-244.31 765.334,-237.353"/>
</g>
<!-- Node15 -->
<g id="node15" class="node"><title>Node15</title>
<g id="a_node15"><a xlink:href="State_8h.html" target="_top" xlink:title="State.h">
<polygon fill="none" stroke="black" points="341,-168.5 341,-187.5 393,-187.5 393,-168.5 341,-168.5"/>
<text text-anchor="middle" x="367" y="-175.5" font-family="Helvetica,sans-Serif" font-size="10.00">State.h</text>
</a>
</g>
</g>
<!-- Node1&#45;&gt;Node15 -->
<g id="edge39" class="edge"><title>Node1&#45;&gt;Node15</title>
<path fill="none" stroke="midnightblue" d="M1109.73,-286.827C927.31,-281.705 507.385,-267.507 447,-244 420.302,-233.607 395.71,-210.792 381.03,-195.157"/>
<polygon fill="midnightblue" stroke="midnightblue" points="383.611,-192.792 374.299,-187.739 378.427,-197.496 383.611,-192.792"/>
</g>
<!-- Node30 -->
<g id="node30" class="node"><title>Node30</title>
<polygon fill="none" stroke="#bfbfbf" points="1222.5,-224.5 1222.5,-243.5 1269.5,-243.5 1269.5,-224.5 1222.5,-224.5"/>
<text text-anchor="middle" x="1246" y="-231.5" font-family="Helvetica,sans-Serif" font-size="10.00">cmath</text>
</g>
<!-- Node1&#45;&gt;Node30 -->
<g id="edge40" class="edge"><title>Node1&#45;&gt;Node30</title>
<path fill="none" stroke="midnightblue" d="M1202.59,-280.083C1210.16,-272.22 1221.38,-260.569 1230.51,-251.081"/>
<polygon fill="midnightblue" stroke="midnightblue" points="1233.16,-253.382 1237.57,-243.751 1228.12,-248.527 1233.16,-253.382"/>
</g>
<!-- Node31 -->
<g id="node31" class="node"><title>Node31</title>
<polygon fill="none" stroke="#bfbfbf" points="1287.5,-224.5 1287.5,-243.5 1336.5,-243.5 1336.5,-224.5 1287.5,-224.5"/>
<text text-anchor="middle" x="1312" y="-231.5" font-family="Helvetica,sans-Serif" font-size="10.00">cstdint</text>
</g>
<!-- Node1&#45;&gt;Node31 -->
<g id="edge41" class="edge"><title>Node1&#45;&gt;Node31</title>
<path fill="none" stroke="midnightblue" d="M1212.7,-280.444C1231.94,-271.636 1262.15,-257.812 1284.2,-247.722"/>
<polygon fill="midnightblue" stroke="midnightblue" points="1285.75,-250.86 1293.39,-243.516 1282.84,-244.495 1285.75,-250.86"/>
</g>
<!-- Node32 -->
<g id="node32" class="node"><title>Node32</title>
<polygon fill="none" stroke="#bfbfbf" points="1354.5,-224.5 1354.5,-243.5 1403.5,-243.5 1403.5,-224.5 1354.5,-224.5"/>
<text text-anchor="middle" x="1379" y="-231.5" font-family="Helvetica,sans-Serif" font-size="10.00">stdio.h</text>
</g>
<!-- Node1&#45;&gt;Node32 -->
<g id="edge42" class="edge"><title>Node1&#45;&gt;Node32</title>
<path fill="none" stroke="midnightblue" d="M1223.31,-280.444C1256.23,-270.835 1309.61,-255.256 1344.51,-245.069"/>
<polygon fill="midnightblue" stroke="midnightblue" points="1345.65,-248.382 1354.26,-242.22 1343.68,-241.663 1345.65,-248.382"/>
</g>
<!-- Node33 -->
<g id="node33" class="node"><title>Node33</title>
<polygon fill="none" stroke="#bfbfbf" points="1421.5,-224.5 1421.5,-243.5 1484.5,-243.5 1484.5,-224.5 1421.5,-224.5"/>
<text text-anchor="middle" x="1453" y="-231.5" font-family="Helvetica,sans-Serif" font-size="10.00">exception</text>
</g>
<!-- Node1&#45;&gt;Node33 -->
<g id="edge44" class="edge"><title>Node1&#45;&gt;Node33</title>
<path fill="none" stroke="midnightblue" d="M1236.85,-280.44C1278.88,-271.991 1345.05,-258.542 1410.99,-244.408"/>
<polygon fill="midnightblue" stroke="midnightblue" points="1412.09,-247.749 1421.14,-242.226 1410.62,-240.906 1412.09,-247.749"/>
</g>
<!-- Node34 -->
<g id="node34" class="node"><title>Node34</title>
<polygon fill="none" stroke="#bfbfbf" points="1503,-224.5 1503,-243.5 1567,-243.5 1567,-224.5 1503,-224.5"/>
<text text-anchor="middle" x="1535" y="-231.5" font-family="Helvetica,sans-Serif" font-size="10.00">stdexcept</text>
</g>
<!-- Node1&#45;&gt;Node34 -->
<g id="edge45" class="edge"><title>Node1&#45;&gt;Node34</title>
<path fill="none" stroke="midnightblue" d="M1259.46,-280.471C1318.12,-272.535 1406.72,-259.825 1492.87,-244.11"/>
<polygon fill="midnightblue" stroke="midnightblue" points="1493.61,-247.532 1502.81,-242.28 1492.34,-240.647 1493.61,-247.532"/>
</g>
<!-- Node2&#45;&gt;Node3 -->
<g id="edge2" class="edge"><title>Node2&#45;&gt;Node3</title>
<path fill="none" stroke="midnightblue" d="M528.059,-61.7033C611.561,-52.2305 851.902,-24.9649 941.126,-14.8429"/>
<polygon fill="midnightblue" stroke="midnightblue" points="941.695,-18.3008 951.237,-13.6958 940.906,-11.3455 941.695,-18.3008"/>
</g>
<!-- Node4 -->
<g id="node4" class="node"><title>Node4</title>
<polygon fill="none" stroke="#bfbfbf" points="273.5,-0.5 273.5,-19.5 314.5,-19.5 314.5,-0.5 273.5,-0.5"/>
<text text-anchor="middle" x="294" y="-7.5" font-family="Helvetica,sans-Serif" font-size="10.00">array</text>
</g>
<!-- Node2&#45;&gt;Node4 -->
<g id="edge3" class="edge"><title>Node2&#45;&gt;Node4</title>
<path fill="none" stroke="midnightblue" d="M469.628,-57.2631C431.009,-47.0902 363.49,-29.3048 324.377,-19.0017"/>
<polygon fill="midnightblue" stroke="midnightblue" points="325.174,-15.5924 314.613,-16.4296 323.391,-22.3615 325.174,-15.5924"/>
</g>
<!-- Node5 -->
<g id="node5" class="node"><title>Node5</title>
<polygon fill="none" stroke="#bfbfbf" points="410,-0.5 410,-19.5 490,-19.5 490,-0.5 410,-0.5"/>
<text text-anchor="middle" x="450" y="-7.5" font-family="Helvetica,sans-Serif" font-size="10.00">Eigen/Sparse</text>
</g>
<!-- Node2&#45;&gt;Node5 -->
<g id="edge4" class="edge"><title>Node2&#45;&gt;Node5</title>
<path fill="none" stroke="midnightblue" d="M490.909,-56.083C483.845,-48.2982 473.412,-36.8015 464.851,-27.3665"/>
<polygon fill="midnightblue" stroke="midnightblue" points="467.253,-24.8047 457.941,-19.7511 462.069,-29.5087 467.253,-24.8047"/>
</g>
<!-- Node6 -->
<g id="node6" class="node"><title>Node6</title>
<polygon fill="none" stroke="#bfbfbf" points="508.5,-0.5 508.5,-19.5 585.5,-19.5 585.5,-0.5 508.5,-0.5"/>
<text text-anchor="middle" x="547" y="-7.5" font-family="Helvetica,sans-Serif" font-size="10.00">Eigen/Dense</text>
</g>
<!-- Node2&#45;&gt;Node6 -->
<g id="edge5" class="edge"><title>Node2&#45;&gt;Node6</title>
<path fill="none" stroke="midnightblue" d="M506.926,-56.083C513.846,-48.2982 524.065,-36.8015 532.452,-27.3665"/>
<polygon fill="midnightblue" stroke="midnightblue" points="535.194,-29.5505 539.221,-19.7511 529.962,-24.8999 535.194,-29.5505"/>
</g>
<!-- Node7&#45;&gt;Node2 -->
<g id="edge7" class="edge"><title>Node7&#45;&gt;Node2</title>
<path fill="none" stroke="midnightblue" d="M1109.24,-224.444C1076.24,-207.654 1005.01,-171.694 993,-168 885.287,-134.855 852.408,-154.601 742,-132 668.46,-116.946 584.124,-92.8041 536.644,-78.5646"/>
<polygon fill="midnightblue" stroke="midnightblue" points="537.391,-75.1343 526.806,-75.5976 535.369,-81.8361 537.391,-75.1343"/>
</g>
<!-- Node7&#45;&gt;Node3 -->
<g id="edge8" class="edge"><title>Node7&#45;&gt;Node3</title>
<path fill="none" stroke="midnightblue" d="M1112.53,-224.234C1100.55,-215.952 1083.11,-202.641 1071,-188 1028.38,-136.467 995.851,-63.116 982.13,-29.3293"/>
<polygon fill="midnightblue" stroke="midnightblue" points="985.298,-27.8238 978.347,-19.8277 978.794,-30.4131 985.298,-27.8238"/>
</g>
<!-- Node8 -->
<g id="node8" class="node"><title>Node8</title>
<polygon fill="none" stroke="#bfbfbf" points="1261.5,-168.5 1261.5,-187.5 1316.5,-187.5 1316.5,-168.5 1261.5,-168.5"/>
<text text-anchor="middle" x="1289" y="-175.5" font-family="Helvetica,sans-Serif" font-size="10.00">typeinfo</text>
</g>
<!-- Node7&#45;&gt;Node8 -->
<g id="edge9" class="edge"><title>Node7&#45;&gt;Node8</title>
<path fill="none" stroke="midnightblue" d="M1151.83,-224.444C1179.25,-215.359 1222.78,-200.939 1253.43,-190.783"/>
<polygon fill="midnightblue" stroke="midnightblue" points="1254.9,-193.984 1263.29,-187.516 1252.7,-187.339 1254.9,-193.984"/>
</g>
<!-- Node9 -->
<g id="node9" class="node"><title>Node9</title>
<polygon fill="none" stroke="#bfbfbf" points="1334.5,-168.5 1334.5,-187.5 1397.5,-187.5 1397.5,-168.5 1334.5,-168.5"/>
<text text-anchor="middle" x="1366" y="-175.5" font-family="Helvetica,sans-Serif" font-size="10.00">typeindex</text>
</g>
<!-- Node7&#45;&gt;Node9 -->
<g id="edge10" class="edge"><title>Node7&#45;&gt;Node9</title>
<path fill="none" stroke="midnightblue" d="M1164.03,-224.444C1207.77,-214.601 1279.36,-198.494 1324.51,-188.335"/>
<polygon fill="midnightblue" stroke="midnightblue" points="1325.29,-191.747 1334.28,-186.137 1323.76,-184.917 1325.29,-191.747"/>
</g>
<!-- Node7&#45;&gt;Node10 -->
<g id="edge11" class="edge"><title>Node7&#45;&gt;Node10</title>
<path fill="none" stroke="midnightblue" d="M1099.06,-224.444C1070.34,-215.32 1024.67,-200.813 992.679,-190.651"/>
<polygon fill="midnightblue" stroke="midnightblue" points="993.401,-187.208 982.811,-187.516 991.282,-193.88 993.401,-187.208"/>
</g>
<!-- Node11 -->
<g id="node11" class="node"><title>Node11</title>
<polygon fill="none" stroke="#bfbfbf" points="1079.5,-168.5 1079.5,-187.5 1172.5,-187.5 1172.5,-168.5 1079.5,-168.5"/>
<text text-anchor="middle" x="1126" y="-175.5" font-family="Helvetica,sans-Serif" font-size="10.00">unordered_map</text>
</g>
<!-- Node7&#45;&gt;Node11 -->
<g id="edge12" class="edge"><title>Node7&#45;&gt;Node11</title>
<path fill="none" stroke="midnightblue" d="M1126,-224.083C1126,-217.006 1126,-206.861 1126,-197.986"/>
<polygon fill="midnightblue" stroke="midnightblue" points="1129.5,-197.751 1126,-187.751 1122.5,-197.751 1129.5,-197.751"/>
</g>
<!-- Node12 -->
<g id="node12" class="node"><title>Node12</title>
<polygon fill="none" stroke="#bfbfbf" points="1191,-168.5 1191,-187.5 1243,-187.5 1243,-168.5 1191,-168.5"/>
<text text-anchor="middle" x="1217" y="-175.5" font-family="Helvetica,sans-Serif" font-size="10.00">iterator</text>
</g>
<!-- Node7&#45;&gt;Node12 -->
<g id="edge13" class="edge"><title>Node7&#45;&gt;Node12</title>
<path fill="none" stroke="midnightblue" d="M1140.62,-224.324C1154.95,-215.822 1177.01,-202.729 1193.75,-192.797"/>
<polygon fill="midnightblue" stroke="midnightblue" points="1195.6,-195.768 1202.42,-187.655 1192.03,-189.748 1195.6,-195.768"/>
</g>
<!-- Node13&#45;&gt;Node2 -->
<g id="edge15" class="edge"><title>Node13&#45;&gt;Node2</title>
<path fill="none" stroke="midnightblue" d="M670.815,-228.76C619.862,-222.737 538.424,-209.929 518,-188 492.12,-160.213 493.1,-112.315 496.061,-85.8842"/>
<polygon fill="midnightblue" stroke="midnightblue" points="499.567,-86.0713 497.424,-75.6953 492.629,-85.1426 499.567,-86.0713"/>
</g>
<!-- Node13&#45;&gt;Node3 -->
<g id="edge33" class="edge"><title>Node13&#45;&gt;Node3</title>
<path fill="none" stroke="midnightblue" d="M755.148,-228.137C786.871,-222.711 830.034,-211.389 861,-188 917.829,-145.077 954.191,-64.9583 968.32,-29.1287"/>
<polygon fill="midnightblue" stroke="midnightblue" points="971.691,-30.1119 971.99,-19.5213 965.152,-27.6143 971.691,-30.1119"/>
</g>
<!-- Node13&#45;&gt;Node10 -->
<g id="edge36" class="edge"><title>Node13&#45;&gt;Node10</title>
<path fill="none" stroke="midnightblue" d="M751.504,-224.444C796.916,-214.352 871.96,-197.676 917.41,-187.576"/>
<polygon fill="midnightblue" stroke="midnightblue" points="918.186,-190.989 927.188,-185.403 916.667,-184.155 918.186,-190.989"/>
</g>
<!-- Node14 -->
<g id="node14" class="node"><title>Node14</title>
<g id="a_node14"><a xlink:href="Iter_8h.html" target="_top" xlink:title="Iter.h">
<polygon fill="none" stroke="black" points="599.5,-168.5 599.5,-187.5 640.5,-187.5 640.5,-168.5 599.5,-168.5"/>
<text text-anchor="middle" x="620" y="-175.5" font-family="Helvetica,sans-Serif" font-size="10.00">Iter.h</text>
</a>
</g>
</g>
<!-- Node13&#45;&gt;Node14 -->
<g id="edge16" class="edge"><title>Node13&#45;&gt;Node14</title>
<path fill="none" stroke="midnightblue" d="M698.058,-224.324C683.415,-215.822 660.866,-202.729 643.762,-192.797"/>
<polygon fill="midnightblue" stroke="midnightblue" points="645.31,-189.649 634.905,-187.655 641.795,-195.703 645.31,-189.649"/>
</g>
<!-- Node13&#45;&gt;Node15 -->
<g id="edge17" class="edge"><title>Node13&#45;&gt;Node15</title>
<path fill="none" stroke="midnightblue" d="M670.92,-226.433C602.338,-215.729 467.654,-194.709 403.132,-184.639"/>
<polygon fill="midnightblue" stroke="midnightblue" points="403.452,-181.147 393.032,-183.063 402.372,-188.063 403.452,-181.147"/>
</g>
<!-- Node20 -->
<g id="node20" class="node"><title>Node20</title>
<g id="a_node20"><a xlink:href="ConfParser_8h.html" target="_top" xlink:title="ConfParser.h">
<polygon fill="none" stroke="black" points="751.5,-112.5 751.5,-131.5 828.5,-131.5 828.5,-112.5 751.5,-112.5"/>
<text text-anchor="middle" x="790" y="-119.5" font-family="Helvetica,sans-Serif" font-size="10.00">ConfParser.h</text>
</a>
</g>
</g>
<!-- Node13&#45;&gt;Node20 -->
<g id="edge32" class="edge"><title>Node13&#45;&gt;Node20</title>
<path fill="none" stroke="midnightblue" d="M704.929,-224.467C693.689,-211.511 675.984,-186.435 688,-168 700.035,-149.537 721.543,-138.595 741.717,-132.137"/>
<polygon fill="midnightblue" stroke="midnightblue" points="742.834,-135.458 751.466,-129.314 740.887,-128.734 742.834,-135.458"/>
</g>
<!-- Node21 -->
<g id="node21" class="node"><title>Node21</title>
<polygon fill="none" stroke="#bfbfbf" points="827,-56.5 827,-75.5 871,-75.5 871,-56.5 827,-56.5"/>
<text text-anchor="middle" x="849" y="-63.5" font-family="Helvetica,sans-Serif" font-size="10.00">string</text>
</g>
<!-- Node13&#45;&gt;Node21 -->
<g id="edge37" class="edge"><title>Node13&#45;&gt;Node21</title>
<path fill="none" stroke="midnightblue" d="M755.2,-230.124C784.503,-225.713 821.783,-214.79 842,-188 864.524,-158.153 859.151,-111.439 853.757,-85.6564"/>
<polygon fill="midnightblue" stroke="midnightblue" points="857.119,-84.6596 851.451,-75.7079 850.3,-86.24 857.119,-84.6596"/>
</g>
<!-- Node27 -->
<g id="node27" class="node"><title>Node27</title>
<polygon fill="none" stroke="#bfbfbf" points="697,-168.5 697,-187.5 729,-187.5 729,-168.5 697,-168.5"/>
<text text-anchor="middle" x="713" y="-175.5" font-family="Helvetica,sans-Serif" font-size="10.00">set</text>
</g>
<!-- Node13&#45;&gt;Node27 -->
<g id="edge34" class="edge"><title>Node13&#45;&gt;Node27</title>
<path fill="none" stroke="midnightblue" d="M713,-224.083C713,-217.006 713,-206.861 713,-197.986"/>
<polygon fill="midnightblue" stroke="midnightblue" points="716.5,-197.751 713,-187.751 709.5,-197.751 716.5,-197.751"/>
</g>
<!-- Node28 -->
<g id="node28" class="node"><title>Node28</title>
<polygon fill="none" stroke="#bfbfbf" points="747,-168.5 747,-187.5 833,-187.5 833,-168.5 747,-168.5"/>
<text text-anchor="middle" x="790" y="-175.5" font-family="Helvetica,sans-Serif" font-size="10.00">unordered_set</text>
</g>
<!-- Node13&#45;&gt;Node28 -->
<g id="edge35" class="edge"><title>Node13&#45;&gt;Node28</title>
<path fill="none" stroke="midnightblue" d="M725.371,-224.324C737.158,-216.058 755.132,-203.453 769.136,-193.632"/>
<polygon fill="midnightblue" stroke="midnightblue" points="771.482,-196.262 777.659,-187.655 767.462,-190.531 771.482,-196.262"/>
</g>
<!-- Node29 -->
<g id="node29" class="node"><title>Node29</title>
<polygon fill="none" stroke="#bfbfbf" points="527,-168.5 527,-187.5 581,-187.5 581,-168.5 527,-168.5"/>
<text text-anchor="middle" x="554" y="-175.5" font-family="Helvetica,sans-Serif" font-size="10.00">fstream</text>
</g>
<!-- Node13&#45;&gt;Node29 -->
<g id="edge38" class="edge"><title>Node13&#45;&gt;Node29</title>
<path fill="none" stroke="midnightblue" d="M687.806,-224.444C661.057,-215.359 618.597,-200.939 588.695,-190.783"/>
<polygon fill="midnightblue" stroke="midnightblue" points="589.671,-187.418 579.076,-187.516 587.419,-194.046 589.671,-187.418"/>
</g>
<!-- Node15&#45;&gt;Node2 -->
<g id="edge18" class="edge"><title>Node15&#45;&gt;Node2</title>
<path fill="none" stroke="midnightblue" d="M377.358,-168.368C399.72,-149.733 452.761,-105.532 480.839,-82.1338"/>
<polygon fill="midnightblue" stroke="midnightblue" points="483.249,-84.6821 488.69,-75.5914 478.767,-79.3045 483.249,-84.6821"/>
</g>
<!-- Node15&#45;&gt;Node4 -->
<g id="edge28" class="edge"><title>Node15&#45;&gt;Node4</title>
<path fill="none" stroke="midnightblue" d="M340.883,-174.124C296.431,-168.647 209.019,-155.153 190,-132 168.543,-105.879 168.295,-84.1577 187,-56 203.782,-30.7367 237.813,-19.6248 263.012,-14.7568"/>
<polygon fill="midnightblue" stroke="midnightblue" points="263.92,-18.1527 273.194,-13.0297 262.75,-11.2512 263.92,-18.1527"/>
</g>
<!-- Node16 -->
<g id="node16" class="node"><title>Node16</title>
<g id="a_node16"><a xlink:href="utils_8h.html" target="_top" xlink:title="utils.h">
<polygon fill="none" stroke="black" points="199.5,-112.5 199.5,-131.5 244.5,-131.5 244.5,-112.5 199.5,-112.5"/>
<text text-anchor="middle" x="222" y="-119.5" font-family="Helvetica,sans-Serif" font-size="10.00">utils.h</text>
</a>
</g>
</g>
<!-- Node15&#45;&gt;Node16 -->
<g id="edge19" class="edge"><title>Node15&#45;&gt;Node16</title>
<path fill="none" stroke="midnightblue" d="M344.024,-168.444C319.843,-159.438 281.582,-145.189 254.354,-135.049"/>
<polygon fill="midnightblue" stroke="midnightblue" points="255.461,-131.727 244.868,-131.516 253.018,-138.286 255.461,-131.727"/>
</g>
<!-- Node15&#45;&gt;Node20 -->
<g id="edge23" class="edge"><title>Node15&#45;&gt;Node20</title>
<path fill="none" stroke="midnightblue" d="M393.141,-173.663C462.431,-164.817 651.622,-140.665 741.433,-129.2"/>
<polygon fill="midnightblue" stroke="midnightblue" points="741.886,-132.671 751.362,-127.933 740.999,-125.727 741.886,-132.671"/>
</g>
<!-- Node24 -->
<g id="node24" class="node"><title>Node24</title>
<polygon fill="none" stroke="#bfbfbf" points="262.5,-112.5 262.5,-131.5 321.5,-131.5 321.5,-112.5 262.5,-112.5"/>
<text text-anchor="middle" x="292" y="-119.5" font-family="Helvetica,sans-Serif" font-size="10.00">iostream</text>
</g>
<!-- Node15&#45;&gt;Node24 -->
<g id="edge29" class="edge"><title>Node15&#45;&gt;Node24</title>
<path fill="none" stroke="midnightblue" d="M354.95,-168.324C343.537,-160.107 326.169,-147.602 312.565,-137.807"/>
<polygon fill="midnightblue" stroke="midnightblue" points="314.43,-134.837 304.269,-131.834 310.34,-140.517 314.43,-134.837"/>
</g>
<!-- Node25 -->
<g id="node25" class="node"><title>Node25</title>
<polygon fill="none" stroke="#bfbfbf" points="339.5,-112.5 339.5,-131.5 394.5,-131.5 394.5,-112.5 339.5,-112.5"/>
<text text-anchor="middle" x="367" y="-119.5" font-family="Helvetica,sans-Serif" font-size="10.00">iomanip</text>
</g>
<!-- Node15&#45;&gt;Node25 -->
<g id="edge30" class="edge"><title>Node15&#45;&gt;Node25</title>
<path fill="none" stroke="midnightblue" d="M367,-168.083C367,-161.006 367,-150.861 367,-141.986"/>
<polygon fill="midnightblue" stroke="midnightblue" points="370.5,-141.751 367,-131.751 363.5,-141.751 370.5,-141.751"/>
</g>
<!-- Node26 -->
<g id="node26" class="node"><title>Node26</title>
<polygon fill="none" stroke="#bfbfbf" points="0,-112.5 0,-131.5 140,-131.5 140,-112.5 0,-112.5"/>
<text text-anchor="middle" x="70" y="-119.5" font-family="Helvetica,sans-Serif" font-size="10.00">boost/functional/hash.hpp</text>
</g>
<!-- Node15&#45;&gt;Node26 -->
<g id="edge31" class="edge"><title>Node15&#45;&gt;Node26</title>
<path fill="none" stroke="midnightblue" d="M340.904,-172.255C293.272,-163.595 191.235,-145.043 126.88,-133.342"/>
<polygon fill="midnightblue" stroke="midnightblue" points="127.353,-129.871 116.889,-131.525 126.101,-136.758 127.353,-129.871"/>
</g>
<!-- Node17 -->
<g id="node17" class="node"><title>Node17</title>
<polygon fill="none" stroke="#bfbfbf" points="196.5,-56.5 196.5,-75.5 253.5,-75.5 253.5,-56.5 196.5,-56.5"/>
<text text-anchor="middle" x="225" y="-63.5" font-family="Helvetica,sans-Serif" font-size="10.00">complex</text>
</g>
<!-- Node16&#45;&gt;Node17 -->
<g id="edge20" class="edge"><title>Node16&#45;&gt;Node17</title>
<path fill="none" stroke="midnightblue" d="M222.495,-112.083C222.889,-105.006 223.452,-94.8611 223.945,-85.9865"/>
<polygon fill="midnightblue" stroke="midnightblue" points="227.454,-85.9299 224.514,-75.7511 220.464,-85.5415 227.454,-85.9299"/>
</g>
<!-- Node18 -->
<g id="node18" class="node"><title>Node18</title>
<polygon fill="none" stroke="#bfbfbf" points="272,-56.5 272,-75.5 340,-75.5 340,-56.5 272,-56.5"/>
<text text-anchor="middle" x="306" y="-63.5" font-family="Helvetica,sans-Serif" font-size="10.00">type_traits</text>
</g>
<!-- Node16&#45;&gt;Node18 -->
<g id="edge21" class="edge"><title>Node16&#45;&gt;Node18</title>
<path fill="none" stroke="midnightblue" d="M235.496,-112.324C248.6,-103.9 268.712,-90.9709 284.107,-81.0741"/>
<polygon fill="midnightblue" stroke="midnightblue" points="286.018,-84.0063 292.537,-75.6545 282.233,-78.118 286.018,-84.0063"/>
</g>
<!-- Node19 -->
<g id="node19" class="node"><title>Node19</title>
<polygon fill="none" stroke="#bfbfbf" points="358.5,-56.5 358.5,-75.5 421.5,-75.5 421.5,-56.5 358.5,-56.5"/>
<text text-anchor="middle" x="390" y="-63.5" font-family="Helvetica,sans-Serif" font-size="10.00">functional</text>
</g>
<!-- Node16&#45;&gt;Node19 -->
<g id="edge22" class="edge"><title>Node16&#45;&gt;Node19</title>
<path fill="none" stroke="midnightblue" d="M244.657,-113.717C272.579,-104.743 320.383,-89.3769 353.506,-78.7303"/>
<polygon fill="midnightblue" stroke="midnightblue" points="354.826,-81.9823 363.275,-75.59 352.684,-75.3181 354.826,-81.9823"/>
</g>
<!-- Node20&#45;&gt;Node2 -->
<g id="edge27" class="edge"><title>Node20&#45;&gt;Node2</title>
<path fill="none" stroke="midnightblue" d="M751.357,-113.829C695.759,-103.512 593.766,-84.5855 537.98,-74.2335"/>
<polygon fill="midnightblue" stroke="midnightblue" points="538.594,-70.7877 528.123,-72.4043 537.317,-77.6702 538.594,-70.7877"/>
</g>
<!-- Node20&#45;&gt;Node21 -->
<g id="edge24" class="edge"><title>Node20&#45;&gt;Node21</title>
<path fill="none" stroke="midnightblue" d="M799.479,-112.324C808.201,-104.341 821.343,-92.3128 831.898,-82.6529"/>
<polygon fill="midnightblue" stroke="midnightblue" points="834.334,-85.1674 839.348,-75.8339 829.608,-80.0036 834.334,-85.1674"/>
</g>
<!-- Node22 -->
<g id="node22" class="node"><title>Node22</title>
<polygon fill="none" stroke="#bfbfbf" points="697,-56.5 697,-75.5 753,-75.5 753,-56.5 697,-56.5"/>
<text text-anchor="middle" x="725" y="-63.5" font-family="Helvetica,sans-Serif" font-size="10.00">sstream</text>
</g>
<!-- Node20&#45;&gt;Node22 -->
<g id="edge25" class="edge"><title>Node20&#45;&gt;Node22</title>
<path fill="none" stroke="midnightblue" d="M779.557,-112.324C769.854,-104.263 755.185,-92.0765 743.5,-82.3695"/>
<polygon fill="midnightblue" stroke="midnightblue" points="745.562,-79.532 735.633,-75.8339 741.089,-84.9163 745.562,-79.532"/>
</g>
<!-- Node23 -->
<g id="node23" class="node"><title>Node23</title>
<polygon fill="none" stroke="#bfbfbf" points="771,-56.5 771,-75.5 809,-75.5 809,-56.5 771,-56.5"/>
<text text-anchor="middle" x="790" y="-63.5" font-family="Helvetica,sans-Serif" font-size="10.00">map</text>
</g>
<!-- Node20&#45;&gt;Node23 -->
<g id="edge26" class="edge"><title>Node20&#45;&gt;Node23</title>
<path fill="none" stroke="midnightblue" d="M790,-112.083C790,-105.006 790,-94.8611 790,-85.9865"/>
<polygon fill="midnightblue" stroke="midnightblue" points="793.5,-85.751 790,-75.7511 786.5,-85.7511 793.5,-85.751"/>
</g>
</g>
</svg>
