<?xml version="1.0" encoding="UTF-8" standalone="no"?>
<!DOCTYPE svg PUBLIC "-//W3C//DTD SVG 1.1//EN"
 "http://www.w3.org/Graphics/SVG/1.1/DTD/svg11.dtd">
<!-- Generated by graphviz version 2.38.0 (20140413.2041)
 -->
<!-- Title: /travis/calc/Hamiltonianmatrix.cpp Pages: 1 -->
<svg width="1446pt" height="364pt"
 viewBox="0.00 0.00 1445.83 364.00" xmlns="http://www.w3.org/2000/svg" xmlns:xlink="http://www.w3.org/1999/xlink">
<g id="graph0" class="graph" transform="scale(1 1) rotate(0) translate(4 360)">
<title>/travis/calc/Hamiltonianmatrix.cpp</title>
<!-- Node0 -->
<g id="node1" class="node"><title>Node0</title>
<polygon fill="#bfbfbf" stroke="black" points="1124.33,-336.5 1124.33,-355.5 1303.33,-355.5 1303.33,-336.5 1124.33,-336.5"/>
<text text-anchor="middle" x="1213.83" y="-343.5" font-family="Helvetica,sans-Serif" font-size="10.00">/travis/calc/Hamiltonianmatrix.cpp</text>
</g>
<!-- Node1 -->
<g id="node2" class="node"><title>Node1</title>
<g id="a_node2"><a xlink:href="Hamiltonianmatrix_8h.html" target="_top" xlink:title="Hamiltonianmatrix.h">
<polygon fill="none" stroke="black" points="1052.83,-280.5 1052.83,-299.5 1166.83,-299.5 1166.83,-280.5 1052.83,-280.5"/>
<text text-anchor="middle" x="1109.83" y="-287.5" font-family="Helvetica,sans-Serif" font-size="10.00">Hamiltonianmatrix.h</text>
</a>
</g>
</g>
<!-- Node0&#45;&gt;Node1 -->
<g id="edge1" class="edge"><title>Node0&#45;&gt;Node1</title>
<path fill="none" stroke="midnightblue" d="M1197.12,-336.324C1180.52,-327.703 1154.83,-314.364 1135.61,-304.386"/>
<polygon fill="midnightblue" stroke="midnightblue" points="1136.99,-301.156 1126.5,-299.655 1133.76,-307.369 1136.99,-301.156"/>
</g>
<!-- Node34 -->
<g id="node35" class="node"><title>Node34</title>
<polygon fill="none" stroke="#bfbfbf" points="1373.83,-224.5 1373.83,-243.5 1437.83,-243.5 1437.83,-224.5 1373.83,-224.5"/>
<text text-anchor="middle" x="1405.83" y="-231.5" font-family="Helvetica,sans-Serif" font-size="10.00">stdexcept</text>
</g>
<!-- Node0&#45;&gt;Node34 -->
<g id="edge48" class="edge"><title>Node0&#45;&gt;Node34</title>
<path fill="none" stroke="midnightblue" d="M1228.9,-336.368C1262.13,-317.332 1341.92,-271.615 1382.01,-248.65"/>
<polygon fill="midnightblue" stroke="midnightblue" points="1383.9,-251.599 1390.84,-243.591 1380.42,-245.526 1383.9,-251.599"/>
</g>
<!-- Node2 -->
<g id="node3" class="node"><title>Node2</title>
<g id="a_node3"><a xlink:href="dtypes_8h.html" target="_top" xlink:title="dtypes.h">
<polygon fill="none" stroke="black" points="461.834,-56.5 461.834,-75.5 519.834,-75.5 519.834,-56.5 461.834,-56.5"/>
<text text-anchor="middle" x="490.834" y="-63.5" font-family="Helvetica,sans-Serif" font-size="10.00">dtypes.h</text>
</a>
</g>
</g>
<!-- Node1&#45;&gt;Node2 -->
<g id="edge2" class="edge"><title>Node1&#45;&gt;Node2</title>
<path fill="none" stroke="midnightblue" d="M1052.64,-288.11C955.151,-285.71 750.944,-276.832 581.834,-244 498.754,-227.87 450.114,-256.077 399.834,-188 394.553,-180.85 396.647,-176.298 399.834,-168 407.512,-148.007 450.038,-105.601 474.144,-82.6084"/>
<polygon fill="midnightblue" stroke="midnightblue" points="476.677,-85.0303 481.536,-75.6155 471.866,-79.9452 476.677,-85.0303"/>
</g>
<!-- Node3 -->
<g id="node4" class="node"><title>Node3</title>
<polygon fill="none" stroke="#bfbfbf" points="1039.33,-0.5 1039.33,-19.5 1086.33,-19.5 1086.33,-0.5 1039.33,-0.5"/>
<text text-anchor="middle" x="1062.83" y="-7.5" font-family="Helvetica,sans-Serif" font-size="10.00">vector</text>
</g>
<!-- Node1&#45;&gt;Node3 -->
<g id="edge47" class="edge"><title>Node1&#45;&gt;Node3</title>
<path fill="none" stroke="midnightblue" d="M1166.93,-283.389C1222.23,-276.855 1300.98,-264.286 1323.83,-244 1346.64,-223.756 1345.83,-209.499 1345.83,-179 1345.83,-179 1345.83,-179 1345.83,-121 1345.83,-68.0119 1171.3,-30.4085 1096.36,-16.7056"/>
<polygon fill="midnightblue" stroke="midnightblue" points="1096.94,-13.2532 1086.48,-14.9315 1095.7,-20.1431 1096.94,-13.2532"/>
</g>
<!-- Node7 -->
<g id="node8" class="node"><title>Node7</title>
<g id="a_node8"><a xlink:href="Serializable_8h.html" target="_top" xlink:title="Serializable.h">
<polygon fill="none" stroke="black" points="954.834,-224.5 954.834,-243.5 1034.83,-243.5 1034.83,-224.5 954.834,-224.5"/>
<text text-anchor="middle" x="994.834" y="-231.5" font-family="Helvetica,sans-Serif" font-size="10.00">Serializable.h</text>
</a>
</g>
</g>
<!-- Node1&#45;&gt;Node7 -->
<g id="edge7" class="edge"><title>Node1&#45;&gt;Node7</title>
<path fill="none" stroke="midnightblue" d="M1091.61,-280.444C1072.94,-271.675 1043.68,-257.935 1022.22,-247.858"/>
<polygon fill="midnightblue" stroke="midnightblue" points="1023.51,-244.599 1012.97,-243.516 1020.53,-250.935 1023.51,-244.599"/>
</g>
<!-- Node10 -->
<g id="node11" class="node"><title>Node10</title>
<polygon fill="none" stroke="#bfbfbf" points="847.334,-168.5 847.334,-187.5 904.334,-187.5 904.334,-168.5 847.334,-168.5"/>
<text text-anchor="middle" x="875.834" y="-175.5" font-family="Helvetica,sans-Serif" font-size="10.00">memory</text>
</g>
<!-- Node1&#45;&gt;Node10 -->
<g id="edge44" class="edge"><title>Node1&#45;&gt;Node10</title>
<path fill="none" stroke="midnightblue" d="M1053.36,-280.445C1020.49,-273.811 979.109,-262.53 945.834,-244 923.305,-231.455 902.321,-210.171 889.315,-195.391"/>
<polygon fill="midnightblue" stroke="midnightblue" points="891.782,-192.89 882.628,-187.556 886.457,-197.434 891.782,-192.89"/>
</g>
<!-- Node13 -->
<g id="node14" class="node"><title>Node13</title>
<g id="a_node14"><a xlink:href="Basisnames_8h.html" target="_top" xlink:title="Basisnames.h">
<polygon fill="none" stroke="black" points="590.834,-224.5 590.834,-243.5 674.834,-243.5 674.834,-224.5 590.834,-224.5"/>
<text text-anchor="middle" x="632.834" y="-231.5" font-family="Helvetica,sans-Serif" font-size="10.00">Basisnames.h</text>
</a>
</g>
</g>
<!-- Node1&#45;&gt;Node13 -->
<g id="edge15" class="edge"><title>Node1&#45;&gt;Node13</title>
<path fill="none" stroke="midnightblue" d="M1052.77,-282.54C959.312,-271.96 775.016,-251.096 684.909,-240.895"/>
<polygon fill="midnightblue" stroke="midnightblue" points="685.252,-237.412 674.921,-239.765 684.464,-244.367 685.252,-237.412"/>
</g>
<!-- Node15 -->
<g id="node16" class="node"><title>Node15</title>
<g id="a_node16"><a xlink:href="State_8h.html" target="_top" xlink:title="State.h">
<polygon fill="none" stroke="black" points="290.834,-168.5 290.834,-187.5 342.834,-187.5 342.834,-168.5 290.834,-168.5"/>
<text text-anchor="middle" x="316.834" y="-175.5" font-family="Helvetica,sans-Serif" font-size="10.00">State.h</text>
</a>
</g>
</g>
<!-- Node1&#45;&gt;Node15 -->
<g id="edge40" class="edge"><title>Node1&#45;&gt;Node15</title>
<path fill="none" stroke="midnightblue" d="M1052.58,-288.248C888.896,-285.72 426.802,-275.817 366.834,-244 347.438,-233.709 333.266,-212.228 325.062,-196.774"/>
<polygon fill="midnightblue" stroke="midnightblue" points="328.122,-195.066 320.538,-187.667 321.853,-198.18 328.122,-195.066"/>
</g>
<!-- Node30 -->
<g id="node31" class="node"><title>Node30</title>
<polygon fill="none" stroke="#bfbfbf" points="1053.33,-224.5 1053.33,-243.5 1100.33,-243.5 1100.33,-224.5 1053.33,-224.5"/>
<text text-anchor="middle" x="1076.83" y="-231.5" font-family="Helvetica,sans-Serif" font-size="10.00">cmath</text>
</g>
<!-- Node1&#45;&gt;Node30 -->
<g id="edge41" class="edge"><title>Node1&#45;&gt;Node30</title>
<path fill="none" stroke="midnightblue" d="M1104.38,-280.083C1099.82,-272.613 1093.17,-261.724 1087.54,-252.52"/>
<polygon fill="midnightblue" stroke="midnightblue" points="1090.38,-250.459 1082.18,-243.751 1084.41,-254.109 1090.38,-250.459"/>
</g>
<!-- Node31 -->
<g id="node32" class="node"><title>Node31</title>
<polygon fill="none" stroke="#bfbfbf" points="1118.33,-224.5 1118.33,-243.5 1167.33,-243.5 1167.33,-224.5 1118.33,-224.5"/>
<text text-anchor="middle" x="1142.83" y="-231.5" font-family="Helvetica,sans-Serif" font-size="10.00">cstdint</text>
</g>
<!-- Node1&#45;&gt;Node31 -->
<g id="edge42" class="edge"><title>Node1&#45;&gt;Node31</title>
<path fill="none" stroke="midnightblue" d="M1115.28,-280.083C1119.85,-272.613 1126.5,-261.724 1132.13,-252.52"/>
<polygon fill="midnightblue" stroke="midnightblue" points="1135.26,-254.109 1137.49,-243.751 1129.28,-250.459 1135.26,-254.109"/>
</g>
<!-- Node32 -->
<g id="node33" class="node"><title>Node32</title>
<polygon fill="none" stroke="#bfbfbf" points="1185.33,-224.5 1185.33,-243.5 1234.33,-243.5 1234.33,-224.5 1185.33,-224.5"/>
<text text-anchor="middle" x="1209.83" y="-231.5" font-family="Helvetica,sans-Serif" font-size="10.00">stdio.h</text>
</g>
<!-- Node1&#45;&gt;Node32 -->
<g id="edge43" class="edge"><title>Node1&#45;&gt;Node32</title>
<path fill="none" stroke="midnightblue" d="M1125.9,-280.324C1141.79,-271.743 1166.34,-258.486 1184.79,-248.522"/>
<polygon fill="midnightblue" stroke="midnightblue" points="1186.67,-251.486 1193.81,-243.655 1183.34,-245.326 1186.67,-251.486"/>
</g>
<!-- Node33 -->
<g id="node34" class="node"><title>Node33</title>
<polygon fill="none" stroke="#bfbfbf" points="1252.33,-224.5 1252.33,-243.5 1315.33,-243.5 1315.33,-224.5 1252.33,-224.5"/>
<text text-anchor="middle" x="1283.83" y="-231.5" font-family="Helvetica,sans-Serif" font-size="10.00">exception</text>
</g>
<!-- Node1&#45;&gt;Node33 -->
<g id="edge45" class="edge"><title>Node1&#45;&gt;Node33</title>
<path fill="none" stroke="midnightblue" d="M1137.4,-280.444C1166.93,-271.28 1213.95,-256.688 1246.72,-246.519"/>
<polygon fill="midnightblue" stroke="midnightblue" points="1247.88,-249.823 1256.39,-243.516 1245.8,-243.138 1247.88,-249.823"/>
</g>
<!-- Node1&#45;&gt;Node34 -->
<g id="edge46" class="edge"><title>Node1&#45;&gt;Node34</title>
<path fill="none" stroke="midnightblue" d="M1158.74,-280.423C1209.16,-271.526 1290.05,-257.106 1359.83,-244 1361.09,-243.763 1362.37,-243.522 1363.66,-243.277"/>
<polygon fill="midnightblue" stroke="midnightblue" points="1364.51,-246.678 1373.68,-241.356 1363.19,-239.803 1364.51,-246.678"/>
</g>
<!-- Node2&#45;&gt;Node3 -->
<g id="edge3" class="edge"><title>Node2&#45;&gt;Node3</title>
<path fill="none" stroke="midnightblue" d="M519.986,-62.2479C616.623,-53.1248 926.145,-23.9042 1029.14,-14.1808"/>
<polygon fill="midnightblue" stroke="midnightblue" points="1029.65,-17.648 1039.28,-13.2235 1029,-10.679 1029.65,-17.648"/>
</g>
<!-- Node4 -->
<g id="node5" class="node"><title>Node4</title>
<polygon fill="none" stroke="#bfbfbf" points="182.334,-0.5 182.334,-19.5 223.334,-19.5 223.334,-0.5 182.334,-0.5"/>
<text text-anchor="middle" x="202.834" y="-7.5" font-family="Helvetica,sans-Serif" font-size="10.00">array</text>
</g>
<!-- Node2&#45;&gt;Node4 -->
<g id="edge4" class="edge"><title>Node2&#45;&gt;Node4</title>
<path fill="none" stroke="midnightblue" d="M461.634,-59.525C406.955,-49.2728 289.612,-27.2708 233.692,-16.786"/>
<polygon fill="midnightblue" stroke="midnightblue" points="234.153,-13.3114 223.679,-14.9085 232.863,-20.1915 234.153,-13.3114"/>
</g>
<!-- Node5 -->
<g id="node6" class="node"><title>Node5</title>
<polygon fill="none" stroke="#bfbfbf" points="401.834,-0.5 401.834,-19.5 481.834,-19.5 481.834,-0.5 401.834,-0.5"/>
<text text-anchor="middle" x="441.834" y="-7.5" font-family="Helvetica,sans-Serif" font-size="10.00">Eigen/Sparse</text>
</g>
<!-- Node2&#45;&gt;Node5 -->
<g id="edge5" class="edge"><title>Node2&#45;&gt;Node5</title>
<path fill="none" stroke="midnightblue" d="M482.743,-56.083C475.679,-48.2982 465.246,-36.8015 456.685,-27.3665"/>
<polygon fill="midnightblue" stroke="midnightblue" points="459.087,-24.8047 449.775,-19.7511 453.903,-29.5087 459.087,-24.8047"/>
</g>
<!-- Node6 -->
<g id="node7" class="node"><title>Node6</title>
<polygon fill="none" stroke="#bfbfbf" points="500.334,-0.5 500.334,-19.5 577.334,-19.5 577.334,-0.5 500.334,-0.5"/>
<text text-anchor="middle" x="538.834" y="-7.5" font-family="Helvetica,sans-Serif" font-size="10.00">Eigen/Dense</text>
</g>
<!-- Node2&#45;&gt;Node6 -->
<g id="edge6" class="edge"><title>Node2&#45;&gt;Node6</title>
<path fill="none" stroke="midnightblue" d="M498.76,-56.083C505.68,-48.2982 515.899,-36.8015 524.286,-27.3665"/>
<polygon fill="midnightblue" stroke="midnightblue" points="527.027,-29.5505 531.055,-19.7511 521.796,-24.8999 527.027,-29.5505"/>
</g>
<!-- Node7&#45;&gt;Node2 -->
<g id="edge8" class="edge"><title>Node7&#45;&gt;Node2</title>
<path fill="none" stroke="midnightblue" d="M986.763,-224.057C973.113,-209.576 943.904,-181.28 912.834,-168 805.564,-122.15 765.584,-161.943 652.834,-132 603.676,-118.945 549.343,-95.0695 517.751,-80.1728"/>
<polygon fill="midnightblue" stroke="midnightblue" points="518.86,-76.8243 508.328,-75.6768 515.846,-83.142 518.86,-76.8243"/>
</g>
<!-- Node7&#45;&gt;Node3 -->
<g id="edge9" class="edge"><title>Node7&#45;&gt;Node3</title>
<path fill="none" stroke="midnightblue" d="M1034.93,-225.518C1037.94,-224.992 1040.93,-224.48 1043.83,-224 1097.91,-215.048 1252.02,-229.488 1287.83,-188 1353.73,-111.67 1173.85,-45.1518 1096.38,-20.8374"/>
<polygon fill="midnightblue" stroke="midnightblue" points="1097.18,-17.4226 1086.59,-17.8206 1095.12,-24.1118 1097.18,-17.4226"/>
</g>
<!-- Node8 -->
<g id="node9" class="node"><title>Node8</title>
<polygon fill="none" stroke="#bfbfbf" points="1224.33,-168.5 1224.33,-187.5 1279.33,-187.5 1279.33,-168.5 1224.33,-168.5"/>
<text text-anchor="middle" x="1251.83" y="-175.5" font-family="Helvetica,sans-Serif" font-size="10.00">typeinfo</text>
</g>
<!-- Node7&#45;&gt;Node8 -->
<g id="edge10" class="edge"><title>Node7&#45;&gt;Node8</title>
<path fill="none" stroke="midnightblue" d="M1035.07,-225.231C1077.19,-216.998 1145.47,-203.361 1213.89,-188.147"/>
<polygon fill="midnightblue" stroke="midnightblue" points="1214.98,-191.489 1223.98,-185.892 1213.46,-184.657 1214.98,-191.489"/>
</g>
<!-- Node9 -->
<g id="node10" class="node"><title>Node9</title>
<polygon fill="none" stroke="#bfbfbf" points="961.334,-168.5 961.334,-187.5 1024.33,-187.5 1024.33,-168.5 961.334,-168.5"/>
<text text-anchor="middle" x="992.834" y="-175.5" font-family="Helvetica,sans-Serif" font-size="10.00">typeindex</text>
</g>
<!-- Node7&#45;&gt;Node9 -->
<g id="edge11" class="edge"><title>Node7&#45;&gt;Node9</title>
<path fill="none" stroke="midnightblue" d="M994.504,-224.083C994.242,-217.006 993.866,-206.861 993.537,-197.986"/>
<polygon fill="midnightblue" stroke="midnightblue" points="997.026,-197.615 993.158,-187.751 990.031,-197.874 997.026,-197.615"/>
</g>
<!-- Node7&#45;&gt;Node10 -->
<g id="edge12" class="edge"><title>Node7&#45;&gt;Node10</title>
<path fill="none" stroke="midnightblue" d="M975.978,-224.444C956.568,-215.636 926.104,-201.812 903.869,-191.722"/>
<polygon fill="midnightblue" stroke="midnightblue" points="905.154,-188.462 894.602,-187.516 902.262,-194.836 905.154,-188.462"/>
</g>
<!-- Node11 -->
<g id="node12" class="node"><title>Node11</title>
<polygon fill="none" stroke="#bfbfbf" points="1042.33,-168.5 1042.33,-187.5 1135.33,-187.5 1135.33,-168.5 1042.33,-168.5"/>
<text text-anchor="middle" x="1088.83" y="-175.5" font-family="Helvetica,sans-Serif" font-size="10.00">unordered_map</text>
</g>
<!-- Node7&#45;&gt;Node11 -->
<g id="edge13" class="edge"><title>Node7&#45;&gt;Node11</title>
<path fill="none" stroke="midnightblue" d="M1009.94,-224.324C1024.74,-215.822 1047.53,-202.729 1064.82,-192.797"/>
<polygon fill="midnightblue" stroke="midnightblue" points="1066.84,-195.671 1073.77,-187.655 1063.35,-189.601 1066.84,-195.671"/>
</g>
<!-- Node12 -->
<g id="node13" class="node"><title>Node12</title>
<polygon fill="none" stroke="#bfbfbf" points="1153.83,-168.5 1153.83,-187.5 1205.83,-187.5 1205.83,-168.5 1153.83,-168.5"/>
<text text-anchor="middle" x="1179.83" y="-175.5" font-family="Helvetica,sans-Serif" font-size="10.00">iterator</text>
</g>
<!-- Node7&#45;&gt;Node12 -->
<g id="edge14" class="edge"><title>Node7&#45;&gt;Node12</title>
<path fill="none" stroke="midnightblue" d="M1024.15,-224.444C1056.6,-214.97 1108.94,-199.693 1143.85,-189.502"/>
<polygon fill="midnightblue" stroke="midnightblue" points="1145.03,-192.805 1153.65,-186.643 1143.07,-186.086 1145.03,-192.805"/>
</g>
<!-- Node13&#45;&gt;Node2 -->
<g id="edge16" class="edge"><title>Node13&#45;&gt;Node2</title>
<path fill="none" stroke="midnightblue" d="M590.631,-228.47C563.448,-223.262 529.613,-212.067 509.834,-188 485.842,-158.806 486.003,-111.839 488.346,-85.8399"/>
<polygon fill="midnightblue" stroke="midnightblue" points="491.835,-86.1254 489.458,-75.8008 484.878,-85.3546 491.835,-86.1254"/>
</g>
<!-- Node13&#45;&gt;Node3 -->
<g id="edge34" class="edge"><title>Node13&#45;&gt;Node3</title>
<path fill="none" stroke="midnightblue" d="M670.632,-224.459C701.151,-216.87 744.792,-204.435 780.834,-188 886.129,-139.984 999.206,-58.8149 1043.49,-25.7151"/>
<polygon fill="midnightblue" stroke="midnightblue" points="1045.75,-28.3937 1051.64,-19.5851 1041.55,-22.7998 1045.75,-28.3937"/>
</g>
<!-- Node13&#45;&gt;Node10 -->
<g id="edge37" class="edge"><title>Node13&#45;&gt;Node10</title>
<path fill="none" stroke="midnightblue" d="M671.338,-224.444C716.75,-214.352 791.794,-197.676 837.243,-187.576"/>
<polygon fill="midnightblue" stroke="midnightblue" points="838.02,-190.989 847.022,-185.403 836.501,-184.155 838.02,-190.989"/>
</g>
<!-- Node14 -->
<g id="node15" class="node"><title>Node14</title>
<g id="a_node15"><a xlink:href="Iter_8h.html" target="_top" xlink:title="Iter.h">
<polygon fill="none" stroke="black" points="519.334,-168.5 519.334,-187.5 560.334,-187.5 560.334,-168.5 519.334,-168.5"/>
<text text-anchor="middle" x="539.834" y="-175.5" font-family="Helvetica,sans-Serif" font-size="10.00">Iter.h</text>
</a>
</g>
</g>
<!-- Node13&#45;&gt;Node14 -->
<g id="edge17" class="edge"><title>Node13&#45;&gt;Node14</title>
<path fill="none" stroke="midnightblue" d="M617.892,-224.324C603.249,-215.822 580.7,-202.729 563.596,-192.797"/>
<polygon fill="midnightblue" stroke="midnightblue" points="565.144,-189.649 554.739,-187.655 561.629,-195.703 565.144,-189.649"/>
</g>
<!-- Node13&#45;&gt;Node15 -->
<g id="edge18" class="edge"><title>Node13&#45;&gt;Node15</title>
<path fill="none" stroke="midnightblue" d="M590.545,-225.773C528.036,-215.091 412.038,-195.269 353.154,-185.207"/>
<polygon fill="midnightblue" stroke="midnightblue" points="353.636,-181.738 343.189,-183.504 352.457,-188.638 353.636,-181.738"/>
</g>
<!-- Node20 -->
<g id="node21" class="node"><title>Node20</title>
<g id="a_node21"><a xlink:href="ConfParser_8h.html" target="_top" xlink:title="ConfParser.h">
<polygon fill="none" stroke="black" points="662.334,-112.5 662.334,-131.5 739.334,-131.5 739.334,-112.5 662.334,-112.5"/>
<text text-anchor="middle" x="700.834" y="-119.5" font-family="Helvetica,sans-Serif" font-size="10.00">ConfParser.h</text>
</a>
</g>
</g>
<!-- Node13&#45;&gt;Node20 -->
<g id="edge33" class="edge"><title>Node13&#45;&gt;Node20</title>
<path fill="none" stroke="midnightblue" d="M624.475,-224.09C613.329,-211.083 596.272,-186.438 607.834,-168 617.884,-151.973 635.438,-141.513 652.607,-134.755"/>
<polygon fill="midnightblue" stroke="midnightblue" points="653.823,-138.037 662.056,-131.369 651.462,-131.447 653.823,-138.037"/>
</g>
<!-- Node21 -->
<g id="node22" class="node"><title>Node21</title>
<polygon fill="none" stroke="#bfbfbf" points="746.834,-56.5 746.834,-75.5 790.834,-75.5 790.834,-56.5 746.834,-56.5"/>
<text text-anchor="middle" x="768.834" y="-63.5" font-family="Helvetica,sans-Serif" font-size="10.00">string</text>
</g>
<!-- Node13&#45;&gt;Node21 -->
<g id="edge38" class="edge"><title>Node13&#45;&gt;Node21</title>
<path fill="none" stroke="midnightblue" d="M675.034,-230.124C704.337,-225.713 741.616,-214.79 761.834,-188 784.358,-158.153 778.985,-111.439 773.591,-85.6564"/>
<polygon fill="midnightblue" stroke="midnightblue" points="776.953,-84.6596 771.285,-75.7079 770.133,-86.24 776.953,-84.6596"/>
</g>
<!-- Node27 -->
<g id="node28" class="node"><title>Node27</title>
<polygon fill="none" stroke="#bfbfbf" points="616.834,-168.5 616.834,-187.5 648.834,-187.5 648.834,-168.5 616.834,-168.5"/>
<text text-anchor="middle" x="632.834" y="-175.5" font-family="Helvetica,sans-Serif" font-size="10.00">set</text>
</g>
<!-- Node13&#45;&gt;Node27 -->
<g id="edge35" class="edge"><title>Node13&#45;&gt;Node27</title>
<path fill="none" stroke="midnightblue" d="M632.834,-224.083C632.834,-217.006 632.834,-206.861 632.834,-197.986"/>
<polygon fill="midnightblue" stroke="midnightblue" points="636.334,-197.751 632.834,-187.751 629.334,-197.751 636.334,-197.751"/>
</g>
<!-- Node28 -->
<g id="node29" class="node"><title>Node28</title>
<polygon fill="none" stroke="#bfbfbf" points="666.834,-168.5 666.834,-187.5 752.834,-187.5 752.834,-168.5 666.834,-168.5"/>
<text text-anchor="middle" x="709.834" y="-175.5" font-family="Helvetica,sans-Serif" font-size="10.00">unordered_set</text>
</g>
<!-- Node13&#45;&gt;Node28 -->
<g id="edge36" class="edge"><title>Node13&#45;&gt;Node28</title>
<path fill="none" stroke="midnightblue" d="M645.205,-224.324C656.992,-216.058 674.966,-203.453 688.969,-193.632"/>
<polygon fill="midnightblue" stroke="midnightblue" points="691.315,-196.262 697.493,-187.655 687.296,-190.531 691.315,-196.262"/>
</g>
<!-- Node29 -->
<g id="node30" class="node"><title>Node29</title>
<polygon fill="none" stroke="#bfbfbf" points="408.834,-168.5 408.834,-187.5 462.834,-187.5 462.834,-168.5 408.834,-168.5"/>
<text text-anchor="middle" x="435.834" y="-175.5" font-family="Helvetica,sans-Serif" font-size="10.00">fstream</text>
</g>
<!-- Node13&#45;&gt;Node29 -->
<g id="edge39" class="edge"><title>Node13&#45;&gt;Node29</title>
<path fill="none" stroke="midnightblue" d="M601.619,-224.444C566.711,-214.875 510.207,-199.386 473.034,-189.197"/>
<polygon fill="midnightblue" stroke="midnightblue" points="473.666,-185.741 463.097,-186.473 471.816,-192.492 473.666,-185.741"/>
</g>
<!-- Node15&#45;&gt;Node2 -->
<g id="edge19" class="edge"><title>Node15&#45;&gt;Node2</title>
<path fill="none" stroke="midnightblue" d="M332.797,-168.411C348.916,-159.622 374.422,-145.392 395.834,-132 422.308,-115.442 451.856,-94.8812 470.863,-81.3727"/>
<polygon fill="midnightblue" stroke="midnightblue" points="472.942,-84.1889 479.046,-75.5292 468.874,-78.4923 472.942,-84.1889"/>
</g>
<!-- Node15&#45;&gt;Node4 -->
<g id="edge29" class="edge"><title>Node15&#45;&gt;Node4</title>
<path fill="none" stroke="midnightblue" d="M290.642,-176.692C226.084,-175.372 61.8088,-168.428 23.8339,-132 -0.795805,-108.373 -8.33665,-82.7703 12.8339,-56 32.3747,-31.2905 123.693,-18.7404 172.263,-13.7183"/>
<polygon fill="midnightblue" stroke="midnightblue" points="172.613,-17.2009 182.219,-12.7326 171.923,-10.235 172.613,-17.2009"/>
</g>
<!-- Node16 -->
<g id="node17" class="node"><title>Node16</title>
<g id="a_node17"><a xlink:href="utils_8h.html" target="_top" xlink:title="utils.h">
<polygon fill="none" stroke="black" points="33.3339,-112.5 33.3339,-131.5 78.3339,-131.5 78.3339,-112.5 33.3339,-112.5"/>
<text text-anchor="middle" x="55.8339" y="-119.5" font-family="Helvetica,sans-Serif" font-size="10.00">utils.h</text>
</a>
</g>
</g>
<!-- Node15&#45;&gt;Node16 -->
<g id="edge20" class="edge"><title>Node15&#45;&gt;Node16</title>
<path fill="none" stroke="midnightblue" d="M290.8,-172.688C249.753,-165.722 167.312,-151.054 88.5415,-132.256"/>
<polygon fill="midnightblue" stroke="midnightblue" points="89.0003,-128.766 78.4582,-129.821 87.3575,-135.571 89.0003,-128.766"/>
</g>
<!-- Node15&#45;&gt;Node20 -->
<g id="edge24" class="edge"><title>Node15&#45;&gt;Node20</title>
<path fill="none" stroke="midnightblue" d="M342.926,-173.331C406.464,-164.396 570.016,-141.396 652.189,-129.841"/>
<polygon fill="midnightblue" stroke="midnightblue" points="652.857,-133.281 662.272,-128.423 651.882,-126.35 652.857,-133.281"/>
</g>
<!-- Node24 -->
<g id="node25" class="node"><title>Node24</title>
<polygon fill="none" stroke="#bfbfbf" points="96.3339,-112.5 96.3339,-131.5 155.334,-131.5 155.334,-112.5 96.3339,-112.5"/>
<text text-anchor="middle" x="125.834" y="-119.5" font-family="Helvetica,sans-Serif" font-size="10.00">iostream</text>
</g>
<!-- Node15&#45;&gt;Node24 -->
<g id="edge30" class="edge"><title>Node15&#45;&gt;Node24</title>
<path fill="none" stroke="midnightblue" d="M290.677,-169.605C258.364,-160.469 203.074,-144.837 165.521,-134.22"/>
<polygon fill="midnightblue" stroke="midnightblue" points="166.009,-130.721 155.434,-131.369 164.104,-137.457 166.009,-130.721"/>
</g>
<!-- Node25 -->
<g id="node26" class="node"><title>Node25</title>
<polygon fill="none" stroke="#bfbfbf" points="173.334,-112.5 173.334,-131.5 228.334,-131.5 228.334,-112.5 173.334,-112.5"/>
<text text-anchor="middle" x="200.834" y="-119.5" font-family="Helvetica,sans-Serif" font-size="10.00">iomanip</text>
</g>
<!-- Node15&#45;&gt;Node25 -->
<g id="edge31" class="edge"><title>Node15&#45;&gt;Node25</title>
<path fill="none" stroke="midnightblue" d="M298.453,-168.444C279.617,-159.675 250.103,-145.935 228.455,-135.858"/>
<polygon fill="midnightblue" stroke="midnightblue" points="229.671,-132.564 219.128,-131.516 226.717,-138.91 229.671,-132.564"/>
</g>
<!-- Node26 -->
<g id="node27" class="node"><title>Node26</title>
<polygon fill="none" stroke="#bfbfbf" points="246.834,-112.5 246.834,-131.5 386.834,-131.5 386.834,-112.5 246.834,-112.5"/>
<text text-anchor="middle" x="316.834" y="-119.5" font-family="Helvetica,sans-Serif" font-size="10.00">boost/functional/hash.hpp</text>
</g>
<!-- Node15&#45;&gt;Node26 -->
<g id="edge32" class="edge"><title>Node15&#45;&gt;Node26</title>
<path fill="none" stroke="midnightblue" d="M316.834,-168.083C316.834,-161.006 316.834,-150.861 316.834,-141.986"/>
<polygon fill="midnightblue" stroke="midnightblue" points="320.334,-141.751 316.834,-131.751 313.334,-141.751 320.334,-141.751"/>
</g>
<!-- Node17 -->
<g id="node18" class="node"><title>Node17</title>
<polygon fill="none" stroke="#bfbfbf" points="189.334,-56.5 189.334,-75.5 246.334,-75.5 246.334,-56.5 189.334,-56.5"/>
<text text-anchor="middle" x="217.834" y="-63.5" font-family="Helvetica,sans-Serif" font-size="10.00">complex</text>
</g>
<!-- Node16&#45;&gt;Node17 -->
<g id="edge21" class="edge"><title>Node16&#45;&gt;Node17</title>
<path fill="none" stroke="midnightblue" d="M78.3593,-113.492C105.346,-104.496 150.875,-89.3196 182.544,-78.7632"/>
<polygon fill="midnightblue" stroke="midnightblue" points="183.919,-81.9945 192.299,-75.5118 181.705,-75.3537 183.919,-81.9945"/>
</g>
<!-- Node18 -->
<g id="node19" class="node"><title>Node18</title>
<polygon fill="none" stroke="#bfbfbf" points="21.8339,-56.5 21.8339,-75.5 89.8339,-75.5 89.8339,-56.5 21.8339,-56.5"/>
<text text-anchor="middle" x="55.8339" y="-63.5" font-family="Helvetica,sans-Serif" font-size="10.00">type_traits</text>
</g>
<!-- Node16&#45;&gt;Node18 -->
<g id="edge22" class="edge"><title>Node16&#45;&gt;Node18</title>
<path fill="none" stroke="midnightblue" d="M55.8339,-112.083C55.8339,-105.006 55.8339,-94.8611 55.8339,-85.9865"/>
<polygon fill="midnightblue" stroke="midnightblue" points="59.334,-85.751 55.8339,-75.7511 52.334,-85.7511 59.334,-85.751"/>
</g>
<!-- Node19 -->
<g id="node20" class="node"><title>Node19</title>
<polygon fill="none" stroke="#bfbfbf" points="108.334,-56.5 108.334,-75.5 171.334,-75.5 171.334,-56.5 108.334,-56.5"/>
<text text-anchor="middle" x="139.834" y="-63.5" font-family="Helvetica,sans-Serif" font-size="10.00">functional</text>
</g>
<!-- Node16&#45;&gt;Node19 -->
<g id="edge23" class="edge"><title>Node16&#45;&gt;Node19</title>
<path fill="none" stroke="midnightblue" d="M69.3299,-112.324C82.4335,-103.9 102.546,-90.9709 117.941,-81.0741"/>
<polygon fill="midnightblue" stroke="midnightblue" points="119.852,-84.0063 126.371,-75.6545 116.067,-78.118 119.852,-84.0063"/>
</g>
<!-- Node20&#45;&gt;Node2 -->
<g id="edge28" class="edge"><title>Node20&#45;&gt;Node2</title>
<path fill="none" stroke="midnightblue" d="M667.559,-112.444C630.109,-102.814 569.341,-87.1876 529.73,-77.0018"/>
<polygon fill="midnightblue" stroke="midnightblue" points="530.452,-73.5738 519.896,-74.473 528.709,-80.3532 530.452,-73.5738"/>
</g>
<!-- Node20&#45;&gt;Node21 -->
<g id="edge25" class="edge"><title>Node20&#45;&gt;Node21</title>
<path fill="none" stroke="midnightblue" d="M711.759,-112.324C722.009,-104.185 737.555,-91.8395 749.835,-82.0874"/>
<polygon fill="midnightblue" stroke="midnightblue" points="752.055,-84.7937 757.71,-75.8339 747.702,-79.3119 752.055,-84.7937"/>
</g>
<!-- Node22 -->
<g id="node23" class="node"><title>Node22</title>
<polygon fill="none" stroke="#bfbfbf" points="672.834,-56.5 672.834,-75.5 728.834,-75.5 728.834,-56.5 672.834,-56.5"/>
<text text-anchor="middle" x="700.834" y="-63.5" font-family="Helvetica,sans-Serif" font-size="10.00">sstream</text>
</g>
<!-- Node20&#45;&gt;Node22 -->
<g id="edge26" class="edge"><title>Node20&#45;&gt;Node22</title>
<path fill="none" stroke="midnightblue" d="M700.834,-112.083C700.834,-105.006 700.834,-94.8611 700.834,-85.9865"/>
<polygon fill="midnightblue" stroke="midnightblue" points="704.334,-85.751 700.834,-75.7511 697.334,-85.7511 704.334,-85.751"/>
</g>
<!-- Node23 -->
<g id="node24" class="node"><title>Node23</title>
<polygon fill="none" stroke="#bfbfbf" points="616.834,-56.5 616.834,-75.5 654.834,-75.5 654.834,-56.5 616.834,-56.5"/>
<text text-anchor="middle" x="635.834" y="-63.5" font-family="Helvetica,sans-Serif" font-size="10.00">map</text>
</g>
<!-- Node20&#45;&gt;Node23 -->
<g id="edge27" class="edge"><title>Node20&#45;&gt;Node23</title>
<path fill="none" stroke="midnightblue" d="M690.391,-112.324C680.688,-104.263 666.019,-92.0765 654.334,-82.3695"/>
<polygon fill="midnightblue" stroke="midnightblue" points="656.396,-79.532 646.467,-75.8339 651.923,-84.9163 656.396,-79.532"/>
</g>
</g>
</svg>
