<?xml version="1.0" encoding="UTF-8" standalone="no"?>
<!DOCTYPE svg PUBLIC "-//W3C//DTD SVG 1.1//EN"
 "http://www.w3.org/Graphics/SVG/1.1/DTD/svg11.dtd">
<!-- Generated by graphviz version 2.38.0 (20140413.2041)
 -->
<!-- Title: main Pages: 1 -->
<svg width="549pt" height="192pt"
 viewBox="0.00 0.00 549.00 191.50" xmlns="http://www.w3.org/2000/svg" xmlns:xlink="http://www.w3.org/1999/xlink">
<g id="graph0" class="graph" transform="scale(1 1) rotate(0) translate(4 187.5)">
<title>main</title>
<!-- Node1 -->
<g id="node1" class="node"><title>Node1</title>
<polygon fill="#bfbfbf" stroke="black" points="0,-88 0,-107 41,-107 41,-88 0,-88"/>
<text text-anchor="middle" x="20.5" y="-95" font-family="Helvetica,sans-Serif" font-size="10.00">main</text>
</g>
<!-- Node2 -->
<g id="node2" class="node"><title>Node2</title>
<g id="a_node2"><a xlink:href="classConfiguration.html#a691b3e3c4a92594be2733b0710f8dfeb" target="_top" xlink:title="Configuration::count">
<polygon fill="none" stroke="black" points="100,-164 100,-183 213,-183 213,-164 100,-164"/>
<text text-anchor="middle" x="156.5" y="-171" font-family="Helvetica,sans-Serif" font-size="10.00">Configuration::count</text>
</a>
</g>
</g>
<!-- Node1&#45;&gt;Node2 -->
<g id="edge1" class="edge"><title>Node1&#45;&gt;Node2</title>
<path fill="none" stroke="midnightblue" d="M28.1852,-107.193C37.5684,-120.034 55.8813,-142.461 77,-154.5 81.1951,-156.891 85.6821,-158.983 90.3065,-160.813"/>
<polygon fill="midnightblue" stroke="midnightblue" points="89.3474,-164.186 99.9422,-164.212 91.6761,-157.584 89.3474,-164.186"/>
</g>
<!-- Node3 -->
<g id="node3" class="node"><title>Node3</title>
<g id="a_node3"><a xlink:href="classBasisnamesOne.html#ab3030f74ccafcc178f38e7a8ada13b9b" target="_top" xlink:title="BasisnamesOne::fromBoth">
<polygon fill="none" stroke="black" points="83.5,-50 83.5,-69 229.5,-69 229.5,-50 83.5,-50"/>
<text text-anchor="middle" x="156.5" y="-57" font-family="Helvetica,sans-Serif" font-size="10.00">BasisnamesOne::fromBoth</text>
</a>
</g>
</g>
<!-- Node1&#45;&gt;Node3 -->
<g id="edge2" class="edge"><title>Node1&#45;&gt;Node3</title>
<path fill="none" stroke="midnightblue" d="M41.137,-90.2824C51.6918,-86.5289 64.9738,-82.0058 77,-78.5 85.4114,-76.0479 94.3934,-73.661 103.166,-71.4534"/>
<polygon fill="midnightblue" stroke="midnightblue" points="104.069,-74.8356 112.941,-69.0432 102.393,-68.0391 104.069,-74.8356"/>
</g>
<!-- Node9 -->
<g id="node9" class="node"><title>Node9</title>
<g id="a_node9"><a xlink:href="classBasisnamesOne.html#a37fe3571090885a8a594eed4019befa9" target="_top" xlink:title="BasisnamesOne::fromFirst">
<polygon fill="none" stroke="black" points="85,-126 85,-145 228,-145 228,-126 85,-126"/>
<text text-anchor="middle" x="156.5" y="-133" font-family="Helvetica,sans-Serif" font-size="10.00">BasisnamesOne::fromFirst</text>
</a>
</g>
</g>
<!-- Node1&#45;&gt;Node9 -->
<g id="edge8" class="edge"><title>Node1&#45;&gt;Node9</title>
<path fill="none" stroke="midnightblue" d="M41.137,-104.718C51.6918,-108.471 64.9738,-112.994 77,-116.5 85.4114,-118.952 94.3934,-121.339 103.166,-123.547"/>
<polygon fill="midnightblue" stroke="midnightblue" points="102.393,-126.961 112.941,-125.957 104.069,-120.164 102.393,-126.961"/>
</g>
<!-- Node10 -->
<g id="node10" class="node"><title>Node10</title>
<g id="a_node10"><a xlink:href="classBasisnamesOne.html#a683ae34cba3c56f9a0185e932de62078" target="_top" xlink:title="BasisnamesOne::fromSecond">
<polygon fill="none" stroke="black" points="77,-88 77,-107 236,-107 236,-88 77,-88"/>
<text text-anchor="middle" x="156.5" y="-95" font-family="Helvetica,sans-Serif" font-size="10.00">BasisnamesOne::fromSecond</text>
</a>
</g>
</g>
<!-- Node1&#45;&gt;Node10 -->
<g id="edge10" class="edge"><title>Node1&#45;&gt;Node10</title>
<path fill="none" stroke="midnightblue" d="M41.2722,-97.5C48.5665,-97.5 57.3804,-97.5 66.8398,-97.5"/>
<polygon fill="midnightblue" stroke="midnightblue" points="66.8946,-101 76.8946,-97.5 66.8945,-94.0001 66.8946,-101"/>
</g>
<!-- Node11 -->
<g id="node11" class="node"><title>Node11</title>
<g id="a_node11"><a xlink:href="classConfiguration.html#a17fff65a69b1b968f4862b6fbb4137bc" target="_top" xlink:title="Configuration::load\l_from_json">
<polygon fill="none" stroke="black" points="103,-0.5 103,-30.5 210,-30.5 210,-0.5 103,-0.5"/>
<text text-anchor="start" x="111" y="-18.5" font-family="Helvetica,sans-Serif" font-size="10.00">Configuration::load</text>
<text text-anchor="middle" x="156.5" y="-7.5" font-family="Helvetica,sans-Serif" font-size="10.00">_from_json</text>
</a>
</g>
</g>
<!-- Node1&#45;&gt;Node11 -->
<g id="edge12" class="edge"><title>Node1&#45;&gt;Node11</title>
<path fill="none" stroke="midnightblue" d="M28.6423,-87.5905C38.2634,-74.926 56.5559,-53.1337 77,-40.5 82.0665,-37.3691 87.5617,-34.5953 93.2121,-32.1452"/>
<polygon fill="midnightblue" stroke="midnightblue" points="94.8225,-35.2714 102.82,-28.3218 92.2341,-28.7675 94.8225,-35.2714"/>
</g>
<!-- Node4 -->
<g id="node4" class="node"><title>Node4</title>
<g id="a_node4"><a xlink:href="classBasisnames.html#a534f7e2dcc2987a1f969cb89c070da04" target="_top" xlink:title="Basisnames::configure">
<polygon fill="none" stroke="black" points="272,-88 272,-107 397,-107 397,-88 272,-88"/>
<text text-anchor="middle" x="334.5" y="-95" font-family="Helvetica,sans-Serif" font-size="10.00">Basisnames::configure</text>
</a>
</g>
</g>
<!-- Node3&#45;&gt;Node4 -->
<g id="edge3" class="edge"><title>Node3&#45;&gt;Node4</title>
<path fill="none" stroke="midnightblue" d="M201.912,-69.089C225.451,-74.1713 254.557,-80.4554 279.405,-85.8203"/>
<polygon fill="midnightblue" stroke="midnightblue" points="278.894,-89.2906 289.407,-87.9799 280.371,-82.4482 278.894,-89.2906"/>
</g>
<!-- Node5 -->
<g id="node5" class="node"><title>Node5</title>
<g id="a_node5"><a xlink:href="classStateTwo.html#a7431fc271acaf34c4ddbb9b53966895d" target="_top" xlink:title="StateTwo::order">
<polygon fill="none" stroke="black" points="289,-50 289,-69 380,-69 380,-50 289,-50"/>
<text text-anchor="middle" x="334.5" y="-57" font-family="Helvetica,sans-Serif" font-size="10.00">StateTwo::order</text>
</a>
</g>
</g>
<!-- Node3&#45;&gt;Node5 -->
<g id="edge4" class="edge"><title>Node3&#45;&gt;Node5</title>
<path fill="none" stroke="midnightblue" d="M229.594,-59.5C245.869,-59.5 262.894,-59.5 278.343,-59.5"/>
<polygon fill="midnightblue" stroke="midnightblue" points="278.758,-63.0001 288.758,-59.5 278.758,-56.0001 278.758,-63.0001"/>
</g>
<!-- Node6 -->
<g id="node6" class="node"><title>Node6</title>
<g id="a_node6"><a xlink:href="classStateTwo.html#afcd150fde37f1ba61b392b36cff63d87" target="_top" xlink:title="StateTwo::StateTwo">
<polygon fill="none" stroke="black" points="433,-88 433,-107 541,-107 541,-88 433,-88"/>
<text text-anchor="middle" x="487" y="-95" font-family="Helvetica,sans-Serif" font-size="10.00">StateTwo::StateTwo</text>
</a>
</g>
</g>
<!-- Node5&#45;&gt;Node6 -->
<g id="edge5" class="edge"><title>Node5&#45;&gt;Node6</title>
<path fill="none" stroke="midnightblue" d="M373.478,-69.089C393.159,-74.0583 417.391,-80.1767 438.321,-85.4613"/>
<polygon fill="midnightblue" stroke="midnightblue" points="437.743,-88.9253 448.296,-87.9799 439.457,-82.1383 437.743,-88.9253"/>
</g>
<!-- Node7 -->
<g id="node7" class="node"><title>Node7</title>
<g id="a_node7"><a xlink:href="classStateTwo.html#ab76184c4f2fbebe8f5dd28bac62b0054" target="_top" xlink:title="StateTwo::second">
<polygon fill="none" stroke="black" points="437,-50 437,-69 537,-69 537,-50 437,-50"/>
<text text-anchor="middle" x="487" y="-57" font-family="Helvetica,sans-Serif" font-size="10.00">StateTwo::second</text>
</a>
</g>
</g>
<!-- Node5&#45;&gt;Node7 -->
<g id="edge6" class="edge"><title>Node5&#45;&gt;Node7</title>
<path fill="none" stroke="midnightblue" d="M380.247,-59.5C394.889,-59.5 411.386,-59.5 426.918,-59.5"/>
<polygon fill="midnightblue" stroke="midnightblue" points="426.957,-63.0001 436.957,-59.5 426.957,-56.0001 426.957,-63.0001"/>
</g>
<!-- Node8 -->
<g id="node8" class="node"><title>Node8</title>
<g id="a_node8"><a xlink:href="classStateTwo.html#a6ae12f8c26a5cc44676eb65f28c18cb7" target="_top" xlink:title="StateTwo::first">
<polygon fill="none" stroke="black" points="445.5,-12 445.5,-31 528.5,-31 528.5,-12 445.5,-12"/>
<text text-anchor="middle" x="487" y="-19" font-family="Helvetica,sans-Serif" font-size="10.00">StateTwo::first</text>
</a>
</g>
</g>
<!-- Node5&#45;&gt;Node8 -->
<g id="edge7" class="edge"><title>Node5&#45;&gt;Node8</title>
<path fill="none" stroke="midnightblue" d="M373.478,-49.911C393.159,-44.9417 417.391,-38.8233 438.321,-33.5387"/>
<polygon fill="midnightblue" stroke="midnightblue" points="439.457,-36.8617 448.296,-31.0201 437.743,-30.0747 439.457,-36.8617"/>
</g>
<!-- Node9&#45;&gt;Node4 -->
<g id="edge9" class="edge"><title>Node9&#45;&gt;Node4</title>
<path fill="none" stroke="midnightblue" d="M201.912,-125.911C225.451,-120.829 254.557,-114.545 279.405,-109.18"/>
<polygon fill="midnightblue" stroke="midnightblue" points="280.371,-112.552 289.407,-107.02 278.894,-105.709 280.371,-112.552"/>
</g>
<!-- Node10&#45;&gt;Node4 -->
<g id="edge11" class="edge"><title>Node10&#45;&gt;Node4</title>
<path fill="none" stroke="midnightblue" d="M236.234,-97.5C244.758,-97.5 253.399,-97.5 261.833,-97.5"/>
<polygon fill="midnightblue" stroke="midnightblue" points="261.996,-101 271.996,-97.5 261.996,-94.0001 261.996,-101"/>
</g>
</g>
</svg>
