<?xml version="1.0" encoding="UTF-8" standalone="no"?>
<!DOCTYPE svg PUBLIC "-//W3C//DTD SVG 1.1//EN"
 "http://www.w3.org/Graphics/SVG/1.1/DTD/svg11.dtd">
<!-- Generated by graphviz version 2.38.0 (20140413.2041)
 -->
<!-- Title: model_potential::g Pages: 1 -->
<svg width="494pt" height="66pt"
 viewBox="0.00 0.00 494.00 66.00" xmlns="http://www.w3.org/2000/svg" xmlns:xlink="http://www.w3.org/1999/xlink">
<g id="graph0" class="graph" transform="scale(1 1) rotate(0) translate(4 62)">
<title>model_potential::g</title>
<!-- Node2 -->
<g id="node1" class="node"><title>Node2</title>
<polygon fill="#bfbfbf" stroke="black" points="0,-19.5 0,-38.5 106,-38.5 106,-19.5 0,-19.5"/>
<text text-anchor="middle" x="53" y="-26.5" font-family="Helvetica,sans-Serif" font-size="10.00">model_potential::g</text>
</g>
<!-- Node3 -->
<g id="node2" class="node"><title>Node3</title>
<g id="a_node2"><a xlink:href="wavefunction__test_8cpp.html#afee9b93327d60c46c735d72999f6d3e4" target="_top" xlink:title="BOOST_FIXTURE_TEST_CASE">
<polygon fill="none" stroke="black" points="142,-38.5 142,-57.5 296,-57.5 296,-38.5 142,-38.5"/>
<text text-anchor="middle" x="219" y="-45.5" font-family="Helvetica,sans-Serif" font-size="10.00">BOOST_FIXTURE_TEST_CASE</text>
</a>
</g>
</g>
<!-- Node2&#45;&gt;Node3 -->
<g id="edge1" class="edge"><title>Node2&#45;&gt;Node3</title>
<path fill="none" stroke="midnightblue" d="M116.372,-36.226C124.733,-37.1947 133.384,-38.1969 141.948,-39.1891"/>
<polygon fill="midnightblue" stroke="midnightblue" points="116.678,-32.7381 106.342,-35.064 115.872,-39.6916 116.678,-32.7381"/>
</g>
<!-- Node4 -->
<g id="node3" class="node"><title>Node4</title>
<g id="a_node3"><a xlink:href="classNumerov.html#a9c999be5f2de691b818a4d99e7d537ca" target="_top" xlink:title="Perform the integration. ">
<polygon fill="none" stroke="black" points="164,-0.5 164,-19.5 274,-19.5 274,-0.5 164,-0.5"/>
<text text-anchor="middle" x="219" y="-7.5" font-family="Helvetica,sans-Serif" font-size="10.00">Numerov::integrate</text>
</a>
</g>
</g>
<!-- Node2&#45;&gt;Node4 -->
<g id="edge2" class="edge"><title>Node2&#45;&gt;Node4</title>
<path fill="none" stroke="midnightblue" d="M116.442,-21.7658C132.073,-19.9549 148.711,-18.0274 163.899,-16.2678"/>
<polygon fill="midnightblue" stroke="midnightblue" points="115.872,-18.3084 106.342,-22.936 116.678,-25.2619 115.872,-18.3084"/>
</g>
<!-- Node5 -->
<g id="node4" class="node"><title>Node5</title>
<g id="a_node4"><a xlink:href="wavefunction__test_8cpp.html#a8c01b14b42a958dbe2d4504d4fba0cab" target="_top" xlink:title="BOOST_FIXTURE_TEST_CASE">
<polygon fill="none" stroke="black" points="332,-0.5 332,-19.5 486,-19.5 486,-0.5 332,-0.5"/>
<text text-anchor="middle" x="409" y="-7.5" font-family="Helvetica,sans-Serif" font-size="10.00">BOOST_FIXTURE_TEST_CASE</text>
</a>
</g>
</g>
<!-- Node4&#45;&gt;Node5 -->
<g id="edge3" class="edge"><title>Node4&#45;&gt;Node5</title>
<path fill="none" stroke="midnightblue" d="M284.484,-10C299.746,-10 316.164,-10 331.888,-10"/>
<polygon fill="midnightblue" stroke="midnightblue" points="284.125,-6.5001 274.125,-10 284.125,-13.5001 284.125,-6.5001"/>
</g>
</g>
</svg>
