<?xml version="1.0" encoding="UTF-8" standalone="no"?>
<!DOCTYPE svg PUBLIC "-//W3C//DTD SVG 1.1//EN"
 "http://www.w3.org/Graphics/SVG/1.1/DTD/svg11.dtd">
<!-- Generated by graphviz version 2.38.0 (20140413.2041)
 -->
<!-- Title: /travis/calc/SQLite.h Pages: 1 -->
<!--zoomable 229 -->
<svg id="main" version="1.1" xmlns="http://www.w3.org/2000/svg" xmlns:xlink="http://www.w3.org/1999/xlink" xml:space="preserve" onload="init(evt)">
<style type="text/css"><![CDATA[
.edge:hover path { stroke: red; }
.edge:hover polygon { stroke: red; fill: red; }
]]></style>
<script type="text/javascript"><![CDATA[
var edges = document.getElementsByTagName('g');
if (edges && edges.length) {
  for (var i=0;i<edges.length;i++) {
    if (edges[i].id.substr(0,4)=='edge') {
      edges[i].setAttribute('class','edge');
    }
  }
}
]]></script>
        <defs>
                <circle id="rim" cx="0" cy="0" r="7"/>
                <circle id="rim2" cx="0" cy="0" r="3.5"/>
                <g id="zoomPlus">
                        <use xlink:href="#rim" fill="#404040">
                                <set attributeName="fill" to="#808080" begin="zoomplus.mouseover" end="zoomplus.mouseout"/>
                        </use>
                        <path d="M-4,0h8M0,-4v8" fill="none" stroke="white" stroke-width="1.5" pointer-events="none"/>
                </g>
                <g id="zoomMin">
                        <use xlink:href="#rim" fill="#404040">
                                <set attributeName="fill" to="#808080" begin="zoomminus.mouseover" end="zoomminus.mouseout"/>
                        </use>
                        <path d="M-4,0h8" fill="none" stroke="white" stroke-width="1.5" pointer-events="none"/>
                </g>
                <g id="dirArrow">
                        <path fill="none" stroke="white" stroke-width="1.5" d="M0,-3.0v7 M-2.5,-0.5L0,-3.0L2.5,-0.5"/>
                </g>
               <g id="resetDef">
                       <use xlink:href="#rim2" fill="#404040">
                               <set attributeName="fill" to="#808080" begin="reset.mouseover" end="reset.mouseout"/>
                       </use>
               </g>
        </defs>

<script type="text/javascript">
var viewWidth = 1071;
var viewHeight = 229;
var sectionId = 'dynsection-1';
</script>
<script xlink:href="svgpan.js"/>
<svg id="graph" class="graph">
<g id="viewport">
<title>/travis/calc/SQLite.h</title>
<!-- Node1 -->
<g id="node1" class="node"><title>Node1</title>
<polygon fill="#bfbfbf" stroke="black" points="487.5,-201.5 487.5,-220.5 598.5,-220.5 598.5,-201.5 487.5,-201.5"/>
<text text-anchor="middle" x="543" y="-208.5" font-family="Helvetica,sans-Serif" font-size="10.00">/travis/calc/SQLite.h</text>
</g>
<!-- Node2 -->
<g id="node2" class="node"><title>Node2</title>
<g id="a_node2"><a xlink:href="HamiltonianOne_8h.html" target="_top" xlink:title="/travis/calc/Hamiltonian\lOne.h">
<polygon fill="none" stroke="black" points="92,-134.5 92,-164.5 220,-164.5 220,-134.5 92,-134.5"/>
<text text-anchor="start" x="100" y="-152.5" font-family="Helvetica,sans-Serif" font-size="10.00">/travis/calc/Hamiltonian</text>
<text text-anchor="middle" x="156" y="-141.5" font-family="Helvetica,sans-Serif" font-size="10.00">One.h</text>
</a>
</g>
</g>
<!-- Node1&#45;&gt;Node2 -->
<g id="edge1" class="edge"><title>Node1&#45;&gt;Node2</title>
<path fill="none" stroke="midnightblue" d="M477.223,-201.182C414.588,-192.605 317.719,-178.872 234,-165 229.516,-164.257 224.892,-163.465 220.238,-162.648"/>
<polygon fill="midnightblue" stroke="midnightblue" points="476.976,-204.68 487.358,-202.565 477.923,-197.745 476.976,-204.68"/>
</g>
<!-- Node4 -->
<g id="node4" class="node"><title>Node4</title>
<g id="a_node4"><a xlink:href="HamiltonianTwo_8h.html" target="_top" xlink:title="/travis/calc/Hamiltonian\lTwo.h">
<polygon fill="none" stroke="black" points="184,-67.5 184,-97.5 312,-97.5 312,-67.5 184,-67.5"/>
<text text-anchor="start" x="192" y="-85.5" font-family="Helvetica,sans-Serif" font-size="10.00">/travis/calc/Hamiltonian</text>
<text text-anchor="middle" x="248" y="-74.5" font-family="Helvetica,sans-Serif" font-size="10.00">Two.h</text>
</a>
</g>
</g>
<!-- Node1&#45;&gt;Node4 -->
<g id="edge7" class="edge"><title>Node1&#45;&gt;Node4</title>
<path fill="none" stroke="midnightblue" d="M476.902,-207.505C405.09,-203.403 296.621,-192.689 267,-165 248.426,-147.638 246.367,-115.928 246.924,-97.5998"/>
<polygon fill="midnightblue" stroke="midnightblue" points="477.043,-211.018 487.218,-208.064 477.422,-204.028 477.043,-211.018"/>
</g>
<!-- Node7 -->
<g id="node7" class="node"><title>Node7</title>
<g id="a_node7"><a xlink:href="MatrixElements_8cpp.html" target="_top" xlink:title="/travis/calc/MatrixElements.cpp">
<polygon fill="none" stroke="black" points="276.5,-140 276.5,-159 441.5,-159 441.5,-140 276.5,-140"/>
<text text-anchor="middle" x="359" y="-147" font-family="Helvetica,sans-Serif" font-size="10.00">/travis/calc/MatrixElements.cpp</text>
</a>
</g>
</g>
<!-- Node1&#45;&gt;Node7 -->
<g id="edge8" class="edge"><title>Node1&#45;&gt;Node7</title>
<path fill="none" stroke="midnightblue" d="M507.068,-198.381C471.303,-186.815 417.264,-169.341 385.314,-159.009"/>
<polygon fill="midnightblue" stroke="midnightblue" points="506.045,-201.728 516.637,-201.475 508.199,-195.068 506.045,-201.728"/>
</g>
<!-- Node8 -->
<g id="node8" class="node"><title>Node8</title>
<g id="a_node8"><a xlink:href="QuantumDefect_8cpp.html" target="_top" xlink:title="/travis/calc/QuantumDefect.cpp">
<polygon fill="none" stroke="black" points="459.5,-140 459.5,-159 626.5,-159 626.5,-140 459.5,-140"/>
<text text-anchor="middle" x="543" y="-147" font-family="Helvetica,sans-Serif" font-size="10.00">/travis/calc/QuantumDefect.cpp</text>
</a>
</g>
</g>
<!-- Node1&#45;&gt;Node8 -->
<g id="edge9" class="edge"><title>Node1&#45;&gt;Node8</title>
<path fill="none" stroke="midnightblue" d="M543,-191.317C543,-180.496 543,-167.398 543,-159.009"/>
<polygon fill="midnightblue" stroke="midnightblue" points="539.5,-191.475 543,-201.475 546.5,-191.475 539.5,-191.475"/>
</g>
<!-- Node9 -->
<g id="node9" class="node"><title>Node9</title>
<g id="a_node9"><a xlink:href="quantum__defect__test_8cpp.html" target="_top" xlink:title="/travis/calc/unit_test\l/quantum_defect_test.cpp">
<polygon fill="none" stroke="black" points="644.5,-134.5 644.5,-164.5 787.5,-164.5 787.5,-134.5 644.5,-134.5"/>
<text text-anchor="start" x="652.5" y="-152.5" font-family="Helvetica,sans-Serif" font-size="10.00">/travis/calc/unit_test</text>
<text text-anchor="middle" x="716" y="-141.5" font-family="Helvetica,sans-Serif" font-size="10.00">/quantum_defect_test.cpp</text>
</a>
</g>
</g>
<!-- Node1&#45;&gt;Node9 -->
<g id="edge10" class="edge"><title>Node1&#45;&gt;Node9</title>
<path fill="none" stroke="midnightblue" d="M577.591,-198.103C605.741,-188.422 645.53,-174.737 675.227,-164.523"/>
<polygon fill="midnightblue" stroke="midnightblue" points="576.105,-194.913 567.787,-201.475 578.381,-201.532 576.105,-194.913"/>
</g>
<!-- Node10 -->
<g id="node10" class="node"><title>Node10</title>
<g id="a_node10"><a xlink:href="sqlite__test_8cpp.html" target="_top" xlink:title="/travis/calc/unit_test\l/sqlite_test.cpp">
<polygon fill="none" stroke="black" points="805.5,-134.5 805.5,-164.5 918.5,-164.5 918.5,-134.5 805.5,-134.5"/>
<text text-anchor="start" x="813.5" y="-152.5" font-family="Helvetica,sans-Serif" font-size="10.00">/travis/calc/unit_test</text>
<text text-anchor="middle" x="862" y="-141.5" font-family="Helvetica,sans-Serif" font-size="10.00">/sqlite_test.cpp</text>
</a>
</g>
</g>
<!-- Node1&#45;&gt;Node10 -->
<g id="edge11" class="edge"><title>Node1&#45;&gt;Node10</title>
<path fill="none" stroke="midnightblue" d="M605.156,-199.776C656.668,-191.113 731.746,-178.052 797,-165 799.721,-164.456 802.503,-163.886 805.311,-163.301"/>
<polygon fill="midnightblue" stroke="midnightblue" points="604.461,-196.343 595.178,-201.448 605.619,-203.247 604.461,-196.343"/>
</g>
<!-- Node11 -->
<g id="node11" class="node"><title>Node11</title>
<g id="a_node11"><a xlink:href="wavefunction__test_8cpp.html" target="_top" xlink:title="/travis/calc/unit_test\l/wavefunction_test.cpp">
<polygon fill="none" stroke="black" points="937,-134.5 937,-164.5 1063,-164.5 1063,-134.5 937,-134.5"/>
<text text-anchor="start" x="945" y="-152.5" font-family="Helvetica,sans-Serif" font-size="10.00">/travis/calc/unit_test</text>
<text text-anchor="middle" x="1000" y="-141.5" font-family="Helvetica,sans-Serif" font-size="10.00">/wavefunction_test.cpp</text>
</a>
</g>
</g>
<!-- Node1&#45;&gt;Node11 -->
<g id="edge12" class="edge"><title>Node1&#45;&gt;Node11</title>
<path fill="none" stroke="midnightblue" d="M608.678,-203.986C685.495,-196.568 816.371,-182.733 928,-165 930.896,-164.54 933.854,-164.045 936.837,-163.526"/>
<polygon fill="midnightblue" stroke="midnightblue" points="608.285,-200.507 598.665,-204.946 608.953,-207.476 608.285,-200.507"/>
</g>
<!-- Node3 -->
<g id="node3" class="node"><title>Node3</title>
<g id="a_node3"><a xlink:href="HamiltonianOne_8cpp.html" target="_top" xlink:title="/travis/calc/Hamiltonian\lOne.cpp">
<polygon fill="none" stroke="black" points="0,-67.5 0,-97.5 128,-97.5 128,-67.5 0,-67.5"/>
<text text-anchor="start" x="8" y="-85.5" font-family="Helvetica,sans-Serif" font-size="10.00">/travis/calc/Hamiltonian</text>
<text text-anchor="middle" x="64" y="-74.5" font-family="Helvetica,sans-Serif" font-size="10.00">One.cpp</text>
</a>
</g>
</g>
<!-- Node2&#45;&gt;Node3 -->
<g id="edge2" class="edge"><title>Node2&#45;&gt;Node3</title>
<path fill="none" stroke="midnightblue" d="M127.623,-128.451C113.47,-118.452 96.6947,-106.6 83.9237,-97.5765"/>
<polygon fill="midnightblue" stroke="midnightblue" points="125.851,-131.484 136.037,-134.396 129.89,-125.767 125.851,-131.484"/>
</g>
<!-- Node2&#45;&gt;Node4 -->
<g id="edge3" class="edge"><title>Node2&#45;&gt;Node4</title>
<path fill="none" stroke="midnightblue" d="M184.377,-128.451C198.53,-118.452 215.305,-106.6 228.076,-97.5765"/>
<polygon fill="midnightblue" stroke="midnightblue" points="182.11,-125.767 175.963,-134.396 186.149,-131.484 182.11,-125.767"/>
</g>
<!-- Node6 -->
<g id="node6" class="node"><title>Node6</title>
<g id="a_node6"><a xlink:href="main_8cpp.html" target="_top" xlink:title="/travis/calc/main.cpp">
<polygon fill="none" stroke="black" points="98.5,-6 98.5,-25 213.5,-25 213.5,-6 98.5,-6"/>
<text text-anchor="middle" x="156" y="-13" font-family="Helvetica,sans-Serif" font-size="10.00">/travis/calc/main.cpp</text>
</a>
</g>
</g>
<!-- Node2&#45;&gt;Node6 -->
<g id="edge6" class="edge"><title>Node2&#45;&gt;Node6</title>
<path fill="none" stroke="midnightblue" d="M156,-124.317C156,-94.3757 156,-44.9109 156,-25.0973"/>
<polygon fill="midnightblue" stroke="midnightblue" points="152.5,-124.374 156,-134.374 159.5,-124.374 152.5,-124.374"/>
</g>
<!-- Node5 -->
<g id="node5" class="node"><title>Node5</title>
<g id="a_node5"><a xlink:href="HamiltonianTwo_8cpp.html" target="_top" xlink:title="/travis/calc/Hamiltonian\lTwo.cpp">
<polygon fill="none" stroke="black" points="232,-0.5 232,-30.5 360,-30.5 360,-0.5 232,-0.5"/>
<text text-anchor="start" x="240" y="-18.5" font-family="Helvetica,sans-Serif" font-size="10.00">/travis/calc/Hamiltonian</text>
<text text-anchor="middle" x="296" y="-7.5" font-family="Helvetica,sans-Serif" font-size="10.00">Two.cpp</text>
</a>
</g>
</g>
<!-- Node4&#45;&gt;Node5 -->
<g id="edge4" class="edge"><title>Node4&#45;&gt;Node5</title>
<path fill="none" stroke="midnightblue" d="M264.499,-59.1575C271.499,-49.6788 279.445,-38.9186 285.605,-30.5765"/>
<polygon fill="midnightblue" stroke="midnightblue" points="261.54,-57.2725 258.415,-67.396 267.171,-61.4308 261.54,-57.2725"/>
</g>
<!-- Node4&#45;&gt;Node6 -->
<g id="edge5" class="edge"><title>Node4&#45;&gt;Node6</title>
<path fill="none" stroke="midnightblue" d="M219.417,-61.3056C202.141,-49.0999 181.02,-34.1772 168.041,-25.007"/>
<polygon fill="midnightblue" stroke="midnightblue" points="217.851,-64.4841 228.037,-67.396 221.89,-58.7671 217.851,-64.4841"/>
</g>
</g>
</svg>
        <g id="navigator" transform="translate(0 0)" fill="#404254">
                <rect fill="#f2f5e9" fill-opacity="0.5" stroke="#606060" stroke-width=".5" x="0" y="0" width="60" height="60"/>
                <use id="zoomplus" xlink:href="#zoomPlus" x="17" y="9" onmousedown="handleZoom(evt,'in')"/>
                <use id="zoomminus" xlink:href="#zoomMin" x="42" y="9" onmousedown="handleZoom(evt,'out')"/>
                <use id="reset" xlink:href="#resetDef" x="30" y="36" onmousedown="handleReset()"/>
                <g id="arrowUp" xlink:href="#dirArrow" transform="translate(30 24)" onmousedown="handlePan(0,-1)">
                  <use xlink:href="#rim" fill="#404040">
                        <set attributeName="fill" to="#808080" begin="arrowUp.mouseover" end="arrowUp.mouseout"/>
                  </use>
                  <path fill="none" stroke="white" stroke-width="1.5" d="M0,-3.0v7 M-2.5,-0.5L0,-3.0L2.5,-0.5"/>
                </g>
                <g id="arrowRight" xlink:href="#dirArrow" transform="rotate(90) translate(36 -43)" onmousedown="handlePan(1,0)">
                  <use xlink:href="#rim" fill="#404040">
                        <set attributeName="fill" to="#808080" begin="arrowRight.mouseover" end="arrowRight.mouseout"/>
                  </use>
                  <path fill="none" stroke="white" stroke-width="1.5" d="M0,-3.0v7 M-2.5,-0.5L0,-3.0L2.5,-0.5"/>
                </g>
                <g id="arrowDown" xlink:href="#dirArrow" transform="rotate(180) translate(-30 -48)" onmousedown="handlePan(0,1)">
                  <use xlink:href="#rim" fill="#404040">
                        <set attributeName="fill" to="#808080" begin="arrowDown.mouseover" end="arrowDown.mouseout"/>
                  </use>
                  <path fill="none" stroke="white" stroke-width="1.5" d="M0,-3.0v7 M-2.5,-0.5L0,-3.0L2.5,-0.5"/>
                </g>
                <g id="arrowLeft" xlink:href="#dirArrow" transform="rotate(270) translate(-36 17)" onmousedown="handlePan(-1,0)">
                  <use xlink:href="#rim" fill="#404040">
                        <set attributeName="fill" to="#808080" begin="arrowLeft.mouseover" end="arrowLeft.mouseout"/>
                  </use>
                  <path fill="none" stroke="white" stroke-width="1.5" d="M0,-3.0v7 M-2.5,-0.5L0,-3.0L2.5,-0.5"/>
                </g>
        </g>
        <svg viewBox="0 0 15 15" width="100%" height="30px" preserveAspectRatio="xMaxYMin meet">
         <g id="arrow_out" transform="scale(0.3 0.3)">
          <a xlink:href="SQLite_8h__dep__incl_org.svg" target="_base">
           <rect id="button" ry="5" rx="5" y="6" x="6" height="38" width="38"
                fill="#f2f5e9" fill-opacity="0.5" stroke="#606060" stroke-width="1.0"/>
           <path id="arrow"
             d="M 11.500037,31.436501 C 11.940474,20.09759 22.043105,11.32322 32.158766,21.979434 L 37.068811,17.246167 C 37.068811,17.246167 37.088388,32 37.088388,32 L 22.160133,31.978069 C 22.160133,31.978069 26.997745,27.140456 26.997745,27.140456 C 18.528582,18.264221 13.291696,25.230495 11.500037,31.436501 z"
             style="fill:#404040;"/>
          </a>
         </g>
        </svg>
</svg>
