<?xml version="1.0" encoding="UTF-8" standalone="no"?>
<!DOCTYPE svg PUBLIC "-//W3C//DTD SVG 1.1//EN"
 "http://www.w3.org/Graphics/SVG/1.1/DTD/svg11.dtd">
<!-- Generated by graphviz version 2.38.0 (20140413.2041)
 -->
<!-- Title: dump_table_for_subset Pages: 1 -->
<svg width="414pt" height="28pt"
 viewBox="0.00 0.00 414.00 28.00" xmlns="http://www.w3.org/2000/svg" xmlns:xlink="http://www.w3.org/1999/xlink">
<g id="graph0" class="graph" transform="scale(1 1) rotate(0) translate(4 24)">
<title>dump_table_for_subset</title>
<!-- Node9 -->
<g id="node1" class="node"><title>Node9</title>
<polygon fill="#bfbfbf" stroke="black" points="0,-0.5 0,-19.5 129,-19.5 129,-0.5 0,-0.5"/>
<text text-anchor="middle" x="64.5" y="-7.5" font-family="Helvetica,sans-Serif" font-size="10.00">dump_table_for_subset</text>
</g>
<!-- Node10 -->
<g id="node2" class="node"><title>Node10</title>
<g id="a_node2"><a xlink:href="analyze-blocking-sizes_8cpp.html#ab7c534592b27494e4cdd1ac357ce0481" target="_top" xlink:title="print_partition">
<polygon fill="none" stroke="black" points="165,-0.5 165,-19.5 248,-19.5 248,-0.5 165,-0.5"/>
<text text-anchor="middle" x="206.5" y="-7.5" font-family="Helvetica,sans-Serif" font-size="10.00">print_partition</text>
</a>
</g>
</g>
<!-- Node9&#45;&gt;Node10 -->
<g id="edge1" class="edge"><title>Node9&#45;&gt;Node10</title>
<path fill="none" stroke="midnightblue" d="M139.603,-10C148.328,-10 156.967,-10 164.977,-10"/>
<polygon fill="midnightblue" stroke="midnightblue" points="139.355,-6.5001 129.355,-10 139.355,-13.5001 139.355,-6.5001"/>
</g>
<!-- Node11 -->
<g id="node3" class="node"><title>Node11</title>
<g id="a_node3"><a xlink:href="structpartition__action__t.html#a92678937e9eff8b5843e294ced4c29d8" target="_top" xlink:title="partition_action_t::run">
<polygon fill="none" stroke="black" points="284,-0.5 284,-19.5 406,-19.5 406,-0.5 284,-0.5"/>
<text text-anchor="middle" x="345" y="-7.5" font-family="Helvetica,sans-Serif" font-size="10.00">partition_action_t::run</text>
</a>
</g>
</g>
<!-- Node10&#45;&gt;Node11 -->
<g id="edge2" class="edge"><title>Node10&#45;&gt;Node11</title>
<path fill="none" stroke="midnightblue" d="M258.095,-10C266.487,-10 275.262,-10 283.863,-10"/>
<polygon fill="midnightblue" stroke="midnightblue" points="258.085,-6.5001 248.085,-10 258.085,-13.5001 258.085,-6.5001"/>
</g>
</g>
</svg>
