<?xml version="1.0" encoding="UTF-8" standalone="no"?>
<!DOCTYPE svg PUBLIC "-//W3C//DTD SVG 1.1//EN"
 "http://www.w3.org/Graphics/SVG/1.1/DTD/svg11.dtd">
<!-- Generated by graphviz version 2.38.0 (20140413.2041)
 -->
<!-- Title: lgamma Pages: 1 -->
<svg width="404pt" height="193pt"
 viewBox="0.00 0.00 404.00 192.50" xmlns="http://www.w3.org/2000/svg" xmlns:xlink="http://www.w3.org/1999/xlink">
<g id="graph0" class="graph" transform="scale(1 1) rotate(0) translate(4 188.5)">
<title>lgamma</title>
<!-- Node742 -->
<g id="node1" class="node"><title>Node742</title>
<polygon fill="#bfbfbf" stroke="black" points="0,-96 0,-115 56,-115 56,-96 0,-96"/>
<text text-anchor="middle" x="28" y="-103" font-family="Helvetica,sans-Serif" font-size="10.00">lgamma</text>
</g>
<!-- Node743 -->
<g id="node2" class="node"><title>Node743</title>
<g id="a_node2"><a xlink:href="special__functions_8cpp.html#a0c1b93c71125726e808123ed31b92f31" target="_top" xlink:title="array_special_functions">
<polygon fill="none" stroke="black" points="96.5,-165 96.5,-184 224.5,-184 224.5,-165 96.5,-165"/>
<text text-anchor="middle" x="160.5" y="-172" font-family="Helvetica,sans-Serif" font-size="10.00">array_special_functions</text>
</a>
</g>
</g>
<!-- Node742&#45;&gt;Node743 -->
<g id="edge1" class="edge"><title>Node742&#45;&gt;Node743</title>
<path fill="none" stroke="midnightblue" d="M46.2731,-122.342C58.2449,-133.184 75.0292,-146.823 92,-155.5 99.3709,-159.269 107.589,-162.376 115.683,-164.907"/>
<polygon fill="midnightblue" stroke="midnightblue" points="48.5095,-119.641 38.8107,-115.377 43.7335,-124.759 48.5095,-119.641"/>
</g>
<!-- Node744 -->
<g id="node3" class="node"><title>Node744</title>
<g id="a_node3"><a xlink:href="namespaceEigen_1_1numext.html#a283650fc81eb3731b16badac629560e0" target="_top" xlink:title="Eigen::numext::EIGEN\l_MATHFUNC_RETVAL">
<polygon fill="none" stroke="black" points="100,-115.5 100,-145.5 221,-145.5 221,-115.5 100,-115.5"/>
<text text-anchor="start" x="108" y="-133.5" font-family="Helvetica,sans-Serif" font-size="10.00">Eigen::numext::EIGEN</text>
<text text-anchor="middle" x="160.5" y="-122.5" font-family="Helvetica,sans-Serif" font-size="10.00">_MATHFUNC_RETVAL</text>
</a>
</g>
</g>
<!-- Node742&#45;&gt;Node744 -->
<g id="edge2" class="edge"><title>Node742&#45;&gt;Node744</title>
<path fill="none" stroke="midnightblue" d="M66.1257,-112.612C76.6692,-114.632 88.4243,-116.884 99.9411,-119.09"/>
<polygon fill="midnightblue" stroke="midnightblue" points="66.5196,-109.124 56.0397,-110.68 65.2025,-115.999 66.5196,-109.124"/>
</g>
<!-- Node745 -->
<g id="node4" class="node"><title>Node745</title>
<g id="a_node4"><a xlink:href="structEigen_1_1internal_1_1scalar__lgamma__op.html#a2a6349c1f1cba6c7bb47ee597d54e922" target="_top" xlink:title="Eigen::internal::scalar\l_lgamma_op::operator()">
<polygon fill="none" stroke="black" points="93.5,-66.5 93.5,-96.5 227.5,-96.5 227.5,-66.5 93.5,-66.5"/>
<text text-anchor="start" x="101.5" y="-84.5" font-family="Helvetica,sans-Serif" font-size="10.00">Eigen::internal::scalar</text>
<text text-anchor="middle" x="160.5" y="-73.5" font-family="Helvetica,sans-Serif" font-size="10.00">_lgamma_op::operator()</text>
</a>
</g>
</g>
<!-- Node742&#45;&gt;Node745 -->
<g id="edge3" class="edge"><title>Node742&#45;&gt;Node745</title>
<path fill="none" stroke="midnightblue" d="M66.0621,-98.684C74.6498,-97.1046 84.0439,-95.377 93.46,-93.6453"/>
<polygon fill="midnightblue" stroke="midnightblue" points="65.2417,-95.2761 56.0397,-100.527 66.5078,-102.161 65.2417,-95.2761"/>
</g>
<!-- Node746 -->
<g id="node5" class="node"><title>Node746</title>
<g id="a_node5"><a xlink:href="namespaceEigen_1_1internal.html#a8d0df69be42787700e73a6ca8a5d4176" target="_top" xlink:title="Eigen::internal::plgamma">
<polygon fill="none" stroke="black" points="92,-28 92,-47 229,-47 229,-28 92,-28"/>
<text text-anchor="middle" x="160.5" y="-35" font-family="Helvetica,sans-Serif" font-size="10.00">Eigen::internal::plgamma</text>
</a>
</g>
</g>
<!-- Node742&#45;&gt;Node746 -->
<g id="edge4" class="edge"><title>Node742&#45;&gt;Node746</title>
<path fill="none" stroke="midnightblue" d="M46.8574,-89.0678C58.8624,-78.7649 75.4615,-65.892 92,-57.5 100.284,-53.2967 109.598,-49.8265 118.601,-47.0244"/>
<polygon fill="midnightblue" stroke="midnightblue" points="44.5199,-86.4625 39.3373,-95.7032 49.1514,-91.7113 44.5199,-86.4625"/>
</g>
<!-- Node747 -->
<g id="node6" class="node"><title>Node747</title>
<g id="a_node6"><a xlink:href="packetmath_8cpp.html#a7c0ce4bbe63ec2b07141fdd2dccde27e" target="_top" xlink:title="packetmath_real">
<polygon fill="none" stroke="black" points="281.5,-50 281.5,-69 379.5,-69 379.5,-50 281.5,-50"/>
<text text-anchor="middle" x="330.5" y="-57" font-family="Helvetica,sans-Serif" font-size="10.00">packetmath_real</text>
</a>
</g>
</g>
<!-- Node746&#45;&gt;Node747 -->
<g id="edge5" class="edge"><title>Node746&#45;&gt;Node747</title>
<path fill="none" stroke="midnightblue" d="M239.626,-47.7308C253.828,-49.5906 268.255,-51.4798 281.273,-53.1845"/>
<polygon fill="midnightblue" stroke="midnightblue" points="239.718,-44.213 229.348,-46.3848 238.809,-51.1537 239.718,-44.213"/>
</g>
<!-- Node748 -->
<g id="node7" class="node"><title>Node748</title>
<g id="a_node7"><a xlink:href="structEigen_1_1internal_1_1scalar__lgamma__op.html#af8d58cbd387f04a1f8f902878b64ff9e" target="_top" xlink:title="Eigen::internal::scalar\l_lgamma_op::packetOp">
<polygon fill="none" stroke="black" points="265,-0.5 265,-30.5 396,-30.5 396,-0.5 265,-0.5"/>
<text text-anchor="start" x="273" y="-18.5" font-family="Helvetica,sans-Serif" font-size="10.00">Eigen::internal::scalar</text>
<text text-anchor="middle" x="330.5" y="-7.5" font-family="Helvetica,sans-Serif" font-size="10.00">_lgamma_op::packetOp</text>
</a>
</g>
</g>
<!-- Node746&#45;&gt;Node748 -->
<g id="edge6" class="edge"><title>Node746&#45;&gt;Node748</title>
<path fill="none" stroke="midnightblue" d="M239.342,-27.3064C247.908,-26.1847 256.56,-25.0517 264.938,-23.9545"/>
<polygon fill="midnightblue" stroke="midnightblue" points="238.809,-23.8463 229.348,-28.6152 239.718,-30.787 238.809,-23.8463"/>
</g>
</g>
</svg>
