<?xml version="1.0" encoding="UTF-8" standalone="no"?>
<!DOCTYPE svg PUBLIC "-//W3C//DTD SVG 1.1//EN"
 "http://www.w3.org/Graphics/SVG/1.1/DTD/svg11.dtd">
<!-- Generated by graphviz version 2.38.0 (20140413.2041)
 -->
<!-- Title: cwise_min_max Pages: 1 -->
<svg width="198pt" height="66pt"
 viewBox="0.00 0.00 198.00 66.00" xmlns="http://www.w3.org/2000/svg" xmlns:xlink="http://www.w3.org/1999/xlink">
<g id="graph0" class="graph" transform="scale(1 1) rotate(0) translate(4 62)">
<title>cwise_min_max</title>
<!-- Node9 -->
<g id="node1" class="node"><title>Node9</title>
<polygon fill="#bfbfbf" stroke="black" points="0,-19.5 0,-38.5 92,-38.5 92,-19.5 0,-19.5"/>
<text text-anchor="middle" x="46" y="-26.5" font-family="Helvetica,sans-Serif" font-size="10.00">cwise_min_max</text>
</g>
<!-- Node10 -->
<g id="node2" class="node"><title>Node10</title>
<g id="a_node2"><a xlink:href="MatrixCwiseBinaryOps_8h.html#abc34a215ef61c3b3f33615d6e28c1478" target="_top" xlink:title="cwiseMax">
<polygon fill="none" stroke="black" points="128,-38.5 128,-57.5 190,-57.5 190,-38.5 128,-38.5"/>
<text text-anchor="middle" x="159" y="-45.5" font-family="Helvetica,sans-Serif" font-size="10.00">cwiseMax</text>
</a>
</g>
</g>
<!-- Node9&#45;&gt;Node10 -->
<g id="edge1" class="edge"><title>Node9&#45;&gt;Node10</title>
<path fill="none" stroke="midnightblue" d="M92.1479,-36.728C100.682,-38.1889 109.555,-39.7076 117.92,-41.1395"/>
<polygon fill="midnightblue" stroke="midnightblue" points="117.368,-44.5958 127.815,-42.8333 118.549,-37.6962 117.368,-44.5958"/>
</g>
<!-- Node11 -->
<g id="node3" class="node"><title>Node11</title>
<g id="a_node3"><a xlink:href="MatrixCwiseBinaryOps_8h.html#a3836fbfdbf1367bf824b90951afc744f" target="_top" xlink:title="cwiseMin">
<polygon fill="none" stroke="black" points="129.5,-0.5 129.5,-19.5 188.5,-19.5 188.5,-0.5 129.5,-0.5"/>
<text text-anchor="middle" x="159" y="-7.5" font-family="Helvetica,sans-Serif" font-size="10.00">cwiseMin</text>
</a>
</g>
</g>
<!-- Node9&#45;&gt;Node11 -->
<g id="edge2" class="edge"><title>Node9&#45;&gt;Node11</title>
<path fill="none" stroke="midnightblue" d="M92.1479,-21.272C101.207,-19.7213 110.648,-18.1052 119.459,-16.5972"/>
<polygon fill="midnightblue" stroke="midnightblue" points="120.185,-20.0239 129.451,-14.8868 119.004,-13.1242 120.185,-20.0239"/>
</g>
</g>
</svg>
