<?xml version="1.0" encoding="UTF-8" standalone="no"?>
<!DOCTYPE svg PUBLIC "-//W3C//DTD SVG 1.1//EN"
 "http://www.w3.org/Graphics/SVG/1.1/DTD/svg11.dtd">
<!-- Generated by graphviz version 2.38.0 (20140413.2041)
 -->
<!-- Title: comparisons Pages: 1 -->
<svg width="169pt" height="104pt"
 viewBox="0.00 0.00 169.00 104.00" xmlns="http://www.w3.org/2000/svg" xmlns:xlink="http://www.w3.org/1999/xlink">
<g id="graph0" class="graph" transform="scale(1 1) rotate(0) translate(4 100)">
<title>comparisons</title>
<!-- Node4 -->
<g id="node1" class="node"><title>Node4</title>
<polygon fill="#bfbfbf" stroke="black" points="0,-38.5 0,-57.5 78,-57.5 78,-38.5 0,-38.5"/>
<text text-anchor="middle" x="39" y="-45.5" font-family="Helvetica,sans-Serif" font-size="10.00">comparisons</text>
</g>
<!-- Node5 -->
<g id="node2" class="node"><title>Node5</title>
<g id="a_node2"><a xlink:href="ArrayCwiseUnaryOps_8h.html#a35560f7dbf19244fda7e463d14157c43" target="_top" xlink:title="abs">
<polygon fill="none" stroke="black" points="120.5,-76.5 120.5,-95.5 154.5,-95.5 154.5,-76.5 120.5,-76.5"/>
<text text-anchor="middle" x="137.5" y="-83.5" font-family="Helvetica,sans-Serif" font-size="10.00">abs</text>
</a>
</g>
</g>
<!-- Node4&#45;&gt;Node5 -->
<g id="edge1" class="edge"><title>Node4&#45;&gt;Node5</title>
<path fill="none" stroke="midnightblue" d="M64.351,-57.589C78.5958,-63.1984 96.5587,-70.2718 110.997,-75.9575"/>
<polygon fill="midnightblue" stroke="midnightblue" points="109.754,-79.2295 120.341,-79.637 112.319,-72.7163 109.754,-79.2295"/>
</g>
<!-- Node6 -->
<g id="node3" class="node"><title>Node6</title>
<g id="a_node3"><a xlink:href="Tutorial__Map__using_8cpp.html#ab3a01b595d22393ace0d30d5fa299f76" target="_top" xlink:title="m2">
<polygon fill="none" stroke="black" points="121.5,-38.5 121.5,-57.5 153.5,-57.5 153.5,-38.5 121.5,-38.5"/>
<text text-anchor="middle" x="137.5" y="-45.5" font-family="Helvetica,sans-Serif" font-size="10.00">m2</text>
</a>
</g>
</g>
<!-- Node4&#45;&gt;Node6 -->
<g id="edge2" class="edge"><title>Node4&#45;&gt;Node6</title>
<path fill="none" stroke="midnightblue" d="M78.1394,-48C89.2817,-48 101.177,-48 111.302,-48"/>
<polygon fill="midnightblue" stroke="midnightblue" points="111.475,-51.5001 121.475,-48 111.475,-44.5001 111.475,-51.5001"/>
</g>
<!-- Node7 -->
<g id="node4" class="node"><title>Node7</title>
<g id="a_node4"><a xlink:href="common_8h.html#a94360d20ee722c1bcb23e5b2fbba8554" target="_top" xlink:title="matrix">
<polygon fill="none" stroke="black" points="114,-0.5 114,-19.5 161,-19.5 161,-0.5 114,-0.5"/>
<text text-anchor="middle" x="137.5" y="-7.5" font-family="Helvetica,sans-Serif" font-size="10.00">matrix</text>
</a>
</g>
</g>
<!-- Node4&#45;&gt;Node7 -->
<g id="edge3" class="edge"><title>Node4&#45;&gt;Node7</title>
<path fill="none" stroke="midnightblue" d="M64.351,-38.411C76.4532,-33.6454 91.239,-27.823 104.267,-22.6927"/>
<polygon fill="midnightblue" stroke="midnightblue" points="105.792,-25.854 113.814,-18.9333 103.227,-19.3408 105.792,-25.854"/>
</g>
</g>
</svg>
