<?xml version="1.0" encoding="UTF-8" standalone="no"?>
<!DOCTYPE svg PUBLIC "-//W3C//DTD SVG 1.1//EN"
 "http://www.w3.org/Graphics/SVG/1.1/DTD/svg11.dtd">
<!-- Generated by graphviz version 2.38.0 (20140413.2041)
 -->
<!-- Title: log1p Pages: 1 -->
<svg width="416pt" height="209pt"
 viewBox="0.00 0.00 416.00 208.50" xmlns="http://www.w3.org/2000/svg" xmlns:xlink="http://www.w3.org/1999/xlink">
<g id="graph0" class="graph" transform="scale(1 1) rotate(0) translate(4 204.5)">
<title>log1p</title>
<!-- Node783 -->
<g id="node1" class="node"><title>Node783</title>
<polygon fill="#bfbfbf" stroke="black" points="0,-99 0,-118 43,-118 43,-99 0,-99"/>
<text text-anchor="middle" x="21.5" y="-106" font-family="Helvetica,sans-Serif" font-size="10.00">log1p</text>
</g>
<!-- Node784 -->
<g id="node2" class="node"><title>Node784</title>
<g id="a_node2"><a xlink:href="array_8cpp.html#a12b21dad85caad3597039ebc71399d96" target="_top" xlink:title="array_real">
<polygon fill="none" stroke="black" points="108.5,-181 108.5,-200 173.5,-200 173.5,-181 108.5,-181"/>
<text text-anchor="middle" x="141" y="-188" font-family="Helvetica,sans-Serif" font-size="10.00">array_real</text>
</a>
</g>
</g>
<!-- Node783&#45;&gt;Node784 -->
<g id="edge1" class="edge"><title>Node783&#45;&gt;Node784</title>
<path fill="none" stroke="midnightblue" d="M34.4855,-126.503C44.7532,-140.62 60.7464,-159.778 79,-171.5 87.8667,-177.194 98.553,-181.278 108.487,-184.164"/>
<polygon fill="midnightblue" stroke="midnightblue" points="37.1971,-124.273 28.5987,-118.083 31.4601,-128.284 37.1971,-124.273"/>
</g>
<!-- Node785 -->
<g id="node3" class="node"><title>Node785</title>
<g id="a_node3"><a xlink:href="namespaceEigen_1_1half__impl.html#a30bfe2844b2a7a825f78af03e2338a00" target="_top" xlink:title="Eigen::half_impl::log1p">
<polygon fill="none" stroke="black" points="79,-143 79,-162 203,-162 203,-143 79,-143"/>
<text text-anchor="middle" x="141" y="-150" font-family="Helvetica,sans-Serif" font-size="10.00">Eigen::half_impl::log1p</text>
</a>
</g>
</g>
<!-- Node783&#45;&gt;Node785 -->
<g id="edge2" class="edge"><title>Node783&#45;&gt;Node785</title>
<path fill="none" stroke="midnightblue" d="M51.9571,-122.298C60.5883,-126.132 70.0991,-130.157 79,-133.5 87.9302,-136.854 97.7445,-140.099 106.841,-142.929"/>
<polygon fill="midnightblue" stroke="midnightblue" points="53.2192,-119.027 42.6653,-118.096 50.3352,-125.406 53.2192,-119.027"/>
</g>
<!-- Node786 -->
<g id="node4" class="node"><title>Node786</title>
<g id="a_node4"><a xlink:href="namespaceEigen_1_1internal.html#a1cb8d312c017f94570a52317fd1ece5f" target="_top" xlink:title="Compute logarithm of 2x2 triangular matrix. ">
<polygon fill="none" stroke="black" points="80,-93.5 80,-123.5 202,-123.5 202,-93.5 80,-93.5"/>
<text text-anchor="start" x="88" y="-111.5" font-family="Helvetica,sans-Serif" font-size="10.00">Eigen::internal::matrix</text>
<text text-anchor="middle" x="141" y="-100.5" font-family="Helvetica,sans-Serif" font-size="10.00">_log_compute_2x2</text>
</a>
</g>
</g>
<!-- Node783&#45;&gt;Node786 -->
<g id="edge3" class="edge"><title>Node783&#45;&gt;Node786</title>
<path fill="none" stroke="midnightblue" d="M53.3828,-108.5C61.5703,-108.5 70.6976,-108.5 79.8698,-108.5"/>
<polygon fill="midnightblue" stroke="midnightblue" points="53.2362,-105 43.2362,-108.5 53.2361,-112 53.2362,-105"/>
</g>
<!-- Node788 -->
<g id="node6" class="node"><title>Node788</title>
<g id="a_node6"><a xlink:href="structEigen_1_1internal_1_1scalar__log1p__op.html#a0ff14b196b88f85b2e5174940dcb3897" target="_top" xlink:title="Eigen::internal::scalar\l_log1p_op::operator()">
<polygon fill="none" stroke="black" points="81,-44.5 81,-74.5 201,-74.5 201,-44.5 81,-44.5"/>
<text text-anchor="start" x="89" y="-62.5" font-family="Helvetica,sans-Serif" font-size="10.00">Eigen::internal::scalar</text>
<text text-anchor="middle" x="141" y="-51.5" font-family="Helvetica,sans-Serif" font-size="10.00">_log1p_op::operator()</text>
</a>
</g>
</g>
<!-- Node783&#45;&gt;Node788 -->
<g id="edge5" class="edge"><title>Node783&#45;&gt;Node788</title>
<path fill="none" stroke="midnightblue" d="M52.404,-95.7137C60.9822,-92.0685 70.3534,-88.1081 79,-84.5 86.7106,-81.2825 94.9839,-77.8671 102.872,-74.6283"/>
<polygon fill="midnightblue" stroke="midnightblue" points="50.9661,-92.5218 43.1366,-99.6596 53.7084,-98.9622 50.9661,-92.5218"/>
</g>
<!-- Node789 -->
<g id="node7" class="node"><title>Node789</title>
<g id="a_node7"><a xlink:href="namespaceEigen_1_1internal.html#aa02c3fd162bc2e5fb066a04e698c1b64" target="_top" xlink:title="Eigen::internal::plog1p">
<polygon fill="none" stroke="black" points="79.5,-6 79.5,-25 202.5,-25 202.5,-6 79.5,-6"/>
<text text-anchor="middle" x="141" y="-13" font-family="Helvetica,sans-Serif" font-size="10.00">Eigen::internal::plog1p</text>
</a>
</g>
</g>
<!-- Node783&#45;&gt;Node789 -->
<g id="edge6" class="edge"><title>Node783&#45;&gt;Node789</title>
<path fill="none" stroke="midnightblue" d="M32.266,-89.8958C41.9852,-73.1089 58.4052,-48.9041 79,-34.5 84.5446,-30.6221 90.9103,-27.5134 97.391,-25.0276"/>
<polygon fill="midnightblue" stroke="midnightblue" points="29.1218,-88.3489 27.3368,-98.7923 35.2448,-91.7414 29.1218,-88.3489"/>
</g>
<!-- Node787 -->
<g id="node5" class="node"><title>Node787</title>
<g id="a_node5"><a xlink:href="classEigen_1_1internal_1_1MatrixLogarithmAtomic.html#a14d76ac8fb2bc662a9560a76f7df4fe7" target="_top" xlink:title="Compute matrix logarithm of atomic matrix. ">
<polygon fill="none" stroke="black" points="239,-93.5 239,-123.5 408,-123.5 408,-93.5 239,-93.5"/>
<text text-anchor="start" x="247" y="-111.5" font-family="Helvetica,sans-Serif" font-size="10.00">Eigen::internal::MatrixLogarithm</text>
<text text-anchor="middle" x="323.5" y="-100.5" font-family="Helvetica,sans-Serif" font-size="10.00">Atomic::compute</text>
</a>
</g>
</g>
<!-- Node786&#45;&gt;Node787 -->
<g id="edge4" class="edge"><title>Node786&#45;&gt;Node787</title>
<path fill="none" stroke="midnightblue" d="M212.218,-108.5C220.955,-108.5 229.955,-108.5 238.869,-108.5"/>
<polygon fill="midnightblue" stroke="midnightblue" points="212.104,-105 202.104,-108.5 212.104,-112 212.104,-105"/>
</g>
<!-- Node790 -->
<g id="node8" class="node"><title>Node790</title>
<g id="a_node8"><a xlink:href="structEigen_1_1internal_1_1scalar__log1p__op.html#a9802c0a7a3a1a5572c26ab99d0e35752" target="_top" xlink:title="Eigen::internal::scalar\l_log1p_op::packetOp">
<polygon fill="none" stroke="black" points="264,-0.5 264,-30.5 383,-30.5 383,-0.5 264,-0.5"/>
<text text-anchor="start" x="272" y="-18.5" font-family="Helvetica,sans-Serif" font-size="10.00">Eigen::internal::scalar</text>
<text text-anchor="middle" x="323.5" y="-7.5" font-family="Helvetica,sans-Serif" font-size="10.00">_log1p_op::packetOp</text>
</a>
</g>
</g>
<!-- Node789&#45;&gt;Node790 -->
<g id="edge7" class="edge"><title>Node789&#45;&gt;Node790</title>
<path fill="none" stroke="midnightblue" d="M212.965,-15.5C229.833,-15.5 247.645,-15.5 263.89,-15.5"/>
<polygon fill="midnightblue" stroke="midnightblue" points="212.606,-12.0001 202.606,-15.5 212.606,-19.0001 212.606,-12.0001"/>
</g>
</g>
</svg>
