<?xml version="1.0" encoding="UTF-8" standalone="no"?>
<!DOCTYPE svg PUBLIC "-//W3C//DTD SVG 1.1//EN"
 "http://www.w3.org/Graphics/SVG/1.1/DTD/svg11.dtd">
<!-- Generated by graphviz version 2.38.0 (20140413.2041)
 -->
<!-- Title: round Pages: 1 -->
<svg width="368pt" height="204pt"
 viewBox="0.00 0.00 368.00 203.50" xmlns="http://www.w3.org/2000/svg" xmlns:xlink="http://www.w3.org/1999/xlink">
<g id="graph0" class="graph" transform="scale(1 1) rotate(0) translate(4 199.5)">
<title>round</title>
<!-- Node794 -->
<g id="node1" class="node"><title>Node794</title>
<polygon fill="#bfbfbf" stroke="black" points="0,-94 0,-113 44,-113 44,-94 0,-94"/>
<text text-anchor="middle" x="22" y="-101" font-family="Helvetica,sans-Serif" font-size="10.00">round</text>
</g>
<!-- Node795 -->
<g id="node2" class="node"><title>Node795</title>
<g id="a_node2"><a xlink:href="array_8cpp.html#a12b21dad85caad3597039ebc71399d96" target="_top" xlink:title="array_real">
<polygon fill="none" stroke="black" points="110,-176 110,-195 175,-195 175,-176 110,-176"/>
<text text-anchor="middle" x="142.5" y="-183" font-family="Helvetica,sans-Serif" font-size="10.00">array_real</text>
</a>
</g>
</g>
<!-- Node794&#45;&gt;Node795 -->
<g id="edge1" class="edge"><title>Node794&#45;&gt;Node795</title>
<path fill="none" stroke="midnightblue" d="M35.1184,-121.511C45.4925,-135.632 61.6349,-154.793 80,-166.5 88.9521,-172.207 99.7293,-176.294 109.744,-179.179"/>
<polygon fill="midnightblue" stroke="midnightblue" points="37.7969,-119.236 29.1688,-113.087 32.0793,-123.275 37.7969,-119.236"/>
</g>
<!-- Node796 -->
<g id="node3" class="node"><title>Node796</title>
<g id="a_node3"><a xlink:href="dense__solvers_8cpp.html#ae66f6b31b5ad750f1fe042a706a4e3d4" target="_top" xlink:title="main">
<polygon fill="none" stroke="black" points="122,-138 122,-157 163,-157 163,-138 122,-138"/>
<text text-anchor="middle" x="142.5" y="-145" font-family="Helvetica,sans-Serif" font-size="10.00">main</text>
</a>
</g>
</g>
<!-- Node794&#45;&gt;Node796 -->
<g id="edge2" class="edge"><title>Node794&#45;&gt;Node796</title>
<path fill="none" stroke="midnightblue" d="M52.7223,-117.298C61.43,-121.132 71.0239,-125.157 80,-128.5 93.8236,-133.648 109.743,-138.538 121.921,-142.069"/>
<polygon fill="midnightblue" stroke="midnightblue" points="53.9046,-113.992 43.3477,-113.097 51.0418,-120.38 53.9046,-113.992"/>
</g>
<!-- Node797 -->
<g id="node4" class="node"><title>Node797</title>
<g id="a_node4"><a xlink:href="structEigen_1_1internal_1_1scalar__round__op.html#abc322471ac5885e0437299ef98617fe1" target="_top" xlink:title="Eigen::internal::scalar\l_round_op::operator()">
<polygon fill="none" stroke="black" points="81.5,-88.5 81.5,-118.5 203.5,-118.5 203.5,-88.5 81.5,-88.5"/>
<text text-anchor="start" x="89.5" y="-106.5" font-family="Helvetica,sans-Serif" font-size="10.00">Eigen::internal::scalar</text>
<text text-anchor="middle" x="142.5" y="-95.5" font-family="Helvetica,sans-Serif" font-size="10.00">_round_op::operator()</text>
</a>
</g>
</g>
<!-- Node794&#45;&gt;Node797 -->
<g id="edge3" class="edge"><title>Node794&#45;&gt;Node797</title>
<path fill="none" stroke="midnightblue" d="M54.2162,-103.5C62.6024,-103.5 71.9623,-103.5 81.3523,-103.5"/>
<polygon fill="midnightblue" stroke="midnightblue" points="54.1855,-100 44.1854,-103.5 54.1854,-107 54.1855,-100"/>
</g>
<!-- Node798 -->
<g id="node5" class="node"><title>Node798</title>
<g id="a_node5"><a xlink:href="packetmath_8cpp.html#a7c0ce4bbe63ec2b07141fdd2dccde27e" target="_top" xlink:title="packetmath_real">
<polygon fill="none" stroke="black" points="251.5,-50 251.5,-69 349.5,-69 349.5,-50 251.5,-50"/>
<text text-anchor="middle" x="300.5" y="-57" font-family="Helvetica,sans-Serif" font-size="10.00">packetmath_real</text>
</a>
</g>
</g>
<!-- Node794&#45;&gt;Node798 -->
<g id="edge4" class="edge"><title>Node794&#45;&gt;Node798</title>
<path fill="none" stroke="midnightblue" d="M50.8243,-89.7687C59.9214,-85.8305 70.2076,-81.9451 80,-79.5 137.73,-65.0849 206.314,-60.8027 251.266,-59.6621"/>
<polygon fill="midnightblue" stroke="midnightblue" points="49.1612,-86.6797 41.4993,-93.9972 52.0521,-93.0549 49.1612,-86.6797"/>
</g>
<!-- Node799 -->
<g id="node6" class="node"><title>Node799</title>
<g id="a_node6"><a xlink:href="namespaceEigen_1_1internal.html#a7de6486f124ebaea988c6e6eb5629c31" target="_top" xlink:title="Eigen::internal::pround">
<polygon fill="none" stroke="black" points="80,-12 80,-31 205,-31 205,-12 80,-12"/>
<text text-anchor="middle" x="142.5" y="-19" font-family="Helvetica,sans-Serif" font-size="10.00">Eigen::internal::pround</text>
</a>
</g>
</g>
<!-- Node794&#45;&gt;Node799 -->
<g id="edge5" class="edge"><title>Node794&#45;&gt;Node799</title>
<path fill="none" stroke="midnightblue" d="M37.0281,-85.6386C47.6958,-73.0299 63.3384,-56.4897 80,-45.5 88.9935,-39.5681 99.6742,-34.7566 109.591,-31.0424"/>
<polygon fill="midnightblue" stroke="midnightblue" points="34.1166,-83.6696 30.4862,-93.623 39.5313,-88.106 34.1166,-83.6696"/>
</g>
<!-- Node799&#45;&gt;Node798 -->
<g id="edge7" class="edge"><title>Node799&#45;&gt;Node798</title>
<path fill="none" stroke="midnightblue" d="M192.632,-33.468C214.493,-38.7931 239.876,-44.9762 260.418,-49.9799"/>
<polygon fill="midnightblue" stroke="midnightblue" points="193.41,-30.0552 182.865,-31.089 191.753,-36.8563 193.41,-30.0552"/>
</g>
<!-- Node800 -->
<g id="node7" class="node"><title>Node800</title>
<g id="a_node7"><a xlink:href="structEigen_1_1internal_1_1scalar__round__op.html#a17a779a104a90ed7970d7abb38f2050b" target="_top" xlink:title="Eigen::internal::scalar\l_round_op::packetOp">
<polygon fill="none" stroke="black" points="241,-0.5 241,-30.5 360,-30.5 360,-0.5 241,-0.5"/>
<text text-anchor="start" x="249" y="-18.5" font-family="Helvetica,sans-Serif" font-size="10.00">Eigen::internal::scalar</text>
<text text-anchor="middle" x="300.5" y="-7.5" font-family="Helvetica,sans-Serif" font-size="10.00">_round_op::packetOp</text>
</a>
</g>
</g>
<!-- Node799&#45;&gt;Node800 -->
<g id="edge6" class="edge"><title>Node799&#45;&gt;Node800</title>
<path fill="none" stroke="midnightblue" d="M215.17,-18.7435C223.762,-18.413 232.458,-18.0786 240.836,-17.7563"/>
<polygon fill="midnightblue" stroke="midnightblue" points="215.013,-15.2468 205.155,-19.1286 215.282,-22.2416 215.013,-15.2468"/>
</g>
</g>
</svg>
