<?xml version="1.0" encoding="UTF-8" standalone="no"?>
<!DOCTYPE svg PUBLIC "-//W3C//DTD SVG 1.1//EN"
 "http://www.w3.org/Graphics/SVG/1.1/DTD/svg11.dtd">
<!-- Generated by graphviz version 2.38.0 (20140413.2041)
 -->
<!-- Title: reverse Pages: 1 -->
<svg width="597pt" height="554pt"
 viewBox="0.00 0.00 597.00 554.00" xmlns="http://www.w3.org/2000/svg" xmlns:xlink="http://www.w3.org/1999/xlink">
<g id="graph0" class="graph" transform="scale(1 1) rotate(0) translate(4 550)">
<title>reverse</title>
<!-- Node3 -->
<g id="node1" class="node"><title>Node3</title>
<polygon fill="#bfbfbf" stroke="black" points="0,-266.5 0,-285.5 53,-285.5 53,-266.5 0,-266.5"/>
<text text-anchor="middle" x="26.5" y="-273.5" font-family="Helvetica,sans-Serif" font-size="10.00">reverse</text>
</g>
<!-- Node4 -->
<g id="node2" class="node"><title>Node4</title>
<g id="a_node2"><a xlink:href="level1__real__impl_8h.html#af5cdb114a1b1a3f2b2588cc1d82df3de" target="_top" xlink:title="dot">
<polygon fill="none" stroke="black" points="146,-373.5 146,-392.5 178,-392.5 178,-373.5 146,-373.5"/>
<text text-anchor="middle" x="162" y="-380.5" font-family="Helvetica,sans-Serif" font-size="10.00">dot</text>
</a>
</g>
</g>
<!-- Node3&#45;&gt;Node4 -->
<g id="edge1" class="edge"><title>Node3&#45;&gt;Node4</title>
<path fill="none" stroke="midnightblue" d="M44.2964,-292.775C56.3449,-304.503 73.1788,-320.279 89,-333 107.858,-348.163 131.065,-363.778 145.945,-373.435"/>
<polygon fill="midnightblue" stroke="midnightblue" points="46.7126,-290.242 37.1286,-285.726 41.8042,-295.233 46.7126,-290.242"/>
</g>
<!-- Node13 -->
<g id="node11" class="node"><title>Node13</title>
<g id="a_node11"><a xlink:href="level1__cplx__impl_8h.html#a67b6002adfc722fdbc276bc5d94745c6" target="_top" xlink:title="dotcw">
<polygon fill="none" stroke="black" points="140,-304.5 140,-323.5 184,-323.5 184,-304.5 140,-304.5"/>
<text text-anchor="middle" x="162" y="-311.5" font-family="Helvetica,sans-Serif" font-size="10.00">dotcw</text>
</a>
</g>
</g>
<!-- Node3&#45;&gt;Node13 -->
<g id="edge10" class="edge"><title>Node3&#45;&gt;Node13</title>
<path fill="none" stroke="midnightblue" d="M62.8526,-287.198C71.3926,-289.826 80.506,-292.568 89,-295 106.027,-299.875 125.45,-304.973 139.828,-308.66"/>
<polygon fill="midnightblue" stroke="midnightblue" points="63.7503,-283.812 53.1622,-284.189 61.6748,-290.497 63.7503,-283.812"/>
</g>
<!-- Node14 -->
<g id="node12" class="node"><title>Node14</title>
<g id="a_node12"><a xlink:href="level1__cplx__impl_8h.html#a509888e67d8bc5e9988d7e9499f2b42f" target="_top" xlink:title="dotuw">
<polygon fill="none" stroke="black" points="139.5,-266.5 139.5,-285.5 184.5,-285.5 184.5,-266.5 139.5,-266.5"/>
<text text-anchor="middle" x="162" y="-273.5" font-family="Helvetica,sans-Serif" font-size="10.00">dotuw</text>
</a>
</g>
</g>
<!-- Node3&#45;&gt;Node14 -->
<g id="edge11" class="edge"><title>Node3&#45;&gt;Node14</title>
<path fill="none" stroke="midnightblue" d="M63.4775,-276C87.6888,-276 118.815,-276 139.31,-276"/>
<polygon fill="midnightblue" stroke="midnightblue" points="63.2402,-272.5 53.2401,-276 63.2401,-279.5 63.2402,-272.5"/>
</g>
<!-- Node15 -->
<g id="node13" class="node"><title>Node15</title>
<g id="a_node13"><a xlink:href="classEigen_1_1DenseBase.html#adb8045155ea45f7961fc2a5170e1d921" target="_top" xlink:title="Eigen::DenseBase::reverse\lInPlace">
<polygon fill="none" stroke="black" points="89,-217 89,-247 235,-247 235,-217 89,-217"/>
<text text-anchor="start" x="97" y="-235" font-family="Helvetica,sans-Serif" font-size="10.00">Eigen::DenseBase::reverse</text>
<text text-anchor="middle" x="162" y="-224" font-family="Helvetica,sans-Serif" font-size="10.00">InPlace</text>
</a>
</g>
</g>
<!-- Node3&#45;&gt;Node15 -->
<g id="edge12" class="edge"><title>Node3&#45;&gt;Node15</title>
<path fill="none" stroke="midnightblue" d="M62.8062,-264.364C78.9011,-259.059 98.1575,-252.712 115.337,-247.05"/>
<polygon fill="midnightblue" stroke="midnightblue" points="61.642,-261.062 53.2401,-267.516 63.8332,-267.71 61.642,-261.062"/>
</g>
<!-- Node16 -->
<g id="node14" class="node"><title>Node16</title>
<g id="a_node14"><a xlink:href="level1__impl_8h.html#a2b21b715d5c8616e8517a1d18923cc73" target="_top" xlink:title="swap">
<polygon fill="none" stroke="black" points="141.5,-120.5 141.5,-139.5 182.5,-139.5 182.5,-120.5 141.5,-120.5"/>
<text text-anchor="middle" x="162" y="-127.5" font-family="Helvetica,sans-Serif" font-size="10.00">swap</text>
</a>
</g>
</g>
<!-- Node3&#45;&gt;Node16 -->
<g id="edge13" class="edge"><title>Node3&#45;&gt;Node16</title>
<path fill="none" stroke="midnightblue" d="M43.1206,-258.241C55.4828,-244.243 73.2309,-224.273 89,-207 111.211,-182.671 137.784,-154.487 151.603,-139.897"/>
<polygon fill="midnightblue" stroke="midnightblue" points="40.1733,-256.292 36.1852,-266.107 45.4239,-260.921 40.1733,-256.292"/>
</g>
<!-- Node5 -->
<g id="node3" class="node"><title>Node5</title>
<g id="a_node3"><a xlink:href="classEigen_1_1MatrixBase.html#a8a7ee34ce202cac3eeea9cf20c9e4833" target="_top" xlink:title="Eigen::MatrixBase\&lt;\l Solve\&lt; Decomposition,\l RhsType \&gt; \&gt;::isUnitary">
<polygon fill="none" stroke="black" points="280,-504.5 280,-545.5 412,-545.5 412,-504.5 280,-504.5"/>
<text text-anchor="start" x="288" y="-533.5" font-family="Helvetica,sans-Serif" font-size="10.00">Eigen::MatrixBase&lt;</text>
<text text-anchor="start" x="288" y="-522.5" font-family="Helvetica,sans-Serif" font-size="10.00"> Solve&lt; Decomposition,</text>
<text text-anchor="middle" x="346" y="-511.5" font-family="Helvetica,sans-Serif" font-size="10.00"> RhsType &gt; &gt;::isUnitary</text>
</a>
</g>
</g>
<!-- Node4&#45;&gt;Node5 -->
<g id="edge2" class="edge"><title>Node4&#45;&gt;Node5</title>
<path fill="none" stroke="midnightblue" d="M176.116,-400.67C194.827,-424.82 231.336,-468.191 271,-495 276.054,-498.416 281.556,-501.543 287.204,-504.381"/>
<polygon fill="midnightblue" stroke="midnightblue" points="178.897,-398.545 170.055,-392.708 173.327,-402.785 178.897,-398.545"/>
</g>
<!-- Node6 -->
<g id="node4" class="node"><title>Node6</title>
<g id="a_node4"><a xlink:href="exceptions_8cpp.html#afc4d79580ee20900d9d3390041525349" target="_top" xlink:title="memoryleak">
<polygon fill="none" stroke="black" points="307.5,-466.5 307.5,-485.5 384.5,-485.5 384.5,-466.5 307.5,-466.5"/>
<text text-anchor="middle" x="346" y="-473.5" font-family="Helvetica,sans-Serif" font-size="10.00">memoryleak</text>
</a>
</g>
</g>
<!-- Node4&#45;&gt;Node6 -->
<g id="edge3" class="edge"><title>Node4&#45;&gt;Node6</title>
<path fill="none" stroke="midnightblue" d="M182.142,-399.218C202.81,-415.955 237.315,-441.713 271,-457 282.354,-462.152 295.347,-466.083 307.244,-468.994"/>
<polygon fill="midnightblue" stroke="midnightblue" points="184.117,-396.311 174.174,-392.654 179.667,-401.714 184.117,-396.311"/>
</g>
<!-- Node8 -->
<g id="node6" class="node"><title>Node8</title>
<g id="a_node6"><a xlink:href="structadjoint__specific_3_01true_01_4.html#a597e51854bab5593ae98b56718ac1b84" target="_top" xlink:title="adjoint_specific\&lt; true\l \&gt;::run">
<polygon fill="none" stroke="black" points="286,-417 286,-447 406,-447 406,-417 286,-417"/>
<text text-anchor="start" x="294" y="-435" font-family="Helvetica,sans-Serif" font-size="10.00">adjoint_specific&lt; true</text>
<text text-anchor="middle" x="346" y="-424" font-family="Helvetica,sans-Serif" font-size="10.00"> &gt;::run</text>
</a>
</g>
</g>
<!-- Node4&#45;&gt;Node8 -->
<g id="edge5" class="edge"><title>Node4&#45;&gt;Node8</title>
<path fill="none" stroke="midnightblue" d="M187.993,-389.729C213.96,-396.72 255.449,-407.89 289.257,-416.992"/>
<polygon fill="midnightblue" stroke="midnightblue" points="188.77,-386.314 178.204,-387.093 186.95,-393.073 188.77,-386.314"/>
</g>
<!-- Node9 -->
<g id="node7" class="node"><title>Node9</title>
<g id="a_node7"><a xlink:href="structadjoint__specific_3_01false_01_4.html#aa5f31ac7355813ed313acd8dfb57a85b" target="_top" xlink:title="adjoint_specific\&lt; false\l \&gt;::run">
<polygon fill="none" stroke="black" points="284.5,-368 284.5,-398 407.5,-398 407.5,-368 284.5,-368"/>
<text text-anchor="start" x="292.5" y="-386" font-family="Helvetica,sans-Serif" font-size="10.00">adjoint_specific&lt; false</text>
<text text-anchor="middle" x="346" y="-375" font-family="Helvetica,sans-Serif" font-size="10.00"> &gt;::run</text>
</a>
</g>
</g>
<!-- Node4&#45;&gt;Node9 -->
<g id="edge6" class="edge"><title>Node4&#45;&gt;Node9</title>
<path fill="none" stroke="midnightblue" d="M188.534,-383C213.271,-383 251.72,-383 284.313,-383"/>
<polygon fill="midnightblue" stroke="midnightblue" points="188.204,-379.5 178.204,-383 188.204,-386.5 188.204,-379.5"/>
</g>
<!-- Node10 -->
<g id="node8" class="node"><title>Node10</title>
<g id="a_node8"><a xlink:href="classEigen_1_1QuaternionBase.html#a0428d9745a54936f05d0aff86a3bb8fd" target="_top" xlink:title="Eigen::QuaternionBase\l\&lt; Quaternion\&lt; _Scalar,\l _Options \&gt; \&gt;::slerp">
<polygon fill="none" stroke="black" points="280.5,-307.5 280.5,-348.5 411.5,-348.5 411.5,-307.5 280.5,-307.5"/>
<text text-anchor="start" x="288.5" y="-336.5" font-family="Helvetica,sans-Serif" font-size="10.00">Eigen::QuaternionBase</text>
<text text-anchor="start" x="288.5" y="-325.5" font-family="Helvetica,sans-Serif" font-size="10.00">&lt; Quaternion&lt; _Scalar,</text>
<text text-anchor="middle" x="346" y="-314.5" font-family="Helvetica,sans-Serif" font-size="10.00"> _Options &gt; &gt;::slerp</text>
</a>
</g>
</g>
<!-- Node4&#45;&gt;Node10 -->
<g id="edge7" class="edge"><title>Node4&#45;&gt;Node10</title>
<path fill="none" stroke="midnightblue" d="M187.797,-375.506C211.462,-368.355 248.143,-357.27 280.122,-347.606"/>
<polygon fill="midnightblue" stroke="midnightblue" points="186.764,-372.162 178.204,-378.405 188.789,-378.863 186.764,-372.162"/>
</g>
<!-- Node11 -->
<g id="node9" class="node"><title>Node11</title>
<g id="a_node9"><a xlink:href="classEigen_1_1ParametrizedLine.html#a7dc9009fd67184754823cf90ae8f6eae" target="_top" xlink:title="Eigen::ParametrizedLine\l::squaredDistance">
<polygon fill="none" stroke="black" points="280,-258 280,-288 412,-288 412,-258 280,-258"/>
<text text-anchor="start" x="288" y="-276" font-family="Helvetica,sans-Serif" font-size="10.00">Eigen::ParametrizedLine</text>
<text text-anchor="middle" x="346" y="-265" font-family="Helvetica,sans-Serif" font-size="10.00">::squaredDistance</text>
</a>
</g>
</g>
<!-- Node4&#45;&gt;Node11 -->
<g id="edge8" class="edge"><title>Node4&#45;&gt;Node11</title>
<path fill="none" stroke="midnightblue" d="M186.918,-367.822C201.281,-358.361 219.681,-345.622 235,-333 252.223,-318.81 251.959,-309.636 271,-298 277.133,-294.252 283.898,-290.985 290.771,-288.159"/>
<polygon fill="midnightblue" stroke="midnightblue" points="184.611,-365.147 178.134,-373.532 188.426,-371.016 184.611,-365.147"/>
</g>
<!-- Node7 -->
<g id="node5" class="node"><title>Node7</title>
<g id="a_node5"><a xlink:href="exceptions_8cpp.html#a35265259c55eb90158ccba8b666acef6" target="_top" xlink:title="test_exceptions">
<polygon fill="none" stroke="black" points="477,-466.5 477,-485.5 569,-485.5 569,-466.5 477,-466.5"/>
<text text-anchor="middle" x="523" y="-473.5" font-family="Helvetica,sans-Serif" font-size="10.00">test_exceptions</text>
</a>
</g>
</g>
<!-- Node6&#45;&gt;Node7 -->
<g id="edge4" class="edge"><title>Node6&#45;&gt;Node7</title>
<path fill="none" stroke="midnightblue" d="M394.746,-476C420.299,-476 451.596,-476 476.758,-476"/>
<polygon fill="midnightblue" stroke="midnightblue" points="394.542,-472.5 384.542,-476 394.542,-479.5 394.542,-472.5"/>
</g>
<!-- Node12 -->
<g id="node10" class="node"><title>Node12</title>
<g id="a_node10"><a xlink:href="classEigen_1_1ParametrizedLine.html#a1c038c9559f76794369bd2ae74e93b9f" target="_top" xlink:title="Eigen::ParametrizedLine\l::distance">
<polygon fill="none" stroke="black" points="457,-258 457,-288 589,-288 589,-258 457,-258"/>
<text text-anchor="start" x="465" y="-276" font-family="Helvetica,sans-Serif" font-size="10.00">Eigen::ParametrizedLine</text>
<text text-anchor="middle" x="523" y="-265" font-family="Helvetica,sans-Serif" font-size="10.00">::distance</text>
</a>
</g>
</g>
<!-- Node11&#45;&gt;Node12 -->
<g id="edge9" class="edge"><title>Node11&#45;&gt;Node12</title>
<path fill="none" stroke="midnightblue" d="M422.187,-273C433.701,-273 445.506,-273 456.782,-273"/>
<polygon fill="midnightblue" stroke="midnightblue" points="422.164,-269.5 412.164,-273 422.164,-276.5 422.164,-269.5"/>
</g>
<!-- Node17 -->
<g id="node15" class="node"><title>Node17</title>
<g id="a_node15"><a xlink:href="classEigen_1_1TensorStorage_3_01T_00_01DSizes_3_01IndexType_00_01NumIndices___01_4_00_01Options___01_4.html#a168a5a4ba2fca4b55e11bef2d35afcc8" target="_top" xlink:title="Eigen::TensorStorage\l\&lt; T, DSizes\&lt; IndexType,\l NumIndices_ \&gt;, Options\l_ \&gt;::operator=">
<polygon fill="none" stroke="black" points="278.5,-187 278.5,-239 413.5,-239 413.5,-187 278.5,-187"/>
<text text-anchor="start" x="286.5" y="-227" font-family="Helvetica,sans-Serif" font-size="10.00">Eigen::TensorStorage</text>
<text text-anchor="start" x="286.5" y="-216" font-family="Helvetica,sans-Serif" font-size="10.00">&lt; T, DSizes&lt; IndexType,</text>
<text text-anchor="start" x="286.5" y="-205" font-family="Helvetica,sans-Serif" font-size="10.00"> NumIndices_ &gt;, Options</text>
<text text-anchor="middle" x="346" y="-194" font-family="Helvetica,sans-Serif" font-size="10.00">_ &gt;::operator=</text>
</a>
</g>
</g>
<!-- Node16&#45;&gt;Node17 -->
<g id="edge14" class="edge"><title>Node16&#45;&gt;Node17</title>
<path fill="none" stroke="midnightblue" d="M192.001,-143.226C217.649,-154.922 255.825,-172.332 287.626,-186.835"/>
<polygon fill="midnightblue" stroke="midnightblue" points="193.374,-140.005 182.824,-139.04 190.47,-146.374 193.374,-140.005"/>
</g>
<!-- Node18 -->
<g id="node16" class="node"><title>Node18</title>
<g id="a_node16"><a xlink:href="structEigen_1_1Tuple.html#a18d61f9a86ba8627ed39fc38b165a977" target="_top" xlink:title="Eigen::Tuple::swap">
<polygon fill="none" stroke="black" points="294.5,-148.5 294.5,-167.5 397.5,-167.5 397.5,-148.5 294.5,-148.5"/>
<text text-anchor="middle" x="346" y="-155.5" font-family="Helvetica,sans-Serif" font-size="10.00">Eigen::Tuple::swap</text>
</a>
</g>
</g>
<!-- Node16&#45;&gt;Node18 -->
<g id="edge15" class="edge"><title>Node16&#45;&gt;Node18</title>
<path fill="none" stroke="midnightblue" d="M192.984,-134.613C220.454,-138.839 261.68,-145.182 294.273,-150.196"/>
<polygon fill="midnightblue" stroke="midnightblue" points="193.24,-131.111 182.824,-133.05 192.175,-138.03 193.24,-131.111"/>
</g>
<!-- Node19 -->
<g id="node17" class="node"><title>Node19</title>
<g id="a_node17"><a xlink:href="classEigen_1_1PlainObjectBase.html#a7a975e6a0ec50637ef56e72dc732717e" target="_top" xlink:title="Eigen::PlainObjectBase\l\&lt; Matrix\&lt; _Scalar, _Rows,\l _Cols, _Options, _MaxRows,\l _MaxCols \&gt; \&gt;::swap">
<polygon fill="none" stroke="black" points="271,-77 271,-129 421,-129 421,-77 271,-77"/>
<text text-anchor="start" x="279" y="-117" font-family="Helvetica,sans-Serif" font-size="10.00">Eigen::PlainObjectBase</text>
<text text-anchor="start" x="279" y="-106" font-family="Helvetica,sans-Serif" font-size="10.00">&lt; Matrix&lt; _Scalar, _Rows,</text>
<text text-anchor="start" x="279" y="-95" font-family="Helvetica,sans-Serif" font-size="10.00"> _Cols, _Options, _MaxRows,</text>
<text text-anchor="middle" x="346" y="-84" font-family="Helvetica,sans-Serif" font-size="10.00"> _MaxCols &gt; &gt;::swap</text>
</a>
</g>
</g>
<!-- Node16&#45;&gt;Node19 -->
<g id="edge16" class="edge"><title>Node16&#45;&gt;Node19</title>
<path fill="none" stroke="midnightblue" d="M192.819,-125.576C214.035,-122.429 243.516,-118.055 270.885,-113.995"/>
<polygon fill="midnightblue" stroke="midnightblue" points="192.202,-122.129 182.824,-127.059 193.229,-129.054 192.202,-122.129"/>
</g>
<!-- Node20 -->
<g id="node18" class="node"><title>Node20</title>
<g id="a_node18"><a xlink:href="triangular_8cpp.html#ac79ef2ddeb55562aa14ca597bf74fa02" target="_top" xlink:title="triangular_rect">
<polygon fill="none" stroke="black" points="303,-38.5 303,-57.5 389,-57.5 389,-38.5 303,-38.5"/>
<text text-anchor="middle" x="346" y="-45.5" font-family="Helvetica,sans-Serif" font-size="10.00">triangular_rect</text>
</a>
</g>
</g>
<!-- Node16&#45;&gt;Node20 -->
<g id="edge17" class="edge"><title>Node16&#45;&gt;Node20</title>
<path fill="none" stroke="midnightblue" d="M184.971,-114.729C206.157,-100.61 239.551,-79.9164 271,-67 281.061,-62.8679 292.269,-59.4335 302.857,-56.6739"/>
<polygon fill="midnightblue" stroke="midnightblue" points="183.003,-111.835 176.679,-120.336 186.924,-117.634 183.003,-111.835"/>
</g>
<!-- Node21 -->
<g id="node19" class="node"><title>Node21</title>
<g id="a_node19"><a xlink:href="triangular_8cpp.html#ad027f8e738012e06c9b99c82143c5467" target="_top" xlink:title="triangular_square">
<polygon fill="none" stroke="black" points="295.5,-0.5 295.5,-19.5 396.5,-19.5 396.5,-0.5 295.5,-0.5"/>
<text text-anchor="middle" x="346" y="-7.5" font-family="Helvetica,sans-Serif" font-size="10.00">triangular_square</text>
</a>
</g>
</g>
<!-- Node16&#45;&gt;Node21 -->
<g id="edge18" class="edge"><title>Node16&#45;&gt;Node21</title>
<path fill="none" stroke="midnightblue" d="M176.866,-112.429C195.735,-89.7256 231.681,-50.5632 271,-29 278.443,-24.9181 286.79,-21.6897 295.123,-19.1431"/>
<polygon fill="midnightblue" stroke="midnightblue" points="174.096,-110.288 170.499,-120.254 179.526,-114.706 174.096,-110.288"/>
</g>
</g>
</svg>
