<?xml version="1.0" encoding="UTF-8" standalone="no"?>
<!DOCTYPE svg PUBLIC "-//W3C//DTD SVG 1.1//EN"
 "http://www.w3.org/Graphics/SVG/1.1/DTD/svg11.dtd">
<!-- Generated by graphviz version 2.38.0 (20140413.2041)
 -->
<!-- Title: check_atan2 Pages: 1 -->
<svg width="382pt" height="518pt"
 viewBox="0.00 0.00 382.00 518.00" xmlns="http://www.w3.org/2000/svg" xmlns:xlink="http://www.w3.org/1999/xlink">
<g id="graph0" class="graph" transform="scale(1 1) rotate(0) translate(4 514)">
<title>check_atan2</title>
<!-- Node0 -->
<g id="node1" class="node"><title>Node0</title>
<polygon fill="#bfbfbf" stroke="black" points="0,-228.5 0,-247.5 77,-247.5 77,-228.5 0,-228.5"/>
<text text-anchor="middle" x="38.5" y="-235.5" font-family="Helvetica,sans-Serif" font-size="10.00">check_atan2</text>
</g>
<!-- Node1 -->
<g id="node2" class="node"><title>Node1</title>
<g id="a_node2"><a xlink:href="namespaceEigen.html#a005dd347b005fd91307df49f89186e06" target="_top" xlink:title="Eigen::atan2">
<polygon fill="none" stroke="black" points="113,-247.5 113,-266.5 190,-266.5 190,-247.5 113,-247.5"/>
<text text-anchor="middle" x="151.5" y="-254.5" font-family="Helvetica,sans-Serif" font-size="10.00">Eigen::atan2</text>
</a>
</g>
</g>
<!-- Node0&#45;&gt;Node1 -->
<g id="edge1" class="edge"><title>Node0&#45;&gt;Node1</title>
<path fill="none" stroke="midnightblue" d="M77.0795,-244.433C85.3973,-245.856 94.3167,-247.383 102.972,-248.865"/>
<polygon fill="midnightblue" stroke="midnightblue" points="102.512,-252.337 112.959,-250.574 103.693,-245.437 102.512,-252.337"/>
</g>
<!-- Node6 -->
<g id="node7" class="node"><title>Node6</title>
<g id="a_node7"><a xlink:href="ArrayCwiseUnaryOps_8h.html#a92b03396990b0e9eea0731aa406e31a4" target="_top" xlink:title="cos">
<polygon fill="none" stroke="black" points="283.5,-490.5 283.5,-509.5 316.5,-509.5 316.5,-490.5 283.5,-490.5"/>
<text text-anchor="middle" x="300" y="-497.5" font-family="Helvetica,sans-Serif" font-size="10.00">cos</text>
</a>
</g>
</g>
<!-- Node0&#45;&gt;Node6 -->
<g id="edge15" class="edge"><title>Node0&#45;&gt;Node6</title>
<path fill="none" stroke="midnightblue" d="M43.9781,-247.728C61.4545,-284.564 128.928,-416.648 226,-481 240.053,-490.316 258.435,-495.068 273.238,-497.489"/>
<polygon fill="midnightblue" stroke="midnightblue" points="272.886,-500.974 283.27,-498.873 273.842,-494.039 272.886,-500.974"/>
</g>
<!-- Node15 -->
<g id="node16" class="node"><title>Node15</title>
<g id="a_node16"><a xlink:href="ArrayCwiseUnaryOps_8h.html#a2500b5d4f377a445cb98d3f1facfa1cf" target="_top" xlink:title="exp">
<polygon fill="none" stroke="black" points="134.5,-209.5 134.5,-228.5 168.5,-228.5 168.5,-209.5 134.5,-209.5"/>
<text text-anchor="middle" x="151.5" y="-216.5" font-family="Helvetica,sans-Serif" font-size="10.00">exp</text>
</a>
</g>
</g>
<!-- Node0&#45;&gt;Node15 -->
<g id="edge16" class="edge"><title>Node0&#45;&gt;Node15</title>
<path fill="none" stroke="midnightblue" d="M77.0795,-231.567C92.6164,-228.908 110.252,-225.889 124.345,-223.477"/>
<polygon fill="midnightblue" stroke="midnightblue" points="125.071,-226.904 134.337,-221.767 123.89,-220.004 125.071,-226.904"/>
</g>
<!-- Node16 -->
<g id="node17" class="node"><title>Node16</title>
<g id="a_node17"><a xlink:href="ArrayCwiseUnaryOps_8h.html#a9cfb0ea58bd813510a9e2db18a5e49f0" target="_top" xlink:title="sin">
<polygon fill="none" stroke="black" points="136.5,-171.5 136.5,-190.5 166.5,-190.5 166.5,-171.5 136.5,-171.5"/>
<text text-anchor="middle" x="151.5" y="-178.5" font-family="Helvetica,sans-Serif" font-size="10.00">sin</text>
</a>
</g>
</g>
<!-- Node0&#45;&gt;Node16 -->
<g id="edge17" class="edge"><title>Node0&#45;&gt;Node16</title>
<path fill="none" stroke="midnightblue" d="M57.9042,-228.432C72.7579,-220.723 94.2026,-209.621 113,-200 117.552,-197.67 122.421,-195.193 127.093,-192.822"/>
<polygon fill="midnightblue" stroke="midnightblue" points="128.9,-195.83 136.24,-188.19 125.738,-189.586 128.9,-195.83"/>
</g>
<!-- Node2 -->
<g id="node3" class="node"><title>Node2</title>
<g id="a_node3"><a xlink:href="classEigen_1_1AutoDiffScalar.html#a3fb25233941b46affc60c9569829656b" target="_top" xlink:title="Eigen::AutoDiffScalar\l::value">
<polygon fill="none" stroke="black" points="241.5,-441 241.5,-471 358.5,-471 358.5,-441 241.5,-441"/>
<text text-anchor="start" x="249.5" y="-459" font-family="Helvetica,sans-Serif" font-size="10.00">Eigen::AutoDiffScalar</text>
<text text-anchor="middle" x="300" y="-448" font-family="Helvetica,sans-Serif" font-size="10.00">::value</text>
</a>
</g>
</g>
<!-- Node1&#45;&gt;Node2 -->
<g id="edge2" class="edge"><title>Node1&#45;&gt;Node2</title>
<path fill="none" stroke="midnightblue" d="M155.407,-266.714C165.502,-299.872 199.849,-407.861 226,-432 227.973,-433.821 230.087,-435.504 232.307,-437.06"/>
<polygon fill="midnightblue" stroke="midnightblue" points="230.948,-440.324 241.327,-442.449 234.538,-434.315 230.948,-440.324"/>
</g>
<!-- Node3 -->
<g id="node4" class="node"><title>Node3</title>
<g id="a_node4"><a xlink:href="classEigen_1_1AutoDiffScalar.html#a751db20e34259b41b88a6358ef20e857" target="_top" xlink:title="Eigen::AutoDiffScalar\l::derivatives">
<polygon fill="none" stroke="black" points="241.5,-392 241.5,-422 358.5,-422 358.5,-392 241.5,-392"/>
<text text-anchor="start" x="249.5" y="-410" font-family="Helvetica,sans-Serif" font-size="10.00">Eigen::AutoDiffScalar</text>
<text text-anchor="middle" x="300" y="-399" font-family="Helvetica,sans-Serif" font-size="10.00">::derivatives</text>
</a>
</g>
</g>
<!-- Node1&#45;&gt;Node3 -->
<g id="edge3" class="edge"><title>Node1&#45;&gt;Node3</title>
<path fill="none" stroke="midnightblue" d="M155.507,-266.808C163.234,-290.383 186.031,-350.667 226,-383 228.042,-384.652 230.202,-386.192 232.449,-387.627"/>
<polygon fill="midnightblue" stroke="midnightblue" points="231.047,-390.852 241.486,-392.659 234.452,-384.736 231.047,-390.852"/>
</g>
<!-- Node4 -->
<g id="node5" class="node"><title>Node4</title>
<g id="a_node5"><a xlink:href="namespaceEigen.html#ade972f79dcb91f919a4a9939178e1024" target="_top" xlink:title="Eigen::EIGEN_AUTODIFF\l_DECLARE_GLOBAL_UNARY">
<polygon fill="none" stroke="black" points="226,-343 226,-373 374,-373 374,-343 226,-343"/>
<text text-anchor="start" x="234" y="-361" font-family="Helvetica,sans-Serif" font-size="10.00">Eigen::EIGEN_AUTODIFF</text>
<text text-anchor="middle" x="300" y="-350" font-family="Helvetica,sans-Serif" font-size="10.00">_DECLARE_GLOBAL_UNARY</text>
</a>
</g>
</g>
<!-- Node1&#45;&gt;Node4 -->
<g id="edge4" class="edge"><title>Node1&#45;&gt;Node4</title>
<path fill="none" stroke="midnightblue" d="M159.326,-266.575C171.164,-282.525 197.029,-314.592 226,-333 229.184,-335.023 232.55,-336.903 236.02,-338.648"/>
<polygon fill="midnightblue" stroke="midnightblue" points="234.848,-341.96 245.396,-342.954 237.769,-335.599 234.848,-341.96"/>
</g>
<!-- Node5 -->
<g id="node6" class="node"><title>Node5</title>
<g id="a_node6"><a xlink:href="ArrayCwiseUnaryOps_8h.html#a0c32a3874bfc5438d11b75c9f40256d1" target="_top" xlink:title="tan">
<polygon fill="none" stroke="black" points="284,-304.5 284,-323.5 316,-323.5 316,-304.5 284,-304.5"/>
<text text-anchor="middle" x="300" y="-311.5" font-family="Helvetica,sans-Serif" font-size="10.00">tan</text>
</a>
</g>
</g>
<!-- Node1&#45;&gt;Node5 -->
<g id="edge5" class="edge"><title>Node1&#45;&gt;Node5</title>
<path fill="none" stroke="midnightblue" d="M168.368,-266.521C182.94,-274.941 205.342,-287.085 226,-295 241.494,-300.937 259.534,-305.651 273.803,-308.899"/>
<polygon fill="midnightblue" stroke="midnightblue" points="273.359,-312.384 283.875,-311.092 274.849,-305.545 273.359,-312.384"/>
</g>
<!-- Node1&#45;&gt;Node6 -->
<g id="edge6" class="edge"><title>Node1&#45;&gt;Node6</title>
<path fill="none" stroke="midnightblue" d="M155.35,-266.535C167.861,-308.277 217.666,-473.171 226,-481 238.641,-492.875 257.74,-497.549 273.232,-499.293"/>
<polygon fill="midnightblue" stroke="midnightblue" points="273.012,-502.787 283.257,-500.086 273.564,-495.809 273.012,-502.787"/>
</g>
<!-- Node7 -->
<g id="node8" class="node"><title>Node7</title>
<g id="a_node8"><a xlink:href="namespaceEigen.html#af2ab563fb98de79fa59e7f78e37591ab" target="_top" xlink:title="Eigen::MakeAutoDiffScalar">
<polygon fill="none" stroke="black" points="228.5,-266.5 228.5,-285.5 371.5,-285.5 371.5,-266.5 228.5,-266.5"/>
<text text-anchor="middle" x="300" y="-273.5" font-family="Helvetica,sans-Serif" font-size="10.00">Eigen::MakeAutoDiffScalar</text>
</a>
</g>
</g>
<!-- Node1&#45;&gt;Node7 -->
<g id="edge7" class="edge"><title>Node1&#45;&gt;Node7</title>
<path fill="none" stroke="midnightblue" d="M190.227,-261.893C198.911,-263.019 208.473,-264.259 218.214,-265.523"/>
<polygon fill="midnightblue" stroke="midnightblue" points="218.035,-269.029 228.402,-266.844 218.935,-262.087 218.035,-269.029"/>
</g>
<!-- Node8 -->
<g id="node9" class="node"><title>Node8</title>
<g id="a_node9"><a xlink:href="ArrayCwiseUnaryOps_8h.html#a4921dbe62d034394f6fa7810e8711356" target="_top" xlink:title="abs2">
<polygon fill="none" stroke="black" points="280,-228.5 280,-247.5 320,-247.5 320,-228.5 280,-228.5"/>
<text text-anchor="middle" x="300" y="-235.5" font-family="Helvetica,sans-Serif" font-size="10.00">abs2</text>
</a>
</g>
</g>
<!-- Node1&#45;&gt;Node8 -->
<g id="edge8" class="edge"><title>Node1&#45;&gt;Node8</title>
<path fill="none" stroke="midnightblue" d="M190.227,-252.107C214.965,-248.899 246.835,-244.765 269.673,-241.804"/>
<polygon fill="midnightblue" stroke="midnightblue" points="270.313,-245.25 279.779,-240.493 269.412,-238.308 270.313,-245.25"/>
</g>
<!-- Node9 -->
<g id="node10" class="node"><title>Node9</title>
<g id="a_node10"><a xlink:href="ArrayCwiseUnaryOps_8h.html#a65b7255208b30e0a3a5a0389b77465db" target="_top" xlink:title="asin">
<polygon fill="none" stroke="black" points="282,-190.5 282,-209.5 318,-209.5 318,-190.5 282,-190.5"/>
<text text-anchor="middle" x="300" y="-197.5" font-family="Helvetica,sans-Serif" font-size="10.00">asin</text>
</a>
</g>
</g>
<!-- Node1&#45;&gt;Node9 -->
<g id="edge9" class="edge"><title>Node1&#45;&gt;Node9</title>
<path fill="none" stroke="midnightblue" d="M171.609,-247.395C177.515,-244.406 184.036,-241.084 190,-238 206.07,-229.689 209.133,-225.544 226,-219 240.788,-213.262 257.925,-208.7 271.877,-205.487"/>
<polygon fill="midnightblue" stroke="midnightblue" points="272.82,-208.863 281.834,-203.294 271.315,-202.026 272.82,-208.863"/>
</g>
<!-- Node10 -->
<g id="node11" class="node"><title>Node10</title>
<g id="a_node11"><a xlink:href="ArrayCwiseUnaryOps_8h.html#a656b9217a2fcb6de59dc8d1eb3079cc7" target="_top" xlink:title="sqrt">
<polygon fill="none" stroke="black" points="282.5,-152.5 282.5,-171.5 317.5,-171.5 317.5,-152.5 282.5,-152.5"/>
<text text-anchor="middle" x="300" y="-159.5" font-family="Helvetica,sans-Serif" font-size="10.00">sqrt</text>
</a>
</g>
</g>
<!-- Node1&#45;&gt;Node10 -->
<g id="edge10" class="edge"><title>Node1&#45;&gt;Node10</title>
<path fill="none" stroke="midnightblue" d="M176.354,-247.356C181.187,-244.756 186.005,-241.635 190,-238 212.163,-217.836 201.808,-198.678 226,-181 239.443,-171.177 257.539,-166.424 272.351,-164.129"/>
<polygon fill="midnightblue" stroke="midnightblue" points="272.959,-167.58 282.442,-162.854 272.082,-160.635 272.959,-167.58"/>
</g>
<!-- Node11 -->
<g id="node12" class="node"><title>Node11</title>
<g id="a_node12"><a xlink:href="ArrayCwiseUnaryOps_8h.html#a4ae93c48c742ccd51e0ec59fa85b49bd" target="_top" xlink:title="acos">
<polygon fill="none" stroke="black" points="280.5,-114.5 280.5,-133.5 319.5,-133.5 319.5,-114.5 280.5,-114.5"/>
<text text-anchor="middle" x="300" y="-121.5" font-family="Helvetica,sans-Serif" font-size="10.00">acos</text>
</a>
</g>
</g>
<!-- Node1&#45;&gt;Node11 -->
<g id="edge11" class="edge"><title>Node1&#45;&gt;Node11</title>
<path fill="none" stroke="midnightblue" d="M178.101,-247.282C182.482,-244.762 186.683,-241.692 190,-238 220.179,-204.415 192.402,-173.164 226,-143 237.997,-132.229 255.339,-127.423 270.11,-125.337"/>
<polygon fill="midnightblue" stroke="midnightblue" points="270.725,-128.791 280.298,-124.252 269.984,-121.831 270.725,-128.791"/>
</g>
<!-- Node12 -->
<g id="node13" class="node"><title>Node12</title>
<g id="a_node13"><a xlink:href="ArrayCwiseUnaryOps_8h.html#ad7864d65f1037041e3f06ee1a8a5ae1e" target="_top" xlink:title="tanh">
<polygon fill="none" stroke="black" points="281,-76.5 281,-95.5 319,-95.5 319,-76.5 281,-76.5"/>
<text text-anchor="middle" x="300" y="-83.5" font-family="Helvetica,sans-Serif" font-size="10.00">tanh</text>
</a>
</g>
</g>
<!-- Node1&#45;&gt;Node12 -->
<g id="edge12" class="edge"><title>Node1&#45;&gt;Node12</title>
<path fill="none" stroke="midnightblue" d="M178.783,-247.312C182.994,-244.809 186.96,-241.736 190,-238 228.653,-190.502 182.488,-148.091 226,-105 237.681,-93.4322 255.459,-88.6406 270.546,-86.7611"/>
<polygon fill="midnightblue" stroke="midnightblue" points="271.274,-90.2108 280.93,-85.852 270.663,-83.2375 271.274,-90.2108"/>
</g>
<!-- Node13 -->
<g id="node14" class="node"><title>Node13</title>
<g id="a_node14"><a xlink:href="ArrayCwiseUnaryOps_8h.html#ada19e3b661917a4cd32736c1cead1a04" target="_top" xlink:title="cosh">
<polygon fill="none" stroke="black" points="280.5,-38.5 280.5,-57.5 319.5,-57.5 319.5,-38.5 280.5,-38.5"/>
<text text-anchor="middle" x="300" y="-45.5" font-family="Helvetica,sans-Serif" font-size="10.00">cosh</text>
</a>
</g>
</g>
<!-- Node1&#45;&gt;Node13 -->
<g id="edge13" class="edge"><title>Node1&#45;&gt;Node13</title>
<path fill="none" stroke="midnightblue" d="M178.961,-247.452C183.154,-244.935 187.067,-241.821 190,-238 237.29,-176.391 172.391,-123.197 226,-67 237.384,-55.0664 255.234,-50.276 270.433,-48.4887"/>
<polygon fill="midnightblue" stroke="midnightblue" points="270.735,-51.9758 280.42,-47.6802 270.17,-44.9986 270.735,-51.9758"/>
</g>
<!-- Node14 -->
<g id="node15" class="node"><title>Node14</title>
<g id="a_node15"><a xlink:href="ArrayCwiseUnaryOps_8h.html#a2a79b4dc952416cf485d5f84af4c798e" target="_top" xlink:title="sinh">
<polygon fill="none" stroke="black" points="282,-0.5 282,-19.5 318,-19.5 318,-0.5 282,-0.5"/>
<text text-anchor="middle" x="300" y="-7.5" font-family="Helvetica,sans-Serif" font-size="10.00">sinh</text>
</a>
</g>
</g>
<!-- Node1&#45;&gt;Node14 -->
<g id="edge14" class="edge"><title>Node1&#45;&gt;Node14</title>
<path fill="none" stroke="midnightblue" d="M179.457,-247.309C183.493,-244.823 187.225,-241.757 190,-238 246.002,-162.184 162.209,-98.3909 226,-29 237.522,-16.4667 256.167,-11.7629 271.729,-10.1688"/>
<polygon fill="midnightblue" stroke="midnightblue" points="272.135,-13.6498 281.885,-9.50402 271.678,-6.66477 272.135,-13.6498"/>
</g>
</g>
</svg>
