<?xml version="1.0" encoding="UTF-8" standalone="no"?>
<!DOCTYPE svg PUBLIC "-//W3C//DTD SVG 1.1//EN"
 "http://www.w3.org/Graphics/SVG/1.1/DTD/svg11.dtd">
<!-- Generated by graphviz version 2.38.0 (20140413.2041)
 -->
<!-- Title: foo Pages: 1 -->
<svg width="304pt" height="78pt"
 viewBox="0.00 0.00 304.00 77.50" xmlns="http://www.w3.org/2000/svg" xmlns:xlink="http://www.w3.org/1999/xlink">
<g id="graph0" class="graph" transform="scale(1 1) rotate(0) translate(4 73.5)">
<title>foo</title>
<!-- Node21 -->
<g id="node1" class="node"><title>Node21</title>
<polygon fill="#bfbfbf" stroke="black" points="0,-22.5 0,-41.5 32,-41.5 32,-22.5 0,-22.5"/>
<text text-anchor="middle" x="16" y="-29.5" font-family="Helvetica,sans-Serif" font-size="10.00">foo</text>
</g>
<!-- Node22 -->
<g id="node2" class="node"><title>Node22</title>
<g id="a_node2"><a xlink:href="namespacempfr.html#ae94ad8b45bc3c448549d7c094e7f24fd" target="_top" xlink:title="mpfr::sum">
<polygon fill="none" stroke="black" points="68,-22.5 68,-41.5 134,-41.5 134,-22.5 68,-22.5"/>
<text text-anchor="middle" x="101" y="-29.5" font-family="Helvetica,sans-Serif" font-size="10.00">mpfr::sum</text>
</a>
</g>
</g>
<!-- Node21&#45;&gt;Node22 -->
<g id="edge1" class="edge"><title>Node21&#45;&gt;Node22</title>
<path fill="none" stroke="midnightblue" d="M32.2235,-32C39.4321,-32 48.4376,-32 57.5064,-32"/>
<polygon fill="midnightblue" stroke="midnightblue" points="57.6798,-35.5001 67.6798,-32 57.6798,-28.5001 57.6798,-35.5001"/>
</g>
<!-- Node23 -->
<g id="node3" class="node"><title>Node23</title>
<g id="a_node3"><a xlink:href="classmpfr_1_1mpreal.html#a566f64ca066c54923d19c11d6c3d15cd" target="_top" xlink:title="mpfr::mpreal::mpfr\l_srcptr">
<polygon fill="none" stroke="black" points="179.5,-39 179.5,-69 286.5,-69 286.5,-39 179.5,-39"/>
<text text-anchor="start" x="187.5" y="-57" font-family="Helvetica,sans-Serif" font-size="10.00">mpfr::mpreal::mpfr</text>
<text text-anchor="middle" x="233" y="-46" font-family="Helvetica,sans-Serif" font-size="10.00">_srcptr</text>
</a>
</g>
</g>
<!-- Node22&#45;&gt;Node23 -->
<g id="edge2" class="edge"><title>Node22&#45;&gt;Node23</title>
<path fill="none" stroke="midnightblue" d="M134.135,-37.4382C144.826,-39.2474 157.126,-41.3291 169.318,-43.3923"/>
<polygon fill="midnightblue" stroke="midnightblue" points="169.052,-46.8969 179.496,-45.1147 170.22,-39.9951 169.052,-46.8969"/>
</g>
<!-- Node24 -->
<g id="node4" class="node"><title>Node24</title>
<g id="a_node4"><a xlink:href="classmpfr_1_1mpreal.html#af4e3b56888463376c675cac70b6ceca3" target="_top" xlink:title="mpfr::mpreal::mpfr_ptr">
<polygon fill="none" stroke="black" points="170,-0.5 170,-19.5 296,-19.5 296,-0.5 170,-0.5"/>
<text text-anchor="middle" x="233" y="-7.5" font-family="Helvetica,sans-Serif" font-size="10.00">mpfr::mpreal::mpfr_ptr</text>
</a>
</g>
</g>
<!-- Node22&#45;&gt;Node24 -->
<g id="edge3" class="edge"><title>Node22&#45;&gt;Node24</title>
<path fill="none" stroke="midnightblue" d="M134.135,-26.5618C143.748,-24.9349 154.664,-23.0877 165.631,-21.2317"/>
<polygon fill="midnightblue" stroke="midnightblue" points="166.406,-24.6504 175.682,-19.5308 165.238,-17.7485 166.406,-24.6504"/>
</g>
</g>
</svg>
