<?xml version="1.0" encoding="UTF-8" standalone="no"?>
<!DOCTYPE svg PUBLIC "-//W3C//DTD SVG 1.1//EN"
 "http://www.w3.org/Graphics/SVG/1.1/DTD/svg11.dtd">
<!-- Generated by graphviz version 2.38.0 (20140413.2041)
 -->
<!-- Title: /travis/libpairinteraction/eigen/bench/BenchUtil.h Pages: 1 -->
<svg width="1130pt" height="106pt"
 viewBox="0.00 0.00 1130.00 106.00" xmlns="http://www.w3.org/2000/svg" xmlns:xlink="http://www.w3.org/1999/xlink">
<g id="graph0" class="graph" transform="scale(1 1) rotate(0) translate(4 102)">
<title>/travis/libpairinteraction/eigen/bench/BenchUtil.h</title>
<!-- Node13 -->
<g id="node1" class="node"><title>Node13</title>
<polygon fill="#bfbfbf" stroke="black" points="504,-67.5 504,-97.5 640,-97.5 640,-67.5 504,-67.5"/>
<text text-anchor="start" x="512" y="-85.5" font-family="Helvetica,sans-Serif" font-size="10.00">/travis/libpairinteraction</text>
<text text-anchor="middle" x="572" y="-74.5" font-family="Helvetica,sans-Serif" font-size="10.00">/eigen/bench/BenchUtil.h</text>
</g>
<!-- Node14 -->
<g id="node2" class="node"><title>Node14</title>
<g id="a_node2"><a xlink:href="basicbenchmark_8cpp.html" target="_top" xlink:title="/travis/libpairinteraction\l/eigen/bench/basicbenchmark.cpp">
<polygon fill="none" stroke="black" points="0,-0.5 0,-30.5 180,-30.5 180,-0.5 0,-0.5"/>
<text text-anchor="start" x="8" y="-18.5" font-family="Helvetica,sans-Serif" font-size="10.00">/travis/libpairinteraction</text>
<text text-anchor="middle" x="90" y="-7.5" font-family="Helvetica,sans-Serif" font-size="10.00">/eigen/bench/basicbenchmark.cpp</text>
</a>
</g>
</g>
<!-- Node13&#45;&gt;Node14 -->
<g id="edge1" class="edge"><title>Node13&#45;&gt;Node14</title>
<path fill="none" stroke="midnightblue" d="M493.656,-71.5038C416.215,-61.5441 294.374,-45.663 189,-31 186.075,-30.593 183.102,-30.1761 180.1,-29.7524"/>
<polygon fill="midnightblue" stroke="midnightblue" points="493.448,-75.0059 503.813,-72.8089 494.341,-68.0629 493.448,-75.0059"/>
</g>
<!-- Node15 -->
<g id="node3" class="node"><title>Node15</title>
<g id="a_node3"><a xlink:href="bench__reverse_8cpp.html" target="_top" xlink:title="/travis/libpairinteraction\l/eigen/bench/bench_reverse.cpp">
<polygon fill="none" stroke="black" points="198,-0.5 198,-30.5 370,-30.5 370,-0.5 198,-0.5"/>
<text text-anchor="start" x="206" y="-18.5" font-family="Helvetica,sans-Serif" font-size="10.00">/travis/libpairinteraction</text>
<text text-anchor="middle" x="284" y="-7.5" font-family="Helvetica,sans-Serif" font-size="10.00">/eigen/bench/bench_reverse.cpp</text>
</a>
</g>
</g>
<!-- Node13&#45;&gt;Node15 -->
<g id="edge2" class="edge"><title>Node13&#45;&gt;Node15</title>
<path fill="none" stroke="midnightblue" d="M500.011,-65.2525C452.803,-54.598 391.692,-40.8054 346.522,-30.6109"/>
<polygon fill="midnightblue" stroke="midnightblue" points="499.338,-68.6885 509.863,-67.476 500.879,-61.8602 499.338,-68.6885"/>
</g>
<!-- Node16 -->
<g id="node4" class="node"><title>Node16</title>
<g id="a_node4"><a xlink:href="benchCholesky_8cpp.html" target="_top" xlink:title="/travis/libpairinteraction\l/eigen/bench/benchCholesky.cpp">
<polygon fill="none" stroke="black" points="388,-0.5 388,-30.5 560,-30.5 560,-0.5 388,-0.5"/>
<text text-anchor="start" x="396" y="-18.5" font-family="Helvetica,sans-Serif" font-size="10.00">/travis/libpairinteraction</text>
<text text-anchor="middle" x="474" y="-7.5" font-family="Helvetica,sans-Serif" font-size="10.00">/eigen/bench/benchCholesky.cpp</text>
</a>
</g>
</g>
<!-- Node13&#45;&gt;Node16 -->
<g id="edge3" class="edge"><title>Node13&#45;&gt;Node16</title>
<path fill="none" stroke="midnightblue" d="M542.198,-61.7337C527.034,-51.6755 508.955,-39.6847 495.223,-30.5765"/>
<polygon fill="midnightblue" stroke="midnightblue" points="540.467,-64.7853 550.735,-67.396 544.336,-58.9518 540.467,-64.7853"/>
</g>
<!-- Node17 -->
<g id="node5" class="node"><title>Node17</title>
<g id="a_node5"><a xlink:href="benchEigenSolver_8cpp.html" target="_top" xlink:title="/travis/libpairinteraction\l/eigen/bench/benchEigenSolver.cpp">
<polygon fill="none" stroke="black" points="578,-0.5 578,-30.5 764,-30.5 764,-0.5 578,-0.5"/>
<text text-anchor="start" x="586" y="-18.5" font-family="Helvetica,sans-Serif" font-size="10.00">/travis/libpairinteraction</text>
<text text-anchor="middle" x="671" y="-7.5" font-family="Helvetica,sans-Serif" font-size="10.00">/eigen/bench/benchEigenSolver.cpp</text>
</a>
</g>
</g>
<!-- Node13&#45;&gt;Node17 -->
<g id="edge4" class="edge"><title>Node13&#45;&gt;Node17</title>
<path fill="none" stroke="midnightblue" d="M602.106,-61.7337C617.425,-51.6755 635.688,-39.6847 649.56,-30.5765"/>
<polygon fill="midnightblue" stroke="midnightblue" points="599.92,-58.9818 593.482,-67.396 603.762,-64.8333 599.92,-58.9818"/>
</g>
<!-- Node18 -->
<g id="node6" class="node"><title>Node18</title>
<g id="a_node6"><a xlink:href="benchFFT_8cpp.html" target="_top" xlink:title="/travis/libpairinteraction\l/eigen/bench/benchFFT.cpp">
<polygon fill="none" stroke="black" points="782.5,-0.5 782.5,-30.5 927.5,-30.5 927.5,-0.5 782.5,-0.5"/>
<text text-anchor="start" x="790.5" y="-18.5" font-family="Helvetica,sans-Serif" font-size="10.00">/travis/libpairinteraction</text>
<text text-anchor="middle" x="855" y="-7.5" font-family="Helvetica,sans-Serif" font-size="10.00">/eigen/bench/benchFFT.cpp</text>
</a>
</g>
</g>
<!-- Node13&#45;&gt;Node18 -->
<g id="edge5" class="edge"><title>Node13&#45;&gt;Node18</title>
<path fill="none" stroke="midnightblue" d="M643.03,-65.1856C689.378,-54.5403 749.271,-40.7841 793.563,-30.6109"/>
<polygon fill="midnightblue" stroke="midnightblue" points="642.021,-61.8262 633.058,-67.476 643.588,-68.6486 642.021,-61.8262"/>
</g>
<!-- Node19 -->
<g id="node7" class="node"><title>Node19</title>
<g id="a_node7"><a xlink:href="bench_2sparse__product_8cpp.html" target="_top" xlink:title="/travis/libpairinteraction\l/eigen/bench/sparse_product.cpp">
<polygon fill="none" stroke="black" points="946,-0.5 946,-30.5 1122,-30.5 1122,-0.5 946,-0.5"/>
<text text-anchor="start" x="954" y="-18.5" font-family="Helvetica,sans-Serif" font-size="10.00">/travis/libpairinteraction</text>
<text text-anchor="middle" x="1034" y="-7.5" font-family="Helvetica,sans-Serif" font-size="10.00">/eigen/bench/sparse_product.cpp</text>
</a>
</g>
</g>
<!-- Node13&#45;&gt;Node19 -->
<g id="edge6" class="edge"><title>Node13&#45;&gt;Node19</title>
<path fill="none" stroke="midnightblue" d="M650.474,-70.8943C724.413,-60.8419 838.275,-45.2081 937,-31 939.949,-30.5755 942.949,-30.1413 945.978,-29.7007"/>
<polygon fill="midnightblue" stroke="midnightblue" points="649.749,-67.4605 640.312,-72.275 650.692,-74.3968 649.749,-67.4605"/>
</g>
</g>
</svg>
