<?xml version="1.0" encoding="UTF-8" standalone="no"?>
<!DOCTYPE svg PUBLIC "-//W3C//DTD SVG 1.1//EN"
 "http://www.w3.org/Graphics/SVG/1.1/DTD/svg11.dtd">
<!-- Generated by graphviz version 2.38.0 (20140413.2041)
 -->
<!-- Title: /travis/libpairinteraction/eigen/bench/BenchTimer.h Pages: 1 -->
<!--zoomable 195 -->
<svg id="main" version="1.1" xmlns="http://www.w3.org/2000/svg" xmlns:xlink="http://www.w3.org/1999/xlink" xml:space="preserve" onload="init(evt)">
<style type="text/css"><![CDATA[
.edge:hover path { stroke: red; }
.edge:hover polygon { stroke: red; fill: red; }
]]></style>
<script type="text/javascript"><![CDATA[
var edges = document.getElementsByTagName('g');
if (edges && edges.length) {
  for (var i=0;i<edges.length;i++) {
    if (edges[i].id.substr(0,4)=='edge') {
      edges[i].setAttribute('class','edge');
    }
  }
}
]]></script>
        <defs>
                <circle id="rim" cx="0" cy="0" r="7"/>
                <circle id="rim2" cx="0" cy="0" r="3.5"/>
                <g id="zoomPlus">
                        <use xlink:href="#rim" fill="#404040">
                                <set attributeName="fill" to="#808080" begin="zoomplus.mouseover" end="zoomplus.mouseout"/>
                        </use>
                        <path d="M-4,0h8M0,-4v8" fill="none" stroke="white" stroke-width="1.5" pointer-events="none"/>
                </g>
                <g id="zoomMin">
                        <use xlink:href="#rim" fill="#404040">
                                <set attributeName="fill" to="#808080" begin="zoomminus.mouseover" end="zoomminus.mouseout"/>
                        </use>
                        <path d="M-4,0h8" fill="none" stroke="white" stroke-width="1.5" pointer-events="none"/>
                </g>
                <g id="dirArrow">
                        <path fill="none" stroke="white" stroke-width="1.5" d="M0,-3.0v7 M-2.5,-0.5L0,-3.0L2.5,-0.5"/>
                </g>
               <g id="resetDef">
                       <use xlink:href="#rim2" fill="#404040">
                               <set attributeName="fill" to="#808080" begin="reset.mouseover" end="reset.mouseout"/>
                       </use>
               </g>
        </defs>

<script type="text/javascript">
var viewWidth = 4303;
var viewHeight = 195;
var sectionId = 'dynsection-1';
</script>
<script xlink:href="svgpan.js"/>
<svg id="graph" class="graph">
<g id="viewport">
<title>/travis/libpairinteraction/eigen/bench/BenchTimer.h</title>
<!-- Node3 -->
<g id="node1" class="node"><title>Node3</title>
<polygon fill="#bfbfbf" stroke="black" points="2327,-156.5 2327,-186.5 2473,-186.5 2473,-156.5 2327,-156.5"/>
<text text-anchor="start" x="2335" y="-174.5" font-family="Helvetica,sans-Serif" font-size="10.00">/travis/libpairinteraction</text>
<text text-anchor="middle" x="2400" y="-163.5" font-family="Helvetica,sans-Serif" font-size="10.00">/eigen/bench/BenchTimer.h</text>
</g>
<!-- Node4 -->
<g id="node2" class="node"><title>Node4</title>
<g id="a_node2"><a xlink:href="BenchUtil_8h.html" target="_top" xlink:title="/travis/libpairinteraction\l/eigen/bench/BenchUtil.h">
<polygon fill="none" stroke="black" points="603,-84 603,-114 739,-114 739,-84 603,-84"/>
<text text-anchor="start" x="611" y="-102" font-family="Helvetica,sans-Serif" font-size="10.00">/travis/libpairinteraction</text>
<text text-anchor="middle" x="671" y="-91" font-family="Helvetica,sans-Serif" font-size="10.00">/eigen/bench/BenchUtil.h</text>
</a>
</g>
</g>
<!-- Node3&#45;&gt;Node4 -->
<g id="edge1" class="edge"><title>Node3&#45;&gt;Node4</title>
<path fill="none" stroke="midnightblue" d="M2316.51,-170.754C2081.09,-170.841 1391.99,-166.751 822,-120 794.854,-117.773 765.108,-114.101 739.248,-110.506"/>
<polygon fill="midnightblue" stroke="midnightblue" points="2316.71,-174.254 2326.71,-170.748 2316.7,-167.254 2316.71,-174.254"/>
</g>
<!-- Node10 -->
<g id="node8" class="node"><title>Node10</title>
<g id="a_node8"><a xlink:href="bench_2sparse__product_8cpp.html" target="_top" xlink:title="/travis/libpairinteraction\l/eigen/bench/sparse_product.cpp">
<polygon fill="none" stroke="black" points="946,-6 946,-36 1122,-36 1122,-6 946,-6"/>
<text text-anchor="start" x="954" y="-24" font-family="Helvetica,sans-Serif" font-size="10.00">/travis/libpairinteraction</text>
<text text-anchor="middle" x="1034" y="-13" font-family="Helvetica,sans-Serif" font-size="10.00">/eigen/bench/sparse_product.cpp</text>
</a>
</g>
</g>
<!-- Node3&#45;&gt;Node10 -->
<g id="edge32" class="edge"><title>Node3&#45;&gt;Node10</title>
<path fill="none" stroke="midnightblue" d="M2316.51,-170.947C2002.16,-172.226 905.173,-172.872 854,-120 841.018,-106.587 842.934,-93.0326 854,-78 861.615,-67.6553 927.591,-48.9366 977.479,-36.006"/>
<polygon fill="midnightblue" stroke="midnightblue" points="2316.93,-174.445 2326.91,-170.903 2316.9,-167.446 2316.93,-174.445"/>
</g>
<!-- Node11 -->
<g id="node9" class="node"><title>Node11</title>
<g id="a_node9"><a xlink:href="bench__gemm_8cpp.html" target="_top" xlink:title="/travis/libpairinteraction\l/eigen/bench/bench_gemm.cpp">
<polygon fill="none" stroke="black" points="863.5,-84 863.5,-114 1030.5,-114 1030.5,-84 863.5,-84"/>
<text text-anchor="start" x="871.5" y="-102" font-family="Helvetica,sans-Serif" font-size="10.00">/travis/libpairinteraction</text>
<text text-anchor="middle" x="947" y="-91" font-family="Helvetica,sans-Serif" font-size="10.00">/eigen/bench/bench_gemm.cpp</text>
</a>
</g>
</g>
<!-- Node3&#45;&gt;Node11 -->
<g id="edge8" class="edge"><title>Node3&#45;&gt;Node11</title>
<path fill="none" stroke="midnightblue" d="M2316.36,-169.336C2060.07,-165.464 1288.02,-151.436 1039,-120 1027.65,-118.567 1015.63,-116.422 1004.15,-114.062"/>
<polygon fill="midnightblue" stroke="midnightblue" points="2316.66,-172.841 2326.71,-169.491 2316.77,-165.842 2316.66,-172.841"/>
</g>
<!-- Node12 -->
<g id="node10" class="node"><title>Node12</title>
<g id="a_node10"><a xlink:href="bench__norm_8cpp.html" target="_top" xlink:title="/travis/libpairinteraction\l/eigen/bench/bench_norm.cpp">
<polygon fill="none" stroke="black" points="1048.5,-84 1048.5,-114 1209.5,-114 1209.5,-84 1048.5,-84"/>
<text text-anchor="start" x="1056.5" y="-102" font-family="Helvetica,sans-Serif" font-size="10.00">/travis/libpairinteraction</text>
<text text-anchor="middle" x="1129" y="-91" font-family="Helvetica,sans-Serif" font-size="10.00">/eigen/bench/bench_norm.cpp</text>
</a>
</g>
</g>
<!-- Node3&#45;&gt;Node12 -->
<g id="edge9" class="edge"><title>Node3&#45;&gt;Node12</title>
<path fill="none" stroke="midnightblue" d="M2316.75,-168.846C2084.34,-163.925 1431.65,-147.953 1219,-120 1207.89,-118.54 1196.13,-116.383 1184.9,-114.019"/>
<polygon fill="midnightblue" stroke="midnightblue" points="2316.77,-172.347 2326.84,-169.058 2316.91,-165.349 2316.77,-172.347"/>
</g>
<!-- Node13 -->
<g id="node11" class="node"><title>Node13</title>
<g id="a_node11"><a xlink:href="benchBlasGemm_8cpp.html" target="_top" xlink:title="/travis/libpairinteraction\l/eigen/bench/benchBlasGemm.cpp">
<polygon fill="none" stroke="black" points="1228,-84 1228,-114 1412,-114 1412,-84 1228,-84"/>
<text text-anchor="start" x="1236" y="-102" font-family="Helvetica,sans-Serif" font-size="10.00">/travis/libpairinteraction</text>
<text text-anchor="middle" x="1320" y="-91" font-family="Helvetica,sans-Serif" font-size="10.00">/eigen/bench/benchBlasGemm.cpp</text>
</a>
</g>
</g>
<!-- Node3&#45;&gt;Node13 -->
<g id="edge10" class="edge"><title>Node3&#45;&gt;Node13</title>
<path fill="none" stroke="midnightblue" d="M2316.83,-170.237C2147.54,-168.817 1750.99,-160.967 1421,-120 1408.85,-118.491 1395.97,-116.358 1383.62,-114.043"/>
<polygon fill="midnightblue" stroke="midnightblue" points="2316.89,-173.738 2326.92,-170.317 2316.95,-166.738 2316.89,-173.738"/>
</g>
<!-- Node14 -->
<g id="node12" class="node"><title>Node14</title>
<g id="a_node12"><a xlink:href="benchGeometry_8cpp.html" target="_top" xlink:title="/travis/libpairinteraction\l/eigen/bench/benchGeometry.cpp">
<polygon fill="none" stroke="black" points="1430.5,-84 1430.5,-114 1607.5,-114 1607.5,-84 1430.5,-84"/>
<text text-anchor="start" x="1438.5" y="-102" font-family="Helvetica,sans-Serif" font-size="10.00">/travis/libpairinteraction</text>
<text text-anchor="middle" x="1519" y="-91" font-family="Helvetica,sans-Serif" font-size="10.00">/eigen/bench/benchGeometry.cpp</text>
</a>
</g>
</g>
<!-- Node3&#45;&gt;Node14 -->
<g id="edge11" class="edge"><title>Node3&#45;&gt;Node14</title>
<path fill="none" stroke="midnightblue" d="M2316.92,-168.938C2173.39,-165.395 1869.95,-154.19 1616,-120 1604.5,-118.451 1592.32,-116.329 1580.62,-114.043"/>
<polygon fill="midnightblue" stroke="midnightblue" points="2316.9,-172.438 2326.98,-169.18 2317.06,-165.44 2316.9,-172.438"/>
</g>
<!-- Node15 -->
<g id="node13" class="node"><title>Node15</title>
<g id="a_node13"><a xlink:href="benchmark-blocking-sizes_8cpp.html" target="_top" xlink:title="/travis/libpairinteraction\l/eigen/bench/benchmark&#45;blocking\l&#45;sizes.cpp">
<polygon fill="none" stroke="black" points="1625,-78.5 1625,-119.5 1803,-119.5 1803,-78.5 1625,-78.5"/>
<text text-anchor="start" x="1633" y="-107.5" font-family="Helvetica,sans-Serif" font-size="10.00">/travis/libpairinteraction</text>
<text text-anchor="start" x="1633" y="-96.5" font-family="Helvetica,sans-Serif" font-size="10.00">/eigen/bench/benchmark&#45;blocking</text>
<text text-anchor="middle" x="1714" y="-85.5" font-family="Helvetica,sans-Serif" font-size="10.00">&#45;sizes.cpp</text>
</a>
</g>
</g>
<!-- Node3&#45;&gt;Node15 -->
<g id="edge12" class="edge"><title>Node3&#45;&gt;Node15</title>
<path fill="none" stroke="midnightblue" d="M2316.74,-166.388C2202.49,-160.055 1990.91,-145.85 1812,-120 1809.08,-119.578 1806.11,-119.124 1803.12,-118.643"/>
<polygon fill="midnightblue" stroke="midnightblue" points="2316.64,-169.888 2326.81,-166.94 2317.02,-162.898 2316.64,-169.888"/>
</g>
<!-- Node16 -->
<g id="node14" class="node"><title>Node16</title>
<g id="a_node14"><a xlink:href="BenchSparseUtil_8h.html" target="_top" xlink:title="/travis/libpairinteraction\l/eigen/bench/BenchSparseUtil.h">
<polygon fill="none" stroke="black" points="1821,-84 1821,-114 1991,-114 1991,-84 1821,-84"/>
<text text-anchor="start" x="1829" y="-102" font-family="Helvetica,sans-Serif" font-size="10.00">/travis/libpairinteraction</text>
<text text-anchor="middle" x="1906" y="-91" font-family="Helvetica,sans-Serif" font-size="10.00">/eigen/bench/BenchSparseUtil.h</text>
</a>
</g>
</g>
<!-- Node3&#45;&gt;Node16 -->
<g id="edge13" class="edge"><title>Node3&#45;&gt;Node16</title>
<path fill="none" stroke="midnightblue" d="M2316.94,-161.645C2236.83,-152.69 2112.28,-137.671 2005,-120 1994.27,-118.233 1982.94,-116.149 1971.91,-114.005"/>
<polygon fill="midnightblue" stroke="midnightblue" points="2316.64,-165.134 2326.97,-162.761 2317.42,-158.177 2316.64,-165.134"/>
</g>
<!-- Node24 -->
<g id="node22" class="node"><title>Node24</title>
<g id="a_node22"><a xlink:href="spmv_8cpp.html" target="_top" xlink:title="/travis/libpairinteraction\l/eigen/bench/spmv.cpp">
<polygon fill="none" stroke="black" points="2475,-6 2475,-36 2603,-36 2603,-6 2475,-6"/>
<text text-anchor="start" x="2483" y="-24" font-family="Helvetica,sans-Serif" font-size="10.00">/travis/libpairinteraction</text>
<text text-anchor="middle" x="2539" y="-13" font-family="Helvetica,sans-Serif" font-size="10.00">/eigen/bench/spmv.cpp</text>
</a>
</g>
</g>
<!-- Node3&#45;&gt;Node24 -->
<g id="edge37" class="edge"><title>Node3&#45;&gt;Node24</title>
<path fill="none" stroke="midnightblue" d="M2316.74,-171.044C2221.03,-169.683 2072.52,-160.806 2037,-120 2024.74,-105.921 2024.36,-91.7401 2037,-78 2069.38,-42.7903 2418.9,-50.355 2466,-42 2474.67,-40.4622 2483.8,-38.3594 2492.56,-36.0927"/>
<polygon fill="midnightblue" stroke="midnightblue" points="2316.94,-174.546 2326.98,-171.164 2317.03,-167.547 2316.94,-174.546"/>
</g>
<!-- Node25 -->
<g id="node23" class="node"><title>Node25</title>
<g id="a_node23"><a xlink:href="benchVecAdd_8cpp.html" target="_top" xlink:title="/travis/libpairinteraction\l/eigen/bench/benchVecAdd.cpp">
<polygon fill="none" stroke="black" points="2046.5,-84 2046.5,-114 2213.5,-114 2213.5,-84 2046.5,-84"/>
<text text-anchor="start" x="2054.5" y="-102" font-family="Helvetica,sans-Serif" font-size="10.00">/travis/libpairinteraction</text>
<text text-anchor="middle" x="2130" y="-91" font-family="Helvetica,sans-Serif" font-size="10.00">/eigen/bench/benchVecAdd.cpp</text>
</a>
</g>
</g>
<!-- Node3&#45;&gt;Node25 -->
<g id="edge23" class="edge"><title>Node3&#45;&gt;Node25</title>
<path fill="none" stroke="midnightblue" d="M2336.4,-153.894C2290.06,-141.794 2227.97,-125.581 2184.03,-114.107"/>
<polygon fill="midnightblue" stroke="midnightblue" points="2335.77,-157.347 2346.33,-156.487 2337.54,-150.574 2335.77,-157.347"/>
</g>
<!-- Node26 -->
<g id="node24" class="node"><title>Node26</title>
<g id="a_node24"><a xlink:href="dense__solvers_8cpp.html" target="_top" xlink:title="/travis/libpairinteraction\l/eigen/bench/dense_solvers.cpp">
<polygon fill="none" stroke="black" points="2232,-84 2232,-114 2402,-114 2402,-84 2232,-84"/>
<text text-anchor="start" x="2240" y="-102" font-family="Helvetica,sans-Serif" font-size="10.00">/travis/libpairinteraction</text>
<text text-anchor="middle" x="2317" y="-91" font-family="Helvetica,sans-Serif" font-size="10.00">/eigen/bench/dense_solvers.cpp</text>
</a>
</g>
</g>
<!-- Node3&#45;&gt;Node26 -->
<g id="edge24" class="edge"><title>Node3&#45;&gt;Node26</title>
<path fill="none" stroke="midnightblue" d="M2375.23,-149.464C2361.74,-138.004 2345.42,-124.137 2333.49,-114.005"/>
<polygon fill="midnightblue" stroke="midnightblue" points="2373.32,-152.427 2383.2,-156.233 2377.85,-147.092 2373.32,-152.427"/>
</g>
<!-- Node27 -->
<g id="node25" class="node"><title>Node27</title>
<g id="a_node25"><a xlink:href="eig33_8cpp.html" target="_top" xlink:title="/travis/libpairinteraction\l/eigen/bench/eig33.cpp">
<polygon fill="none" stroke="black" points="2420,-84 2420,-114 2548,-114 2548,-84 2420,-84"/>
<text text-anchor="start" x="2428" y="-102" font-family="Helvetica,sans-Serif" font-size="10.00">/travis/libpairinteraction</text>
<text text-anchor="middle" x="2484" y="-91" font-family="Helvetica,sans-Serif" font-size="10.00">/eigen/bench/eig33.cpp</text>
</a>
</g>
</g>
<!-- Node3&#45;&gt;Node27 -->
<g id="edge25" class="edge"><title>Node3&#45;&gt;Node27</title>
<path fill="none" stroke="midnightblue" d="M2424.68,-149.788C2438.41,-138.266 2455.13,-124.233 2467.31,-114.005"/>
<polygon fill="midnightblue" stroke="midnightblue" points="2422.41,-147.124 2417,-156.233 2426.91,-152.485 2422.41,-147.124"/>
</g>
<!-- Node28 -->
<g id="node26" class="node"><title>Node28</title>
<g id="a_node26"><a xlink:href="geometry_8cpp.html" target="_top" xlink:title="/travis/libpairinteraction\l/eigen/bench/geometry.cpp">
<polygon fill="none" stroke="black" points="2566,-84 2566,-114 2712,-114 2712,-84 2566,-84"/>
<text text-anchor="start" x="2574" y="-102" font-family="Helvetica,sans-Serif" font-size="10.00">/travis/libpairinteraction</text>
<text text-anchor="middle" x="2639" y="-91" font-family="Helvetica,sans-Serif" font-size="10.00">/eigen/bench/geometry.cpp</text>
</a>
</g>
</g>
<!-- Node3&#45;&gt;Node28 -->
<g id="edge26" class="edge"><title>Node3&#45;&gt;Node28</title>
<path fill="none" stroke="midnightblue" d="M2457.33,-153.589C2498.23,-141.523 2552.61,-125.484 2591.18,-114.107"/>
<polygon fill="midnightblue" stroke="midnightblue" points="2456.11,-150.301 2447.5,-156.487 2458.09,-157.015 2456.11,-150.301"/>
</g>
<!-- Node29 -->
<g id="node27" class="node"><title>Node29</title>
<g id="a_node27"><a xlink:href="gemm_8cpp.html" target="_top" xlink:title="/travis/libpairinteraction\l/eigen/bench/perf_monitoring\l/gemm/gemm.cpp">
<polygon fill="none" stroke="black" points="2730.5,-78.5 2730.5,-119.5 2887.5,-119.5 2887.5,-78.5 2730.5,-78.5"/>
<text text-anchor="start" x="2738.5" y="-107.5" font-family="Helvetica,sans-Serif" font-size="10.00">/travis/libpairinteraction</text>
<text text-anchor="start" x="2738.5" y="-96.5" font-family="Helvetica,sans-Serif" font-size="10.00">/eigen/bench/perf_monitoring</text>
<text text-anchor="middle" x="2809" y="-85.5" font-family="Helvetica,sans-Serif" font-size="10.00">/gemm/gemm.cpp</text>
</a>
</g>
</g>
<!-- Node3&#45;&gt;Node29 -->
<g id="edge27" class="edge"><title>Node3&#45;&gt;Node29</title>
<path fill="none" stroke="midnightblue" d="M2483.41,-158.952C2548.36,-149.58 2640.67,-135.429 2721,-120 2724.08,-119.409 2727.21,-118.788 2730.37,-118.146"/>
<polygon fill="midnightblue" stroke="midnightblue" points="2482.63,-155.528 2473.23,-160.414 2483.63,-162.457 2482.63,-155.528"/>
</g>
<!-- Node30 -->
<g id="node28" class="node"><title>Node30</title>
<g id="a_node28"><a xlink:href="lazy__gemm_8cpp.html" target="_top" xlink:title="/travis/libpairinteraction\l/eigen/bench/perf_monitoring\l/gemm/lazy_gemm.cpp">
<polygon fill="none" stroke="black" points="2905.5,-78.5 2905.5,-119.5 3062.5,-119.5 3062.5,-78.5 2905.5,-78.5"/>
<text text-anchor="start" x="2913.5" y="-107.5" font-family="Helvetica,sans-Serif" font-size="10.00">/travis/libpairinteraction</text>
<text text-anchor="start" x="2913.5" y="-96.5" font-family="Helvetica,sans-Serif" font-size="10.00">/eigen/bench/perf_monitoring</text>
<text text-anchor="middle" x="2984" y="-85.5" font-family="Helvetica,sans-Serif" font-size="10.00">/gemm/lazy_gemm.cpp</text>
</a>
</g>
</g>
<!-- Node3&#45;&gt;Node30 -->
<g id="edge28" class="edge"><title>Node3&#45;&gt;Node30</title>
<path fill="none" stroke="midnightblue" d="M2483.29,-165.137C2582.17,-158.053 2751.84,-143.631 2896,-120 2899.09,-119.493 2902.24,-118.943 2905.41,-118.361"/>
<polygon fill="midnightblue" stroke="midnightblue" points="2482.79,-161.664 2473.07,-165.862 2483.29,-168.646 2482.79,-161.664"/>
</g>
<!-- Node31 -->
<g id="node29" class="node"><title>Node31</title>
<g id="a_node29"><a xlink:href="product__threshold_8cpp.html" target="_top" xlink:title="/travis/libpairinteraction\l/eigen/bench/product_threshold.cpp">
<polygon fill="none" stroke="black" points="3081,-84 3081,-114 3269,-114 3269,-84 3081,-84"/>
<text text-anchor="start" x="3089" y="-102" font-family="Helvetica,sans-Serif" font-size="10.00">/travis/libpairinteraction</text>
<text text-anchor="middle" x="3175" y="-91" font-family="Helvetica,sans-Serif" font-size="10.00">/eigen/bench/product_threshold.cpp</text>
</a>
</g>
</g>
<!-- Node3&#45;&gt;Node31 -->
<g id="edge29" class="edge"><title>Node3&#45;&gt;Node31</title>
<path fill="none" stroke="midnightblue" d="M2483.32,-167.309C2610.49,-161.744 2860.45,-148.074 3071,-120 3083.03,-118.396 3095.77,-116.29 3108.05,-114.047"/>
<polygon fill="midnightblue" stroke="midnightblue" points="2483.1,-163.815 2473.26,-167.743 2483.41,-170.808 2483.1,-163.815"/>
</g>
<!-- Node32 -->
<g id="node30" class="node"><title>Node32</title>
<g id="a_node30"><a xlink:href="quat__slerp_8cpp.html" target="_top" xlink:title="/travis/libpairinteraction\l/eigen/bench/quat_slerp.cpp">
<polygon fill="none" stroke="black" points="3287,-84 3287,-114 3439,-114 3439,-84 3287,-84"/>
<text text-anchor="start" x="3295" y="-102" font-family="Helvetica,sans-Serif" font-size="10.00">/travis/libpairinteraction</text>
<text text-anchor="middle" x="3363" y="-91" font-family="Helvetica,sans-Serif" font-size="10.00">/eigen/bench/quat_slerp.cpp</text>
</a>
</g>
</g>
<!-- Node3&#45;&gt;Node32 -->
<g id="edge30" class="edge"><title>Node3&#45;&gt;Node32</title>
<path fill="none" stroke="midnightblue" d="M2483.31,-170.508C2639.84,-169.464 2988.21,-162.101 3278,-120 3288.35,-118.496 3299.3,-116.35 3309.77,-114.017"/>
<polygon fill="midnightblue" stroke="midnightblue" points="2483.26,-167.009 2473.28,-170.568 2483.3,-174.009 2483.26,-167.009"/>
</g>
<!-- Node33 -->
<g id="node31" class="node"><title>Node33</title>
<g id="a_node31"><a xlink:href="quatmul_8cpp.html" target="_top" xlink:title="/travis/libpairinteraction\l/eigen/bench/quatmul.cpp">
<polygon fill="none" stroke="black" points="3457.5,-84 3457.5,-114 3598.5,-114 3598.5,-84 3457.5,-84"/>
<text text-anchor="start" x="3465.5" y="-102" font-family="Helvetica,sans-Serif" font-size="10.00">/travis/libpairinteraction</text>
<text text-anchor="middle" x="3528" y="-91" font-family="Helvetica,sans-Serif" font-size="10.00">/eigen/bench/quatmul.cpp</text>
</a>
</g>
</g>
<!-- Node3&#45;&gt;Node33 -->
<g id="edge31" class="edge"><title>Node3&#45;&gt;Node33</title>
<path fill="none" stroke="midnightblue" d="M2483.46,-168.6C2697.56,-163.384 3262.5,-147.384 3448,-120 3457.91,-118.536 3468.39,-116.378 3478.37,-114.014"/>
<polygon fill="midnightblue" stroke="midnightblue" points="2483.13,-165.106 2473.22,-168.847 2483.3,-172.104 2483.13,-165.106"/>
</g>
<!-- Node34 -->
<g id="node32" class="node"><title>Node34</title>
<g id="a_node32"><a xlink:href="sp__solver_8cpp.html" target="_top" xlink:title="/travis/libpairinteraction\l/eigen/bench/spbench/sp\l_solver.cpp">
<polygon fill="none" stroke="black" points="3617,-78.5 3617,-119.5 3753,-119.5 3753,-78.5 3617,-78.5"/>
<text text-anchor="start" x="3625" y="-107.5" font-family="Helvetica,sans-Serif" font-size="10.00">/travis/libpairinteraction</text>
<text text-anchor="start" x="3625" y="-96.5" font-family="Helvetica,sans-Serif" font-size="10.00">/eigen/bench/spbench/sp</text>
<text text-anchor="middle" x="3685" y="-85.5" font-family="Helvetica,sans-Serif" font-size="10.00">_solver.cpp</text>
</a>
</g>
</g>
<!-- Node3&#45;&gt;Node34 -->
<g id="edge33" class="edge"><title>Node3&#45;&gt;Node34</title>
<path fill="none" stroke="midnightblue" d="M2483.45,-169.28C2719.63,-165.465 3389.65,-152.052 3607,-120 3610.18,-119.531 3613.42,-118.985 3616.68,-118.379"/>
<polygon fill="midnightblue" stroke="midnightblue" points="2483.15,-165.784 2473.21,-169.444 2483.27,-172.783 2483.15,-165.784"/>
</g>
<!-- Node35 -->
<g id="node33" class="node"><title>Node35</title>
<g id="a_node33"><a xlink:href="spbenchsolver_8h.html" target="_top" xlink:title="/travis/libpairinteraction\l/eigen/bench/spbench/spbenchsolver.h">
<polygon fill="none" stroke="black" points="3771,-84 3771,-114 3973,-114 3973,-84 3771,-84"/>
<text text-anchor="start" x="3779" y="-102" font-family="Helvetica,sans-Serif" font-size="10.00">/travis/libpairinteraction</text>
<text text-anchor="middle" x="3872" y="-91" font-family="Helvetica,sans-Serif" font-size="10.00">/eigen/bench/spbench/spbenchsolver.h</text>
</a>
</g>
</g>
<!-- Node3&#45;&gt;Node35 -->
<g id="edge34" class="edge"><title>Node3&#45;&gt;Node35</title>
<path fill="none" stroke="midnightblue" d="M2483.66,-168.965C2740.01,-164.014 3512.29,-147.189 3762,-120 3775.51,-118.529 3789.85,-116.367 3803.57,-114.003"/>
<polygon fill="midnightblue" stroke="midnightblue" points="2483.23,-165.473 2473.3,-169.164 2483.37,-172.471 2483.23,-165.473"/>
</g>
<!-- Node37 -->
<g id="node35" class="node"><title>Node37</title>
<g id="a_node35"><a xlink:href="test__sparseLU_8cpp.html" target="_top" xlink:title="/travis/libpairinteraction\l/eigen/bench/spbench/test\l_sparseLU.cpp">
<polygon fill="none" stroke="black" points="3991.5,-78.5 3991.5,-119.5 4134.5,-119.5 4134.5,-78.5 3991.5,-78.5"/>
<text text-anchor="start" x="3999.5" y="-107.5" font-family="Helvetica,sans-Serif" font-size="10.00">/travis/libpairinteraction</text>
<text text-anchor="start" x="3999.5" y="-96.5" font-family="Helvetica,sans-Serif" font-size="10.00">/eigen/bench/spbench/test</text>
<text text-anchor="middle" x="4063" y="-85.5" font-family="Helvetica,sans-Serif" font-size="10.00">_sparseLU.cpp</text>
</a>
</g>
</g>
<!-- Node3&#45;&gt;Node37 -->
<g id="edge36" class="edge"><title>Node3&#45;&gt;Node37</title>
<path fill="none" stroke="midnightblue" d="M2483.41,-170.149C2766.36,-168.595 3688.4,-160.474 3982,-120 3985.01,-119.585 3988.08,-119.103 3991.16,-118.568"/>
<polygon fill="midnightblue" stroke="midnightblue" points="2483.19,-166.65 2473.21,-170.203 2483.23,-173.65 2483.19,-166.65"/>
</g>
<!-- Node38 -->
<g id="node36" class="node"><title>Node38</title>
<g id="a_node36"><a xlink:href="bench__svd_8cpp.html" target="_top" xlink:title="/travis/libpairinteraction\l/eigen/unsupported/bench\l/bench_svd.cpp">
<polygon fill="none" stroke="black" points="4153,-78.5 4153,-119.5 4295,-119.5 4295,-78.5 4153,-78.5"/>
<text text-anchor="start" x="4161" y="-107.5" font-family="Helvetica,sans-Serif" font-size="10.00">/travis/libpairinteraction</text>
<text text-anchor="start" x="4161" y="-96.5" font-family="Helvetica,sans-Serif" font-size="10.00">/eigen/unsupported/bench</text>
<text text-anchor="middle" x="4224" y="-85.5" font-family="Helvetica,sans-Serif" font-size="10.00">/bench_svd.cpp</text>
</a>
</g>
</g>
<!-- Node3&#45;&gt;Node38 -->
<g id="edge38" class="edge"><title>Node3&#45;&gt;Node38</title>
<path fill="none" stroke="midnightblue" d="M2483.62,-170.47C2785.36,-169.988 3817.42,-165.011 4144,-120 4146.84,-119.609 4149.72,-119.157 4152.62,-118.656"/>
<polygon fill="midnightblue" stroke="midnightblue" points="2483.2,-166.97 2473.2,-170.485 2483.21,-173.97 2483.2,-166.97"/>
</g>
<!-- Node5 -->
<g id="node3" class="node"><title>Node5</title>
<g id="a_node3"><a xlink:href="basicbenchmark_8cpp.html" target="_top" xlink:title="/travis/libpairinteraction\l/eigen/bench/basicbenchmark.cpp">
<polygon fill="none" stroke="black" points="0,-6 0,-36 180,-36 180,-6 0,-6"/>
<text text-anchor="start" x="8" y="-24" font-family="Helvetica,sans-Serif" font-size="10.00">/travis/libpairinteraction</text>
<text text-anchor="middle" x="90" y="-13" font-family="Helvetica,sans-Serif" font-size="10.00">/eigen/bench/basicbenchmark.cpp</text>
</a>
</g>
</g>
<!-- Node4&#45;&gt;Node5 -->
<g id="edge2" class="edge"><title>Node4&#45;&gt;Node5</title>
<path fill="none" stroke="midnightblue" d="M592.744,-90.9391C497.159,-81.8473 330.687,-64.5021 189,-42 178.09,-40.2673 166.554,-38.1762 155.361,-36.008"/>
<polygon fill="midnightblue" stroke="midnightblue" points="592.621,-94.443 602.906,-91.9 593.28,-87.4741 592.621,-94.443"/>
</g>
<!-- Node6 -->
<g id="node4" class="node"><title>Node6</title>
<g id="a_node4"><a xlink:href="bench__reverse_8cpp.html" target="_top" xlink:title="/travis/libpairinteraction\l/eigen/bench/bench_reverse.cpp">
<polygon fill="none" stroke="black" points="198,-6 198,-36 370,-36 370,-6 198,-6"/>
<text text-anchor="start" x="206" y="-24" font-family="Helvetica,sans-Serif" font-size="10.00">/travis/libpairinteraction</text>
<text text-anchor="middle" x="284" y="-13" font-family="Helvetica,sans-Serif" font-size="10.00">/eigen/bench/bench_reverse.cpp</text>
</a>
</g>
</g>
<!-- Node4&#45;&gt;Node6 -->
<g id="edge3" class="edge"><title>Node4&#45;&gt;Node6</title>
<path fill="none" stroke="midnightblue" d="M592.819,-83.4021C533.972,-72.3183 451.354,-56.553 379,-42 369.582,-40.1056 359.647,-38.0633 349.894,-36.0328"/>
<polygon fill="midnightblue" stroke="midnightblue" points="592.312,-86.8681 602.787,-85.2776 593.606,-79.9888 592.312,-86.8681"/>
</g>
<!-- Node7 -->
<g id="node5" class="node"><title>Node7</title>
<g id="a_node5"><a xlink:href="benchCholesky_8cpp.html" target="_top" xlink:title="/travis/libpairinteraction\l/eigen/bench/benchCholesky.cpp">
<polygon fill="none" stroke="black" points="388,-6 388,-36 560,-36 560,-6 388,-6"/>
<text text-anchor="start" x="396" y="-24" font-family="Helvetica,sans-Serif" font-size="10.00">/travis/libpairinteraction</text>
<text text-anchor="middle" x="474" y="-13" font-family="Helvetica,sans-Serif" font-size="10.00">/eigen/bench/benchCholesky.cpp</text>
</a>
</g>
</g>
<!-- Node4&#45;&gt;Node7 -->
<g id="edge4" class="edge"><title>Node4&#45;&gt;Node7</title>
<path fill="none" stroke="midnightblue" d="M624.911,-80.2193C589.994,-66.7488 542.679,-48.4956 510.397,-36.0413"/>
<polygon fill="midnightblue" stroke="midnightblue" points="623.818,-83.5492 634.407,-83.8831 626.337,-77.0183 623.818,-83.5492"/>
</g>
<!-- Node8 -->
<g id="node6" class="node"><title>Node8</title>
<g id="a_node6"><a xlink:href="benchEigenSolver_8cpp.html" target="_top" xlink:title="/travis/libpairinteraction\l/eigen/bench/benchEigenSolver.cpp">
<polygon fill="none" stroke="black" points="578,-6 578,-36 764,-36 764,-6 578,-6"/>
<text text-anchor="start" x="586" y="-24" font-family="Helvetica,sans-Serif" font-size="10.00">/travis/libpairinteraction</text>
<text text-anchor="middle" x="671" y="-13" font-family="Helvetica,sans-Serif" font-size="10.00">/eigen/bench/benchEigenSolver.cpp</text>
</a>
</g>
</g>
<!-- Node4&#45;&gt;Node8 -->
<g id="edge5" class="edge"><title>Node4&#45;&gt;Node8</title>
<path fill="none" stroke="midnightblue" d="M671,-73.5898C671,-61.2565 671,-46.7237 671,-36.2309"/>
<polygon fill="midnightblue" stroke="midnightblue" points="667.5,-73.7049 671,-83.705 674.5,-73.705 667.5,-73.7049"/>
</g>
<!-- Node9 -->
<g id="node7" class="node"><title>Node9</title>
<g id="a_node7"><a xlink:href="benchFFT_8cpp.html" target="_top" xlink:title="/travis/libpairinteraction\l/eigen/bench/benchFFT.cpp">
<polygon fill="none" stroke="black" points="782.5,-6 782.5,-36 927.5,-36 927.5,-6 782.5,-6"/>
<text text-anchor="start" x="790.5" y="-24" font-family="Helvetica,sans-Serif" font-size="10.00">/travis/libpairinteraction</text>
<text text-anchor="middle" x="855" y="-13" font-family="Helvetica,sans-Serif" font-size="10.00">/eigen/bench/benchFFT.cpp</text>
</a>
</g>
</g>
<!-- Node4&#45;&gt;Node9 -->
<g id="edge6" class="edge"><title>Node4&#45;&gt;Node9</title>
<path fill="none" stroke="midnightblue" d="M714.467,-80.0464C747.038,-66.5929 790.982,-48.4424 821.005,-36.0413"/>
<polygon fill="midnightblue" stroke="midnightblue" points="713.084,-76.8305 705.178,-83.8831 715.757,-83.3004 713.084,-76.8305"/>
</g>
<!-- Node4&#45;&gt;Node10 -->
<g id="edge7" class="edge"><title>Node4&#45;&gt;Node10</title>
<path fill="none" stroke="midnightblue" d="M747.791,-81.9225C812.8,-68.3118 905.047,-48.9984 967.081,-36.0106"/>
<polygon fill="midnightblue" stroke="midnightblue" points="747.073,-78.4968 738.003,-83.9719 748.508,-85.3483 747.073,-78.4968"/>
</g>
<!-- Node16&#45;&gt;Node10 -->
<g id="edge17" class="edge"><title>Node16&#45;&gt;Node10</title>
<path fill="none" stroke="midnightblue" d="M1837.22,-82.0725C1828.76,-80.4966 1820.2,-79.0827 1812,-78 1511.52,-38.3405 1431.61,-80.7122 1131,-42 1119.32,-40.4956 1106.94,-38.3644 1095.08,-36.0494"/>
<polygon fill="midnightblue" stroke="midnightblue" points="1836.59,-85.5168 1847.08,-83.987 1837.93,-78.6451 1836.59,-85.5168"/>
</g>
<!-- Node17 -->
<g id="node15" class="node"><title>Node17</title>
<g id="a_node15"><a xlink:href="sparse__cholesky_8cpp.html" target="_top" xlink:title="/travis/libpairinteraction\l/eigen/bench/sparse_cholesky.cpp">
<polygon fill="none" stroke="black" points="1140.5,-6 1140.5,-36 1319.5,-36 1319.5,-6 1140.5,-6"/>
<text text-anchor="start" x="1148.5" y="-24" font-family="Helvetica,sans-Serif" font-size="10.00">/travis/libpairinteraction</text>
<text text-anchor="middle" x="1230" y="-13" font-family="Helvetica,sans-Serif" font-size="10.00">/eigen/bench/sparse_cholesky.cpp</text>
</a>
</g>
</g>
<!-- Node16&#45;&gt;Node17 -->
<g id="edge14" class="edge"><title>Node16&#45;&gt;Node17</title>
<path fill="none" stroke="midnightblue" d="M1836.19,-82.0552C1828.06,-80.5236 1819.87,-79.1249 1812,-78 1598.91,-47.5315 1542.25,-71.3704 1329,-42 1317.45,-40.409 1305.22,-38.2951 1293.44,-36.0371"/>
<polygon fill="midnightblue" stroke="midnightblue" points="1835.56,-85.4977 1846.04,-83.98 1836.9,-78.6276 1835.56,-85.4977"/>
</g>
<!-- Node18 -->
<g id="node16" class="node"><title>Node18</title>
<g id="a_node16"><a xlink:href="sparse__dense__product_8cpp.html" target="_top" xlink:title="/travis/libpairinteraction\l/eigen/bench/sparse_dense\l_product.cpp">
<polygon fill="none" stroke="black" points="1338,-0.5 1338,-41.5 1486,-41.5 1486,-0.5 1338,-0.5"/>
<text text-anchor="start" x="1346" y="-29.5" font-family="Helvetica,sans-Serif" font-size="10.00">/travis/libpairinteraction</text>
<text text-anchor="start" x="1346" y="-18.5" font-family="Helvetica,sans-Serif" font-size="10.00">/eigen/bench/sparse_dense</text>
<text text-anchor="middle" x="1412" y="-7.5" font-family="Helvetica,sans-Serif" font-size="10.00">_product.cpp</text>
</a>
</g>
</g>
<!-- Node16&#45;&gt;Node18 -->
<g id="edge15" class="edge"><title>Node16&#45;&gt;Node18</title>
<path fill="none" stroke="midnightblue" d="M1834.36,-82.011C1826.83,-80.5537 1819.27,-79.1835 1812,-78 1672.05,-55.2192 1634.63,-66.6552 1495,-42 1492.08,-41.4845 1489.11,-40.9276 1486.12,-40.3387"/>
<polygon fill="midnightblue" stroke="midnightblue" points="1833.73,-85.4538 1844.22,-83.9686 1835.09,-78.5879 1833.73,-85.4538"/>
</g>
<!-- Node19 -->
<g id="node17" class="node"><title>Node19</title>
<g id="a_node17"><a xlink:href="sparse__lu_8cpp.html" target="_top" xlink:title="/travis/libpairinteraction\l/eigen/bench/sparse_lu.cpp">
<polygon fill="none" stroke="black" points="1504.5,-6 1504.5,-36 1651.5,-36 1651.5,-6 1504.5,-6"/>
<text text-anchor="start" x="1512.5" y="-24" font-family="Helvetica,sans-Serif" font-size="10.00">/travis/libpairinteraction</text>
<text text-anchor="middle" x="1578" y="-13" font-family="Helvetica,sans-Serif" font-size="10.00">/eigen/bench/sparse_lu.cpp</text>
</a>
</g>
</g>
<!-- Node16&#45;&gt;Node19 -->
<g id="edge16" class="edge"><title>Node16&#45;&gt;Node19</title>
<path fill="none" stroke="midnightblue" d="M1833.93,-81.7614C1785.1,-70.7 1719.12,-55.6438 1661,-42 1652.92,-40.103 1644.4,-38.0789 1636.03,-36.0741"/>
<polygon fill="midnightblue" stroke="midnightblue" points="1833.25,-85.1948 1843.77,-83.9889 1834.79,-78.3675 1833.25,-85.1948"/>
</g>
<!-- Node20 -->
<g id="node18" class="node"><title>Node20</title>
<g id="a_node18"><a xlink:href="sparse__randomsetter_8cpp.html" target="_top" xlink:title="/travis/libpairinteraction\l/eigen/bench/sparse_randomsetter.cpp">
<polygon fill="none" stroke="black" points="1670,-6 1670,-36 1874,-36 1874,-6 1670,-6"/>
<text text-anchor="start" x="1678" y="-24" font-family="Helvetica,sans-Serif" font-size="10.00">/travis/libpairinteraction</text>
<text text-anchor="middle" x="1772" y="-13" font-family="Helvetica,sans-Serif" font-size="10.00">/eigen/bench/sparse_randomsetter.cpp</text>
</a>
</g>
</g>
<!-- Node16&#45;&gt;Node20 -->
<g id="edge18" class="edge"><title>Node16&#45;&gt;Node20</title>
<path fill="none" stroke="midnightblue" d="M1872.19,-78.8214C1848.71,-65.5075 1817.97,-48.0698 1796.76,-36.0413"/>
<polygon fill="midnightblue" stroke="midnightblue" points="1870.68,-81.9941 1881.11,-83.8831 1874.14,-75.9052 1870.68,-81.9941"/>
</g>
<!-- Node21 -->
<g id="node19" class="node"><title>Node21</title>
<g id="a_node19"><a xlink:href="sparse__setter_8cpp.html" target="_top" xlink:title="/travis/libpairinteraction\l/eigen/bench/sparse_setter.cpp">
<polygon fill="none" stroke="black" points="1891.5,-6 1891.5,-36 2058.5,-36 2058.5,-6 1891.5,-6"/>
<text text-anchor="start" x="1899.5" y="-24" font-family="Helvetica,sans-Serif" font-size="10.00">/travis/libpairinteraction</text>
<text text-anchor="middle" x="1975" y="-13" font-family="Helvetica,sans-Serif" font-size="10.00">/eigen/bench/sparse_setter.cpp</text>
</a>
</g>
</g>
<!-- Node16&#45;&gt;Node21 -->
<g id="edge19" class="edge"><title>Node16&#45;&gt;Node21</title>
<path fill="none" stroke="midnightblue" d="M1925.82,-76.1707C1937.48,-63.3319 1951.88,-47.4656 1962.08,-36.2309"/>
<polygon fill="midnightblue" stroke="midnightblue" points="1923.11,-73.9485 1918.98,-83.705 1928.29,-78.6538 1923.11,-73.9485"/>
</g>
<!-- Node22 -->
<g id="node20" class="node"><title>Node22</title>
<g id="a_node20"><a xlink:href="sparse__transpose_8cpp.html" target="_top" xlink:title="/travis/libpairinteraction\l/eigen/bench/sparse_transpose.cpp">
<polygon fill="none" stroke="black" points="2076.5,-6 2076.5,-36 2263.5,-36 2263.5,-6 2076.5,-6"/>
<text text-anchor="start" x="2084.5" y="-24" font-family="Helvetica,sans-Serif" font-size="10.00">/travis/libpairinteraction</text>
<text text-anchor="middle" x="2170" y="-13" font-family="Helvetica,sans-Serif" font-size="10.00">/eigen/bench/sparse_transpose.cpp</text>
</a>
</g>
</g>
<!-- Node16&#45;&gt;Node22 -->
<g id="edge20" class="edge"><title>Node16&#45;&gt;Node22</title>
<path fill="none" stroke="midnightblue" d="M1964.47,-81.1666C2011.51,-67.6271 2076.82,-48.8231 2121.11,-36.0749"/>
<polygon fill="midnightblue" stroke="midnightblue" points="1963.37,-77.8419 1954.73,-83.9719 1965.31,-84.5688 1963.37,-77.8419"/>
</g>
<!-- Node23 -->
<g id="node21" class="node"><title>Node23</title>
<g id="a_node21"><a xlink:href="sparse__trisolver_8cpp.html" target="_top" xlink:title="/travis/libpairinteraction\l/eigen/bench/sparse_trisolver.cpp">
<polygon fill="none" stroke="black" points="2281,-6 2281,-36 2457,-36 2457,-6 2281,-6"/>
<text text-anchor="start" x="2289" y="-24" font-family="Helvetica,sans-Serif" font-size="10.00">/travis/libpairinteraction</text>
<text text-anchor="middle" x="2369" y="-13" font-family="Helvetica,sans-Serif" font-size="10.00">/eigen/bench/sparse_trisolver.cpp</text>
</a>
</g>
</g>
<!-- Node16&#45;&gt;Node23 -->
<g id="edge21" class="edge"><title>Node16&#45;&gt;Node23</title>
<path fill="none" stroke="midnightblue" d="M1982.43,-82.0418C1990.04,-80.6079 1997.67,-79.2339 2005,-78 2123.08,-58.1339 2153.96,-62.1021 2272,-42 2282.42,-40.2247 2293.44,-38.1482 2304.16,-36.0175"/>
<polygon fill="midnightblue" stroke="midnightblue" points="1981.62,-78.6341 1972.46,-83.9545 1982.94,-85.509 1981.62,-78.6341"/>
</g>
<!-- Node16&#45;&gt;Node24 -->
<g id="edge22" class="edge"><title>Node16&#45;&gt;Node24</title>
<path fill="none" stroke="midnightblue" d="M1979.46,-82.1295C1988.05,-80.5811 1996.7,-79.1582 2005,-78 2208.54,-49.5999 2263.54,-77.3102 2466,-42 2474.8,-40.4647 2484.08,-38.3339 2492.96,-36.0323"/>
<polygon fill="midnightblue" stroke="midnightblue" points="1978.63,-78.7236 1969.45,-83.9964 1979.92,-85.6052 1978.63,-78.7236"/>
</g>
<!-- Node36 -->
<g id="node34" class="node"><title>Node36</title>
<g id="a_node34"><a xlink:href="spbenchsolver_8cpp.html" target="_top" xlink:title="/travis/libpairinteraction\l/eigen/bench/spbench/spbenchsolver.cpp">
<polygon fill="none" stroke="black" points="3765.5,-6 3765.5,-36 3978.5,-36 3978.5,-6 3765.5,-6"/>
<text text-anchor="start" x="3773.5" y="-24" font-family="Helvetica,sans-Serif" font-size="10.00">/travis/libpairinteraction</text>
<text text-anchor="middle" x="3872" y="-13" font-family="Helvetica,sans-Serif" font-size="10.00">/eigen/bench/spbench/spbenchsolver.cpp</text>
</a>
</g>
</g>
<!-- Node35&#45;&gt;Node36 -->
<g id="edge35" class="edge"><title>Node35&#45;&gt;Node36</title>
<path fill="none" stroke="midnightblue" d="M3872,-73.5898C3872,-61.2565 3872,-46.7237 3872,-36.2309"/>
<polygon fill="midnightblue" stroke="midnightblue" points="3868.5,-73.7049 3872,-83.705 3875.5,-73.705 3868.5,-73.7049"/>
</g>
</g>
</svg>
        <g id="navigator" transform="translate(0 0)" fill="#404254">
                <rect fill="#f2f5e9" fill-opacity="0.5" stroke="#606060" stroke-width=".5" x="0" y="0" width="60" height="60"/>
                <use id="zoomplus" xlink:href="#zoomPlus" x="17" y="9" onmousedown="handleZoom(evt,'in')"/>
                <use id="zoomminus" xlink:href="#zoomMin" x="42" y="9" onmousedown="handleZoom(evt,'out')"/>
                <use id="reset" xlink:href="#resetDef" x="30" y="36" onmousedown="handleReset()"/>
                <g id="arrowUp" xlink:href="#dirArrow" transform="translate(30 24)" onmousedown="handlePan(0,-1)">
                  <use xlink:href="#rim" fill="#404040">
                        <set attributeName="fill" to="#808080" begin="arrowUp.mouseover" end="arrowUp.mouseout"/>
                  </use>
                  <path fill="none" stroke="white" stroke-width="1.5" d="M0,-3.0v7 M-2.5,-0.5L0,-3.0L2.5,-0.5"/>
                </g>
                <g id="arrowRight" xlink:href="#dirArrow" transform="rotate(90) translate(36 -43)" onmousedown="handlePan(1,0)">
                  <use xlink:href="#rim" fill="#404040">
                        <set attributeName="fill" to="#808080" begin="arrowRight.mouseover" end="arrowRight.mouseout"/>
                  </use>
                  <path fill="none" stroke="white" stroke-width="1.5" d="M0,-3.0v7 M-2.5,-0.5L0,-3.0L2.5,-0.5"/>
                </g>
                <g id="arrowDown" xlink:href="#dirArrow" transform="rotate(180) translate(-30 -48)" onmousedown="handlePan(0,1)">
                  <use xlink:href="#rim" fill="#404040">
                        <set attributeName="fill" to="#808080" begin="arrowDown.mouseover" end="arrowDown.mouseout"/>
                  </use>
                  <path fill="none" stroke="white" stroke-width="1.5" d="M0,-3.0v7 M-2.5,-0.5L0,-3.0L2.5,-0.5"/>
                </g>
                <g id="arrowLeft" xlink:href="#dirArrow" transform="rotate(270) translate(-36 17)" onmousedown="handlePan(-1,0)">
                  <use xlink:href="#rim" fill="#404040">
                        <set attributeName="fill" to="#808080" begin="arrowLeft.mouseover" end="arrowLeft.mouseout"/>
                  </use>
                  <path fill="none" stroke="white" stroke-width="1.5" d="M0,-3.0v7 M-2.5,-0.5L0,-3.0L2.5,-0.5"/>
                </g>
        </g>
        <svg viewBox="0 0 15 15" width="100%" height="30px" preserveAspectRatio="xMaxYMin meet">
         <g id="arrow_out" transform="scale(0.3 0.3)">
          <a xlink:href="BenchTimer_8h__dep__incl_org.svg" target="_base">
           <rect id="button" ry="5" rx="5" y="6" x="6" height="38" width="38"
                fill="#f2f5e9" fill-opacity="0.5" stroke="#606060" stroke-width="1.0"/>
           <path id="arrow"
             d="M 11.500037,31.436501 C 11.940474,20.09759 22.043105,11.32322 32.158766,21.979434 L 37.068811,17.246167 C 37.068811,17.246167 37.088388,32 37.088388,32 L 22.160133,31.978069 C 22.160133,31.978069 26.997745,27.140456 26.997745,27.140456 C 18.528582,18.264221 13.291696,25.230495 11.500037,31.436501 z"
             style="fill:#404040;"/>
          </a>
         </g>
        </svg>
</svg>
