<?xml version="1.0" encoding="UTF-8" standalone="no"?>
<!DOCTYPE svg PUBLIC "-//W3C//DTD SVG 1.1//EN"
 "http://www.w3.org/Graphics/SVG/1.1/DTD/svg11.dtd">
<!-- Generated by graphviz version 2.38.0 (20140413.2041)
 -->
<!-- Title: ctrsm Pages: 1 -->
<svg width="132pt" height="66pt"
 viewBox="0.00 0.00 132.00 66.00" xmlns="http://www.w3.org/2000/svg" xmlns:xlink="http://www.w3.org/1999/xlink">
<g id="graph0" class="graph" transform="scale(1 1) rotate(0) translate(4 62)">
<title>ctrsm</title>
<!-- Node244 -->
<g id="node1" class="node"><title>Node244</title>
<polygon fill="#bfbfbf" stroke="black" points="0,-19.5 0,-38.5 44,-38.5 44,-19.5 0,-19.5"/>
<text text-anchor="middle" x="22" y="-26.5" font-family="Helvetica,sans-Serif" font-size="10.00">ctrsm</text>
</g>
<!-- Node245 -->
<g id="node2" class="node"><title>Node245</title>
<g id="a_node2"><a xlink:href="cblat3_8f.html#afa4368523ad7b9b3ca526127d431675e" target="_top" xlink:title="cchk3">
<polygon fill="none" stroke="black" points="80,-38.5 80,-57.5 124,-57.5 124,-38.5 80,-38.5"/>
<text text-anchor="middle" x="102" y="-45.5" font-family="Helvetica,sans-Serif" font-size="10.00">cchk3</text>
</a>
</g>
</g>
<!-- Node244&#45;&gt;Node245 -->
<g id="edge1" class="edge"><title>Node244&#45;&gt;Node245</title>
<path fill="none" stroke="midnightblue" d="M54.1425,-36.586C62.8195,-38.6996 72.038,-40.9451 79.982,-42.8802"/>
<polygon fill="midnightblue" stroke="midnightblue" points="54.8581,-33.158 44.3138,-34.1918 53.2014,-39.9592 54.8581,-33.158"/>
</g>
<!-- Node246 -->
<g id="node3" class="node"><title>Node246</title>
<g id="a_node3"><a xlink:href="cblat3_8f.html#a442921d6b8d50c2e886d7a6c7fff3657" target="_top" xlink:title="cchke">
<polygon fill="none" stroke="black" points="80,-0.5 80,-19.5 124,-19.5 124,-0.5 80,-0.5"/>
<text text-anchor="middle" x="102" y="-7.5" font-family="Helvetica,sans-Serif" font-size="10.00">cchke</text>
</a>
</g>
</g>
<!-- Node244&#45;&gt;Node246 -->
<g id="edge2" class="edge"><title>Node244&#45;&gt;Node246</title>
<path fill="none" stroke="midnightblue" d="M54.1425,-21.414C62.8195,-19.3004 72.038,-17.0549 79.982,-15.1198"/>
<polygon fill="midnightblue" stroke="midnightblue" points="53.2014,-18.0408 44.3138,-23.8082 54.8581,-24.842 53.2014,-18.0408"/>
</g>
</g>
</svg>
