<?xml version="1.0" encoding="UTF-8" standalone="no"?>
<!DOCTYPE svg PUBLIC "-//W3C//DTD SVG 1.1//EN"
 "http://www.w3.org/Graphics/SVG/1.1/DTD/svg11.dtd">
<!-- Generated by graphviz version 2.38.0 (20140413.2041)
 -->
<!-- Title: ctrsv Pages: 1 -->
<svg width="210pt" height="66pt"
 viewBox="0.00 0.00 210.00 66.00" xmlns="http://www.w3.org/2000/svg" xmlns:xlink="http://www.w3.org/1999/xlink">
<g id="graph0" class="graph" transform="scale(1 1) rotate(0) translate(4 62)">
<title>ctrsv</title>
<!-- Node248 -->
<g id="node1" class="node"><title>Node248</title>
<polygon fill="#bfbfbf" stroke="black" points="0,-19.5 0,-38.5 40,-38.5 40,-19.5 0,-19.5"/>
<text text-anchor="middle" x="20" y="-26.5" font-family="Helvetica,sans-Serif" font-size="10.00">ctrsv</text>
</g>
<!-- Node249 -->
<g id="node2" class="node"><title>Node249</title>
<g id="a_node2"><a xlink:href="cblat2_8f.html#a222cb14025b5bfec61ab26975d9e38e0" target="_top" xlink:title="cchk3">
<polygon fill="none" stroke="black" points="76,-38.5 76,-57.5 120,-57.5 120,-38.5 76,-38.5"/>
<text text-anchor="middle" x="98" y="-45.5" font-family="Helvetica,sans-Serif" font-size="10.00">cchk3</text>
</a>
</g>
</g>
<!-- Node248&#45;&gt;Node249 -->
<g id="edge1" class="edge"><title>Node248&#45;&gt;Node249</title>
<path fill="none" stroke="midnightblue" d="M49.9195,-36.2299C58.5785,-38.3946 67.9058,-40.7264 75.9559,-42.739"/>
<polygon fill="midnightblue" stroke="midnightblue" points="50.7283,-32.8244 40.178,-33.7945 49.0305,-39.6154 50.7283,-32.8244"/>
</g>
<!-- Node252 -->
<g id="node5" class="node"><title>Node252</title>
<g id="a_node5"><a xlink:href="cblat2_8f.html#a442921d6b8d50c2e886d7a6c7fff3657" target="_top" xlink:title="cchke">
<polygon fill="none" stroke="black" points="76,-0.5 76,-19.5 120,-19.5 120,-0.5 76,-0.5"/>
<text text-anchor="middle" x="98" y="-7.5" font-family="Helvetica,sans-Serif" font-size="10.00">cchke</text>
</a>
</g>
</g>
<!-- Node248&#45;&gt;Node252 -->
<g id="edge4" class="edge"><title>Node248&#45;&gt;Node252</title>
<path fill="none" stroke="midnightblue" d="M49.9195,-21.7701C58.5785,-19.6054 67.9058,-17.2736 75.9559,-15.261"/>
<polygon fill="midnightblue" stroke="midnightblue" points="49.0305,-18.3846 40.178,-24.2055 50.7283,-25.1756 49.0305,-18.3846"/>
</g>
<!-- Node250 -->
<g id="node3" class="node"><title>Node250</title>
<g id="a_node3"><a xlink:href="cblat2_8f.html#a3a3c750016b421ea7a2616bdbf3dc1e2" target="_top" xlink:title="CBLAT2 ">
<polygon fill="none" stroke="black" points="156,-38.5 156,-57.5 202,-57.5 202,-38.5 156,-38.5"/>
<text text-anchor="middle" x="179" y="-45.5" font-family="Helvetica,sans-Serif" font-size="10.00">cblat2</text>
</a>
</g>
</g>
<!-- Node249&#45;&gt;Node250 -->
<g id="edge2" class="edge"><title>Node249&#45;&gt;Node250</title>
<path fill="none" stroke="midnightblue" d="M130.264,-48C138.855,-48 147.989,-48 155.943,-48"/>
<polygon fill="midnightblue" stroke="midnightblue" points="130.171,-44.5001 120.171,-48 130.171,-51.5001 130.171,-44.5001"/>
</g>
<!-- Node251 -->
<g id="node4" class="node"><title>Node251</title>
<g id="a_node4"><a xlink:href="cblat3_8f.html#a5e787fb59b00025ed8b1c227d3880c8b" target="_top" xlink:title="CBLAT3 ">
<polygon fill="none" stroke="black" points="156,-0.5 156,-19.5 202,-19.5 202,-0.5 156,-0.5"/>
<text text-anchor="middle" x="179" y="-7.5" font-family="Helvetica,sans-Serif" font-size="10.00">cblat3</text>
</a>
</g>
</g>
<!-- Node249&#45;&gt;Node251 -->
<g id="edge3" class="edge"><title>Node249&#45;&gt;Node251</title>
<path fill="none" stroke="midnightblue" d="M128.11,-33.9978C138.078,-29.2029 148.997,-23.9509 158.071,-19.5859"/>
<polygon fill="midnightblue" stroke="midnightblue" points="126.43,-30.9221 118.935,-38.411 129.464,-37.2303 126.43,-30.9221"/>
</g>
<!-- Node252&#45;&gt;Node250 -->
<g id="edge5" class="edge"><title>Node252&#45;&gt;Node250</title>
<path fill="none" stroke="midnightblue" d="M128.11,-24.0022C138.078,-28.7971 148.997,-34.0491 158.071,-38.4141"/>
<polygon fill="midnightblue" stroke="midnightblue" points="129.464,-20.7697 118.935,-19.589 126.43,-27.0779 129.464,-20.7697"/>
</g>
<!-- Node252&#45;&gt;Node251 -->
<g id="edge6" class="edge"><title>Node252&#45;&gt;Node251</title>
<path fill="none" stroke="midnightblue" d="M130.264,-10C138.855,-10 147.989,-10 155.943,-10"/>
<polygon fill="midnightblue" stroke="midnightblue" points="130.171,-6.5001 120.171,-10 130.171,-13.5001 130.171,-6.5001"/>
</g>
</g>
</svg>
