<?xml version="1.0" encoding="UTF-8" standalone="no"?>
<!DOCTYPE svg PUBLIC "-//W3C//DTD SVG 1.1//EN"
 "http://www.w3.org/Graphics/SVG/1.1/DTD/svg11.dtd">
<!-- Generated by graphviz version 2.38.0 (20140413.2041)
 -->
<!-- Title: ssyr Pages: 1 -->
<svg width="206pt" height="66pt"
 viewBox="0.00 0.00 206.00 66.00" xmlns="http://www.w3.org/2000/svg" xmlns:xlink="http://www.w3.org/1999/xlink">
<g id="graph0" class="graph" transform="scale(1 1) rotate(0) translate(4 62)">
<title>ssyr</title>
<!-- Node779 -->
<g id="node1" class="node"><title>Node779</title>
<polygon fill="#bfbfbf" stroke="black" points="0,-19.5 0,-38.5 36,-38.5 36,-19.5 0,-19.5"/>
<text text-anchor="middle" x="18" y="-26.5" font-family="Helvetica,sans-Serif" font-size="10.00">ssyr</text>
</g>
<!-- Node780 -->
<g id="node2" class="node"><title>Node780</title>
<g id="a_node2"><a xlink:href="sblat2_8f.html#a431e8080232dbe8ab951e5a396f22b02" target="_top" xlink:title="schk5">
<polygon fill="none" stroke="black" points="72,-38.5 72,-57.5 116,-57.5 116,-38.5 72,-38.5"/>
<text text-anchor="middle" x="94" y="-45.5" font-family="Helvetica,sans-Serif" font-size="10.00">schk5</text>
</a>
</g>
</g>
<!-- Node779&#45;&gt;Node780 -->
<g id="edge1" class="edge"><title>Node779&#45;&gt;Node780</title>
<path fill="none" stroke="midnightblue" d="M46.0681,-35.9499C54.6094,-38.1429 63.9132,-40.5318 71.9678,-42.5998"/>
<polygon fill="midnightblue" stroke="midnightblue" points="46.7194,-32.5037 36.1631,-33.4067 44.9785,-39.2838 46.7194,-32.5037"/>
</g>
<!-- Node783 -->
<g id="node5" class="node"><title>Node783</title>
<g id="a_node5"><a xlink:href="sblat2_8f.html#a1e23a9d74d4acf6f0a0c0944d653b213" target="_top" xlink:title="schke">
<polygon fill="none" stroke="black" points="72,-0.5 72,-19.5 116,-19.5 116,-0.5 72,-0.5"/>
<text text-anchor="middle" x="94" y="-7.5" font-family="Helvetica,sans-Serif" font-size="10.00">schke</text>
</a>
</g>
</g>
<!-- Node779&#45;&gt;Node783 -->
<g id="edge4" class="edge"><title>Node779&#45;&gt;Node783</title>
<path fill="none" stroke="midnightblue" d="M46.0681,-22.0501C54.6094,-19.8571 63.9132,-17.4682 71.9678,-15.4002"/>
<polygon fill="midnightblue" stroke="midnightblue" points="44.9785,-18.7162 36.1631,-24.5933 46.7194,-25.4963 44.9785,-18.7162"/>
</g>
<!-- Node781 -->
<g id="node3" class="node"><title>Node781</title>
<g id="a_node3"><a xlink:href="sblat2_8f.html#a69200e45d128ffb1e3014de8845f3933" target="_top" xlink:title="SBLAT2 ">
<polygon fill="none" stroke="black" points="152,-38.5 152,-57.5 198,-57.5 198,-38.5 152,-38.5"/>
<text text-anchor="middle" x="175" y="-45.5" font-family="Helvetica,sans-Serif" font-size="10.00">sblat2</text>
</a>
</g>
</g>
<!-- Node780&#45;&gt;Node781 -->
<g id="edge2" class="edge"><title>Node780&#45;&gt;Node781</title>
<path fill="none" stroke="midnightblue" d="M126.264,-48C134.855,-48 143.989,-48 151.943,-48"/>
<polygon fill="midnightblue" stroke="midnightblue" points="126.171,-44.5001 116.171,-48 126.171,-51.5001 126.171,-44.5001"/>
</g>
<!-- Node782 -->
<g id="node4" class="node"><title>Node782</title>
<g id="a_node4"><a xlink:href="sblat3_8f.html#aeec1d20ed538f1a0d9a200b8c8747fd2" target="_top" xlink:title="SBLAT3 ">
<polygon fill="none" stroke="black" points="152,-0.5 152,-19.5 198,-19.5 198,-0.5 152,-0.5"/>
<text text-anchor="middle" x="175" y="-7.5" font-family="Helvetica,sans-Serif" font-size="10.00">sblat3</text>
</a>
</g>
</g>
<!-- Node780&#45;&gt;Node782 -->
<g id="edge3" class="edge"><title>Node780&#45;&gt;Node782</title>
<path fill="none" stroke="midnightblue" d="M124.11,-33.9978C134.078,-29.2029 144.997,-23.9509 154.071,-19.5859"/>
<polygon fill="midnightblue" stroke="midnightblue" points="122.43,-30.9221 114.935,-38.411 125.464,-37.2303 122.43,-30.9221"/>
</g>
<!-- Node783&#45;&gt;Node781 -->
<g id="edge5" class="edge"><title>Node783&#45;&gt;Node781</title>
<path fill="none" stroke="midnightblue" d="M124.11,-24.0022C134.078,-28.7971 144.997,-34.0491 154.071,-38.4141"/>
<polygon fill="midnightblue" stroke="midnightblue" points="125.464,-20.7697 114.935,-19.589 122.43,-27.0779 125.464,-20.7697"/>
</g>
<!-- Node783&#45;&gt;Node782 -->
<g id="edge6" class="edge"><title>Node783&#45;&gt;Node782</title>
<path fill="none" stroke="midnightblue" d="M126.264,-10C134.855,-10 143.989,-10 151.943,-10"/>
<polygon fill="midnightblue" stroke="midnightblue" points="126.171,-6.5001 116.171,-10 126.171,-13.5001 126.171,-6.5001"/>
</g>
</g>
</svg>
