<?xml version="1.0" encoding="UTF-8" standalone="no"?>
<!DOCTYPE svg PUBLIC "-//W3C//DTD SVG 1.1//EN"
 "http://www.w3.org/Graphics/SVG/1.1/DTD/svg11.dtd">
<!-- Generated by graphviz version 2.38.0 (20140413.2041)
 -->
<!-- Title: zdscal Pages: 1 -->
<svg width="141pt" height="66pt"
 viewBox="0.00 0.00 141.00 66.00" xmlns="http://www.w3.org/2000/svg" xmlns:xlink="http://www.w3.org/1999/xlink">
<g id="graph0" class="graph" transform="scale(1 1) rotate(0) translate(4 62)">
<title>zdscal</title>
<!-- Node992 -->
<g id="node1" class="node"><title>Node992</title>
<polygon fill="#bfbfbf" stroke="black" points="0,-19.5 0,-38.5 47,-38.5 47,-19.5 0,-19.5"/>
<text text-anchor="middle" x="23.5" y="-26.5" font-family="Helvetica,sans-Serif" font-size="10.00">zdscal</text>
</g>
<!-- Node993 -->
<g id="node2" class="node"><title>Node993</title>
<g id="a_node2"><a xlink:href="zblat1_8f.html#a87cda69493417357e26ad280bc547317" target="_top" xlink:title="check1">
<polygon fill="none" stroke="black" points="83,-38.5 83,-57.5 133,-57.5 133,-38.5 83,-38.5"/>
<text text-anchor="middle" x="108" y="-45.5" font-family="Helvetica,sans-Serif" font-size="10.00">check1</text>
</a>
</g>
</g>
<!-- Node992&#45;&gt;Node993 -->
<g id="edge1" class="edge"><title>Node992&#45;&gt;Node993</title>
<path fill="none" stroke="midnightblue" d="M56.8269,-36.445C65.4573,-38.4326 74.635,-40.5462 82.7491,-42.4149"/>
<polygon fill="midnightblue" stroke="midnightblue" points="57.5739,-33.0255 47.0435,-34.1918 56.0029,-39.8469 57.5739,-33.0255"/>
</g>
<!-- Node994 -->
<g id="node3" class="node"><title>Node994</title>
<g id="a_node3"><a xlink:href="zlarfg_8f.html#af496f956f05bac0668fed468230355c7" target="_top" xlink:title="ZLARFG ">
<polygon fill="none" stroke="black" points="86.5,-0.5 86.5,-19.5 129.5,-19.5 129.5,-0.5 86.5,-0.5"/>
<text text-anchor="middle" x="108" y="-7.5" font-family="Helvetica,sans-Serif" font-size="10.00">zlarfg</text>
</a>
</g>
</g>
<!-- Node992&#45;&gt;Node994 -->
<g id="edge2" class="edge"><title>Node992&#45;&gt;Node994</title>
<path fill="none" stroke="midnightblue" d="M57.0235,-21.5097C66.9435,-19.2251 77.5691,-16.778 86.4609,-14.7302"/>
<polygon fill="midnightblue" stroke="midnightblue" points="56.0029,-18.1531 47.0435,-23.8082 57.5739,-24.9745 56.0029,-18.1531"/>
</g>
</g>
</svg>
