<?xml version="1.0" encoding="UTF-8" standalone="no"?>
<!DOCTYPE svg PUBLIC "-//W3C//DTD SVG 1.1//EN"
 "http://www.w3.org/Graphics/SVG/1.1/DTD/svg11.dtd">
<!-- Generated by graphviz version 2.38.0 (20140413.2041)
 -->
<!-- Title: SetBenchmarkFlopsProcessed Pages: 1 -->
<svg width="363pt" height="78pt"
 viewBox="0.00 0.00 363.00 77.50" xmlns="http://www.w3.org/2000/svg" xmlns:xlink="http://www.w3.org/1999/xlink">
<g id="graph0" class="graph" transform="scale(1 1) rotate(0) translate(4 73.5)">
<title>SetBenchmarkFlopsProcessed</title>
<!-- Node1 -->
<g id="node1" class="node"><title>Node1</title>
<polygon fill="#bfbfbf" stroke="black" points="0,-22.5 0,-41.5 162,-41.5 162,-22.5 0,-22.5"/>
<text text-anchor="middle" x="81" y="-29.5" font-family="Helvetica,sans-Serif" font-size="10.00">SetBenchmarkFlopsProcessed</text>
</g>
<!-- Node2 -->
<g id="node2" class="node"><title>Node2</title>
<g id="a_node2"><a xlink:href="classtesting_1_1Benchmark.html#ade815a2836cacda5dcb65c14691c1ead" target="_top" xlink:title="testing::Benchmark\l::Benchmark">
<polygon fill="none" stroke="black" points="221.5,-39 221.5,-69 331.5,-69 331.5,-39 221.5,-39"/>
<text text-anchor="start" x="229.5" y="-57" font-family="Helvetica,sans-Serif" font-size="10.00">testing::Benchmark</text>
<text text-anchor="middle" x="276.5" y="-46" font-family="Helvetica,sans-Serif" font-size="10.00">::Benchmark</text>
</a>
</g>
</g>
<!-- Node1&#45;&gt;Node2 -->
<g id="edge1" class="edge"><title>Node1&#45;&gt;Node2</title>
<path fill="none" stroke="midnightblue" d="M172.462,-42.2851C189.185,-44.1864 206.158,-46.1162 221.374,-47.8462"/>
<polygon fill="midnightblue" stroke="midnightblue" points="172.432,-38.7592 162.101,-41.107 171.641,-45.7144 172.432,-38.7592"/>
</g>
<!-- Node3 -->
<g id="node3" class="node"><title>Node3</title>
<g id="a_node3"><a xlink:href="classBenchmarkSuite.html#ae613f9d381021dc15dad6c86f55ee19b" target="_top" xlink:title="BenchmarkSuite::convolution">
<polygon fill="none" stroke="black" points="198,-0.5 198,-19.5 355,-19.5 355,-0.5 198,-0.5"/>
<text text-anchor="middle" x="276.5" y="-7.5" font-family="Helvetica,sans-Serif" font-size="10.00">BenchmarkSuite::convolution</text>
</a>
</g>
</g>
<!-- Node1&#45;&gt;Node3 -->
<g id="edge2" class="edge"><title>Node1&#45;&gt;Node3</title>
<path fill="none" stroke="midnightblue" d="M172.166,-21.7485C180.782,-20.7689 189.468,-19.7814 197.949,-18.8172"/>
<polygon fill="midnightblue" stroke="midnightblue" points="171.641,-18.2856 162.101,-22.893 172.432,-25.2408 171.641,-18.2856"/>
</g>
</g>
</svg>
