<?xml version="1.0" encoding="UTF-8" standalone="no"?>
<!DOCTYPE svg PUBLIC "-//W3C//DTD SVG 1.1//EN"
 "http://www.w3.org/Graphics/SVG/1.1/DTD/svg11.dtd">
<!-- Generated by graphviz version 2.38.0 (20140413.2041)
 -->
<!-- Title: pblueNorm Pages: 1 -->
<svg width="766pt" height="496pt"
 viewBox="0.00 0.00 766.00 495.50" xmlns="http://www.w3.org/2000/svg" xmlns:xlink="http://www.w3.org/1999/xlink">
<g id="graph0" class="graph" transform="scale(1 1) rotate(0) translate(4 491.5)">
<title>pblueNorm</title>
<!-- Node128 -->
<g id="node1" class="node"><title>Node128</title>
<polygon fill="#bfbfbf" stroke="black" points="0,-278 0,-297 70,-297 70,-278 0,-278"/>
<text text-anchor="middle" x="35" y="-285" font-family="Helvetica,sans-Serif" font-size="10.00">pblueNorm</text>
</g>
<!-- Node129 -->
<g id="node2" class="node"><title>Node129</title>
<g id="a_node2"><a xlink:href="ArrayCwiseUnaryOps_8h.html#a4921dbe62d034394f6fa7810e8711356" target="_top" xlink:title="abs2">
<polygon fill="none" stroke="black" points="151.5,-468 151.5,-487 191.5,-487 191.5,-468 151.5,-468"/>
<text text-anchor="middle" x="171.5" y="-475" font-family="Helvetica,sans-Serif" font-size="10.00">abs2</text>
</a>
</g>
</g>
<!-- Node128&#45;&gt;Node129 -->
<g id="edge1" class="edge"><title>Node128&#45;&gt;Node129</title>
<path fill="none" stroke="midnightblue" d="M37.0712,-297.289C40.7838,-326.388 55.7595,-413.143 106,-458.5 115.651,-467.212 129.112,-471.94 141.242,-474.502"/>
<polygon fill="midnightblue" stroke="midnightblue" points="140.984,-478.008 151.43,-476.24 142.162,-471.108 140.984,-478.008"/>
</g>
<!-- Node130 -->
<g id="node3" class="node"><title>Node130</title>
<g id="a_node3"><a xlink:href="namespaceEigen_1_1internal.html#a9fdd6f0bbf0e65f4b7f1d47a7b9e76c0" target="_top" xlink:title="Eigen::internal::pabs">
<polygon fill="none" stroke="black" points="114.5,-430 114.5,-449 228.5,-449 228.5,-430 114.5,-430"/>
<text text-anchor="middle" x="171.5" y="-437" font-family="Helvetica,sans-Serif" font-size="10.00">Eigen::internal::pabs</text>
</a>
</g>
</g>
<!-- Node128&#45;&gt;Node130 -->
<g id="edge2" class="edge"><title>Node128&#45;&gt;Node130</title>
<path fill="none" stroke="midnightblue" d="M38.301,-297.196C44.6263,-321.707 64.6229,-386.6 106,-420.5 108.054,-422.183 110.253,-423.717 112.554,-425.115"/>
<polygon fill="midnightblue" stroke="midnightblue" points="111.35,-428.43 121.848,-429.862 114.534,-422.197 111.35,-428.43"/>
</g>
<!-- Node131 -->
<g id="node4" class="node"><title>Node131</title>
<g id="a_node4"><a xlink:href="namespaceEigen_1_1internal.html#a0f50f3baa0dcc73cd1c0baa06e5c8c13" target="_top" xlink:title="Eigen::internal::padd">
<polygon fill="none" stroke="black" points="114,-392 114,-411 229,-411 229,-392 114,-392"/>
<text text-anchor="middle" x="171.5" y="-399" font-family="Helvetica,sans-Serif" font-size="10.00">Eigen::internal::padd</text>
</a>
</g>
</g>
<!-- Node128&#45;&gt;Node131 -->
<g id="edge3" class="edge"><title>Node128&#45;&gt;Node131</title>
<path fill="none" stroke="midnightblue" d="M40.4562,-297.207C49.7924,-316.456 73.2813,-359.578 106,-382.5 108.859,-384.503 111.931,-386.298 115.126,-387.905"/>
<polygon fill="midnightblue" stroke="midnightblue" points="113.819,-391.153 124.384,-391.956 116.626,-384.741 113.819,-391.153"/>
</g>
<!-- Node132 -->
<g id="node5" class="node"><title>Node132</title>
<g id="a_node5"><a xlink:href="namespaceEigen_1_1internal.html#addb183b5d88afb48c715db609ad8015e" target="_top" xlink:title="Eigen::internal::pand">
<polygon fill="none" stroke="black" points="114,-354 114,-373 229,-373 229,-354 114,-354"/>
<text text-anchor="middle" x="171.5" y="-361" font-family="Helvetica,sans-Serif" font-size="10.00">Eigen::internal::pand</text>
</a>
</g>
</g>
<!-- Node128&#45;&gt;Node132 -->
<g id="edge4" class="edge"><title>Node128&#45;&gt;Node132</title>
<path fill="none" stroke="midnightblue" d="M45.5192,-297.385C58.2063,-310.024 81.8744,-331.788 106,-344.5 110.231,-346.729 114.76,-348.732 119.383,-350.523"/>
<polygon fill="midnightblue" stroke="midnightblue" points="118.344,-353.868 128.939,-353.907 120.681,-347.269 118.344,-353.868"/>
</g>
<!-- Node133 -->
<g id="node6" class="node"><title>Node133</title>
<g id="a_node6"><a xlink:href="namespaceEigen_1_1internal.html#af0d93efd1718510bd216388a89d1e5d4" target="_top" xlink:title="Eigen::internal::pandnot">
<polygon fill="none" stroke="black" points="106,-316 106,-335 237,-335 237,-316 106,-316"/>
<text text-anchor="middle" x="171.5" y="-323" font-family="Helvetica,sans-Serif" font-size="10.00">Eigen::internal::pandnot</text>
</a>
</g>
</g>
<!-- Node128&#45;&gt;Node133 -->
<g id="edge5" class="edge"><title>Node128&#45;&gt;Node133</title>
<path fill="none" stroke="midnightblue" d="M69.94,-297.089C87.2231,-301.972 108.433,-307.964 126.911,-313.185"/>
<polygon fill="midnightblue" stroke="midnightblue" points="125.996,-316.563 136.571,-315.914 127.899,-309.827 125.996,-316.563"/>
</g>
<!-- Node134 -->
<g id="node7" class="node"><title>Node134</title>
<g id="a_node7"><a xlink:href="namespaceEigen_1_1internal.html#a776f5f4b514ecaed2a98db928b8f745f" target="_top" xlink:title="Eigen::internal::pmul">
<polygon fill="none" stroke="black" points="114,-278 114,-297 229,-297 229,-278 114,-278"/>
<text text-anchor="middle" x="171.5" y="-285" font-family="Helvetica,sans-Serif" font-size="10.00">Eigen::internal::pmul</text>
</a>
</g>
</g>
<!-- Node128&#45;&gt;Node134 -->
<g id="edge6" class="edge"><title>Node128&#45;&gt;Node134</title>
<path fill="none" stroke="midnightblue" d="M70.288,-287.5C80.5215,-287.5 92.1078,-287.5 103.677,-287.5"/>
<polygon fill="midnightblue" stroke="midnightblue" points="103.806,-291 113.806,-287.5 103.806,-284 103.806,-291"/>
</g>
<!-- Node135 -->
<g id="node8" class="node"><title>Node135</title>
<g id="a_node8"><a xlink:href="namespaceEigen_1_1half__impl.html#a829ad00a9c93131d5a8342b4ee29d83d" target="_top" xlink:title="Eigen::half_impl::pow">
<polygon fill="none" stroke="black" points="113.5,-240 113.5,-259 229.5,-259 229.5,-240 113.5,-240"/>
<text text-anchor="middle" x="171.5" y="-247" font-family="Helvetica,sans-Serif" font-size="10.00">Eigen::half_impl::pow</text>
</a>
</g>
</g>
<!-- Node128&#45;&gt;Node135 -->
<g id="edge7" class="edge"><title>Node128&#45;&gt;Node135</title>
<path fill="none" stroke="midnightblue" d="M69.94,-277.911C87.2231,-273.028 108.433,-267.036 126.911,-261.815"/>
<polygon fill="midnightblue" stroke="midnightblue" points="127.899,-265.173 136.571,-259.086 125.996,-258.437 127.899,-265.173"/>
</g>
<!-- Node136 -->
<g id="node9" class="node"><title>Node136</title>
<g id="a_node9"><a xlink:href="namespaceEigen_1_1internal.html#ab11dcee34f3106b94ec66fe576122a2a" target="_top" xlink:title="Eigen::internal::predux">
<polygon fill="none" stroke="black" points="109.5,-202 109.5,-221 233.5,-221 233.5,-202 109.5,-202"/>
<text text-anchor="middle" x="171.5" y="-209" font-family="Helvetica,sans-Serif" font-size="10.00">Eigen::internal::predux</text>
</a>
</g>
</g>
<!-- Node128&#45;&gt;Node136 -->
<g id="edge8" class="edge"><title>Node128&#45;&gt;Node136</title>
<path fill="none" stroke="midnightblue" d="M45.5192,-277.615C58.2063,-264.976 81.8744,-243.212 106,-230.5 110.231,-228.271 114.76,-226.268 119.383,-224.477"/>
<polygon fill="midnightblue" stroke="midnightblue" points="120.681,-227.731 128.939,-221.093 118.344,-221.132 120.681,-227.731"/>
</g>
<!-- Node137 -->
<g id="node10" class="node"><title>Node137</title>
<g id="a_node10"><a xlink:href="namespaceEigen_1_1internal.html#a55dafaacb3ca3978243f34a1e1a88d74" target="_top" xlink:title="Eigen::internal::radix">
<polygon fill="none" stroke="black" points="114.5,-164 114.5,-183 228.5,-183 228.5,-164 114.5,-164"/>
<text text-anchor="middle" x="171.5" y="-171" font-family="Helvetica,sans-Serif" font-size="10.00">Eigen::internal::radix</text>
</a>
</g>
</g>
<!-- Node128&#45;&gt;Node137 -->
<g id="edge9" class="edge"><title>Node128&#45;&gt;Node137</title>
<path fill="none" stroke="midnightblue" d="M40.4562,-277.793C49.7924,-258.544 73.2813,-215.422 106,-192.5 108.859,-190.497 111.931,-188.702 115.126,-187.095"/>
<polygon fill="midnightblue" stroke="midnightblue" points="116.626,-190.259 124.384,-183.044 113.819,-183.847 116.626,-190.259"/>
</g>
<!-- Node138 -->
<g id="node11" class="node"><title>Node138</title>
<g id="a_node11"><a xlink:href="matrix__functions_8h.html#af00b1950169db55b14a3a4abd7b9ee7b" target="_top" xlink:title="relerr">
<polygon fill="none" stroke="black" points="150.5,-88 150.5,-107 192.5,-107 192.5,-88 150.5,-88"/>
<text text-anchor="middle" x="171.5" y="-95" font-family="Helvetica,sans-Serif" font-size="10.00">relerr</text>
</a>
</g>
</g>
<!-- Node128&#45;&gt;Node138 -->
<g id="edge10" class="edge"><title>Node128&#45;&gt;Node138</title>
<path fill="none" stroke="midnightblue" d="M37.3741,-277.748C41.8516,-249.533 58.5719,-166.939 106,-121.5 115.342,-112.55 128.321,-106.877 140.188,-103.311"/>
<polygon fill="midnightblue" stroke="midnightblue" points="141.423,-106.606 150.212,-100.69 139.652,-99.8336 141.423,-106.606"/>
</g>
<!-- Node139 -->
<g id="node12" class="node"><title>Node139</title>
<g id="a_node12"><a xlink:href="ArrayCwiseUnaryOps_8h.html#a656b9217a2fcb6de59dc8d1eb3079cc7" target="_top" xlink:title="sqrt">
<polygon fill="none" stroke="black" points="309.5,-126 309.5,-145 344.5,-145 344.5,-126 309.5,-126"/>
<text text-anchor="middle" x="327" y="-133" font-family="Helvetica,sans-Serif" font-size="10.00">sqrt</text>
</a>
</g>
</g>
<!-- Node128&#45;&gt;Node139 -->
<g id="edge26" class="edge"><title>Node128&#45;&gt;Node139</title>
<path fill="none" stroke="midnightblue" d="M37.8435,-277.664C43.1825,-252.236 61.2231,-184.237 106,-154.5 165.596,-114.921 255.21,-122.949 299.41,-130.208"/>
<polygon fill="midnightblue" stroke="midnightblue" points="298.919,-133.675 309.374,-131.961 300.132,-126.781 298.919,-133.675"/>
</g>
<!-- Node138&#45;&gt;Node139 -->
<g id="edge11" class="edge"><title>Node138&#45;&gt;Node139</title>
<path fill="none" stroke="midnightblue" d="M192.567,-102.468C219.901,-109.234 268.905,-121.366 299.312,-128.893"/>
<polygon fill="midnightblue" stroke="midnightblue" points="298.678,-132.342 309.226,-131.347 300.36,-125.547 298.678,-132.342"/>
</g>
<!-- Node140 -->
<g id="node13" class="node"><title>Node140</title>
<g id="a_node13"><a xlink:href="MatrixCwiseUnaryOps_8h.html#a426713f88e0c1c0d6626fbadced4e9d7" target="_top" xlink:title="cwiseAbs2">
<polygon fill="none" stroke="black" points="294,-88 294,-107 360,-107 360,-88 294,-88"/>
<text text-anchor="middle" x="327" y="-95" font-family="Helvetica,sans-Serif" font-size="10.00">cwiseAbs2</text>
</a>
</g>
</g>
<!-- Node138&#45;&gt;Node140 -->
<g id="edge12" class="edge"><title>Node138&#45;&gt;Node140</title>
<path fill="none" stroke="midnightblue" d="M192.567,-97.5C215.612,-97.5 254.059,-97.5 283.78,-97.5"/>
<polygon fill="midnightblue" stroke="midnightblue" points="283.889,-101 293.889,-97.5 283.889,-94.0001 283.889,-101"/>
</g>
<!-- Node150 -->
<g id="node23" class="node"><title>Node150</title>
<g id="a_node23"><a xlink:href="namespacempfr.html#ae94ad8b45bc3c448549d7c094e7f24fd" target="_top" xlink:title="mpfr::sum">
<polygon fill="none" stroke="black" points="417,-31 417,-50 483,-50 483,-31 417,-31"/>
<text text-anchor="middle" x="450" y="-38" font-family="Helvetica,sans-Serif" font-size="10.00">mpfr::sum</text>
</a>
</g>
</g>
<!-- Node138&#45;&gt;Node150 -->
<g id="edge22" class="edge"><title>Node138&#45;&gt;Node150</title>
<path fill="none" stroke="midnightblue" d="M192.832,-93.3087C237.75,-84.0489 346.234,-61.685 406.627,-49.2351"/>
<polygon fill="midnightblue" stroke="midnightblue" points="407.517,-52.6254 416.604,-47.1784 406.103,-45.7696 407.517,-52.6254"/>
</g>
<!-- Node151 -->
<g id="node24" class="node"><title>Node151</title>
<g id="a_node24"><a xlink:href="classEigen_1_1MatrixBase.html#a60808fcf09547e14952957bbdf75d3c6" target="_top" xlink:title="Eigen::MatrixBase::\lcwiseAbs2">
<polygon fill="none" stroke="black" points="273,-0.5 273,-30.5 381,-30.5 381,-0.5 273,-0.5"/>
<text text-anchor="start" x="281" y="-18.5" font-family="Helvetica,sans-Serif" font-size="10.00">Eigen::MatrixBase::</text>
<text text-anchor="middle" x="327" y="-7.5" font-family="Helvetica,sans-Serif" font-size="10.00">cwiseAbs2</text>
</a>
</g>
</g>
<!-- Node138&#45;&gt;Node151 -->
<g id="edge25" class="edge"><title>Node138&#45;&gt;Node151</title>
<path fill="none" stroke="midnightblue" d="M190.409,-87.9331C214.45,-75.0902 257.742,-51.9637 288.95,-35.2924"/>
<polygon fill="midnightblue" stroke="midnightblue" points="290.637,-38.3592 297.808,-30.5602 287.339,-32.185 290.637,-38.3592"/>
</g>
<!-- Node141 -->
<g id="node14" class="node"><title>Node141</title>
<g id="a_node14"><a xlink:href="MatrixCwiseUnaryOps_8h.html#a0e379b45253546d07dcea81d8588297e" target="_top" xlink:title="cwiseSqrt">
<polygon fill="none" stroke="black" points="419,-107 419,-126 481,-126 481,-107 419,-107"/>
<text text-anchor="middle" x="450" y="-114" font-family="Helvetica,sans-Serif" font-size="10.00">cwiseSqrt</text>
</a>
</g>
</g>
<!-- Node140&#45;&gt;Node141 -->
<g id="edge13" class="edge"><title>Node140&#45;&gt;Node141</title>
<path fill="none" stroke="midnightblue" d="M360.108,-102.542C375.041,-104.887 392.958,-107.7 408.781,-110.185"/>
<polygon fill="midnightblue" stroke="midnightblue" points="408.403,-113.668 418.825,-111.762 409.489,-106.753 408.403,-113.668"/>
</g>
<!-- Node146 -->
<g id="node19" class="node"><title>Node146</title>
<g id="a_node19"><a xlink:href="ArrayCwiseUnaryOps_8h.html#aa1e484838873e960b8c8ba7e066ba837" target="_top" xlink:title="square">
<polygon fill="none" stroke="black" points="425,-145 425,-164 475,-164 475,-145 425,-145"/>
<text text-anchor="middle" x="450" y="-152" font-family="Helvetica,sans-Serif" font-size="10.00">square</text>
</a>
</g>
</g>
<!-- Node140&#45;&gt;Node146 -->
<g id="edge18" class="edge"><title>Node140&#45;&gt;Node146</title>
<path fill="none" stroke="midnightblue" d="M357.228,-107.002C365.053,-109.809 373.437,-113.06 381,-116.5 389.387,-120.315 408.11,-130.834 423.79,-139.84"/>
<polygon fill="midnightblue" stroke="midnightblue" points="422.159,-142.94 432.57,-144.906 425.657,-136.876 422.159,-142.94"/>
</g>
<!-- Node147 -->
<g id="node20" class="node"><title>Node147</title>
<g id="a_node20"><a xlink:href="namespacempfr.html#ad838087b4c59a17f714c4da9984aea66" target="_top" xlink:title="mpfr::root">
<polygon fill="none" stroke="black" points="417.5,-69 417.5,-88 482.5,-88 482.5,-69 417.5,-69"/>
<text text-anchor="middle" x="450" y="-76" font-family="Helvetica,sans-Serif" font-size="10.00">mpfr::root</text>
</a>
</g>
</g>
<!-- Node140&#45;&gt;Node147 -->
<g id="edge19" class="edge"><title>Node140&#45;&gt;Node147</title>
<path fill="none" stroke="midnightblue" d="M360.108,-92.4582C374.443,-90.2072 391.529,-87.5244 406.873,-85.115"/>
<polygon fill="midnightblue" stroke="midnightblue" points="407.826,-88.5084 417.162,-83.4994 406.74,-81.5931 407.826,-88.5084"/>
</g>
<!-- Node142 -->
<g id="node15" class="node"><title>Node142</title>
<g id="a_node15"><a xlink:href="MatrixCwiseUnaryOps_8h.html#a92d50e5a414332785a7e6b6ff406198c" target="_top" xlink:title="cwiseSign">
<polygon fill="none" stroke="black" points="550.5,-145 550.5,-164 613.5,-164 613.5,-145 550.5,-145"/>
<text text-anchor="middle" x="582" y="-152" font-family="Helvetica,sans-Serif" font-size="10.00">cwiseSign</text>
</a>
</g>
</g>
<!-- Node141&#45;&gt;Node142 -->
<g id="edge14" class="edge"><title>Node141&#45;&gt;Node142</title>
<path fill="none" stroke="midnightblue" d="M481.151,-125.313C498.78,-130.467 521.265,-137.039 540.432,-142.642"/>
<polygon fill="midnightblue" stroke="midnightblue" points="539.529,-146.024 550.109,-145.47 541.493,-139.305 539.529,-146.024"/>
</g>
<!-- Node145 -->
<g id="node18" class="node"><title>Node145</title>
<g id="a_node18"><a xlink:href="ArrayCwiseUnaryOps_8h.html#a281eccb624a3ff6dacbe305828e43a82" target="_top" xlink:title="sign">
<polygon fill="none" stroke="black" points="564,-107 564,-126 600,-126 600,-107 564,-107"/>
<text text-anchor="middle" x="582" y="-114" font-family="Helvetica,sans-Serif" font-size="10.00">sign</text>
</a>
</g>
</g>
<!-- Node141&#45;&gt;Node145 -->
<g id="edge17" class="edge"><title>Node141&#45;&gt;Node145</title>
<path fill="none" stroke="midnightblue" d="M481.151,-116.5C502.996,-116.5 532.296,-116.5 553.501,-116.5"/>
<polygon fill="midnightblue" stroke="midnightblue" points="553.771,-120 563.771,-116.5 553.771,-113 553.771,-120"/>
</g>
<!-- Node143 -->
<g id="node16" class="node"><title>Node143</title>
<g id="a_node16"><a xlink:href="MatrixCwiseUnaryOps_8h.html#a71265e72c85a2d90d349543171b150cb" target="_top" xlink:title="cwiseInverse">
<polygon fill="none" stroke="black" points="681,-164 681,-183 758,-183 758,-164 681,-164"/>
<text text-anchor="middle" x="719.5" y="-171" font-family="Helvetica,sans-Serif" font-size="10.00">cwiseInverse</text>
</a>
</g>
</g>
<!-- Node142&#45;&gt;Node143 -->
<g id="edge15" class="edge"><title>Node142&#45;&gt;Node143</title>
<path fill="none" stroke="midnightblue" d="M613.747,-158.811C630.559,-161.169 651.755,-164.141 670.676,-166.794"/>
<polygon fill="midnightblue" stroke="midnightblue" points="670.229,-170.265 680.618,-168.188 671.201,-163.333 670.229,-170.265"/>
</g>
<!-- Node144 -->
<g id="node17" class="node"><title>Node144</title>
<g id="a_node17"><a xlink:href="ArrayCwiseUnaryOps_8h.html#ab3df1b08b9c073db2a7e61a9b06bb295" target="_top" xlink:title="inverse">
<polygon fill="none" stroke="black" points="694,-126 694,-145 745,-145 745,-126 694,-126"/>
<text text-anchor="middle" x="719.5" y="-133" font-family="Helvetica,sans-Serif" font-size="10.00">inverse</text>
</a>
</g>
</g>
<!-- Node142&#45;&gt;Node144 -->
<g id="edge16" class="edge"><title>Node142&#45;&gt;Node144</title>
<path fill="none" stroke="midnightblue" d="M613.747,-150.189C634.549,-147.272 662.064,-143.414 683.674,-140.383"/>
<polygon fill="midnightblue" stroke="midnightblue" points="684.336,-143.825 693.753,-138.97 683.364,-136.893 684.336,-143.825"/>
</g>
<!-- Node148 -->
<g id="node21" class="node"><title>Node148</title>
<g id="a_node21"><a xlink:href="classmpfr_1_1mpreal.html#a566f64ca066c54923d19c11d6c3d15cd" target="_top" xlink:title="mpfr::mpreal::mpfr\l_srcptr">
<polygon fill="none" stroke="black" points="528.5,-19.5 528.5,-49.5 635.5,-49.5 635.5,-19.5 528.5,-19.5"/>
<text text-anchor="start" x="536.5" y="-37.5" font-family="Helvetica,sans-Serif" font-size="10.00">mpfr::mpreal::mpfr</text>
<text text-anchor="middle" x="582" y="-26.5" font-family="Helvetica,sans-Serif" font-size="10.00">_srcptr</text>
</a>
</g>
</g>
<!-- Node147&#45;&gt;Node148 -->
<g id="edge20" class="edge"><title>Node147&#45;&gt;Node148</title>
<path fill="none" stroke="midnightblue" d="M479.208,-68.9527C493.191,-64.2199 510.561,-58.3408 526.971,-52.7868"/>
<polygon fill="midnightblue" stroke="midnightblue" points="528.139,-56.0867 536.489,-49.5654 525.894,-49.4561 528.139,-56.0867"/>
</g>
<!-- Node149 -->
<g id="node22" class="node"><title>Node149</title>
<g id="a_node22"><a xlink:href="classmpfr_1_1mpreal.html#af4e3b56888463376c675cac70b6ceca3" target="_top" xlink:title="mpfr::mpreal::mpfr_ptr">
<polygon fill="none" stroke="black" points="519,-69 519,-88 645,-88 645,-69 519,-69"/>
<text text-anchor="middle" x="582" y="-76" font-family="Helvetica,sans-Serif" font-size="10.00">mpfr::mpreal::mpfr_ptr</text>
</a>
</g>
</g>
<!-- Node147&#45;&gt;Node149 -->
<g id="edge21" class="edge"><title>Node147&#45;&gt;Node149</title>
<path fill="none" stroke="midnightblue" d="M482.802,-78.5C490.721,-78.5 499.539,-78.5 508.55,-78.5"/>
<polygon fill="midnightblue" stroke="midnightblue" points="508.769,-82.0001 518.769,-78.5 508.769,-75.0001 508.769,-82.0001"/>
</g>
<!-- Node150&#45;&gt;Node148 -->
<g id="edge23" class="edge"><title>Node150&#45;&gt;Node148</title>
<path fill="none" stroke="midnightblue" d="M483.135,-39.0169C493.826,-38.5234 506.126,-37.9557 518.318,-37.393"/>
<polygon fill="midnightblue" stroke="midnightblue" points="518.668,-40.8807 528.496,-36.9233 518.345,-33.8881 518.668,-40.8807"/>
</g>
<!-- Node150&#45;&gt;Node149 -->
<g id="edge24" class="edge"><title>Node150&#45;&gt;Node149</title>
<path fill="none" stroke="midnightblue" d="M483.135,-49.8933C499.883,-54.7889 520.582,-60.8394 538.624,-66.1131"/>
<polygon fill="midnightblue" stroke="midnightblue" points="537.752,-69.5045 548.332,-68.9509 539.716,-62.7857 537.752,-69.5045"/>
</g>
</g>
</svg>
