<?xml version="1.0" encoding="UTF-8" standalone="no"?>
<!DOCTYPE svg PUBLIC "-//W3C//DTD SVG 1.1//EN"
 "http://www.w3.org/Graphics/SVG/1.1/DTD/svg11.dtd">
<!-- Generated by graphviz version 2.38.0 (20140413.2041)
 -->
<!-- Title: dspmv Pages: 1 -->
<svg width="221pt" height="66pt"
 viewBox="0.00 0.00 221.00 66.00" xmlns="http://www.w3.org/2000/svg" xmlns:xlink="http://www.w3.org/1999/xlink">
<g id="graph0" class="graph" transform="scale(1 1) rotate(0) translate(4 62)">
<title>dspmv</title>
<!-- Node366 -->
<g id="node1" class="node"><title>Node366</title>
<polygon fill="#bfbfbf" stroke="black" points="0,-19.5 0,-38.5 49,-38.5 49,-19.5 0,-19.5"/>
<text text-anchor="middle" x="24.5" y="-26.5" font-family="Helvetica,sans-Serif" font-size="10.00">dspmv</text>
</g>
<!-- Node367 -->
<g id="node2" class="node"><title>Node367</title>
<g id="a_node2"><a xlink:href="dblat2_8f.html#a3589e340665ad60c229f4efdc79a6229" target="_top" xlink:title="dchk2">
<polygon fill="none" stroke="black" points="85,-38.5 85,-57.5 130,-57.5 130,-38.5 85,-38.5"/>
<text text-anchor="middle" x="107.5" y="-45.5" font-family="Helvetica,sans-Serif" font-size="10.00">dchk2</text>
</a>
</g>
</g>
<!-- Node366&#45;&gt;Node367 -->
<g id="edge1" class="edge"><title>Node366&#45;&gt;Node367</title>
<path fill="none" stroke="midnightblue" d="M59.2043,-36.906C67.8354,-38.9305 76.8903,-41.0545 84.7402,-42.8959"/>
<polygon fill="midnightblue" stroke="midnightblue" points="59.8996,-33.4741 49.3646,-34.5979 58.301,-40.2891 59.8996,-33.4741"/>
</g>
<!-- Node370 -->
<g id="node5" class="node"><title>Node370</title>
<g id="a_node5"><a xlink:href="dblat2_8f.html#a9e9fa2f6b42c5bbdde09d50fffaafc4e" target="_top" xlink:title="dchke">
<polygon fill="none" stroke="black" points="85,-0.5 85,-19.5 130,-19.5 130,-0.5 85,-0.5"/>
<text text-anchor="middle" x="107.5" y="-7.5" font-family="Helvetica,sans-Serif" font-size="10.00">dchke</text>
</a>
</g>
</g>
<!-- Node366&#45;&gt;Node370 -->
<g id="edge4" class="edge"><title>Node366&#45;&gt;Node370</title>
<path fill="none" stroke="midnightblue" d="M59.2043,-21.094C67.8354,-19.0695 76.8903,-16.9455 84.7402,-15.1041"/>
<polygon fill="midnightblue" stroke="midnightblue" points="58.301,-17.7109 49.3646,-23.4021 59.8996,-24.5259 58.301,-17.7109"/>
</g>
<!-- Node368 -->
<g id="node3" class="node"><title>Node368</title>
<g id="a_node3"><a xlink:href="dblat2_8f.html#a7003ac6a725228e895e4e675b3ef1775" target="_top" xlink:title="DBLAT2 ">
<polygon fill="none" stroke="black" points="166,-38.5 166,-57.5 213,-57.5 213,-38.5 166,-38.5"/>
<text text-anchor="middle" x="189.5" y="-45.5" font-family="Helvetica,sans-Serif" font-size="10.00">dblat2</text>
</a>
</g>
</g>
<!-- Node367&#45;&gt;Node368 -->
<g id="edge2" class="edge"><title>Node367&#45;&gt;Node368</title>
<path fill="none" stroke="midnightblue" d="M140.382,-48C148.896,-48 157.923,-48 165.829,-48"/>
<polygon fill="midnightblue" stroke="midnightblue" points="140.36,-44.5001 130.36,-48 140.36,-51.5001 140.36,-44.5001"/>
</g>
<!-- Node369 -->
<g id="node4" class="node"><title>Node369</title>
<g id="a_node4"><a xlink:href="dblat3_8f.html#a797f4debf4a6bff750260b5347fb61ed" target="_top" xlink:title="DBLAT3 ">
<polygon fill="none" stroke="black" points="166,-0.5 166,-19.5 213,-19.5 213,-0.5 166,-0.5"/>
<text text-anchor="middle" x="189.5" y="-7.5" font-family="Helvetica,sans-Serif" font-size="10.00">dblat3</text>
</a>
</g>
</g>
<!-- Node367&#45;&gt;Node369 -->
<g id="edge3" class="edge"><title>Node367&#45;&gt;Node369</title>
<path fill="none" stroke="midnightblue" d="M137.978,-33.9978C148.073,-29.2029 159.13,-23.9509 168.319,-19.5859"/>
<polygon fill="midnightblue" stroke="midnightblue" points="136.218,-30.9589 128.687,-38.411 139.222,-37.2818 136.218,-30.9589"/>
</g>
<!-- Node370&#45;&gt;Node368 -->
<g id="edge5" class="edge"><title>Node370&#45;&gt;Node368</title>
<path fill="none" stroke="midnightblue" d="M137.978,-24.0022C148.073,-28.7971 159.13,-34.0491 168.319,-38.4141"/>
<polygon fill="midnightblue" stroke="midnightblue" points="139.222,-20.7182 128.687,-19.589 136.218,-27.0411 139.222,-20.7182"/>
</g>
<!-- Node370&#45;&gt;Node369 -->
<g id="edge6" class="edge"><title>Node370&#45;&gt;Node369</title>
<path fill="none" stroke="midnightblue" d="M140.382,-10C148.896,-10 157.923,-10 165.829,-10"/>
<polygon fill="midnightblue" stroke="midnightblue" points="140.36,-6.5001 130.36,-10 140.36,-13.5001 140.36,-6.5001"/>
</g>
</g>
</svg>
