<?xml version="1.0" encoding="UTF-8" standalone="no"?>
<!DOCTYPE svg PUBLIC "-//W3C//DTD SVG 1.1//EN"
 "http://www.w3.org/Graphics/SVG/1.1/DTD/svg11.dtd">
<!-- Generated by graphviz version 2.38.0 (20140413.2041)
 -->
<!-- Title: initMatrix_random Pages: 1 -->
<svg width="630pt" height="158pt"
 viewBox="0.00 0.00 630.00 157.58" xmlns="http://www.w3.org/2000/svg" xmlns:xlink="http://www.w3.org/1999/xlink">
<g id="graph0" class="graph" transform="scale(1 1) rotate(0) translate(4 153.583)">
<title>initMatrix_random</title>
<!-- Node5 -->
<g id="node1" class="node"><title>Node5</title>
<polygon fill="#bfbfbf" stroke="black" points="0,-53 0,-72 103,-72 103,-53 0,-53"/>
<text text-anchor="middle" x="51.5" y="-60" font-family="Helvetica,sans-Serif" font-size="10.00">initMatrix_random</text>
</g>
<!-- Node6 -->
<g id="node2" class="node"><title>Node6</title>
<g id="a_node2"><a xlink:href="bench__reverse_8cpp.html#af57f208bfabc394dd45616e63728dce0" target="_top" xlink:title="__attribute__">
<polygon fill="none" stroke="black" points="150,-72 150,-91 229,-91 229,-72 150,-72"/>
<text text-anchor="middle" x="189.5" y="-79" font-family="Helvetica,sans-Serif" font-size="10.00">__attribute__</text>
</a>
</g>
</g>
<!-- Node5&#45;&gt;Node6 -->
<g id="edge1" class="edge"><title>Node5&#45;&gt;Node6</title>
<path fill="none" stroke="midnightblue" d="M103.141,-69.5749C115.057,-71.2396 127.735,-73.0108 139.574,-74.6647"/>
<polygon fill="midnightblue" stroke="midnightblue" points="139.333,-78.165 149.721,-76.0824 140.302,-71.2323 139.333,-78.165"/>
</g>
<!-- Node13 -->
<g id="node9" class="node"><title>Node13</title>
<g id="a_node9"><a xlink:href="BenchUtil_8h.html#aaca223bd1c2ca240cbceda872c77b21c" target="_top" xlink:title="initMatrix_identity">
<polygon fill="none" stroke="black" points="139,-34 139,-53 240,-53 240,-34 139,-34"/>
<text text-anchor="middle" x="189.5" y="-41" font-family="Helvetica,sans-Serif" font-size="10.00">initMatrix_identity</text>
</a>
</g>
</g>
<!-- Node5&#45;&gt;Node13 -->
<g id="edge12" class="edge"><title>Node5&#45;&gt;Node13</title>
<path fill="none" stroke="midnightblue" d="M103.141,-55.4251C111.501,-54.2573 120.235,-53.037 128.791,-51.8416"/>
<polygon fill="midnightblue" stroke="midnightblue" points="129.302,-55.3044 138.721,-50.4544 128.333,-48.3718 129.302,-55.3044"/>
</g>
<!-- Node7 -->
<g id="node3" class="node"><title>Node7</title>
<g id="a_node3"><a xlink:href="Cwise__array__power__array_8cpp.html#aa9e3025f5efca2c2a39d785652f2d710" target="_top" xlink:title="e">
<polygon fill="none" stroke="black" points="593,-94 593,-113 622,-113 622,-94 593,-94"/>
<text text-anchor="middle" x="607.5" y="-101" font-family="Helvetica,sans-Serif" font-size="10.00">e</text>
</a>
</g>
</g>
<!-- Node6&#45;&gt;Node7 -->
<g id="edge2" class="edge"><title>Node6&#45;&gt;Node7</title>
<path fill="none" stroke="midnightblue" d="M203.274,-91.0173C219.291,-102.3 248.05,-120.459 276,-127.5 397.105,-158.01 435.279,-155.452 557,-127.5 566.233,-125.38 575.742,-121.3 583.927,-117.097"/>
<polygon fill="midnightblue" stroke="midnightblue" points="585.745,-120.092 592.832,-112.216 582.381,-113.953 585.745,-120.092"/>
</g>
<!-- Node8 -->
<g id="node4" class="node"><title>Node8</title>
<g id="a_node4"><a xlink:href="classEigen_1_1BenchTimer.html#a6b01cc1c0408353022174b867ab29dc9" target="_top" xlink:title="Eigen::BenchTimer::\lstart">
<polygon fill="none" stroke="black" points="286.5,-88.5 286.5,-118.5 398.5,-118.5 398.5,-88.5 286.5,-88.5"/>
<text text-anchor="start" x="294.5" y="-106.5" font-family="Helvetica,sans-Serif" font-size="10.00">Eigen::BenchTimer::</text>
<text text-anchor="middle" x="342.5" y="-95.5" font-family="Helvetica,sans-Serif" font-size="10.00">start</text>
</a>
</g>
</g>
<!-- Node6&#45;&gt;Node8 -->
<g id="edge3" class="edge"><title>Node6&#45;&gt;Node8</title>
<path fill="none" stroke="midnightblue" d="M229.386,-87.1655C243.579,-89.2334 260.05,-91.6331 275.925,-93.946"/>
<polygon fill="midnightblue" stroke="midnightblue" points="275.841,-97.4706 286.241,-95.449 276.85,-90.5438 275.841,-97.4706"/>
</g>
<!-- Node11 -->
<g id="node7" class="node"><title>Node11</title>
<g id="a_node7"><a xlink:href="classEigen_1_1BenchTimer.html#a367e14b2e9c1ab6d3f0ff7bcfcd5ee37" target="_top" xlink:title="Eigen::BenchTimer::stop">
<polygon fill="none" stroke="black" points="276,-50 276,-69 409,-69 409,-50 276,-50"/>
<text text-anchor="middle" x="342.5" y="-57" font-family="Helvetica,sans-Serif" font-size="10.00">Eigen::BenchTimer::stop</text>
</a>
</g>
</g>
<!-- Node6&#45;&gt;Node11 -->
<g id="edge8" class="edge"><title>Node6&#45;&gt;Node11</title>
<path fill="none" stroke="midnightblue" d="M229.386,-75.8345C240.625,-74.197 253.292,-72.3514 265.961,-70.5057"/>
<polygon fill="midnightblue" stroke="midnightblue" points="266.703,-73.9346 276.094,-69.0293 265.694,-67.0077 266.703,-73.9346"/>
</g>
<!-- Node12 -->
<g id="node8" class="node"><title>Node12</title>
<g id="a_node8"><a xlink:href="classEigen_1_1BenchTimer.html#a26760f963ed8b64c126159bfea57735e" target="_top" xlink:title="Eigen::BenchTimer::\lvalue">
<polygon fill="none" stroke="black" points="286.5,-0.5 286.5,-30.5 398.5,-30.5 398.5,-0.5 286.5,-0.5"/>
<text text-anchor="start" x="294.5" y="-18.5" font-family="Helvetica,sans-Serif" font-size="10.00">Eigen::BenchTimer::</text>
<text text-anchor="middle" x="342.5" y="-7.5" font-family="Helvetica,sans-Serif" font-size="10.00">value</text>
</a>
</g>
</g>
<!-- Node6&#45;&gt;Node12 -->
<g id="edge11" class="edge"><title>Node6&#45;&gt;Node12</title>
<path fill="none" stroke="midnightblue" d="M218.115,-71.92C225.349,-69.1353 233.063,-65.9156 240,-62.5 256.823,-54.2171 259.17,-48.767 276,-40.5 280.281,-38.3971 284.786,-36.3522 289.347,-34.3968"/>
<polygon fill="midnightblue" stroke="midnightblue" points="290.826,-37.5727 298.731,-30.5189 288.153,-31.1033 290.826,-37.5727"/>
</g>
<!-- Node9 -->
<g id="node5" class="node"><title>Node9</title>
<g id="a_node5"><a xlink:href="classEigen_1_1BenchTimer.html#a5e1faf3cf0c7958128fc4ad10377f51c" target="_top" xlink:title="Eigen::BenchTimer::\lgetCpuTime">
<polygon fill="none" stroke="black" points="445,-39.5 445,-69.5 557,-69.5 557,-39.5 445,-39.5"/>
<text text-anchor="start" x="453" y="-57.5" font-family="Helvetica,sans-Serif" font-size="10.00">Eigen::BenchTimer::</text>
<text text-anchor="middle" x="501" y="-46.5" font-family="Helvetica,sans-Serif" font-size="10.00">getCpuTime</text>
</a>
</g>
</g>
<!-- Node8&#45;&gt;Node9 -->
<g id="edge4" class="edge"><title>Node8&#45;&gt;Node9</title>
<path fill="none" stroke="midnightblue" d="M391.732,-88.3986C407.723,-83.3917 425.686,-77.7676 442.315,-72.561"/>
<polygon fill="midnightblue" stroke="midnightblue" points="443.43,-75.8797 451.927,-69.5516 441.338,-69.1995 443.43,-75.8797"/>
</g>
<!-- Node10 -->
<g id="node6" class="node"><title>Node10</title>
<g id="a_node6"><a xlink:href="classEigen_1_1BenchTimer.html#af215200501091952ffa5e919fe31cfca" target="_top" xlink:title="Eigen::BenchTimer::\lgetRealTime">
<polygon fill="none" stroke="black" points="445,-88.5 445,-118.5 557,-118.5 557,-88.5 445,-88.5"/>
<text text-anchor="start" x="453" y="-106.5" font-family="Helvetica,sans-Serif" font-size="10.00">Eigen::BenchTimer::</text>
<text text-anchor="middle" x="501" y="-95.5" font-family="Helvetica,sans-Serif" font-size="10.00">getRealTime</text>
</a>
</g>
</g>
<!-- Node8&#45;&gt;Node10 -->
<g id="edge6" class="edge"><title>Node8&#45;&gt;Node10</title>
<path fill="none" stroke="midnightblue" d="M398.676,-103.5C410.247,-103.5 422.557,-103.5 434.464,-103.5"/>
<polygon fill="midnightblue" stroke="midnightblue" points="434.795,-107 444.795,-103.5 434.795,-100 434.795,-107"/>
</g>
<!-- Node9&#45;&gt;Node7 -->
<g id="edge5" class="edge"><title>Node9&#45;&gt;Node7</title>
<path fill="none" stroke="midnightblue" d="M537.341,-69.5716C543.906,-72.4701 550.683,-75.5296 557,-78.5 565.767,-82.6226 575.29,-87.3668 583.619,-91.6071"/>
<polygon fill="midnightblue" stroke="midnightblue" points="582.239,-94.8324 592.733,-96.2857 585.436,-88.6051 582.239,-94.8324"/>
</g>
<!-- Node10&#45;&gt;Node7 -->
<g id="edge7" class="edge"><title>Node10&#45;&gt;Node7</title>
<path fill="none" stroke="midnightblue" d="M557.004,-103.5C566.095,-103.5 575.074,-103.5 582.836,-103.5"/>
<polygon fill="midnightblue" stroke="midnightblue" points="582.885,-107 592.885,-103.5 582.885,-100 582.885,-107"/>
</g>
<!-- Node11&#45;&gt;Node9 -->
<g id="edge9" class="edge"><title>Node11&#45;&gt;Node9</title>
<path fill="none" stroke="midnightblue" d="M409.417,-57.394C417.731,-57.1284 426.236,-56.8567 434.543,-56.5913"/>
<polygon fill="midnightblue" stroke="midnightblue" points="434.669,-60.0891 444.552,-56.2715 434.445,-53.0927 434.669,-60.0891"/>
</g>
<!-- Node11&#45;&gt;Node10 -->
<g id="edge10" class="edge"><title>Node11&#45;&gt;Node10</title>
<path fill="none" stroke="midnightblue" d="M377.458,-69.0473C394.764,-73.9128 416.378,-79.9898 436.616,-85.6796"/>
<polygon fill="midnightblue" stroke="midnightblue" points="435.841,-89.0974 446.415,-88.4346 437.736,-82.3586 435.841,-89.0974"/>
</g>
</g>
</svg>
