<?xml version="1.0" encoding="UTF-8" standalone="no"?>
<!DOCTYPE svg PUBLIC "-//W3C//DTD SVG 1.1//EN"
 "http://www.w3.org/Graphics/SVG/1.1/DTD/svg11.dtd">
<!-- Generated by graphviz version 2.38.0 (20140413.2041)
 -->
<!-- Title: /travis/libpairinteraction/eigen/bench/benchVecAdd.cpp Pages: 1 -->
<svg width="238pt" height="151pt"
 viewBox="0.00 0.00 237.50 151.00" xmlns="http://www.w3.org/2000/svg" xmlns:xlink="http://www.w3.org/1999/xlink">
<g id="graph0" class="graph" transform="scale(1 1) rotate(0) translate(4 147)">
<title>/travis/libpairinteraction/eigen/bench/benchVecAdd.cpp</title>
<!-- Node0 -->
<g id="node1" class="node"><title>Node0</title>
<polygon fill="#bfbfbf" stroke="black" points="4,-112.5 4,-142.5 171,-142.5 171,-112.5 4,-112.5"/>
<text text-anchor="start" x="12" y="-130.5" font-family="Helvetica,sans-Serif" font-size="10.00">/travis/libpairinteraction</text>
<text text-anchor="middle" x="87.5" y="-119.5" font-family="Helvetica,sans-Serif" font-size="10.00">/eigen/bench/benchVecAdd.cpp</text>
</g>
<!-- Node1 -->
<g id="node2" class="node"><title>Node1</title>
<polygon fill="none" stroke="#bfbfbf" points="0,-56.5 0,-75.5 59,-75.5 59,-56.5 0,-56.5"/>
<text text-anchor="middle" x="29.5" y="-63.5" font-family="Helvetica,sans-Serif" font-size="10.00">iostream</text>
</g>
<!-- Node0&#45;&gt;Node1 -->
<g id="edge1" class="edge"><title>Node0&#45;&gt;Node1</title>
<path fill="none" stroke="midnightblue" d="M73.7548,-112.399C65.1529,-103.575 54.0479,-92.1827 45.114,-83.0178"/>
<polygon fill="midnightblue" stroke="midnightblue" points="47.426,-80.3755 37.9395,-75.6578 42.4135,-85.2616 47.426,-80.3755"/>
</g>
<!-- Node2 -->
<g id="node3" class="node"><title>Node2</title>
<polygon fill="none" stroke="#bfbfbf" points="55.5,-0.5 55.5,-19.5 123.5,-19.5 123.5,-0.5 55.5,-0.5"/>
<text text-anchor="middle" x="89.5" y="-7.5" font-family="Helvetica,sans-Serif" font-size="10.00">Eigen/Core</text>
</g>
<!-- Node0&#45;&gt;Node2 -->
<g id="edge2" class="edge"><title>Node0&#45;&gt;Node2</title>
<path fill="none" stroke="midnightblue" d="M87.7452,-112.337C88.104,-91.6217 88.7724,-53.0162 89.1727,-29.8991"/>
<polygon fill="midnightblue" stroke="midnightblue" points="92.6761,-29.7286 89.3499,-19.6695 85.6772,-29.6073 92.6761,-29.7286"/>
</g>
<!-- Node3 -->
<g id="node4" class="node"><title>Node3</title>
<g id="a_node4"><a xlink:href="BenchTimer_8h.html" target="_top" xlink:title="bench/BenchTimer.h">
<polygon fill="none" stroke="black" points="115.5,-56.5 115.5,-75.5 229.5,-75.5 229.5,-56.5 115.5,-56.5"/>
<text text-anchor="middle" x="172.5" y="-63.5" font-family="Helvetica,sans-Serif" font-size="10.00">bench/BenchTimer.h</text>
</a>
</g>
</g>
<!-- Node0&#45;&gt;Node3 -->
<g id="edge3" class="edge"><title>Node0&#45;&gt;Node3</title>
<path fill="none" stroke="midnightblue" d="M107.644,-112.399C120.887,-103.129 138.178,-91.0254 151.576,-81.6469"/>
<polygon fill="midnightblue" stroke="midnightblue" points="153.947,-84.2598 160.132,-75.6578 149.932,-78.5251 153.947,-84.2598"/>
</g>
<!-- Node3&#45;&gt;Node2 -->
<g id="edge5" class="edge"><title>Node3&#45;&gt;Node2</title>
<path fill="none" stroke="midnightblue" d="M159.165,-56.324C146.338,-47.979 126.715,-35.2122 111.56,-25.3524"/>
<polygon fill="midnightblue" stroke="midnightblue" points="113.093,-22.1742 102.802,-19.6545 109.276,-28.0417 113.093,-22.1742"/>
</g>
<!-- Node4 -->
<g id="node5" class="node"><title>Node4</title>
<polygon fill="none" stroke="#bfbfbf" points="145,-0.5 145,-19.5 200,-19.5 200,-0.5 145,-0.5"/>
<text text-anchor="middle" x="172.5" y="-7.5" font-family="Helvetica,sans-Serif" font-size="10.00">unistd.h</text>
</g>
<!-- Node3&#45;&gt;Node4 -->
<g id="edge4" class="edge"><title>Node3&#45;&gt;Node4</title>
<path fill="none" stroke="midnightblue" d="M172.5,-56.083C172.5,-49.0059 172.5,-38.8611 172.5,-29.9865"/>
<polygon fill="midnightblue" stroke="midnightblue" points="176,-29.751 172.5,-19.7511 169,-29.7511 176,-29.751"/>
</g>
</g>
</svg>
