<?xml version="1.0" encoding="UTF-8" standalone="no"?>
<!DOCTYPE svg PUBLIC "-//W3C//DTD SVG 1.1//EN"
 "http://www.w3.org/Graphics/SVG/1.1/DTD/svg11.dtd">
<!-- Generated by graphviz version 2.38.0 (20140413.2041)
 -->
<!-- Title: pblueNorm Pages: 1 -->
<svg width="304pt" height="104pt"
 viewBox="0.00 0.00 304.00 104.00" xmlns="http://www.w3.org/2000/svg" xmlns:xlink="http://www.w3.org/1999/xlink">
<g id="graph0" class="graph" transform="scale(1 1) rotate(0) translate(4 100)">
<title>pblueNorm</title>
<!-- Node152 -->
<g id="node1" class="node"><title>Node152</title>
<polygon fill="#bfbfbf" stroke="black" points="0,-38.5 0,-57.5 70,-57.5 70,-38.5 0,-38.5"/>
<text text-anchor="middle" x="35" y="-45.5" font-family="Helvetica,sans-Serif" font-size="10.00">pblueNorm</text>
</g>
<!-- Node153 -->
<g id="node2" class="node"><title>Node153</title>
<g id="a_node2"><a xlink:href="bench__norm_8cpp.html#a1572918a22c4a7e69eed47d34ac589e5" target="_top" xlink:title="check_accuracy">
<polygon fill="none" stroke="black" points="116.5,-76.5 116.5,-95.5 208.5,-95.5 208.5,-76.5 116.5,-76.5"/>
<text text-anchor="middle" x="162.5" y="-83.5" font-family="Helvetica,sans-Serif" font-size="10.00">check_accuracy</text>
</a>
</g>
</g>
<!-- Node152&#45;&gt;Node153 -->
<g id="edge1" class="edge"><title>Node152&#45;&gt;Node153</title>
<path fill="none" stroke="midnightblue" d="M77.3995,-60.5353C94.4723,-65.7048 113.939,-71.5991 129.841,-76.4141"/>
<polygon fill="midnightblue" stroke="midnightblue" points="78.2541,-57.1372 67.6689,-57.589 76.2255,-63.8368 78.2541,-57.1372"/>
</g>
<!-- Node154 -->
<g id="node3" class="node"><title>Node154</title>
<g id="a_node3"><a xlink:href="bench__norm_8cpp.html#a3c04138a5bfe5d72780bb7e82a18e627" target="_top" xlink:title="main">
<polygon fill="none" stroke="black" points="255,-38.5 255,-57.5 296,-57.5 296,-38.5 255,-38.5"/>
<text text-anchor="middle" x="275.5" y="-45.5" font-family="Helvetica,sans-Serif" font-size="10.00">main</text>
</a>
</g>
</g>
<!-- Node152&#45;&gt;Node154 -->
<g id="edge5" class="edge"><title>Node152&#45;&gt;Node154</title>
<path fill="none" stroke="midnightblue" d="M80.4654,-48C132.599,-48 216.706,-48 254.721,-48"/>
<polygon fill="midnightblue" stroke="midnightblue" points="80.1713,-44.5001 70.1712,-48 80.1712,-51.5001 80.1713,-44.5001"/>
</g>
<!-- Node155 -->
<g id="node4" class="node"><title>Node155</title>
<g id="a_node4"><a xlink:href="bench__norm_8cpp.html#a69991b70f29fbc9ede65affface83314" target="_top" xlink:title="check_accuracy_var">
<polygon fill="none" stroke="black" points="106,-0.5 106,-19.5 219,-19.5 219,-0.5 106,-0.5"/>
<text text-anchor="middle" x="162.5" y="-7.5" font-family="Helvetica,sans-Serif" font-size="10.00">check_accuracy_var</text>
</a>
</g>
</g>
<!-- Node152&#45;&gt;Node155 -->
<g id="edge3" class="edge"><title>Node152&#45;&gt;Node155</title>
<path fill="none" stroke="midnightblue" d="M77.3995,-35.4647C94.4723,-30.2952 113.939,-24.4009 129.841,-19.5859"/>
<polygon fill="midnightblue" stroke="midnightblue" points="76.2255,-32.1632 67.6689,-38.411 78.2541,-38.8628 76.2255,-32.1632"/>
</g>
<!-- Node153&#45;&gt;Node154 -->
<g id="edge2" class="edge"><title>Node153&#45;&gt;Node154</title>
<path fill="none" stroke="midnightblue" d="M201.183,-73.0995C219.215,-66.9265 240.054,-59.7924 254.895,-54.7116"/>
<polygon fill="midnightblue" stroke="midnightblue" points="199.837,-69.8607 191.51,-76.411 202.105,-76.4834 199.837,-69.8607"/>
</g>
<!-- Node155&#45;&gt;Node154 -->
<g id="edge4" class="edge"><title>Node155&#45;&gt;Node154</title>
<path fill="none" stroke="midnightblue" d="M201.183,-22.9005C219.215,-29.0735 240.054,-36.2076 254.895,-41.2884"/>
<polygon fill="midnightblue" stroke="midnightblue" points="202.105,-19.5166 191.51,-19.589 199.837,-26.1393 202.105,-19.5166"/>
</g>
</g>
</svg>
