<?xml version="1.0" encoding="UTF-8" standalone="no"?>
<!DOCTYPE svg PUBLIC "-//W3C//DTD SVG 1.1//EN"
 "http://www.w3.org/Graphics/SVG/1.1/DTD/svg11.dtd">
<!-- Generated by graphviz version 2.38.0 (20140413.2041)
 -->
<!-- Title: cher Pages: 1 -->
<svg width="208pt" height="66pt"
 viewBox="0.00 0.00 208.00 66.00" xmlns="http://www.w3.org/2000/svg" xmlns:xlink="http://www.w3.org/1999/xlink">
<g id="graph0" class="graph" transform="scale(1 1) rotate(0) translate(4 62)">
<title>cher</title>
<!-- Node99 -->
<g id="node1" class="node"><title>Node99</title>
<polygon fill="#bfbfbf" stroke="black" points="0,-19.5 0,-38.5 38,-38.5 38,-19.5 0,-19.5"/>
<text text-anchor="middle" x="19" y="-26.5" font-family="Helvetica,sans-Serif" font-size="10.00">cher</text>
</g>
<!-- Node100 -->
<g id="node2" class="node"><title>Node100</title>
<g id="a_node2"><a xlink:href="cblat2_8f.html#ab31bfa0d54c114ee36424a8e43f61b1f" target="_top" xlink:title="cchk5">
<polygon fill="none" stroke="black" points="74,-38.5 74,-57.5 118,-57.5 118,-38.5 74,-38.5"/>
<text text-anchor="middle" x="96" y="-45.5" font-family="Helvetica,sans-Serif" font-size="10.00">cchk5</text>
</a>
</g>
</g>
<!-- Node99&#45;&gt;Node100 -->
<g id="edge1" class="edge"><title>Node99&#45;&gt;Node100</title>
<path fill="none" stroke="midnightblue" d="M48.0819,-36.1141C56.6083,-38.2741 65.8292,-40.6101 73.8212,-42.6347"/>
<polygon fill="midnightblue" stroke="midnightblue" points="48.7087,-32.6624 38.1554,-33.5994 46.9896,-39.448 48.7087,-32.6624"/>
</g>
<!-- Node103 -->
<g id="node5" class="node"><title>Node103</title>
<g id="a_node5"><a xlink:href="cblat2_8f.html#a442921d6b8d50c2e886d7a6c7fff3657" target="_top" xlink:title="cchke">
<polygon fill="none" stroke="black" points="74,-0.5 74,-19.5 118,-19.5 118,-0.5 74,-0.5"/>
<text text-anchor="middle" x="96" y="-7.5" font-family="Helvetica,sans-Serif" font-size="10.00">cchke</text>
</a>
</g>
</g>
<!-- Node99&#45;&gt;Node103 -->
<g id="edge4" class="edge"><title>Node99&#45;&gt;Node103</title>
<path fill="none" stroke="midnightblue" d="M48.0819,-21.8859C56.6083,-19.7259 65.8292,-17.3899 73.8212,-15.3653"/>
<polygon fill="midnightblue" stroke="midnightblue" points="46.9896,-18.552 38.1554,-24.4006 48.7087,-25.3376 46.9896,-18.552"/>
</g>
<!-- Node101 -->
<g id="node3" class="node"><title>Node101</title>
<g id="a_node3"><a xlink:href="cblat2_8f.html#a3a3c750016b421ea7a2616bdbf3dc1e2" target="_top" xlink:title="CBLAT2 ">
<polygon fill="none" stroke="black" points="154,-38.5 154,-57.5 200,-57.5 200,-38.5 154,-38.5"/>
<text text-anchor="middle" x="177" y="-45.5" font-family="Helvetica,sans-Serif" font-size="10.00">cblat2</text>
</a>
</g>
</g>
<!-- Node100&#45;&gt;Node101 -->
<g id="edge2" class="edge"><title>Node100&#45;&gt;Node101</title>
<path fill="none" stroke="midnightblue" d="M128.264,-48C136.855,-48 145.989,-48 153.943,-48"/>
<polygon fill="midnightblue" stroke="midnightblue" points="128.171,-44.5001 118.171,-48 128.171,-51.5001 128.171,-44.5001"/>
</g>
<!-- Node102 -->
<g id="node4" class="node"><title>Node102</title>
<g id="a_node4"><a xlink:href="cblat3_8f.html#a5e787fb59b00025ed8b1c227d3880c8b" target="_top" xlink:title="CBLAT3 ">
<polygon fill="none" stroke="black" points="154,-0.5 154,-19.5 200,-19.5 200,-0.5 154,-0.5"/>
<text text-anchor="middle" x="177" y="-7.5" font-family="Helvetica,sans-Serif" font-size="10.00">cblat3</text>
</a>
</g>
</g>
<!-- Node100&#45;&gt;Node102 -->
<g id="edge3" class="edge"><title>Node100&#45;&gt;Node102</title>
<path fill="none" stroke="midnightblue" d="M126.11,-33.9978C136.078,-29.2029 146.997,-23.9509 156.071,-19.5859"/>
<polygon fill="midnightblue" stroke="midnightblue" points="124.43,-30.9221 116.935,-38.411 127.464,-37.2303 124.43,-30.9221"/>
</g>
<!-- Node103&#45;&gt;Node101 -->
<g id="edge5" class="edge"><title>Node103&#45;&gt;Node101</title>
<path fill="none" stroke="midnightblue" d="M126.11,-24.0022C136.078,-28.7971 146.997,-34.0491 156.071,-38.4141"/>
<polygon fill="midnightblue" stroke="midnightblue" points="127.464,-20.7697 116.935,-19.589 124.43,-27.0779 127.464,-20.7697"/>
</g>
<!-- Node103&#45;&gt;Node102 -->
<g id="edge6" class="edge"><title>Node103&#45;&gt;Node102</title>
<path fill="none" stroke="midnightblue" d="M128.264,-10C136.855,-10 145.989,-10 153.943,-10"/>
<polygon fill="midnightblue" stroke="midnightblue" points="128.171,-6.5001 118.171,-10 128.171,-13.5001 128.171,-6.5001"/>
</g>
</g>
</svg>
