<?xml version="1.0" encoding="UTF-8" standalone="no"?>
<!DOCTYPE svg PUBLIC "-//W3C//DTD SVG 1.1//EN"
 "http://www.w3.org/Graphics/SVG/1.1/DTD/svg11.dtd">
<!-- Generated by graphviz version 2.38.0 (20140413.2041)
 -->
<!-- Title: /travis/libpairinteraction/eigen/bench/btl/generic_bench/bench.hh Pages: 1 -->
<svg width="1156pt" height="229pt"
 viewBox="0.00 0.00 1156.00 229.00" xmlns="http://www.w3.org/2000/svg" xmlns:xlink="http://www.w3.org/1999/xlink">
<g id="graph0" class="graph" transform="scale(1 1) rotate(0) translate(4 225)">
<title>/travis/libpairinteraction/eigen/bench/btl/generic_bench/bench.hh</title>
<!-- Node0 -->
<g id="node1" class="node"><title>Node0</title>
<polygon fill="#bfbfbf" stroke="black" points="690.5,-179.5 690.5,-220.5 821.5,-220.5 821.5,-179.5 690.5,-179.5"/>
<text text-anchor="start" x="698.5" y="-208.5" font-family="Helvetica,sans-Serif" font-size="10.00">/travis/libpairinteraction</text>
<text text-anchor="start" x="698.5" y="-197.5" font-family="Helvetica,sans-Serif" font-size="10.00">/eigen/bench/btl/generic</text>
<text text-anchor="middle" x="756" y="-186.5" font-family="Helvetica,sans-Serif" font-size="10.00">_bench/bench.hh</text>
</g>
<!-- Node1 -->
<g id="node2" class="node"><title>Node1</title>
<g id="a_node2"><a xlink:href="btl_8hh.html" target="_top" xlink:title="btl.hh">
<polygon fill="none" stroke="black" points="734,-118 734,-137 778,-137 778,-118 734,-118"/>
<text text-anchor="middle" x="756" y="-125" font-family="Helvetica,sans-Serif" font-size="10.00">btl.hh</text>
</a>
</g>
</g>
<!-- Node0&#45;&gt;Node1 -->
<g id="edge1" class="edge"><title>Node0&#45;&gt;Node1</title>
<path fill="none" stroke="midnightblue" d="M756,-179.362C756,-169.297 756,-157.104 756,-147.18"/>
<polygon fill="midnightblue" stroke="midnightblue" points="759.5,-147.173 756,-137.173 752.5,-147.173 759.5,-147.173"/>
</g>
<!-- Node2 -->
<g id="node3" class="node"><title>Node2</title>
<g id="a_node3"><a xlink:href="bench__parameter_8hh.html" target="_top" xlink:title="bench_parameter.hh">
<polygon fill="none" stroke="black" points="588,-56.5 588,-75.5 704,-75.5 704,-56.5 588,-56.5"/>
<text text-anchor="middle" x="646" y="-63.5" font-family="Helvetica,sans-Serif" font-size="10.00">bench_parameter.hh</text>
</a>
</g>
</g>
<!-- Node0&#45;&gt;Node2 -->
<g id="edge10" class="edge"><title>Node0&#45;&gt;Node2</title>
<path fill="none" stroke="midnightblue" d="M739.532,-179.238C717.86,-153.232 680.148,-107.978 659.862,-83.6339"/>
<polygon fill="midnightblue" stroke="midnightblue" points="662.329,-81.1272 653.238,-75.6856 656.951,-85.6085 662.329,-81.1272"/>
</g>
<!-- Node3 -->
<g id="node4" class="node"><title>Node3</title>
<polygon fill="none" stroke="#bfbfbf" points="721.5,-0.5 721.5,-19.5 780.5,-19.5 780.5,-0.5 721.5,-0.5"/>
<text text-anchor="middle" x="751" y="-7.5" font-family="Helvetica,sans-Serif" font-size="10.00">iostream</text>
</g>
<!-- Node0&#45;&gt;Node3 -->
<g id="edge11" class="edge"><title>Node0&#45;&gt;Node3</title>
<path fill="none" stroke="midnightblue" d="M695.601,-179.426C629.479,-154.776 537.959,-109.159 579,-56 595.012,-35.2601 665.434,-22.2373 711.056,-15.8176"/>
<polygon fill="midnightblue" stroke="midnightblue" points="711.79,-19.2502 721.229,-14.4371 710.849,-12.3138 711.79,-19.2502"/>
</g>
<!-- Node5 -->
<g id="node6" class="node"><title>Node5</title>
<polygon fill="none" stroke="#bfbfbf" points="840.5,-56.5 840.5,-75.5 887.5,-75.5 887.5,-56.5 840.5,-56.5"/>
<text text-anchor="middle" x="864" y="-63.5" font-family="Helvetica,sans-Serif" font-size="10.00">vector</text>
</g>
<!-- Node0&#45;&gt;Node5 -->
<g id="edge21" class="edge"><title>Node0&#45;&gt;Node5</title>
<path fill="none" stroke="midnightblue" d="M772.169,-179.238C793.446,-153.232 830.473,-107.978 850.39,-83.6339"/>
<polygon fill="midnightblue" stroke="midnightblue" points="853.27,-85.6415 856.894,-75.6856 847.852,-81.2088 853.27,-85.6415"/>
</g>
<!-- Node6 -->
<g id="node7" class="node"><title>Node6</title>
<polygon fill="none" stroke="#bfbfbf" points="906,-56.5 906,-75.5 950,-75.5 950,-56.5 906,-56.5"/>
<text text-anchor="middle" x="928" y="-63.5" font-family="Helvetica,sans-Serif" font-size="10.00">string</text>
</g>
<!-- Node0&#45;&gt;Node6 -->
<g id="edge22" class="edge"><title>Node0&#45;&gt;Node6</title>
<path fill="none" stroke="midnightblue" d="M781.75,-179.238C816.38,-152.662 877.203,-105.984 908.373,-82.0629"/>
<polygon fill="midnightblue" stroke="midnightblue" points="910.88,-84.5504 916.682,-75.6856 906.618,-78.9972 910.88,-84.5504"/>
</g>
<!-- Node7 -->
<g id="node8" class="node"><title>Node7</title>
<g id="a_node8"><a xlink:href="utilities_8h.html" target="_top" xlink:title="utilities.h">
<polygon fill="none" stroke="black" points="472.5,-56.5 472.5,-75.5 531.5,-75.5 531.5,-56.5 472.5,-56.5"/>
<text text-anchor="middle" x="502" y="-63.5" font-family="Helvetica,sans-Serif" font-size="10.00">utilities.h</text>
</a>
</g>
</g>
<!-- Node0&#45;&gt;Node7 -->
<g id="edge12" class="edge"><title>Node0&#45;&gt;Node7</title>
<path fill="none" stroke="midnightblue" d="M690.118,-194.512C645.561,-188.549 587.498,-174.764 546,-143 526.75,-128.266 514.439,-102.517 507.873,-85.119"/>
<polygon fill="midnightblue" stroke="midnightblue" points="511.126,-83.8192 504.517,-75.539 504.52,-86.1338 511.126,-83.8192"/>
</g>
<!-- Node9 -->
<g id="node10" class="node"><title>Node9</title>
<g id="a_node10"><a xlink:href="size__lin__log_8hh.html" target="_top" xlink:title="size_lin_log.hh">
<polygon fill="none" stroke="black" points="1023,-118 1023,-137 1109,-137 1109,-118 1023,-118"/>
<text text-anchor="middle" x="1066" y="-125" font-family="Helvetica,sans-Serif" font-size="10.00">size_lin_log.hh</text>
</a>
</g>
</g>
<!-- Node0&#45;&gt;Node9 -->
<g id="edge13" class="edge"><title>Node0&#45;&gt;Node9</title>
<path fill="none" stroke="midnightblue" d="M821.743,-184.049C880.727,-170.635 965.871,-151.271 1018.48,-139.307"/>
<polygon fill="midnightblue" stroke="midnightblue" points="1019.57,-142.648 1028.55,-137.017 1018.02,-135.822 1019.57,-142.648"/>
</g>
<!-- Node12 -->
<g id="node13" class="node"><title>Node12</title>
<g id="a_node13"><a xlink:href="xy__file_8hh.html" target="_top" xlink:title="xy_file.hh">
<polygon fill="none" stroke="black" points="897.5,-118 897.5,-137 958.5,-137 958.5,-118 897.5,-118"/>
<text text-anchor="middle" x="928" y="-125" font-family="Helvetica,sans-Serif" font-size="10.00">xy_file.hh</text>
</a>
</g>
</g>
<!-- Node0&#45;&gt;Node12 -->
<g id="edge16" class="edge"><title>Node0&#45;&gt;Node12</title>
<path fill="none" stroke="midnightblue" d="M803.912,-179.362C833.879,-167.078 871.58,-151.626 897.516,-140.995"/>
<polygon fill="midnightblue" stroke="midnightblue" points="898.914,-144.205 906.839,-137.173 896.259,-137.728 898.914,-144.205"/>
</g>
<!-- Node14 -->
<g id="node15" class="node"><title>Node14</title>
<g id="a_node15"><a xlink:href="portable__perf__analyzer_8hh.html" target="_top" xlink:title="timers/portable_perf\l_analyzer.hh">
<polygon fill="none" stroke="black" points="380,-112.5 380,-142.5 494,-142.5 494,-112.5 380,-112.5"/>
<text text-anchor="start" x="388" y="-130.5" font-family="Helvetica,sans-Serif" font-size="10.00">timers/portable_perf</text>
<text text-anchor="middle" x="437" y="-119.5" font-family="Helvetica,sans-Serif" font-size="10.00">_analyzer.hh</text>
</a>
</g>
</g>
<!-- Node0&#45;&gt;Node14 -->
<g id="edge23" class="edge"><title>Node0&#45;&gt;Node14</title>
<path fill="none" stroke="midnightblue" d="M690.29,-184.478C635.86,-172.449 558.831,-155.425 504.038,-143.316"/>
<polygon fill="midnightblue" stroke="midnightblue" points="504.596,-139.854 494.076,-141.114 503.085,-146.69 504.596,-139.854"/>
</g>
<!-- Node1&#45;&gt;Node2 -->
<g id="edge2" class="edge"><title>Node1&#45;&gt;Node2</title>
<path fill="none" stroke="midnightblue" d="M740.24,-117.975C722.024,-108.122 691.827,-91.7883 670.532,-80.2697"/>
<polygon fill="midnightblue" stroke="midnightblue" points="672.192,-77.1883 661.731,-75.5091 668.862,-83.3453 672.192,-77.1883"/>
</g>
<!-- Node1&#45;&gt;Node3 -->
<g id="edge3" class="edge"><title>Node1&#45;&gt;Node3</title>
<path fill="none" stroke="midnightblue" d="M766.259,-117.669C780.125,-104.598 802.124,-79.1478 793,-56 788.486,-44.5479 779.531,-34.291 771.045,-26.4724"/>
<polygon fill="midnightblue" stroke="midnightblue" points="773.085,-23.6113 763.214,-19.7638 768.531,-28.9275 773.085,-23.6113"/>
</g>
<!-- Node4 -->
<g id="node5" class="node"><title>Node4</title>
<polygon fill="none" stroke="#bfbfbf" points="722,-56.5 722,-75.5 784,-75.5 784,-56.5 722,-56.5"/>
<text text-anchor="middle" x="753" y="-63.5" font-family="Helvetica,sans-Serif" font-size="10.00">algorithm</text>
</g>
<!-- Node1&#45;&gt;Node4 -->
<g id="edge4" class="edge"><title>Node1&#45;&gt;Node4</title>
<path fill="none" stroke="midnightblue" d="M755.57,-117.975C755.147,-109.58 754.486,-96.4806 753.941,-85.6631"/>
<polygon fill="midnightblue" stroke="midnightblue" points="757.428,-85.3201 753.429,-75.5091 750.437,-85.6727 757.428,-85.3201"/>
</g>
<!-- Node1&#45;&gt;Node5 -->
<g id="edge5" class="edge"><title>Node1&#45;&gt;Node5</title>
<path fill="none" stroke="midnightblue" d="M771.474,-117.975C789.278,-108.166 818.741,-91.9346 839.632,-80.425"/>
<polygon fill="midnightblue" stroke="midnightblue" points="841.485,-83.4001 848.555,-75.5091 838.107,-77.269 841.485,-83.4001"/>
</g>
<!-- Node1&#45;&gt;Node6 -->
<g id="edge6" class="edge"><title>Node1&#45;&gt;Node6</title>
<path fill="none" stroke="midnightblue" d="M778.134,-118.843C808.193,-108.445 862.099,-89.797 896.406,-77.9292"/>
<polygon fill="midnightblue" stroke="midnightblue" points="897.645,-81.2044 905.951,-74.6274 895.356,-74.589 897.645,-81.2044"/>
</g>
<!-- Node1&#45;&gt;Node7 -->
<g id="edge7" class="edge"><title>Node1&#45;&gt;Node7</title>
<path fill="none" stroke="midnightblue" d="M733.903,-121.324C690.929,-111.257 595.576,-88.9203 541.476,-76.2474"/>
<polygon fill="midnightblue" stroke="midnightblue" points="542.09,-72.7965 531.555,-73.9234 540.493,-79.612 542.09,-72.7965"/>
</g>
<!-- Node7&#45;&gt;Node3 -->
<g id="edge9" class="edge"><title>Node7&#45;&gt;Node3</title>
<path fill="none" stroke="midnightblue" d="M531.541,-58.5934C576.375,-48.8705 661.657,-30.3756 711.684,-19.5263"/>
<polygon fill="midnightblue" stroke="midnightblue" points="712.466,-22.9382 721.497,-17.3982 710.982,-16.0972 712.466,-22.9382"/>
</g>
<!-- Node8 -->
<g id="node9" class="node"><title>Node8</title>
<polygon fill="none" stroke="#bfbfbf" points="543.5,-0.5 543.5,-19.5 594.5,-19.5 594.5,-0.5 543.5,-0.5"/>
<text text-anchor="middle" x="569" y="-7.5" font-family="Helvetica,sans-Serif" font-size="10.00">stdlib.h</text>
</g>
<!-- Node7&#45;&gt;Node8 -->
<g id="edge8" class="edge"><title>Node7&#45;&gt;Node8</title>
<path fill="none" stroke="midnightblue" d="M512.765,-56.324C522.766,-48.2631 537.887,-36.0765 549.93,-26.3695"/>
<polygon fill="midnightblue" stroke="midnightblue" points="552.45,-28.8343 558.039,-19.8339 548.057,-23.3841 552.45,-28.8343"/>
</g>
<!-- Node10 -->
<g id="node11" class="node"><title>Node10</title>
<g id="a_node11"><a xlink:href="size__log_8hh.html" target="_top" xlink:title="size_log.hh">
<polygon fill="none" stroke="black" points="1078,-56.5 1078,-75.5 1148,-75.5 1148,-56.5 1078,-56.5"/>
<text text-anchor="middle" x="1113" y="-63.5" font-family="Helvetica,sans-Serif" font-size="10.00">size_log.hh</text>
</a>
</g>
</g>
<!-- Node9&#45;&gt;Node10 -->
<g id="edge14" class="edge"><title>Node9&#45;&gt;Node10</title>
<path fill="none" stroke="midnightblue" d="M1072.73,-117.975C1079.78,-109.05 1091.03,-94.8071 1099.85,-83.6425"/>
<polygon fill="midnightblue" stroke="midnightblue" points="1102.83,-85.5258 1106.28,-75.5091 1097.33,-81.1867 1102.83,-85.5258"/>
</g>
<!-- Node11 -->
<g id="node12" class="node"><title>Node11</title>
<polygon fill="none" stroke="#bfbfbf" points="1087.5,-0.5 1087.5,-19.5 1138.5,-19.5 1138.5,-0.5 1087.5,-0.5"/>
<text text-anchor="middle" x="1113" y="-7.5" font-family="Helvetica,sans-Serif" font-size="10.00">math.h</text>
</g>
<!-- Node10&#45;&gt;Node11 -->
<g id="edge15" class="edge"><title>Node10&#45;&gt;Node11</title>
<path fill="none" stroke="midnightblue" d="M1113,-56.083C1113,-49.0059 1113,-38.8611 1113,-29.9865"/>
<polygon fill="midnightblue" stroke="midnightblue" points="1116.5,-29.751 1113,-19.7511 1109.5,-29.7511 1116.5,-29.751"/>
</g>
<!-- Node12&#45;&gt;Node3 -->
<g id="edge18" class="edge"><title>Node12&#45;&gt;Node3</title>
<path fill="none" stroke="midnightblue" d="M937.189,-117.911C951.175,-103.801 974.616,-75.3554 959,-56 938.241,-30.2692 844.853,-18.5221 790.529,-13.7822"/>
<polygon fill="midnightblue" stroke="midnightblue" points="790.798,-10.2926 780.542,-12.9512 790.217,-17.2685 790.798,-10.2926"/>
</g>
<!-- Node12&#45;&gt;Node5 -->
<g id="edge20" class="edge"><title>Node12&#45;&gt;Node5</title>
<path fill="none" stroke="midnightblue" d="M918.83,-117.975C908.85,-108.697 892.688,-93.6706 880.491,-82.331"/>
<polygon fill="midnightblue" stroke="midnightblue" points="882.86,-79.7547 873.153,-75.5091 878.093,-84.8814 882.86,-79.7547"/>
</g>
<!-- Node12&#45;&gt;Node6 -->
<g id="edge19" class="edge"><title>Node12&#45;&gt;Node6</title>
<path fill="none" stroke="midnightblue" d="M928,-117.975C928,-109.58 928,-96.4806 928,-85.6631"/>
<polygon fill="midnightblue" stroke="midnightblue" points="931.5,-85.5091 928,-75.5091 924.5,-85.5091 931.5,-85.5091"/>
</g>
<!-- Node13 -->
<g id="node14" class="node"><title>Node13</title>
<polygon fill="none" stroke="#bfbfbf" points="1006,-56.5 1006,-75.5 1060,-75.5 1060,-56.5 1006,-56.5"/>
<text text-anchor="middle" x="1033" y="-63.5" font-family="Helvetica,sans-Serif" font-size="10.00">fstream</text>
</g>
<!-- Node12&#45;&gt;Node13 -->
<g id="edge17" class="edge"><title>Node12&#45;&gt;Node13</title>
<path fill="none" stroke="midnightblue" d="M943.044,-117.975C960.275,-108.211 988.74,-92.0807 1009.03,-80.5808"/>
<polygon fill="midnightblue" stroke="midnightblue" points="1011.01,-83.4843 1017.98,-75.5091 1007.56,-77.3942 1011.01,-83.4843"/>
</g>
<!-- Node14&#45;&gt;Node7 -->
<g id="edge24" class="edge"><title>Node14&#45;&gt;Node7</title>
<path fill="none" stroke="midnightblue" d="M452.404,-112.399C462.239,-103.397 474.993,-91.7214 485.105,-82.4652"/>
<polygon fill="midnightblue" stroke="midnightblue" points="487.529,-84.9916 492.542,-75.6578 482.802,-79.8282 487.529,-84.9916"/>
</g>
<!-- Node15 -->
<g id="node16" class="node"><title>Node15</title>
<g id="a_node16"><a xlink:href="portable__timer_8hh.html" target="_top" xlink:title="timers/portable_timer.hh">
<polygon fill="none" stroke="black" points="205.5,-56.5 205.5,-75.5 340.5,-75.5 340.5,-56.5 205.5,-56.5"/>
<text text-anchor="middle" x="273" y="-63.5" font-family="Helvetica,sans-Serif" font-size="10.00">timers/portable_timer.hh</text>
</a>
</g>
</g>
<!-- Node14&#45;&gt;Node15 -->
<g id="edge25" class="edge"><title>Node14&#45;&gt;Node15</title>
<path fill="none" stroke="midnightblue" d="M398.134,-112.399C370.249,-102.283 333.061,-88.7905 306.487,-79.1493"/>
<polygon fill="midnightblue" stroke="midnightblue" points="307.458,-75.7782 296.863,-75.6578 305.07,-82.3585 307.458,-75.7782"/>
</g>
<!-- Node16 -->
<g id="node17" class="node"><title>Node16</title>
<polygon fill="none" stroke="#bfbfbf" points="0,-0.5 0,-19.5 44,-19.5 44,-0.5 0,-0.5"/>
<text text-anchor="middle" x="22" y="-7.5" font-family="Helvetica,sans-Serif" font-size="10.00">ctime</text>
</g>
<!-- Node15&#45;&gt;Node16 -->
<g id="edge26" class="edge"><title>Node15&#45;&gt;Node16</title>
<path fill="none" stroke="midnightblue" d="M225.546,-56.441C183.005,-48.5109 118.702,-35.8918 54.2216,-20.1538"/>
<polygon fill="midnightblue" stroke="midnightblue" points="54.84,-16.7015 44.2929,-17.7056 53.1641,-23.4979 54.84,-16.7015"/>
</g>
<!-- Node17 -->
<g id="node18" class="node"><title>Node17</title>
<polygon fill="none" stroke="#bfbfbf" points="62.5,-0.5 62.5,-19.5 109.5,-19.5 109.5,-0.5 62.5,-0.5"/>
<text text-anchor="middle" x="86" y="-7.5" font-family="Helvetica,sans-Serif" font-size="10.00">cstdlib</text>
</g>
<!-- Node15&#45;&gt;Node17 -->
<g id="edge27" class="edge"><title>Node15&#45;&gt;Node17</title>
<path fill="none" stroke="midnightblue" d="M243.369,-56.4435C209.625,-46.6993 154.621,-30.8158 119.388,-20.6414"/>
<polygon fill="midnightblue" stroke="midnightblue" points="120.15,-17.2185 109.571,-17.8067 118.208,-23.9437 120.15,-17.2185"/>
</g>
<!-- Node18 -->
<g id="node19" class="node"><title>Node18</title>
<polygon fill="none" stroke="#bfbfbf" points="127.5,-0.5 127.5,-19.5 174.5,-19.5 174.5,-0.5 127.5,-0.5"/>
<text text-anchor="middle" x="151" y="-7.5" font-family="Helvetica,sans-Serif" font-size="10.00">time.h</text>
</g>
<!-- Node15&#45;&gt;Node18 -->
<g id="edge28" class="edge"><title>Node15&#45;&gt;Node18</title>
<path fill="none" stroke="midnightblue" d="M253.669,-56.4435C233.68,-47.5961 202.257,-33.6875 179.436,-23.5865"/>
<polygon fill="midnightblue" stroke="midnightblue" points="180.802,-20.3635 170.241,-19.5164 177.968,-26.7645 180.802,-20.3635"/>
</g>
<!-- Node19 -->
<g id="node20" class="node"><title>Node19</title>
<polygon fill="none" stroke="#bfbfbf" points="193,-0.5 193,-19.5 259,-19.5 259,-0.5 193,-0.5"/>
<text text-anchor="middle" x="226" y="-7.5" font-family="Helvetica,sans-Serif" font-size="10.00">sys/time.h</text>
</g>
<!-- Node15&#45;&gt;Node19 -->
<g id="edge29" class="edge"><title>Node15&#45;&gt;Node19</title>
<path fill="none" stroke="midnightblue" d="M265.239,-56.083C258.463,-48.2982 248.457,-36.8015 240.245,-27.3665"/>
<polygon fill="midnightblue" stroke="midnightblue" points="242.822,-24.9963 233.617,-19.7511 237.542,-29.592 242.822,-24.9963"/>
</g>
<!-- Node20 -->
<g id="node21" class="node"><title>Node20</title>
<polygon fill="none" stroke="#bfbfbf" points="277,-0.5 277,-19.5 363,-19.5 363,-0.5 277,-0.5"/>
<text text-anchor="middle" x="320" y="-7.5" font-family="Helvetica,sans-Serif" font-size="10.00">sys/resource.h</text>
</g>
<!-- Node15&#45;&gt;Node20 -->
<g id="edge30" class="edge"><title>Node15&#45;&gt;Node20</title>
<path fill="none" stroke="midnightblue" d="M280.761,-56.083C287.537,-48.2982 297.543,-36.8015 305.755,-27.3665"/>
<polygon fill="midnightblue" stroke="midnightblue" points="308.458,-29.592 312.383,-19.7511 303.178,-24.9963 308.458,-29.592"/>
</g>
<!-- Node21 -->
<g id="node22" class="node"><title>Node21</title>
<polygon fill="none" stroke="#bfbfbf" points="381.5,-0.5 381.5,-19.5 436.5,-19.5 436.5,-0.5 381.5,-0.5"/>
<text text-anchor="middle" x="409" y="-7.5" font-family="Helvetica,sans-Serif" font-size="10.00">unistd.h</text>
</g>
<!-- Node15&#45;&gt;Node21 -->
<g id="edge31" class="edge"><title>Node15&#45;&gt;Node21</title>
<path fill="none" stroke="midnightblue" d="M294.55,-56.4435C317.031,-47.5171 352.488,-33.4387 377.98,-23.3168"/>
<polygon fill="midnightblue" stroke="midnightblue" points="379.549,-26.4598 387.551,-19.5164 376.965,-19.9539 379.549,-26.4598"/>
</g>
<!-- Node22 -->
<g id="node23" class="node"><title>Node22</title>
<polygon fill="none" stroke="#bfbfbf" points="454.5,-0.5 454.5,-19.5 525.5,-19.5 525.5,-0.5 454.5,-0.5"/>
<text text-anchor="middle" x="490" y="-7.5" font-family="Helvetica,sans-Serif" font-size="10.00">sys/times.h</text>
</g>
<!-- Node15&#45;&gt;Node22 -->
<g id="edge32" class="edge"><title>Node15&#45;&gt;Node22</title>
<path fill="none" stroke="midnightblue" d="M307.384,-56.4435C344.922,-47.1024 405.131,-32.1194 446.067,-21.9326"/>
<polygon fill="midnightblue" stroke="midnightblue" points="446.918,-25.3278 455.777,-19.5164 445.227,-18.5349 446.918,-25.3278"/>
</g>
</g>
</svg>
