<?xml version="1.0" encoding="UTF-8" standalone="no"?>
<!DOCTYPE svg PUBLIC "-//W3C//DTD SVG 1.1//EN"
 "http://www.w3.org/Graphics/SVG/1.1/DTD/svg11.dtd">
<!-- Generated by graphviz version 2.38.0 (20140413.2041)
 -->
<!-- Title: __attribute__ Pages: 1 -->
<svg width="516pt" height="498pt"
 viewBox="0.00 0.00 516.00 498.00" xmlns="http://www.w3.org/2000/svg" xmlns:xlink="http://www.w3.org/1999/xlink">
<g id="graph0" class="graph" transform="scale(1 1) rotate(0) translate(4 494)">
<title>__attribute__</title>
<!-- Node0 -->
<g id="node1" class="node"><title>Node0</title>
<polygon fill="#bfbfbf" stroke="black" points="0,-225 0,-244 79,-244 79,-225 0,-225"/>
<text text-anchor="middle" x="39.5" y="-232" font-family="Helvetica,sans-Serif" font-size="10.00">__attribute__</text>
</g>
<!-- Node1 -->
<g id="node2" class="node"><title>Node1</title>
<g id="a_node2"><a xlink:href="classEigen_1_1PlainObjectBase.html#afbfc12954f16d21aedb7bd839f64a278" target="_top" xlink:title="Eigen::PlainObjectBase\l::coeff">
<polygon fill="none" stroke="black" points="130,-459.5 130,-489.5 256,-489.5 256,-459.5 130,-459.5"/>
<text text-anchor="start" x="138" y="-477.5" font-family="Helvetica,sans-Serif" font-size="10.00">Eigen::PlainObjectBase</text>
<text text-anchor="middle" x="193" y="-466.5" font-family="Helvetica,sans-Serif" font-size="10.00">::coeff</text>
</a>
</g>
</g>
<!-- Node0&#45;&gt;Node1 -->
<g id="edge1" class="edge"><title>Node0&#45;&gt;Node1</title>
<path fill="none" stroke="midnightblue" d="M40.8846,-244.302C42.7473,-278.079 53.5117,-390.828 115,-450.5 116.89,-452.335 118.919,-454.029 121.055,-455.594"/>
<polygon fill="midnightblue" stroke="midnightblue" points="119.422,-458.7 129.761,-461.012 123.12,-452.757 119.422,-458.7"/>
</g>
<!-- Node2 -->
<g id="node3" class="node"><title>Node2</title>
<g id="a_node3"><a xlink:href="classEigen_1_1SelfAdjointEigenSolver.html#a88bcdc24112efa7c4d2ebb3476efcbe9" target="_top" xlink:title="Computes eigendecomposition of given matrix. ">
<polygon fill="none" stroke="black" points="115,-410.5 115,-440.5 271,-440.5 271,-410.5 115,-410.5"/>
<text text-anchor="start" x="123" y="-428.5" font-family="Helvetica,sans-Serif" font-size="10.00">Eigen::SelfAdjointEigenSolver</text>
<text text-anchor="middle" x="193" y="-417.5" font-family="Helvetica,sans-Serif" font-size="10.00">::compute</text>
</a>
</g>
</g>
<!-- Node0&#45;&gt;Node2 -->
<g id="edge2" class="edge"><title>Node0&#45;&gt;Node2</title>
<path fill="none" stroke="midnightblue" d="M41.9557,-244.041C46.7883,-272.405 64.9345,-356.995 115,-401.5 116.331,-402.683 117.72,-403.808 119.158,-404.878"/>
<polygon fill="midnightblue" stroke="midnightblue" points="117.546,-408 127.862,-410.416 121.304,-402.095 117.546,-408"/>
</g>
<!-- Node3 -->
<g id="node4" class="node"><title>Node3</title>
<g id="a_node4"><a xlink:href="classEigen_1_1EigenSolver.html#a38d032b75b3e75640e3db42e7ab20c24" target="_top" xlink:title="Computes eigendecomposition of given matrix. ">
<polygon fill="none" stroke="black" points="140.5,-361.5 140.5,-391.5 245.5,-391.5 245.5,-361.5 140.5,-361.5"/>
<text text-anchor="start" x="148.5" y="-379.5" font-family="Helvetica,sans-Serif" font-size="10.00">Eigen::EigenSolver</text>
<text text-anchor="middle" x="193" y="-368.5" font-family="Helvetica,sans-Serif" font-size="10.00">::compute</text>
</a>
</g>
</g>
<!-- Node0&#45;&gt;Node3 -->
<g id="edge3" class="edge"><title>Node0&#45;&gt;Node3</title>
<path fill="none" stroke="midnightblue" d="M43.865,-244.057C52.2399,-266.456 76.1854,-322.692 115,-352.5 119.767,-356.161 125.1,-359.268 130.675,-361.906"/>
<polygon fill="midnightblue" stroke="midnightblue" points="129.653,-365.273 140.229,-365.915 132.362,-358.818 129.653,-365.273"/>
</g>
<!-- Node4 -->
<g id="node5" class="node"><title>Node4</title>
<g id="a_node5"><a xlink:href="classEigen_1_1EigenSolver.html#a66288022802172e3ee059283b26201d7" target="_top" xlink:title="Returns the eigenvectors of given matrix. ">
<polygon fill="none" stroke="black" points="140.5,-312.5 140.5,-342.5 245.5,-342.5 245.5,-312.5 140.5,-312.5"/>
<text text-anchor="start" x="148.5" y="-330.5" font-family="Helvetica,sans-Serif" font-size="10.00">Eigen::EigenSolver</text>
<text text-anchor="middle" x="193" y="-319.5" font-family="Helvetica,sans-Serif" font-size="10.00">::eigenvectors</text>
</a>
</g>
</g>
<!-- Node0&#45;&gt;Node4 -->
<g id="edge4" class="edge"><title>Node0&#45;&gt;Node4</title>
<path fill="none" stroke="midnightblue" d="M48.615,-244.435C61.2906,-259.334 87.2298,-287.429 115,-303.5 119.848,-306.305 125.06,-308.82 130.406,-311.066"/>
<polygon fill="midnightblue" stroke="midnightblue" points="129.531,-314.481 140.12,-314.825 132.057,-307.952 129.531,-314.481"/>
</g>
<!-- Node5 -->
<g id="node6" class="node"><title>Node5</title>
<g id="a_node6"><a xlink:href="classEigen_1_1SelfAdjointEigenSolver.html#a7b9f7e641fa46ac4c5f2371405c69b2b" target="_top" xlink:title="Returns the eigenvectors of given matrix. ">
<polygon fill="none" stroke="black" points="115,-263.5 115,-293.5 271,-293.5 271,-263.5 115,-263.5"/>
<text text-anchor="start" x="123" y="-281.5" font-family="Helvetica,sans-Serif" font-size="10.00">Eigen::SelfAdjointEigenSolver</text>
<text text-anchor="middle" x="193" y="-270.5" font-family="Helvetica,sans-Serif" font-size="10.00">::eigenvectors</text>
</a>
</g>
</g>
<!-- Node0&#45;&gt;Node5 -->
<g id="edge5" class="edge"><title>Node0&#45;&gt;Node5</title>
<path fill="none" stroke="midnightblue" d="M73.3732,-244.047C90.0496,-248.891 110.86,-254.935 130.374,-260.602"/>
<polygon fill="midnightblue" stroke="midnightblue" points="129.548,-264.007 140.127,-263.435 131.5,-257.284 129.548,-264.007"/>
</g>
<!-- Node6 -->
<g id="node7" class="node"><title>Node6</title>
<g id="a_node7"><a xlink:href="BenchSparseUtil_8h.html#a0fd61c7904dc93b13137609cbb19f7e4" target="_top" xlink:title="eiToGmm">
<polygon fill="none" stroke="black" points="162,-225 162,-244 224,-244 224,-225 162,-225"/>
<text text-anchor="middle" x="193" y="-232" font-family="Helvetica,sans-Serif" font-size="10.00">eiToGmm</text>
</a>
</g>
</g>
<!-- Node0&#45;&gt;Node6 -->
<g id="edge6" class="edge"><title>Node0&#45;&gt;Node6</title>
<path fill="none" stroke="midnightblue" d="M79.1218,-234.5C101.221,-234.5 128.921,-234.5 151.35,-234.5"/>
<polygon fill="midnightblue" stroke="midnightblue" points="151.567,-238 161.567,-234.5 151.567,-231 151.567,-238"/>
</g>
<!-- Node10 -->
<g id="node11" class="node"><title>Node10</title>
<g id="a_node11"><a xlink:href="classEigen_1_1BenchTimer.html#a32a7276d10363d2d166234d7fb07182a" target="_top" xlink:title="Eigen::BenchTimer::\lreset">
<polygon fill="none" stroke="black" points="137,-175.5 137,-205.5 249,-205.5 249,-175.5 137,-175.5"/>
<text text-anchor="start" x="145" y="-193.5" font-family="Helvetica,sans-Serif" font-size="10.00">Eigen::BenchTimer::</text>
<text text-anchor="middle" x="193" y="-182.5" font-family="Helvetica,sans-Serif" font-size="10.00">reset</text>
</a>
</g>
</g>
<!-- Node0&#45;&gt;Node10 -->
<g id="edge10" class="edge"><title>Node0&#45;&gt;Node10</title>
<path fill="none" stroke="midnightblue" d="M73.3732,-224.953C90.0496,-220.109 110.86,-214.065 130.374,-208.398"/>
<polygon fill="midnightblue" stroke="midnightblue" points="131.5,-211.716 140.127,-205.565 129.548,-204.993 131.5,-211.716"/>
</g>
<!-- Node11 -->
<g id="node12" class="node"><title>Node11</title>
<g id="a_node12"><a xlink:href="ArrayCwiseUnaryOps_8h.html#a656b9217a2fcb6de59dc8d1eb3079cc7" target="_top" xlink:title="sqrt">
<polygon fill="none" stroke="black" points="175.5,-137 175.5,-156 210.5,-156 210.5,-137 175.5,-137"/>
<text text-anchor="middle" x="193" y="-144" font-family="Helvetica,sans-Serif" font-size="10.00">sqrt</text>
</a>
</g>
</g>
<!-- Node0&#45;&gt;Node11 -->
<g id="edge11" class="edge"><title>Node0&#45;&gt;Node11</title>
<path fill="none" stroke="midnightblue" d="M48.0889,-224.849C60.4528,-209.805 86.4482,-180.895 115,-165.5 130.558,-157.111 149.876,-152.358 165.27,-149.703"/>
<polygon fill="midnightblue" stroke="midnightblue" points="165.851,-153.155 175.206,-148.182 164.791,-146.236 165.851,-153.155"/>
</g>
<!-- Node12 -->
<g id="node13" class="node"><title>Node12</title>
<g id="a_node13"><a xlink:href="classEigen_1_1BenchTimer.html#a6b01cc1c0408353022174b867ab29dc9" target="_top" xlink:title="Eigen::BenchTimer::\lstart">
<polygon fill="none" stroke="black" points="137,-49.5 137,-79.5 249,-79.5 249,-49.5 137,-49.5"/>
<text text-anchor="start" x="145" y="-67.5" font-family="Helvetica,sans-Serif" font-size="10.00">Eigen::BenchTimer::</text>
<text text-anchor="middle" x="193" y="-56.5" font-family="Helvetica,sans-Serif" font-size="10.00">start</text>
</a>
</g>
</g>
<!-- Node0&#45;&gt;Node12 -->
<g id="edge12" class="edge"><title>Node0&#45;&gt;Node12</title>
<path fill="none" stroke="midnightblue" d="M42.7396,-224.77C49.2102,-198.839 70.3831,-127.468 115,-89.5 118.75,-86.3091 122.915,-83.5234 127.312,-81.0916"/>
<polygon fill="midnightblue" stroke="midnightblue" points="129.136,-84.0967 136.604,-76.581 126.079,-77.7995 129.136,-84.0967"/>
</g>
<!-- Node16 -->
<g id="node17" class="node"><title>Node16</title>
<g id="a_node17"><a xlink:href="classEigen_1_1BenchTimer.html#a367e14b2e9c1ab6d3f0ff7bcfcd5ee37" target="_top" xlink:title="Eigen::BenchTimer::stop">
<polygon fill="none" stroke="black" points="126.5,-99 126.5,-118 259.5,-118 259.5,-99 126.5,-99"/>
<text text-anchor="middle" x="193" y="-106" font-family="Helvetica,sans-Serif" font-size="10.00">Eigen::BenchTimer::stop</text>
</a>
</g>
</g>
<!-- Node0&#45;&gt;Node16 -->
<g id="edge17" class="edge"><title>Node0&#45;&gt;Node16</title>
<path fill="none" stroke="midnightblue" d="M44.4147,-224.744C53.4525,-203.52 77.8802,-153.018 115,-127.5 117.925,-125.489 121.042,-123.69 124.283,-122.082"/>
<polygon fill="midnightblue" stroke="midnightblue" points="125.885,-125.203 133.685,-118.033 123.116,-118.773 125.885,-125.203"/>
</g>
<!-- Node17 -->
<g id="node18" class="node"><title>Node17</title>
<g id="a_node18"><a xlink:href="classEigen_1_1BenchTimer.html#a26760f963ed8b64c126159bfea57735e" target="_top" xlink:title="Eigen::BenchTimer::\lvalue">
<polygon fill="none" stroke="black" points="137,-0.5 137,-30.5 249,-30.5 249,-0.5 137,-0.5"/>
<text text-anchor="start" x="145" y="-18.5" font-family="Helvetica,sans-Serif" font-size="10.00">Eigen::BenchTimer::</text>
<text text-anchor="middle" x="193" y="-7.5" font-family="Helvetica,sans-Serif" font-size="10.00">value</text>
</a>
</g>
</g>
<!-- Node0&#45;&gt;Node17 -->
<g id="edge20" class="edge"><title>Node0&#45;&gt;Node17</title>
<path fill="none" stroke="midnightblue" d="M41.2927,-224.763C44.3897,-193.185 58.4657,-92.5913 115,-39.5 118.794,-35.9369 123.11,-32.9025 127.716,-30.3185"/>
<polygon fill="midnightblue" stroke="midnightblue" points="129.397,-33.3934 136.87,-25.8836 126.345,-27.0938 129.397,-33.3934"/>
</g>
<!-- Node7 -->
<g id="node8" class="node"><title>Node7</title>
<g id="a_node8"><a xlink:href="classEigen_1_1SparseMatrix.html#a62e61bb861eee306d5b069ce652b5aa5" target="_top" xlink:title="Eigen::SparseMatrix\l::rows">
<polygon fill="none" stroke="black" points="319,-268.5 319,-298.5 431,-298.5 431,-268.5 319,-268.5"/>
<text text-anchor="start" x="327" y="-286.5" font-family="Helvetica,sans-Serif" font-size="10.00">Eigen::SparseMatrix</text>
<text text-anchor="middle" x="375" y="-275.5" font-family="Helvetica,sans-Serif" font-size="10.00">::rows</text>
</a>
</g>
</g>
<!-- Node6&#45;&gt;Node7 -->
<g id="edge7" class="edge"><title>Node6&#45;&gt;Node7</title>
<path fill="none" stroke="midnightblue" d="M224.023,-242.147C238.275,-245.816 255.535,-250.315 271,-254.5 284.203,-258.073 298.332,-261.99 311.762,-265.757"/>
<polygon fill="midnightblue" stroke="midnightblue" points="310.819,-269.127 321.394,-268.466 312.715,-262.389 310.819,-269.127"/>
</g>
<!-- Node8 -->
<g id="node9" class="node"><title>Node8</title>
<g id="a_node9"><a xlink:href="classEigen_1_1SparseMatrix.html#aa391750e3c530227e4a5c3c52e959975" target="_top" xlink:title="Eigen::SparseMatrix\l::cols">
<polygon fill="none" stroke="black" points="319,-219.5 319,-249.5 431,-249.5 431,-219.5 319,-219.5"/>
<text text-anchor="start" x="327" y="-237.5" font-family="Helvetica,sans-Serif" font-size="10.00">Eigen::SparseMatrix</text>
<text text-anchor="middle" x="375" y="-226.5" font-family="Helvetica,sans-Serif" font-size="10.00">::cols</text>
</a>
</g>
</g>
<!-- Node6&#45;&gt;Node8 -->
<g id="edge8" class="edge"><title>Node6&#45;&gt;Node8</title>
<path fill="none" stroke="midnightblue" d="M224.128,-234.5C247.136,-234.5 279.698,-234.5 308.596,-234.5"/>
<polygon fill="midnightblue" stroke="midnightblue" points="308.643,-238 318.643,-234.5 308.643,-231 308.643,-238"/>
</g>
<!-- Node9 -->
<g id="node10" class="node"><title>Node9</title>
<g id="a_node10"><a xlink:href="classEigen_1_1SparseMatrixBase.html#aa75a5f413b9c78b4ff906091cc9706a5" target="_top" xlink:title="Eigen::SparseMatrixBase\l::derived">
<polygon fill="none" stroke="black" points="307,-170.5 307,-200.5 443,-200.5 443,-170.5 307,-170.5"/>
<text text-anchor="start" x="315" y="-188.5" font-family="Helvetica,sans-Serif" font-size="10.00">Eigen::SparseMatrixBase</text>
<text text-anchor="middle" x="375" y="-177.5" font-family="Helvetica,sans-Serif" font-size="10.00">::derived</text>
</a>
</g>
</g>
<!-- Node6&#45;&gt;Node9 -->
<g id="edge9" class="edge"><title>Node6&#45;&gt;Node9</title>
<path fill="none" stroke="midnightblue" d="M224.023,-226.853C238.275,-223.184 255.535,-218.685 271,-214.5 284.203,-210.927 298.332,-207.01 311.762,-203.243"/>
<polygon fill="midnightblue" stroke="midnightblue" points="312.715,-206.611 321.394,-200.534 310.819,-199.873 312.715,-206.611"/>
</g>
<!-- Node13 -->
<g id="node14" class="node"><title>Node13</title>
<g id="a_node14"><a xlink:href="classEigen_1_1BenchTimer.html#a5e1faf3cf0c7958128fc4ad10377f51c" target="_top" xlink:title="Eigen::BenchTimer::\lgetCpuTime">
<polygon fill="none" stroke="black" points="319,-95.5 319,-125.5 431,-125.5 431,-95.5 319,-95.5"/>
<text text-anchor="start" x="327" y="-113.5" font-family="Helvetica,sans-Serif" font-size="10.00">Eigen::BenchTimer::</text>
<text text-anchor="middle" x="375" y="-102.5" font-family="Helvetica,sans-Serif" font-size="10.00">getCpuTime</text>
</a>
</g>
</g>
<!-- Node12&#45;&gt;Node13 -->
<g id="edge13" class="edge"><title>Node12&#45;&gt;Node13</title>
<path fill="none" stroke="midnightblue" d="M249.475,-78.6769C268.297,-83.487 289.494,-88.904 308.991,-93.8867"/>
<polygon fill="midnightblue" stroke="midnightblue" points="308.153,-97.2849 318.708,-96.3699 309.886,-90.5029 308.153,-97.2849"/>
</g>
<!-- Node15 -->
<g id="node16" class="node"><title>Node15</title>
<g id="a_node16"><a xlink:href="classEigen_1_1BenchTimer.html#af215200501091952ffa5e919fe31cfca" target="_top" xlink:title="Eigen::BenchTimer::\lgetRealTime">
<polygon fill="none" stroke="black" points="319,-46.5 319,-76.5 431,-76.5 431,-46.5 319,-46.5"/>
<text text-anchor="start" x="327" y="-64.5" font-family="Helvetica,sans-Serif" font-size="10.00">Eigen::BenchTimer::</text>
<text text-anchor="middle" x="375" y="-53.5" font-family="Helvetica,sans-Serif" font-size="10.00">getRealTime</text>
</a>
</g>
</g>
<!-- Node12&#45;&gt;Node15 -->
<g id="edge15" class="edge"><title>Node12&#45;&gt;Node15</title>
<path fill="none" stroke="midnightblue" d="M249.475,-63.5754C268.125,-63.2646 289.107,-62.9149 308.457,-62.5924"/>
<polygon fill="midnightblue" stroke="midnightblue" points="308.768,-66.0878 318.708,-62.4215 308.652,-59.0888 308.768,-66.0878"/>
</g>
<!-- Node14 -->
<g id="node15" class="node"><title>Node14</title>
<g id="a_node15"><a xlink:href="Cwise__array__power__array_8cpp.html#aa9e3025f5efca2c2a39d785652f2d710" target="_top" xlink:title="e">
<polygon fill="none" stroke="black" points="479,-76 479,-95 508,-95 508,-76 479,-76"/>
<text text-anchor="middle" x="493.5" y="-83" font-family="Helvetica,sans-Serif" font-size="10.00">e</text>
</a>
</g>
</g>
<!-- Node13&#45;&gt;Node14 -->
<g id="edge14" class="edge"><title>Node13&#45;&gt;Node14</title>
<path fill="none" stroke="midnightblue" d="M431.179,-98.6589C444.412,-95.8193 457.857,-92.9342 468.771,-90.592"/>
<polygon fill="midnightblue" stroke="midnightblue" points="469.698,-93.9728 478.741,-88.4525 468.23,-87.1286 469.698,-93.9728"/>
</g>
<!-- Node15&#45;&gt;Node14 -->
<g id="edge16" class="edge"><title>Node15&#45;&gt;Node14</title>
<path fill="none" stroke="midnightblue" d="M431.179,-72.8674C444.412,-75.5935 457.857,-78.3632 468.771,-80.6117"/>
<polygon fill="midnightblue" stroke="midnightblue" points="468.241,-84.0758 478.741,-82.6656 469.653,-77.2198 468.241,-84.0758"/>
</g>
<!-- Node16&#45;&gt;Node13 -->
<g id="edge18" class="edge"><title>Node16&#45;&gt;Node13</title>
<path fill="none" stroke="midnightblue" d="M259.748,-109.231C275.648,-109.407 292.639,-109.596 308.526,-109.773"/>
<polygon fill="midnightblue" stroke="midnightblue" points="308.746,-113.275 318.785,-109.886 308.824,-106.276 308.746,-113.275"/>
</g>
<!-- Node16&#45;&gt;Node15 -->
<g id="edge19" class="edge"><title>Node16&#45;&gt;Node15</title>
<path fill="none" stroke="midnightblue" d="M230.821,-98.9541C243.55,-95.6493 257.903,-91.9175 271,-88.5 283.279,-85.2959 296.38,-81.8686 308.978,-78.5684"/>
<polygon fill="midnightblue" stroke="midnightblue" points="310.162,-81.8763 318.948,-75.9555 308.387,-75.1049 310.162,-81.8763"/>
</g>
</g>
</svg>
