<?xml version="1.0" encoding="UTF-8" standalone="no"?>
<!DOCTYPE svg PUBLIC "-//W3C//DTD SVG 1.1//EN"
 "http://www.w3.org/Graphics/SVG/1.1/DTD/svg11.dtd">
<!-- Generated by graphviz version 2.38.0 (20140413.2041)
 -->
<!-- Title: main Pages: 1 -->
<svg width="407pt" height="616pt"
 viewBox="0.00 0.00 407.00 615.50" xmlns="http://www.w3.org/2000/svg" xmlns:xlink="http://www.w3.org/1999/xlink">
<g id="graph0" class="graph" transform="scale(1 1) rotate(0) translate(4 611.5)">
<title>main</title>
<!-- Node3 -->
<g id="node1" class="node"><title>Node3</title>
<polygon fill="#bfbfbf" stroke="black" points="0,-322 0,-341 41,-341 41,-322 0,-322"/>
<text text-anchor="middle" x="20.5" y="-329" font-family="Helvetica,sans-Serif" font-size="10.00">main</text>
</g>
<!-- Node4 -->
<g id="node2" class="node"><title>Node4</title>
<g id="a_node2"><a xlink:href="namespacempfr.html#a5a122ccaca307a0719f9c9595c1a83bc" target="_top" xlink:title="mpfr::ai">
<polygon fill="none" stroke="black" points="119.5,-588 119.5,-607 172.5,-607 172.5,-588 119.5,-588"/>
<text text-anchor="middle" x="146" y="-595" font-family="Helvetica,sans-Serif" font-size="10.00">mpfr::ai</text>
</a>
</g>
</g>
<!-- Node3&#45;&gt;Node4 -->
<g id="edge1" class="edge"><title>Node3&#45;&gt;Node4</title>
<path fill="none" stroke="midnightblue" d="M22.3725,-341.261C26.2619,-382.636 43.3261,-543.048 77,-578.5 85.4226,-587.367 97.609,-592.209 109.346,-594.816"/>
<polygon fill="midnightblue" stroke="midnightblue" points="108.986,-598.306 119.439,-596.576 110.189,-591.41 108.986,-598.306"/>
</g>
<!-- Node5 -->
<g id="node3" class="node"><title>Node5</title>
<g id="a_node3"><a xlink:href="classEigen_1_1BenchTimer.html#ae8b673b0fa356d3432c7a65c79e8af0e" target="_top" xlink:title="Eigen::BenchTimer::best">
<polygon fill="none" stroke="black" points="79.5,-550 79.5,-569 212.5,-569 212.5,-550 79.5,-550"/>
<text text-anchor="middle" x="146" y="-557" font-family="Helvetica,sans-Serif" font-size="10.00">Eigen::BenchTimer::best</text>
</a>
</g>
</g>
<!-- Node3&#45;&gt;Node5 -->
<g id="edge2" class="edge"><title>Node3&#45;&gt;Node5</title>
<path fill="none" stroke="midnightblue" d="M20.9513,-341.445C19.6903,-374.685 20.2947,-483.058 77,-540.5 78.4209,-541.939 79.9411,-543.272 81.5419,-544.506"/>
<polygon fill="midnightblue" stroke="midnightblue" points="79.7989,-547.544 90.1313,-549.888 83.5155,-541.612 79.7989,-547.544"/>
</g>
<!-- Node6 -->
<g id="node4" class="node"><title>Node6</title>
<g id="a_node4"><a xlink:href="Cwise__array__power__array_8cpp.html#aa9e3025f5efca2c2a39d785652f2d710" target="_top" xlink:title="e">
<polygon fill="none" stroke="black" points="131.5,-512 131.5,-531 160.5,-531 160.5,-512 131.5,-512"/>
<text text-anchor="middle" x="146" y="-519" font-family="Helvetica,sans-Serif" font-size="10.00">e</text>
</a>
</g>
</g>
<!-- Node3&#45;&gt;Node6 -->
<g id="edge3" class="edge"><title>Node3&#45;&gt;Node6</title>
<path fill="none" stroke="midnightblue" d="M21.6367,-341.267C22.5901,-370.304 29.4786,-456.905 77,-502.5 88.7707,-513.794 106.679,-518.48 121.164,-520.376"/>
<polygon fill="midnightblue" stroke="midnightblue" points="121.129,-523.889 131.414,-521.346 121.788,-516.92 121.129,-523.889"/>
</g>
<!-- Node7 -->
<g id="node5" class="node"><title>Node7</title>
<g id="a_node5"><a xlink:href="bench__gemm_8cpp.html#a4e3341ba4cc101e5c46e8d6f201b21f9" target="_top" xlink:title="gemm">
<polygon fill="none" stroke="black" points="122,-474 122,-493 170,-493 170,-474 122,-474"/>
<text text-anchor="middle" x="146" y="-481" font-family="Helvetica,sans-Serif" font-size="10.00">gemm</text>
</a>
</g>
</g>
<!-- Node3&#45;&gt;Node7 -->
<g id="edge4" class="edge"><title>Node3&#45;&gt;Node7</title>
<path fill="none" stroke="midnightblue" d="M22.6552,-341.187C26.1001,-365.677 38.5736,-430.527 77,-464.5 86.6138,-473 99.7362,-477.725 111.89,-480.342"/>
<polygon fill="midnightblue" stroke="midnightblue" points="111.318,-483.795 121.773,-482.08 112.531,-476.9 111.318,-483.795"/>
</g>
<!-- Node8 -->
<g id="node6" class="node"><title>Node8</title>
<g id="a_node6"><a xlink:href="namespaceEigen.html#a820c0e0460934cc17eb6dacbad54a9f5" target="_top" xlink:title="Eigen::initParallel">
<polygon fill="none" stroke="black" points="97.5,-284 97.5,-303 194.5,-303 194.5,-284 97.5,-284"/>
<text text-anchor="middle" x="146" y="-291" font-family="Helvetica,sans-Serif" font-size="10.00">Eigen::initParallel</text>
</a>
</g>
</g>
<!-- Node3&#45;&gt;Node8 -->
<g id="edge5" class="edge"><title>Node3&#45;&gt;Node8</title>
<path fill="none" stroke="midnightblue" d="M41.1882,-324.452C51.7574,-320.747 65.0369,-316.216 77,-312.5 84.2441,-310.25 91.9594,-307.978 99.4948,-305.825"/>
<polygon fill="midnightblue" stroke="midnightblue" points="100.568,-309.159 109.243,-303.076 98.6679,-302.422 100.568,-309.159"/>
</g>
<!-- Node11 -->
<g id="node9" class="node"><title>Node11</title>
<g id="a_node9"><a xlink:href="bench__gemm_8cpp.html#ac3f72509b5738db82641c3b82fbb924b" target="_top" xlink:title="matlab_cplx_cplx">
<polygon fill="none" stroke="black" points="97,-398 97,-417 195,-417 195,-398 97,-398"/>
<text text-anchor="middle" x="146" y="-405" font-family="Helvetica,sans-Serif" font-size="10.00">matlab_cplx_cplx</text>
</a>
</g>
</g>
<!-- Node3&#45;&gt;Node11 -->
<g id="edge8" class="edge"><title>Node3&#45;&gt;Node11</title>
<path fill="none" stroke="midnightblue" d="M28.2479,-341.086C37.7021,-353.805 56.0952,-376.094 77,-388.5 80.6762,-390.682 84.6129,-392.622 88.6707,-394.345"/>
<polygon fill="midnightblue" stroke="midnightblue" points="87.7018,-397.721 98.2933,-397.986 90.1789,-391.173 87.7018,-397.721"/>
</g>
<!-- Node12 -->
<g id="node10" class="node"><title>Node12</title>
<g id="a_node10"><a xlink:href="bench__gemm_8cpp.html#a9e2d9ccfcb712b16c104621540a1119e" target="_top" xlink:title="matlab_cplx_real">
<polygon fill="none" stroke="black" points="97,-360 97,-379 195,-379 195,-360 97,-360"/>
<text text-anchor="middle" x="146" y="-367" font-family="Helvetica,sans-Serif" font-size="10.00">matlab_cplx_real</text>
</a>
</g>
</g>
<!-- Node3&#45;&gt;Node12 -->
<g id="edge9" class="edge"><title>Node3&#45;&gt;Node12</title>
<path fill="none" stroke="midnightblue" d="M41.1882,-338.548C51.7574,-342.253 65.0369,-346.784 77,-350.5 84.2441,-352.75 91.9594,-355.022 99.4948,-357.175"/>
<polygon fill="midnightblue" stroke="midnightblue" points="98.6679,-360.578 109.243,-359.924 100.568,-353.841 98.6679,-360.578"/>
</g>
<!-- Node13 -->
<g id="node11" class="node"><title>Node13</title>
<g id="a_node11"><a xlink:href="bench__gemm_8cpp.html#a180c37ca9b882eaf80eac1e257f2a8c0" target="_top" xlink:title="matlab_real_cplx">
<polygon fill="none" stroke="black" points="97,-322 97,-341 195,-341 195,-322 97,-322"/>
<text text-anchor="middle" x="146" y="-329" font-family="Helvetica,sans-Serif" font-size="10.00">matlab_real_cplx</text>
</a>
</g>
</g>
<!-- Node3&#45;&gt;Node13 -->
<g id="edge10" class="edge"><title>Node3&#45;&gt;Node13</title>
<path fill="none" stroke="midnightblue" d="M41.0689,-331.5C53.4604,-331.5 70.1928,-331.5 86.6079,-331.5"/>
<polygon fill="midnightblue" stroke="midnightblue" points="86.746,-335 96.746,-331.5 86.7459,-328 86.746,-335"/>
</g>
<!-- Node14 -->
<g id="node12" class="node"><title>Node14</title>
<g id="a_node12"><a xlink:href="namespaceEigen_1_1internal.html#abc24477d9f0a7445aa8ece2b5b7a0b7b" target="_top" xlink:title="Eigen::internal::queryL1\lCacheSize">
<polygon fill="none" stroke="black" points="81.5,-147.5 81.5,-177.5 210.5,-177.5 210.5,-147.5 81.5,-147.5"/>
<text text-anchor="start" x="89.5" y="-165.5" font-family="Helvetica,sans-Serif" font-size="10.00">Eigen::internal::queryL1</text>
<text text-anchor="middle" x="146" y="-154.5" font-family="Helvetica,sans-Serif" font-size="10.00">CacheSize</text>
</a>
</g>
</g>
<!-- Node3&#45;&gt;Node14 -->
<g id="edge11" class="edge"><title>Node3&#45;&gt;Node14</title>
<path fill="none" stroke="midnightblue" d="M22.4779,-321.969C25.5838,-296.546 37.4795,-226.41 77,-187.5 78.4789,-186.044 80.0496,-184.672 81.6942,-183.379"/>
<polygon fill="midnightblue" stroke="midnightblue" points="84.065,-186.005 90.4496,-177.55 80.1859,-180.178 84.065,-186.005"/>
</g>
<!-- Node16 -->
<g id="node14" class="node"><title>Node16</title>
<g id="a_node14"><a xlink:href="namespaceEigen_1_1internal.html#ab12a6ee511234693252cf02dfef07899" target="_top" xlink:title="Eigen::internal::queryTop\lLevelCacheSize">
<polygon fill="none" stroke="black" points="79,-196.5 79,-226.5 213,-226.5 213,-196.5 79,-196.5"/>
<text text-anchor="start" x="87" y="-214.5" font-family="Helvetica,sans-Serif" font-size="10.00">Eigen::internal::queryTop</text>
<text text-anchor="middle" x="146" y="-203.5" font-family="Helvetica,sans-Serif" font-size="10.00">LevelCacheSize</text>
</a>
</g>
</g>
<!-- Node3&#45;&gt;Node16 -->
<g id="edge13" class="edge"><title>Node3&#45;&gt;Node16</title>
<path fill="none" stroke="midnightblue" d="M24.5878,-321.962C31.1894,-303.018 48.4441,-260.415 77,-236.5 79.025,-234.804 81.1754,-233.218 83.417,-231.736"/>
<polygon fill="midnightblue" stroke="midnightblue" points="85.5381,-234.552 92.4423,-226.516 82.0335,-228.492 85.5381,-234.552"/>
</g>
<!-- Node17 -->
<g id="node15" class="node"><title>Node17</title>
<g id="a_node15"><a xlink:href="namespaceEigen.html#ae64421554aa0a4bf9258bafe3170102b" target="_top" xlink:title="Eigen::setCpuCacheSizes">
<polygon fill="none" stroke="black" points="77,-246 77,-265 215,-265 215,-246 77,-246"/>
<text text-anchor="middle" x="146" y="-253" font-family="Helvetica,sans-Serif" font-size="10.00">Eigen::setCpuCacheSizes</text>
</a>
</g>
</g>
<!-- Node3&#45;&gt;Node17 -->
<g id="edge15" class="edge"><title>Node3&#45;&gt;Node17</title>
<path fill="none" stroke="midnightblue" d="M28.2479,-321.914C37.7021,-309.195 56.0952,-286.906 77,-274.5 80.6762,-272.318 84.6129,-270.378 88.6707,-268.655"/>
<polygon fill="midnightblue" stroke="midnightblue" points="90.1789,-271.827 98.2933,-265.014 87.7018,-265.279 90.1789,-271.827"/>
</g>
<!-- Node18 -->
<g id="node16" class="node"><title>Node18</title>
<g id="a_node16"><a xlink:href="namespaceEigen.html#af9cd17c2fe18204239cd11c88c120b50" target="_top" xlink:title="Eigen::setNbThreads">
<polygon fill="none" stroke="black" points="88,-436 88,-455 204,-455 204,-436 88,-436"/>
<text text-anchor="middle" x="146" y="-443" font-family="Helvetica,sans-Serif" font-size="10.00">Eigen::setNbThreads</text>
</a>
</g>
</g>
<!-- Node3&#45;&gt;Node18 -->
<g id="edge17" class="edge"><title>Node3&#45;&gt;Node18</title>
<path fill="none" stroke="midnightblue" d="M24.429,-341.235C30.7453,-360.535 47.5123,-403.743 77,-426.5 79.4442,-428.386 82.0657,-430.085 84.806,-431.616"/>
<polygon fill="midnightblue" stroke="midnightblue" points="83.3578,-434.803 93.8901,-435.952 86.3734,-428.485 83.3578,-434.803"/>
</g>
<!-- Node19 -->
<g id="node17" class="node"><title>Node19</title>
<g id="a_node17"><a xlink:href="classEigen_1_1PlainObjectBase.html#a2871e88e1feb1cc665fa1f1cc800078b" target="_top" xlink:title="Eigen::PlainObjectBase\l::setOnes">
<polygon fill="none" stroke="black" points="83,-98.5 83,-128.5 209,-128.5 209,-98.5 83,-98.5"/>
<text text-anchor="start" x="91" y="-116.5" font-family="Helvetica,sans-Serif" font-size="10.00">Eigen::PlainObjectBase</text>
<text text-anchor="middle" x="146" y="-105.5" font-family="Helvetica,sans-Serif" font-size="10.00">::setOnes</text>
</a>
</g>
</g>
<!-- Node3&#45;&gt;Node19 -->
<g id="edge19" class="edge"><title>Node3&#45;&gt;Node19</title>
<path fill="none" stroke="midnightblue" d="M21.3905,-321.596C21.5873,-290.376 26.4209,-192.875 77,-138.5 78.2368,-137.17 79.5504,-135.911 80.9282,-134.719"/>
<polygon fill="midnightblue" stroke="midnightblue" points="83.3643,-137.277 89.4333,-128.593 79.2733,-131.597 83.3643,-137.277"/>
</g>
<!-- Node20 -->
<g id="node18" class="node"><title>Node20</title>
<g id="a_node18"><a xlink:href="classEigen_1_1PlainObjectBase.html#af0e576a0e1aefc9ee346de44cc352ba3" target="_top" xlink:title="Eigen::PlainObjectBase\l::setRandom">
<polygon fill="none" stroke="black" points="83,-49.5 83,-79.5 209,-79.5 209,-49.5 83,-49.5"/>
<text text-anchor="start" x="91" y="-67.5" font-family="Helvetica,sans-Serif" font-size="10.00">Eigen::PlainObjectBase</text>
<text text-anchor="middle" x="146" y="-56.5" font-family="Helvetica,sans-Serif" font-size="10.00">::setRandom</text>
</a>
</g>
</g>
<!-- Node3&#45;&gt;Node20 -->
<g id="edge20" class="edge"><title>Node3&#45;&gt;Node20</title>
<path fill="none" stroke="midnightblue" d="M22.5037,-321.728C26.8643,-281.026 45.3804,-125.409 77,-89.5 78.1715,-88.1696 79.4202,-86.9098 80.7339,-85.7171"/>
<polygon fill="midnightblue" stroke="midnightblue" points="82.9934,-88.3972 88.8854,-79.5918 78.7883,-82.801 82.9934,-88.3972"/>
</g>
<!-- Node21 -->
<g id="node19" class="node"><title>Node21</title>
<g id="a_node19"><a xlink:href="classEigen_1_1BenchTimer.html#af341aa613dba2d4a3d167093197e4e7a" target="_top" xlink:title="Eigen::BenchTimer::\ltotal">
<polygon fill="none" stroke="black" points="90,-0.5 90,-30.5 202,-30.5 202,-0.5 90,-0.5"/>
<text text-anchor="start" x="98" y="-18.5" font-family="Helvetica,sans-Serif" font-size="10.00">Eigen::BenchTimer::</text>
<text text-anchor="middle" x="146" y="-7.5" font-family="Helvetica,sans-Serif" font-size="10.00">total</text>
</a>
</g>
</g>
<!-- Node3&#45;&gt;Node21 -->
<g id="edge21" class="edge"><title>Node3&#45;&gt;Node21</title>
<path fill="none" stroke="midnightblue" d="M22.0783,-321.976C24.9986,-276.828 39.4887,-84.7224 77,-40.5 78.3425,-38.9173 79.7944,-37.4348 81.3361,-36.0461"/>
<polygon fill="midnightblue" stroke="midnightblue" points="83.7453,-38.6174 89.7013,-29.8551 79.5811,-32.9907 83.7453,-38.6174"/>
</g>
<!-- Node9 -->
<g id="node7" class="node"><title>Node9</title>
<g id="a_node7"><a xlink:href="namespaceEigen_1_1internal.html#a6e841e3c4f4914cf1e06704ec8537db3" target="_top" xlink:title="Eigen::internal::manage\l_multi_threading">
<polygon fill="none" stroke="black" points="259.5,-378.5 259.5,-408.5 390.5,-408.5 390.5,-378.5 259.5,-378.5"/>
<text text-anchor="start" x="267.5" y="-396.5" font-family="Helvetica,sans-Serif" font-size="10.00">Eigen::internal::manage</text>
<text text-anchor="middle" x="325" y="-385.5" font-family="Helvetica,sans-Serif" font-size="10.00">_multi_threading</text>
</a>
</g>
</g>
<!-- Node8&#45;&gt;Node9 -->
<g id="edge6" class="edge"><title>Node8&#45;&gt;Node9</title>
<path fill="none" stroke="midnightblue" d="M190.326,-303.034C198.72,-305.591 207.295,-308.723 215,-312.5 246.771,-328.074 278.753,-353.226 299.778,-371.373"/>
<polygon fill="midnightblue" stroke="midnightblue" points="297.721,-374.225 307.546,-378.191 302.339,-368.964 297.721,-374.225"/>
</g>
<!-- Node10 -->
<g id="node8" class="node"><title>Node10</title>
<g id="a_node8"><a xlink:href="namespaceEigen_1_1internal.html#aa32f9fb4cd20f86ef87d00db101e2f7c" target="_top" xlink:title="Eigen::internal::manage\l_caching_sizes">
<polygon fill="none" stroke="black" points="259.5,-259.5 259.5,-289.5 390.5,-289.5 390.5,-259.5 259.5,-259.5"/>
<text text-anchor="start" x="267.5" y="-277.5" font-family="Helvetica,sans-Serif" font-size="10.00">Eigen::internal::manage</text>
<text text-anchor="middle" x="325" y="-266.5" font-family="Helvetica,sans-Serif" font-size="10.00">_caching_sizes</text>
</a>
</g>
</g>
<!-- Node8&#45;&gt;Node10 -->
<g id="edge7" class="edge"><title>Node8&#45;&gt;Node10</title>
<path fill="none" stroke="midnightblue" d="M194.899,-288.358C211.657,-286.559 230.896,-284.494 249.316,-282.517"/>
<polygon fill="midnightblue" stroke="midnightblue" points="249.874,-285.977 259.444,-281.43 249.127,-279.017 249.874,-285.977"/>
</g>
<!-- Node15 -->
<g id="node13" class="node"><title>Node15</title>
<g id="a_node13"><a xlink:href="namespaceEigen_1_1internal.html#a3a3f70166790e15844d6b9804f84f952" target="_top" xlink:title="Eigen::internal::queryCache\lSizes">
<polygon fill="none" stroke="black" points="251,-171.5 251,-201.5 399,-201.5 399,-171.5 251,-171.5"/>
<text text-anchor="start" x="259" y="-189.5" font-family="Helvetica,sans-Serif" font-size="10.00">Eigen::internal::queryCache</text>
<text text-anchor="middle" x="325" y="-178.5" font-family="Helvetica,sans-Serif" font-size="10.00">Sizes</text>
</a>
</g>
</g>
<!-- Node14&#45;&gt;Node15 -->
<g id="edge12" class="edge"><title>Node14&#45;&gt;Node15</title>
<path fill="none" stroke="midnightblue" d="M210.901,-171.165C220.63,-172.484 230.79,-173.861 240.857,-175.226"/>
<polygon fill="midnightblue" stroke="midnightblue" points="240.494,-178.709 250.874,-176.585 241.435,-171.773 240.494,-178.709"/>
</g>
<!-- Node16&#45;&gt;Node15 -->
<g id="edge14" class="edge"><title>Node16&#45;&gt;Node15</title>
<path fill="none" stroke="midnightblue" d="M213.16,-202.155C222.174,-200.882 231.518,-199.562 240.785,-198.254"/>
<polygon fill="midnightblue" stroke="midnightblue" points="241.379,-201.704 250.791,-196.84 240.4,-194.773 241.379,-201.704"/>
</g>
<!-- Node17&#45;&gt;Node10 -->
<g id="edge16" class="edge"><title>Node17&#45;&gt;Node10</title>
<path fill="none" stroke="midnightblue" d="M215.18,-262.819C226.289,-264.011 237.85,-265.252 249.111,-266.461"/>
<polygon fill="midnightblue" stroke="midnightblue" points="249.029,-269.972 259.345,-267.56 249.776,-263.012 249.029,-269.972"/>
</g>
<!-- Node18&#45;&gt;Node9 -->
<g id="edge18" class="edge"><title>Node18&#45;&gt;Node9</title>
<path fill="none" stroke="midnightblue" d="M181.634,-435.978C192.345,-432.992 204.172,-429.651 215,-426.5 231.35,-421.741 249.036,-416.45 265.308,-411.522"/>
<polygon fill="midnightblue" stroke="midnightblue" points="266.681,-414.763 275.233,-408.509 264.647,-408.065 266.681,-414.763"/>
</g>
</g>
</svg>
