<?xml version="1.0" encoding="UTF-8" standalone="no"?>
<!DOCTYPE svg PUBLIC "-//W3C//DTD SVG 1.1//EN"
 "http://www.w3.org/Graphics/SVG/1.1/DTD/svg11.dtd">
<!-- Generated by graphviz version 2.38.0 (20140413.2041)
 -->
<!-- Title: test_bicgstab_T Pages: 1 -->
<svg width="318pt" height="100pt"
 viewBox="0.00 0.00 318.00 99.50" xmlns="http://www.w3.org/2000/svg" xmlns:xlink="http://www.w3.org/1999/xlink">
<g id="graph0" class="graph" transform="scale(1 1) rotate(0) translate(4 95.5)">
<title>test_bicgstab_T</title>
<!-- Node5 -->
<g id="node1" class="node"><title>Node5</title>
<polygon fill="#bfbfbf" stroke="black" points="0,-38.5 0,-57.5 92,-57.5 92,-38.5 0,-38.5"/>
<text text-anchor="middle" x="46" y="-45.5" font-family="Helvetica,sans-Serif" font-size="10.00">test_bicgstab_T</text>
</g>
<!-- Node6 -->
<g id="node2" class="node"><title>Node6</title>
<g id="a_node2"><a xlink:href="sparse__solver_8h.html#a12301f6419eb573c0fca674bc589b4f6" target="_top" xlink:title="check_sparse_square\l_solving">
<polygon fill="none" stroke="black" points="159,-61 159,-91 279,-91 279,-61 159,-61"/>
<text text-anchor="start" x="167" y="-79" font-family="Helvetica,sans-Serif" font-size="10.00">check_sparse_square</text>
<text text-anchor="middle" x="219" y="-68" font-family="Helvetica,sans-Serif" font-size="10.00">_solving</text>
</a>
</g>
</g>
<!-- Node5&#45;&gt;Node6 -->
<g id="edge1" class="edge"><title>Node5&#45;&gt;Node6</title>
<path fill="none" stroke="midnightblue" d="M92.3759,-55.43C109.653,-58.259 129.758,-61.551 148.751,-64.661"/>
<polygon fill="midnightblue" stroke="midnightblue" points="148.427,-68.1545 158.862,-66.3165 149.559,-61.2465 148.427,-68.1545"/>
</g>
<!-- Node7 -->
<g id="node3" class="node"><title>Node7</title>
<g id="a_node3"><a xlink:href="classEigen_1_1IterativeSolverBase.html#ac160a444af8998f93da9aa30e858470d" target="_top" xlink:title="Eigen::IterativeSolverBase\l\&lt; BiCGSTAB\&lt; _MatrixType,\l _Preconditioner \&gt; \&gt;::setTolerance">
<polygon fill="none" stroke="black" points="128,-0.5 128,-41.5 310,-41.5 310,-0.5 128,-0.5"/>
<text text-anchor="start" x="136" y="-29.5" font-family="Helvetica,sans-Serif" font-size="10.00">Eigen::IterativeSolverBase</text>
<text text-anchor="start" x="136" y="-18.5" font-family="Helvetica,sans-Serif" font-size="10.00">&lt; BiCGSTAB&lt; _MatrixType,</text>
<text text-anchor="middle" x="219" y="-7.5" font-family="Helvetica,sans-Serif" font-size="10.00"> _Preconditioner &gt; &gt;::setTolerance</text>
</a>
</g>
</g>
<!-- Node5&#45;&gt;Node7 -->
<g id="edge2" class="edge"><title>Node5&#45;&gt;Node7</title>
<path fill="none" stroke="midnightblue" d="M92.3759,-40.8354C100.356,-39.5754 108.938,-38.2203 117.736,-36.8311"/>
<polygon fill="midnightblue" stroke="midnightblue" points="118.408,-40.2685 127.74,-35.2516 117.316,-33.3541 118.408,-40.2685"/>
</g>
</g>
</svg>
