<?xml version="1.0" encoding="UTF-8" standalone="no"?>
<!DOCTYPE svg PUBLIC "-//W3C//DTD SVG 1.1//EN"
 "http://www.w3.org/Graphics/SVG/1.1/DTD/svg11.dtd">
<!-- Generated by graphviz version 2.38.0 (20140413.2041)
 -->
<!-- Title: row Pages: 1 -->
<svg width="361pt" height="180pt"
 viewBox="0.00 0.00 361.00 180.00" xmlns="http://www.w3.org/2000/svg" xmlns:xlink="http://www.w3.org/1999/xlink">
<g id="graph0" class="graph" transform="scale(1 1) rotate(0) translate(4 176)">
<title>row</title>
<!-- Node55 -->
<g id="node1" class="node"><title>Node55</title>
<polygon fill="#bfbfbf" stroke="black" points="0,-76.5 0,-95.5 33,-95.5 33,-76.5 0,-76.5"/>
<text text-anchor="middle" x="16.5" y="-83.5" font-family="Helvetica,sans-Serif" font-size="10.00">row</text>
</g>
<!-- Node56 -->
<g id="node2" class="node"><title>Node56</title>
<g id="a_node2"><a xlink:href="BlockMethods_8h.html#acdac00f55ab82617e86f17269aca4c2b" target="_top" xlink:title="This is the const version of bottomLeftCorner&lt;int, int&gt;(). ">
<polygon fill="none" stroke="black" points="69,-152.5 69,-171.5 171,-171.5 171,-152.5 69,-152.5"/>
<text text-anchor="middle" x="120" y="-159.5" font-family="Helvetica,sans-Serif" font-size="10.00">bottomLeftCorner</text>
</a>
</g>
</g>
<!-- Node55&#45;&gt;Node56 -->
<g id="edge1" class="edge"><title>Node55&#45;&gt;Node56</title>
<path fill="none" stroke="midnightblue" d="M30.1416,-104.01C39.6253,-116.401 53.5838,-132.462 69,-143 74.4431,-146.721 80.7129,-149.839 86.9323,-152.403"/>
<polygon fill="midnightblue" stroke="midnightblue" points="32.8189,-101.743 24.0699,-95.7674 27.1829,-105.895 32.8189,-101.743"/>
</g>
<!-- Node57 -->
<g id="node3" class="node"><title>Node57</title>
<g id="a_node3"><a xlink:href="BlockMethods_8h.html#ae6978b7e8878f448aa4389b90633be31" target="_top" xlink:title="This is the const version of bottomRows(Index). ">
<polygon fill="none" stroke="black" points="82.5,-38.5 82.5,-57.5 157.5,-57.5 157.5,-38.5 82.5,-38.5"/>
<text text-anchor="middle" x="120" y="-45.5" font-family="Helvetica,sans-Serif" font-size="10.00">bottomRows</text>
</a>
</g>
</g>
<!-- Node55&#45;&gt;Node57 -->
<g id="edge2" class="edge"><title>Node55&#45;&gt;Node57</title>
<path fill="none" stroke="midnightblue" d="M42.8019,-76.5274C58.2332,-70.7501 77.8996,-63.3874 93.3873,-57.589"/>
<polygon fill="midnightblue" stroke="midnightblue" points="41.4974,-73.2784 33.3594,-80.0625 43.9518,-79.8341 41.4974,-73.2784"/>
</g>
<!-- Node60 -->
<g id="node6" class="node"><title>Node60</title>
<g id="a_node6"><a xlink:href="BlockMethods_8h.html#ac820575ee62de615224f350c02085469" target="_top" xlink:title="This is the const version of col(). ">
<polygon fill="none" stroke="black" points="105,-0.5 105,-19.5 135,-19.5 135,-0.5 105,-0.5"/>
<text text-anchor="middle" x="120" y="-7.5" font-family="Helvetica,sans-Serif" font-size="10.00">col</text>
</a>
</g>
</g>
<!-- Node55&#45;&gt;Node60 -->
<g id="edge5" class="edge"><title>Node55&#45;&gt;Node60</title>
<path fill="none" stroke="midnightblue" d="M30.1416,-67.9903C39.6253,-55.5994 53.5838,-39.5376 69,-29 79.8862,-21.5588 94.0794,-16.5268 104.561,-13.5208"/>
<polygon fill="midnightblue" stroke="midnightblue" points="27.1829,-66.1055 24.0699,-76.2326 32.8189,-70.2572 27.1829,-66.1055"/>
</g>
<!-- Node61 -->
<g id="node7" class="node"><title>Node61</title>
<g id="a_node7"><a xlink:href="BlockMethods_8h.html#a30c2a2a77db3f00210d7f0ff7aae30a6" target="_top" xlink:title="This is the const version of middleRows(Index,Index). ">
<polygon fill="none" stroke="black" points="84,-114.5 84,-133.5 156,-133.5 156,-114.5 84,-114.5"/>
<text text-anchor="middle" x="120" y="-121.5" font-family="Helvetica,sans-Serif" font-size="10.00">middleRows</text>
</a>
</g>
</g>
<!-- Node55&#45;&gt;Node61 -->
<g id="edge6" class="edge"><title>Node55&#45;&gt;Node61</title>
<path fill="none" stroke="midnightblue" d="M42.8019,-95.4726C58.2332,-101.25 77.8996,-108.613 93.3873,-114.411"/>
<polygon fill="midnightblue" stroke="midnightblue" points="43.9518,-92.1659 33.3594,-91.9375 41.4974,-98.7216 43.9518,-92.1659"/>
</g>
<!-- Node62 -->
<g id="node8" class="node"><title>Node62</title>
<g id="a_node8"><a xlink:href="BlockMethods_8h.html#a902989533f1015fb34ff9a2d1ab23066" target="_top" xlink:title="This is the const version of topRows(Index). ">
<polygon fill="none" stroke="black" points="92,-76.5 92,-95.5 148,-95.5 148,-76.5 92,-76.5"/>
<text text-anchor="middle" x="120" y="-83.5" font-family="Helvetica,sans-Serif" font-size="10.00">topRows</text>
</a>
</g>
</g>
<!-- Node55&#45;&gt;Node62 -->
<g id="edge8" class="edge"><title>Node55&#45;&gt;Node62</title>
<path fill="none" stroke="midnightblue" d="M43.3795,-86C58.1956,-86 76.7685,-86 91.7999,-86"/>
<polygon fill="midnightblue" stroke="midnightblue" points="43.3594,-82.5001 33.3594,-86 43.3593,-89.5001 43.3594,-82.5001"/>
</g>
<!-- Node58 -->
<g id="node4" class="node"><title>Node58</title>
<g id="a_node4"><a xlink:href="corners_8cpp.html#a22a1a4f6039c468d8154789777b51bbb" target="_top" xlink:title="corners">
<polygon fill="none" stroke="black" points="253.5,-82.5 253.5,-101.5 306.5,-101.5 306.5,-82.5 253.5,-82.5"/>
<text text-anchor="middle" x="280" y="-89.5" font-family="Helvetica,sans-Serif" font-size="10.00">corners</text>
</a>
</g>
</g>
<!-- Node57&#45;&gt;Node58 -->
<g id="edge3" class="edge"><title>Node57&#45;&gt;Node58</title>
<path fill="none" stroke="midnightblue" d="M165.259,-60.3623C178.667,-64.1044 193.434,-68.223 207,-72 222.372,-76.2801 239.594,-81.0642 253.339,-84.8801"/>
<polygon fill="midnightblue" stroke="midnightblue" points="165.886,-56.9036 155.313,-57.5859 164.004,-63.6458 165.886,-56.9036"/>
</g>
<!-- Node59 -->
<g id="node5" class="node"><title>Node59</title>
<g id="a_node5"><a xlink:href="classEigen_1_1DenseBase.html#adb8045155ea45f7961fc2a5170e1d921" target="_top" xlink:title="Eigen::DenseBase::reverse\lInPlace">
<polygon fill="none" stroke="black" points="207,-33 207,-63 353,-63 353,-33 207,-33"/>
<text text-anchor="start" x="215" y="-51" font-family="Helvetica,sans-Serif" font-size="10.00">Eigen::DenseBase::reverse</text>
<text text-anchor="middle" x="280" y="-40" font-family="Helvetica,sans-Serif" font-size="10.00">InPlace</text>
</a>
</g>
</g>
<!-- Node57&#45;&gt;Node59 -->
<g id="edge4" class="edge"><title>Node57&#45;&gt;Node59</title>
<path fill="none" stroke="midnightblue" d="M168.011,-48C180.206,-48 193.625,-48 206.791,-48"/>
<polygon fill="midnightblue" stroke="midnightblue" points="167.646,-44.5001 157.646,-48 167.645,-51.5001 167.646,-44.5001"/>
</g>
<!-- Node61&#45;&gt;Node58 -->
<g id="edge7" class="edge"><title>Node61&#45;&gt;Node58</title>
<path fill="none" stroke="midnightblue" d="M166.124,-114.861C194.4,-109.134 229.818,-101.961 253.362,-97.1925"/>
<polygon fill="midnightblue" stroke="midnightblue" points="165.172,-111.483 156.065,-116.898 166.561,-118.343 165.172,-111.483"/>
</g>
<!-- Node62&#45;&gt;Node58 -->
<g id="edge10" class="edge"><title>Node62&#45;&gt;Node58</title>
<path fill="none" stroke="midnightblue" d="M158.436,-87.4216C187.761,-88.5352 227.77,-90.0545 253.499,-91.0316"/>
<polygon fill="midnightblue" stroke="midnightblue" points="158.287,-83.9135 148.161,-87.0314 158.021,-90.9085 158.287,-83.9135"/>
</g>
<!-- Node62&#45;&gt;Node59 -->
<g id="edge9" class="edge"><title>Node62&#45;&gt;Node59</title>
<path fill="none" stroke="midnightblue" d="M157.937,-77.1165C175.365,-72.925 196.648,-67.8062 216.481,-63.0363"/>
<polygon fill="midnightblue" stroke="midnightblue" points="157.065,-73.7261 148.161,-79.4676 158.702,-80.5321 157.065,-73.7261"/>
</g>
</g>
</svg>
