<?xml version="1.0" encoding="UTF-8" standalone="no"?>
<!DOCTYPE svg PUBLIC "-//W3C//DTD SVG 1.1//EN"
 "http://www.w3.org/Graphics/SVG/1.1/DTD/svg11.dtd">
<!-- Generated by graphviz version 2.38.0 (20140413.2041)
 -->
<!-- Title: head Pages: 1 -->
<svg width="428pt" height="78pt"
 viewBox="0.00 0.00 428.00 77.50" xmlns="http://www.w3.org/2000/svg" xmlns:xlink="http://www.w3.org/1999/xlink">
<g id="graph0" class="graph" transform="scale(1 1) rotate(0) translate(4 73.5)">
<title>head</title>
<!-- Node34 -->
<g id="node1" class="node"><title>Node34</title>
<polygon fill="#bfbfbf" stroke="black" points="0,-28 0,-47 41,-47 41,-28 0,-28"/>
<text text-anchor="middle" x="20.5" y="-35" font-family="Helvetica,sans-Serif" font-size="10.00">head</text>
</g>
<!-- Node35 -->
<g id="node2" class="node"><title>Node35</title>
<g id="a_node2"><a xlink:href="namespaceinternal.html#a7aaab7bd925c78071c636749a9fe4fa8" target="_top" xlink:title="internal::colamd_r">
<polygon fill="none" stroke="black" points="94,-50 94,-69 197,-69 197,-50 94,-50"/>
<text text-anchor="middle" x="145.5" y="-57" font-family="Helvetica,sans-Serif" font-size="10.00">internal::colamd_r</text>
</a>
</g>
</g>
<!-- Node34&#45;&gt;Node35 -->
<g id="edge1" class="edge"><title>Node34&#45;&gt;Node35</title>
<path fill="none" stroke="midnightblue" d="M51.3095,-42.8318C64.0573,-45.1119 79.3045,-47.839 93.7375,-50.4205"/>
<polygon fill="midnightblue" stroke="midnightblue" points="51.7221,-39.3501 41.2621,-41.0347 50.4896,-46.2408 51.7221,-39.3501"/>
</g>
<!-- Node37 -->
<g id="node4" class="node"><title>Node37</title>
<g id="a_node4"><a xlink:href="namespaceEigen_1_1internal.html#ac4cdf88f2d52d415825bd1d185d897d6" target="_top" xlink:title="Eigen::internal::minimum\l_degree_ordering">
<polygon fill="none" stroke="black" points="77,-0.5 77,-30.5 214,-30.5 214,-0.5 77,-0.5"/>
<text text-anchor="start" x="85" y="-18.5" font-family="Helvetica,sans-Serif" font-size="10.00">Eigen::internal::minimum</text>
<text text-anchor="middle" x="145.5" y="-7.5" font-family="Helvetica,sans-Serif" font-size="10.00">_degree_ordering</text>
</a>
</g>
</g>
<!-- Node34&#45;&gt;Node37 -->
<g id="edge3" class="edge"><title>Node34&#45;&gt;Node37</title>
<path fill="none" stroke="midnightblue" d="M51.2876,-32.1721C59.1223,-30.7708 67.9023,-29.2004 76.8578,-27.5986"/>
<polygon fill="midnightblue" stroke="midnightblue" points="50.4896,-28.7592 41.2621,-33.9653 51.7221,-35.6499 50.4896,-28.7592"/>
</g>
<!-- Node36 -->
<g id="node3" class="node"><title>Node36</title>
<g id="a_node3"><a xlink:href="namespaceinternal.html#a6702fb80a0ef276ea3b9e2e65a8f12a1" target="_top" xlink:title="Returns the recommended value of Alen. ">
<polygon fill="none" stroke="black" points="250,-50 250,-69 420,-69 420,-50 250,-50"/>
<text text-anchor="middle" x="335" y="-57" font-family="Helvetica,sans-Serif" font-size="10.00">internal::colamd_recommended</text>
</a>
</g>
</g>
<!-- Node35&#45;&gt;Node36 -->
<g id="edge2" class="edge"><title>Node35&#45;&gt;Node36</title>
<path fill="none" stroke="midnightblue" d="M207.404,-59.5C220.994,-59.5 235.637,-59.5 249.974,-59.5"/>
<polygon fill="midnightblue" stroke="midnightblue" points="207.24,-56.0001 197.24,-59.5 207.24,-63.0001 207.24,-56.0001"/>
</g>
</g>
</svg>
