<?xml version="1.0" encoding="UTF-8" standalone="no"?>
<!DOCTYPE svg PUBLIC "-//W3C//DTD SVG 1.1//EN"
 "http://www.w3.org/Graphics/SVG/1.1/DTD/svg11.dtd">
<!-- Generated by graphviz version 2.38.0 (20140413.2041)
 -->
<!-- Title: leftCols Pages: 1 -->
<svg width="242pt" height="116pt"
 viewBox="0.00 0.00 242.00 116.00" xmlns="http://www.w3.org/2000/svg" xmlns:xlink="http://www.w3.org/1999/xlink">
<g id="graph0" class="graph" transform="scale(1 1) rotate(0) translate(4 112)">
<title>leftCols</title>
<!-- Node39 -->
<g id="node1" class="node"><title>Node39</title>
<polygon fill="#bfbfbf" stroke="black" points="0,-44.5 0,-63.5 52,-63.5 52,-44.5 0,-44.5"/>
<text text-anchor="middle" x="26" y="-51.5" font-family="Helvetica,sans-Serif" font-size="10.00">leftCols</text>
</g>
<!-- Node40 -->
<g id="node2" class="node"><title>Node40</title>
<g id="a_node2"><a xlink:href="corners_8cpp.html#a22a1a4f6039c468d8154789777b51bbb" target="_top" xlink:title="corners">
<polygon fill="none" stroke="black" points="134.5,-88.5 134.5,-107.5 187.5,-107.5 187.5,-88.5 134.5,-88.5"/>
<text text-anchor="middle" x="161" y="-95.5" font-family="Helvetica,sans-Serif" font-size="10.00">corners</text>
</a>
</g>
</g>
<!-- Node39&#45;&gt;Node40 -->
<g id="edge1" class="edge"><title>Node39&#45;&gt;Node40</title>
<path fill="none" stroke="midnightblue" d="M57.9589,-67.6056C67.4957,-71.5473 78.0937,-75.6788 88,-79 103.199,-84.0956 120.567,-88.7127 134.436,-92.1192"/>
<polygon fill="midnightblue" stroke="midnightblue" points="59.0526,-64.2684 48.4783,-63.6086 56.3332,-70.7186 59.0526,-64.2684"/>
</g>
<!-- Node41 -->
<g id="node3" class="node"><title>Node41</title>
<g id="a_node3"><a xlink:href="classEigen_1_1DenseBase.html#adb8045155ea45f7961fc2a5170e1d921" target="_top" xlink:title="Eigen::DenseBase::reverse\lInPlace">
<polygon fill="none" stroke="black" points="88,-39 88,-69 234,-69 234,-39 88,-39"/>
<text text-anchor="start" x="96" y="-57" font-family="Helvetica,sans-Serif" font-size="10.00">Eigen::DenseBase::reverse</text>
<text text-anchor="middle" x="161" y="-46" font-family="Helvetica,sans-Serif" font-size="10.00">InPlace</text>
</a>
</g>
</g>
<!-- Node39&#45;&gt;Node41 -->
<g id="edge2" class="edge"><title>Node39&#45;&gt;Node41</title>
<path fill="none" stroke="midnightblue" d="M62.0783,-54C70.1237,-54 78.9659,-54 87.9441,-54"/>
<polygon fill="midnightblue" stroke="midnightblue" points="62.0163,-50.5001 52.0163,-54 62.0162,-57.5001 62.0163,-50.5001"/>
</g>
<!-- Node42 -->
<g id="node4" class="node"><title>Node42</title>
<g id="a_node4"><a xlink:href="test_2sparse__product_8cpp.html#a7c1ebb5061b52283fef06715cf3410e1" target="_top" xlink:title="sparse_product">
<polygon fill="none" stroke="black" points="115.5,-0.5 115.5,-19.5 206.5,-19.5 206.5,-0.5 115.5,-0.5"/>
<text text-anchor="middle" x="161" y="-7.5" font-family="Helvetica,sans-Serif" font-size="10.00">sparse_product</text>
</a>
</g>
</g>
<!-- Node39&#45;&gt;Node42 -->
<g id="edge3" class="edge"><title>Node39&#45;&gt;Node42</title>
<path fill="none" stroke="midnightblue" d="M58.96,-40.7038C68.2528,-37.0347 78.4682,-33.1894 88,-30 99.1956,-26.2539 111.53,-22.6439 122.778,-19.5466"/>
<polygon fill="midnightblue" stroke="midnightblue" points="57.6545,-37.4563 49.6772,-44.4286 60.2613,-43.9528 57.6545,-37.4563"/>
</g>
</g>
</svg>
