<?xml version="1.0" encoding="UTF-8" standalone="no"?>
<!DOCTYPE svg PUBLIC "-//W3C//DTD SVG 1.1//EN"
 "http://www.w3.org/Graphics/SVG/1.1/DTD/svg11.dtd">
<!-- Generated by graphviz version 2.38.0 (20140413.2041)
 -->
<!-- Title: rightCols Pages: 1 -->
<svg width="249pt" height="78pt"
 viewBox="0.00 0.00 249.00 77.50" xmlns="http://www.w3.org/2000/svg" xmlns:xlink="http://www.w3.org/1999/xlink">
<g id="graph0" class="graph" transform="scale(1 1) rotate(0) translate(4 73.5)">
<title>rightCols</title>
<!-- Node51 -->
<g id="node1" class="node"><title>Node51</title>
<polygon fill="#bfbfbf" stroke="black" points="0,-28 0,-47 59,-47 59,-28 0,-28"/>
<text text-anchor="middle" x="29.5" y="-35" font-family="Helvetica,sans-Serif" font-size="10.00">rightCols</text>
</g>
<!-- Node52 -->
<g id="node2" class="node"><title>Node52</title>
<g id="a_node2"><a xlink:href="corners_8cpp.html#a22a1a4f6039c468d8154789777b51bbb" target="_top" xlink:title="corners">
<polygon fill="none" stroke="black" points="141.5,-50 141.5,-69 194.5,-69 194.5,-50 141.5,-50"/>
<text text-anchor="middle" x="168" y="-57" font-family="Helvetica,sans-Serif" font-size="10.00">corners</text>
</a>
</g>
</g>
<!-- Node51&#45;&gt;Node52 -->
<g id="edge1" class="edge"><title>Node51&#45;&gt;Node52</title>
<path fill="none" stroke="midnightblue" d="M69.261,-43.7472C92.3024,-47.4608 120.895,-52.0692 141.189,-55.3399"/>
<polygon fill="midnightblue" stroke="midnightblue" points="69.5444,-40.2478 59.1149,-42.1119 68.4305,-47.1586 69.5444,-40.2478"/>
</g>
<!-- Node53 -->
<g id="node3" class="node"><title>Node53</title>
<g id="a_node3"><a xlink:href="classEigen_1_1DenseBase.html#adb8045155ea45f7961fc2a5170e1d921" target="_top" xlink:title="Eigen::DenseBase::reverse\lInPlace">
<polygon fill="none" stroke="black" points="95,-0.5 95,-30.5 241,-30.5 241,-0.5 95,-0.5"/>
<text text-anchor="start" x="103" y="-18.5" font-family="Helvetica,sans-Serif" font-size="10.00">Eigen::DenseBase::reverse</text>
<text text-anchor="middle" x="168" y="-7.5" font-family="Helvetica,sans-Serif" font-size="10.00">InPlace</text>
</a>
</g>
</g>
<!-- Node51&#45;&gt;Node53 -->
<g id="edge2" class="edge"><title>Node51&#45;&gt;Node53</title>
<path fill="none" stroke="midnightblue" d="M69.251,-31.2544C77.2958,-29.9578 86.0177,-28.5521 94.8271,-27.1323"/>
<polygon fill="midnightblue" stroke="midnightblue" points="68.4305,-27.8414 59.1149,-32.8881 69.5444,-34.7522 68.4305,-27.8414"/>
</g>
</g>
</svg>
