<?xml version="1.0" encoding="UTF-8" standalone="no"?>
<!DOCTYPE svg PUBLIC "-//W3C//DTD SVG 1.1//EN"
 "http://www.w3.org/Graphics/SVG/1.1/DTD/svg11.dtd">
<!-- Generated by graphviz version 2.38.0 (20140413.2041)
 -->
<!-- Title: /travis/libpairinteraction/eigen/bench/btl/libs/BLAS/c_interface_base.h Pages: 1 -->
<svg width="175pt" height="162pt"
 viewBox="0.00 0.00 174.50 162.00" xmlns="http://www.w3.org/2000/svg" xmlns:xlink="http://www.w3.org/1999/xlink">
<g id="graph0" class="graph" transform="scale(1 1) rotate(0) translate(4 158)">
<title>/travis/libpairinteraction/eigen/bench/btl/libs/BLAS/c_interface_base.h</title>
<!-- Node0 -->
<g id="node1" class="node"><title>Node0</title>
<polygon fill="#bfbfbf" stroke="black" points="26.5,-112.5 26.5,-153.5 166.5,-153.5 166.5,-112.5 26.5,-112.5"/>
<text text-anchor="start" x="34.5" y="-141.5" font-family="Helvetica,sans-Serif" font-size="10.00">/travis/libpairinteraction</text>
<text text-anchor="start" x="34.5" y="-130.5" font-family="Helvetica,sans-Serif" font-size="10.00">/eigen/bench/btl/libs/BLAS</text>
<text text-anchor="middle" x="96.5" y="-119.5" font-family="Helvetica,sans-Serif" font-size="10.00">/c_interface_base.h</text>
</g>
<!-- Node1 -->
<g id="node2" class="node"><title>Node1</title>
<g id="a_node2"><a xlink:href="utilities_8h.html" target="_top" xlink:title="utilities.h">
<polygon fill="none" stroke="black" points="32,-56.5 32,-75.5 91,-75.5 91,-56.5 32,-56.5"/>
<text text-anchor="middle" x="61.5" y="-63.5" font-family="Helvetica,sans-Serif" font-size="10.00">utilities.h</text>
</a>
</g>
</g>
<!-- Node0&#45;&gt;Node1 -->
<g id="edge1" class="edge"><title>Node0&#45;&gt;Node1</title>
<path fill="none" stroke="midnightblue" d="M85.9988,-112.498C81.2003,-103.586 75.5611,-93.1135 70.9035,-84.4636"/>
<polygon fill="midnightblue" stroke="midnightblue" points="73.9817,-82.7978 66.159,-75.6525 67.8184,-86.1166 73.9817,-82.7978"/>
</g>
<!-- Node4 -->
<g id="node5" class="node"><title>Node4</title>
<polygon fill="none" stroke="#bfbfbf" points="109,-56.5 109,-75.5 156,-75.5 156,-56.5 109,-56.5"/>
<text text-anchor="middle" x="132.5" y="-63.5" font-family="Helvetica,sans-Serif" font-size="10.00">vector</text>
</g>
<!-- Node0&#45;&gt;Node4 -->
<g id="edge4" class="edge"><title>Node0&#45;&gt;Node4</title>
<path fill="none" stroke="midnightblue" d="M107.301,-112.498C112.237,-103.586 118.037,-93.1135 122.828,-84.4636"/>
<polygon fill="midnightblue" stroke="midnightblue" points="125.925,-86.0962 127.708,-75.6525 119.801,-82.7046 125.925,-86.0962"/>
</g>
<!-- Node2 -->
<g id="node3" class="node"><title>Node2</title>
<polygon fill="none" stroke="#bfbfbf" points="0,-0.5 0,-19.5 51,-19.5 51,-0.5 0,-0.5"/>
<text text-anchor="middle" x="25.5" y="-7.5" font-family="Helvetica,sans-Serif" font-size="10.00">stdlib.h</text>
</g>
<!-- Node1&#45;&gt;Node2 -->
<g id="edge2" class="edge"><title>Node1&#45;&gt;Node2</title>
<path fill="none" stroke="midnightblue" d="M55.5553,-56.083C50.5227,-48.5341 43.1632,-37.4948 36.9865,-28.2298"/>
<polygon fill="midnightblue" stroke="midnightblue" points="39.7933,-26.1301 31.3341,-19.7511 33.9689,-30.0131 39.7933,-26.1301"/>
</g>
<!-- Node3 -->
<g id="node4" class="node"><title>Node3</title>
<polygon fill="none" stroke="#bfbfbf" points="69,-0.5 69,-19.5 128,-19.5 128,-0.5 69,-0.5"/>
<text text-anchor="middle" x="98.5" y="-7.5" font-family="Helvetica,sans-Serif" font-size="10.00">iostream</text>
</g>
<!-- Node1&#45;&gt;Node3 -->
<g id="edge3" class="edge"><title>Node1&#45;&gt;Node3</title>
<path fill="none" stroke="midnightblue" d="M67.6098,-56.083C72.7822,-48.5341 80.3461,-37.4948 86.6944,-28.2298"/>
<polygon fill="midnightblue" stroke="midnightblue" points="89.7388,-29.9787 92.5039,-19.7511 83.9643,-26.0221 89.7388,-29.9787"/>
</g>
</g>
</svg>
