<?xml version="1.0" encoding="UTF-8" standalone="no"?>
<!DOCTYPE svg PUBLIC "-//W3C//DTD SVG 1.1//EN"
 "http://www.w3.org/Graphics/SVG/1.1/DTD/svg11.dtd">
<!-- Generated by graphviz version 2.38.0 (20140413.2041)
 -->
<!-- Title: cchke Pages: 1 -->
<svg width="141pt" height="370pt"
 viewBox="0.00 0.00 141.00 370.00" xmlns="http://www.w3.org/2000/svg" xmlns:xlink="http://www.w3.org/1999/xlink">
<g id="graph0" class="graph" transform="scale(1 1) rotate(0) translate(4 366)">
<title>cchke</title>
<!-- Node61 -->
<g id="node1" class="node"><title>Node61</title>
<polygon fill="#bfbfbf" stroke="black" points="0,-171.5 0,-190.5 44,-190.5 44,-171.5 0,-171.5"/>
<text text-anchor="middle" x="22" y="-178.5" font-family="Helvetica,sans-Serif" font-size="10.00">cchke</text>
</g>
<!-- Node62 -->
<g id="node2" class="node"><title>Node62</title>
<g id="a_node2"><a xlink:href="bench_2btl_2libs_2BLAS_2blas_8h.html#aa89b7097d76057e7b8a1f19d2f0a264e" target="_top" xlink:title="cgemm">
<polygon fill="none" stroke="black" points="80,-342.5 80,-361.5 133,-361.5 133,-342.5 80,-342.5"/>
<text text-anchor="middle" x="106.5" y="-349.5" font-family="Helvetica,sans-Serif" font-size="10.00">cgemm</text>
</a>
</g>
</g>
<!-- Node61&#45;&gt;Node62 -->
<g id="edge1" class="edge"><title>Node61&#45;&gt;Node62</title>
<path fill="none" stroke="midnightblue" d="M24.6814,-190.819C29.464,-216.449 45.1141,-286.592 80,-333 80.6635,-333.883 81.3789,-334.743 82.1342,-335.58"/>
<polygon fill="midnightblue" stroke="midnightblue" points="79.9162,-338.293 89.6775,-342.413 84.6156,-333.105 79.9162,-338.293"/>
</g>
<!-- Node63 -->
<g id="node3" class="node"><title>Node63</title>
<g id="a_node3"><a xlink:href="bench_2btl_2libs_2BLAS_2blas_8h.html#a8171b9bf53a6282b86954acad3335ecb" target="_top" xlink:title="chemm">
<polygon fill="none" stroke="black" points="80,-304.5 80,-323.5 133,-323.5 133,-304.5 80,-304.5"/>
<text text-anchor="middle" x="106.5" y="-311.5" font-family="Helvetica,sans-Serif" font-size="10.00">chemm</text>
</a>
</g>
</g>
<!-- Node61&#45;&gt;Node63 -->
<g id="edge2" class="edge"><title>Node61&#45;&gt;Node63</title>
<path fill="none" stroke="midnightblue" d="M26.1206,-190.73C33.1577,-211.583 51.8741,-261.407 80,-295 80.8174,-295.976 81.6944,-296.931 82.6138,-297.86"/>
<polygon fill="midnightblue" stroke="midnightblue" points="80.3441,-300.524 90.2006,-304.41 84.9188,-295.226 80.3441,-300.524"/>
</g>
<!-- Node64 -->
<g id="node4" class="node"><title>Node64</title>
<g id="a_node4"><a xlink:href="bench_2btl_2libs_2BLAS_2blas_8h.html#a4e0cdd86a1fbec0ca66f271c68710055" target="_top" xlink:title="cher2k">
<polygon fill="none" stroke="black" points="82,-266.5 82,-285.5 131,-285.5 131,-266.5 82,-266.5"/>
<text text-anchor="middle" x="106.5" y="-273.5" font-family="Helvetica,sans-Serif" font-size="10.00">cher2k</text>
</a>
</g>
</g>
<!-- Node61&#45;&gt;Node64 -->
<g id="edge3" class="edge"><title>Node61&#45;&gt;Node64</title>
<path fill="none" stroke="midnightblue" d="M28.8899,-190.569C38.4642,-205.687 58.5076,-235.575 80,-257 81.0508,-258.048 82.162,-259.084 83.3094,-260.102"/>
<polygon fill="midnightblue" stroke="midnightblue" points="81.1679,-262.871 91.1483,-266.427 85.5636,-257.423 81.1679,-262.871"/>
</g>
<!-- Node65 -->
<g id="node5" class="node"><title>Node65</title>
<g id="a_node5"><a xlink:href="bench_2btl_2libs_2BLAS_2blas_8h.html#a7a523553becda6c1771d84781069f375" target="_top" xlink:title="cherk">
<polygon fill="none" stroke="black" points="85,-228.5 85,-247.5 128,-247.5 128,-228.5 85,-228.5"/>
<text text-anchor="middle" x="106.5" y="-235.5" font-family="Helvetica,sans-Serif" font-size="10.00">cherk</text>
</a>
</g>
</g>
<!-- Node61&#45;&gt;Node65 -->
<g id="edge4" class="edge"><title>Node61&#45;&gt;Node65</title>
<path fill="none" stroke="midnightblue" d="M36.995,-190.669C49.6344,-199.402 68.4532,-212.404 83.1702,-222.572"/>
<polygon fill="midnightblue" stroke="midnightblue" points="81.4948,-225.669 91.7117,-228.474 85.4739,-219.91 81.4948,-225.669"/>
</g>
<!-- Node66 -->
<g id="node6" class="node"><title>Node66</title>
<g id="a_node6"><a xlink:href="cblat2_8f.html#af0279384c87f94223fdf27a4d97f4f7d" target="_top" xlink:title="chkxer">
<polygon fill="none" stroke="black" points="82.5,-190.5 82.5,-209.5 130.5,-209.5 130.5,-190.5 82.5,-190.5"/>
<text text-anchor="middle" x="106.5" y="-197.5" font-family="Helvetica,sans-Serif" font-size="10.00">chkxer</text>
</a>
</g>
</g>
<!-- Node61&#45;&gt;Node66 -->
<g id="edge5" class="edge"><title>Node61&#45;&gt;Node66</title>
<path fill="none" stroke="midnightblue" d="M44.2458,-185.893C52.8007,-187.863 62.8701,-190.182 72.3462,-192.365"/>
<polygon fill="midnightblue" stroke="midnightblue" points="71.7657,-195.822 82.2962,-194.656 73.3368,-189.001 71.7657,-195.822"/>
</g>
<!-- Node67 -->
<g id="node7" class="node"><title>Node67</title>
<g id="a_node7"><a xlink:href="bench_2btl_2libs_2BLAS_2blas_8h.html#ab412e5c179194a8266451b38688209c7" target="_top" xlink:title="csymm">
<polygon fill="none" stroke="black" points="80.5,-152.5 80.5,-171.5 132.5,-171.5 132.5,-152.5 80.5,-152.5"/>
<text text-anchor="middle" x="106.5" y="-159.5" font-family="Helvetica,sans-Serif" font-size="10.00">csymm</text>
</a>
</g>
</g>
<!-- Node61&#45;&gt;Node67 -->
<g id="edge6" class="edge"><title>Node61&#45;&gt;Node67</title>
<path fill="none" stroke="midnightblue" d="M44.2458,-176.107C52.224,-174.27 61.5195,-172.129 70.4226,-170.078"/>
<polygon fill="midnightblue" stroke="midnightblue" points="71.2571,-173.478 80.2165,-167.823 69.686,-166.657 71.2571,-173.478"/>
</g>
<!-- Node68 -->
<g id="node8" class="node"><title>Node68</title>
<g id="a_node8"><a xlink:href="bench_2btl_2libs_2BLAS_2blas_8h.html#a9d8739867caa415c62ddc75f65f38602" target="_top" xlink:title="csyr2k">
<polygon fill="none" stroke="black" points="83,-114.5 83,-133.5 130,-133.5 130,-114.5 83,-114.5"/>
<text text-anchor="middle" x="106.5" y="-121.5" font-family="Helvetica,sans-Serif" font-size="10.00">csyr2k</text>
</a>
</g>
</g>
<!-- Node61&#45;&gt;Node68 -->
<g id="edge7" class="edge"><title>Node61&#45;&gt;Node68</title>
<path fill="none" stroke="midnightblue" d="M36.995,-171.331C49.6344,-162.598 68.4532,-149.596 83.1702,-139.428"/>
<polygon fill="midnightblue" stroke="midnightblue" points="85.4739,-142.09 91.7117,-133.526 81.4948,-136.331 85.4739,-142.09"/>
</g>
<!-- Node69 -->
<g id="node9" class="node"><title>Node69</title>
<g id="a_node9"><a xlink:href="bench_2btl_2libs_2BLAS_2blas_8h.html#aae0e0d249fe38ebf42efb7d1a48d9e25" target="_top" xlink:title="csyrk">
<polygon fill="none" stroke="black" points="86,-76.5 86,-95.5 127,-95.5 127,-76.5 86,-76.5"/>
<text text-anchor="middle" x="106.5" y="-83.5" font-family="Helvetica,sans-Serif" font-size="10.00">csyrk</text>
</a>
</g>
</g>
<!-- Node61&#45;&gt;Node69 -->
<g id="edge8" class="edge"><title>Node61&#45;&gt;Node69</title>
<path fill="none" stroke="midnightblue" d="M28.8899,-171.431C38.4642,-156.313 58.5076,-126.425 80,-105 81.0508,-103.952 82.162,-102.916 83.3094,-101.898"/>
<polygon fill="midnightblue" stroke="midnightblue" points="85.5636,-104.577 91.1483,-95.5735 81.1679,-99.1291 85.5636,-104.577"/>
</g>
<!-- Node70 -->
<g id="node10" class="node"><title>Node70</title>
<g id="a_node10"><a xlink:href="bench_2btl_2libs_2BLAS_2blas_8h.html#a7100be137ca531c124e2b087ccf3b8b0" target="_top" xlink:title="ctrmm">
<polygon fill="none" stroke="black" points="82,-38.5 82,-57.5 131,-57.5 131,-38.5 82,-38.5"/>
<text text-anchor="middle" x="106.5" y="-45.5" font-family="Helvetica,sans-Serif" font-size="10.00">ctrmm</text>
</a>
</g>
</g>
<!-- Node61&#45;&gt;Node70 -->
<g id="edge9" class="edge"><title>Node61&#45;&gt;Node70</title>
<path fill="none" stroke="midnightblue" d="M26.1206,-171.27C33.1577,-150.417 51.8741,-100.593 80,-67 80.8174,-66.0237 81.6944,-65.0692 82.6138,-64.1403"/>
<polygon fill="midnightblue" stroke="midnightblue" points="84.9188,-66.7743 90.2006,-57.5899 80.3441,-61.4759 84.9188,-66.7743"/>
</g>
<!-- Node71 -->
<g id="node11" class="node"><title>Node71</title>
<g id="a_node11"><a xlink:href="bench_2btl_2libs_2BLAS_2blas_8h.html#af3dadccc3d4598161cd4efe24a17f41c" target="_top" xlink:title="ctrsm">
<polygon fill="none" stroke="black" points="84.5,-0.5 84.5,-19.5 128.5,-19.5 128.5,-0.5 84.5,-0.5"/>
<text text-anchor="middle" x="106.5" y="-7.5" font-family="Helvetica,sans-Serif" font-size="10.00">ctrsm</text>
</a>
</g>
</g>
<!-- Node61&#45;&gt;Node71 -->
<g id="edge10" class="edge"><title>Node61&#45;&gt;Node71</title>
<path fill="none" stroke="midnightblue" d="M24.6814,-171.181C29.464,-145.551 45.1141,-75.4077 80,-29 80.6635,-28.1174 81.3789,-27.2567 82.1342,-26.42"/>
<polygon fill="midnightblue" stroke="midnightblue" points="84.6156,-28.8947 89.6775,-19.5872 79.9162,-23.7066 84.6156,-28.8947"/>
</g>
</g>
</svg>
