<?xml version="1.0" encoding="UTF-8" standalone="no"?>
<!DOCTYPE svg PUBLIC "-//W3C//DTD SVG 1.1//EN"
 "http://www.w3.org/Graphics/SVG/1.1/DTD/svg11.dtd">
<!-- Generated by graphviz version 2.38.0 (20140413.2041)
 -->
<!-- Title: cchk3 Pages: 1 -->
<svg width="137pt" height="294pt"
 viewBox="0.00 0.00 137.00 294.00" xmlns="http://www.w3.org/2000/svg" xmlns:xlink="http://www.w3.org/1999/xlink">
<g id="graph0" class="graph" transform="scale(1 1) rotate(0) translate(4 290)">
<title>cchk3</title>
<!-- Node49 -->
<g id="node1" class="node"><title>Node49</title>
<polygon fill="#bfbfbf" stroke="black" points="0,-133.5 0,-152.5 44,-152.5 44,-133.5 0,-133.5"/>
<text text-anchor="middle" x="22" y="-140.5" font-family="Helvetica,sans-Serif" font-size="10.00">cchk3</text>
</g>
<!-- Node50 -->
<g id="node2" class="node"><title>Node50</title>
<g id="a_node2"><a xlink:href="cblat2_8f.html#a0abb9fcb91316270032dcb08c0b1dc21" target="_top" xlink:title="cmake">
<polygon fill="none" stroke="black" points="80,-266.5 80,-285.5 129,-285.5 129,-266.5 80,-266.5"/>
<text text-anchor="middle" x="104.5" y="-273.5" font-family="Helvetica,sans-Serif" font-size="10.00">cmake</text>
</a>
</g>
</g>
<!-- Node49&#45;&gt;Node50 -->
<g id="edge1" class="edge"><title>Node49&#45;&gt;Node50</title>
<path fill="none" stroke="midnightblue" d="M26.2237,-152.646C33.4612,-173.334 52.5439,-222.857 80,-257 80.6904,-257.859 81.4257,-258.704 82.1939,-259.533"/>
<polygon fill="midnightblue" stroke="midnightblue" points="79.9515,-262.227 89.6702,-266.446 84.7037,-257.087 79.9515,-262.227"/>
</g>
<!-- Node51 -->
<g id="node3" class="node"><title>Node51</title>
<g id="a_node3"><a xlink:href="cblat2_8f.html#ab837b3979a55d08c93070afd6eed031b" target="_top" xlink:title="cmvch">
<polygon fill="none" stroke="black" points="80.5,-228.5 80.5,-247.5 128.5,-247.5 128.5,-228.5 80.5,-228.5"/>
<text text-anchor="middle" x="104.5" y="-235.5" font-family="Helvetica,sans-Serif" font-size="10.00">cmvch</text>
</a>
</g>
</g>
<!-- Node49&#45;&gt;Node51 -->
<g id="edge2" class="edge"><title>Node49&#45;&gt;Node51</title>
<path fill="none" stroke="midnightblue" d="M29.1508,-152.715C38.9248,-167.773 59.0499,-197.273 80,-219 80.9013,-219.935 81.848,-220.866 82.8229,-221.787"/>
<polygon fill="midnightblue" stroke="midnightblue" points="80.7105,-224.587 90.5619,-228.486 85.2919,-219.295 80.7105,-224.587"/>
</g>
<!-- Node52 -->
<g id="node4" class="node"><title>Node52</title>
<g id="a_node4"><a xlink:href="bench_2btl_2libs_2BLAS_2blas_8h.html#ac21f26f9dda084f8e9b7426227c152b7" target="_top" xlink:title="ctbmv">
<polygon fill="none" stroke="black" points="81,-190.5 81,-209.5 128,-209.5 128,-190.5 81,-190.5"/>
<text text-anchor="middle" x="104.5" y="-197.5" font-family="Helvetica,sans-Serif" font-size="10.00">ctbmv</text>
</a>
</g>
</g>
<!-- Node49&#45;&gt;Node52 -->
<g id="edge3" class="edge"><title>Node49&#45;&gt;Node52</title>
<path fill="none" stroke="midnightblue" d="M36.6557,-152.669C48.9887,-161.402 67.3513,-174.404 81.7116,-184.572"/>
<polygon fill="midnightblue" stroke="midnightblue" points="79.8621,-187.551 90.0459,-190.474 83.9073,-181.838 79.8621,-187.551"/>
</g>
<!-- Node53 -->
<g id="node5" class="node"><title>Node53</title>
<g id="a_node5"><a xlink:href="bench_2btl_2libs_2BLAS_2blas_8h.html#a5de8b87a33715bee12c24c9605e08451" target="_top" xlink:title="ctbsv">
<polygon fill="none" stroke="black" points="83.5,-152.5 83.5,-171.5 125.5,-171.5 125.5,-152.5 83.5,-152.5"/>
<text text-anchor="middle" x="104.5" y="-159.5" font-family="Helvetica,sans-Serif" font-size="10.00">ctbsv</text>
</a>
</g>
</g>
<!-- Node49&#45;&gt;Node53 -->
<g id="edge4" class="edge"><title>Node49&#45;&gt;Node53</title>
<path fill="none" stroke="midnightblue" d="M44.1504,-147.992C53.1396,-150.114 63.7833,-152.626 73.5576,-154.933"/>
<polygon fill="midnightblue" stroke="midnightblue" points="72.7862,-158.347 83.3228,-157.238 74.3942,-151.534 72.7862,-158.347"/>
</g>
<!-- Node54 -->
<g id="node6" class="node"><title>Node54</title>
<g id="a_node6"><a xlink:href="bench_2btl_2libs_2BLAS_2blas_8h.html#afd9f54238a7a34fc56c32f96afa81924" target="_top" xlink:title="ctpmv">
<polygon fill="none" stroke="black" points="81,-114.5 81,-133.5 128,-133.5 128,-114.5 81,-114.5"/>
<text text-anchor="middle" x="104.5" y="-121.5" font-family="Helvetica,sans-Serif" font-size="10.00">ctpmv</text>
</a>
</g>
</g>
<!-- Node49&#45;&gt;Node54 -->
<g id="edge5" class="edge"><title>Node49&#45;&gt;Node54</title>
<path fill="none" stroke="midnightblue" d="M44.1504,-138.008C52.3411,-136.075 61.9055,-133.817 70.9341,-131.686"/>
<polygon fill="midnightblue" stroke="midnightblue" points="71.8698,-135.062 80.7983,-129.358 70.2617,-128.249 71.8698,-135.062"/>
</g>
<!-- Node55 -->
<g id="node7" class="node"><title>Node55</title>
<g id="a_node7"><a xlink:href="bench_2btl_2libs_2BLAS_2blas_8h.html#a50d5127358d0a14464b28103c49d0210" target="_top" xlink:title="ctpsv">
<polygon fill="none" stroke="black" points="83.5,-76.5 83.5,-95.5 125.5,-95.5 125.5,-76.5 83.5,-76.5"/>
<text text-anchor="middle" x="104.5" y="-83.5" font-family="Helvetica,sans-Serif" font-size="10.00">ctpsv</text>
</a>
</g>
</g>
<!-- Node49&#45;&gt;Node55 -->
<g id="edge6" class="edge"><title>Node49&#45;&gt;Node55</title>
<path fill="none" stroke="midnightblue" d="M36.6557,-133.331C48.9887,-124.598 67.3513,-111.596 81.7116,-101.428"/>
<polygon fill="midnightblue" stroke="midnightblue" points="83.9073,-104.162 90.0459,-95.5265 79.8621,-98.4488 83.9073,-104.162"/>
</g>
<!-- Node56 -->
<g id="node8" class="node"><title>Node56</title>
<g id="a_node8"><a xlink:href="bench_2btl_2libs_2BLAS_2blas_8h.html#ad291c7c2696131a0d1b24add9e052eab" target="_top" xlink:title="ctrmv">
<polygon fill="none" stroke="black" points="82.5,-38.5 82.5,-57.5 126.5,-57.5 126.5,-38.5 82.5,-38.5"/>
<text text-anchor="middle" x="104.5" y="-45.5" font-family="Helvetica,sans-Serif" font-size="10.00">ctrmv</text>
</a>
</g>
</g>
<!-- Node49&#45;&gt;Node56 -->
<g id="edge7" class="edge"><title>Node49&#45;&gt;Node56</title>
<path fill="none" stroke="midnightblue" d="M29.1508,-133.285C38.9248,-118.227 59.0499,-88.7271 80,-67 80.9013,-66.0652 81.848,-65.1336 82.8229,-64.2133"/>
<polygon fill="midnightblue" stroke="midnightblue" points="85.2919,-66.7053 90.5619,-57.5142 80.7105,-61.4128 85.2919,-66.7053"/>
</g>
<!-- Node57 -->
<g id="node9" class="node"><title>Node57</title>
<g id="a_node9"><a xlink:href="bench_2btl_2libs_2BLAS_2blas_8h.html#a5082571a662c72c4842d1eb54ac9ec01" target="_top" xlink:title="ctrsv">
<polygon fill="none" stroke="black" points="84.5,-0.5 84.5,-19.5 124.5,-19.5 124.5,-0.5 84.5,-0.5"/>
<text text-anchor="middle" x="104.5" y="-7.5" font-family="Helvetica,sans-Serif" font-size="10.00">ctrsv</text>
</a>
</g>
</g>
<!-- Node49&#45;&gt;Node57 -->
<g id="edge8" class="edge"><title>Node49&#45;&gt;Node57</title>
<path fill="none" stroke="midnightblue" d="M26.2237,-133.354C33.4612,-112.666 52.5439,-63.1429 80,-29 80.6904,-28.1414 81.4257,-27.2958 82.1939,-26.4669"/>
<polygon fill="midnightblue" stroke="midnightblue" points="84.7037,-28.9132 89.6702,-19.5545 79.9515,-23.7734 84.7037,-28.9132"/>
</g>
</g>
</svg>
