<?xml version="1.0" encoding="UTF-8" standalone="no"?>
<!DOCTYPE svg PUBLIC "-//W3C//DTD SVG 1.1//EN"
 "http://www.w3.org/Graphics/SVG/1.1/DTD/svg11.dtd">
<!-- Generated by graphviz version 2.38.0 (20140413.2041)
 -->
<!-- Title: main Pages: 1 -->
<svg width="403pt" height="104pt"
 viewBox="0.00 0.00 403.00 104.01" xmlns="http://www.w3.org/2000/svg" xmlns:xlink="http://www.w3.org/1999/xlink">
<g id="graph0" class="graph" transform="scale(1 1) rotate(0) translate(4 100.01)">
<title>main</title>
<!-- Node0 -->
<g id="node1" class="node"><title>Node0</title>
<polygon fill="#bfbfbf" stroke="black" points="0,-55 0,-74 41,-74 41,-55 0,-55"/>
<text text-anchor="middle" x="20.5" y="-62" font-family="Helvetica,sans-Serif" font-size="10.00">main</text>
</g>
<!-- Node1 -->
<g id="node2" class="node"><title>Node1</title>
<g id="a_node2"><a xlink:href="namespaceEigen_1_1internal.html#a3a3f70166790e15844d6b9804f84f952" target="_top" xlink:title="Eigen::internal::queryCache\lSizes">
<polygon fill="none" stroke="black" points="247,-49.5 247,-79.5 395,-79.5 395,-49.5 247,-49.5"/>
<text text-anchor="start" x="255" y="-67.5" font-family="Helvetica,sans-Serif" font-size="10.00">Eigen::internal::queryCache</text>
<text text-anchor="middle" x="321" y="-56.5" font-family="Helvetica,sans-Serif" font-size="10.00">Sizes</text>
</a>
</g>
</g>
<!-- Node0&#45;&gt;Node1 -->
<g id="edge1" class="edge"><title>Node0&#45;&gt;Node1</title>
<path fill="none" stroke="midnightblue" d="M37.8672,-74.0952C48.5977,-79.8154 63.155,-86.5257 77,-89.5 137.127,-102.417 207.106,-92.6791 256.483,-81.8071"/>
<polygon fill="midnightblue" stroke="midnightblue" points="257.412,-85.1851 266.385,-79.551 255.857,-78.3601 257.412,-85.1851"/>
</g>
<!-- Node2 -->
<g id="node3" class="node"><title>Node2</title>
<g id="a_node3"><a xlink:href="namespaceEigen_1_1internal.html#abc24477d9f0a7445aa8ece2b5b7a0b7b" target="_top" xlink:title="Eigen::internal::queryL1\lCacheSize">
<polygon fill="none" stroke="black" points="79.5,-49.5 79.5,-79.5 208.5,-79.5 208.5,-49.5 79.5,-49.5"/>
<text text-anchor="start" x="87.5" y="-67.5" font-family="Helvetica,sans-Serif" font-size="10.00">Eigen::internal::queryL1</text>
<text text-anchor="middle" x="144" y="-56.5" font-family="Helvetica,sans-Serif" font-size="10.00">CacheSize</text>
</a>
</g>
</g>
<!-- Node0&#45;&gt;Node2 -->
<g id="edge2" class="edge"><title>Node0&#45;&gt;Node2</title>
<path fill="none" stroke="midnightblue" d="M41.0211,-64.5C49.0529,-64.5 58.9053,-64.5 69.2874,-64.5"/>
<polygon fill="midnightblue" stroke="midnightblue" points="69.3616,-68.0001 79.3616,-64.5 69.3616,-61.0001 69.3616,-68.0001"/>
</g>
<!-- Node3 -->
<g id="node4" class="node"><title>Node3</title>
<g id="a_node4"><a xlink:href="namespaceEigen_1_1internal.html#ab12a6ee511234693252cf02dfef07899" target="_top" xlink:title="Eigen::internal::queryTop\lLevelCacheSize">
<polygon fill="none" stroke="black" points="77,-0.5 77,-30.5 211,-30.5 211,-0.5 77,-0.5"/>
<text text-anchor="start" x="85" y="-18.5" font-family="Helvetica,sans-Serif" font-size="10.00">Eigen::internal::queryTop</text>
<text text-anchor="middle" x="144" y="-7.5" font-family="Helvetica,sans-Serif" font-size="10.00">LevelCacheSize</text>
</a>
</g>
</g>
<!-- Node0&#45;&gt;Node3 -->
<g id="edge4" class="edge"><title>Node0&#45;&gt;Node3</title>
<path fill="none" stroke="midnightblue" d="M41.1855,-55.725C51.7539,-51.0806 65.0336,-45.3507 77,-40.5 82.1099,-38.4287 87.4627,-36.313 92.8151,-34.2327"/>
<polygon fill="midnightblue" stroke="midnightblue" points="94.322,-37.4031 102.396,-30.5434 91.8066,-30.8706 94.322,-37.4031"/>
</g>
<!-- Node2&#45;&gt;Node1 -->
<g id="edge3" class="edge"><title>Node2&#45;&gt;Node1</title>
<path fill="none" stroke="midnightblue" d="M208.674,-64.5C217.789,-64.5 227.277,-64.5 236.7,-64.5"/>
<polygon fill="midnightblue" stroke="midnightblue" points="236.878,-68.0001 246.878,-64.5 236.878,-61.0001 236.878,-68.0001"/>
</g>
<!-- Node3&#45;&gt;Node1 -->
<g id="edge5" class="edge"><title>Node3&#45;&gt;Node1</title>
<path fill="none" stroke="midnightblue" d="M198.934,-30.6014C217.15,-35.7019 237.653,-41.4429 256.537,-46.7305"/>
<polygon fill="midnightblue" stroke="midnightblue" points="255.671,-50.1224 266.244,-49.4484 257.558,-43.3817 255.671,-50.1224"/>
</g>
</g>
</svg>
