<?xml version="1.0" encoding="UTF-8" standalone="no"?>
<!DOCTYPE svg PUBLIC "-//W3C//DTD SVG 1.1//EN"
 "http://www.w3.org/Graphics/SVG/1.1/DTD/svg11.dtd">
<!-- Generated by graphviz version 2.38.0 (20140413.2041)
 -->
<!-- Title: test_cholmod_support Pages: 1 -->
<svg width="799pt" height="145pt"
 viewBox="0.00 0.00 799.00 145.00" xmlns="http://www.w3.org/2000/svg" xmlns:xlink="http://www.w3.org/1999/xlink">
<g id="graph0" class="graph" transform="scale(1 1) rotate(0) translate(4 141)">
<title>test_cholmod_support</title>
<!-- Node0 -->
<g id="node1" class="node"><title>Node0</title>
<polygon fill="#bfbfbf" stroke="black" points="0,-68 0,-87 124,-87 124,-68 0,-68"/>
<text text-anchor="middle" x="62" y="-75" font-family="Helvetica,sans-Serif" font-size="10.00">test_cholmod_support</text>
</g>
<!-- Node1 -->
<g id="node2" class="node"><title>Node1</title>
<g id="a_node2"><a xlink:href="cholmod__support_8cpp.html#a661abccfc0ba4a3094264910790878b9" target="_top" xlink:title="test_cholmod_T">
<polygon fill="none" stroke="black" points="160,-68 160,-87 252,-87 252,-68 160,-68"/>
<text text-anchor="middle" x="206" y="-75" font-family="Helvetica,sans-Serif" font-size="10.00">test_cholmod_T</text>
</a>
</g>
</g>
<!-- Node0&#45;&gt;Node1 -->
<g id="edge1" class="edge"><title>Node0&#45;&gt;Node1</title>
<path fill="none" stroke="midnightblue" d="M124.045,-77.5C132.595,-77.5 141.342,-77.5 149.777,-77.5"/>
<polygon fill="midnightblue" stroke="midnightblue" points="149.875,-81.0001 159.875,-77.5 149.875,-74.0001 149.875,-81.0001"/>
</g>
<!-- Node2 -->
<g id="node3" class="node"><title>Node2</title>
<g id="a_node3"><a xlink:href="classEigen_1_1CholmodDecomposition.html#afa7d632441f66874d4097276d5e23df5" target="_top" xlink:title="Eigen::CholmodDecomposition\l::setMode">
<polygon fill="none" stroke="black" points="290.5,-106.5 290.5,-136.5 454.5,-136.5 454.5,-106.5 290.5,-106.5"/>
<text text-anchor="start" x="298.5" y="-124.5" font-family="Helvetica,sans-Serif" font-size="10.00">Eigen::CholmodDecomposition</text>
<text text-anchor="middle" x="372.5" y="-113.5" font-family="Helvetica,sans-Serif" font-size="10.00">::setMode</text>
</a>
</g>
</g>
<!-- Node1&#45;&gt;Node2 -->
<g id="edge2" class="edge"><title>Node1&#45;&gt;Node2</title>
<path fill="none" stroke="midnightblue" d="M242.694,-87.0473C261.049,-91.957 284.017,-98.1004 305.456,-103.835"/>
<polygon fill="midnightblue" stroke="midnightblue" points="304.611,-107.232 315.176,-106.435 306.42,-100.469 304.611,-107.232"/>
</g>
<!-- Node3 -->
<g id="node4" class="node"><title>Node3</title>
<g id="a_node4"><a xlink:href="sparse__solver_8h.html#a252bcfc3086db37e21b69ed1d125a107" target="_top" xlink:title="check_sparse_spd_solving">
<polygon fill="none" stroke="black" points="301,-68 301,-87 444,-87 444,-68 301,-68"/>
<text text-anchor="middle" x="372.5" y="-75" font-family="Helvetica,sans-Serif" font-size="10.00">check_sparse_spd_solving</text>
</a>
</g>
</g>
<!-- Node1&#45;&gt;Node3 -->
<g id="edge3" class="edge"><title>Node1&#45;&gt;Node3</title>
<path fill="none" stroke="midnightblue" d="M252.386,-77.5C264.359,-77.5 277.647,-77.5 290.879,-77.5"/>
<polygon fill="midnightblue" stroke="midnightblue" points="290.964,-81.0001 300.963,-77.5 290.963,-74.0001 290.964,-81.0001"/>
</g>
<!-- Node4 -->
<g id="node5" class="node"><title>Node4</title>
<g id="a_node5"><a xlink:href="sparse__solver_8h.html#a4ab206481ed9b282ac77a44ad3bf7293" target="_top" xlink:title="check_sparse_spd_determinant">
<polygon fill="none" stroke="black" points="288,-30 288,-49 457,-49 457,-30 288,-30"/>
<text text-anchor="middle" x="372.5" y="-37" font-family="Helvetica,sans-Serif" font-size="10.00">check_sparse_spd_determinant</text>
</a>
</g>
</g>
<!-- Node1&#45;&gt;Node4 -->
<g id="edge4" class="edge"><title>Node1&#45;&gt;Node4</title>
<path fill="none" stroke="midnightblue" d="M247.364,-67.9759C260.336,-64.9302 274.771,-61.5566 288,-58.5 298.209,-56.1412 309.125,-53.6412 319.586,-51.2564"/>
<polygon fill="midnightblue" stroke="midnightblue" points="320.464,-54.6462 329.437,-49.0137 318.91,-47.8208 320.464,-54.6462"/>
</g>
<!-- Node5 -->
<g id="node6" class="node"><title>Node5</title>
<g id="a_node6"><a xlink:href="sparse__solver_8h.html#a0738bf32820ffdebd9d56c39df80c6a8" target="_top" xlink:title="generate_sparse_spd\l_problem">
<polygon fill="none" stroke="black" points="493,-24.5 493,-54.5 613,-54.5 613,-24.5 493,-24.5"/>
<text text-anchor="start" x="501" y="-42.5" font-family="Helvetica,sans-Serif" font-size="10.00">generate_sparse_spd</text>
<text text-anchor="middle" x="553" y="-31.5" font-family="Helvetica,sans-Serif" font-size="10.00">_problem</text>
</a>
</g>
</g>
<!-- Node4&#45;&gt;Node5 -->
<g id="edge5" class="edge"><title>Node4&#45;&gt;Node5</title>
<path fill="none" stroke="midnightblue" d="M457.001,-39.5C465.645,-39.5 474.361,-39.5 482.824,-39.5"/>
<polygon fill="midnightblue" stroke="midnightblue" points="482.998,-43.0001 492.998,-39.5 482.998,-36.0001 482.998,-43.0001"/>
</g>
<!-- Node6 -->
<g id="node7" class="node"><title>Node6</title>
<g id="a_node7"><a xlink:href="classEigen_1_1IterativeSolverBase.html#ae778dd098bd5e6655625b20b1e9f15da" target="_top" xlink:title="Eigen::IterativeSolverBase\l::iterations">
<polygon fill="none" stroke="black" points="649,-49.5 649,-79.5 791,-79.5 791,-49.5 649,-49.5"/>
<text text-anchor="start" x="657" y="-67.5" font-family="Helvetica,sans-Serif" font-size="10.00">Eigen::IterativeSolverBase</text>
<text text-anchor="middle" x="720" y="-56.5" font-family="Helvetica,sans-Serif" font-size="10.00">::iterations</text>
</a>
</g>
</g>
<!-- Node5&#45;&gt;Node6 -->
<g id="edge6" class="edge"><title>Node5&#45;&gt;Node6</title>
<path fill="none" stroke="midnightblue" d="M613.103,-48.455C621.411,-49.7137 630.064,-51.0248 638.685,-52.331"/>
<polygon fill="midnightblue" stroke="midnightblue" points="638.357,-55.8212 648.768,-53.8588 639.405,-48.9002 638.357,-55.8212"/>
</g>
<!-- Node7 -->
<g id="node8" class="node"><title>Node7</title>
<g id="a_node8"><a xlink:href="classEigen_1_1IterativeSolverBase.html#a117c241af3fb1141ad0916a3cf3157ec" target="_top" xlink:title="Eigen::IterativeSolverBase\l::error">
<polygon fill="none" stroke="black" points="649,-0.5 649,-30.5 791,-30.5 791,-0.5 649,-0.5"/>
<text text-anchor="start" x="657" y="-18.5" font-family="Helvetica,sans-Serif" font-size="10.00">Eigen::IterativeSolverBase</text>
<text text-anchor="middle" x="720" y="-7.5" font-family="Helvetica,sans-Serif" font-size="10.00">::error</text>
</a>
</g>
</g>
<!-- Node5&#45;&gt;Node7 -->
<g id="edge7" class="edge"><title>Node5&#45;&gt;Node7</title>
<path fill="none" stroke="midnightblue" d="M613.103,-30.9032C621.411,-29.6948 630.064,-28.4362 638.685,-27.1822"/>
<polygon fill="midnightblue" stroke="midnightblue" points="639.376,-30.6186 648.768,-25.7155 638.368,-23.6915 639.376,-30.6186"/>
</g>
</g>
</svg>
