<?xml version="1.0" encoding="UTF-8" standalone="no"?>
<!DOCTYPE svg PUBLIC "-//W3C//DTD SVG 1.1//EN"
 "http://www.w3.org/Graphics/SVG/1.1/DTD/svg11.dtd">
<!-- Generated by graphviz version 2.38.0 (20140413.2041)
 -->
<!-- Title: clarfg Pages: 1 -->
<svg width="133pt" height="104pt"
 viewBox="0.00 0.00 133.00 104.00" xmlns="http://www.w3.org/2000/svg" xmlns:xlink="http://www.w3.org/1999/xlink">
<g id="graph0" class="graph" transform="scale(1 1) rotate(0) translate(4 100)">
<title>clarfg</title>
<!-- Node0 -->
<g id="node1" class="node"><title>Node0</title>
<polygon fill="#bfbfbf" stroke="black" points="0,-38.5 0,-57.5 43,-57.5 43,-38.5 0,-38.5"/>
<text text-anchor="middle" x="21.5" y="-45.5" font-family="Helvetica,sans-Serif" font-size="10.00">clarfg</text>
</g>
<!-- Node1 -->
<g id="node2" class="node"><title>Node1</title>
<g id="a_node2"><a xlink:href="bench_2btl_2libs_2BLAS_2blas_8h.html#ac4bc4b3113771b7075746cb9b7eb8d60" target="_top" xlink:title="cscal">
<polygon fill="none" stroke="black" points="81.5,-76.5 81.5,-95.5 122.5,-95.5 122.5,-76.5 81.5,-76.5"/>
<text text-anchor="middle" x="102" y="-83.5" font-family="Helvetica,sans-Serif" font-size="10.00">cscal</text>
</a>
</g>
</g>
<!-- Node0&#45;&gt;Node1 -->
<g id="edge1" class="edge"><title>Node0&#45;&gt;Node1</title>
<path fill="none" stroke="midnightblue" d="M42.3089,-57.589C51.3957,-61.9877 62.3424,-67.2867 72.308,-72.1109"/>
<polygon fill="midnightblue" stroke="midnightblue" points="70.9435,-75.3388 81.4694,-76.5457 73.9935,-69.0382 70.9435,-75.3388"/>
</g>
<!-- Node2 -->
<g id="node3" class="node"><title>Node2</title>
<g id="a_node3"><a xlink:href="bench_2btl_2libs_2BLAS_2blas_8h.html#a9d2692658587fdea94593106882a4c2e" target="_top" xlink:title="csscal">
<polygon fill="none" stroke="black" points="79,-38.5 79,-57.5 125,-57.5 125,-38.5 79,-38.5"/>
<text text-anchor="middle" x="102" y="-45.5" font-family="Helvetica,sans-Serif" font-size="10.00">csscal</text>
</a>
</g>
</g>
<!-- Node0&#45;&gt;Node2 -->
<g id="edge2" class="edge"><title>Node0&#45;&gt;Node2</title>
<path fill="none" stroke="midnightblue" d="M43.125,-48C50.9404,-48 60.0384,-48 68.6745,-48"/>
<polygon fill="midnightblue" stroke="midnightblue" points="68.8624,-51.5001 78.8623,-48 68.8623,-44.5001 68.8624,-51.5001"/>
</g>
<!-- Node3 -->
<g id="node4" class="node"><title>Node3</title>
<g id="a_node4"><a xlink:href="Cwise__array__power__array_8cpp.html#aa9e3025f5efca2c2a39d785652f2d710" target="_top" xlink:title="e">
<polygon fill="none" stroke="black" points="87.5,-0.5 87.5,-19.5 116.5,-19.5 116.5,-0.5 87.5,-0.5"/>
<text text-anchor="middle" x="102" y="-7.5" font-family="Helvetica,sans-Serif" font-size="10.00">e</text>
</a>
</g>
</g>
<!-- Node0&#45;&gt;Node3 -->
<g id="edge3" class="edge"><title>Node0&#45;&gt;Node3</title>
<path fill="none" stroke="midnightblue" d="M42.3089,-38.411C53.1287,-33.1734 66.5855,-26.6592 77.8833,-21.1903"/>
<polygon fill="midnightblue" stroke="midnightblue" points="79.6593,-24.2191 87.1352,-16.7116 76.6093,-17.9185 79.6593,-24.2191"/>
</g>
</g>
</svg>
