<?xml version="1.0" encoding="UTF-8" standalone="no"?>
<!DOCTYPE svg PUBLIC "-//W3C//DTD SVG 1.1//EN"
 "http://www.w3.org/Graphics/SVG/1.1/DTD/svg11.dtd">
<!-- Generated by graphviz version 2.38.0 (20140413.2041)
 -->
<!-- Title: Eigen::BenchTimer::getRealTime Pages: 1 -->
<svg width="599pt" height="265pt"
 viewBox="0.00 0.00 599.00 264.50" xmlns="http://www.w3.org/2000/svg" xmlns:xlink="http://www.w3.org/1999/xlink">
<g id="graph0" class="graph" transform="scale(1 1) rotate(0) translate(4 260.5)">
<title>Eigen::BenchTimer::getRealTime</title>
<!-- Node30 -->
<g id="node1" class="node"><title>Node30</title>
<polygon fill="#bfbfbf" stroke="black" points="0,-147 0,-177 112,-177 112,-147 0,-147"/>
<text text-anchor="start" x="8" y="-165" font-family="Helvetica,sans-Serif" font-size="10.00">Eigen::BenchTimer::</text>
<text text-anchor="middle" x="56" y="-154" font-family="Helvetica,sans-Serif" font-size="10.00">getRealTime</text>
</g>
<!-- Node31 -->
<g id="node2" class="node"><title>Node31</title>
<g id="a_node2"><a xlink:href="benchmark-blocking-sizes_8cpp.html#a0ddf1224851353fc92bfbff6f499fa97" target="_top" xlink:title="main">
<polygon fill="none" stroke="black" points="201,-228.5 201,-247.5 242,-247.5 242,-228.5 201,-228.5"/>
<text text-anchor="middle" x="221.5" y="-235.5" font-family="Helvetica,sans-Serif" font-size="10.00">main</text>
</a>
</g>
</g>
<!-- Node30&#45;&gt;Node31 -->
<g id="edge1" class="edge"><title>Node30&#45;&gt;Node31</title>
<path fill="none" stroke="midnightblue" d="M85.4924,-183.001C102.835,-194.963 125.85,-209.427 148,-219 165.199,-226.433 185.989,-231.516 200.888,-234.54"/>
<polygon fill="midnightblue" stroke="midnightblue" points="87.1684,-179.901 76.9748,-177.012 83.1425,-185.627 87.1684,-179.901"/>
</g>
<!-- Node32 -->
<g id="node3" class="node"><title>Node32</title>
<g id="a_node3"><a xlink:href="benchmark-blocking-sizes_8cpp.html#a2448c2abccf666684f95243f0f7292cf" target="_top" xlink:title="run_benchmarks">
<polygon fill="none" stroke="black" points="331,-190.5 331,-209.5 428,-209.5 428,-190.5 331,-190.5"/>
<text text-anchor="middle" x="379.5" y="-197.5" font-family="Helvetica,sans-Serif" font-size="10.00">run_benchmarks</text>
</a>
</g>
</g>
<!-- Node30&#45;&gt;Node32 -->
<g id="edge2" class="edge"><title>Node30&#45;&gt;Node32</title>
<path fill="none" stroke="midnightblue" d="M122.337,-164.677C170.32,-167.259 236.976,-172.13 295,-181 310.431,-183.359 327.251,-186.979 341.724,-190.429"/>
<polygon fill="midnightblue" stroke="midnightblue" points="122.255,-161.168 112.087,-164.145 121.892,-168.159 122.255,-161.168"/>
</g>
<!-- Node35 -->
<g id="node6" class="node"><title>Node35</title>
<g id="a_node6"><a xlink:href="classEigen_1_1BenchTimer.html#a6b01cc1c0408353022174b867ab29dc9" target="_top" xlink:title="Eigen::BenchTimer::\lstart">
<polygon fill="none" stroke="black" points="165.5,-65 165.5,-95 277.5,-95 277.5,-65 165.5,-65"/>
<text text-anchor="start" x="173.5" y="-83" font-family="Helvetica,sans-Serif" font-size="10.00">Eigen::BenchTimer::</text>
<text text-anchor="middle" x="221.5" y="-72" font-family="Helvetica,sans-Serif" font-size="10.00">start</text>
</a>
</g>
</g>
<!-- Node30&#45;&gt;Node35 -->
<g id="edge5" class="edge"><title>Node30&#45;&gt;Node35</title>
<path fill="none" stroke="midnightblue" d="M86.4611,-141.144C103.815,-129.48 126.515,-115.268 148,-105 155.568,-101.383 163.802,-98.0324 171.916,-95.0358"/>
<polygon fill="midnightblue" stroke="midnightblue" points="84.1979,-138.451 77.9083,-146.977 88.142,-144.234 84.1979,-138.451"/>
</g>
<!-- Node42 -->
<g id="node13" class="node"><title>Node42</title>
<g id="a_node13"><a xlink:href="classEigen_1_1BenchTimer.html#a367e14b2e9c1ab6d3f0ff7bcfcd5ee37" target="_top" xlink:title="Eigen::BenchTimer::stop">
<polygon fill="none" stroke="black" points="155,-114.5 155,-133.5 288,-133.5 288,-114.5 155,-114.5"/>
<text text-anchor="middle" x="221.5" y="-121.5" font-family="Helvetica,sans-Serif" font-size="10.00">Eigen::BenchTimer::stop</text>
</a>
</g>
</g>
<!-- Node30&#45;&gt;Node42 -->
<g id="edge12" class="edge"><title>Node30&#45;&gt;Node42</title>
<path fill="none" stroke="midnightblue" d="M122.295,-146.824C141.574,-142.344 162.126,-137.567 179.42,-133.548"/>
<polygon fill="midnightblue" stroke="midnightblue" points="121.302,-143.462 112.354,-149.135 122.886,-150.28 121.302,-143.462"/>
</g>
<!-- Node44 -->
<g id="node15" class="node"><title>Node44</title>
<g id="a_node15"><a xlink:href="benchmark-blocking-sizes_8cpp.html#aea02bf6aae653ce300842f4a85cf9b63" target="_top" xlink:title="try_run_some_benchmarks">
<polygon fill="none" stroke="black" points="148,-190.5 148,-209.5 295,-209.5 295,-190.5 148,-190.5"/>
<text text-anchor="middle" x="221.5" y="-197.5" font-family="Helvetica,sans-Serif" font-size="10.00">try_run_some_benchmarks</text>
</a>
</g>
</g>
<!-- Node30&#45;&gt;Node44 -->
<g id="edge16" class="edge"><title>Node30&#45;&gt;Node44</title>
<path fill="none" stroke="midnightblue" d="M122.295,-177.176C141.574,-181.656 162.126,-186.433 179.42,-190.452"/>
<polygon fill="midnightblue" stroke="midnightblue" points="122.886,-173.72 112.354,-174.865 121.302,-180.538 122.886,-173.72"/>
</g>
<!-- Node33 -->
<g id="node4" class="node"><title>Node33</title>
<g id="a_node4"><a xlink:href="structmeasure__all__pot__sizes__action__t.html#a0e609492bfec2fefd574cb35b60b1bfe" target="_top" xlink:title="measure_all_pot_sizes\l_action_t::run">
<polygon fill="none" stroke="black" points="465,-226 465,-256 590,-256 590,-226 465,-226"/>
<text text-anchor="start" x="473" y="-244" font-family="Helvetica,sans-Serif" font-size="10.00">measure_all_pot_sizes</text>
<text text-anchor="middle" x="527.5" y="-233" font-family="Helvetica,sans-Serif" font-size="10.00">_action_t::run</text>
</a>
</g>
</g>
<!-- Node32&#45;&gt;Node33 -->
<g id="edge3" class="edge"><title>Node32&#45;&gt;Node33</title>
<path fill="none" stroke="midnightblue" d="M424.087,-212.24C439.393,-216.538 456.771,-221.418 472.809,-225.922"/>
<polygon fill="midnightblue" stroke="midnightblue" points="424.936,-208.843 414.362,-209.509 423.044,-215.583 424.936,-208.843"/>
</g>
<!-- Node34 -->
<g id="node5" class="node"><title>Node34</title>
<g id="a_node5"><a xlink:href="structmeasure__default__sizes__action__t.html#a5efe4ed712585335504ef98a65a3370f" target="_top" xlink:title="measure_default_sizes\l_action_t::run">
<polygon fill="none" stroke="black" points="464,-177 464,-207 591,-207 591,-177 464,-177"/>
<text text-anchor="start" x="472" y="-195" font-family="Helvetica,sans-Serif" font-size="10.00">measure_default_sizes</text>
<text text-anchor="middle" x="527.5" y="-184" font-family="Helvetica,sans-Serif" font-size="10.00">_action_t::run</text>
</a>
</g>
</g>
<!-- Node32&#45;&gt;Node34 -->
<g id="edge4" class="edge"><title>Node32&#45;&gt;Node34</title>
<path fill="none" stroke="midnightblue" d="M438.388,-196.828C446.794,-196.367 455.479,-195.892 463.971,-195.426"/>
<polygon fill="midnightblue" stroke="midnightblue" points="438.099,-193.339 428.306,-197.381 438.482,-200.328 438.099,-193.339"/>
</g>
<!-- Node36 -->
<g id="node7" class="node"><title>Node36</title>
<g id="a_node7"><a xlink:href="bench__reverse_8cpp.html#af57f208bfabc394dd45616e63728dce0" target="_top" xlink:title="__attribute__">
<polygon fill="none" stroke="black" points="340,-114.5 340,-133.5 419,-133.5 419,-114.5 340,-114.5"/>
<text text-anchor="middle" x="379.5" y="-121.5" font-family="Helvetica,sans-Serif" font-size="10.00">__attribute__</text>
</a>
</g>
</g>
<!-- Node35&#45;&gt;Node36 -->
<g id="edge6" class="edge"><title>Node35&#45;&gt;Node36</title>
<path fill="none" stroke="midnightblue" d="M285.519,-97.7745C305.696,-103.465 327.262,-109.548 344.541,-114.422"/>
<polygon fill="midnightblue" stroke="midnightblue" points="286.325,-94.3653 275.75,-95.0192 284.424,-101.102 286.325,-94.3653"/>
</g>
<!-- Node39 -->
<g id="node10" class="node"><title>Node39</title>
<g id="a_node10"><a xlink:href="sparse__randomsetter_8cpp.html#a728f25a36d04ee2c3aa05cb72245345a" target="_top" xlink:title="dostuff">
<polygon fill="none" stroke="black" points="354.5,-38.5 354.5,-57.5 404.5,-57.5 404.5,-38.5 354.5,-38.5"/>
<text text-anchor="middle" x="379.5" y="-45.5" font-family="Helvetica,sans-Serif" font-size="10.00">dostuff</text>
</a>
</g>
</g>
<!-- Node35&#45;&gt;Node39 -->
<g id="edge9" class="edge"><title>Node35&#45;&gt;Node39</title>
<path fill="none" stroke="midnightblue" d="M287.873,-66.5902C311.335,-61.7774 336.363,-56.6434 354.16,-52.9929"/>
<polygon fill="midnightblue" stroke="midnightblue" points="287.032,-63.1898 277.939,-68.6279 288.438,-70.047 287.032,-63.1898"/>
</g>
<!-- Node40 -->
<g id="node11" class="node"><title>Node40</title>
<g id="a_node11"><a xlink:href="sparse__randomsetter_8cpp.html#a0ddf1224851353fc92bfbff6f499fa97" target="_top" xlink:title="main">
<polygon fill="none" stroke="black" points="359,-0.5 359,-19.5 400,-19.5 400,-0.5 359,-0.5"/>
<text text-anchor="middle" x="379.5" y="-7.5" font-family="Helvetica,sans-Serif" font-size="10.00">main</text>
</a>
</g>
</g>
<!-- Node35&#45;&gt;Node40 -->
<g id="edge10" class="edge"><title>Node35&#45;&gt;Node40</title>
<path fill="none" stroke="midnightblue" d="M262.877,-60.3292C283.186,-50.6123 308.258,-38.8829 331,-29 340.123,-25.0352 350.356,-20.9029 358.98,-17.5085"/>
<polygon fill="midnightblue" stroke="midnightblue" points="261.113,-57.2938 253.615,-64.7791 264.144,-63.6034 261.113,-57.2938"/>
</g>
<!-- Node41 -->
<g id="node12" class="node"><title>Node41</title>
<g id="a_node12"><a xlink:href="bench__svd_8cpp.html#a7b4c34d12049e4025e7ca9a19e135581" target="_top" xlink:title="bench_svd">
<polygon fill="none" stroke="black" points="345.5,-76.5 345.5,-95.5 413.5,-95.5 413.5,-76.5 345.5,-76.5"/>
<text text-anchor="middle" x="379.5" y="-83.5" font-family="Helvetica,sans-Serif" font-size="10.00">bench_svd</text>
</a>
</g>
</g>
<!-- Node35&#45;&gt;Node41 -->
<g id="edge11" class="edge"><title>Node35&#45;&gt;Node41</title>
<path fill="none" stroke="midnightblue" d="M288.155,-82.5252C307.935,-83.286 328.801,-84.0885 345.491,-84.7304"/>
<polygon fill="midnightblue" stroke="midnightblue" points="288.066,-79.0193 277.939,-82.1323 287.797,-86.0141 288.066,-79.0193"/>
</g>
<!-- Node37 -->
<g id="node8" class="node"><title>Node37</title>
<g id="a_node8"><a xlink:href="basicbenchmark_8h.html#ab2852ae2df55f670c62297f69779f7d8" target="_top" xlink:title="benchBasic_loop">
<polygon fill="none" stroke="black" points="479,-122.5 479,-141.5 576,-141.5 576,-122.5 479,-122.5"/>
<text text-anchor="middle" x="527.5" y="-129.5" font-family="Helvetica,sans-Serif" font-size="10.00">benchBasic_loop</text>
</a>
</g>
</g>
<!-- Node36&#45;&gt;Node37 -->
<g id="edge7" class="edge"><title>Node36&#45;&gt;Node37</title>
<path fill="none" stroke="midnightblue" d="M429.448,-126.682C445.414,-127.557 463.108,-128.526 478.968,-129.396"/>
<polygon fill="midnightblue" stroke="midnightblue" points="429.419,-123.175 419.242,-126.123 429.036,-130.165 429.419,-123.175"/>
</g>
<!-- Node38 -->
<g id="node9" class="node"><title>Node38</title>
<g id="a_node9"><a xlink:href="BenchUtil_8h.html#af03059ceff46160bbce9dc56d5758686" target="_top" xlink:title="initMatrix_random">
<polygon fill="none" stroke="black" points="476,-84.5 476,-103.5 579,-103.5 579,-84.5 476,-84.5"/>
<text text-anchor="middle" x="527.5" y="-91.5" font-family="Helvetica,sans-Serif" font-size="10.00">initMatrix_random</text>
</a>
</g>
</g>
<!-- Node36&#45;&gt;Node38 -->
<g id="edge8" class="edge"><title>Node36&#45;&gt;Node38</title>
<path fill="none" stroke="midnightblue" d="M429.177,-113.998C445.572,-110.629 463.814,-106.881 480.034,-103.548"/>
<polygon fill="midnightblue" stroke="midnightblue" points="428.333,-110.598 419.242,-116.039 429.742,-117.455 428.333,-110.598"/>
</g>
<!-- Node42&#45;&gt;Node36 -->
<g id="edge13" class="edge"><title>Node42&#45;&gt;Node36</title>
<path fill="none" stroke="midnightblue" d="M298.522,-124C312.747,-124 327.06,-124 339.567,-124"/>
<polygon fill="midnightblue" stroke="midnightblue" points="298.206,-120.5 288.206,-124 298.206,-127.5 298.206,-120.5"/>
</g>
<!-- Node42&#45;&gt;Node41 -->
<g id="edge15" class="edge"><title>Node42&#45;&gt;Node41</title>
<path fill="none" stroke="midnightblue" d="M271.868,-111.975C295.882,-106.125 324.102,-99.2509 345.476,-94.0443"/>
<polygon fill="midnightblue" stroke="midnightblue" points="270.753,-108.644 261.865,-114.411 272.41,-115.445 270.753,-108.644"/>
</g>
<!-- Node43 -->
<g id="node14" class="node"><title>Node43</title>
<g id="a_node14"><a xlink:href="spmv_8cpp.html#a0ddf1224851353fc92bfbff6f499fa97" target="_top" xlink:title="main">
<polygon fill="none" stroke="black" points="359,-152.5 359,-171.5 400,-171.5 400,-152.5 359,-152.5"/>
<text text-anchor="middle" x="379.5" y="-159.5" font-family="Helvetica,sans-Serif" font-size="10.00">main</text>
</a>
</g>
</g>
<!-- Node42&#45;&gt;Node43 -->
<g id="edge14" class="edge"><title>Node42&#45;&gt;Node43</title>
<path fill="none" stroke="midnightblue" d="M271.96,-136.048C301.331,-143.202 336.964,-151.882 358.673,-157.17"/>
<polygon fill="midnightblue" stroke="midnightblue" points="272.41,-132.555 261.865,-133.589 270.753,-139.356 272.41,-132.555"/>
</g>
<!-- Node44&#45;&gt;Node32 -->
<g id="edge17" class="edge"><title>Node44&#45;&gt;Node32</title>
<path fill="none" stroke="midnightblue" d="M305.24,-200C313.938,-200 322.556,-200 330.661,-200"/>
<polygon fill="midnightblue" stroke="midnightblue" points="305.02,-196.5 295.02,-200 305.02,-203.5 305.02,-196.5"/>
</g>
</g>
</svg>
