<?xml version="1.0" encoding="UTF-8" standalone="no"?>
<!DOCTYPE svg PUBLIC "-//W3C//DTD SVG 1.1//EN"
 "http://www.w3.org/Graphics/SVG/1.1/DTD/svg11.dtd">
<!-- Generated by graphviz version 2.38.0 (20140413.2041)
 -->
<!-- Title: Numerov::Numerov Pages: 1 -->
<svg width="192pt" height="104pt"
 viewBox="0.00 0.00 192.00 104.00" xmlns="http://www.w3.org/2000/svg" xmlns:xlink="http://www.w3.org/1999/xlink">
<g id="graph0" class="graph" transform="scale(1 1) rotate(0) translate(4 100)">
<title>Numerov::Numerov</title>
<!-- Node0 -->
<g id="node1" class="node"><title>Node0</title>
<polygon fill="#bfbfbf" stroke="black" points="0,-38.5 0,-57.5 110,-57.5 110,-38.5 0,-38.5"/>
<text text-anchor="middle" x="55" y="-45.5" font-family="Helvetica,sans-Serif" font-size="10.00">Numerov::Numerov</text>
</g>
<!-- Node1 -->
<g id="node2" class="node"><title>Node1</title>
<g id="a_node2"><a xlink:href="ArrayCwiseUnaryOps_8h.html#a63043b6807e8e10fb1adf4667e3664d2" target="_top" xlink:title="ceil">
<polygon fill="none" stroke="black" points="149,-76.5 149,-95.5 181,-95.5 181,-76.5 149,-76.5"/>
<text text-anchor="middle" x="165" y="-83.5" font-family="Helvetica,sans-Serif" font-size="10.00">ceil</text>
</a>
</g>
</g>
<!-- Node0&#45;&gt;Node1 -->
<g id="edge1" class="edge"><title>Node0&#45;&gt;Node1</title>
<path fill="none" stroke="midnightblue" d="M83.253,-57.589C100.433,-63.634 122.446,-71.3793 139.148,-77.2557"/>
<polygon fill="midnightblue" stroke="midnightblue" points="138.175,-80.6236 148.77,-80.6411 140.498,-74.0204 138.175,-80.6236"/>
</g>
<!-- Node2 -->
<g id="node3" class="node"><title>Node2</title>
<g id="a_node3"><a xlink:href="ArrayCwiseUnaryOps_8h.html#a3230e10964844c34fb73eaccc84dc8a7" target="_top" xlink:title="floor">
<polygon fill="none" stroke="black" points="146,-38.5 146,-57.5 184,-57.5 184,-38.5 146,-38.5"/>
<text text-anchor="middle" x="165" y="-45.5" font-family="Helvetica,sans-Serif" font-size="10.00">floor</text>
</a>
</g>
</g>
<!-- Node0&#45;&gt;Node2 -->
<g id="edge2" class="edge"><title>Node0&#45;&gt;Node2</title>
<path fill="none" stroke="midnightblue" d="M110.316,-48C119.128,-48 127.928,-48 135.779,-48"/>
<polygon fill="midnightblue" stroke="midnightblue" points="135.807,-51.5001 145.807,-48 135.807,-44.5001 135.807,-51.5001"/>
</g>
<!-- Node3 -->
<g id="node4" class="node"><title>Node3</title>
<g id="a_node4"><a xlink:href="ArrayCwiseUnaryOps_8h.html#a656b9217a2fcb6de59dc8d1eb3079cc7" target="_top" xlink:title="sqrt">
<polygon fill="none" stroke="black" points="147.5,-0.5 147.5,-19.5 182.5,-19.5 182.5,-0.5 147.5,-0.5"/>
<text text-anchor="middle" x="165" y="-7.5" font-family="Helvetica,sans-Serif" font-size="10.00">sqrt</text>
</a>
</g>
</g>
<!-- Node0&#45;&gt;Node3 -->
<g id="edge3" class="edge"><title>Node0&#45;&gt;Node3</title>
<path fill="none" stroke="midnightblue" d="M83.253,-38.411C99.9159,-32.5481 121.125,-25.0858 137.624,-19.2803"/>
<polygon fill="midnightblue" stroke="midnightblue" points="138.935,-22.5295 147.207,-15.9088 136.612,-15.9264 138.935,-22.5295"/>
</g>
</g>
</svg>
