<?xml version="1.0" encoding="UTF-8" standalone="no"?>
<!DOCTYPE svg PUBLIC "-//W3C//DTD SVG 1.1//EN"
 "http://www.w3.org/Graphics/SVG/1.1/DTD/svg11.dtd">
<!-- Generated by graphviz version 2.38.0 (20140413.2041)
 -->
<!-- Title: sqlite::statement::step Pages: 1 -->
<svg width="345pt" height="203pt"
 viewBox="0.00 0.00 345.00 203.00" xmlns="http://www.w3.org/2000/svg" xmlns:xlink="http://www.w3.org/1999/xlink">
<g id="graph0" class="graph" transform="scale(1 1) rotate(0) translate(4 199)">
<title>sqlite::statement::step</title>
<!-- Node54 -->
<g id="node1" class="node"><title>Node54</title>
<polygon fill="#bfbfbf" stroke="black" points="0,-93.5 0,-112.5 125,-112.5 125,-93.5 0,-93.5"/>
<text text-anchor="middle" x="62.5" y="-100.5" font-family="Helvetica,sans-Serif" font-size="10.00">sqlite::statement::step</text>
</g>
<!-- Node55 -->
<g id="node2" class="node"><title>Node55</title>
<g id="a_node2"><a xlink:href="quantum__defect__test_8cpp.html#aa6d045e9def139cd75c41b225e83676e" target="_top" xlink:title="BOOST_AUTO_TEST_CASE">
<polygon fill="none" stroke="black" points="177.5,-175.5 177.5,-194.5 320.5,-194.5 320.5,-175.5 177.5,-175.5"/>
<text text-anchor="middle" x="249" y="-182.5" font-family="Helvetica,sans-Serif" font-size="10.00">BOOST_AUTO_TEST_CASE</text>
</a>
</g>
</g>
<!-- Node54&#45;&gt;Node55 -->
<g id="edge1" class="edge"><title>Node54&#45;&gt;Node55</title>
<path fill="none" stroke="midnightblue" d="M83.4439,-118.968C102.351,-133.331 132.087,-153.968 161,-166 170.135,-169.801 180.14,-172.89 190.009,-175.384"/>
<polygon fill="midnightblue" stroke="midnightblue" points="85.3705,-116.034 75.3219,-112.676 81.0833,-121.567 85.3705,-116.034"/>
</g>
<!-- Node56 -->
<g id="node3" class="node"><title>Node56</title>
<g id="a_node3"><a xlink:href="classMatrixElements.html#a5352b0d0dc75bb41105e40e02c271130" target="_top" xlink:title="MatrixElements::getRadial">
<polygon fill="none" stroke="black" points="178.5,-137.5 178.5,-156.5 319.5,-156.5 319.5,-137.5 178.5,-137.5"/>
<text text-anchor="middle" x="249" y="-144.5" font-family="Helvetica,sans-Serif" font-size="10.00">MatrixElements::getRadial</text>
</a>
</g>
</g>
<!-- Node54&#45;&gt;Node56 -->
<g id="edge2" class="edge"><title>Node54&#45;&gt;Node56</title>
<path fill="none" stroke="midnightblue" d="M109.357,-115.12C125.633,-119.326 144.104,-123.99 161,-128 174.538,-131.213 189.31,-134.515 202.775,-137.447"/>
<polygon fill="midnightblue" stroke="midnightblue" points="110.098,-111.697 99.5396,-112.571 108.339,-118.472 110.098,-111.697"/>
</g>
<!-- Node57 -->
<g id="node4" class="node"><title>Node57</title>
<g id="a_node4"><a xlink:href="classsqlite_1_1statement_1_1iterator.html#abe9e2121ba042bb0b0b22bafb7098ac5" target="_top" xlink:title="sqlite::statement::\literator::iterator">
<polygon fill="none" stroke="black" points="197,-88 197,-118 301,-118 301,-88 197,-88"/>
<text text-anchor="start" x="205" y="-106" font-family="Helvetica,sans-Serif" font-size="10.00">sqlite::statement::</text>
<text text-anchor="middle" x="249" y="-95" font-family="Helvetica,sans-Serif" font-size="10.00">iterator::iterator</text>
</a>
</g>
</g>
<!-- Node54&#45;&gt;Node57 -->
<g id="edge3" class="edge"><title>Node54&#45;&gt;Node57</title>
<path fill="none" stroke="midnightblue" d="M135.438,-103C155.932,-103 177.833,-103 196.818,-103"/>
<polygon fill="midnightblue" stroke="midnightblue" points="135.192,-99.5001 125.192,-103 135.192,-106.5 135.192,-99.5001"/>
</g>
<!-- Node58 -->
<g id="node5" class="node"><title>Node58</title>
<g id="a_node5"><a xlink:href="classMatrixElements.html#adebeaf2c43204d0ed2f5d36b3ef9846b" target="_top" xlink:title="MatrixElements::precalculate\lDiamagnetism">
<polygon fill="none" stroke="black" points="171.5,-39 171.5,-69 326.5,-69 326.5,-39 171.5,-39"/>
<text text-anchor="start" x="179.5" y="-57" font-family="Helvetica,sans-Serif" font-size="10.00">MatrixElements::precalculate</text>
<text text-anchor="middle" x="249" y="-46" font-family="Helvetica,sans-Serif" font-size="10.00">Diamagnetism</text>
</a>
</g>
</g>
<!-- Node54&#45;&gt;Node58 -->
<g id="edge4" class="edge"><title>Node54&#45;&gt;Node58</title>
<path fill="none" stroke="midnightblue" d="M109.397,-90.8104C134.216,-84.2192 165.081,-76.0218 191.381,-69.037"/>
<polygon fill="midnightblue" stroke="midnightblue" points="108.278,-87.4863 99.5114,-93.436 110.075,-94.2518 108.278,-87.4863"/>
</g>
<!-- Node59 -->
<g id="node6" class="node"><title>Node59</title>
<g id="a_node6"><a xlink:href="classQuantumDefect.html#ae35ddcbfdf6d217950469549c60743d2" target="_top" xlink:title="QuantumDefect::QuantumDefect">
<polygon fill="none" stroke="black" points="161,-0.5 161,-19.5 337,-19.5 337,-0.5 161,-0.5"/>
<text text-anchor="middle" x="249" y="-7.5" font-family="Helvetica,sans-Serif" font-size="10.00">QuantumDefect::QuantumDefect</text>
</a>
</g>
</g>
<!-- Node54&#45;&gt;Node59 -->
<g id="edge5" class="edge"><title>Node54&#45;&gt;Node59</title>
<path fill="none" stroke="midnightblue" d="M80.954,-86.3133C99.402,-69.5985 130.059,-44.3522 161,-30 170.279,-25.6958 180.556,-22.2816 190.7,-19.5846"/>
<polygon fill="midnightblue" stroke="midnightblue" points="78.3419,-83.9619 73.3799,-93.323 83.0965,-89.0994 78.3419,-83.9619"/>
</g>
</g>
</svg>
