<?xml version="1.0" encoding="UTF-8" standalone="no"?>
<!DOCTYPE svg PUBLIC "-//W3C//DTD SVG 1.1//EN"
 "http://www.w3.org/Graphics/SVG/1.1/DTD/svg11.dtd">
<!-- Generated by graphviz version 2.38.0 (20140413.2041)
 -->
<!-- Title: Eigen::OuterStride&lt; Value &gt; Pages: 1 -->
<svg width="538pt" height="110pt"
 viewBox="0.00 0.00 538.00 110.00" xmlns="http://www.w3.org/2000/svg" xmlns:xlink="http://www.w3.org/1999/xlink">
<g id="graph0" class="graph" transform="scale(1 1) rotate(0) translate(4 106)">
<title>Eigen::OuterStride&lt; Value &gt;</title>
<!-- Node2 -->
<g id="node1" class="node"><title>Node2</title>
<polygon fill="#bfbfbf" stroke="black" points="426,-36 426,-66 530,-66 530,-36 426,-36"/>
<text text-anchor="start" x="434" y="-54" font-family="Helvetica,sans-Serif" font-size="10.00">Eigen::OuterStride</text>
<text text-anchor="middle" x="478" y="-43" font-family="Helvetica,sans-Serif" font-size="10.00">&lt; Value &gt;</text>
</g>
<!-- Node3 -->
<g id="node2" class="node"><title>Node3</title>
<g id="a_node2"><a xlink:href="classEigen_1_1Stride.html" target="_top" xlink:title="Eigen::Stride\&lt; Value, 0 \&gt;">
<polygon fill="none" stroke="black" points="251,-41.5 251,-60.5 389,-60.5 389,-41.5 251,-41.5"/>
<text text-anchor="middle" x="320" y="-48.5" font-family="Helvetica,sans-Serif" font-size="10.00">Eigen::Stride&lt; Value, 0 &gt;</text>
</a>
</g>
</g>
<!-- Node3&#45;&gt;Node2 -->
<g id="edge1" class="edge"><title>Node3&#45;&gt;Node2</title>
<path fill="none" stroke="midnightblue" d="M399.544,-51C408.526,-51 417.499,-51 425.986,-51"/>
<polygon fill="midnightblue" stroke="midnightblue" points="399.424,-47.5001 389.424,-51 399.424,-54.5001 399.424,-47.5001"/>
</g>
<!-- Node4 -->
<g id="node3" class="node"><title>Node4</title>
<g id="a_node3"><a xlink:href="classEigen_1_1internal_1_1variable__if__dynamic.html" target="_top" xlink:title="Eigen::internal::variable\l_if_dynamic\&lt; Index, OuterStride\lAtCompileTime \&gt;">
<polygon fill="none" stroke="black" points="0,-60.5 0,-101.5 171,-101.5 171,-60.5 0,-60.5"/>
<text text-anchor="start" x="8" y="-89.5" font-family="Helvetica,sans-Serif" font-size="10.00">Eigen::internal::variable</text>
<text text-anchor="start" x="8" y="-78.5" font-family="Helvetica,sans-Serif" font-size="10.00">_if_dynamic&lt; Index, OuterStride</text>
<text text-anchor="middle" x="85.5" y="-67.5" font-family="Helvetica,sans-Serif" font-size="10.00">AtCompileTime &gt;</text>
</a>
</g>
</g>
<!-- Node4&#45;&gt;Node3 -->
<g id="edge2" class="edge"><title>Node4&#45;&gt;Node3</title>
<path fill="none" stroke="#9a32cd" stroke-dasharray="5,2" d="M181.028,-68.8028C204.405,-65.7864 228.998,-62.6132 250.84,-59.7948"/>
<polygon fill="#9a32cd" stroke="#9a32cd" points="180.565,-65.3334 171.096,-70.0844 181.461,-72.2759 180.565,-65.3334"/>
<text text-anchor="middle" x="211" y="-69" font-family="Helvetica,sans-Serif" font-size="10.00"> m_outer</text>
</g>
<!-- Node5 -->
<g id="node4" class="node"><title>Node5</title>
<g id="a_node4"><a xlink:href="classEigen_1_1internal_1_1variable__if__dynamic.html" target="_top" xlink:title="Eigen::internal::variable\l_if_dynamic\&lt; Index, InnerStride\lAtCompileTime \&gt;">
<polygon fill="none" stroke="black" points="1.5,-0.5 1.5,-41.5 169.5,-41.5 169.5,-0.5 1.5,-0.5"/>
<text text-anchor="start" x="9.5" y="-29.5" font-family="Helvetica,sans-Serif" font-size="10.00">Eigen::internal::variable</text>
<text text-anchor="start" x="9.5" y="-18.5" font-family="Helvetica,sans-Serif" font-size="10.00">_if_dynamic&lt; Index, InnerStride</text>
<text text-anchor="middle" x="85.5" y="-7.5" font-family="Helvetica,sans-Serif" font-size="10.00">AtCompileTime &gt;</text>
</a>
</g>
</g>
<!-- Node5&#45;&gt;Node3 -->
<g id="edge3" class="edge"><title>Node5&#45;&gt;Node3</title>
<path fill="none" stroke="#9a32cd" stroke-dasharray="5,2" d="M179.854,-33.0457C203.576,-36.1066 228.623,-39.3384 250.828,-42.2036"/>
<polygon fill="#9a32cd" stroke="#9a32cd" points="180.147,-29.5545 169.781,-31.746 179.251,-36.497 180.147,-29.5545"/>
<text text-anchor="middle" x="211" y="-42" font-family="Helvetica,sans-Serif" font-size="10.00"> m_inner</text>
</g>
</g>
</svg>
