<?xml version="1.0" encoding="UTF-8" standalone="no"?>
<!DOCTYPE svg PUBLIC "-//W3C//DTD SVG 1.1//EN"
 "http://www.w3.org/Graphics/SVG/1.1/DTD/svg11.dtd">
<!-- Generated by graphviz version 2.38.0 (20140413.2041)
 -->
<!-- Title: Eigen::HouseholderQR::solve Pages: 1 -->
<svg width="289pt" height="192pt"
 viewBox="0.00 0.00 289.00 192.00" xmlns="http://www.w3.org/2000/svg" xmlns:xlink="http://www.w3.org/1999/xlink">
<g id="graph0" class="graph" transform="scale(1 1) rotate(0) translate(4 188)">
<title>Eigen::HouseholderQR::solve</title>
<!-- Node90 -->
<g id="node1" class="node"><title>Node90</title>
<polygon fill="#bfbfbf" stroke="black" points="0,-71 0,-101 123,-101 123,-71 0,-71"/>
<text text-anchor="start" x="8" y="-89" font-family="Helvetica,sans-Serif" font-size="10.00">Eigen::HouseholderQR</text>
<text text-anchor="middle" x="61.5" y="-78" font-family="Helvetica,sans-Serif" font-size="10.00">::solve</text>
</g>
<!-- Node91 -->
<g id="node2" class="node"><title>Node91</title>
<g id="a_node2"><a xlink:href="nomalloc_8cpp.html#ac6a1cc3b954c50458ab44676411eece1" target="_top" xlink:title="ctms_decompositions">
<polygon fill="none" stroke="black" points="159,-164.5 159,-183.5 281,-183.5 281,-164.5 159,-164.5"/>
<text text-anchor="middle" x="220" y="-171.5" font-family="Helvetica,sans-Serif" font-size="10.00">ctms_decompositions</text>
</a>
</g>
</g>
<!-- Node90&#45;&gt;Node91 -->
<g id="edge1" class="edge"><title>Node90&#45;&gt;Node91</title>
<path fill="none" stroke="midnightblue" d="M87.9061,-107.564C106.585,-122.542 133.122,-142.059 159,-155 166.329,-158.665 174.514,-161.814 182.424,-164.434"/>
<polygon fill="midnightblue" stroke="midnightblue" points="89.8691,-104.648 79.9072,-101.041 85.4453,-110.073 89.8691,-104.648"/>
</g>
<!-- Node92 -->
<g id="node3" class="node"><title>Node92</title>
<g id="a_node3"><a xlink:href="structEigen_1_1SplineFitting.html#af08185c8b635283f7c76efe91576cc83" target="_top" xlink:title="Fits an interpolating Spline to the given data points. ">
<polygon fill="none" stroke="black" points="166.5,-115 166.5,-145 273.5,-145 273.5,-115 166.5,-115"/>
<text text-anchor="start" x="174.5" y="-133" font-family="Helvetica,sans-Serif" font-size="10.00">Eigen::SplineFitting</text>
<text text-anchor="middle" x="220" y="-122" font-family="Helvetica,sans-Serif" font-size="10.00">::Interpolate</text>
</a>
</g>
</g>
<!-- Node90&#45;&gt;Node92 -->
<g id="edge2" class="edge"><title>Node90&#45;&gt;Node92</title>
<path fill="none" stroke="midnightblue" d="M125.626,-103.748C139.141,-107.548 153.281,-111.523 166.35,-115.198"/>
<polygon fill="midnightblue" stroke="midnightblue" points="126.495,-100.357 115.921,-101.019 124.6,-107.095 126.495,-100.357"/>
</g>
<!-- Node93 -->
<g id="node4" class="node"><title>Node93</title>
<g id="a_node4"><a xlink:href="qr_8cpp.html#ad5c305e7d9c3fd6abc3950b0edb0cc0c" target="_top" xlink:title="qr_fixedsize">
<polygon fill="none" stroke="black" points="183.5,-76.5 183.5,-95.5 256.5,-95.5 256.5,-76.5 183.5,-76.5"/>
<text text-anchor="middle" x="220" y="-83.5" font-family="Helvetica,sans-Serif" font-size="10.00">qr_fixedsize</text>
</a>
</g>
</g>
<!-- Node90&#45;&gt;Node93 -->
<g id="edge3" class="edge"><title>Node90&#45;&gt;Node93</title>
<path fill="none" stroke="midnightblue" d="M133.108,-86C150.406,-86 168.207,-86 183.087,-86"/>
<polygon fill="midnightblue" stroke="midnightblue" points="133.007,-82.5001 123.007,-86 133.007,-89.5001 133.007,-82.5001"/>
</g>
<!-- Node94 -->
<g id="node5" class="node"><title>Node94</title>
<g id="a_node5"><a xlink:href="qr_8cpp.html#a9bfcf72d1c319774f027d3446dc121dd" target="_top" xlink:title="qr_invertible">
<polygon fill="none" stroke="black" points="182.5,-38.5 182.5,-57.5 257.5,-57.5 257.5,-38.5 182.5,-38.5"/>
<text text-anchor="middle" x="220" y="-45.5" font-family="Helvetica,sans-Serif" font-size="10.00">qr_invertible</text>
</a>
</g>
</g>
<!-- Node90&#45;&gt;Node94 -->
<g id="edge4" class="edge"><title>Node90&#45;&gt;Node94</title>
<path fill="none" stroke="midnightblue" d="M132.935,-68.8975C149.937,-64.7693 167.436,-60.5204 182.178,-56.9408"/>
<polygon fill="midnightblue" stroke="midnightblue" points="131.899,-65.5474 123.007,-71.3082 133.55,-72.3498 131.899,-65.5474"/>
</g>
<!-- Node95 -->
<g id="node6" class="node"><title>Node95</title>
<g id="a_node6"><a xlink:href="qr_8cpp.html#a6693811f52bc269d1ec52b3ec57d8da2" target="_top" xlink:title="qr_verify_assert">
<polygon fill="none" stroke="black" points="174,-0.5 174,-19.5 266,-19.5 266,-0.5 174,-0.5"/>
<text text-anchor="middle" x="220" y="-7.5" font-family="Helvetica,sans-Serif" font-size="10.00">qr_verify_assert</text>
</a>
</g>
</g>
<!-- Node90&#45;&gt;Node95 -->
<g id="edge5" class="edge"><title>Node90&#45;&gt;Node95</title>
<path fill="none" stroke="midnightblue" d="M93.3039,-65.3669C111.793,-53.6101 136.099,-39.23 159,-29 166.981,-25.4349 175.833,-22.2425 184.233,-19.538"/>
<polygon fill="midnightblue" stroke="midnightblue" points="91.2338,-62.5372 84.7264,-70.898 95.0274,-68.4201 91.2338,-62.5372"/>
</g>
</g>
</svg>
