<?xml version="1.0" encoding="UTF-8" standalone="no"?>
<!DOCTYPE svg PUBLIC "-//W3C//DTD SVG 1.1//EN"
 "http://www.w3.org/Graphics/SVG/1.1/DTD/svg11.dtd">
<!-- Generated by graphviz version 2.38.0 (20140413.2041)
 -->
<!-- Title: Eigen::IncompleteLU&lt; _Scalar &gt; Pages: 1 -->
<svg width="1146pt" height="265pt"
 viewBox="0.00 0.00 1146.00 265.00" xmlns="http://www.w3.org/2000/svg" xmlns:xlink="http://www.w3.org/1999/xlink">
<g id="graph0" class="graph" transform="scale(1 1) rotate(0) translate(4 261)">
<title>Eigen::IncompleteLU&lt; _Scalar &gt;</title>
<!-- Node3 -->
<g id="node1" class="node"><title>Node3</title>
<polygon fill="#bfbfbf" stroke="black" points="1024,-180 1024,-210 1138,-210 1138,-180 1024,-180"/>
<text text-anchor="start" x="1032" y="-198" font-family="Helvetica,sans-Serif" font-size="10.00">Eigen::IncompleteLU</text>
<text text-anchor="middle" x="1081" y="-187" font-family="Helvetica,sans-Serif" font-size="10.00">&lt; _Scalar &gt;</text>
</g>
<!-- Node4 -->
<g id="node2" class="node"><title>Node4</title>
<g id="a_node2"><a xlink:href="classEigen_1_1SparseSolverBase.html" target="_top" xlink:title="Eigen::SparseSolverBase\l\&lt; IncompleteLU\&lt; _Scalar \&gt; \&gt;">
<polygon fill="none" stroke="black" points="264,-214 264,-244 426,-244 426,-214 264,-214"/>
<text text-anchor="start" x="272" y="-232" font-family="Helvetica,sans-Serif" font-size="10.00">Eigen::SparseSolverBase</text>
<text text-anchor="middle" x="345" y="-221" font-family="Helvetica,sans-Serif" font-size="10.00">&lt; IncompleteLU&lt; _Scalar &gt; &gt;</text>
</a>
</g>
</g>
<!-- Node4&#45;&gt;Node3 -->
<g id="edge1" class="edge"><title>Node4&#45;&gt;Node3</title>
<path fill="none" stroke="midnightblue" d="M436.639,-224.801C590.226,-217.687 897.235,-203.466 1023.63,-197.611"/>
<polygon fill="midnightblue" stroke="midnightblue" points="436.126,-221.321 426.299,-225.28 436.45,-228.314 436.126,-221.321"/>
</g>
<!-- Node5 -->
<g id="node3" class="node"><title>Node5</title>
<g id="a_node3"><a xlink:href="classEigen_1_1internal_1_1noncopyable.html" target="_top" xlink:title="Eigen::internal::noncopyable">
<polygon fill="none" stroke="black" points="3,-237.5 3,-256.5 155,-256.5 155,-237.5 3,-237.5"/>
<text text-anchor="middle" x="79" y="-244.5" font-family="Helvetica,sans-Serif" font-size="10.00">Eigen::internal::noncopyable</text>
</a>
</g>
</g>
<!-- Node5&#45;&gt;Node4 -->
<g id="edge2" class="edge"><title>Node5&#45;&gt;Node4</title>
<path fill="none" stroke="#8b1a1a" d="M165.422,-241.176C197.078,-239.017 232.835,-236.579 263.992,-234.455"/>
<polygon fill="#8b1a1a" stroke="#8b1a1a" points="165.037,-237.694 155.298,-241.866 165.513,-244.678 165.037,-237.694"/>
</g>
<!-- Node6 -->
<g id="node4" class="node"><title>Node6</title>
<g id="a_node4"><a xlink:href="classbool.html" target="_top" xlink:title="bool">
<polygon fill="none" stroke="black" points="60.5,-191.5 60.5,-210.5 97.5,-210.5 97.5,-191.5 60.5,-191.5"/>
<text text-anchor="middle" x="79" y="-198.5" font-family="Helvetica,sans-Serif" font-size="10.00">bool</text>
</a>
</g>
</g>
<!-- Node6&#45;&gt;Node4 -->
<g id="edge3" class="edge"><title>Node6&#45;&gt;Node4</title>
<path fill="none" stroke="#9a32cd" stroke-dasharray="5,2" d="M107.701,-203.938C144.432,-207.834 210.794,-214.872 263.86,-220.5"/>
<polygon fill="#9a32cd" stroke="#9a32cd" points="108.045,-200.455 97.7317,-202.881 107.307,-207.416 108.045,-200.455"/>
<text text-anchor="middle" x="211" y="-221" font-family="Helvetica,sans-Serif" font-size="10.00"> m_isInitialized</text>
</g>
<!-- Node9 -->
<g id="node7" class="node"><title>Node9</title>
<g id="a_node7"><a xlink:href="classEigen_1_1SparseMatrixBase.html" target="_top" xlink:title="Base class of any sparse matrices or sparse expressions. ">
<polygon fill="none" stroke="black" points="277,-165 277,-195 413,-195 413,-165 277,-165"/>
<text text-anchor="start" x="285" y="-183" font-family="Helvetica,sans-Serif" font-size="10.00">Eigen::SparseMatrixBase</text>
<text text-anchor="middle" x="345" y="-172" font-family="Helvetica,sans-Serif" font-size="10.00">&lt; Derived &gt;</text>
</a>
</g>
</g>
<!-- Node6&#45;&gt;Node9 -->
<g id="edge8" class="edge"><title>Node6&#45;&gt;Node9</title>
<path fill="none" stroke="#9a32cd" stroke-dasharray="5,2" d="M107.765,-196.589C126.896,-193.71 152.931,-190.107 176,-188 209.15,-184.972 246.09,-183.054 276.872,-181.859"/>
<polygon fill="#9a32cd" stroke="#9a32cd" points="106.995,-193.166 97.6413,-198.142 108.056,-200.085 106.995,-193.166"/>
<text text-anchor="middle" x="211" y="-191" font-family="Helvetica,sans-Serif" font-size="10.00"> m_isRValue</text>
</g>
<!-- Node7 -->
<g id="node5" class="node"><title>Node7</title>
<g id="a_node5"><a xlink:href="classEigen_1_1SparseMatrix.html" target="_top" xlink:title="Eigen::SparseMatrix\l\&lt; Scalar, RowMajor \&gt;">
<polygon fill="none" stroke="black" points="842,-104 842,-134 961,-134 961,-104 842,-104"/>
<text text-anchor="start" x="850" y="-122" font-family="Helvetica,sans-Serif" font-size="10.00">Eigen::SparseMatrix</text>
<text text-anchor="middle" x="901.5" y="-111" font-family="Helvetica,sans-Serif" font-size="10.00">&lt; Scalar, RowMajor &gt;</text>
</a>
</g>
</g>
<!-- Node7&#45;&gt;Node3 -->
<g id="edge4" class="edge"><title>Node7&#45;&gt;Node3</title>
<path fill="none" stroke="#9a32cd" stroke-dasharray="5,2" d="M947.03,-138.066C977.247,-151.004 1016.65,-167.876 1044.7,-179.886"/>
<polygon fill="#9a32cd" stroke="#9a32cd" points="948.139,-134.734 937.568,-134.015 945.383,-141.169 948.139,-134.734"/>
<text text-anchor="middle" x="992.5" y="-165" font-family="Helvetica,sans-Serif" font-size="10.00"> m_lu</text>
</g>
<!-- Node8 -->
<g id="node6" class="node"><title>Node8</title>
<g id="a_node6"><a xlink:href="classEigen_1_1SparseCompressedBase.html" target="_top" xlink:title="Common base class for sparse [compressed]&#45;{row|column}&#45;storage format. ">
<polygon fill="none" stroke="black" points="546,-159.5 546,-200.5 713,-200.5 713,-159.5 546,-159.5"/>
<text text-anchor="start" x="554" y="-188.5" font-family="Helvetica,sans-Serif" font-size="10.00">Eigen::SparseCompressedBase</text>
<text text-anchor="start" x="554" y="-177.5" font-family="Helvetica,sans-Serif" font-size="10.00">&lt; SparseMatrix&lt; Scalar,</text>
<text text-anchor="middle" x="629.5" y="-166.5" font-family="Helvetica,sans-Serif" font-size="10.00"> _Options, _StorageIndex &gt; &gt;</text>
</a>
</g>
</g>
<!-- Node8&#45;&gt;Node7 -->
<g id="edge5" class="edge"><title>Node8&#45;&gt;Node7</title>
<path fill="none" stroke="midnightblue" d="M723.214,-159.054C762.524,-150.172 807.155,-140.089 841.802,-132.261"/>
<polygon fill="midnightblue" stroke="midnightblue" points="722.327,-155.666 713.344,-161.283 723.869,-162.494 722.327,-155.666"/>
</g>
<!-- Node9&#45;&gt;Node8 -->
<g id="edge6" class="edge"><title>Node9&#45;&gt;Node8</title>
<path fill="none" stroke="midnightblue" d="M423.781,-180C461.682,-180 507.282,-180 545.815,-180"/>
<polygon fill="midnightblue" stroke="midnightblue" points="423.307,-176.5 413.307,-180 423.307,-183.5 423.307,-176.5"/>
</g>
<!-- Node10 -->
<g id="node8" class="node"><title>Node10</title>
<g id="a_node8"><a xlink:href="structEigen_1_1EigenBase.html" target="_top" xlink:title="Eigen::EigenBase\&lt; Derived \&gt;">
<polygon fill="none" stroke="black" points="0,-144.5 0,-163.5 158,-163.5 158,-144.5 0,-144.5"/>
<text text-anchor="middle" x="79" y="-151.5" font-family="Helvetica,sans-Serif" font-size="10.00">Eigen::EigenBase&lt; Derived &gt;</text>
</a>
</g>
</g>
<!-- Node10&#45;&gt;Node9 -->
<g id="edge7" class="edge"><title>Node10&#45;&gt;Node9</title>
<path fill="none" stroke="midnightblue" d="M168.46,-162.712C203.822,-166.195 243.878,-170.14 276.789,-173.381"/>
<polygon fill="midnightblue" stroke="midnightblue" points="168.432,-159.192 158.137,-161.695 167.746,-166.159 168.432,-159.192"/>
</g>
<!-- Node11 -->
<g id="node9" class="node"><title>Node11</title>
<polygon fill="none" stroke="#bfbfbf" points="279.5,-90 279.5,-120 410.5,-120 410.5,-90 279.5,-90"/>
<text text-anchor="start" x="287.5" y="-108" font-family="Helvetica,sans-Serif" font-size="10.00">EIGEN_DEFAULT_DENSE</text>
<text text-anchor="middle" x="345" y="-97" font-family="Helvetica,sans-Serif" font-size="10.00">_INDEX_TYPE</text>
</g>
<!-- Node11&#45;&gt;Node7 -->
<g id="edge9" class="edge"><title>Node11&#45;&gt;Node7</title>
<path fill="none" stroke="#9a32cd" stroke-dasharray="5,2" d="M420.859,-106.89C532.471,-109.708 740.215,-114.953 841.679,-117.515"/>
<polygon fill="#9a32cd" stroke="#9a32cd" points="420.779,-103.387 410.693,-106.633 420.602,-110.385 420.779,-103.387"/>
<text text-anchor="middle" x="629.5" y="-129" font-family="Helvetica,sans-Serif" font-size="10.00"> m_outerSize</text>
<text text-anchor="middle" x="629.5" y="-118" font-family="Helvetica,sans-Serif" font-size="10.00">m_innerSize</text>
</g>
<!-- Node13 -->
<g id="node11" class="node"><title>Node13</title>
<g id="a_node11"><a xlink:href="classEigen_1_1internal_1_1CompressedStorage.html" target="_top" xlink:title="Eigen::internal::Compressed\lStorage\&lt; Scalar, StorageIndex \&gt;">
<polygon fill="none" stroke="black" points="541,-52 541,-82 718,-82 718,-52 541,-52"/>
<text text-anchor="start" x="549" y="-70" font-family="Helvetica,sans-Serif" font-size="10.00">Eigen::internal::Compressed</text>
<text text-anchor="middle" x="629.5" y="-59" font-family="Helvetica,sans-Serif" font-size="10.00">Storage&lt; Scalar, StorageIndex &gt;</text>
</a>
</g>
</g>
<!-- Node11&#45;&gt;Node13 -->
<g id="edge12" class="edge"><title>Node11&#45;&gt;Node13</title>
<path fill="none" stroke="#9a32cd" stroke-dasharray="5,2" d="M416.758,-87.934C425.889,-86.0801 435.142,-84.372 444,-83 475.455,-78.128 510.174,-74.6314 540.928,-72.175"/>
<polygon fill="#9a32cd" stroke="#9a32cd" points="415.993,-84.5184 406.922,-89.9939 417.428,-91.3698 415.993,-84.5184"/>
<text text-anchor="middle" x="483.5" y="-97" font-family="Helvetica,sans-Serif" font-size="10.00"> m_size</text>
<text text-anchor="middle" x="483.5" y="-86" font-family="Helvetica,sans-Serif" font-size="10.00">m_allocatedSize</text>
</g>
<!-- Node12 -->
<g id="node10" class="node"><title>Node12</title>
<polygon fill="none" stroke="#bfbfbf" points="589.5,-13.5 589.5,-32.5 669.5,-32.5 669.5,-13.5 589.5,-13.5"/>
<text text-anchor="middle" x="629.5" y="-20.5" font-family="Helvetica,sans-Serif" font-size="10.00">StorageIndex</text>
</g>
<!-- Node12&#45;&gt;Node7 -->
<g id="edge10" class="edge"><title>Node12&#45;&gt;Node7</title>
<path fill="none" stroke="#9a32cd" stroke-dasharray="5,2" d="M679.908,-23.2233C720.349,-25.1159 778.152,-31.8158 824,-53 849.955,-64.9926 873.872,-88.4705 887.824,-103.946"/>
<polygon fill="#9a32cd" stroke="#9a32cd" points="679.889,-19.72 669.761,-22.832 679.619,-26.7148 679.889,-19.72"/>
<text text-anchor="middle" x="780" y="-67" font-family="Helvetica,sans-Serif" font-size="10.00"> m_outerIndex</text>
<text text-anchor="middle" x="780" y="-56" font-family="Helvetica,sans-Serif" font-size="10.00">m_innerNonZeros</text>
</g>
<!-- Node13&#45;&gt;Node7 -->
<g id="edge11" class="edge"><title>Node13&#45;&gt;Node7</title>
<path fill="none" stroke="#9a32cd" stroke-dasharray="5,2" d="M728.576,-77.2569C759.334,-81.3878 793.27,-86.8939 824,-94 835.435,-96.6443 847.602,-100.245 858.79,-103.89"/>
<polygon fill="#9a32cd" stroke="#9a32cd" points="728.645,-73.7363 718.276,-75.9084 727.737,-80.677 728.645,-73.7363"/>
<text text-anchor="middle" x="780" y="-97" font-family="Helvetica,sans-Serif" font-size="10.00"> m_data</text>
</g>
<!-- Node14 -->
<g id="node12" class="node"><title>Node14</title>
<polygon fill="none" stroke="#bfbfbf" points="300.5,-38.5 300.5,-57.5 389.5,-57.5 389.5,-38.5 300.5,-38.5"/>
<text text-anchor="middle" x="345" y="-45.5" font-family="Helvetica,sans-Serif" font-size="10.00">StorageIndex *</text>
</g>
<!-- Node14&#45;&gt;Node13 -->
<g id="edge13" class="edge"><title>Node14&#45;&gt;Node13</title>
<path fill="none" stroke="#9a32cd" stroke-dasharray="5,2" d="M399.782,-46.0295C434.917,-45.3023 481.764,-45.3901 523,-49 531.422,-49.7373 540.183,-50.7811 548.896,-51.9992"/>
<polygon fill="#9a32cd" stroke="#9a32cd" points="399.651,-42.5315 389.736,-46.2661 399.815,-49.5296 399.651,-42.5315"/>
<text text-anchor="middle" x="483.5" y="-52" font-family="Helvetica,sans-Serif" font-size="10.00"> m_indices</text>
</g>
<!-- Node15 -->
<g id="node13" class="node"><title>Node15</title>
<polygon fill="none" stroke="#bfbfbf" points="317.5,-0.5 317.5,-19.5 372.5,-19.5 372.5,-0.5 317.5,-0.5"/>
<text text-anchor="middle" x="345" y="-7.5" font-family="Helvetica,sans-Serif" font-size="10.00">Scalar *</text>
</g>
<!-- Node15&#45;&gt;Node13 -->
<g id="edge14" class="edge"><title>Node15&#45;&gt;Node13</title>
<path fill="none" stroke="#9a32cd" stroke-dasharray="5,2" d="M382.762,-9.82199C419.288,-10.6852 476.425,-14.8739 523,-31 531.86,-34.0675 532.414,-38.2334 541,-42 549.391,-45.6813 558.472,-48.9778 567.498,-51.8749"/>
<polygon fill="#9a32cd" stroke="#9a32cd" points="382.633,-6.31952 372.577,-9.65531 382.519,-13.3186 382.633,-6.31952"/>
<text text-anchor="middle" x="483.5" y="-34" font-family="Helvetica,sans-Serif" font-size="10.00"> m_values</text>
</g>
</g>
</svg>
