<?xml version="1.0" encoding="UTF-8" standalone="no"?>
<!DOCTYPE svg PUBLIC "-//W3C//DTD SVG 1.1//EN"
 "http://www.w3.org/Graphics/SVG/1.1/DTD/svg11.dtd">
<!-- Generated by graphviz version 2.38.0 (20140413.2041)
 -->
<!-- Title: Eigen::AlignedBox::setEmpty Pages: 1 -->
<!--zoomable 176 -->
<svg id="main" version="1.1" xmlns="http://www.w3.org/2000/svg" xmlns:xlink="http://www.w3.org/1999/xlink" xml:space="preserve" onload="init(evt)">
<style type="text/css"><![CDATA[
.edge:hover path { stroke: red; }
.edge:hover polygon { stroke: red; fill: red; }
]]></style>
<script type="text/javascript"><![CDATA[
var edges = document.getElementsByTagName('g');
if (edges && edges.length) {
  for (var i=0;i<edges.length;i++) {
    if (edges[i].id.substr(0,4)=='edge') {
      edges[i].setAttribute('class','edge');
    }
  }
}
]]></script>
        <defs>
                <circle id="rim" cx="0" cy="0" r="7"/>
                <circle id="rim2" cx="0" cy="0" r="3.5"/>
                <g id="zoomPlus">
                        <use xlink:href="#rim" fill="#404040">
                                <set attributeName="fill" to="#808080" begin="zoomplus.mouseover" end="zoomplus.mouseout"/>
                        </use>
                        <path d="M-4,0h8M0,-4v8" fill="none" stroke="white" stroke-width="1.5" pointer-events="none"/>
                </g>
                <g id="zoomMin">
                        <use xlink:href="#rim" fill="#404040">
                                <set attributeName="fill" to="#808080" begin="zoomminus.mouseover" end="zoomminus.mouseout"/>
                        </use>
                        <path d="M-4,0h8" fill="none" stroke="white" stroke-width="1.5" pointer-events="none"/>
                </g>
                <g id="dirArrow">
                        <path fill="none" stroke="white" stroke-width="1.5" d="M0,-3.0v7 M-2.5,-0.5L0,-3.0L2.5,-0.5"/>
                </g>
               <g id="resetDef">
                       <use xlink:href="#rim2" fill="#404040">
                               <set attributeName="fill" to="#808080" begin="reset.mouseover" end="reset.mouseout"/>
                       </use>
               </g>
        </defs>

<script type="text/javascript">
var viewWidth = 588;
var viewHeight = 176;
var sectionId = 'dynsection-21';
</script>
<script xlink:href="svgpan.js"/>
<svg id="graph" class="graph">
<g id="viewport">
<title>Eigen::AlignedBox::setEmpty</title>
<!-- Node117 -->
<g id="node1" class="node"><title>Node117</title>
<polygon fill="#bfbfbf" stroke="black" points="0,-48.5 0,-78.5 108,-78.5 108,-48.5 0,-48.5"/>
<text text-anchor="start" x="8" y="-66.5" font-family="Helvetica,sans-Serif" font-size="10.00">Eigen::AlignedBox::</text>
<text text-anchor="middle" x="54" y="-55.5" font-family="Helvetica,sans-Serif" font-size="10.00">setEmpty</text>
</g>
<!-- Node118 -->
<g id="node2" class="node"><title>Node118</title>
<g id="a_node2"><a xlink:href="classEigen_1_1AlignedBox.html#aeb7682d3d8676752e9b789b51d950872" target="_top" xlink:title="Eigen::AlignedBox::\lAlignedBox">
<polygon fill="none" stroke="black" points="144,-73.5 144,-103.5 252,-103.5 252,-73.5 144,-73.5"/>
<text text-anchor="start" x="152" y="-91.5" font-family="Helvetica,sans-Serif" font-size="10.00">Eigen::AlignedBox::</text>
<text text-anchor="middle" x="198" y="-80.5" font-family="Helvetica,sans-Serif" font-size="10.00">AlignedBox</text>
</a>
</g>
</g>
<!-- Node117&#45;&gt;Node118 -->
<g id="edge1" class="edge"><title>Node117&#45;&gt;Node118</title>
<path fill="none" stroke="midnightblue" d="M118.238,-74.6334C126.806,-76.142 135.528,-77.6774 143.894,-79.1504"/>
<polygon fill="midnightblue" stroke="midnightblue" points="118.735,-71.1672 108.28,-72.8802 117.521,-78.0612 118.735,-71.1672"/>
</g>
<!-- Node124 -->
<g id="node8" class="node"><title>Node124</title>
<g id="a_node8"><a xlink:href="classEigen_1_1AlignedBox.html#a1e0e312d7bd3468d7e15edb4f139fd13" target="_top" xlink:title="Eigen::AlignedBox::\lsetNull">
<polygon fill="none" stroke="black" points="144,-24.5 144,-54.5 252,-54.5 252,-24.5 144,-24.5"/>
<text text-anchor="start" x="152" y="-42.5" font-family="Helvetica,sans-Serif" font-size="10.00">Eigen::AlignedBox::</text>
<text text-anchor="middle" x="198" y="-31.5" font-family="Helvetica,sans-Serif" font-size="10.00">setNull</text>
</a>
</g>
</g>
<!-- Node117&#45;&gt;Node124 -->
<g id="edge7" class="edge"><title>Node117&#45;&gt;Node124</title>
<path fill="none" stroke="midnightblue" d="M118.238,-52.8119C126.806,-51.3637 135.528,-49.8897 143.894,-48.4756"/>
<polygon fill="midnightblue" stroke="midnightblue" points="117.556,-49.3774 108.28,-54.495 118.723,-56.2795 117.556,-49.3774"/>
</g>
<!-- Node119 -->
<g id="node3" class="node"><title>Node119</title>
<g id="a_node3"><a xlink:href="classEigen_1_1AlignedBox.html#a269eb719d3e093d9c1cb4309b815c51b" target="_top" xlink:title="Eigen::AlignedBox::cast">
<polygon fill="none" stroke="black" points="288,-148 288,-167 416,-167 416,-148 288,-148"/>
<text text-anchor="middle" x="352" y="-155" font-family="Helvetica,sans-Serif" font-size="10.00">Eigen::AlignedBox::cast</text>
</a>
</g>
</g>
<!-- Node118&#45;&gt;Node119 -->
<g id="edge2" class="edge"><title>Node118&#45;&gt;Node119</title>
<path fill="none" stroke="midnightblue" d="M231.176,-108.835C247.717,-118.701 268.462,-130.184 288,-138.5 296.409,-142.079 305.715,-145.277 314.536,-147.982"/>
<polygon fill="midnightblue" stroke="midnightblue" points="232.819,-105.739 222.452,-103.552 229.192,-111.726 232.819,-105.739"/>
</g>
<!-- Node120 -->
<g id="node4" class="node"><title>Node120</title>
<g id="a_node4"><a xlink:href="classEigen_1_1AlignedBox.html#adf8c0e000b283ad22f00474356916686" target="_top" xlink:title="Eigen::AlignedBox::\lexteriorDistance">
<polygon fill="none" stroke="black" points="298,-98.5 298,-128.5 406,-128.5 406,-98.5 298,-98.5"/>
<text text-anchor="start" x="306" y="-116.5" font-family="Helvetica,sans-Serif" font-size="10.00">Eigen::AlignedBox::</text>
<text text-anchor="middle" x="352" y="-105.5" font-family="Helvetica,sans-Serif" font-size="10.00">exteriorDistance</text>
</a>
</g>
</g>
<!-- Node118&#45;&gt;Node120 -->
<g id="edge3" class="edge"><title>Node118&#45;&gt;Node120</title>
<path fill="none" stroke="midnightblue" d="M262.038,-98.8681C273.949,-100.827 286.298,-102.858 297.868,-104.761"/>
<polygon fill="midnightblue" stroke="midnightblue" points="262.598,-95.4132 252.162,-97.2438 261.462,-102.32 262.598,-95.4132"/>
</g>
<!-- Node121 -->
<g id="node5" class="node"><title>Node121</title>
<g id="a_node5"><a xlink:href="classEigen_1_1AlignedBox.html#ac31024e7fccb025810535eb5a673ed14" target="_top" xlink:title="Eigen::AlignedBox::\lintersection">
<polygon fill="none" stroke="black" points="298,-49.5 298,-79.5 406,-79.5 406,-49.5 298,-49.5"/>
<text text-anchor="start" x="306" y="-67.5" font-family="Helvetica,sans-Serif" font-size="10.00">Eigen::AlignedBox::</text>
<text text-anchor="middle" x="352" y="-56.5" font-family="Helvetica,sans-Serif" font-size="10.00">intersection</text>
</a>
</g>
</g>
<!-- Node118&#45;&gt;Node121 -->
<g id="edge4" class="edge"><title>Node118&#45;&gt;Node121</title>
<path fill="none" stroke="midnightblue" d="M262.396,-78.4902C274.196,-76.6269 286.414,-74.6978 297.868,-72.8893"/>
<polygon fill="midnightblue" stroke="midnightblue" points="261.494,-75.0891 252.162,-80.106 262.586,-82.0034 261.494,-75.0891"/>
</g>
<!-- Node123 -->
<g id="node7" class="node"><title>Node123</title>
<g id="a_node7"><a xlink:href="classEigen_1_1AlignedBox.html#a8182b7661c4b244285ca0f831363b00a" target="_top" xlink:title="Eigen::AlignedBox::\lmerged">
<polygon fill="none" stroke="black" points="298,-0.5 298,-30.5 406,-30.5 406,-0.5 298,-0.5"/>
<text text-anchor="start" x="306" y="-18.5" font-family="Helvetica,sans-Serif" font-size="10.00">Eigen::AlignedBox::</text>
<text text-anchor="middle" x="352" y="-7.5" font-family="Helvetica,sans-Serif" font-size="10.00">merged</text>
</a>
</g>
</g>
<!-- Node118&#45;&gt;Node123 -->
<g id="edge6" class="edge"><title>Node118&#45;&gt;Node123</title>
<path fill="none" stroke="midnightblue" d="M243.647,-68.9226C246.499,-67.4756 249.305,-65.9956 252,-64.5 268.814,-55.1696 270.969,-49.429 288,-40.5 294.774,-36.9484 302.17,-33.5887 309.435,-30.5523"/>
<polygon fill="midnightblue" stroke="midnightblue" points="241.911,-65.8754 234.463,-73.4099 244.984,-72.1649 241.911,-65.8754"/>
</g>
<!-- Node122 -->
<g id="node6" class="node"><title>Node122</title>
<g id="a_node6"><a xlink:href="structBallPointStuff.html#a272cdbc5fd934c41f1a346d4c91d531a" target="_top" xlink:title="BallPointStuff::intersect\lVolumeVolume">
<polygon fill="none" stroke="black" points="452,-49.5 452,-79.5 580,-79.5 580,-49.5 452,-49.5"/>
<text text-anchor="start" x="460" y="-67.5" font-family="Helvetica,sans-Serif" font-size="10.00">BallPointStuff::intersect</text>
<text text-anchor="middle" x="516" y="-56.5" font-family="Helvetica,sans-Serif" font-size="10.00">VolumeVolume</text>
</a>
</g>
</g>
<!-- Node121&#45;&gt;Node122 -->
<g id="edge5" class="edge"><title>Node121&#45;&gt;Node122</title>
<path fill="none" stroke="midnightblue" d="M416.206,-64.5C427.952,-64.5 440.223,-64.5 451.964,-64.5"/>
<polygon fill="midnightblue" stroke="midnightblue" points="416.045,-61.0001 406.045,-64.5 416.045,-68.0001 416.045,-61.0001"/>
</g>
</g>
</svg>
        <g id="navigator" transform="translate(0 0)" fill="#404254">
                <rect fill="#f2f5e9" fill-opacity="0.5" stroke="#606060" stroke-width=".5" x="0" y="0" width="60" height="60"/>
                <use id="zoomplus" xlink:href="#zoomPlus" x="17" y="9" onmousedown="handleZoom(evt,'in')"/>
                <use id="zoomminus" xlink:href="#zoomMin" x="42" y="9" onmousedown="handleZoom(evt,'out')"/>
                <use id="reset" xlink:href="#resetDef" x="30" y="36" onmousedown="handleReset()"/>
                <g id="arrowUp" xlink:href="#dirArrow" transform="translate(30 24)" onmousedown="handlePan(0,-1)">
                  <use xlink:href="#rim" fill="#404040">
                        <set attributeName="fill" to="#808080" begin="arrowUp.mouseover" end="arrowUp.mouseout"/>
                  </use>
                  <path fill="none" stroke="white" stroke-width="1.5" d="M0,-3.0v7 M-2.5,-0.5L0,-3.0L2.5,-0.5"/>
                </g>
                <g id="arrowRight" xlink:href="#dirArrow" transform="rotate(90) translate(36 -43)" onmousedown="handlePan(1,0)">
                  <use xlink:href="#rim" fill="#404040">
                        <set attributeName="fill" to="#808080" begin="arrowRight.mouseover" end="arrowRight.mouseout"/>
                  </use>
                  <path fill="none" stroke="white" stroke-width="1.5" d="M0,-3.0v7 M-2.5,-0.5L0,-3.0L2.5,-0.5"/>
                </g>
                <g id="arrowDown" xlink:href="#dirArrow" transform="rotate(180) translate(-30 -48)" onmousedown="handlePan(0,1)">
                  <use xlink:href="#rim" fill="#404040">
                        <set attributeName="fill" to="#808080" begin="arrowDown.mouseover" end="arrowDown.mouseout"/>
                  </use>
                  <path fill="none" stroke="white" stroke-width="1.5" d="M0,-3.0v7 M-2.5,-0.5L0,-3.0L2.5,-0.5"/>
                </g>
                <g id="arrowLeft" xlink:href="#dirArrow" transform="rotate(270) translate(-36 17)" onmousedown="handlePan(-1,0)">
                  <use xlink:href="#rim" fill="#404040">
                        <set attributeName="fill" to="#808080" begin="arrowLeft.mouseover" end="arrowLeft.mouseout"/>
                  </use>
                  <path fill="none" stroke="white" stroke-width="1.5" d="M0,-3.0v7 M-2.5,-0.5L0,-3.0L2.5,-0.5"/>
                </g>
        </g>
        <svg viewBox="0 0 15 15" width="100%" height="30px" preserveAspectRatio="xMaxYMin meet">
         <g id="arrow_out" transform="scale(0.3 0.3)">
          <a xlink:href="classEigen_1_1AlignedBox_ae946a0964de83d4e688fa462fe6d6725_icgraph_org.svg" target="_base">
           <rect id="button" ry="5" rx="5" y="6" x="6" height="38" width="38"
                fill="#f2f5e9" fill-opacity="0.5" stroke="#606060" stroke-width="1.0"/>
           <path id="arrow"
             d="M 11.500037,31.436501 C 11.940474,20.09759 22.043105,11.32322 32.158766,21.979434 L 37.068811,17.246167 C 37.068811,17.246167 37.088388,32 37.088388,32 L 22.160133,31.978069 C 22.160133,31.978069 26.997745,27.140456 26.997745,27.140456 C 18.528582,18.264221 13.291696,25.230495 11.500037,31.436501 z"
             style="fill:#404040;"/>
          </a>
         </g>
        </svg>
</svg>
