<?xml version="1.0" encoding="UTF-8" standalone="no"?>
<!DOCTYPE svg PUBLIC "-//W3C//DTD SVG 1.1//EN"
 "http://www.w3.org/Graphics/SVG/1.1/DTD/svg11.dtd">
<!-- Generated by graphviz version 2.38.0 (20140413.2041)
 -->
<!-- Title: Eigen::MatrixPowerAtomic::compute Pages: 1 -->
<svg width="496pt" height="192pt"
 viewBox="0.00 0.00 496.00 192.00" xmlns="http://www.w3.org/2000/svg" xmlns:xlink="http://www.w3.org/1999/xlink">
<g id="graph0" class="graph" transform="scale(1 1) rotate(0) translate(4 188)">
<title>Eigen::MatrixPowerAtomic::compute</title>
<!-- Node2 -->
<g id="node1" class="node"><title>Node2</title>
<polygon fill="#bfbfbf" stroke="black" points="0,-83 0,-113 140,-113 140,-83 0,-83"/>
<text text-anchor="start" x="8" y="-101" font-family="Helvetica,sans-Serif" font-size="10.00">Eigen::MatrixPowerAtomic</text>
<text text-anchor="middle" x="70" y="-90" font-family="Helvetica,sans-Serif" font-size="10.00">::compute</text>
</g>
<!-- Node3 -->
<g id="node2" class="node"><title>Node3</title>
<g id="a_node2"><a xlink:href="ArrayCwiseUnaryOps_8h.html#a35560f7dbf19244fda7e463d14157c43" target="_top" xlink:title="abs">
<polygon fill="none" stroke="black" points="217,-164.5 217,-183.5 251,-183.5 251,-164.5 217,-164.5"/>
<text text-anchor="middle" x="234" y="-171.5" font-family="Helvetica,sans-Serif" font-size="10.00">abs</text>
</a>
</g>
</g>
<!-- Node2&#45;&gt;Node3 -->
<g id="edge1" class="edge"><title>Node2&#45;&gt;Node3</title>
<path fill="none" stroke="midnightblue" d="M95.8381,-113.1C116.732,-125.403 147.65,-142.694 176,-155 185.942,-159.316 197.204,-163.258 207.076,-166.42"/>
<polygon fill="midnightblue" stroke="midnightblue" points="206.16,-169.8 216.747,-169.414 208.23,-163.113 206.16,-169.8"/>
</g>
<!-- Node4 -->
<g id="node3" class="node"><title>Node4</title>
<g id="a_node3"><a xlink:href="sparse__permutations_8cpp.html#ad87822100feba90851ac71ba08fce30b" target="_top" xlink:title="eval">
<polygon fill="none" stroke="black" points="216,-126.5 216,-145.5 252,-145.5 252,-126.5 216,-126.5"/>
<text text-anchor="middle" x="234" y="-133.5" font-family="Helvetica,sans-Serif" font-size="10.00">eval</text>
</a>
</g>
</g>
<!-- Node2&#45;&gt;Node4 -->
<g id="edge2" class="edge"><title>Node2&#45;&gt;Node4</title>
<path fill="none" stroke="midnightblue" d="M135.027,-113.019C159.652,-118.795 186.469,-125.085 205.81,-129.622"/>
<polygon fill="midnightblue" stroke="midnightblue" points="205.19,-133.072 215.726,-131.948 206.789,-126.257 205.19,-133.072"/>
</g>
<!-- Node5 -->
<g id="node4" class="node"><title>Node5</title>
<g id="a_node4"><a xlink:href="namespacempfr.html#a0183f8cadde6442a5dfb40140409a5e0" target="_top" xlink:title="mpfr::ldexp">
<polygon fill="none" stroke="black" points="198.5,-88.5 198.5,-107.5 269.5,-107.5 269.5,-88.5 198.5,-88.5"/>
<text text-anchor="middle" x="234" y="-95.5" font-family="Helvetica,sans-Serif" font-size="10.00">mpfr::ldexp</text>
</a>
</g>
</g>
<!-- Node2&#45;&gt;Node5 -->
<g id="edge3" class="edge"><title>Node2&#45;&gt;Node5</title>
<path fill="none" stroke="midnightblue" d="M140.172,-98C156.366,-98 173.203,-98 188.021,-98"/>
<polygon fill="midnightblue" stroke="midnightblue" points="188.416,-101.5 198.416,-98 188.416,-94.5001 188.416,-101.5"/>
</g>
<!-- Node9 -->
<g id="node8" class="node"><title>Node9</title>
<g id="a_node8"><a xlink:href="namespaceEigen.html#ae51c91f920f6ea4a7f6f72caa1e8249f" target="_top" xlink:title="Compute matrix square root of triangular matrix. ">
<polygon fill="none" stroke="black" points="182,-39 182,-69 286,-69 286,-39 182,-39"/>
<text text-anchor="start" x="190" y="-57" font-family="Helvetica,sans-Serif" font-size="10.00">Eigen::matrix_sqrt</text>
<text text-anchor="middle" x="234" y="-46" font-family="Helvetica,sans-Serif" font-size="10.00">_triangular</text>
</a>
</g>
</g>
<!-- Node2&#45;&gt;Node9 -->
<g id="edge7" class="edge"><title>Node2&#45;&gt;Node9</title>
<path fill="none" stroke="midnightblue" d="M126.298,-82.9808C141.035,-78.978 157.039,-74.6314 172.06,-70.5515"/>
<polygon fill="midnightblue" stroke="midnightblue" points="173.034,-73.9141 181.767,-67.9153 171.199,-67.1588 173.034,-73.9141"/>
</g>
<!-- Node11 -->
<g id="node10" class="node"><title>Node11</title>
<g id="a_node10"><a xlink:href="namespaceEigen_1_1half__impl.html#a829ad00a9c93131d5a8342b4ee29d83d" target="_top" xlink:title="Eigen::half_impl::pow">
<polygon fill="none" stroke="black" points="176,-0.5 176,-19.5 292,-19.5 292,-0.5 176,-0.5"/>
<text text-anchor="middle" x="234" y="-7.5" font-family="Helvetica,sans-Serif" font-size="10.00">Eigen::half_impl::pow</text>
</a>
</g>
</g>
<!-- Node2&#45;&gt;Node11 -->
<g id="edge9" class="edge"><title>Node2&#45;&gt;Node11</title>
<path fill="none" stroke="midnightblue" d="M90.5927,-82.8774C111.018,-67.6651 144.401,-44.3249 176,-29 180.402,-26.8649 185.105,-24.8743 189.85,-23.047"/>
<polygon fill="midnightblue" stroke="midnightblue" points="191.355,-26.2248 199.568,-19.5315 188.973,-19.6423 191.355,-26.2248"/>
</g>
<!-- Node6 -->
<g id="node5" class="node"><title>Node6</title>
<g id="a_node5"><a xlink:href="classmpfr_1_1mpreal.html#af4e3b56888463376c675cac70b6ceca3" target="_top" xlink:title="mpfr::mpreal::mpfr_ptr">
<polygon fill="none" stroke="black" points="345,-151.5 345,-170.5 471,-170.5 471,-151.5 345,-151.5"/>
<text text-anchor="middle" x="408" y="-158.5" font-family="Helvetica,sans-Serif" font-size="10.00">mpfr::mpreal::mpfr_ptr</text>
</a>
</g>
</g>
<!-- Node5&#45;&gt;Node6 -->
<g id="edge4" class="edge"><title>Node5&#45;&gt;Node6</title>
<path fill="none" stroke="midnightblue" d="M269.099,-107.601C276.8,-110.251 284.819,-113.403 292,-117 309.417,-125.724 310.225,-134.03 328,-142 333.442,-144.44 339.242,-146.593 345.132,-148.486"/>
<polygon fill="midnightblue" stroke="midnightblue" points="344.502,-151.949 355.084,-151.432 346.489,-145.237 344.502,-151.949"/>
</g>
<!-- Node7 -->
<g id="node6" class="node"><title>Node7</title>
<g id="a_node6"><a xlink:href="classmpfr_1_1mpreal.html#a566f64ca066c54923d19c11d6c3d15cd" target="_top" xlink:title="mpfr::mpreal::mpfr\l_srcptr">
<polygon fill="none" stroke="black" points="354.5,-102 354.5,-132 461.5,-132 461.5,-102 354.5,-102"/>
<text text-anchor="start" x="362.5" y="-120" font-family="Helvetica,sans-Serif" font-size="10.00">mpfr::mpreal::mpfr</text>
<text text-anchor="middle" x="408" y="-109" font-family="Helvetica,sans-Serif" font-size="10.00">_srcptr</text>
</a>
</g>
</g>
<!-- Node5&#45;&gt;Node7 -->
<g id="edge5" class="edge"><title>Node5&#45;&gt;Node7</title>
<path fill="none" stroke="midnightblue" d="M269.807,-101.845C291.117,-104.199 319.02,-107.281 344.095,-110.051"/>
<polygon fill="midnightblue" stroke="midnightblue" points="343.949,-113.556 354.273,-111.176 344.718,-106.599 343.949,-113.556"/>
</g>
<!-- Node8 -->
<g id="node7" class="node"><title>Node8</title>
<g id="a_node7"><a xlink:href="classmpfr_1_1mpreal.html#ae0bdf9ca1838bd5851ac1c7c6b360553" target="_top" xlink:title="mpfr::mpreal::get_default_rnd">
<polygon fill="none" stroke="black" points="328,-63.5 328,-82.5 488,-82.5 488,-63.5 328,-63.5"/>
<text text-anchor="middle" x="408" y="-70.5" font-family="Helvetica,sans-Serif" font-size="10.00">mpfr::mpreal::get_default_rnd</text>
</a>
</g>
</g>
<!-- Node5&#45;&gt;Node8 -->
<g id="edge6" class="edge"><title>Node5&#45;&gt;Node8</title>
<path fill="none" stroke="midnightblue" d="M269.807,-92.9409C287.602,-90.3543 309.996,-87.0994 331.501,-83.9737"/>
<polygon fill="midnightblue" stroke="midnightblue" points="332.237,-87.4036 341.629,-82.5016 331.23,-80.4764 332.237,-87.4036"/>
</g>
<!-- Node10 -->
<g id="node9" class="node"><title>Node10</title>
<g id="a_node9"><a xlink:href="ArrayCwiseUnaryOps_8h.html#a656b9217a2fcb6de59dc8d1eb3079cc7" target="_top" xlink:title="sqrt">
<polygon fill="none" stroke="black" points="390.5,-25.5 390.5,-44.5 425.5,-44.5 425.5,-25.5 390.5,-25.5"/>
<text text-anchor="middle" x="408" y="-32.5" font-family="Helvetica,sans-Serif" font-size="10.00">sqrt</text>
</a>
</g>
</g>
<!-- Node9&#45;&gt;Node10 -->
<g id="edge8" class="edge"><title>Node9&#45;&gt;Node10</title>
<path fill="none" stroke="midnightblue" d="M286.14,-48.3508C317.021,-44.9395 355.121,-40.7308 380.19,-37.9616"/>
<polygon fill="midnightblue" stroke="midnightblue" points="380.842,-41.411 390.397,-36.8341 380.073,-34.4533 380.842,-41.411"/>
</g>
</g>
</svg>
