<?xml version="1.0" encoding="UTF-8" standalone="no"?>
<!DOCTYPE svg PUBLIC "-//W3C//DTD SVG 1.1//EN"
 "http://www.w3.org/Graphics/SVG/1.1/DTD/svg11.dtd">
<!-- Generated by graphviz version 2.38.0 (20140413.2041)
 -->
<!-- Title: SystemOne Pages: 1 -->
<svg width="567pt" height="374pt"
 viewBox="0.00 0.00 567.00 373.88" xmlns="http://www.w3.org/2000/svg" xmlns:xlink="http://www.w3.org/1999/xlink">
<g id="graph0" class="graph" transform="scale(1 1) rotate(0) translate(4 369.884)">
<title>SystemOne</title>
<!-- Node2 -->
<g id="node1" class="node"><title>Node2</title>
<polygon fill="#bfbfbf" stroke="black" points="486,-204.384 486,-223.384 559,-223.384 559,-204.384 486,-204.384"/>
<text text-anchor="middle" x="522.5" y="-211.384" font-family="Helvetica,sans-Serif" font-size="10.00">SystemOne</text>
</g>
<!-- Node3 -->
<g id="node2" class="node"><title>Node3</title>
<g id="a_node2"><a xlink:href="classSystemBase.html" target="_top" xlink:title="SystemBase\&lt; StateOne \&gt;">
<polygon fill="none" stroke="black" points="303,-204.384 303,-223.384 449,-223.384 449,-204.384 303,-204.384"/>
<text text-anchor="middle" x="376" y="-211.384" font-family="Helvetica,sans-Serif" font-size="10.00">SystemBase&lt; StateOne &gt;</text>
</a>
</g>
</g>
<!-- Node3&#45;&gt;Node2 -->
<g id="edge1" class="edge"><title>Node3&#45;&gt;Node2</title>
<path fill="none" stroke="midnightblue" d="M459.341,-213.884C468.586,-213.884 477.607,-213.884 485.781,-213.884"/>
<polygon fill="midnightblue" stroke="midnightblue" points="459.25,-210.384 449.25,-213.884 459.25,-217.384 459.25,-210.384"/>
</g>
<!-- Node4 -->
<g id="node3" class="node"><title>Node4</title>
<polygon fill="none" stroke="#bfbfbf" points="32.5,-329.384 32.5,-348.384 107.5,-348.384 107.5,-329.384 32.5,-329.384"/>
<text text-anchor="middle" x="70" y="-336.384" font-family="Helvetica,sans-Serif" font-size="10.00">set&lt; float &gt;</text>
</g>
<!-- Node4&#45;&gt;Node3 -->
<g id="edge2" class="edge"><title>Node4&#45;&gt;Node3</title>
<path fill="none" stroke="#9a32cd" stroke-dasharray="5,2" d="M117.877,-343.596C163.201,-346.034 232.532,-344.037 285,-316.884 326.969,-295.165 358.073,-244.973 369.843,-223.699"/>
<polygon fill="#9a32cd" stroke="#9a32cd" points="117.943,-340.093 107.742,-342.955 117.501,-347.079 117.943,-340.093"/>
<text text-anchor="middle" x="221.5" y="-357.884" font-family="Helvetica,sans-Serif" font-size="10.00"> range_j</text>
<text text-anchor="middle" x="221.5" y="-346.884" font-family="Helvetica,sans-Serif" font-size="10.00">range_m</text>
</g>
<!-- Node5 -->
<g id="node4" class="node"><title>Node5</title>
<g id="a_node4"><a xlink:href="classdouble.html" target="_top" xlink:title="double">
<polygon fill="none" stroke="black" points="45.5,-286.384 45.5,-305.384 94.5,-305.384 94.5,-286.384 45.5,-286.384"/>
<text text-anchor="middle" x="70" y="-293.384" font-family="Helvetica,sans-Serif" font-size="10.00">double</text>
</a>
</g>
</g>
<!-- Node5&#45;&gt;Node3 -->
<g id="edge3" class="edge"><title>Node5&#45;&gt;Node3</title>
<path fill="none" stroke="#9a32cd" stroke-dasharray="5,2" d="M105.026,-295.394C148.065,-293.853 223.927,-288.039 285,-266.884 314.814,-256.557 345.677,-235.784 362.39,-223.535"/>
<polygon fill="#9a32cd" stroke="#9a32cd" points="104.711,-291.902 94.8205,-295.701 104.921,-298.899 104.711,-291.902"/>
<text text-anchor="middle" x="221.5" y="-304.884" font-family="Helvetica,sans-Serif" font-size="10.00"> energy_max</text>
<text text-anchor="middle" x="221.5" y="-293.884" font-family="Helvetica,sans-Serif" font-size="10.00">energy_min</text>
</g>
<!-- Node6 -->
<g id="node5" class="node"><title>Node6</title>
<polygon fill="none" stroke="#bfbfbf" points="51,-248.384 51,-267.384 89,-267.384 89,-248.384 51,-248.384"/>
<text text-anchor="middle" x="70" y="-255.384" font-family="Helvetica,sans-Serif" font-size="10.00">path</text>
</g>
<!-- Node6&#45;&gt;Node3 -->
<g id="edge4" class="edge"><title>Node6&#45;&gt;Node3</title>
<path fill="none" stroke="#9a32cd" stroke-dasharray="5,2" d="M99.2535,-256.486C140.377,-254.14 219.016,-248.483 285,-236.884 304.378,-233.478 325.726,-228.095 342.766,-223.392"/>
<polygon fill="#9a32cd" stroke="#9a32cd" points="98.9574,-252.997 89.1633,-257.037 99.3394,-259.986 98.9574,-252.997"/>
<text text-anchor="middle" x="221.5" y="-254.884" font-family="Helvetica,sans-Serif" font-size="10.00"> cachedir</text>
</g>
<!-- Node7 -->
<g id="node6" class="node"><title>Node7</title>
<polygon fill="none" stroke="#bfbfbf" points="37,-206.384 37,-225.384 103,-225.384 103,-206.384 37,-206.384"/>
<text text-anchor="middle" x="70" y="-213.384" font-family="Helvetica,sans-Serif" font-size="10.00">set&lt; int &gt;</text>
</g>
<!-- Node7&#45;&gt;Node3 -->
<g id="edge5" class="edge"><title>Node7&#45;&gt;Node3</title>
<path fill="none" stroke="#9a32cd" stroke-dasharray="5,2" d="M113.231,-215.34C127.454,-215.173 143.415,-215.002 158,-214.884 206.221,-214.496 260.471,-214.246 302.666,-214.093"/>
<polygon fill="#9a32cd" stroke="#9a32cd" points="113.183,-211.841 103.226,-215.461 113.268,-218.84 113.183,-211.841"/>
<text text-anchor="middle" x="221.5" y="-228.884" font-family="Helvetica,sans-Serif" font-size="10.00"> range_l</text>
<text text-anchor="middle" x="221.5" y="-217.884" font-family="Helvetica,sans-Serif" font-size="10.00">range_n</text>
</g>
<!-- Node8 -->
<g id="node7" class="node"><title>Node8</title>
<g id="a_node7"><a xlink:href="structstates__set.html" target="_top" xlink:title="states_set\&lt; StateOne \&gt;">
<polygon fill="none" stroke="black" points="2.5,-168.384 2.5,-187.384 137.5,-187.384 137.5,-168.384 2.5,-168.384"/>
<text text-anchor="middle" x="70" y="-175.384" font-family="Helvetica,sans-Serif" font-size="10.00">states_set&lt; StateOne &gt;</text>
</a>
</g>
</g>
<!-- Node8&#45;&gt;Node3 -->
<g id="edge6" class="edge"><title>Node8&#45;&gt;Node3</title>
<path fill="none" stroke="#9a32cd" stroke-dasharray="5,2" d="M147.796,-184.16C188.624,-187.814 239.623,-192.883 285,-198.884 296.778,-200.442 309.379,-202.374 321.311,-204.328"/>
<polygon fill="#9a32cd" stroke="#9a32cd" points="147.915,-180.656 137.645,-183.261 147.298,-187.629 147.915,-180.656"/>
<text text-anchor="middle" x="221.5" y="-201.884" font-family="Helvetica,sans-Serif" font-size="10.00"> states</text>
</g>
<!-- Node9 -->
<g id="node8" class="node"><title>Node9</title>
<g id="a_node8"><a xlink:href="classbool.html" target="_top" xlink:title="bool">
<polygon fill="none" stroke="black" points="51.5,-92.3843 51.5,-111.384 88.5,-111.384 88.5,-92.3843 51.5,-92.3843"/>
<text text-anchor="middle" x="70" y="-99.3843" font-family="Helvetica,sans-Serif" font-size="10.00">bool</text>
</a>
</g>
</g>
<!-- Node9&#45;&gt;Node3 -->
<g id="edge7" class="edge"><title>Node9&#45;&gt;Node3</title>
<path fill="none" stroke="#9a32cd" stroke-dasharray="5,2" d="M98.7949,-99.4372C141.166,-96.8952 223.475,-96.6996 285,-125.884 323.304,-144.054 355.239,-185.222 368.46,-204.097"/>
<polygon fill="#9a32cd" stroke="#9a32cd" points="98.4125,-95.9551 88.6777,-100.136 98.8953,-102.938 98.4125,-95.9551"/>
<text text-anchor="start" x="158" y="-172.884" font-family="Helvetica,sans-Serif" font-size="10.00"> is_new_hamiltonianmatrix</text>
<text text-anchor="middle" x="221.5" y="-161.884" font-family="Helvetica,sans-Serif" font-size="10.00">_required</text>
<text text-anchor="middle" x="221.5" y="-150.884" font-family="Helvetica,sans-Serif" font-size="10.00">memory_saving</text>
<text text-anchor="start" x="158" y="-139.884" font-family="Helvetica,sans-Serif" font-size="10.00">is_interaction_already</text>
<text text-anchor="middle" x="221.5" y="-128.884" font-family="Helvetica,sans-Serif" font-size="10.00">_contained</text>
</g>
<!-- Node10 -->
<g id="node9" class="node"><title>Node10</title>
<polygon fill="none" stroke="#bfbfbf" points="0,-3.38433 0,-22.3843 140,-22.3843 140,-3.38433 0,-3.38433"/>
<text text-anchor="middle" x="70" y="-10.3843" font-family="Helvetica,sans-Serif" font-size="10.00">SparseMatrix&lt; scalar_t &gt;</text>
</g>
<!-- Node10&#45;&gt;Node3 -->
<g id="edge8" class="edge"><title>Node10&#45;&gt;Node3</title>
<path fill="none" stroke="#9a32cd" stroke-dasharray="5,2" d="M131.569,-2.19156C177.557,2.55871 240.292,1.4611 285,-28.8843 348.242,-71.8103 368.643,-172.246 373.634,-204.046"/>
<polygon fill="#9a32cd" stroke="#9a32cd" points="130.971,1.26272 121.437,-3.35958 131.772,-5.69122 130.971,1.26272"/>
<text text-anchor="middle" x="221.5" y="-86.8843" font-family="Helvetica,sans-Serif" font-size="10.00"> coefficients</text>
<text text-anchor="start" x="162" y="-75.8843" font-family="Helvetica,sans-Serif" font-size="10.00">coefficients_unperturbed</text>
<text text-anchor="middle" x="221.5" y="-64.8843" font-family="Helvetica,sans-Serif" font-size="10.00">_cache</text>
<text text-anchor="middle" x="221.5" y="-53.8843" font-family="Helvetica,sans-Serif" font-size="10.00">hamiltonianmatrix</text>
<text text-anchor="start" x="162" y="-42.8843" font-family="Helvetica,sans-Serif" font-size="10.00">hamiltonianmatrix</text>
<text text-anchor="middle" x="221.5" y="-31.8843" font-family="Helvetica,sans-Serif" font-size="10.00">_unperturbed_cache</text>
</g>
</g>
</svg>
