<?xml version="1.0" encoding="UTF-8" standalone="no"?>
<!DOCTYPE svg PUBLIC "-//W3C//DTD SVG 1.1//EN"
 "http://www.w3.org/Graphics/SVG/1.1/DTD/svg11.dtd">
<!-- Generated by graphviz version 2.38.0 (20140413.2041)
 -->
<!-- Title: mpfr::mpreal::operator&lt;&lt;= Pages: 1 -->
<svg width="1058pt" height="657pt"
 viewBox="0.00 0.00 1058.00 656.50" xmlns="http://www.w3.org/2000/svg" xmlns:xlink="http://www.w3.org/1999/xlink">
<g id="graph0" class="graph" transform="scale(1 1) rotate(0) translate(4 652.5)">
<title>mpfr::mpreal::operator&lt;&lt;=</title>
<!-- Node2810 -->
<g id="node1" class="node"><title>Node2810</title>
<polygon fill="#bfbfbf" stroke="black" points="0,-266.5 0,-285.5 151,-285.5 151,-266.5 0,-266.5"/>
<text text-anchor="middle" x="75.5" y="-273.5" font-family="Helvetica,sans-Serif" font-size="10.00">mpfr::mpreal::operator&lt;&lt;=</text>
</g>
<!-- Node2811 -->
<g id="node2" class="node"><title>Node2811</title>
<g id="a_node2"><a xlink:href="classmpfr_1_1mpreal.html#aae18e3b781bffbf4fd9938d4d3043aa1" target="_top" xlink:title="mpfr::mpreal::get_default_prec">
<polygon fill="none" stroke="black" points="187,-266.5 187,-285.5 352,-285.5 352,-266.5 187,-266.5"/>
<text text-anchor="middle" x="269.5" y="-273.5" font-family="Helvetica,sans-Serif" font-size="10.00">mpfr::mpreal::get_default_prec</text>
</a>
</g>
</g>
<!-- Node2810&#45;&gt;Node2811 -->
<g id="edge1" class="edge"><title>Node2810&#45;&gt;Node2811</title>
<path fill="none" stroke="midnightblue" d="M161.248,-276C169.707,-276 178.284,-276 186.711,-276"/>
<polygon fill="midnightblue" stroke="midnightblue" points="161.007,-272.5 151.007,-276 161.007,-279.5 161.007,-272.5"/>
</g>
<!-- Node2812 -->
<g id="node3" class="node"><title>Node2812</title>
<g id="a_node3"><a xlink:href="classstd_1_1numeric__limits_3_01mpfr_1_1mpreal_01_4.html#a3934cff230bb0e9121edf616b6d0627d" target="_top" xlink:title="std::numeric_limits\l\&lt; mpfr::mpreal \&gt;::digits">
<polygon fill="none" stroke="black" points="388,-618 388,-648 521,-648 521,-618 388,-618"/>
<text text-anchor="start" x="396" y="-636" font-family="Helvetica,sans-Serif" font-size="10.00">std::numeric_limits</text>
<text text-anchor="middle" x="454.5" y="-625" font-family="Helvetica,sans-Serif" font-size="10.00">&lt; mpfr::mpreal &gt;::digits</text>
</a>
</g>
</g>
<!-- Node2811&#45;&gt;Node2812 -->
<g id="edge2" class="edge"><title>Node2811&#45;&gt;Node2812</title>
<path fill="none" stroke="midnightblue" d="M272.331,-295.904C278.441,-351.48 302.835,-510.313 388,-603 393.585,-609.079 400.644,-614.017 408.046,-617.999"/>
<polygon fill="midnightblue" stroke="midnightblue" points="275.785,-295.266 271.29,-285.672 268.821,-295.976 275.785,-295.266"/>
</g>
<!-- Node2813 -->
<g id="node4" class="node"><title>Node2813</title>
<g id="a_node4"><a xlink:href="classmpfr_1_1mpreal.html#a9c370c68865b32775c1c1cb5123cea90" target="_top" xlink:title="mpfr::mpreal::mpreal">
<polygon fill="none" stroke="black" points="395,-266.5 395,-285.5 514,-285.5 514,-266.5 395,-266.5"/>
<text text-anchor="middle" x="454.5" y="-273.5" font-family="Helvetica,sans-Serif" font-size="10.00">mpfr::mpreal::mpreal</text>
</a>
</g>
</g>
<!-- Node2811&#45;&gt;Node2813 -->
<g id="edge3" class="edge"><title>Node2811&#45;&gt;Node2813</title>
<path fill="none" stroke="midnightblue" d="M362.254,-269.25C373.331,-269.252 384.403,-269.386 394.82,-269.652"/>
<polygon fill="midnightblue" stroke="midnightblue" points="362.087,-265.75 352.099,-269.285 362.111,-272.75 362.087,-265.75"/>
</g>
<!-- Node2818 -->
<g id="node9" class="node"><title>Node2818</title>
<g id="a_node9"><a xlink:href="namespacempfr.html#ab6cfe9d750c1cdf9f8d65c93bc75fa57" target="_top" xlink:title="mpfr::operator/">
<polygon fill="none" stroke="black" points="937,-453.5 937,-472.5 1026,-472.5 1026,-453.5 937,-453.5"/>
<text text-anchor="middle" x="981.5" y="-460.5" font-family="Helvetica,sans-Serif" font-size="10.00">mpfr::operator/</text>
</a>
</g>
</g>
<!-- Node2811&#45;&gt;Node2818 -->
<g id="edge39" class="edge"><title>Node2811&#45;&gt;Node2818</title>
<path fill="none" stroke="midnightblue" d="M278.683,-295.091C295.028,-331.46 334.766,-411.623 388,-463 450.475,-523.296 473.154,-538.448 557,-561 694.408,-597.958 744.887,-603.85 877,-551 919.702,-533.918 957.403,-491.8 972.945,-472.699"/>
<polygon fill="midnightblue" stroke="midnightblue" points="281.769,-293.413 274.537,-285.671 275.362,-296.234 281.769,-293.413"/>
</g>
<!-- Node2813&#45;&gt;Node2811 -->
<g id="edge4" class="edge"><title>Node2813&#45;&gt;Node2811</title>
<path fill="none" stroke="midnightblue" d="M384.758,-282.561C374.102,-282.741 363.005,-282.793 352.099,-282.715"/>
<polygon fill="midnightblue" stroke="midnightblue" points="384.897,-286.059 394.82,-282.348 384.749,-279.06 384.897,-286.059"/>
</g>
<!-- Node2814 -->
<g id="node5" class="node"><title>Node2814</title>
<g id="a_node5"><a xlink:href="namespacempfr.html#ab72db36dfba03626c173e0beb84b49e8" target="_top" xlink:title="mpfr::machine_epsilon">
<polygon fill="none" stroke="black" points="566,-456.5 566,-475.5 691,-475.5 691,-456.5 566,-456.5"/>
<text text-anchor="middle" x="628.5" y="-463.5" font-family="Helvetica,sans-Serif" font-size="10.00">mpfr::machine_epsilon</text>
</a>
</g>
</g>
<!-- Node2813&#45;&gt;Node2814 -->
<g id="edge5" class="edge"><title>Node2813&#45;&gt;Node2814</title>
<path fill="none" stroke="midnightblue" d="M461.607,-295.642C473.756,-331.396 504.414,-407.091 557,-447 562.15,-450.908 568.046,-454.013 574.186,-456.48"/>
<polygon fill="midnightblue" stroke="midnightblue" points="464.861,-294.33 458.427,-285.912 458.207,-296.504 464.861,-294.33"/>
</g>
<!-- Node2819 -->
<g id="node10" class="node"><title>Node2819</title>
<g id="a_node10"><a xlink:href="namespacempfr.html#ac5d52f3ecbedf807efc1815b836d587e" target="_top" xlink:title="mpfr::maxval">
<polygon fill="none" stroke="black" points="766.5,-289.5 766.5,-308.5 846.5,-308.5 846.5,-289.5 766.5,-289.5"/>
<text text-anchor="middle" x="806.5" y="-296.5" font-family="Helvetica,sans-Serif" font-size="10.00">mpfr::maxval</text>
</a>
</g>
</g>
<!-- Node2813&#45;&gt;Node2819 -->
<g id="edge19" class="edge"><title>Node2813&#45;&gt;Node2819</title>
<path fill="none" stroke="midnightblue" d="M485.618,-261.449C497.919,-254.288 511.465,-244.667 521,-233 548.263,-199.642 521.326,-167.153 557,-143 609.628,-107.369 643.866,-113.197 700,-143 760.932,-175.35 793.091,-260.35 802.515,-289.233"/>
<polygon fill="midnightblue" stroke="midnightblue" points="483.618,-258.554 476.541,-266.439 486.99,-264.689 483.618,-258.554"/>
</g>
<!-- Node2826 -->
<g id="node17" class="node"><title>Node2826</title>
<g id="a_node17"><a xlink:href="namespacempfr.html#a55c33a2e33adf3ed6f1cdca5536d8f8f" target="_top" xlink:title="mpfr::minval">
<polygon fill="none" stroke="black" points="590,-494.5 590,-513.5 667,-513.5 667,-494.5 590,-494.5"/>
<text text-anchor="middle" x="628.5" y="-501.5" font-family="Helvetica,sans-Serif" font-size="10.00">mpfr::minval</text>
</a>
</g>
</g>
<!-- Node2813&#45;&gt;Node2826 -->
<g id="edge20" class="edge"><title>Node2813&#45;&gt;Node2826</title>
<path fill="none" stroke="midnightblue" d="M464.386,-294.819C488.38,-345.566 552.956,-481.656 557,-485 566.28,-492.675 578.381,-497.27 589.932,-500.014"/>
<polygon fill="midnightblue" stroke="midnightblue" points="467.474,-293.163 460.037,-285.617 461.145,-296.153 467.474,-293.163"/>
</g>
<!-- Node2828 -->
<g id="node19" class="node"><title>Node2828</title>
<g id="a_node19"><a xlink:href="classmpfr_1_1mpreal.html#a74b08628ebe3b25cb7e08d28bc87a42d" target="_top" xlink:title="mpfr::mpreal::mpreal">
<polygon fill="none" stroke="black" points="569,-418.5 569,-437.5 688,-437.5 688,-418.5 569,-418.5"/>
<text text-anchor="middle" x="628.5" y="-425.5" font-family="Helvetica,sans-Serif" font-size="10.00">mpfr::mpreal::mpreal</text>
</a>
</g>
</g>
<!-- Node2813&#45;&gt;Node2828 -->
<g id="edge23" class="edge"><title>Node2813&#45;&gt;Node2828</title>
<path fill="none" stroke="midnightblue" d="M464.692,-294.87C479.826,-323.915 512.773,-379.318 557,-409 562.789,-412.885 569.345,-415.978 576.07,-418.44"/>
<polygon fill="midnightblue" stroke="midnightblue" points="467.731,-293.124 460.093,-285.782 461.486,-296.285 467.731,-293.124"/>
</g>
<!-- Node2829 -->
<g id="node20" class="node"><title>Node2829</title>
<g id="a_node20"><a xlink:href="namespacempfr.html#a1fdf070115136efdf0eea414e54b4ef5" target="_top" xlink:title="mpfr::operator*">
<polygon fill="none" stroke="black" points="582.5,-380.5 582.5,-399.5 674.5,-399.5 674.5,-380.5 582.5,-380.5"/>
<text text-anchor="middle" x="628.5" y="-387.5" font-family="Helvetica,sans-Serif" font-size="10.00">mpfr::operator*</text>
</a>
</g>
</g>
<!-- Node2813&#45;&gt;Node2829 -->
<g id="edge24" class="edge"><title>Node2813&#45;&gt;Node2829</title>
<path fill="none" stroke="midnightblue" d="M469.589,-293.682C487.613,-315.125 520.854,-350.886 557,-371 564.754,-375.315 573.538,-378.69 582.21,-381.318"/>
<polygon fill="midnightblue" stroke="midnightblue" points="472.091,-291.215 463.037,-285.713 466.684,-295.66 472.091,-291.215"/>
</g>
<!-- Node2830 -->
<g id="node21" class="node"><title>Node2830</title>
<g id="a_node21"><a xlink:href="classmpfr_1_1mpreal.html#a5f9aebe5664c2a335468c8ed0d08fa6f" target="_top" xlink:title="mpfr::mpreal::operator*=">
<polygon fill="none" stroke="black" points="558.5,-532.5 558.5,-551.5 698.5,-551.5 698.5,-532.5 558.5,-532.5"/>
<text text-anchor="middle" x="628.5" y="-539.5" font-family="Helvetica,sans-Serif" font-size="10.00">mpfr::mpreal::operator*=</text>
</a>
</g>
</g>
<!-- Node2813&#45;&gt;Node2830 -->
<g id="edge25" class="edge"><title>Node2813&#45;&gt;Node2830</title>
<path fill="none" stroke="midnightblue" d="M465.273,-294.668C478.789,-320.889 503.498,-370.317 521,-414 539.975,-461.359 519.933,-487.944 557,-523 561.052,-526.832 565.794,-529.909 570.869,-532.376"/>
<polygon fill="midnightblue" stroke="midnightblue" points="468.239,-292.784 460.526,-285.52 462.026,-296.009 468.239,-292.784"/>
</g>
<!-- Node2831 -->
<g id="node22" class="node"><title>Node2831</title>
<g id="a_node22"><a xlink:href="classmpfr_1_1mpreal.html#a3f7f5d20cfe5d4d5cbcee9ad7b450ca3" target="_top" xlink:title="mpfr::mpreal::operator+">
<polygon fill="none" stroke="black" points="561.5,-76.5 561.5,-95.5 695.5,-95.5 695.5,-76.5 561.5,-76.5"/>
<text text-anchor="middle" x="628.5" y="-83.5" font-family="Helvetica,sans-Serif" font-size="10.00">mpfr::mpreal::operator+</text>
</a>
</g>
</g>
<!-- Node2813&#45;&gt;Node2831 -->
<g id="edge27" class="edge"><title>Node2813&#45;&gt;Node2831</title>
<path fill="none" stroke="midnightblue" d="M486.703,-261.569C498.952,-254.511 512.163,-244.936 521,-233 554.893,-187.221 517.606,-151.141 557,-110 563.081,-103.65 570.905,-98.9797 579.118,-95.5453"/>
<polygon fill="midnightblue" stroke="midnightblue" points="484.752,-258.645 477.613,-266.473 488.076,-264.806 484.752,-258.645"/>
</g>
<!-- Node2832 -->
<g id="node23" class="node"><title>Node2832</title>
<g id="a_node23"><a xlink:href="namespacempfr.html#a7db5edb2c8a8f13df654e3f22b0c1d2a" target="_top" xlink:title="mpfr::operator+">
<polygon fill="none" stroke="black" points="581,-342.5 581,-361.5 676,-361.5 676,-342.5 581,-342.5"/>
<text text-anchor="middle" x="628.5" y="-349.5" font-family="Helvetica,sans-Serif" font-size="10.00">mpfr::operator+</text>
</a>
</g>
</g>
<!-- Node2813&#45;&gt;Node2832 -->
<g id="edge29" class="edge"><title>Node2813&#45;&gt;Node2832</title>
<path fill="none" stroke="midnightblue" d="M478.502,-291.109C498.553,-303.736 528.766,-321.478 557,-333 565.92,-336.64 575.757,-339.794 585.181,-342.428"/>
<polygon fill="midnightblue" stroke="midnightblue" points="480.36,-288.143 470.049,-285.708 476.591,-294.042 480.36,-288.143"/>
</g>
<!-- Node2833 -->
<g id="node24" class="node"><title>Node2833</title>
<g id="a_node24"><a xlink:href="classmpfr_1_1mpreal.html#a11fd44a6fe5b15dd2e8d96c5f65f0b59" target="_top" xlink:title="mpfr::mpreal::operator+=">
<polygon fill="none" stroke="black" points="557,-304.5 557,-323.5 700,-323.5 700,-304.5 557,-304.5"/>
<text text-anchor="middle" x="628.5" y="-311.5" font-family="Helvetica,sans-Serif" font-size="10.00">mpfr::mpreal::operator+=</text>
</a>
</g>
</g>
<!-- Node2813&#45;&gt;Node2833 -->
<g id="edge30" class="edge"><title>Node2813&#45;&gt;Node2833</title>
<path fill="none" stroke="midnightblue" d="M508.696,-287.753C533.017,-293.126 561.455,-299.409 584.409,-304.48"/>
<polygon fill="midnightblue" stroke="midnightblue" points="509.422,-284.329 498.903,-285.589 507.912,-291.164 509.422,-284.329"/>
</g>
<!-- Node2834 -->
<g id="node25" class="node"><title>Node2834</title>
<g id="a_node25"><a xlink:href="namespacempfr.html#ad4ee72b1913629e82105f0c2d72a7b4a" target="_top" xlink:title="mpfr::operator&#45;">
<polygon fill="none" stroke="black" points="584,-266.5 584,-285.5 673,-285.5 673,-266.5 584,-266.5"/>
<text text-anchor="middle" x="628.5" y="-273.5" font-family="Helvetica,sans-Serif" font-size="10.00">mpfr::operator&#45;</text>
</a>
</g>
</g>
<!-- Node2813&#45;&gt;Node2834 -->
<g id="edge31" class="edge"><title>Node2813&#45;&gt;Node2834</title>
<path fill="none" stroke="midnightblue" d="M524.285,-276C544.427,-276 565.882,-276 583.983,-276"/>
<polygon fill="midnightblue" stroke="midnightblue" points="524.212,-272.5 514.212,-276 524.212,-279.5 524.212,-272.5"/>
</g>
<!-- Node2835 -->
<g id="node26" class="node"><title>Node2835</title>
<g id="a_node26"><a xlink:href="classmpfr_1_1mpreal.html#a8aafaacaea104a79fb62d8813226500f" target="_top" xlink:title="mpfr::mpreal::operator&#45;=">
<polygon fill="none" stroke="black" points="560,-38.5 560,-57.5 697,-57.5 697,-38.5 560,-38.5"/>
<text text-anchor="middle" x="628.5" y="-45.5" font-family="Helvetica,sans-Serif" font-size="10.00">mpfr::mpreal::operator&#45;=</text>
</a>
</g>
</g>
<!-- Node2813&#45;&gt;Node2835 -->
<g id="edge32" class="edge"><title>Node2813&#45;&gt;Node2835</title>
<path fill="none" stroke="midnightblue" d="M466.545,-257.613C480.187,-234.542 503.706,-193.56 521,-157 539.422,-118.056 524.804,-95.6258 557,-67 561.358,-63.1255 566.426,-60.0299 571.808,-57.5584"/>
<polygon fill="midnightblue" stroke="midnightblue" points="463.459,-255.956 461.35,-266.339 469.473,-259.537 463.459,-255.956"/>
</g>
<!-- Node2836 -->
<g id="node27" class="node"><title>Node2836</title>
<g id="a_node27"><a xlink:href="namespacempfr.html#a5486ca908b39cd91a9d60586866f40d6" target="_top" xlink:title="mpfr::operator/">
<polygon fill="none" stroke="black" points="584,-228.5 584,-247.5 673,-247.5 673,-228.5 584,-228.5"/>
<text text-anchor="middle" x="628.5" y="-235.5" font-family="Helvetica,sans-Serif" font-size="10.00">mpfr::operator/</text>
</a>
</g>
</g>
<!-- Node2813&#45;&gt;Node2836 -->
<g id="edge34" class="edge"><title>Node2813&#45;&gt;Node2836</title>
<path fill="none" stroke="midnightblue" d="M508.696,-264.247C533.017,-258.874 561.455,-252.591 584.409,-247.52"/>
<polygon fill="midnightblue" stroke="midnightblue" points="507.912,-260.836 498.903,-266.411 509.422,-267.671 507.912,-260.836"/>
</g>
<!-- Node2837 -->
<g id="node28" class="node"><title>Node2837</title>
<g id="a_node28"><a xlink:href="classmpfr_1_1mpreal.html#a9f6b4a0f16104e98d0f96b5666b08329" target="_top" xlink:title="mpfr::mpreal::operator/=">
<polygon fill="none" stroke="black" points="560,-0.5 560,-19.5 697,-19.5 697,-0.5 560,-0.5"/>
<text text-anchor="middle" x="628.5" y="-7.5" font-family="Helvetica,sans-Serif" font-size="10.00">mpfr::mpreal::operator/=</text>
</a>
</g>
</g>
<!-- Node2813&#45;&gt;Node2837 -->
<g id="edge35" class="edge"><title>Node2813&#45;&gt;Node2837</title>
<path fill="none" stroke="midnightblue" d="M457.689,-256.47C463.982,-209.812 486.45,-91.1365 557,-29 561.376,-25.146 566.455,-22.0635 571.845,-19.5998"/>
<polygon fill="midnightblue" stroke="midnightblue" points="454.206,-256.115 456.444,-266.47 461.153,-256.979 454.206,-256.115"/>
</g>
<!-- Node2838 -->
<g id="node29" class="node"><title>Node2838</title>
<g id="a_node29"><a xlink:href="namespacempfr.html#a47c705d079873d21b2ae64570c2dbe7c" target="_top" xlink:title="mpfr::pow">
<polygon fill="none" stroke="black" points="596.5,-190.5 596.5,-209.5 660.5,-209.5 660.5,-190.5 596.5,-190.5"/>
<text text-anchor="middle" x="628.5" y="-197.5" font-family="Helvetica,sans-Serif" font-size="10.00">mpfr::pow</text>
</a>
</g>
</g>
<!-- Node2813&#45;&gt;Node2838 -->
<g id="edge37" class="edge"><title>Node2813&#45;&gt;Node2838</title>
<path fill="none" stroke="midnightblue" d="M478.502,-260.891C498.553,-248.264 528.766,-230.522 557,-219 569.558,-213.875 583.935,-209.715 596.416,-206.609"/>
<polygon fill="midnightblue" stroke="midnightblue" points="476.591,-257.958 470.049,-266.292 480.36,-263.857 476.591,-257.958"/>
</g>
<!-- Node2839 -->
<g id="node30" class="node"><title>Node2839</title>
<g id="a_node30"><a xlink:href="namespacempfr.html#ac48d4b27943090ddad2744b82a4839b2" target="_top" xlink:title="mpfr::sqrt">
<polygon fill="none" stroke="black" points="596.5,-152.5 596.5,-171.5 660.5,-171.5 660.5,-152.5 596.5,-152.5"/>
<text text-anchor="middle" x="628.5" y="-159.5" font-family="Helvetica,sans-Serif" font-size="10.00">mpfr::sqrt</text>
</a>
</g>
</g>
<!-- Node2813&#45;&gt;Node2839 -->
<g id="edge38" class="edge"><title>Node2813&#45;&gt;Node2839</title>
<path fill="none" stroke="midnightblue" d="M482.749,-261.348C495.23,-253.86 509.718,-244.008 521,-233 541.119,-213.37 534.029,-197.201 557,-181 568.499,-172.89 583.28,-168.241 596.336,-165.576"/>
<polygon fill="midnightblue" stroke="midnightblue" points="480.988,-258.323 474.091,-266.365 484.498,-264.38 480.988,-258.323"/>
</g>
<!-- Node2815 -->
<g id="node6" class="node"><title>Node2815</title>
<g id="a_node6"><a xlink:href="classstd_1_1numeric__limits_3_01mpfr_1_1mpreal_01_4.html#ac2f7a8222ef4b03518ad0a3e247b0ff6" target="_top" xlink:title="std::numeric_limits\l\&lt; mpfr::mpreal \&gt;::epsilon">
<polygon fill="none" stroke="black" points="736,-366 736,-396 877,-396 877,-366 736,-366"/>
<text text-anchor="start" x="744" y="-384" font-family="Helvetica,sans-Serif" font-size="10.00">std::numeric_limits</text>
<text text-anchor="middle" x="806.5" y="-373" font-family="Helvetica,sans-Serif" font-size="10.00">&lt; mpfr::mpreal &gt;::epsilon</text>
</a>
</g>
</g>
<!-- Node2814&#45;&gt;Node2815 -->
<g id="edge6" class="edge"><title>Node2814&#45;&gt;Node2815</title>
<path fill="none" stroke="midnightblue" d="M687.724,-452.974C691.989,-451.22 696.13,-449.238 700,-447 719.588,-435.672 717.279,-423.71 736,-411 744.372,-405.316 753.996,-400.337 763.36,-396.153"/>
<polygon fill="midnightblue" stroke="midnightblue" points="686.424,-449.723 678.248,-456.46 688.841,-456.292 686.424,-449.723"/>
</g>
<!-- Node2816 -->
<g id="node7" class="node"><title>Node2816</title>
<g id="a_node7"><a xlink:href="namespacempfr.html#a2b277f6e7a98e7b5da7fad3a38a211ec" target="_top" xlink:title="mpfr::isEqualFuzzy">
<polygon fill="none" stroke="black" points="754,-327.5 754,-346.5 859,-346.5 859,-327.5 754,-327.5"/>
<text text-anchor="middle" x="806.5" y="-334.5" font-family="Helvetica,sans-Serif" font-size="10.00">mpfr::isEqualFuzzy</text>
</a>
</g>
</g>
<!-- Node2814&#45;&gt;Node2816 -->
<g id="edge7" class="edge"><title>Node2814&#45;&gt;Node2816</title>
<path fill="none" stroke="midnightblue" d="M694.372,-451.355C696.348,-450.026 698.233,-448.577 700,-447 732.449,-418.038 703.603,-385.02 736,-356 741.124,-351.41 747.255,-347.915 753.723,-345.256"/>
<polygon fill="midnightblue" stroke="midnightblue" points="692.241,-448.536 685.207,-456.458 695.647,-454.651 692.241,-448.536"/>
</g>
<!-- Node2817 -->
<g id="node8" class="node"><title>Node2817</title>
<g id="a_node8"><a xlink:href="namespacempfr.html#a63ac5362ad5af999b1bc94649e772dde" target="_top" xlink:title="mpfr::isEqualUlps">
<polygon fill="none" stroke="black" points="756.5,-453.5 756.5,-472.5 856.5,-472.5 856.5,-453.5 756.5,-453.5"/>
<text text-anchor="middle" x="806.5" y="-460.5" font-family="Helvetica,sans-Serif" font-size="10.00">mpfr::isEqualUlps</text>
</a>
</g>
</g>
<!-- Node2814&#45;&gt;Node2817 -->
<g id="edge8" class="edge"><title>Node2814&#45;&gt;Node2817</title>
<path fill="none" stroke="midnightblue" d="M701.24,-464.777C719.794,-464.461 739.348,-464.128 756.445,-463.836"/>
<polygon fill="midnightblue" stroke="midnightblue" points="700.995,-461.281 691.056,-464.951 701.114,-468.28 700.995,-461.281"/>
</g>
<!-- Node2814&#45;&gt;Node2818 -->
<g id="edge18" class="edge"><title>Node2814&#45;&gt;Node2818</title>
<path fill="none" stroke="midnightblue" d="M676.117,-454.226C694.627,-450.115 716.191,-446.025 736,-444 798.342,-437.628 814.591,-438.319 877,-444 897.377,-445.855 919.735,-449.723 938.44,-453.489"/>
<polygon fill="midnightblue" stroke="midnightblue" points="675.147,-450.857 666.178,-456.498 676.707,-457.681 675.147,-450.857"/>
</g>
<!-- Node2814&#45;&gt;Node2819 -->
<g id="edge10" class="edge"><title>Node2814&#45;&gt;Node2819</title>
<path fill="none" stroke="midnightblue" d="M695.372,-451.007C697,-449.772 698.548,-448.439 700,-447 742.277,-405.098 693.799,-359.978 736,-318 744.07,-309.972 755.185,-305.251 766.16,-302.5"/>
<polygon fill="midnightblue" stroke="midnightblue" points="693.323,-448.159 686.661,-456.397 697.006,-454.111 693.323,-448.159"/>
</g>
<!-- Node2817&#45;&gt;Node2818 -->
<g id="edge9" class="edge"><title>Node2817&#45;&gt;Node2818</title>
<path fill="none" stroke="midnightblue" d="M866.624,-463C889.659,-463 915.582,-463 936.869,-463"/>
<polygon fill="midnightblue" stroke="midnightblue" points="866.612,-459.5 856.612,-463 866.612,-466.5 866.612,-459.5"/>
</g>
<!-- Node2819&#45;&gt;Node2818 -->
<g id="edge17" class="edge"><title>Node2819&#45;&gt;Node2818</title>
<path fill="none" stroke="midnightblue" d="M856.488,-305.588C864.074,-308.419 871.278,-312.404 877,-318 917.114,-357.229 874.38,-398.3 913,-439 919.506,-445.857 928.099,-450.758 936.965,-454.26"/>
<polygon fill="midnightblue" stroke="midnightblue" points="857.343,-302.189 846.755,-302.586 855.279,-308.878 857.343,-302.189"/>
</g>
<!-- Node2820 -->
<g id="node11" class="node"><title>Node2820</title>
<g id="a_node11"><a xlink:href="classEigen_1_1EigenSolver.html#a99e6120839b1f65c4e1f1ba61efa264e" target="_top" xlink:title="Eigen::EigenSolver\l\&lt; CompanionMatrixType\l \&gt;::compute">
<polygon fill="none" stroke="black" points="915,-338.5 915,-379.5 1048,-379.5 1048,-338.5 915,-338.5"/>
<text text-anchor="start" x="923" y="-367.5" font-family="Helvetica,sans-Serif" font-size="10.00">Eigen::EigenSolver</text>
<text text-anchor="start" x="923" y="-356.5" font-family="Helvetica,sans-Serif" font-size="10.00">&lt; CompanionMatrixType</text>
<text text-anchor="middle" x="981.5" y="-345.5" font-family="Helvetica,sans-Serif" font-size="10.00"> &gt;::compute</text>
</a>
</g>
</g>
<!-- Node2819&#45;&gt;Node2820 -->
<g id="edge11" class="edge"><title>Node2819&#45;&gt;Node2820</title>
<path fill="none" stroke="midnightblue" d="M854.892,-311.203C862.332,-313.335 869.905,-315.633 877,-318 895.15,-324.056 914.741,-331.559 931.944,-338.485"/>
<polygon fill="midnightblue" stroke="midnightblue" points="855.813,-307.826 845.24,-308.504 853.928,-314.568 855.813,-307.826"/>
</g>
<!-- Node2821 -->
<g id="node12" class="node"><title>Node2821</title>
<g id="a_node12"><a xlink:href="classSystemBase.html#a4ffed53296033614e4701f01363e6b3f" target="_top" xlink:title="SystemBase\&lt; StateTwo\l \&gt;::getConnections">
<polygon fill="none" stroke="black" points="916,-289 916,-319 1047,-319 1047,-289 916,-289"/>
<text text-anchor="start" x="924" y="-307" font-family="Helvetica,sans-Serif" font-size="10.00">SystemBase&lt; StateTwo</text>
<text text-anchor="middle" x="981.5" y="-296" font-family="Helvetica,sans-Serif" font-size="10.00"> &gt;::getConnections</text>
</a>
</g>
</g>
<!-- Node2819&#45;&gt;Node2821 -->
<g id="edge12" class="edge"><title>Node2819&#45;&gt;Node2821</title>
<path fill="none" stroke="midnightblue" d="M856.936,-300.429C875.307,-300.96 896.429,-301.57 915.952,-302.134"/>
<polygon fill="midnightblue" stroke="midnightblue" points="856.853,-296.925 846.756,-300.135 856.651,-303.922 856.853,-296.925"/>
</g>
<!-- Node2822 -->
<g id="node13" class="node"><title>Node2822</title>
<g id="a_node13"><a xlink:href="classSystemBase.html#a36f4a02104e9f68e60732267bc6eafbc" target="_top" xlink:title="SystemBase\&lt; StateTwo\l \&gt;::getMainStates">
<polygon fill="none" stroke="black" points="916,-240 916,-270 1047,-270 1047,-240 916,-240"/>
<text text-anchor="start" x="924" y="-258" font-family="Helvetica,sans-Serif" font-size="10.00">SystemBase&lt; StateTwo</text>
<text text-anchor="middle" x="981.5" y="-247" font-family="Helvetica,sans-Serif" font-size="10.00"> &gt;::getMainStates</text>
</a>
</g>
</g>
<!-- Node2819&#45;&gt;Node2822 -->
<g id="edge13" class="edge"><title>Node2819&#45;&gt;Node2822</title>
<path fill="none" stroke="midnightblue" d="M854.785,-286.974C875.305,-281.755 899.561,-275.586 921.266,-270.065"/>
<polygon fill="midnightblue" stroke="midnightblue" points="853.867,-283.596 845.038,-289.453 855.593,-290.38 853.867,-283.596"/>
</g>
<!-- Node2823 -->
<g id="node14" class="node"><title>Node2823</title>
<g id="a_node14"><a xlink:href="classSystemBase.html#af68a98c6f66a1ef06fa78fbe9c209ba7" target="_top" xlink:title="SystemBase\&lt; StateTwo\l \&gt;::getVectorindex">
<polygon fill="none" stroke="black" points="916,-191 916,-221 1047,-221 1047,-191 916,-191"/>
<text text-anchor="start" x="924" y="-209" font-family="Helvetica,sans-Serif" font-size="10.00">SystemBase&lt; StateTwo</text>
<text text-anchor="middle" x="981.5" y="-198" font-family="Helvetica,sans-Serif" font-size="10.00"> &gt;::getVectorindex</text>
</a>
</g>
</g>
<!-- Node2819&#45;&gt;Node2823 -->
<g id="edge14" class="edge"><title>Node2819&#45;&gt;Node2823</title>
<path fill="none" stroke="midnightblue" d="M828.214,-283.316C848.87,-268.201 881.916,-245.416 913,-230 919.463,-226.795 926.462,-223.81 933.422,-221.11"/>
<polygon fill="midnightblue" stroke="midnightblue" points="825.855,-280.707 819.905,-289.473 830.023,-286.332 825.855,-280.707"/>
</g>
<!-- Node2824 -->
<g id="node15" class="node"><title>Node2824</title>
<g id="a_node15"><a xlink:href="classstd_1_1numeric__limits_3_01mpfr_1_1mpreal_01_4.html#afe87477420320b20ef726e383e06a950" target="_top" xlink:title="std::numeric_limits\l\&lt; mpfr::mpreal \&gt;::lowest">
<polygon fill="none" stroke="black" points="913,-142 913,-172 1050,-172 1050,-142 913,-142"/>
<text text-anchor="start" x="921" y="-160" font-family="Helvetica,sans-Serif" font-size="10.00">std::numeric_limits</text>
<text text-anchor="middle" x="981.5" y="-149" font-family="Helvetica,sans-Serif" font-size="10.00">&lt; mpfr::mpreal &gt;::lowest</text>
</a>
</g>
</g>
<!-- Node2819&#45;&gt;Node2824 -->
<g id="edge15" class="edge"><title>Node2819&#45;&gt;Node2824</title>
<path fill="none" stroke="midnightblue" d="M819.305,-280.846C836.85,-255.198 872.162,-208.428 913,-181 918.059,-177.602 923.655,-174.626 929.396,-172.034"/>
<polygon fill="midnightblue" stroke="midnightblue" points="816.323,-279.008 813.667,-289.265 822.139,-282.903 816.323,-279.008"/>
</g>
<!-- Node2825 -->
<g id="node16" class="node"><title>Node2825</title>
<g id="a_node16"><a xlink:href="classstd_1_1numeric__limits_3_01mpfr_1_1mpreal_01_4.html#af3b5798dea70eba7566b8558177c5cb7" target="_top" xlink:title="std::numeric_limits\l\&lt; mpfr::mpreal \&gt;::max">
<polygon fill="none" stroke="black" points="917.5,-399 917.5,-429 1045.5,-429 1045.5,-399 917.5,-399"/>
<text text-anchor="start" x="925.5" y="-417" font-family="Helvetica,sans-Serif" font-size="10.00">std::numeric_limits</text>
<text text-anchor="middle" x="981.5" y="-406" font-family="Helvetica,sans-Serif" font-size="10.00">&lt; mpfr::mpreal &gt;::max</text>
</a>
</g>
</g>
<!-- Node2819&#45;&gt;Node2825 -->
<g id="edge16" class="edge"><title>Node2819&#45;&gt;Node2825</title>
<path fill="none" stroke="midnightblue" d="M856.183,-306.676C863.681,-309.388 870.934,-313.052 877,-318 904.417,-340.362 886.591,-365.456 913,-389 917.291,-392.825 922.219,-396.083 927.417,-398.854"/>
<polygon fill="midnightblue" stroke="midnightblue" points="857.214,-303.331 846.627,-303.724 855.148,-310.02 857.214,-303.331"/>
</g>
<!-- Node2826&#45;&gt;Node2818 -->
<g id="edge22" class="edge"><title>Node2826&#45;&gt;Node2818</title>
<path fill="none" stroke="midnightblue" d="M674.944,-516.229C702.412,-523.573 732.749,-531.58 736,-532 798.15,-540.033 817.022,-550.16 877,-532 915.858,-520.235 953.462,-488.538 970.697,-472.529"/>
<polygon fill="midnightblue" stroke="midnightblue" points="675.575,-512.774 665.01,-513.568 673.764,-519.536 675.575,-512.774"/>
</g>
<!-- Node2827 -->
<g id="node18" class="node"><title>Node2827</title>
<g id="a_node18"><a xlink:href="classstd_1_1numeric__limits_3_01mpfr_1_1mpreal_01_4.html#ae26e5f5575ce3fcdc7571353d5943447" target="_top" xlink:title="std::numeric_limits\l\&lt; mpfr::mpreal \&gt;::min">
<polygon fill="none" stroke="black" points="744,-492 744,-522 869,-522 869,-492 744,-492"/>
<text text-anchor="start" x="752" y="-510" font-family="Helvetica,sans-Serif" font-size="10.00">std::numeric_limits</text>
<text text-anchor="middle" x="806.5" y="-499" font-family="Helvetica,sans-Serif" font-size="10.00">&lt; mpfr::mpreal &gt;::min</text>
</a>
</g>
</g>
<!-- Node2826&#45;&gt;Node2827 -->
<g id="edge21" class="edge"><title>Node2826&#45;&gt;Node2827</title>
<path fill="none" stroke="midnightblue" d="M677.312,-504.815C697.838,-505.165 722.078,-505.578 743.923,-505.95"/>
<polygon fill="midnightblue" stroke="midnightblue" points="677.315,-501.315 667.256,-504.644 677.195,-508.314 677.315,-501.315"/>
</g>
<!-- Node2830&#45;&gt;Node2811 -->
<g id="edge26" class="edge"><title>Node2830&#45;&gt;Node2811</title>
<path fill="none" stroke="midnightblue" d="M570.676,-529.122C565.944,-527.323 561.323,-525.291 557,-523 429.633,-455.493 310.054,-322.162 278.544,-285.515"/>
<polygon fill="midnightblue" stroke="midnightblue" points="569.89,-532.553 580.485,-532.496 572.167,-525.934 569.89,-532.553"/>
</g>
<!-- Node2831&#45;&gt;Node2811 -->
<g id="edge28" class="edge"><title>Node2831&#45;&gt;Node2811</title>
<path fill="none" stroke="midnightblue" d="M585.916,-99.3062C575.955,-103.496 565.695,-108.711 557,-115 537.08,-129.409 540.53,-142.066 521,-157 449.861,-211.398 349.859,-249.568 300.489,-266.375"/>
<polygon fill="midnightblue" stroke="midnightblue" points="587.294,-102.525 595.314,-95.6017 584.727,-96.0129 587.294,-102.525"/>
</g>
<!-- Node2835&#45;&gt;Node2811 -->
<g id="edge33" class="edge"><title>Node2835&#45;&gt;Node2811</title>
<path fill="none" stroke="midnightblue" d="M576.377,-60.3052C569.782,-62.3208 563.178,-64.5588 557,-67 477.856,-98.2717 456.229,-106.143 388,-157 341.443,-191.703 295.915,-244.814 278.224,-266.39"/>
<polygon fill="midnightblue" stroke="midnightblue" points="577.358,-63.6651 585.983,-57.5134 575.404,-56.9432 577.358,-63.6651"/>
</g>
<!-- Node2837&#45;&gt;Node2811 -->
<g id="edge36" class="edge"><title>Node2837&#45;&gt;Node2811</title>
<path fill="none" stroke="midnightblue" d="M550.056,-17.0272C499.56,-24.975 434.624,-41.9111 388,-78 320.04,-130.604 283.354,-234.506 273.347,-266.439"/>
<polygon fill="midnightblue" stroke="midnightblue" points="550.577,-20.4883 559.952,-15.5545 549.546,-13.5645 550.577,-20.4883"/>
</g>
</g>
</svg>
