<?xml version="1.0" encoding="UTF-8" standalone="no"?>
<!DOCTYPE svg PUBLIC "-//W3C//DTD SVG 1.1//EN"
 "http://www.w3.org/Graphics/SVG/1.1/DTD/svg11.dtd">
<!-- Generated by graphviz version 2.38.0 (20140413.2041)
 -->
<!-- Title: SystemBase&lt; T &gt; Pages: 1 -->
<!--zoomable 468 -->
<svg id="main" version="1.1" xmlns="http://www.w3.org/2000/svg" xmlns:xlink="http://www.w3.org/1999/xlink" xml:space="preserve" onload="init(evt)">
<style type="text/css"><![CDATA[
.edge:hover path { stroke: red; }
.edge:hover polygon { stroke: red; fill: red; }
]]></style>
<script type="text/javascript"><![CDATA[
var edges = document.getElementsByTagName('g');
if (edges && edges.length) {
  for (var i=0;i<edges.length;i++) {
    if (edges[i].id.substr(0,4)=='edge') {
      edges[i].setAttribute('class','edge');
    }
  }
}
]]></script>
        <defs>
                <circle id="rim" cx="0" cy="0" r="7"/>
                <circle id="rim2" cx="0" cy="0" r="3.5"/>
                <g id="zoomPlus">
                        <use xlink:href="#rim" fill="#404040">
                                <set attributeName="fill" to="#808080" begin="zoomplus.mouseover" end="zoomplus.mouseout"/>
                        </use>
                        <path d="M-4,0h8M0,-4v8" fill="none" stroke="white" stroke-width="1.5" pointer-events="none"/>
                </g>
                <g id="zoomMin">
                        <use xlink:href="#rim" fill="#404040">
                                <set attributeName="fill" to="#808080" begin="zoomminus.mouseover" end="zoomminus.mouseout"/>
                        </use>
                        <path d="M-4,0h8" fill="none" stroke="white" stroke-width="1.5" pointer-events="none"/>
                </g>
                <g id="dirArrow">
                        <path fill="none" stroke="white" stroke-width="1.5" d="M0,-3.0v7 M-2.5,-0.5L0,-3.0L2.5,-0.5"/>
                </g>
               <g id="resetDef">
                       <use xlink:href="#rim2" fill="#404040">
                               <set attributeName="fill" to="#808080" begin="reset.mouseover" end="reset.mouseout"/>
                       </use>
               </g>
        </defs>

<script type="text/javascript">
var viewWidth = 1184;
var viewHeight = 468;
var sectionId = 'dynsection-0';
</script>
<script xlink:href="svgpan.js"/>
<svg id="graph" class="graph">
<g id="viewport">
<title>SystemBase&lt; T &gt;</title>
<!-- Node1 -->
<g id="node1" class="node"><title>Node1</title>
<polygon fill="#bfbfbf" stroke="black" points="1071,-298.5 1071,-317.5 1176,-317.5 1176,-298.5 1071,-298.5"/>
<text text-anchor="middle" x="1123.5" y="-305.5" font-family="Helvetica,sans-Serif" font-size="10.00">SystemBase&lt; T &gt;</text>
</g>
<!-- Node2 -->
<g id="node2" class="node"><title>Node2</title>
<polygon fill="none" stroke="#bfbfbf" points="822.5,-423.5 822.5,-442.5 897.5,-442.5 897.5,-423.5 822.5,-423.5"/>
<text text-anchor="middle" x="860" y="-430.5" font-family="Helvetica,sans-Serif" font-size="10.00">set&lt; float &gt;</text>
</g>
<!-- Node2&#45;&gt;Node1 -->
<g id="edge1" class="edge"><title>Node2&#45;&gt;Node1</title>
<path fill="none" stroke="#9a32cd" stroke-dasharray="5,2" d="M907.898,-438.118C949.085,-440.297 1009.11,-437.646 1053,-411 1089.69,-388.721 1111.34,-338.84 1119.16,-317.732"/>
<polygon fill="#9a32cd" stroke="#9a32cd" points="908.058,-434.621 897.853,-437.472 907.608,-441.607 908.058,-434.621"/>
<text text-anchor="middle" x="993.5" y="-452" font-family="Helvetica,sans-Serif" font-size="10.00"> range_j</text>
<text text-anchor="middle" x="993.5" y="-441" font-family="Helvetica,sans-Serif" font-size="10.00">range_m</text>
</g>
<!-- Node3 -->
<g id="node3" class="node"><title>Node3</title>
<g id="a_node3"><a xlink:href="classdouble.html" target="_top" xlink:title="double">
<polygon fill="none" stroke="black" points="835.5,-380.5 835.5,-399.5 884.5,-399.5 884.5,-380.5 835.5,-380.5"/>
<text text-anchor="middle" x="860" y="-387.5" font-family="Helvetica,sans-Serif" font-size="10.00">double</text>
</a>
</g>
</g>
<!-- Node3&#45;&gt;Node1 -->
<g id="edge2" class="edge"><title>Node3&#45;&gt;Node1</title>
<path fill="none" stroke="#9a32cd" stroke-dasharray="5,2" d="M894.651,-390.519C934.14,-389.962 1000.85,-385.333 1053,-363 1077.89,-352.34 1101.41,-330.341 1113.67,-317.633"/>
<polygon fill="#9a32cd" stroke="#9a32cd" points="894.487,-387.02 884.508,-390.58 894.529,-394.02 894.487,-387.02"/>
<text text-anchor="middle" x="993.5" y="-402" font-family="Helvetica,sans-Serif" font-size="10.00"> energy_max</text>
<text text-anchor="middle" x="993.5" y="-391" font-family="Helvetica,sans-Serif" font-size="10.00">energy_min</text>
</g>
<!-- Node4 -->
<g id="node4" class="node"><title>Node4</title>
<polygon fill="none" stroke="#bfbfbf" points="841,-342.5 841,-361.5 879,-361.5 879,-342.5 841,-342.5"/>
<text text-anchor="middle" x="860" y="-349.5" font-family="Helvetica,sans-Serif" font-size="10.00">path</text>
</g>
<!-- Node4&#45;&gt;Node1 -->
<g id="edge3" class="edge"><title>Node4&#45;&gt;Node1</title>
<path fill="none" stroke="#9a32cd" stroke-dasharray="5,2" d="M889.442,-350.762C927.189,-348.694 995.743,-343.46 1053,-331 1068.15,-327.703 1084.65,-322.325 1097.76,-317.598"/>
<polygon fill="#9a32cd" stroke="#9a32cd" points="889.013,-347.279 879.204,-351.286 889.37,-354.27 889.013,-347.279"/>
<text text-anchor="middle" x="993.5" y="-351" font-family="Helvetica,sans-Serif" font-size="10.00"> cachedir</text>
</g>
<!-- Node5 -->
<g id="node5" class="node"><title>Node5</title>
<polygon fill="none" stroke="#bfbfbf" points="827,-303.5 827,-322.5 893,-322.5 893,-303.5 827,-303.5"/>
<text text-anchor="middle" x="860" y="-310.5" font-family="Helvetica,sans-Serif" font-size="10.00">set&lt; int &gt;</text>
</g>
<!-- Node5&#45;&gt;Node1 -->
<g id="edge4" class="edge"><title>Node5&#45;&gt;Node1</title>
<path fill="none" stroke="#9a32cd" stroke-dasharray="5,2" d="M903.473,-310.317C913.481,-309.784 924.113,-309.297 934,-309 980.287,-307.61 1032.99,-307.451 1070.88,-307.587"/>
<polygon fill="#9a32cd" stroke="#9a32cd" points="903.117,-306.832 893.328,-310.884 903.508,-313.821 903.117,-306.832"/>
<text text-anchor="middle" x="993.5" y="-323" font-family="Helvetica,sans-Serif" font-size="10.00"> range_l</text>
<text text-anchor="middle" x="993.5" y="-312" font-family="Helvetica,sans-Serif" font-size="10.00">range_n</text>
</g>
<!-- Node6 -->
<g id="node6" class="node"><title>Node6</title>
<g id="a_node6"><a xlink:href="classEigen_1_1SparseMatrix.html" target="_top" xlink:title="Eigen::SparseMatrix\l\&lt; scalar_t \&gt;">
<polygon fill="none" stroke="black" points="804,-174 804,-204 916,-204 916,-174 804,-174"/>
<text text-anchor="start" x="812" y="-192" font-family="Helvetica,sans-Serif" font-size="10.00">Eigen::SparseMatrix</text>
<text text-anchor="middle" x="860" y="-181" font-family="Helvetica,sans-Serif" font-size="10.00">&lt; scalar_t &gt;</text>
</a>
</g>
</g>
<!-- Node6&#45;&gt;Node1 -->
<g id="edge5" class="edge"><title>Node6&#45;&gt;Node1</title>
<path fill="none" stroke="#9a32cd" stroke-dasharray="5,2" d="M926.098,-176.277C965.398,-172.025 1015.04,-172.999 1053,-195 1093.45,-218.447 1113.45,-275.763 1120,-298.49"/>
<polygon fill="#9a32cd" stroke="#9a32cd" points="925.589,-172.813 916.085,-177.496 926.435,-179.762 925.589,-172.813"/>
<text text-anchor="middle" x="993.5" y="-253" font-family="Helvetica,sans-Serif" font-size="10.00"> coefficients</text>
<text text-anchor="start" x="934" y="-242" font-family="Helvetica,sans-Serif" font-size="10.00">coefficients_unperturbed</text>
<text text-anchor="middle" x="993.5" y="-231" font-family="Helvetica,sans-Serif" font-size="10.00">_cache</text>
<text text-anchor="middle" x="993.5" y="-220" font-family="Helvetica,sans-Serif" font-size="10.00">hamiltonianmatrix</text>
<text text-anchor="start" x="934" y="-209" font-family="Helvetica,sans-Serif" font-size="10.00">hamiltonianmatrix</text>
<text text-anchor="middle" x="993.5" y="-198" font-family="Helvetica,sans-Serif" font-size="10.00">_unperturbed_cache</text>
</g>
<!-- Node7 -->
<g id="node7" class="node"><title>Node7</title>
<g id="a_node7"><a xlink:href="classEigen_1_1SparseCompressedBase.html" target="_top" xlink:title="Common base class for sparse [compressed]&#45;{row|column}&#45;storage format. ">
<polygon fill="none" stroke="black" points="508,-159.5 508,-200.5 675,-200.5 675,-159.5 508,-159.5"/>
<text text-anchor="start" x="516" y="-188.5" font-family="Helvetica,sans-Serif" font-size="10.00">Eigen::SparseCompressedBase</text>
<text text-anchor="start" x="516" y="-177.5" font-family="Helvetica,sans-Serif" font-size="10.00">&lt; SparseMatrix&lt; scalar_t,</text>
<text text-anchor="middle" x="591.5" y="-166.5" font-family="Helvetica,sans-Serif" font-size="10.00"> _Options, _StorageIndex &gt; &gt;</text>
</a>
</g>
</g>
<!-- Node7&#45;&gt;Node6 -->
<g id="edge6" class="edge"><title>Node7&#45;&gt;Node6</title>
<path fill="none" stroke="midnightblue" d="M685.558,-183.143C725.099,-184.478 769.848,-185.989 803.988,-187.142"/>
<polygon fill="midnightblue" stroke="midnightblue" points="685.474,-179.638 675.361,-182.798 685.238,-186.634 685.474,-179.638"/>
</g>
<!-- Node8 -->
<g id="node8" class="node"><title>Node8</title>
<g id="a_node8"><a xlink:href="classEigen_1_1SparseMatrixBase.html" target="_top" xlink:title="Base class of any sparse matrices or sparse expressions. ">
<polygon fill="none" stroke="black" points="252,-191 252,-221 388,-221 388,-191 252,-191"/>
<text text-anchor="start" x="260" y="-209" font-family="Helvetica,sans-Serif" font-size="10.00">Eigen::SparseMatrixBase</text>
<text text-anchor="middle" x="320" y="-198" font-family="Helvetica,sans-Serif" font-size="10.00">&lt; Derived &gt;</text>
</a>
</g>
</g>
<!-- Node8&#45;&gt;Node7 -->
<g id="edge7" class="edge"><title>Node8&#45;&gt;Node7</title>
<path fill="none" stroke="midnightblue" d="M398.702,-198.504C432.843,-195.21 472.977,-191.338 507.683,-187.99"/>
<polygon fill="midnightblue" stroke="midnightblue" points="397.929,-195.062 388.311,-199.506 398.601,-202.03 397.929,-195.062"/>
</g>
<!-- Node9 -->
<g id="node9" class="node"><title>Node9</title>
<g id="a_node9"><a xlink:href="structEigen_1_1EigenBase.html" target="_top" xlink:title="Eigen::EigenBase\&lt; Derived \&gt;">
<polygon fill="none" stroke="black" points="0,-196.5 0,-215.5 158,-215.5 158,-196.5 0,-196.5"/>
<text text-anchor="middle" x="79" y="-203.5" font-family="Helvetica,sans-Serif" font-size="10.00">Eigen::EigenBase&lt; Derived &gt;</text>
</a>
</g>
</g>
<!-- Node9&#45;&gt;Node8 -->
<g id="edge8" class="edge"><title>Node9&#45;&gt;Node8</title>
<path fill="none" stroke="midnightblue" d="M168.306,-206C195.907,-206 225.895,-206 251.799,-206"/>
<polygon fill="midnightblue" stroke="midnightblue" points="168.258,-202.5 158.258,-206 168.258,-209.5 168.258,-202.5"/>
</g>
<!-- Node10 -->
<g id="node10" class="node"><title>Node10</title>
<g id="a_node10"><a xlink:href="classbool.html" target="_top" xlink:title="bool">
<polygon fill="none" stroke="black" points="60.5,-249.5 60.5,-268.5 97.5,-268.5 97.5,-249.5 60.5,-249.5"/>
<text text-anchor="middle" x="79" y="-256.5" font-family="Helvetica,sans-Serif" font-size="10.00">bool</text>
</a>
</g>
</g>
<!-- Node10&#45;&gt;Node1 -->
<g id="edge16" class="edge"><title>Node10&#45;&gt;Node1</title>
<path fill="none" stroke="#9a32cd" stroke-dasharray="5,2" d="M107.703,-262.062C152.194,-266.707 242.356,-275 319,-275 319,-275 319,-275 861,-275 936.503,-275 1023.31,-288.709 1075.48,-298.455"/>
<polygon fill="#9a32cd" stroke="#9a32cd" points="107.977,-258.571 97.6628,-260.994 107.236,-265.532 107.977,-258.571"/>
<text text-anchor="start" x="528" y="-322" font-family="Helvetica,sans-Serif" font-size="10.00"> is_new_hamiltonianmatrix</text>
<text text-anchor="middle" x="591.5" y="-311" font-family="Helvetica,sans-Serif" font-size="10.00">_required</text>
<text text-anchor="middle" x="591.5" y="-300" font-family="Helvetica,sans-Serif" font-size="10.00">memory_saving</text>
<text text-anchor="start" x="528" y="-289" font-family="Helvetica,sans-Serif" font-size="10.00">is_interaction_already</text>
<text text-anchor="middle" x="591.5" y="-278" font-family="Helvetica,sans-Serif" font-size="10.00">_contained</text>
</g>
<!-- Node10&#45;&gt;Node8 -->
<g id="edge9" class="edge"><title>Node10&#45;&gt;Node8</title>
<path fill="none" stroke="#9a32cd" stroke-dasharray="5,2" d="M107.538,-252.893C142.539,-245.132 204.141,-231.471 251.859,-220.889"/>
<polygon fill="#9a32cd" stroke="#9a32cd" points="106.579,-249.521 97.5742,-255.103 108.095,-256.355 106.579,-249.521"/>
<text text-anchor="middle" x="205" y="-241" font-family="Helvetica,sans-Serif" font-size="10.00"> m_isRValue</text>
</g>
<!-- Node11 -->
<g id="node11" class="node"><title>Node11</title>
<polygon fill="none" stroke="#bfbfbf" points="254.5,-91 254.5,-121 385.5,-121 385.5,-91 254.5,-91"/>
<text text-anchor="start" x="262.5" y="-109" font-family="Helvetica,sans-Serif" font-size="10.00">EIGEN_DEFAULT_DENSE</text>
<text text-anchor="middle" x="320" y="-98" font-family="Helvetica,sans-Serif" font-size="10.00">_INDEX_TYPE</text>
</g>
<!-- Node11&#45;&gt;Node6 -->
<g id="edge10" class="edge"><title>Node11&#45;&gt;Node6</title>
<path fill="none" stroke="#9a32cd" stroke-dasharray="5,2" d="M395.888,-108.239C484.781,-111.309 627.574,-117.655 680,-128 731.536,-138.169 788.574,-159.455 824.105,-173.989"/>
<polygon fill="#9a32cd" stroke="#9a32cd" points="395.972,-104.74 385.859,-107.898 395.734,-111.736 395.972,-104.74"/>
<text text-anchor="middle" x="591.5" y="-142" font-family="Helvetica,sans-Serif" font-size="10.00"> m_outerSize</text>
<text text-anchor="middle" x="591.5" y="-131" font-family="Helvetica,sans-Serif" font-size="10.00">m_innerSize</text>
</g>
<!-- Node13 -->
<g id="node13" class="node"><title>Node13</title>
<g id="a_node13"><a xlink:href="classEigen_1_1internal_1_1CompressedStorage.html" target="_top" xlink:title="Eigen::internal::Compressed\lStorage\&lt; Scalar, StorageIndex \&gt;">
<polygon fill="none" stroke="black" points="503,-42 503,-72 680,-72 680,-42 503,-42"/>
<text text-anchor="start" x="511" y="-60" font-family="Helvetica,sans-Serif" font-size="10.00">Eigen::internal::Compressed</text>
<text text-anchor="middle" x="591.5" y="-49" font-family="Helvetica,sans-Serif" font-size="10.00">Storage&lt; Scalar, StorageIndex &gt;</text>
</a>
</g>
</g>
<!-- Node11&#45;&gt;Node13 -->
<g id="edge13" class="edge"><title>Node11&#45;&gt;Node13</title>
<path fill="none" stroke="#9a32cd" stroke-dasharray="5,2" d="M382.378,-88.4239C390.291,-86.4435 398.313,-84.5753 406,-83 437.372,-76.5709 472.072,-71.226 502.834,-67.0882"/>
<polygon fill="#9a32cd" stroke="#9a32cd" points="381.259,-85.0977 372.447,-90.9787 383.003,-91.8769 381.259,-85.0977"/>
<text text-anchor="middle" x="445.5" y="-97" font-family="Helvetica,sans-Serif" font-size="10.00"> m_size</text>
<text text-anchor="middle" x="445.5" y="-86" font-family="Helvetica,sans-Serif" font-size="10.00">m_allocatedSize</text>
</g>
<!-- Node12 -->
<g id="node12" class="node"><title>Node12</title>
<polygon fill="none" stroke="#bfbfbf" points="551.5,-219.5 551.5,-238.5 631.5,-238.5 631.5,-219.5 551.5,-219.5"/>
<text text-anchor="middle" x="591.5" y="-226.5" font-family="Helvetica,sans-Serif" font-size="10.00">StorageIndex</text>
</g>
<!-- Node12&#45;&gt;Node6 -->
<g id="edge11" class="edge"><title>Node12&#45;&gt;Node6</title>
<path fill="none" stroke="#9a32cd" stroke-dasharray="5,2" d="M641.846,-221.616C680.949,-215.761 736.97,-207.368 786,-200 791.83,-199.124 797.922,-198.207 803.994,-197.293"/>
<polygon fill="#9a32cd" stroke="#9a32cd" points="641.157,-218.18 631.785,-223.122 642.193,-225.102 641.157,-218.18"/>
<text text-anchor="middle" x="742" y="-227" font-family="Helvetica,sans-Serif" font-size="10.00"> m_outerIndex</text>
<text text-anchor="middle" x="742" y="-216" font-family="Helvetica,sans-Serif" font-size="10.00">m_innerNonZeros</text>
</g>
<!-- Node13&#45;&gt;Node6 -->
<g id="edge12" class="edge"><title>Node13&#45;&gt;Node6</title>
<path fill="none" stroke="#9a32cd" stroke-dasharray="5,2" d="M690.323,-55.0828C724.409,-59.3103 760.472,-70.0257 786,-94 809.416,-115.991 783.357,-139.388 804,-164 807.235,-167.857 811.191,-171.147 815.483,-173.947"/>
<polygon fill="#9a32cd" stroke="#9a32cd" points="690.613,-51.594 680.299,-54.014 689.871,-58.5546 690.613,-51.594"/>
<text text-anchor="middle" x="742" y="-97" font-family="Helvetica,sans-Serif" font-size="10.00"> m_data</text>
</g>
<!-- Node14 -->
<g id="node14" class="node"><title>Node14</title>
<polygon fill="none" stroke="#bfbfbf" points="275.5,-38.5 275.5,-57.5 364.5,-57.5 364.5,-38.5 275.5,-38.5"/>
<text text-anchor="middle" x="320" y="-45.5" font-family="Helvetica,sans-Serif" font-size="10.00">StorageIndex *</text>
</g>
<!-- Node14&#45;&gt;Node13 -->
<g id="edge14" class="edge"><title>Node14&#45;&gt;Node13</title>
<path fill="none" stroke="#9a32cd" stroke-dasharray="5,2" d="M374.582,-47.387C406.633,-47.2545 448.162,-47.4928 485,-49 490.781,-49.2365 496.737,-49.536 502.737,-49.8793"/>
<polygon fill="#9a32cd" stroke="#9a32cd" points="374.507,-43.8873 364.526,-47.4419 374.545,-50.8872 374.507,-43.8873"/>
<text text-anchor="middle" x="445.5" y="-52" font-family="Helvetica,sans-Serif" font-size="10.00"> m_indices</text>
</g>
<!-- Node15 -->
<g id="node15" class="node"><title>Node15</title>
<polygon fill="none" stroke="#bfbfbf" points="292.5,-0.5 292.5,-19.5 347.5,-19.5 347.5,-0.5 292.5,-0.5"/>
<text text-anchor="middle" x="320" y="-7.5" font-family="Helvetica,sans-Serif" font-size="10.00">Scalar *</text>
</g>
<!-- Node15&#45;&gt;Node13 -->
<g id="edge15" class="edge"><title>Node15&#45;&gt;Node13</title>
<path fill="none" stroke="#9a32cd" stroke-dasharray="5,2" d="M357.716,-14.2497C391.048,-18.3209 441.494,-25.0153 485,-33 499.134,-35.5939 514.241,-38.7807 528.478,-41.9744"/>
<polygon fill="#9a32cd" stroke="#9a32cd" points="357.873,-10.7434 347.526,-13.0218 357.036,-17.6931 357.873,-10.7434"/>
<text text-anchor="middle" x="445.5" y="-36" font-family="Helvetica,sans-Serif" font-size="10.00"> m_values</text>
</g>
<!-- Node16 -->
<g id="node16" class="node"><title>Node16</title>
<polygon fill="none" stroke="#bfbfbf" points="841,-135.5 841,-154.5 879,-154.5 879,-135.5 841,-135.5"/>
<text text-anchor="middle" x="860" y="-142.5" font-family="Helvetica,sans-Serif" font-size="10.00">type</text>
</g>
<!-- Node16&#45;&gt;Node1 -->
<g id="edge17" class="edge"><title>Node16&#45;&gt;Node1</title>
<path fill="none" stroke="#9a32cd" stroke-dasharray="5,2" d="M888.988,-139.071C929.131,-132.226 1003.64,-125.879 1053,-160 1101.8,-193.737 1117.24,-271.033 1121.27,-298.277"/>
<polygon fill="#9a32cd" stroke="#9a32cd" points="888.295,-135.64 879.093,-140.889 889.561,-142.524 888.295,-135.64"/>
<text text-anchor="middle" x="993.5" y="-163" font-family="Helvetica,sans-Serif" font-size="10.00"> states</text>
</g>
</g>
</svg>
        <g id="navigator" transform="translate(0 0)" fill="#404254">
                <rect fill="#f2f5e9" fill-opacity="0.5" stroke="#606060" stroke-width=".5" x="0" y="0" width="60" height="60"/>
                <use id="zoomplus" xlink:href="#zoomPlus" x="17" y="9" onmousedown="handleZoom(evt,'in')"/>
                <use id="zoomminus" xlink:href="#zoomMin" x="42" y="9" onmousedown="handleZoom(evt,'out')"/>
                <use id="reset" xlink:href="#resetDef" x="30" y="36" onmousedown="handleReset()"/>
                <g id="arrowUp" xlink:href="#dirArrow" transform="translate(30 24)" onmousedown="handlePan(0,-1)">
                  <use xlink:href="#rim" fill="#404040">
                        <set attributeName="fill" to="#808080" begin="arrowUp.mouseover" end="arrowUp.mouseout"/>
                  </use>
                  <path fill="none" stroke="white" stroke-width="1.5" d="M0,-3.0v7 M-2.5,-0.5L0,-3.0L2.5,-0.5"/>
                </g>
                <g id="arrowRight" xlink:href="#dirArrow" transform="rotate(90) translate(36 -43)" onmousedown="handlePan(1,0)">
                  <use xlink:href="#rim" fill="#404040">
                        <set attributeName="fill" to="#808080" begin="arrowRight.mouseover" end="arrowRight.mouseout"/>
                  </use>
                  <path fill="none" stroke="white" stroke-width="1.5" d="M0,-3.0v7 M-2.5,-0.5L0,-3.0L2.5,-0.5"/>
                </g>
                <g id="arrowDown" xlink:href="#dirArrow" transform="rotate(180) translate(-30 -48)" onmousedown="handlePan(0,1)">
                  <use xlink:href="#rim" fill="#404040">
                        <set attributeName="fill" to="#808080" begin="arrowDown.mouseover" end="arrowDown.mouseout"/>
                  </use>
                  <path fill="none" stroke="white" stroke-width="1.5" d="M0,-3.0v7 M-2.5,-0.5L0,-3.0L2.5,-0.5"/>
                </g>
                <g id="arrowLeft" xlink:href="#dirArrow" transform="rotate(270) translate(-36 17)" onmousedown="handlePan(-1,0)">
                  <use xlink:href="#rim" fill="#404040">
                        <set attributeName="fill" to="#808080" begin="arrowLeft.mouseover" end="arrowLeft.mouseout"/>
                  </use>
                  <path fill="none" stroke="white" stroke-width="1.5" d="M0,-3.0v7 M-2.5,-0.5L0,-3.0L2.5,-0.5"/>
                </g>
        </g>
        <svg viewBox="0 0 15 15" width="100%" height="30px" preserveAspectRatio="xMaxYMin meet">
         <g id="arrow_out" transform="scale(0.3 0.3)">
          <a xlink:href="classSystemBase__coll__graph_org.svg" target="_base">
           <rect id="button" ry="5" rx="5" y="6" x="6" height="38" width="38"
                fill="#f2f5e9" fill-opacity="0.5" stroke="#606060" stroke-width="1.0"/>
           <path id="arrow"
             d="M 11.500037,31.436501 C 11.940474,20.09759 22.043105,11.32322 32.158766,21.979434 L 37.068811,17.246167 C 37.068811,17.246167 37.088388,32 37.088388,32 L 22.160133,31.978069 C 22.160133,31.978069 26.997745,27.140456 26.997745,27.140456 C 18.528582,18.264221 13.291696,25.230495 11.500037,31.436501 z"
             style="fill:#404040;"/>
          </a>
         </g>
        </svg>
</svg>
