<?xml version="1.0" encoding="UTF-8" standalone="no"?>
<!DOCTYPE svg PUBLIC "-//W3C//DTD SVG 1.1//EN"
 "http://www.w3.org/Graphics/SVG/1.1/DTD/svg11.dtd">
<!-- Generated by graphviz version 2.38.0 (20140413.2041)
 -->
<!-- Title: Eigen::GeneralizedEigenSolver&lt; _MatrixType &gt; Pages: 1 -->
<svg width="981pt" height="270pt"
 viewBox="0.00 0.00 981.00 270.00" xmlns="http://www.w3.org/2000/svg" xmlns:xlink="http://www.w3.org/1999/xlink">
<g id="graph0" class="graph" transform="scale(1 1) rotate(0) translate(4 266)">
<title>Eigen::GeneralizedEigenSolver&lt; _MatrixType &gt;</title>
<!-- Node1 -->
<g id="node1" class="node"><title>Node1</title>
<polygon fill="#bfbfbf" stroke="black" points="811,-105 811,-135 973,-135 973,-105 811,-105"/>
<text text-anchor="start" x="819" y="-123" font-family="Helvetica,sans-Serif" font-size="10.00">Eigen::GeneralizedEigenSolver</text>
<text text-anchor="middle" x="892" y="-112" font-family="Helvetica,sans-Serif" font-size="10.00">&lt; _MatrixType &gt;</text>
</g>
<!-- Node2 -->
<g id="node2" class="node"><title>Node2</title>
<g id="a_node2"><a xlink:href="classEigen_1_1Matrix.html" target="_top" xlink:title="Eigen::Matrix\&lt; ComplexScalar,\l RowsAtCompileTime, ColsAtCompile\lTime, Options, MaxRowsAtCompileTime,\l MaxColsAtCompileTime \&gt;">
<polygon fill="none" stroke="black" points="482.5,-149 482.5,-201 689.5,-201 689.5,-149 482.5,-149"/>
<text text-anchor="start" x="490.5" y="-189" font-family="Helvetica,sans-Serif" font-size="10.00">Eigen::Matrix&lt; ComplexScalar,</text>
<text text-anchor="start" x="490.5" y="-178" font-family="Helvetica,sans-Serif" font-size="10.00"> RowsAtCompileTime, ColsAtCompile</text>
<text text-anchor="start" x="490.5" y="-167" font-family="Helvetica,sans-Serif" font-size="10.00">Time, Options, MaxRowsAtCompileTime,</text>
<text text-anchor="middle" x="586" y="-156" font-family="Helvetica,sans-Serif" font-size="10.00"> MaxColsAtCompileTime &gt;</text>
</a>
</g>
</g>
<!-- Node2&#45;&gt;Node1 -->
<g id="edge1" class="edge"><title>Node2&#45;&gt;Node1</title>
<path fill="none" stroke="#9a32cd" stroke-dasharray="5,2" d="M700.192,-154.521C736.94,-147.873 776.933,-140.637 810.767,-134.516"/>
<polygon fill="#9a32cd" stroke="#9a32cd" points="699.138,-151.155 689.921,-156.38 700.384,-158.043 699.138,-151.155"/>
<text text-anchor="middle" x="754" y="-154" font-family="Helvetica,sans-Serif" font-size="10.00"> m_eivec</text>
</g>
<!-- Node3 -->
<g id="node3" class="node"><title>Node3</title>
<g id="a_node3"><a xlink:href="classEigen_1_1PlainObjectBase.html" target="_top" xlink:title="Eigen::PlainObjectBase\l\&lt; Matrix\&lt; ComplexScalar,\l _Rows, _Cols, _Options,\l _MaxRows, _MaxCols \&gt; \&gt;">
<polygon fill="none" stroke="black" points="291.5,-149 291.5,-201 434.5,-201 434.5,-149 291.5,-149"/>
<text text-anchor="start" x="299.5" y="-189" font-family="Helvetica,sans-Serif" font-size="10.00">Eigen::PlainObjectBase</text>
<text text-anchor="start" x="299.5" y="-178" font-family="Helvetica,sans-Serif" font-size="10.00">&lt; Matrix&lt; ComplexScalar,</text>
<text text-anchor="start" x="299.5" y="-167" font-family="Helvetica,sans-Serif" font-size="10.00"> _Rows, _Cols, _Options,</text>
<text text-anchor="middle" x="363" y="-156" font-family="Helvetica,sans-Serif" font-size="10.00"> _MaxRows, _MaxCols &gt; &gt;</text>
</a>
</g>
</g>
<!-- Node3&#45;&gt;Node2 -->
<g id="edge2" class="edge"><title>Node3&#45;&gt;Node2</title>
<path fill="none" stroke="midnightblue" d="M444.633,-175C456.821,-175 469.533,-175 482.112,-175"/>
<polygon fill="midnightblue" stroke="midnightblue" points="444.533,-171.5 434.533,-175 444.533,-178.5 444.533,-171.5"/>
</g>
<!-- Node9 -->
<g id="node9" class="node"><title>Node9</title>
<g id="a_node9"><a xlink:href="classEigen_1_1Matrix.html" target="_top" xlink:title="Eigen::Matrix\&lt; ComplexScalar,\l ColsAtCompileTime, 1, Options\l &amp;~RowMajor, MaxColsAtCompileTime, 1 \&gt;">
<polygon fill="none" stroke="black" points="475,-220.5 475,-261.5 697,-261.5 697,-220.5 475,-220.5"/>
<text text-anchor="start" x="483" y="-249.5" font-family="Helvetica,sans-Serif" font-size="10.00">Eigen::Matrix&lt; ComplexScalar,</text>
<text text-anchor="start" x="483" y="-238.5" font-family="Helvetica,sans-Serif" font-size="10.00"> ColsAtCompileTime, 1, Options</text>
<text text-anchor="middle" x="586" y="-227.5" font-family="Helvetica,sans-Serif" font-size="10.00"> &amp;~RowMajor, MaxColsAtCompileTime, 1 &gt;</text>
</a>
</g>
</g>
<!-- Node3&#45;&gt;Node9 -->
<g id="edge11" class="edge"><title>Node3&#45;&gt;Node9</title>
<path fill="none" stroke="midnightblue" d="M444.401,-201.571C454.676,-204.821 465.07,-208.037 475,-211 485.622,-214.169 496.861,-217.387 507.938,-220.481"/>
<polygon fill="midnightblue" stroke="midnightblue" points="445.195,-198.151 434.604,-198.452 443.071,-204.821 445.195,-198.151"/>
</g>
<!-- Node4 -->
<g id="node4" class="node"><title>Node4</title>
<polygon fill="none" stroke="#bfbfbf" points="33,-153 33,-183 164,-183 164,-153 33,-153"/>
<text text-anchor="start" x="41" y="-171" font-family="Helvetica,sans-Serif" font-size="10.00">internal::dense_xpr</text>
<text text-anchor="middle" x="98.5" y="-160" font-family="Helvetica,sans-Serif" font-size="10.00">_base::type&lt; Derived &gt;</text>
</g>
<!-- Node4&#45;&gt;Node3 -->
<g id="edge3" class="edge"><title>Node4&#45;&gt;Node3</title>
<path fill="none" stroke="midnightblue" d="M174.211,-169.992C210.965,-170.972 255.032,-172.148 291.238,-173.113"/>
<polygon fill="midnightblue" stroke="midnightblue" points="174.141,-166.489 164.051,-169.721 173.954,-173.487 174.141,-166.489"/>
</g>
<!-- Node7 -->
<g id="node7" class="node"><title>Node7</title>
<g id="a_node7"><a xlink:href="classEigen_1_1PlainObjectBase.html" target="_top" xlink:title="Eigen::PlainObjectBase\l\&lt; Matrix\&lt; Scalar, _Rows,\l _Cols, _Options, _MaxRows,\l _MaxCols \&gt; \&gt;">
<polygon fill="none" stroke="black" points="288,-64 288,-116 438,-116 438,-64 288,-64"/>
<text text-anchor="start" x="296" y="-104" font-family="Helvetica,sans-Serif" font-size="10.00">Eigen::PlainObjectBase</text>
<text text-anchor="start" x="296" y="-93" font-family="Helvetica,sans-Serif" font-size="10.00">&lt; Matrix&lt; Scalar, _Rows,</text>
<text text-anchor="start" x="296" y="-82" font-family="Helvetica,sans-Serif" font-size="10.00"> _Cols, _Options, _MaxRows,</text>
<text text-anchor="middle" x="363" y="-71" font-family="Helvetica,sans-Serif" font-size="10.00"> _MaxCols &gt; &gt;</text>
</a>
</g>
</g>
<!-- Node4&#45;&gt;Node7 -->
<g id="edge7" class="edge"><title>Node4&#45;&gt;Node7</title>
<path fill="none" stroke="midnightblue" d="M174.194,-158.593C204.424,-153.603 239.353,-146.312 270,-136 285.402,-130.818 301.479,-123.507 315.805,-116.236"/>
<polygon fill="midnightblue" stroke="midnightblue" points="173.459,-155.166 164.135,-160.198 174.562,-162.079 173.459,-155.166"/>
</g>
<!-- Node5 -->
<g id="node5" class="node"><title>Node5</title>
<g id="a_node5"><a xlink:href="classEigen_1_1DenseStorage.html" target="_top" xlink:title="Eigen::DenseStorage\l\&lt; Scalar, Base::MaxSizeAtCompile\lTime, Base::RowsAtCompileTime,\l Base::ColsAtCompileTime, Options \&gt;">
<polygon fill="none" stroke="black" points="0,-70 0,-122 197,-122 197,-70 0,-70"/>
<text text-anchor="start" x="8" y="-110" font-family="Helvetica,sans-Serif" font-size="10.00">Eigen::DenseStorage</text>
<text text-anchor="start" x="8" y="-99" font-family="Helvetica,sans-Serif" font-size="10.00">&lt; Scalar, Base::MaxSizeAtCompile</text>
<text text-anchor="start" x="8" y="-88" font-family="Helvetica,sans-Serif" font-size="10.00">Time, Base::RowsAtCompileTime,</text>
<text text-anchor="middle" x="98.5" y="-77" font-family="Helvetica,sans-Serif" font-size="10.00"> Base::ColsAtCompileTime, Options &gt;</text>
</a>
</g>
</g>
<!-- Node5&#45;&gt;Node3 -->
<g id="edge4" class="edge"><title>Node5&#45;&gt;Node3</title>
<path fill="none" stroke="#9a32cd" stroke-dasharray="5,2" d="M195.867,-125.002C227.409,-134.495 261.85,-144.86 291.153,-153.678"/>
<polygon fill="#9a32cd" stroke="#9a32cd" points="196.764,-121.617 186.18,-122.086 194.747,-128.32 196.764,-121.617"/>
<text text-anchor="middle" x="242.5" y="-151" font-family="Helvetica,sans-Serif" font-size="10.00"> m_storage</text>
</g>
<!-- Node5&#45;&gt;Node7 -->
<g id="edge8" class="edge"><title>Node5&#45;&gt;Node7</title>
<path fill="none" stroke="#9a32cd" stroke-dasharray="5,2" d="M207.278,-91.2084C209.877,-91.1334 212.454,-91.0637 215,-91 238.727,-90.4059 264.616,-90.1115 287.963,-89.9774"/>
<polygon fill="#9a32cd" stroke="#9a32cd" points="207.051,-87.7136 197.164,-91.5216 207.268,-94.7103 207.051,-87.7136"/>
<text text-anchor="middle" x="242.5" y="-94" font-family="Helvetica,sans-Serif" font-size="10.00"> m_storage</text>
</g>
<!-- Node6 -->
<g id="node6" class="node"><title>Node6</title>
<g id="a_node6"><a xlink:href="classEigen_1_1Matrix.html" target="_top" xlink:title="Eigen::Matrix\&lt; Scalar,\l ColsAtCompileTime, 1,\l Options &amp;~RowMajor, MaxCols\lAtCompileTime, 1 \&gt;">
<polygon fill="none" stroke="black" points="503,-39 503,-91 669,-91 669,-39 503,-39"/>
<text text-anchor="start" x="511" y="-79" font-family="Helvetica,sans-Serif" font-size="10.00">Eigen::Matrix&lt; Scalar,</text>
<text text-anchor="start" x="511" y="-68" font-family="Helvetica,sans-Serif" font-size="10.00"> ColsAtCompileTime, 1,</text>
<text text-anchor="start" x="511" y="-57" font-family="Helvetica,sans-Serif" font-size="10.00"> Options &amp;~RowMajor, MaxCols</text>
<text text-anchor="middle" x="586" y="-46" font-family="Helvetica,sans-Serif" font-size="10.00">AtCompileTime, 1 &gt;</text>
</a>
</g>
</g>
<!-- Node6&#45;&gt;Node1 -->
<g id="edge5" class="edge"><title>Node6&#45;&gt;Node1</title>
<path fill="none" stroke="#9a32cd" stroke-dasharray="5,2" d="M679.211,-81.6829C721.171,-89.2743 770.362,-98.1741 810.77,-105.485"/>
<polygon fill="#9a32cd" stroke="#9a32cd" points="679.73,-78.2201 669.267,-79.8838 678.484,-85.1083 679.73,-78.2201"/>
<text text-anchor="middle" x="754" y="-106" font-family="Helvetica,sans-Serif" font-size="10.00"> m_betas</text>
</g>
<!-- Node7&#45;&gt;Node6 -->
<g id="edge6" class="edge"><title>Node7&#45;&gt;Node6</title>
<path fill="none" stroke="midnightblue" d="M448.527,-80.4381C466.271,-78.4309 484.962,-76.3165 502.626,-74.3184"/>
<polygon fill="midnightblue" stroke="midnightblue" points="447.748,-77.0039 438.205,-81.6058 448.535,-83.9595 447.748,-77.0039"/>
</g>
<!-- Node8 -->
<g id="node8" class="node"><title>Node8</title>
<g id="a_node8"><a xlink:href="classEigen_1_1RealQZ.html" target="_top" xlink:title="Eigen::RealQZ\&lt; MatrixType \&gt;">
<polygon fill="none" stroke="black" points="508,-110.5 508,-129.5 664,-129.5 664,-110.5 508,-110.5"/>
<text text-anchor="middle" x="586" y="-117.5" font-family="Helvetica,sans-Serif" font-size="10.00">Eigen::RealQZ&lt; MatrixType &gt;</text>
</a>
</g>
</g>
<!-- Node8&#45;&gt;Node1 -->
<g id="edge9" class="edge"><title>Node8&#45;&gt;Node1</title>
<path fill="none" stroke="#9a32cd" stroke-dasharray="5,2" d="M674.275,-120C717.28,-120 768.785,-120 810.793,-120"/>
<polygon fill="#9a32cd" stroke="#9a32cd" points="674.105,-116.5 664.105,-120 674.105,-123.5 674.105,-116.5"/>
<text text-anchor="middle" x="754" y="-123" font-family="Helvetica,sans-Serif" font-size="10.00"> m_realQZ</text>
</g>
<!-- Node9&#45;&gt;Node1 -->
<g id="edge10" class="edge"><title>Node9&#45;&gt;Node1</title>
<path fill="none" stroke="#9a32cd" stroke-dasharray="5,2" d="M678.526,-217.339C684.817,-215.314 691.026,-213.196 697,-211 757.756,-188.664 825.545,-154.652 862.739,-135.154"/>
<polygon fill="#9a32cd" stroke="#9a32cd" points="677.097,-214.118 668.596,-220.441 679.185,-220.8 677.097,-214.118"/>
<text text-anchor="middle" x="754" y="-216" font-family="Helvetica,sans-Serif" font-size="10.00"> m_alphas</text>
<text text-anchor="middle" x="754" y="-205" font-family="Helvetica,sans-Serif" font-size="10.00">m_tmp</text>
</g>
<!-- Node10 -->
<g id="node10" class="node"><title>Node10</title>
<g id="a_node10"><a xlink:href="classbool.html" target="_top" xlink:title="bool">
<polygon fill="none" stroke="black" points="567.5,-0.5 567.5,-19.5 604.5,-19.5 604.5,-0.5 567.5,-0.5"/>
<text text-anchor="middle" x="586" y="-7.5" font-family="Helvetica,sans-Serif" font-size="10.00">bool</text>
</a>
</g>
</g>
<!-- Node10&#45;&gt;Node1 -->
<g id="edge12" class="edge"><title>Node10&#45;&gt;Node1</title>
<path fill="none" stroke="#9a32cd" stroke-dasharray="5,2" d="M614.893,-13.4152C637.308,-16.4942 669.48,-21.6696 697,-29 740.884,-40.6892 751.804,-44.8878 793,-64 819.131,-76.1228 847.565,-92.788 867.042,-104.782"/>
<polygon fill="#9a32cd" stroke="#9a32cd" points="615.109,-9.91334 604.737,-12.0718 614.191,-16.8529 615.109,-9.91334"/>
<text text-anchor="middle" x="754" y="-78" font-family="Helvetica,sans-Serif" font-size="10.00"> m_vectorsOkay</text>
<text text-anchor="middle" x="754" y="-67" font-family="Helvetica,sans-Serif" font-size="10.00">m_valuesOkay</text>
</g>
</g>
</svg>
