<?xml version="1.0" encoding="UTF-8" standalone="no"?>
<!DOCTYPE svg PUBLIC "-//W3C//DTD SVG 1.1//EN"
 "http://www.w3.org/Graphics/SVG/1.1/DTD/svg11.dtd">
<!-- Generated by graphviz version 2.38.0 (20140413.2041)
 -->
<!-- Title: Eigen::Array&lt; _Scalar, _Rows, _Cols, _Options, _MaxRows, _MaxCols &gt; Pages: 1 -->
<svg width="550pt" height="61pt"
 viewBox="0.00 0.00 550.00 61.00" xmlns="http://www.w3.org/2000/svg" xmlns:xlink="http://www.w3.org/1999/xlink">
<g id="graph0" class="graph" transform="scale(1 1) rotate(0) translate(4 57)">
<title>Eigen::Array&lt; _Scalar, _Rows, _Cols, _Options, _MaxRows, _MaxCols &gt;</title>
<!-- Node0 -->
<g id="node1" class="node"><title>Node0</title>
<polygon fill="#bfbfbf" stroke="black" points="411,-6 411,-47 542,-47 542,-6 411,-6"/>
<text text-anchor="start" x="419" y="-35" font-family="Helvetica,sans-Serif" font-size="10.00">Eigen::Array&lt; _Scalar,</text>
<text text-anchor="start" x="419" y="-24" font-family="Helvetica,sans-Serif" font-size="10.00"> _Rows, _Cols, _Options,</text>
<text text-anchor="middle" x="476.5" y="-13" font-family="Helvetica,sans-Serif" font-size="10.00"> _MaxRows, _MaxCols &gt;</text>
</g>
<!-- Node1 -->
<g id="node2" class="node"><title>Node1</title>
<g id="a_node2"><a xlink:href="classEigen_1_1PlainObjectBase.html" target="_top" xlink:title="Eigen::PlainObjectBase\l\&lt; Array\&lt; _Scalar, _Rows,\l _Cols, _Options, _MaxRows,\l _MaxCols \&gt; \&gt;">
<polygon fill="none" stroke="black" points="225,-0.5 225,-52.5 375,-52.5 375,-0.5 225,-0.5"/>
<text text-anchor="start" x="233" y="-40.5" font-family="Helvetica,sans-Serif" font-size="10.00">Eigen::PlainObjectBase</text>
<text text-anchor="start" x="233" y="-29.5" font-family="Helvetica,sans-Serif" font-size="10.00">&lt; Array&lt; _Scalar, _Rows,</text>
<text text-anchor="start" x="233" y="-18.5" font-family="Helvetica,sans-Serif" font-size="10.00"> _Cols, _Options, _MaxRows,</text>
<text text-anchor="middle" x="300" y="-7.5" font-family="Helvetica,sans-Serif" font-size="10.00"> _MaxCols &gt; &gt;</text>
</a>
</g>
</g>
<!-- Node1&#45;&gt;Node0 -->
<g id="edge1" class="edge"><title>Node1&#45;&gt;Node0</title>
<path fill="none" stroke="midnightblue" d="M385.095,-26.5C393.725,-26.5 402.397,-26.5 410.771,-26.5"/>
<polygon fill="midnightblue" stroke="midnightblue" points="385.004,-23.0001 375.004,-26.5 385.004,-30.0001 385.004,-23.0001"/>
</g>
<!-- Node2 -->
<g id="node3" class="node"><title>Node2</title>
<polygon fill="none" stroke="#bfbfbf" points="0,-0.5 0,-52.5 189,-52.5 189,-0.5 0,-0.5"/>
<text text-anchor="start" x="8" y="-40.5" font-family="Helvetica,sans-Serif" font-size="10.00">internal::dense_xpr</text>
<text text-anchor="start" x="8" y="-29.5" font-family="Helvetica,sans-Serif" font-size="10.00">_base::type&lt; Array&lt;</text>
<text text-anchor="start" x="8" y="-18.5" font-family="Helvetica,sans-Serif" font-size="10.00"> _Scalar, _Rows, _Cols,</text>
<text text-anchor="middle" x="94.5" y="-7.5" font-family="Helvetica,sans-Serif" font-size="10.00"> _Options, _MaxRows, _MaxCols &gt; &gt;</text>
</g>
<!-- Node2&#45;&gt;Node1 -->
<g id="edge2" class="edge"><title>Node2&#45;&gt;Node1</title>
<path fill="none" stroke="midnightblue" d="M199.351,-26.5C207.996,-26.5 216.62,-26.5 224.975,-26.5"/>
<polygon fill="midnightblue" stroke="midnightblue" points="199.209,-23.0001 189.209,-26.5 199.209,-30.0001 199.209,-23.0001"/>
</g>
</g>
</svg>
