<?xml version="1.0" encoding="UTF-8" standalone="no"?>
<!DOCTYPE svg PUBLIC "-//W3C//DTD SVG 1.1//EN"
 "http://www.w3.org/Graphics/SVG/1.1/DTD/svg11.dtd">
<!-- Generated by graphviz version 2.38.0 (20140413.2041)
 -->
<!-- Title: Eigen::SparseMatrix::diagonal Pages: 1 -->
<!--zoomable 176 -->
<svg id="main" version="1.1" xmlns="http://www.w3.org/2000/svg" xmlns:xlink="http://www.w3.org/1999/xlink" xml:space="preserve" onload="init(evt)">
<style type="text/css"><![CDATA[
.edge:hover path { stroke: red; }
.edge:hover polygon { stroke: red; fill: red; }
]]></style>
<script type="text/javascript"><![CDATA[
var edges = document.getElementsByTagName('g');
if (edges && edges.length) {
  for (var i=0;i<edges.length;i++) {
    if (edges[i].id.substr(0,4)=='edge') {
      edges[i].setAttribute('class','edge');
    }
  }
}
]]></script>
        <defs>
                <circle id="rim" cx="0" cy="0" r="7"/>
                <circle id="rim2" cx="0" cy="0" r="3.5"/>
                <g id="zoomPlus">
                        <use xlink:href="#rim" fill="#404040">
                                <set attributeName="fill" to="#808080" begin="zoomplus.mouseover" end="zoomplus.mouseout"/>
                        </use>
                        <path d="M-4,0h8M0,-4v8" fill="none" stroke="white" stroke-width="1.5" pointer-events="none"/>
                </g>
                <g id="zoomMin">
                        <use xlink:href="#rim" fill="#404040">
                                <set attributeName="fill" to="#808080" begin="zoomminus.mouseover" end="zoomminus.mouseout"/>
                        </use>
                        <path d="M-4,0h8" fill="none" stroke="white" stroke-width="1.5" pointer-events="none"/>
                </g>
                <g id="dirArrow">
                        <path fill="none" stroke="white" stroke-width="1.5" d="M0,-3.0v7 M-2.5,-0.5L0,-3.0L2.5,-0.5"/>
                </g>
               <g id="resetDef">
                       <use xlink:href="#rim2" fill="#404040">
                               <set attributeName="fill" to="#808080" begin="reset.mouseover" end="reset.mouseout"/>
                       </use>
               </g>
        </defs>

<script type="text/javascript">
var viewWidth = 712;
var viewHeight = 176;
var sectionId = 'dynsection-5';
</script>
<script xlink:href="svgpan.js"/>
<svg id="graph" class="graph">
<g id="viewport">
<title>Eigen::SparseMatrix::diagonal</title>
<!-- Node94 -->
<g id="node1" class="node"><title>Node94</title>
<polygon fill="#bfbfbf" stroke="black" points="0,-74 0,-104 112,-104 112,-74 0,-74"/>
<text text-anchor="start" x="8" y="-92" font-family="Helvetica,sans-Serif" font-size="10.00">Eigen::SparseMatrix</text>
<text text-anchor="middle" x="56" y="-81" font-family="Helvetica,sans-Serif" font-size="10.00">::diagonal</text>
</g>
<!-- Node95 -->
<g id="node2" class="node"><title>Node95</title>
<g id="a_node2"><a xlink:href="classHamiltonianmatrix.html#ae853573db74eee2e78215465d08f1486" target="_top" xlink:title="Hamiltonianmatrix::\lapplyCutoff">
<polygon fill="none" stroke="black" points="165.5,-137 165.5,-167 276.5,-167 276.5,-137 165.5,-137"/>
<text text-anchor="start" x="173.5" y="-155" font-family="Helvetica,sans-Serif" font-size="10.00">Hamiltonianmatrix::</text>
<text text-anchor="middle" x="221" y="-144" font-family="Helvetica,sans-Serif" font-size="10.00">applyCutoff</text>
</a>
</g>
</g>
<!-- Node94&#45;&gt;Node95 -->
<g id="edge1" class="edge"><title>Node94&#45;&gt;Node95</title>
<path fill="none" stroke="midnightblue" d="M101.225,-108.108C116.019,-114.328 132.65,-121.136 148,-127 156.776,-130.352 166.223,-133.768 175.292,-136.955"/>
<polygon fill="midnightblue" stroke="midnightblue" points="102.374,-104.794 91.8006,-104.121 99.6468,-111.241 102.374,-104.794"/>
</g>
<!-- Node96 -->
<g id="node3" class="node"><title>Node96</title>
<g id="a_node3"><a xlink:href="Hamiltonianmatrix_8cpp.html#a791b0058df01d49e6700e531334f3df7" target="_top" xlink:title="combine">
<polygon fill="none" stroke="black" points="192,-98.5 192,-117.5 250,-117.5 250,-98.5 192,-98.5"/>
<text text-anchor="middle" x="221" y="-105.5" font-family="Helvetica,sans-Serif" font-size="10.00">combine</text>
</a>
</g>
</g>
<!-- Node94&#45;&gt;Node96 -->
<g id="edge2" class="edge"><title>Node94&#45;&gt;Node96</title>
<path fill="none" stroke="midnightblue" d="M122.401,-96.6235C146.583,-99.4422 172.734,-102.491 191.875,-104.722"/>
<polygon fill="midnightblue" stroke="midnightblue" points="122.522,-93.114 112.184,-95.4325 121.712,-100.067 122.522,-93.114"/>
</g>
<!-- Node99 -->
<g id="node6" class="node"><title>Node99</title>
<g id="a_node6"><a xlink:href="Hamiltonianmatrix_8cpp.html#a678b50f9b12e7a3fa69970554dd5d206" target="_top" xlink:title="energycutoff">
<polygon fill="none" stroke="black" points="182.5,-60.5 182.5,-79.5 259.5,-79.5 259.5,-60.5 182.5,-60.5"/>
<text text-anchor="middle" x="221" y="-67.5" font-family="Helvetica,sans-Serif" font-size="10.00">energycutoff</text>
</a>
</g>
</g>
<!-- Node94&#45;&gt;Node99 -->
<g id="edge5" class="edge"><title>Node94&#45;&gt;Node99</title>
<path fill="none" stroke="midnightblue" d="M122.368,-81.3804C142.747,-79.0049 164.529,-76.466 182.336,-74.3903"/>
<polygon fill="midnightblue" stroke="midnightblue" points="121.712,-77.9331 112.184,-82.5675 122.522,-84.886 121.712,-77.9331"/>
</g>
<!-- Node100 -->
<g id="node7" class="node"><title>Node100</title>
<g id="a_node7"><a xlink:href="classEigen_1_1MatrixMarketIterator.html#ac938961d685306ef5b48d9943f7dcabd" target="_top" xlink:title="Eigen::MatrixMarketIterator\l::matrix">
<polygon fill="none" stroke="black" points="148,-11 148,-41 294,-41 294,-11 148,-11"/>
<text text-anchor="start" x="156" y="-29" font-family="Helvetica,sans-Serif" font-size="10.00">Eigen::MatrixMarketIterator</text>
<text text-anchor="middle" x="221" y="-18" font-family="Helvetica,sans-Serif" font-size="10.00">::matrix</text>
</a>
</g>
</g>
<!-- Node94&#45;&gt;Node100 -->
<g id="edge7" class="edge"><title>Node94&#45;&gt;Node100</title>
<path fill="none" stroke="midnightblue" d="M101.225,-69.8919C116.019,-63.6717 132.65,-56.8636 148,-51 156.776,-47.6476 166.223,-44.2317 175.292,-41.0454"/>
<polygon fill="midnightblue" stroke="midnightblue" points="99.6468,-66.7592 91.8006,-73.8788 102.374,-73.2061 99.6468,-66.7592"/>
</g>
<!-- Node97 -->
<g id="node4" class="node"><title>Node97</title>
<g id="a_node4"><a xlink:href="classHamiltonianTwo.html#a6ca0a318f25170b69e571a07064a5afb" target="_top" xlink:title="HamiltonianTwo::calculate">
<polygon fill="none" stroke="black" points="343.5,-76.5 343.5,-95.5 483.5,-95.5 483.5,-76.5 343.5,-76.5"/>
<text text-anchor="middle" x="413.5" y="-83.5" font-family="Helvetica,sans-Serif" font-size="10.00">HamiltonianTwo::calculate</text>
</a>
</g>
</g>
<!-- Node96&#45;&gt;Node97 -->
<g id="edge3" class="edge"><title>Node96&#45;&gt;Node97</title>
<path fill="none" stroke="midnightblue" d="M260.117,-103.598C283.851,-100.857 315.09,-97.2494 343.102,-94.0145"/>
<polygon fill="midnightblue" stroke="midnightblue" points="259.641,-100.13 250.109,-104.754 260.444,-107.083 259.641,-100.13"/>
</g>
<!-- Node98 -->
<g id="node5" class="node"><title>Node98</title>
<g id="a_node5"><a xlink:href="classHamiltonianTwo.html#a8d51d632bd7862cf1e566f6faf9ccc8c" target="_top" xlink:title="HamiltonianTwo::HamiltonianTwo">
<polygon fill="none" stroke="black" points="533,-76.5 533,-95.5 704,-95.5 704,-76.5 533,-76.5"/>
<text text-anchor="middle" x="618.5" y="-83.5" font-family="Helvetica,sans-Serif" font-size="10.00">HamiltonianTwo::HamiltonianTwo</text>
</a>
</g>
</g>
<!-- Node97&#45;&gt;Node98 -->
<g id="edge4" class="edge"><title>Node97&#45;&gt;Node98</title>
<path fill="none" stroke="midnightblue" d="M493.689,-86C506.536,-86 519.885,-86 532.856,-86"/>
<polygon fill="midnightblue" stroke="midnightblue" points="493.51,-82.5001 483.51,-86 493.51,-89.5001 493.51,-82.5001"/>
</g>
<!-- Node99&#45;&gt;Node97 -->
<g id="edge6" class="edge"><title>Node99&#45;&gt;Node97</title>
<path fill="none" stroke="midnightblue" d="M269.826,-74.0169C292.064,-75.8847 318.933,-78.1414 343.329,-80.1904"/>
<polygon fill="midnightblue" stroke="midnightblue" points="269.895,-70.5104 259.637,-73.1611 269.309,-77.4858 269.895,-70.5104"/>
</g>
<!-- Node101 -->
<g id="node8" class="node"><title>Node101</title>
<g id="a_node8"><a xlink:href="spbenchsolver_8h.html#ac81b22c63e6090bebae8f71644564c5a" target="_top" xlink:title="Browse_Matrices">
<polygon fill="none" stroke="black" points="570,-19.5 570,-38.5 667,-38.5 667,-19.5 570,-19.5"/>
<text text-anchor="middle" x="618.5" y="-26.5" font-family="Helvetica,sans-Serif" font-size="10.00">Browse_Matrices</text>
</a>
</g>
</g>
<!-- Node100&#45;&gt;Node101 -->
<g id="edge8" class="edge"><title>Node100&#45;&gt;Node101</title>
<path fill="none" stroke="midnightblue" d="M304.218,-28.5214C312.921,-28.7174 321.642,-28.8839 330,-29 414.47,-30.173 512.913,-29.795 569.932,-29.4041"/>
<polygon fill="midnightblue" stroke="midnightblue" points="304.111,-25.018 294.03,-28.2791 303.944,-32.016 304.111,-25.018"/>
</g>
<!-- Node102 -->
<g id="node9" class="node"><title>Node102</title>
<g id="a_node9"><a xlink:href="classEigen_1_1MatrixMarketIterator.html#ac141e537f3bc3a3c078a2780a6a956b6" target="_top" xlink:title="Eigen::MatrixMarketIterator::rhs">
<polygon fill="none" stroke="black" points="330,-0.5 330,-19.5 497,-19.5 497,-0.5 330,-0.5"/>
<text text-anchor="middle" x="413.5" y="-7.5" font-family="Helvetica,sans-Serif" font-size="10.00">Eigen::MatrixMarketIterator::rhs</text>
</a>
</g>
</g>
<!-- Node100&#45;&gt;Node102 -->
<g id="edge9" class="edge"><title>Node100&#45;&gt;Node102</title>
<path fill="none" stroke="midnightblue" d="M303.989,-19.1138C312.553,-18.3945 321.262,-17.663 329.833,-16.9431"/>
<polygon fill="midnightblue" stroke="midnightblue" points="303.692,-15.6263 294.02,-19.9511 304.278,-22.6018 303.692,-15.6263"/>
</g>
<!-- Node102&#45;&gt;Node101 -->
<g id="edge10" class="edge"><title>Node102&#45;&gt;Node101</title>
<path fill="none" stroke="midnightblue" d="M507.315,-18.6871C529,-20.7167 551.218,-22.7962 569.97,-24.5513"/>
<polygon fill="midnightblue" stroke="midnightblue" points="507.351,-15.1752 497.068,-17.728 506.698,-22.1448 507.351,-15.1752"/>
</g>
</g>
</svg>
        <g id="navigator" transform="translate(0 0)" fill="#404254">
                <rect fill="#f2f5e9" fill-opacity="0.5" stroke="#606060" stroke-width=".5" x="0" y="0" width="60" height="60"/>
                <use id="zoomplus" xlink:href="#zoomPlus" x="17" y="9" onmousedown="handleZoom(evt,'in')"/>
                <use id="zoomminus" xlink:href="#zoomMin" x="42" y="9" onmousedown="handleZoom(evt,'out')"/>
                <use id="reset" xlink:href="#resetDef" x="30" y="36" onmousedown="handleReset()"/>
                <g id="arrowUp" xlink:href="#dirArrow" transform="translate(30 24)" onmousedown="handlePan(0,-1)">
                  <use xlink:href="#rim" fill="#404040">
                        <set attributeName="fill" to="#808080" begin="arrowUp.mouseover" end="arrowUp.mouseout"/>
                  </use>
                  <path fill="none" stroke="white" stroke-width="1.5" d="M0,-3.0v7 M-2.5,-0.5L0,-3.0L2.5,-0.5"/>
                </g>
                <g id="arrowRight" xlink:href="#dirArrow" transform="rotate(90) translate(36 -43)" onmousedown="handlePan(1,0)">
                  <use xlink:href="#rim" fill="#404040">
                        <set attributeName="fill" to="#808080" begin="arrowRight.mouseover" end="arrowRight.mouseout"/>
                  </use>
                  <path fill="none" stroke="white" stroke-width="1.5" d="M0,-3.0v7 M-2.5,-0.5L0,-3.0L2.5,-0.5"/>
                </g>
                <g id="arrowDown" xlink:href="#dirArrow" transform="rotate(180) translate(-30 -48)" onmousedown="handlePan(0,1)">
                  <use xlink:href="#rim" fill="#404040">
                        <set attributeName="fill" to="#808080" begin="arrowDown.mouseover" end="arrowDown.mouseout"/>
                  </use>
                  <path fill="none" stroke="white" stroke-width="1.5" d="M0,-3.0v7 M-2.5,-0.5L0,-3.0L2.5,-0.5"/>
                </g>
                <g id="arrowLeft" xlink:href="#dirArrow" transform="rotate(270) translate(-36 17)" onmousedown="handlePan(-1,0)">
                  <use xlink:href="#rim" fill="#404040">
                        <set attributeName="fill" to="#808080" begin="arrowLeft.mouseover" end="arrowLeft.mouseout"/>
                  </use>
                  <path fill="none" stroke="white" stroke-width="1.5" d="M0,-3.0v7 M-2.5,-0.5L0,-3.0L2.5,-0.5"/>
                </g>
        </g>
        <svg viewBox="0 0 15 15" width="100%" height="30px" preserveAspectRatio="xMaxYMin meet">
         <g id="arrow_out" transform="scale(0.3 0.3)">
          <a xlink:href="classEigen_1_1SparseMatrix_a4423486f9fd64cbac7be06c748b37e0a_icgraph_org.svg" target="_base">
           <rect id="button" ry="5" rx="5" y="6" x="6" height="38" width="38"
                fill="#f2f5e9" fill-opacity="0.5" stroke="#606060" stroke-width="1.0"/>
           <path id="arrow"
             d="M 11.500037,31.436501 C 11.940474,20.09759 22.043105,11.32322 32.158766,21.979434 L 37.068811,17.246167 C 37.068811,17.246167 37.088388,32 37.088388,32 L 22.160133,31.978069 C 22.160133,31.978069 26.997745,27.140456 26.997745,27.140456 C 18.528582,18.264221 13.291696,25.230495 11.500037,31.436501 z"
             style="fill:#404040;"/>
          </a>
         </g>
        </svg>
</svg>
