<?xml version="1.0" encoding="UTF-8" standalone="no"?>
<!DOCTYPE svg PUBLIC "-//W3C//DTD SVG 1.1//EN"
 "http://www.w3.org/Graphics/SVG/1.1/DTD/svg11.dtd">
<!-- Generated by graphviz version 2.38.0 (20140413.2041)
 -->
<!-- Title: Eigen::Tensor::resize Pages: 1 -->
<svg width="465pt" height="127pt"
 viewBox="0.00 0.00 465.00 127.00" xmlns="http://www.w3.org/2000/svg" xmlns:xlink="http://www.w3.org/1999/xlink">
<g id="graph0" class="graph" transform="scale(1 1) rotate(0) translate(4 123)">
<title>Eigen::Tensor::resize</title>
<!-- Node238 -->
<g id="node1" class="node"><title>Node238</title>
<polygon fill="#bfbfbf" stroke="black" points="0,-50 0,-69 114,-69 114,-50 0,-50"/>
<text text-anchor="middle" x="57" y="-57" font-family="Helvetica,sans-Serif" font-size="10.00">Eigen::Tensor::resize</text>
</g>
<!-- Node239 -->
<g id="node2" class="node"><title>Node239</title>
<g id="a_node2"><a xlink:href="classtensor__interface.html#ae8b9ffe5345b1a8bed0d7ad9e6aa6590" target="_top" xlink:title="tensor_interface::matrix\l_from_stl">
<polygon fill="none" stroke="black" points="150,-88.5 150,-118.5 281,-118.5 281,-88.5 150,-88.5"/>
<text text-anchor="start" x="158" y="-106.5" font-family="Helvetica,sans-Serif" font-size="10.00">tensor_interface::matrix</text>
<text text-anchor="middle" x="215.5" y="-95.5" font-family="Helvetica,sans-Serif" font-size="10.00">_from_stl</text>
</a>
</g>
</g>
<!-- Node238&#45;&gt;Node239 -->
<g id="edge1" class="edge"><title>Node238&#45;&gt;Node239</title>
<path fill="none" stroke="midnightblue" d="M101.791,-71.8118C120.135,-76.9694 141.638,-83.0148 160.915,-88.4346"/>
<polygon fill="midnightblue" stroke="midnightblue" points="102.532,-68.3846 91.9582,-69.0473 100.638,-75.1233 102.532,-68.3846"/>
</g>
<!-- Node240 -->
<g id="node3" class="node"><title>Node240</title>
<g id="a_node3"><a xlink:href="cxx11__tensor__image__patch_8cpp.html#a96397d60a0ff9135771b1092efb26111" target="_top" xlink:title="test_imagenet_patches">
<polygon fill="none" stroke="black" points="150.5,-50 150.5,-69 280.5,-69 280.5,-50 150.5,-50"/>
<text text-anchor="middle" x="215.5" y="-57" font-family="Helvetica,sans-Serif" font-size="10.00">test_imagenet_patches</text>
</a>
</g>
</g>
<!-- Node238&#45;&gt;Node240 -->
<g id="edge2" class="edge"><title>Node238&#45;&gt;Node240</title>
<path fill="none" stroke="midnightblue" d="M124.121,-59.5C132.795,-59.5 141.673,-59.5 150.314,-59.5"/>
<polygon fill="midnightblue" stroke="midnightblue" points="124.058,-56.0001 114.058,-59.5 124.058,-63.0001 124.058,-56.0001"/>
</g>
<!-- Node242 -->
<g id="node5" class="node"><title>Node242</title>
<g id="a_node5"><a xlink:href="classtensor__interface.html#a1c684ab8c12594170aa1ae75468cb9bc" target="_top" xlink:title="tensor_interface::vector\l_from_stl">
<polygon fill="none" stroke="black" points="150,-0.5 150,-30.5 281,-30.5 281,-0.5 150,-0.5"/>
<text text-anchor="start" x="158" y="-18.5" font-family="Helvetica,sans-Serif" font-size="10.00">tensor_interface::vector</text>
<text text-anchor="middle" x="215.5" y="-7.5" font-family="Helvetica,sans-Serif" font-size="10.00">_from_stl</text>
</a>
</g>
</g>
<!-- Node238&#45;&gt;Node242 -->
<g id="edge4" class="edge"><title>Node238&#45;&gt;Node242</title>
<path fill="none" stroke="midnightblue" d="M101.791,-47.1882C120.135,-42.0306 141.638,-35.9852 160.915,-30.5654"/>
<polygon fill="midnightblue" stroke="midnightblue" points="100.638,-43.8767 91.9582,-49.9527 102.532,-50.6154 100.638,-43.8767"/>
</g>
<!-- Node241 -->
<g id="node4" class="node"><title>Node241</title>
<g id="a_node4"><a xlink:href="cxx11__tensor__image__patch_8cpp.html#ab20a651a95e730f52aa3ce5aae894fbf" target="_top" xlink:title="test_cxx11_tensor_image\l_patch">
<polygon fill="none" stroke="black" points="317,-44.5 317,-74.5 457,-74.5 457,-44.5 317,-44.5"/>
<text text-anchor="start" x="325" y="-62.5" font-family="Helvetica,sans-Serif" font-size="10.00">test_cxx11_tensor_image</text>
<text text-anchor="middle" x="387" y="-51.5" font-family="Helvetica,sans-Serif" font-size="10.00">_patch</text>
</a>
</g>
</g>
<!-- Node240&#45;&gt;Node241 -->
<g id="edge3" class="edge"><title>Node240&#45;&gt;Node241</title>
<path fill="none" stroke="midnightblue" d="M290.661,-59.5C299.325,-59.5 308.139,-59.5 316.733,-59.5"/>
<polygon fill="midnightblue" stroke="midnightblue" points="290.581,-56.0001 280.581,-59.5 290.581,-63.0001 290.581,-56.0001"/>
</g>
</g>
</svg>
