<?xml version="1.0" encoding="UTF-8" standalone="no"?>
<!DOCTYPE svg PUBLIC "-//W3C//DTD SVG 1.1//EN"
 "http://www.w3.org/Graphics/SVG/1.1/DTD/svg11.dtd">
<!-- Generated by graphviz version 2.38.0 (20140413.2041)
 -->
<!-- Title: Eigen::TensorRef&lt; PlainObjectType &gt; Pages: 1 -->
<svg width="300pt" height="184pt"
 viewBox="0.00 0.00 300.00 184.00" xmlns="http://www.w3.org/2000/svg" xmlns:xlink="http://www.w3.org/1999/xlink">
<g id="graph0" class="graph" transform="scale(1 1) rotate(0) translate(4 180)">
<title>Eigen::TensorRef&lt; PlainObjectType &gt;</title>
<!-- Node2 -->
<g id="node1" class="node"><title>Node2</title>
<polygon fill="#bfbfbf" stroke="black" points="123.5,-0.5 123.5,-30.5 281.5,-30.5 281.5,-0.5 123.5,-0.5"/>
<text text-anchor="start" x="131.5" y="-18.5" font-family="Helvetica,sans-Serif" font-size="10.00">Eigen::TensorRef&lt; PlainObject</text>
<text text-anchor="middle" x="202.5" y="-7.5" font-family="Helvetica,sans-Serif" font-size="10.00">Type &gt;</text>
</g>
<!-- Node3 -->
<g id="node2" class="node"><title>Node3</title>
<g id="a_node2"><a xlink:href="classEigen_1_1TensorBase.html" target="_top" xlink:title="Eigen::TensorBase\&lt;\l TensorRef\&lt; PlainObjectType \&gt; \&gt;">
<polygon fill="none" stroke="black" points="0,-78.5 0,-108.5 173,-108.5 173,-78.5 0,-78.5"/>
<text text-anchor="start" x="8" y="-96.5" font-family="Helvetica,sans-Serif" font-size="10.00">Eigen::TensorBase&lt;</text>
<text text-anchor="middle" x="86.5" y="-85.5" font-family="Helvetica,sans-Serif" font-size="10.00"> TensorRef&lt; PlainObjectType &gt; &gt;</text>
</a>
</g>
</g>
<!-- Node3&#45;&gt;Node2 -->
<g id="edge1" class="edge"><title>Node3&#45;&gt;Node2</title>
<path fill="none" stroke="midnightblue" d="M116.585,-72.789C136.799,-59.5455 162.953,-42.4101 181.069,-30.5413"/>
<polygon fill="midnightblue" stroke="midnightblue" points="114.493,-69.9752 108.047,-78.3831 118.33,-75.8304 114.493,-69.9752"/>
</g>
<!-- Node4 -->
<g id="node3" class="node"><title>Node4</title>
<polygon fill="none" stroke="#bfbfbf" points="72,-156.5 72,-175.5 101,-175.5 101,-156.5 72,-156.5"/>
<text text-anchor="middle" x="86.5" y="-163.5" font-family="Helvetica,sans-Serif" font-size="10.00">int</text>
</g>
<!-- Node4&#45;&gt;Node3 -->
<g id="edge2" class="edge"><title>Node4&#45;&gt;Node3</title>
<path fill="none" stroke="#9a32cd" stroke-dasharray="5,2" d="M86.5,-146.236C86.5,-134.408 86.5,-119.383 86.5,-108.576"/>
<polygon fill="#9a32cd" stroke="#9a32cd" points="83.0001,-146.355 86.5,-156.355 90.0001,-146.355 83.0001,-146.355"/>
<text text-anchor="middle" x="128" y="-130" font-family="Helvetica,sans-Serif" font-size="10.00"> NumDimensions</text>
</g>
<!-- Node5 -->
<g id="node4" class="node"><title>Node5</title>
<polygon fill="none" stroke="#bfbfbf" points="191,-84 191,-103 292,-103 292,-84 191,-84"/>
<text text-anchor="middle" x="241.5" y="-91" font-family="Helvetica,sans-Serif" font-size="10.00">static const Index</text>
</g>
<!-- Node5&#45;&gt;Node2 -->
<g id="edge3" class="edge"><title>Node5&#45;&gt;Node2</title>
<path fill="none" stroke="#9a32cd" stroke-dasharray="5,2" d="M232.304,-74.579C225.394,-61.1145 216.063,-42.9314 209.694,-30.5198"/>
<polygon fill="#9a32cd" stroke="#9a32cd" points="229.347,-76.4828 237.026,-83.7818 235.575,-73.2869 229.347,-76.4828"/>
<text text-anchor="middle" x="253.5" y="-52" font-family="Helvetica,sans-Serif" font-size="10.00"> NumIndices</text>
</g>
</g>
</svg>
