<?xml version="1.0" encoding="UTF-8" standalone="no"?>
<!DOCTYPE svg PUBLIC "-//W3C//DTD SVG 1.1//EN"
 "http://www.w3.org/Graphics/SVG/1.1/DTD/svg11.dtd">
<!-- Generated by graphviz version 2.38.0 (20140413.2041)
 -->
<!-- Title: MatrixElements::getRadial Pages: 1 -->
<svg width="325pt" height="268pt"
 viewBox="0.00 0.00 325.00 268.00" xmlns="http://www.w3.org/2000/svg" xmlns:xlink="http://www.w3.org/1999/xlink">
<g id="graph0" class="graph" transform="scale(1 1) rotate(0) translate(4 264)">
<title>MatrixElements::getRadial</title>
<!-- Node25 -->
<g id="node1" class="node"><title>Node25</title>
<polygon fill="#bfbfbf" stroke="black" points="0,-114.5 0,-133.5 141,-133.5 141,-114.5 0,-114.5"/>
<text text-anchor="middle" x="70.5" y="-121.5" font-family="Helvetica,sans-Serif" font-size="10.00">MatrixElements::getRadial</text>
</g>
<!-- Node26 -->
<g id="node2" class="node"><title>Node26</title>
<g id="a_node2"><a xlink:href="classsqlite_1_1statement.html#add6b491603e9505c82779ad762f72888" target="_top" xlink:title="Execute SQLite statements. ">
<polygon fill="none" stroke="black" points="183.5,-240.5 183.5,-259.5 310.5,-259.5 310.5,-240.5 183.5,-240.5"/>
<text text-anchor="middle" x="247" y="-247.5" font-family="Helvetica,sans-Serif" font-size="10.00">sqlite::statement::exec</text>
</a>
</g>
</g>
<!-- Node25&#45;&gt;Node26 -->
<g id="edge1" class="edge"><title>Node25&#45;&gt;Node26</title>
<path fill="none" stroke="midnightblue" d="M78.2021,-133.645C93.3106,-154.645 132.223,-204.73 177,-231 180.677,-233.157 184.608,-235.078 188.659,-236.786"/>
<polygon fill="midnightblue" stroke="midnightblue" points="187.673,-240.154 198.265,-240.398 190.137,-233.602 187.673,-240.154"/>
</g>
<!-- Node27 -->
<g id="node3" class="node"><title>Node27</title>
<g id="a_node3"><a xlink:href="classsqlite_1_1statement.html#a881b89458af4ea9bde7a80e416f53903" target="_top" xlink:title="Get value of a field. ">
<polygon fill="none" stroke="black" points="187,-202.5 187,-221.5 307,-221.5 307,-202.5 187,-202.5"/>
<text text-anchor="middle" x="247" y="-209.5" font-family="Helvetica,sans-Serif" font-size="10.00">sqlite::statement::get</text>
</a>
</g>
</g>
<!-- Node25&#45;&gt;Node27 -->
<g id="edge2" class="edge"><title>Node25&#45;&gt;Node27</title>
<path fill="none" stroke="midnightblue" d="M83.4383,-133.613C102.27,-148.345 140.495,-176.525 177,-193 182.296,-195.39 187.96,-197.541 193.68,-199.461"/>
<polygon fill="midnightblue" stroke="midnightblue" points="192.717,-202.827 203.306,-202.474 194.808,-196.146 192.717,-202.827"/>
</g>
<!-- Node28 -->
<g id="node4" class="node"><title>Node28</title>
<g id="a_node4"><a xlink:href="classsqlite_1_1statement.html#a1b40871fb975892f70ea097f7c6da9c1" target="_top" xlink:title="Prepare the statement. ">
<polygon fill="none" stroke="black" points="195,-153 195,-183 299,-183 299,-153 195,-153"/>
<text text-anchor="start" x="203" y="-171" font-family="Helvetica,sans-Serif" font-size="10.00">sqlite::statement::</text>
<text text-anchor="middle" x="247" y="-160" font-family="Helvetica,sans-Serif" font-size="10.00">prepare</text>
</a>
</g>
</g>
<!-- Node25&#45;&gt;Node28 -->
<g id="edge3" class="edge"><title>Node25&#45;&gt;Node28</title>
<path fill="none" stroke="midnightblue" d="M109.364,-133.547C131.487,-139.126 159.926,-146.296 185.125,-152.65"/>
<polygon fill="midnightblue" stroke="midnightblue" points="184.414,-156.081 194.967,-155.132 186.126,-149.293 184.414,-156.081"/>
</g>
<!-- Node29 -->
<g id="node5" class="node"><title>Node29</title>
<g id="a_node5"><a xlink:href="classStateTwo.html#a9bc7edda2944afa1f2c7ca87441e81b0" target="_top" xlink:title="StateTwo::second">
<polygon fill="none" stroke="black" points="197,-114.5 197,-133.5 297,-133.5 297,-114.5 197,-114.5"/>
<text text-anchor="middle" x="247" y="-121.5" font-family="Helvetica,sans-Serif" font-size="10.00">StateTwo::second</text>
</a>
</g>
</g>
<!-- Node25&#45;&gt;Node29 -->
<g id="edge4" class="edge"><title>Node25&#45;&gt;Node29</title>
<path fill="none" stroke="midnightblue" d="M141.219,-124C156.192,-124 171.883,-124 186.429,-124"/>
<polygon fill="midnightblue" stroke="midnightblue" points="186.791,-127.5 196.791,-124 186.791,-120.5 186.791,-127.5"/>
</g>
<!-- Node30 -->
<g id="node6" class="node"><title>Node30</title>
<g id="a_node6"><a xlink:href="MatrixElements_8cpp.html#af52815f624512751601fb56a7316f061" target="_top" xlink:title="selectionRulesMomentum">
<polygon fill="none" stroke="black" points="177,-76.5 177,-95.5 317,-95.5 317,-76.5 177,-76.5"/>
<text text-anchor="middle" x="247" y="-83.5" font-family="Helvetica,sans-Serif" font-size="10.00">selectionRulesMomentum</text>
</a>
</g>
</g>
<!-- Node25&#45;&gt;Node30 -->
<g id="edge5" class="edge"><title>Node25&#45;&gt;Node30</title>
<path fill="none" stroke="midnightblue" d="M115.534,-114.411C138.872,-109.329 167.73,-103.045 192.366,-97.6797"/>
<polygon fill="midnightblue" stroke="midnightblue" points="193.257,-101.068 202.283,-95.5201 191.767,-94.2281 193.257,-101.068"/>
</g>
<!-- Node31 -->
<g id="node7" class="node"><title>Node31</title>
<g id="a_node7"><a xlink:href="MatrixElements_8cpp.html#a0426020af6225ce85898528250c929b8" target="_top" xlink:title="selectionRulesMultipole">
<polygon fill="none" stroke="black" points="183.5,-38.5 183.5,-57.5 310.5,-57.5 310.5,-38.5 183.5,-38.5"/>
<text text-anchor="middle" x="247" y="-45.5" font-family="Helvetica,sans-Serif" font-size="10.00">selectionRulesMultipole</text>
</a>
</g>
</g>
<!-- Node25&#45;&gt;Node31 -->
<g id="edge6" class="edge"><title>Node25&#45;&gt;Node31</title>
<path fill="none" stroke="midnightblue" d="M86.6927,-114.359C106.729,-101.984 143.387,-80.5044 177,-67 182.902,-64.6289 189.202,-62.4465 195.505,-60.4719"/>
<polygon fill="midnightblue" stroke="midnightblue" points="196.769,-63.7478 205.356,-57.543 194.774,-57.0381 196.769,-63.7478"/>
</g>
<!-- Node32 -->
<g id="node8" class="node"><title>Node32</title>
<g id="a_node8"><a xlink:href="classsqlite_1_1statement.html#a0ef0c0c1fd66918b9a9c6167fd2e668f" target="_top" xlink:title="Step the statement. ">
<polygon fill="none" stroke="black" points="184.5,-0.5 184.5,-19.5 309.5,-19.5 309.5,-0.5 184.5,-0.5"/>
<text text-anchor="middle" x="247" y="-7.5" font-family="Helvetica,sans-Serif" font-size="10.00">sqlite::statement::step</text>
</a>
</g>
</g>
<!-- Node25&#45;&gt;Node32 -->
<g id="edge7" class="edge"><title>Node25&#45;&gt;Node32</title>
<path fill="none" stroke="midnightblue" d="M79.4346,-114.32C95.6962,-95.1195 134.842,-52.0799 177,-29 181.141,-26.7327 185.574,-24.7199 190.119,-22.9359"/>
<polygon fill="midnightblue" stroke="midnightblue" points="191.299,-26.2312 199.552,-19.5873 188.957,-19.6346 191.299,-26.2312"/>
</g>
</g>
</svg>
