<?xml version="1.0" encoding="UTF-8" standalone="no"?>
<!DOCTYPE svg PUBLIC "-//W3C//DTD SVG 1.1//EN"
 "http://www.w3.org/Graphics/SVG/1.1/DTD/svg11.dtd">
<!-- Generated by graphviz version 2.38.0 (20140413.2041)
 -->
<!-- Title: Eigen::SparseMatrix::resizeNonZeros Pages: 1 -->
<svg width="933pt" height="371pt"
 viewBox="0.00 0.00 933.00 370.50" xmlns="http://www.w3.org/2000/svg" xmlns:xlink="http://www.w3.org/1999/xlink">
<g id="graph0" class="graph" transform="scale(1 1) rotate(0) translate(4 366.5)">
<title>Eigen::SparseMatrix::resizeNonZeros</title>
<!-- Node327 -->
<g id="node1" class="node"><title>Node327</title>
<polygon fill="#bfbfbf" stroke="black" points="0,-121 0,-151 112,-151 112,-121 0,-121"/>
<text text-anchor="start" x="8" y="-139" font-family="Helvetica,sans-Serif" font-size="10.00">Eigen::SparseMatrix</text>
<text text-anchor="middle" x="56" y="-128" font-family="Helvetica,sans-Serif" font-size="10.00">::resizeNonZeros</text>
</g>
<!-- Node328 -->
<g id="node2" class="node"><title>Node328</title>
<g id="a_node2"><a xlink:href="classHamiltonianmatrix.html#a15bc9c823975f5395112432c5b8507db" target="_top" xlink:title="Hamiltonianmatrix::\ldoDeserialization">
<polygon fill="none" stroke="black" points="180.5,-288 180.5,-318 291.5,-318 291.5,-288 180.5,-288"/>
<text text-anchor="start" x="188.5" y="-306" font-family="Helvetica,sans-Serif" font-size="10.00">Hamiltonianmatrix::</text>
<text text-anchor="middle" x="236" y="-295" font-family="Helvetica,sans-Serif" font-size="10.00">doDeserialization</text>
</a>
</g>
</g>
<!-- Node327&#45;&gt;Node328 -->
<g id="edge1" class="edge"><title>Node327&#45;&gt;Node328</title>
<path fill="none" stroke="midnightblue" d="M78.7491,-158.583C96.9333,-177.26 123.721,-204.305 148,-227 171.295,-248.776 199.214,-272.82 217.027,-287.914"/>
<polygon fill="midnightblue" stroke="midnightblue" points="80.9908,-155.867 71.5151,-151.128 75.9671,-160.742 80.9908,-155.867"/>
</g>
<!-- Node335 -->
<g id="node9" class="node"><title>Node335</title>
<g id="a_node9"><a xlink:href="classEigen_1_1UmfPackLU.html#a782dbc0e1ee6cef571e11d6b70c822c1" target="_top" xlink:title="Eigen::UmfPackLU::extractData">
<polygon fill="none" stroke="black" points="153,-198.5 153,-217.5 319,-217.5 319,-198.5 153,-198.5"/>
<text text-anchor="middle" x="236" y="-205.5" font-family="Helvetica,sans-Serif" font-size="10.00">Eigen::UmfPackLU::extractData</text>
</a>
</g>
</g>
<!-- Node327&#45;&gt;Node335 -->
<g id="edge8" class="edge"><title>Node327&#45;&gt;Node335</title>
<path fill="none" stroke="midnightblue" d="M86.9459,-156.648C104.141,-167.668 126.527,-180.642 148,-189 157.797,-192.813 168.528,-195.942 179.005,-198.479"/>
<polygon fill="midnightblue" stroke="midnightblue" points="88.7442,-153.642 78.4592,-151.099 84.9132,-159.501 88.7442,-153.642"/>
</g>
<!-- Node341 -->
<g id="node15" class="node"><title>Node341</title>
<g id="a_node15"><a xlink:href="namespaceEigen_1_1internal.html#ac4cdf88f2d52d415825bd1d185d897d6" target="_top" xlink:title="Eigen::internal::minimum\l_degree_ordering">
<polygon fill="none" stroke="black" points="167.5,-149 167.5,-179 304.5,-179 304.5,-149 167.5,-149"/>
<text text-anchor="start" x="175.5" y="-167" font-family="Helvetica,sans-Serif" font-size="10.00">Eigen::internal::minimum</text>
<text text-anchor="middle" x="236" y="-156" font-family="Helvetica,sans-Serif" font-size="10.00">_degree_ordering</text>
</a>
</g>
</g>
<!-- Node327&#45;&gt;Node341 -->
<g id="edge14" class="edge"><title>Node327&#45;&gt;Node341</title>
<path fill="none" stroke="midnightblue" d="M122.353,-146.28C137.055,-148.593 152.685,-151.052 167.474,-153.378"/>
<polygon fill="midnightblue" stroke="midnightblue" points="122.767,-142.802 112.345,-144.706 121.679,-149.717 122.767,-142.802"/>
</g>
<!-- Node342 -->
<g id="node16" class="node"><title>Node342</title>
<g id="a_node16"><a xlink:href="structEigen_1_1internal_1_1Assignment_3_01DstXprType_00_01SrcXprType_00_01Functor_00_01Diagonal2Sparse_01_4.html#a3ebebc30f1ceca09787e5ad5c0fd9c43" target="_top" xlink:title="Eigen::internal::Assignment\l\&lt; DstXprType, SrcXprType,\l Functor, Diagonal2Sparse \&gt;::run">
<polygon fill="none" stroke="black" points="148,-88.5 148,-129.5 324,-129.5 324,-88.5 148,-88.5"/>
<text text-anchor="start" x="156" y="-117.5" font-family="Helvetica,sans-Serif" font-size="10.00">Eigen::internal::Assignment</text>
<text text-anchor="start" x="156" y="-106.5" font-family="Helvetica,sans-Serif" font-size="10.00">&lt; DstXprType, SrcXprType,</text>
<text text-anchor="middle" x="236" y="-95.5" font-family="Helvetica,sans-Serif" font-size="10.00"> Functor, Diagonal2Sparse &gt;::run</text>
</a>
</g>
</g>
<!-- Node327&#45;&gt;Node342 -->
<g id="edge15" class="edge"><title>Node327&#45;&gt;Node342</title>
<path fill="none" stroke="midnightblue" d="M122.36,-126.086C130.711,-124.819 139.361,-123.507 147.986,-122.199"/>
<polygon fill="midnightblue" stroke="midnightblue" points="121.707,-122.645 112.345,-127.605 122.756,-129.566 121.707,-122.645"/>
</g>
<!-- Node343 -->
<g id="node17" class="node"><title>Node343</title>
<g id="a_node17"><a xlink:href="namespaceboost_1_1serialization.html#ad0993bd413e75cc6511310a759c0bbe9" target="_top" xlink:title="boost::serialization\l::serialize">
<polygon fill="none" stroke="black" points="182.5,-39 182.5,-69 289.5,-69 289.5,-39 182.5,-39"/>
<text text-anchor="start" x="190.5" y="-57" font-family="Helvetica,sans-Serif" font-size="10.00">boost::serialization</text>
<text text-anchor="middle" x="236" y="-46" font-family="Helvetica,sans-Serif" font-size="10.00">::serialize</text>
</a>
</g>
</g>
<!-- Node327&#45;&gt;Node343 -->
<g id="edge16" class="edge"><title>Node327&#45;&gt;Node343</title>
<path fill="none" stroke="midnightblue" d="M85.9196,-114.955C103.251,-103.104 126.109,-88.7679 148,-79 158.764,-74.1971 170.688,-70.0627 182.168,-66.6172"/>
<polygon fill="midnightblue" stroke="midnightblue" points="83.6031,-112.303 77.3947,-120.888 87.6019,-118.048 83.6031,-112.303"/>
</g>
<!-- Node344 -->
<g id="node18" class="node"><title>Node344</title>
<g id="a_node18"><a xlink:href="sparse__setter_8cpp.html#af05e58e4ed027c803c1a73ca087824c5" target="_top" xlink:title="setrand_scipy">
<polygon fill="none" stroke="black" points="194.5,-0.5 194.5,-19.5 277.5,-19.5 277.5,-0.5 194.5,-0.5"/>
<text text-anchor="middle" x="236" y="-7.5" font-family="Helvetica,sans-Serif" font-size="10.00">setrand_scipy</text>
</a>
</g>
</g>
<!-- Node327&#45;&gt;Node344 -->
<g id="edge17" class="edge"><title>Node327&#45;&gt;Node344</title>
<path fill="none" stroke="midnightblue" d="M70.7644,-112.066C86.2917,-87.3128 113.885,-49.4739 148,-29 161.919,-20.6467 179.056,-15.9493 194.429,-13.3142"/>
<polygon fill="midnightblue" stroke="midnightblue" points="67.6279,-110.487 65.4158,-120.849 73.6065,-114.128 67.6279,-110.487"/>
</g>
<!-- Node329 -->
<g id="node3" class="node"><title>Node329</title>
<g id="a_node3"><a xlink:href="classHamiltonianmatrix.html#a73399becb46693b0da91cf69a62e3b8d" target="_top" xlink:title="Hamiltonianmatrix::\ldeserialize">
<polygon fill="none" stroke="black" points="392.5,-332 392.5,-362 503.5,-362 503.5,-332 392.5,-332"/>
<text text-anchor="start" x="400.5" y="-350" font-family="Helvetica,sans-Serif" font-size="10.00">Hamiltonianmatrix::</text>
<text text-anchor="middle" x="448" y="-339" font-family="Helvetica,sans-Serif" font-size="10.00">deserialize</text>
</a>
</g>
</g>
<!-- Node328&#45;&gt;Node329 -->
<g id="edge2" class="edge"><title>Node328&#45;&gt;Node329</title>
<path fill="none" stroke="midnightblue" d="M301.67,-316.55C330.686,-322.63 364.548,-329.724 392.282,-335.535"/>
<polygon fill="midnightblue" stroke="midnightblue" points="302.132,-313.071 291.627,-314.446 300.697,-319.922 302.132,-313.071"/>
</g>
<!-- Node330 -->
<g id="node4" class="node"><title>Node330</title>
<g id="a_node4"><a xlink:href="classHamiltonianmatrix.html#a6af1c71facf2f4987c543cc177175c0e" target="_top" xlink:title="Hamiltonianmatrix::load">
<polygon fill="none" stroke="black" points="382.5,-293.5 382.5,-312.5 513.5,-312.5 513.5,-293.5 382.5,-293.5"/>
<text text-anchor="middle" x="448" y="-300.5" font-family="Helvetica,sans-Serif" font-size="10.00">Hamiltonianmatrix::load</text>
</a>
</g>
</g>
<!-- Node328&#45;&gt;Node330 -->
<g id="edge3" class="edge"><title>Node328&#45;&gt;Node330</title>
<path fill="none" stroke="midnightblue" d="M301.943,-303C327.46,-303 356.691,-303 382.194,-303"/>
<polygon fill="midnightblue" stroke="midnightblue" points="301.627,-299.5 291.627,-303 301.627,-306.5 301.627,-299.5"/>
</g>
<!-- Node331 -->
<g id="node5" class="node"><title>Node331</title>
<g id="a_node5"><a xlink:href="classHamiltonianOne.html#a9cb71dcb34ab9f0779c0bd66b758185e" target="_top" xlink:title="HamiltonianOne::build">
<polygon fill="none" stroke="black" points="581,-312.5 581,-331.5 703,-331.5 703,-312.5 581,-312.5"/>
<text text-anchor="middle" x="642" y="-319.5" font-family="Helvetica,sans-Serif" font-size="10.00">HamiltonianOne::build</text>
</a>
</g>
</g>
<!-- Node330&#45;&gt;Node331 -->
<g id="edge4" class="edge"><title>Node330&#45;&gt;Node331</title>
<path fill="none" stroke="midnightblue" d="M523.784,-310.401C542.663,-312.269 562.694,-314.251 580.756,-316.038"/>
<polygon fill="midnightblue" stroke="midnightblue" points="524.031,-306.908 513.735,-309.406 523.341,-313.874 524.031,-306.908"/>
</g>
<!-- Node333 -->
<g id="node7" class="node"><title>Node333</title>
<g id="a_node7"><a xlink:href="classHamiltonianTwo.html#a6ca0a318f25170b69e571a07064a5afb" target="_top" xlink:title="HamiltonianTwo::calculate">
<polygon fill="none" stroke="black" points="572,-274.5 572,-293.5 712,-293.5 712,-274.5 572,-274.5"/>
<text text-anchor="middle" x="642" y="-281.5" font-family="Helvetica,sans-Serif" font-size="10.00">HamiltonianTwo::calculate</text>
</a>
</g>
</g>
<!-- Node330&#45;&gt;Node333 -->
<g id="edge6" class="edge"><title>Node330&#45;&gt;Node333</title>
<path fill="none" stroke="midnightblue" d="M523.982,-295.58C539.78,-294.017 556.376,-292.374 571.944,-290.834"/>
<polygon fill="midnightblue" stroke="midnightblue" points="523.341,-292.126 513.735,-296.594 524.031,-299.092 523.341,-292.126"/>
</g>
<!-- Node332 -->
<g id="node6" class="node"><title>Node332</title>
<g id="a_node6"><a xlink:href="classHamiltonianOne.html#ad3ba2d70879a60c9f065b5a2545dfe36" target="_top" xlink:title="HamiltonianOne::HamiltonianOne">
<polygon fill="none" stroke="black" points="748,-312.5 748,-331.5 925,-331.5 925,-312.5 748,-312.5"/>
<text text-anchor="middle" x="836.5" y="-319.5" font-family="Helvetica,sans-Serif" font-size="10.00">HamiltonianOne::HamiltonianOne</text>
</a>
</g>
</g>
<!-- Node331&#45;&gt;Node332 -->
<g id="edge5" class="edge"><title>Node331&#45;&gt;Node332</title>
<path fill="none" stroke="midnightblue" d="M713.306,-322C724.58,-322 736.367,-322 747.982,-322"/>
<polygon fill="midnightblue" stroke="midnightblue" points="713.116,-318.5 703.116,-322 713.116,-325.5 713.116,-318.5"/>
</g>
<!-- Node334 -->
<g id="node8" class="node"><title>Node334</title>
<g id="a_node8"><a xlink:href="classHamiltonianTwo.html#a8d51d632bd7862cf1e566f6faf9ccc8c" target="_top" xlink:title="HamiltonianTwo::HamiltonianTwo">
<polygon fill="none" stroke="black" points="751,-274.5 751,-293.5 922,-293.5 922,-274.5 751,-274.5"/>
<text text-anchor="middle" x="836.5" y="-281.5" font-family="Helvetica,sans-Serif" font-size="10.00">HamiltonianTwo::HamiltonianTwo</text>
</a>
</g>
</g>
<!-- Node333&#45;&gt;Node334 -->
<g id="edge7" class="edge"><title>Node333&#45;&gt;Node334</title>
<path fill="none" stroke="midnightblue" d="M722.311,-284C731.703,-284 741.317,-284 750.78,-284"/>
<polygon fill="midnightblue" stroke="midnightblue" points="722.225,-280.5 712.225,-284 722.225,-287.5 722.225,-280.5"/>
</g>
<!-- Node336 -->
<g id="node10" class="node"><title>Node336</title>
<g id="a_node10"><a xlink:href="classEigen_1_1UmfPackLU.html#a35ae31390d7c11e9a51b573616fc65ba" target="_top" xlink:title="Eigen::UmfPackLU::matrixL">
<polygon fill="none" stroke="black" points="375.5,-255.5 375.5,-274.5 520.5,-274.5 520.5,-255.5 375.5,-255.5"/>
<text text-anchor="middle" x="448" y="-262.5" font-family="Helvetica,sans-Serif" font-size="10.00">Eigen::UmfPackLU::matrixL</text>
</a>
</g>
</g>
<!-- Node335&#45;&gt;Node336 -->
<g id="edge9" class="edge"><title>Node335&#45;&gt;Node336</title>
<path fill="none" stroke="midnightblue" d="M275.145,-220.698C299.314,-228.516 331.315,-238.451 360,-246 372.858,-249.384 386.895,-252.638 399.868,-255.468"/>
<polygon fill="midnightblue" stroke="midnightblue" points="276.223,-217.369 265.631,-217.599 274.055,-224.024 276.223,-217.369"/>
</g>
<!-- Node337 -->
<g id="node11" class="node"><title>Node337</title>
<g id="a_node11"><a xlink:href="classEigen_1_1UmfPackLU.html#afcbe772b2cbf458791111ae5b648c21a" target="_top" xlink:title="Eigen::UmfPackLU::matrixU">
<polygon fill="none" stroke="black" points="374.5,-217.5 374.5,-236.5 521.5,-236.5 521.5,-217.5 374.5,-217.5"/>
<text text-anchor="middle" x="448" y="-224.5" font-family="Helvetica,sans-Serif" font-size="10.00">Eigen::UmfPackLU::matrixU</text>
</a>
</g>
</g>
<!-- Node335&#45;&gt;Node337 -->
<g id="edge10" class="edge"><title>Node335&#45;&gt;Node337</title>
<path fill="none" stroke="midnightblue" d="M329.404,-216.36C344.399,-217.717 359.741,-219.105 374.184,-220.412"/>
<polygon fill="midnightblue" stroke="midnightblue" points="329.368,-212.843 319.094,-215.428 328.738,-219.814 329.368,-212.843"/>
</g>
<!-- Node338 -->
<g id="node12" class="node"><title>Node338</title>
<g id="a_node12"><a xlink:href="classEigen_1_1UmfPackLU.html#aa567568176f719c536ae84bb82128aae" target="_top" xlink:title="Eigen::UmfPackLU::permutationP">
<polygon fill="none" stroke="black" points="361,-179.5 361,-198.5 535,-198.5 535,-179.5 361,-179.5"/>
<text text-anchor="middle" x="448" y="-186.5" font-family="Helvetica,sans-Serif" font-size="10.00">Eigen::UmfPackLU::permutationP</text>
</a>
</g>
</g>
<!-- Node335&#45;&gt;Node338 -->
<g id="edge11" class="edge"><title>Node335&#45;&gt;Node338</title>
<path fill="none" stroke="midnightblue" d="M329.122,-199.665C339.652,-198.712 350.358,-197.744 360.807,-196.798"/>
<polygon fill="midnightblue" stroke="midnightblue" points="328.738,-196.186 319.094,-200.572 329.368,-203.157 328.738,-196.186"/>
</g>
<!-- Node339 -->
<g id="node13" class="node"><title>Node339</title>
<g id="a_node13"><a xlink:href="classEigen_1_1UmfPackLU.html#ac28a1e26d4dab8d1ee7c5d10e9770668" target="_top" xlink:title="Eigen::UmfPackLU::permutationQ">
<polygon fill="none" stroke="black" points="360,-141.5 360,-160.5 536,-160.5 536,-141.5 360,-141.5"/>
<text text-anchor="middle" x="448" y="-148.5" font-family="Helvetica,sans-Serif" font-size="10.00">Eigen::UmfPackLU::permutationQ</text>
</a>
</g>
</g>
<!-- Node335&#45;&gt;Node339 -->
<g id="edge12" class="edge"><title>Node335&#45;&gt;Node339</title>
<path fill="none" stroke="midnightblue" d="M301.272,-196.035C309.02,-193.987 316.751,-191.649 324,-189 340.993,-182.791 343.007,-176.209 360,-170 370.31,-166.233 381.593,-163.094 392.517,-160.524"/>
<polygon fill="midnightblue" stroke="midnightblue" points="300.34,-192.66 291.483,-198.476 302.033,-199.453 300.34,-192.66"/>
</g>
<!-- Node340 -->
<g id="node14" class="node"><title>Node340</title>
<g id="a_node14"><a xlink:href="classEigen_1_1UmfPackLU.html#a82497bbf75d995a6d4ae7e9191f79525" target="_top" xlink:title="Eigen::UmfPackLU::umfpack\lReportStatus">
<polygon fill="none" stroke="black" points="373,-92 373,-122 523,-122 523,-92 373,-92"/>
<text text-anchor="start" x="381" y="-110" font-family="Helvetica,sans-Serif" font-size="10.00">Eigen::UmfPackLU::umfpack</text>
<text text-anchor="middle" x="448" y="-99" font-family="Helvetica,sans-Serif" font-size="10.00">ReportStatus</text>
</a>
</g>
</g>
<!-- Node335&#45;&gt;Node340 -->
<g id="edge13" class="edge"><title>Node335&#45;&gt;Node340</title>
<path fill="none" stroke="midnightblue" d="M315.41,-194.181C318.399,-192.629 321.278,-190.908 324,-189 348.538,-171.805 336.032,-149.981 360,-132 365.154,-128.133 370.889,-124.864 376.886,-122.1"/>
<polygon fill="midnightblue" stroke="midnightblue" points="313.834,-191.053 306.154,-198.351 316.709,-197.435 313.834,-191.053"/>
</g>
</g>
</svg>
