<?xml version="1.0" encoding="UTF-8" standalone="no"?>
<!DOCTYPE svg PUBLIC "-//W3C//DTD SVG 1.1//EN"
 "http://www.w3.org/Graphics/SVG/1.1/DTD/svg11.dtd">
<!-- Generated by graphviz version 2.38.0 (20140413.2041)
 -->
<!-- Title: mpfr::mpreal::toString Pages: 1 -->
<svg width="348pt" height="135pt"
 viewBox="0.00 0.00 348.00 134.50" xmlns="http://www.w3.org/2000/svg" xmlns:xlink="http://www.w3.org/1999/xlink">
<g id="graph0" class="graph" transform="scale(1 1) rotate(0) translate(4 130.5)">
<title>mpfr::mpreal::toString</title>
<!-- Node3623 -->
<g id="node1" class="node"><title>Node3623</title>
<polygon fill="#bfbfbf" stroke="black" points="0,-50 0,-69 123,-69 123,-50 0,-50"/>
<text text-anchor="middle" x="61.5" y="-57" font-family="Helvetica,sans-Serif" font-size="10.00">mpfr::mpreal::toString</text>
</g>
<!-- Node3624 -->
<g id="node2" class="node"><title>Node3624</title>
<g id="a_node2"><a xlink:href="namespacempfr.html#a322b667b6a505b839f673d3a36792895" target="_top" xlink:title="mpfr::bits2digits">
<polygon fill="none" stroke="black" points="165.5,-88 165.5,-107 259.5,-107 259.5,-88 165.5,-88"/>
<text text-anchor="middle" x="212.5" y="-95" font-family="Helvetica,sans-Serif" font-size="10.00">mpfr::bits2digits</text>
</a>
</g>
</g>
<!-- Node3623&#45;&gt;Node3624 -->
<g id="edge1" class="edge"><title>Node3623&#45;&gt;Node3624</title>
<path fill="none" stroke="midnightblue" d="M100.099,-69.089C119.584,-74.0583 143.575,-80.1767 164.296,-85.4613"/>
<polygon fill="midnightblue" stroke="midnightblue" points="163.617,-88.9001 174.171,-87.9799 165.346,-82.1172 163.617,-88.9001"/>
</g>
<!-- Node3627 -->
<g id="node5" class="node"><title>Node3627</title>
<g id="a_node5"><a xlink:href="namespacempfr.html#a004935036c2970cebb55e20e22edb67e" target="_top" xlink:title="mpfr::max">
<polygon fill="none" stroke="black" points="179.5,-50 179.5,-69 245.5,-69 245.5,-50 179.5,-50"/>
<text text-anchor="middle" x="212.5" y="-57" font-family="Helvetica,sans-Serif" font-size="10.00">mpfr::max</text>
</a>
</g>
</g>
<!-- Node3623&#45;&gt;Node3627 -->
<g id="edge4" class="edge"><title>Node3623&#45;&gt;Node3627</title>
<path fill="none" stroke="midnightblue" d="M123.104,-59.5C138.534,-59.5 154.789,-59.5 169.093,-59.5"/>
<polygon fill="midnightblue" stroke="midnightblue" points="169.123,-63.0001 179.123,-59.5 169.123,-56.0001 169.123,-63.0001"/>
</g>
<!-- Node3628 -->
<g id="node6" class="node"><title>Node3628</title>
<g id="a_node6"><a xlink:href="classmpfr_1_1mpreal.html#a566f64ca066c54923d19c11d6c3d15cd" target="_top" xlink:title="mpfr::mpreal::mpfr\l_srcptr">
<polygon fill="none" stroke="black" points="159,-0.5 159,-30.5 266,-30.5 266,-0.5 159,-0.5"/>
<text text-anchor="start" x="167" y="-18.5" font-family="Helvetica,sans-Serif" font-size="10.00">mpfr::mpreal::mpfr</text>
<text text-anchor="middle" x="212.5" y="-7.5" font-family="Helvetica,sans-Serif" font-size="10.00">_srcptr</text>
</a>
</g>
</g>
<!-- Node3623&#45;&gt;Node3628 -->
<g id="edge5" class="edge"><title>Node3623&#45;&gt;Node3628</title>
<path fill="none" stroke="midnightblue" d="M94.8308,-49.9527C111.232,-45.1094 131.699,-39.0654 150.891,-33.398"/>
<polygon fill="midnightblue" stroke="midnightblue" points="151.884,-36.7543 160.483,-30.5654 149.901,-30.0408 151.884,-36.7543"/>
</g>
<!-- Node3625 -->
<g id="node3" class="node"><title>Node3625</title>
<g id="a_node3"><a xlink:href="ArrayCwiseUnaryOps_8h.html#a3230e10964844c34fb73eaccc84dc8a7" target="_top" xlink:title="floor">
<polygon fill="none" stroke="black" points="302,-107 302,-126 340,-126 340,-107 302,-107"/>
<text text-anchor="middle" x="321" y="-114" font-family="Helvetica,sans-Serif" font-size="10.00">floor</text>
</a>
</g>
</g>
<!-- Node3624&#45;&gt;Node3625 -->
<g id="edge2" class="edge"><title>Node3624&#45;&gt;Node3625</title>
<path fill="none" stroke="midnightblue" d="M259.593,-105.723C270.575,-107.682 281.97,-109.715 291.864,-111.48"/>
<polygon fill="midnightblue" stroke="midnightblue" points="291.462,-114.964 301.921,-113.275 292.692,-108.073 291.462,-114.964"/>
</g>
<!-- Node3626 -->
<g id="node4" class="node"><title>Node3626</title>
<g id="a_node4"><a xlink:href="level1__impl_8h.html#a4e8e1c1bb9d4e05fc671fc133ec9dc9b" target="_top" xlink:title="int">
<polygon fill="none" stroke="black" points="306.5,-69 306.5,-88 335.5,-88 335.5,-69 306.5,-69"/>
<text text-anchor="middle" x="321" y="-76" font-family="Helvetica,sans-Serif" font-size="10.00">int</text>
</a>
</g>
</g>
<!-- Node3624&#45;&gt;Node3626 -->
<g id="edge3" class="edge"><title>Node3624&#45;&gt;Node3626</title>
<path fill="none" stroke="midnightblue" d="M259.593,-89.2768C272.242,-87.0202 285.439,-84.6658 296.26,-82.7352"/>
<polygon fill="midnightblue" stroke="midnightblue" points="296.951,-86.1673 306.181,-80.9654 295.722,-79.2761 296.951,-86.1673"/>
</g>
</g>
</svg>
