<?xml version="1.0" encoding="UTF-8" standalone="no"?>
<!DOCTYPE svg PUBLIC "-//W3C//DTD SVG 1.1//EN"
 "http://www.w3.org/Graphics/SVG/1.1/DTD/svg11.dtd">
<!-- Generated by graphviz version 2.38.0 (20140413.2041)
 -->
<!-- Title: Eigen::KdBVH::getVolume Pages: 1 -->
<svg width="409pt" height="170pt"
 viewBox="0.00 0.00 409.00 169.50" xmlns="http://www.w3.org/2000/svg" xmlns:xlink="http://www.w3.org/1999/xlink">
<g id="graph0" class="graph" transform="scale(1 1) rotate(0) translate(4 165.5)">
<title>Eigen::KdBVH::getVolume</title>
<!-- Node10 -->
<g id="node1" class="node"><title>Node10</title>
<polygon fill="#bfbfbf" stroke="black" points="0,-57.5 0,-76.5 140,-76.5 140,-57.5 0,-57.5"/>
<text text-anchor="middle" x="70" y="-64.5" font-family="Helvetica,sans-Serif" font-size="10.00">Eigen::KdBVH::getVolume</text>
</g>
<!-- Node11 -->
<g id="node2" class="node"><title>Node11</title>
<g id="a_node2"><a xlink:href="namespacempfr.html#a301ea848bad1f87ea6388df0eba8b13c" target="_top" xlink:title="mpfr::dim">
<polygon fill="none" stroke="black" points="176,-114.5 176,-133.5 239,-133.5 239,-114.5 176,-114.5"/>
<text text-anchor="middle" x="207.5" y="-121.5" font-family="Helvetica,sans-Serif" font-size="10.00">mpfr::dim</text>
</a>
</g>
</g>
<!-- Node10&#45;&gt;Node11 -->
<g id="edge1" class="edge"><title>Node10&#45;&gt;Node11</title>
<path fill="none" stroke="midnightblue" d="M93.6797,-76.5405C115.761,-85.8294 149.532,-100.036 174.374,-110.486"/>
<polygon fill="midnightblue" stroke="midnightblue" points="173.172,-113.777 183.746,-114.428 175.886,-107.325 173.172,-113.777"/>
</g>
<!-- Node14 -->
<g id="node5" class="node"><title>Node14</title>
<g id="a_node5"><a xlink:href="level1__impl_8h.html#a4e8e1c1bb9d4e05fc671fc133ec9dc9b" target="_top" xlink:title="int">
<polygon fill="none" stroke="black" points="193,-76.5 193,-95.5 222,-95.5 222,-76.5 193,-76.5"/>
<text text-anchor="middle" x="207.5" y="-83.5" font-family="Helvetica,sans-Serif" font-size="10.00">int</text>
</a>
</g>
</g>
<!-- Node10&#45;&gt;Node14 -->
<g id="edge4" class="edge"><title>Node10&#45;&gt;Node14</title>
<path fill="none" stroke="midnightblue" d="M139.147,-76.5557C154.688,-78.7348 170.2,-80.91 182.415,-82.6227"/>
<polygon fill="midnightblue" stroke="midnightblue" points="182.221,-86.1297 192.61,-84.0524 183.193,-79.1976 182.221,-86.1297"/>
</g>
<!-- Node15 -->
<g id="node6" class="node"><title>Node15</title>
<g id="a_node6"><a xlink:href="Tutorial__ReshapeMat2Vec_8cpp.html#ab9625a9870f2caafab58a03342febdff" target="_top" xlink:title="v1">
<polygon fill="none" stroke="black" points="193,-38.5 193,-57.5 222,-57.5 222,-38.5 193,-38.5"/>
<text text-anchor="middle" x="207.5" y="-45.5" font-family="Helvetica,sans-Serif" font-size="10.00">v1</text>
</a>
</g>
</g>
<!-- Node10&#45;&gt;Node15 -->
<g id="edge5" class="edge"><title>Node10&#45;&gt;Node15</title>
<path fill="none" stroke="midnightblue" d="M139.147,-57.4443C154.688,-55.2652 170.2,-53.09 182.415,-51.3773"/>
<polygon fill="midnightblue" stroke="midnightblue" points="183.193,-54.8024 192.61,-49.9476 182.221,-47.8703 183.193,-54.8024"/>
</g>
<!-- Node16 -->
<g id="node7" class="node"><title>Node16</title>
<g id="a_node7"><a xlink:href="Tutorial__ReshapeMat2Vec_8cpp.html#aadb36892292ac81ba8d5a277e5fdd83d" target="_top" xlink:title="v2">
<polygon fill="none" stroke="black" points="193,-0.5 193,-19.5 222,-19.5 222,-0.5 193,-0.5"/>
<text text-anchor="middle" x="207.5" y="-7.5" font-family="Helvetica,sans-Serif" font-size="10.00">v2</text>
</a>
</g>
</g>
<!-- Node10&#45;&gt;Node16 -->
<g id="edge6" class="edge"><title>Node10&#45;&gt;Node16</title>
<path fill="none" stroke="midnightblue" d="M93.6797,-57.4595C118.577,-46.9861 158.336,-30.2611 183.399,-19.7178"/>
<polygon fill="midnightblue" stroke="midnightblue" points="184.984,-22.8482 192.844,-15.7445 182.269,-16.3959 184.984,-22.8482"/>
</g>
<!-- Node12 -->
<g id="node3" class="node"><title>Node12</title>
<g id="a_node3"><a xlink:href="classmpfr_1_1mpreal.html#a566f64ca066c54923d19c11d6c3d15cd" target="_top" xlink:title="mpfr::mpreal::mpfr\l_srcptr">
<polygon fill="none" stroke="black" points="284.5,-131 284.5,-161 391.5,-161 391.5,-131 284.5,-131"/>
<text text-anchor="start" x="292.5" y="-149" font-family="Helvetica,sans-Serif" font-size="10.00">mpfr::mpreal::mpfr</text>
<text text-anchor="middle" x="338" y="-138" font-family="Helvetica,sans-Serif" font-size="10.00">_srcptr</text>
</a>
</g>
</g>
<!-- Node11&#45;&gt;Node12 -->
<g id="edge2" class="edge"><title>Node11&#45;&gt;Node12</title>
<path fill="none" stroke="midnightblue" d="M239.279,-129.27C249.836,-131.077 262.066,-133.171 274.226,-135.253"/>
<polygon fill="midnightblue" stroke="midnightblue" points="273.938,-138.754 284.385,-136.992 275.119,-131.855 273.938,-138.754"/>
</g>
<!-- Node13 -->
<g id="node4" class="node"><title>Node13</title>
<g id="a_node4"><a xlink:href="classmpfr_1_1mpreal.html#af4e3b56888463376c675cac70b6ceca3" target="_top" xlink:title="mpfr::mpreal::mpfr_ptr">
<polygon fill="none" stroke="black" points="275,-92.5 275,-111.5 401,-111.5 401,-92.5 275,-92.5"/>
<text text-anchor="middle" x="338" y="-99.5" font-family="Helvetica,sans-Serif" font-size="10.00">mpfr::mpreal::mpfr_ptr</text>
</a>
</g>
</g>
<!-- Node11&#45;&gt;Node13 -->
<g id="edge3" class="edge"><title>Node11&#45;&gt;Node13</title>
<path fill="none" stroke="midnightblue" d="M239.279,-118.73C249.042,-117.059 260.235,-115.143 271.48,-113.218"/>
<polygon fill="midnightblue" stroke="midnightblue" points="272.074,-116.667 281.34,-111.529 270.893,-109.767 272.074,-116.667"/>
</g>
</g>
</svg>
