<?xml version="1.0" encoding="UTF-8" standalone="no"?>
<!DOCTYPE svg PUBLIC "-//W3C//DTD SVG 1.1//EN"
 "http://www.w3.org/Graphics/SVG/1.1/DTD/svg11.dtd">
<!-- Generated by graphviz version 2.38.0 (20140413.2041)
 -->
<!-- Title: Hamiltonianmatrix::removeUnnecessaryBasisvectors Pages: 1 -->
<!--zoomable 341 -->
<svg id="main" version="1.1" xmlns="http://www.w3.org/2000/svg" xmlns:xlink="http://www.w3.org/1999/xlink" xml:space="preserve" onload="init(evt)">
<style type="text/css"><![CDATA[
.edge:hover path { stroke: red; }
.edge:hover polygon { stroke: red; fill: red; }
]]></style>
<script type="text/javascript"><![CDATA[
var edges = document.getElementsByTagName('g');
if (edges && edges.length) {
  for (var i=0;i<edges.length;i++) {
    if (edges[i].id.substr(0,4)=='edge') {
      edges[i].setAttribute('class','edge');
    }
  }
}
]]></script>
        <defs>
                <circle id="rim" cx="0" cy="0" r="7"/>
                <circle id="rim2" cx="0" cy="0" r="3.5"/>
                <g id="zoomPlus">
                        <use xlink:href="#rim" fill="#404040">
                                <set attributeName="fill" to="#808080" begin="zoomplus.mouseover" end="zoomplus.mouseout"/>
                        </use>
                        <path d="M-4,0h8M0,-4v8" fill="none" stroke="white" stroke-width="1.5" pointer-events="none"/>
                </g>
                <g id="zoomMin">
                        <use xlink:href="#rim" fill="#404040">
                                <set attributeName="fill" to="#808080" begin="zoomminus.mouseover" end="zoomminus.mouseout"/>
                        </use>
                        <path d="M-4,0h8" fill="none" stroke="white" stroke-width="1.5" pointer-events="none"/>
                </g>
                <g id="dirArrow">
                        <path fill="none" stroke="white" stroke-width="1.5" d="M0,-3.0v7 M-2.5,-0.5L0,-3.0L2.5,-0.5"/>
                </g>
               <g id="resetDef">
                       <use xlink:href="#rim2" fill="#404040">
                               <set attributeName="fill" to="#808080" begin="reset.mouseover" end="reset.mouseout"/>
                       </use>
               </g>
        </defs>

<script type="text/javascript">
var viewWidth = 504;
var viewHeight = 341;
var sectionId = 'dynsection-31';
</script>
<script xlink:href="svgpan.js"/>
<svg id="graph" class="graph">
<g id="viewport">
<title>Hamiltonianmatrix::removeUnnecessaryBasisvectors</title>
<!-- Node259 -->
<g id="node1" class="node"><title>Node259</title>
<polygon fill="#bfbfbf" stroke="black" points="0,-150.5 0,-180.5 176,-180.5 176,-150.5 0,-150.5"/>
<text text-anchor="start" x="8" y="-168.5" font-family="Helvetica,sans-Serif" font-size="10.00">Hamiltonianmatrix::</text>
<text text-anchor="middle" x="88" y="-157.5" font-family="Helvetica,sans-Serif" font-size="10.00">removeUnnecessaryBasisvectors</text>
</g>
<!-- Node260 -->
<g id="node2" class="node"><title>Node260</title>
<g id="a_node2"><a xlink:href="ArrayCwiseUnaryOps_8h.html#a35560f7dbf19244fda7e463d14157c43" target="_top" xlink:title="abs">
<polygon fill="none" stroke="black" points="263,-313 263,-332 297,-332 297,-313 263,-313"/>
<text text-anchor="middle" x="280" y="-320" font-family="Helvetica,sans-Serif" font-size="10.00">abs</text>
</a>
</g>
</g>
<!-- Node259&#45;&gt;Node260 -->
<g id="edge1" class="edge"><title>Node259&#45;&gt;Node260</title>
<path fill="none" stroke="midnightblue" d="M98.4271,-180.93C116.702,-209.521 159.778,-270.791 212,-303.5 224.248,-311.171 239.665,-315.821 252.622,-318.599"/>
<polygon fill="midnightblue" stroke="midnightblue" points="252.328,-322.105 262.803,-320.517 253.624,-315.226 252.328,-322.105"/>
</g>
<!-- Node261 -->
<g id="node3" class="node"><title>Node261</title>
<g id="a_node3"><a xlink:href="classEigen_1_1SparseMatrixBase.html#adab34202f9694f1085b78850ea3dcb44" target="_top" xlink:title="Eigen::SparseMatrixBase\l::adjoint">
<polygon fill="none" stroke="black" points="212,-263.5 212,-293.5 348,-293.5 348,-263.5 212,-263.5"/>
<text text-anchor="start" x="220" y="-281.5" font-family="Helvetica,sans-Serif" font-size="10.00">Eigen::SparseMatrixBase</text>
<text text-anchor="middle" x="280" y="-270.5" font-family="Helvetica,sans-Serif" font-size="10.00">::adjoint</text>
</a>
</g>
</g>
<!-- Node259&#45;&gt;Node261 -->
<g id="edge2" class="edge"><title>Node259&#45;&gt;Node261</title>
<path fill="none" stroke="midnightblue" d="M106.759,-180.523C129.827,-199.474 171.901,-232.159 212,-253.5 215.928,-255.591 220.07,-257.586 224.289,-259.472"/>
<polygon fill="midnightblue" stroke="midnightblue" points="223.02,-262.736 233.593,-263.419 225.754,-256.292 223.02,-262.736"/>
</g>
<!-- Node262 -->
<g id="node4" class="node"><title>Node262</title>
<g id="a_node4"><a xlink:href="MatrixBase__col_8cpp.html#aa168d9544aa6d49fce0cbfc0bec849b0" target="_top" xlink:title="col">
<polygon fill="none" stroke="black" points="265,-225 265,-244 295,-244 295,-225 265,-225"/>
<text text-anchor="middle" x="280" y="-232" font-family="Helvetica,sans-Serif" font-size="10.00">col</text>
</a>
</g>
</g>
<!-- Node259&#45;&gt;Node262 -->
<g id="edge3" class="edge"><title>Node259&#45;&gt;Node262</title>
<path fill="none" stroke="midnightblue" d="M123.079,-180.53C147.558,-191.036 181.482,-205.006 212,-215.5 226.024,-220.323 241.99,-224.886 254.818,-228.331"/>
<polygon fill="midnightblue" stroke="midnightblue" points="254.182,-231.782 264.744,-230.943 255.964,-225.013 254.182,-231.782"/>
</g>
<!-- Node263 -->
<g id="node5" class="node"><title>Node263</title>
<g id="a_node5"><a xlink:href="classHamiltonianmatrix.html#a4069febf25da1723d9cc8e27cd2cd669" target="_top" xlink:title="Hamiltonianmatrix::\lnum_basisvectors">
<polygon fill="none" stroke="black" points="224.5,-175.5 224.5,-205.5 335.5,-205.5 335.5,-175.5 224.5,-175.5"/>
<text text-anchor="start" x="232.5" y="-193.5" font-family="Helvetica,sans-Serif" font-size="10.00">Hamiltonianmatrix::</text>
<text text-anchor="middle" x="280" y="-182.5" font-family="Helvetica,sans-Serif" font-size="10.00">num_basisvectors</text>
</a>
</g>
</g>
<!-- Node259&#45;&gt;Node263 -->
<g id="edge4" class="edge"><title>Node259&#45;&gt;Node263</title>
<path fill="none" stroke="midnightblue" d="M176.215,-176.976C189.019,-178.66 202.013,-180.37 214.258,-181.981"/>
<polygon fill="midnightblue" stroke="midnightblue" points="213.976,-185.474 224.347,-183.309 214.889,-178.534 213.976,-185.474"/>
</g>
<!-- Node265 -->
<g id="node7" class="node"><title>Node265</title>
<g id="a_node7"><a xlink:href="classEigen_1_1SparseMatrix.html#a4e5f706cfae14d2eaec1ea1e234905f1" target="_top" xlink:title="Eigen::SparseMatrix\l::outerSize">
<polygon fill="none" stroke="black" points="224,-126.5 224,-156.5 336,-156.5 336,-126.5 224,-126.5"/>
<text text-anchor="start" x="232" y="-144.5" font-family="Helvetica,sans-Serif" font-size="10.00">Eigen::SparseMatrix</text>
<text text-anchor="middle" x="280" y="-133.5" font-family="Helvetica,sans-Serif" font-size="10.00">::outerSize</text>
</a>
</g>
</g>
<!-- Node259&#45;&gt;Node265 -->
<g id="edge6" class="edge"><title>Node259&#45;&gt;Node265</title>
<path fill="none" stroke="midnightblue" d="M176.215,-154.483C188.866,-152.885 201.703,-151.264 213.82,-149.733"/>
<polygon fill="midnightblue" stroke="midnightblue" points="214.326,-153.197 223.809,-148.472 213.449,-146.252 214.326,-153.197"/>
</g>
<!-- Node266 -->
<g id="node8" class="node"><title>Node266</title>
<g id="a_node8"><a xlink:href="namespaceEigen_1_1half__impl.html#a829ad00a9c93131d5a8342b4ee29d83d" target="_top" xlink:title="Eigen::half_impl::pow">
<polygon fill="none" stroke="black" points="222,-88 222,-107 338,-107 338,-88 222,-88"/>
<text text-anchor="middle" x="280" y="-95" font-family="Helvetica,sans-Serif" font-size="10.00">Eigen::half_impl::pow</text>
</a>
</g>
</g>
<!-- Node259&#45;&gt;Node266 -->
<g id="edge7" class="edge"><title>Node259&#45;&gt;Node266</title>
<path fill="none" stroke="midnightblue" d="M125.308,-150.427C149.647,-140.547 182.518,-127.634 212,-117.5 219.507,-114.92 227.55,-112.353 235.366,-109.96"/>
<polygon fill="midnightblue" stroke="midnightblue" points="236.519,-113.269 245.087,-107.036 234.503,-106.565 236.519,-113.269"/>
</g>
<!-- Node267 -->
<g id="node9" class="node"><title>Node267</title>
<g id="a_node9"><a xlink:href="MatrixBase__row_8cpp.html#a64ef8efef59f875033a27e7cbbc879ec" target="_top" xlink:title="row">
<polygon fill="none" stroke="black" points="263.5,-50 263.5,-69 296.5,-69 296.5,-50 263.5,-50"/>
<text text-anchor="middle" x="280" y="-57" font-family="Helvetica,sans-Serif" font-size="10.00">row</text>
</a>
</g>
</g>
<!-- Node259&#45;&gt;Node267 -->
<g id="edge8" class="edge"><title>Node259&#45;&gt;Node267</title>
<path fill="none" stroke="midnightblue" d="M106.137,-150.482C128.873,-131.268 170.94,-98.1307 212,-78.5 225.039,-72.2663 240.508,-67.7116 253.296,-64.627"/>
<polygon fill="midnightblue" stroke="midnightblue" points="254.307,-67.9871 263.295,-62.3772 252.77,-61.1579 254.307,-67.9871"/>
</g>
<!-- Node268 -->
<g id="node10" class="node"><title>Node268</title>
<g id="a_node10"><a xlink:href="classEigen_1_1SparseMatrix.html#acc35051d698e3973f1de5b9b78dbe345" target="_top" xlink:title="Eigen::SparseMatrix\l::setFromTriplets">
<polygon fill="none" stroke="black" points="224,-0.5 224,-30.5 336,-30.5 336,-0.5 224,-0.5"/>
<text text-anchor="start" x="232" y="-18.5" font-family="Helvetica,sans-Serif" font-size="10.00">Eigen::SparseMatrix</text>
<text text-anchor="middle" x="280" y="-7.5" font-family="Helvetica,sans-Serif" font-size="10.00">::setFromTriplets</text>
</a>
</g>
</g>
<!-- Node259&#45;&gt;Node268 -->
<g id="edge9" class="edge"><title>Node259&#45;&gt;Node268</title>
<path fill="none" stroke="midnightblue" d="M100.26,-150.319C120.152,-124.458 163.975,-71.6425 212,-40.5 215.099,-38.4904 218.383,-36.6102 221.766,-34.8566"/>
<polygon fill="midnightblue" stroke="midnightblue" points="223.373,-37.9678 230.897,-30.508 220.363,-31.6479 223.373,-37.9678"/>
</g>
<!-- Node264 -->
<g id="node6" class="node"><title>Node264</title>
<g id="a_node6"><a xlink:href="classEigen_1_1SparseMatrix.html#aa391750e3c530227e4a5c3c52e959975" target="_top" xlink:title="Eigen::SparseMatrix\l::cols">
<polygon fill="none" stroke="black" points="384,-175.5 384,-205.5 496,-205.5 496,-175.5 384,-175.5"/>
<text text-anchor="start" x="392" y="-193.5" font-family="Helvetica,sans-Serif" font-size="10.00">Eigen::SparseMatrix</text>
<text text-anchor="middle" x="440" y="-182.5" font-family="Helvetica,sans-Serif" font-size="10.00">::cols</text>
</a>
</g>
</g>
<!-- Node263&#45;&gt;Node264 -->
<g id="edge5" class="edge"><title>Node263&#45;&gt;Node264</title>
<path fill="none" stroke="midnightblue" d="M335.817,-190.5C347.933,-190.5 360.889,-190.5 373.385,-190.5"/>
<polygon fill="midnightblue" stroke="midnightblue" points="373.745,-194 383.744,-190.5 373.744,-187 373.745,-194"/>
</g>
</g>
</svg>
        <g id="navigator" transform="translate(0 0)" fill="#404254">
                <rect fill="#f2f5e9" fill-opacity="0.5" stroke="#606060" stroke-width=".5" x="0" y="0" width="60" height="60"/>
                <use id="zoomplus" xlink:href="#zoomPlus" x="17" y="9" onmousedown="handleZoom(evt,'in')"/>
                <use id="zoomminus" xlink:href="#zoomMin" x="42" y="9" onmousedown="handleZoom(evt,'out')"/>
                <use id="reset" xlink:href="#resetDef" x="30" y="36" onmousedown="handleReset()"/>
                <g id="arrowUp" xlink:href="#dirArrow" transform="translate(30 24)" onmousedown="handlePan(0,-1)">
                  <use xlink:href="#rim" fill="#404040">
                        <set attributeName="fill" to="#808080" begin="arrowUp.mouseover" end="arrowUp.mouseout"/>
                  </use>
                  <path fill="none" stroke="white" stroke-width="1.5" d="M0,-3.0v7 M-2.5,-0.5L0,-3.0L2.5,-0.5"/>
                </g>
                <g id="arrowRight" xlink:href="#dirArrow" transform="rotate(90) translate(36 -43)" onmousedown="handlePan(1,0)">
                  <use xlink:href="#rim" fill="#404040">
                        <set attributeName="fill" to="#808080" begin="arrowRight.mouseover" end="arrowRight.mouseout"/>
                  </use>
                  <path fill="none" stroke="white" stroke-width="1.5" d="M0,-3.0v7 M-2.5,-0.5L0,-3.0L2.5,-0.5"/>
                </g>
                <g id="arrowDown" xlink:href="#dirArrow" transform="rotate(180) translate(-30 -48)" onmousedown="handlePan(0,1)">
                  <use xlink:href="#rim" fill="#404040">
                        <set attributeName="fill" to="#808080" begin="arrowDown.mouseover" end="arrowDown.mouseout"/>
                  </use>
                  <path fill="none" stroke="white" stroke-width="1.5" d="M0,-3.0v7 M-2.5,-0.5L0,-3.0L2.5,-0.5"/>
                </g>
                <g id="arrowLeft" xlink:href="#dirArrow" transform="rotate(270) translate(-36 17)" onmousedown="handlePan(-1,0)">
                  <use xlink:href="#rim" fill="#404040">
                        <set attributeName="fill" to="#808080" begin="arrowLeft.mouseover" end="arrowLeft.mouseout"/>
                  </use>
                  <path fill="none" stroke="white" stroke-width="1.5" d="M0,-3.0v7 M-2.5,-0.5L0,-3.0L2.5,-0.5"/>
                </g>
        </g>
        <svg viewBox="0 0 15 15" width="100%" height="30px" preserveAspectRatio="xMaxYMin meet">
         <g id="arrow_out" transform="scale(0.3 0.3)">
          <a xlink:href="classHamiltonianmatrix_a2ff416efff07de6e3df93948c2688989_cgraph_org.svg" target="_base">
           <rect id="button" ry="5" rx="5" y="6" x="6" height="38" width="38"
                fill="#f2f5e9" fill-opacity="0.5" stroke="#606060" stroke-width="1.0"/>
           <path id="arrow"
             d="M 11.500037,31.436501 C 11.940474,20.09759 22.043105,11.32322 32.158766,21.979434 L 37.068811,17.246167 C 37.068811,17.246167 37.088388,32 37.088388,32 L 22.160133,31.978069 C 22.160133,31.978069 26.997745,27.140456 26.997745,27.140456 C 18.528582,18.264221 13.291696,25.230495 11.500037,31.436501 z"
             style="fill:#404040;"/>
          </a>
         </g>
        </svg>
</svg>
