<?xml version="1.0" encoding="UTF-8" standalone="no"?>
<!DOCTYPE svg PUBLIC "-//W3C//DTD SVG 1.1//EN"
 "http://www.w3.org/Graphics/SVG/1.1/DTD/svg11.dtd">
<!-- Generated by graphviz version 2.38.0 (20140413.2041)
 -->
<!-- Title: SystemOne::initializeInteraction Pages: 1 -->
<svg width="574pt" height="227pt"
 viewBox="0.00 0.00 574.00 227.33" xmlns="http://www.w3.org/2000/svg" xmlns:xlink="http://www.w3.org/1999/xlink">
<g id="graph0" class="graph" transform="scale(1 1) rotate(0) translate(4 223.332)">
<title>SystemOne::initializeInteraction</title>
<!-- Node41 -->
<g id="node1" class="node"><title>Node41</title>
<polygon fill="#bfbfbf" stroke="black" points="0,-104.5 0,-123.5 168,-123.5 168,-104.5 0,-104.5"/>
<text text-anchor="middle" x="84" y="-111.5" font-family="Helvetica,sans-Serif" font-size="10.00">SystemOne::initializeInteraction</text>
</g>
<!-- Node42 -->
<g id="node2" class="node"><title>Node42</title>
<g id="a_node2"><a xlink:href="ArrayCwiseUnaryOps_8h.html#a35560f7dbf19244fda7e463d14157c43" target="_top" xlink:title="abs">
<polygon fill="none" stroke="black" points="532,-60.5 532,-79.5 566,-79.5 566,-60.5 532,-60.5"/>
<text text-anchor="middle" x="549" y="-67.5" font-family="Helvetica,sans-Serif" font-size="10.00">abs</text>
</a>
</g>
</g>
<!-- Node41&#45;&gt;Node42 -->
<g id="edge1" class="edge"><title>Node41&#45;&gt;Node42</title>
<path fill="none" stroke="midnightblue" d="M93.3157,-123.655C111.161,-143.539 155.47,-188.571 204,-205 262.937,-224.952 284.417,-222.93 344,-205 421.981,-181.534 497.594,-117.481 530.636,-86.8079"/>
<polygon fill="midnightblue" stroke="midnightblue" points="533.221,-89.181 538.095,-79.7738 528.419,-84.0884 533.221,-89.181"/>
</g>
<!-- Node43 -->
<g id="node3" class="node"><title>Node43</title>
<g id="a_node3"><a xlink:href="classEigen_1_1SparseMatrixBase.html#adab34202f9694f1085b78850ea3dcb44" target="_top" xlink:title="Eigen::SparseMatrixBase\l::adjoint">
<polygon fill="none" stroke="black" points="206,-165 206,-195 342,-195 342,-165 206,-165"/>
<text text-anchor="start" x="214" y="-183" font-family="Helvetica,sans-Serif" font-size="10.00">Eigen::SparseMatrixBase</text>
<text text-anchor="middle" x="274" y="-172" font-family="Helvetica,sans-Serif" font-size="10.00">::adjoint</text>
</a>
</g>
</g>
<!-- Node41&#45;&gt;Node43 -->
<g id="edge2" class="edge"><title>Node41&#45;&gt;Node43</title>
<path fill="none" stroke="midnightblue" d="M112.337,-123.597C140.542,-133.499 185.245,-149.192 220.344,-161.514"/>
<polygon fill="midnightblue" stroke="midnightblue" points="219.373,-164.883 229.968,-164.893 221.691,-158.278 219.373,-164.883"/>
</g>
<!-- Node44 -->
<g id="node4" class="node"><title>Node44</title>
<g id="a_node4"><a xlink:href="Cwise__array__power__array_8cpp.html#aa9e3025f5efca2c2a39d785652f2d710" target="_top" xlink:title="e">
<polygon fill="none" stroke="black" points="259.5,-126.5 259.5,-145.5 288.5,-145.5 288.5,-126.5 259.5,-126.5"/>
<text text-anchor="middle" x="274" y="-133.5" font-family="Helvetica,sans-Serif" font-size="10.00">e</text>
</a>
</g>
</g>
<!-- Node41&#45;&gt;Node44 -->
<g id="edge3" class="edge"><title>Node41&#45;&gt;Node44</title>
<path fill="none" stroke="midnightblue" d="M166.366,-123.522C196.312,-127.026 228.001,-130.734 248.975,-133.189"/>
<polygon fill="midnightblue" stroke="midnightblue" points="248.834,-136.696 259.174,-134.382 249.648,-129.743 248.834,-136.696"/>
</g>
<!-- Node45 -->
<g id="node5" class="node"><title>Node45</title>
<g id="a_node5"><a xlink:href="classSystemBase.html#a47c10153452fc59ad1932e68de506234" target="_top" xlink:title="Methods to get properties of the system ////////////////////////. ">
<polygon fill="none" stroke="black" points="207,-77 207,-107 341,-107 341,-77 207,-77"/>
<text text-anchor="start" x="215" y="-95" font-family="Helvetica,sans-Serif" font-size="10.00">SystemBase&lt; StateOne</text>
<text text-anchor="middle" x="274" y="-84" font-family="Helvetica,sans-Serif" font-size="10.00"> &gt;::getStates</text>
</a>
</g>
</g>
<!-- Node41&#45;&gt;Node45 -->
<g id="edge4" class="edge"><title>Node41&#45;&gt;Node45</title>
<path fill="none" stroke="midnightblue" d="M166.366,-104.478C176.383,-103.306 186.594,-102.111 196.535,-100.948"/>
<polygon fill="midnightblue" stroke="midnightblue" points="197.251,-104.388 206.776,-99.7496 196.437,-97.4357 197.251,-104.388"/>
</g>
<!-- Node46 -->
<g id="node6" class="node"><title>Node46</title>
<g id="a_node6"><a xlink:href="MatrixElements_8cpp.html#af52815f624512751601fb56a7316f061" target="_top" xlink:title="selectionRulesMomentum">
<polygon fill="none" stroke="black" points="204,-38.5 204,-57.5 344,-57.5 344,-38.5 204,-38.5"/>
<text text-anchor="middle" x="274" y="-45.5" font-family="Helvetica,sans-Serif" font-size="10.00">selectionRulesMomentum</text>
</a>
</g>
</g>
<!-- Node41&#45;&gt;Node46 -->
<g id="edge5" class="edge"><title>Node41&#45;&gt;Node46</title>
<path fill="none" stroke="midnightblue" d="M107.108,-104.441C130.805,-94.39 169.659,-78.4728 204,-67 210.968,-64.6722 218.398,-62.4061 225.704,-60.2975"/>
<polygon fill="midnightblue" stroke="midnightblue" points="226.86,-63.6083 235.537,-57.5286 224.962,-56.8703 226.86,-63.6083"/>
</g>
<!-- Node48 -->
<g id="node8" class="node"><title>Node48</title>
<g id="a_node8"><a xlink:href="MatrixElements_8cpp.html#a0426020af6225ce85898528250c929b8" target="_top" xlink:title="selectionRulesMultipole">
<polygon fill="none" stroke="black" points="210.5,-0.5 210.5,-19.5 337.5,-19.5 337.5,-0.5 210.5,-0.5"/>
<text text-anchor="middle" x="274" y="-7.5" font-family="Helvetica,sans-Serif" font-size="10.00">selectionRulesMultipole</text>
</a>
</g>
</g>
<!-- Node41&#45;&gt;Node48 -->
<g id="edge9" class="edge"><title>Node41&#45;&gt;Node48</title>
<path fill="none" stroke="midnightblue" d="M95.652,-104.376C115.525,-86.9042 160.219,-49.8511 204,-29 208.908,-26.6626 214.153,-24.5692 219.478,-22.7047"/>
<polygon fill="midnightblue" stroke="midnightblue" points="220.656,-26.0024 229.091,-19.5925 218.5,-19.3426 220.656,-26.0024"/>
</g>
<!-- Node46&#45;&gt;Node42 -->
<g id="edge6" class="edge"><title>Node46&#45;&gt;Node42</title>
<path fill="none" stroke="midnightblue" d="M308.244,-57.6138C328.734,-63.0333 355.658,-69.2535 380,-72 431.23,-77.7804 444.454,-72.9909 496,-72 504.29,-71.8406 513.32,-71.5385 521.494,-71.2164"/>
<polygon fill="midnightblue" stroke="midnightblue" points="521.766,-74.7081 531.611,-70.7918 521.473,-67.7143 521.766,-74.7081"/>
</g>
<!-- Node47 -->
<g id="node7" class="node"><title>Node47</title>
<g id="a_node7"><a xlink:href="namespaceboost_1_1multiprecision.html#ab6f80ccf8e1d88df8a8e3acd039d63eb" target="_top" xlink:title="boost::multiprecision\l::fabs">
<polygon fill="none" stroke="black" points="380,-33 380,-63 496,-63 496,-33 380,-33"/>
<text text-anchor="start" x="388" y="-51" font-family="Helvetica,sans-Serif" font-size="10.00">boost::multiprecision</text>
<text text-anchor="middle" x="438" y="-40" font-family="Helvetica,sans-Serif" font-size="10.00">::fabs</text>
</a>
</g>
</g>
<!-- Node46&#45;&gt;Node47 -->
<g id="edge7" class="edge"><title>Node46&#45;&gt;Node47</title>
<path fill="none" stroke="midnightblue" d="M344.172,-48C352.61,-48 361.222,-48 369.632,-48"/>
<polygon fill="midnightblue" stroke="midnightblue" points="369.766,-51.5001 379.766,-48 369.766,-44.5001 369.766,-51.5001"/>
</g>
<!-- Node47&#45;&gt;Node42 -->
<g id="edge8" class="edge"><title>Node47&#45;&gt;Node42</title>
<path fill="none" stroke="midnightblue" d="M496.054,-59.5155C505.119,-61.3452 514.091,-63.1559 521.961,-64.7444"/>
<polygon fill="midnightblue" stroke="midnightblue" points="521.422,-68.2061 531.917,-66.7538 522.807,-61.3445 521.422,-68.2061"/>
</g>
<!-- Node48&#45;&gt;Node42 -->
<g id="edge10" class="edge"><title>Node48&#45;&gt;Node42</title>
<path fill="none" stroke="midnightblue" d="M337.981,-2.86039C383.613,-0.225004 445.842,-1.97972 496,-23 511.055,-29.3092 524.61,-41.9109 534.103,-52.4785"/>
<polygon fill="midnightblue" stroke="midnightblue" points="531.655,-55.0031 540.797,-60.3584 536.99,-50.4711 531.655,-55.0031"/>
</g>
<!-- Node48&#45;&gt;Node47 -->
<g id="edge11" class="edge"><title>Node48&#45;&gt;Node47</title>
<path fill="none" stroke="midnightblue" d="M315.879,-19.589C332.326,-23.4469 351.725,-27.9973 370.122,-32.3125"/>
<polygon fill="midnightblue" stroke="midnightblue" points="369.385,-35.7347 379.92,-34.611 370.984,-28.9197 369.385,-35.7347"/>
</g>
</g>
</svg>
