<?xml version="1.0" encoding="UTF-8" standalone="no"?>
<!DOCTYPE svg PUBLIC "-//W3C//DTD SVG 1.1//EN"
 "http://www.w3.org/Graphics/SVG/1.1/DTD/svg11.dtd">
<!-- Generated by graphviz version 2.38.0 (20140413.2041)
 -->
<!-- Title: Eigen::Tensor::coeff Pages: 1 -->
<svg width="306pt" height="149pt"
 viewBox="0.00 0.00 306.00 148.50" xmlns="http://www.w3.org/2000/svg" xmlns:xlink="http://www.w3.org/1999/xlink">
<g id="graph0" class="graph" transform="scale(1 1) rotate(0) translate(4 144.5)">
<title>Eigen::Tensor::coeff</title>
<!-- Node68 -->
<g id="node1" class="node"><title>Node68</title>
<polygon fill="#bfbfbf" stroke="black" points="0,-55 0,-74 109,-74 109,-55 0,-55"/>
<text text-anchor="middle" x="54.5" y="-62" font-family="Helvetica,sans-Serif" font-size="10.00">Eigen::Tensor::coeff</text>
</g>
<!-- Node69 -->
<g id="node2" class="node"><title>Node69</title>
<g id="a_node2"><a xlink:href="structEigen_1_1internal_1_1CoeffLoader.html#ae63c80db8734f22daf0f01a9cffc2099" target="_top" xlink:title="Eigen::internal::CoeffLoader\l\&lt; Eigen::Tensor, Tensor::\lRawAccess \&gt;::coeff">
<polygon fill="none" stroke="black" points="147,-99 147,-140 296,-140 296,-99 147,-99"/>
<text text-anchor="start" x="155" y="-128" font-family="Helvetica,sans-Serif" font-size="10.00">Eigen::internal::CoeffLoader</text>
<text text-anchor="start" x="155" y="-117" font-family="Helvetica,sans-Serif" font-size="10.00">&lt; Eigen::Tensor, Tensor::</text>
<text text-anchor="middle" x="221.5" y="-106" font-family="Helvetica,sans-Serif" font-size="10.00">RawAccess &gt;::coeff</text>
</a>
</g>
</g>
<!-- Node68&#45;&gt;Node69 -->
<g id="edge1" class="edge"><title>Node68&#45;&gt;Node69</title>
<path fill="none" stroke="midnightblue" d="M93.8975,-77.2992C113.229,-83.7429 137.136,-91.7119 158.95,-98.9834"/>
<polygon fill="midnightblue" stroke="midnightblue" points="94.8345,-73.9222 84.2408,-74.0803 92.6208,-80.563 94.8345,-73.9222"/>
</g>
<!-- Node70 -->
<g id="node3" class="node"><title>Node70</title>
<g id="a_node3"><a xlink:href="structEigen_1_1internal_1_1TensorPrinter_3_01Tensor_00_010_01_4.html#a4ed64d0c0cceee3f2aec009c833937e0" target="_top" xlink:title="Eigen::internal::TensorPrinter\l\&lt; Tensor, 0 \&gt;::run">
<polygon fill="none" stroke="black" points="145,-49.5 145,-79.5 298,-79.5 298,-49.5 145,-49.5"/>
<text text-anchor="start" x="153" y="-67.5" font-family="Helvetica,sans-Serif" font-size="10.00">Eigen::internal::TensorPrinter</text>
<text text-anchor="middle" x="221.5" y="-56.5" font-family="Helvetica,sans-Serif" font-size="10.00">&lt; Tensor, 0 &gt;::run</text>
</a>
</g>
</g>
<!-- Node68&#45;&gt;Node70 -->
<g id="edge2" class="edge"><title>Node68&#45;&gt;Node70</title>
<path fill="none" stroke="midnightblue" d="M119.131,-64.5C127.51,-64.5 136.164,-64.5 144.72,-64.5"/>
<polygon fill="midnightblue" stroke="midnightblue" points="119.071,-61.0001 109.071,-64.5 119.071,-68.0001 119.071,-61.0001"/>
</g>
<!-- Node71 -->
<g id="node4" class="node"><title>Node71</title>
<g id="a_node4"><a xlink:href="classtensor__interface.html#a7a0253893f96e390d00e9e37c05ace13" target="_top" xlink:title="tensor_interface::vector\l_to_stl">
<polygon fill="none" stroke="black" points="156,-0.5 156,-30.5 287,-30.5 287,-0.5 156,-0.5"/>
<text text-anchor="start" x="164" y="-18.5" font-family="Helvetica,sans-Serif" font-size="10.00">tensor_interface::vector</text>
<text text-anchor="middle" x="221.5" y="-7.5" font-family="Helvetica,sans-Serif" font-size="10.00">_to_stl</text>
</a>
</g>
</g>
<!-- Node68&#45;&gt;Node71 -->
<g id="edge3" class="edge"><title>Node68&#45;&gt;Node71</title>
<path fill="none" stroke="midnightblue" d="M97.4372,-52.0459C119.477,-45.5008 146.659,-37.4287 169.865,-30.537"/>
<polygon fill="midnightblue" stroke="midnightblue" points="96.2952,-48.7339 87.7054,-54.936 98.288,-55.4443 96.2952,-48.7339"/>
</g>
</g>
</svg>
