<?xml version="1.0" encoding="UTF-8" standalone="no"?>
<!DOCTYPE svg PUBLIC "-//W3C//DTD SVG 1.1//EN"
 "http://www.w3.org/Graphics/SVG/1.1/DTD/svg11.dtd">
<!-- Generated by graphviz version 2.38.0 (20140413.2041)
 -->
<!-- Title: Eigen::TensorOpCost::cwiseMax Pages: 1 -->
<svg width="274pt" height="186pt"
 viewBox="0.00 0.00 274.00 186.00" xmlns="http://www.w3.org/2000/svg" xmlns:xlink="http://www.w3.org/1999/xlink">
<g id="graph0" class="graph" transform="scale(1 1) rotate(0) translate(4 182)">
<title>Eigen::TensorOpCost::cwiseMax</title>
<!-- Node31 -->
<g id="node1" class="node"><title>Node31</title>
<polygon fill="#bfbfbf" stroke="black" points="0,-73.5 0,-103.5 115,-103.5 115,-73.5 0,-73.5"/>
<text text-anchor="start" x="8" y="-91.5" font-family="Helvetica,sans-Serif" font-size="10.00">Eigen::TensorOpCost</text>
<text text-anchor="middle" x="57.5" y="-80.5" font-family="Helvetica,sans-Serif" font-size="10.00">::cwiseMax</text>
</g>
<!-- Node32 -->
<g id="node2" class="node"><title>Node32</title>
<g id="a_node2"><a xlink:href="classEigen_1_1TensorOpCost.html#ab219b63415092d08e09310471cf6fc23" target="_top" xlink:title="Eigen::TensorOpCost\l::bytes_loaded">
<polygon fill="none" stroke="black" points="151,-147.5 151,-177.5 266,-177.5 266,-147.5 151,-147.5"/>
<text text-anchor="start" x="159" y="-165.5" font-family="Helvetica,sans-Serif" font-size="10.00">Eigen::TensorOpCost</text>
<text text-anchor="middle" x="208.5" y="-154.5" font-family="Helvetica,sans-Serif" font-size="10.00">::bytes_loaded</text>
</a>
</g>
</g>
<!-- Node31&#45;&gt;Node32 -->
<g id="edge1" class="edge"><title>Node31&#45;&gt;Node32</title>
<path fill="none" stroke="midnightblue" d="M84.8729,-103.612C103.195,-113.898 128.301,-127.574 151,-138.5 154.316,-140.096 157.765,-141.698 161.252,-143.276"/>
<polygon fill="midnightblue" stroke="midnightblue" points="159.941,-146.523 170.501,-147.373 162.776,-140.123 159.941,-146.523"/>
</g>
<!-- Node33 -->
<g id="node3" class="node"><title>Node33</title>
<g id="a_node3"><a xlink:href="classEigen_1_1TensorOpCost.html#a5d813f65797b15c9da19d23ae7ceb5eb" target="_top" xlink:title="Eigen::TensorOpCost\l::bytes_stored">
<polygon fill="none" stroke="black" points="151,-98.5 151,-128.5 266,-128.5 266,-98.5 151,-98.5"/>
<text text-anchor="start" x="159" y="-116.5" font-family="Helvetica,sans-Serif" font-size="10.00">Eigen::TensorOpCost</text>
<text text-anchor="middle" x="208.5" y="-105.5" font-family="Helvetica,sans-Serif" font-size="10.00">::bytes_stored</text>
</a>
</g>
</g>
<!-- Node31&#45;&gt;Node33 -->
<g id="edge2" class="edge"><title>Node31&#45;&gt;Node33</title>
<path fill="none" stroke="midnightblue" d="M115.256,-98.0227C123.649,-99.4311 132.362,-100.893 140.933,-102.331"/>
<polygon fill="midnightblue" stroke="midnightblue" points="140.461,-105.801 150.902,-104.004 141.619,-98.8972 140.461,-105.801"/>
</g>
<!-- Node34 -->
<g id="node4" class="node"><title>Node34</title>
<g id="a_node4"><a xlink:href="classEigen_1_1TensorOpCost.html#ac24758ad7deef1e3968f66eb33eaf139" target="_top" xlink:title="Eigen::TensorOpCost\l::compute_cycles">
<polygon fill="none" stroke="black" points="151,-49.5 151,-79.5 266,-79.5 266,-49.5 151,-49.5"/>
<text text-anchor="start" x="159" y="-67.5" font-family="Helvetica,sans-Serif" font-size="10.00">Eigen::TensorOpCost</text>
<text text-anchor="middle" x="208.5" y="-56.5" font-family="Helvetica,sans-Serif" font-size="10.00">::compute_cycles</text>
</a>
</g>
</g>
<!-- Node31&#45;&gt;Node34 -->
<g id="edge3" class="edge"><title>Node31&#45;&gt;Node34</title>
<path fill="none" stroke="midnightblue" d="M115.256,-79.3582C123.649,-78.0062 132.362,-76.6028 140.933,-75.2222"/>
<polygon fill="midnightblue" stroke="midnightblue" points="141.586,-78.6622 150.902,-73.6164 140.473,-71.7513 141.586,-78.6622"/>
</g>
<!-- Node35 -->
<g id="node5" class="node"><title>Node35</title>
<g id="a_node5"><a xlink:href="classEigen_1_1TensorOpCost.html#a918b5fe64078a5ca8877387409ce4055" target="_top" xlink:title="Eigen::TensorOpCost\l::TensorOpCost">
<polygon fill="none" stroke="black" points="151,-0.5 151,-30.5 266,-30.5 266,-0.5 151,-0.5"/>
<text text-anchor="start" x="159" y="-18.5" font-family="Helvetica,sans-Serif" font-size="10.00">Eigen::TensorOpCost</text>
<text text-anchor="middle" x="208.5" y="-7.5" font-family="Helvetica,sans-Serif" font-size="10.00">::TensorOpCost</text>
</a>
</g>
</g>
<!-- Node31&#45;&gt;Node35 -->
<g id="edge4" class="edge"><title>Node31&#45;&gt;Node35</title>
<path fill="none" stroke="midnightblue" d="M86.6096,-73.3358C104.825,-63.6529 129.145,-50.9934 151,-40.5 154.862,-38.6458 158.894,-36.7618 162.949,-34.9022"/>
<polygon fill="midnightblue" stroke="midnightblue" points="164.715,-37.9446 172.383,-30.6334 161.83,-31.567 164.715,-37.9446"/>
</g>
</g>
</svg>
