<?xml version="1.0" encoding="UTF-8" standalone="no"?>
<!DOCTYPE svg PUBLIC "-//W3C//DTD SVG 1.1//EN"
 "http://www.w3.org/Graphics/SVG/1.1/DTD/svg11.dtd">
<!-- Generated by graphviz version 2.38.0 (20140413.2041)
 -->
<!-- Title: Eigen::FullPivHouseholderQR::dimensionOfKernel Pages: 1 -->
<svg width="339pt" height="66pt"
 viewBox="0.00 0.00 339.00 66.00" xmlns="http://www.w3.org/2000/svg" xmlns:xlink="http://www.w3.org/1999/xlink">
<g id="graph0" class="graph" transform="scale(1 1) rotate(0) translate(4 62)">
<title>Eigen::FullPivHouseholderQR::dimensionOfKernel</title>
<!-- Node36 -->
<g id="node1" class="node"><title>Node36</title>
<polygon fill="#bfbfbf" stroke="black" points="0,-14 0,-44 138,-44 138,-14 0,-14"/>
<text text-anchor="start" x="8" y="-32" font-family="Helvetica,sans-Serif" font-size="10.00">Eigen::FullPivHouseholder</text>
<text text-anchor="middle" x="69" y="-21" font-family="Helvetica,sans-Serif" font-size="10.00">QR::dimensionOfKernel</text>
</g>
<!-- Node37 -->
<g id="node2" class="node"><title>Node37</title>
<g id="a_node2"><a xlink:href="qr__fullpivoting_8cpp.html#a234047f1d6b0303293c8918968a9670e" target="_top" xlink:title="qr">
<polygon fill="none" stroke="black" points="174,-38.5 174,-57.5 203,-57.5 203,-38.5 174,-38.5"/>
<text text-anchor="middle" x="188.5" y="-45.5" font-family="Helvetica,sans-Serif" font-size="10.00">qr</text>
</a>
</g>
</g>
<!-- Node36&#45;&gt;Node37 -->
<g id="edge1" class="edge"><title>Node36&#45;&gt;Node37</title>
<path fill="none" stroke="midnightblue" d="M148.036,-41.6187C157.841,-43.2041 166.84,-44.6593 173.761,-45.7783"/>
<polygon fill="midnightblue" stroke="midnightblue" points="148.44,-38.1386 138.01,-39.9974 147.323,-45.0488 148.44,-38.1386"/>
</g>
<!-- Node39 -->
<g id="node4" class="node"><title>Node39</title>
<g id="a_node4"><a xlink:href="qr__fullpivoting_8cpp.html#a6693811f52bc269d1ec52b3ec57d8da2" target="_top" xlink:title="qr_verify_assert">
<polygon fill="none" stroke="black" points="239,-0.5 239,-19.5 331,-19.5 331,-0.5 239,-0.5"/>
<text text-anchor="middle" x="285" y="-7.5" font-family="Helvetica,sans-Serif" font-size="10.00">qr_verify_assert</text>
</a>
</g>
</g>
<!-- Node36&#45;&gt;Node39 -->
<g id="edge4" class="edge"><title>Node36&#45;&gt;Node39</title>
<path fill="none" stroke="midnightblue" d="M148.197,-22.0573C178.677,-19.3511 212.526,-16.3458 238.806,-14.0126"/>
<polygon fill="midnightblue" stroke="midnightblue" points="147.656,-18.5914 138.005,-22.9622 148.275,-25.564 147.656,-18.5914"/>
</g>
<!-- Node38 -->
<g id="node3" class="node"><title>Node38</title>
<g id="a_node3"><a xlink:href="qr__fullpivoting_8cpp.html#a9bfcf72d1c319774f027d3446dc121dd" target="_top" xlink:title="qr_invertible">
<polygon fill="none" stroke="black" points="247.5,-38.5 247.5,-57.5 322.5,-57.5 322.5,-38.5 247.5,-38.5"/>
<text text-anchor="middle" x="285" y="-45.5" font-family="Helvetica,sans-Serif" font-size="10.00">qr_invertible</text>
</a>
</g>
</g>
<!-- Node37&#45;&gt;Node38 -->
<g id="edge2" class="edge"><title>Node37&#45;&gt;Node38</title>
<path fill="none" stroke="midnightblue" d="M213.28,-48C223.559,-48 235.826,-48 247.233,-48"/>
<polygon fill="midnightblue" stroke="midnightblue" points="213.04,-44.5001 203.04,-48 213.04,-51.5001 213.04,-44.5001"/>
</g>
<!-- Node37&#45;&gt;Node39 -->
<g id="edge3" class="edge"><title>Node37&#45;&gt;Node39</title>
<path fill="none" stroke="midnightblue" d="M212.724,-38.6612C227.175,-32.8504 245.71,-25.3971 260.257,-19.5476"/>
<polygon fill="midnightblue" stroke="midnightblue" points="211.012,-35.5773 203.04,-42.5555 213.623,-42.0719 211.012,-35.5773"/>
</g>
</g>
</svg>
