<?xml version="1.0" encoding="UTF-8" standalone="no"?>
<!DOCTYPE svg PUBLIC "-//W3C//DTD SVG 1.1//EN"
 "http://www.w3.org/Graphics/SVG/1.1/DTD/svg11.dtd">
<!-- Generated by graphviz version 2.38.0 (20140413.2041)
 -->
<!-- Title: Hamiltonianmatrix::findUnnecessaryStates Pages: 1 -->
<svg width="436pt" height="165pt"
 viewBox="0.00 0.00 436.00 165.00" xmlns="http://www.w3.org/2000/svg" xmlns:xlink="http://www.w3.org/1999/xlink">
<g id="graph0" class="graph" transform="scale(1 1) rotate(0) translate(4 161)">
<title>Hamiltonianmatrix::findUnnecessaryStates</title>
<!-- Node167 -->
<g id="node1" class="node"><title>Node167</title>
<polygon fill="#bfbfbf" stroke="black" points="0,-63 0,-93 128,-93 128,-63 0,-63"/>
<text text-anchor="start" x="8" y="-81" font-family="Helvetica,sans-Serif" font-size="10.00">Hamiltonianmatrix::</text>
<text text-anchor="middle" x="64" y="-70" font-family="Helvetica,sans-Serif" font-size="10.00">findUnnecessaryStates</text>
</g>
<!-- Node168 -->
<g id="node2" class="node"><title>Node168</title>
<g id="a_node2"><a xlink:href="ArrayCwiseUnaryOps_8h.html#a35560f7dbf19244fda7e463d14157c43" target="_top" xlink:title="abs">
<polygon fill="none" stroke="black" points="205,-137.5 205,-156.5 239,-156.5 239,-137.5 205,-137.5"/>
<text text-anchor="middle" x="222" y="-144.5" font-family="Helvetica,sans-Serif" font-size="10.00">abs</text>
</a>
</g>
</g>
<!-- Node167&#45;&gt;Node168 -->
<g id="edge1" class="edge"><title>Node167&#45;&gt;Node168</title>
<path fill="none" stroke="midnightblue" d="M92.2315,-93.1094C111.84,-103.652 139.116,-117.634 164,-128 174.005,-132.168 185.279,-136.083 195.143,-139.263"/>
<polygon fill="midnightblue" stroke="midnightblue" points="194.211,-142.639 204.8,-142.291 196.305,-135.959 194.211,-142.639"/>
</g>
<!-- Node169 -->
<g id="node3" class="node"><title>Node169</title>
<g id="a_node3"><a xlink:href="classHamiltonianmatrix.html#a9cd965385a65becbfb993fc79dc428f7" target="_top" xlink:title="Hamiltonianmatrix::\lnum_coordinates">
<polygon fill="none" stroke="black" points="166.5,-88 166.5,-118 277.5,-118 277.5,-88 166.5,-88"/>
<text text-anchor="start" x="174.5" y="-106" font-family="Helvetica,sans-Serif" font-size="10.00">Hamiltonianmatrix::</text>
<text text-anchor="middle" x="222" y="-95" font-family="Helvetica,sans-Serif" font-size="10.00">num_coordinates</text>
</a>
</g>
</g>
<!-- Node167&#45;&gt;Node169 -->
<g id="edge2" class="edge"><title>Node167&#45;&gt;Node169</title>
<path fill="none" stroke="midnightblue" d="M128.002,-88.0964C137.317,-89.5892 146.928,-91.1295 156.278,-92.6278"/>
<polygon fill="midnightblue" stroke="midnightblue" points="155.865,-96.1063 166.293,-94.2329 156.973,-89.1945 155.865,-96.1063"/>
</g>
<!-- Node171 -->
<g id="node5" class="node"><title>Node171</title>
<g id="a_node5"><a xlink:href="classEigen_1_1SparseMatrix.html#a4e5f706cfae14d2eaec1ea1e234905f1" target="_top" xlink:title="Eigen::SparseMatrix\l::outerSize">
<polygon fill="none" stroke="black" points="166,-39 166,-69 278,-69 278,-39 166,-39"/>
<text text-anchor="start" x="174" y="-57" font-family="Helvetica,sans-Serif" font-size="10.00">Eigen::SparseMatrix</text>
<text text-anchor="middle" x="222" y="-46" font-family="Helvetica,sans-Serif" font-size="10.00">::outerSize</text>
</a>
</g>
</g>
<!-- Node167&#45;&gt;Node171 -->
<g id="edge4" class="edge"><title>Node167&#45;&gt;Node171</title>
<path fill="none" stroke="midnightblue" d="M128.002,-68.3075C137.192,-66.8935 146.672,-65.4351 155.903,-64.0149"/>
<polygon fill="midnightblue" stroke="midnightblue" points="156.446,-67.4726 165.798,-62.4926 155.382,-60.554 156.446,-67.4726"/>
</g>
<!-- Node172 -->
<g id="node6" class="node"><title>Node172</title>
<g id="a_node6"><a xlink:href="namespaceEigen_1_1half__impl.html#a829ad00a9c93131d5a8342b4ee29d83d" target="_top" xlink:title="Eigen::half_impl::pow">
<polygon fill="none" stroke="black" points="164,-0.5 164,-19.5 280,-19.5 280,-0.5 164,-0.5"/>
<text text-anchor="middle" x="222" y="-7.5" font-family="Helvetica,sans-Serif" font-size="10.00">Eigen::half_impl::pow</text>
</a>
</g>
</g>
<!-- Node167&#45;&gt;Node172 -->
<g id="edge5" class="edge"><title>Node167&#45;&gt;Node172</title>
<path fill="none" stroke="midnightblue" d="M94.0565,-62.8279C113.576,-52.9062 140.017,-39.9833 164,-30 169.845,-27.5667 176.104,-25.1687 182.256,-22.9247"/>
<polygon fill="midnightblue" stroke="midnightblue" points="183.513,-26.1926 191.76,-19.5423 181.166,-19.5978 183.513,-26.1926"/>
</g>
<!-- Node170 -->
<g id="node4" class="node"><title>Node170</title>
<g id="a_node4"><a xlink:href="classEigen_1_1SparseMatrix.html#a62e61bb861eee306d5b069ce652b5aa5" target="_top" xlink:title="Eigen::SparseMatrix\l::rows">
<polygon fill="none" stroke="black" points="316,-88 316,-118 428,-118 428,-88 316,-88"/>
<text text-anchor="start" x="324" y="-106" font-family="Helvetica,sans-Serif" font-size="10.00">Eigen::SparseMatrix</text>
<text text-anchor="middle" x="372" y="-95" font-family="Helvetica,sans-Serif" font-size="10.00">::rows</text>
</a>
</g>
</g>
<!-- Node169&#45;&gt;Node170 -->
<g id="edge3" class="edge"><title>Node169&#45;&gt;Node170</title>
<path fill="none" stroke="midnightblue" d="M277.689,-103C286.663,-103 296.045,-103 305.254,-103"/>
<polygon fill="midnightblue" stroke="midnightblue" points="305.547,-106.5 315.547,-103 305.547,-99.5001 305.547,-106.5"/>
</g>
</g>
</svg>
