<?xml version="1.0" encoding="UTF-8" standalone="no"?>
<!DOCTYPE svg PUBLIC "-//W3C//DTD SVG 1.1//EN"
 "http://www.w3.org/Graphics/SVG/1.1/DTD/svg11.dtd">
<!-- Generated by graphviz version 2.38.0 (20140413.2041)
 -->
<!-- Title: Eigen::GeneralizedEigenSolver::eigenvalues Pages: 1 -->
<svg width="510pt" height="39pt"
 viewBox="0.00 0.00 510.00 39.00" xmlns="http://www.w3.org/2000/svg" xmlns:xlink="http://www.w3.org/1999/xlink">
<g id="graph0" class="graph" transform="scale(1 1) rotate(0) translate(4 35)">
<title>Eigen::GeneralizedEigenSolver::eigenvalues</title>
<!-- Node99 -->
<g id="node1" class="node"><title>Node99</title>
<polygon fill="#bfbfbf" stroke="black" points="0,-0.5 0,-30.5 162,-30.5 162,-0.5 0,-0.5"/>
<text text-anchor="start" x="8" y="-18.5" font-family="Helvetica,sans-Serif" font-size="10.00">Eigen::GeneralizedEigenSolver</text>
<text text-anchor="middle" x="81" y="-7.5" font-family="Helvetica,sans-Serif" font-size="10.00">::eigenvalues</text>
</g>
<!-- Node100 -->
<g id="node2" class="node"><title>Node100</title>
<g id="a_node2"><a xlink:href="eigensolver__generalized__real_8cpp.html#aa8cb39f7fc3c05a5a869203d49aea8df" target="_top" xlink:title="generalized_eigensolver_real">
<polygon fill="none" stroke="black" points="198,-6 198,-25 353,-25 353,-6 198,-6"/>
<text text-anchor="middle" x="275.5" y="-13" font-family="Helvetica,sans-Serif" font-size="10.00">generalized_eigensolver_real</text>
</a>
</g>
</g>
<!-- Node99&#45;&gt;Node100 -->
<g id="edge1" class="edge"><title>Node99&#45;&gt;Node100</title>
<path fill="none" stroke="midnightblue" d="M172.507,-15.5C180.959,-15.5 189.471,-15.5 197.78,-15.5"/>
<polygon fill="midnightblue" stroke="midnightblue" points="172.243,-12.0001 162.243,-15.5 172.243,-19.0001 172.243,-12.0001"/>
</g>
<!-- Node101 -->
<g id="node3" class="node"><title>Node101</title>
<g id="a_node3"><a xlink:href="boostmultiprec_8cpp.html#af8983cadf0ba3b55cb55879f4b3d833d" target="_top" xlink:title="test_boostmultiprec">
<polygon fill="none" stroke="black" points="389,-6 389,-25 502,-25 502,-6 389,-6"/>
<text text-anchor="middle" x="445.5" y="-13" font-family="Helvetica,sans-Serif" font-size="10.00">test_boostmultiprec</text>
</a>
</g>
</g>
<!-- Node100&#45;&gt;Node101 -->
<g id="edge2" class="edge"><title>Node100&#45;&gt;Node101</title>
<path fill="none" stroke="midnightblue" d="M363.228,-15.5C371.837,-15.5 380.408,-15.5 388.578,-15.5"/>
<polygon fill="midnightblue" stroke="midnightblue" points="363.126,-12.0001 353.126,-15.5 363.126,-19.0001 363.126,-12.0001"/>
</g>
</g>
</svg>
