<?xml version="1.0" encoding="UTF-8" standalone="no"?>
<!DOCTYPE svg PUBLIC "-//W3C//DTD SVG 1.1//EN"
 "http://www.w3.org/Graphics/SVG/1.1/DTD/svg11.dtd">
<!-- Generated by graphviz version 2.38.0 (20140413.2041)
 -->
<!-- Title: Eigen::Transform::matrix Pages: 1 -->
<!--zoomable 1050 -->
<svg id="main" version="1.1" xmlns="http://www.w3.org/2000/svg" xmlns:xlink="http://www.w3.org/1999/xlink" xml:space="preserve" onload="init(evt)">
<style type="text/css"><![CDATA[
.edge:hover path { stroke: red; }
.edge:hover polygon { stroke: red; fill: red; }
]]></style>
<script type="text/javascript"><![CDATA[
var edges = document.getElementsByTagName('g');
if (edges && edges.length) {
  for (var i=0;i<edges.length;i++) {
    if (edges[i].id.substr(0,4)=='edge') {
      edges[i].setAttribute('class','edge');
    }
  }
}
]]></script>
        <defs>
                <circle id="rim" cx="0" cy="0" r="7"/>
                <circle id="rim2" cx="0" cy="0" r="3.5"/>
                <g id="zoomPlus">
                        <use xlink:href="#rim" fill="#404040">
                                <set attributeName="fill" to="#808080" begin="zoomplus.mouseover" end="zoomplus.mouseout"/>
                        </use>
                        <path d="M-4,0h8M0,-4v8" fill="none" stroke="white" stroke-width="1.5" pointer-events="none"/>
                </g>
                <g id="zoomMin">
                        <use xlink:href="#rim" fill="#404040">
                                <set attributeName="fill" to="#808080" begin="zoomminus.mouseover" end="zoomminus.mouseout"/>
                        </use>
                        <path d="M-4,0h8" fill="none" stroke="white" stroke-width="1.5" pointer-events="none"/>
                </g>
                <g id="dirArrow">
                        <path fill="none" stroke="white" stroke-width="1.5" d="M0,-3.0v7 M-2.5,-0.5L0,-3.0L2.5,-0.5"/>
                </g>
               <g id="resetDef">
                       <use xlink:href="#rim2" fill="#404040">
                               <set attributeName="fill" to="#808080" begin="reset.mouseover" end="reset.mouseout"/>
                       </use>
               </g>
        </defs>

<script type="text/javascript">
var viewWidth = 390;
var viewHeight = 1050;
var sectionId = 'dynsection-20';
</script>
<script xlink:href="svgpan.js"/>
<svg id="graph" class="graph">
<g id="viewport">
<title>Eigen::Transform::matrix</title>
<!-- Node124 -->
<g id="node1" class="node"><title>Node124</title>
<polygon fill="#bfbfbf" stroke="black" points="0,-549.5 0,-568.5 133,-568.5 133,-549.5 0,-549.5"/>
<text text-anchor="middle" x="66.5" y="-556.5" font-family="Helvetica,sans-Serif" font-size="10.00">Eigen::Transform::matrix</text>
</g>
<!-- Node125 -->
<g id="node2" class="node"><title>Node125</title>
<g id="a_node2"><a xlink:href="classEigen_1_1Transform.html#a20ca137b84f18b9c41a0fef9c222e0da" target="_top" xlink:title="Eigen::Transform::inverse">
<polygon fill="none" stroke="black" points="207,-1022.5 207,-1041.5 344,-1041.5 344,-1022.5 207,-1022.5"/>
<text text-anchor="middle" x="275.5" y="-1029.5" font-family="Helvetica,sans-Serif" font-size="10.00">Eigen::Transform::inverse</text>
</a>
</g>
</g>
<!-- Node124&#45;&gt;Node125 -->
<g id="edge1" class="edge"><title>Node124&#45;&gt;Node125</title>
<path fill="none" stroke="midnightblue" d="M69.0498,-578.54C75.7119,-657.431 104.553,-951.19 169,-1013 179.275,-1022.85 192.83,-1028.52 206.788,-1031.61"/>
<polygon fill="midnightblue" stroke="midnightblue" points="72.5331,-578.193 68.2262,-568.513 65.5566,-578.766 72.5331,-578.193"/>
</g>
<!-- Node126 -->
<g id="node3" class="node"><title>Node126</title>
<g id="a_node3"><a xlink:href="classEigen_1_1UniformScaling.html#a19c405341f2c861eb0ddfc4f760fecf8" target="_top" xlink:title="Eigen::UniformScaling\l::operator*">
<polygon fill="none" stroke="black" points="214.5,-973 214.5,-1003 336.5,-1003 336.5,-973 214.5,-973"/>
<text text-anchor="start" x="222.5" y="-991" font-family="Helvetica,sans-Serif" font-size="10.00">Eigen::UniformScaling</text>
<text text-anchor="middle" x="275.5" y="-980" font-family="Helvetica,sans-Serif" font-size="10.00">::operator*</text>
</a>
</g>
</g>
<!-- Node124&#45;&gt;Node126 -->
<g id="edge2" class="edge"><title>Node124&#45;&gt;Node126</title>
<path fill="none" stroke="midnightblue" d="M69.7167,-578.662C78.3829,-652.046 112.317,-908.544 169,-964 181.151,-975.888 197.896,-982.37 214.468,-985.783"/>
<polygon fill="midnightblue" stroke="midnightblue" points="73.169,-578.047 68.5431,-568.516 66.2153,-578.852 73.169,-578.047"/>
</g>
<!-- Node127 -->
<g id="node4" class="node"><title>Node127</title>
<g id="a_node4"><a xlink:href="classEigen_1_1Translation.html#a3bdbcc636879ae5fc2258a0649fc1cb9" target="_top" xlink:title="Eigen::Translation\l::operator*">
<polygon fill="none" stroke="black" points="225.5,-924 225.5,-954 325.5,-954 325.5,-924 225.5,-924"/>
<text text-anchor="start" x="233.5" y="-942" font-family="Helvetica,sans-Serif" font-size="10.00">Eigen::Translation</text>
<text text-anchor="middle" x="275.5" y="-931" font-family="Helvetica,sans-Serif" font-size="10.00">::operator*</text>
</a>
</g>
</g>
<!-- Node124&#45;&gt;Node127 -->
<g id="edge3" class="edge"><title>Node124&#45;&gt;Node127</title>
<path fill="none" stroke="midnightblue" d="M66.6959,-578.761C65.3982,-638.912 70.16,-821.364 169,-915 184,-929.21 205.588,-935.64 225.333,-938.351"/>
<polygon fill="midnightblue" stroke="midnightblue" points="70.1958,-578.812 66.9987,-568.711 63.199,-578.601 70.1958,-578.812"/>
</g>
<!-- Node128 -->
<g id="node5" class="node"><title>Node128</title>
<g id="a_node5"><a xlink:href="structEigen_1_1internal_1_1take__matrix__for__product_3_01Transform_3_01Scalar_00_01Dim_00_01Projective_00_01Options_01_4_01_4.html#a5765f43d28e405572a1658470f8fee86" target="_top" xlink:title="Eigen::internal::take\l_matrix_for_product\&lt;\l Transform\&lt; Scalar, Dim,\l Projective, Options \&gt; \&gt;::run">
<polygon fill="none" stroke="black" points="199,-853 199,-905 352,-905 352,-853 199,-853"/>
<text text-anchor="start" x="207" y="-893" font-family="Helvetica,sans-Serif" font-size="10.00">Eigen::internal::take</text>
<text text-anchor="start" x="207" y="-882" font-family="Helvetica,sans-Serif" font-size="10.00">_matrix_for_product&lt;</text>
<text text-anchor="start" x="207" y="-871" font-family="Helvetica,sans-Serif" font-size="10.00"> Transform&lt; Scalar, Dim,</text>
<text text-anchor="middle" x="275.5" y="-860" font-family="Helvetica,sans-Serif" font-size="10.00"> Projective, Options &gt; &gt;::run</text>
</a>
</g>
</g>
<!-- Node124&#45;&gt;Node128 -->
<g id="edge4" class="edge"><title>Node124&#45;&gt;Node128</title>
<path fill="none" stroke="midnightblue" d="M68.7574,-578.765C73.0801,-629.998 91.6906,-768.358 169,-844 177.414,-852.232 187.808,-858.529 198.761,-863.344"/>
<polygon fill="midnightblue" stroke="midnightblue" points="72.2408,-578.41 68.0026,-568.7 65.2604,-578.934 72.2408,-578.41"/>
</g>
<!-- Node129 -->
<g id="node6" class="node"><title>Node129</title>
<g id="a_node6"><a xlink:href="structEigen_1_1internal_1_1transform__construct__from__matrix_3_01Other_00_01Mode_00_01Options_050c61946d4af5345cc54269dd5dfe849.html#a48de7daffd0a823a050a8c3410624af7" target="_top" xlink:title="Eigen::internal::transform\l_construct_from_matrix\&lt;\l Other, Mode, Options, Dim,\l HDim, HDim, HDim \&gt;::run">
<polygon fill="none" stroke="black" points="200.5,-782 200.5,-834 350.5,-834 350.5,-782 200.5,-782"/>
<text text-anchor="start" x="208.5" y="-822" font-family="Helvetica,sans-Serif" font-size="10.00">Eigen::internal::transform</text>
<text text-anchor="start" x="208.5" y="-811" font-family="Helvetica,sans-Serif" font-size="10.00">_construct_from_matrix&lt;</text>
<text text-anchor="start" x="208.5" y="-800" font-family="Helvetica,sans-Serif" font-size="10.00"> Other, Mode, Options, Dim,</text>
<text text-anchor="middle" x="275.5" y="-789" font-family="Helvetica,sans-Serif" font-size="10.00"> HDim, HDim, HDim &gt;::run</text>
</a>
</g>
</g>
<!-- Node124&#45;&gt;Node129 -->
<g id="edge5" class="edge"><title>Node124&#45;&gt;Node129</title>
<path fill="none" stroke="midnightblue" d="M71.3975,-578.76C80.6858,-620.684 108.055,-719.101 169,-773 178.035,-780.99 188.946,-787.165 200.28,-791.935"/>
<polygon fill="midnightblue" stroke="midnightblue" points="74.7713,-577.796 69.2867,-568.732 67.9214,-579.238 74.7713,-577.796"/>
</g>
<!-- Node130 -->
<g id="node7" class="node"><title>Node130</title>
<g id="a_node7"><a xlink:href="structEigen_1_1internal_1_1transform__construct__from__matrix_3_01Other_00_01AffineCompact_00_016667606c52bc62affddf804c45924489.html#a804f671b45dd7794fa2c33b5f0e25040" target="_top" xlink:title="Eigen::internal::transform\l_construct_from_matrix\&lt;\l Other, AffineCompact, Options,\l Dim, HDim, HDim, HDim \&gt;::run">
<polygon fill="none" stroke="black" points="190,-711 190,-763 361,-763 361,-711 190,-711"/>
<text text-anchor="start" x="198" y="-751" font-family="Helvetica,sans-Serif" font-size="10.00">Eigen::internal::transform</text>
<text text-anchor="start" x="198" y="-740" font-family="Helvetica,sans-Serif" font-size="10.00">_construct_from_matrix&lt;</text>
<text text-anchor="start" x="198" y="-729" font-family="Helvetica,sans-Serif" font-size="10.00"> Other, AffineCompact, Options,</text>
<text text-anchor="middle" x="275.5" y="-718" font-family="Helvetica,sans-Serif" font-size="10.00"> Dim, HDim, HDim, HDim &gt;::run</text>
</a>
</g>
</g>
<!-- Node124&#45;&gt;Node130 -->
<g id="edge6" class="edge"><title>Node124&#45;&gt;Node130</title>
<path fill="none" stroke="midnightblue" d="M75.911,-577.686C90.5314,-608.109 123.482,-668.327 169,-702 175.438,-706.763 182.562,-710.901 189.979,-714.493"/>
<polygon fill="midnightblue" stroke="midnightblue" points="79.0667,-576.172 71.6639,-568.592 72.7243,-579.134 79.0667,-576.172"/>
</g>
<!-- Node131 -->
<g id="node8" class="node"><title>Node131</title>
<g id="a_node8"><a xlink:href="structEigen_1_1internal_1_1transform__left__product__impl_3_01Other_00_01Mode_00_01Options_00_01370330ef96ef71bb19caafea11739c2c.html#a968981b9c9565d8e00045b0a1eed4018" target="_top" xlink:title="Eigen::internal::transform\l_left_product_impl\&lt; Other,\l Mode, Options, Dim, HDim,\l HDim, HDim \&gt;::run">
<polygon fill="none" stroke="black" points="200.5,-640 200.5,-692 350.5,-692 350.5,-640 200.5,-640"/>
<text text-anchor="start" x="208.5" y="-680" font-family="Helvetica,sans-Serif" font-size="10.00">Eigen::internal::transform</text>
<text text-anchor="start" x="208.5" y="-669" font-family="Helvetica,sans-Serif" font-size="10.00">_left_product_impl&lt; Other,</text>
<text text-anchor="start" x="208.5" y="-658" font-family="Helvetica,sans-Serif" font-size="10.00"> Mode, Options, Dim, HDim,</text>
<text text-anchor="middle" x="275.5" y="-647" font-family="Helvetica,sans-Serif" font-size="10.00"> HDim, HDim &gt;::run</text>
</a>
</g>
</g>
<!-- Node124&#45;&gt;Node131 -->
<g id="edge7" class="edge"><title>Node124&#45;&gt;Node131</title>
<path fill="none" stroke="midnightblue" d="M86.5011,-575.11C106.109,-591.08 138.105,-615.359 169,-631 178.9,-636.012 189.675,-640.538 200.432,-644.544"/>
<polygon fill="midnightblue" stroke="midnightblue" points="88.5908,-572.296 78.6538,-568.621 84.1301,-577.691 88.5908,-572.296"/>
</g>
<!-- Node132 -->
<g id="node9" class="node"><title>Node132</title>
<g id="a_node9"><a xlink:href="structEigen_1_1internal_1_1transform__left__product__impl_3_01Other_00_01AffineCompact_00_01Opti5286416fe2e38bf1b4c261fe63741506.html#a8a9869e749186ea3ec275f18bd3f2715" target="_top" xlink:title="Eigen::internal::transform\l_left_product_impl\&lt; Other,\l AffineCompact, Options, Dim,\l HDim, HDim, HDim \&gt;::run">
<polygon fill="none" stroke="black" points="195,-569 195,-621 356,-621 356,-569 195,-569"/>
<text text-anchor="start" x="203" y="-609" font-family="Helvetica,sans-Serif" font-size="10.00">Eigen::internal::transform</text>
<text text-anchor="start" x="203" y="-598" font-family="Helvetica,sans-Serif" font-size="10.00">_left_product_impl&lt; Other,</text>
<text text-anchor="start" x="203" y="-587" font-family="Helvetica,sans-Serif" font-size="10.00"> AffineCompact, Options, Dim,</text>
<text text-anchor="middle" x="275.5" y="-576" font-family="Helvetica,sans-Serif" font-size="10.00"> HDim, HDim, HDim &gt;::run</text>
</a>
</g>
</g>
<!-- Node124&#45;&gt;Node132 -->
<g id="edge8" class="edge"><title>Node124&#45;&gt;Node132</title>
<path fill="none" stroke="midnightblue" d="M132.046,-570.225C151.97,-573.691 174.15,-577.548 194.962,-581.167"/>
<polygon fill="midnightblue" stroke="midnightblue" points="132.609,-566.771 122.158,-568.506 131.41,-573.667 132.609,-566.771"/>
</g>
<!-- Node133 -->
<g id="node10" class="node"><title>Node133</title>
<g id="a_node10"><a xlink:href="structEigen_1_1internal_1_1transform__left__product__impl_3_01Other_00_01Mode_00_01Options_00_0132325b87948a4dc0e905ace2ae871e1e.html#acae024acd94f3b4485b264fc6ea0dc9d" target="_top" xlink:title="Eigen::internal::transform\l_left_product_impl\&lt; Other,\l Mode, Options, Dim, HDim,\l Dim, HDim \&gt;::run">
<polygon fill="none" stroke="black" points="200.5,-498 200.5,-550 350.5,-550 350.5,-498 200.5,-498"/>
<text text-anchor="start" x="208.5" y="-538" font-family="Helvetica,sans-Serif" font-size="10.00">Eigen::internal::transform</text>
<text text-anchor="start" x="208.5" y="-527" font-family="Helvetica,sans-Serif" font-size="10.00">_left_product_impl&lt; Other,</text>
<text text-anchor="start" x="208.5" y="-516" font-family="Helvetica,sans-Serif" font-size="10.00"> Mode, Options, Dim, HDim,</text>
<text text-anchor="middle" x="275.5" y="-505" font-family="Helvetica,sans-Serif" font-size="10.00"> Dim, HDim &gt;::run</text>
</a>
</g>
</g>
<!-- Node124&#45;&gt;Node133 -->
<g id="edge9" class="edge"><title>Node124&#45;&gt;Node133</title>
<path fill="none" stroke="midnightblue" d="M133.68,-547.81C154.915,-544.22 178.57,-540.22 200.338,-536.54"/>
<polygon fill="midnightblue" stroke="midnightblue" points="133.067,-544.364 123.79,-549.482 134.234,-551.266 133.067,-544.364"/>
</g>
<!-- Node134 -->
<g id="node11" class="node"><title>Node134</title>
<g id="a_node11"><a xlink:href="structEigen_1_1internal_1_1transform__left__product__impl_3_01Other_00_01AffineCompact_00_01Opticf627d631fe41d7d884a195de33da60a.html#a0f2b0fb2334a07e7b51a1e9eaae3888e" target="_top" xlink:title="Eigen::internal::transform\l_left_product_impl\&lt; Other,\l AffineCompact, Options, Dim,\l HDim, Dim, HDim \&gt;::run">
<polygon fill="none" stroke="black" points="195,-427 195,-479 356,-479 356,-427 195,-427"/>
<text text-anchor="start" x="203" y="-467" font-family="Helvetica,sans-Serif" font-size="10.00">Eigen::internal::transform</text>
<text text-anchor="start" x="203" y="-456" font-family="Helvetica,sans-Serif" font-size="10.00">_left_product_impl&lt; Other,</text>
<text text-anchor="start" x="203" y="-445" font-family="Helvetica,sans-Serif" font-size="10.00"> AffineCompact, Options, Dim,</text>
<text text-anchor="middle" x="275.5" y="-434" font-family="Helvetica,sans-Serif" font-size="10.00"> HDim, Dim, HDim &gt;::run</text>
</a>
</g>
</g>
<!-- Node124&#45;&gt;Node134 -->
<g id="edge10" class="edge"><title>Node124&#45;&gt;Node134</title>
<path fill="none" stroke="midnightblue" d="M86.9272,-543.176C106.643,-527.719 138.52,-504.341 169,-489 177.211,-484.867 186.007,-481.029 194.889,-477.517"/>
<polygon fill="midnightblue" stroke="midnightblue" points="84.6659,-540.503 79.0175,-549.466 89.0228,-545.982 84.6659,-540.503"/>
</g>
<!-- Node135 -->
<g id="node12" class="node"><title>Node135</title>
<g id="a_node12"><a xlink:href="structEigen_1_1internal_1_1transform__left__product__impl_3_01Other_00_01Mode_00_01Options_00_0102bf12657112d75a2d2a6063cbdc8872.html#a7b510e881e3c785e32c58c0ca07db7db" target="_top" xlink:title="Eigen::internal::transform\l_left_product_impl\&lt; Other,\l Mode, Options, Dim, HDim,\l Dim, Dim \&gt;::run">
<polygon fill="none" stroke="black" points="200.5,-356 200.5,-408 350.5,-408 350.5,-356 200.5,-356"/>
<text text-anchor="start" x="208.5" y="-396" font-family="Helvetica,sans-Serif" font-size="10.00">Eigen::internal::transform</text>
<text text-anchor="start" x="208.5" y="-385" font-family="Helvetica,sans-Serif" font-size="10.00">_left_product_impl&lt; Other,</text>
<text text-anchor="start" x="208.5" y="-374" font-family="Helvetica,sans-Serif" font-size="10.00"> Mode, Options, Dim, HDim,</text>
<text text-anchor="middle" x="275.5" y="-363" font-family="Helvetica,sans-Serif" font-size="10.00"> Dim, Dim &gt;::run</text>
</a>
</g>
</g>
<!-- Node124&#45;&gt;Node135 -->
<g id="edge11" class="edge"><title>Node124&#45;&gt;Node135</title>
<path fill="none" stroke="midnightblue" d="M76.2281,-540.185C91.0999,-510.115 124.153,-451.241 169,-418 178.406,-411.028 189.259,-405.341 200.349,-400.72"/>
<polygon fill="midnightblue" stroke="midnightblue" points="73.0726,-538.67 71.8908,-549.199 79.3804,-541.705 73.0726,-538.67"/>
</g>
<!-- Node136 -->
<g id="node13" class="node"><title>Node136</title>
<g id="a_node13"><a xlink:href="structEigen_1_1internal_1_1transform__transform__product__impl_3_01Transform_3_01Scalar_00_01Dim4872c5c69d5bc8739069c7f3d659d237.html#a5c2f729e0816d41cabc8784ef67cd48e" target="_top" xlink:title="Eigen::internal::transform\l_transform_product_impl\l\&lt; Transform\&lt; Scalar, Dim,\l LhsMode, LhsOptions \&gt;, Transform\l\&lt; Scalar, Dim, RhsMode, RhsOptions\l \&gt;, true \&gt;::run">
<polygon fill="none" stroke="black" points="179,-263 179,-337 372,-337 372,-263 179,-263"/>
<text text-anchor="start" x="187" y="-325" font-family="Helvetica,sans-Serif" font-size="10.00">Eigen::internal::transform</text>
<text text-anchor="start" x="187" y="-314" font-family="Helvetica,sans-Serif" font-size="10.00">_transform_product_impl</text>
<text text-anchor="start" x="187" y="-303" font-family="Helvetica,sans-Serif" font-size="10.00">&lt; Transform&lt; Scalar, Dim,</text>
<text text-anchor="start" x="187" y="-292" font-family="Helvetica,sans-Serif" font-size="10.00"> LhsMode, LhsOptions &gt;, Transform</text>
<text text-anchor="start" x="187" y="-281" font-family="Helvetica,sans-Serif" font-size="10.00">&lt; Scalar, Dim, RhsMode, RhsOptions</text>
<text text-anchor="middle" x="275.5" y="-270" font-family="Helvetica,sans-Serif" font-size="10.00"> &gt;, true &gt;::run</text>
</a>
</g>
</g>
<!-- Node124&#45;&gt;Node136 -->
<g id="edge12" class="edge"><title>Node124&#45;&gt;Node136</title>
<path fill="none" stroke="midnightblue" d="M72.0165,-539.306C82.3526,-498.327 111.399,-403.043 169,-347 172.593,-343.504 176.49,-340.243 180.598,-337.204"/>
<polygon fill="midnightblue" stroke="midnightblue" points="68.588,-538.594 69.6377,-549.136 75.3916,-540.24 68.588,-538.594"/>
</g>
<!-- Node137 -->
<g id="node14" class="node"><title>Node137</title>
<g id="a_node14"><a xlink:href="structEigen_1_1internal_1_1transform__transform__product__impl_3_01Transform_3_01Scalar_00_01Dimf4036fa67084baeb0acc746c4b97fadf.html#ae0c389a31441a1b6d21514df0a92cd1b" target="_top" xlink:title="Eigen::internal::transform\l_transform_product_impl\l\&lt; Transform\&lt; Scalar, Dim,\l AffineCompact, LhsOptions\l \&gt;, Transform\&lt; Scalar, Dim,\l Projective, RhsOptions \&gt;, true \&gt;::run">
<polygon fill="none" stroke="black" points="177.5,-170 177.5,-244 373.5,-244 373.5,-170 177.5,-170"/>
<text text-anchor="start" x="185.5" y="-232" font-family="Helvetica,sans-Serif" font-size="10.00">Eigen::internal::transform</text>
<text text-anchor="start" x="185.5" y="-221" font-family="Helvetica,sans-Serif" font-size="10.00">_transform_product_impl</text>
<text text-anchor="start" x="185.5" y="-210" font-family="Helvetica,sans-Serif" font-size="10.00">&lt; Transform&lt; Scalar, Dim,</text>
<text text-anchor="start" x="185.5" y="-199" font-family="Helvetica,sans-Serif" font-size="10.00"> AffineCompact, LhsOptions</text>
<text text-anchor="start" x="185.5" y="-188" font-family="Helvetica,sans-Serif" font-size="10.00"> &gt;, Transform&lt; Scalar, Dim,</text>
<text text-anchor="middle" x="275.5" y="-177" font-family="Helvetica,sans-Serif" font-size="10.00"> Projective, RhsOptions &gt;, true &gt;::run</text>
</a>
</g>
</g>
<!-- Node124&#45;&gt;Node137 -->
<g id="edge13" class="edge"><title>Node124&#45;&gt;Node137</title>
<path fill="none" stroke="midnightblue" d="M68.6865,-539.384C72.8819,-486.589 91.299,-339.701 169,-254 172.232,-250.435 175.786,-247.125 179.572,-244.054"/>
<polygon fill="midnightblue" stroke="midnightblue" points="65.1907,-539.202 67.9748,-549.424 72.1732,-539.697 65.1907,-539.202"/>
</g>
<!-- Node138 -->
<g id="node15" class="node"><title>Node138</title>
<g id="a_node15"><a xlink:href="structEigen_1_1internal_1_1transform__transform__product__impl_3_01Transform_3_01Scalar_00_01Dima0ff3e0c8b1e25b2ec36b0bc950cd5c7.html#ad116635411c4da1814e5e30637c11fe4" target="_top" xlink:title="Eigen::internal::transform\l_transform_product_impl\l\&lt; Transform\&lt; Scalar, Dim,\l Projective, LhsOptions \&gt;,\l Transform\&lt; Scalar, Dim, AffineCompact,\l RhsOptions \&gt;, true \&gt;::run">
<polygon fill="none" stroke="black" points="169,-77 169,-151 382,-151 382,-77 169,-77"/>
<text text-anchor="start" x="177" y="-139" font-family="Helvetica,sans-Serif" font-size="10.00">Eigen::internal::transform</text>
<text text-anchor="start" x="177" y="-128" font-family="Helvetica,sans-Serif" font-size="10.00">_transform_product_impl</text>
<text text-anchor="start" x="177" y="-117" font-family="Helvetica,sans-Serif" font-size="10.00">&lt; Transform&lt; Scalar, Dim,</text>
<text text-anchor="start" x="177" y="-106" font-family="Helvetica,sans-Serif" font-size="10.00"> Projective, LhsOptions &gt;,</text>
<text text-anchor="start" x="177" y="-95" font-family="Helvetica,sans-Serif" font-size="10.00"> Transform&lt; Scalar, Dim, AffineCompact,</text>
<text text-anchor="middle" x="275.5" y="-84" font-family="Helvetica,sans-Serif" font-size="10.00"> RhsOptions &gt;, true &gt;::run</text>
</a>
</g>
</g>
<!-- Node124&#45;&gt;Node138 -->
<g id="edge14" class="edge"><title>Node124&#45;&gt;Node138</title>
<path fill="none" stroke="midnightblue" d="M66.8434,-539.116C65.8246,-475.955 70.9651,-277.226 169,-161 171.973,-157.475 175.264,-154.204 178.791,-151.169"/>
<polygon fill="midnightblue" stroke="midnightblue" points="63.3483,-539.367 67.0843,-549.281 70.3463,-539.201 63.3483,-539.367"/>
</g>
<!-- Node139 -->
<g id="node16" class="node"><title>Node139</title>
<g id="a_node16"><a xlink:href="openglsupport_8cpp.html#ad1b3d039088c04b22817ca7c0b5d5f8e" target="_top" xlink:title="test_openglsupport">
<polygon fill="none" stroke="black" points="220.5,-38.5 220.5,-57.5 330.5,-57.5 330.5,-38.5 220.5,-38.5"/>
<text text-anchor="middle" x="275.5" y="-45.5" font-family="Helvetica,sans-Serif" font-size="10.00">test_openglsupport</text>
</a>
</g>
</g>
<!-- Node124&#45;&gt;Node139 -->
<g id="edge15" class="edge"><title>Node124&#45;&gt;Node139</title>
<path fill="none" stroke="midnightblue" d="M68.7463,-538.966C74.3608,-455.397 100.101,-135.772 169,-68 182.49,-54.7311 201.867,-48.84 220.343,-46.5622"/>
<polygon fill="midnightblue" stroke="midnightblue" points="65.241,-538.935 68.0852,-549.141 72.2263,-539.389 65.241,-538.935"/>
</g>
<!-- Node140 -->
<g id="node17" class="node"><title>Node140</title>
<g id="a_node17"><a xlink:href="classEigen_1_1Transform.html#a5271ad7a41a47b7a6ab1d55141a69192" target="_top" xlink:title="Eigen::Transform::Transform">
<polygon fill="none" stroke="black" points="201,-0.5 201,-19.5 350,-19.5 350,-0.5 201,-0.5"/>
<text text-anchor="middle" x="275.5" y="-7.5" font-family="Helvetica,sans-Serif" font-size="10.00">Eigen::Transform::Transform</text>
</a>
</g>
</g>
<!-- Node124&#45;&gt;Node140 -->
<g id="edge16" class="edge"><title>Node124&#45;&gt;Node140</title>
<path fill="none" stroke="midnightblue" d="M68.3951,-539.063C72.742,-451.561 94.5738,-102.609 169,-29 177.733,-20.3626 188.976,-14.916 200.853,-11.5891"/>
<polygon fill="midnightblue" stroke="midnightblue" points="64.8912,-539.065 67.9122,-549.22 71.8833,-539.397 64.8912,-539.065"/>
</g>
</g>
</svg>
        <g id="navigator" transform="translate(0 0)" fill="#404254">
                <rect fill="#f2f5e9" fill-opacity="0.5" stroke="#606060" stroke-width=".5" x="0" y="0" width="60" height="60"/>
                <use id="zoomplus" xlink:href="#zoomPlus" x="17" y="9" onmousedown="handleZoom(evt,'in')"/>
                <use id="zoomminus" xlink:href="#zoomMin" x="42" y="9" onmousedown="handleZoom(evt,'out')"/>
                <use id="reset" xlink:href="#resetDef" x="30" y="36" onmousedown="handleReset()"/>
                <g id="arrowUp" xlink:href="#dirArrow" transform="translate(30 24)" onmousedown="handlePan(0,-1)">
                  <use xlink:href="#rim" fill="#404040">
                        <set attributeName="fill" to="#808080" begin="arrowUp.mouseover" end="arrowUp.mouseout"/>
                  </use>
                  <path fill="none" stroke="white" stroke-width="1.5" d="M0,-3.0v7 M-2.5,-0.5L0,-3.0L2.5,-0.5"/>
                </g>
                <g id="arrowRight" xlink:href="#dirArrow" transform="rotate(90) translate(36 -43)" onmousedown="handlePan(1,0)">
                  <use xlink:href="#rim" fill="#404040">
                        <set attributeName="fill" to="#808080" begin="arrowRight.mouseover" end="arrowRight.mouseout"/>
                  </use>
                  <path fill="none" stroke="white" stroke-width="1.5" d="M0,-3.0v7 M-2.5,-0.5L0,-3.0L2.5,-0.5"/>
                </g>
                <g id="arrowDown" xlink:href="#dirArrow" transform="rotate(180) translate(-30 -48)" onmousedown="handlePan(0,1)">
                  <use xlink:href="#rim" fill="#404040">
                        <set attributeName="fill" to="#808080" begin="arrowDown.mouseover" end="arrowDown.mouseout"/>
                  </use>
                  <path fill="none" stroke="white" stroke-width="1.5" d="M0,-3.0v7 M-2.5,-0.5L0,-3.0L2.5,-0.5"/>
                </g>
                <g id="arrowLeft" xlink:href="#dirArrow" transform="rotate(270) translate(-36 17)" onmousedown="handlePan(-1,0)">
                  <use xlink:href="#rim" fill="#404040">
                        <set attributeName="fill" to="#808080" begin="arrowLeft.mouseover" end="arrowLeft.mouseout"/>
                  </use>
                  <path fill="none" stroke="white" stroke-width="1.5" d="M0,-3.0v7 M-2.5,-0.5L0,-3.0L2.5,-0.5"/>
                </g>
        </g>
        <svg viewBox="0 0 15 15" width="100%" height="30px" preserveAspectRatio="xMaxYMin meet">
         <g id="arrow_out" transform="scale(0.3 0.3)">
          <a xlink:href="classEigen_1_1Transform_aec8168000a88a807130d41020af98d47_icgraph_org.svg" target="_base">
           <rect id="button" ry="5" rx="5" y="6" x="6" height="38" width="38"
                fill="#f2f5e9" fill-opacity="0.5" stroke="#606060" stroke-width="1.0"/>
           <path id="arrow"
             d="M 11.500037,31.436501 C 11.940474,20.09759 22.043105,11.32322 32.158766,21.979434 L 37.068811,17.246167 C 37.068811,17.246167 37.088388,32 37.088388,32 L 22.160133,31.978069 C 22.160133,31.978069 26.997745,27.140456 26.997745,27.140456 C 18.528582,18.264221 13.291696,25.230495 11.500037,31.436501 z"
             style="fill:#404040;"/>
          </a>
         </g>
        </svg>
</svg>
