<?xml version="1.0" encoding="UTF-8" standalone="no"?>
<!DOCTYPE svg PUBLIC "-//W3C//DTD SVG 1.1//EN"
 "http://www.w3.org/Graphics/SVG/1.1/DTD/svg11.dtd">
<!-- Generated by graphviz version 2.38.0 (20140413.2041)
 -->
<!-- Title: Eigen::internal::generic_dense_assignment_kernel&lt; DstEvaluatorTypeT, SrcEvaluatorTypeT, swap_assign_op&lt; typename DstEvaluatorTypeT::Scalar &gt;, Specialized &gt; Pages: 1 -->
<svg width="745pt" height="164pt"
 viewBox="0.00 0.00 745.00 164.00" xmlns="http://www.w3.org/2000/svg" xmlns:xlink="http://www.w3.org/1999/xlink">
<g id="graph0" class="graph" transform="scale(1 1) rotate(0) translate(4 160)">
<title>Eigen::internal::generic_dense_assignment_kernel&lt; DstEvaluatorTypeT, SrcEvaluatorTypeT, swap_assign_op&lt; typename DstEvaluatorTypeT::Scalar &gt;, Specialized &gt;</title>
<!-- Node2 -->
<g id="node1" class="node"><title>Node2</title>
<polygon fill="#bfbfbf" stroke="black" points="512,-51.5 512,-114.5 737,-114.5 737,-51.5 512,-51.5"/>
<text text-anchor="start" x="520" y="-102.5" font-family="Helvetica,sans-Serif" font-size="10.00">Eigen::internal::generic</text>
<text text-anchor="start" x="520" y="-91.5" font-family="Helvetica,sans-Serif" font-size="10.00">_dense_assignment_kernel</text>
<text text-anchor="start" x="520" y="-80.5" font-family="Helvetica,sans-Serif" font-size="10.00">&lt; DstEvaluatorTypeT, SrcEvaluator</text>
<text text-anchor="start" x="520" y="-69.5" font-family="Helvetica,sans-Serif" font-size="10.00">TypeT, swap_assign_op&lt; typename</text>
<text text-anchor="middle" x="624.5" y="-58.5" font-family="Helvetica,sans-Serif" font-size="10.00"> DstEvaluatorTypeT::Scalar &gt;, Specialized &gt;</text>
</g>
<!-- Node3 -->
<g id="node2" class="node"><title>Node3</title>
<g id="a_node2"><a xlink:href="classEigen_1_1internal_1_1generic__dense__assignment__kernel.html" target="_top" xlink:title="Eigen::internal::generic\l_dense_assignment_kernel\l\&lt; DstEvaluatorTypeT, SrcEvaluator\lTypeT, swap_assign_op\&lt; DstEvaluatorType\lT::Scalar \&gt;, BuiltIn \&gt;">
<polygon fill="none" stroke="black" points="255,-51.5 255,-114.5 475,-114.5 475,-51.5 255,-51.5"/>
<text text-anchor="start" x="263" y="-102.5" font-family="Helvetica,sans-Serif" font-size="10.00">Eigen::internal::generic</text>
<text text-anchor="start" x="263" y="-91.5" font-family="Helvetica,sans-Serif" font-size="10.00">_dense_assignment_kernel</text>
<text text-anchor="start" x="263" y="-80.5" font-family="Helvetica,sans-Serif" font-size="10.00">&lt; DstEvaluatorTypeT, SrcEvaluator</text>
<text text-anchor="start" x="263" y="-69.5" font-family="Helvetica,sans-Serif" font-size="10.00">TypeT, swap_assign_op&lt; DstEvaluatorType</text>
<text text-anchor="middle" x="365" y="-58.5" font-family="Helvetica,sans-Serif" font-size="10.00">T::Scalar &gt;, BuiltIn &gt;</text>
</a>
</g>
</g>
<!-- Node3&#45;&gt;Node2 -->
<g id="edge1" class="edge"><title>Node3&#45;&gt;Node2</title>
<path fill="none" stroke="midnightblue" d="M485.427,-83C494.167,-83 502.964,-83 511.657,-83"/>
<polygon fill="midnightblue" stroke="midnightblue" points="485.203,-79.5001 475.203,-83 485.203,-86.5001 485.203,-79.5001"/>
</g>
<!-- Node4 -->
<g id="node3" class="node"><title>Node4</title>
<polygon fill="none" stroke="#bfbfbf" points="12.5,-136.5 12.5,-155.5 151.5,-155.5 151.5,-136.5 12.5,-136.5"/>
<text text-anchor="middle" x="82" y="-143.5" font-family="Helvetica,sans-Serif" font-size="10.00">const SrcEvaluatorType &amp;</text>
</g>
<!-- Node4&#45;&gt;Node3 -->
<g id="edge2" class="edge"><title>Node4&#45;&gt;Node3</title>
<path fill="none" stroke="#9a32cd" stroke-dasharray="5,2" d="M138.909,-134.313C168.162,-128.124 204.548,-120.309 237,-113 242.857,-111.681 248.862,-110.313 254.922,-108.922"/>
<polygon fill="#9a32cd" stroke="#9a32cd" points="137.938,-130.941 128.877,-136.431 139.384,-137.79 137.938,-130.941"/>
<text text-anchor="middle" x="209.5" y="-128" font-family="Helvetica,sans-Serif" font-size="10.00"> m_src</text>
</g>
<!-- Node5 -->
<g id="node4" class="node"><title>Node5</title>
<polygon fill="none" stroke="#bfbfbf" points="41.5,-98.5 41.5,-117.5 122.5,-117.5 122.5,-98.5 41.5,-98.5"/>
<text text-anchor="middle" x="82" y="-105.5" font-family="Helvetica,sans-Serif" font-size="10.00">DstXprType &amp;</text>
</g>
<!-- Node5&#45;&gt;Node3 -->
<g id="edge3" class="edge"><title>Node5&#45;&gt;Node3</title>
<path fill="none" stroke="#9a32cd" stroke-dasharray="5,2" d="M132.753,-103.574C166.588,-100.563 212.695,-96.4613 254.838,-92.7119"/>
<polygon fill="#9a32cd" stroke="#9a32cd" points="132.315,-100.099 122.664,-104.471 132.935,-107.071 132.315,-100.099"/>
<text text-anchor="middle" x="209.5" y="-101" font-family="Helvetica,sans-Serif" font-size="10.00"> m_dstExpr</text>
</g>
<!-- Node6 -->
<g id="node5" class="node"><title>Node6</title>
<g id="a_node5"><a xlink:href="structEigen_1_1internal_1_1swap__assign__op.html" target="_top" xlink:title="Eigen::internal::swap\l_assign_op\&lt; DstEvaluatorType\lT::Scalar \&gt;">
<polygon fill="none" stroke="black" points="0,-38.5 0,-79.5 164,-79.5 164,-38.5 0,-38.5"/>
<text text-anchor="start" x="8" y="-67.5" font-family="Helvetica,sans-Serif" font-size="10.00">Eigen::internal::swap</text>
<text text-anchor="start" x="8" y="-56.5" font-family="Helvetica,sans-Serif" font-size="10.00">_assign_op&lt; DstEvaluatorType</text>
<text text-anchor="middle" x="82" y="-45.5" font-family="Helvetica,sans-Serif" font-size="10.00">T::Scalar &gt;</text>
</a>
</g>
</g>
<!-- Node6&#45;&gt;Node3 -->
<g id="edge4" class="edge"><title>Node6&#45;&gt;Node3</title>
<path fill="none" stroke="#9a32cd" stroke-dasharray="5,2" d="M174.373,-66.8041C200.081,-68.9998 228.301,-71.41 254.932,-73.6846"/>
<polygon fill="#9a32cd" stroke="#9a32cd" points="174.538,-63.3056 164.277,-65.9418 173.943,-70.2802 174.538,-63.3056"/>
<text text-anchor="middle" x="209.5" y="-74" font-family="Helvetica,sans-Serif" font-size="10.00"> m_functor</text>
</g>
<!-- Node7 -->
<g id="node6" class="node"><title>Node7</title>
<polygon fill="none" stroke="#bfbfbf" points="27,-0.5 27,-19.5 137,-19.5 137,-0.5 27,-0.5"/>
<text text-anchor="middle" x="82" y="-7.5" font-family="Helvetica,sans-Serif" font-size="10.00">DstEvaluatorType &amp;</text>
</g>
<!-- Node7&#45;&gt;Node3 -->
<g id="edge5" class="edge"><title>Node7&#45;&gt;Node3</title>
<path fill="none" stroke="#9a32cd" stroke-dasharray="5,2" d="M135.003,-21.9279C144.657,-24.2187 154.645,-26.6405 164,-29 193.555,-36.4541 225.461,-44.8911 254.922,-52.8431"/>
<polygon fill="#9a32cd" stroke="#9a32cd" points="135.641,-18.4824 125.105,-19.596 134.036,-25.2959 135.641,-18.4824"/>
<text text-anchor="middle" x="209.5" y="-50" font-family="Helvetica,sans-Serif" font-size="10.00"> m_dst</text>
</g>
</g>
</svg>
