<?xml version="1.0" encoding="UTF-8" standalone="no"?>
<!DOCTYPE svg PUBLIC "-//W3C//DTD SVG 1.1//EN"
 "http://www.w3.org/Graphics/SVG/1.1/DTD/svg11.dtd">
<!-- Generated by graphviz version 2.38.0 (20140413.2041)
 -->
<!-- Title: Eigen::TensorFixedSize::operator[] Pages: 1 -->
<svg width="612pt" height="99pt"
 viewBox="0.00 0.00 612.00 99.00" xmlns="http://www.w3.org/2000/svg" xmlns:xlink="http://www.w3.org/1999/xlink">
<g id="graph0" class="graph" transform="scale(1 1) rotate(0) translate(4 95)">
<title>Eigen::TensorFixedSize::operator[]</title>
<!-- Node175 -->
<g id="node1" class="node"><title>Node175</title>
<polygon fill="#bfbfbf" stroke="black" points="0,-0.5 0,-30.5 124,-30.5 124,-0.5 0,-0.5"/>
<text text-anchor="start" x="8" y="-18.5" font-family="Helvetica,sans-Serif" font-size="10.00">Eigen::TensorFixedSize</text>
<text text-anchor="middle" x="62" y="-7.5" font-family="Helvetica,sans-Serif" font-size="10.00">::operator[]</text>
</g>
<!-- Node176 -->
<g id="node2" class="node"><title>Node176</title>
<g id="a_node2"><a xlink:href="classEigen_1_1TensorFixedSize.html#a0422691e7495467f239e55fefe0f66dd" target="_top" xlink:title="Eigen::TensorFixedSize\l::coeff">
<polygon fill="none" stroke="black" points="160,-22.5 160,-52.5 284,-52.5 284,-22.5 160,-22.5"/>
<text text-anchor="start" x="168" y="-40.5" font-family="Helvetica,sans-Serif" font-size="10.00">Eigen::TensorFixedSize</text>
<text text-anchor="middle" x="222" y="-29.5" font-family="Helvetica,sans-Serif" font-size="10.00">::coeff</text>
</a>
</g>
</g>
<!-- Node175&#45;&gt;Node176 -->
<g id="edge1" class="edge"><title>Node175&#45;&gt;Node176</title>
<path fill="none" stroke="midnightblue" d="M124.087,-24.0058C132.513,-25.179 141.226,-26.3922 149.815,-27.5881"/>
<polygon fill="midnightblue" stroke="midnightblue" points="149.428,-31.0679 159.815,-28.9806 150.393,-24.1348 149.428,-31.0679"/>
</g>
<!-- Node178 -->
<g id="node4" class="node"><title>Node178</title>
<g id="a_node4"><a xlink:href="classEigen_1_1TensorFixedSize.html#a1cd33848d1ac865e5fcda56f8baeae2f" target="_top" xlink:title="Eigen::TensorFixedSize\l::operator()">
<polygon fill="none" stroke="black" points="480,-16.5 480,-46.5 604,-46.5 604,-16.5 480,-16.5"/>
<text text-anchor="start" x="488" y="-34.5" font-family="Helvetica,sans-Serif" font-size="10.00">Eigen::TensorFixedSize</text>
<text text-anchor="middle" x="542" y="-23.5" font-family="Helvetica,sans-Serif" font-size="10.00">::operator()</text>
</a>
</g>
</g>
<!-- Node175&#45;&gt;Node178 -->
<g id="edge5" class="edge"><title>Node175&#45;&gt;Node178</title>
<path fill="none" stroke="midnightblue" d="M124.051,-13.324C135.971,-12.9805 148.376,-12.6797 160,-12.5 215.105,-11.6481 228.926,-10.467 284,-12.5 346.873,-14.8209 418.221,-20.3252 469.761,-24.8152"/>
<polygon fill="midnightblue" stroke="midnightblue" points="469.528,-28.3082 479.797,-25.6984 470.142,-21.3351 469.528,-28.3082"/>
</g>
<!-- Node177 -->
<g id="node3" class="node"><title>Node177</title>
<g id="a_node3"><a xlink:href="classEigen_1_1TensorFixedSize.html#a137e21057f64825af9e238b73899a744" target="_top" xlink:title="Eigen::TensorFixedSize\l::coeffRef">
<polygon fill="none" stroke="black" points="320,-60.5 320,-90.5 444,-90.5 444,-60.5 320,-60.5"/>
<text text-anchor="start" x="328" y="-78.5" font-family="Helvetica,sans-Serif" font-size="10.00">Eigen::TensorFixedSize</text>
<text text-anchor="middle" x="382" y="-67.5" font-family="Helvetica,sans-Serif" font-size="10.00">::coeffRef</text>
</a>
</g>
</g>
<!-- Node176&#45;&gt;Node177 -->
<g id="edge2" class="edge"><title>Node176&#45;&gt;Node177</title>
<path fill="none" stroke="midnightblue" d="M284.087,-52.1918C292.513,-54.2183 301.226,-56.3138 309.815,-58.3795"/>
<polygon fill="midnightblue" stroke="midnightblue" points="309.274,-61.8491 319.815,-60.7846 310.911,-55.0432 309.274,-61.8491"/>
</g>
<!-- Node177&#45;&gt;Node178 -->
<g id="edge3" class="edge"><title>Node177&#45;&gt;Node178</title>
<path fill="none" stroke="midnightblue" d="M436.933,-60.4808C449.953,-56.8548 463.987,-52.9466 477.405,-49.2101"/>
<polygon fill="midnightblue" stroke="midnightblue" points="478.348,-52.5807 487.042,-46.5262 476.47,-45.8373 478.348,-52.5807"/>
</g>
<!-- Node178&#45;&gt;Node176 -->
<g id="edge4" class="edge"><title>Node178&#45;&gt;Node176</title>
<path fill="none" stroke="midnightblue" d="M479.875,-32.6533C426.92,-33.6525 350.259,-35.0989 294.476,-36.1514"/>
<polygon fill="midnightblue" stroke="midnightblue" points="294.246,-32.655 284.314,-36.3431 294.378,-39.6538 294.246,-32.655"/>
</g>
</g>
</svg>
