<?xml version="1.0" encoding="UTF-8" standalone="no"?>
<!DOCTYPE svg PUBLIC "-//W3C//DTD SVG 1.1//EN"
 "http://www.w3.org/Graphics/SVG/1.1/DTD/svg11.dtd">
<!-- Generated by graphviz version 2.38.0 (20140413.2041)
 -->
<!-- Title: Eigen::SparseLU::factorize Pages: 1 -->
<svg width="523pt" height="66pt"
 viewBox="0.00 0.00 523.00 66.00" xmlns="http://www.w3.org/2000/svg" xmlns:xlink="http://www.w3.org/1999/xlink">
<g id="graph0" class="graph" transform="scale(1 1) rotate(0) translate(4 62)">
<title>Eigen::SparseLU::factorize</title>
<!-- Node226 -->
<g id="node1" class="node"><title>Node226</title>
<polygon fill="#bfbfbf" stroke="black" points="0,-19.5 0,-38.5 142,-38.5 142,-19.5 0,-19.5"/>
<text text-anchor="middle" x="71" y="-26.5" font-family="Helvetica,sans-Serif" font-size="10.00">Eigen::SparseLU::factorize</text>
</g>
<!-- Node227 -->
<g id="node2" class="node"><title>Node227</title>
<g id="a_node2"><a xlink:href="classEigen_1_1SparseLU.html#a96a8dcb02015ab9be5777d4ba9173266" target="_top" xlink:title="Eigen::SparseLU::compute">
<polygon fill="none" stroke="black" points="184,-38.5 184,-57.5 327,-57.5 327,-38.5 184,-38.5"/>
<text text-anchor="middle" x="255.5" y="-45.5" font-family="Helvetica,sans-Serif" font-size="10.00">Eigen::SparseLU::compute</text>
</a>
</g>
</g>
<!-- Node226&#45;&gt;Node227 -->
<g id="edge1" class="edge"><title>Node226&#45;&gt;Node227</title>
<path fill="none" stroke="midnightblue" d="M152.069,-37.336C162.617,-38.4341 173.368,-39.5533 183.745,-40.6337"/>
<polygon fill="midnightblue" stroke="midnightblue" points="152.346,-33.846 142.037,-36.2916 151.621,-40.8083 152.346,-33.846"/>
</g>
<!-- Node229 -->
<g id="node4" class="node"><title>Node229</title>
<g id="a_node4"><a xlink:href="classEigen_1_1SparseLU.html#a9f8d0e64ae5bb5568ca091a0dbc8c9dd" target="_top" xlink:title="Eigen::SparseLU::~SparseLU">
<polygon fill="none" stroke="black" points="178,-0.5 178,-19.5 333,-19.5 333,-0.5 178,-0.5"/>
<text text-anchor="middle" x="255.5" y="-7.5" font-family="Helvetica,sans-Serif" font-size="10.00">Eigen::SparseLU::~SparseLU</text>
</a>
</g>
</g>
<!-- Node226&#45;&gt;Node229 -->
<g id="edge3" class="edge"><title>Node226&#45;&gt;Node229</title>
<path fill="none" stroke="midnightblue" d="M152.06,-20.665C160.666,-19.769 169.408,-18.8589 177.971,-17.9674"/>
<polygon fill="midnightblue" stroke="midnightblue" points="151.621,-17.1917 142.037,-21.7084 152.346,-24.154 151.621,-17.1917"/>
</g>
<!-- Node228 -->
<g id="node3" class="node"><title>Node228</title>
<g id="a_node3"><a xlink:href="classEigen_1_1SparseLU.html#ac1678e57af46b42561cea4f149861164" target="_top" xlink:title="Eigen::SparseLU::SparseLU">
<polygon fill="none" stroke="black" points="369,-38.5 369,-57.5 515,-57.5 515,-38.5 369,-38.5"/>
<text text-anchor="middle" x="442" y="-45.5" font-family="Helvetica,sans-Serif" font-size="10.00">Eigen::SparseLU::SparseLU</text>
</a>
</g>
</g>
<!-- Node227&#45;&gt;Node228 -->
<g id="edge2" class="edge"><title>Node227&#45;&gt;Node228</title>
<path fill="none" stroke="midnightblue" d="M337.121,-48C347.719,-48 358.526,-48 368.969,-48"/>
<polygon fill="midnightblue" stroke="midnightblue" points="337.041,-44.5001 327.041,-48 337.041,-51.5001 337.041,-44.5001"/>
</g>
</g>
</svg>
