<?xml version="1.0" encoding="UTF-8" standalone="no"?>
<!DOCTYPE svg PUBLIC "-//W3C//DTD SVG 1.1//EN"
 "http://www.w3.org/Graphics/SVG/1.1/DTD/svg11.dtd">
<!-- Generated by graphviz version 2.38.0 (20140413.2041)
 -->
<!-- Title: Eigen::Translation::operator* Pages: 1 -->
<svg width="297pt" height="204pt"
 viewBox="0.00 0.00 297.00 203.50" xmlns="http://www.w3.org/2000/svg" xmlns:xlink="http://www.w3.org/1999/xlink">
<g id="graph0" class="graph" transform="scale(1 1) rotate(0) translate(4 199.5)">
<title>Eigen::Translation::operator*</title>
<!-- Node26 -->
<g id="node1" class="node"><title>Node26</title>
<polygon fill="#bfbfbf" stroke="black" points="0,-83 0,-113 100,-113 100,-83 0,-83"/>
<text text-anchor="start" x="8" y="-101" font-family="Helvetica,sans-Serif" font-size="10.00">Eigen::Translation</text>
<text text-anchor="middle" x="50" y="-90" font-family="Helvetica,sans-Serif" font-size="10.00">::operator*</text>
</g>
<!-- Node27 -->
<g id="node2" class="node"><title>Node27</title>
<g id="a_node2"><a xlink:href="classEigen_1_1UniformScaling.html#a600949d7c5ed124adacaba53b631b6e6" target="_top" xlink:title="Eigen::UniformScaling\l::factor">
<polygon fill="none" stroke="black" points="151.5,-165 151.5,-195 273.5,-195 273.5,-165 151.5,-165"/>
<text text-anchor="start" x="159.5" y="-183" font-family="Helvetica,sans-Serif" font-size="10.00">Eigen::UniformScaling</text>
<text text-anchor="middle" x="212.5" y="-172" font-family="Helvetica,sans-Serif" font-size="10.00">::factor</text>
</a>
</g>
</g>
<!-- Node26&#45;&gt;Node27 -->
<g id="edge1" class="edge"><title>Node26&#45;&gt;Node27</title>
<path fill="none" stroke="midnightblue" d="M70.3388,-113.198C86.9944,-125.727 112.063,-143.282 136,-155 140.534,-157.22 145.313,-159.315 150.175,-161.277"/>
<polygon fill="midnightblue" stroke="midnightblue" points="148.993,-164.572 159.583,-164.882 151.497,-158.035 148.993,-164.572"/>
</g>
<!-- Node28 -->
<g id="node3" class="node"><title>Node28</title>
<g id="a_node3"><a xlink:href="classEigen_1_1Transform.html#a535bd63d047c2a36585c3f9b62219a1e" target="_top" xlink:title="Eigen::Transform::linear">
<polygon fill="none" stroke="black" points="148.5,-126.5 148.5,-145.5 276.5,-145.5 276.5,-126.5 148.5,-126.5"/>
<text text-anchor="middle" x="212.5" y="-133.5" font-family="Helvetica,sans-Serif" font-size="10.00">Eigen::Transform::linear</text>
</a>
</g>
</g>
<!-- Node26&#45;&gt;Node28 -->
<g id="edge2" class="edge"><title>Node26&#45;&gt;Node28</title>
<path fill="none" stroke="midnightblue" d="M100.027,-109.608C119.418,-114.199 141.689,-119.472 161.203,-124.092"/>
<polygon fill="midnightblue" stroke="midnightblue" points="160.588,-127.543 171.125,-126.441 162.201,-120.731 160.588,-127.543"/>
</g>
<!-- Node29 -->
<g id="node4" class="node"><title>Node29</title>
<g id="a_node4"><a xlink:href="classEigen_1_1Transform.html#aec8168000a88a807130d41020af98d47" target="_top" xlink:title="Eigen::Transform::matrix">
<polygon fill="none" stroke="black" points="146,-88.5 146,-107.5 279,-107.5 279,-88.5 146,-88.5"/>
<text text-anchor="middle" x="212.5" y="-95.5" font-family="Helvetica,sans-Serif" font-size="10.00">Eigen::Transform::matrix</text>
</a>
</g>
</g>
<!-- Node26&#45;&gt;Node29 -->
<g id="edge3" class="edge"><title>Node26&#45;&gt;Node29</title>
<path fill="none" stroke="midnightblue" d="M100.027,-98C111.335,-98 123.622,-98 135.771,-98"/>
<polygon fill="midnightblue" stroke="midnightblue" points="135.918,-101.5 145.918,-98 135.918,-94.5001 135.918,-101.5"/>
</g>
<!-- Node30 -->
<g id="node5" class="node"><title>Node30</title>
<g id="a_node5"><a xlink:href="classEigen_1_1PlainObjectBase.html#ac21ad5f989f320e46958b75ac8d9a1da" target="_top" xlink:title="Eigen::PlainObjectBase\l::setZero">
<polygon fill="none" stroke="black" points="149.5,-39 149.5,-69 275.5,-69 275.5,-39 149.5,-39"/>
<text text-anchor="start" x="157.5" y="-57" font-family="Helvetica,sans-Serif" font-size="10.00">Eigen::PlainObjectBase</text>
<text text-anchor="middle" x="212.5" y="-46" font-family="Helvetica,sans-Serif" font-size="10.00">::setZero</text>
</a>
</g>
</g>
<!-- Node26&#45;&gt;Node30 -->
<g id="edge4" class="edge"><title>Node26&#45;&gt;Node30</title>
<path fill="none" stroke="midnightblue" d="M100.027,-84.5595C114.698,-80.5376 131.018,-76.0635 146.545,-71.8069"/>
<polygon fill="midnightblue" stroke="midnightblue" points="147.89,-75.0675 156.609,-69.0481 146.039,-68.3166 147.89,-75.0675"/>
</g>
<!-- Node31 -->
<g id="node6" class="node"><title>Node31</title>
<g id="a_node6"><a xlink:href="classEigen_1_1Transform.html#afa93ba97d26912bb3d8777cbed102045" target="_top" xlink:title="Eigen::Transform::translation">
<polygon fill="none" stroke="black" points="136,-0.5 136,-19.5 289,-19.5 289,-0.5 136,-0.5"/>
<text text-anchor="middle" x="212.5" y="-7.5" font-family="Helvetica,sans-Serif" font-size="10.00">Eigen::Transform::translation</text>
</a>
</g>
</g>
<!-- Node26&#45;&gt;Node31 -->
<g id="edge5" class="edge"><title>Node26&#45;&gt;Node31</title>
<path fill="none" stroke="midnightblue" d="M65.9066,-82.8016C81.8846,-67.3496 108.661,-43.779 136,-30 141.562,-27.1965 147.56,-24.7551 153.657,-22.6362"/>
<polygon fill="midnightblue" stroke="midnightblue" points="154.81,-25.9422 163.271,-19.5662 152.681,-19.2739 154.81,-25.9422"/>
</g>
</g>
</svg>
