<?xml version="1.0" encoding="UTF-8" standalone="no"?>
<!DOCTYPE svg PUBLIC "-//W3C//DTD SVG 1.1//EN"
 "http://www.w3.org/Graphics/SVG/1.1/DTD/svg11.dtd">
<!-- Generated by graphviz version 2.38.0 (20140413.2041)
 -->
<!-- Title: Eigen::ColPivHouseholderQR::dimensionOfKernel Pages: 1 -->
<svg width="344pt" height="142pt"
 viewBox="0.00 0.00 344.00 142.00" xmlns="http://www.w3.org/2000/svg" xmlns:xlink="http://www.w3.org/1999/xlink">
<g id="graph0" class="graph" transform="scale(1 1) rotate(0) translate(4 138)">
<title>Eigen::ColPivHouseholderQR::dimensionOfKernel</title>
<!-- Node42 -->
<g id="node1" class="node"><title>Node42</title>
<polygon fill="#bfbfbf" stroke="black" points="0,-61 0,-91 138,-91 138,-61 0,-61"/>
<text text-anchor="start" x="8" y="-79" font-family="Helvetica,sans-Serif" font-size="10.00">Eigen::ColPivHouseholder</text>
<text text-anchor="middle" x="69" y="-68" font-family="Helvetica,sans-Serif" font-size="10.00">QR::dimensionOfKernel</text>
</g>
<!-- Node43 -->
<g id="node2" class="node"><title>Node43</title>
<g id="a_node2"><a xlink:href="qr__colpivoting_8cpp.html#a234047f1d6b0303293c8918968a9670e" target="_top" xlink:title="qr">
<polygon fill="none" stroke="black" points="174,-66.5 174,-85.5 203,-85.5 203,-66.5 174,-66.5"/>
<text text-anchor="middle" x="188.5" y="-73.5" font-family="Helvetica,sans-Serif" font-size="10.00">qr</text>
</a>
</g>
</g>
<!-- Node42&#45;&gt;Node43 -->
<g id="edge1" class="edge"><title>Node42&#45;&gt;Node43</title>
<path fill="none" stroke="midnightblue" d="M148.036,-76C157.841,-76 166.84,-76 173.761,-76"/>
<polygon fill="midnightblue" stroke="midnightblue" points="148.01,-72.5001 138.01,-76 148.01,-79.5001 148.01,-72.5001"/>
</g>
<!-- Node44 -->
<g id="node3" class="node"><title>Node44</title>
<g id="a_node3"><a xlink:href="qr__colpivoting_8cpp.html#ad5c305e7d9c3fd6abc3950b0edb0cc0c" target="_top" xlink:title="qr_fixedsize">
<polygon fill="none" stroke="black" points="251,-114.5 251,-133.5 324,-133.5 324,-114.5 251,-114.5"/>
<text text-anchor="middle" x="287.5" y="-121.5" font-family="Helvetica,sans-Serif" font-size="10.00">qr_fixedsize</text>
</a>
</g>
</g>
<!-- Node42&#45;&gt;Node44 -->
<g id="edge6" class="edge"><title>Node42&#45;&gt;Node44</title>
<path fill="none" stroke="midnightblue" d="M147.716,-93.2303C182.981,-101.049 222.955,-109.912 250.914,-116.11"/>
<polygon fill="midnightblue" stroke="midnightblue" points="148.428,-89.8034 137.908,-91.0558 146.913,-96.6374 148.428,-89.8034"/>
</g>
<!-- Node47 -->
<g id="node6" class="node"><title>Node47</title>
<g id="a_node6"><a xlink:href="qr__colpivoting_8cpp.html#a6693811f52bc269d1ec52b3ec57d8da2" target="_top" xlink:title="qr_verify_assert">
<polygon fill="none" stroke="black" points="241.5,-0.5 241.5,-19.5 333.5,-19.5 333.5,-0.5 241.5,-0.5"/>
<text text-anchor="middle" x="287.5" y="-7.5" font-family="Helvetica,sans-Serif" font-size="10.00">qr_verify_assert</text>
</a>
</g>
</g>
<!-- Node42&#45;&gt;Node47 -->
<g id="edge7" class="edge"><title>Node42&#45;&gt;Node47</title>
<path fill="none" stroke="midnightblue" d="M129.197,-57.9538C169.847,-45.5615 222.202,-29.6014 255.067,-19.5824"/>
<polygon fill="midnightblue" stroke="midnightblue" points="127.943,-54.677 119.398,-60.941 129.984,-61.3728 127.943,-54.677"/>
</g>
<!-- Node43&#45;&gt;Node44 -->
<g id="edge2" class="edge"><title>Node43&#45;&gt;Node44</title>
<path fill="none" stroke="midnightblue" d="M211.851,-90.0495C220.217,-95.0526 229.901,-100.546 239,-105 245.86,-108.358 253.472,-111.605 260.556,-114.435"/>
<polygon fill="midnightblue" stroke="midnightblue" points="213.425,-86.9102 203.065,-84.6906 209.78,-92.8861 213.425,-86.9102"/>
</g>
<!-- Node45 -->
<g id="node4" class="node"><title>Node45</title>
<g id="a_node4"><a xlink:href="qr__colpivoting_8cpp.html#a9bfcf72d1c319774f027d3446dc121dd" target="_top" xlink:title="qr_invertible">
<polygon fill="none" stroke="black" points="250,-76.5 250,-95.5 325,-95.5 325,-76.5 250,-76.5"/>
<text text-anchor="middle" x="287.5" y="-83.5" font-family="Helvetica,sans-Serif" font-size="10.00">qr_invertible</text>
</a>
</g>
</g>
<!-- Node43&#45;&gt;Node45 -->
<g id="edge3" class="edge"><title>Node43&#45;&gt;Node45</title>
<path fill="none" stroke="midnightblue" d="M213.427,-78.4667C224.329,-79.5906 237.481,-80.9465 249.606,-82.1965"/>
<polygon fill="midnightblue" stroke="midnightblue" points="213.704,-74.9768 203.398,-77.4328 212.986,-81.9399 213.704,-74.9768"/>
</g>
<!-- Node46 -->
<g id="node5" class="node"><title>Node46</title>
<g id="a_node5"><a xlink:href="qr__colpivoting_8cpp.html#ab3860b0a2f15587340091be81254d208" target="_top" xlink:title="qr_kahan_matrix">
<polygon fill="none" stroke="black" points="239,-38.5 239,-57.5 336,-57.5 336,-38.5 239,-38.5"/>
<text text-anchor="middle" x="287.5" y="-45.5" font-family="Helvetica,sans-Serif" font-size="10.00">qr_kahan_matrix</text>
</a>
</g>
</g>
<!-- Node43&#45;&gt;Node46 -->
<g id="edge4" class="edge"><title>Node43&#45;&gt;Node46</title>
<path fill="none" stroke="midnightblue" d="M213.179,-69.1648C225.263,-65.6768 240.16,-61.3764 253.364,-57.565"/>
<polygon fill="midnightblue" stroke="midnightblue" points="212.035,-65.8521 203.398,-71.9883 213.976,-72.5776 212.035,-65.8521"/>
</g>
<!-- Node43&#45;&gt;Node47 -->
<g id="edge5" class="edge"><title>Node43&#45;&gt;Node47</title>
<path fill="none" stroke="midnightblue" d="M204.645,-58.6675C213.83,-48.9584 226.217,-37.1935 239,-29 244.683,-25.3574 251.178,-22.203 257.502,-19.568"/>
<polygon fill="midnightblue" stroke="midnightblue" points="201.909,-56.4739 197.744,-66.2161 207.075,-61.1971 201.909,-56.4739"/>
</g>
</g>
</svg>
