<?xml version="1.0" encoding="UTF-8" standalone="no"?>
<!DOCTYPE svg PUBLIC "-//W3C//DTD SVG 1.1//EN"
 "http://www.w3.org/Graphics/SVG/1.1/DTD/svg11.dtd">
<!-- Generated by graphviz version 2.38.0 (20140413.2041)
 -->
<!-- Title: Eigen::HouseholderQR::absDeterminant Pages: 1 -->
<svg width="351pt" height="126pt"
 viewBox="0.00 0.00 351.00 126.00" xmlns="http://www.w3.org/2000/svg" xmlns:xlink="http://www.w3.org/1999/xlink">
<g id="graph0" class="graph" transform="scale(1 1) rotate(0) translate(4 122)">
<title>Eigen::HouseholderQR::absDeterminant</title>
<!-- Node14 -->
<g id="node1" class="node"><title>Node14</title>
<polygon fill="#bfbfbf" stroke="black" points="0,-33 0,-63 123,-63 123,-33 0,-33"/>
<text text-anchor="start" x="8" y="-51" font-family="Helvetica,sans-Serif" font-size="10.00">Eigen::HouseholderQR</text>
<text text-anchor="middle" x="61.5" y="-40" font-family="Helvetica,sans-Serif" font-size="10.00">::absDeterminant</text>
</g>
<!-- Node15 -->
<g id="node2" class="node"><title>Node15</title>
<g id="a_node2"><a xlink:href="classEigen_1_1HouseholderQR.html#aa8c555a962ee6fc24387696980d3068b" target="_top" xlink:title="Eigen::HouseholderQR\l\&lt; TransposeTypeWithSameStorage\lOrder \&gt;::compute">
<polygon fill="none" stroke="black" points="159,-76.5 159,-117.5 343,-117.5 343,-76.5 159,-76.5"/>
<text text-anchor="start" x="167" y="-105.5" font-family="Helvetica,sans-Serif" font-size="10.00">Eigen::HouseholderQR</text>
<text text-anchor="start" x="167" y="-94.5" font-family="Helvetica,sans-Serif" font-size="10.00">&lt; TransposeTypeWithSameStorage</text>
<text text-anchor="middle" x="251" y="-83.5" font-family="Helvetica,sans-Serif" font-size="10.00">Order &gt;::compute</text>
</a>
</g>
</g>
<!-- Node14&#45;&gt;Node15 -->
<g id="edge1" class="edge"><title>Node14&#45;&gt;Node15</title>
<path fill="none" stroke="midnightblue" d="M129.733,-65.5703C143.279,-69.1101 157.629,-72.8603 171.519,-76.4903"/>
<polygon fill="midnightblue" stroke="midnightblue" points="130.59,-62.1768 120.03,-63.0346 128.821,-68.9494 130.59,-62.1768"/>
</g>
<!-- Node16 -->
<g id="node3" class="node"><title>Node16</title>
<g id="a_node3"><a xlink:href="qr_8cpp.html#a9bfcf72d1c319774f027d3446dc121dd" target="_top" xlink:title="qr_invertible">
<polygon fill="none" stroke="black" points="213.5,-38.5 213.5,-57.5 288.5,-57.5 288.5,-38.5 213.5,-38.5"/>
<text text-anchor="middle" x="251" y="-45.5" font-family="Helvetica,sans-Serif" font-size="10.00">qr_invertible</text>
</a>
</g>
</g>
<!-- Node14&#45;&gt;Node16 -->
<g id="edge2" class="edge"><title>Node14&#45;&gt;Node16</title>
<path fill="none" stroke="midnightblue" d="M133.401,-48C160.639,-48 190.617,-48 213.355,-48"/>
<polygon fill="midnightblue" stroke="midnightblue" points="133.117,-44.5001 123.117,-48 133.117,-51.5001 133.117,-44.5001"/>
</g>
<!-- Node17 -->
<g id="node4" class="node"><title>Node17</title>
<g id="a_node4"><a xlink:href="qr_8cpp.html#a6693811f52bc269d1ec52b3ec57d8da2" target="_top" xlink:title="qr_verify_assert">
<polygon fill="none" stroke="black" points="205,-0.5 205,-19.5 297,-19.5 297,-0.5 205,-0.5"/>
<text text-anchor="middle" x="251" y="-7.5" font-family="Helvetica,sans-Serif" font-size="10.00">qr_verify_assert</text>
</a>
</g>
</g>
<!-- Node14&#45;&gt;Node17 -->
<g id="edge3" class="edge"><title>Node14&#45;&gt;Node17</title>
<path fill="none" stroke="midnightblue" d="M133.238,-33.6638C157.206,-28.8063 183.312,-23.5154 204.75,-19.1707"/>
<polygon fill="midnightblue" stroke="midnightblue" points="132.222,-30.2983 123.117,-35.715 133.613,-37.1589 132.222,-30.2983"/>
</g>
</g>
</svg>
