<?xml version="1.0" encoding="UTF-8" standalone="no"?>
<!DOCTYPE svg PUBLIC "-//W3C//DTD SVG 1.1//EN"
 "http://www.w3.org/Graphics/SVG/1.1/DTD/svg11.dtd">
<!-- Generated by graphviz version 2.38.0 (20140413.2041)
 -->
<!-- Title: Camera::setTarget Pages: 1 -->
<svg width="582pt" height="104pt"
 viewBox="0.00 0.00 582.00 104.00" xmlns="http://www.w3.org/2000/svg" xmlns:xlink="http://www.w3.org/1999/xlink">
<g id="graph0" class="graph" transform="scale(1 1) rotate(0) translate(4 100)">
<title>Camera::setTarget</title>
<!-- Node111 -->
<g id="node1" class="node"><title>Node111</title>
<polygon fill="#bfbfbf" stroke="black" points="0,-38.5 0,-57.5 105,-57.5 105,-38.5 0,-38.5"/>
<text text-anchor="middle" x="52.5" y="-45.5" font-family="Helvetica,sans-Serif" font-size="10.00">Camera::setTarget</text>
</g>
<!-- Node112 -->
<g id="node2" class="node"><title>Node112</title>
<g id="a_node2"><a xlink:href="classCamera.html#ac5e39b63430bbcdc52d42e7c69374efe" target="_top" xlink:title="Camera::position">
<polygon fill="none" stroke="black" points="151.5,-76.5 151.5,-95.5 249.5,-95.5 249.5,-76.5 151.5,-76.5"/>
<text text-anchor="middle" x="200.5" y="-83.5" font-family="Helvetica,sans-Serif" font-size="10.00">Camera::position</text>
</a>
</g>
</g>
<!-- Node111&#45;&gt;Node112 -->
<g id="edge1" class="edge"><title>Node111&#45;&gt;Node112</title>
<path fill="none" stroke="midnightblue" d="M90.342,-57.589C109.348,-62.5358 132.729,-68.6211 152.969,-73.8892"/>
<polygon fill="midnightblue" stroke="midnightblue" points="152.364,-77.3482 162.923,-76.4799 154.127,-70.5739 152.364,-77.3482"/>
</g>
<!-- Node113 -->
<g id="node3" class="node"><title>Node113</title>
<g id="a_node3"><a xlink:href="classCamera.html#af8621940fefd60a60df8a02093458960" target="_top" xlink:title="Camera::setDirection">
<polygon fill="none" stroke="black" points="141,-38.5 141,-57.5 260,-57.5 260,-38.5 141,-38.5"/>
<text text-anchor="middle" x="200.5" y="-45.5" font-family="Helvetica,sans-Serif" font-size="10.00">Camera::setDirection</text>
</a>
</g>
</g>
<!-- Node111&#45;&gt;Node113 -->
<g id="edge2" class="edge"><title>Node111&#45;&gt;Node113</title>
<path fill="none" stroke="midnightblue" d="M105.385,-48C113.543,-48 122.086,-48 130.555,-48"/>
<polygon fill="midnightblue" stroke="midnightblue" points="130.82,-51.5001 140.82,-48 130.82,-44.5001 130.82,-51.5001"/>
</g>
<!-- Node117 -->
<g id="node7" class="node"><title>Node117</title>
<g id="a_node7"><a xlink:href="classCamera.html#a265692fc1c8263a6fcd0be857fce27ff" target="_top" xlink:title="Camera::target">
<polygon fill="none" stroke="black" points="155.5,-0.5 155.5,-19.5 245.5,-19.5 245.5,-0.5 155.5,-0.5"/>
<text text-anchor="middle" x="200.5" y="-7.5" font-family="Helvetica,sans-Serif" font-size="10.00">Camera::target</text>
</a>
</g>
</g>
<!-- Node111&#45;&gt;Node117 -->
<g id="edge6" class="edge"><title>Node111&#45;&gt;Node117</title>
<path fill="none" stroke="midnightblue" d="M90.342,-38.411C109.348,-33.4642 132.729,-27.3789 152.969,-22.1108"/>
<polygon fill="midnightblue" stroke="midnightblue" points="154.127,-25.4261 162.923,-19.5201 152.364,-18.6518 154.127,-25.4261"/>
</g>
<!-- Node114 -->
<g id="node4" class="node"><title>Node114</title>
<g id="a_node4"><a xlink:href="classCamera.html#abcdafc0aeba359632ecef5bf07bbfa4c" target="_top" xlink:title="Camera::setOrientation">
<polygon fill="none" stroke="black" points="296,-57.5 296,-76.5 425,-76.5 425,-57.5 296,-57.5"/>
<text text-anchor="middle" x="360.5" y="-64.5" font-family="Helvetica,sans-Serif" font-size="10.00">Camera::setOrientation</text>
</a>
</g>
</g>
<!-- Node113&#45;&gt;Node114 -->
<g id="edge3" class="edge"><title>Node113&#45;&gt;Node114</title>
<path fill="none" stroke="midnightblue" d="M260.333,-55.0749C268.657,-56.0759 277.302,-57.1154 285.862,-58.1448"/>
<polygon fill="midnightblue" stroke="midnightblue" points="285.501,-61.6265 295.847,-59.3456 286.337,-54.6766 285.501,-61.6265"/>
</g>
<!-- Node115 -->
<g id="node5" class="node"><title>Node115</title>
<g id="a_node5"><a xlink:href="classCamera.html#add6d9b9e43330142bcb339068c271ff9" target="_top" xlink:title="Camera::up">
<polygon fill="none" stroke="black" points="324,-19.5 324,-38.5 397,-38.5 397,-19.5 324,-19.5"/>
<text text-anchor="middle" x="360.5" y="-26.5" font-family="Helvetica,sans-Serif" font-size="10.00">Camera::up</text>
</a>
</g>
</g>
<!-- Node113&#45;&gt;Node115 -->
<g id="edge4" class="edge"><title>Node113&#45;&gt;Node115</title>
<path fill="none" stroke="midnightblue" d="M260.333,-40.9251C277.917,-38.8107 296.928,-36.5245 313.556,-34.5249"/>
<polygon fill="midnightblue" stroke="midnightblue" points="314.057,-37.99 323.567,-33.321 313.221,-31.0401 314.057,-37.99"/>
</g>
<!-- Node116 -->
<g id="node6" class="node"><title>Node116</title>
<g id="a_node6"><a xlink:href="classCamera.html#a87dcab091782b992386fc0fa30d77f46" target="_top" xlink:title="Camera::orientation">
<polygon fill="none" stroke="black" points="461,-19.5 461,-38.5 574,-38.5 574,-19.5 461,-19.5"/>
<text text-anchor="middle" x="517.5" y="-26.5" font-family="Helvetica,sans-Serif" font-size="10.00">Camera::orientation</text>
</a>
</g>
</g>
<!-- Node115&#45;&gt;Node116 -->
<g id="edge5" class="edge"><title>Node115&#45;&gt;Node116</title>
<path fill="none" stroke="midnightblue" d="M397.06,-29C412.972,-29 432.26,-29 450.651,-29"/>
<polygon fill="midnightblue" stroke="midnightblue" points="450.749,-32.5001 460.749,-29 450.749,-25.5001 450.749,-32.5001"/>
</g>
</g>
</svg>
