<?xml version="1.0" encoding="UTF-8" standalone="no"?>
<!DOCTYPE svg PUBLIC "-//W3C//DTD SVG 1.1//EN"
 "http://www.w3.org/Graphics/SVG/1.1/DTD/svg11.dtd">
<!-- Generated by graphviz version 2.38.0 (20140413.2041)
 -->
<!-- Title: Eigen::internal::CompressedStorage::searchLowerIndex Pages: 1 -->
<svg width="389pt" height="209pt"
 viewBox="0.00 0.00 389.00 209.00" xmlns="http://www.w3.org/2000/svg" xmlns:xlink="http://www.w3.org/1999/xlink">
<g id="graph0" class="graph" transform="scale(1 1) rotate(0) translate(4 205)">
<title>Eigen::internal::CompressedStorage::searchLowerIndex</title>
<!-- Node80 -->
<g id="node1" class="node"><title>Node80</title>
<polygon fill="#bfbfbf" stroke="black" points="0,-85.5 0,-115.5 152,-115.5 152,-85.5 0,-85.5"/>
<text text-anchor="start" x="8" y="-103.5" font-family="Helvetica,sans-Serif" font-size="10.00">Eigen::internal::Compressed</text>
<text text-anchor="middle" x="76" y="-92.5" font-family="Helvetica,sans-Serif" font-size="10.00">Storage::searchLowerIndex</text>
</g>
<!-- Node80&#45;&gt;Node80 -->
<g id="edge5" class="edge"><title>Node80&#45;&gt;Node80</title>
<path fill="none" stroke="midnightblue" d="M39.0409,-125.958C43.6281,-130.679 55.9478,-134 76,-134 108.906,-134 120.989,-125.057 112.248,-115.659"/>
<polygon fill="midnightblue" stroke="midnightblue" points="42.5548,-125.876 39.7517,-115.659 35.5714,-125.394 42.5548,-125.876"/>
</g>
<!-- Node81 -->
<g id="node2" class="node"><title>Node81</title>
<g id="a_node2"><a xlink:href="classEigen_1_1internal_1_1CompressedStorage.html#a0fe151c0217177fd43df764e8e0cdec2" target="_top" xlink:title="Eigen::internal::Compressed\lStorage\&lt; Scalar, StorageIndex \&gt;::at">
<polygon fill="none" stroke="black" points="188,-170.5 188,-200.5 381,-200.5 381,-170.5 188,-170.5"/>
<text text-anchor="start" x="196" y="-188.5" font-family="Helvetica,sans-Serif" font-size="10.00">Eigen::internal::Compressed</text>
<text text-anchor="middle" x="284.5" y="-177.5" font-family="Helvetica,sans-Serif" font-size="10.00">Storage&lt; Scalar, StorageIndex &gt;::at</text>
</a>
</g>
</g>
<!-- Node80&#45;&gt;Node81 -->
<g id="edge1" class="edge"><title>Node80&#45;&gt;Node81</title>
<path fill="none" stroke="midnightblue" d="M109.635,-120.838C131.236,-133.614 160.542,-149.666 188,-160.5 197.406,-164.211 207.549,-167.54 217.59,-170.465"/>
<polygon fill="midnightblue" stroke="midnightblue" points="111.254,-117.728 100.877,-115.588 107.654,-123.732 111.254,-117.728"/>
</g>
<!-- Node82 -->
<g id="node3" class="node"><title>Node82</title>
<g id="a_node3"><a xlink:href="classEigen_1_1internal_1_1CompressedStorage.html#a70c2745dd270aaa44b415ec2e9bf2ae0" target="_top" xlink:title="Eigen::internal::Compressed\lStorage\&lt; Scalar, StorageIndex\l \&gt;::atInRange">
<polygon fill="none" stroke="black" points="201.5,-110 201.5,-151 367.5,-151 367.5,-110 201.5,-110"/>
<text text-anchor="start" x="209.5" y="-139" font-family="Helvetica,sans-Serif" font-size="10.00">Eigen::internal::Compressed</text>
<text text-anchor="start" x="209.5" y="-128" font-family="Helvetica,sans-Serif" font-size="10.00">Storage&lt; Scalar, StorageIndex</text>
<text text-anchor="middle" x="284.5" y="-117" font-family="Helvetica,sans-Serif" font-size="10.00"> &gt;::atInRange</text>
</a>
</g>
</g>
<!-- Node80&#45;&gt;Node82 -->
<g id="edge2" class="edge"><title>Node80&#45;&gt;Node82</title>
<path fill="none" stroke="midnightblue" d="M162.394,-112.906C175.307,-114.782 188.606,-116.714 201.447,-118.579"/>
<polygon fill="midnightblue" stroke="midnightblue" points="162.535,-109.39 152.135,-111.416 161.528,-116.317 162.535,-109.39"/>
</g>
<!-- Node83 -->
<g id="node4" class="node"><title>Node83</title>
<g id="a_node4"><a xlink:href="classEigen_1_1internal_1_1CompressedStorage.html#a8621aa0d1d0e27b025d41b9321968357" target="_top" xlink:title="Eigen::internal::Compressed\lStorage\&lt; Scalar, StorageIndex\l \&gt;::atWithInsertion">
<polygon fill="none" stroke="black" points="201.5,-50 201.5,-91 367.5,-91 367.5,-50 201.5,-50"/>
<text text-anchor="start" x="209.5" y="-79" font-family="Helvetica,sans-Serif" font-size="10.00">Eigen::internal::Compressed</text>
<text text-anchor="start" x="209.5" y="-68" font-family="Helvetica,sans-Serif" font-size="10.00">Storage&lt; Scalar, StorageIndex</text>
<text text-anchor="middle" x="284.5" y="-57" font-family="Helvetica,sans-Serif" font-size="10.00"> &gt;::atWithInsertion</text>
</a>
</g>
</g>
<!-- Node80&#45;&gt;Node83 -->
<g id="edge3" class="edge"><title>Node80&#45;&gt;Node83</title>
<path fill="none" stroke="midnightblue" d="M162.394,-88.0942C175.307,-86.2181 188.606,-84.2861 201.447,-82.4206"/>
<polygon fill="midnightblue" stroke="midnightblue" points="161.528,-84.683 152.135,-89.5844 162.535,-91.6103 161.528,-84.683"/>
</g>
<!-- Node84 -->
<g id="node5" class="node"><title>Node84</title>
<g id="a_node5"><a xlink:href="classEigen_1_1SparseMatrix.html#a013197b3f598968ff37ed8c97087f1ef" target="_top" xlink:title="Eigen::SparseMatrix\l\&lt; scalar_t \&gt;::coeffRef">
<polygon fill="none" stroke="black" points="224.5,-0.5 224.5,-30.5 344.5,-30.5 344.5,-0.5 224.5,-0.5"/>
<text text-anchor="start" x="232.5" y="-18.5" font-family="Helvetica,sans-Serif" font-size="10.00">Eigen::SparseMatrix</text>
<text text-anchor="middle" x="284.5" y="-7.5" font-family="Helvetica,sans-Serif" font-size="10.00">&lt; scalar_t &gt;::coeffRef</text>
</a>
</g>
</g>
<!-- Node80&#45;&gt;Node84 -->
<g id="edge4" class="edge"><title>Node80&#45;&gt;Node84</title>
<path fill="none" stroke="midnightblue" d="M109.635,-80.1616C131.236,-67.386 160.542,-51.3335 188,-40.5 199.558,-35.9397 212.229,-31.9573 224.456,-28.5912"/>
<polygon fill="midnightblue" stroke="midnightblue" points="107.654,-77.2681 100.877,-85.4115 111.254,-83.272 107.654,-77.2681"/>
</g>
</g>
</svg>
