<?xml version="1.0" encoding="UTF-8" standalone="no"?>
<!DOCTYPE svg PUBLIC "-//W3C//DTD SVG 1.1//EN"
 "http://www.w3.org/Graphics/SVG/1.1/DTD/svg11.dtd">
<!-- Generated by graphviz version 2.38.0 (20140413.2041)
 -->
<!-- Title: Eigen::ConjugateGradient::_solve_with_guess_impl Pages: 1 -->
<svg width="392pt" height="91pt"
 viewBox="0.00 0.00 392.00 91.00" xmlns="http://www.w3.org/2000/svg" xmlns:xlink="http://www.w3.org/1999/xlink">
<g id="graph0" class="graph" transform="scale(1 1) rotate(0) translate(4 87)">
<title>Eigen::ConjugateGradient::_solve_with_guess_impl</title>
<!-- Node8 -->
<g id="node1" class="node"><title>Node8</title>
<polygon fill="#bfbfbf" stroke="black" points="0,-17 0,-47 139,-47 139,-17 0,-17"/>
<text text-anchor="start" x="8" y="-35" font-family="Helvetica,sans-Serif" font-size="10.00">Eigen::ConjugateGradient</text>
<text text-anchor="middle" x="69.5" y="-24" font-family="Helvetica,sans-Serif" font-size="10.00">::_solve_with_guess_impl</text>
</g>
<!-- Node9 -->
<g id="node2" class="node"><title>Node9</title>
<g id="a_node2"><a xlink:href="namespaceEigen_1_1internal.html#aff9eaa3ce0bcecb14e4664d80c44d801" target="_top" xlink:title="Eigen::internal::conjugate\l_gradient">
<polygon fill="none" stroke="black" points="175,-39 175,-69 313,-69 313,-39 175,-39"/>
<text text-anchor="start" x="183" y="-57" font-family="Helvetica,sans-Serif" font-size="10.00">Eigen::internal::conjugate</text>
<text text-anchor="middle" x="244" y="-46" font-family="Helvetica,sans-Serif" font-size="10.00">_gradient</text>
</a>
</g>
</g>
<!-- Node8&#45;&gt;Node9 -->
<g id="edge1" class="edge"><title>Node8&#45;&gt;Node9</title>
<path fill="none" stroke="midnightblue" d="M139.172,-40.7582C147.613,-41.8348 156.289,-42.9412 164.857,-44.034"/>
<polygon fill="midnightblue" stroke="midnightblue" points="164.483,-47.5145 174.846,-45.3079 165.369,-40.5708 164.483,-47.5145"/>
</g>
<!-- Node12 -->
<g id="node5" class="node"><title>Node12</title>
<g id="a_node5"><a xlink:href="common_8h.html#a94360d20ee722c1bcb23e5b2fbba8554" target="_top" xlink:title="matrix">
<polygon fill="none" stroke="black" points="220.5,-0.5 220.5,-19.5 267.5,-19.5 267.5,-0.5 220.5,-0.5"/>
<text text-anchor="middle" x="244" y="-7.5" font-family="Helvetica,sans-Serif" font-size="10.00">matrix</text>
</a>
</g>
</g>
<!-- Node8&#45;&gt;Node12 -->
<g id="edge4" class="edge"><title>Node8&#45;&gt;Node12</title>
<path fill="none" stroke="midnightblue" d="M139.172,-23.2418C163.702,-20.1134 190.212,-16.7324 210.305,-14.1698"/>
<polygon fill="midnightblue" stroke="midnightblue" points="210.991,-17.6107 220.468,-12.8736 210.106,-10.667 210.991,-17.6107"/>
</g>
<!-- Node10 -->
<g id="node3" class="node"><title>Node10</title>
<g id="a_node3"><a xlink:href="ArrayCwiseUnaryOps_8h.html#a656b9217a2fcb6de59dc8d1eb3079cc7" target="_top" xlink:title="sqrt">
<polygon fill="none" stroke="black" points="349,-63.5 349,-82.5 384,-82.5 384,-63.5 349,-63.5"/>
<text text-anchor="middle" x="366.5" y="-70.5" font-family="Helvetica,sans-Serif" font-size="10.00">sqrt</text>
</a>
</g>
</g>
<!-- Node9&#45;&gt;Node10 -->
<g id="edge2" class="edge"><title>Node9&#45;&gt;Node10</title>
<path fill="none" stroke="midnightblue" d="M313.348,-64.7768C322.302,-66.1887 331.013,-67.5622 338.67,-68.7696"/>
<polygon fill="midnightblue" stroke="midnightblue" points="338.286,-72.2522 348.709,-70.3525 339.377,-65.3376 338.286,-72.2522"/>
</g>
<!-- Node11 -->
<g id="node4" class="node"><title>Node11</title>
<g id="a_node4"><a xlink:href="ArrayCwiseUnaryOps_8h.html#a35560f7dbf19244fda7e463d14157c43" target="_top" xlink:title="abs">
<polygon fill="none" stroke="black" points="349.5,-25.5 349.5,-44.5 383.5,-44.5 383.5,-25.5 349.5,-25.5"/>
<text text-anchor="middle" x="366.5" y="-32.5" font-family="Helvetica,sans-Serif" font-size="10.00">abs</text>
</a>
</g>
</g>
<!-- Node9&#45;&gt;Node11 -->
<g id="edge3" class="edge"><title>Node9&#45;&gt;Node11</title>
<path fill="none" stroke="midnightblue" d="M313.348,-43.2232C322.446,-41.7886 331.294,-40.3935 339.04,-39.1722"/>
<polygon fill="midnightblue" stroke="midnightblue" points="339.836,-42.59 349.169,-37.5751 338.745,-35.6754 339.836,-42.59"/>
</g>
</g>
</svg>
