<?xml version="1.0" encoding="UTF-8" standalone="no"?>
<!DOCTYPE svg PUBLIC "-//W3C//DTD SVG 1.1//EN"
 "http://www.w3.org/Graphics/SVG/1.1/DTD/svg11.dtd">
<!-- Generated by graphviz version 2.38.0 (20140413.2041)
 -->
<!-- Title: Eigen::SparseMatrix::reserve Pages: 1 -->
<!--zoomable 329 -->
<svg id="main" version="1.1" xmlns="http://www.w3.org/2000/svg" xmlns:xlink="http://www.w3.org/1999/xlink" xml:space="preserve" onload="init(evt)">
<style type="text/css"><![CDATA[
.edge:hover path { stroke: red; }
.edge:hover polygon { stroke: red; fill: red; }
]]></style>
<script type="text/javascript"><![CDATA[
var edges = document.getElementsByTagName('g');
if (edges && edges.length) {
  for (var i=0;i<edges.length;i++) {
    if (edges[i].id.substr(0,4)=='edge') {
      edges[i].setAttribute('class','edge');
    }
  }
}
]]></script>
        <defs>
                <circle id="rim" cx="0" cy="0" r="7"/>
                <circle id="rim2" cx="0" cy="0" r="3.5"/>
                <g id="zoomPlus">
                        <use xlink:href="#rim" fill="#404040">
                                <set attributeName="fill" to="#808080" begin="zoomplus.mouseover" end="zoomplus.mouseout"/>
                        </use>
                        <path d="M-4,0h8M0,-4v8" fill="none" stroke="white" stroke-width="1.5" pointer-events="none"/>
                </g>
                <g id="zoomMin">
                        <use xlink:href="#rim" fill="#404040">
                                <set attributeName="fill" to="#808080" begin="zoomminus.mouseover" end="zoomminus.mouseout"/>
                        </use>
                        <path d="M-4,0h8" fill="none" stroke="white" stroke-width="1.5" pointer-events="none"/>
                </g>
                <g id="dirArrow">
                        <path fill="none" stroke="white" stroke-width="1.5" d="M0,-3.0v7 M-2.5,-0.5L0,-3.0L2.5,-0.5"/>
                </g>
               <g id="resetDef">
                       <use xlink:href="#rim2" fill="#404040">
                               <set attributeName="fill" to="#808080" begin="reset.mouseover" end="reset.mouseout"/>
                       </use>
               </g>
        </defs>

<script type="text/javascript">
var viewWidth = 679;
var viewHeight = 329;
var sectionId = 'dynsection-16';
</script>
<script xlink:href="svgpan.js"/>
<svg id="graph" class="graph">
<g id="viewport">
<title>Eigen::SparseMatrix::reserve</title>
<!-- Node284 -->
<g id="node1" class="node"><title>Node284</title>
<polygon fill="#bfbfbf" stroke="black" points="0,-153 0,-183 112,-183 112,-153 0,-153"/>
<text text-anchor="start" x="8" y="-171" font-family="Helvetica,sans-Serif" font-size="10.00">Eigen::SparseMatrix</text>
<text text-anchor="middle" x="56" y="-160" font-family="Helvetica,sans-Serif" font-size="10.00">::reserve</text>
</g>
<!-- Node285 -->
<g id="node2" class="node"><title>Node285</title>
<g id="a_node2"><a xlink:href="classSystemBase.html#a321c8c5c9f833cf60322f82219af5d8b" target="_top" xlink:title="SystemBase\&lt; StateTwo\l \&gt;::add">
<polygon fill="none" stroke="black" points="149.5,-290 149.5,-320 280.5,-320 280.5,-290 149.5,-290"/>
<text text-anchor="start" x="157.5" y="-308" font-family="Helvetica,sans-Serif" font-size="10.00">SystemBase&lt; StateTwo</text>
<text text-anchor="middle" x="215" y="-297" font-family="Helvetica,sans-Serif" font-size="10.00"> &gt;::add</text>
</a>
</g>
</g>
<!-- Node284&#45;&gt;Node285 -->
<g id="edge1" class="edge"><title>Node284&#45;&gt;Node285</title>
<path fill="none" stroke="midnightblue" d="M70.8278,-192.041C86.545,-217.414 114.424,-256.989 148,-281 152.76,-284.404 158.056,-287.376 163.519,-289.957"/>
<polygon fill="midnightblue" stroke="midnightblue" points="73.7675,-190.138 65.5995,-183.39 67.7767,-193.759 73.7675,-190.138"/>
</g>
<!-- Node286 -->
<g id="node3" class="node"><title>Node286</title>
<g id="a_node3"><a xlink:href="classSystemBase.html#a5268d7ddec036ce2d12a1fe4742f6694" target="_top" xlink:title="SystemBase\&lt; StateTwo\l \&gt;::addHamiltonianentry">
<polygon fill="none" stroke="black" points="148,-241 148,-271 282,-271 282,-241 148,-241"/>
<text text-anchor="start" x="156" y="-259" font-family="Helvetica,sans-Serif" font-size="10.00">SystemBase&lt; StateTwo</text>
<text text-anchor="middle" x="215" y="-248" font-family="Helvetica,sans-Serif" font-size="10.00"> &gt;::addHamiltonianentry</text>
</a>
</g>
</g>
<!-- Node284&#45;&gt;Node286 -->
<g id="edge2" class="edge"><title>Node284&#45;&gt;Node286</title>
<path fill="none" stroke="midnightblue" d="M84.0874,-189.362C101.626,-202.522 125.342,-219.094 148,-231 154.833,-234.591 162.3,-237.928 169.676,-240.92"/>
<polygon fill="midnightblue" stroke="midnightblue" points="86.0828,-186.482 76.0054,-183.212 81.8436,-192.053 86.0828,-186.482"/>
</g>
<!-- Node287 -->
<g id="node4" class="node"><title>Node287</title>
<g id="a_node4"><a xlink:href="sparse__ref_8cpp.html#a3bc63964aaec4de1e01e58e2d8586cad" target="_top" xlink:title="call_ref">
<polygon fill="none" stroke="black" points="190,-202.5 190,-221.5 240,-221.5 240,-202.5 190,-202.5"/>
<text text-anchor="middle" x="215" y="-209.5" font-family="Helvetica,sans-Serif" font-size="10.00">call_ref</text>
</a>
</g>
</g>
<!-- Node284&#45;&gt;Node287 -->
<g id="edge3" class="edge"><title>Node284&#45;&gt;Node287</title>
<path fill="none" stroke="midnightblue" d="M120.502,-185.797C144.816,-192.611 171.124,-199.984 189.621,-205.168"/>
<polygon fill="midnightblue" stroke="midnightblue" points="121.165,-182.348 110.591,-183.019 119.276,-189.088 121.165,-182.348"/>
</g>
<!-- Node288 -->
<g id="node5" class="node"><title>Node288</title>
<g id="a_node5"><a xlink:href="classHamiltonianmatrix.html#a1db6d20a1d88ef89f1acdad819af34ee" target="_top" xlink:title="Hamiltonianmatrix::\ldiagonalize">
<polygon fill="none" stroke="black" points="159.5,-153 159.5,-183 270.5,-183 270.5,-153 159.5,-153"/>
<text text-anchor="start" x="167.5" y="-171" font-family="Helvetica,sans-Serif" font-size="10.00">Hamiltonianmatrix::</text>
<text text-anchor="middle" x="215" y="-160" font-family="Helvetica,sans-Serif" font-size="10.00">diagonalize</text>
</a>
</g>
</g>
<!-- Node284&#45;&gt;Node288 -->
<g id="edge4" class="edge"><title>Node284&#45;&gt;Node288</title>
<path fill="none" stroke="midnightblue" d="M122.532,-168C134.806,-168 147.514,-168 159.412,-168"/>
<polygon fill="midnightblue" stroke="midnightblue" points="122.352,-164.5 112.352,-168 122.352,-171.5 122.352,-164.5"/>
</g>
<!-- Node293 -->
<g id="node10" class="node"><title>Node293</title>
<g id="a_node10"><a xlink:href="BenchSparseUtil_8h.html#a4172b9c3dac1bb4aff62b91b7f63d7e9" target="_top" xlink:title="fillMatrix">
<polygon fill="none" stroke="black" points="187,-114.5 187,-133.5 243,-133.5 243,-114.5 187,-114.5"/>
<text text-anchor="middle" x="215" y="-121.5" font-family="Helvetica,sans-Serif" font-size="10.00">fillMatrix</text>
</a>
</g>
</g>
<!-- Node284&#45;&gt;Node293 -->
<g id="edge9" class="edge"><title>Node284&#45;&gt;Node293</title>
<path fill="none" stroke="midnightblue" d="M120.345,-150.247C143.421,-143.78 168.313,-136.804 186.63,-131.671"/>
<polygon fill="midnightblue" stroke="midnightblue" points="119.276,-146.912 110.591,-152.981 121.165,-153.652 119.276,-146.912"/>
</g>
<!-- Node294 -->
<g id="node11" class="node"><title>Node294</title>
<g id="a_node11"><a xlink:href="BenchSparseUtil_8h.html#abafdfa2084e60b4bd47c70212bd0c473" target="_top" xlink:title="fillMatrix2">
<polygon fill="none" stroke="black" points="184,-76.5 184,-95.5 246,-95.5 246,-76.5 184,-76.5"/>
<text text-anchor="middle" x="215" y="-83.5" font-family="Helvetica,sans-Serif" font-size="10.00">fillMatrix2</text>
</a>
</g>
</g>
<!-- Node284&#45;&gt;Node294 -->
<g id="edge10" class="edge"><title>Node284&#45;&gt;Node294</title>
<path fill="none" stroke="midnightblue" d="M83.0936,-146.509C100.566,-133.01 124.576,-116.111 148,-105 159.204,-99.6853 172.197,-95.5531 183.677,-92.5197"/>
<polygon fill="midnightblue" stroke="midnightblue" points="80.7657,-143.887 75.0728,-152.823 85.0954,-149.388 80.7657,-143.887"/>
</g>
<!-- Node296 -->
<g id="node13" class="node"><title>Node296</title>
<g id="a_node13"><a xlink:href="sparse_8h.html#a3ba4abd21a1ace3122406c3b3b27fc5b" target="_top" xlink:title="initSparse">
<polygon fill="none" stroke="black" points="182.5,-38.5 182.5,-57.5 247.5,-57.5 247.5,-38.5 182.5,-38.5"/>
<text text-anchor="middle" x="215" y="-45.5" font-family="Helvetica,sans-Serif" font-size="10.00">initSparse</text>
</a>
</g>
</g>
<!-- Node284&#45;&gt;Node296 -->
<g id="edge12" class="edge"><title>Node284&#45;&gt;Node296</title>
<path fill="none" stroke="midnightblue" d="M72.3493,-144.399C88.5123,-121.38 116.024,-86.9968 148,-67 158.312,-60.5513 170.884,-56.2251 182.278,-53.3538"/>
<polygon fill="midnightblue" stroke="midnightblue" points="69.2876,-142.676 66.5288,-152.905 75.0645,-146.629 69.2876,-142.676"/>
</g>
<!-- Node289 -->
<g id="node6" class="node"><title>Node289</title>
<g id="a_node6"><a xlink:href="classHamiltonianOne.html#a9cb71dcb34ab9f0779c0bd66b758185e" target="_top" xlink:title="HamiltonianOne::build">
<polygon fill="none" stroke="black" points="327,-177.5 327,-196.5 449,-196.5 449,-177.5 327,-177.5"/>
<text text-anchor="middle" x="388" y="-184.5" font-family="Helvetica,sans-Serif" font-size="10.00">HamiltonianOne::build</text>
</a>
</g>
</g>
<!-- Node288&#45;&gt;Node289 -->
<g id="edge5" class="edge"><title>Node288&#45;&gt;Node289</title>
<path fill="none" stroke="midnightblue" d="M280.832,-175.204C295.893,-176.877 311.865,-178.652 326.72,-180.302"/>
<polygon fill="midnightblue" stroke="midnightblue" points="280.901,-171.69 270.576,-174.064 280.128,-178.647 280.901,-171.69"/>
</g>
<!-- Node291 -->
<g id="node8" class="node"><title>Node291</title>
<g id="a_node8"><a xlink:href="classHamiltonianTwo.html#a6ca0a318f25170b69e571a07064a5afb" target="_top" xlink:title="HamiltonianTwo::calculate">
<polygon fill="none" stroke="black" points="318,-139.5 318,-158.5 458,-158.5 458,-139.5 318,-139.5"/>
<text text-anchor="middle" x="388" y="-146.5" font-family="Helvetica,sans-Serif" font-size="10.00">HamiltonianTwo::calculate</text>
</a>
</g>
</g>
<!-- Node288&#45;&gt;Node291 -->
<g id="edge7" class="edge"><title>Node288&#45;&gt;Node291</title>
<path fill="none" stroke="midnightblue" d="M280.642,-160.818C292.823,-159.464 305.605,-158.044 317.916,-156.676"/>
<polygon fill="midnightblue" stroke="midnightblue" points="280.128,-157.353 270.576,-161.936 280.901,-164.31 280.128,-157.353"/>
</g>
<!-- Node290 -->
<g id="node7" class="node"><title>Node290</title>
<g id="a_node7"><a xlink:href="classHamiltonianOne.html#ad3ba2d70879a60c9f065b5a2545dfe36" target="_top" xlink:title="HamiltonianOne::HamiltonianOne">
<polygon fill="none" stroke="black" points="494,-177.5 494,-196.5 671,-196.5 671,-177.5 494,-177.5"/>
<text text-anchor="middle" x="582.5" y="-184.5" font-family="Helvetica,sans-Serif" font-size="10.00">HamiltonianOne::HamiltonianOne</text>
</a>
</g>
</g>
<!-- Node289&#45;&gt;Node290 -->
<g id="edge6" class="edge"><title>Node289&#45;&gt;Node290</title>
<path fill="none" stroke="midnightblue" d="M459.306,-187C470.58,-187 482.367,-187 493.982,-187"/>
<polygon fill="midnightblue" stroke="midnightblue" points="459.116,-183.5 449.116,-187 459.116,-190.5 459.116,-183.5"/>
</g>
<!-- Node292 -->
<g id="node9" class="node"><title>Node292</title>
<g id="a_node9"><a xlink:href="classHamiltonianTwo.html#a8d51d632bd7862cf1e566f6faf9ccc8c" target="_top" xlink:title="HamiltonianTwo::HamiltonianTwo">
<polygon fill="none" stroke="black" points="497,-139.5 497,-158.5 668,-158.5 668,-139.5 497,-139.5"/>
<text text-anchor="middle" x="582.5" y="-146.5" font-family="Helvetica,sans-Serif" font-size="10.00">HamiltonianTwo::HamiltonianTwo</text>
</a>
</g>
</g>
<!-- Node291&#45;&gt;Node292 -->
<g id="edge8" class="edge"><title>Node291&#45;&gt;Node292</title>
<path fill="none" stroke="midnightblue" d="M468.311,-149C477.703,-149 487.317,-149 496.78,-149"/>
<polygon fill="midnightblue" stroke="midnightblue" points="468.225,-145.5 458.225,-149 468.225,-152.5 468.225,-145.5"/>
</g>
<!-- Node295 -->
<g id="node12" class="node"><title>Node295</title>
<g id="a_node12"><a xlink:href="spmv_8cpp.html#a0ddf1224851353fc92bfbff6f499fa97" target="_top" xlink:title="main">
<polygon fill="none" stroke="black" points="367.5,-76.5 367.5,-95.5 408.5,-95.5 408.5,-76.5 367.5,-76.5"/>
<text text-anchor="middle" x="388" y="-83.5" font-family="Helvetica,sans-Serif" font-size="10.00">main</text>
</a>
</g>
</g>
<!-- Node294&#45;&gt;Node295 -->
<g id="edge11" class="edge"><title>Node294&#45;&gt;Node295</title>
<path fill="none" stroke="midnightblue" d="M256.522,-86C291.428,-86 340.317,-86 367.251,-86"/>
<polygon fill="midnightblue" stroke="midnightblue" points="256.178,-82.5001 246.178,-86 256.178,-89.5001 256.178,-82.5001"/>
</g>
<!-- Node297 -->
<g id="node14" class="node"><title>Node297</title>
<g id="a_node14"><a xlink:href="sparse__solvers_8cpp.html#afdc1343eeabd8d973eaa0a8025e4b7c8" target="_top" xlink:title="initSPD">
<polygon fill="none" stroke="black" points="362.5,-38.5 362.5,-57.5 413.5,-57.5 413.5,-38.5 362.5,-38.5"/>
<text text-anchor="middle" x="388" y="-45.5" font-family="Helvetica,sans-Serif" font-size="10.00">initSPD</text>
</a>
</g>
</g>
<!-- Node296&#45;&gt;Node297 -->
<g id="edge13" class="edge"><title>Node296&#45;&gt;Node297</title>
<path fill="none" stroke="midnightblue" d="M257.95,-48C290.697,-48 335.072,-48 362.333,-48"/>
<polygon fill="midnightblue" stroke="midnightblue" points="257.763,-44.5001 247.763,-48 257.763,-51.5001 257.763,-44.5001"/>
</g>
<!-- Node298 -->
<g id="node15" class="node"><title>Node298</title>
<g id="a_node15"><a xlink:href="test_2sparse__product_8cpp.html#a7c1ebb5061b52283fef06715cf3410e1" target="_top" xlink:title="sparse_product">
<polygon fill="none" stroke="black" points="342.5,-0.5 342.5,-19.5 433.5,-19.5 433.5,-0.5 342.5,-0.5"/>
<text text-anchor="middle" x="388" y="-7.5" font-family="Helvetica,sans-Serif" font-size="10.00">sparse_product</text>
</a>
</g>
</g>
<!-- Node296&#45;&gt;Node298 -->
<g id="edge14" class="edge"><title>Node296&#45;&gt;Node298</title>
<path fill="none" stroke="midnightblue" d="M257.771,-38.7177C283.984,-32.8925 317.7,-25.3999 344.121,-19.5287"/>
<polygon fill="midnightblue" stroke="midnightblue" points="256.766,-35.3555 247.763,-40.9415 258.284,-42.1888 256.766,-35.3555"/>
</g>
</g>
</svg>
        <g id="navigator" transform="translate(0 0)" fill="#404254">
                <rect fill="#f2f5e9" fill-opacity="0.5" stroke="#606060" stroke-width=".5" x="0" y="0" width="60" height="60"/>
                <use id="zoomplus" xlink:href="#zoomPlus" x="17" y="9" onmousedown="handleZoom(evt,'in')"/>
                <use id="zoomminus" xlink:href="#zoomMin" x="42" y="9" onmousedown="handleZoom(evt,'out')"/>
                <use id="reset" xlink:href="#resetDef" x="30" y="36" onmousedown="handleReset()"/>
                <g id="arrowUp" xlink:href="#dirArrow" transform="translate(30 24)" onmousedown="handlePan(0,-1)">
                  <use xlink:href="#rim" fill="#404040">
                        <set attributeName="fill" to="#808080" begin="arrowUp.mouseover" end="arrowUp.mouseout"/>
                  </use>
                  <path fill="none" stroke="white" stroke-width="1.5" d="M0,-3.0v7 M-2.5,-0.5L0,-3.0L2.5,-0.5"/>
                </g>
                <g id="arrowRight" xlink:href="#dirArrow" transform="rotate(90) translate(36 -43)" onmousedown="handlePan(1,0)">
                  <use xlink:href="#rim" fill="#404040">
                        <set attributeName="fill" to="#808080" begin="arrowRight.mouseover" end="arrowRight.mouseout"/>
                  </use>
                  <path fill="none" stroke="white" stroke-width="1.5" d="M0,-3.0v7 M-2.5,-0.5L0,-3.0L2.5,-0.5"/>
                </g>
                <g id="arrowDown" xlink:href="#dirArrow" transform="rotate(180) translate(-30 -48)" onmousedown="handlePan(0,1)">
                  <use xlink:href="#rim" fill="#404040">
                        <set attributeName="fill" to="#808080" begin="arrowDown.mouseover" end="arrowDown.mouseout"/>
                  </use>
                  <path fill="none" stroke="white" stroke-width="1.5" d="M0,-3.0v7 M-2.5,-0.5L0,-3.0L2.5,-0.5"/>
                </g>
                <g id="arrowLeft" xlink:href="#dirArrow" transform="rotate(270) translate(-36 17)" onmousedown="handlePan(-1,0)">
                  <use xlink:href="#rim" fill="#404040">
                        <set attributeName="fill" to="#808080" begin="arrowLeft.mouseover" end="arrowLeft.mouseout"/>
                  </use>
                  <path fill="none" stroke="white" stroke-width="1.5" d="M0,-3.0v7 M-2.5,-0.5L0,-3.0L2.5,-0.5"/>
                </g>
        </g>
        <svg viewBox="0 0 15 15" width="100%" height="30px" preserveAspectRatio="xMaxYMin meet">
         <g id="arrow_out" transform="scale(0.3 0.3)">
          <a xlink:href="classEigen_1_1SparseMatrix_a1518e58ac49bed0e2385b722a034f7d3_icgraph_org.svg" target="_base">
           <rect id="button" ry="5" rx="5" y="6" x="6" height="38" width="38"
                fill="#f2f5e9" fill-opacity="0.5" stroke="#606060" stroke-width="1.0"/>
           <path id="arrow"
             d="M 11.500037,31.436501 C 11.940474,20.09759 22.043105,11.32322 32.158766,21.979434 L 37.068811,17.246167 C 37.068811,17.246167 37.088388,32 37.088388,32 L 22.160133,31.978069 C 22.160133,31.978069 26.997745,27.140456 26.997745,27.140456 C 18.528582,18.264221 13.291696,25.230495 11.500037,31.436501 z"
             style="fill:#404040;"/>
          </a>
         </g>
        </svg>
</svg>
