<?xml version="1.0" encoding="UTF-8" standalone="no"?>
<!DOCTYPE svg PUBLIC "-//W3C//DTD SVG 1.1//EN"
 "http://www.w3.org/Graphics/SVG/1.1/DTD/svg11.dtd">
<!-- Generated by graphviz version 2.38.0 (20140413.2041)
 -->
<!-- Title: Eigen::UmfPackLU::analyzePattern Pages: 1 -->
<svg width="512pt" height="215pt"
 viewBox="0.00 0.00 512.00 214.50" xmlns="http://www.w3.org/2000/svg" xmlns:xlink="http://www.w3.org/1999/xlink">
<g id="graph0" class="graph" transform="scale(1 1) rotate(0) translate(4 210.5)">
<title>Eigen::UmfPackLU::analyzePattern</title>
<!-- Node30 -->
<g id="node1" class="node"><title>Node30</title>
<polygon fill="#bfbfbf" stroke="black" points="0,-71.5 0,-101.5 146,-101.5 146,-71.5 0,-71.5"/>
<text text-anchor="start" x="8" y="-89.5" font-family="Helvetica,sans-Serif" font-size="10.00">Eigen::UmfPackLU::analyze</text>
<text text-anchor="middle" x="73" y="-78.5" font-family="Helvetica,sans-Serif" font-size="10.00">Pattern</text>
</g>
<!-- Node31 -->
<g id="node2" class="node"><title>Node31</title>
<g id="a_node2"><a xlink:href="classEigen_1_1UmfPackLU.html#a9d319cce61d8797d1f0ba6b6ae3087c9" target="_top" xlink:title="Eigen::UmfPackLU::analyze\lPattern_impl">
<polygon fill="none" stroke="black" points="182,-137.5 182,-167.5 328,-167.5 328,-137.5 182,-137.5"/>
<text text-anchor="start" x="190" y="-155.5" font-family="Helvetica,sans-Serif" font-size="10.00">Eigen::UmfPackLU::analyze</text>
<text text-anchor="middle" x="255" y="-144.5" font-family="Helvetica,sans-Serif" font-size="10.00">Pattern_impl</text>
</a>
</g>
</g>
<!-- Node30&#45;&gt;Node31 -->
<g id="edge1" class="edge"><title>Node30&#45;&gt;Node31</title>
<path fill="none" stroke="midnightblue" d="M112.892,-101.572C133.397,-109.441 159.003,-119.144 182,-127.5 187.958,-129.665 194.207,-131.895 200.431,-134.09"/>
<polygon fill="midnightblue" stroke="midnightblue" points="199.548,-137.489 210.143,-137.496 201.865,-130.884 199.548,-137.489"/>
</g>
<!-- Node34 -->
<g id="node5" class="node"><title>Node34</title>
<g id="a_node5"><a xlink:href="classEigen_1_1UmfPackLU.html#a1b47abf8be308bbd60c37f3a0940fc43" target="_top" xlink:title="Eigen::UmfPackLU::grab">
<polygon fill="none" stroke="black" points="189.5,-99 189.5,-118 320.5,-118 320.5,-99 189.5,-99"/>
<text text-anchor="middle" x="255" y="-106" font-family="Helvetica,sans-Serif" font-size="10.00">Eigen::UmfPackLU::grab</text>
</a>
</g>
</g>
<!-- Node30&#45;&gt;Node34 -->
<g id="edge4" class="edge"><title>Node30&#45;&gt;Node34</title>
<path fill="none" stroke="midnightblue" d="M146.176,-95.3215C157.109,-96.6577 168.407,-98.0387 179.391,-99.3811"/>
<polygon fill="midnightblue" stroke="midnightblue" points="179.019,-102.862 189.369,-100.601 179.868,-95.9133 179.019,-102.862"/>
</g>
<!-- Node36 -->
<g id="node7" class="node"><title>Node36</title>
<g id="a_node7"><a xlink:href="namespaceEigen.html#a3b1224272137249b08cfa93a27fe740d" target="_top" xlink:title="Eigen::umfpack_free\l_numeric">
<polygon fill="none" stroke="black" points="198,-49.5 198,-79.5 312,-79.5 312,-49.5 198,-49.5"/>
<text text-anchor="start" x="206" y="-67.5" font-family="Helvetica,sans-Serif" font-size="10.00">Eigen::umfpack_free</text>
<text text-anchor="middle" x="255" y="-56.5" font-family="Helvetica,sans-Serif" font-size="10.00">_numeric</text>
</a>
</g>
</g>
<!-- Node30&#45;&gt;Node36 -->
<g id="edge6" class="edge"><title>Node30&#45;&gt;Node36</title>
<path fill="none" stroke="midnightblue" d="M146.176,-77.6785C159.893,-76.0019 174.186,-74.255 187.71,-72.6021"/>
<polygon fill="midnightblue" stroke="midnightblue" points="188.378,-76.0466 197.88,-71.3592 187.529,-69.0983 188.378,-76.0466"/>
</g>
<!-- Node37 -->
<g id="node8" class="node"><title>Node37</title>
<g id="a_node8"><a xlink:href="namespaceEigen.html#aca848a572692372a17c2e418ad49cec1" target="_top" xlink:title="Eigen::umfpack_free\l_symbolic">
<polygon fill="none" stroke="black" points="198,-0.5 198,-30.5 312,-30.5 312,-0.5 198,-0.5"/>
<text text-anchor="start" x="206" y="-18.5" font-family="Helvetica,sans-Serif" font-size="10.00">Eigen::umfpack_free</text>
<text text-anchor="middle" x="255" y="-7.5" font-family="Helvetica,sans-Serif" font-size="10.00">_symbolic</text>
</a>
</g>
</g>
<!-- Node30&#45;&gt;Node37 -->
<g id="edge7" class="edge"><title>Node30&#45;&gt;Node37</title>
<path fill="none" stroke="midnightblue" d="M106.774,-71.3345C128.024,-61.7267 156.415,-49.3092 182,-39.5 186.998,-37.5838 192.223,-35.6713 197.477,-33.8097"/>
<polygon fill="midnightblue" stroke="midnightblue" points="198.628,-37.1152 206.923,-30.5239 196.328,-30.5038 198.628,-37.1152"/>
</g>
<!-- Node32 -->
<g id="node3" class="node"><title>Node32</title>
<g id="a_node3"><a xlink:href="namespaceEigen.html#a093d6099185afc4102643f91c3ecb56b" target="_top" xlink:title="Eigen::umfpack_symbolic">
<polygon fill="none" stroke="black" points="365.5,-187 365.5,-206 502.5,-206 502.5,-187 365.5,-187"/>
<text text-anchor="middle" x="434" y="-194" font-family="Helvetica,sans-Serif" font-size="10.00">Eigen::umfpack_symbolic</text>
</a>
</g>
</g>
<!-- Node31&#45;&gt;Node32 -->
<g id="edge2" class="edge"><title>Node31&#45;&gt;Node32</title>
<path fill="none" stroke="midnightblue" d="M316.418,-167.519C338.81,-173.086 363.878,-179.317 385.014,-184.571"/>
<polygon fill="midnightblue" stroke="midnightblue" points="384.185,-187.972 394.734,-186.988 385.874,-181.178 384.185,-187.972"/>
</g>
<!-- Node33 -->
<g id="node4" class="node"><title>Node33</title>
<g id="a_node4"><a xlink:href="classEigen_1_1PlainObjectBase.html#ac25699535374b1854cf8494e44ad31b2" target="_top" xlink:title="Eigen::PlainObjectBase\l::data">
<polygon fill="none" stroke="black" points="371,-137.5 371,-167.5 497,-167.5 497,-137.5 371,-137.5"/>
<text text-anchor="start" x="379" y="-155.5" font-family="Helvetica,sans-Serif" font-size="10.00">Eigen::PlainObjectBase</text>
<text text-anchor="middle" x="434" y="-144.5" font-family="Helvetica,sans-Serif" font-size="10.00">::data</text>
</a>
</g>
</g>
<!-- Node31&#45;&gt;Node33 -->
<g id="edge3" class="edge"><title>Node31&#45;&gt;Node33</title>
<path fill="none" stroke="midnightblue" d="M328.248,-152.5C338.969,-152.5 350.02,-152.5 360.741,-152.5"/>
<polygon fill="midnightblue" stroke="midnightblue" points="360.898,-156 370.898,-152.5 360.898,-149 360.898,-156"/>
</g>
<!-- Node35 -->
<g id="node6" class="node"><title>Node35</title>
<g id="a_node6"><a xlink:href="structEigen_1_1EigenBase.html#a324b16961a11d2ecfd2d1b7dd7946545" target="_top" xlink:title="Eigen::EigenBase::derived">
<polygon fill="none" stroke="black" points="364,-99 364,-118 504,-118 504,-99 364,-99"/>
<text text-anchor="middle" x="434" y="-106" font-family="Helvetica,sans-Serif" font-size="10.00">Eigen::EigenBase::derived</text>
</a>
</g>
</g>
<!-- Node34&#45;&gt;Node35 -->
<g id="edge5" class="edge"><title>Node34&#45;&gt;Node35</title>
<path fill="none" stroke="midnightblue" d="M320.652,-108.5C331.389,-108.5 342.631,-108.5 353.681,-108.5"/>
<polygon fill="midnightblue" stroke="midnightblue" points="353.754,-112 363.754,-108.5 353.754,-105 353.754,-112"/>
</g>
</g>
</svg>
