<?xml version="1.0" encoding="UTF-8" standalone="no"?>
<!DOCTYPE svg PUBLIC "-//W3C//DTD SVG 1.1//EN"
 "http://www.w3.org/Graphics/SVG/1.1/DTD/svg11.dtd">
<!-- Generated by graphviz version 2.38.0 (20140413.2041)
 -->
<!-- Title: Eigen::RealSchur::compute Pages: 1 -->
<svg width="326pt" height="149pt"
 viewBox="0.00 0.00 326.00 148.50" xmlns="http://www.w3.org/2000/svg" xmlns:xlink="http://www.w3.org/1999/xlink">
<g id="graph0" class="graph" transform="scale(1 1) rotate(0) translate(4 144.5)">
<title>Eigen::RealSchur::compute</title>
<!-- Node5 -->
<g id="node1" class="node"><title>Node5</title>
<polygon fill="#bfbfbf" stroke="black" points="0,-55 0,-74 145,-74 145,-55 0,-55"/>
<text text-anchor="middle" x="72.5" y="-62" font-family="Helvetica,sans-Serif" font-size="10.00">Eigen::RealSchur::compute</text>
</g>
<!-- Node6 -->
<g id="node2" class="node"><title>Node6</title>
<g id="a_node2"><a xlink:href="classEigen_1_1EigenSolver.html#a99e6120839b1f65c4e1f1ba61efa264e" target="_top" xlink:title="Eigen::EigenSolver\l\&lt; CompanionMatrixType\l \&gt;::compute">
<polygon fill="none" stroke="black" points="183,-99 183,-140 316,-140 316,-99 183,-99"/>
<text text-anchor="start" x="191" y="-128" font-family="Helvetica,sans-Serif" font-size="10.00">Eigen::EigenSolver</text>
<text text-anchor="start" x="191" y="-117" font-family="Helvetica,sans-Serif" font-size="10.00">&lt; CompanionMatrixType</text>
<text text-anchor="middle" x="249.5" y="-106" font-family="Helvetica,sans-Serif" font-size="10.00"> &gt;::compute</text>
</a>
</g>
</g>
<!-- Node5&#45;&gt;Node6 -->
<g id="edge1" class="edge"><title>Node5&#45;&gt;Node6</title>
<path fill="none" stroke="midnightblue" d="M113.662,-77.1222C134.262,-83.5967 159.871,-91.6452 183.22,-98.9834"/>
<polygon fill="midnightblue" stroke="midnightblue" points="114.572,-73.7396 103.983,-74.0803 112.473,-80.4176 114.572,-73.7396"/>
</g>
<!-- Node7 -->
<g id="node3" class="node"><title>Node7</title>
<g id="a_node3"><a xlink:href="classEigen_1_1RealSchur.html#abb78996b43b8642a5f507415730445cb" target="_top" xlink:title="Returns the quasi&#45;triangular matrix in the Schur decomposition. ">
<polygon fill="none" stroke="black" points="181,-49.5 181,-79.5 318,-79.5 318,-49.5 181,-49.5"/>
<text text-anchor="start" x="189" y="-67.5" font-family="Helvetica,sans-Serif" font-size="10.00">Eigen::RealSchur&lt; Matrix</text>
<text text-anchor="middle" x="249.5" y="-56.5" font-family="Helvetica,sans-Serif" font-size="10.00">Type &gt;::matrixT</text>
</a>
</g>
</g>
<!-- Node5&#45;&gt;Node7 -->
<g id="edge2" class="edge"><title>Node5&#45;&gt;Node7</title>
<path fill="none" stroke="midnightblue" d="M155.214,-64.5C163.804,-64.5 172.468,-64.5 180.875,-64.5"/>
<polygon fill="midnightblue" stroke="midnightblue" points="155.184,-61.0001 145.184,-64.5 155.184,-68.0001 155.184,-61.0001"/>
</g>
<!-- Node8 -->
<g id="node4" class="node"><title>Node8</title>
<g id="a_node4"><a xlink:href="classEigen_1_1RealSchur.html#afef4d3dc5a493aca2760c20b34337016" target="_top" xlink:title="Constructor; computes real Schur decomposition of given matrix. ">
<polygon fill="none" stroke="black" points="181,-0.5 181,-30.5 318,-30.5 318,-0.5 181,-0.5"/>
<text text-anchor="start" x="189" y="-18.5" font-family="Helvetica,sans-Serif" font-size="10.00">Eigen::RealSchur&lt; Matrix</text>
<text text-anchor="middle" x="249.5" y="-7.5" font-family="Helvetica,sans-Serif" font-size="10.00">Type &gt;::RealSchur</text>
</a>
</g>
</g>
<!-- Node5&#45;&gt;Node8 -->
<g id="edge3" class="edge"><title>Node5&#45;&gt;Node8</title>
<path fill="none" stroke="midnightblue" d="M117.348,-52.2224C140.835,-45.6463 169.962,-37.4908 194.797,-30.537"/>
<polygon fill="midnightblue" stroke="midnightblue" points="116.343,-48.8692 107.657,-54.936 118.231,-55.61 116.343,-48.8692"/>
</g>
</g>
</svg>
