<?xml version="1.0" encoding="UTF-8" standalone="no"?>
<!DOCTYPE svg PUBLIC "-//W3C//DTD SVG 1.1//EN"
 "http://www.w3.org/Graphics/SVG/1.1/DTD/svg11.dtd">
<!-- Generated by graphviz version 2.38.0 (20140413.2041)
 -->
<!-- Title: GpuHelper::pushMatrix Pages: 1 -->
<svg width="506pt" height="154pt"
 viewBox="0.00 0.00 506.00 153.50" xmlns="http://www.w3.org/2000/svg" xmlns:xlink="http://www.w3.org/1999/xlink">
<g id="graph0" class="graph" transform="scale(1 1) rotate(0) translate(4 149.5)">
<title>GpuHelper::pushMatrix</title>
<!-- Node53 -->
<g id="node1" class="node"><title>Node53</title>
<polygon fill="#bfbfbf" stroke="black" points="0,-69 0,-88 126,-88 126,-69 0,-69"/>
<text text-anchor="middle" x="63" y="-76" font-family="Helvetica,sans-Serif" font-size="10.00">GpuHelper::pushMatrix</text>
</g>
<!-- Node54 -->
<g id="node2" class="node"><title>Node54</title>
<g id="a_node2"><a xlink:href="classFancySpheres.html#a1621bf349aa1a2df706b8c08356aeb35" target="_top" xlink:title="FancySpheres::draw">
<polygon fill="none" stroke="black" points="178.5,-126 178.5,-145 290.5,-145 290.5,-126 178.5,-126"/>
<text text-anchor="middle" x="234.5" y="-133" font-family="Helvetica,sans-Serif" font-size="10.00">FancySpheres::draw</text>
</a>
</g>
</g>
<!-- Node53&#45;&gt;Node54 -->
<g id="edge1" class="edge"><title>Node53&#45;&gt;Node54</title>
<path fill="none" stroke="midnightblue" d="M96.0829,-91.9701C115.066,-99.6804 139.689,-109.234 162,-116.5 172.381,-119.881 183.751,-123.111 194.308,-125.918"/>
<polygon fill="midnightblue" stroke="midnightblue" points="97.2924,-88.6833 86.7121,-88.128 94.6368,-95.16 97.2924,-88.6833"/>
</g>
<!-- Node56 -->
<g id="node4" class="node"><title>Node56</title>
<g id="a_node4"><a xlink:href="classGpuHelper.html#a0d2c77ee60d1954d609af0ca1075fb06" target="_top" xlink:title="GpuHelper::drawVector">
<polygon fill="none" stroke="black" points="171,-88 171,-107 298,-107 298,-88 171,-88"/>
<text text-anchor="middle" x="234.5" y="-95" font-family="Helvetica,sans-Serif" font-size="10.00">GpuHelper::drawVector</text>
</a>
</g>
</g>
<!-- Node53&#45;&gt;Node56 -->
<g id="edge3" class="edge"><title>Node53&#45;&gt;Node56</title>
<path fill="none" stroke="midnightblue" d="M136.168,-86.5897C147.683,-87.8804 159.515,-89.2066 170.787,-90.4702"/>
<polygon fill="midnightblue" stroke="midnightblue" points="136.481,-83.1029 126.153,-85.467 135.701,-90.0593 136.481,-83.1029"/>
</g>
<!-- Node57 -->
<g id="node5" class="node"><title>Node57</title>
<g id="a_node5"><a xlink:href="classGpuHelper.html#a31bf94099a0d4d70bdc86a881f5661ed" target="_top" xlink:title="GpuHelper::drawVectorBox">
<polygon fill="none" stroke="black" points="162,-50 162,-69 307,-69 307,-50 162,-50"/>
<text text-anchor="middle" x="234.5" y="-57" font-family="Helvetica,sans-Serif" font-size="10.00">GpuHelper::drawVectorBox</text>
</a>
</g>
</g>
<!-- Node53&#45;&gt;Node57 -->
<g id="edge5" class="edge"><title>Node53&#45;&gt;Node57</title>
<path fill="none" stroke="midnightblue" d="M136.361,-70.3887C144.817,-69.4409 153.441,-68.4741 161.887,-67.5274"/>
<polygon fill="midnightblue" stroke="midnightblue" points="135.701,-66.9407 126.153,-71.533 136.481,-73.8972 135.701,-66.9407"/>
</g>
<!-- Node58 -->
<g id="node6" class="node"><title>Node58</title>
<g id="a_node6"><a xlink:href="classGpuHelper.html#a101d705149a820494268ae84b6a5be3a" target="_top" xlink:title="GpuHelper::pushProjection\lMode2D">
<polygon fill="none" stroke="black" points="162.5,-0.5 162.5,-30.5 306.5,-30.5 306.5,-0.5 162.5,-0.5"/>
<text text-anchor="start" x="170.5" y="-18.5" font-family="Helvetica,sans-Serif" font-size="10.00">GpuHelper::pushProjection</text>
<text text-anchor="middle" x="234.5" y="-7.5" font-family="Helvetica,sans-Serif" font-size="10.00">Mode2D</text>
</a>
</g>
</g>
<!-- Node53&#45;&gt;Node58 -->
<g id="edge6" class="edge"><title>Node53&#45;&gt;Node58</title>
<path fill="none" stroke="midnightblue" d="M97.4443,-65.2119C116.337,-57.7861 140.421,-48.4538 162,-40.5 170.884,-37.2256 180.426,-33.8154 189.554,-30.605"/>
<polygon fill="midnightblue" stroke="midnightblue" points="96.0983,-61.9803 88.0788,-68.904 98.6656,-68.4926 96.0983,-61.9803"/>
</g>
<!-- Node55 -->
<g id="node3" class="node"><title>Node55</title>
<g id="a_node3"><a xlink:href="classRenderingWidget.html#a8de01daec1a221f02b4751c153040d11" target="_top" xlink:title="RenderingWidget::drawScene">
<polygon fill="none" stroke="black" points="343,-107 343,-126 498,-126 498,-107 343,-107"/>
<text text-anchor="middle" x="420.5" y="-114" font-family="Helvetica,sans-Serif" font-size="10.00">RenderingWidget::drawScene</text>
</a>
</g>
</g>
<!-- Node54&#45;&gt;Node55 -->
<g id="edge2" class="edge"><title>Node54&#45;&gt;Node55</title>
<path fill="none" stroke="midnightblue" d="M300.914,-128.745C314.507,-127.342 328.948,-125.851 342.902,-124.41"/>
<polygon fill="midnightblue" stroke="midnightblue" points="300.294,-125.291 290.706,-129.799 301.013,-132.254 300.294,-125.291"/>
</g>
<!-- Node56&#45;&gt;Node55 -->
<g id="edge4" class="edge"><title>Node56&#45;&gt;Node55</title>
<path fill="none" stroke="midnightblue" d="M308.316,-105.019C319.64,-106.188 331.37,-107.4 342.778,-108.578"/>
<polygon fill="midnightblue" stroke="midnightblue" points="308.357,-101.505 298.051,-103.959 307.638,-108.468 308.357,-101.505"/>
</g>
</g>
</svg>
