<?xml version="1.0" encoding="UTF-8" standalone="no"?>
<!DOCTYPE svg PUBLIC "-//W3C//DTD SVG 1.1//EN"
 "http://www.w3.org/Graphics/SVG/1.1/DTD/svg11.dtd">
<!-- Generated by graphviz version 2.38.0 (20140413.2041)
 -->
<!-- Title: Eigen::JacobiRotation::adjoint Pages: 1 -->
<!--zoomable 269 -->
<svg id="main" version="1.1" xmlns="http://www.w3.org/2000/svg" xmlns:xlink="http://www.w3.org/1999/xlink" xml:space="preserve" onload="init(evt)">
<style type="text/css"><![CDATA[
.edge:hover path { stroke: red; }
.edge:hover polygon { stroke: red; fill: red; }
]]></style>
<script type="text/javascript"><![CDATA[
var edges = document.getElementsByTagName('g');
if (edges && edges.length) {
  for (var i=0;i<edges.length;i++) {
    if (edges[i].id.substr(0,4)=='edge') {
      edges[i].setAttribute('class','edge');
    }
  }
}
]]></script>
        <defs>
                <circle id="rim" cx="0" cy="0" r="7"/>
                <circle id="rim2" cx="0" cy="0" r="3.5"/>
                <g id="zoomPlus">
                        <use xlink:href="#rim" fill="#404040">
                                <set attributeName="fill" to="#808080" begin="zoomplus.mouseover" end="zoomplus.mouseout"/>
                        </use>
                        <path d="M-4,0h8M0,-4v8" fill="none" stroke="white" stroke-width="1.5" pointer-events="none"/>
                </g>
                <g id="zoomMin">
                        <use xlink:href="#rim" fill="#404040">
                                <set attributeName="fill" to="#808080" begin="zoomminus.mouseover" end="zoomminus.mouseout"/>
                        </use>
                        <path d="M-4,0h8" fill="none" stroke="white" stroke-width="1.5" pointer-events="none"/>
                </g>
                <g id="dirArrow">
                        <path fill="none" stroke="white" stroke-width="1.5" d="M0,-3.0v7 M-2.5,-0.5L0,-3.0L2.5,-0.5"/>
                </g>
               <g id="resetDef">
                       <use xlink:href="#rim2" fill="#404040">
                               <set attributeName="fill" to="#808080" begin="reset.mouseover" end="reset.mouseout"/>
                       </use>
               </g>
        </defs>

<script type="text/javascript">
var viewWidth = 548;
var viewHeight = 269;
var sectionId = 'dynsection-3';
</script>
<script xlink:href="svgpan.js"/>
<svg id="graph" class="graph">
<g id="viewport">
<title>Eigen::JacobiRotation::adjoint</title>
<!-- Node24 -->
<g id="node1" class="node"><title>Node24</title>
<polygon fill="#bfbfbf" stroke="black" points="0,-132 0,-162 116,-162 116,-132 0,-132"/>
<text text-anchor="start" x="8" y="-150" font-family="Helvetica,sans-Serif" font-size="10.00">Eigen::JacobiRotation</text>
<text text-anchor="middle" x="58" y="-139" font-family="Helvetica,sans-Serif" font-size="10.00">::adjoint</text>
</g>
<!-- Node25 -->
<g id="node2" class="node"><title>Node25</title>
<g id="a_node2"><a xlink:href="classEigen_1_1MatrixPower.html#aa1258393dc13acd6e401e000f99b915f" target="_top" xlink:title="Compute the matrix power. ">
<polygon fill="none" stroke="black" points="188,-230 188,-260 295,-260 295,-230 188,-230"/>
<text text-anchor="start" x="196" y="-248" font-family="Helvetica,sans-Serif" font-size="10.00">Eigen::MatrixPower</text>
<text text-anchor="middle" x="241.5" y="-237" font-family="Helvetica,sans-Serif" font-size="10.00">::compute</text>
</a>
</g>
</g>
<!-- Node24&#45;&gt;Node25 -->
<g id="edge1" class="edge"><title>Node24&#45;&gt;Node25</title>
<path fill="none" stroke="midnightblue" d="M81.6209,-169.411C99.3941,-185.861 125.498,-207.589 152,-221 163.079,-226.607 175.623,-231.025 187.71,-234.458"/>
<polygon fill="midnightblue" stroke="midnightblue" points="83.741,-166.599 74.0695,-162.273 78.9324,-171.686 83.741,-166.599"/>
</g>
<!-- Node26 -->
<g id="node3" class="node"><title>Node26</title>
<g id="a_node3"><a xlink:href="classEigen_1_1RealSchur.html#a26f621f7dc83eed739b739ad5d73f0bd" target="_top" xlink:title="Eigen::RealSchur\&lt; Matrix\lType \&gt;::computeFromHessenberg">
<polygon fill="none" stroke="black" points="152,-181 152,-211 331,-211 331,-181 152,-181"/>
<text text-anchor="start" x="160" y="-199" font-family="Helvetica,sans-Serif" font-size="10.00">Eigen::RealSchur&lt; Matrix</text>
<text text-anchor="middle" x="241.5" y="-188" font-family="Helvetica,sans-Serif" font-size="10.00">Type &gt;::computeFromHessenberg</text>
</a>
</g>
</g>
<!-- Node24&#45;&gt;Node26 -->
<g id="edge2" class="edge"><title>Node24&#45;&gt;Node26</title>
<path fill="none" stroke="midnightblue" d="M124.742,-164.748C144.413,-170.059 165.784,-175.829 184.748,-180.948"/>
<polygon fill="midnightblue" stroke="midnightblue" points="125.504,-161.329 114.937,-162.101 123.679,-168.087 125.504,-161.329"/>
</g>
<!-- Node27 -->
<g id="node4" class="node"><title>Node27</title>
<g id="a_node4"><a xlink:href="namespaceEigen_1_1internal.html#a59cacdc2f9b480da246258bc9399aa2c" target="_top" xlink:title="Permute Schur decomposition in U and T according to permutation. ">
<polygon fill="none" stroke="black" points="172.5,-132 172.5,-162 310.5,-162 310.5,-132 172.5,-132"/>
<text text-anchor="start" x="180.5" y="-150" font-family="Helvetica,sans-Serif" font-size="10.00">Eigen::internal::matrix</text>
<text text-anchor="middle" x="241.5" y="-139" font-family="Helvetica,sans-Serif" font-size="10.00">_function_permute_schur</text>
</a>
</g>
</g>
<!-- Node24&#45;&gt;Node27 -->
<g id="edge3" class="edge"><title>Node24&#45;&gt;Node27</title>
<path fill="none" stroke="midnightblue" d="M126.604,-147C141.542,-147 157.376,-147 172.335,-147"/>
<polygon fill="midnightblue" stroke="midnightblue" points="126.428,-143.5 116.428,-147 126.428,-150.5 126.428,-143.5"/>
</g>
<!-- Node29 -->
<g id="node6" class="node"><title>Node29</title>
<g id="a_node6"><a xlink:href="structEigen_1_1internal_1_1svd__precondition__2x2__block__to__be__real_3_01MatrixType_00_01QRPreconditioner_00_01true_01_4.html#a76a3369c7786e295de41c7061b9da031" target="_top" xlink:title="Eigen::internal::svd\l_precondition_2x2_block\l_to_be_real\&lt; MatrixType,\l QRPreconditioner, true \&gt;::run">
<polygon fill="none" stroke="black" points="161,-61 161,-113 322,-113 322,-61 161,-61"/>
<text text-anchor="start" x="169" y="-101" font-family="Helvetica,sans-Serif" font-size="10.00">Eigen::internal::svd</text>
<text text-anchor="start" x="169" y="-90" font-family="Helvetica,sans-Serif" font-size="10.00">_precondition_2x2_block</text>
<text text-anchor="start" x="169" y="-79" font-family="Helvetica,sans-Serif" font-size="10.00">_to_be_real&lt; MatrixType,</text>
<text text-anchor="middle" x="241.5" y="-68" font-family="Helvetica,sans-Serif" font-size="10.00"> QRPreconditioner, true &gt;::run</text>
</a>
</g>
</g>
<!-- Node24&#45;&gt;Node29 -->
<g id="edge5" class="edge"><title>Node24&#45;&gt;Node29</title>
<path fill="none" stroke="midnightblue" d="M114.343,-128.705C129.227,-123.784 145.618,-118.366 161.518,-113.11"/>
<polygon fill="midnightblue" stroke="midnightblue" points="113.196,-125.398 104.8,-131.859 115.393,-132.044 113.196,-125.398"/>
</g>
<!-- Node30 -->
<g id="node7" class="node"><title>Node30</title>
<g id="a_node7"><a xlink:href="structEigen_1_1internal_1_1complex__schur__reduce__to__hessenberg_3_01MatrixType_00_01false_01_4.html#ac5afd1090b4ab0488035a861fc5c71a1" target="_top" xlink:title="Eigen::internal::complex\l_schur_reduce_to_hessenberg\l\&lt; MatrixType, false \&gt;::run">
<polygon fill="none" stroke="black" points="160,-0.5 160,-41.5 323,-41.5 323,-0.5 160,-0.5"/>
<text text-anchor="start" x="168" y="-29.5" font-family="Helvetica,sans-Serif" font-size="10.00">Eigen::internal::complex</text>
<text text-anchor="start" x="168" y="-18.5" font-family="Helvetica,sans-Serif" font-size="10.00">_schur_reduce_to_hessenberg</text>
<text text-anchor="middle" x="241.5" y="-7.5" font-family="Helvetica,sans-Serif" font-size="10.00">&lt; MatrixType, false &gt;::run</text>
</a>
</g>
</g>
<!-- Node24&#45;&gt;Node30 -->
<g id="edge6" class="edge"><title>Node24&#45;&gt;Node30</title>
<path fill="none" stroke="midnightblue" d="M76.4932,-123.788C93.638,-102.476 121.568,-71.3549 152,-52 158.044,-48.1558 164.625,-44.7172 171.38,-41.6585"/>
<polygon fill="midnightblue" stroke="midnightblue" points="73.6942,-121.685 70.2551,-131.707 79.1928,-126.017 73.6942,-121.685"/>
</g>
<!-- Node28 -->
<g id="node5" class="node"><title>Node28</title>
<g id="a_node5"><a xlink:href="structEigen_1_1internal_1_1matrix__function__compute_3_01MatrixType_00_011_01_4.html#ad6c56b11de78e66a39194b001045298a" target="_top" xlink:title="Eigen::internal::matrix\l_function_compute\&lt; MatrixType,\l 1 \&gt;::run">
<polygon fill="none" stroke="black" points="367,-126.5 367,-167.5 540,-167.5 540,-126.5 367,-126.5"/>
<text text-anchor="start" x="375" y="-155.5" font-family="Helvetica,sans-Serif" font-size="10.00">Eigen::internal::matrix</text>
<text text-anchor="start" x="375" y="-144.5" font-family="Helvetica,sans-Serif" font-size="10.00">_function_compute&lt; MatrixType,</text>
<text text-anchor="middle" x="453.5" y="-133.5" font-family="Helvetica,sans-Serif" font-size="10.00"> 1 &gt;::run</text>
</a>
</g>
</g>
<!-- Node27&#45;&gt;Node28 -->
<g id="edge4" class="edge"><title>Node27&#45;&gt;Node28</title>
<path fill="none" stroke="midnightblue" d="M320.874,-147C335.797,-147 351.489,-147 366.632,-147"/>
<polygon fill="midnightblue" stroke="midnightblue" points="320.681,-143.5 310.681,-147 320.681,-150.5 320.681,-143.5"/>
</g>
</g>
</svg>
        <g id="navigator" transform="translate(0 0)" fill="#404254">
                <rect fill="#f2f5e9" fill-opacity="0.5" stroke="#606060" stroke-width=".5" x="0" y="0" width="60" height="60"/>
                <use id="zoomplus" xlink:href="#zoomPlus" x="17" y="9" onmousedown="handleZoom(evt,'in')"/>
                <use id="zoomminus" xlink:href="#zoomMin" x="42" y="9" onmousedown="handleZoom(evt,'out')"/>
                <use id="reset" xlink:href="#resetDef" x="30" y="36" onmousedown="handleReset()"/>
                <g id="arrowUp" xlink:href="#dirArrow" transform="translate(30 24)" onmousedown="handlePan(0,-1)">
                  <use xlink:href="#rim" fill="#404040">
                        <set attributeName="fill" to="#808080" begin="arrowUp.mouseover" end="arrowUp.mouseout"/>
                  </use>
                  <path fill="none" stroke="white" stroke-width="1.5" d="M0,-3.0v7 M-2.5,-0.5L0,-3.0L2.5,-0.5"/>
                </g>
                <g id="arrowRight" xlink:href="#dirArrow" transform="rotate(90) translate(36 -43)" onmousedown="handlePan(1,0)">
                  <use xlink:href="#rim" fill="#404040">
                        <set attributeName="fill" to="#808080" begin="arrowRight.mouseover" end="arrowRight.mouseout"/>
                  </use>
                  <path fill="none" stroke="white" stroke-width="1.5" d="M0,-3.0v7 M-2.5,-0.5L0,-3.0L2.5,-0.5"/>
                </g>
                <g id="arrowDown" xlink:href="#dirArrow" transform="rotate(180) translate(-30 -48)" onmousedown="handlePan(0,1)">
                  <use xlink:href="#rim" fill="#404040">
                        <set attributeName="fill" to="#808080" begin="arrowDown.mouseover" end="arrowDown.mouseout"/>
                  </use>
                  <path fill="none" stroke="white" stroke-width="1.5" d="M0,-3.0v7 M-2.5,-0.5L0,-3.0L2.5,-0.5"/>
                </g>
                <g id="arrowLeft" xlink:href="#dirArrow" transform="rotate(270) translate(-36 17)" onmousedown="handlePan(-1,0)">
                  <use xlink:href="#rim" fill="#404040">
                        <set attributeName="fill" to="#808080" begin="arrowLeft.mouseover" end="arrowLeft.mouseout"/>
                  </use>
                  <path fill="none" stroke="white" stroke-width="1.5" d="M0,-3.0v7 M-2.5,-0.5L0,-3.0L2.5,-0.5"/>
                </g>
        </g>
        <svg viewBox="0 0 15 15" width="100%" height="30px" preserveAspectRatio="xMaxYMin meet">
         <g id="arrow_out" transform="scale(0.3 0.3)">
          <a xlink:href="classEigen_1_1JacobiRotation_a89c8ea615f8fa77ddd5810a1e5fde4da_icgraph_org.svg" target="_base">
           <rect id="button" ry="5" rx="5" y="6" x="6" height="38" width="38"
                fill="#f2f5e9" fill-opacity="0.5" stroke="#606060" stroke-width="1.0"/>
           <path id="arrow"
             d="M 11.500037,31.436501 C 11.940474,20.09759 22.043105,11.32322 32.158766,21.979434 L 37.068811,17.246167 C 37.068811,17.246167 37.088388,32 37.088388,32 L 22.160133,31.978069 C 22.160133,31.978069 26.997745,27.140456 26.997745,27.140456 C 18.528582,18.264221 13.291696,25.230495 11.500037,31.436501 z"
             style="fill:#404040;"/>
          </a>
         </g>
        </svg>
</svg>
