<?xml version="1.0" encoding="UTF-8" standalone="no"?>
<!DOCTYPE svg PUBLIC "-//W3C//DTD SVG 1.1//EN"
 "http://www.w3.org/Graphics/SVG/1.1/DTD/svg11.dtd">
<!-- Generated by graphviz version 2.38.0 (20140413.2041)
 -->
<!-- Title: Eigen::SkylineMatrix::operator= Pages: 1 -->
<svg width="558pt" height="291pt"
 viewBox="0.00 0.00 558.00 291.00" xmlns="http://www.w3.org/2000/svg" xmlns:xlink="http://www.w3.org/1999/xlink">
<g id="graph0" class="graph" transform="scale(1 1) rotate(0) translate(4 287)">
<title>Eigen::SkylineMatrix::operator=</title>
<!-- Node143 -->
<g id="node1" class="node"><title>Node143</title>
<polygon fill="#bfbfbf" stroke="black" points="0,-132.5 0,-162.5 112,-162.5 112,-132.5 0,-132.5"/>
<text text-anchor="start" x="8" y="-150.5" font-family="Helvetica,sans-Serif" font-size="10.00">Eigen::SkylineMatrix</text>
<text text-anchor="middle" x="56" y="-139.5" font-family="Helvetica,sans-Serif" font-size="10.00">::operator=</text>
</g>
<!-- Node144 -->
<g id="node2" class="node"><title>Node144</title>
<g id="a_node2"><a xlink:href="classEigen_1_1SkylineMatrix.html#a4309fe0edce42fcab84301b0b94d21bb" target="_top" xlink:title="Eigen::SkylineMatrix\l::cols">
<polygon fill="none" stroke="black" points="160,-252.5 160,-282.5 272,-282.5 272,-252.5 160,-252.5"/>
<text text-anchor="start" x="168" y="-270.5" font-family="Helvetica,sans-Serif" font-size="10.00">Eigen::SkylineMatrix</text>
<text text-anchor="middle" x="216" y="-259.5" font-family="Helvetica,sans-Serif" font-size="10.00">::cols</text>
</a>
</g>
</g>
<!-- Node143&#45;&gt;Node144 -->
<g id="edge1" class="edge"><title>Node143&#45;&gt;Node144</title>
<path fill="none" stroke="midnightblue" d="M67.6611,-162.585C83.1428,-183.478 113.764,-221.165 148,-243.5 150.425,-245.082 152.968,-246.576 155.587,-247.984"/>
<polygon fill="midnightblue" stroke="midnightblue" points="154.199,-251.201 164.72,-252.446 157.271,-244.912 154.199,-251.201"/>
</g>
<!-- Node145 -->
<g id="node3" class="node"><title>Node145</title>
<g id="a_node3"><a xlink:href="classEigen_1_1SkylineMatrixBase.html#a435a0804e6832db6b5df601a51707ace" target="_top" xlink:title="Eigen::SkylineMatrixBase\l::const_cast_derived">
<polygon fill="none" stroke="black" points="148,-203.5 148,-233.5 284,-233.5 284,-203.5 148,-203.5"/>
<text text-anchor="start" x="156" y="-221.5" font-family="Helvetica,sans-Serif" font-size="10.00">Eigen::SkylineMatrixBase</text>
<text text-anchor="middle" x="216" y="-210.5" font-family="Helvetica,sans-Serif" font-size="10.00">::const_cast_derived</text>
</a>
</g>
</g>
<!-- Node143&#45;&gt;Node145 -->
<g id="edge2" class="edge"><title>Node143&#45;&gt;Node145</title>
<path fill="none" stroke="midnightblue" d="M84.0187,-162.656C101.886,-172.377 125.988,-184.924 148,-194.5 152.127,-196.295 156.435,-198.066 160.79,-199.782"/>
<polygon fill="midnightblue" stroke="midnightblue" points="159.756,-203.133 170.347,-203.44 162.259,-196.596 159.756,-203.133"/>
</g>
<!-- Node146 -->
<g id="node4" class="node"><title>Node146</title>
<g id="a_node4"><a xlink:href="classEigen_1_1SkylineMatrixBase.html#ae6d374973777f0a193e36e77a3279f7c" target="_top" xlink:title="Eigen::SkylineMatrixBase\l::isRValue">
<polygon fill="none" stroke="black" points="148,-154.5 148,-184.5 284,-184.5 284,-154.5 148,-154.5"/>
<text text-anchor="start" x="156" y="-172.5" font-family="Helvetica,sans-Serif" font-size="10.00">Eigen::SkylineMatrixBase</text>
<text text-anchor="middle" x="216" y="-161.5" font-family="Helvetica,sans-Serif" font-size="10.00">::isRValue</text>
</a>
</g>
</g>
<!-- Node143&#45;&gt;Node146 -->
<g id="edge3" class="edge"><title>Node143&#45;&gt;Node146</title>
<path fill="none" stroke="midnightblue" d="M112.261,-155.195C120.512,-156.343 129.144,-157.545 137.748,-158.743"/>
<polygon fill="midnightblue" stroke="midnightblue" points="137.424,-162.232 147.811,-160.145 138.389,-155.299 137.424,-162.232"/>
</g>
<!-- Node147 -->
<g id="node5" class="node"><title>Node147</title>
<g id="a_node5"><a xlink:href="Matrix__resize__int_8cpp.html#a768dd1b4259f262bcd4cab5e61afcea1" target="_top" xlink:title="resize">
<polygon fill="none" stroke="black" points="193.5,-116 193.5,-135 238.5,-135 238.5,-116 193.5,-116"/>
<text text-anchor="middle" x="216" y="-123" font-family="Helvetica,sans-Serif" font-size="10.00">resize</text>
</a>
</g>
</g>
<!-- Node143&#45;&gt;Node147 -->
<g id="edge4" class="edge"><title>Node143&#45;&gt;Node147</title>
<path fill="none" stroke="midnightblue" d="M112.261,-139.805C136.056,-136.492 163.018,-132.738 183.35,-129.907"/>
<polygon fill="midnightblue" stroke="midnightblue" points="183.904,-133.364 193.326,-128.518 182.939,-126.431 183.904,-133.364"/>
</g>
<!-- Node148 -->
<g id="node6" class="node"><title>Node148</title>
<g id="a_node6"><a xlink:href="classEigen_1_1SkylineMatrix.html#aef3e3427735c8603eb4b7c33ac13646c" target="_top" xlink:title="Eigen::SkylineMatrix\l::rows">
<polygon fill="none" stroke="black" points="160,-66.5 160,-96.5 272,-96.5 272,-66.5 160,-66.5"/>
<text text-anchor="start" x="168" y="-84.5" font-family="Helvetica,sans-Serif" font-size="10.00">Eigen::SkylineMatrix</text>
<text text-anchor="middle" x="216" y="-73.5" font-family="Helvetica,sans-Serif" font-size="10.00">::rows</text>
</a>
</g>
</g>
<!-- Node143&#45;&gt;Node148 -->
<g id="edge5" class="edge"><title>Node143&#45;&gt;Node148</title>
<path fill="none" stroke="midnightblue" d="M89.2037,-132.364C106.511,-124.389 128.289,-114.608 148,-106.5 153.095,-104.404 158.437,-102.284 163.787,-100.211"/>
<polygon fill="midnightblue" stroke="midnightblue" points="165.284,-103.385 173.374,-96.5444 162.784,-96.847 165.284,-103.385"/>
</g>
<!-- Node149 -->
<g id="node7" class="node"><title>Node149</title>
<g id="a_node7"><a xlink:href="namespaceEigen_1_1internal.html#aefb14fc87518cc6b91063a820a66a21b" target="_top" xlink:title="Eigen::internal::swap">
<polygon fill="none" stroke="black" points="158.5,-28 158.5,-47 273.5,-47 273.5,-28 158.5,-28"/>
<text text-anchor="middle" x="216" y="-35" font-family="Helvetica,sans-Serif" font-size="10.00">Eigen::internal::swap</text>
</a>
</g>
</g>
<!-- Node143&#45;&gt;Node149 -->
<g id="edge6" class="edge"><title>Node143&#45;&gt;Node149</title>
<path fill="none" stroke="midnightblue" d="M68.2495,-132.467C83.9612,-112.5 114.357,-77.438 148,-57.5 152.391,-54.8978 157.147,-52.6109 162.03,-50.6058"/>
<polygon fill="midnightblue" stroke="midnightblue" points="163.354,-53.8477 171.513,-47.0887 160.92,-47.2846 163.354,-53.8477"/>
</g>
<!-- Node150 -->
<g id="node8" class="node"><title>Node150</title>
<g id="a_node8"><a xlink:href="namespacestd.html#ad33a269e67f055aaa18f57f76b015387" target="_top" xlink:title="std::swap">
<polygon fill="none" stroke="black" points="351.5,-50 351.5,-69 413.5,-69 413.5,-50 351.5,-50"/>
<text text-anchor="middle" x="382.5" y="-57" font-family="Helvetica,sans-Serif" font-size="10.00">std::swap</text>
</a>
</g>
</g>
<!-- Node149&#45;&gt;Node150 -->
<g id="edge7" class="edge"><title>Node149&#45;&gt;Node150</title>
<path fill="none" stroke="midnightblue" d="M273.612,-45.0712C295.771,-48.0348 320.69,-51.3673 340.992,-54.0825"/>
<polygon fill="midnightblue" stroke="midnightblue" points="340.773,-57.5843 351.148,-55.4408 341.701,-50.646 340.773,-57.5843"/>
</g>
<!-- Node152 -->
<g id="node10" class="node"><title>Node152</title>
<g id="a_node10"><a xlink:href="classEigen_1_1internal_1_1scoped__array.html#a53e524d42e288b9117a59f5aded705dd" target="_top" xlink:title="Eigen::internal::scoped\l_array::ptr">
<polygon fill="none" stroke="black" points="320,-0.5 320,-30.5 445,-30.5 445,-0.5 320,-0.5"/>
<text text-anchor="start" x="328" y="-18.5" font-family="Helvetica,sans-Serif" font-size="10.00">Eigen::internal::scoped</text>
<text text-anchor="middle" x="382.5" y="-7.5" font-family="Helvetica,sans-Serif" font-size="10.00">_array::ptr</text>
</a>
</g>
</g>
<!-- Node149&#45;&gt;Node152 -->
<g id="edge9" class="edge"><title>Node149&#45;&gt;Node152</title>
<path fill="none" stroke="midnightblue" d="M273.612,-29.9288C285.229,-28.3752 297.604,-26.7201 309.675,-25.1058"/>
<polygon fill="midnightblue" stroke="midnightblue" points="310.272,-28.5572 319.72,-23.7624 309.344,-21.619 310.272,-28.5572"/>
</g>
<!-- Node151 -->
<g id="node9" class="node"><title>Node151</title>
<g id="a_node9"><a xlink:href="namespacempfr.html#aa617cb4d22ad8120d69f10b306b97f19" target="_top" xlink:title="mpfr::swap">
<polygon fill="none" stroke="black" points="481,-50 481,-69 550,-69 550,-50 481,-50"/>
<text text-anchor="middle" x="515.5" y="-57" font-family="Helvetica,sans-Serif" font-size="10.00">mpfr::swap</text>
</a>
</g>
</g>
<!-- Node150&#45;&gt;Node151 -->
<g id="edge8" class="edge"><title>Node150&#45;&gt;Node151</title>
<path fill="none" stroke="midnightblue" d="M413.554,-59.5C430.508,-59.5 451.995,-59.5 470.784,-59.5"/>
<polygon fill="midnightblue" stroke="midnightblue" points="470.899,-63.0001 480.898,-59.5 470.898,-56.0001 470.899,-63.0001"/>
</g>
</g>
</svg>
