<?xml version="1.0" encoding="UTF-8" standalone="no"?>
<!DOCTYPE svg PUBLIC "-//W3C//DTD SVG 1.1//EN"
 "http://www.w3.org/Graphics/SVG/1.1/DTD/svg11.dtd">
<!-- Generated by graphviz version 2.38.0 (20140413.2041)
 -->
<!-- Title: mpfr::mpreal::setZero Pages: 1 -->
<svg width="450pt" height="78pt"
 viewBox="0.00 0.00 450.00 77.50" xmlns="http://www.w3.org/2000/svg" xmlns:xlink="http://www.w3.org/1999/xlink">
<g id="graph0" class="graph" transform="scale(1 1) rotate(0) translate(4 73.5)">
<title>mpfr::mpreal::setZero</title>
<!-- Node3365 -->
<g id="node1" class="node"><title>Node3365</title>
<polygon fill="#bfbfbf" stroke="black" points="0,-31 0,-50 123,-50 123,-31 0,-31"/>
<text text-anchor="middle" x="61.5" y="-38" font-family="Helvetica,sans-Serif" font-size="10.00">mpfr::mpreal::setZero</text>
</g>
<!-- Node3366 -->
<g id="node2" class="node"><title>Node3366</title>
<g id="a_node2"><a xlink:href="classmpfr_1_1mpreal.html#af4e3b56888463376c675cac70b6ceca3" target="_top" xlink:title="mpfr::mpreal::mpfr_ptr">
<polygon fill="none" stroke="black" points="316,-50 316,-69 442,-69 442,-50 316,-50"/>
<text text-anchor="middle" x="379" y="-57" font-family="Helvetica,sans-Serif" font-size="10.00">mpfr::mpreal::mpfr_ptr</text>
</a>
</g>
</g>
<!-- Node3365&#45;&gt;Node3366 -->
<g id="edge1" class="edge"><title>Node3365&#45;&gt;Node3366</title>
<path fill="none" stroke="midnightblue" d="M123.332,-44.1634C175.42,-47.3003 250.527,-51.8233 305.682,-55.1449"/>
<polygon fill="midnightblue" stroke="midnightblue" points="305.546,-58.6429 315.738,-55.7505 305.967,-51.6556 305.546,-58.6429"/>
</g>
<!-- Node3367 -->
<g id="node3" class="node"><title>Node3367</title>
<g id="a_node3"><a xlink:href="classmpfr_1_1mpreal.html#a4797fe1018fce0dc04fb47f754776984" target="_top" xlink:title="mpfr::mpreal::setSign">
<polygon fill="none" stroke="black" points="159,-12 159,-31 280,-31 280,-12 159,-12"/>
<text text-anchor="middle" x="219.5" y="-19" font-family="Helvetica,sans-Serif" font-size="10.00">mpfr::mpreal::setSign</text>
</a>
</g>
</g>
<!-- Node3365&#45;&gt;Node3367 -->
<g id="edge2" class="edge"><title>Node3365&#45;&gt;Node3367</title>
<path fill="none" stroke="midnightblue" d="M123.26,-33.0997C131.684,-32.0737 140.391,-31.0133 148.96,-29.9696"/>
<polygon fill="midnightblue" stroke="midnightblue" points="149.427,-33.4387 158.93,-28.7553 148.58,-26.4901 149.427,-33.4387"/>
</g>
<!-- Node3367&#45;&gt;Node3366 -->
<g id="edge3" class="edge"><title>Node3367&#45;&gt;Node3366</title>
<path fill="none" stroke="midnightblue" d="M260.244,-31.089C281.028,-36.1035 306.661,-42.2881 328.699,-47.6053"/>
<polygon fill="midnightblue" stroke="midnightblue" points="328,-51.0368 338.542,-49.9799 329.642,-44.2321 328,-51.0368"/>
</g>
<!-- Node3368 -->
<g id="node4" class="node"><title>Node3368</title>
<g id="a_node4"><a xlink:href="classmpfr_1_1mpreal.html#a566f64ca066c54923d19c11d6c3d15cd" target="_top" xlink:title="mpfr::mpreal::mpfr\l_srcptr">
<polygon fill="none" stroke="black" points="325.5,-0.5 325.5,-30.5 432.5,-30.5 432.5,-0.5 325.5,-0.5"/>
<text text-anchor="start" x="333.5" y="-18.5" font-family="Helvetica,sans-Serif" font-size="10.00">mpfr::mpreal::mpfr</text>
<text text-anchor="middle" x="379" y="-7.5" font-family="Helvetica,sans-Serif" font-size="10.00">_srcptr</text>
</a>
</g>
</g>
<!-- Node3367&#45;&gt;Node3368 -->
<g id="edge4" class="edge"><title>Node3367&#45;&gt;Node3368</title>
<path fill="none" stroke="midnightblue" d="M280.044,-19.2317C291.565,-18.7928 303.671,-18.3316 315.289,-17.889"/>
<polygon fill="midnightblue" stroke="midnightblue" points="315.488,-21.384 325.348,-17.5058 315.222,-14.3891 315.488,-21.384"/>
</g>
</g>
</svg>
