<?xml version="1.0" encoding="UTF-8" standalone="no"?>
<!DOCTYPE svg PUBLIC "-//W3C//DTD SVG 1.1//EN"
 "http://www.w3.org/Graphics/SVG/1.1/DTD/svg11.dtd">
<!-- Generated by graphviz version 2.38.0 (20140413.2041)
 -->
<!-- Title: IcoSphere::draw Pages: 1 -->
<svg width="287pt" height="66pt"
 viewBox="0.00 0.00 287.00 66.00" xmlns="http://www.w3.org/2000/svg" xmlns:xlink="http://www.w3.org/1999/xlink">
<g id="graph0" class="graph" transform="scale(1 1) rotate(0) translate(4 62)">
<title>IcoSphere::draw</title>
<!-- Node8 -->
<g id="node1" class="node"><title>Node8</title>
<polygon fill="#bfbfbf" stroke="black" points="0,-19.5 0,-38.5 93,-38.5 93,-19.5 0,-19.5"/>
<text text-anchor="middle" x="46.5" y="-26.5" font-family="Helvetica,sans-Serif" font-size="10.00">IcoSphere::draw</text>
</g>
<!-- Node9 -->
<g id="node2" class="node"><title>Node9</title>
<g id="a_node2"><a xlink:href="classGpuHelper.html#a11c4e7fce24ba5ec6fb22d94f5a340ee" target="_top" xlink:title="GpuHelper::drawUnitSphere">
<polygon fill="none" stroke="black" points="129,-38.5 129,-57.5 279,-57.5 279,-38.5 129,-38.5"/>
<text text-anchor="middle" x="204" y="-45.5" font-family="Helvetica,sans-Serif" font-size="10.00">GpuHelper::drawUnitSphere</text>
</a>
</g>
</g>
<!-- Node8&#45;&gt;Node9 -->
<g id="edge1" class="edge"><title>Node8&#45;&gt;Node9</title>
<path fill="none" stroke="midnightblue" d="M103.265,-35.8137C111.595,-36.8315 120.292,-37.8942 128.929,-38.9495"/>
<polygon fill="midnightblue" stroke="midnightblue" points="103.665,-32.3366 93.3141,-34.5979 102.816,-39.285 103.665,-32.3366"/>
</g>
<!-- Node10 -->
<g id="node3" class="node"><title>Node10</title>
<g id="a_node3"><a xlink:href="classIcoSphere.html#a09b068c23589f154e038b9b680a205ff" target="_top" xlink:title="IcoSphere::vertices">
<polygon fill="none" stroke="black" points="150,-0.5 150,-19.5 258,-19.5 258,-0.5 150,-0.5"/>
<text text-anchor="middle" x="204" y="-7.5" font-family="Helvetica,sans-Serif" font-size="10.00">IcoSphere::vertices</text>
</a>
</g>
</g>
<!-- Node8&#45;&gt;Node10 -->
<g id="edge2" class="edge"><title>Node8&#45;&gt;Node10</title>
<path fill="none" stroke="midnightblue" d="M103.544,-22.1522C118.639,-20.3078 134.921,-18.3184 149.853,-16.4939"/>
<polygon fill="midnightblue" stroke="midnightblue" points="102.816,-18.715 93.3141,-23.4021 103.665,-25.6634 102.816,-18.715"/>
</g>
</g>
</svg>
