<?xml version="1.0" encoding="UTF-8" standalone="no"?>
<!DOCTYPE svg PUBLIC "-//W3C//DTD SVG 1.1//EN"
 "http://www.w3.org/Graphics/SVG/1.1/DTD/svg11.dtd">
<!-- Generated by graphviz version 2.38.0 (20140413.2041)
 -->
<!-- Title: Eigen::DenseBase::isConstant Pages: 1 -->
<svg width="551pt" height="39pt"
 viewBox="0.00 0.00 551.00 39.00" xmlns="http://www.w3.org/2000/svg" xmlns:xlink="http://www.w3.org/1999/xlink">
<g id="graph0" class="graph" transform="scale(1 1) rotate(0) translate(4 35)">
<title>Eigen::DenseBase::isConstant</title>
<!-- Node123 -->
<g id="node1" class="node"><title>Node123</title>
<polygon fill="#bfbfbf" stroke="black" points="0,-6 0,-25 161,-25 161,-6 0,-6"/>
<text text-anchor="middle" x="80.5" y="-13" font-family="Helvetica,sans-Serif" font-size="10.00">Eigen::DenseBase::isConstant</text>
</g>
<!-- Node124 -->
<g id="node2" class="node"><title>Node124</title>
<g id="a_node2"><a xlink:href="classEigen_1_1DenseBase.html#aafb86c9868d3d9076e01e4fc54c93e81" target="_top" xlink:title="Eigen::DenseBase::isApprox\lToConstant">
<polygon fill="none" stroke="black" points="197,-0.5 197,-30.5 348,-30.5 348,-0.5 197,-0.5"/>
<text text-anchor="start" x="205" y="-18.5" font-family="Helvetica,sans-Serif" font-size="10.00">Eigen::DenseBase::isApprox</text>
<text text-anchor="middle" x="272.5" y="-7.5" font-family="Helvetica,sans-Serif" font-size="10.00">ToConstant</text>
</a>
</g>
</g>
<!-- Node123&#45;&gt;Node124 -->
<g id="edge1" class="edge"><title>Node123&#45;&gt;Node124</title>
<path fill="none" stroke="midnightblue" d="M171.529,-15.5C179.992,-15.5 188.507,-15.5 196.805,-15.5"/>
<polygon fill="midnightblue" stroke="midnightblue" points="171.251,-12.0001 161.251,-15.5 171.251,-19.0001 171.251,-12.0001"/>
</g>
<!-- Node125 -->
<g id="node3" class="node"><title>Node125</title>
<g id="a_node3"><a xlink:href="classEigen_1_1DenseBase.html#a1dd502457286f60df1c3e90f9192c542" target="_top" xlink:title="Sets a linearly spaced vector. ">
<polygon fill="none" stroke="black" points="384,-6 384,-25 543,-25 543,-6 384,-6"/>
<text text-anchor="middle" x="463.5" y="-13" font-family="Helvetica,sans-Serif" font-size="10.00">Eigen::DenseBase::LinSpaced</text>
</a>
</g>
</g>
<!-- Node124&#45;&gt;Node125 -->
<g id="edge2" class="edge"><title>Node124&#45;&gt;Node125</title>
<path fill="none" stroke="midnightblue" d="M358.207,-15.5C366.791,-15.5 375.483,-15.5 383.997,-15.5"/>
<polygon fill="midnightblue" stroke="midnightblue" points="358.198,-12.0001 348.198,-15.5 358.198,-19.0001 358.198,-12.0001"/>
</g>
</g>
</svg>
