<?xml version="1.0" encoding="UTF-8" standalone="no"?>
<!DOCTYPE svg PUBLIC "-//W3C//DTD SVG 1.1//EN"
 "http://www.w3.org/Graphics/SVG/1.1/DTD/svg11.dtd">
<!-- Generated by graphviz version 2.38.0 (20140413.2041)
 -->
<!-- Title: mpfr::mpreal::operator++ Pages: 1 -->
<!--zoomable 657 -->
<svg id="main" version="1.1" xmlns="http://www.w3.org/2000/svg" xmlns:xlink="http://www.w3.org/1999/xlink" xml:space="preserve" onload="init(evt)">
<style type="text/css"><![CDATA[
.edge:hover path { stroke: red; }
.edge:hover polygon { stroke: red; fill: red; }
]]></style>
<script type="text/javascript"><![CDATA[
var edges = document.getElementsByTagName('g');
if (edges && edges.length) {
  for (var i=0;i<edges.length;i++) {
    if (edges[i].id.substr(0,4)=='edge') {
      edges[i].setAttribute('class','edge');
    }
  }
}
]]></script>
        <defs>
                <circle id="rim" cx="0" cy="0" r="7"/>
                <circle id="rim2" cx="0" cy="0" r="3.5"/>
                <g id="zoomPlus">
                        <use xlink:href="#rim" fill="#404040">
                                <set attributeName="fill" to="#808080" begin="zoomplus.mouseover" end="zoomplus.mouseout"/>
                        </use>
                        <path d="M-4,0h8M0,-4v8" fill="none" stroke="white" stroke-width="1.5" pointer-events="none"/>
                </g>
                <g id="zoomMin">
                        <use xlink:href="#rim" fill="#404040">
                                <set attributeName="fill" to="#808080" begin="zoomminus.mouseover" end="zoomminus.mouseout"/>
                        </use>
                        <path d="M-4,0h8" fill="none" stroke="white" stroke-width="1.5" pointer-events="none"/>
                </g>
                <g id="dirArrow">
                        <path fill="none" stroke="white" stroke-width="1.5" d="M0,-3.0v7 M-2.5,-0.5L0,-3.0L2.5,-0.5"/>
                </g>
               <g id="resetDef">
                       <use xlink:href="#rim2" fill="#404040">
                               <set attributeName="fill" to="#808080" begin="reset.mouseover" end="reset.mouseout"/>
                       </use>
               </g>
        </defs>

<script type="text/javascript">
var viewWidth = 1050;
var viewHeight = 657;
var sectionId = 'dynsection-54';
</script>
<script xlink:href="svgpan.js"/>
<svg id="graph" class="graph">
<g id="viewport">
<title>mpfr::mpreal::operator++</title>
<!-- Node1700 -->
<g id="node1" class="node"><title>Node1700</title>
<polygon fill="#bfbfbf" stroke="black" points="0,-266.5 0,-285.5 143,-285.5 143,-266.5 0,-266.5"/>
<text text-anchor="middle" x="71.5" y="-273.5" font-family="Helvetica,sans-Serif" font-size="10.00">mpfr::mpreal::operator++</text>
</g>
<!-- Node1701 -->
<g id="node2" class="node"><title>Node1701</title>
<g id="a_node2"><a xlink:href="classmpfr_1_1mpreal.html#aae18e3b781bffbf4fd9938d4d3043aa1" target="_top" xlink:title="mpfr::mpreal::get_default_prec">
<polygon fill="none" stroke="black" points="179,-266.5 179,-285.5 344,-285.5 344,-266.5 179,-266.5"/>
<text text-anchor="middle" x="261.5" y="-273.5" font-family="Helvetica,sans-Serif" font-size="10.00">mpfr::mpreal::get_default_prec</text>
</a>
</g>
</g>
<!-- Node1700&#45;&gt;Node1701 -->
<g id="edge1" class="edge"><title>Node1700&#45;&gt;Node1701</title>
<path fill="none" stroke="midnightblue" d="M153.269,-276C161.73,-276 170.338,-276 178.809,-276"/>
<polygon fill="midnightblue" stroke="midnightblue" points="153.039,-272.5 143.039,-276 153.039,-279.5 153.039,-272.5"/>
</g>
<!-- Node1702 -->
<g id="node3" class="node"><title>Node1702</title>
<g id="a_node3"><a xlink:href="classstd_1_1numeric__limits_3_01mpfr_1_1mpreal_01_4.html#a3934cff230bb0e9121edf616b6d0627d" target="_top" xlink:title="std::numeric_limits\l\&lt; mpfr::mpreal \&gt;::digits">
<polygon fill="none" stroke="black" points="380,-618 380,-648 513,-648 513,-618 380,-618"/>
<text text-anchor="start" x="388" y="-636" font-family="Helvetica,sans-Serif" font-size="10.00">std::numeric_limits</text>
<text text-anchor="middle" x="446.5" y="-625" font-family="Helvetica,sans-Serif" font-size="10.00">&lt; mpfr::mpreal &gt;::digits</text>
</a>
</g>
</g>
<!-- Node1701&#45;&gt;Node1702 -->
<g id="edge2" class="edge"><title>Node1701&#45;&gt;Node1702</title>
<path fill="none" stroke="midnightblue" d="M264.331,-295.904C270.441,-351.48 294.835,-510.313 380,-603 385.585,-609.079 392.644,-614.017 400.046,-617.999"/>
<polygon fill="midnightblue" stroke="midnightblue" points="267.785,-295.266 263.29,-285.672 260.821,-295.976 267.785,-295.266"/>
</g>
<!-- Node1703 -->
<g id="node4" class="node"><title>Node1703</title>
<g id="a_node4"><a xlink:href="classmpfr_1_1mpreal.html#a9c370c68865b32775c1c1cb5123cea90" target="_top" xlink:title="mpfr::mpreal::mpreal">
<polygon fill="none" stroke="black" points="387,-266.5 387,-285.5 506,-285.5 506,-266.5 387,-266.5"/>
<text text-anchor="middle" x="446.5" y="-273.5" font-family="Helvetica,sans-Serif" font-size="10.00">mpfr::mpreal::mpreal</text>
</a>
</g>
</g>
<!-- Node1701&#45;&gt;Node1703 -->
<g id="edge3" class="edge"><title>Node1701&#45;&gt;Node1703</title>
<path fill="none" stroke="midnightblue" d="M354.254,-269.25C365.331,-269.252 376.403,-269.386 386.82,-269.652"/>
<polygon fill="midnightblue" stroke="midnightblue" points="354.087,-265.75 344.099,-269.285 354.111,-272.75 354.087,-265.75"/>
</g>
<!-- Node1708 -->
<g id="node9" class="node"><title>Node1708</title>
<g id="a_node9"><a xlink:href="namespacempfr.html#ab6cfe9d750c1cdf9f8d65c93bc75fa57" target="_top" xlink:title="mpfr::operator/">
<polygon fill="none" stroke="black" points="929,-453.5 929,-472.5 1018,-472.5 1018,-453.5 929,-453.5"/>
<text text-anchor="middle" x="973.5" y="-460.5" font-family="Helvetica,sans-Serif" font-size="10.00">mpfr::operator/</text>
</a>
</g>
</g>
<!-- Node1701&#45;&gt;Node1708 -->
<g id="edge39" class="edge"><title>Node1701&#45;&gt;Node1708</title>
<path fill="none" stroke="midnightblue" d="M270.683,-295.091C287.028,-331.46 326.766,-411.623 380,-463 442.475,-523.296 465.154,-538.448 549,-561 686.408,-597.958 736.887,-603.85 869,-551 911.702,-533.918 949.403,-491.8 964.945,-472.699"/>
<polygon fill="midnightblue" stroke="midnightblue" points="273.769,-293.413 266.537,-285.671 267.362,-296.234 273.769,-293.413"/>
</g>
<!-- Node1703&#45;&gt;Node1701 -->
<g id="edge4" class="edge"><title>Node1703&#45;&gt;Node1701</title>
<path fill="none" stroke="midnightblue" d="M376.758,-282.561C366.102,-282.741 355.005,-282.793 344.099,-282.715"/>
<polygon fill="midnightblue" stroke="midnightblue" points="376.897,-286.059 386.82,-282.348 376.749,-279.06 376.897,-286.059"/>
</g>
<!-- Node1704 -->
<g id="node5" class="node"><title>Node1704</title>
<g id="a_node5"><a xlink:href="namespacempfr.html#ab72db36dfba03626c173e0beb84b49e8" target="_top" xlink:title="mpfr::machine_epsilon">
<polygon fill="none" stroke="black" points="558,-456.5 558,-475.5 683,-475.5 683,-456.5 558,-456.5"/>
<text text-anchor="middle" x="620.5" y="-463.5" font-family="Helvetica,sans-Serif" font-size="10.00">mpfr::machine_epsilon</text>
</a>
</g>
</g>
<!-- Node1703&#45;&gt;Node1704 -->
<g id="edge5" class="edge"><title>Node1703&#45;&gt;Node1704</title>
<path fill="none" stroke="midnightblue" d="M453.607,-295.642C465.756,-331.396 496.414,-407.091 549,-447 554.15,-450.908 560.046,-454.013 566.186,-456.48"/>
<polygon fill="midnightblue" stroke="midnightblue" points="456.861,-294.33 450.427,-285.912 450.207,-296.504 456.861,-294.33"/>
</g>
<!-- Node1709 -->
<g id="node10" class="node"><title>Node1709</title>
<g id="a_node10"><a xlink:href="namespacempfr.html#ac5d52f3ecbedf807efc1815b836d587e" target="_top" xlink:title="mpfr::maxval">
<polygon fill="none" stroke="black" points="758.5,-289.5 758.5,-308.5 838.5,-308.5 838.5,-289.5 758.5,-289.5"/>
<text text-anchor="middle" x="798.5" y="-296.5" font-family="Helvetica,sans-Serif" font-size="10.00">mpfr::maxval</text>
</a>
</g>
</g>
<!-- Node1703&#45;&gt;Node1709 -->
<g id="edge19" class="edge"><title>Node1703&#45;&gt;Node1709</title>
<path fill="none" stroke="midnightblue" d="M477.618,-261.449C489.919,-254.288 503.465,-244.667 513,-233 540.263,-199.642 513.326,-167.153 549,-143 601.628,-107.369 635.866,-113.197 692,-143 752.932,-175.35 785.091,-260.35 794.515,-289.233"/>
<polygon fill="midnightblue" stroke="midnightblue" points="475.618,-258.554 468.541,-266.439 478.99,-264.689 475.618,-258.554"/>
</g>
<!-- Node1716 -->
<g id="node17" class="node"><title>Node1716</title>
<g id="a_node17"><a xlink:href="namespacempfr.html#a55c33a2e33adf3ed6f1cdca5536d8f8f" target="_top" xlink:title="mpfr::minval">
<polygon fill="none" stroke="black" points="582,-494.5 582,-513.5 659,-513.5 659,-494.5 582,-494.5"/>
<text text-anchor="middle" x="620.5" y="-501.5" font-family="Helvetica,sans-Serif" font-size="10.00">mpfr::minval</text>
</a>
</g>
</g>
<!-- Node1703&#45;&gt;Node1716 -->
<g id="edge20" class="edge"><title>Node1703&#45;&gt;Node1716</title>
<path fill="none" stroke="midnightblue" d="M456.386,-294.819C480.38,-345.566 544.956,-481.656 549,-485 558.28,-492.675 570.381,-497.27 581.932,-500.014"/>
<polygon fill="midnightblue" stroke="midnightblue" points="459.474,-293.163 452.037,-285.617 453.145,-296.153 459.474,-293.163"/>
</g>
<!-- Node1718 -->
<g id="node19" class="node"><title>Node1718</title>
<g id="a_node19"><a xlink:href="classmpfr_1_1mpreal.html#a74b08628ebe3b25cb7e08d28bc87a42d" target="_top" xlink:title="mpfr::mpreal::mpreal">
<polygon fill="none" stroke="black" points="561,-418.5 561,-437.5 680,-437.5 680,-418.5 561,-418.5"/>
<text text-anchor="middle" x="620.5" y="-425.5" font-family="Helvetica,sans-Serif" font-size="10.00">mpfr::mpreal::mpreal</text>
</a>
</g>
</g>
<!-- Node1703&#45;&gt;Node1718 -->
<g id="edge23" class="edge"><title>Node1703&#45;&gt;Node1718</title>
<path fill="none" stroke="midnightblue" d="M456.692,-294.87C471.826,-323.915 504.773,-379.318 549,-409 554.789,-412.885 561.345,-415.978 568.07,-418.44"/>
<polygon fill="midnightblue" stroke="midnightblue" points="459.731,-293.124 452.093,-285.782 453.486,-296.285 459.731,-293.124"/>
</g>
<!-- Node1719 -->
<g id="node20" class="node"><title>Node1719</title>
<g id="a_node20"><a xlink:href="namespacempfr.html#a1fdf070115136efdf0eea414e54b4ef5" target="_top" xlink:title="mpfr::operator*">
<polygon fill="none" stroke="black" points="574.5,-380.5 574.5,-399.5 666.5,-399.5 666.5,-380.5 574.5,-380.5"/>
<text text-anchor="middle" x="620.5" y="-387.5" font-family="Helvetica,sans-Serif" font-size="10.00">mpfr::operator*</text>
</a>
</g>
</g>
<!-- Node1703&#45;&gt;Node1719 -->
<g id="edge24" class="edge"><title>Node1703&#45;&gt;Node1719</title>
<path fill="none" stroke="midnightblue" d="M461.589,-293.682C479.613,-315.125 512.854,-350.886 549,-371 556.754,-375.315 565.538,-378.69 574.21,-381.318"/>
<polygon fill="midnightblue" stroke="midnightblue" points="464.091,-291.215 455.037,-285.713 458.684,-295.66 464.091,-291.215"/>
</g>
<!-- Node1720 -->
<g id="node21" class="node"><title>Node1720</title>
<g id="a_node21"><a xlink:href="classmpfr_1_1mpreal.html#a5f9aebe5664c2a335468c8ed0d08fa6f" target="_top" xlink:title="mpfr::mpreal::operator*=">
<polygon fill="none" stroke="black" points="550.5,-532.5 550.5,-551.5 690.5,-551.5 690.5,-532.5 550.5,-532.5"/>
<text text-anchor="middle" x="620.5" y="-539.5" font-family="Helvetica,sans-Serif" font-size="10.00">mpfr::mpreal::operator*=</text>
</a>
</g>
</g>
<!-- Node1703&#45;&gt;Node1720 -->
<g id="edge25" class="edge"><title>Node1703&#45;&gt;Node1720</title>
<path fill="none" stroke="midnightblue" d="M457.273,-294.668C470.789,-320.889 495.498,-370.317 513,-414 531.975,-461.359 511.933,-487.944 549,-523 553.052,-526.832 557.794,-529.909 562.869,-532.376"/>
<polygon fill="midnightblue" stroke="midnightblue" points="460.239,-292.784 452.526,-285.52 454.026,-296.009 460.239,-292.784"/>
</g>
<!-- Node1721 -->
<g id="node22" class="node"><title>Node1721</title>
<g id="a_node22"><a xlink:href="classmpfr_1_1mpreal.html#a3f7f5d20cfe5d4d5cbcee9ad7b450ca3" target="_top" xlink:title="mpfr::mpreal::operator+">
<polygon fill="none" stroke="black" points="553.5,-76.5 553.5,-95.5 687.5,-95.5 687.5,-76.5 553.5,-76.5"/>
<text text-anchor="middle" x="620.5" y="-83.5" font-family="Helvetica,sans-Serif" font-size="10.00">mpfr::mpreal::operator+</text>
</a>
</g>
</g>
<!-- Node1703&#45;&gt;Node1721 -->
<g id="edge27" class="edge"><title>Node1703&#45;&gt;Node1721</title>
<path fill="none" stroke="midnightblue" d="M478.703,-261.569C490.952,-254.511 504.163,-244.936 513,-233 546.893,-187.221 509.606,-151.141 549,-110 555.081,-103.65 562.905,-98.9797 571.118,-95.5453"/>
<polygon fill="midnightblue" stroke="midnightblue" points="476.752,-258.645 469.613,-266.473 480.076,-264.806 476.752,-258.645"/>
</g>
<!-- Node1722 -->
<g id="node23" class="node"><title>Node1722</title>
<g id="a_node23"><a xlink:href="namespacempfr.html#a7db5edb2c8a8f13df654e3f22b0c1d2a" target="_top" xlink:title="mpfr::operator+">
<polygon fill="none" stroke="black" points="573,-342.5 573,-361.5 668,-361.5 668,-342.5 573,-342.5"/>
<text text-anchor="middle" x="620.5" y="-349.5" font-family="Helvetica,sans-Serif" font-size="10.00">mpfr::operator+</text>
</a>
</g>
</g>
<!-- Node1703&#45;&gt;Node1722 -->
<g id="edge29" class="edge"><title>Node1703&#45;&gt;Node1722</title>
<path fill="none" stroke="midnightblue" d="M470.502,-291.109C490.553,-303.736 520.766,-321.478 549,-333 557.92,-336.64 567.757,-339.794 577.181,-342.428"/>
<polygon fill="midnightblue" stroke="midnightblue" points="472.36,-288.143 462.049,-285.708 468.591,-294.042 472.36,-288.143"/>
</g>
<!-- Node1723 -->
<g id="node24" class="node"><title>Node1723</title>
<g id="a_node24"><a xlink:href="classmpfr_1_1mpreal.html#a11fd44a6fe5b15dd2e8d96c5f65f0b59" target="_top" xlink:title="mpfr::mpreal::operator+=">
<polygon fill="none" stroke="black" points="549,-304.5 549,-323.5 692,-323.5 692,-304.5 549,-304.5"/>
<text text-anchor="middle" x="620.5" y="-311.5" font-family="Helvetica,sans-Serif" font-size="10.00">mpfr::mpreal::operator+=</text>
</a>
</g>
</g>
<!-- Node1703&#45;&gt;Node1723 -->
<g id="edge30" class="edge"><title>Node1703&#45;&gt;Node1723</title>
<path fill="none" stroke="midnightblue" d="M500.696,-287.753C525.017,-293.126 553.455,-299.409 576.409,-304.48"/>
<polygon fill="midnightblue" stroke="midnightblue" points="501.422,-284.329 490.903,-285.589 499.912,-291.164 501.422,-284.329"/>
</g>
<!-- Node1724 -->
<g id="node25" class="node"><title>Node1724</title>
<g id="a_node25"><a xlink:href="namespacempfr.html#ad4ee72b1913629e82105f0c2d72a7b4a" target="_top" xlink:title="mpfr::operator&#45;">
<polygon fill="none" stroke="black" points="576,-266.5 576,-285.5 665,-285.5 665,-266.5 576,-266.5"/>
<text text-anchor="middle" x="620.5" y="-273.5" font-family="Helvetica,sans-Serif" font-size="10.00">mpfr::operator&#45;</text>
</a>
</g>
</g>
<!-- Node1703&#45;&gt;Node1724 -->
<g id="edge31" class="edge"><title>Node1703&#45;&gt;Node1724</title>
<path fill="none" stroke="midnightblue" d="M516.285,-276C536.427,-276 557.882,-276 575.983,-276"/>
<polygon fill="midnightblue" stroke="midnightblue" points="516.212,-272.5 506.212,-276 516.212,-279.5 516.212,-272.5"/>
</g>
<!-- Node1725 -->
<g id="node26" class="node"><title>Node1725</title>
<g id="a_node26"><a xlink:href="classmpfr_1_1mpreal.html#a8aafaacaea104a79fb62d8813226500f" target="_top" xlink:title="mpfr::mpreal::operator&#45;=">
<polygon fill="none" stroke="black" points="552,-38.5 552,-57.5 689,-57.5 689,-38.5 552,-38.5"/>
<text text-anchor="middle" x="620.5" y="-45.5" font-family="Helvetica,sans-Serif" font-size="10.00">mpfr::mpreal::operator&#45;=</text>
</a>
</g>
</g>
<!-- Node1703&#45;&gt;Node1725 -->
<g id="edge32" class="edge"><title>Node1703&#45;&gt;Node1725</title>
<path fill="none" stroke="midnightblue" d="M458.545,-257.613C472.187,-234.542 495.706,-193.56 513,-157 531.422,-118.056 516.804,-95.6258 549,-67 553.358,-63.1255 558.426,-60.0299 563.808,-57.5584"/>
<polygon fill="midnightblue" stroke="midnightblue" points="455.459,-255.956 453.35,-266.339 461.473,-259.537 455.459,-255.956"/>
</g>
<!-- Node1726 -->
<g id="node27" class="node"><title>Node1726</title>
<g id="a_node27"><a xlink:href="namespacempfr.html#a5486ca908b39cd91a9d60586866f40d6" target="_top" xlink:title="mpfr::operator/">
<polygon fill="none" stroke="black" points="576,-228.5 576,-247.5 665,-247.5 665,-228.5 576,-228.5"/>
<text text-anchor="middle" x="620.5" y="-235.5" font-family="Helvetica,sans-Serif" font-size="10.00">mpfr::operator/</text>
</a>
</g>
</g>
<!-- Node1703&#45;&gt;Node1726 -->
<g id="edge34" class="edge"><title>Node1703&#45;&gt;Node1726</title>
<path fill="none" stroke="midnightblue" d="M500.696,-264.247C525.017,-258.874 553.455,-252.591 576.409,-247.52"/>
<polygon fill="midnightblue" stroke="midnightblue" points="499.912,-260.836 490.903,-266.411 501.422,-267.671 499.912,-260.836"/>
</g>
<!-- Node1727 -->
<g id="node28" class="node"><title>Node1727</title>
<g id="a_node28"><a xlink:href="classmpfr_1_1mpreal.html#a9f6b4a0f16104e98d0f96b5666b08329" target="_top" xlink:title="mpfr::mpreal::operator/=">
<polygon fill="none" stroke="black" points="552,-0.5 552,-19.5 689,-19.5 689,-0.5 552,-0.5"/>
<text text-anchor="middle" x="620.5" y="-7.5" font-family="Helvetica,sans-Serif" font-size="10.00">mpfr::mpreal::operator/=</text>
</a>
</g>
</g>
<!-- Node1703&#45;&gt;Node1727 -->
<g id="edge35" class="edge"><title>Node1703&#45;&gt;Node1727</title>
<path fill="none" stroke="midnightblue" d="M449.689,-256.47C455.982,-209.812 478.45,-91.1365 549,-29 553.376,-25.146 558.455,-22.0635 563.845,-19.5998"/>
<polygon fill="midnightblue" stroke="midnightblue" points="446.206,-256.115 448.444,-266.47 453.153,-256.979 446.206,-256.115"/>
</g>
<!-- Node1728 -->
<g id="node29" class="node"><title>Node1728</title>
<g id="a_node29"><a xlink:href="namespacempfr.html#a47c705d079873d21b2ae64570c2dbe7c" target="_top" xlink:title="mpfr::pow">
<polygon fill="none" stroke="black" points="588.5,-190.5 588.5,-209.5 652.5,-209.5 652.5,-190.5 588.5,-190.5"/>
<text text-anchor="middle" x="620.5" y="-197.5" font-family="Helvetica,sans-Serif" font-size="10.00">mpfr::pow</text>
</a>
</g>
</g>
<!-- Node1703&#45;&gt;Node1728 -->
<g id="edge37" class="edge"><title>Node1703&#45;&gt;Node1728</title>
<path fill="none" stroke="midnightblue" d="M470.502,-260.891C490.553,-248.264 520.766,-230.522 549,-219 561.558,-213.875 575.935,-209.715 588.416,-206.609"/>
<polygon fill="midnightblue" stroke="midnightblue" points="468.591,-257.958 462.049,-266.292 472.36,-263.857 468.591,-257.958"/>
</g>
<!-- Node1729 -->
<g id="node30" class="node"><title>Node1729</title>
<g id="a_node30"><a xlink:href="namespacempfr.html#ac48d4b27943090ddad2744b82a4839b2" target="_top" xlink:title="mpfr::sqrt">
<polygon fill="none" stroke="black" points="588.5,-152.5 588.5,-171.5 652.5,-171.5 652.5,-152.5 588.5,-152.5"/>
<text text-anchor="middle" x="620.5" y="-159.5" font-family="Helvetica,sans-Serif" font-size="10.00">mpfr::sqrt</text>
</a>
</g>
</g>
<!-- Node1703&#45;&gt;Node1729 -->
<g id="edge38" class="edge"><title>Node1703&#45;&gt;Node1729</title>
<path fill="none" stroke="midnightblue" d="M474.749,-261.348C487.23,-253.86 501.718,-244.008 513,-233 533.119,-213.37 526.029,-197.201 549,-181 560.499,-172.89 575.28,-168.241 588.336,-165.576"/>
<polygon fill="midnightblue" stroke="midnightblue" points="472.988,-258.323 466.091,-266.365 476.498,-264.38 472.988,-258.323"/>
</g>
<!-- Node1705 -->
<g id="node6" class="node"><title>Node1705</title>
<g id="a_node6"><a xlink:href="classstd_1_1numeric__limits_3_01mpfr_1_1mpreal_01_4.html#ac2f7a8222ef4b03518ad0a3e247b0ff6" target="_top" xlink:title="std::numeric_limits\l\&lt; mpfr::mpreal \&gt;::epsilon">
<polygon fill="none" stroke="black" points="728,-366 728,-396 869,-396 869,-366 728,-366"/>
<text text-anchor="start" x="736" y="-384" font-family="Helvetica,sans-Serif" font-size="10.00">std::numeric_limits</text>
<text text-anchor="middle" x="798.5" y="-373" font-family="Helvetica,sans-Serif" font-size="10.00">&lt; mpfr::mpreal &gt;::epsilon</text>
</a>
</g>
</g>
<!-- Node1704&#45;&gt;Node1705 -->
<g id="edge6" class="edge"><title>Node1704&#45;&gt;Node1705</title>
<path fill="none" stroke="midnightblue" d="M679.724,-452.974C683.989,-451.22 688.13,-449.238 692,-447 711.588,-435.672 709.279,-423.71 728,-411 736.372,-405.316 745.996,-400.337 755.36,-396.153"/>
<polygon fill="midnightblue" stroke="midnightblue" points="678.424,-449.723 670.248,-456.46 680.841,-456.292 678.424,-449.723"/>
</g>
<!-- Node1706 -->
<g id="node7" class="node"><title>Node1706</title>
<g id="a_node7"><a xlink:href="namespacempfr.html#a2b277f6e7a98e7b5da7fad3a38a211ec" target="_top" xlink:title="mpfr::isEqualFuzzy">
<polygon fill="none" stroke="black" points="746,-327.5 746,-346.5 851,-346.5 851,-327.5 746,-327.5"/>
<text text-anchor="middle" x="798.5" y="-334.5" font-family="Helvetica,sans-Serif" font-size="10.00">mpfr::isEqualFuzzy</text>
</a>
</g>
</g>
<!-- Node1704&#45;&gt;Node1706 -->
<g id="edge7" class="edge"><title>Node1704&#45;&gt;Node1706</title>
<path fill="none" stroke="midnightblue" d="M686.372,-451.355C688.348,-450.026 690.233,-448.577 692,-447 724.449,-418.038 695.603,-385.02 728,-356 733.124,-351.41 739.255,-347.915 745.723,-345.256"/>
<polygon fill="midnightblue" stroke="midnightblue" points="684.241,-448.536 677.207,-456.458 687.647,-454.651 684.241,-448.536"/>
</g>
<!-- Node1707 -->
<g id="node8" class="node"><title>Node1707</title>
<g id="a_node8"><a xlink:href="namespacempfr.html#a63ac5362ad5af999b1bc94649e772dde" target="_top" xlink:title="mpfr::isEqualUlps">
<polygon fill="none" stroke="black" points="748.5,-453.5 748.5,-472.5 848.5,-472.5 848.5,-453.5 748.5,-453.5"/>
<text text-anchor="middle" x="798.5" y="-460.5" font-family="Helvetica,sans-Serif" font-size="10.00">mpfr::isEqualUlps</text>
</a>
</g>
</g>
<!-- Node1704&#45;&gt;Node1707 -->
<g id="edge8" class="edge"><title>Node1704&#45;&gt;Node1707</title>
<path fill="none" stroke="midnightblue" d="M693.24,-464.777C711.794,-464.461 731.348,-464.128 748.445,-463.836"/>
<polygon fill="midnightblue" stroke="midnightblue" points="692.995,-461.281 683.056,-464.951 693.114,-468.28 692.995,-461.281"/>
</g>
<!-- Node1704&#45;&gt;Node1708 -->
<g id="edge18" class="edge"><title>Node1704&#45;&gt;Node1708</title>
<path fill="none" stroke="midnightblue" d="M668.117,-454.226C686.627,-450.115 708.191,-446.025 728,-444 790.342,-437.628 806.591,-438.319 869,-444 889.377,-445.855 911.735,-449.723 930.44,-453.489"/>
<polygon fill="midnightblue" stroke="midnightblue" points="667.147,-450.857 658.178,-456.498 668.707,-457.681 667.147,-450.857"/>
</g>
<!-- Node1704&#45;&gt;Node1709 -->
<g id="edge10" class="edge"><title>Node1704&#45;&gt;Node1709</title>
<path fill="none" stroke="midnightblue" d="M687.372,-451.007C689,-449.772 690.548,-448.439 692,-447 734.277,-405.098 685.799,-359.978 728,-318 736.07,-309.972 747.185,-305.251 758.16,-302.5"/>
<polygon fill="midnightblue" stroke="midnightblue" points="685.323,-448.159 678.661,-456.397 689.006,-454.111 685.323,-448.159"/>
</g>
<!-- Node1707&#45;&gt;Node1708 -->
<g id="edge9" class="edge"><title>Node1707&#45;&gt;Node1708</title>
<path fill="none" stroke="midnightblue" d="M858.624,-463C881.659,-463 907.582,-463 928.869,-463"/>
<polygon fill="midnightblue" stroke="midnightblue" points="858.612,-459.5 848.612,-463 858.612,-466.5 858.612,-459.5"/>
</g>
<!-- Node1709&#45;&gt;Node1708 -->
<g id="edge17" class="edge"><title>Node1709&#45;&gt;Node1708</title>
<path fill="none" stroke="midnightblue" d="M848.488,-305.588C856.074,-308.419 863.278,-312.404 869,-318 909.114,-357.229 866.38,-398.3 905,-439 911.506,-445.857 920.099,-450.758 928.965,-454.26"/>
<polygon fill="midnightblue" stroke="midnightblue" points="849.343,-302.189 838.755,-302.586 847.279,-308.878 849.343,-302.189"/>
</g>
<!-- Node1710 -->
<g id="node11" class="node"><title>Node1710</title>
<g id="a_node11"><a xlink:href="classEigen_1_1EigenSolver.html#a99e6120839b1f65c4e1f1ba61efa264e" target="_top" xlink:title="Eigen::EigenSolver\l\&lt; CompanionMatrixType\l \&gt;::compute">
<polygon fill="none" stroke="black" points="907,-338.5 907,-379.5 1040,-379.5 1040,-338.5 907,-338.5"/>
<text text-anchor="start" x="915" y="-367.5" font-family="Helvetica,sans-Serif" font-size="10.00">Eigen::EigenSolver</text>
<text text-anchor="start" x="915" y="-356.5" font-family="Helvetica,sans-Serif" font-size="10.00">&lt; CompanionMatrixType</text>
<text text-anchor="middle" x="973.5" y="-345.5" font-family="Helvetica,sans-Serif" font-size="10.00"> &gt;::compute</text>
</a>
</g>
</g>
<!-- Node1709&#45;&gt;Node1710 -->
<g id="edge11" class="edge"><title>Node1709&#45;&gt;Node1710</title>
<path fill="none" stroke="midnightblue" d="M846.892,-311.203C854.332,-313.335 861.905,-315.633 869,-318 887.15,-324.056 906.741,-331.559 923.944,-338.485"/>
<polygon fill="midnightblue" stroke="midnightblue" points="847.813,-307.826 837.24,-308.504 845.928,-314.568 847.813,-307.826"/>
</g>
<!-- Node1711 -->
<g id="node12" class="node"><title>Node1711</title>
<g id="a_node12"><a xlink:href="classSystemBase.html#a4ffed53296033614e4701f01363e6b3f" target="_top" xlink:title="SystemBase\&lt; StateTwo\l \&gt;::getConnections">
<polygon fill="none" stroke="black" points="908,-289 908,-319 1039,-319 1039,-289 908,-289"/>
<text text-anchor="start" x="916" y="-307" font-family="Helvetica,sans-Serif" font-size="10.00">SystemBase&lt; StateTwo</text>
<text text-anchor="middle" x="973.5" y="-296" font-family="Helvetica,sans-Serif" font-size="10.00"> &gt;::getConnections</text>
</a>
</g>
</g>
<!-- Node1709&#45;&gt;Node1711 -->
<g id="edge12" class="edge"><title>Node1709&#45;&gt;Node1711</title>
<path fill="none" stroke="midnightblue" d="M848.936,-300.429C867.307,-300.96 888.429,-301.57 907.952,-302.134"/>
<polygon fill="midnightblue" stroke="midnightblue" points="848.853,-296.925 838.756,-300.135 848.651,-303.922 848.853,-296.925"/>
</g>
<!-- Node1712 -->
<g id="node13" class="node"><title>Node1712</title>
<g id="a_node13"><a xlink:href="classSystemBase.html#a36f4a02104e9f68e60732267bc6eafbc" target="_top" xlink:title="SystemBase\&lt; StateTwo\l \&gt;::getMainStates">
<polygon fill="none" stroke="black" points="908,-240 908,-270 1039,-270 1039,-240 908,-240"/>
<text text-anchor="start" x="916" y="-258" font-family="Helvetica,sans-Serif" font-size="10.00">SystemBase&lt; StateTwo</text>
<text text-anchor="middle" x="973.5" y="-247" font-family="Helvetica,sans-Serif" font-size="10.00"> &gt;::getMainStates</text>
</a>
</g>
</g>
<!-- Node1709&#45;&gt;Node1712 -->
<g id="edge13" class="edge"><title>Node1709&#45;&gt;Node1712</title>
<path fill="none" stroke="midnightblue" d="M846.785,-286.974C867.305,-281.755 891.561,-275.586 913.266,-270.065"/>
<polygon fill="midnightblue" stroke="midnightblue" points="845.867,-283.596 837.038,-289.453 847.593,-290.38 845.867,-283.596"/>
</g>
<!-- Node1713 -->
<g id="node14" class="node"><title>Node1713</title>
<g id="a_node14"><a xlink:href="classSystemBase.html#af68a98c6f66a1ef06fa78fbe9c209ba7" target="_top" xlink:title="SystemBase\&lt; StateTwo\l \&gt;::getVectorindex">
<polygon fill="none" stroke="black" points="908,-191 908,-221 1039,-221 1039,-191 908,-191"/>
<text text-anchor="start" x="916" y="-209" font-family="Helvetica,sans-Serif" font-size="10.00">SystemBase&lt; StateTwo</text>
<text text-anchor="middle" x="973.5" y="-198" font-family="Helvetica,sans-Serif" font-size="10.00"> &gt;::getVectorindex</text>
</a>
</g>
</g>
<!-- Node1709&#45;&gt;Node1713 -->
<g id="edge14" class="edge"><title>Node1709&#45;&gt;Node1713</title>
<path fill="none" stroke="midnightblue" d="M820.214,-283.316C840.87,-268.201 873.916,-245.416 905,-230 911.463,-226.795 918.462,-223.81 925.422,-221.11"/>
<polygon fill="midnightblue" stroke="midnightblue" points="817.855,-280.707 811.905,-289.473 822.023,-286.332 817.855,-280.707"/>
</g>
<!-- Node1714 -->
<g id="node15" class="node"><title>Node1714</title>
<g id="a_node15"><a xlink:href="classstd_1_1numeric__limits_3_01mpfr_1_1mpreal_01_4.html#afe87477420320b20ef726e383e06a950" target="_top" xlink:title="std::numeric_limits\l\&lt; mpfr::mpreal \&gt;::lowest">
<polygon fill="none" stroke="black" points="905,-142 905,-172 1042,-172 1042,-142 905,-142"/>
<text text-anchor="start" x="913" y="-160" font-family="Helvetica,sans-Serif" font-size="10.00">std::numeric_limits</text>
<text text-anchor="middle" x="973.5" y="-149" font-family="Helvetica,sans-Serif" font-size="10.00">&lt; mpfr::mpreal &gt;::lowest</text>
</a>
</g>
</g>
<!-- Node1709&#45;&gt;Node1714 -->
<g id="edge15" class="edge"><title>Node1709&#45;&gt;Node1714</title>
<path fill="none" stroke="midnightblue" d="M811.305,-280.846C828.85,-255.198 864.162,-208.428 905,-181 910.059,-177.602 915.655,-174.626 921.396,-172.034"/>
<polygon fill="midnightblue" stroke="midnightblue" points="808.323,-279.008 805.667,-289.265 814.139,-282.903 808.323,-279.008"/>
</g>
<!-- Node1715 -->
<g id="node16" class="node"><title>Node1715</title>
<g id="a_node16"><a xlink:href="classstd_1_1numeric__limits_3_01mpfr_1_1mpreal_01_4.html#af3b5798dea70eba7566b8558177c5cb7" target="_top" xlink:title="std::numeric_limits\l\&lt; mpfr::mpreal \&gt;::max">
<polygon fill="none" stroke="black" points="909.5,-399 909.5,-429 1037.5,-429 1037.5,-399 909.5,-399"/>
<text text-anchor="start" x="917.5" y="-417" font-family="Helvetica,sans-Serif" font-size="10.00">std::numeric_limits</text>
<text text-anchor="middle" x="973.5" y="-406" font-family="Helvetica,sans-Serif" font-size="10.00">&lt; mpfr::mpreal &gt;::max</text>
</a>
</g>
</g>
<!-- Node1709&#45;&gt;Node1715 -->
<g id="edge16" class="edge"><title>Node1709&#45;&gt;Node1715</title>
<path fill="none" stroke="midnightblue" d="M848.183,-306.676C855.681,-309.388 862.934,-313.052 869,-318 896.417,-340.362 878.591,-365.456 905,-389 909.291,-392.825 914.219,-396.083 919.417,-398.854"/>
<polygon fill="midnightblue" stroke="midnightblue" points="849.214,-303.331 838.627,-303.724 847.148,-310.02 849.214,-303.331"/>
</g>
<!-- Node1716&#45;&gt;Node1708 -->
<g id="edge22" class="edge"><title>Node1716&#45;&gt;Node1708</title>
<path fill="none" stroke="midnightblue" d="M666.944,-516.229C694.412,-523.573 724.749,-531.58 728,-532 790.15,-540.033 809.022,-550.16 869,-532 907.858,-520.235 945.462,-488.538 962.697,-472.529"/>
<polygon fill="midnightblue" stroke="midnightblue" points="667.575,-512.774 657.01,-513.568 665.764,-519.536 667.575,-512.774"/>
</g>
<!-- Node1717 -->
<g id="node18" class="node"><title>Node1717</title>
<g id="a_node18"><a xlink:href="classstd_1_1numeric__limits_3_01mpfr_1_1mpreal_01_4.html#ae26e5f5575ce3fcdc7571353d5943447" target="_top" xlink:title="std::numeric_limits\l\&lt; mpfr::mpreal \&gt;::min">
<polygon fill="none" stroke="black" points="736,-492 736,-522 861,-522 861,-492 736,-492"/>
<text text-anchor="start" x="744" y="-510" font-family="Helvetica,sans-Serif" font-size="10.00">std::numeric_limits</text>
<text text-anchor="middle" x="798.5" y="-499" font-family="Helvetica,sans-Serif" font-size="10.00">&lt; mpfr::mpreal &gt;::min</text>
</a>
</g>
</g>
<!-- Node1716&#45;&gt;Node1717 -->
<g id="edge21" class="edge"><title>Node1716&#45;&gt;Node1717</title>
<path fill="none" stroke="midnightblue" d="M669.312,-504.815C689.838,-505.165 714.078,-505.578 735.923,-505.95"/>
<polygon fill="midnightblue" stroke="midnightblue" points="669.315,-501.315 659.256,-504.644 669.195,-508.314 669.315,-501.315"/>
</g>
<!-- Node1720&#45;&gt;Node1701 -->
<g id="edge26" class="edge"><title>Node1720&#45;&gt;Node1701</title>
<path fill="none" stroke="midnightblue" d="M562.676,-529.122C557.944,-527.323 553.323,-525.291 549,-523 421.633,-455.493 302.054,-322.162 270.544,-285.515"/>
<polygon fill="midnightblue" stroke="midnightblue" points="561.89,-532.553 572.485,-532.496 564.167,-525.934 561.89,-532.553"/>
</g>
<!-- Node1721&#45;&gt;Node1701 -->
<g id="edge28" class="edge"><title>Node1721&#45;&gt;Node1701</title>
<path fill="none" stroke="midnightblue" d="M577.916,-99.3062C567.955,-103.496 557.695,-108.711 549,-115 529.08,-129.409 532.53,-142.066 513,-157 441.861,-211.398 341.859,-249.568 292.489,-266.375"/>
<polygon fill="midnightblue" stroke="midnightblue" points="579.294,-102.525 587.314,-95.6017 576.727,-96.0129 579.294,-102.525"/>
</g>
<!-- Node1725&#45;&gt;Node1701 -->
<g id="edge33" class="edge"><title>Node1725&#45;&gt;Node1701</title>
<path fill="none" stroke="midnightblue" d="M568.377,-60.3052C561.782,-62.3208 555.178,-64.5588 549,-67 469.856,-98.2717 448.229,-106.143 380,-157 333.443,-191.703 287.915,-244.814 270.224,-266.39"/>
<polygon fill="midnightblue" stroke="midnightblue" points="569.358,-63.6651 577.983,-57.5134 567.404,-56.9432 569.358,-63.6651"/>
</g>
<!-- Node1727&#45;&gt;Node1701 -->
<g id="edge36" class="edge"><title>Node1727&#45;&gt;Node1701</title>
<path fill="none" stroke="midnightblue" d="M542.056,-17.0272C491.56,-24.975 426.624,-41.9111 380,-78 312.04,-130.604 275.354,-234.506 265.347,-266.439"/>
<polygon fill="midnightblue" stroke="midnightblue" points="542.577,-20.4883 551.952,-15.5545 541.546,-13.5645 542.577,-20.4883"/>
</g>
</g>
</svg>
        <g id="navigator" transform="translate(0 0)" fill="#404254">
                <rect fill="#f2f5e9" fill-opacity="0.5" stroke="#606060" stroke-width=".5" x="0" y="0" width="60" height="60"/>
                <use id="zoomplus" xlink:href="#zoomPlus" x="17" y="9" onmousedown="handleZoom(evt,'in')"/>
                <use id="zoomminus" xlink:href="#zoomMin" x="42" y="9" onmousedown="handleZoom(evt,'out')"/>
                <use id="reset" xlink:href="#resetDef" x="30" y="36" onmousedown="handleReset()"/>
                <g id="arrowUp" xlink:href="#dirArrow" transform="translate(30 24)" onmousedown="handlePan(0,-1)">
                  <use xlink:href="#rim" fill="#404040">
                        <set attributeName="fill" to="#808080" begin="arrowUp.mouseover" end="arrowUp.mouseout"/>
                  </use>
                  <path fill="none" stroke="white" stroke-width="1.5" d="M0,-3.0v7 M-2.5,-0.5L0,-3.0L2.5,-0.5"/>
                </g>
                <g id="arrowRight" xlink:href="#dirArrow" transform="rotate(90) translate(36 -43)" onmousedown="handlePan(1,0)">
                  <use xlink:href="#rim" fill="#404040">
                        <set attributeName="fill" to="#808080" begin="arrowRight.mouseover" end="arrowRight.mouseout"/>
                  </use>
                  <path fill="none" stroke="white" stroke-width="1.5" d="M0,-3.0v7 M-2.5,-0.5L0,-3.0L2.5,-0.5"/>
                </g>
                <g id="arrowDown" xlink:href="#dirArrow" transform="rotate(180) translate(-30 -48)" onmousedown="handlePan(0,1)">
                  <use xlink:href="#rim" fill="#404040">
                        <set attributeName="fill" to="#808080" begin="arrowDown.mouseover" end="arrowDown.mouseout"/>
                  </use>
                  <path fill="none" stroke="white" stroke-width="1.5" d="M0,-3.0v7 M-2.5,-0.5L0,-3.0L2.5,-0.5"/>
                </g>
                <g id="arrowLeft" xlink:href="#dirArrow" transform="rotate(270) translate(-36 17)" onmousedown="handlePan(-1,0)">
                  <use xlink:href="#rim" fill="#404040">
                        <set attributeName="fill" to="#808080" begin="arrowLeft.mouseover" end="arrowLeft.mouseout"/>
                  </use>
                  <path fill="none" stroke="white" stroke-width="1.5" d="M0,-3.0v7 M-2.5,-0.5L0,-3.0L2.5,-0.5"/>
                </g>
        </g>
        <svg viewBox="0 0 15 15" width="100%" height="30px" preserveAspectRatio="xMaxYMin meet">
         <g id="arrow_out" transform="scale(0.3 0.3)">
          <a xlink:href="classmpfr_1_1mpreal_a61a1b623268aceed3a8726043ca36141_icgraph_org.svg" target="_base">
           <rect id="button" ry="5" rx="5" y="6" x="6" height="38" width="38"
                fill="#f2f5e9" fill-opacity="0.5" stroke="#606060" stroke-width="1.0"/>
           <path id="arrow"
             d="M 11.500037,31.436501 C 11.940474,20.09759 22.043105,11.32322 32.158766,21.979434 L 37.068811,17.246167 C 37.068811,17.246167 37.088388,32 37.088388,32 L 22.160133,31.978069 C 22.160133,31.978069 26.997745,27.140456 26.997745,27.140456 C 18.528582,18.264221 13.291696,25.230495 11.500037,31.436501 z"
             style="fill:#404040;"/>
          </a>
         </g>
        </svg>
</svg>
