<?xml version="1.0" encoding="UTF-8" standalone="no"?>
<!DOCTYPE svg PUBLIC "-//W3C//DTD SVG 1.1//EN"
 "http://www.w3.org/Graphics/SVG/1.1/DTD/svg11.dtd">
<!-- Generated by graphviz version 2.38.0 (20140413.2041)
 -->
<!-- Title: Eigen::Matrix::outerStride Pages: 1 -->
<!--zoomable 184 -->
<svg id="main" version="1.1" xmlns="http://www.w3.org/2000/svg" xmlns:xlink="http://www.w3.org/1999/xlink" xml:space="preserve" onload="init(evt)">
<style type="text/css"><![CDATA[
.edge:hover path { stroke: red; }
.edge:hover polygon { stroke: red; fill: red; }
]]></style>
<script type="text/javascript"><![CDATA[
var edges = document.getElementsByTagName('g');
if (edges && edges.length) {
  for (var i=0;i<edges.length;i++) {
    if (edges[i].id.substr(0,4)=='edge') {
      edges[i].setAttribute('class','edge');
    }
  }
}
]]></script>
        <defs>
                <circle id="rim" cx="0" cy="0" r="7"/>
                <circle id="rim2" cx="0" cy="0" r="3.5"/>
                <g id="zoomPlus">
                        <use xlink:href="#rim" fill="#404040">
                                <set attributeName="fill" to="#808080" begin="zoomplus.mouseover" end="zoomplus.mouseout"/>
                        </use>
                        <path d="M-4,0h8M0,-4v8" fill="none" stroke="white" stroke-width="1.5" pointer-events="none"/>
                </g>
                <g id="zoomMin">
                        <use xlink:href="#rim" fill="#404040">
                                <set attributeName="fill" to="#808080" begin="zoomminus.mouseover" end="zoomminus.mouseout"/>
                        </use>
                        <path d="M-4,0h8" fill="none" stroke="white" stroke-width="1.5" pointer-events="none"/>
                </g>
                <g id="dirArrow">
                        <path fill="none" stroke="white" stroke-width="1.5" d="M0,-3.0v7 M-2.5,-0.5L0,-3.0L2.5,-0.5"/>
                </g>
               <g id="resetDef">
                       <use xlink:href="#rim2" fill="#404040">
                               <set attributeName="fill" to="#808080" begin="reset.mouseover" end="reset.mouseout"/>
                       </use>
               </g>
        </defs>

<script type="text/javascript">
var viewWidth = 554;
var viewHeight = 184;
var sectionId = 'dynsection-4';
</script>
<script xlink:href="svgpan.js"/>
<svg id="graph" class="graph">
<g id="viewport">
<title>Eigen::Matrix::outerStride</title>
<!-- Node35 -->
<g id="node1" class="node"><title>Node35</title>
<polygon fill="#bfbfbf" stroke="black" points="0,-55.5 0,-74.5 138,-74.5 138,-55.5 0,-55.5"/>
<text text-anchor="middle" x="69" y="-62.5" font-family="Helvetica,sans-Serif" font-size="10.00">Eigen::Matrix::outerStride</text>
</g>
<!-- Node36 -->
<g id="node2" class="node"><title>Node36</title>
<g id="a_node2"><a xlink:href="structEigen_1_1internal_1_1LU__kernel__bmod.html#a475f853efdc24aaca3444da518f40ba8" target="_top" xlink:title="Eigen::internal::LU\l_kernel_bmod::run">
<polygon fill="none" stroke="black" points="198.5,-110 198.5,-140 304.5,-140 304.5,-110 198.5,-110"/>
<text text-anchor="start" x="206.5" y="-128" font-family="Helvetica,sans-Serif" font-size="10.00">Eigen::internal::LU</text>
<text text-anchor="middle" x="251.5" y="-117" font-family="Helvetica,sans-Serif" font-size="10.00">_kernel_bmod::run</text>
</a>
</g>
</g>
<!-- Node35&#45;&gt;Node36 -->
<g id="edge1" class="edge"><title>Node35&#45;&gt;Node36</title>
<path fill="none" stroke="midnightblue" d="M107.776,-77.8017C127.498,-84.4628 152.035,-92.7149 174,-100 183.814,-103.255 194.346,-106.717 204.362,-109.995"/>
<polygon fill="midnightblue" stroke="midnightblue" points="108.822,-74.4608 98.2276,-74.5742 106.58,-81.0922 108.822,-74.4608"/>
</g>
<!-- Node39 -->
<g id="node5" class="node"><title>Node39</title>
<g id="a_node5"><a xlink:href="structEigen_1_1SluMatrixMapHelper_3_01Matrix_3_01Scalar_00_01Rows_00_01Cols_00_01Options_00_01MRows_00_01MCols_01_4_01_4.html#a359c47a6e575a4424c3c04bf56872290" target="_top" xlink:title="Eigen::SluMatrixMapHelper\l\&lt; Matrix\&lt; Scalar, Rows,\l Cols, Options, MRows, MCols\l \&gt; \&gt;::run">
<polygon fill="none" stroke="black" points="174,-39 174,-91 329,-91 329,-39 174,-39"/>
<text text-anchor="start" x="182" y="-79" font-family="Helvetica,sans-Serif" font-size="10.00">Eigen::SluMatrixMapHelper</text>
<text text-anchor="start" x="182" y="-68" font-family="Helvetica,sans-Serif" font-size="10.00">&lt; Matrix&lt; Scalar, Rows,</text>
<text text-anchor="start" x="182" y="-57" font-family="Helvetica,sans-Serif" font-size="10.00"> Cols, Options, MRows, MCols</text>
<text text-anchor="middle" x="251.5" y="-46" font-family="Helvetica,sans-Serif" font-size="10.00"> &gt; &gt;::run</text>
</a>
</g>
</g>
<!-- Node35&#45;&gt;Node39 -->
<g id="edge4" class="edge"><title>Node35&#45;&gt;Node39</title>
<path fill="none" stroke="midnightblue" d="M148.391,-65C156.787,-65 165.321,-65 173.698,-65"/>
<polygon fill="midnightblue" stroke="midnightblue" points="148.239,-61.5001 138.239,-65 148.239,-68.5001 148.239,-61.5001"/>
</g>
<!-- Node40 -->
<g id="node6" class="node"><title>Node40</title>
<g id="a_node6"><a xlink:href="level3__impl_8h.html#aa456316a32c99eb992e76aecedae43d0" target="_top" xlink:title="trmm">
<polygon fill="none" stroke="black" points="229.5,-0.5 229.5,-19.5 273.5,-19.5 273.5,-0.5 229.5,-0.5"/>
<text text-anchor="middle" x="251.5" y="-7.5" font-family="Helvetica,sans-Serif" font-size="10.00">trmm</text>
</a>
</g>
</g>
<!-- Node35&#45;&gt;Node40 -->
<g id="edge5" class="edge"><title>Node35&#45;&gt;Node40</title>
<path fill="none" stroke="midnightblue" d="M105.073,-51.9786C125.118,-44.7592 150.808,-35.879 174,-29 192.499,-23.5131 213.827,-18.3065 229.256,-14.736"/>
<polygon fill="midnightblue" stroke="midnightblue" points="103.641,-48.7749 95.4364,-55.4779 106.031,-55.3546 103.641,-48.7749"/>
</g>
<!-- Node37 -->
<g id="node3" class="node"><title>Node37</title>
<g id="a_node3"><a xlink:href="classEigen_1_1internal_1_1SparseLUImpl.html#ae34275602cf12560edfcaf7cd5cbe932" target="_top" xlink:title="Performs numeric block updates (sup&#45;col) in topological order. ">
<polygon fill="none" stroke="black" points="365,-134.5 365,-175.5 546,-175.5 546,-134.5 365,-134.5"/>
<text text-anchor="start" x="373" y="-163.5" font-family="Helvetica,sans-Serif" font-size="10.00">Eigen::internal::SparseLUImpl</text>
<text text-anchor="start" x="373" y="-152.5" font-family="Helvetica,sans-Serif" font-size="10.00">&lt; _MatrixType::Scalar, _MatrixType</text>
<text text-anchor="middle" x="455.5" y="-141.5" font-family="Helvetica,sans-Serif" font-size="10.00">::StorageIndex &gt;::column_bmod</text>
</a>
</g>
</g>
<!-- Node36&#45;&gt;Node37 -->
<g id="edge2" class="edge"><title>Node36&#45;&gt;Node37</title>
<path fill="none" stroke="midnightblue" d="M314.669,-134.233C330.471,-136.58 347.77,-139.149 364.648,-141.656"/>
<polygon fill="midnightblue" stroke="midnightblue" points="314.926,-130.733 304.52,-132.726 313.897,-137.657 314.926,-130.733"/>
</g>
<!-- Node38 -->
<g id="node4" class="node"><title>Node38</title>
<g id="a_node4"><a xlink:href="classEigen_1_1internal_1_1SparseLUImpl.html#a277936738db49e25285164ac25c498c3" target="_top" xlink:title="Performs numeric block updates (sup&#45;panel) in topological order. ">
<polygon fill="none" stroke="black" points="365,-74.5 365,-115.5 546,-115.5 546,-74.5 365,-74.5"/>
<text text-anchor="start" x="373" y="-103.5" font-family="Helvetica,sans-Serif" font-size="10.00">Eigen::internal::SparseLUImpl</text>
<text text-anchor="start" x="373" y="-92.5" font-family="Helvetica,sans-Serif" font-size="10.00">&lt; _MatrixType::Scalar, _MatrixType</text>
<text text-anchor="middle" x="455.5" y="-81.5" font-family="Helvetica,sans-Serif" font-size="10.00">::StorageIndex &gt;::panel_bmod</text>
</a>
</g>
</g>
<!-- Node36&#45;&gt;Node38 -->
<g id="edge3" class="edge"><title>Node36&#45;&gt;Node38</title>
<path fill="none" stroke="midnightblue" d="M314.669,-115.767C330.471,-113.42 347.77,-110.851 364.648,-108.344"/>
<polygon fill="midnightblue" stroke="midnightblue" points="313.897,-112.343 304.52,-117.274 314.926,-119.267 313.897,-112.343"/>
</g>
<!-- Node41 -->
<g id="node7" class="node"><title>Node41</title>
<g id="a_node7"><a xlink:href="classAction__trmm.html#aef88530851774b4d1d667e1e14d5fa99" target="_top" xlink:title="Action_trmm::calculate">
<polygon fill="none" stroke="black" points="391.5,-0.5 391.5,-19.5 519.5,-19.5 519.5,-0.5 391.5,-0.5"/>
<text text-anchor="middle" x="455.5" y="-7.5" font-family="Helvetica,sans-Serif" font-size="10.00">Action_trmm::calculate</text>
</a>
</g>
</g>
<!-- Node40&#45;&gt;Node41 -->
<g id="edge6" class="edge"><title>Node40&#45;&gt;Node41</title>
<path fill="none" stroke="midnightblue" d="M283.931,-10C312.497,-10 355.503,-10 391.184,-10"/>
<polygon fill="midnightblue" stroke="midnightblue" points="283.736,-6.5001 273.736,-10 283.736,-13.5001 283.736,-6.5001"/>
</g>
</g>
</svg>
        <g id="navigator" transform="translate(0 0)" fill="#404254">
                <rect fill="#f2f5e9" fill-opacity="0.5" stroke="#606060" stroke-width=".5" x="0" y="0" width="60" height="60"/>
                <use id="zoomplus" xlink:href="#zoomPlus" x="17" y="9" onmousedown="handleZoom(evt,'in')"/>
                <use id="zoomminus" xlink:href="#zoomMin" x="42" y="9" onmousedown="handleZoom(evt,'out')"/>
                <use id="reset" xlink:href="#resetDef" x="30" y="36" onmousedown="handleReset()"/>
                <g id="arrowUp" xlink:href="#dirArrow" transform="translate(30 24)" onmousedown="handlePan(0,-1)">
                  <use xlink:href="#rim" fill="#404040">
                        <set attributeName="fill" to="#808080" begin="arrowUp.mouseover" end="arrowUp.mouseout"/>
                  </use>
                  <path fill="none" stroke="white" stroke-width="1.5" d="M0,-3.0v7 M-2.5,-0.5L0,-3.0L2.5,-0.5"/>
                </g>
                <g id="arrowRight" xlink:href="#dirArrow" transform="rotate(90) translate(36 -43)" onmousedown="handlePan(1,0)">
                  <use xlink:href="#rim" fill="#404040">
                        <set attributeName="fill" to="#808080" begin="arrowRight.mouseover" end="arrowRight.mouseout"/>
                  </use>
                  <path fill="none" stroke="white" stroke-width="1.5" d="M0,-3.0v7 M-2.5,-0.5L0,-3.0L2.5,-0.5"/>
                </g>
                <g id="arrowDown" xlink:href="#dirArrow" transform="rotate(180) translate(-30 -48)" onmousedown="handlePan(0,1)">
                  <use xlink:href="#rim" fill="#404040">
                        <set attributeName="fill" to="#808080" begin="arrowDown.mouseover" end="arrowDown.mouseout"/>
                  </use>
                  <path fill="none" stroke="white" stroke-width="1.5" d="M0,-3.0v7 M-2.5,-0.5L0,-3.0L2.5,-0.5"/>
                </g>
                <g id="arrowLeft" xlink:href="#dirArrow" transform="rotate(270) translate(-36 17)" onmousedown="handlePan(-1,0)">
                  <use xlink:href="#rim" fill="#404040">
                        <set attributeName="fill" to="#808080" begin="arrowLeft.mouseover" end="arrowLeft.mouseout"/>
                  </use>
                  <path fill="none" stroke="white" stroke-width="1.5" d="M0,-3.0v7 M-2.5,-0.5L0,-3.0L2.5,-0.5"/>
                </g>
        </g>
        <svg viewBox="0 0 15 15" width="100%" height="30px" preserveAspectRatio="xMaxYMin meet">
         <g id="arrow_out" transform="scale(0.3 0.3)">
          <a xlink:href="classEigen_1_1Matrix_a4ef63bbf7e04163bee2556944cee7472_icgraph_org.svg" target="_base">
           <rect id="button" ry="5" rx="5" y="6" x="6" height="38" width="38"
                fill="#f2f5e9" fill-opacity="0.5" stroke="#606060" stroke-width="1.0"/>
           <path id="arrow"
             d="M 11.500037,31.436501 C 11.940474,20.09759 22.043105,11.32322 32.158766,21.979434 L 37.068811,17.246167 C 37.068811,17.246167 37.088388,32 37.088388,32 L 22.160133,31.978069 C 22.160133,31.978069 26.997745,27.140456 26.997745,27.140456 C 18.528582,18.264221 13.291696,25.230495 11.500037,31.436501 z"
             style="fill:#404040;"/>
          </a>
         </g>
        </svg>
</svg>
