<?xml version="1.0" encoding="UTF-8" standalone="no"?>
<!DOCTYPE svg PUBLIC "-//W3C//DTD SVG 1.1//EN"
 "http://www.w3.org/Graphics/SVG/1.1/DTD/svg11.dtd">
<!-- Generated by graphviz version 2.38.0 (20140413.2041)
 -->
<!-- Title: Eigen::TranspositionsBase::indices Pages: 1 -->
<svg width="360pt" height="700pt"
 viewBox="0.00 0.00 360.00 700.00" xmlns="http://www.w3.org/2000/svg" xmlns:xlink="http://www.w3.org/1999/xlink">
<g id="graph0" class="graph" transform="scale(1 1) rotate(0) translate(4 696)">
<title>Eigen::TranspositionsBase::indices</title>
<!-- Node20 -->
<g id="node1" class="node"><title>Node20</title>
<polygon fill="#bfbfbf" stroke="black" points="0,-330.5 0,-360.5 140,-360.5 140,-330.5 0,-330.5"/>
<text text-anchor="start" x="8" y="-348.5" font-family="Helvetica,sans-Serif" font-size="10.00">Eigen::TranspositionsBase</text>
<text text-anchor="middle" x="70" y="-337.5" font-family="Helvetica,sans-Serif" font-size="10.00">::indices</text>
</g>
<!-- Node21 -->
<g id="node2" class="node"><title>Node21</title>
<g id="a_node2"><a xlink:href="classEigen_1_1TranspositionsBase.html#aae1d3847b107e518c9f2b6010a6b635a" target="_top" xlink:title="Eigen::TranspositionsBase\l\&lt; Transpositions\&lt; SizeAtCompile\lTime, MaxSizeAtCompileTime,\l _StorageIndex \&gt; \&gt;::coeff">
<polygon fill="none" stroke="black" points="176,-639.5 176,-691.5 352,-691.5 352,-639.5 176,-639.5"/>
<text text-anchor="start" x="184" y="-679.5" font-family="Helvetica,sans-Serif" font-size="10.00">Eigen::TranspositionsBase</text>
<text text-anchor="start" x="184" y="-668.5" font-family="Helvetica,sans-Serif" font-size="10.00">&lt; Transpositions&lt; SizeAtCompile</text>
<text text-anchor="start" x="184" y="-657.5" font-family="Helvetica,sans-Serif" font-size="10.00">Time, MaxSizeAtCompileTime,</text>
<text text-anchor="middle" x="264" y="-646.5" font-family="Helvetica,sans-Serif" font-size="10.00"> _StorageIndex &gt; &gt;::coeff</text>
</a>
</g>
</g>
<!-- Node20&#45;&gt;Node21 -->
<g id="edge1" class="edge"><title>Node20&#45;&gt;Node21</title>
<path fill="none" stroke="midnightblue" d="M73.4932,-370.945C80.1548,-425.63 103.147,-555.466 176,-630.5 179.176,-633.771 182.697,-636.744 186.451,-639.447"/>
<polygon fill="midnightblue" stroke="midnightblue" points="76.9423,-370.298 72.3379,-360.756 69.9868,-371.086 76.9423,-370.298"/>
</g>
<!-- Node22 -->
<g id="node3" class="node"><title>Node22</title>
<g id="a_node3"><a xlink:href="classEigen_1_1TranspositionsBase.html#a97dda1bb4ff8bdd83d8e97af3e590252" target="_top" xlink:title="Eigen::TranspositionsBase\l\&lt; Transpositions\&lt; SizeAtCompile\lTime, MaxSizeAtCompileTime,\l _StorageIndex \&gt; \&gt;::coeffRef">
<polygon fill="none" stroke="black" points="176,-568.5 176,-620.5 352,-620.5 352,-568.5 176,-568.5"/>
<text text-anchor="start" x="184" y="-608.5" font-family="Helvetica,sans-Serif" font-size="10.00">Eigen::TranspositionsBase</text>
<text text-anchor="start" x="184" y="-597.5" font-family="Helvetica,sans-Serif" font-size="10.00">&lt; Transpositions&lt; SizeAtCompile</text>
<text text-anchor="start" x="184" y="-586.5" font-family="Helvetica,sans-Serif" font-size="10.00">Time, MaxSizeAtCompileTime,</text>
<text text-anchor="middle" x="264" y="-575.5" font-family="Helvetica,sans-Serif" font-size="10.00"> _StorageIndex &gt; &gt;::coeffRef</text>
</a>
</g>
</g>
<!-- Node20&#45;&gt;Node22 -->
<g id="edge2" class="edge"><title>Node20&#45;&gt;Node22</title>
<path fill="none" stroke="midnightblue" d="M76.9646,-370.594C88.6511,-414.621 118.578,-506.159 176,-559.5 179.459,-562.713 183.251,-565.648 187.256,-568.325"/>
<polygon fill="midnightblue" stroke="midnightblue" points="80.3084,-369.543 74.4407,-360.721 73.5264,-371.276 80.3084,-369.543"/>
</g>
<!-- Node23 -->
<g id="node4" class="node"><title>Node23</title>
<g id="a_node4"><a xlink:href="classEigen_1_1TranspositionsBase.html#acb6f58081640839bd4102b75bdeec562" target="_top" xlink:title="Eigen::TranspositionsBase\l\&lt; Transpositions\&lt; SizeAtCompile\lTime, MaxSizeAtCompileTime,\l _StorageIndex \&gt; \&gt;::cols">
<polygon fill="none" stroke="black" points="176,-497.5 176,-549.5 352,-549.5 352,-497.5 176,-497.5"/>
<text text-anchor="start" x="184" y="-537.5" font-family="Helvetica,sans-Serif" font-size="10.00">Eigen::TranspositionsBase</text>
<text text-anchor="start" x="184" y="-526.5" font-family="Helvetica,sans-Serif" font-size="10.00">&lt; Transpositions&lt; SizeAtCompile</text>
<text text-anchor="start" x="184" y="-515.5" font-family="Helvetica,sans-Serif" font-size="10.00">Time, MaxSizeAtCompileTime,</text>
<text text-anchor="middle" x="264" y="-504.5" font-family="Helvetica,sans-Serif" font-size="10.00"> _StorageIndex &gt; &gt;::cols</text>
</a>
</g>
</g>
<!-- Node20&#45;&gt;Node23 -->
<g id="edge3" class="edge"><title>Node20&#45;&gt;Node23</title>
<path fill="none" stroke="midnightblue" d="M83.1217,-369.514C100.023,-400.823 133.441,-455.472 176,-488.5 180.116,-491.694 184.562,-494.636 189.192,-497.34"/>
<polygon fill="midnightblue" stroke="midnightblue" points="86.1781,-367.807 78.4149,-360.597 79.9876,-371.075 86.1781,-367.807"/>
</g>
<!-- Node24 -->
<g id="node5" class="node"><title>Node24</title>
<g id="a_node5"><a xlink:href="classEigen_1_1TranspositionsBase.html#a150860addd2418f37da291f0ad9395f2" target="_top" xlink:title="Eigen::TranspositionsBase\l\&lt; Transpositions\&lt; SizeAtCompile\lTime, MaxSizeAtCompileTime,\l _StorageIndex \&gt; \&gt;::operator()">
<polygon fill="none" stroke="black" points="176,-426.5 176,-478.5 352,-478.5 352,-426.5 176,-426.5"/>
<text text-anchor="start" x="184" y="-466.5" font-family="Helvetica,sans-Serif" font-size="10.00">Eigen::TranspositionsBase</text>
<text text-anchor="start" x="184" y="-455.5" font-family="Helvetica,sans-Serif" font-size="10.00">&lt; Transpositions&lt; SizeAtCompile</text>
<text text-anchor="start" x="184" y="-444.5" font-family="Helvetica,sans-Serif" font-size="10.00">Time, MaxSizeAtCompileTime,</text>
<text text-anchor="middle" x="264" y="-433.5" font-family="Helvetica,sans-Serif" font-size="10.00"> _StorageIndex &gt; &gt;::operator()</text>
</a>
</g>
</g>
<!-- Node20&#45;&gt;Node24 -->
<g id="edge4" class="edge"><title>Node20&#45;&gt;Node24</title>
<path fill="none" stroke="midnightblue" d="M98.2953,-366.676C118.895,-382.037 148.258,-402.639 176,-417.5 181.741,-420.575 187.811,-423.544 193.969,-426.364"/>
<polygon fill="midnightblue" stroke="midnightblue" points="100.399,-363.879 90.3071,-360.655 96.1856,-369.469 100.399,-363.879"/>
</g>
<!-- Node25 -->
<g id="node6" class="node"><title>Node25</title>
<g id="a_node6"><a xlink:href="classEigen_1_1TranspositionsBase.html#a476b5c653c6842e3e4d0104f7f888817" target="_top" xlink:title="Eigen::TranspositionsBase\l\&lt; Transpositions\&lt; SizeAtCompile\lTime, MaxSizeAtCompileTime,\l _StorageIndex \&gt; \&gt;::operator=">
<polygon fill="none" stroke="black" points="176,-355.5 176,-407.5 352,-407.5 352,-355.5 176,-355.5"/>
<text text-anchor="start" x="184" y="-395.5" font-family="Helvetica,sans-Serif" font-size="10.00">Eigen::TranspositionsBase</text>
<text text-anchor="start" x="184" y="-384.5" font-family="Helvetica,sans-Serif" font-size="10.00">&lt; Transpositions&lt; SizeAtCompile</text>
<text text-anchor="start" x="184" y="-373.5" font-family="Helvetica,sans-Serif" font-size="10.00">Time, MaxSizeAtCompileTime,</text>
<text text-anchor="middle" x="264" y="-362.5" font-family="Helvetica,sans-Serif" font-size="10.00"> _StorageIndex &gt; &gt;::operator=</text>
</a>
</g>
</g>
<!-- Node20&#45;&gt;Node25 -->
<g id="edge5" class="edge"><title>Node20&#45;&gt;Node25</title>
<path fill="none" stroke="midnightblue" d="M149.961,-360.305C158.495,-361.905 167.214,-363.54 175.837,-365.157"/>
<polygon fill="midnightblue" stroke="midnightblue" points="150.519,-356.849 140.045,-358.446 149.229,-363.729 150.519,-356.849"/>
</g>
<!-- Node26 -->
<g id="node7" class="node"><title>Node26</title>
<g id="a_node7"><a xlink:href="classEigen_1_1TranspositionsBase.html#a689c79a6cdac938218de46638decb895" target="_top" xlink:title="Eigen::TranspositionsBase\l\&lt; Transpositions\&lt; SizeAtCompile\lTime, MaxSizeAtCompileTime,\l _StorageIndex \&gt; \&gt;::operator[]">
<polygon fill="none" stroke="black" points="176,-284.5 176,-336.5 352,-336.5 352,-284.5 176,-284.5"/>
<text text-anchor="start" x="184" y="-324.5" font-family="Helvetica,sans-Serif" font-size="10.00">Eigen::TranspositionsBase</text>
<text text-anchor="start" x="184" y="-313.5" font-family="Helvetica,sans-Serif" font-size="10.00">&lt; Transpositions&lt; SizeAtCompile</text>
<text text-anchor="start" x="184" y="-302.5" font-family="Helvetica,sans-Serif" font-size="10.00">Time, MaxSizeAtCompileTime,</text>
<text text-anchor="middle" x="264" y="-291.5" font-family="Helvetica,sans-Serif" font-size="10.00"> _StorageIndex &gt; &gt;::operator[]</text>
</a>
</g>
</g>
<!-- Node20&#45;&gt;Node26 -->
<g id="edge6" class="edge"><title>Node20&#45;&gt;Node26</title>
<path fill="none" stroke="midnightblue" d="M149.961,-331.106C158.495,-329.55 167.214,-327.961 175.837,-326.389"/>
<polygon fill="midnightblue" stroke="midnightblue" points="149.255,-327.677 140.045,-332.914 150.511,-334.563 149.255,-327.677"/>
</g>
<!-- Node27 -->
<g id="node8" class="node"><title>Node27</title>
<g id="a_node8"><a xlink:href="classEigen_1_1TranspositionsBase.html#a3dfa713d74fc1f9a7e589b3d428f7849" target="_top" xlink:title="Eigen::TranspositionsBase\l\&lt; Transpositions\&lt; SizeAtCompile\lTime, MaxSizeAtCompileTime,\l _StorageIndex \&gt; \&gt;::resize">
<polygon fill="none" stroke="black" points="176,-213.5 176,-265.5 352,-265.5 352,-213.5 176,-213.5"/>
<text text-anchor="start" x="184" y="-253.5" font-family="Helvetica,sans-Serif" font-size="10.00">Eigen::TranspositionsBase</text>
<text text-anchor="start" x="184" y="-242.5" font-family="Helvetica,sans-Serif" font-size="10.00">&lt; Transpositions&lt; SizeAtCompile</text>
<text text-anchor="start" x="184" y="-231.5" font-family="Helvetica,sans-Serif" font-size="10.00">Time, MaxSizeAtCompileTime,</text>
<text text-anchor="middle" x="264" y="-220.5" font-family="Helvetica,sans-Serif" font-size="10.00"> _StorageIndex &gt; &gt;::resize</text>
</a>
</g>
</g>
<!-- Node20&#45;&gt;Node27 -->
<g id="edge7" class="edge"><title>Node20&#45;&gt;Node27</title>
<path fill="none" stroke="midnightblue" d="M99.4704,-324.302C120.074,-309.521 148.939,-289.94 176,-275.5 182.345,-272.114 189.08,-268.828 195.882,-265.709"/>
<polygon fill="midnightblue" stroke="midnightblue" points="97.2187,-321.611 91.1756,-330.314 101.327,-327.279 97.2187,-321.611"/>
</g>
<!-- Node28 -->
<g id="node9" class="node"><title>Node28</title>
<g id="a_node9"><a xlink:href="classEigen_1_1TranspositionsBase.html#a8c073f17542a8fc9ac581c17f6cdc8d3" target="_top" xlink:title="Eigen::TranspositionsBase\l\&lt; Transpositions\&lt; SizeAtCompile\lTime, MaxSizeAtCompileTime,\l _StorageIndex \&gt; \&gt;::rows">
<polygon fill="none" stroke="black" points="176,-142.5 176,-194.5 352,-194.5 352,-142.5 176,-142.5"/>
<text text-anchor="start" x="184" y="-182.5" font-family="Helvetica,sans-Serif" font-size="10.00">Eigen::TranspositionsBase</text>
<text text-anchor="start" x="184" y="-171.5" font-family="Helvetica,sans-Serif" font-size="10.00">&lt; Transpositions&lt; SizeAtCompile</text>
<text text-anchor="start" x="184" y="-160.5" font-family="Helvetica,sans-Serif" font-size="10.00">Time, MaxSizeAtCompileTime,</text>
<text text-anchor="middle" x="264" y="-149.5" font-family="Helvetica,sans-Serif" font-size="10.00"> _StorageIndex &gt; &gt;::rows</text>
</a>
</g>
</g>
<!-- Node20&#45;&gt;Node28 -->
<g id="edge8" class="edge"><title>Node20&#45;&gt;Node28</title>
<path fill="none" stroke="midnightblue" d="M83.5195,-321.41C100.648,-290.539 134.096,-237.124 176,-204.5 180.643,-200.885 185.701,-197.575 190.965,-194.555"/>
<polygon fill="midnightblue" stroke="midnightblue" points="80.4324,-319.76 78.7364,-330.219 86.584,-323.101 80.4324,-319.76"/>
</g>
<!-- Node29 -->
<g id="node10" class="node"><title>Node29</title>
<g id="a_node10"><a xlink:href="classEigen_1_1TranspositionsBase.html#a8da379438691ea694948ea5ae31d305f" target="_top" xlink:title="Eigen::TranspositionsBase\l\&lt; Transpositions\&lt; SizeAtCompile\lTime, MaxSizeAtCompileTime,\l _StorageIndex \&gt; \&gt;::setIdentity">
<polygon fill="none" stroke="black" points="176,-71.5 176,-123.5 352,-123.5 352,-71.5 176,-71.5"/>
<text text-anchor="start" x="184" y="-111.5" font-family="Helvetica,sans-Serif" font-size="10.00">Eigen::TranspositionsBase</text>
<text text-anchor="start" x="184" y="-100.5" font-family="Helvetica,sans-Serif" font-size="10.00">&lt; Transpositions&lt; SizeAtCompile</text>
<text text-anchor="start" x="184" y="-89.5" font-family="Helvetica,sans-Serif" font-size="10.00">Time, MaxSizeAtCompileTime,</text>
<text text-anchor="middle" x="264" y="-78.5" font-family="Helvetica,sans-Serif" font-size="10.00"> _StorageIndex &gt; &gt;::setIdentity</text>
</a>
</g>
</g>
<!-- Node20&#45;&gt;Node29 -->
<g id="edge9" class="edge"><title>Node20&#45;&gt;Node29</title>
<path fill="none" stroke="midnightblue" d="M77.0854,-320.695C88.9606,-277.166 119.172,-186.614 176,-133.5 179.821,-129.928 184.047,-126.687 188.516,-123.749"/>
<polygon fill="midnightblue" stroke="midnightblue" points="73.677,-319.895 74.5173,-330.456 80.4466,-321.676 73.677,-319.895"/>
</g>
<!-- Node30 -->
<g id="node11" class="node"><title>Node30</title>
<g id="a_node11"><a xlink:href="classEigen_1_1TranspositionsBase.html#a6888d6261a9cc24ee8607496e610a5a3" target="_top" xlink:title="Eigen::TranspositionsBase\l\&lt; Transpositions\&lt; SizeAtCompile\lTime, MaxSizeAtCompileTime,\l _StorageIndex \&gt; \&gt;::size">
<polygon fill="none" stroke="black" points="176,-0.5 176,-52.5 352,-52.5 352,-0.5 176,-0.5"/>
<text text-anchor="start" x="184" y="-40.5" font-family="Helvetica,sans-Serif" font-size="10.00">Eigen::TranspositionsBase</text>
<text text-anchor="start" x="184" y="-29.5" font-family="Helvetica,sans-Serif" font-size="10.00">&lt; Transpositions&lt; SizeAtCompile</text>
<text text-anchor="start" x="184" y="-18.5" font-family="Helvetica,sans-Serif" font-size="10.00">Time, MaxSizeAtCompileTime,</text>
<text text-anchor="middle" x="264" y="-7.5" font-family="Helvetica,sans-Serif" font-size="10.00"> _StorageIndex &gt; &gt;::size</text>
</a>
</g>
</g>
<!-- Node20&#45;&gt;Node30 -->
<g id="edge10" class="edge"><title>Node20&#45;&gt;Node30</title>
<path fill="none" stroke="midnightblue" d="M73.6047,-320.285C80.4848,-266.084 103.88,-137.344 176,-62.5 179.516,-58.8511 183.456,-55.558 187.667,-52.5881"/>
<polygon fill="midnightblue" stroke="midnightblue" points="70.1092,-320.041 72.4073,-330.383 77.0605,-320.865 70.1092,-320.041"/>
</g>
</g>
</svg>
