<?xml version="1.0" encoding="UTF-8" standalone="no"?>
<!DOCTYPE svg PUBLIC "-//W3C//DTD SVG 1.1//EN"
 "http://www.w3.org/Graphics/SVG/1.1/DTD/svg11.dtd">
<!-- Generated by graphviz version 2.38.0 (20140413.2041)
 -->
<!-- Title: Eigen::HessenbergDecomposition&lt; _MatrixType &gt; Pages: 1 -->
<svg width="965pt" height="186pt"
 viewBox="0.00 0.00 965.00 186.00" xmlns="http://www.w3.org/2000/svg" xmlns:xlink="http://www.w3.org/1999/xlink">
<g id="graph0" class="graph" transform="scale(1 1) rotate(0) translate(4 182)">
<title>Eigen::HessenbergDecomposition&lt; _MatrixType &gt;</title>
<!-- Node1 -->
<g id="node1" class="node"><title>Node1</title>
<polygon fill="#bfbfbf" stroke="black" points="778,-70 778,-100 957,-100 957,-70 778,-70"/>
<text text-anchor="start" x="786" y="-88" font-family="Helvetica,sans-Serif" font-size="10.00">Eigen::HessenbergDecomposition</text>
<text text-anchor="middle" x="867.5" y="-77" font-family="Helvetica,sans-Serif" font-size="10.00">&lt; _MatrixType &gt;</text>
</g>
<!-- Node2 -->
<g id="node2" class="node"><title>Node2</title>
<polygon fill="none" stroke="#bfbfbf" points="537.5,-158.5 537.5,-177.5 609.5,-177.5 609.5,-158.5 537.5,-158.5"/>
<text text-anchor="middle" x="573.5" y="-165.5" font-family="Helvetica,sans-Serif" font-size="10.00">_MatrixType</text>
</g>
<!-- Node2&#45;&gt;Node1 -->
<g id="edge1" class="edge"><title>Node2&#45;&gt;Node1</title>
<path fill="none" stroke="#9a32cd" stroke-dasharray="5,2" d="M619.895,-160.377C636.403,-157.284 655.141,-153.398 672,-149 725.832,-134.957 786.535,-114.166 825.59,-100.125"/>
<polygon fill="#9a32cd" stroke="#9a32cd" points="619.148,-156.955 609.942,-162.198 620.408,-163.841 619.148,-156.955"/>
<text text-anchor="middle" x="725" y="-146" font-family="Helvetica,sans-Serif" font-size="10.00"> m_matrix</text>
</g>
<!-- Node3 -->
<g id="node3" class="node"><title>Node3</title>
<g id="a_node3"><a xlink:href="classEigen_1_1Matrix.html" target="_top" xlink:title="Eigen::Matrix\&lt; Scalar,\l SizeMinusOne, 1, Options\l &amp;~RowMajor, MaxSizeMinusOne, 1 \&gt;">
<polygon fill="none" stroke="black" points="475,-98.5 475,-139.5 672,-139.5 672,-98.5 475,-98.5"/>
<text text-anchor="start" x="483" y="-127.5" font-family="Helvetica,sans-Serif" font-size="10.00">Eigen::Matrix&lt; Scalar,</text>
<text text-anchor="start" x="483" y="-116.5" font-family="Helvetica,sans-Serif" font-size="10.00"> SizeMinusOne, 1, Options</text>
<text text-anchor="middle" x="573.5" y="-105.5" font-family="Helvetica,sans-Serif" font-size="10.00"> &amp;~RowMajor, MaxSizeMinusOne, 1 &gt;</text>
</a>
</g>
</g>
<!-- Node3&#45;&gt;Node1 -->
<g id="edge2" class="edge"><title>Node3&#45;&gt;Node1</title>
<path fill="none" stroke="#9a32cd" stroke-dasharray="5,2" d="M682.249,-106.454C713.694,-102.792 747.685,-98.8346 777.808,-95.3271"/>
<polygon fill="#9a32cd" stroke="#9a32cd" points="681.666,-102.998 672.138,-107.631 682.475,-109.951 681.666,-102.998"/>
<text text-anchor="middle" x="725" y="-108" font-family="Helvetica,sans-Serif" font-size="10.00"> m_hCoeffs</text>
</g>
<!-- Node4 -->
<g id="node4" class="node"><title>Node4</title>
<g id="a_node4"><a xlink:href="classEigen_1_1PlainObjectBase.html" target="_top" xlink:title="Eigen::PlainObjectBase\l\&lt; Matrix\&lt; Scalar, _Rows,\l _Cols, _Options, _MaxRows,\l _MaxCols \&gt; \&gt;">
<polygon fill="none" stroke="black" points="288,-67 288,-119 438,-119 438,-67 288,-67"/>
<text text-anchor="start" x="296" y="-107" font-family="Helvetica,sans-Serif" font-size="10.00">Eigen::PlainObjectBase</text>
<text text-anchor="start" x="296" y="-96" font-family="Helvetica,sans-Serif" font-size="10.00">&lt; Matrix&lt; Scalar, _Rows,</text>
<text text-anchor="start" x="296" y="-85" font-family="Helvetica,sans-Serif" font-size="10.00"> _Cols, _Options, _MaxRows,</text>
<text text-anchor="middle" x="363" y="-74" font-family="Helvetica,sans-Serif" font-size="10.00"> _MaxCols &gt; &gt;</text>
</a>
</g>
</g>
<!-- Node4&#45;&gt;Node3 -->
<g id="edge3" class="edge"><title>Node4&#45;&gt;Node3</title>
<path fill="none" stroke="midnightblue" d="M448.291,-103.511C457.066,-104.605 466.036,-105.724 474.941,-106.834"/>
<polygon fill="midnightblue" stroke="midnightblue" points="448.453,-100.004 438.096,-102.24 447.586,-106.95 448.453,-100.004"/>
</g>
<!-- Node7 -->
<g id="node7" class="node"><title>Node7</title>
<g id="a_node7"><a xlink:href="classEigen_1_1Matrix.html" target="_top" xlink:title="Eigen::Matrix\&lt; Scalar,\l 1, Size, Options\|RowMajor,\l 1, MaxSize \&gt;">
<polygon fill="none" stroke="black" points="501,-38.5 501,-79.5 646,-79.5 646,-38.5 501,-38.5"/>
<text text-anchor="start" x="509" y="-67.5" font-family="Helvetica,sans-Serif" font-size="10.00">Eigen::Matrix&lt; Scalar,</text>
<text text-anchor="start" x="509" y="-56.5" font-family="Helvetica,sans-Serif" font-size="10.00"> 1, Size, Options|RowMajor,</text>
<text text-anchor="middle" x="573.5" y="-45.5" font-family="Helvetica,sans-Serif" font-size="10.00"> 1, MaxSize &gt;</text>
</a>
</g>
</g>
<!-- Node4&#45;&gt;Node7 -->
<g id="edge7" class="edge"><title>Node4&#45;&gt;Node7</title>
<path fill="none" stroke="midnightblue" d="M448.241,-79.2629C465.648,-76.4243 483.829,-73.4596 500.742,-70.7016"/>
<polygon fill="midnightblue" stroke="midnightblue" points="447.403,-75.8532 438.096,-80.9171 448.529,-82.762 447.403,-75.8532"/>
</g>
<!-- Node5 -->
<g id="node5" class="node"><title>Node5</title>
<polygon fill="none" stroke="#bfbfbf" points="33,-108 33,-138 164,-138 164,-108 33,-108"/>
<text text-anchor="start" x="41" y="-126" font-family="Helvetica,sans-Serif" font-size="10.00">internal::dense_xpr</text>
<text text-anchor="middle" x="98.5" y="-115" font-family="Helvetica,sans-Serif" font-size="10.00">_base::type&lt; Derived &gt;</text>
</g>
<!-- Node5&#45;&gt;Node4 -->
<g id="edge4" class="edge"><title>Node5&#45;&gt;Node4</title>
<path fill="none" stroke="midnightblue" d="M174.383,-114.442C209.994,-110.372 252.438,-105.521 287.942,-101.464"/>
<polygon fill="midnightblue" stroke="midnightblue" points="173.589,-111.01 164.051,-115.623 174.384,-117.965 173.589,-111.01"/>
</g>
<!-- Node6 -->
<g id="node6" class="node"><title>Node6</title>
<g id="a_node6"><a xlink:href="classEigen_1_1DenseStorage.html" target="_top" xlink:title="Eigen::DenseStorage\l\&lt; Scalar, Base::MaxSizeAtCompile\lTime, Base::RowsAtCompileTime,\l Base::ColsAtCompileTime, Options \&gt;">
<polygon fill="none" stroke="black" points="0,-37 0,-89 197,-89 197,-37 0,-37"/>
<text text-anchor="start" x="8" y="-77" font-family="Helvetica,sans-Serif" font-size="10.00">Eigen::DenseStorage</text>
<text text-anchor="start" x="8" y="-66" font-family="Helvetica,sans-Serif" font-size="10.00">&lt; Scalar, Base::MaxSizeAtCompile</text>
<text text-anchor="start" x="8" y="-55" font-family="Helvetica,sans-Serif" font-size="10.00">Time, Base::RowsAtCompileTime,</text>
<text text-anchor="middle" x="98.5" y="-44" font-family="Helvetica,sans-Serif" font-size="10.00"> Base::ColsAtCompileTime, Options &gt;</text>
</a>
</g>
</g>
<!-- Node6&#45;&gt;Node4 -->
<g id="edge5" class="edge"><title>Node6&#45;&gt;Node4</title>
<path fill="none" stroke="#9a32cd" stroke-dasharray="5,2" d="M207.537,-75.347C234.588,-78.4387 262.999,-81.6856 287.973,-84.5398"/>
<polygon fill="#9a32cd" stroke="#9a32cd" points="207.578,-71.8291 197.245,-74.1709 206.783,-78.7838 207.578,-71.8291"/>
<text text-anchor="middle" x="242.5" y="-85" font-family="Helvetica,sans-Serif" font-size="10.00"> m_storage</text>
</g>
<!-- Node7&#45;&gt;Node1 -->
<g id="edge6" class="edge"><title>Node7&#45;&gt;Node1</title>
<path fill="none" stroke="#9a32cd" stroke-dasharray="5,2" d="M656.627,-64.5442C688.877,-66.8924 726.198,-69.8212 760,-73 765.835,-73.5488 771.847,-74.1442 777.904,-74.7664"/>
<polygon fill="#9a32cd" stroke="#9a32cd" points="656.572,-61.0312 646.346,-63.8026 656.068,-68.013 656.572,-61.0312"/>
<text text-anchor="middle" x="725" y="-76" font-family="Helvetica,sans-Serif" font-size="10.00"> m_temp</text>
</g>
<!-- Node8 -->
<g id="node8" class="node"><title>Node8</title>
<g id="a_node8"><a xlink:href="classbool.html" target="_top" xlink:title="bool">
<polygon fill="none" stroke="black" points="555,-0.5 555,-19.5 592,-19.5 592,-0.5 555,-0.5"/>
<text text-anchor="middle" x="573.5" y="-7.5" font-family="Helvetica,sans-Serif" font-size="10.00">bool</text>
</a>
</g>
</g>
<!-- Node8&#45;&gt;Node1 -->
<g id="edge8" class="edge"><title>Node8&#45;&gt;Node1</title>
<path fill="none" stroke="#9a32cd" stroke-dasharray="5,2" d="M602.243,-14.924C621.808,-18.514 648.591,-23.6656 672,-29 723.049,-40.6329 780.562,-57.6949 819.722,-69.9255"/>
<polygon fill="#9a32cd" stroke="#9a32cd" points="602.648,-11.4404 592.184,-13.099 601.399,-18.328 602.648,-11.4404"/>
<text text-anchor="middle" x="725" y="-55" font-family="Helvetica,sans-Serif" font-size="10.00"> m_isInitialized</text>
</g>
</g>
</svg>
