<?xml version="1.0" encoding="UTF-8" standalone="no"?>
<!DOCTYPE svg PUBLIC "-//W3C//DTD SVG 1.1//EN"
 "http://www.w3.org/Graphics/SVG/1.1/DTD/svg11.dtd">
<!-- Generated by graphviz version 2.38.0 (20140413.2041)
 -->
<!-- Title: Eigen::ComplexEigenSolver::eigenvectors Pages: 1 -->
<svg width="849pt" height="178pt"
 viewBox="0.00 0.00 849.00 178.00" xmlns="http://www.w3.org/2000/svg" xmlns:xlink="http://www.w3.org/1999/xlink">
<g id="graph0" class="graph" transform="scale(1 1) rotate(0) translate(4 174)">
<title>Eigen::ComplexEigenSolver::eigenvectors</title>
<!-- Node56 -->
<g id="node1" class="node"><title>Node56</title>
<polygon fill="#bfbfbf" stroke="black" points="0,-33 0,-63 147,-63 147,-33 0,-33"/>
<text text-anchor="start" x="8" y="-51" font-family="Helvetica,sans-Serif" font-size="10.00">Eigen::ComplexEigenSolver</text>
<text text-anchor="middle" x="73.5" y="-40" font-family="Helvetica,sans-Serif" font-size="10.00">::eigenvectors</text>
</g>
<!-- Node57 -->
<g id="node2" class="node"><title>Node57</title>
<g id="a_node2"><a xlink:href="eigensolver__complex_8cpp.html#a936952f9210b126877c2c4a0f5f6e084" target="_top" xlink:title="eigensolver">
<polygon fill="none" stroke="black" points="198.5,-60.5 198.5,-79.5 269.5,-79.5 269.5,-60.5 198.5,-60.5"/>
<text text-anchor="middle" x="234" y="-67.5" font-family="Helvetica,sans-Serif" font-size="10.00">eigensolver</text>
</a>
</g>
</g>
<!-- Node56&#45;&gt;Node57 -->
<g id="edge1" class="edge"><title>Node56&#45;&gt;Node57</title>
<path fill="none" stroke="midnightblue" d="M157.257,-59.4868C171.703,-61.4918 185.992,-63.4752 198.201,-65.1699"/>
<polygon fill="midnightblue" stroke="midnightblue" points="157.642,-56.0067 147.256,-58.0986 156.679,-62.9402 157.642,-56.0067"/>
</g>
<!-- Node66 -->
<g id="node11" class="node"><title>Node66</title>
<g id="a_node11"><a xlink:href="eigensolver__complex_8cpp.html#a2b442fd51caf274bb034c1e95898f622" target="_top" xlink:title="eigensolver_verify\l_assert">
<polygon fill="none" stroke="black" points="183,-11 183,-41 285,-41 285,-11 183,-11"/>
<text text-anchor="start" x="191" y="-29" font-family="Helvetica,sans-Serif" font-size="10.00">eigensolver_verify</text>
<text text-anchor="middle" x="234" y="-18" font-family="Helvetica,sans-Serif" font-size="10.00">_assert</text>
</a>
</g>
</g>
<!-- Node56&#45;&gt;Node66 -->
<g id="edge10" class="edge"><title>Node56&#45;&gt;Node66</title>
<path fill="none" stroke="midnightblue" d="M157.441,-36.4877C166.115,-35.2837 174.731,-34.0879 182.87,-32.9581"/>
<polygon fill="midnightblue" stroke="midnightblue" points="156.679,-33.0598 147.256,-37.9014 157.642,-39.9933 156.679,-33.0598"/>
</g>
<!-- Node58 -->
<g id="node3" class="node"><title>Node58</title>
<g id="a_node3"><a xlink:href="classHamiltonianmatrix.html#a1db6d20a1d88ef89f1acdad819af34ee" target="_top" xlink:title="Hamiltonianmatrix::\ldiagonalize">
<polygon fill="none" stroke="black" points="331,-126 331,-156 442,-156 442,-126 331,-126"/>
<text text-anchor="start" x="339" y="-144" font-family="Helvetica,sans-Serif" font-size="10.00">Hamiltonianmatrix::</text>
<text text-anchor="middle" x="386.5" y="-133" font-family="Helvetica,sans-Serif" font-size="10.00">diagonalize</text>
</a>
</g>
</g>
<!-- Node57&#45;&gt;Node58 -->
<g id="edge2" class="edge"><title>Node57&#45;&gt;Node58</title>
<path fill="none" stroke="midnightblue" d="M259.529,-84.6375C276.476,-94.442 299.712,-107.283 321,-117 327.848,-120.125 335.231,-123.166 342.472,-125.974"/>
<polygon fill="midnightblue" stroke="midnightblue" points="261.213,-81.5677 250.814,-79.5422 257.68,-87.6108 261.213,-81.5677"/>
</g>
<!-- Node63 -->
<g id="node8" class="node"><title>Node63</title>
<g id="a_node8"><a xlink:href="classSystemBase.html#ae4fcbfd3d133482f310939849cd41764" target="_top" xlink:title="SystemBase\&lt; StateTwo\l \&gt;::diagonalize">
<polygon fill="none" stroke="black" points="321,-77 321,-107 452,-107 452,-77 321,-77"/>
<text text-anchor="start" x="329" y="-95" font-family="Helvetica,sans-Serif" font-size="10.00">SystemBase&lt; StateTwo</text>
<text text-anchor="middle" x="386.5" y="-84" font-family="Helvetica,sans-Serif" font-size="10.00"> &gt;::diagonalize</text>
</a>
</g>
</g>
<!-- Node57&#45;&gt;Node63 -->
<g id="edge7" class="edge"><title>Node57&#45;&gt;Node63</title>
<path fill="none" stroke="midnightblue" d="M279.583,-76.5171C292.561,-78.4142 307.006,-80.5258 320.951,-82.5643"/>
<polygon fill="midnightblue" stroke="midnightblue" points="279.929,-73.0306 269.528,-75.0472 278.916,-79.9569 279.929,-73.0306"/>
</g>
<!-- Node64 -->
<g id="node9" class="node"><title>Node64</title>
<g id="a_node9"><a xlink:href="TutorialLinAlgSelfAdjointEigenSolver_8cpp.html#ae66f6b31b5ad750f1fe042a706a4e3d4" target="_top" xlink:title="main">
<polygon fill="none" stroke="black" points="366,-38.5 366,-57.5 407,-57.5 407,-38.5 366,-38.5"/>
<text text-anchor="middle" x="386.5" y="-45.5" font-family="Helvetica,sans-Serif" font-size="10.00">main</text>
</a>
</g>
</g>
<!-- Node57&#45;&gt;Node64 -->
<g id="edge8" class="edge"><title>Node57&#45;&gt;Node64</title>
<path fill="none" stroke="midnightblue" d="M279.723,-63.4624C308.377,-59.2739 344.14,-54.0459 365.878,-50.8684"/>
<polygon fill="midnightblue" stroke="midnightblue" points="278.916,-60.0431 269.528,-64.9528 279.929,-66.9694 278.916,-60.0431"/>
</g>
<!-- Node65 -->
<g id="node10" class="node"><title>Node65</title>
<g id="a_node10"><a xlink:href="boostmultiprec_8cpp.html#af8983cadf0ba3b55cb55879f4b3d833d" target="_top" xlink:title="test_boostmultiprec">
<polygon fill="none" stroke="black" points="330,-0.5 330,-19.5 443,-19.5 443,-0.5 330,-0.5"/>
<text text-anchor="middle" x="386.5" y="-7.5" font-family="Helvetica,sans-Serif" font-size="10.00">test_boostmultiprec</text>
</a>
</g>
</g>
<!-- Node57&#45;&gt;Node65 -->
<g id="edge9" class="edge"><title>Node57&#45;&gt;Node65</title>
<path fill="none" stroke="midnightblue" d="M270.401,-56.5973C275.355,-54.5029 280.341,-52.2751 285,-50 301.644,-41.8715 303.992,-36.3372 321,-29 329.361,-25.3933 338.614,-22.2205 347.441,-19.5522"/>
<polygon fill="midnightblue" stroke="midnightblue" points="268.942,-53.4129 261.01,-60.4377 271.591,-59.892 268.942,-53.4129"/>
</g>
<!-- Node59 -->
<g id="node4" class="node"><title>Node59</title>
<g id="a_node4"><a xlink:href="classHamiltonianOne.html#a9cb71dcb34ab9f0779c0bd66b758185e" target="_top" xlink:title="HamiltonianOne::build">
<polygon fill="none" stroke="black" points="497,-150.5 497,-169.5 619,-169.5 619,-150.5 497,-150.5"/>
<text text-anchor="middle" x="558" y="-157.5" font-family="Helvetica,sans-Serif" font-size="10.00">HamiltonianOne::build</text>
</a>
</g>
</g>
<!-- Node58&#45;&gt;Node59 -->
<g id="edge3" class="edge"><title>Node58&#45;&gt;Node59</title>
<path fill="none" stroke="midnightblue" d="M452.102,-148.242C466.835,-149.893 482.43,-151.641 496.963,-153.27"/>
<polygon fill="midnightblue" stroke="midnightblue" points="452.392,-144.752 442.064,-147.116 451.612,-151.709 452.392,-144.752"/>
</g>
<!-- Node61 -->
<g id="node6" class="node"><title>Node61</title>
<g id="a_node6"><a xlink:href="classHamiltonianTwo.html#a6ca0a318f25170b69e571a07064a5afb" target="_top" xlink:title="HamiltonianTwo::calculate">
<polygon fill="none" stroke="black" points="488,-112.5 488,-131.5 628,-131.5 628,-112.5 488,-112.5"/>
<text text-anchor="middle" x="558" y="-119.5" font-family="Helvetica,sans-Serif" font-size="10.00">HamiltonianTwo::calculate</text>
</a>
</g>
</g>
<!-- Node58&#45;&gt;Node61 -->
<g id="edge5" class="edge"><title>Node58&#45;&gt;Node61</title>
<path fill="none" stroke="midnightblue" d="M452.184,-133.749C463.887,-132.437 476.131,-131.065 487.953,-129.74"/>
<polygon fill="midnightblue" stroke="midnightblue" points="451.612,-130.291 442.064,-134.884 452.392,-137.248 451.612,-130.291"/>
</g>
<!-- Node60 -->
<g id="node5" class="node"><title>Node60</title>
<g id="a_node5"><a xlink:href="classHamiltonianOne.html#ad3ba2d70879a60c9f065b5a2545dfe36" target="_top" xlink:title="HamiltonianOne::HamiltonianOne">
<polygon fill="none" stroke="black" points="664,-150.5 664,-169.5 841,-169.5 841,-150.5 664,-150.5"/>
<text text-anchor="middle" x="752.5" y="-157.5" font-family="Helvetica,sans-Serif" font-size="10.00">HamiltonianOne::HamiltonianOne</text>
</a>
</g>
</g>
<!-- Node59&#45;&gt;Node60 -->
<g id="edge4" class="edge"><title>Node59&#45;&gt;Node60</title>
<path fill="none" stroke="midnightblue" d="M629.306,-160C640.58,-160 652.367,-160 663.982,-160"/>
<polygon fill="midnightblue" stroke="midnightblue" points="629.116,-156.5 619.116,-160 629.116,-163.5 629.116,-156.5"/>
</g>
<!-- Node62 -->
<g id="node7" class="node"><title>Node62</title>
<g id="a_node7"><a xlink:href="classHamiltonianTwo.html#a8d51d632bd7862cf1e566f6faf9ccc8c" target="_top" xlink:title="HamiltonianTwo::HamiltonianTwo">
<polygon fill="none" stroke="black" points="667,-112.5 667,-131.5 838,-131.5 838,-112.5 667,-112.5"/>
<text text-anchor="middle" x="752.5" y="-119.5" font-family="Helvetica,sans-Serif" font-size="10.00">HamiltonianTwo::HamiltonianTwo</text>
</a>
</g>
</g>
<!-- Node61&#45;&gt;Node62 -->
<g id="edge6" class="edge"><title>Node61&#45;&gt;Node62</title>
<path fill="none" stroke="midnightblue" d="M638.311,-122C647.703,-122 657.317,-122 666.78,-122"/>
<polygon fill="midnightblue" stroke="midnightblue" points="638.225,-118.5 628.225,-122 638.225,-125.5 638.225,-118.5"/>
</g>
</g>
</svg>
