<?xml version="1.0" encoding="UTF-8" standalone="no"?>
<!DOCTYPE svg PUBLIC "-//W3C//DTD SVG 1.1//EN"
 "http://www.w3.org/Graphics/SVG/1.1/DTD/svg11.dtd">
<!-- Generated by graphviz version 2.38.0 (20140413.2041)
 -->
<!-- Title: Hamiltonianmatrix::diagonalize Pages: 1 -->
<svg width="508pt" height="66pt"
 viewBox="0.00 0.00 508.00 66.00" xmlns="http://www.w3.org/2000/svg" xmlns:xlink="http://www.w3.org/1999/xlink">
<g id="graph0" class="graph" transform="scale(1 1) rotate(0) translate(4 62)">
<title>Hamiltonianmatrix::diagonalize</title>
<!-- Node66 -->
<g id="node1" class="node"><title>Node66</title>
<polygon fill="#bfbfbf" stroke="black" points="0,-14 0,-44 111,-44 111,-14 0,-14"/>
<text text-anchor="start" x="8" y="-32" font-family="Helvetica,sans-Serif" font-size="10.00">Hamiltonianmatrix::</text>
<text text-anchor="middle" x="55.5" y="-21" font-family="Helvetica,sans-Serif" font-size="10.00">diagonalize</text>
</g>
<!-- Node67 -->
<g id="node2" class="node"><title>Node67</title>
<g id="a_node2"><a xlink:href="classHamiltonianOne.html#a9cb71dcb34ab9f0779c0bd66b758185e" target="_top" xlink:title="HamiltonianOne::build">
<polygon fill="none" stroke="black" points="156,-38.5 156,-57.5 278,-57.5 278,-38.5 156,-38.5"/>
<text text-anchor="middle" x="217" y="-45.5" font-family="Helvetica,sans-Serif" font-size="10.00">HamiltonianOne::build</text>
</a>
</g>
</g>
<!-- Node66&#45;&gt;Node67 -->
<g id="edge1" class="edge"><title>Node66&#45;&gt;Node67</title>
<path fill="none" stroke="midnightblue" d="M121.634,-36.7589C132.941,-38.1059 144.655,-39.5012 155.822,-40.8315"/>
<polygon fill="midnightblue" stroke="midnightblue" points="121.735,-33.2462 111.391,-35.5387 120.907,-40.1971 121.735,-33.2462"/>
</g>
<!-- Node69 -->
<g id="node4" class="node"><title>Node69</title>
<g id="a_node4"><a xlink:href="classHamiltonianTwo.html#a6ca0a318f25170b69e571a07064a5afb" target="_top" xlink:title="HamiltonianTwo::calculate">
<polygon fill="none" stroke="black" points="147,-0.5 147,-19.5 287,-19.5 287,-0.5 147,-0.5"/>
<text text-anchor="middle" x="217" y="-7.5" font-family="Helvetica,sans-Serif" font-size="10.00">HamiltonianTwo::calculate</text>
</a>
</g>
</g>
<!-- Node66&#45;&gt;Node69 -->
<g id="edge3" class="edge"><title>Node66&#45;&gt;Node69</title>
<path fill="none" stroke="midnightblue" d="M121.479,-21.2595C129.863,-20.2608 138.473,-19.2352 146.92,-18.229"/>
<polygon fill="midnightblue" stroke="midnightblue" points="120.907,-17.8029 111.391,-22.4613 121.735,-24.7538 120.907,-17.8029"/>
</g>
<!-- Node68 -->
<g id="node3" class="node"><title>Node68</title>
<g id="a_node3"><a xlink:href="classHamiltonianOne.html#ad3ba2d70879a60c9f065b5a2545dfe36" target="_top" xlink:title="HamiltonianOne::HamiltonianOne">
<polygon fill="none" stroke="black" points="323,-38.5 323,-57.5 500,-57.5 500,-38.5 323,-38.5"/>
<text text-anchor="middle" x="411.5" y="-45.5" font-family="Helvetica,sans-Serif" font-size="10.00">HamiltonianOne::HamiltonianOne</text>
</a>
</g>
</g>
<!-- Node67&#45;&gt;Node68 -->
<g id="edge2" class="edge"><title>Node67&#45;&gt;Node68</title>
<path fill="none" stroke="midnightblue" d="M288.306,-48C299.58,-48 311.367,-48 322.982,-48"/>
<polygon fill="midnightblue" stroke="midnightblue" points="288.116,-44.5001 278.116,-48 288.116,-51.5001 288.116,-44.5001"/>
</g>
<!-- Node70 -->
<g id="node5" class="node"><title>Node70</title>
<g id="a_node5"><a xlink:href="classHamiltonianTwo.html#a8d51d632bd7862cf1e566f6faf9ccc8c" target="_top" xlink:title="HamiltonianTwo::HamiltonianTwo">
<polygon fill="none" stroke="black" points="326,-0.5 326,-19.5 497,-19.5 497,-0.5 326,-0.5"/>
<text text-anchor="middle" x="411.5" y="-7.5" font-family="Helvetica,sans-Serif" font-size="10.00">HamiltonianTwo::HamiltonianTwo</text>
</a>
</g>
</g>
<!-- Node69&#45;&gt;Node70 -->
<g id="edge4" class="edge"><title>Node69&#45;&gt;Node70</title>
<path fill="none" stroke="midnightblue" d="M297.311,-10C306.703,-10 316.317,-10 325.78,-10"/>
<polygon fill="midnightblue" stroke="midnightblue" points="297.225,-6.5001 287.225,-10 297.225,-13.5001 297.225,-6.5001"/>
</g>
</g>
</svg>
