<?xml version="1.0" encoding="UTF-8" standalone="no"?>
<!DOCTYPE svg PUBLIC "-//W3C//DTD SVG 1.1//EN"
 "http://www.w3.org/Graphics/SVG/1.1/DTD/svg11.dtd">
<!-- Generated by graphviz version 2.38.0 (20140413.2041)
 -->
<!-- Title: Eigen::SparseVector&lt; _Scalar, _Options, _StorageIndex &gt; Pages: 1 -->
<svg width="888pt" height="223pt"
 viewBox="0.00 0.00 888.00 223.00" xmlns="http://www.w3.org/2000/svg" xmlns:xlink="http://www.w3.org/1999/xlink">
<g id="graph0" class="graph" transform="scale(1 1) rotate(0) translate(4 219)">
<title>Eigen::SparseVector&lt; _Scalar, _Options, _StorageIndex &gt;</title>
<!-- Node4 -->
<g id="node1" class="node"><title>Node4</title>
<polygon fill="#bfbfbf" stroke="black" points="766,-98.5 766,-139.5 880,-139.5 880,-98.5 766,-98.5"/>
<text text-anchor="start" x="774" y="-127.5" font-family="Helvetica,sans-Serif" font-size="10.00">Eigen::SparseVector</text>
<text text-anchor="start" x="774" y="-116.5" font-family="Helvetica,sans-Serif" font-size="10.00">&lt; _Scalar, _Options,</text>
<text text-anchor="middle" x="823" y="-105.5" font-family="Helvetica,sans-Serif" font-size="10.00"> _StorageIndex &gt;</text>
</g>
<!-- Node5 -->
<g id="node2" class="node"><title>Node5</title>
<g id="a_node2"><a xlink:href="classEigen_1_1SparseCompressedBase.html" target="_top" xlink:title="Eigen::SparseCompressedBase\l\&lt; SparseVector\&lt; _Scalar,\l _Options, _StorageIndex \&gt; \&gt;">
<polygon fill="none" stroke="black" points="518,-148.5 518,-189.5 685,-189.5 685,-148.5 518,-148.5"/>
<text text-anchor="start" x="526" y="-177.5" font-family="Helvetica,sans-Serif" font-size="10.00">Eigen::SparseCompressedBase</text>
<text text-anchor="start" x="526" y="-166.5" font-family="Helvetica,sans-Serif" font-size="10.00">&lt; SparseVector&lt; _Scalar,</text>
<text text-anchor="middle" x="601.5" y="-155.5" font-family="Helvetica,sans-Serif" font-size="10.00"> _Options, _StorageIndex &gt; &gt;</text>
</a>
</g>
</g>
<!-- Node5&#45;&gt;Node4 -->
<g id="edge1" class="edge"><title>Node5&#45;&gt;Node4</title>
<path fill="none" stroke="midnightblue" d="M695.017,-147.926C719.023,-142.457 744.157,-136.732 765.67,-131.831"/>
<polygon fill="midnightblue" stroke="midnightblue" points="694.144,-144.535 685.171,-150.168 695.698,-151.36 694.144,-144.535"/>
</g>
<!-- Node6 -->
<g id="node3" class="node"><title>Node6</title>
<g id="a_node3"><a xlink:href="classEigen_1_1SparseMatrixBase.html" target="_top" xlink:title="Eigen::SparseMatrixBase\l\&lt; SparseVector\&lt; _Scalar,\l _Options, _StorageIndex \&gt; \&gt;">
<polygon fill="none" stroke="black" points="239,-148.5 239,-189.5 398,-189.5 398,-148.5 239,-148.5"/>
<text text-anchor="start" x="247" y="-177.5" font-family="Helvetica,sans-Serif" font-size="10.00">Eigen::SparseMatrixBase</text>
<text text-anchor="start" x="247" y="-166.5" font-family="Helvetica,sans-Serif" font-size="10.00">&lt; SparseVector&lt; _Scalar,</text>
<text text-anchor="middle" x="318.5" y="-155.5" font-family="Helvetica,sans-Serif" font-size="10.00"> _Options, _StorageIndex &gt; &gt;</text>
</a>
</g>
</g>
<!-- Node6&#45;&gt;Node5 -->
<g id="edge2" class="edge"><title>Node6&#45;&gt;Node5</title>
<path fill="none" stroke="midnightblue" d="M408.379,-169C443.455,-169 483.517,-169 517.949,-169"/>
<polygon fill="midnightblue" stroke="midnightblue" points="408.148,-165.5 398.148,-169 408.148,-172.5 408.148,-165.5"/>
</g>
<!-- Node7 -->
<g id="node4" class="node"><title>Node7</title>
<g id="a_node4"><a xlink:href="structEigen_1_1EigenBase.html" target="_top" xlink:title="Eigen::EigenBase\&lt; Sparse\lVector\&lt; _Scalar, _Options,\l _StorageIndex \&gt; \&gt;">
<polygon fill="none" stroke="black" points="0,-173.5 0,-214.5 145,-214.5 145,-173.5 0,-173.5"/>
<text text-anchor="start" x="8" y="-202.5" font-family="Helvetica,sans-Serif" font-size="10.00">Eigen::EigenBase&lt; Sparse</text>
<text text-anchor="start" x="8" y="-191.5" font-family="Helvetica,sans-Serif" font-size="10.00">Vector&lt; _Scalar, _Options,</text>
<text text-anchor="middle" x="72.5" y="-180.5" font-family="Helvetica,sans-Serif" font-size="10.00"> _StorageIndex &gt; &gt;</text>
</a>
</g>
</g>
<!-- Node7&#45;&gt;Node6 -->
<g id="edge3" class="edge"><title>Node7&#45;&gt;Node6</title>
<path fill="none" stroke="midnightblue" d="M155.217,-185.627C182.13,-182.87 211.988,-179.811 238.681,-177.076"/>
<polygon fill="midnightblue" stroke="midnightblue" points="154.651,-182.167 145.059,-186.668 155.364,-189.131 154.651,-182.167"/>
</g>
<!-- Node8 -->
<g id="node5" class="node"><title>Node8</title>
<g id="a_node5"><a xlink:href="classbool.html" target="_top" xlink:title="bool">
<polygon fill="none" stroke="black" points="54,-135.5 54,-154.5 91,-154.5 91,-135.5 54,-135.5"/>
<text text-anchor="middle" x="72.5" y="-142.5" font-family="Helvetica,sans-Serif" font-size="10.00">bool</text>
</a>
</g>
</g>
<!-- Node8&#45;&gt;Node6 -->
<g id="edge4" class="edge"><title>Node8&#45;&gt;Node6</title>
<path fill="none" stroke="#9a32cd" stroke-dasharray="5,2" d="M101.381,-147.742C134.69,-151.019 191.833,-156.639 238.996,-161.278"/>
<polygon fill="#9a32cd" stroke="#9a32cd" points="101.342,-144.222 91.0479,-146.726 100.657,-151.188 101.342,-144.222"/>
<text text-anchor="middle" x="192" y="-163" font-family="Helvetica,sans-Serif" font-size="10.00"> m_isRValue</text>
</g>
<!-- Node9 -->
<g id="node6" class="node"><title>Node9</title>
<polygon fill="none" stroke="#bfbfbf" points="253,-88 253,-118 384,-118 384,-88 253,-88"/>
<text text-anchor="start" x="261" y="-106" font-family="Helvetica,sans-Serif" font-size="10.00">EIGEN_DEFAULT_DENSE</text>
<text text-anchor="middle" x="318.5" y="-95" font-family="Helvetica,sans-Serif" font-size="10.00">_INDEX_TYPE</text>
</g>
<!-- Node9&#45;&gt;Node4 -->
<g id="edge5" class="edge"><title>Node9&#45;&gt;Node4</title>
<path fill="none" stroke="#9a32cd" stroke-dasharray="5,2" d="M394.34,-105.383C495.834,-108.615 674.851,-114.315 765.707,-117.208"/>
<polygon fill="#9a32cd" stroke="#9a32cd" points="394.271,-101.879 384.164,-105.059 394.048,-108.876 394.271,-101.879"/>
<text text-anchor="middle" x="601.5" y="-118" font-family="Helvetica,sans-Serif" font-size="10.00"> m_size</text>
</g>
<!-- Node10 -->
<g id="node7" class="node"><title>Node10</title>
<g id="a_node7"><a xlink:href="classEigen_1_1internal_1_1CompressedStorage.html" target="_top" xlink:title="Eigen::internal::Compressed\lStorage\&lt; Scalar, StorageIndex \&gt;">
<polygon fill="none" stroke="black" points="513,-42 513,-72 690,-72 690,-42 513,-42"/>
<text text-anchor="start" x="521" y="-60" font-family="Helvetica,sans-Serif" font-size="10.00">Eigen::internal::Compressed</text>
<text text-anchor="middle" x="601.5" y="-49" font-family="Helvetica,sans-Serif" font-size="10.00">Storage&lt; Scalar, StorageIndex &gt;</text>
</a>
</g>
</g>
<!-- Node9&#45;&gt;Node10 -->
<g id="edge7" class="edge"><title>Node9&#45;&gt;Node10</title>
<path fill="none" stroke="#9a32cd" stroke-dasharray="5,2" d="M394.071,-87.048C401.468,-85.615 408.873,-84.2394 416,-83 447.391,-77.541 481.94,-72.4337 512.57,-68.2156"/>
<polygon fill="#9a32cd" stroke="#9a32cd" points="393.15,-83.662 384.016,-89.0301 394.504,-90.5298 393.15,-83.662"/>
<text text-anchor="middle" x="455.5" y="-97" font-family="Helvetica,sans-Serif" font-size="10.00"> m_size</text>
<text text-anchor="middle" x="455.5" y="-86" font-family="Helvetica,sans-Serif" font-size="10.00">m_allocatedSize</text>
</g>
<!-- Node10&#45;&gt;Node4 -->
<g id="edge6" class="edge"><title>Node10&#45;&gt;Node4</title>
<path fill="none" stroke="#9a32cd" stroke-dasharray="5,2" d="M675.933,-74.5066C699.093,-80.3397 724.708,-87.1149 748,-94 753.852,-95.7298 759.933,-97.6239 765.982,-99.5712"/>
<polygon fill="#9a32cd" stroke="#9a32cd" points="676.722,-71.0961 666.172,-72.0668 675.025,-77.8872 676.722,-71.0961"/>
<text text-anchor="middle" x="728" y="-97" font-family="Helvetica,sans-Serif" font-size="10.00"> m_data</text>
</g>
<!-- Node11 -->
<g id="node8" class="node"><title>Node11</title>
<polygon fill="none" stroke="#bfbfbf" points="274,-38.5 274,-57.5 363,-57.5 363,-38.5 274,-38.5"/>
<text text-anchor="middle" x="318.5" y="-45.5" font-family="Helvetica,sans-Serif" font-size="10.00">StorageIndex *</text>
</g>
<!-- Node11&#45;&gt;Node10 -->
<g id="edge8" class="edge"><title>Node11&#45;&gt;Node10</title>
<path fill="none" stroke="#9a32cd" stroke-dasharray="5,2" d="M373.545,-47.3318C408.259,-47.1439 454.305,-47.3432 495,-49 500.781,-49.2354 506.737,-49.534 512.737,-49.8766"/>
<polygon fill="#9a32cd" stroke="#9a32cd" points="373.13,-43.8344 363.154,-47.4014 373.177,-50.8343 373.13,-43.8344"/>
<text text-anchor="middle" x="455.5" y="-52" font-family="Helvetica,sans-Serif" font-size="10.00"> m_indices</text>
</g>
<!-- Node12 -->
<g id="node9" class="node"><title>Node12</title>
<polygon fill="none" stroke="#bfbfbf" points="291,-0.5 291,-19.5 346,-19.5 346,-0.5 291,-0.5"/>
<text text-anchor="middle" x="318.5" y="-7.5" font-family="Helvetica,sans-Serif" font-size="10.00">Scalar *</text>
</g>
<!-- Node12&#45;&gt;Node10 -->
<g id="edge9" class="edge"><title>Node12&#45;&gt;Node10</title>
<path fill="none" stroke="#9a32cd" stroke-dasharray="5,2" d="M356.472,-13.8299C392.096,-17.7592 447.438,-24.4926 495,-33 509.238,-35.5467 524.455,-38.7326 538.775,-41.9429"/>
<polygon fill="#9a32cd" stroke="#9a32cd" points="356.4,-10.3015 346.08,-12.7016 355.644,-17.2606 356.4,-10.3015"/>
<text text-anchor="middle" x="455.5" y="-36" font-family="Helvetica,sans-Serif" font-size="10.00"> m_values</text>
</g>
</g>
</svg>
