<?xml version="1.0" encoding="UTF-8" standalone="no"?>
<!DOCTYPE svg PUBLIC "-//W3C//DTD SVG 1.1//EN"
 "http://www.w3.org/Graphics/SVG/1.1/DTD/svg11.dtd">
<!-- Generated by graphviz version 2.38.0 (20140413.2041)
 -->
<!-- Title: Eigen::internal::SparseTransposeImpl&lt; MatrixType, CompressedAccess &gt; Pages: 1 -->
<svg width="218pt" height="173pt"
 viewBox="0.00 0.00 218.00 173.00" xmlns="http://www.w3.org/2000/svg" xmlns:xlink="http://www.w3.org/1999/xlink">
<g id="graph0" class="graph" transform="scale(1 1) rotate(0) translate(4 169)">
<title>Eigen::internal::SparseTransposeImpl&lt; MatrixType, CompressedAccess &gt;</title>
<!-- Node0 -->
<g id="node1" class="node"><title>Node0</title>
<polygon fill="#bfbfbf" stroke="black" points="0,-0.5 0,-30.5 210,-30.5 210,-0.5 0,-0.5"/>
<text text-anchor="start" x="8" y="-18.5" font-family="Helvetica,sans-Serif" font-size="10.00">Eigen::internal::SparseTranspose</text>
<text text-anchor="middle" x="105" y="-7.5" font-family="Helvetica,sans-Serif" font-size="10.00">Impl&lt; MatrixType, CompressedAccess &gt;</text>
</g>
<!-- Node1 -->
<g id="node2" class="node"><title>Node1</title>
<g id="a_node2"><a xlink:href="classEigen_1_1SparseMatrixBase.html" target="_top" xlink:title="Eigen::SparseMatrixBase\l\&lt; Transpose\&lt; MatrixType \&gt; \&gt;">
<polygon fill="none" stroke="black" points="25,-67.5 25,-97.5 185,-97.5 185,-67.5 25,-67.5"/>
<text text-anchor="start" x="33" y="-85.5" font-family="Helvetica,sans-Serif" font-size="10.00">Eigen::SparseMatrixBase</text>
<text text-anchor="middle" x="105" y="-74.5" font-family="Helvetica,sans-Serif" font-size="10.00">&lt; Transpose&lt; MatrixType &gt; &gt;</text>
</a>
</g>
</g>
<!-- Node1&#45;&gt;Node0 -->
<g id="edge1" class="edge"><title>Node1&#45;&gt;Node0</title>
<path fill="none" stroke="midnightblue" d="M105,-57.1081C105,-48.1539 105,-38.3227 105,-30.5765"/>
<polygon fill="midnightblue" stroke="midnightblue" points="101.5,-57.3959 105,-67.396 108.5,-57.396 101.5,-57.3959"/>
</g>
<!-- Node2 -->
<g id="node3" class="node"><title>Node2</title>
<g id="a_node3"><a xlink:href="structEigen_1_1EigenBase.html" target="_top" xlink:title="Eigen::EigenBase\&lt; Transpose\l\&lt; MatrixType \&gt; \&gt;">
<polygon fill="none" stroke="black" points="26,-134.5 26,-164.5 184,-164.5 184,-134.5 26,-134.5"/>
<text text-anchor="start" x="34" y="-152.5" font-family="Helvetica,sans-Serif" font-size="10.00">Eigen::EigenBase&lt; Transpose</text>
<text text-anchor="middle" x="105" y="-141.5" font-family="Helvetica,sans-Serif" font-size="10.00">&lt; MatrixType &gt; &gt;</text>
</a>
</g>
</g>
<!-- Node2&#45;&gt;Node1 -->
<g id="edge2" class="edge"><title>Node2&#45;&gt;Node1</title>
<path fill="none" stroke="midnightblue" d="M105,-124.108C105,-115.154 105,-105.323 105,-97.5765"/>
<polygon fill="midnightblue" stroke="midnightblue" points="101.5,-124.396 105,-134.396 108.5,-124.396 101.5,-124.396"/>
</g>
</g>
</svg>
