<?xml version="1.0" encoding="UTF-8" standalone="no"?>
<!DOCTYPE svg PUBLIC "-//W3C//DTD SVG 1.1//EN"
 "http://www.w3.org/Graphics/SVG/1.1/DTD/svg11.dtd">
<!-- Generated by graphviz version 2.38.0 (20140413.2041)
 -->
<!-- Title: Eigen::JacobiRotation::makeGivens Pages: 1 -->
<svg width="228pt" height="180pt"
 viewBox="0.00 0.00 228.00 180.00" xmlns="http://www.w3.org/2000/svg" xmlns:xlink="http://www.w3.org/1999/xlink">
<g id="graph0" class="graph" transform="scale(1 1) rotate(0) translate(4 176)">
<title>Eigen::JacobiRotation::makeGivens</title>
<!-- Node94 -->
<g id="node1" class="node"><title>Node94</title>
<polygon fill="#bfbfbf" stroke="black" points="0,-71 0,-101 116,-101 116,-71 0,-71"/>
<text text-anchor="start" x="8" y="-89" font-family="Helvetica,sans-Serif" font-size="10.00">Eigen::JacobiRotation</text>
<text text-anchor="middle" x="58" y="-78" font-family="Helvetica,sans-Serif" font-size="10.00">::makeGivens</text>
</g>
<!-- Node95 -->
<g id="node2" class="node"><title>Node95</title>
<g id="a_node2"><a xlink:href="ArrayCwiseUnaryOps_8h.html#a35560f7dbf19244fda7e463d14157c43" target="_top" xlink:title="abs">
<polygon fill="none" stroke="black" points="169,-152.5 169,-171.5 203,-171.5 203,-152.5 169,-152.5"/>
<text text-anchor="middle" x="186" y="-159.5" font-family="Helvetica,sans-Serif" font-size="10.00">abs</text>
</a>
</g>
</g>
<!-- Node94&#45;&gt;Node95 -->
<g id="edge1" class="edge"><title>Node94&#45;&gt;Node95</title>
<path fill="none" stroke="midnightblue" d="M83.365,-101.185C102.061,-112.776 128.557,-129.07 152,-143 154.558,-144.52 157.236,-146.092 159.913,-147.652"/>
<polygon fill="midnightblue" stroke="midnightblue" points="158.426,-150.835 168.835,-152.811 161.93,-144.775 158.426,-150.835"/>
</g>
<!-- Node96 -->
<g id="node3" class="node"><title>Node96</title>
<g id="a_node3"><a xlink:href="ArrayCwiseUnaryOps_8h.html#a4921dbe62d034394f6fa7810e8711356" target="_top" xlink:title="abs2">
<polygon fill="none" stroke="black" points="166,-114.5 166,-133.5 206,-133.5 206,-114.5 166,-114.5"/>
<text text-anchor="middle" x="186" y="-121.5" font-family="Helvetica,sans-Serif" font-size="10.00">abs2</text>
</a>
</g>
</g>
<!-- Node94&#45;&gt;Node96 -->
<g id="edge2" class="edge"><title>Node94&#45;&gt;Node96</title>
<path fill="none" stroke="midnightblue" d="M108.799,-101.019C124.851,-105.86 142.1,-111.062 156.121,-115.29"/>
<polygon fill="midnightblue" stroke="midnightblue" points="155.111,-118.642 165.696,-118.178 157.133,-111.94 155.111,-118.642"/>
</g>
<!-- Node97 -->
<g id="node4" class="node"><title>Node97</title>
<g id="a_node4"><a xlink:href="exceptions_8cpp.html#a75f785bf0f51cbc94279c80d143642ae" target="_top" xlink:title="conj">
<polygon fill="none" stroke="black" points="168,-76.5 168,-95.5 204,-95.5 204,-76.5 168,-76.5"/>
<text text-anchor="middle" x="186" y="-83.5" font-family="Helvetica,sans-Serif" font-size="10.00">conj</text>
</a>
</g>
</g>
<!-- Node94&#45;&gt;Node97 -->
<g id="edge3" class="edge"><title>Node94&#45;&gt;Node97</title>
<path fill="none" stroke="midnightblue" d="M116.101,-86C130.459,-86 145.229,-86 157.393,-86"/>
<polygon fill="midnightblue" stroke="midnightblue" points="157.744,-89.5001 167.744,-86 157.744,-82.5001 157.744,-89.5001"/>
</g>
<!-- Node98 -->
<g id="node5" class="node"><title>Node98</title>
<g id="a_node5"><a xlink:href="namespaceEigen.html#abf77613d5f9e90497c6d3e01f915b588" target="_top" xlink:title="Eigen::conj">
<polygon fill="none" stroke="black" points="152,-38.5 152,-57.5 220,-57.5 220,-38.5 152,-38.5"/>
<text text-anchor="middle" x="186" y="-45.5" font-family="Helvetica,sans-Serif" font-size="10.00">Eigen::conj</text>
</a>
</g>
</g>
<!-- Node94&#45;&gt;Node98 -->
<g id="edge4" class="edge"><title>Node94&#45;&gt;Node98</title>
<path fill="none" stroke="midnightblue" d="M108.799,-70.9814C120.28,-67.5189 132.373,-63.8716 143.46,-60.528"/>
<polygon fill="midnightblue" stroke="midnightblue" points="144.748,-63.7952 153.312,-57.5568 142.727,-57.0934 144.748,-63.7952"/>
</g>
<!-- Node99 -->
<g id="node6" class="node"><title>Node99</title>
<g id="a_node6"><a xlink:href="ArrayCwiseUnaryOps_8h.html#a656b9217a2fcb6de59dc8d1eb3079cc7" target="_top" xlink:title="sqrt">
<polygon fill="none" stroke="black" points="168.5,-0.5 168.5,-19.5 203.5,-19.5 203.5,-0.5 168.5,-0.5"/>
<text text-anchor="middle" x="186" y="-7.5" font-family="Helvetica,sans-Serif" font-size="10.00">sqrt</text>
</a>
</g>
</g>
<!-- Node94&#45;&gt;Node99 -->
<g id="edge5" class="edge"><title>Node94&#45;&gt;Node99</title>
<path fill="none" stroke="midnightblue" d="M83.365,-70.8145C102.061,-59.2235 128.557,-42.9296 152,-29 154.504,-27.512 157.124,-25.9734 159.745,-24.4457"/>
<polygon fill="midnightblue" stroke="midnightblue" points="161.595,-27.4194 168.498,-19.3827 158.09,-21.36 161.595,-27.4194"/>
</g>
</g>
</svg>
