<?xml version="1.0" encoding="UTF-8" standalone="no"?>
<!DOCTYPE svg PUBLIC "-//W3C//DTD SVG 1.1//EN"
 "http://www.w3.org/Graphics/SVG/1.1/DTD/svg11.dtd">
<!-- Generated by graphviz version 2.38.0 (20140413.2041)
 -->
<!-- Title: Action_matrix_matrix_product_bis::calculate Pages: 1 -->
<svg width="302pt" height="116pt"
 viewBox="0.00 0.00 302.00 116.00" xmlns="http://www.w3.org/2000/svg" xmlns:xlink="http://www.w3.org/1999/xlink">
<g id="graph0" class="graph" transform="scale(1 1) rotate(0) translate(4 112)">
<title>Action_matrix_matrix_product_bis::calculate</title>
<!-- Node0 -->
<g id="node1" class="node"><title>Node0</title>
<polygon fill="#bfbfbf" stroke="black" points="0,-39 0,-69 126,-69 126,-39 0,-39"/>
<text text-anchor="start" x="8" y="-57" font-family="Helvetica,sans-Serif" font-size="10.00">Action_matrix_matrix</text>
<text text-anchor="middle" x="63" y="-46" font-family="Helvetica,sans-Serif" font-size="10.00">_product_bis::calculate</text>
</g>
<!-- Node1 -->
<g id="node2" class="node"><title>Node1</title>
<g id="a_node2"><a xlink:href="Cwise__array__power__array_8cpp.html#aa9e3025f5efca2c2a39d785652f2d710" target="_top" xlink:title="e">
<polygon fill="none" stroke="black" points="213.5,-88.5 213.5,-107.5 242.5,-107.5 242.5,-88.5 213.5,-88.5"/>
<text text-anchor="middle" x="228" y="-95.5" font-family="Helvetica,sans-Serif" font-size="10.00">e</text>
</a>
</g>
</g>
<!-- Node0&#45;&gt;Node1 -->
<g id="edge1" class="edge"><title>Node0&#45;&gt;Node1</title>
<path fill="none" stroke="midnightblue" d="M119.639,-69.0192C148.33,-76.7641 181.792,-85.7965 203.634,-91.6926"/>
<polygon fill="midnightblue" stroke="midnightblue" points="202.785,-95.0886 213.351,-94.3157 204.609,-88.3305 202.785,-95.0886"/>
</g>
<!-- Node2 -->
<g id="node3" class="node"><title>Node2</title>
<g id="a_node3"><a xlink:href="classSTL__interface.html#a062057e758b4cc7e84a2e5d900f0527d" target="_top" xlink:title="STL_interface::matrix\l_matrix_product">
<polygon fill="none" stroke="black" points="169,-39 169,-69 287,-69 287,-39 169,-39"/>
<text text-anchor="start" x="177" y="-57" font-family="Helvetica,sans-Serif" font-size="10.00">STL_interface::matrix</text>
<text text-anchor="middle" x="228" y="-46" font-family="Helvetica,sans-Serif" font-size="10.00">_matrix_product</text>
</a>
</g>
</g>
<!-- Node0&#45;&gt;Node2 -->
<g id="edge2" class="edge"><title>Node0&#45;&gt;Node2</title>
<path fill="none" stroke="midnightblue" d="M126.088,-54C136.724,-54 147.828,-54 158.618,-54"/>
<polygon fill="midnightblue" stroke="midnightblue" points="158.84,-57.5001 168.84,-54 158.84,-50.5001 158.84,-57.5001"/>
</g>
<!-- Node3 -->
<g id="node4" class="node"><title>Node3</title>
<g id="a_node4"><a xlink:href="classSTL__interface.html#ae22df884fd2657f82119665d11ba07e4" target="_top" xlink:title="STL_interface::norm_diff">
<polygon fill="none" stroke="black" points="162,-0.5 162,-19.5 294,-19.5 294,-0.5 162,-0.5"/>
<text text-anchor="middle" x="228" y="-7.5" font-family="Helvetica,sans-Serif" font-size="10.00">STL_interface::norm_diff</text>
</a>
</g>
</g>
<!-- Node0&#45;&gt;Node3 -->
<g id="edge3" class="edge"><title>Node0&#45;&gt;Node3</title>
<path fill="none" stroke="midnightblue" d="M119.639,-38.9808C139.902,-33.5112 162.543,-27.3993 181.791,-22.2036"/>
<polygon fill="midnightblue" stroke="midnightblue" points="182.775,-25.5635 191.517,-19.5783 180.95,-18.8054 182.775,-25.5635"/>
</g>
</g>
</svg>
