<?xml version="1.0" encoding="UTF-8" standalone="no"?>
<!DOCTYPE svg PUBLIC "-//W3C//DTD SVG 1.1//EN"
 "http://www.w3.org/Graphics/SVG/1.1/DTD/svg11.dtd">
<!-- Generated by graphviz version 2.38.0 (20140413.2041)
 -->
<!-- Title: Eigen::DenseStorage::rows Pages: 1 -->
<svg width="1286pt" height="644pt"
 viewBox="0.00 0.00 1286.00 644.00" xmlns="http://www.w3.org/2000/svg" xmlns:xlink="http://www.w3.org/1999/xlink">
<g id="graph0" class="graph" transform="scale(1 1) rotate(0) translate(4 640)">
<title>Eigen::DenseStorage::rows</title>
<!-- Node101 -->
<g id="node1" class="node"><title>Node101</title>
<polygon fill="#bfbfbf" stroke="black" points="0,-181.5 0,-211.5 118,-211.5 118,-181.5 0,-181.5"/>
<text text-anchor="start" x="8" y="-199.5" font-family="Helvetica,sans-Serif" font-size="10.00">Eigen::DenseStorage</text>
<text text-anchor="middle" x="59" y="-188.5" font-family="Helvetica,sans-Serif" font-size="10.00">::rows</text>
</g>
<!-- Node102 -->
<g id="node2" class="node"><title>Node102</title>
<g id="a_node2"><a xlink:href="classEigen_1_1PlainObjectBase.html#afbfc12954f16d21aedb7bd839f64a278" target="_top" xlink:title="Eigen::PlainObjectBase\l\&lt; Matrix\&lt; _Scalar, _Rows,\l _Cols, _Options, _MaxRows,\l _MaxCols \&gt; \&gt;::coeff">
<polygon fill="none" stroke="black" points="154,-408.5 154,-460.5 304,-460.5 304,-408.5 154,-408.5"/>
<text text-anchor="start" x="162" y="-448.5" font-family="Helvetica,sans-Serif" font-size="10.00">Eigen::PlainObjectBase</text>
<text text-anchor="start" x="162" y="-437.5" font-family="Helvetica,sans-Serif" font-size="10.00">&lt; Matrix&lt; _Scalar, _Rows,</text>
<text text-anchor="start" x="162" y="-426.5" font-family="Helvetica,sans-Serif" font-size="10.00"> _Cols, _Options, _MaxRows,</text>
<text text-anchor="middle" x="229" y="-415.5" font-family="Helvetica,sans-Serif" font-size="10.00"> _MaxCols &gt; &gt;::coeff</text>
</a>
</g>
</g>
<!-- Node101&#45;&gt;Node102 -->
<g id="edge1" class="edge"><title>Node101&#45;&gt;Node102</title>
<path fill="none" stroke="midnightblue" d="M76.5545,-219.952C108.07,-264.6 176.481,-361.515 209.472,-408.252"/>
<polygon fill="midnightblue" stroke="midnightblue" points="79.391,-217.901 70.7647,-211.75 73.6722,-221.938 79.391,-217.901"/>
</g>
<!-- Node120 -->
<g id="node20" class="node"><title>Node120</title>
<g id="a_node20"><a xlink:href="classEigen_1_1PlainObjectBase.html#a25626a55b26a4323565f79d1b7c48ea8" target="_top" xlink:title="Eigen::PlainObjectBase\l\&lt; Matrix\&lt; _Scalar, _Rows,\l _Cols, _Options, _MaxRows,\l _MaxCols \&gt; \&gt;::coeffRef">
<polygon fill="none" stroke="black" points="154,-255.5 154,-307.5 304,-307.5 304,-255.5 154,-255.5"/>
<text text-anchor="start" x="162" y="-295.5" font-family="Helvetica,sans-Serif" font-size="10.00">Eigen::PlainObjectBase</text>
<text text-anchor="start" x="162" y="-284.5" font-family="Helvetica,sans-Serif" font-size="10.00">&lt; Matrix&lt; _Scalar, _Rows,</text>
<text text-anchor="start" x="162" y="-273.5" font-family="Helvetica,sans-Serif" font-size="10.00"> _Cols, _Options, _MaxRows,</text>
<text text-anchor="middle" x="229" y="-262.5" font-family="Helvetica,sans-Serif" font-size="10.00"> _MaxCols &gt; &gt;::coeffRef</text>
</a>
</g>
</g>
<!-- Node101&#45;&gt;Node120 -->
<g id="edge20" class="edge"><title>Node101&#45;&gt;Node120</title>
<path fill="none" stroke="midnightblue" d="M98.8027,-216.132C121.916,-227.827 151.531,-242.811 176.575,-255.482"/>
<polygon fill="midnightblue" stroke="midnightblue" points="100.151,-212.892 89.6483,-211.501 96.9911,-219.138 100.151,-212.892"/>
</g>
<!-- Node126 -->
<g id="node26" class="node"><title>Node126</title>
<g id="a_node26"><a xlink:href="classEigen_1_1PlainObjectBase.html#a85d505b93c18f4f558e9b80702e8e5af" target="_top" xlink:title="Eigen::PlainObjectBase\l\&lt; Matrix\&lt; _Scalar, _Rows,\l _Cols, _Options, _MaxRows,\l _MaxCols \&gt; \&gt;::packet">
<polygon fill="none" stroke="black" points="154,-170.5 154,-222.5 304,-222.5 304,-170.5 154,-170.5"/>
<text text-anchor="start" x="162" y="-210.5" font-family="Helvetica,sans-Serif" font-size="10.00">Eigen::PlainObjectBase</text>
<text text-anchor="start" x="162" y="-199.5" font-family="Helvetica,sans-Serif" font-size="10.00">&lt; Matrix&lt; _Scalar, _Rows,</text>
<text text-anchor="start" x="162" y="-188.5" font-family="Helvetica,sans-Serif" font-size="10.00"> _Cols, _Options, _MaxRows,</text>
<text text-anchor="middle" x="229" y="-177.5" font-family="Helvetica,sans-Serif" font-size="10.00"> _MaxCols &gt; &gt;::packet</text>
</a>
</g>
</g>
<!-- Node101&#45;&gt;Node126 -->
<g id="edge30" class="edge"><title>Node101&#45;&gt;Node126</title>
<path fill="none" stroke="midnightblue" d="M128.385,-196.5C136.77,-196.5 145.371,-196.5 153.836,-196.5"/>
<polygon fill="midnightblue" stroke="midnightblue" points="128.287,-193 118.287,-196.5 128.287,-200 128.287,-193"/>
</g>
<!-- Node127 -->
<g id="node27" class="node"><title>Node127</title>
<g id="a_node27"><a xlink:href="classEigen_1_1PlainObjectBase.html#aba7a925ce36c08ba2a08c90086f34718" target="_top" xlink:title="Eigen::PlainObjectBase\l\&lt; Matrix\&lt; _Scalar, _Rows,\l _Cols, _Options, _MaxRows,\l _MaxCols \&gt; \&gt;::rows">
<polygon fill="none" stroke="black" points="154,-71.5 154,-123.5 304,-123.5 304,-71.5 154,-71.5"/>
<text text-anchor="start" x="162" y="-111.5" font-family="Helvetica,sans-Serif" font-size="10.00">Eigen::PlainObjectBase</text>
<text text-anchor="start" x="162" y="-100.5" font-family="Helvetica,sans-Serif" font-size="10.00">&lt; Matrix&lt; _Scalar, _Rows,</text>
<text text-anchor="start" x="162" y="-89.5" font-family="Helvetica,sans-Serif" font-size="10.00"> _Cols, _Options, _MaxRows,</text>
<text text-anchor="middle" x="229" y="-78.5" font-family="Helvetica,sans-Serif" font-size="10.00"> _MaxCols &gt; &gt;::rows</text>
</a>
</g>
</g>
<!-- Node101&#45;&gt;Node127 -->
<g id="edge31" class="edge"><title>Node101&#45;&gt;Node127</title>
<path fill="none" stroke="midnightblue" d="M94.2008,-176.346C119.991,-161.148 155.584,-140.173 183.577,-123.678"/>
<polygon fill="midnightblue" stroke="midnightblue" points="92.354,-173.372 85.5156,-181.464 95.9079,-179.402 92.354,-173.372"/>
</g>
<!-- Node133 -->
<g id="node33" class="node"><title>Node133</title>
<g id="a_node33"><a xlink:href="classEigen_1_1PlainObjectBase.html#adb237a2cdcb37c6901ad15c7a9d87b1a" target="_top" xlink:title="Eigen::PlainObjectBase\l\&lt; Matrix\&lt; _Scalar, _Rows,\l _Cols, _Options, _MaxRows,\l _MaxCols \&gt; \&gt;::writePacket">
<polygon fill="none" stroke="black" points="154,-0.5 154,-52.5 304,-52.5 304,-0.5 154,-0.5"/>
<text text-anchor="start" x="162" y="-40.5" font-family="Helvetica,sans-Serif" font-size="10.00">Eigen::PlainObjectBase</text>
<text text-anchor="start" x="162" y="-29.5" font-family="Helvetica,sans-Serif" font-size="10.00">&lt; Matrix&lt; _Scalar, _Rows,</text>
<text text-anchor="start" x="162" y="-18.5" font-family="Helvetica,sans-Serif" font-size="10.00"> _Cols, _Options, _MaxRows,</text>
<text text-anchor="middle" x="229" y="-7.5" font-family="Helvetica,sans-Serif" font-size="10.00"> _MaxCols &gt; &gt;::writePacket</text>
</a>
</g>
</g>
<!-- Node101&#45;&gt;Node133 -->
<g id="edge37" class="edge"><title>Node101&#45;&gt;Node133</title>
<path fill="none" stroke="midnightblue" d="M71.9568,-172.013C87.4023,-142.509 116.781,-92.9879 154,-61.5 157.797,-58.2873 161.94,-55.2989 166.262,-52.5334"/>
<polygon fill="midnightblue" stroke="midnightblue" points="68.6976,-170.699 67.2617,-181.196 74.9302,-173.885 68.6976,-170.699"/>
</g>
<!-- Node103 -->
<g id="node3" class="node"><title>Node103</title>
<g id="a_node3"><a xlink:href="classEigen_1_1GeneralizedEigenSolver.html#a275910b47dfe5f40211dcb59cfd68f3c" target="_top" xlink:title="Computes generalized eigendecomposition of given matrix. ">
<polygon fill="none" stroke="black" points="357.5,-555.5 357.5,-585.5 519.5,-585.5 519.5,-555.5 357.5,-555.5"/>
<text text-anchor="start" x="365.5" y="-573.5" font-family="Helvetica,sans-Serif" font-size="10.00">Eigen::GeneralizedEigenSolver</text>
<text text-anchor="middle" x="438.5" y="-562.5" font-family="Helvetica,sans-Serif" font-size="10.00">::compute</text>
</a>
</g>
</g>
<!-- Node102&#45;&gt;Node103 -->
<g id="edge2" class="edge"><title>Node102&#45;&gt;Node103</title>
<path fill="none" stroke="midnightblue" d="M255.883,-468.677C276.203,-493.214 306.577,-525.23 340,-544.5 347.513,-548.831 355.765,-552.46 364.191,-555.495"/>
<polygon fill="midnightblue" stroke="midnightblue" points="258.406,-466.232 249.387,-460.672 252.97,-470.643 258.406,-466.232"/>
</g>
<!-- Node108 -->
<g id="node8" class="node"><title>Node108</title>
<g id="a_node8"><a xlink:href="structEigen_1_1internal_1_1kernel__retval_3_01FullPivLU_3_01__MatrixType_01_4_01_4.html#a1e8b6aafb22358f65a436cff4c3ed9b4" target="_top" xlink:title="Eigen::internal::kernel\l_retval\&lt; FullPivLU\&lt; _MatrixType\l \&gt; \&gt;::evalTo">
<polygon fill="none" stroke="black" points="355,-324 355,-365 522,-365 522,-324 355,-324"/>
<text text-anchor="start" x="363" y="-353" font-family="Helvetica,sans-Serif" font-size="10.00">Eigen::internal::kernel</text>
<text text-anchor="start" x="363" y="-342" font-family="Helvetica,sans-Serif" font-size="10.00">_retval&lt; FullPivLU&lt; _MatrixType</text>
<text text-anchor="middle" x="438.5" y="-331" font-family="Helvetica,sans-Serif" font-size="10.00"> &gt; &gt;::evalTo</text>
</a>
</g>
</g>
<!-- Node102&#45;&gt;Node108 -->
<g id="edge8" class="edge"><title>Node102&#45;&gt;Node108</title>
<path fill="none" stroke="midnightblue" d="M282.044,-403.324C300.021,-393.312 320.54,-382.703 340,-374.5 347.997,-371.129 356.504,-367.95 365.034,-365.012"/>
<polygon fill="midnightblue" stroke="midnightblue" points="279.882,-400.525 272.895,-408.489 283.323,-406.621 279.882,-400.525"/>
</g>
<!-- Node109 -->
<g id="node9" class="node"><title>Node109</title>
<g id="a_node9"><a xlink:href="structEigen_1_1internal_1_1image__retval_3_01FullPivLU_3_01__MatrixType_01_4_01_4.html#aa8a17ec738e106df5aca51488967f525" target="_top" xlink:title="Eigen::internal::image\l_retval\&lt; FullPivLU\&lt; _MatrixType\l \&gt; \&gt;::evalTo">
<polygon fill="none" stroke="black" points="355,-444 355,-485 522,-485 522,-444 355,-444"/>
<text text-anchor="start" x="363" y="-473" font-family="Helvetica,sans-Serif" font-size="10.00">Eigen::internal::image</text>
<text text-anchor="start" x="363" y="-462" font-family="Helvetica,sans-Serif" font-size="10.00">_retval&lt; FullPivLU&lt; _MatrixType</text>
<text text-anchor="middle" x="438.5" y="-451" font-family="Helvetica,sans-Serif" font-size="10.00"> &gt; &gt;::evalTo</text>
</a>
</g>
</g>
<!-- Node102&#45;&gt;Node109 -->
<g id="edge9" class="edge"><title>Node102&#45;&gt;Node109</title>
<path fill="none" stroke="midnightblue" d="M314.152,-446.667C327.52,-448.599 341.338,-450.597 354.675,-452.525"/>
<polygon fill="midnightblue" stroke="midnightblue" points="314.431,-443.171 304.033,-445.204 313.43,-450.099 314.431,-443.171"/>
</g>
<!-- Node110 -->
<g id="node10" class="node"><title>Node110</title>
<g id="a_node10"><a xlink:href="namespaceEigen_1_1internal.html#a6c2651dd28bd9227267e66aaca20330e" target="_top" xlink:title="Eigen::internal::real\l_2x2_jacobi_svd">
<polygon fill="none" stroke="black" points="384,-504.5 384,-534.5 493,-534.5 493,-504.5 384,-504.5"/>
<text text-anchor="start" x="392" y="-522.5" font-family="Helvetica,sans-Serif" font-size="10.00">Eigen::internal::real</text>
<text text-anchor="middle" x="438.5" y="-511.5" font-family="Helvetica,sans-Serif" font-size="10.00">_2x2_jacobi_svd</text>
</a>
</g>
</g>
<!-- Node102&#45;&gt;Node110 -->
<g id="edge10" class="edge"><title>Node102&#45;&gt;Node110</title>
<path fill="none" stroke="midnightblue" d="M280.62,-465.537C298.862,-475.791 319.91,-486.588 340,-494.5 353.902,-499.975 369.393,-504.581 383.862,-508.289"/>
<polygon fill="midnightblue" stroke="midnightblue" points="282.326,-462.48 271.906,-460.561 278.855,-468.559 282.326,-462.48"/>
</g>
<!-- Node115 -->
<g id="node15" class="node"><title>Node115</title>
<g id="a_node15"><a xlink:href="namespaceEigen_1_1internal.html#a691211492c8b69df5c7391bd1de411c4" target="_top" xlink:title="Eigen::internal::matrix\l_sqrt_quasi_triangular\l_solve_auxiliary_equation">
<polygon fill="none" stroke="black" points="369.5,-384 369.5,-425 507.5,-425 507.5,-384 369.5,-384"/>
<text text-anchor="start" x="377.5" y="-413" font-family="Helvetica,sans-Serif" font-size="10.00">Eigen::internal::matrix</text>
<text text-anchor="start" x="377.5" y="-402" font-family="Helvetica,sans-Serif" font-size="10.00">_sqrt_quasi_triangular</text>
<text text-anchor="middle" x="438.5" y="-391" font-family="Helvetica,sans-Serif" font-size="10.00">_solve_auxiliary_equation</text>
</a>
</g>
</g>
<!-- Node102&#45;&gt;Node115 -->
<g id="edge15" class="edge"><title>Node102&#45;&gt;Node115</title>
<path fill="none" stroke="midnightblue" d="M314.136,-422.336C332.505,-419.68 351.726,-416.901 369.38,-414.349"/>
<polygon fill="midnightblue" stroke="midnightblue" points="313.43,-418.901 304.033,-423.796 314.431,-425.829 313.43,-418.901"/>
</g>
<!-- Node104 -->
<g id="node4" class="node"><title>Node104</title>
<g id="a_node4"><a xlink:href="classEigen_1_1GeneralizedEigenSolver.html#a2a3528cbf75f66d3a60af9dc7b12ff65" target="_top" xlink:title="Constructor; computes the generalized eigendecomposition of given matrix pair. ">
<polygon fill="none" stroke="black" points="580,-605.5 580,-635.5 742,-635.5 742,-605.5 580,-605.5"/>
<text text-anchor="start" x="588" y="-623.5" font-family="Helvetica,sans-Serif" font-size="10.00">Eigen::GeneralizedEigenSolver</text>
<text text-anchor="middle" x="661" y="-612.5" font-family="Helvetica,sans-Serif" font-size="10.00">::GeneralizedEigenSolver</text>
</a>
</g>
</g>
<!-- Node103&#45;&gt;Node104 -->
<g id="edge3" class="edge"><title>Node103&#45;&gt;Node104</title>
<path fill="none" stroke="midnightblue" d="M515.594,-587.755C540.937,-593.502 568.952,-599.854 593.509,-605.423"/>
<polygon fill="midnightblue" stroke="midnightblue" points="516.184,-584.3 505.657,-585.502 514.636,-591.127 516.184,-584.3"/>
</g>
<!-- Node105 -->
<g id="node5" class="node"><title>Node105</title>
<g id="a_node5"><a xlink:href="classEigen_1_1GeneralizedEigenSolver.html#abeaa6f56cee367b83fd09d428462ca0c" target="_top" xlink:title="Eigen::GeneralizedEigenSolver\l::betas">
<polygon fill="none" stroke="black" points="580,-556.5 580,-586.5 742,-586.5 742,-556.5 580,-556.5"/>
<text text-anchor="start" x="588" y="-574.5" font-family="Helvetica,sans-Serif" font-size="10.00">Eigen::GeneralizedEigenSolver</text>
<text text-anchor="middle" x="661" y="-563.5" font-family="Helvetica,sans-Serif" font-size="10.00">::betas</text>
</a>
</g>
</g>
<!-- Node103&#45;&gt;Node105 -->
<g id="edge4" class="edge"><title>Node103&#45;&gt;Node105</title>
<path fill="none" stroke="midnightblue" d="M529.932,-570.91C546.468,-570.985 563.619,-571.063 579.83,-571.136"/>
<polygon fill="midnightblue" stroke="midnightblue" points="529.745,-567.409 519.729,-570.864 529.713,-574.409 529.745,-567.409"/>
</g>
<!-- Node106 -->
<g id="node6" class="node"><title>Node106</title>
<g id="a_node6"><a xlink:href="eigensolver__generalized__real_8cpp.html#aa8cb39f7fc3c05a5a869203d49aea8df" target="_top" xlink:title="generalized_eigensolver_real">
<polygon fill="none" stroke="black" points="785,-550 785,-569 940,-569 940,-550 785,-550"/>
<text text-anchor="middle" x="862.5" y="-557" font-family="Helvetica,sans-Serif" font-size="10.00">generalized_eigensolver_real</text>
</a>
</g>
</g>
<!-- Node103&#45;&gt;Node106 -->
<g id="edge7" class="edge"><title>Node103&#45;&gt;Node106</title>
<path fill="none" stroke="midnightblue" d="M523.44,-553.795C539.812,-551.173 556.893,-548.877 573,-547.5 650.938,-540.835 670.888,-543.346 749,-547.5 760.572,-548.115 772.786,-549.085 784.731,-550.212"/>
<polygon fill="midnightblue" stroke="midnightblue" points="522.648,-550.378 513.354,-555.464 523.791,-557.284 522.648,-550.378"/>
</g>
<!-- Node105&#45;&gt;Node106 -->
<g id="edge5" class="edge"><title>Node105&#45;&gt;Node106</title>
<path fill="none" stroke="midnightblue" d="M752.587,-566.051C763.398,-565.401 774.355,-564.742 784.942,-564.105"/>
<polygon fill="midnightblue" stroke="midnightblue" points="752.054,-562.577 742.282,-566.671 752.474,-569.564 752.054,-562.577"/>
</g>
<!-- Node107 -->
<g id="node7" class="node"><title>Node107</title>
<g id="a_node7"><a xlink:href="boostmultiprec_8cpp.html#af8983cadf0ba3b55cb55879f4b3d833d" target="_top" xlink:title="test_boostmultiprec">
<polygon fill="none" stroke="black" points="976,-550 976,-569 1089,-569 1089,-550 976,-550"/>
<text text-anchor="middle" x="1032.5" y="-557" font-family="Helvetica,sans-Serif" font-size="10.00">test_boostmultiprec</text>
</a>
</g>
</g>
<!-- Node106&#45;&gt;Node107 -->
<g id="edge6" class="edge"><title>Node106&#45;&gt;Node107</title>
<path fill="none" stroke="midnightblue" d="M950.228,-559.5C958.837,-559.5 967.408,-559.5 975.578,-559.5"/>
<polygon fill="midnightblue" stroke="midnightblue" points="950.126,-556 940.126,-559.5 950.126,-563 950.126,-556"/>
</g>
<!-- Node111 -->
<g id="node11" class="node"><title>Node111</title>
<g id="a_node11"><a xlink:href="classEigen_1_1JacobiSVD.html#a5dab376cc86cf0d36674bcdad4af3f5a" target="_top" xlink:title="Method performing the decomposition of given matrix using custom options. ">
<polygon fill="none" stroke="black" points="588,-480 588,-499 734,-499 734,-480 588,-480"/>
<text text-anchor="middle" x="661" y="-487" font-family="Helvetica,sans-Serif" font-size="10.00">Eigen::JacobiSVD::compute</text>
</a>
</g>
</g>
<!-- Node110&#45;&gt;Node111 -->
<g id="edge11" class="edge"><title>Node110&#45;&gt;Node111</title>
<path fill="none" stroke="midnightblue" d="M503.295,-510.82C530.376,-507.136 562.032,-502.829 589.775,-499.054"/>
<polygon fill="midnightblue" stroke="midnightblue" points="502.595,-507.383 493.158,-512.2 503.539,-514.319 502.595,-507.383"/>
</g>
<!-- Node112 -->
<g id="node12" class="node"><title>Node112</title>
<g id="a_node12"><a xlink:href="jacobisvd_8cpp.html#ac41cc1d5bee2a2a0a49d5855145febed" target="_top" xlink:title="jacobisvd_verify_assert">
<polygon fill="none" stroke="black" points="799,-500 799,-519 926,-519 926,-500 799,-500"/>
<text text-anchor="middle" x="862.5" y="-507" font-family="Helvetica,sans-Serif" font-size="10.00">jacobisvd_verify_assert</text>
</a>
</g>
</g>
<!-- Node111&#45;&gt;Node112 -->
<g id="edge12" class="edge"><title>Node111&#45;&gt;Node112</title>
<path fill="none" stroke="midnightblue" d="M744.081,-497.729C762.364,-499.562 781.466,-501.477 798.822,-503.216"/>
<polygon fill="midnightblue" stroke="midnightblue" points="744.323,-494.236 734.024,-496.72 743.625,-501.201 744.323,-494.236"/>
</g>
<!-- Node114 -->
<g id="node14" class="node"><title>Node114</title>
<g id="a_node14"><a xlink:href="nomalloc_8cpp.html#ac6a1cc3b954c50458ab44676411eece1" target="_top" xlink:title="ctms_decompositions">
<polygon fill="none" stroke="black" points="801.5,-462 801.5,-481 923.5,-481 923.5,-462 801.5,-462"/>
<text text-anchor="middle" x="862.5" y="-469" font-family="Helvetica,sans-Serif" font-size="10.00">ctms_decompositions</text>
</a>
</g>
</g>
<!-- Node111&#45;&gt;Node114 -->
<g id="edge14" class="edge"><title>Node111&#45;&gt;Node114</title>
<path fill="none" stroke="midnightblue" d="M744.244,-482.079C763.391,-480.352 783.425,-478.544 801.407,-476.922"/>
<polygon fill="midnightblue" stroke="midnightblue" points="743.669,-478.617 734.024,-483.002 744.298,-485.589 743.669,-478.617"/>
</g>
<!-- Node113 -->
<g id="node13" class="node"><title>Node113</title>
<g id="a_node13"><a xlink:href="jacobisvd_8cpp.html#aed9175723087a4e8e7cbd67da0d9186c" target="_top" xlink:title="test_jacobisvd">
<polygon fill="none" stroke="black" points="990,-500 990,-519 1075,-519 1075,-500 990,-500"/>
<text text-anchor="middle" x="1032.5" y="-507" font-family="Helvetica,sans-Serif" font-size="10.00">test_jacobisvd</text>
</a>
</g>
</g>
<!-- Node112&#45;&gt;Node113 -->
<g id="edge13" class="edge"><title>Node112&#45;&gt;Node113</title>
<path fill="none" stroke="midnightblue" d="M936.149,-509.5C954.491,-509.5 973.569,-509.5 989.797,-509.5"/>
<polygon fill="midnightblue" stroke="midnightblue" points="936.057,-506 926.057,-509.5 936.057,-513 936.057,-506"/>
</g>
<!-- Node116 -->
<g id="node16" class="node"><title>Node116</title>
<g id="a_node16"><a xlink:href="namespaceEigen_1_1internal.html#ac968fcd5f7206aef781631df79524727" target="_top" xlink:title="Eigen::internal::matrix\l_sqrt_quasi_triangular\l_2x2_off_diagonal_block">
<polygon fill="none" stroke="black" points="595,-384 595,-425 727,-425 727,-384 595,-384"/>
<text text-anchor="start" x="603" y="-413" font-family="Helvetica,sans-Serif" font-size="10.00">Eigen::internal::matrix</text>
<text text-anchor="start" x="603" y="-402" font-family="Helvetica,sans-Serif" font-size="10.00">_sqrt_quasi_triangular</text>
<text text-anchor="middle" x="661" y="-391" font-family="Helvetica,sans-Serif" font-size="10.00">_2x2_off_diagonal_block</text>
</a>
</g>
</g>
<!-- Node115&#45;&gt;Node116 -->
<g id="edge16" class="edge"><title>Node115&#45;&gt;Node116</title>
<path fill="none" stroke="midnightblue" d="M517.988,-404.5C543.107,-404.5 570.631,-404.5 594.705,-404.5"/>
<polygon fill="midnightblue" stroke="midnightblue" points="517.758,-401 507.758,-404.5 517.757,-408 517.758,-401"/>
</g>
<!-- Node117 -->
<g id="node17" class="node"><title>Node117</title>
<g id="a_node17"><a xlink:href="namespaceEigen_1_1internal.html#a95c0b49fec5ce44af43283d7f541d341" target="_top" xlink:title="Eigen::internal::matrix\l_sqrt_quasi_triangular\l_off_diagonal">
<polygon fill="none" stroke="black" points="801.5,-384 801.5,-425 923.5,-425 923.5,-384 801.5,-384"/>
<text text-anchor="start" x="809.5" y="-413" font-family="Helvetica,sans-Serif" font-size="10.00">Eigen::internal::matrix</text>
<text text-anchor="start" x="809.5" y="-402" font-family="Helvetica,sans-Serif" font-size="10.00">_sqrt_quasi_triangular</text>
<text text-anchor="middle" x="862.5" y="-391" font-family="Helvetica,sans-Serif" font-size="10.00">_off_diagonal</text>
</a>
</g>
</g>
<!-- Node116&#45;&gt;Node117 -->
<g id="edge17" class="edge"><title>Node116&#45;&gt;Node117</title>
<path fill="none" stroke="midnightblue" d="M737.283,-404.5C758.426,-404.5 781.131,-404.5 801.272,-404.5"/>
<polygon fill="midnightblue" stroke="midnightblue" points="737.048,-401 727.048,-404.5 737.048,-408 737.048,-401"/>
</g>
<!-- Node118 -->
<g id="node18" class="node"><title>Node118</title>
<g id="a_node18"><a xlink:href="namespaceEigen.html#a2f490197e16df831683018e383e29346" target="_top" xlink:title="Compute matrix square root of quasi&#45;triangular matrix. ">
<polygon fill="none" stroke="black" points="980.5,-389.5 980.5,-419.5 1084.5,-419.5 1084.5,-389.5 980.5,-389.5"/>
<text text-anchor="start" x="988.5" y="-407.5" font-family="Helvetica,sans-Serif" font-size="10.00">Eigen::matrix_sqrt</text>
<text text-anchor="middle" x="1032.5" y="-396.5" font-family="Helvetica,sans-Serif" font-size="10.00">_quasi_triangular</text>
</a>
</g>
</g>
<!-- Node117&#45;&gt;Node118 -->
<g id="edge18" class="edge"><title>Node117&#45;&gt;Node118</title>
<path fill="none" stroke="midnightblue" d="M933.816,-404.5C949.422,-404.5 965.675,-404.5 980.343,-404.5"/>
<polygon fill="midnightblue" stroke="midnightblue" points="933.677,-401 923.677,-404.5 933.677,-408 933.677,-401"/>
</g>
<!-- Node119 -->
<g id="node19" class="node"><title>Node119</title>
<g id="a_node19"><a xlink:href="structEigen_1_1internal_1_1matrix__sqrt__compute_3_01MatrixType_00_010_01_4.html#af5aad5939c4ee7f180741ae7cb79fb3b" target="_top" xlink:title="Eigen::internal::matrix\l_sqrt_compute\&lt; MatrixType,\l 0 \&gt;::run">
<polygon fill="none" stroke="black" points="1125,-384 1125,-425 1278,-425 1278,-384 1125,-384"/>
<text text-anchor="start" x="1133" y="-413" font-family="Helvetica,sans-Serif" font-size="10.00">Eigen::internal::matrix</text>
<text text-anchor="start" x="1133" y="-402" font-family="Helvetica,sans-Serif" font-size="10.00">_sqrt_compute&lt; MatrixType,</text>
<text text-anchor="middle" x="1201.5" y="-391" font-family="Helvetica,sans-Serif" font-size="10.00"> 0 &gt;::run</text>
</a>
</g>
</g>
<!-- Node118&#45;&gt;Node119 -->
<g id="edge19" class="edge"><title>Node118&#45;&gt;Node119</title>
<path fill="none" stroke="midnightblue" d="M1094.59,-404.5C1104.45,-404.5 1114.75,-404.5 1124.9,-404.5"/>
<polygon fill="midnightblue" stroke="midnightblue" points="1094.51,-401 1084.51,-404.5 1094.51,-408 1094.51,-401"/>
</g>
<!-- Node120&#45;&gt;Node108 -->
<g id="edge22" class="edge"><title>Node120&#45;&gt;Node108</title>
<path fill="none" stroke="midnightblue" d="M313.679,-306.906C332.305,-312.561 351.829,-318.489 369.723,-323.922"/>
<polygon fill="midnightblue" stroke="midnightblue" points="314.619,-303.534 304.033,-303.978 312.585,-310.232 314.619,-303.534"/>
</g>
<!-- Node120&#45;&gt;Node109 -->
<g id="edge23" class="edge"><title>Node120&#45;&gt;Node109</title>
<path fill="none" stroke="midnightblue" d="M251.402,-316.44C276.479,-356.372 317.46,-418.307 340,-434.5 344.89,-438.013 350.201,-441.123 355.735,-443.873"/>
<polygon fill="midnightblue" stroke="midnightblue" points="254.265,-314.416 246,-307.787 248.327,-318.123 254.265,-314.416"/>
</g>
<!-- Node120&#45;&gt;Node115 -->
<g id="edge29" class="edge"><title>Node120&#45;&gt;Node115</title>
<path fill="none" stroke="midnightblue" d="M262.122,-314.762C282.774,-334.507 311.075,-358.691 340,-374.5 349.169,-379.511 359.291,-383.806 369.438,-387.448"/>
<polygon fill="midnightblue" stroke="midnightblue" points="264.483,-312.175 254.873,-307.713 259.602,-317.194 264.483,-312.175"/>
</g>
<!-- Node121 -->
<g id="node21" class="node"><title>Node121</title>
<g id="a_node21"><a xlink:href="classEigen_1_1PermutationBase.html#a1fc7a5823544700c2e0795e87f9c6d09" target="_top" xlink:title="Eigen::PermutationBase\l\&lt; PermutationMatrix\&lt; SizeAtCompile\lTime, MaxSizeAtCompileTime, \l_StorageIndex \&gt; \&gt;::determinant">
<polygon fill="none" stroke="black" points="340,-126.5 340,-178.5 537,-178.5 537,-126.5 340,-126.5"/>
<text text-anchor="start" x="348" y="-166.5" font-family="Helvetica,sans-Serif" font-size="10.00">Eigen::PermutationBase</text>
<text text-anchor="start" x="348" y="-155.5" font-family="Helvetica,sans-Serif" font-size="10.00">&lt; PermutationMatrix&lt; SizeAtCompile</text>
<text text-anchor="start" x="348" y="-144.5" font-family="Helvetica,sans-Serif" font-size="10.00">Time, MaxSizeAtCompileTime, </text>
<text text-anchor="middle" x="438.5" y="-133.5" font-family="Helvetica,sans-Serif" font-size="10.00">_StorageIndex &gt; &gt;::determinant</text>
</a>
</g>
</g>
<!-- Node120&#45;&gt;Node121 -->
<g id="edge21" class="edge"><title>Node120&#45;&gt;Node121</title>
<path fill="none" stroke="midnightblue" d="M281.478,-249.472C289.302,-243.833 297.067,-237.754 304,-231.5 322.507,-214.805 319.624,-202.855 340,-188.5 345.163,-184.863 350.736,-181.547 356.512,-178.533"/>
<polygon fill="midnightblue" stroke="midnightblue" points="279.187,-246.804 273.003,-255.407 283.202,-252.538 279.187,-246.804"/>
</g>
<!-- Node122 -->
<g id="node22" class="node"><title>Node122</title>
<g id="a_node22"><a xlink:href="namespaceEigen_1_1internal.html#aa20f632ca9086b4c12fd89ff6c275bff" target="_top" xlink:title="Eigen::internal::compute\l_inverse_size3_helper">
<polygon fill="none" stroke="black" points="371.5,-236.5 371.5,-266.5 505.5,-266.5 505.5,-236.5 371.5,-236.5"/>
<text text-anchor="start" x="379.5" y="-254.5" font-family="Helvetica,sans-Serif" font-size="10.00">Eigen::internal::compute</text>
<text text-anchor="middle" x="438.5" y="-243.5" font-family="Helvetica,sans-Serif" font-size="10.00">_inverse_size3_helper</text>
</a>
</g>
</g>
<!-- Node120&#45;&gt;Node122 -->
<g id="edge24" class="edge"><title>Node120&#45;&gt;Node122</title>
<path fill="none" stroke="midnightblue" d="M313.943,-269.364C333.084,-266.596 353.16,-263.694 371.431,-261.052"/>
<polygon fill="midnightblue" stroke="midnightblue" points="313.43,-265.901 304.033,-270.796 314.431,-272.829 313.43,-265.901"/>
</g>
<!-- Node123 -->
<g id="node23" class="node"><title>Node123</title>
<g id="a_node23"><a xlink:href="structEigen_1_1internal_1_1compute__inverse_3_01MatrixType_00_01ResultType_00_013_01_4.html#a85ff1ae68f3676b513dc50428e8a8cf6" target="_top" xlink:title="Eigen::internal::compute\l_inverse\&lt; MatrixType, ResultType,\l 3 \&gt;::run">
<polygon fill="none" stroke="black" points="573,-275 573,-316 749,-316 749,-275 573,-275"/>
<text text-anchor="start" x="581" y="-304" font-family="Helvetica,sans-Serif" font-size="10.00">Eigen::internal::compute</text>
<text text-anchor="start" x="581" y="-293" font-family="Helvetica,sans-Serif" font-size="10.00">_inverse&lt; MatrixType, ResultType,</text>
<text text-anchor="middle" x="661" y="-282" font-family="Helvetica,sans-Serif" font-size="10.00"> 3 &gt;::run</text>
</a>
</g>
</g>
<!-- Node120&#45;&gt;Node123 -->
<g id="edge27" class="edge"><title>Node120&#45;&gt;Node123</title>
<path fill="none" stroke="midnightblue" d="M314.705,-284.258C389.295,-286.686 497.477,-290.209 572.804,-292.661"/>
<polygon fill="midnightblue" stroke="midnightblue" points="314.518,-280.75 304.409,-283.923 314.29,-287.746 314.518,-280.75"/>
</g>
<!-- Node125 -->
<g id="node25" class="node"><title>Node125</title>
<g id="a_node25"><a xlink:href="householder_8cpp.html#af983e9da1e058e66c41bf91c3b54f7a0" target="_top" xlink:title="householder">
<polygon fill="none" stroke="black" points="400.5,-198 400.5,-217 476.5,-217 476.5,-198 400.5,-198"/>
<text text-anchor="middle" x="438.5" y="-205" font-family="Helvetica,sans-Serif" font-size="10.00">householder</text>
</a>
</g>
</g>
<!-- Node120&#45;&gt;Node125 -->
<g id="edge28" class="edge"><title>Node120&#45;&gt;Node125</title>
<path fill="none" stroke="midnightblue" d="M283.996,-250.854C301.441,-241.954 321.152,-232.915 340,-226.5 359.428,-219.888 381.861,-215.317 400.309,-212.319"/>
<polygon fill="midnightblue" stroke="midnightblue" points="282.354,-247.762 275.096,-255.48 285.583,-253.973 282.354,-247.762"/>
</g>
<!-- Node122&#45;&gt;Node123 -->
<g id="edge25" class="edge"><title>Node122&#45;&gt;Node123</title>
<path fill="none" stroke="midnightblue" d="M515.702,-266.706C534.067,-270.37 553.83,-274.314 572.66,-278.072"/>
<polygon fill="midnightblue" stroke="midnightblue" points="516.149,-263.226 505.657,-264.701 514.779,-270.091 516.149,-263.226"/>
</g>
<!-- Node124 -->
<g id="node24" class="node"><title>Node124</title>
<g id="a_node24"><a xlink:href="structEigen_1_1internal_1_1compute__inverse__and__det__with__check_3_01MatrixType_00_01ResultType_00_013_01_4.html#af6d645a2657bca93b5fc20cae807056d" target="_top" xlink:title="Eigen::internal::compute\l_inverse_and_det_with_check\l\&lt; MatrixType, ResultType,\l 3 \&gt;::run">
<polygon fill="none" stroke="black" points="582,-203.5 582,-255.5 740,-255.5 740,-203.5 582,-203.5"/>
<text text-anchor="start" x="590" y="-243.5" font-family="Helvetica,sans-Serif" font-size="10.00">Eigen::internal::compute</text>
<text text-anchor="start" x="590" y="-232.5" font-family="Helvetica,sans-Serif" font-size="10.00">_inverse_and_det_with_check</text>
<text text-anchor="start" x="590" y="-221.5" font-family="Helvetica,sans-Serif" font-size="10.00">&lt; MatrixType, ResultType,</text>
<text text-anchor="middle" x="661" y="-210.5" font-family="Helvetica,sans-Serif" font-size="10.00"> 3 &gt;::run</text>
</a>
</g>
</g>
<!-- Node122&#45;&gt;Node124 -->
<g id="edge26" class="edge"><title>Node122&#45;&gt;Node124</title>
<path fill="none" stroke="midnightblue" d="M515.663,-243.901C537.055,-241.767 560.345,-239.443 581.85,-237.297"/>
<polygon fill="midnightblue" stroke="midnightblue" points="515.26,-240.424 505.657,-244.899 515.955,-247.389 515.26,-240.424"/>
</g>
<!-- Node128 -->
<g id="node28" class="node"><title>Node128</title>
<g id="a_node28"><a xlink:href="sparse_8h.html#a3ba4abd21a1ace3122406c3b3b27fc5b" target="_top" xlink:title="initSparse">
<polygon fill="none" stroke="black" points="406,-88 406,-107 471,-107 471,-88 406,-88"/>
<text text-anchor="middle" x="438.5" y="-95" font-family="Helvetica,sans-Serif" font-size="10.00">initSparse</text>
</a>
</g>
</g>
<!-- Node127&#45;&gt;Node128 -->
<g id="edge32" class="edge"><title>Node127&#45;&gt;Node128</title>
<path fill="none" stroke="midnightblue" d="M314.387,-97.5C346.605,-97.5 381.407,-97.5 405.761,-97.5"/>
<polygon fill="midnightblue" stroke="midnightblue" points="314.034,-94.0001 304.033,-97.5 314.033,-101 314.034,-94.0001"/>
</g>
<!-- Node131 -->
<g id="node31" class="node"><title>Node131</title>
<g id="a_node31"><a xlink:href="namespacenumpy.html#ae50b4ade390e0c6606305c4897bf190c" target="_top" xlink:title="Create a Numpy array from a Eigen::Matrix. ">
<polygon fill="none" stroke="black" points="393,-50 393,-69 484,-69 484,-50 393,-50"/>
<text text-anchor="middle" x="438.5" y="-57" font-family="Helvetica,sans-Serif" font-size="10.00">numpy::convert</text>
</a>
</g>
</g>
<!-- Node127&#45;&gt;Node131 -->
<g id="edge35" class="edge"><title>Node127&#45;&gt;Node131</title>
<path fill="none" stroke="midnightblue" d="M313.885,-82.138C340.892,-77.1921 369.765,-71.9045 392.809,-67.6843"/>
<polygon fill="midnightblue" stroke="midnightblue" points="313.239,-78.6979 304.033,-83.9421 314.5,-85.5834 313.239,-78.6979"/>
</g>
<!-- Node132 -->
<g id="node32" class="node"><title>Node132</title>
<g id="a_node32"><a xlink:href="namespaceboost_1_1serialization.html#ae42e637a93757c6e720a2363ebd287be" target="_top" xlink:title="boost::serialization\l::serialize">
<polygon fill="none" stroke="black" points="385,-0.5 385,-30.5 492,-30.5 492,-0.5 385,-0.5"/>
<text text-anchor="start" x="393" y="-18.5" font-family="Helvetica,sans-Serif" font-size="10.00">boost::serialization</text>
<text text-anchor="middle" x="438.5" y="-7.5" font-family="Helvetica,sans-Serif" font-size="10.00">::serialize</text>
</a>
</g>
</g>
<!-- Node127&#45;&gt;Node132 -->
<g id="edge36" class="edge"><title>Node127&#45;&gt;Node132</title>
<path fill="none" stroke="midnightblue" d="M293.918,-66.7816C297.341,-65.0193 300.719,-63.2517 304,-61.5 320.34,-52.7755 322.864,-47.5344 340,-40.5 354.145,-34.6933 370.011,-29.9354 384.769,-26.1877"/>
<polygon fill="midnightblue" stroke="midnightblue" points="292.121,-63.7687 284.792,-71.4193 295.292,-70.0092 292.121,-63.7687"/>
</g>
<!-- Node129 -->
<g id="node29" class="node"><title>Node129</title>
<g id="a_node29"><a xlink:href="sparse__solvers_8cpp.html#afdc1343eeabd8d973eaa0a8025e4b7c8" target="_top" xlink:title="initSPD">
<polygon fill="none" stroke="black" points="635.5,-69 635.5,-88 686.5,-88 686.5,-69 635.5,-69"/>
<text text-anchor="middle" x="661" y="-76" font-family="Helvetica,sans-Serif" font-size="10.00">initSPD</text>
</a>
</g>
</g>
<!-- Node128&#45;&gt;Node129 -->
<g id="edge33" class="edge"><title>Node128&#45;&gt;Node129</title>
<path fill="none" stroke="midnightblue" d="M481.222,-93.9049C526.697,-89.9864 597.95,-83.8467 635.288,-80.6294"/>
<polygon fill="midnightblue" stroke="midnightblue" points="480.755,-90.4321 471.092,-94.7778 481.356,-97.4063 480.755,-90.4321"/>
</g>
<!-- Node130 -->
<g id="node30" class="node"><title>Node130</title>
<g id="a_node30"><a xlink:href="test_2sparse__product_8cpp.html#a7c1ebb5061b52283fef06715cf3410e1" target="_top" xlink:title="sparse_product">
<polygon fill="none" stroke="black" points="615.5,-107 615.5,-126 706.5,-126 706.5,-107 615.5,-107"/>
<text text-anchor="middle" x="661" y="-114" font-family="Helvetica,sans-Serif" font-size="10.00">sparse_product</text>
</a>
</g>
</g>
<!-- Node128&#45;&gt;Node130 -->
<g id="edge34" class="edge"><title>Node128&#45;&gt;Node130</title>
<path fill="none" stroke="midnightblue" d="M481.398,-101.11C519.755,-104.415 576.343,-109.291 615.499,-112.665"/>
<polygon fill="midnightblue" stroke="midnightblue" points="481.356,-97.5937 471.092,-100.222 480.755,-104.568 481.356,-97.5937"/>
</g>
</g>
</svg>
