<?xml version="1.0" encoding="UTF-8" standalone="no"?>
<!DOCTYPE svg PUBLIC "-//W3C//DTD SVG 1.1//EN"
 "http://www.w3.org/Graphics/SVG/1.1/DTD/svg11.dtd">
<!-- Generated by graphviz version 2.38.0 (20140413.2041)
 -->
<!-- Title: Eigen::LDLT::matrixL Pages: 1 -->
<svg width="412pt" height="104pt"
 viewBox="0.00 0.00 412.00 104.00" xmlns="http://www.w3.org/2000/svg" xmlns:xlink="http://www.w3.org/1999/xlink">
<g id="graph0" class="graph" transform="scale(1 1) rotate(0) translate(4 100)">
<title>Eigen::LDLT::matrixL</title>
<!-- Node49 -->
<g id="node1" class="node"><title>Node49</title>
<polygon fill="#bfbfbf" stroke="black" points="0,-57.5 0,-76.5 112,-76.5 112,-57.5 0,-57.5"/>
<text text-anchor="middle" x="56" y="-64.5" font-family="Helvetica,sans-Serif" font-size="10.00">Eigen::LDLT::matrixL</text>
</g>
<!-- Node50 -->
<g id="node2" class="node"><title>Node50</title>
<g id="a_node2"><a xlink:href="benchCholesky_8cpp.html#a09936642be632be6b5be6cc8a2b8f905" target="_top" xlink:title="__attribute__">
<polygon fill="none" stroke="black" points="148,-76.5 148,-95.5 227,-95.5 227,-76.5 148,-76.5"/>
<text text-anchor="middle" x="187.5" y="-83.5" font-family="Helvetica,sans-Serif" font-size="10.00">__attribute__</text>
</a>
</g>
</g>
<!-- Node49&#45;&gt;Node50 -->
<g id="edge1" class="edge"><title>Node49&#45;&gt;Node50</title>
<path fill="none" stroke="midnightblue" d="M122.455,-76.6034C131.135,-77.8769 139.798,-79.1479 147.82,-80.3249"/>
<polygon fill="midnightblue" stroke="midnightblue" points="122.697,-73.1016 112.295,-75.1128 121.681,-80.0275 122.697,-73.1016"/>
</g>
<!-- Node51 -->
<g id="node3" class="node"><title>Node51</title>
<g id="a_node3"><a xlink:href="test_2cholesky_8cpp.html#a75b5b053baba1987b74f1876ea839e9f" target="_top" xlink:title="cholesky">
<polygon fill="none" stroke="black" points="158.5,-38.5 158.5,-57.5 216.5,-57.5 216.5,-38.5 158.5,-38.5"/>
<text text-anchor="middle" x="187.5" y="-45.5" font-family="Helvetica,sans-Serif" font-size="10.00">cholesky</text>
</a>
</g>
</g>
<!-- Node49&#45;&gt;Node51 -->
<g id="edge2" class="edge"><title>Node49&#45;&gt;Node51</title>
<path fill="none" stroke="midnightblue" d="M122.367,-57.4095C134.963,-55.5614 147.528,-53.7179 158.154,-52.1588"/>
<polygon fill="midnightblue" stroke="midnightblue" points="121.681,-53.9725 112.295,-58.8872 122.697,-60.8984 121.681,-53.9725"/>
</g>
<!-- Node52 -->
<g id="node4" class="node"><title>Node52</title>
<g id="a_node4"><a xlink:href="classAction__cholesky.html#aa16837f8c6f05f93b26625e606011899" target="_top" xlink:title="Action_cholesky::calculate">
<polygon fill="none" stroke="black" points="263,-76.5 263,-95.5 404,-95.5 404,-76.5 263,-76.5"/>
<text text-anchor="middle" x="333.5" y="-83.5" font-family="Helvetica,sans-Serif" font-size="10.00">Action_cholesky::calculate</text>
</a>
</g>
</g>
<!-- Node51&#45;&gt;Node52 -->
<g id="edge3" class="edge"><title>Node51&#45;&gt;Node52</title>
<path fill="none" stroke="midnightblue" d="M226.426,-58.0083C248.028,-63.7087 274.948,-70.8126 296.263,-76.4374"/>
<polygon fill="midnightblue" stroke="midnightblue" points="227.169,-54.5845 216.606,-55.417 225.382,-61.3528 227.169,-54.5845"/>
</g>
<!-- Node53 -->
<g id="node5" class="node"><title>Node53</title>
<g id="a_node5"><a xlink:href="test_2cholesky_8cpp.html#a04432e587d61fbae9c7f75d8416e76d6" target="_top" xlink:title="cholesky_cplx">
<polygon fill="none" stroke="black" points="292.5,-38.5 292.5,-57.5 374.5,-57.5 374.5,-38.5 292.5,-38.5"/>
<text text-anchor="middle" x="333.5" y="-45.5" font-family="Helvetica,sans-Serif" font-size="10.00">cholesky_cplx</text>
</a>
</g>
</g>
<!-- Node51&#45;&gt;Node53 -->
<g id="edge4" class="edge"><title>Node51&#45;&gt;Node53</title>
<path fill="none" stroke="midnightblue" d="M226.745,-48C247.029,-48 271.933,-48 292.478,-48"/>
<polygon fill="midnightblue" stroke="midnightblue" points="226.607,-44.5001 216.606,-48 226.606,-51.5001 226.607,-44.5001"/>
</g>
<!-- Node54 -->
<g id="node6" class="node"><title>Node54</title>
<g id="a_node6"><a xlink:href="boostmultiprec_8cpp.html#af8983cadf0ba3b55cb55879f4b3d833d" target="_top" xlink:title="test_boostmultiprec">
<polygon fill="none" stroke="black" points="277,-0.5 277,-19.5 390,-19.5 390,-0.5 277,-0.5"/>
<text text-anchor="middle" x="333.5" y="-7.5" font-family="Helvetica,sans-Serif" font-size="10.00">test_boostmultiprec</text>
</a>
</g>
</g>
<!-- Node51&#45;&gt;Node54 -->
<g id="edge5" class="edge"><title>Node51&#45;&gt;Node54</title>
<path fill="none" stroke="midnightblue" d="M226.426,-37.9917C248.028,-32.2913 274.948,-25.1874 296.263,-19.5626"/>
<polygon fill="midnightblue" stroke="midnightblue" points="225.382,-34.6472 216.606,-40.583 227.169,-41.4155 225.382,-34.6472"/>
</g>
</g>
</svg>
