<?xml version="1.0" encoding="UTF-8" standalone="no"?>
<!DOCTYPE svg PUBLIC "-//W3C//DTD SVG 1.1//EN"
 "http://www.w3.org/Graphics/SVG/1.1/DTD/svg11.dtd">
<!-- Generated by graphviz version 2.38.0 (20140413.2041)
 -->
<!-- Title: StateTwo::order Pages: 1 -->
<svg width="243pt" height="104pt"
 viewBox="0.00 0.00 243.00 104.00" xmlns="http://www.w3.org/2000/svg" xmlns:xlink="http://www.w3.org/1999/xlink">
<g id="graph0" class="graph" transform="scale(1 1) rotate(0) translate(4 100)">
<title>StateTwo::order</title>
<!-- Node48 -->
<g id="node1" class="node"><title>Node48</title>
<polygon fill="#bfbfbf" stroke="black" points="0,-38.5 0,-57.5 91,-57.5 91,-38.5 0,-38.5"/>
<text text-anchor="middle" x="45.5" y="-45.5" font-family="Helvetica,sans-Serif" font-size="10.00">StateTwo::order</text>
</g>
<!-- Node49 -->
<g id="node2" class="node"><title>Node49</title>
<g id="a_node2"><a xlink:href="classStateTwo.html#a3dc818a5bdaf6f9ee8d3bac945fd6d18" target="_top" xlink:title="StateTwo::first">
<polygon fill="none" stroke="black" points="139.5,-76.5 139.5,-95.5 222.5,-95.5 222.5,-76.5 139.5,-76.5"/>
<text text-anchor="middle" x="181" y="-83.5" font-family="Helvetica,sans-Serif" font-size="10.00">StateTwo::first</text>
</a>
</g>
</g>
<!-- Node48&#45;&gt;Node49 -->
<g id="edge1" class="edge"><title>Node48&#45;&gt;Node49</title>
<path fill="none" stroke="midnightblue" d="M80.1877,-57.589C97.2632,-62.4494 118.2,-68.4091 136.482,-73.6127"/>
<polygon fill="midnightblue" stroke="midnightblue" points="135.747,-77.0426 146.323,-76.4141 137.663,-70.31 135.747,-77.0426"/>
</g>
<!-- Node50 -->
<g id="node3" class="node"><title>Node50</title>
<g id="a_node3"><a xlink:href="classStateTwo.html#a9bc7edda2944afa1f2c7ca87441e81b0" target="_top" xlink:title="StateTwo::second">
<polygon fill="none" stroke="black" points="131,-38.5 131,-57.5 231,-57.5 231,-38.5 131,-38.5"/>
<text text-anchor="middle" x="181" y="-45.5" font-family="Helvetica,sans-Serif" font-size="10.00">StateTwo::second</text>
</a>
</g>
</g>
<!-- Node48&#45;&gt;Node50 -->
<g id="edge2" class="edge"><title>Node48&#45;&gt;Node50</title>
<path fill="none" stroke="midnightblue" d="M91.3249,-48C100.77,-48 110.874,-48 120.755,-48"/>
<polygon fill="midnightblue" stroke="midnightblue" points="120.935,-51.5001 130.935,-48 120.935,-44.5001 120.935,-51.5001"/>
</g>
<!-- Node51 -->
<g id="node4" class="node"><title>Node51</title>
<g id="a_node4"><a xlink:href="classStateTwo.html#afcd150fde37f1ba61b392b36cff63d87" target="_top" xlink:title="StateTwo::StateTwo">
<polygon fill="none" stroke="black" points="127,-0.5 127,-19.5 235,-19.5 235,-0.5 127,-0.5"/>
<text text-anchor="middle" x="181" y="-7.5" font-family="Helvetica,sans-Serif" font-size="10.00">StateTwo::StateTwo</text>
</a>
</g>
</g>
<!-- Node48&#45;&gt;Node51 -->
<g id="edge3" class="edge"><title>Node48&#45;&gt;Node51</title>
<path fill="none" stroke="midnightblue" d="M80.1877,-38.411C97.2632,-33.5506 118.2,-27.5909 136.482,-22.3873"/>
<polygon fill="midnightblue" stroke="midnightblue" points="137.663,-25.69 146.323,-19.5859 135.747,-18.9574 137.663,-25.69"/>
</g>
</g>
</svg>
