<?xml version="1.0" encoding="UTF-8" standalone="no"?>
<!DOCTYPE svg PUBLIC "-//W3C//DTD SVG 1.1//EN"
 "http://www.w3.org/Graphics/SVG/1.1/DTD/svg11.dtd">
<!-- Generated by graphviz version 2.38.0 (20140413.2041)
 -->
<!-- Title: mpfr::mpreal::get_emax_min Pages: 1 -->
<!--zoomable 657 -->
<svg id="main" version="1.1" xmlns="http://www.w3.org/2000/svg" xmlns:xlink="http://www.w3.org/1999/xlink" xml:space="preserve" onload="init(evt)">
<style type="text/css"><![CDATA[
.edge:hover path { stroke: red; }
.edge:hover polygon { stroke: red; fill: red; }
]]></style>
<script type="text/javascript"><![CDATA[
var edges = document.getElementsByTagName('g');
if (edges && edges.length) {
  for (var i=0;i<edges.length;i++) {
    if (edges[i].id.substr(0,4)=='edge') {
      edges[i].setAttribute('class','edge');
    }
  }
}
]]></script>
        <defs>
                <circle id="rim" cx="0" cy="0" r="7"/>
                <circle id="rim2" cx="0" cy="0" r="3.5"/>
                <g id="zoomPlus">
                        <use xlink:href="#rim" fill="#404040">
                                <set attributeName="fill" to="#808080" begin="zoomplus.mouseover" end="zoomplus.mouseout"/>
                        </use>
                        <path d="M-4,0h8M0,-4v8" fill="none" stroke="white" stroke-width="1.5" pointer-events="none"/>
                </g>
                <g id="zoomMin">
                        <use xlink:href="#rim" fill="#404040">
                                <set attributeName="fill" to="#808080" begin="zoomminus.mouseover" end="zoomminus.mouseout"/>
                        </use>
                        <path d="M-4,0h8" fill="none" stroke="white" stroke-width="1.5" pointer-events="none"/>
                </g>
                <g id="dirArrow">
                        <path fill="none" stroke="white" stroke-width="1.5" d="M0,-3.0v7 M-2.5,-0.5L0,-3.0L2.5,-0.5"/>
                </g>
               <g id="resetDef">
                       <use xlink:href="#rim2" fill="#404040">
                               <set attributeName="fill" to="#808080" begin="reset.mouseover" end="reset.mouseout"/>
                       </use>
               </g>
        </defs>

<script type="text/javascript">
var viewWidth = 1063;
var viewHeight = 657;
var sectionId = 'dynsection-28';
</script>
<script xlink:href="svgpan.js"/>
<svg id="graph" class="graph">
<g id="viewport">
<title>mpfr::mpreal::get_emax_min</title>
<!-- Node518 -->
<g id="node1" class="node"><title>Node518</title>
<polygon fill="#bfbfbf" stroke="black" points="0,-266.5 0,-285.5 156,-285.5 156,-266.5 0,-266.5"/>
<text text-anchor="middle" x="78" y="-273.5" font-family="Helvetica,sans-Serif" font-size="10.00">mpfr::mpreal::get_emax_min</text>
</g>
<!-- Node519 -->
<g id="node2" class="node"><title>Node519</title>
<g id="a_node2"><a xlink:href="classmpfr_1_1mpreal.html#aae18e3b781bffbf4fd9938d4d3043aa1" target="_top" xlink:title="mpfr::mpreal::get_default_prec">
<polygon fill="none" stroke="black" points="192,-266.5 192,-285.5 357,-285.5 357,-266.5 192,-266.5"/>
<text text-anchor="middle" x="274.5" y="-273.5" font-family="Helvetica,sans-Serif" font-size="10.00">mpfr::mpreal::get_default_prec</text>
</a>
</g>
</g>
<!-- Node518&#45;&gt;Node519 -->
<g id="edge1" class="edge"><title>Node518&#45;&gt;Node519</title>
<path fill="none" stroke="midnightblue" d="M166.165,-276C174.752,-276 183.444,-276 191.97,-276"/>
<polygon fill="midnightblue" stroke="midnightblue" points="166.151,-272.5 156.151,-276 166.151,-279.5 166.151,-272.5"/>
</g>
<!-- Node520 -->
<g id="node3" class="node"><title>Node520</title>
<g id="a_node3"><a xlink:href="classstd_1_1numeric__limits_3_01mpfr_1_1mpreal_01_4.html#a3934cff230bb0e9121edf616b6d0627d" target="_top" xlink:title="std::numeric_limits\l\&lt; mpfr::mpreal \&gt;::digits">
<polygon fill="none" stroke="black" points="393,-618 393,-648 526,-648 526,-618 393,-618"/>
<text text-anchor="start" x="401" y="-636" font-family="Helvetica,sans-Serif" font-size="10.00">std::numeric_limits</text>
<text text-anchor="middle" x="459.5" y="-625" font-family="Helvetica,sans-Serif" font-size="10.00">&lt; mpfr::mpreal &gt;::digits</text>
</a>
</g>
</g>
<!-- Node519&#45;&gt;Node520 -->
<g id="edge2" class="edge"><title>Node519&#45;&gt;Node520</title>
<path fill="none" stroke="midnightblue" d="M277.331,-295.904C283.441,-351.48 307.835,-510.313 393,-603 398.585,-609.079 405.644,-614.017 413.046,-617.999"/>
<polygon fill="midnightblue" stroke="midnightblue" points="280.785,-295.266 276.29,-285.672 273.821,-295.976 280.785,-295.266"/>
</g>
<!-- Node521 -->
<g id="node4" class="node"><title>Node521</title>
<g id="a_node4"><a xlink:href="classmpfr_1_1mpreal.html#a9c370c68865b32775c1c1cb5123cea90" target="_top" xlink:title="mpfr::mpreal::mpreal">
<polygon fill="none" stroke="black" points="400,-266.5 400,-285.5 519,-285.5 519,-266.5 400,-266.5"/>
<text text-anchor="middle" x="459.5" y="-273.5" font-family="Helvetica,sans-Serif" font-size="10.00">mpfr::mpreal::mpreal</text>
</a>
</g>
</g>
<!-- Node519&#45;&gt;Node521 -->
<g id="edge3" class="edge"><title>Node519&#45;&gt;Node521</title>
<path fill="none" stroke="midnightblue" d="M367.254,-269.25C378.331,-269.252 389.403,-269.386 399.82,-269.652"/>
<polygon fill="midnightblue" stroke="midnightblue" points="367.087,-265.75 357.099,-269.285 367.111,-272.75 367.087,-265.75"/>
</g>
<!-- Node526 -->
<g id="node9" class="node"><title>Node526</title>
<g id="a_node9"><a xlink:href="namespacempfr.html#ab6cfe9d750c1cdf9f8d65c93bc75fa57" target="_top" xlink:title="mpfr::operator/">
<polygon fill="none" stroke="black" points="942,-453.5 942,-472.5 1031,-472.5 1031,-453.5 942,-453.5"/>
<text text-anchor="middle" x="986.5" y="-460.5" font-family="Helvetica,sans-Serif" font-size="10.00">mpfr::operator/</text>
</a>
</g>
</g>
<!-- Node519&#45;&gt;Node526 -->
<g id="edge39" class="edge"><title>Node519&#45;&gt;Node526</title>
<path fill="none" stroke="midnightblue" d="M283.683,-295.091C300.028,-331.46 339.766,-411.623 393,-463 455.475,-523.296 478.154,-538.448 562,-561 699.408,-597.958 749.887,-603.85 882,-551 924.702,-533.918 962.403,-491.8 977.945,-472.699"/>
<polygon fill="midnightblue" stroke="midnightblue" points="286.769,-293.413 279.537,-285.671 280.362,-296.234 286.769,-293.413"/>
</g>
<!-- Node521&#45;&gt;Node519 -->
<g id="edge4" class="edge"><title>Node521&#45;&gt;Node519</title>
<path fill="none" stroke="midnightblue" d="M389.758,-282.561C379.102,-282.741 368.005,-282.793 357.099,-282.715"/>
<polygon fill="midnightblue" stroke="midnightblue" points="389.897,-286.059 399.82,-282.348 389.749,-279.06 389.897,-286.059"/>
</g>
<!-- Node522 -->
<g id="node5" class="node"><title>Node522</title>
<g id="a_node5"><a xlink:href="namespacempfr.html#ab72db36dfba03626c173e0beb84b49e8" target="_top" xlink:title="mpfr::machine_epsilon">
<polygon fill="none" stroke="black" points="571,-456.5 571,-475.5 696,-475.5 696,-456.5 571,-456.5"/>
<text text-anchor="middle" x="633.5" y="-463.5" font-family="Helvetica,sans-Serif" font-size="10.00">mpfr::machine_epsilon</text>
</a>
</g>
</g>
<!-- Node521&#45;&gt;Node522 -->
<g id="edge5" class="edge"><title>Node521&#45;&gt;Node522</title>
<path fill="none" stroke="midnightblue" d="M466.607,-295.642C478.756,-331.396 509.414,-407.091 562,-447 567.15,-450.908 573.046,-454.013 579.186,-456.48"/>
<polygon fill="midnightblue" stroke="midnightblue" points="469.861,-294.33 463.427,-285.912 463.207,-296.504 469.861,-294.33"/>
</g>
<!-- Node527 -->
<g id="node10" class="node"><title>Node527</title>
<g id="a_node10"><a xlink:href="namespacempfr.html#ac5d52f3ecbedf807efc1815b836d587e" target="_top" xlink:title="mpfr::maxval">
<polygon fill="none" stroke="black" points="771.5,-289.5 771.5,-308.5 851.5,-308.5 851.5,-289.5 771.5,-289.5"/>
<text text-anchor="middle" x="811.5" y="-296.5" font-family="Helvetica,sans-Serif" font-size="10.00">mpfr::maxval</text>
</a>
</g>
</g>
<!-- Node521&#45;&gt;Node527 -->
<g id="edge19" class="edge"><title>Node521&#45;&gt;Node527</title>
<path fill="none" stroke="midnightblue" d="M490.618,-261.449C502.919,-254.288 516.465,-244.667 526,-233 553.263,-199.642 526.326,-167.153 562,-143 614.628,-107.369 648.866,-113.197 705,-143 765.932,-175.35 798.091,-260.35 807.515,-289.233"/>
<polygon fill="midnightblue" stroke="midnightblue" points="488.618,-258.554 481.541,-266.439 491.99,-264.689 488.618,-258.554"/>
</g>
<!-- Node534 -->
<g id="node17" class="node"><title>Node534</title>
<g id="a_node17"><a xlink:href="namespacempfr.html#a55c33a2e33adf3ed6f1cdca5536d8f8f" target="_top" xlink:title="mpfr::minval">
<polygon fill="none" stroke="black" points="595,-494.5 595,-513.5 672,-513.5 672,-494.5 595,-494.5"/>
<text text-anchor="middle" x="633.5" y="-501.5" font-family="Helvetica,sans-Serif" font-size="10.00">mpfr::minval</text>
</a>
</g>
</g>
<!-- Node521&#45;&gt;Node534 -->
<g id="edge20" class="edge"><title>Node521&#45;&gt;Node534</title>
<path fill="none" stroke="midnightblue" d="M469.386,-294.819C493.38,-345.566 557.956,-481.656 562,-485 571.28,-492.675 583.381,-497.27 594.932,-500.014"/>
<polygon fill="midnightblue" stroke="midnightblue" points="472.474,-293.163 465.037,-285.617 466.145,-296.153 472.474,-293.163"/>
</g>
<!-- Node536 -->
<g id="node19" class="node"><title>Node536</title>
<g id="a_node19"><a xlink:href="classmpfr_1_1mpreal.html#a74b08628ebe3b25cb7e08d28bc87a42d" target="_top" xlink:title="mpfr::mpreal::mpreal">
<polygon fill="none" stroke="black" points="574,-418.5 574,-437.5 693,-437.5 693,-418.5 574,-418.5"/>
<text text-anchor="middle" x="633.5" y="-425.5" font-family="Helvetica,sans-Serif" font-size="10.00">mpfr::mpreal::mpreal</text>
</a>
</g>
</g>
<!-- Node521&#45;&gt;Node536 -->
<g id="edge23" class="edge"><title>Node521&#45;&gt;Node536</title>
<path fill="none" stroke="midnightblue" d="M469.692,-294.87C484.826,-323.915 517.773,-379.318 562,-409 567.789,-412.885 574.345,-415.978 581.07,-418.44"/>
<polygon fill="midnightblue" stroke="midnightblue" points="472.731,-293.124 465.093,-285.782 466.486,-296.285 472.731,-293.124"/>
</g>
<!-- Node537 -->
<g id="node20" class="node"><title>Node537</title>
<g id="a_node20"><a xlink:href="namespacempfr.html#a1fdf070115136efdf0eea414e54b4ef5" target="_top" xlink:title="mpfr::operator*">
<polygon fill="none" stroke="black" points="587.5,-380.5 587.5,-399.5 679.5,-399.5 679.5,-380.5 587.5,-380.5"/>
<text text-anchor="middle" x="633.5" y="-387.5" font-family="Helvetica,sans-Serif" font-size="10.00">mpfr::operator*</text>
</a>
</g>
</g>
<!-- Node521&#45;&gt;Node537 -->
<g id="edge24" class="edge"><title>Node521&#45;&gt;Node537</title>
<path fill="none" stroke="midnightblue" d="M474.589,-293.682C492.613,-315.125 525.854,-350.886 562,-371 569.754,-375.315 578.538,-378.69 587.21,-381.318"/>
<polygon fill="midnightblue" stroke="midnightblue" points="477.091,-291.215 468.037,-285.713 471.684,-295.66 477.091,-291.215"/>
</g>
<!-- Node538 -->
<g id="node21" class="node"><title>Node538</title>
<g id="a_node21"><a xlink:href="classmpfr_1_1mpreal.html#a5f9aebe5664c2a335468c8ed0d08fa6f" target="_top" xlink:title="mpfr::mpreal::operator*=">
<polygon fill="none" stroke="black" points="563.5,-532.5 563.5,-551.5 703.5,-551.5 703.5,-532.5 563.5,-532.5"/>
<text text-anchor="middle" x="633.5" y="-539.5" font-family="Helvetica,sans-Serif" font-size="10.00">mpfr::mpreal::operator*=</text>
</a>
</g>
</g>
<!-- Node521&#45;&gt;Node538 -->
<g id="edge25" class="edge"><title>Node521&#45;&gt;Node538</title>
<path fill="none" stroke="midnightblue" d="M470.273,-294.668C483.789,-320.889 508.498,-370.317 526,-414 544.975,-461.359 524.933,-487.944 562,-523 566.052,-526.832 570.794,-529.909 575.869,-532.376"/>
<polygon fill="midnightblue" stroke="midnightblue" points="473.239,-292.784 465.526,-285.52 467.026,-296.009 473.239,-292.784"/>
</g>
<!-- Node539 -->
<g id="node22" class="node"><title>Node539</title>
<g id="a_node22"><a xlink:href="classmpfr_1_1mpreal.html#a3f7f5d20cfe5d4d5cbcee9ad7b450ca3" target="_top" xlink:title="mpfr::mpreal::operator+">
<polygon fill="none" stroke="black" points="566.5,-76.5 566.5,-95.5 700.5,-95.5 700.5,-76.5 566.5,-76.5"/>
<text text-anchor="middle" x="633.5" y="-83.5" font-family="Helvetica,sans-Serif" font-size="10.00">mpfr::mpreal::operator+</text>
</a>
</g>
</g>
<!-- Node521&#45;&gt;Node539 -->
<g id="edge27" class="edge"><title>Node521&#45;&gt;Node539</title>
<path fill="none" stroke="midnightblue" d="M491.703,-261.569C503.952,-254.511 517.163,-244.936 526,-233 559.893,-187.221 522.606,-151.141 562,-110 568.081,-103.65 575.905,-98.9797 584.118,-95.5453"/>
<polygon fill="midnightblue" stroke="midnightblue" points="489.752,-258.645 482.613,-266.473 493.076,-264.806 489.752,-258.645"/>
</g>
<!-- Node540 -->
<g id="node23" class="node"><title>Node540</title>
<g id="a_node23"><a xlink:href="namespacempfr.html#a7db5edb2c8a8f13df654e3f22b0c1d2a" target="_top" xlink:title="mpfr::operator+">
<polygon fill="none" stroke="black" points="586,-342.5 586,-361.5 681,-361.5 681,-342.5 586,-342.5"/>
<text text-anchor="middle" x="633.5" y="-349.5" font-family="Helvetica,sans-Serif" font-size="10.00">mpfr::operator+</text>
</a>
</g>
</g>
<!-- Node521&#45;&gt;Node540 -->
<g id="edge29" class="edge"><title>Node521&#45;&gt;Node540</title>
<path fill="none" stroke="midnightblue" d="M483.502,-291.109C503.553,-303.736 533.766,-321.478 562,-333 570.92,-336.64 580.757,-339.794 590.181,-342.428"/>
<polygon fill="midnightblue" stroke="midnightblue" points="485.36,-288.143 475.049,-285.708 481.591,-294.042 485.36,-288.143"/>
</g>
<!-- Node541 -->
<g id="node24" class="node"><title>Node541</title>
<g id="a_node24"><a xlink:href="classmpfr_1_1mpreal.html#a11fd44a6fe5b15dd2e8d96c5f65f0b59" target="_top" xlink:title="mpfr::mpreal::operator+=">
<polygon fill="none" stroke="black" points="562,-304.5 562,-323.5 705,-323.5 705,-304.5 562,-304.5"/>
<text text-anchor="middle" x="633.5" y="-311.5" font-family="Helvetica,sans-Serif" font-size="10.00">mpfr::mpreal::operator+=</text>
</a>
</g>
</g>
<!-- Node521&#45;&gt;Node541 -->
<g id="edge30" class="edge"><title>Node521&#45;&gt;Node541</title>
<path fill="none" stroke="midnightblue" d="M513.696,-287.753C538.017,-293.126 566.455,-299.409 589.409,-304.48"/>
<polygon fill="midnightblue" stroke="midnightblue" points="514.422,-284.329 503.903,-285.589 512.912,-291.164 514.422,-284.329"/>
</g>
<!-- Node542 -->
<g id="node25" class="node"><title>Node542</title>
<g id="a_node25"><a xlink:href="namespacempfr.html#ad4ee72b1913629e82105f0c2d72a7b4a" target="_top" xlink:title="mpfr::operator&#45;">
<polygon fill="none" stroke="black" points="589,-266.5 589,-285.5 678,-285.5 678,-266.5 589,-266.5"/>
<text text-anchor="middle" x="633.5" y="-273.5" font-family="Helvetica,sans-Serif" font-size="10.00">mpfr::operator&#45;</text>
</a>
</g>
</g>
<!-- Node521&#45;&gt;Node542 -->
<g id="edge31" class="edge"><title>Node521&#45;&gt;Node542</title>
<path fill="none" stroke="midnightblue" d="M529.285,-276C549.427,-276 570.882,-276 588.983,-276"/>
<polygon fill="midnightblue" stroke="midnightblue" points="529.212,-272.5 519.212,-276 529.212,-279.5 529.212,-272.5"/>
</g>
<!-- Node543 -->
<g id="node26" class="node"><title>Node543</title>
<g id="a_node26"><a xlink:href="classmpfr_1_1mpreal.html#a8aafaacaea104a79fb62d8813226500f" target="_top" xlink:title="mpfr::mpreal::operator&#45;=">
<polygon fill="none" stroke="black" points="565,-38.5 565,-57.5 702,-57.5 702,-38.5 565,-38.5"/>
<text text-anchor="middle" x="633.5" y="-45.5" font-family="Helvetica,sans-Serif" font-size="10.00">mpfr::mpreal::operator&#45;=</text>
</a>
</g>
</g>
<!-- Node521&#45;&gt;Node543 -->
<g id="edge32" class="edge"><title>Node521&#45;&gt;Node543</title>
<path fill="none" stroke="midnightblue" d="M471.545,-257.613C485.187,-234.542 508.706,-193.56 526,-157 544.422,-118.056 529.804,-95.6258 562,-67 566.358,-63.1255 571.426,-60.0299 576.808,-57.5584"/>
<polygon fill="midnightblue" stroke="midnightblue" points="468.459,-255.956 466.35,-266.339 474.473,-259.537 468.459,-255.956"/>
</g>
<!-- Node544 -->
<g id="node27" class="node"><title>Node544</title>
<g id="a_node27"><a xlink:href="namespacempfr.html#a5486ca908b39cd91a9d60586866f40d6" target="_top" xlink:title="mpfr::operator/">
<polygon fill="none" stroke="black" points="589,-228.5 589,-247.5 678,-247.5 678,-228.5 589,-228.5"/>
<text text-anchor="middle" x="633.5" y="-235.5" font-family="Helvetica,sans-Serif" font-size="10.00">mpfr::operator/</text>
</a>
</g>
</g>
<!-- Node521&#45;&gt;Node544 -->
<g id="edge34" class="edge"><title>Node521&#45;&gt;Node544</title>
<path fill="none" stroke="midnightblue" d="M513.696,-264.247C538.017,-258.874 566.455,-252.591 589.409,-247.52"/>
<polygon fill="midnightblue" stroke="midnightblue" points="512.912,-260.836 503.903,-266.411 514.422,-267.671 512.912,-260.836"/>
</g>
<!-- Node545 -->
<g id="node28" class="node"><title>Node545</title>
<g id="a_node28"><a xlink:href="classmpfr_1_1mpreal.html#a9f6b4a0f16104e98d0f96b5666b08329" target="_top" xlink:title="mpfr::mpreal::operator/=">
<polygon fill="none" stroke="black" points="565,-0.5 565,-19.5 702,-19.5 702,-0.5 565,-0.5"/>
<text text-anchor="middle" x="633.5" y="-7.5" font-family="Helvetica,sans-Serif" font-size="10.00">mpfr::mpreal::operator/=</text>
</a>
</g>
</g>
<!-- Node521&#45;&gt;Node545 -->
<g id="edge35" class="edge"><title>Node521&#45;&gt;Node545</title>
<path fill="none" stroke="midnightblue" d="M462.689,-256.47C468.982,-209.812 491.45,-91.1365 562,-29 566.376,-25.146 571.455,-22.0635 576.845,-19.5998"/>
<polygon fill="midnightblue" stroke="midnightblue" points="459.206,-256.115 461.444,-266.47 466.153,-256.979 459.206,-256.115"/>
</g>
<!-- Node546 -->
<g id="node29" class="node"><title>Node546</title>
<g id="a_node29"><a xlink:href="namespacempfr.html#a47c705d079873d21b2ae64570c2dbe7c" target="_top" xlink:title="mpfr::pow">
<polygon fill="none" stroke="black" points="601.5,-190.5 601.5,-209.5 665.5,-209.5 665.5,-190.5 601.5,-190.5"/>
<text text-anchor="middle" x="633.5" y="-197.5" font-family="Helvetica,sans-Serif" font-size="10.00">mpfr::pow</text>
</a>
</g>
</g>
<!-- Node521&#45;&gt;Node546 -->
<g id="edge37" class="edge"><title>Node521&#45;&gt;Node546</title>
<path fill="none" stroke="midnightblue" d="M483.502,-260.891C503.553,-248.264 533.766,-230.522 562,-219 574.558,-213.875 588.935,-209.715 601.416,-206.609"/>
<polygon fill="midnightblue" stroke="midnightblue" points="481.591,-257.958 475.049,-266.292 485.36,-263.857 481.591,-257.958"/>
</g>
<!-- Node547 -->
<g id="node30" class="node"><title>Node547</title>
<g id="a_node30"><a xlink:href="namespacempfr.html#ac48d4b27943090ddad2744b82a4839b2" target="_top" xlink:title="mpfr::sqrt">
<polygon fill="none" stroke="black" points="601.5,-152.5 601.5,-171.5 665.5,-171.5 665.5,-152.5 601.5,-152.5"/>
<text text-anchor="middle" x="633.5" y="-159.5" font-family="Helvetica,sans-Serif" font-size="10.00">mpfr::sqrt</text>
</a>
</g>
</g>
<!-- Node521&#45;&gt;Node547 -->
<g id="edge38" class="edge"><title>Node521&#45;&gt;Node547</title>
<path fill="none" stroke="midnightblue" d="M487.749,-261.348C500.23,-253.86 514.718,-244.008 526,-233 546.119,-213.37 539.029,-197.201 562,-181 573.499,-172.89 588.28,-168.241 601.336,-165.576"/>
<polygon fill="midnightblue" stroke="midnightblue" points="485.988,-258.323 479.091,-266.365 489.498,-264.38 485.988,-258.323"/>
</g>
<!-- Node523 -->
<g id="node6" class="node"><title>Node523</title>
<g id="a_node6"><a xlink:href="classstd_1_1numeric__limits_3_01mpfr_1_1mpreal_01_4.html#ac2f7a8222ef4b03518ad0a3e247b0ff6" target="_top" xlink:title="std::numeric_limits\l\&lt; mpfr::mpreal \&gt;::epsilon">
<polygon fill="none" stroke="black" points="741,-366 741,-396 882,-396 882,-366 741,-366"/>
<text text-anchor="start" x="749" y="-384" font-family="Helvetica,sans-Serif" font-size="10.00">std::numeric_limits</text>
<text text-anchor="middle" x="811.5" y="-373" font-family="Helvetica,sans-Serif" font-size="10.00">&lt; mpfr::mpreal &gt;::epsilon</text>
</a>
</g>
</g>
<!-- Node522&#45;&gt;Node523 -->
<g id="edge6" class="edge"><title>Node522&#45;&gt;Node523</title>
<path fill="none" stroke="midnightblue" d="M692.724,-452.974C696.989,-451.22 701.13,-449.238 705,-447 724.588,-435.672 722.279,-423.71 741,-411 749.372,-405.316 758.996,-400.337 768.36,-396.153"/>
<polygon fill="midnightblue" stroke="midnightblue" points="691.424,-449.723 683.248,-456.46 693.841,-456.292 691.424,-449.723"/>
</g>
<!-- Node524 -->
<g id="node7" class="node"><title>Node524</title>
<g id="a_node7"><a xlink:href="namespacempfr.html#a2b277f6e7a98e7b5da7fad3a38a211ec" target="_top" xlink:title="mpfr::isEqualFuzzy">
<polygon fill="none" stroke="black" points="759,-327.5 759,-346.5 864,-346.5 864,-327.5 759,-327.5"/>
<text text-anchor="middle" x="811.5" y="-334.5" font-family="Helvetica,sans-Serif" font-size="10.00">mpfr::isEqualFuzzy</text>
</a>
</g>
</g>
<!-- Node522&#45;&gt;Node524 -->
<g id="edge7" class="edge"><title>Node522&#45;&gt;Node524</title>
<path fill="none" stroke="midnightblue" d="M699.372,-451.355C701.348,-450.026 703.233,-448.577 705,-447 737.449,-418.038 708.603,-385.02 741,-356 746.124,-351.41 752.255,-347.915 758.723,-345.256"/>
<polygon fill="midnightblue" stroke="midnightblue" points="697.241,-448.536 690.207,-456.458 700.647,-454.651 697.241,-448.536"/>
</g>
<!-- Node525 -->
<g id="node8" class="node"><title>Node525</title>
<g id="a_node8"><a xlink:href="namespacempfr.html#a63ac5362ad5af999b1bc94649e772dde" target="_top" xlink:title="mpfr::isEqualUlps">
<polygon fill="none" stroke="black" points="761.5,-453.5 761.5,-472.5 861.5,-472.5 861.5,-453.5 761.5,-453.5"/>
<text text-anchor="middle" x="811.5" y="-460.5" font-family="Helvetica,sans-Serif" font-size="10.00">mpfr::isEqualUlps</text>
</a>
</g>
</g>
<!-- Node522&#45;&gt;Node525 -->
<g id="edge8" class="edge"><title>Node522&#45;&gt;Node525</title>
<path fill="none" stroke="midnightblue" d="M706.24,-464.777C724.794,-464.461 744.348,-464.128 761.445,-463.836"/>
<polygon fill="midnightblue" stroke="midnightblue" points="705.995,-461.281 696.056,-464.951 706.114,-468.28 705.995,-461.281"/>
</g>
<!-- Node522&#45;&gt;Node526 -->
<g id="edge18" class="edge"><title>Node522&#45;&gt;Node526</title>
<path fill="none" stroke="midnightblue" d="M681.117,-454.226C699.627,-450.115 721.191,-446.025 741,-444 803.342,-437.628 819.591,-438.319 882,-444 902.377,-445.855 924.735,-449.723 943.44,-453.489"/>
<polygon fill="midnightblue" stroke="midnightblue" points="680.147,-450.857 671.178,-456.498 681.707,-457.681 680.147,-450.857"/>
</g>
<!-- Node522&#45;&gt;Node527 -->
<g id="edge10" class="edge"><title>Node522&#45;&gt;Node527</title>
<path fill="none" stroke="midnightblue" d="M700.372,-451.007C702,-449.772 703.548,-448.439 705,-447 747.277,-405.098 698.799,-359.978 741,-318 749.07,-309.972 760.185,-305.251 771.16,-302.5"/>
<polygon fill="midnightblue" stroke="midnightblue" points="698.323,-448.159 691.661,-456.397 702.006,-454.111 698.323,-448.159"/>
</g>
<!-- Node525&#45;&gt;Node526 -->
<g id="edge9" class="edge"><title>Node525&#45;&gt;Node526</title>
<path fill="none" stroke="midnightblue" d="M871.624,-463C894.659,-463 920.582,-463 941.869,-463"/>
<polygon fill="midnightblue" stroke="midnightblue" points="871.612,-459.5 861.612,-463 871.612,-466.5 871.612,-459.5"/>
</g>
<!-- Node527&#45;&gt;Node526 -->
<g id="edge17" class="edge"><title>Node527&#45;&gt;Node526</title>
<path fill="none" stroke="midnightblue" d="M861.488,-305.588C869.074,-308.419 876.278,-312.404 882,-318 922.114,-357.229 879.38,-398.3 918,-439 924.506,-445.857 933.099,-450.758 941.965,-454.26"/>
<polygon fill="midnightblue" stroke="midnightblue" points="862.343,-302.189 851.755,-302.586 860.279,-308.878 862.343,-302.189"/>
</g>
<!-- Node528 -->
<g id="node11" class="node"><title>Node528</title>
<g id="a_node11"><a xlink:href="classEigen_1_1EigenSolver.html#a99e6120839b1f65c4e1f1ba61efa264e" target="_top" xlink:title="Eigen::EigenSolver\l\&lt; CompanionMatrixType\l \&gt;::compute">
<polygon fill="none" stroke="black" points="920,-338.5 920,-379.5 1053,-379.5 1053,-338.5 920,-338.5"/>
<text text-anchor="start" x="928" y="-367.5" font-family="Helvetica,sans-Serif" font-size="10.00">Eigen::EigenSolver</text>
<text text-anchor="start" x="928" y="-356.5" font-family="Helvetica,sans-Serif" font-size="10.00">&lt; CompanionMatrixType</text>
<text text-anchor="middle" x="986.5" y="-345.5" font-family="Helvetica,sans-Serif" font-size="10.00"> &gt;::compute</text>
</a>
</g>
</g>
<!-- Node527&#45;&gt;Node528 -->
<g id="edge11" class="edge"><title>Node527&#45;&gt;Node528</title>
<path fill="none" stroke="midnightblue" d="M859.892,-311.203C867.332,-313.335 874.905,-315.633 882,-318 900.15,-324.056 919.741,-331.559 936.944,-338.485"/>
<polygon fill="midnightblue" stroke="midnightblue" points="860.813,-307.826 850.24,-308.504 858.928,-314.568 860.813,-307.826"/>
</g>
<!-- Node529 -->
<g id="node12" class="node"><title>Node529</title>
<g id="a_node12"><a xlink:href="classSystemBase.html#a4ffed53296033614e4701f01363e6b3f" target="_top" xlink:title="SystemBase\&lt; StateTwo\l \&gt;::getConnections">
<polygon fill="none" stroke="black" points="921,-289 921,-319 1052,-319 1052,-289 921,-289"/>
<text text-anchor="start" x="929" y="-307" font-family="Helvetica,sans-Serif" font-size="10.00">SystemBase&lt; StateTwo</text>
<text text-anchor="middle" x="986.5" y="-296" font-family="Helvetica,sans-Serif" font-size="10.00"> &gt;::getConnections</text>
</a>
</g>
</g>
<!-- Node527&#45;&gt;Node529 -->
<g id="edge12" class="edge"><title>Node527&#45;&gt;Node529</title>
<path fill="none" stroke="midnightblue" d="M861.936,-300.429C880.307,-300.96 901.429,-301.57 920.952,-302.134"/>
<polygon fill="midnightblue" stroke="midnightblue" points="861.853,-296.925 851.756,-300.135 861.651,-303.922 861.853,-296.925"/>
</g>
<!-- Node530 -->
<g id="node13" class="node"><title>Node530</title>
<g id="a_node13"><a xlink:href="classSystemBase.html#a36f4a02104e9f68e60732267bc6eafbc" target="_top" xlink:title="SystemBase\&lt; StateTwo\l \&gt;::getMainStates">
<polygon fill="none" stroke="black" points="921,-240 921,-270 1052,-270 1052,-240 921,-240"/>
<text text-anchor="start" x="929" y="-258" font-family="Helvetica,sans-Serif" font-size="10.00">SystemBase&lt; StateTwo</text>
<text text-anchor="middle" x="986.5" y="-247" font-family="Helvetica,sans-Serif" font-size="10.00"> &gt;::getMainStates</text>
</a>
</g>
</g>
<!-- Node527&#45;&gt;Node530 -->
<g id="edge13" class="edge"><title>Node527&#45;&gt;Node530</title>
<path fill="none" stroke="midnightblue" d="M859.785,-286.974C880.305,-281.755 904.561,-275.586 926.266,-270.065"/>
<polygon fill="midnightblue" stroke="midnightblue" points="858.867,-283.596 850.038,-289.453 860.593,-290.38 858.867,-283.596"/>
</g>
<!-- Node531 -->
<g id="node14" class="node"><title>Node531</title>
<g id="a_node14"><a xlink:href="classSystemBase.html#af68a98c6f66a1ef06fa78fbe9c209ba7" target="_top" xlink:title="SystemBase\&lt; StateTwo\l \&gt;::getVectorindex">
<polygon fill="none" stroke="black" points="921,-191 921,-221 1052,-221 1052,-191 921,-191"/>
<text text-anchor="start" x="929" y="-209" font-family="Helvetica,sans-Serif" font-size="10.00">SystemBase&lt; StateTwo</text>
<text text-anchor="middle" x="986.5" y="-198" font-family="Helvetica,sans-Serif" font-size="10.00"> &gt;::getVectorindex</text>
</a>
</g>
</g>
<!-- Node527&#45;&gt;Node531 -->
<g id="edge14" class="edge"><title>Node527&#45;&gt;Node531</title>
<path fill="none" stroke="midnightblue" d="M833.214,-283.316C853.87,-268.201 886.916,-245.416 918,-230 924.463,-226.795 931.462,-223.81 938.422,-221.11"/>
<polygon fill="midnightblue" stroke="midnightblue" points="830.855,-280.707 824.905,-289.473 835.023,-286.332 830.855,-280.707"/>
</g>
<!-- Node532 -->
<g id="node15" class="node"><title>Node532</title>
<g id="a_node15"><a xlink:href="classstd_1_1numeric__limits_3_01mpfr_1_1mpreal_01_4.html#afe87477420320b20ef726e383e06a950" target="_top" xlink:title="std::numeric_limits\l\&lt; mpfr::mpreal \&gt;::lowest">
<polygon fill="none" stroke="black" points="918,-142 918,-172 1055,-172 1055,-142 918,-142"/>
<text text-anchor="start" x="926" y="-160" font-family="Helvetica,sans-Serif" font-size="10.00">std::numeric_limits</text>
<text text-anchor="middle" x="986.5" y="-149" font-family="Helvetica,sans-Serif" font-size="10.00">&lt; mpfr::mpreal &gt;::lowest</text>
</a>
</g>
</g>
<!-- Node527&#45;&gt;Node532 -->
<g id="edge15" class="edge"><title>Node527&#45;&gt;Node532</title>
<path fill="none" stroke="midnightblue" d="M824.305,-280.846C841.85,-255.198 877.162,-208.428 918,-181 923.059,-177.602 928.655,-174.626 934.396,-172.034"/>
<polygon fill="midnightblue" stroke="midnightblue" points="821.323,-279.008 818.667,-289.265 827.139,-282.903 821.323,-279.008"/>
</g>
<!-- Node533 -->
<g id="node16" class="node"><title>Node533</title>
<g id="a_node16"><a xlink:href="classstd_1_1numeric__limits_3_01mpfr_1_1mpreal_01_4.html#af3b5798dea70eba7566b8558177c5cb7" target="_top" xlink:title="std::numeric_limits\l\&lt; mpfr::mpreal \&gt;::max">
<polygon fill="none" stroke="black" points="922.5,-399 922.5,-429 1050.5,-429 1050.5,-399 922.5,-399"/>
<text text-anchor="start" x="930.5" y="-417" font-family="Helvetica,sans-Serif" font-size="10.00">std::numeric_limits</text>
<text text-anchor="middle" x="986.5" y="-406" font-family="Helvetica,sans-Serif" font-size="10.00">&lt; mpfr::mpreal &gt;::max</text>
</a>
</g>
</g>
<!-- Node527&#45;&gt;Node533 -->
<g id="edge16" class="edge"><title>Node527&#45;&gt;Node533</title>
<path fill="none" stroke="midnightblue" d="M861.183,-306.676C868.681,-309.388 875.934,-313.052 882,-318 909.417,-340.362 891.591,-365.456 918,-389 922.291,-392.825 927.219,-396.083 932.417,-398.854"/>
<polygon fill="midnightblue" stroke="midnightblue" points="862.214,-303.331 851.627,-303.724 860.148,-310.02 862.214,-303.331"/>
</g>
<!-- Node534&#45;&gt;Node526 -->
<g id="edge22" class="edge"><title>Node534&#45;&gt;Node526</title>
<path fill="none" stroke="midnightblue" d="M679.944,-516.229C707.412,-523.573 737.749,-531.58 741,-532 803.15,-540.033 822.022,-550.16 882,-532 920.858,-520.235 958.462,-488.538 975.697,-472.529"/>
<polygon fill="midnightblue" stroke="midnightblue" points="680.575,-512.774 670.01,-513.568 678.764,-519.536 680.575,-512.774"/>
</g>
<!-- Node535 -->
<g id="node18" class="node"><title>Node535</title>
<g id="a_node18"><a xlink:href="classstd_1_1numeric__limits_3_01mpfr_1_1mpreal_01_4.html#ae26e5f5575ce3fcdc7571353d5943447" target="_top" xlink:title="std::numeric_limits\l\&lt; mpfr::mpreal \&gt;::min">
<polygon fill="none" stroke="black" points="749,-492 749,-522 874,-522 874,-492 749,-492"/>
<text text-anchor="start" x="757" y="-510" font-family="Helvetica,sans-Serif" font-size="10.00">std::numeric_limits</text>
<text text-anchor="middle" x="811.5" y="-499" font-family="Helvetica,sans-Serif" font-size="10.00">&lt; mpfr::mpreal &gt;::min</text>
</a>
</g>
</g>
<!-- Node534&#45;&gt;Node535 -->
<g id="edge21" class="edge"><title>Node534&#45;&gt;Node535</title>
<path fill="none" stroke="midnightblue" d="M682.312,-504.815C702.838,-505.165 727.078,-505.578 748.923,-505.95"/>
<polygon fill="midnightblue" stroke="midnightblue" points="682.315,-501.315 672.256,-504.644 682.195,-508.314 682.315,-501.315"/>
</g>
<!-- Node538&#45;&gt;Node519 -->
<g id="edge26" class="edge"><title>Node538&#45;&gt;Node519</title>
<path fill="none" stroke="midnightblue" d="M575.676,-529.122C570.944,-527.323 566.323,-525.291 562,-523 434.633,-455.493 315.054,-322.162 283.544,-285.515"/>
<polygon fill="midnightblue" stroke="midnightblue" points="574.89,-532.553 585.485,-532.496 577.167,-525.934 574.89,-532.553"/>
</g>
<!-- Node539&#45;&gt;Node519 -->
<g id="edge28" class="edge"><title>Node539&#45;&gt;Node519</title>
<path fill="none" stroke="midnightblue" d="M590.916,-99.3062C580.955,-103.496 570.695,-108.711 562,-115 542.08,-129.409 545.53,-142.066 526,-157 454.861,-211.398 354.859,-249.568 305.489,-266.375"/>
<polygon fill="midnightblue" stroke="midnightblue" points="592.294,-102.525 600.314,-95.6017 589.727,-96.0129 592.294,-102.525"/>
</g>
<!-- Node543&#45;&gt;Node519 -->
<g id="edge33" class="edge"><title>Node543&#45;&gt;Node519</title>
<path fill="none" stroke="midnightblue" d="M581.377,-60.3052C574.782,-62.3208 568.178,-64.5588 562,-67 482.856,-98.2717 461.229,-106.143 393,-157 346.443,-191.703 300.915,-244.814 283.224,-266.39"/>
<polygon fill="midnightblue" stroke="midnightblue" points="582.358,-63.6651 590.983,-57.5134 580.404,-56.9432 582.358,-63.6651"/>
</g>
<!-- Node545&#45;&gt;Node519 -->
<g id="edge36" class="edge"><title>Node545&#45;&gt;Node519</title>
<path fill="none" stroke="midnightblue" d="M555.056,-17.0272C504.56,-24.975 439.624,-41.9111 393,-78 325.04,-130.604 288.354,-234.506 278.347,-266.439"/>
<polygon fill="midnightblue" stroke="midnightblue" points="555.577,-20.4883 564.952,-15.5545 554.546,-13.5645 555.577,-20.4883"/>
</g>
</g>
</svg>
        <g id="navigator" transform="translate(0 0)" fill="#404254">
                <rect fill="#f2f5e9" fill-opacity="0.5" stroke="#606060" stroke-width=".5" x="0" y="0" width="60" height="60"/>
                <use id="zoomplus" xlink:href="#zoomPlus" x="17" y="9" onmousedown="handleZoom(evt,'in')"/>
                <use id="zoomminus" xlink:href="#zoomMin" x="42" y="9" onmousedown="handleZoom(evt,'out')"/>
                <use id="reset" xlink:href="#resetDef" x="30" y="36" onmousedown="handleReset()"/>
                <g id="arrowUp" xlink:href="#dirArrow" transform="translate(30 24)" onmousedown="handlePan(0,-1)">
                  <use xlink:href="#rim" fill="#404040">
                        <set attributeName="fill" to="#808080" begin="arrowUp.mouseover" end="arrowUp.mouseout"/>
                  </use>
                  <path fill="none" stroke="white" stroke-width="1.5" d="M0,-3.0v7 M-2.5,-0.5L0,-3.0L2.5,-0.5"/>
                </g>
                <g id="arrowRight" xlink:href="#dirArrow" transform="rotate(90) translate(36 -43)" onmousedown="handlePan(1,0)">
                  <use xlink:href="#rim" fill="#404040">
                        <set attributeName="fill" to="#808080" begin="arrowRight.mouseover" end="arrowRight.mouseout"/>
                  </use>
                  <path fill="none" stroke="white" stroke-width="1.5" d="M0,-3.0v7 M-2.5,-0.5L0,-3.0L2.5,-0.5"/>
                </g>
                <g id="arrowDown" xlink:href="#dirArrow" transform="rotate(180) translate(-30 -48)" onmousedown="handlePan(0,1)">
                  <use xlink:href="#rim" fill="#404040">
                        <set attributeName="fill" to="#808080" begin="arrowDown.mouseover" end="arrowDown.mouseout"/>
                  </use>
                  <path fill="none" stroke="white" stroke-width="1.5" d="M0,-3.0v7 M-2.5,-0.5L0,-3.0L2.5,-0.5"/>
                </g>
                <g id="arrowLeft" xlink:href="#dirArrow" transform="rotate(270) translate(-36 17)" onmousedown="handlePan(-1,0)">
                  <use xlink:href="#rim" fill="#404040">
                        <set attributeName="fill" to="#808080" begin="arrowLeft.mouseover" end="arrowLeft.mouseout"/>
                  </use>
                  <path fill="none" stroke="white" stroke-width="1.5" d="M0,-3.0v7 M-2.5,-0.5L0,-3.0L2.5,-0.5"/>
                </g>
        </g>
        <svg viewBox="0 0 15 15" width="100%" height="30px" preserveAspectRatio="xMaxYMin meet">
         <g id="arrow_out" transform="scale(0.3 0.3)">
          <a xlink:href="classmpfr_1_1mpreal_a05156da386da2186d1c6c8ae977f1989_icgraph_org.svg" target="_base">
           <rect id="button" ry="5" rx="5" y="6" x="6" height="38" width="38"
                fill="#f2f5e9" fill-opacity="0.5" stroke="#606060" stroke-width="1.0"/>
           <path id="arrow"
             d="M 11.500037,31.436501 C 11.940474,20.09759 22.043105,11.32322 32.158766,21.979434 L 37.068811,17.246167 C 37.068811,17.246167 37.088388,32 37.088388,32 L 22.160133,31.978069 C 22.160133,31.978069 26.997745,27.140456 26.997745,27.140456 C 18.528582,18.264221 13.291696,25.230495 11.500037,31.436501 z"
             style="fill:#404040;"/>
          </a>
         </g>
        </svg>
</svg>
