<?xml version="1.0" encoding="UTF-8" standalone="no"?>
<!DOCTYPE svg PUBLIC "-//W3C//DTD SVG 1.1//EN"
 "http://www.w3.org/Graphics/SVG/1.1/DTD/svg11.dtd">
<!-- Generated by graphviz version 2.38.0 (20140413.2041)
 -->
<!-- Title: Action_aat_product::check_result Pages: 1 -->
<svg width="286pt" height="116pt"
 viewBox="0.00 0.00 286.00 115.50" xmlns="http://www.w3.org/2000/svg" xmlns:xlink="http://www.w3.org/1999/xlink">
<g id="graph0" class="graph" transform="scale(1 1) rotate(0) translate(4 111.5)">
<title>Action_aat_product::check_result</title>
<!-- Node8 -->
<g id="node1" class="node"><title>Node8</title>
<polygon fill="#bfbfbf" stroke="black" points="0,-33 0,-63 110,-63 110,-33 0,-33"/>
<text text-anchor="start" x="8" y="-51" font-family="Helvetica,sans-Serif" font-size="10.00">Action_aat_product</text>
<text text-anchor="middle" x="55" y="-40" font-family="Helvetica,sans-Serif" font-size="10.00">::check_result</text>
</g>
<!-- Node9 -->
<g id="node2" class="node"><title>Node9</title>
<g id="a_node2"><a xlink:href="classSTL__interface.html#a148dbc43db30109f1133a692909c1ed6" target="_top" xlink:title="STL_interface::aat\l_product">
<polygon fill="none" stroke="black" points="160.5,-77 160.5,-107 263.5,-107 263.5,-77 160.5,-77"/>
<text text-anchor="start" x="168.5" y="-95" font-family="Helvetica,sans-Serif" font-size="10.00">STL_interface::aat</text>
<text text-anchor="middle" x="212" y="-84" font-family="Helvetica,sans-Serif" font-size="10.00">_product</text>
</a>
</g>
</g>
<!-- Node8&#45;&gt;Node9 -->
<g id="edge1" class="edge"><title>Node8&#45;&gt;Node9</title>
<path fill="none" stroke="midnightblue" d="M108.909,-63.0192C122.317,-66.8255 136.821,-70.9428 150.571,-74.846"/>
<polygon fill="midnightblue" stroke="midnightblue" points="149.847,-78.2788 160.423,-77.6427 151.759,-71.5448 149.847,-78.2788"/>
</g>
<!-- Node10 -->
<g id="node3" class="node"><title>Node10</title>
<g id="a_node3"><a xlink:href="Cwise__array__power__array_8cpp.html#aa9e3025f5efca2c2a39d785652f2d710" target="_top" xlink:title="e">
<polygon fill="none" stroke="black" points="197.5,-38.5 197.5,-57.5 226.5,-57.5 226.5,-38.5 197.5,-38.5"/>
<text text-anchor="middle" x="212" y="-45.5" font-family="Helvetica,sans-Serif" font-size="10.00">e</text>
</a>
</g>
</g>
<!-- Node8&#45;&gt;Node10 -->
<g id="edge2" class="edge"><title>Node8&#45;&gt;Node10</title>
<path fill="none" stroke="midnightblue" d="M110.211,-48C136.434,-48 166.578,-48 187.017,-48"/>
<polygon fill="midnightblue" stroke="midnightblue" points="187.287,-51.5001 197.287,-48 187.287,-44.5001 187.287,-51.5001"/>
</g>
<!-- Node11 -->
<g id="node4" class="node"><title>Node11</title>
<g id="a_node4"><a xlink:href="classSTL__interface.html#ae22df884fd2657f82119665d11ba07e4" target="_top" xlink:title="STL_interface::norm_diff">
<polygon fill="none" stroke="black" points="146,-0.5 146,-19.5 278,-19.5 278,-0.5 146,-0.5"/>
<text text-anchor="middle" x="212" y="-7.5" font-family="Helvetica,sans-Serif" font-size="10.00">STL_interface::norm_diff</text>
</a>
</g>
</g>
<!-- Node8&#45;&gt;Node11 -->
<g id="edge3" class="edge"><title>Node8&#45;&gt;Node11</title>
<path fill="none" stroke="midnightblue" d="M110.211,-34.7094C127.129,-30.562 145.678,-26.0145 162.2,-21.9638"/>
<polygon fill="midnightblue" stroke="midnightblue" points="163.314,-25.2944 172.193,-19.5139 161.647,-18.4958 163.314,-25.2944"/>
</g>
</g>
</svg>
