<?xml version="1.0" encoding="UTF-8" standalone="no"?>
<!DOCTYPE svg PUBLIC "-//W3C//DTD SVG 1.1//EN"
 "http://www.w3.org/Graphics/SVG/1.1/DTD/svg11.dtd">
<!-- Generated by graphviz version 2.38.0 (20140413.2041)
 -->
<!-- Title: Eigen::SparseMatrix::setZero Pages: 1 -->
<!--zoomable 293 -->
<svg id="main" version="1.1" xmlns="http://www.w3.org/2000/svg" xmlns:xlink="http://www.w3.org/1999/xlink" xml:space="preserve" onload="init(evt)">
<style type="text/css"><![CDATA[
.edge:hover path { stroke: red; }
.edge:hover polygon { stroke: red; fill: red; }
]]></style>
<script type="text/javascript"><![CDATA[
var edges = document.getElementsByTagName('g');
if (edges && edges.length) {
  for (var i=0;i<edges.length;i++) {
    if (edges[i].id.substr(0,4)=='edge') {
      edges[i].setAttribute('class','edge');
    }
  }
}
]]></script>
        <defs>
                <circle id="rim" cx="0" cy="0" r="7"/>
                <circle id="rim2" cx="0" cy="0" r="3.5"/>
                <g id="zoomPlus">
                        <use xlink:href="#rim" fill="#404040">
                                <set attributeName="fill" to="#808080" begin="zoomplus.mouseover" end="zoomplus.mouseout"/>
                        </use>
                        <path d="M-4,0h8M0,-4v8" fill="none" stroke="white" stroke-width="1.5" pointer-events="none"/>
                </g>
                <g id="zoomMin">
                        <use xlink:href="#rim" fill="#404040">
                                <set attributeName="fill" to="#808080" begin="zoomminus.mouseover" end="zoomminus.mouseout"/>
                        </use>
                        <path d="M-4,0h8" fill="none" stroke="white" stroke-width="1.5" pointer-events="none"/>
                </g>
                <g id="dirArrow">
                        <path fill="none" stroke="white" stroke-width="1.5" d="M0,-3.0v7 M-2.5,-0.5L0,-3.0L2.5,-0.5"/>
                </g>
               <g id="resetDef">
                       <use xlink:href="#rim2" fill="#404040">
                               <set attributeName="fill" to="#808080" begin="reset.mouseover" end="reset.mouseout"/>
                       </use>
               </g>
        </defs>

<script type="text/javascript">
var viewWidth = 657;
var viewHeight = 293;
var sectionId = 'dynsection-22';
</script>
<script xlink:href="svgpan.js"/>
<svg id="graph" class="graph">
<g id="viewport">
<title>Eigen::SparseMatrix::setZero</title>
<!-- Node419 -->
<g id="node1" class="node"><title>Node419</title>
<polygon fill="#bfbfbf" stroke="black" points="0,-121 0,-151 112,-151 112,-121 0,-121"/>
<text text-anchor="start" x="8" y="-139" font-family="Helvetica,sans-Serif" font-size="10.00">Eigen::SparseMatrix</text>
<text text-anchor="middle" x="56" y="-128" font-family="Helvetica,sans-Serif" font-size="10.00">::setZero</text>
</g>
<!-- Node420 -->
<g id="node2" class="node"><title>Node420</title>
<g id="a_node2"><a xlink:href="classHamiltonianmatrix.html#a1db6d20a1d88ef89f1acdad819af34ee" target="_top" xlink:title="Hamiltonianmatrix::\ldiagonalize">
<polygon fill="none" stroke="black" points="148.5,-241 148.5,-271 259.5,-271 259.5,-241 148.5,-241"/>
<text text-anchor="start" x="156.5" y="-259" font-family="Helvetica,sans-Serif" font-size="10.00">Hamiltonianmatrix::</text>
<text text-anchor="middle" x="204" y="-248" font-family="Helvetica,sans-Serif" font-size="10.00">diagonalize</text>
</a>
</g>
</g>
<!-- Node419&#45;&gt;Node420 -->
<g id="edge1" class="edge"><title>Node419&#45;&gt;Node420</title>
<path fill="none" stroke="midnightblue" d="M74.9351,-159.259C91.9635,-180.14 119.18,-210.566 148,-231 153.134,-234.64 158.882,-237.947 164.675,-240.877"/>
<polygon fill="midnightblue" stroke="midnightblue" points="77.4822,-156.84 68.4994,-151.222 72.0183,-161.216 77.4822,-156.84"/>
</g>
<!-- Node425 -->
<g id="node7" class="node"><title>Node425</title>
<g id="a_node7"><a xlink:href="sparse__randomsetter_8cpp.html#a728f25a36d04ee2c3aa05cb72245345a" target="_top" xlink:title="dostuff">
<polygon fill="none" stroke="black" points="179,-202.5 179,-221.5 229,-221.5 229,-202.5 179,-202.5"/>
<text text-anchor="middle" x="204" y="-209.5" font-family="Helvetica,sans-Serif" font-size="10.00">dostuff</text>
</a>
</g>
</g>
<!-- Node419&#45;&gt;Node425 -->
<g id="edge6" class="edge"><title>Node419&#45;&gt;Node425</title>
<path fill="none" stroke="midnightblue" d="M90.6781,-156.398C107.636,-166.371 128.654,-178.287 148,-188 158.148,-193.095 169.626,-198.203 179.461,-202.388"/>
<polygon fill="midnightblue" stroke="midnightblue" points="92.0984,-153.171 81.7113,-151.083 88.5293,-159.193 92.0984,-153.171"/>
</g>
<!-- Node426 -->
<g id="node8" class="node"><title>Node426</title>
<g id="a_node8"><a xlink:href="sparse_8h.html#a3ba4abd21a1ace3122406c3b3b27fc5b" target="_top" xlink:title="initSparse">
<polygon fill="none" stroke="black" points="171.5,-126.5 171.5,-145.5 236.5,-145.5 236.5,-126.5 171.5,-126.5"/>
<text text-anchor="middle" x="204" y="-133.5" font-family="Helvetica,sans-Serif" font-size="10.00">initSparse</text>
</a>
</g>
</g>
<!-- Node419&#45;&gt;Node426 -->
<g id="edge7" class="edge"><title>Node419&#45;&gt;Node426</title>
<path fill="none" stroke="midnightblue" d="M122.658,-136C139.624,-136 157.125,-136 171.444,-136"/>
<polygon fill="midnightblue" stroke="midnightblue" points="122.196,-132.5 112.196,-136 122.196,-139.5 122.196,-132.5"/>
</g>
<!-- Node427 -->
<g id="node9" class="node"><title>Node427</title>
<g id="a_node9"><a xlink:href="sparse__solvers_8cpp.html#afdc1343eeabd8d973eaa0a8025e4b7c8" target="_top" xlink:title="initSPD">
<polygon fill="none" stroke="black" points="340.5,-164.5 340.5,-183.5 391.5,-183.5 391.5,-164.5 340.5,-164.5"/>
<text text-anchor="middle" x="366" y="-171.5" font-family="Helvetica,sans-Serif" font-size="10.00">initSPD</text>
</a>
</g>
</g>
<!-- Node419&#45;&gt;Node427 -->
<g id="edge10" class="edge"><title>Node419&#45;&gt;Node427</title>
<path fill="none" stroke="midnightblue" d="M122.213,-150.587C130.857,-152.235 139.623,-153.763 148,-155 217.4,-165.246 300.162,-170.62 340.482,-172.802"/>
<polygon fill="midnightblue" stroke="midnightblue" points="122.641,-147.105 112.154,-148.608 121.29,-153.973 122.641,-147.105"/>
</g>
<!-- Node429 -->
<g id="node11" class="node"><title>Node429</title>
<g id="a_node11"><a xlink:href="spmv_8cpp.html#a0ddf1224851353fc92bfbff6f499fa97" target="_top" xlink:title="main">
<polygon fill="none" stroke="black" points="183.5,-88.5 183.5,-107.5 224.5,-107.5 224.5,-88.5 183.5,-88.5"/>
<text text-anchor="middle" x="204" y="-95.5" font-family="Helvetica,sans-Serif" font-size="10.00">main</text>
</a>
</g>
</g>
<!-- Node419&#45;&gt;Node429 -->
<g id="edge11" class="edge"><title>Node419&#45;&gt;Node429</title>
<path fill="none" stroke="midnightblue" d="M121.998,-119.083C144.287,-113.281 167.583,-107.218 183.44,-103.091"/>
<polygon fill="midnightblue" stroke="midnightblue" points="120.992,-115.728 112.196,-121.634 122.756,-122.502 120.992,-115.728"/>
</g>
<!-- Node430 -->
<g id="node12" class="node"><title>Node430</title>
<g id="a_node12"><a xlink:href="namespaceEigen_1_1internal.html#ae578c425d1ff2ad3d8934b4c2498e852" target="_top" xlink:title="Eigen::internal::set\l_from_triplets">
<polygon fill="none" stroke="black" points="151,-39 151,-69 257,-69 257,-39 151,-39"/>
<text text-anchor="start" x="159" y="-57" font-family="Helvetica,sans-Serif" font-size="10.00">Eigen::internal::set</text>
<text text-anchor="middle" x="204" y="-46" font-family="Helvetica,sans-Serif" font-size="10.00">_from_triplets</text>
</a>
</g>
</g>
<!-- Node419&#45;&gt;Node430 -->
<g id="edge12" class="edge"><title>Node419&#45;&gt;Node430</title>
<path fill="none" stroke="midnightblue" d="M87.8998,-115.212C105.233,-103.919 127.444,-90.0464 148,-79 154.375,-75.5741 161.309,-72.1789 168.038,-69.0465"/>
<polygon fill="midnightblue" stroke="midnightblue" points="85.7496,-112.437 79.3151,-120.854 89.5942,-118.287 85.7496,-112.437"/>
</g>
<!-- Node431 -->
<g id="node13" class="node"><title>Node431</title>
<g id="a_node13"><a xlink:href="sparse__extra_8cpp.html#abd36f024bfdc32a9f9dfc678ee0b228a" target="_top" xlink:title="test_random_setter">
<polygon fill="none" stroke="black" points="148,-0.5 148,-19.5 260,-19.5 260,-0.5 148,-0.5"/>
<text text-anchor="middle" x="204" y="-7.5" font-family="Helvetica,sans-Serif" font-size="10.00">test_random_setter</text>
</a>
</g>
</g>
<!-- Node419&#45;&gt;Node431 -->
<g id="edge13" class="edge"><title>Node419&#45;&gt;Node431</title>
<path fill="none" stroke="midnightblue" d="M71.7866,-112.052C87.8151,-87.9323 115.504,-51.1995 148,-29 153.589,-25.182 160.02,-22.061 166.469,-19.5337"/>
<polygon fill="midnightblue" stroke="midnightblue" points="68.7334,-110.328 66.2287,-120.623 74.6065,-114.137 68.7334,-110.328"/>
</g>
<!-- Node421 -->
<g id="node3" class="node"><title>Node421</title>
<g id="a_node3"><a xlink:href="classHamiltonianOne.html#a9cb71dcb34ab9f0779c0bd66b758185e" target="_top" xlink:title="HamiltonianOne::build">
<polygon fill="none" stroke="black" points="305,-265.5 305,-284.5 427,-284.5 427,-265.5 305,-265.5"/>
<text text-anchor="middle" x="366" y="-272.5" font-family="Helvetica,sans-Serif" font-size="10.00">HamiltonianOne::build</text>
</a>
</g>
</g>
<!-- Node420&#45;&gt;Node421 -->
<g id="edge2" class="edge"><title>Node420&#45;&gt;Node421</title>
<path fill="none" stroke="midnightblue" d="M269.689,-263.682C281.313,-265.062 293.385,-266.496 304.873,-267.86"/>
<polygon fill="midnightblue" stroke="midnightblue" points="269.958,-260.189 259.615,-262.486 269.133,-267.14 269.958,-260.189"/>
</g>
<!-- Node423 -->
<g id="node5" class="node"><title>Node423</title>
<g id="a_node5"><a xlink:href="classHamiltonianTwo.html#a6ca0a318f25170b69e571a07064a5afb" target="_top" xlink:title="HamiltonianTwo::calculate">
<polygon fill="none" stroke="black" points="296,-227.5 296,-246.5 436,-246.5 436,-227.5 296,-227.5"/>
<text text-anchor="middle" x="366" y="-234.5" font-family="Helvetica,sans-Serif" font-size="10.00">HamiltonianTwo::calculate</text>
</a>
</g>
</g>
<!-- Node420&#45;&gt;Node423 -->
<g id="edge4" class="edge"><title>Node420&#45;&gt;Node423</title>
<path fill="none" stroke="midnightblue" d="M269.634,-248.325C278.288,-247.297 287.192,-246.24 295.918,-245.203"/>
<polygon fill="midnightblue" stroke="midnightblue" points="269.133,-244.86 259.615,-249.514 269.958,-251.811 269.133,-244.86"/>
</g>
<!-- Node422 -->
<g id="node4" class="node"><title>Node422</title>
<g id="a_node4"><a xlink:href="classHamiltonianOne.html#ad3ba2d70879a60c9f065b5a2545dfe36" target="_top" xlink:title="HamiltonianOne::HamiltonianOne">
<polygon fill="none" stroke="black" points="472,-265.5 472,-284.5 649,-284.5 649,-265.5 472,-265.5"/>
<text text-anchor="middle" x="560.5" y="-272.5" font-family="Helvetica,sans-Serif" font-size="10.00">HamiltonianOne::HamiltonianOne</text>
</a>
</g>
</g>
<!-- Node421&#45;&gt;Node422 -->
<g id="edge3" class="edge"><title>Node421&#45;&gt;Node422</title>
<path fill="none" stroke="midnightblue" d="M437.306,-275C448.58,-275 460.367,-275 471.982,-275"/>
<polygon fill="midnightblue" stroke="midnightblue" points="437.116,-271.5 427.116,-275 437.116,-278.5 437.116,-271.5"/>
</g>
<!-- Node424 -->
<g id="node6" class="node"><title>Node424</title>
<g id="a_node6"><a xlink:href="classHamiltonianTwo.html#a8d51d632bd7862cf1e566f6faf9ccc8c" target="_top" xlink:title="HamiltonianTwo::HamiltonianTwo">
<polygon fill="none" stroke="black" points="475,-227.5 475,-246.5 646,-246.5 646,-227.5 475,-227.5"/>
<text text-anchor="middle" x="560.5" y="-234.5" font-family="Helvetica,sans-Serif" font-size="10.00">HamiltonianTwo::HamiltonianTwo</text>
</a>
</g>
</g>
<!-- Node423&#45;&gt;Node424 -->
<g id="edge5" class="edge"><title>Node423&#45;&gt;Node424</title>
<path fill="none" stroke="midnightblue" d="M446.311,-237C455.703,-237 465.317,-237 474.78,-237"/>
<polygon fill="midnightblue" stroke="midnightblue" points="446.225,-233.5 436.225,-237 446.225,-240.5 446.225,-233.5"/>
</g>
<!-- Node426&#45;&gt;Node427 -->
<g id="edge8" class="edge"><title>Node426&#45;&gt;Node427</title>
<path fill="none" stroke="midnightblue" d="M246.696,-145.903C276.404,-152.958 315.336,-162.205 340.266,-168.126"/>
<polygon fill="midnightblue" stroke="midnightblue" points="247.149,-142.413 236.611,-143.508 245.531,-149.224 247.149,-142.413"/>
</g>
<!-- Node428 -->
<g id="node10" class="node"><title>Node428</title>
<g id="a_node10"><a xlink:href="test_2sparse__product_8cpp.html#a7c1ebb5061b52283fef06715cf3410e1" target="_top" xlink:title="sparse_product">
<polygon fill="none" stroke="black" points="320.5,-126.5 320.5,-145.5 411.5,-145.5 411.5,-126.5 320.5,-126.5"/>
<text text-anchor="middle" x="366" y="-133.5" font-family="Helvetica,sans-Serif" font-size="10.00">sparse_product</text>
</a>
</g>
</g>
<!-- Node426&#45;&gt;Node428 -->
<g id="edge9" class="edge"><title>Node426&#45;&gt;Node428</title>
<path fill="none" stroke="midnightblue" d="M246.914,-136C269.524,-136 297.428,-136 320.433,-136"/>
<polygon fill="midnightblue" stroke="midnightblue" points="246.611,-132.5 236.611,-136 246.611,-139.5 246.611,-132.5"/>
</g>
<!-- Node432 -->
<g id="node14" class="node"><title>Node432</title>
<g id="a_node14"><a xlink:href="sparse__extra_8cpp.html#af4db1921ae39dc13ab0ff7f860c11e9c" target="_top" xlink:title="sparse_extra">
<polygon fill="none" stroke="black" points="326.5,-0.5 326.5,-19.5 405.5,-19.5 405.5,-0.5 326.5,-0.5"/>
<text text-anchor="middle" x="366" y="-7.5" font-family="Helvetica,sans-Serif" font-size="10.00">sparse_extra</text>
</a>
</g>
</g>
<!-- Node431&#45;&gt;Node432 -->
<g id="edge14" class="edge"><title>Node431&#45;&gt;Node432</title>
<path fill="none" stroke="midnightblue" d="M270.227,-10C289.336,-10 309.61,-10 326.482,-10"/>
<polygon fill="midnightblue" stroke="midnightblue" points="270.063,-6.5001 260.063,-10 270.063,-13.5001 270.063,-6.5001"/>
</g>
</g>
</svg>
        <g id="navigator" transform="translate(0 0)" fill="#404254">
                <rect fill="#f2f5e9" fill-opacity="0.5" stroke="#606060" stroke-width=".5" x="0" y="0" width="60" height="60"/>
                <use id="zoomplus" xlink:href="#zoomPlus" x="17" y="9" onmousedown="handleZoom(evt,'in')"/>
                <use id="zoomminus" xlink:href="#zoomMin" x="42" y="9" onmousedown="handleZoom(evt,'out')"/>
                <use id="reset" xlink:href="#resetDef" x="30" y="36" onmousedown="handleReset()"/>
                <g id="arrowUp" xlink:href="#dirArrow" transform="translate(30 24)" onmousedown="handlePan(0,-1)">
                  <use xlink:href="#rim" fill="#404040">
                        <set attributeName="fill" to="#808080" begin="arrowUp.mouseover" end="arrowUp.mouseout"/>
                  </use>
                  <path fill="none" stroke="white" stroke-width="1.5" d="M0,-3.0v7 M-2.5,-0.5L0,-3.0L2.5,-0.5"/>
                </g>
                <g id="arrowRight" xlink:href="#dirArrow" transform="rotate(90) translate(36 -43)" onmousedown="handlePan(1,0)">
                  <use xlink:href="#rim" fill="#404040">
                        <set attributeName="fill" to="#808080" begin="arrowRight.mouseover" end="arrowRight.mouseout"/>
                  </use>
                  <path fill="none" stroke="white" stroke-width="1.5" d="M0,-3.0v7 M-2.5,-0.5L0,-3.0L2.5,-0.5"/>
                </g>
                <g id="arrowDown" xlink:href="#dirArrow" transform="rotate(180) translate(-30 -48)" onmousedown="handlePan(0,1)">
                  <use xlink:href="#rim" fill="#404040">
                        <set attributeName="fill" to="#808080" begin="arrowDown.mouseover" end="arrowDown.mouseout"/>
                  </use>
                  <path fill="none" stroke="white" stroke-width="1.5" d="M0,-3.0v7 M-2.5,-0.5L0,-3.0L2.5,-0.5"/>
                </g>
                <g id="arrowLeft" xlink:href="#dirArrow" transform="rotate(270) translate(-36 17)" onmousedown="handlePan(-1,0)">
                  <use xlink:href="#rim" fill="#404040">
                        <set attributeName="fill" to="#808080" begin="arrowLeft.mouseover" end="arrowLeft.mouseout"/>
                  </use>
                  <path fill="none" stroke="white" stroke-width="1.5" d="M0,-3.0v7 M-2.5,-0.5L0,-3.0L2.5,-0.5"/>
                </g>
        </g>
        <svg viewBox="0 0 15 15" width="100%" height="30px" preserveAspectRatio="xMaxYMin meet">
         <g id="arrow_out" transform="scale(0.3 0.3)">
          <a xlink:href="classEigen_1_1SparseMatrix_ad3c7416090f913e8685523cb3ab7c2f7_icgraph_org.svg" target="_base">
           <rect id="button" ry="5" rx="5" y="6" x="6" height="38" width="38"
                fill="#f2f5e9" fill-opacity="0.5" stroke="#606060" stroke-width="1.0"/>
           <path id="arrow"
             d="M 11.500037,31.436501 C 11.940474,20.09759 22.043105,11.32322 32.158766,21.979434 L 37.068811,17.246167 C 37.068811,17.246167 37.088388,32 37.088388,32 L 22.160133,31.978069 C 22.160133,31.978069 26.997745,27.140456 26.997745,27.140456 C 18.528582,18.264221 13.291696,25.230495 11.500037,31.436501 z"
             style="fill:#404040;"/>
          </a>
         </g>
        </svg>
</svg>
