<?xml version="1.0" encoding="UTF-8" standalone="no"?>
<!DOCTYPE svg PUBLIC "-//W3C//DTD SVG 1.1//EN"
 "http://www.w3.org/Graphics/SVG/1.1/DTD/svg11.dtd">
<!-- Generated by graphviz version 2.38.0 (20140413.2041)
 -->
<!-- Title: Eigen::TensorStorage&lt; T, DSizes&lt; IndexType, NumIndices_ &gt;, Options_ &gt;::TensorStorage Pages: 1 -->
<svg width="701pt" height="61pt"
 viewBox="0.00 0.00 701.00 61.00" xmlns="http://www.w3.org/2000/svg" xmlns:xlink="http://www.w3.org/1999/xlink">
<g id="graph0" class="graph" transform="scale(1 1) rotate(0) translate(4 57)">
<title>Eigen::TensorStorage&lt; T, DSizes&lt; IndexType, NumIndices_ &gt;, Options_ &gt;::TensorStorage</title>
<!-- Node4 -->
<g id="node1" class="node"><title>Node4</title>
<polygon fill="#bfbfbf" stroke="black" points="0,-0.5 0,-52.5 135,-52.5 135,-0.5 0,-0.5"/>
<text text-anchor="start" x="8" y="-40.5" font-family="Helvetica,sans-Serif" font-size="10.00">Eigen::TensorStorage</text>
<text text-anchor="start" x="8" y="-29.5" font-family="Helvetica,sans-Serif" font-size="10.00">&lt; T, DSizes&lt; IndexType,</text>
<text text-anchor="start" x="8" y="-18.5" font-family="Helvetica,sans-Serif" font-size="10.00"> NumIndices_ &gt;, Options</text>
<text text-anchor="middle" x="67.5" y="-7.5" font-family="Helvetica,sans-Serif" font-size="10.00">_ &gt;::TensorStorage</text>
</g>
<!-- Node5 -->
<g id="node2" class="node"><title>Node5</title>
<g id="a_node2"><a xlink:href="namespaceEigen_1_1internal.html#a3b99e338d92a91c8b3f89d32d0ca2c39" target="_top" xlink:title="Eigen::internal::array_prod">
<polygon fill="none" stroke="black" points="171,-17 171,-36 314,-36 314,-17 171,-17"/>
<text text-anchor="middle" x="242.5" y="-24" font-family="Helvetica,sans-Serif" font-size="10.00">Eigen::internal::array_prod</text>
</a>
</g>
</g>
<!-- Node4&#45;&gt;Node5 -->
<g id="edge1" class="edge"><title>Node4&#45;&gt;Node5</title>
<path fill="none" stroke="midnightblue" d="M135.386,-26.5C143.633,-26.5 152.131,-26.5 160.559,-26.5"/>
<polygon fill="midnightblue" stroke="midnightblue" points="160.781,-30.0001 170.781,-26.5 160.781,-23.0001 160.781,-30.0001"/>
</g>
<!-- Node6 -->
<g id="node3" class="node"><title>Node6</title>
<g id="a_node3"><a xlink:href="structEigen_1_1internal_1_1fixed__size__tensor__index__linearization__helper.html#ad9f850bf5d539ce2ceb45a27e8ae4975" target="_top" xlink:title="Eigen::internal::fixed\l_size_tensor_index_linearization\l_helper::run">
<polygon fill="none" stroke="black" points="350,-6 350,-47 520,-47 520,-6 350,-6"/>
<text text-anchor="start" x="358" y="-35" font-family="Helvetica,sans-Serif" font-size="10.00">Eigen::internal::fixed</text>
<text text-anchor="start" x="358" y="-24" font-family="Helvetica,sans-Serif" font-size="10.00">_size_tensor_index_linearization</text>
<text text-anchor="middle" x="435" y="-13" font-family="Helvetica,sans-Serif" font-size="10.00">_helper::run</text>
</a>
</g>
</g>
<!-- Node5&#45;&gt;Node6 -->
<g id="edge2" class="edge"><title>Node5&#45;&gt;Node6</title>
<path fill="none" stroke="midnightblue" d="M314.164,-26.5C322.536,-26.5 331.18,-26.5 339.812,-26.5"/>
<polygon fill="midnightblue" stroke="midnightblue" points="339.923,-30.0001 349.923,-26.5 339.923,-23.0001 339.923,-30.0001"/>
</g>
<!-- Node7 -->
<g id="node4" class="node"><title>Node7</title>
<g id="a_node4"><a xlink:href="namespaceEigen_1_1internal.html#a7dd131bbd4a892f4d48cfce903de56c5" target="_top" xlink:title="Eigen::internal::array_get">
<polygon fill="none" stroke="black" points="556,-17 556,-36 693,-36 693,-17 556,-17"/>
<text text-anchor="middle" x="624.5" y="-24" font-family="Helvetica,sans-Serif" font-size="10.00">Eigen::internal::array_get</text>
</a>
</g>
</g>
<!-- Node6&#45;&gt;Node7 -->
<g id="edge3" class="edge"><title>Node6&#45;&gt;Node7</title>
<path fill="none" stroke="midnightblue" d="M520.152,-26.5C528.665,-26.5 537.285,-26.5 545.727,-26.5"/>
<polygon fill="midnightblue" stroke="midnightblue" points="545.916,-30.0001 555.916,-26.5 545.916,-23.0001 545.916,-30.0001"/>
</g>
</g>
</svg>
