<?xml version="1.0" encoding="UTF-8" standalone="no"?>
<!DOCTYPE svg PUBLIC "-//W3C//DTD SVG 1.1//EN"
 "http://www.w3.org/Graphics/SVG/1.1/DTD/svg11.dtd">
<!-- Generated by graphviz version 2.38.0 (20140413.2041)
 -->
<!-- Title: Eigen::SparseMatrixBase::const_cast_derived Pages: 1 -->
<svg width="384pt" height="340pt"
 viewBox="0.00 0.00 384.00 340.00" xmlns="http://www.w3.org/2000/svg" xmlns:xlink="http://www.w3.org/1999/xlink">
<g id="graph0" class="graph" transform="scale(1 1) rotate(0) translate(4 336)">
<title>Eigen::SparseMatrixBase::const_cast_derived</title>
<!-- Node93 -->
<g id="node1" class="node"><title>Node93</title>
<polygon fill="#bfbfbf" stroke="black" points="0,-145 0,-175 136,-175 136,-145 0,-145"/>
<text text-anchor="start" x="8" y="-163" font-family="Helvetica,sans-Serif" font-size="10.00">Eigen::SparseMatrixBase</text>
<text text-anchor="middle" x="68" y="-152" font-family="Helvetica,sans-Serif" font-size="10.00">::const_cast_derived</text>
</g>
<!-- Node94 -->
<g id="node2" class="node"><title>Node94</title>
<g id="a_node2"><a xlink:href="classEigen_1_1CholmodBase.html#ad83e9fa24e94410bceadf0eb69793622" target="_top" xlink:title="Eigen::CholmodBase\l\&lt; _MatrixType, _UpLo,\l CholmodSimplicialLLT\l\&lt; _MatrixType, _UpLo \&gt;\l \&gt;::_solve_impl">
<polygon fill="none" stroke="black" points="208.5,-268.5 208.5,-331.5 339.5,-331.5 339.5,-268.5 208.5,-268.5"/>
<text text-anchor="start" x="216.5" y="-319.5" font-family="Helvetica,sans-Serif" font-size="10.00">Eigen::CholmodBase</text>
<text text-anchor="start" x="216.5" y="-308.5" font-family="Helvetica,sans-Serif" font-size="10.00">&lt; _MatrixType, _UpLo,</text>
<text text-anchor="start" x="216.5" y="-297.5" font-family="Helvetica,sans-Serif" font-size="10.00"> CholmodSimplicialLLT</text>
<text text-anchor="start" x="216.5" y="-286.5" font-family="Helvetica,sans-Serif" font-size="10.00">&lt; _MatrixType, _UpLo &gt;</text>
<text text-anchor="middle" x="274" y="-275.5" font-family="Helvetica,sans-Serif" font-size="10.00"> &gt;::_solve_impl</text>
</a>
</g>
</g>
<!-- Node93&#45;&gt;Node94 -->
<g id="edge1" class="edge"><title>Node93&#45;&gt;Node94</title>
<path fill="none" stroke="midnightblue" d="M88.3339,-183.106C107.662,-205.025 139.161,-237.69 172,-259 183.192,-266.262 195.879,-272.634 208.39,-278.055"/>
<polygon fill="midnightblue" stroke="midnightblue" points="90.7408,-180.54 81.5447,-175.278 85.4526,-185.126 90.7408,-180.54"/>
</g>
<!-- Node95 -->
<g id="node3" class="node"><title>Node95</title>
<g id="a_node3"><a xlink:href="classEigen_1_1DynamicSparseMatrix.html#a12fab494d7e774126fca5d0cd6e82851" target="_top" xlink:title="Eigen::DynamicSparseMatrix\l::operator=">
<polygon fill="none" stroke="black" points="197,-219 197,-249 351,-249 351,-219 197,-219"/>
<text text-anchor="start" x="205" y="-237" font-family="Helvetica,sans-Serif" font-size="10.00">Eigen::DynamicSparseMatrix</text>
<text text-anchor="middle" x="274" y="-226" font-family="Helvetica,sans-Serif" font-size="10.00">::operator=</text>
</a>
</g>
</g>
<!-- Node93&#45;&gt;Node95 -->
<g id="edge2" class="edge"><title>Node93&#45;&gt;Node95</title>
<path fill="none" stroke="midnightblue" d="M104.921,-179.84C124.338,-189.944 148.992,-201.794 172,-210 181.252,-213.3 191.142,-216.282 200.979,-218.933"/>
<polygon fill="midnightblue" stroke="midnightblue" points="106.317,-176.619 95.8395,-175.044 103.048,-182.809 106.317,-176.619"/>
</g>
<!-- Node96 -->
<g id="node4" class="node"><title>Node96</title>
<g id="a_node4"><a xlink:href="classEigen_1_1SparseVector.html#a935bfc1abd2a6d621addee147fe53fc9" target="_top" xlink:title="Eigen::SparseVector\l::operator=">
<polygon fill="none" stroke="black" points="217.5,-170 217.5,-200 330.5,-200 330.5,-170 217.5,-170"/>
<text text-anchor="start" x="225.5" y="-188" font-family="Helvetica,sans-Serif" font-size="10.00">Eigen::SparseVector</text>
<text text-anchor="middle" x="274" y="-177" font-family="Helvetica,sans-Serif" font-size="10.00">::operator=</text>
</a>
</g>
</g>
<!-- Node93&#45;&gt;Node96 -->
<g id="edge3" class="edge"><title>Node93&#45;&gt;Node96</title>
<path fill="none" stroke="midnightblue" d="M146.115,-169.45C169.841,-172.358 195.481,-175.5 217.461,-178.194"/>
<polygon fill="midnightblue" stroke="midnightblue" points="146.431,-165.963 136.08,-168.221 145.58,-172.911 146.431,-165.963"/>
</g>
<!-- Node97 -->
<g id="node5" class="node"><title>Node97</title>
<g id="a_node5"><a xlink:href="classEigen_1_1SparseMatrix.html#a241af782636f279406f4860fe49252b0" target="_top" xlink:title="Eigen::SparseMatrix\l\&lt; scalar_t \&gt;::operator=">
<polygon fill="none" stroke="black" points="208,-121 208,-151 340,-151 340,-121 208,-121"/>
<text text-anchor="start" x="216" y="-139" font-family="Helvetica,sans-Serif" font-size="10.00">Eigen::SparseMatrix</text>
<text text-anchor="middle" x="274" y="-128" font-family="Helvetica,sans-Serif" font-size="10.00">&lt; scalar_t &gt;::operator=</text>
</a>
</g>
</g>
<!-- Node93&#45;&gt;Node97 -->
<g id="edge4" class="edge"><title>Node93&#45;&gt;Node97</title>
<path fill="none" stroke="midnightblue" d="M146.254,-150.911C166.596,-148.518 188.335,-145.961 207.963,-143.651"/>
<polygon fill="midnightblue" stroke="midnightblue" points="145.602,-147.464 136.08,-152.108 146.42,-154.416 145.602,-147.464"/>
</g>
<!-- Node98 -->
<g id="node6" class="node"><title>Node98</title>
<g id="a_node6"><a xlink:href="classEigen_1_1Ref_3_01SparseMatrix_3_01MatScalar_00_01MatOptions_00_01MatIndex_01_4_00_01Options_00_01StrideType_01_4.html#a0e87d2d88da89611227a55c0a689905a" target="_top" xlink:title="Eigen::Ref\&lt; SparseMatrix\l\&lt; MatScalar, MatOptions,\l MatIndex \&gt;, Options, StrideType \&gt;::Ref">
<polygon fill="none" stroke="black" points="172,-60.5 172,-101.5 376,-101.5 376,-60.5 172,-60.5"/>
<text text-anchor="start" x="180" y="-89.5" font-family="Helvetica,sans-Serif" font-size="10.00">Eigen::Ref&lt; SparseMatrix</text>
<text text-anchor="start" x="180" y="-78.5" font-family="Helvetica,sans-Serif" font-size="10.00">&lt; MatScalar, MatOptions,</text>
<text text-anchor="middle" x="274" y="-67.5" font-family="Helvetica,sans-Serif" font-size="10.00"> MatIndex &gt;, Options, StrideType &gt;::Ref</text>
</a>
</g>
</g>
<!-- Node93&#45;&gt;Node98 -->
<g id="edge5" class="edge"><title>Node93&#45;&gt;Node98</title>
<path fill="none" stroke="midnightblue" d="M107.709,-140.412C126.795,-131.154 150.319,-120.333 172,-112 181.502,-108.348 191.631,-104.822 201.669,-101.54"/>
<polygon fill="midnightblue" stroke="midnightblue" points="106.164,-137.271 98.7232,-144.813 109.243,-143.557 106.164,-137.271"/>
</g>
<!-- Node99 -->
<g id="node7" class="node"><title>Node99</title>
<g id="a_node7"><a xlink:href="classEigen_1_1Ref_3_01SparseVector_3_01MatScalar_00_01MatOptions_00_01MatIndex_01_4_00_01Options_00_01StrideType_01_4.html#a96ae29e954eba5a59520ae4f7c1588ab" target="_top" xlink:title="Eigen::Ref\&lt; SparseVector\l\&lt; MatScalar, MatOptions,\l MatIndex \&gt;, Options, StrideType \&gt;::Ref">
<polygon fill="none" stroke="black" points="172,-0.5 172,-41.5 376,-41.5 376,-0.5 172,-0.5"/>
<text text-anchor="start" x="180" y="-29.5" font-family="Helvetica,sans-Serif" font-size="10.00">Eigen::Ref&lt; SparseVector</text>
<text text-anchor="start" x="180" y="-18.5" font-family="Helvetica,sans-Serif" font-size="10.00">&lt; MatScalar, MatOptions,</text>
<text text-anchor="middle" x="274" y="-7.5" font-family="Helvetica,sans-Serif" font-size="10.00"> MatIndex &gt;, Options, StrideType &gt;::Ref</text>
</a>
</g>
</g>
<!-- Node93&#45;&gt;Node99 -->
<g id="edge6" class="edge"><title>Node93&#45;&gt;Node99</title>
<path fill="none" stroke="midnightblue" d="M85.0543,-136.818C103.352,-112.085 135.494,-73.4432 172,-51 177.766,-47.4555 183.974,-44.3088 190.378,-41.5192"/>
<polygon fill="midnightblue" stroke="midnightblue" points="82.2053,-134.785 79.1749,-144.938 87.8749,-138.891 82.2053,-134.785"/>
</g>
</g>
</svg>
