<?xml version="1.0" encoding="UTF-8" standalone="no"?>
<!DOCTYPE svg PUBLIC "-//W3C//DTD SVG 1.1//EN"
 "http://www.w3.org/Graphics/SVG/1.1/DTD/svg11.dtd">
<!-- Generated by graphviz version 2.38.0 (20140413.2041)
 -->
<!-- Title: Eigen::SkylineMatrixBase::derived Pages: 1 -->
<!--zoomable 630 -->
<svg id="main" version="1.1" xmlns="http://www.w3.org/2000/svg" xmlns:xlink="http://www.w3.org/1999/xlink" xml:space="preserve" onload="init(evt)">
<style type="text/css"><![CDATA[
.edge:hover path { stroke: red; }
.edge:hover polygon { stroke: red; fill: red; }
]]></style>
<script type="text/javascript"><![CDATA[
var edges = document.getElementsByTagName('g');
if (edges && edges.length) {
  for (var i=0;i<edges.length;i++) {
    if (edges[i].id.substr(0,4)=='edge') {
      edges[i].setAttribute('class','edge');
    }
  }
}
]]></script>
        <defs>
                <circle id="rim" cx="0" cy="0" r="7"/>
                <circle id="rim2" cx="0" cy="0" r="3.5"/>
                <g id="zoomPlus">
                        <use xlink:href="#rim" fill="#404040">
                                <set attributeName="fill" to="#808080" begin="zoomplus.mouseover" end="zoomplus.mouseout"/>
                        </use>
                        <path d="M-4,0h8M0,-4v8" fill="none" stroke="white" stroke-width="1.5" pointer-events="none"/>
                </g>
                <g id="zoomMin">
                        <use xlink:href="#rim" fill="#404040">
                                <set attributeName="fill" to="#808080" begin="zoomminus.mouseover" end="zoomminus.mouseout"/>
                        </use>
                        <path d="M-4,0h8" fill="none" stroke="white" stroke-width="1.5" pointer-events="none"/>
                </g>
                <g id="dirArrow">
                        <path fill="none" stroke="white" stroke-width="1.5" d="M0,-3.0v7 M-2.5,-0.5L0,-3.0L2.5,-0.5"/>
                </g>
               <g id="resetDef">
                       <use xlink:href="#rim2" fill="#404040">
                               <set attributeName="fill" to="#808080" begin="reset.mouseover" end="reset.mouseout"/>
                       </use>
               </g>
        </defs>

<script type="text/javascript">
var viewWidth = 338;
var viewHeight = 630;
var sectionId = 'dynsection-4';
</script>
<script xlink:href="svgpan.js"/>
<svg id="graph" class="graph">
<g id="viewport">
<title>Eigen::SkylineMatrixBase::derived</title>
<!-- Node14 -->
<g id="node1" class="node"><title>Node14</title>
<polygon fill="#bfbfbf" stroke="black" points="0,-286 0,-316 136,-316 136,-286 0,-286"/>
<text text-anchor="start" x="8" y="-304" font-family="Helvetica,sans-Serif" font-size="10.00">Eigen::SkylineMatrixBase</text>
<text text-anchor="middle" x="68" y="-293" font-family="Helvetica,sans-Serif" font-size="10.00">::derived</text>
</g>
<!-- Node15 -->
<g id="node2" class="node"><title>Node15</title>
<g id="a_node2"><a xlink:href="classEigen_1_1SkylineMatrixBase.html#aa292a7a59be094f9d3184210623ed5ec" target="_top" xlink:title="Eigen::SkylineMatrixBase\l\&lt; SkylineMatrix\&lt; _Scalar,\l _Options \&gt; \&gt;::assignGeneric">
<polygon fill="none" stroke="black" points="172,-580.5 172,-621.5 330,-621.5 330,-580.5 172,-580.5"/>
<text text-anchor="start" x="180" y="-609.5" font-family="Helvetica,sans-Serif" font-size="10.00">Eigen::SkylineMatrixBase</text>
<text text-anchor="start" x="180" y="-598.5" font-family="Helvetica,sans-Serif" font-size="10.00">&lt; SkylineMatrix&lt; _Scalar,</text>
<text text-anchor="middle" x="251" y="-587.5" font-family="Helvetica,sans-Serif" font-size="10.00"> _Options &gt; &gt;::assignGeneric</text>
</a>
</g>
</g>
<!-- Node14&#45;&gt;Node15 -->
<g id="edge1" class="edge"><title>Node14&#45;&gt;Node15</title>
<path fill="none" stroke="midnightblue" d="M71.7712,-326.271C78.839,-378.869 102.213,-501.022 172,-571 175.483,-574.493 179.417,-577.587 183.621,-580.327"/>
<polygon fill="midnightblue" stroke="midnightblue" points="75.2186,-325.633 70.4997,-316.147 68.2732,-326.505 75.2186,-325.633"/>
</g>
<!-- Node16 -->
<g id="node3" class="node"><title>Node16</title>
<g id="a_node3"><a xlink:href="classEigen_1_1SkylineMatrixBase.html#aff9cfadb45ffbae8a33b710bc9b49d71" target="_top" xlink:title="Eigen::SkylineMatrixBase\l\&lt; SkylineMatrix\&lt; _Scalar,\l _Options \&gt; \&gt;::cols">
<polygon fill="none" stroke="black" points="181,-520.5 181,-561.5 321,-561.5 321,-520.5 181,-520.5"/>
<text text-anchor="start" x="189" y="-549.5" font-family="Helvetica,sans-Serif" font-size="10.00">Eigen::SkylineMatrixBase</text>
<text text-anchor="start" x="189" y="-538.5" font-family="Helvetica,sans-Serif" font-size="10.00">&lt; SkylineMatrix&lt; _Scalar,</text>
<text text-anchor="middle" x="251" y="-527.5" font-family="Helvetica,sans-Serif" font-size="10.00"> _Options &gt; &gt;::cols</text>
</a>
</g>
</g>
<!-- Node14&#45;&gt;Node16 -->
<g id="edge2" class="edge"><title>Node14&#45;&gt;Node16</title>
<path fill="none" stroke="midnightblue" d="M74.8506,-326.031C86.243,-369.494 115.398,-459.215 172,-511 175.854,-514.526 180.166,-517.653 184.732,-520.424"/>
<polygon fill="midnightblue" stroke="midnightblue" points="78.2284,-325.112 72.3894,-316.271 71.4409,-326.823 78.2284,-325.112"/>
</g>
<!-- Node17 -->
<g id="node4" class="node"><title>Node17</title>
<g id="a_node4"><a xlink:href="classEigen_1_1SkylineMatrixBase.html#a03d2346d1bc95c63405e03b6a39d2f7e" target="_top" xlink:title="Eigen::SkylineMatrixBase\l\&lt; SkylineMatrix\&lt; _Scalar,\l _Options \&gt; \&gt;::eval">
<polygon fill="none" stroke="black" points="181,-460.5 181,-501.5 321,-501.5 321,-460.5 181,-460.5"/>
<text text-anchor="start" x="189" y="-489.5" font-family="Helvetica,sans-Serif" font-size="10.00">Eigen::SkylineMatrixBase</text>
<text text-anchor="start" x="189" y="-478.5" font-family="Helvetica,sans-Serif" font-size="10.00">&lt; SkylineMatrix&lt; _Scalar,</text>
<text text-anchor="middle" x="251" y="-467.5" font-family="Helvetica,sans-Serif" font-size="10.00"> _Options &gt; &gt;::eval</text>
</a>
</g>
</g>
<!-- Node14&#45;&gt;Node17 -->
<g id="edge3" class="edge"><title>Node14&#45;&gt;Node17</title>
<path fill="none" stroke="midnightblue" d="M80.1538,-325.804C96.1078,-358.698 128.402,-416.593 172,-451 176.442,-454.505 181.34,-457.639 186.454,-460.433"/>
<polygon fill="midnightblue" stroke="midnightblue" points="83.171,-323.997 75.7328,-316.452 76.8425,-326.989 83.171,-323.997"/>
</g>
<!-- Node18 -->
<g id="node5" class="node"><title>Node18</title>
<g id="a_node5"><a xlink:href="classEigen_1_1SkylineMatrixBase.html#a9053e6aa219a3e23d0044de7301a8e8d" target="_top" xlink:title="Eigen::SkylineMatrixBase\l\&lt; SkylineMatrix\&lt; _Scalar,\l _Options \&gt; \&gt;::evalTo">
<polygon fill="none" stroke="black" points="181,-400.5 181,-441.5 321,-441.5 321,-400.5 181,-400.5"/>
<text text-anchor="start" x="189" y="-429.5" font-family="Helvetica,sans-Serif" font-size="10.00">Eigen::SkylineMatrixBase</text>
<text text-anchor="start" x="189" y="-418.5" font-family="Helvetica,sans-Serif" font-size="10.00">&lt; SkylineMatrix&lt; _Scalar,</text>
<text text-anchor="middle" x="251" y="-407.5" font-family="Helvetica,sans-Serif" font-size="10.00"> _Options &gt; &gt;::evalTo</text>
</a>
</g>
</g>
<!-- Node14&#45;&gt;Node18 -->
<g id="edge4" class="edge"><title>Node14&#45;&gt;Node18</title>
<path fill="none" stroke="midnightblue" d="M90.2597,-323.635C109.928,-343.528 140.763,-372.163 172,-391 177.591,-394.372 183.627,-397.485 189.778,-400.326"/>
<polygon fill="midnightblue" stroke="midnightblue" points="92.525,-320.944 83.0425,-316.219 87.5084,-325.826 92.525,-320.944"/>
</g>
<!-- Node19 -->
<g id="node6" class="node"><title>Node19</title>
<g id="a_node6"><a xlink:href="classEigen_1_1SkylineMatrixBase.html#ae0b3e38f3b61c0625446d43fff3f5a2b" target="_top" xlink:title="Eigen::SkylineMatrixBase\l\&lt; SkylineMatrix\&lt; _Scalar,\l _Options \&gt; \&gt;::markAsRValue">
<polygon fill="none" stroke="black" points="172,-340.5 172,-381.5 330,-381.5 330,-340.5 172,-340.5"/>
<text text-anchor="start" x="180" y="-369.5" font-family="Helvetica,sans-Serif" font-size="10.00">Eigen::SkylineMatrixBase</text>
<text text-anchor="start" x="180" y="-358.5" font-family="Helvetica,sans-Serif" font-size="10.00">&lt; SkylineMatrix&lt; _Scalar,</text>
<text text-anchor="middle" x="251" y="-347.5" font-family="Helvetica,sans-Serif" font-size="10.00"> _Options &gt; &gt;::markAsRValue</text>
</a>
</g>
</g>
<!-- Node14&#45;&gt;Node19 -->
<g id="edge5" class="edge"><title>Node14&#45;&gt;Node19</title>
<path fill="none" stroke="midnightblue" d="M124.304,-319.333C144.416,-326 167.274,-333.577 187.932,-340.425"/>
<polygon fill="midnightblue" stroke="midnightblue" points="125.267,-315.965 114.674,-316.141 123.065,-322.609 125.267,-315.965"/>
</g>
<!-- Node20 -->
<g id="node7" class="node"><title>Node20</title>
<g id="a_node7"><a xlink:href="classEigen_1_1SkylineMatrixBase.html#aaeda265186dd626052df8580779b7460" target="_top" xlink:title="Eigen::SkylineMatrixBase\l\&lt; SkylineMatrix\&lt; _Scalar,\l _Options \&gt; \&gt;::nonZeros">
<polygon fill="none" stroke="black" points="181,-280.5 181,-321.5 321,-321.5 321,-280.5 181,-280.5"/>
<text text-anchor="start" x="189" y="-309.5" font-family="Helvetica,sans-Serif" font-size="10.00">Eigen::SkylineMatrixBase</text>
<text text-anchor="start" x="189" y="-298.5" font-family="Helvetica,sans-Serif" font-size="10.00">&lt; SkylineMatrix&lt; _Scalar,</text>
<text text-anchor="middle" x="251" y="-287.5" font-family="Helvetica,sans-Serif" font-size="10.00"> _Options &gt; &gt;::nonZeros</text>
</a>
</g>
</g>
<!-- Node14&#45;&gt;Node20 -->
<g id="edge6" class="edge"><title>Node14&#45;&gt;Node20</title>
<path fill="none" stroke="midnightblue" d="M146.17,-301C157.692,-301 169.508,-301 180.85,-301"/>
<polygon fill="midnightblue" stroke="midnightblue" points="146.141,-297.5 136.141,-301 146.14,-304.5 146.141,-297.5"/>
</g>
<!-- Node21 -->
<g id="node8" class="node"><title>Node21</title>
<g id="a_node8"><a xlink:href="classEigen_1_1SkylineMatrixBase.html#a37bc55eac2ec8ae4b560247435f30a3c" target="_top" xlink:title="Eigen::SkylineMatrixBase\l\&lt; SkylineMatrix\&lt; _Scalar,\l _Options \&gt; \&gt;::operator=">
<polygon fill="none" stroke="black" points="181,-220.5 181,-261.5 321,-261.5 321,-220.5 181,-220.5"/>
<text text-anchor="start" x="189" y="-249.5" font-family="Helvetica,sans-Serif" font-size="10.00">Eigen::SkylineMatrixBase</text>
<text text-anchor="start" x="189" y="-238.5" font-family="Helvetica,sans-Serif" font-size="10.00">&lt; SkylineMatrix&lt; _Scalar,</text>
<text text-anchor="middle" x="251" y="-227.5" font-family="Helvetica,sans-Serif" font-size="10.00"> _Options &gt; &gt;::operator=</text>
</a>
</g>
</g>
<!-- Node14&#45;&gt;Node21 -->
<g id="edge7" class="edge"><title>Node14&#45;&gt;Node21</title>
<path fill="none" stroke="midnightblue" d="M124.304,-282.667C144.416,-276 167.274,-268.423 187.932,-261.575"/>
<polygon fill="midnightblue" stroke="midnightblue" points="123.065,-279.391 114.674,-285.859 125.267,-286.035 123.065,-279.391"/>
</g>
<!-- Node22 -->
<g id="node9" class="node"><title>Node22</title>
<g id="a_node9"><a xlink:href="classEigen_1_1SkylineMatrix.html#a1f0aa06c7086d658416dc57076642525" target="_top" xlink:title="Eigen::SkylineMatrix\l::operator=">
<polygon fill="none" stroke="black" points="195,-171 195,-201 307,-201 307,-171 195,-171"/>
<text text-anchor="start" x="203" y="-189" font-family="Helvetica,sans-Serif" font-size="10.00">Eigen::SkylineMatrix</text>
<text text-anchor="middle" x="251" y="-178" font-family="Helvetica,sans-Serif" font-size="10.00">::operator=</text>
</a>
</g>
</g>
<!-- Node14&#45;&gt;Node22 -->
<g id="edge8" class="edge"><title>Node14&#45;&gt;Node22</title>
<path fill="none" stroke="midnightblue" d="M89.673,-278.281C109.156,-258.086 140.057,-229.043 172,-211 179.058,-207.014 186.839,-203.563 194.673,-200.607"/>
<polygon fill="midnightblue" stroke="midnightblue" points="86.878,-276.142 82.5422,-285.809 91.9601,-280.956 86.878,-276.142"/>
</g>
<!-- Node23 -->
<g id="node10" class="node"><title>Node23</title>
<g id="a_node10"><a xlink:href="classEigen_1_1SkylineMatrixBase.html#a8243b2fe6bcc6c3037717fcb0afa9d46" target="_top" xlink:title="Eigen::SkylineMatrixBase\l\&lt; SkylineMatrix\&lt; _Scalar,\l _Options \&gt; \&gt;::rows">
<polygon fill="none" stroke="black" points="181,-110.5 181,-151.5 321,-151.5 321,-110.5 181,-110.5"/>
<text text-anchor="start" x="189" y="-139.5" font-family="Helvetica,sans-Serif" font-size="10.00">Eigen::SkylineMatrixBase</text>
<text text-anchor="start" x="189" y="-128.5" font-family="Helvetica,sans-Serif" font-size="10.00">&lt; SkylineMatrix&lt; _Scalar,</text>
<text text-anchor="middle" x="251" y="-117.5" font-family="Helvetica,sans-Serif" font-size="10.00"> _Options &gt; &gt;::rows</text>
</a>
</g>
</g>
<!-- Node14&#45;&gt;Node23 -->
<g id="edge9" class="edge"><title>Node14&#45;&gt;Node23</title>
<path fill="none" stroke="midnightblue" d="M81.3999,-276.764C98.1614,-246.173 130.755,-193.726 172,-162 177.082,-158.091 182.721,-154.61 188.576,-151.525"/>
<polygon fill="midnightblue" stroke="midnightblue" points="78.157,-275.406 76.5233,-285.874 84.3284,-278.709 78.157,-275.406"/>
</g>
<!-- Node24 -->
<g id="node11" class="node"><title>Node24</title>
<g id="a_node11"><a xlink:href="classEigen_1_1SkylineMatrix.html#a8dbe4249614b89be421470e78592ce5b" target="_top" xlink:title="Eigen::SkylineMatrix\l::SkylineMatrix">
<polygon fill="none" stroke="black" points="195,-61 195,-91 307,-91 307,-61 195,-61"/>
<text text-anchor="start" x="203" y="-79" font-family="Helvetica,sans-Serif" font-size="10.00">Eigen::SkylineMatrix</text>
<text text-anchor="middle" x="251" y="-68" font-family="Helvetica,sans-Serif" font-size="10.00">::SkylineMatrix</text>
</a>
</g>
</g>
<!-- Node14&#45;&gt;Node24 -->
<g id="edge10" class="edge"><title>Node14&#45;&gt;Node24</title>
<path fill="none" stroke="midnightblue" d="M75.0695,-276.249C86.6652,-234.128 115.95,-148.469 172,-101 178.619,-95.394 186.513,-91.0401 194.698,-87.66"/>
<polygon fill="midnightblue" stroke="midnightblue" points="71.6718,-275.407 72.497,-285.97 78.4388,-277.198 71.6718,-275.407"/>
</g>
<!-- Node25 -->
<g id="node12" class="node"><title>Node25</title>
<g id="a_node12"><a xlink:href="classEigen_1_1SkylineMatrixBase.html#a2fd454562f9f3517bedeb606ff42f3ef" target="_top" xlink:title="Eigen::SkylineMatrixBase\l\&lt; SkylineMatrix\&lt; _Scalar,\l _Options \&gt; \&gt;::toDense">
<polygon fill="none" stroke="black" points="181,-0.5 181,-41.5 321,-41.5 321,-0.5 181,-0.5"/>
<text text-anchor="start" x="189" y="-29.5" font-family="Helvetica,sans-Serif" font-size="10.00">Eigen::SkylineMatrixBase</text>
<text text-anchor="start" x="189" y="-18.5" font-family="Helvetica,sans-Serif" font-size="10.00">&lt; SkylineMatrix&lt; _Scalar,</text>
<text text-anchor="middle" x="251" y="-7.5" font-family="Helvetica,sans-Serif" font-size="10.00"> _Options &gt; &gt;::toDense</text>
</a>
</g>
</g>
<!-- Node14&#45;&gt;Node25 -->
<g id="edge11" class="edge"><title>Node14&#45;&gt;Node25</title>
<path fill="none" stroke="midnightblue" d="M72.7862,-275.706C81.4679,-226.209 107.279,-115.826 172,-52 175.943,-48.1119 180.433,-44.695 185.223,-41.6951"/>
<polygon fill="midnightblue" stroke="midnightblue" points="69.2881,-275.407 71.101,-285.845 76.1933,-276.554 69.2881,-275.407"/>
</g>
</g>
</svg>
        <g id="navigator" transform="translate(0 0)" fill="#404254">
                <rect fill="#f2f5e9" fill-opacity="0.5" stroke="#606060" stroke-width=".5" x="0" y="0" width="60" height="60"/>
                <use id="zoomplus" xlink:href="#zoomPlus" x="17" y="9" onmousedown="handleZoom(evt,'in')"/>
                <use id="zoomminus" xlink:href="#zoomMin" x="42" y="9" onmousedown="handleZoom(evt,'out')"/>
                <use id="reset" xlink:href="#resetDef" x="30" y="36" onmousedown="handleReset()"/>
                <g id="arrowUp" xlink:href="#dirArrow" transform="translate(30 24)" onmousedown="handlePan(0,-1)">
                  <use xlink:href="#rim" fill="#404040">
                        <set attributeName="fill" to="#808080" begin="arrowUp.mouseover" end="arrowUp.mouseout"/>
                  </use>
                  <path fill="none" stroke="white" stroke-width="1.5" d="M0,-3.0v7 M-2.5,-0.5L0,-3.0L2.5,-0.5"/>
                </g>
                <g id="arrowRight" xlink:href="#dirArrow" transform="rotate(90) translate(36 -43)" onmousedown="handlePan(1,0)">
                  <use xlink:href="#rim" fill="#404040">
                        <set attributeName="fill" to="#808080" begin="arrowRight.mouseover" end="arrowRight.mouseout"/>
                  </use>
                  <path fill="none" stroke="white" stroke-width="1.5" d="M0,-3.0v7 M-2.5,-0.5L0,-3.0L2.5,-0.5"/>
                </g>
                <g id="arrowDown" xlink:href="#dirArrow" transform="rotate(180) translate(-30 -48)" onmousedown="handlePan(0,1)">
                  <use xlink:href="#rim" fill="#404040">
                        <set attributeName="fill" to="#808080" begin="arrowDown.mouseover" end="arrowDown.mouseout"/>
                  </use>
                  <path fill="none" stroke="white" stroke-width="1.5" d="M0,-3.0v7 M-2.5,-0.5L0,-3.0L2.5,-0.5"/>
                </g>
                <g id="arrowLeft" xlink:href="#dirArrow" transform="rotate(270) translate(-36 17)" onmousedown="handlePan(-1,0)">
                  <use xlink:href="#rim" fill="#404040">
                        <set attributeName="fill" to="#808080" begin="arrowLeft.mouseover" end="arrowLeft.mouseout"/>
                  </use>
                  <path fill="none" stroke="white" stroke-width="1.5" d="M0,-3.0v7 M-2.5,-0.5L0,-3.0L2.5,-0.5"/>
                </g>
        </g>
        <svg viewBox="0 0 15 15" width="100%" height="30px" preserveAspectRatio="xMaxYMin meet">
         <g id="arrow_out" transform="scale(0.3 0.3)">
          <a xlink:href="classEigen_1_1SkylineMatrixBase_a854b1648519580b953e608018f467bcf_icgraph_org.svg" target="_base">
           <rect id="button" ry="5" rx="5" y="6" x="6" height="38" width="38"
                fill="#f2f5e9" fill-opacity="0.5" stroke="#606060" stroke-width="1.0"/>
           <path id="arrow"
             d="M 11.500037,31.436501 C 11.940474,20.09759 22.043105,11.32322 32.158766,21.979434 L 37.068811,17.246167 C 37.068811,17.246167 37.088388,32 37.088388,32 L 22.160133,31.978069 C 22.160133,31.978069 26.997745,27.140456 26.997745,27.140456 C 18.528582,18.264221 13.291696,25.230495 11.500037,31.436501 z"
             style="fill:#404040;"/>
          </a>
         </g>
        </svg>
</svg>
