<?xml version="1.0" encoding="UTF-8" standalone="no"?>
<!DOCTYPE svg PUBLIC "-//W3C//DTD SVG 1.1//EN"
 "http://www.w3.org/Graphics/SVG/1.1/DTD/svg11.dtd">
<!-- Generated by graphviz version 2.38.0 (20140413.2041)
 -->
<!-- Title: Eigen::ComplexSchur::info Pages: 1 -->
<svg width="973pt" height="178pt"
 viewBox="0.00 0.00 973.00 178.00" xmlns="http://www.w3.org/2000/svg" xmlns:xlink="http://www.w3.org/1999/xlink">
<g id="graph0" class="graph" transform="scale(1 1) rotate(0) translate(4 174)">
<title>Eigen::ComplexSchur::info</title>
<!-- Node18 -->
<g id="node1" class="node"><title>Node18</title>
<polygon fill="#bfbfbf" stroke="black" points="0,-79 0,-109 119,-109 119,-79 0,-79"/>
<text text-anchor="start" x="8" y="-97" font-family="Helvetica,sans-Serif" font-size="10.00">Eigen::ComplexSchur</text>
<text text-anchor="middle" x="59.5" y="-86" font-family="Helvetica,sans-Serif" font-size="10.00">::info</text>
</g>
<!-- Node19 -->
<g id="node2" class="node"><title>Node19</title>
<g id="a_node2"><a xlink:href="classEigen_1_1ComplexEigenSolver.html#a077a28fcef2f7eecb6041380cfcd83fd" target="_top" xlink:title="Eigen::ComplexEigenSolver\l::compute">
<polygon fill="none" stroke="black" points="155,-104 155,-134 302,-134 302,-104 155,-104"/>
<text text-anchor="start" x="163" y="-122" font-family="Helvetica,sans-Serif" font-size="10.00">Eigen::ComplexEigenSolver</text>
<text text-anchor="middle" x="228.5" y="-111" font-family="Helvetica,sans-Serif" font-size="10.00">::compute</text>
</a>
</g>
</g>
<!-- Node18&#45;&gt;Node19 -->
<g id="edge1" class="edge"><title>Node18&#45;&gt;Node19</title>
<path fill="none" stroke="midnightblue" d="M129.46,-104.323C137.826,-105.576 146.393,-106.858 154.811,-108.118"/>
<polygon fill="midnightblue" stroke="midnightblue" points="129.786,-100.833 119.378,-102.814 128.75,-107.756 129.786,-100.833"/>
</g>
<!-- Node20 -->
<g id="node3" class="node"><title>Node20</title>
<g id="a_node3"><a xlink:href="classEigen_1_1ComplexEigenSolver.html#ad4d9d8b90145900b9686d2dabbe46730" target="_top" xlink:title="Reports whether previous computation was successful. ">
<polygon fill="none" stroke="black" points="155,-55 155,-85 302,-85 302,-55 155,-55"/>
<text text-anchor="start" x="163" y="-73" font-family="Helvetica,sans-Serif" font-size="10.00">Eigen::ComplexEigenSolver</text>
<text text-anchor="middle" x="228.5" y="-62" font-family="Helvetica,sans-Serif" font-size="10.00">::info</text>
</a>
</g>
</g>
<!-- Node18&#45;&gt;Node20 -->
<g id="edge2" class="edge"><title>Node18&#45;&gt;Node20</title>
<path fill="none" stroke="midnightblue" d="M129.46,-84.0896C137.826,-82.8873 146.393,-81.6561 154.811,-80.4463"/>
<polygon fill="midnightblue" stroke="midnightblue" points="128.778,-80.6515 119.378,-85.5385 129.774,-87.5803 128.778,-80.6515"/>
</g>
<!-- Node21 -->
<g id="node4" class="node"><title>Node21</title>
<g id="a_node4"><a xlink:href="eigensolver__complex_8cpp.html#a936952f9210b126877c2c4a0f5f6e084" target="_top" xlink:title="eigensolver">
<polygon fill="none" stroke="black" points="338,-60.5 338,-79.5 409,-79.5 409,-60.5 338,-60.5"/>
<text text-anchor="middle" x="373.5" y="-67.5" font-family="Helvetica,sans-Serif" font-size="10.00">eigensolver</text>
</a>
</g>
</g>
<!-- Node20&#45;&gt;Node21 -->
<g id="edge3" class="edge"><title>Node20&#45;&gt;Node21</title>
<path fill="none" stroke="midnightblue" d="M312.403,-70C321.324,-70 330.003,-70 337.864,-70"/>
<polygon fill="midnightblue" stroke="midnightblue" points="312.257,-66.5001 302.257,-70 312.257,-73.5001 312.257,-66.5001"/>
</g>
<!-- Node22 -->
<g id="node5" class="node"><title>Node22</title>
<g id="a_node5"><a xlink:href="classHamiltonianmatrix.html#a1db6d20a1d88ef89f1acdad819af34ee" target="_top" xlink:title="Hamiltonianmatrix::\ldiagonalize">
<polygon fill="none" stroke="black" points="455,-126 455,-156 566,-156 566,-126 455,-126"/>
<text text-anchor="start" x="463" y="-144" font-family="Helvetica,sans-Serif" font-size="10.00">Hamiltonianmatrix::</text>
<text text-anchor="middle" x="510.5" y="-133" font-family="Helvetica,sans-Serif" font-size="10.00">diagonalize</text>
</a>
</g>
</g>
<!-- Node21&#45;&gt;Node22 -->
<g id="edge4" class="edge"><title>Node21&#45;&gt;Node22</title>
<path fill="none" stroke="midnightblue" d="M395.15,-85.6244C408.805,-95.4798 427.375,-108 445,-117 451.278,-120.206 458.088,-123.209 464.852,-125.932"/>
<polygon fill="midnightblue" stroke="midnightblue" points="397.077,-82.6972 386.946,-79.5966 392.933,-88.3382 397.077,-82.6972"/>
</g>
<!-- Node27 -->
<g id="node10" class="node"><title>Node27</title>
<g id="a_node10"><a xlink:href="classSystemBase.html#ae4fcbfd3d133482f310939849cd41764" target="_top" xlink:title="SystemBase\&lt; StateTwo\l \&gt;::diagonalize">
<polygon fill="none" stroke="black" points="445,-77 445,-107 576,-107 576,-77 445,-77"/>
<text text-anchor="start" x="453" y="-95" font-family="Helvetica,sans-Serif" font-size="10.00">SystemBase&lt; StateTwo</text>
<text text-anchor="middle" x="510.5" y="-84" font-family="Helvetica,sans-Serif" font-size="10.00"> &gt;::diagonalize</text>
</a>
</g>
</g>
<!-- Node21&#45;&gt;Node27 -->
<g id="edge9" class="edge"><title>Node21&#45;&gt;Node27</title>
<path fill="none" stroke="midnightblue" d="M419.364,-77.3112C427.584,-78.6507 436.31,-80.0728 444.972,-81.4843"/>
<polygon fill="midnightblue" stroke="midnightblue" points="419.699,-73.8196 409.266,-75.6655 418.573,-80.7285 419.699,-73.8196"/>
</g>
<!-- Node28 -->
<g id="node11" class="node"><title>Node28</title>
<g id="a_node11"><a xlink:href="TutorialLinAlgSelfAdjointEigenSolver_8cpp.html#ae66f6b31b5ad750f1fe042a706a4e3d4" target="_top" xlink:title="main">
<polygon fill="none" stroke="black" points="490,-38.5 490,-57.5 531,-57.5 531,-38.5 490,-38.5"/>
<text text-anchor="middle" x="510.5" y="-45.5" font-family="Helvetica,sans-Serif" font-size="10.00">main</text>
</a>
</g>
</g>
<!-- Node21&#45;&gt;Node28 -->
<g id="edge10" class="edge"><title>Node21&#45;&gt;Node28</title>
<path fill="none" stroke="midnightblue" d="M419.223,-62.7118C443.172,-58.809 471.454,-54.2 489.897,-51.1946"/>
<polygon fill="midnightblue" stroke="midnightblue" points="418.573,-59.2715 409.266,-64.3345 419.699,-66.1804 418.573,-59.2715"/>
</g>
<!-- Node29 -->
<g id="node12" class="node"><title>Node29</title>
<g id="a_node12"><a xlink:href="boostmultiprec_8cpp.html#af8983cadf0ba3b55cb55879f4b3d833d" target="_top" xlink:title="test_boostmultiprec">
<polygon fill="none" stroke="black" points="454,-0.5 454,-19.5 567,-19.5 567,-0.5 454,-0.5"/>
<text text-anchor="middle" x="510.5" y="-7.5" font-family="Helvetica,sans-Serif" font-size="10.00">test_boostmultiprec</text>
</a>
</g>
</g>
<!-- Node21&#45;&gt;Node29 -->
<g id="edge11" class="edge"><title>Node21&#45;&gt;Node29</title>
<path fill="none" stroke="midnightblue" d="M397.147,-54.9501C410.626,-46.4779 428.306,-36.1888 445,-29 453.363,-25.3988 462.618,-22.2282 471.444,-19.5602"/>
<polygon fill="midnightblue" stroke="midnightblue" points="395.078,-52.1193 388.551,-60.4648 398.858,-58.0111 395.078,-52.1193"/>
</g>
<!-- Node23 -->
<g id="node6" class="node"><title>Node23</title>
<g id="a_node6"><a xlink:href="classHamiltonianOne.html#a9cb71dcb34ab9f0779c0bd66b758185e" target="_top" xlink:title="HamiltonianOne::build">
<polygon fill="none" stroke="black" points="621,-150.5 621,-169.5 743,-169.5 743,-150.5 621,-150.5"/>
<text text-anchor="middle" x="682" y="-157.5" font-family="Helvetica,sans-Serif" font-size="10.00">HamiltonianOne::build</text>
</a>
</g>
</g>
<!-- Node22&#45;&gt;Node23 -->
<g id="edge5" class="edge"><title>Node22&#45;&gt;Node23</title>
<path fill="none" stroke="midnightblue" d="M576.102,-148.242C590.835,-149.893 606.43,-151.641 620.963,-153.27"/>
<polygon fill="midnightblue" stroke="midnightblue" points="576.392,-144.752 566.064,-147.116 575.612,-151.709 576.392,-144.752"/>
</g>
<!-- Node25 -->
<g id="node8" class="node"><title>Node25</title>
<g id="a_node8"><a xlink:href="classHamiltonianTwo.html#a6ca0a318f25170b69e571a07064a5afb" target="_top" xlink:title="HamiltonianTwo::calculate">
<polygon fill="none" stroke="black" points="612,-112.5 612,-131.5 752,-131.5 752,-112.5 612,-112.5"/>
<text text-anchor="middle" x="682" y="-119.5" font-family="Helvetica,sans-Serif" font-size="10.00">HamiltonianTwo::calculate</text>
</a>
</g>
</g>
<!-- Node22&#45;&gt;Node25 -->
<g id="edge7" class="edge"><title>Node22&#45;&gt;Node25</title>
<path fill="none" stroke="midnightblue" d="M576.184,-133.749C587.887,-132.437 600.131,-131.065 611.953,-129.74"/>
<polygon fill="midnightblue" stroke="midnightblue" points="575.612,-130.291 566.064,-134.884 576.392,-137.248 575.612,-130.291"/>
</g>
<!-- Node24 -->
<g id="node7" class="node"><title>Node24</title>
<g id="a_node7"><a xlink:href="classHamiltonianOne.html#ad3ba2d70879a60c9f065b5a2545dfe36" target="_top" xlink:title="HamiltonianOne::HamiltonianOne">
<polygon fill="none" stroke="black" points="788,-150.5 788,-169.5 965,-169.5 965,-150.5 788,-150.5"/>
<text text-anchor="middle" x="876.5" y="-157.5" font-family="Helvetica,sans-Serif" font-size="10.00">HamiltonianOne::HamiltonianOne</text>
</a>
</g>
</g>
<!-- Node23&#45;&gt;Node24 -->
<g id="edge6" class="edge"><title>Node23&#45;&gt;Node24</title>
<path fill="none" stroke="midnightblue" d="M753.306,-160C764.58,-160 776.367,-160 787.982,-160"/>
<polygon fill="midnightblue" stroke="midnightblue" points="753.116,-156.5 743.116,-160 753.116,-163.5 753.116,-156.5"/>
</g>
<!-- Node26 -->
<g id="node9" class="node"><title>Node26</title>
<g id="a_node9"><a xlink:href="classHamiltonianTwo.html#a8d51d632bd7862cf1e566f6faf9ccc8c" target="_top" xlink:title="HamiltonianTwo::HamiltonianTwo">
<polygon fill="none" stroke="black" points="791,-112.5 791,-131.5 962,-131.5 962,-112.5 791,-112.5"/>
<text text-anchor="middle" x="876.5" y="-119.5" font-family="Helvetica,sans-Serif" font-size="10.00">HamiltonianTwo::HamiltonianTwo</text>
</a>
</g>
</g>
<!-- Node25&#45;&gt;Node26 -->
<g id="edge8" class="edge"><title>Node25&#45;&gt;Node26</title>
<path fill="none" stroke="midnightblue" d="M762.311,-122C771.703,-122 781.317,-122 790.78,-122"/>
<polygon fill="midnightblue" stroke="midnightblue" points="762.225,-118.5 752.225,-122 762.225,-125.5 762.225,-118.5"/>
</g>
</g>
</svg>
