<?xml version="1.0" encoding="UTF-8" standalone="no"?>
<!DOCTYPE svg PUBLIC "-//W3C//DTD SVG 1.1//EN"
 "http://www.w3.org/Graphics/SVG/1.1/DTD/svg11.dtd">
<!-- Generated by graphviz version 2.38.0 (20140413.2041)
 -->
<!-- Title: Hamiltonianmatrix::doDeserialization Pages: 1 -->
<svg width="267pt" height="372pt"
 viewBox="0.00 0.00 267.00 372.00" xmlns="http://www.w3.org/2000/svg" xmlns:xlink="http://www.w3.org/1999/xlink">
<g id="graph0" class="graph" transform="scale(1 1) rotate(0) translate(4 368)">
<title>Hamiltonianmatrix::doDeserialization</title>
<!-- Node118 -->
<g id="node1" class="node"><title>Node118</title>
<polygon fill="#bfbfbf" stroke="black" points="0,-171.5 0,-201.5 111,-201.5 111,-171.5 0,-171.5"/>
<text text-anchor="start" x="8" y="-189.5" font-family="Helvetica,sans-Serif" font-size="10.00">Hamiltonianmatrix::</text>
<text text-anchor="middle" x="55.5" y="-178.5" font-family="Helvetica,sans-Serif" font-size="10.00">doDeserialization</text>
</g>
<!-- Node119 -->
<g id="node2" class="node"><title>Node119</title>
<g id="a_node2"><a xlink:href="classEigen_1_1SparseMatrix.html#a505802f4dd45f7c036ad28261f065610" target="_top" xlink:title="Eigen::SparseMatrix\l::finalize">
<polygon fill="none" stroke="black" points="147,-333.5 147,-363.5 259,-363.5 259,-333.5 147,-333.5"/>
<text text-anchor="start" x="155" y="-351.5" font-family="Helvetica,sans-Serif" font-size="10.00">Eigen::SparseMatrix</text>
<text text-anchor="middle" x="203" y="-340.5" font-family="Helvetica,sans-Serif" font-size="10.00">::finalize</text>
</a>
</g>
</g>
<!-- Node118&#45;&gt;Node119 -->
<g id="edge1" class="edge"><title>Node118&#45;&gt;Node119</title>
<path fill="none" stroke="midnightblue" d="M62.9517,-201.847C75.3847,-229.76 105.178,-289.209 147,-324.5 148.493,-325.76 150.062,-326.964 151.689,-328.113"/>
<polygon fill="midnightblue" stroke="midnightblue" points="149.869,-331.103 160.208,-333.415 153.567,-325.16 149.869,-331.103"/>
</g>
<!-- Node120 -->
<g id="node3" class="node"><title>Node120</title>
<g id="a_node3"><a xlink:href="classEigen_1_1SparseMatrix.html#ae7b804bd39745156d20ca1611a296b67" target="_top" xlink:title="Eigen::SparseMatrix\l::innerIndexPtr">
<polygon fill="none" stroke="black" points="147,-284.5 147,-314.5 259,-314.5 259,-284.5 147,-284.5"/>
<text text-anchor="start" x="155" y="-302.5" font-family="Helvetica,sans-Serif" font-size="10.00">Eigen::SparseMatrix</text>
<text text-anchor="middle" x="203" y="-291.5" font-family="Helvetica,sans-Serif" font-size="10.00">::innerIndexPtr</text>
</a>
</g>
</g>
<!-- Node118&#45;&gt;Node120 -->
<g id="edge2" class="edge"><title>Node118&#45;&gt;Node120</title>
<path fill="none" stroke="midnightblue" d="M68.9964,-201.512C85.3664,-220.451 115.688,-253.124 147,-274.5 149.56,-276.247 152.261,-277.924 155.037,-279.524"/>
<polygon fill="midnightblue" stroke="midnightblue" points="153.61,-282.73 164.078,-284.361 156.912,-276.558 153.61,-282.73"/>
</g>
<!-- Node121 -->
<g id="node4" class="node"><title>Node121</title>
<g id="a_node4"><a xlink:href="classSerializer.html#a26e560124d2dd1daa304ac8e878db630" target="_top" xlink:title="Serializer::load">
<polygon fill="none" stroke="black" points="159.5,-246 159.5,-265 246.5,-265 246.5,-246 159.5,-246"/>
<text text-anchor="middle" x="203" y="-253" font-family="Helvetica,sans-Serif" font-size="10.00">Serializer::load</text>
</a>
</g>
</g>
<!-- Node118&#45;&gt;Node121 -->
<g id="edge3" class="edge"><title>Node118&#45;&gt;Node121</title>
<path fill="none" stroke="midnightblue" d="M81.2629,-201.701C99.1267,-212.287 124.04,-226.283 147,-236.5 151.724,-238.602 156.759,-240.624 161.79,-242.512"/>
<polygon fill="midnightblue" stroke="midnightblue" points="160.784,-245.87 171.378,-245.967 163.157,-239.284 160.784,-245.87"/>
</g>
<!-- Node122 -->
<g id="node5" class="node"><title>Node122</title>
<g id="a_node5"><a xlink:href="classEigen_1_1SparseMatrix.html#a5ff54ffc10296f9466dc81fa888733fd" target="_top" xlink:title="Eigen::SparseMatrix\l::makeCompressed">
<polygon fill="none" stroke="black" points="147,-196.5 147,-226.5 259,-226.5 259,-196.5 147,-196.5"/>
<text text-anchor="start" x="155" y="-214.5" font-family="Helvetica,sans-Serif" font-size="10.00">Eigen::SparseMatrix</text>
<text text-anchor="middle" x="203" y="-203.5" font-family="Helvetica,sans-Serif" font-size="10.00">::makeCompressed</text>
</a>
</g>
</g>
<!-- Node118&#45;&gt;Node122 -->
<g id="edge4" class="edge"><title>Node118&#45;&gt;Node122</title>
<path fill="none" stroke="midnightblue" d="M111.093,-195.88C119.439,-197.314 128.125,-198.807 136.674,-200.276"/>
<polygon fill="midnightblue" stroke="midnightblue" points="136.168,-203.74 146.617,-201.984 137.354,-196.841 136.168,-203.74"/>
</g>
<!-- Node123 -->
<g id="node6" class="node"><title>Node123</title>
<g id="a_node6"><a xlink:href="classHamiltonianmatrix.html#a37cc79dcec0f0d81265870a34517a225" target="_top" xlink:title="Hamiltonianmatrix::\lmergeComplex">
<polygon fill="none" stroke="black" points="147.5,-147.5 147.5,-177.5 258.5,-177.5 258.5,-147.5 147.5,-147.5"/>
<text text-anchor="start" x="155.5" y="-165.5" font-family="Helvetica,sans-Serif" font-size="10.00">Hamiltonianmatrix::</text>
<text text-anchor="middle" x="203" y="-154.5" font-family="Helvetica,sans-Serif" font-size="10.00">mergeComplex</text>
</a>
</g>
</g>
<!-- Node118&#45;&gt;Node123 -->
<g id="edge5" class="edge"><title>Node118&#45;&gt;Node123</title>
<path fill="none" stroke="midnightblue" d="M111.093,-177.495C119.555,-176.099 128.367,-174.646 137.03,-173.217"/>
<polygon fill="midnightblue" stroke="midnightblue" points="137.804,-176.636 147.101,-171.555 136.665,-169.73 137.804,-176.636"/>
</g>
<!-- Node124 -->
<g id="node7" class="node"><title>Node124</title>
<g id="a_node7"><a xlink:href="classEigen_1_1SparseMatrix.html#a75506964d86d6badb32d0b4917acf2e2" target="_top" xlink:title="Eigen::SparseMatrix\l::outerIndexPtr">
<polygon fill="none" stroke="black" points="147,-98.5 147,-128.5 259,-128.5 259,-98.5 147,-98.5"/>
<text text-anchor="start" x="155" y="-116.5" font-family="Helvetica,sans-Serif" font-size="10.00">Eigen::SparseMatrix</text>
<text text-anchor="middle" x="203" y="-105.5" font-family="Helvetica,sans-Serif" font-size="10.00">::outerIndexPtr</text>
</a>
</g>
</g>
<!-- Node118&#45;&gt;Node124 -->
<g id="edge6" class="edge"><title>Node118&#45;&gt;Node124</title>
<path fill="none" stroke="midnightblue" d="M84.0005,-171.353C101.822,-161.677 125.615,-149.019 147,-138.5 150.812,-136.625 154.794,-134.718 158.797,-132.835"/>
<polygon fill="midnightblue" stroke="midnightblue" points="160.51,-135.899 168.107,-128.514 157.563,-129.549 160.51,-135.899"/>
</g>
<!-- Node125 -->
<g id="node8" class="node"><title>Node125</title>
<g id="a_node8"><a xlink:href="classEigen_1_1SparseMatrix.html#a3a60ad3fcc5941f5a1272e0d13d89fbf" target="_top" xlink:title="Eigen::SparseMatrix\l::resizeNonZeros">
<polygon fill="none" stroke="black" points="147,-49.5 147,-79.5 259,-79.5 259,-49.5 147,-49.5"/>
<text text-anchor="start" x="155" y="-67.5" font-family="Helvetica,sans-Serif" font-size="10.00">Eigen::SparseMatrix</text>
<text text-anchor="middle" x="203" y="-56.5" font-family="Helvetica,sans-Serif" font-size="10.00">::resizeNonZeros</text>
</a>
</g>
</g>
<!-- Node118&#45;&gt;Node125 -->
<g id="edge7" class="edge"><title>Node118&#45;&gt;Node125</title>
<path fill="none" stroke="midnightblue" d="M67.5797,-171.288C83.3087,-150.557 113.901,-113.297 147,-89.5 149.475,-87.7206 152.097,-86.0229 154.8,-84.4115"/>
<polygon fill="midnightblue" stroke="midnightblue" points="156.551,-87.4434 163.633,-79.5635 153.183,-81.3069 156.551,-87.4434"/>
</g>
<!-- Node126 -->
<g id="node9" class="node"><title>Node126</title>
<g id="a_node9"><a xlink:href="classEigen_1_1SparseMatrix.html#a9d4354d3f4d121d764bbed33cac05329" target="_top" xlink:title="Eigen::SparseMatrix\l::valuePtr">
<polygon fill="none" stroke="black" points="147,-0.5 147,-30.5 259,-30.5 259,-0.5 147,-0.5"/>
<text text-anchor="start" x="155" y="-18.5" font-family="Helvetica,sans-Serif" font-size="10.00">Eigen::SparseMatrix</text>
<text text-anchor="middle" x="203" y="-7.5" font-family="Helvetica,sans-Serif" font-size="10.00">::valuePtr</text>
</a>
</g>
</g>
<!-- Node118&#45;&gt;Node126 -->
<g id="edge8" class="edge"><title>Node118&#45;&gt;Node126</title>
<path fill="none" stroke="midnightblue" d="M62.392,-171.231C74.2882,-142.189 103.777,-78.5063 147,-40.5 148.728,-38.9806 150.564,-37.538 152.476,-36.1702"/>
<polygon fill="midnightblue" stroke="midnightblue" points="154.655,-38.9346 161.254,-30.6462 150.926,-33.0101 154.655,-38.9346"/>
</g>
</g>
</svg>
