<?xml version="1.0" encoding="UTF-8" standalone="no"?>
<!DOCTYPE svg PUBLIC "-//W3C//DTD SVG 1.1//EN"
 "http://www.w3.org/Graphics/SVG/1.1/DTD/svg11.dtd">
<!-- Generated by graphviz version 2.38.0 (20140413.2041)
 -->
<!-- Title: mpfr::mpreal::get_default_prec Pages: 1 -->
<!--zoomable 657 -->
<svg id="main" version="1.1" xmlns="http://www.w3.org/2000/svg" xmlns:xlink="http://www.w3.org/1999/xlink" xml:space="preserve" onload="init(evt)">
<style type="text/css"><![CDATA[
.edge:hover path { stroke: red; }
.edge:hover polygon { stroke: red; fill: red; }
]]></style>
<script type="text/javascript"><![CDATA[
var edges = document.getElementsByTagName('g');
if (edges && edges.length) {
  for (var i=0;i<edges.length;i++) {
    if (edges[i].id.substr(0,4)=='edge') {
      edges[i].setAttribute('class','edge');
    }
  }
}
]]></script>
        <defs>
                <circle id="rim" cx="0" cy="0" r="7"/>
                <circle id="rim2" cx="0" cy="0" r="3.5"/>
                <g id="zoomPlus">
                        <use xlink:href="#rim" fill="#404040">
                                <set attributeName="fill" to="#808080" begin="zoomplus.mouseover" end="zoomplus.mouseout"/>
                        </use>
                        <path d="M-4,0h8M0,-4v8" fill="none" stroke="white" stroke-width="1.5" pointer-events="none"/>
                </g>
                <g id="zoomMin">
                        <use xlink:href="#rim" fill="#404040">
                                <set attributeName="fill" to="#808080" begin="zoomminus.mouseover" end="zoomminus.mouseout"/>
                        </use>
                        <path d="M-4,0h8" fill="none" stroke="white" stroke-width="1.5" pointer-events="none"/>
                </g>
                <g id="dirArrow">
                        <path fill="none" stroke="white" stroke-width="1.5" d="M0,-3.0v7 M-2.5,-0.5L0,-3.0L2.5,-0.5"/>
                </g>
               <g id="resetDef">
                       <use xlink:href="#rim2" fill="#404040">
                               <set attributeName="fill" to="#808080" begin="reset.mouseover" end="reset.mouseout"/>
                       </use>
               </g>
        </defs>

<script type="text/javascript">
var viewWidth = 871;
var viewHeight = 657;
var sectionId = 'dynsection-24';
</script>
<script xlink:href="svgpan.js"/>
<svg id="graph" class="graph">
<g id="viewport">
<title>mpfr::mpreal::get_default_prec</title>
<!-- Node367 -->
<g id="node1" class="node"><title>Node367</title>
<polygon fill="#bfbfbf" stroke="black" points="0,-266.5 0,-285.5 165,-285.5 165,-266.5 0,-266.5"/>
<text text-anchor="middle" x="82.5" y="-273.5" font-family="Helvetica,sans-Serif" font-size="10.00">mpfr::mpreal::get_default_prec</text>
</g>
<!-- Node368 -->
<g id="node2" class="node"><title>Node368</title>
<g id="a_node2"><a xlink:href="classstd_1_1numeric__limits_3_01mpfr_1_1mpreal_01_4.html#a3934cff230bb0e9121edf616b6d0627d" target="_top" xlink:title="std::numeric_limits\l\&lt; mpfr::mpreal \&gt;::digits">
<polygon fill="none" stroke="black" points="201,-618 201,-648 334,-648 334,-618 201,-618"/>
<text text-anchor="start" x="209" y="-636" font-family="Helvetica,sans-Serif" font-size="10.00">std::numeric_limits</text>
<text text-anchor="middle" x="267.5" y="-625" font-family="Helvetica,sans-Serif" font-size="10.00">&lt; mpfr::mpreal &gt;::digits</text>
</a>
</g>
</g>
<!-- Node367&#45;&gt;Node368 -->
<g id="edge1" class="edge"><title>Node367&#45;&gt;Node368</title>
<path fill="none" stroke="midnightblue" d="M85.3313,-295.904C91.4412,-351.48 115.835,-510.313 201,-603 206.585,-609.079 213.644,-614.017 221.046,-617.999"/>
<polygon fill="midnightblue" stroke="midnightblue" points="88.7846,-295.266 84.2897,-285.672 81.8206,-295.976 88.7846,-295.266"/>
</g>
<!-- Node369 -->
<g id="node3" class="node"><title>Node369</title>
<g id="a_node3"><a xlink:href="classmpfr_1_1mpreal.html#a9c370c68865b32775c1c1cb5123cea90" target="_top" xlink:title="mpfr::mpreal::mpreal">
<polygon fill="none" stroke="black" points="208,-266.5 208,-285.5 327,-285.5 327,-266.5 208,-266.5"/>
<text text-anchor="middle" x="267.5" y="-273.5" font-family="Helvetica,sans-Serif" font-size="10.00">mpfr::mpreal::mpreal</text>
</a>
</g>
</g>
<!-- Node367&#45;&gt;Node369 -->
<g id="edge2" class="edge"><title>Node367&#45;&gt;Node369</title>
<path fill="none" stroke="midnightblue" d="M175.254,-269.25C186.331,-269.252 197.403,-269.386 207.82,-269.652"/>
<polygon fill="midnightblue" stroke="midnightblue" points="175.087,-265.75 165.099,-269.285 175.111,-272.75 175.087,-265.75"/>
</g>
<!-- Node374 -->
<g id="node8" class="node"><title>Node374</title>
<g id="a_node8"><a xlink:href="namespacempfr.html#ab6cfe9d750c1cdf9f8d65c93bc75fa57" target="_top" xlink:title="mpfr::operator/">
<polygon fill="none" stroke="black" points="750,-453.5 750,-472.5 839,-472.5 839,-453.5 750,-453.5"/>
<text text-anchor="middle" x="794.5" y="-460.5" font-family="Helvetica,sans-Serif" font-size="10.00">mpfr::operator/</text>
</a>
</g>
</g>
<!-- Node367&#45;&gt;Node374 -->
<g id="edge38" class="edge"><title>Node367&#45;&gt;Node374</title>
<path fill="none" stroke="midnightblue" d="M91.6834,-295.091C108.028,-331.46 147.766,-411.623 201,-463 263.475,-523.296 286.154,-538.448 370,-561 507.408,-597.958 557.887,-603.85 690,-551 732.702,-533.918 770.403,-491.8 785.945,-472.699"/>
<polygon fill="midnightblue" stroke="midnightblue" points="94.769,-293.413 87.5366,-285.671 88.3623,-296.234 94.769,-293.413"/>
</g>
<!-- Node369&#45;&gt;Node367 -->
<g id="edge3" class="edge"><title>Node369&#45;&gt;Node367</title>
<path fill="none" stroke="midnightblue" d="M197.758,-282.561C187.102,-282.741 176.005,-282.793 165.099,-282.715"/>
<polygon fill="midnightblue" stroke="midnightblue" points="197.897,-286.059 207.82,-282.348 197.749,-279.06 197.897,-286.059"/>
</g>
<!-- Node370 -->
<g id="node4" class="node"><title>Node370</title>
<g id="a_node4"><a xlink:href="namespacempfr.html#ab72db36dfba03626c173e0beb84b49e8" target="_top" xlink:title="mpfr::machine_epsilon">
<polygon fill="none" stroke="black" points="379,-456.5 379,-475.5 504,-475.5 504,-456.5 379,-456.5"/>
<text text-anchor="middle" x="441.5" y="-463.5" font-family="Helvetica,sans-Serif" font-size="10.00">mpfr::machine_epsilon</text>
</a>
</g>
</g>
<!-- Node369&#45;&gt;Node370 -->
<g id="edge4" class="edge"><title>Node369&#45;&gt;Node370</title>
<path fill="none" stroke="midnightblue" d="M274.607,-295.642C286.756,-331.396 317.414,-407.091 370,-447 375.15,-450.908 381.046,-454.013 387.186,-456.48"/>
<polygon fill="midnightblue" stroke="midnightblue" points="277.861,-294.33 271.427,-285.912 271.207,-296.504 277.861,-294.33"/>
</g>
<!-- Node375 -->
<g id="node9" class="node"><title>Node375</title>
<g id="a_node9"><a xlink:href="namespacempfr.html#ac5d52f3ecbedf807efc1815b836d587e" target="_top" xlink:title="mpfr::maxval">
<polygon fill="none" stroke="black" points="579.5,-289.5 579.5,-308.5 659.5,-308.5 659.5,-289.5 579.5,-289.5"/>
<text text-anchor="middle" x="619.5" y="-296.5" font-family="Helvetica,sans-Serif" font-size="10.00">mpfr::maxval</text>
</a>
</g>
</g>
<!-- Node369&#45;&gt;Node375 -->
<g id="edge18" class="edge"><title>Node369&#45;&gt;Node375</title>
<path fill="none" stroke="midnightblue" d="M298.618,-261.449C310.919,-254.288 324.465,-244.667 334,-233 361.263,-199.642 334.326,-167.153 370,-143 422.628,-107.369 456.866,-113.197 513,-143 573.932,-175.35 606.091,-260.35 615.515,-289.233"/>
<polygon fill="midnightblue" stroke="midnightblue" points="296.618,-258.554 289.541,-266.439 299.99,-264.689 296.618,-258.554"/>
</g>
<!-- Node382 -->
<g id="node16" class="node"><title>Node382</title>
<g id="a_node16"><a xlink:href="namespacempfr.html#a55c33a2e33adf3ed6f1cdca5536d8f8f" target="_top" xlink:title="mpfr::minval">
<polygon fill="none" stroke="black" points="403,-494.5 403,-513.5 480,-513.5 480,-494.5 403,-494.5"/>
<text text-anchor="middle" x="441.5" y="-501.5" font-family="Helvetica,sans-Serif" font-size="10.00">mpfr::minval</text>
</a>
</g>
</g>
<!-- Node369&#45;&gt;Node382 -->
<g id="edge19" class="edge"><title>Node369&#45;&gt;Node382</title>
<path fill="none" stroke="midnightblue" d="M277.386,-294.819C301.38,-345.566 365.956,-481.656 370,-485 379.28,-492.675 391.381,-497.27 402.932,-500.014"/>
<polygon fill="midnightblue" stroke="midnightblue" points="280.474,-293.163 273.037,-285.617 274.145,-296.153 280.474,-293.163"/>
</g>
<!-- Node384 -->
<g id="node18" class="node"><title>Node384</title>
<g id="a_node18"><a xlink:href="classmpfr_1_1mpreal.html#a74b08628ebe3b25cb7e08d28bc87a42d" target="_top" xlink:title="mpfr::mpreal::mpreal">
<polygon fill="none" stroke="black" points="382,-418.5 382,-437.5 501,-437.5 501,-418.5 382,-418.5"/>
<text text-anchor="middle" x="441.5" y="-425.5" font-family="Helvetica,sans-Serif" font-size="10.00">mpfr::mpreal::mpreal</text>
</a>
</g>
</g>
<!-- Node369&#45;&gt;Node384 -->
<g id="edge22" class="edge"><title>Node369&#45;&gt;Node384</title>
<path fill="none" stroke="midnightblue" d="M277.692,-294.87C292.826,-323.915 325.773,-379.318 370,-409 375.789,-412.885 382.345,-415.978 389.07,-418.44"/>
<polygon fill="midnightblue" stroke="midnightblue" points="280.731,-293.124 273.093,-285.782 274.486,-296.285 280.731,-293.124"/>
</g>
<!-- Node385 -->
<g id="node19" class="node"><title>Node385</title>
<g id="a_node19"><a xlink:href="namespacempfr.html#a1fdf070115136efdf0eea414e54b4ef5" target="_top" xlink:title="mpfr::operator*">
<polygon fill="none" stroke="black" points="395.5,-380.5 395.5,-399.5 487.5,-399.5 487.5,-380.5 395.5,-380.5"/>
<text text-anchor="middle" x="441.5" y="-387.5" font-family="Helvetica,sans-Serif" font-size="10.00">mpfr::operator*</text>
</a>
</g>
</g>
<!-- Node369&#45;&gt;Node385 -->
<g id="edge23" class="edge"><title>Node369&#45;&gt;Node385</title>
<path fill="none" stroke="midnightblue" d="M282.589,-293.682C300.613,-315.125 333.854,-350.886 370,-371 377.754,-375.315 386.538,-378.69 395.21,-381.318"/>
<polygon fill="midnightblue" stroke="midnightblue" points="285.091,-291.215 276.037,-285.713 279.684,-295.66 285.091,-291.215"/>
</g>
<!-- Node386 -->
<g id="node20" class="node"><title>Node386</title>
<g id="a_node20"><a xlink:href="classmpfr_1_1mpreal.html#a5f9aebe5664c2a335468c8ed0d08fa6f" target="_top" xlink:title="mpfr::mpreal::operator*=">
<polygon fill="none" stroke="black" points="371.5,-532.5 371.5,-551.5 511.5,-551.5 511.5,-532.5 371.5,-532.5"/>
<text text-anchor="middle" x="441.5" y="-539.5" font-family="Helvetica,sans-Serif" font-size="10.00">mpfr::mpreal::operator*=</text>
</a>
</g>
</g>
<!-- Node369&#45;&gt;Node386 -->
<g id="edge24" class="edge"><title>Node369&#45;&gt;Node386</title>
<path fill="none" stroke="midnightblue" d="M278.273,-294.668C291.789,-320.889 316.498,-370.317 334,-414 352.975,-461.359 332.933,-487.944 370,-523 374.052,-526.832 378.794,-529.909 383.869,-532.376"/>
<polygon fill="midnightblue" stroke="midnightblue" points="281.239,-292.784 273.526,-285.52 275.026,-296.009 281.239,-292.784"/>
</g>
<!-- Node387 -->
<g id="node21" class="node"><title>Node387</title>
<g id="a_node21"><a xlink:href="classmpfr_1_1mpreal.html#a3f7f5d20cfe5d4d5cbcee9ad7b450ca3" target="_top" xlink:title="mpfr::mpreal::operator+">
<polygon fill="none" stroke="black" points="374.5,-76.5 374.5,-95.5 508.5,-95.5 508.5,-76.5 374.5,-76.5"/>
<text text-anchor="middle" x="441.5" y="-83.5" font-family="Helvetica,sans-Serif" font-size="10.00">mpfr::mpreal::operator+</text>
</a>
</g>
</g>
<!-- Node369&#45;&gt;Node387 -->
<g id="edge26" class="edge"><title>Node369&#45;&gt;Node387</title>
<path fill="none" stroke="midnightblue" d="M299.703,-261.569C311.952,-254.511 325.163,-244.936 334,-233 367.893,-187.221 330.606,-151.141 370,-110 376.081,-103.65 383.905,-98.9797 392.118,-95.5453"/>
<polygon fill="midnightblue" stroke="midnightblue" points="297.752,-258.645 290.613,-266.473 301.076,-264.806 297.752,-258.645"/>
</g>
<!-- Node388 -->
<g id="node22" class="node"><title>Node388</title>
<g id="a_node22"><a xlink:href="namespacempfr.html#a7db5edb2c8a8f13df654e3f22b0c1d2a" target="_top" xlink:title="mpfr::operator+">
<polygon fill="none" stroke="black" points="394,-342.5 394,-361.5 489,-361.5 489,-342.5 394,-342.5"/>
<text text-anchor="middle" x="441.5" y="-349.5" font-family="Helvetica,sans-Serif" font-size="10.00">mpfr::operator+</text>
</a>
</g>
</g>
<!-- Node369&#45;&gt;Node388 -->
<g id="edge28" class="edge"><title>Node369&#45;&gt;Node388</title>
<path fill="none" stroke="midnightblue" d="M291.502,-291.109C311.553,-303.736 341.766,-321.478 370,-333 378.92,-336.64 388.757,-339.794 398.181,-342.428"/>
<polygon fill="midnightblue" stroke="midnightblue" points="293.36,-288.143 283.049,-285.708 289.591,-294.042 293.36,-288.143"/>
</g>
<!-- Node389 -->
<g id="node23" class="node"><title>Node389</title>
<g id="a_node23"><a xlink:href="classmpfr_1_1mpreal.html#a11fd44a6fe5b15dd2e8d96c5f65f0b59" target="_top" xlink:title="mpfr::mpreal::operator+=">
<polygon fill="none" stroke="black" points="370,-304.5 370,-323.5 513,-323.5 513,-304.5 370,-304.5"/>
<text text-anchor="middle" x="441.5" y="-311.5" font-family="Helvetica,sans-Serif" font-size="10.00">mpfr::mpreal::operator+=</text>
</a>
</g>
</g>
<!-- Node369&#45;&gt;Node389 -->
<g id="edge29" class="edge"><title>Node369&#45;&gt;Node389</title>
<path fill="none" stroke="midnightblue" d="M321.696,-287.753C346.017,-293.126 374.455,-299.409 397.409,-304.48"/>
<polygon fill="midnightblue" stroke="midnightblue" points="322.422,-284.329 311.903,-285.589 320.912,-291.164 322.422,-284.329"/>
</g>
<!-- Node390 -->
<g id="node24" class="node"><title>Node390</title>
<g id="a_node24"><a xlink:href="namespacempfr.html#ad4ee72b1913629e82105f0c2d72a7b4a" target="_top" xlink:title="mpfr::operator&#45;">
<polygon fill="none" stroke="black" points="397,-266.5 397,-285.5 486,-285.5 486,-266.5 397,-266.5"/>
<text text-anchor="middle" x="441.5" y="-273.5" font-family="Helvetica,sans-Serif" font-size="10.00">mpfr::operator&#45;</text>
</a>
</g>
</g>
<!-- Node369&#45;&gt;Node390 -->
<g id="edge30" class="edge"><title>Node369&#45;&gt;Node390</title>
<path fill="none" stroke="midnightblue" d="M337.285,-276C357.427,-276 378.882,-276 396.983,-276"/>
<polygon fill="midnightblue" stroke="midnightblue" points="337.212,-272.5 327.212,-276 337.212,-279.5 337.212,-272.5"/>
</g>
<!-- Node391 -->
<g id="node25" class="node"><title>Node391</title>
<g id="a_node25"><a xlink:href="classmpfr_1_1mpreal.html#a8aafaacaea104a79fb62d8813226500f" target="_top" xlink:title="mpfr::mpreal::operator&#45;=">
<polygon fill="none" stroke="black" points="373,-38.5 373,-57.5 510,-57.5 510,-38.5 373,-38.5"/>
<text text-anchor="middle" x="441.5" y="-45.5" font-family="Helvetica,sans-Serif" font-size="10.00">mpfr::mpreal::operator&#45;=</text>
</a>
</g>
</g>
<!-- Node369&#45;&gt;Node391 -->
<g id="edge31" class="edge"><title>Node369&#45;&gt;Node391</title>
<path fill="none" stroke="midnightblue" d="M279.545,-257.613C293.187,-234.542 316.706,-193.56 334,-157 352.422,-118.056 337.804,-95.6258 370,-67 374.358,-63.1255 379.426,-60.0299 384.808,-57.5584"/>
<polygon fill="midnightblue" stroke="midnightblue" points="276.459,-255.956 274.35,-266.339 282.473,-259.537 276.459,-255.956"/>
</g>
<!-- Node392 -->
<g id="node26" class="node"><title>Node392</title>
<g id="a_node26"><a xlink:href="namespacempfr.html#a5486ca908b39cd91a9d60586866f40d6" target="_top" xlink:title="mpfr::operator/">
<polygon fill="none" stroke="black" points="397,-228.5 397,-247.5 486,-247.5 486,-228.5 397,-228.5"/>
<text text-anchor="middle" x="441.5" y="-235.5" font-family="Helvetica,sans-Serif" font-size="10.00">mpfr::operator/</text>
</a>
</g>
</g>
<!-- Node369&#45;&gt;Node392 -->
<g id="edge33" class="edge"><title>Node369&#45;&gt;Node392</title>
<path fill="none" stroke="midnightblue" d="M321.696,-264.247C346.017,-258.874 374.455,-252.591 397.409,-247.52"/>
<polygon fill="midnightblue" stroke="midnightblue" points="320.912,-260.836 311.903,-266.411 322.422,-267.671 320.912,-260.836"/>
</g>
<!-- Node393 -->
<g id="node27" class="node"><title>Node393</title>
<g id="a_node27"><a xlink:href="classmpfr_1_1mpreal.html#a9f6b4a0f16104e98d0f96b5666b08329" target="_top" xlink:title="mpfr::mpreal::operator/=">
<polygon fill="none" stroke="black" points="373,-0.5 373,-19.5 510,-19.5 510,-0.5 373,-0.5"/>
<text text-anchor="middle" x="441.5" y="-7.5" font-family="Helvetica,sans-Serif" font-size="10.00">mpfr::mpreal::operator/=</text>
</a>
</g>
</g>
<!-- Node369&#45;&gt;Node393 -->
<g id="edge34" class="edge"><title>Node369&#45;&gt;Node393</title>
<path fill="none" stroke="midnightblue" d="M270.689,-256.47C276.982,-209.812 299.45,-91.1365 370,-29 374.376,-25.146 379.455,-22.0635 384.845,-19.5998"/>
<polygon fill="midnightblue" stroke="midnightblue" points="267.206,-256.115 269.444,-266.47 274.153,-256.979 267.206,-256.115"/>
</g>
<!-- Node394 -->
<g id="node28" class="node"><title>Node394</title>
<g id="a_node28"><a xlink:href="namespacempfr.html#a47c705d079873d21b2ae64570c2dbe7c" target="_top" xlink:title="mpfr::pow">
<polygon fill="none" stroke="black" points="409.5,-190.5 409.5,-209.5 473.5,-209.5 473.5,-190.5 409.5,-190.5"/>
<text text-anchor="middle" x="441.5" y="-197.5" font-family="Helvetica,sans-Serif" font-size="10.00">mpfr::pow</text>
</a>
</g>
</g>
<!-- Node369&#45;&gt;Node394 -->
<g id="edge36" class="edge"><title>Node369&#45;&gt;Node394</title>
<path fill="none" stroke="midnightblue" d="M291.502,-260.891C311.553,-248.264 341.766,-230.522 370,-219 382.558,-213.875 396.935,-209.715 409.416,-206.609"/>
<polygon fill="midnightblue" stroke="midnightblue" points="289.591,-257.958 283.049,-266.292 293.36,-263.857 289.591,-257.958"/>
</g>
<!-- Node395 -->
<g id="node29" class="node"><title>Node395</title>
<g id="a_node29"><a xlink:href="namespacempfr.html#ac48d4b27943090ddad2744b82a4839b2" target="_top" xlink:title="mpfr::sqrt">
<polygon fill="none" stroke="black" points="409.5,-152.5 409.5,-171.5 473.5,-171.5 473.5,-152.5 409.5,-152.5"/>
<text text-anchor="middle" x="441.5" y="-159.5" font-family="Helvetica,sans-Serif" font-size="10.00">mpfr::sqrt</text>
</a>
</g>
</g>
<!-- Node369&#45;&gt;Node395 -->
<g id="edge37" class="edge"><title>Node369&#45;&gt;Node395</title>
<path fill="none" stroke="midnightblue" d="M295.749,-261.348C308.23,-253.86 322.718,-244.008 334,-233 354.119,-213.37 347.029,-197.201 370,-181 381.499,-172.89 396.28,-168.241 409.336,-165.576"/>
<polygon fill="midnightblue" stroke="midnightblue" points="293.988,-258.323 287.091,-266.365 297.498,-264.38 293.988,-258.323"/>
</g>
<!-- Node371 -->
<g id="node5" class="node"><title>Node371</title>
<g id="a_node5"><a xlink:href="classstd_1_1numeric__limits_3_01mpfr_1_1mpreal_01_4.html#ac2f7a8222ef4b03518ad0a3e247b0ff6" target="_top" xlink:title="std::numeric_limits\l\&lt; mpfr::mpreal \&gt;::epsilon">
<polygon fill="none" stroke="black" points="549,-366 549,-396 690,-396 690,-366 549,-366"/>
<text text-anchor="start" x="557" y="-384" font-family="Helvetica,sans-Serif" font-size="10.00">std::numeric_limits</text>
<text text-anchor="middle" x="619.5" y="-373" font-family="Helvetica,sans-Serif" font-size="10.00">&lt; mpfr::mpreal &gt;::epsilon</text>
</a>
</g>
</g>
<!-- Node370&#45;&gt;Node371 -->
<g id="edge5" class="edge"><title>Node370&#45;&gt;Node371</title>
<path fill="none" stroke="midnightblue" d="M500.724,-452.974C504.989,-451.22 509.13,-449.238 513,-447 532.588,-435.672 530.279,-423.71 549,-411 557.372,-405.316 566.996,-400.337 576.36,-396.153"/>
<polygon fill="midnightblue" stroke="midnightblue" points="499.424,-449.723 491.248,-456.46 501.841,-456.292 499.424,-449.723"/>
</g>
<!-- Node372 -->
<g id="node6" class="node"><title>Node372</title>
<g id="a_node6"><a xlink:href="namespacempfr.html#a2b277f6e7a98e7b5da7fad3a38a211ec" target="_top" xlink:title="mpfr::isEqualFuzzy">
<polygon fill="none" stroke="black" points="567,-327.5 567,-346.5 672,-346.5 672,-327.5 567,-327.5"/>
<text text-anchor="middle" x="619.5" y="-334.5" font-family="Helvetica,sans-Serif" font-size="10.00">mpfr::isEqualFuzzy</text>
</a>
</g>
</g>
<!-- Node370&#45;&gt;Node372 -->
<g id="edge6" class="edge"><title>Node370&#45;&gt;Node372</title>
<path fill="none" stroke="midnightblue" d="M507.372,-451.355C509.348,-450.026 511.233,-448.577 513,-447 545.449,-418.038 516.603,-385.02 549,-356 554.124,-351.41 560.255,-347.915 566.723,-345.256"/>
<polygon fill="midnightblue" stroke="midnightblue" points="505.241,-448.536 498.207,-456.458 508.647,-454.651 505.241,-448.536"/>
</g>
<!-- Node373 -->
<g id="node7" class="node"><title>Node373</title>
<g id="a_node7"><a xlink:href="namespacempfr.html#a63ac5362ad5af999b1bc94649e772dde" target="_top" xlink:title="mpfr::isEqualUlps">
<polygon fill="none" stroke="black" points="569.5,-453.5 569.5,-472.5 669.5,-472.5 669.5,-453.5 569.5,-453.5"/>
<text text-anchor="middle" x="619.5" y="-460.5" font-family="Helvetica,sans-Serif" font-size="10.00">mpfr::isEqualUlps</text>
</a>
</g>
</g>
<!-- Node370&#45;&gt;Node373 -->
<g id="edge7" class="edge"><title>Node370&#45;&gt;Node373</title>
<path fill="none" stroke="midnightblue" d="M514.24,-464.777C532.794,-464.461 552.348,-464.128 569.445,-463.836"/>
<polygon fill="midnightblue" stroke="midnightblue" points="513.995,-461.281 504.056,-464.951 514.114,-468.28 513.995,-461.281"/>
</g>
<!-- Node370&#45;&gt;Node374 -->
<g id="edge17" class="edge"><title>Node370&#45;&gt;Node374</title>
<path fill="none" stroke="midnightblue" d="M489.117,-454.226C507.627,-450.115 529.191,-446.025 549,-444 611.342,-437.628 627.591,-438.319 690,-444 710.377,-445.855 732.735,-449.723 751.44,-453.489"/>
<polygon fill="midnightblue" stroke="midnightblue" points="488.147,-450.857 479.178,-456.498 489.707,-457.681 488.147,-450.857"/>
</g>
<!-- Node370&#45;&gt;Node375 -->
<g id="edge9" class="edge"><title>Node370&#45;&gt;Node375</title>
<path fill="none" stroke="midnightblue" d="M508.372,-451.007C510,-449.772 511.548,-448.439 513,-447 555.277,-405.098 506.799,-359.978 549,-318 557.07,-309.972 568.185,-305.251 579.16,-302.5"/>
<polygon fill="midnightblue" stroke="midnightblue" points="506.323,-448.159 499.661,-456.397 510.006,-454.111 506.323,-448.159"/>
</g>
<!-- Node373&#45;&gt;Node374 -->
<g id="edge8" class="edge"><title>Node373&#45;&gt;Node374</title>
<path fill="none" stroke="midnightblue" d="M679.624,-463C702.659,-463 728.582,-463 749.869,-463"/>
<polygon fill="midnightblue" stroke="midnightblue" points="679.612,-459.5 669.612,-463 679.612,-466.5 679.612,-459.5"/>
</g>
<!-- Node375&#45;&gt;Node374 -->
<g id="edge16" class="edge"><title>Node375&#45;&gt;Node374</title>
<path fill="none" stroke="midnightblue" d="M669.488,-305.588C677.074,-308.419 684.278,-312.404 690,-318 730.114,-357.229 687.38,-398.3 726,-439 732.506,-445.857 741.099,-450.758 749.965,-454.26"/>
<polygon fill="midnightblue" stroke="midnightblue" points="670.343,-302.189 659.755,-302.586 668.279,-308.878 670.343,-302.189"/>
</g>
<!-- Node376 -->
<g id="node10" class="node"><title>Node376</title>
<g id="a_node10"><a xlink:href="classEigen_1_1EigenSolver.html#a99e6120839b1f65c4e1f1ba61efa264e" target="_top" xlink:title="Eigen::EigenSolver\l\&lt; CompanionMatrixType\l \&gt;::compute">
<polygon fill="none" stroke="black" points="728,-338.5 728,-379.5 861,-379.5 861,-338.5 728,-338.5"/>
<text text-anchor="start" x="736" y="-367.5" font-family="Helvetica,sans-Serif" font-size="10.00">Eigen::EigenSolver</text>
<text text-anchor="start" x="736" y="-356.5" font-family="Helvetica,sans-Serif" font-size="10.00">&lt; CompanionMatrixType</text>
<text text-anchor="middle" x="794.5" y="-345.5" font-family="Helvetica,sans-Serif" font-size="10.00"> &gt;::compute</text>
</a>
</g>
</g>
<!-- Node375&#45;&gt;Node376 -->
<g id="edge10" class="edge"><title>Node375&#45;&gt;Node376</title>
<path fill="none" stroke="midnightblue" d="M667.892,-311.203C675.332,-313.335 682.905,-315.633 690,-318 708.15,-324.056 727.741,-331.559 744.944,-338.485"/>
<polygon fill="midnightblue" stroke="midnightblue" points="668.813,-307.826 658.24,-308.504 666.928,-314.568 668.813,-307.826"/>
</g>
<!-- Node377 -->
<g id="node11" class="node"><title>Node377</title>
<g id="a_node11"><a xlink:href="classSystemBase.html#a4ffed53296033614e4701f01363e6b3f" target="_top" xlink:title="SystemBase\&lt; StateTwo\l \&gt;::getConnections">
<polygon fill="none" stroke="black" points="729,-289 729,-319 860,-319 860,-289 729,-289"/>
<text text-anchor="start" x="737" y="-307" font-family="Helvetica,sans-Serif" font-size="10.00">SystemBase&lt; StateTwo</text>
<text text-anchor="middle" x="794.5" y="-296" font-family="Helvetica,sans-Serif" font-size="10.00"> &gt;::getConnections</text>
</a>
</g>
</g>
<!-- Node375&#45;&gt;Node377 -->
<g id="edge11" class="edge"><title>Node375&#45;&gt;Node377</title>
<path fill="none" stroke="midnightblue" d="M669.936,-300.429C688.307,-300.96 709.429,-301.57 728.952,-302.134"/>
<polygon fill="midnightblue" stroke="midnightblue" points="669.853,-296.925 659.756,-300.135 669.651,-303.922 669.853,-296.925"/>
</g>
<!-- Node378 -->
<g id="node12" class="node"><title>Node378</title>
<g id="a_node12"><a xlink:href="classSystemBase.html#a36f4a02104e9f68e60732267bc6eafbc" target="_top" xlink:title="SystemBase\&lt; StateTwo\l \&gt;::getMainStates">
<polygon fill="none" stroke="black" points="729,-240 729,-270 860,-270 860,-240 729,-240"/>
<text text-anchor="start" x="737" y="-258" font-family="Helvetica,sans-Serif" font-size="10.00">SystemBase&lt; StateTwo</text>
<text text-anchor="middle" x="794.5" y="-247" font-family="Helvetica,sans-Serif" font-size="10.00"> &gt;::getMainStates</text>
</a>
</g>
</g>
<!-- Node375&#45;&gt;Node378 -->
<g id="edge12" class="edge"><title>Node375&#45;&gt;Node378</title>
<path fill="none" stroke="midnightblue" d="M667.785,-286.974C688.305,-281.755 712.561,-275.586 734.266,-270.065"/>
<polygon fill="midnightblue" stroke="midnightblue" points="666.867,-283.596 658.038,-289.453 668.593,-290.38 666.867,-283.596"/>
</g>
<!-- Node379 -->
<g id="node13" class="node"><title>Node379</title>
<g id="a_node13"><a xlink:href="classSystemBase.html#af68a98c6f66a1ef06fa78fbe9c209ba7" target="_top" xlink:title="SystemBase\&lt; StateTwo\l \&gt;::getVectorindex">
<polygon fill="none" stroke="black" points="729,-191 729,-221 860,-221 860,-191 729,-191"/>
<text text-anchor="start" x="737" y="-209" font-family="Helvetica,sans-Serif" font-size="10.00">SystemBase&lt; StateTwo</text>
<text text-anchor="middle" x="794.5" y="-198" font-family="Helvetica,sans-Serif" font-size="10.00"> &gt;::getVectorindex</text>
</a>
</g>
</g>
<!-- Node375&#45;&gt;Node379 -->
<g id="edge13" class="edge"><title>Node375&#45;&gt;Node379</title>
<path fill="none" stroke="midnightblue" d="M641.214,-283.316C661.87,-268.201 694.916,-245.416 726,-230 732.463,-226.795 739.462,-223.81 746.422,-221.11"/>
<polygon fill="midnightblue" stroke="midnightblue" points="638.855,-280.707 632.905,-289.473 643.023,-286.332 638.855,-280.707"/>
</g>
<!-- Node380 -->
<g id="node14" class="node"><title>Node380</title>
<g id="a_node14"><a xlink:href="classstd_1_1numeric__limits_3_01mpfr_1_1mpreal_01_4.html#afe87477420320b20ef726e383e06a950" target="_top" xlink:title="std::numeric_limits\l\&lt; mpfr::mpreal \&gt;::lowest">
<polygon fill="none" stroke="black" points="726,-142 726,-172 863,-172 863,-142 726,-142"/>
<text text-anchor="start" x="734" y="-160" font-family="Helvetica,sans-Serif" font-size="10.00">std::numeric_limits</text>
<text text-anchor="middle" x="794.5" y="-149" font-family="Helvetica,sans-Serif" font-size="10.00">&lt; mpfr::mpreal &gt;::lowest</text>
</a>
</g>
</g>
<!-- Node375&#45;&gt;Node380 -->
<g id="edge14" class="edge"><title>Node375&#45;&gt;Node380</title>
<path fill="none" stroke="midnightblue" d="M632.305,-280.846C649.85,-255.198 685.162,-208.428 726,-181 731.059,-177.602 736.655,-174.626 742.396,-172.034"/>
<polygon fill="midnightblue" stroke="midnightblue" points="629.323,-279.008 626.667,-289.265 635.139,-282.903 629.323,-279.008"/>
</g>
<!-- Node381 -->
<g id="node15" class="node"><title>Node381</title>
<g id="a_node15"><a xlink:href="classstd_1_1numeric__limits_3_01mpfr_1_1mpreal_01_4.html#af3b5798dea70eba7566b8558177c5cb7" target="_top" xlink:title="std::numeric_limits\l\&lt; mpfr::mpreal \&gt;::max">
<polygon fill="none" stroke="black" points="730.5,-399 730.5,-429 858.5,-429 858.5,-399 730.5,-399"/>
<text text-anchor="start" x="738.5" y="-417" font-family="Helvetica,sans-Serif" font-size="10.00">std::numeric_limits</text>
<text text-anchor="middle" x="794.5" y="-406" font-family="Helvetica,sans-Serif" font-size="10.00">&lt; mpfr::mpreal &gt;::max</text>
</a>
</g>
</g>
<!-- Node375&#45;&gt;Node381 -->
<g id="edge15" class="edge"><title>Node375&#45;&gt;Node381</title>
<path fill="none" stroke="midnightblue" d="M669.183,-306.676C676.681,-309.388 683.934,-313.052 690,-318 717.417,-340.362 699.591,-365.456 726,-389 730.291,-392.825 735.219,-396.083 740.417,-398.854"/>
<polygon fill="midnightblue" stroke="midnightblue" points="670.214,-303.331 659.627,-303.724 668.148,-310.02 670.214,-303.331"/>
</g>
<!-- Node382&#45;&gt;Node374 -->
<g id="edge21" class="edge"><title>Node382&#45;&gt;Node374</title>
<path fill="none" stroke="midnightblue" d="M487.944,-516.229C515.412,-523.573 545.749,-531.58 549,-532 611.15,-540.033 630.022,-550.16 690,-532 728.858,-520.235 766.462,-488.538 783.697,-472.529"/>
<polygon fill="midnightblue" stroke="midnightblue" points="488.575,-512.774 478.01,-513.568 486.764,-519.536 488.575,-512.774"/>
</g>
<!-- Node383 -->
<g id="node17" class="node"><title>Node383</title>
<g id="a_node17"><a xlink:href="classstd_1_1numeric__limits_3_01mpfr_1_1mpreal_01_4.html#ae26e5f5575ce3fcdc7571353d5943447" target="_top" xlink:title="std::numeric_limits\l\&lt; mpfr::mpreal \&gt;::min">
<polygon fill="none" stroke="black" points="557,-492 557,-522 682,-522 682,-492 557,-492"/>
<text text-anchor="start" x="565" y="-510" font-family="Helvetica,sans-Serif" font-size="10.00">std::numeric_limits</text>
<text text-anchor="middle" x="619.5" y="-499" font-family="Helvetica,sans-Serif" font-size="10.00">&lt; mpfr::mpreal &gt;::min</text>
</a>
</g>
</g>
<!-- Node382&#45;&gt;Node383 -->
<g id="edge20" class="edge"><title>Node382&#45;&gt;Node383</title>
<path fill="none" stroke="midnightblue" d="M490.312,-504.815C510.838,-505.165 535.078,-505.578 556.923,-505.95"/>
<polygon fill="midnightblue" stroke="midnightblue" points="490.315,-501.315 480.256,-504.644 490.195,-508.314 490.315,-501.315"/>
</g>
<!-- Node386&#45;&gt;Node367 -->
<g id="edge25" class="edge"><title>Node386&#45;&gt;Node367</title>
<path fill="none" stroke="midnightblue" d="M383.676,-529.122C378.944,-527.323 374.323,-525.291 370,-523 242.633,-455.493 123.054,-322.162 91.544,-285.515"/>
<polygon fill="midnightblue" stroke="midnightblue" points="382.89,-532.553 393.485,-532.496 385.167,-525.934 382.89,-532.553"/>
</g>
<!-- Node387&#45;&gt;Node367 -->
<g id="edge27" class="edge"><title>Node387&#45;&gt;Node367</title>
<path fill="none" stroke="midnightblue" d="M398.916,-99.3062C388.955,-103.496 378.695,-108.711 370,-115 350.08,-129.409 353.53,-142.066 334,-157 262.861,-211.398 162.859,-249.568 113.489,-266.375"/>
<polygon fill="midnightblue" stroke="midnightblue" points="400.294,-102.525 408.314,-95.6017 397.727,-96.0129 400.294,-102.525"/>
</g>
<!-- Node391&#45;&gt;Node367 -->
<g id="edge32" class="edge"><title>Node391&#45;&gt;Node367</title>
<path fill="none" stroke="midnightblue" d="M389.377,-60.3052C382.782,-62.3208 376.178,-64.5588 370,-67 290.856,-98.2717 269.229,-106.143 201,-157 154.443,-191.703 108.915,-244.814 91.2244,-266.39"/>
<polygon fill="midnightblue" stroke="midnightblue" points="390.358,-63.6651 398.983,-57.5134 388.404,-56.9432 390.358,-63.6651"/>
</g>
<!-- Node393&#45;&gt;Node367 -->
<g id="edge35" class="edge"><title>Node393&#45;&gt;Node367</title>
<path fill="none" stroke="midnightblue" d="M363.056,-17.0272C312.56,-24.975 247.624,-41.9111 201,-78 133.04,-130.604 96.3544,-234.506 86.3467,-266.439"/>
<polygon fill="midnightblue" stroke="midnightblue" points="363.577,-20.4883 372.952,-15.5545 362.546,-13.5645 363.577,-20.4883"/>
</g>
</g>
</svg>
        <g id="navigator" transform="translate(0 0)" fill="#404254">
                <rect fill="#f2f5e9" fill-opacity="0.5" stroke="#606060" stroke-width=".5" x="0" y="0" width="60" height="60"/>
                <use id="zoomplus" xlink:href="#zoomPlus" x="17" y="9" onmousedown="handleZoom(evt,'in')"/>
                <use id="zoomminus" xlink:href="#zoomMin" x="42" y="9" onmousedown="handleZoom(evt,'out')"/>
                <use id="reset" xlink:href="#resetDef" x="30" y="36" onmousedown="handleReset()"/>
                <g id="arrowUp" xlink:href="#dirArrow" transform="translate(30 24)" onmousedown="handlePan(0,-1)">
                  <use xlink:href="#rim" fill="#404040">
                        <set attributeName="fill" to="#808080" begin="arrowUp.mouseover" end="arrowUp.mouseout"/>
                  </use>
                  <path fill="none" stroke="white" stroke-width="1.5" d="M0,-3.0v7 M-2.5,-0.5L0,-3.0L2.5,-0.5"/>
                </g>
                <g id="arrowRight" xlink:href="#dirArrow" transform="rotate(90) translate(36 -43)" onmousedown="handlePan(1,0)">
                  <use xlink:href="#rim" fill="#404040">
                        <set attributeName="fill" to="#808080" begin="arrowRight.mouseover" end="arrowRight.mouseout"/>
                  </use>
                  <path fill="none" stroke="white" stroke-width="1.5" d="M0,-3.0v7 M-2.5,-0.5L0,-3.0L2.5,-0.5"/>
                </g>
                <g id="arrowDown" xlink:href="#dirArrow" transform="rotate(180) translate(-30 -48)" onmousedown="handlePan(0,1)">
                  <use xlink:href="#rim" fill="#404040">
                        <set attributeName="fill" to="#808080" begin="arrowDown.mouseover" end="arrowDown.mouseout"/>
                  </use>
                  <path fill="none" stroke="white" stroke-width="1.5" d="M0,-3.0v7 M-2.5,-0.5L0,-3.0L2.5,-0.5"/>
                </g>
                <g id="arrowLeft" xlink:href="#dirArrow" transform="rotate(270) translate(-36 17)" onmousedown="handlePan(-1,0)">
                  <use xlink:href="#rim" fill="#404040">
                        <set attributeName="fill" to="#808080" begin="arrowLeft.mouseover" end="arrowLeft.mouseout"/>
                  </use>
                  <path fill="none" stroke="white" stroke-width="1.5" d="M0,-3.0v7 M-2.5,-0.5L0,-3.0L2.5,-0.5"/>
                </g>
        </g>
        <svg viewBox="0 0 15 15" width="100%" height="30px" preserveAspectRatio="xMaxYMin meet">
         <g id="arrow_out" transform="scale(0.3 0.3)">
          <a xlink:href="classmpfr_1_1mpreal_aae18e3b781bffbf4fd9938d4d3043aa1_icgraph_org.svg" target="_base">
           <rect id="button" ry="5" rx="5" y="6" x="6" height="38" width="38"
                fill="#f2f5e9" fill-opacity="0.5" stroke="#606060" stroke-width="1.0"/>
           <path id="arrow"
             d="M 11.500037,31.436501 C 11.940474,20.09759 22.043105,11.32322 32.158766,21.979434 L 37.068811,17.246167 C 37.068811,17.246167 37.088388,32 37.088388,32 L 22.160133,31.978069 C 22.160133,31.978069 26.997745,27.140456 26.997745,27.140456 C 18.528582,18.264221 13.291696,25.230495 11.500037,31.436501 z"
             style="fill:#404040;"/>
          </a>
         </g>
        </svg>
</svg>
