<?xml version="1.0" encoding="UTF-8" standalone="no"?>
<!DOCTYPE svg PUBLIC "-//W3C//DTD SVG 1.1//EN"
 "http://www.w3.org/Graphics/SVG/1.1/DTD/svg11.dtd">
<!-- Generated by graphviz version 2.38.0 (20140413.2041)
 -->
<!-- Title: Eigen::SkylineStorage::squeeze Pages: 1 -->
<!--zoomable 480 -->
<svg id="main" version="1.1" xmlns="http://www.w3.org/2000/svg" xmlns:xlink="http://www.w3.org/1999/xlink" xml:space="preserve" onload="init(evt)">
<style type="text/css"><![CDATA[
.edge:hover path { stroke: red; }
.edge:hover polygon { stroke: red; fill: red; }
]]></style>
<script type="text/javascript"><![CDATA[
var edges = document.getElementsByTagName('g');
if (edges && edges.length) {
  for (var i=0;i<edges.length;i++) {
    if (edges[i].id.substr(0,4)=='edge') {
      edges[i].setAttribute('class','edge');
    }
  }
}
]]></script>
        <defs>
                <circle id="rim" cx="0" cy="0" r="7"/>
                <circle id="rim2" cx="0" cy="0" r="3.5"/>
                <g id="zoomPlus">
                        <use xlink:href="#rim" fill="#404040">
                                <set attributeName="fill" to="#808080" begin="zoomplus.mouseover" end="zoomplus.mouseout"/>
                        </use>
                        <path d="M-4,0h8M0,-4v8" fill="none" stroke="white" stroke-width="1.5" pointer-events="none"/>
                </g>
                <g id="zoomMin">
                        <use xlink:href="#rim" fill="#404040">
                                <set attributeName="fill" to="#808080" begin="zoomminus.mouseover" end="zoomminus.mouseout"/>
                        </use>
                        <path d="M-4,0h8" fill="none" stroke="white" stroke-width="1.5" pointer-events="none"/>
                </g>
                <g id="dirArrow">
                        <path fill="none" stroke="white" stroke-width="1.5" d="M0,-3.0v7 M-2.5,-0.5L0,-3.0L2.5,-0.5"/>
                </g>
               <g id="resetDef">
                       <use xlink:href="#rim2" fill="#404040">
                               <set attributeName="fill" to="#808080" begin="reset.mouseover" end="reset.mouseout"/>
                       </use>
               </g>
        </defs>

<script type="text/javascript">
var viewWidth = 443;
var viewHeight = 480;
var sectionId = 'dynsection-17';
</script>
<script xlink:href="svgpan.js"/>
<svg id="graph" class="graph">
<g id="viewport">
<title>Eigen::SkylineStorage::squeeze</title>
<!-- Node196 -->
<g id="node1" class="node"><title>Node196</title>
<polygon fill="#bfbfbf" stroke="black" points="0,-220.5 0,-250.5 121,-250.5 121,-220.5 0,-220.5"/>
<text text-anchor="start" x="8" y="-238.5" font-family="Helvetica,sans-Serif" font-size="10.00">Eigen::SkylineStorage</text>
<text text-anchor="middle" x="60.5" y="-227.5" font-family="Helvetica,sans-Serif" font-size="10.00">::squeeze</text>
</g>
<!-- Node197 -->
<g id="node2" class="node"><title>Node197</title>
<g id="a_node2"><a xlink:href="classEigen_1_1SkylineStorage.html#adbd0f2125fc8ac1a85fc2740835b9bbe" target="_top" xlink:title="Eigen::SkylineStorage\l::reallocate">
<polygon fill="none" stroke="black" points="157,-220.5 157,-250.5 278,-250.5 278,-220.5 157,-220.5"/>
<text text-anchor="start" x="165" y="-238.5" font-family="Helvetica,sans-Serif" font-size="10.00">Eigen::SkylineStorage</text>
<text text-anchor="middle" x="217.5" y="-227.5" font-family="Helvetica,sans-Serif" font-size="10.00">::reallocate</text>
</a>
</g>
</g>
<!-- Node196&#45;&gt;Node197 -->
<g id="edge1" class="edge"><title>Node196&#45;&gt;Node197</title>
<path fill="none" stroke="midnightblue" d="M121.427,-235.5C129.724,-235.5 138.305,-235.5 146.762,-235.5"/>
<polygon fill="midnightblue" stroke="midnightblue" points="146.988,-239 156.988,-235.5 146.988,-232 146.988,-239"/>
</g>
<!-- Node198 -->
<g id="node3" class="node"><title>Node198</title>
<g id="a_node3"><a xlink:href="classEigen_1_1SkylineStorage.html#afe1d84e8c95831ff4f2ecdc8a300e9d3" target="_top" xlink:title="Eigen::SkylineStorage\l::diag">
<polygon fill="none" stroke="black" points="314,-441.5 314,-471.5 435,-471.5 435,-441.5 314,-441.5"/>
<text text-anchor="start" x="322" y="-459.5" font-family="Helvetica,sans-Serif" font-size="10.00">Eigen::SkylineStorage</text>
<text text-anchor="middle" x="374.5" y="-448.5" font-family="Helvetica,sans-Serif" font-size="10.00">::diag</text>
</a>
</g>
</g>
<!-- Node197&#45;&gt;Node198 -->
<g id="edge2" class="edge"><title>Node197&#45;&gt;Node198</title>
<path fill="none" stroke="midnightblue" d="M221.835,-250.562C230.604,-286.817 257.619,-379.828 314,-432.5 315.259,-433.676 316.583,-434.798 317.96,-435.867"/>
<polygon fill="midnightblue" stroke="midnightblue" points="316.069,-438.813 326.334,-441.438 319.946,-432.985 316.069,-438.813"/>
</g>
<!-- Node199 -->
<g id="node4" class="node"><title>Node199</title>
<g id="a_node4"><a xlink:href="classEigen_1_1SkylineStorage.html#ada9ba5ea1f995baa78919b5539e9a053" target="_top" xlink:title="Eigen::SkylineStorage\l::diagSize">
<polygon fill="none" stroke="black" points="314,-392.5 314,-422.5 435,-422.5 435,-392.5 314,-392.5"/>
<text text-anchor="start" x="322" y="-410.5" font-family="Helvetica,sans-Serif" font-size="10.00">Eigen::SkylineStorage</text>
<text text-anchor="middle" x="374.5" y="-399.5" font-family="Helvetica,sans-Serif" font-size="10.00">::diagSize</text>
</a>
</g>
</g>
<!-- Node197&#45;&gt;Node199 -->
<g id="edge3" class="edge"><title>Node197&#45;&gt;Node199</title>
<path fill="none" stroke="midnightblue" d="M224.544,-250.689C237.005,-280.203 268.268,-345.712 314,-383.5 315.546,-384.777 317.168,-385.993 318.849,-387.151"/>
<polygon fill="midnightblue" stroke="midnightblue" points="317.282,-390.293 327.653,-392.46 320.897,-384.299 317.282,-390.293"/>
</g>
<!-- Node200 -->
<g id="node5" class="node"><title>Node200</title>
<g id="a_node5"><a xlink:href="classEigen_1_1SkylineStorage.html#a844f3b6e4223791e73f946aedd8ff04d" target="_top" xlink:title="Eigen::SkylineStorage\l::lower">
<polygon fill="none" stroke="black" points="314,-343.5 314,-373.5 435,-373.5 435,-343.5 314,-343.5"/>
<text text-anchor="start" x="322" y="-361.5" font-family="Helvetica,sans-Serif" font-size="10.00">Eigen::SkylineStorage</text>
<text text-anchor="middle" x="374.5" y="-350.5" font-family="Helvetica,sans-Serif" font-size="10.00">::lower</text>
</a>
</g>
</g>
<!-- Node197&#45;&gt;Node200 -->
<g id="edge4" class="edge"><title>Node197&#45;&gt;Node200</title>
<path fill="none" stroke="midnightblue" d="M229.88,-250.851C246.354,-272.153 278.759,-310.73 314,-334.5 316.141,-335.944 318.383,-337.324 320.689,-338.638"/>
<polygon fill="midnightblue" stroke="midnightblue" points="319.34,-341.882 329.827,-343.387 322.568,-335.67 319.34,-341.882"/>
</g>
<!-- Node201 -->
<g id="node6" class="node"><title>Node201</title>
<g id="a_node6"><a xlink:href="classEigen_1_1SkylineStorage.html#a1e9e0fc36cf307cebf3ef4d50bd2d0a5" target="_top" xlink:title="Eigen::SkylineStorage\l::lowerProfile">
<polygon fill="none" stroke="black" points="314,-294.5 314,-324.5 435,-324.5 435,-294.5 314,-294.5"/>
<text text-anchor="start" x="322" y="-312.5" font-family="Helvetica,sans-Serif" font-size="10.00">Eigen::SkylineStorage</text>
<text text-anchor="middle" x="374.5" y="-301.5" font-family="Helvetica,sans-Serif" font-size="10.00">::lowerProfile</text>
</a>
</g>
</g>
<!-- Node197&#45;&gt;Node201 -->
<g id="edge5" class="edge"><title>Node197&#45;&gt;Node201</title>
<path fill="none" stroke="midnightblue" d="M245.722,-250.671C264.636,-260.984 290.556,-274.667 314,-285.5 317.594,-287.161 321.338,-288.823 325.119,-290.455"/>
<polygon fill="midnightblue" stroke="midnightblue" points="323.961,-293.765 334.535,-294.428 326.682,-287.315 323.961,-293.765"/>
</g>
<!-- Node202 -->
<g id="node7" class="node"><title>Node202</title>
<g id="a_node7"><a xlink:href="classEigen_1_1SkylineStorage.html#ad74e038e80620800e021ca8661a4e17a" target="_top" xlink:title="Eigen::SkylineStorage\l::lowerProfileSize">
<polygon fill="none" stroke="black" points="314,-245.5 314,-275.5 435,-275.5 435,-245.5 314,-245.5"/>
<text text-anchor="start" x="322" y="-263.5" font-family="Helvetica,sans-Serif" font-size="10.00">Eigen::SkylineStorage</text>
<text text-anchor="middle" x="374.5" y="-252.5" font-family="Helvetica,sans-Serif" font-size="10.00">::lowerProfileSize</text>
</a>
</g>
</g>
<!-- Node197&#45;&gt;Node202 -->
<g id="edge6" class="edge"><title>Node197&#45;&gt;Node202</title>
<path fill="none" stroke="midnightblue" d="M278.427,-245.166C286.816,-246.519 295.494,-247.918 304.041,-249.297"/>
<polygon fill="midnightblue" stroke="midnightblue" points="303.558,-252.764 313.988,-250.901 304.673,-245.853 303.558,-252.764"/>
</g>
<!-- Node203 -->
<g id="node8" class="node"><title>Node203</title>
<g id="a_node8"><a xlink:href="classEigen_1_1SkylineStorage.html#aaecc67214f7bf0d4aa91b37d58465390" target="_top" xlink:title="Eigen::SkylineStorage\l::lowerSize">
<polygon fill="none" stroke="black" points="314,-196.5 314,-226.5 435,-226.5 435,-196.5 314,-196.5"/>
<text text-anchor="start" x="322" y="-214.5" font-family="Helvetica,sans-Serif" font-size="10.00">Eigen::SkylineStorage</text>
<text text-anchor="middle" x="374.5" y="-203.5" font-family="Helvetica,sans-Serif" font-size="10.00">::lowerSize</text>
</a>
</g>
</g>
<!-- Node197&#45;&gt;Node203 -->
<g id="edge7" class="edge"><title>Node197&#45;&gt;Node203</title>
<path fill="none" stroke="midnightblue" d="M278.427,-226.221C286.816,-224.922 295.494,-223.578 304.041,-222.255"/>
<polygon fill="midnightblue" stroke="midnightblue" points="304.641,-225.704 313.988,-220.715 303.57,-218.786 304.641,-225.704"/>
</g>
<!-- Node204 -->
<g id="node9" class="node"><title>Node204</title>
<g id="a_node9"><a xlink:href="classEigen_1_1SkylineStorage.html#aeaadf72ec6e2a7e4ce7773d7c0495666" target="_top" xlink:title="Eigen::SkylineStorage\l::upper">
<polygon fill="none" stroke="black" points="314,-147.5 314,-177.5 435,-177.5 435,-147.5 314,-147.5"/>
<text text-anchor="start" x="322" y="-165.5" font-family="Helvetica,sans-Serif" font-size="10.00">Eigen::SkylineStorage</text>
<text text-anchor="middle" x="374.5" y="-154.5" font-family="Helvetica,sans-Serif" font-size="10.00">::upper</text>
</a>
</g>
</g>
<!-- Node197&#45;&gt;Node204 -->
<g id="edge8" class="edge"><title>Node197&#45;&gt;Node204</title>
<path fill="none" stroke="midnightblue" d="M247.088,-220.493C265.934,-210.758 291.248,-197.983 314,-187.5 318.29,-185.523 322.781,-183.52 327.289,-181.552"/>
<polygon fill="midnightblue" stroke="midnightblue" points="328.71,-184.751 336.511,-177.582 325.942,-178.321 328.71,-184.751"/>
</g>
<!-- Node205 -->
<g id="node10" class="node"><title>Node205</title>
<g id="a_node10"><a xlink:href="classEigen_1_1SkylineStorage.html#a113fbc2bef6d7a61235d2fd36894bd5b" target="_top" xlink:title="Eigen::SkylineStorage\l::upperProfile">
<polygon fill="none" stroke="black" points="314,-98.5 314,-128.5 435,-128.5 435,-98.5 314,-98.5"/>
<text text-anchor="start" x="322" y="-116.5" font-family="Helvetica,sans-Serif" font-size="10.00">Eigen::SkylineStorage</text>
<text text-anchor="middle" x="374.5" y="-105.5" font-family="Helvetica,sans-Serif" font-size="10.00">::upperProfile</text>
</a>
</g>
</g>
<!-- Node197&#45;&gt;Node205 -->
<g id="edge9" class="edge"><title>Node197&#45;&gt;Node205</title>
<path fill="none" stroke="midnightblue" d="M230.277,-220.192C246.974,-199.351 279.37,-161.962 314,-138.5 316.736,-136.646 319.632,-134.887 322.615,-133.227"/>
<polygon fill="midnightblue" stroke="midnightblue" points="324.448,-136.22 331.747,-128.541 321.252,-129.992 324.448,-136.22"/>
</g>
<!-- Node206 -->
<g id="node11" class="node"><title>Node206</title>
<g id="a_node11"><a xlink:href="classEigen_1_1SkylineStorage.html#aefe237af538d4524a94e07db8fc4c2b2" target="_top" xlink:title="Eigen::SkylineStorage\l::upperProfileSize">
<polygon fill="none" stroke="black" points="314,-49.5 314,-79.5 435,-79.5 435,-49.5 314,-49.5"/>
<text text-anchor="start" x="322" y="-67.5" font-family="Helvetica,sans-Serif" font-size="10.00">Eigen::SkylineStorage</text>
<text text-anchor="middle" x="374.5" y="-56.5" font-family="Helvetica,sans-Serif" font-size="10.00">::upperProfileSize</text>
</a>
</g>
</g>
<!-- Node197&#45;&gt;Node206 -->
<g id="edge10" class="edge"><title>Node197&#45;&gt;Node206</title>
<path fill="none" stroke="midnightblue" d="M224.845,-220.124C237.616,-190.9 269.09,-126.919 314,-89.5 315.996,-87.8369 318.119,-86.27 320.328,-84.7955"/>
<polygon fill="midnightblue" stroke="midnightblue" points="322.369,-87.6555 329.201,-79.5582 318.81,-81.6273 322.369,-87.6555"/>
</g>
<!-- Node207 -->
<g id="node12" class="node"><title>Node207</title>
<g id="a_node12"><a xlink:href="classEigen_1_1SkylineStorage.html#a4e04b8e3bda251623773b5ef46cd450a" target="_top" xlink:title="Eigen::SkylineStorage\l::upperSize">
<polygon fill="none" stroke="black" points="314,-0.5 314,-30.5 435,-30.5 435,-0.5 314,-0.5"/>
<text text-anchor="start" x="322" y="-18.5" font-family="Helvetica,sans-Serif" font-size="10.00">Eigen::SkylineStorage</text>
<text text-anchor="middle" x="374.5" y="-7.5" font-family="Helvetica,sans-Serif" font-size="10.00">::upperSize</text>
</a>
</g>
</g>
<!-- Node197&#45;&gt;Node207 -->
<g id="edge11" class="edge"><title>Node197&#45;&gt;Node207</title>
<path fill="none" stroke="midnightblue" d="M221.996,-220.376C231.044,-184.414 258.49,-92.899 314,-40.5 315.655,-38.9377 317.422,-37.4659 319.273,-36.0802"/>
<polygon fill="midnightblue" stroke="midnightblue" points="321.341,-38.911 327.837,-30.5411 317.539,-33.0333 321.341,-38.911"/>
</g>
</g>
</svg>
        <g id="navigator" transform="translate(0 0)" fill="#404254">
                <rect fill="#f2f5e9" fill-opacity="0.5" stroke="#606060" stroke-width=".5" x="0" y="0" width="60" height="60"/>
                <use id="zoomplus" xlink:href="#zoomPlus" x="17" y="9" onmousedown="handleZoom(evt,'in')"/>
                <use id="zoomminus" xlink:href="#zoomMin" x="42" y="9" onmousedown="handleZoom(evt,'out')"/>
                <use id="reset" xlink:href="#resetDef" x="30" y="36" onmousedown="handleReset()"/>
                <g id="arrowUp" xlink:href="#dirArrow" transform="translate(30 24)" onmousedown="handlePan(0,-1)">
                  <use xlink:href="#rim" fill="#404040">
                        <set attributeName="fill" to="#808080" begin="arrowUp.mouseover" end="arrowUp.mouseout"/>
                  </use>
                  <path fill="none" stroke="white" stroke-width="1.5" d="M0,-3.0v7 M-2.5,-0.5L0,-3.0L2.5,-0.5"/>
                </g>
                <g id="arrowRight" xlink:href="#dirArrow" transform="rotate(90) translate(36 -43)" onmousedown="handlePan(1,0)">
                  <use xlink:href="#rim" fill="#404040">
                        <set attributeName="fill" to="#808080" begin="arrowRight.mouseover" end="arrowRight.mouseout"/>
                  </use>
                  <path fill="none" stroke="white" stroke-width="1.5" d="M0,-3.0v7 M-2.5,-0.5L0,-3.0L2.5,-0.5"/>
                </g>
                <g id="arrowDown" xlink:href="#dirArrow" transform="rotate(180) translate(-30 -48)" onmousedown="handlePan(0,1)">
                  <use xlink:href="#rim" fill="#404040">
                        <set attributeName="fill" to="#808080" begin="arrowDown.mouseover" end="arrowDown.mouseout"/>
                  </use>
                  <path fill="none" stroke="white" stroke-width="1.5" d="M0,-3.0v7 M-2.5,-0.5L0,-3.0L2.5,-0.5"/>
                </g>
                <g id="arrowLeft" xlink:href="#dirArrow" transform="rotate(270) translate(-36 17)" onmousedown="handlePan(-1,0)">
                  <use xlink:href="#rim" fill="#404040">
                        <set attributeName="fill" to="#808080" begin="arrowLeft.mouseover" end="arrowLeft.mouseout"/>
                  </use>
                  <path fill="none" stroke="white" stroke-width="1.5" d="M0,-3.0v7 M-2.5,-0.5L0,-3.0L2.5,-0.5"/>
                </g>
        </g>
        <svg viewBox="0 0 15 15" width="100%" height="30px" preserveAspectRatio="xMaxYMin meet">
         <g id="arrow_out" transform="scale(0.3 0.3)">
          <a xlink:href="classEigen_1_1SkylineStorage_a6be0d1708b4048b5bfef64c296b12f59_cgraph_org.svg" target="_base">
           <rect id="button" ry="5" rx="5" y="6" x="6" height="38" width="38"
                fill="#f2f5e9" fill-opacity="0.5" stroke="#606060" stroke-width="1.0"/>
           <path id="arrow"
             d="M 11.500037,31.436501 C 11.940474,20.09759 22.043105,11.32322 32.158766,21.979434 L 37.068811,17.246167 C 37.068811,17.246167 37.088388,32 37.088388,32 L 22.160133,31.978069 C 22.160133,31.978069 26.997745,27.140456 26.997745,27.140456 C 18.528582,18.264221 13.291696,25.230495 11.500037,31.436501 z"
             style="fill:#404040;"/>
          </a>
         </g>
        </svg>
</svg>
