<?xml version="1.0" encoding="UTF-8" standalone="no"?>
<!DOCTYPE svg PUBLIC "-//W3C//DTD SVG 1.1//EN"
 "http://www.w3.org/Graphics/SVG/1.1/DTD/svg11.dtd">
<!-- Generated by graphviz version 2.38.0 (20140413.2041)
 -->
<!-- Title: Eigen::SelfAdjointView&lt; _MatrixType, UpLo &gt; Pages: 1 -->
<svg width="178pt" height="184pt"
 viewBox="0.00 0.00 178.00 184.00" xmlns="http://www.w3.org/2000/svg" xmlns:xlink="http://www.w3.org/1999/xlink">
<g id="graph0" class="graph" transform="scale(1 1) rotate(0) translate(4 180)">
<title>Eigen::SelfAdjointView&lt; _MatrixType, UpLo &gt;</title>
<!-- Node0 -->
<g id="node1" class="node"><title>Node0</title>
<polygon fill="#bfbfbf" stroke="black" points="22.5,-0.5 22.5,-30.5 147.5,-30.5 147.5,-0.5 22.5,-0.5"/>
<text text-anchor="start" x="30.5" y="-18.5" font-family="Helvetica,sans-Serif" font-size="10.00">Eigen::SelfAdjointView</text>
<text text-anchor="middle" x="85" y="-7.5" font-family="Helvetica,sans-Serif" font-size="10.00">&lt; _MatrixType, UpLo &gt;</text>
</g>
<!-- Node1 -->
<g id="node2" class="node"><title>Node1</title>
<g id="a_node2"><a xlink:href="classEigen_1_1TriangularBase.html" target="_top" xlink:title="Eigen::TriangularBase\l\&lt; SelfAdjointView\&lt; _MatrixType,\l UpLo \&gt; \&gt;">
<polygon fill="none" stroke="black" points="0,-67.5 0,-108.5 170,-108.5 170,-67.5 0,-67.5"/>
<text text-anchor="start" x="8" y="-96.5" font-family="Helvetica,sans-Serif" font-size="10.00">Eigen::TriangularBase</text>
<text text-anchor="start" x="8" y="-85.5" font-family="Helvetica,sans-Serif" font-size="10.00">&lt; SelfAdjointView&lt; _MatrixType,</text>
<text text-anchor="middle" x="85" y="-74.5" font-family="Helvetica,sans-Serif" font-size="10.00"> UpLo &gt; &gt;</text>
</a>
</g>
</g>
<!-- Node1&#45;&gt;Node0 -->
<g id="edge1" class="edge"><title>Node1&#45;&gt;Node0</title>
<path fill="none" stroke="midnightblue" d="M85,-57.08C85,-48.0061 85,-38.4498 85,-30.8916"/>
<polygon fill="midnightblue" stroke="midnightblue" points="81.5001,-57.3618 85,-67.3618 88.5001,-57.3619 81.5001,-57.3618"/>
</g>
<!-- Node2 -->
<g id="node3" class="node"><title>Node2</title>
<g id="a_node3"><a xlink:href="structEigen_1_1EigenBase.html" target="_top" xlink:title="Eigen::EigenBase\&lt; SelfAdjoint\lView\&lt; _MatrixType, UpLo \&gt; \&gt;">
<polygon fill="none" stroke="black" points="4.5,-145.5 4.5,-175.5 165.5,-175.5 165.5,-145.5 4.5,-145.5"/>
<text text-anchor="start" x="12.5" y="-163.5" font-family="Helvetica,sans-Serif" font-size="10.00">Eigen::EigenBase&lt; SelfAdjoint</text>
<text text-anchor="middle" x="85" y="-152.5" font-family="Helvetica,sans-Serif" font-size="10.00">View&lt; _MatrixType, UpLo &gt; &gt;</text>
</a>
</g>
</g>
<!-- Node2&#45;&gt;Node1 -->
<g id="edge2" class="edge"><title>Node2&#45;&gt;Node1</title>
<path fill="none" stroke="midnightblue" d="M85,-134.982C85,-126.347 85,-116.762 85,-108.588"/>
<polygon fill="midnightblue" stroke="midnightblue" points="81.5001,-135.233 85,-145.233 88.5001,-135.233 81.5001,-135.233"/>
</g>
</g>
</svg>
