<?xml version="1.0" encoding="UTF-8" standalone="no"?>
<!DOCTYPE svg PUBLIC "-//W3C//DTD SVG 1.1//EN"
 "http://www.w3.org/Graphics/SVG/1.1/DTD/svg11.dtd">
<!-- Generated by graphviz version 2.38.0 (20140413.2041)
 -->
<!-- Title: IcoSphere Pages: 1 -->
<svg width="375pt" height="106pt"
 viewBox="0.00 0.00 375.00 106.00" xmlns="http://www.w3.org/2000/svg" xmlns:xlink="http://www.w3.org/1999/xlink">
<g id="graph0" class="graph" transform="scale(1 1) rotate(0) translate(4 102)">
<title>IcoSphere</title>
<!-- Node1 -->
<g id="node1" class="node"><title>Node1</title>
<polygon fill="#bfbfbf" stroke="black" points="135,-0.5 135,-19.5 200,-19.5 200,-0.5 135,-0.5"/>
<text text-anchor="middle" x="167.5" y="-7.5" font-family="Helvetica,sans-Serif" font-size="10.00">IcoSphere</text>
</g>
<!-- Node2 -->
<g id="node2" class="node"><title>Node2</title>
<polygon fill="none" stroke="#bfbfbf" points="0,-67.5 0,-97.5 109,-97.5 109,-67.5 0,-67.5"/>
<text text-anchor="start" x="8" y="-85.5" font-family="Helvetica,sans-Serif" font-size="10.00">vector&lt; std::vector</text>
<text text-anchor="middle" x="54.5" y="-74.5" font-family="Helvetica,sans-Serif" font-size="10.00">&lt; int &gt; * &gt;</text>
</g>
<!-- Node2&#45;&gt;Node1 -->
<g id="edge1" class="edge"><title>Node2&#45;&gt;Node1</title>
<path fill="none" stroke="#9a32cd" stroke-dasharray="5,2" d="M81.9954,-61.5491C92.8767,-53.9104 105.606,-45.2875 117.5,-38 128.267,-31.4027 140.767,-24.6527 150.575,-19.552"/>
<polygon fill="#9a32cd" stroke="#9a32cd" points="79.849,-58.7804 73.7163,-67.4199 83.8981,-64.4905 79.849,-58.7804"/>
<text text-anchor="middle" x="140.5" y="-41" font-family="Helvetica,sans-Serif" font-size="10.00"> mIndices</text>
</g>
<!-- Node3 -->
<g id="node3" class="node"><title>Node3</title>
<polygon fill="none" stroke="#bfbfbf" points="127,-73 127,-92 208,-92 208,-73 127,-73"/>
<text text-anchor="middle" x="167.5" y="-80" font-family="Helvetica,sans-Serif" font-size="10.00">vector&lt; int &gt;</text>
</g>
<!-- Node3&#45;&gt;Node1 -->
<g id="edge2" class="edge"><title>Node3&#45;&gt;Node1</title>
<path fill="none" stroke="#9a32cd" stroke-dasharray="5,2" d="M167.5,-62.442C167.5,-48.5305 167.5,-30.3203 167.5,-19.7154"/>
<polygon fill="#9a32cd" stroke="#9a32cd" points="164,-62.8553 167.5,-72.8553 171,-62.8553 164,-62.8553"/>
<text text-anchor="middle" x="189" y="-41" font-family="Helvetica,sans-Serif" font-size="10.00"> mListIds</text>
</g>
<!-- Node4 -->
<g id="node4" class="node"><title>Node4</title>
<polygon fill="none" stroke="#bfbfbf" points="226,-73 226,-92 367,-92 367,-73 226,-73"/>
<text text-anchor="middle" x="296.5" y="-80" font-family="Helvetica,sans-Serif" font-size="10.00">vector&lt; Eigen::Vector3f &gt;</text>
</g>
<!-- Node4&#45;&gt;Node1 -->
<g id="edge3" class="edge"><title>Node4&#45;&gt;Node1</title>
<path fill="none" stroke="#9a32cd" stroke-dasharray="5,2" d="M272.025,-68.1242C245.881,-53.8361 205.229,-31.6193 183.116,-19.5341"/>
<polygon fill="#9a32cd" stroke="#9a32cd" points="270.486,-71.2716 280.94,-72.9961 273.843,-65.1291 270.486,-71.2716"/>
<text text-anchor="middle" x="261.5" y="-41" font-family="Helvetica,sans-Serif" font-size="10.00"> mVertices</text>
</g>
</g>
</svg>
