<?xml version="1.0" encoding="UTF-8" standalone="no"?>
<!DOCTYPE svg PUBLIC "-//W3C//DTD SVG 1.1//EN"
 "http://www.w3.org/Graphics/SVG/1.1/DTD/svg11.dtd">
<!-- Generated by graphviz version 2.38.0 (20140413.2041)
 -->
<!-- Title: Eigen::Rotation2D::fromRotationMatrix Pages: 1 -->
<!--zoomable 519 -->
<svg id="main" version="1.1" xmlns="http://www.w3.org/2000/svg" xmlns:xlink="http://www.w3.org/1999/xlink" xml:space="preserve" onload="init(evt)">
<style type="text/css"><![CDATA[
.edge:hover path { stroke: red; }
.edge:hover polygon { stroke: red; fill: red; }
]]></style>
<script type="text/javascript"><![CDATA[
var edges = document.getElementsByTagName('g');
if (edges && edges.length) {
  for (var i=0;i<edges.length;i++) {
    if (edges[i].id.substr(0,4)=='edge') {
      edges[i].setAttribute('class','edge');
    }
  }
}
]]></script>
        <defs>
                <circle id="rim" cx="0" cy="0" r="7"/>
                <circle id="rim2" cx="0" cy="0" r="3.5"/>
                <g id="zoomPlus">
                        <use xlink:href="#rim" fill="#404040">
                                <set attributeName="fill" to="#808080" begin="zoomplus.mouseover" end="zoomplus.mouseout"/>
                        </use>
                        <path d="M-4,0h8M0,-4v8" fill="none" stroke="white" stroke-width="1.5" pointer-events="none"/>
                </g>
                <g id="zoomMin">
                        <use xlink:href="#rim" fill="#404040">
                                <set attributeName="fill" to="#808080" begin="zoomminus.mouseover" end="zoomminus.mouseout"/>
                        </use>
                        <path d="M-4,0h8" fill="none" stroke="white" stroke-width="1.5" pointer-events="none"/>
                </g>
                <g id="dirArrow">
                        <path fill="none" stroke="white" stroke-width="1.5" d="M0,-3.0v7 M-2.5,-0.5L0,-3.0L2.5,-0.5"/>
                </g>
               <g id="resetDef">
                       <use xlink:href="#rim2" fill="#404040">
                               <set attributeName="fill" to="#808080" begin="reset.mouseover" end="reset.mouseout"/>
                       </use>
               </g>
        </defs>

<script type="text/javascript">
var viewWidth = 412;
var viewHeight = 519;
var sectionId = 'dynsection-4';
</script>
<script xlink:href="svgpan.js"/>
<svg id="graph" class="graph">
<g id="viewport">
<title>Eigen::Rotation2D::fromRotationMatrix</title>
<!-- Node19 -->
<g id="node1" class="node"><title>Node19</title>
<polygon fill="#bfbfbf" stroke="black" points="0,-240.5 0,-270.5 107,-270.5 107,-240.5 0,-240.5"/>
<text text-anchor="start" x="8" y="-258.5" font-family="Helvetica,sans-Serif" font-size="10.00">Eigen::Rotation2D::</text>
<text text-anchor="middle" x="53.5" y="-247.5" font-family="Helvetica,sans-Serif" font-size="10.00">fromRotationMatrix</text>
</g>
<!-- Node20 -->
<g id="node2" class="node"><title>Node20</title>
<g id="a_node2"><a xlink:href="namespaceEigen.html#a005dd347b005fd91307df49f89186e06" target="_top" xlink:title="Eigen::atan2">
<polygon fill="none" stroke="black" points="143,-246 143,-265 220,-265 220,-246 143,-246"/>
<text text-anchor="middle" x="181.5" y="-253" font-family="Helvetica,sans-Serif" font-size="10.00">Eigen::atan2</text>
</a>
</g>
</g>
<!-- Node19&#45;&gt;Node20 -->
<g id="edge1" class="edge"><title>Node19&#45;&gt;Node20</title>
<path fill="none" stroke="midnightblue" d="M107.205,-255.5C115.739,-255.5 124.532,-255.5 132.934,-255.5"/>
<polygon fill="midnightblue" stroke="midnightblue" points="132.946,-259 142.946,-255.5 132.946,-252 132.946,-259"/>
</g>
<!-- Node21 -->
<g id="node3" class="node"><title>Node21</title>
<g id="a_node3"><a xlink:href="ArrayCwiseUnaryOps_8h.html#a4921dbe62d034394f6fa7810e8711356" target="_top" xlink:title="abs2">
<polygon fill="none" stroke="black" points="310,-491 310,-510 350,-510 350,-491 310,-491"/>
<text text-anchor="middle" x="330" y="-498" font-family="Helvetica,sans-Serif" font-size="10.00">abs2</text>
</a>
</g>
</g>
<!-- Node20&#45;&gt;Node21 -->
<g id="edge2" class="edge"><title>Node20&#45;&gt;Node21</title>
<path fill="none" stroke="midnightblue" d="M182.56,-265.363C183.331,-300.41 190.827,-420.113 256,-481.5 267.66,-492.483 284.842,-497.308 299.608,-499.352"/>
<polygon fill="midnightblue" stroke="midnightblue" points="299.515,-502.861 309.82,-500.398 300.228,-495.898 299.515,-502.861"/>
</g>
<!-- Node22 -->
<g id="node4" class="node"><title>Node22</title>
<g id="a_node4"><a xlink:href="ArrayCwiseUnaryOps_8h.html#a4ae93c48c742ccd51e0ec59fa85b49bd" target="_top" xlink:title="acos">
<polygon fill="none" stroke="black" points="310.5,-453 310.5,-472 349.5,-472 349.5,-453 310.5,-453"/>
<text text-anchor="middle" x="330" y="-460" font-family="Helvetica,sans-Serif" font-size="10.00">acos</text>
</a>
</g>
</g>
<!-- Node20&#45;&gt;Node22 -->
<g id="edge3" class="edge"><title>Node20&#45;&gt;Node22</title>
<path fill="none" stroke="midnightblue" d="M183.301,-265.434C186.371,-296.698 200.196,-393.924 256,-443.5 268.054,-454.208 285.398,-459.011 300.156,-461.112"/>
<polygon fill="midnightblue" stroke="midnightblue" points="300.014,-464.617 310.332,-462.21 300.765,-457.658 300.014,-464.617"/>
</g>
<!-- Node23 -->
<g id="node5" class="node"><title>Node23</title>
<g id="a_node5"><a xlink:href="ArrayCwiseUnaryOps_8h.html#a65b7255208b30e0a3a5a0389b77465db" target="_top" xlink:title="asin">
<polygon fill="none" stroke="black" points="312,-415 312,-434 348,-434 348,-415 312,-415"/>
<text text-anchor="middle" x="330" y="-422" font-family="Helvetica,sans-Serif" font-size="10.00">asin</text>
</a>
</g>
</g>
<!-- Node20&#45;&gt;Node23 -->
<g id="edge4" class="edge"><title>Node20&#45;&gt;Node23</title>
<path fill="none" stroke="midnightblue" d="M184.356,-265.318C189.96,-292.167 209.283,-367.342 256,-405.5 268.814,-415.966 286.759,-420.73 301.65,-422.87"/>
<polygon fill="midnightblue" stroke="midnightblue" points="301.509,-426.376 311.836,-424.009 302.287,-419.419 301.509,-426.376"/>
</g>
<!-- Node24 -->
<g id="node6" class="node"><title>Node24</title>
<g id="a_node6"><a xlink:href="ArrayCwiseUnaryOps_8h.html#a92b03396990b0e9eea0731aa406e31a4" target="_top" xlink:title="cos">
<polygon fill="none" stroke="black" points="313.5,-377 313.5,-396 346.5,-396 346.5,-377 313.5,-377"/>
<text text-anchor="middle" x="330" y="-384" font-family="Helvetica,sans-Serif" font-size="10.00">cos</text>
</a>
</g>
</g>
<!-- Node20&#45;&gt;Node24 -->
<g id="edge5" class="edge"><title>Node20&#45;&gt;Node24</title>
<path fill="none" stroke="midnightblue" d="M185.96,-265.014C194.368,-286.746 218.016,-340.249 256,-367.5 269.785,-377.39 288.314,-382.136 303.254,-384.412"/>
<polygon fill="midnightblue" stroke="midnightblue" points="303.025,-387.91 313.38,-385.67 303.888,-380.963 303.025,-387.91"/>
</g>
<!-- Node25 -->
<g id="node7" class="node"><title>Node25</title>
<g id="a_node7"><a xlink:href="ArrayCwiseUnaryOps_8h.html#ada19e3b661917a4cd32736c1cead1a04" target="_top" xlink:title="cosh">
<polygon fill="none" stroke="black" points="310.5,-339 310.5,-358 349.5,-358 349.5,-339 310.5,-339"/>
<text text-anchor="middle" x="330" y="-346" font-family="Helvetica,sans-Serif" font-size="10.00">cosh</text>
</a>
</g>
</g>
<!-- Node20&#45;&gt;Node25 -->
<g id="edge6" class="edge"><title>Node20&#45;&gt;Node25</title>
<path fill="none" stroke="midnightblue" d="M189.242,-265.052C200.957,-280.918 226.644,-312.625 256,-329.5 269.481,-337.249 286.16,-341.897 300.171,-344.654"/>
<polygon fill="midnightblue" stroke="midnightblue" points="299.816,-348.145 310.268,-346.413 301.017,-341.249 299.816,-348.145"/>
</g>
<!-- Node26 -->
<g id="node8" class="node"><title>Node26</title>
<g id="a_node8"><a xlink:href="classEigen_1_1AutoDiffScalar.html#a751db20e34259b41b88a6358ef20e857" target="_top" xlink:title="Eigen::AutoDiffScalar\l::derivatives">
<polygon fill="none" stroke="black" points="271.5,-289.5 271.5,-319.5 388.5,-319.5 388.5,-289.5 271.5,-289.5"/>
<text text-anchor="start" x="279.5" y="-307.5" font-family="Helvetica,sans-Serif" font-size="10.00">Eigen::AutoDiffScalar</text>
<text text-anchor="middle" x="330" y="-296.5" font-family="Helvetica,sans-Serif" font-size="10.00">::derivatives</text>
</a>
</g>
</g>
<!-- Node20&#45;&gt;Node26 -->
<g id="edge7" class="edge"><title>Node20&#45;&gt;Node26</title>
<path fill="none" stroke="midnightblue" d="M210.399,-265.064C224.122,-269.75 240.917,-275.456 256,-280.5 261.593,-282.37 267.43,-284.31 273.262,-286.24"/>
<polygon fill="midnightblue" stroke="midnightblue" points="272.432,-289.652 283.025,-289.464 274.627,-283.005 272.432,-289.652"/>
</g>
<!-- Node27 -->
<g id="node9" class="node"><title>Node27</title>
<g id="a_node9"><a xlink:href="namespaceEigen.html#ade972f79dcb91f919a4a9939178e1024" target="_top" xlink:title="Eigen::EIGEN_AUTODIFF\l_DECLARE_GLOBAL_UNARY">
<polygon fill="none" stroke="black" points="256,-240.5 256,-270.5 404,-270.5 404,-240.5 256,-240.5"/>
<text text-anchor="start" x="264" y="-258.5" font-family="Helvetica,sans-Serif" font-size="10.00">Eigen::EIGEN_AUTODIFF</text>
<text text-anchor="middle" x="330" y="-247.5" font-family="Helvetica,sans-Serif" font-size="10.00">_DECLARE_GLOBAL_UNARY</text>
</a>
</g>
</g>
<!-- Node20&#45;&gt;Node27 -->
<g id="edge8" class="edge"><title>Node20&#45;&gt;Node27</title>
<path fill="none" stroke="midnightblue" d="M220.227,-255.5C228.173,-255.5 236.855,-255.5 245.737,-255.5"/>
<polygon fill="midnightblue" stroke="midnightblue" points="245.822,-259 255.822,-255.5 245.822,-252 245.822,-259"/>
</g>
<!-- Node28 -->
<g id="node10" class="node"><title>Node28</title>
<g id="a_node10"><a xlink:href="namespaceEigen.html#af2ab563fb98de79fa59e7f78e37591ab" target="_top" xlink:title="Eigen::MakeAutoDiffScalar">
<polygon fill="none" stroke="black" points="258.5,-202 258.5,-221 401.5,-221 401.5,-202 258.5,-202"/>
<text text-anchor="middle" x="330" y="-209" font-family="Helvetica,sans-Serif" font-size="10.00">Eigen::MakeAutoDiffScalar</text>
</a>
</g>
</g>
<!-- Node20&#45;&gt;Node28 -->
<g id="edge9" class="edge"><title>Node20&#45;&gt;Node28</title>
<path fill="none" stroke="midnightblue" d="M210.671,-245.949C224.312,-241.415 240.957,-236.014 256,-231.5 264.687,-228.893 273.997,-226.238 282.962,-223.75"/>
<polygon fill="midnightblue" stroke="midnightblue" points="284.17,-227.048 292.885,-221.024 282.315,-220.298 284.17,-227.048"/>
</g>
<!-- Node29 -->
<g id="node11" class="node"><title>Node29</title>
<g id="a_node11"><a xlink:href="ArrayCwiseUnaryOps_8h.html#a2a79b4dc952416cf485d5f84af4c798e" target="_top" xlink:title="sinh">
<polygon fill="none" stroke="black" points="312,-164 312,-183 348,-183 348,-164 312,-164"/>
<text text-anchor="middle" x="330" y="-171" font-family="Helvetica,sans-Serif" font-size="10.00">sinh</text>
</a>
</g>
</g>
<!-- Node20&#45;&gt;Node29 -->
<g id="edge10" class="edge"><title>Node20&#45;&gt;Node29</title>
<path fill="none" stroke="midnightblue" d="M190.999,-245.844C203.744,-231.967 229.19,-206.513 256,-192.5 270.243,-185.056 287.606,-180.382 301.824,-177.534"/>
<polygon fill="midnightblue" stroke="midnightblue" points="302.764,-180.921 311.98,-175.696 301.517,-174.033 302.764,-180.921"/>
</g>
<!-- Node30 -->
<g id="node12" class="node"><title>Node30</title>
<g id="a_node12"><a xlink:href="ArrayCwiseUnaryOps_8h.html#a656b9217a2fcb6de59dc8d1eb3079cc7" target="_top" xlink:title="sqrt">
<polygon fill="none" stroke="black" points="312.5,-126 312.5,-145 347.5,-145 347.5,-126 312.5,-126"/>
<text text-anchor="middle" x="330" y="-133" font-family="Helvetica,sans-Serif" font-size="10.00">sqrt</text>
</a>
</g>
</g>
<!-- Node20&#45;&gt;Node30 -->
<g id="edge11" class="edge"><title>Node20&#45;&gt;Node30</title>
<path fill="none" stroke="midnightblue" d="M186.787,-245.712C196.202,-225.399 220.696,-178.558 256,-154.5 269.672,-145.183 287.628,-140.435 302.311,-138.015"/>
<polygon fill="midnightblue" stroke="midnightblue" points="302.888,-141.468 312.315,-136.632 301.93,-134.534 302.888,-141.468"/>
</g>
<!-- Node31 -->
<g id="node13" class="node"><title>Node31</title>
<g id="a_node13"><a xlink:href="ArrayCwiseUnaryOps_8h.html#a0c32a3874bfc5438d11b75c9f40256d1" target="_top" xlink:title="tan">
<polygon fill="none" stroke="black" points="314,-88 314,-107 346,-107 346,-88 314,-88"/>
<text text-anchor="middle" x="330" y="-95" font-family="Helvetica,sans-Serif" font-size="10.00">tan</text>
</a>
</g>
</g>
<!-- Node20&#45;&gt;Node31 -->
<g id="edge12" class="edge"><title>Node20&#45;&gt;Node31</title>
<path fill="none" stroke="midnightblue" d="M184.77,-245.658C191.183,-220.138 211.906,-151.399 256,-116.5 269.469,-105.84 288.299,-101.116 303.462,-99.0431"/>
<polygon fill="midnightblue" stroke="midnightblue" points="304.149,-102.49 313.725,-97.9557 303.411,-95.5289 304.149,-102.49"/>
</g>
<!-- Node32 -->
<g id="node14" class="node"><title>Node32</title>
<g id="a_node14"><a xlink:href="ArrayCwiseUnaryOps_8h.html#ad7864d65f1037041e3f06ee1a8a5ae1e" target="_top" xlink:title="tanh">
<polygon fill="none" stroke="black" points="311,-50 311,-69 349,-69 349,-50 311,-50"/>
<text text-anchor="middle" x="330" y="-57" font-family="Helvetica,sans-Serif" font-size="10.00">tanh</text>
</a>
</g>
</g>
<!-- Node20&#45;&gt;Node32 -->
<g id="edge13" class="edge"><title>Node20&#45;&gt;Node32</title>
<path fill="none" stroke="midnightblue" d="M183.551,-245.714C187.3,-215.799 202.779,-124.796 256,-78.5 268.244,-67.849 285.74,-63.0575 300.534,-60.9485"/>
<polygon fill="midnightblue" stroke="midnightblue" points="301.152,-64.402 310.715,-59.8414 300.395,-57.443 301.152,-64.402"/>
</g>
<!-- Node33 -->
<g id="node15" class="node"><title>Node33</title>
<g id="a_node15"><a xlink:href="classEigen_1_1AutoDiffScalar.html#a3fb25233941b46affc60c9569829656b" target="_top" xlink:title="Eigen::AutoDiffScalar\l::value">
<polygon fill="none" stroke="black" points="271.5,-0.5 271.5,-30.5 388.5,-30.5 388.5,-0.5 271.5,-0.5"/>
<text text-anchor="start" x="279.5" y="-18.5" font-family="Helvetica,sans-Serif" font-size="10.00">Eigen::AutoDiffScalar</text>
<text text-anchor="middle" x="330" y="-7.5" font-family="Helvetica,sans-Serif" font-size="10.00">::value</text>
</a>
</g>
</g>
<!-- Node20&#45;&gt;Node33 -->
<g id="edge14" class="edge"><title>Node20&#45;&gt;Node33</title>
<path fill="none" stroke="midnightblue" d="M182.911,-245.807C184.851,-212.395 195.767,-100.766 256,-40.5 258.086,-38.4125 260.354,-36.4992 262.757,-34.7454"/>
<polygon fill="midnightblue" stroke="midnightblue" points="264.74,-37.634 271.378,-29.3768 261.039,-31.692 264.74,-37.634"/>
</g>
</g>
</svg>
        <g id="navigator" transform="translate(0 0)" fill="#404254">
                <rect fill="#f2f5e9" fill-opacity="0.5" stroke="#606060" stroke-width=".5" x="0" y="0" width="60" height="60"/>
                <use id="zoomplus" xlink:href="#zoomPlus" x="17" y="9" onmousedown="handleZoom(evt,'in')"/>
                <use id="zoomminus" xlink:href="#zoomMin" x="42" y="9" onmousedown="handleZoom(evt,'out')"/>
                <use id="reset" xlink:href="#resetDef" x="30" y="36" onmousedown="handleReset()"/>
                <g id="arrowUp" xlink:href="#dirArrow" transform="translate(30 24)" onmousedown="handlePan(0,-1)">
                  <use xlink:href="#rim" fill="#404040">
                        <set attributeName="fill" to="#808080" begin="arrowUp.mouseover" end="arrowUp.mouseout"/>
                  </use>
                  <path fill="none" stroke="white" stroke-width="1.5" d="M0,-3.0v7 M-2.5,-0.5L0,-3.0L2.5,-0.5"/>
                </g>
                <g id="arrowRight" xlink:href="#dirArrow" transform="rotate(90) translate(36 -43)" onmousedown="handlePan(1,0)">
                  <use xlink:href="#rim" fill="#404040">
                        <set attributeName="fill" to="#808080" begin="arrowRight.mouseover" end="arrowRight.mouseout"/>
                  </use>
                  <path fill="none" stroke="white" stroke-width="1.5" d="M0,-3.0v7 M-2.5,-0.5L0,-3.0L2.5,-0.5"/>
                </g>
                <g id="arrowDown" xlink:href="#dirArrow" transform="rotate(180) translate(-30 -48)" onmousedown="handlePan(0,1)">
                  <use xlink:href="#rim" fill="#404040">
                        <set attributeName="fill" to="#808080" begin="arrowDown.mouseover" end="arrowDown.mouseout"/>
                  </use>
                  <path fill="none" stroke="white" stroke-width="1.5" d="M0,-3.0v7 M-2.5,-0.5L0,-3.0L2.5,-0.5"/>
                </g>
                <g id="arrowLeft" xlink:href="#dirArrow" transform="rotate(270) translate(-36 17)" onmousedown="handlePan(-1,0)">
                  <use xlink:href="#rim" fill="#404040">
                        <set attributeName="fill" to="#808080" begin="arrowLeft.mouseover" end="arrowLeft.mouseout"/>
                  </use>
                  <path fill="none" stroke="white" stroke-width="1.5" d="M0,-3.0v7 M-2.5,-0.5L0,-3.0L2.5,-0.5"/>
                </g>
        </g>
        <svg viewBox="0 0 15 15" width="100%" height="30px" preserveAspectRatio="xMaxYMin meet">
         <g id="arrow_out" transform="scale(0.3 0.3)">
          <a xlink:href="classEigen_1_1Rotation2D_ab60bf3b2d7a33e8e29856f35839eba72_cgraph_org.svg" target="_base">
           <rect id="button" ry="5" rx="5" y="6" x="6" height="38" width="38"
                fill="#f2f5e9" fill-opacity="0.5" stroke="#606060" stroke-width="1.0"/>
           <path id="arrow"
             d="M 11.500037,31.436501 C 11.940474,20.09759 22.043105,11.32322 32.158766,21.979434 L 37.068811,17.246167 C 37.068811,17.246167 37.088388,32 37.088388,32 L 22.160133,31.978069 C 22.160133,31.978069 26.997745,27.140456 26.997745,27.140456 C 18.528582,18.264221 13.291696,25.230495 11.500037,31.436501 z"
             style="fill:#404040;"/>
          </a>
         </g>
        </svg>
</svg>
