<?xml version="1.0" encoding="UTF-8" standalone="no"?>
<!DOCTYPE svg PUBLIC "-//W3C//DTD SVG 1.1//EN"
 "http://www.w3.org/Graphics/SVG/1.1/DTD/svg11.dtd">
<!-- Generated by graphviz version 2.38.0 (20140413.2041)
 -->
<!-- Title: Eigen::Matrix&lt; _Scalar, _Rows, _Cols, _Options, _MaxRows, _MaxCols &gt; Pages: 1 -->
<svg width="614pt" height="132pt"
 viewBox="0.00 0.00 614.00 132.00" xmlns="http://www.w3.org/2000/svg" xmlns:xlink="http://www.w3.org/1999/xlink">
<g id="graph0" class="graph" transform="scale(1 1) rotate(0) translate(4 128)">
<title>Eigen::Matrix&lt; _Scalar, _Rows, _Cols, _Options, _MaxRows, _MaxCols &gt;</title>
<!-- Node3 -->
<g id="node1" class="node"><title>Node3</title>
<polygon fill="#bfbfbf" stroke="black" points="475,-41 475,-82 606,-82 606,-41 475,-41"/>
<text text-anchor="start" x="483" y="-70" font-family="Helvetica,sans-Serif" font-size="10.00">Eigen::Matrix&lt; _Scalar,</text>
<text text-anchor="start" x="483" y="-59" font-family="Helvetica,sans-Serif" font-size="10.00"> _Rows, _Cols, _Options,</text>
<text text-anchor="middle" x="540.5" y="-48" font-family="Helvetica,sans-Serif" font-size="10.00"> _MaxRows, _MaxCols &gt;</text>
</g>
<!-- Node4 -->
<g id="node2" class="node"><title>Node4</title>
<g id="a_node2"><a xlink:href="classEigen_1_1PlainObjectBase.html" target="_top" xlink:title="Eigen::PlainObjectBase\l\&lt; Matrix\&lt; _Scalar, _Rows,\l _Cols, _Options, _MaxRows,\l _MaxCols \&gt; \&gt;">
<polygon fill="none" stroke="black" points="288,-35.5 288,-87.5 438,-87.5 438,-35.5 288,-35.5"/>
<text text-anchor="start" x="296" y="-75.5" font-family="Helvetica,sans-Serif" font-size="10.00">Eigen::PlainObjectBase</text>
<text text-anchor="start" x="296" y="-64.5" font-family="Helvetica,sans-Serif" font-size="10.00">&lt; Matrix&lt; _Scalar, _Rows,</text>
<text text-anchor="start" x="296" y="-53.5" font-family="Helvetica,sans-Serif" font-size="10.00"> _Cols, _Options, _MaxRows,</text>
<text text-anchor="middle" x="363" y="-42.5" font-family="Helvetica,sans-Serif" font-size="10.00"> _MaxCols &gt; &gt;</text>
</a>
</g>
</g>
<!-- Node4&#45;&gt;Node3 -->
<g id="edge1" class="edge"><title>Node4&#45;&gt;Node3</title>
<path fill="none" stroke="midnightblue" d="M448.21,-61.5C457.135,-61.5 466.11,-61.5 474.763,-61.5"/>
<polygon fill="midnightblue" stroke="midnightblue" points="448.173,-58.0001 438.173,-61.5 448.173,-65.0001 448.173,-58.0001"/>
</g>
<!-- Node5 -->
<g id="node3" class="node"><title>Node5</title>
<polygon fill="none" stroke="#bfbfbf" points="4,-71.5 4,-123.5 193,-123.5 193,-71.5 4,-71.5"/>
<text text-anchor="start" x="12" y="-111.5" font-family="Helvetica,sans-Serif" font-size="10.00">internal::dense_xpr</text>
<text text-anchor="start" x="12" y="-100.5" font-family="Helvetica,sans-Serif" font-size="10.00">_base::type&lt; Matrix</text>
<text text-anchor="start" x="12" y="-89.5" font-family="Helvetica,sans-Serif" font-size="10.00">&lt; _Scalar, _Rows, _Cols,</text>
<text text-anchor="middle" x="98.5" y="-78.5" font-family="Helvetica,sans-Serif" font-size="10.00"> _Options, _MaxRows, _MaxCols &gt; &gt;</text>
</g>
<!-- Node5&#45;&gt;Node4 -->
<g id="edge2" class="edge"><title>Node5&#45;&gt;Node4</title>
<path fill="none" stroke="midnightblue" d="M203.08,-83.2947C231.372,-79.4147 261.461,-75.2882 287.76,-71.6815"/>
<polygon fill="midnightblue" stroke="midnightblue" points="202.588,-79.8293 193.157,-84.6556 203.54,-86.7644 202.588,-79.8293"/>
</g>
<!-- Node6 -->
<g id="node4" class="node"><title>Node6</title>
<g id="a_node4"><a xlink:href="classEigen_1_1DenseStorage.html" target="_top" xlink:title="Eigen::DenseStorage\l\&lt; Scalar, Base::MaxSizeAtCompile\lTime, Base::RowsAtCompileTime,\l Base::ColsAtCompileTime, Options \&gt;">
<polygon fill="none" stroke="black" points="0,-0.5 0,-52.5 197,-52.5 197,-0.5 0,-0.5"/>
<text text-anchor="start" x="8" y="-40.5" font-family="Helvetica,sans-Serif" font-size="10.00">Eigen::DenseStorage</text>
<text text-anchor="start" x="8" y="-29.5" font-family="Helvetica,sans-Serif" font-size="10.00">&lt; Scalar, Base::MaxSizeAtCompile</text>
<text text-anchor="start" x="8" y="-18.5" font-family="Helvetica,sans-Serif" font-size="10.00">Time, Base::RowsAtCompileTime,</text>
<text text-anchor="middle" x="98.5" y="-7.5" font-family="Helvetica,sans-Serif" font-size="10.00"> Base::ColsAtCompileTime, Options &gt;</text>
</a>
</g>
</g>
<!-- Node6&#45;&gt;Node4 -->
<g id="edge3" class="edge"><title>Node6&#45;&gt;Node4</title>
<path fill="none" stroke="#9a32cd" stroke-dasharray="5,2" d="M207.179,-40.8572C234.338,-44.4784 262.889,-48.2852 287.973,-51.6297"/>
<polygon fill="#9a32cd" stroke="#9a32cd" points="207.62,-37.3851 197.245,-39.5327 206.695,-44.3237 207.62,-37.3851"/>
<text text-anchor="middle" x="242.5" y="-51.5" font-family="Helvetica,sans-Serif" font-size="10.00"> m_storage</text>
</g>
</g>
</svg>
