<?xml version="1.0" encoding="UTF-8" standalone="no"?>
<!DOCTYPE svg PUBLIC "-//W3C//DTD SVG 1.1//EN"
 "http://www.w3.org/Graphics/SVG/1.1/DTD/svg11.dtd">
<!-- Generated by graphviz version 2.38.0 (20140413.2041)
 -->
<!-- Title: Hamiltonianmatrix::serialize Pages: 1 -->
<svg width="469pt" height="431pt"
 viewBox="0.00 0.00 469.00 431.00" xmlns="http://www.w3.org/2000/svg" xmlns:xlink="http://www.w3.org/1999/xlink">
<g id="graph0" class="graph" transform="scale(1 1) rotate(0) translate(4 427)">
<title>Hamiltonianmatrix::serialize</title>
<!-- Node303 -->
<g id="node1" class="node"><title>Node303</title>
<polygon fill="#bfbfbf" stroke="black" points="0,-196.5 0,-226.5 111,-226.5 111,-196.5 0,-196.5"/>
<text text-anchor="start" x="8" y="-214.5" font-family="Helvetica,sans-Serif" font-size="10.00">Hamiltonianmatrix::</text>
<text text-anchor="middle" x="55.5" y="-203.5" font-family="Helvetica,sans-Serif" font-size="10.00">serialize</text>
</g>
<!-- Node304 -->
<g id="node2" class="node"><title>Node304</title>
<g id="a_node2"><a xlink:href="classHamiltonianmatrix.html#aa8d50e3585a18628f4abbb5bcede4bbb" target="_top" xlink:title="Hamiltonianmatrix::\ldoSerialization">
<polygon fill="none" stroke="black" points="147,-196.5 147,-226.5 258,-226.5 258,-196.5 147,-196.5"/>
<text text-anchor="start" x="155" y="-214.5" font-family="Helvetica,sans-Serif" font-size="10.00">Hamiltonianmatrix::</text>
<text text-anchor="middle" x="202.5" y="-203.5" font-family="Helvetica,sans-Serif" font-size="10.00">doSerialization</text>
</a>
</g>
</g>
<!-- Node303&#45;&gt;Node304 -->
<g id="edge1" class="edge"><title>Node303&#45;&gt;Node304</title>
<path fill="none" stroke="midnightblue" d="M111.318,-211.5C119.529,-211.5 128.061,-211.5 136.459,-211.5"/>
<polygon fill="midnightblue" stroke="midnightblue" points="136.604,-215 146.604,-211.5 136.604,-208 136.604,-215"/>
</g>
<!-- Node305 -->
<g id="node3" class="node"><title>Node305</title>
<g id="a_node3"><a xlink:href="classEigen_1_1SparseMatrix.html#aa391750e3c530227e4a5c3c52e959975" target="_top" xlink:title="Eigen::SparseMatrix\l::cols">
<polygon fill="none" stroke="black" points="321.5,-392.5 321.5,-422.5 433.5,-422.5 433.5,-392.5 321.5,-392.5"/>
<text text-anchor="start" x="329.5" y="-410.5" font-family="Helvetica,sans-Serif" font-size="10.00">Eigen::SparseMatrix</text>
<text text-anchor="middle" x="377.5" y="-399.5" font-family="Helvetica,sans-Serif" font-size="10.00">::cols</text>
</a>
</g>
</g>
<!-- Node304&#45;&gt;Node305 -->
<g id="edge2" class="edge"><title>Node304&#45;&gt;Node305</title>
<path fill="none" stroke="midnightblue" d="M207.16,-226.714C216.024,-260.25 241.859,-340.923 294,-383.5 299.279,-387.81 305.301,-391.347 311.633,-394.248"/>
<polygon fill="midnightblue" stroke="midnightblue" points="310.499,-397.564 321.082,-398.06 313.118,-391.073 310.499,-397.564"/>
</g>
<!-- Node306 -->
<g id="node4" class="node"><title>Node306</title>
<g id="a_node4"><a xlink:href="classEigen_1_1SparseMatrix.html#ae7b804bd39745156d20ca1611a296b67" target="_top" xlink:title="Eigen::SparseMatrix\l::innerIndexPtr">
<polygon fill="none" stroke="black" points="321.5,-343.5 321.5,-373.5 433.5,-373.5 433.5,-343.5 321.5,-343.5"/>
<text text-anchor="start" x="329.5" y="-361.5" font-family="Helvetica,sans-Serif" font-size="10.00">Eigen::SparseMatrix</text>
<text text-anchor="middle" x="377.5" y="-350.5" font-family="Helvetica,sans-Serif" font-size="10.00">::innerIndexPtr</text>
</a>
</g>
</g>
<!-- Node304&#45;&gt;Node306 -->
<g id="edge3" class="edge"><title>Node304&#45;&gt;Node306</title>
<path fill="none" stroke="midnightblue" d="M210.615,-226.883C223.486,-253.001 253.141,-305.956 294,-334.5 299.505,-338.345 305.624,-341.581 311.973,-344.301"/>
<polygon fill="midnightblue" stroke="midnightblue" points="310.802,-347.601 321.392,-347.93 313.319,-341.069 310.802,-347.601"/>
</g>
<!-- Node307 -->
<g id="node5" class="node"><title>Node307</title>
<g id="a_node5"><a xlink:href="classEigen_1_1SparseMatrix.html#a5ff54ffc10296f9466dc81fa888733fd" target="_top" xlink:title="Eigen::SparseMatrix\l::makeCompressed">
<polygon fill="none" stroke="black" points="321.5,-294.5 321.5,-324.5 433.5,-324.5 433.5,-294.5 321.5,-294.5"/>
<text text-anchor="start" x="329.5" y="-312.5" font-family="Helvetica,sans-Serif" font-size="10.00">Eigen::SparseMatrix</text>
<text text-anchor="middle" x="377.5" y="-301.5" font-family="Helvetica,sans-Serif" font-size="10.00">::makeCompressed</text>
</a>
</g>
</g>
<!-- Node304&#45;&gt;Node307 -->
<g id="edge4" class="edge"><title>Node304&#45;&gt;Node307</title>
<path fill="none" stroke="midnightblue" d="M218.136,-226.692C234.982,-243.357 264.183,-269.815 294,-285.5 299.545,-288.417 305.491,-291.022 311.557,-293.341"/>
<polygon fill="midnightblue" stroke="midnightblue" points="310.554,-296.698 321.148,-296.75 312.898,-290.103 310.554,-296.698"/>
</g>
<!-- Node308 -->
<g id="node6" class="node"><title>Node308</title>
<g id="a_node6"><a xlink:href="classEigen_1_1SparseCompressedBase.html#a03de8b3da2c142ce8698a76123b3e7d3" target="_top" xlink:title="Eigen::SparseCompressedBase\l::nonZeros">
<polygon fill="none" stroke="black" points="294,-245.5 294,-275.5 461,-275.5 461,-245.5 294,-245.5"/>
<text text-anchor="start" x="302" y="-263.5" font-family="Helvetica,sans-Serif" font-size="10.00">Eigen::SparseCompressedBase</text>
<text text-anchor="middle" x="377.5" y="-252.5" font-family="Helvetica,sans-Serif" font-size="10.00">::nonZeros</text>
</a>
</g>
</g>
<!-- Node304&#45;&gt;Node308 -->
<g id="edge5" class="edge"><title>Node304&#45;&gt;Node308</title>
<path fill="none" stroke="midnightblue" d="M256.817,-226.601C274.742,-231.679 294.908,-237.39 313.506,-242.658"/>
<polygon fill="midnightblue" stroke="midnightblue" points="312.783,-246.091 323.359,-245.448 314.691,-239.356 312.783,-246.091"/>
</g>
<!-- Node309 -->
<g id="node7" class="node"><title>Node309</title>
<g id="a_node7"><a xlink:href="classEigen_1_1SparseMatrix.html#a75506964d86d6badb32d0b4917acf2e2" target="_top" xlink:title="Eigen::SparseMatrix\l::outerIndexPtr">
<polygon fill="none" stroke="black" points="321.5,-196.5 321.5,-226.5 433.5,-226.5 433.5,-196.5 321.5,-196.5"/>
<text text-anchor="start" x="329.5" y="-214.5" font-family="Helvetica,sans-Serif" font-size="10.00">Eigen::SparseMatrix</text>
<text text-anchor="middle" x="377.5" y="-203.5" font-family="Helvetica,sans-Serif" font-size="10.00">::outerIndexPtr</text>
</a>
</g>
</g>
<!-- Node304&#45;&gt;Node309 -->
<g id="edge6" class="edge"><title>Node304&#45;&gt;Node309</title>
<path fill="none" stroke="midnightblue" d="M258.238,-211.5C275.037,-211.5 293.691,-211.5 311.125,-211.5"/>
<polygon fill="midnightblue" stroke="midnightblue" points="311.227,-215 321.227,-211.5 311.227,-208 311.227,-215"/>
</g>
<!-- Node310 -->
<g id="node8" class="node"><title>Node310</title>
<g id="a_node8"><a xlink:href="classEigen_1_1SparseMatrix.html#a4e5f706cfae14d2eaec1ea1e234905f1" target="_top" xlink:title="Eigen::SparseMatrix\l::outerSize">
<polygon fill="none" stroke="black" points="321.5,-147.5 321.5,-177.5 433.5,-177.5 433.5,-147.5 321.5,-147.5"/>
<text text-anchor="start" x="329.5" y="-165.5" font-family="Helvetica,sans-Serif" font-size="10.00">Eigen::SparseMatrix</text>
<text text-anchor="middle" x="377.5" y="-154.5" font-family="Helvetica,sans-Serif" font-size="10.00">::outerSize</text>
</a>
</g>
</g>
<!-- Node304&#45;&gt;Node310 -->
<g id="edge7" class="edge"><title>Node304&#45;&gt;Node310</title>
<path fill="none" stroke="midnightblue" d="M256.817,-196.399C274.742,-191.321 294.908,-185.61 313.506,-180.342"/>
<polygon fill="midnightblue" stroke="midnightblue" points="314.691,-183.644 323.359,-177.552 312.783,-176.909 314.691,-183.644"/>
</g>
<!-- Node311 -->
<g id="node9" class="node"><title>Node311</title>
<g id="a_node9"><a xlink:href="classEigen_1_1SparseMatrix.html#a62e61bb861eee306d5b069ce652b5aa5" target="_top" xlink:title="Eigen::SparseMatrix\l::rows">
<polygon fill="none" stroke="black" points="321.5,-98.5 321.5,-128.5 433.5,-128.5 433.5,-98.5 321.5,-98.5"/>
<text text-anchor="start" x="329.5" y="-116.5" font-family="Helvetica,sans-Serif" font-size="10.00">Eigen::SparseMatrix</text>
<text text-anchor="middle" x="377.5" y="-105.5" font-family="Helvetica,sans-Serif" font-size="10.00">::rows</text>
</a>
</g>
</g>
<!-- Node304&#45;&gt;Node311 -->
<g id="edge8" class="edge"><title>Node304&#45;&gt;Node311</title>
<path fill="none" stroke="midnightblue" d="M218.515,-196.288C235.473,-179.897 264.557,-154.072 294,-138.5 299.556,-135.561 305.51,-132.914 311.582,-130.541"/>
<polygon fill="midnightblue" stroke="midnightblue" points="312.986,-133.755 321.179,-127.037 310.585,-127.179 312.986,-133.755"/>
</g>
<!-- Node312 -->
<g id="node10" class="node"><title>Node312</title>
<g id="a_node10"><a xlink:href="classHamiltonianmatrix.html#a035cf5188e89f3f4230beb502a718ea9" target="_top" xlink:title="Hamiltonianmatrix::\lsplitComplex">
<polygon fill="none" stroke="black" points="322,-49.5 322,-79.5 433,-79.5 433,-49.5 322,-49.5"/>
<text text-anchor="start" x="330" y="-67.5" font-family="Helvetica,sans-Serif" font-size="10.00">Hamiltonianmatrix::</text>
<text text-anchor="middle" x="377.5" y="-56.5" font-family="Helvetica,sans-Serif" font-size="10.00">splitComplex</text>
</a>
</g>
</g>
<!-- Node304&#45;&gt;Node312 -->
<g id="edge9" class="edge"><title>Node304&#45;&gt;Node312</title>
<path fill="none" stroke="midnightblue" d="M210.683,-196.29C223.655,-170.457 253.459,-118.04 294,-89.5 299.591,-85.5639 305.814,-82.2365 312.266,-79.4259"/>
<polygon fill="midnightblue" stroke="midnightblue" points="313.806,-82.5811 321.834,-75.667 311.247,-76.0658 313.806,-82.5811"/>
</g>
<!-- Node313 -->
<g id="node11" class="node"><title>Node313</title>
<g id="a_node11"><a xlink:href="classEigen_1_1SparseMatrix.html#a9d4354d3f4d121d764bbed33cac05329" target="_top" xlink:title="Eigen::SparseMatrix\l::valuePtr">
<polygon fill="none" stroke="black" points="321.5,-0.5 321.5,-30.5 433.5,-30.5 433.5,-0.5 321.5,-0.5"/>
<text text-anchor="start" x="329.5" y="-18.5" font-family="Helvetica,sans-Serif" font-size="10.00">Eigen::SparseMatrix</text>
<text text-anchor="middle" x="377.5" y="-7.5" font-family="Helvetica,sans-Serif" font-size="10.00">::valuePtr</text>
</a>
</g>
</g>
<!-- Node304&#45;&gt;Node313 -->
<g id="edge10" class="edge"><title>Node304&#45;&gt;Node313</title>
<path fill="none" stroke="midnightblue" d="M207.221,-196.415C216.21,-163.157 242.282,-83.1093 294,-40.5 299.277,-36.1522 305.299,-32.56 311.63,-29.5922"/>
<polygon fill="midnightblue" stroke="midnightblue" points="313.181,-32.7382 321.078,-25.6755 310.5,-26.2718 313.181,-32.7382"/>
</g>
</g>
</svg>
