<?xml version="1.0" encoding="UTF-8" standalone="no"?>
<!DOCTYPE svg PUBLIC "-//W3C//DTD SVG 1.1//EN"
 "http://www.w3.org/Graphics/SVG/1.1/DTD/svg11.dtd">
<!-- Generated by graphviz version 2.38.0 (20140413.2041)
 -->
<!-- Title: Eigen::Hyperplane::Hyperplane Pages: 1 -->
<svg width="450pt" height="186pt"
 viewBox="0.00 0.00 450.00 186.00" xmlns="http://www.w3.org/2000/svg" xmlns:xlink="http://www.w3.org/1999/xlink">
<g id="graph0" class="graph" transform="scale(1 1) rotate(0) translate(4 182)">
<title>Eigen::Hyperplane::Hyperplane</title>
<!-- Node20 -->
<g id="node1" class="node"><title>Node20</title>
<polygon fill="#bfbfbf" stroke="black" points="0,-73.5 0,-103.5 110,-103.5 110,-73.5 0,-73.5"/>
<text text-anchor="start" x="8" y="-91.5" font-family="Helvetica,sans-Serif" font-size="10.00">Eigen::Hyperplane::</text>
<text text-anchor="middle" x="55" y="-80.5" font-family="Helvetica,sans-Serif" font-size="10.00">Hyperplane</text>
</g>
<!-- Node21 -->
<g id="node2" class="node"><title>Node21</title>
<g id="a_node2"><a xlink:href="classEigen_1_1ParametrizedLine.html#a38c1c1eb94eb945a70a567ceadf3c950" target="_top" xlink:title="Eigen::ParametrizedLine\l::direction">
<polygon fill="none" stroke="black" points="146,-147.5 146,-177.5 278,-177.5 278,-147.5 146,-147.5"/>
<text text-anchor="start" x="154" y="-165.5" font-family="Helvetica,sans-Serif" font-size="10.00">Eigen::ParametrizedLine</text>
<text text-anchor="middle" x="212" y="-154.5" font-family="Helvetica,sans-Serif" font-size="10.00">::direction</text>
</a>
</g>
</g>
<!-- Node20&#45;&gt;Node21 -->
<g id="edge1" class="edge"><title>Node20&#45;&gt;Node21</title>
<path fill="none" stroke="midnightblue" d="M80.6822,-103.563C98.4737,-114.084 123.258,-128.059 146,-138.5 149.813,-140.25 153.793,-141.969 157.824,-143.633"/>
<polygon fill="midnightblue" stroke="midnightblue" points="156.683,-146.946 167.268,-147.402 159.278,-140.445 156.683,-146.946"/>
</g>
<!-- Node22 -->
<g id="node3" class="node"><title>Node22</title>
<g id="a_node3"><a xlink:href="classEigen_1_1Hyperplane.html#ad3da930fc7025604f2f174651089b2a8" target="_top" xlink:title="Eigen::Hyperplane::\lnormal">
<polygon fill="none" stroke="black" points="157,-98.5 157,-128.5 267,-128.5 267,-98.5 157,-98.5"/>
<text text-anchor="start" x="165" y="-116.5" font-family="Helvetica,sans-Serif" font-size="10.00">Eigen::Hyperplane::</text>
<text text-anchor="middle" x="212" y="-105.5" font-family="Helvetica,sans-Serif" font-size="10.00">normal</text>
</a>
</g>
</g>
<!-- Node20&#45;&gt;Node22 -->
<g id="edge2" class="edge"><title>Node20&#45;&gt;Node22</title>
<path fill="none" stroke="midnightblue" d="M110.211,-97.2438C122.011,-99.1469 134.604,-101.178 146.749,-103.137"/>
<polygon fill="midnightblue" stroke="midnightblue" points="146.389,-106.624 156.819,-104.761 147.504,-99.7134 146.389,-106.624"/>
</g>
<!-- Node24 -->
<g id="node5" class="node"><title>Node24</title>
<g id="a_node5"><a xlink:href="classEigen_1_1Hyperplane.html#afe2eadf3679e4a802c0e02c15049aed9" target="_top" xlink:title="Eigen::Hyperplane::\loffset">
<polygon fill="none" stroke="black" points="157,-49.5 157,-79.5 267,-79.5 267,-49.5 157,-49.5"/>
<text text-anchor="start" x="165" y="-67.5" font-family="Helvetica,sans-Serif" font-size="10.00">Eigen::Hyperplane::</text>
<text text-anchor="middle" x="212" y="-56.5" font-family="Helvetica,sans-Serif" font-size="10.00">offset</text>
</a>
</g>
</g>
<!-- Node20&#45;&gt;Node24 -->
<g id="edge4" class="edge"><title>Node20&#45;&gt;Node24</title>
<path fill="none" stroke="midnightblue" d="M110.211,-80.106C122.011,-78.279 134.604,-76.3291 146.749,-74.4485"/>
<polygon fill="midnightblue" stroke="midnightblue" points="147.472,-77.8783 156.819,-72.8893 146.401,-70.9607 147.472,-77.8783"/>
</g>
<!-- Node26 -->
<g id="node7" class="node"><title>Node26</title>
<g id="a_node7"><a xlink:href="classEigen_1_1ParametrizedLine.html#a587330ad5af9902fdbc8d32a89810e37" target="_top" xlink:title="Eigen::ParametrizedLine\l::origin">
<polygon fill="none" stroke="black" points="146,-0.5 146,-30.5 278,-30.5 278,-0.5 146,-0.5"/>
<text text-anchor="start" x="154" y="-18.5" font-family="Helvetica,sans-Serif" font-size="10.00">Eigen::ParametrizedLine</text>
<text text-anchor="middle" x="212" y="-7.5" font-family="Helvetica,sans-Serif" font-size="10.00">::origin</text>
</a>
</g>
</g>
<!-- Node20&#45;&gt;Node26 -->
<g id="edge7" class="edge"><title>Node20&#45;&gt;Node26</title>
<path fill="none" stroke="midnightblue" d="M81.4881,-73.3337C99.238,-63.0943 123.644,-49.6483 146,-39.5 149.882,-37.7379 153.934,-36.0038 158.036,-34.3236"/>
<polygon fill="midnightblue" stroke="midnightblue" points="159.635,-37.4548 167.639,-30.5134 157.053,-30.9483 159.635,-37.4548"/>
</g>
<!-- Node23 -->
<g id="node4" class="node"><title>Node23</title>
<g id="a_node4"><a xlink:href="classEigen_1_1Hyperplane.html#a44f0dab75a838cdadf1df9150648b8ed" target="_top" xlink:title="Eigen::Hyperplane::dim">
<polygon fill="none" stroke="black" points="314,-101 314,-120 442,-120 442,-101 314,-101"/>
<text text-anchor="middle" x="378" y="-108" font-family="Helvetica,sans-Serif" font-size="10.00">Eigen::Hyperplane::dim</text>
</a>
</g>
</g>
<!-- Node22&#45;&gt;Node23 -->
<g id="edge3" class="edge"><title>Node22&#45;&gt;Node23</title>
<path fill="none" stroke="midnightblue" d="M267.154,-112.509C278.817,-112.296 291.332,-112.067 303.588,-111.843"/>
<polygon fill="midnightblue" stroke="midnightblue" points="303.864,-115.339 313.799,-111.656 303.736,-108.34 303.864,-115.339"/>
</g>
<!-- Node24&#45;&gt;Node23 -->
<g id="edge6" class="edge"><title>Node24&#45;&gt;Node23</title>
<path fill="none" stroke="midnightblue" d="M266.7,-79.5621C288.215,-85.5968 312.692,-92.4625 333.114,-98.1905"/>
<polygon fill="midnightblue" stroke="midnightblue" points="332.209,-101.572 342.782,-100.902 334.099,-94.8317 332.209,-101.572"/>
</g>
<!-- Node25 -->
<g id="node6" class="node"><title>Node25</title>
<g id="a_node6"><a xlink:href="classEigen_1_1PlainObjectBase.html#afbfc12954f16d21aedb7bd839f64a278" target="_top" xlink:title="Eigen::PlainObjectBase\l::coeff">
<polygon fill="none" stroke="black" points="315,-49.5 315,-79.5 441,-79.5 441,-49.5 315,-49.5"/>
<text text-anchor="start" x="323" y="-67.5" font-family="Helvetica,sans-Serif" font-size="10.00">Eigen::PlainObjectBase</text>
<text text-anchor="middle" x="378" y="-56.5" font-family="Helvetica,sans-Serif" font-size="10.00">::coeff</text>
</a>
</g>
</g>
<!-- Node24&#45;&gt;Node25 -->
<g id="edge5" class="edge"><title>Node24&#45;&gt;Node25</title>
<path fill="none" stroke="midnightblue" d="M267.154,-64.5C279.228,-64.5 292.215,-64.5 304.884,-64.5"/>
<polygon fill="midnightblue" stroke="midnightblue" points="304.951,-68.0001 314.951,-64.5 304.951,-61.0001 304.951,-68.0001"/>
</g>
</g>
</svg>
