<?xml version="1.0" encoding="UTF-8" standalone="no"?>
<!DOCTYPE svg PUBLIC "-//W3C//DTD SVG 1.1//EN"
 "http://www.w3.org/Graphics/SVG/1.1/DTD/svg11.dtd">
<!-- Generated by graphviz version 2.38.0 (20140413.2041)
 -->
<!-- Title: Eigen::SkylineInplaceLU::SkylineInplaceLU Pages: 1 -->
<svg width="369pt" height="88pt"
 viewBox="0.00 0.00 369.00 88.00" xmlns="http://www.w3.org/2000/svg" xmlns:xlink="http://www.w3.org/1999/xlink">
<g id="graph0" class="graph" transform="scale(1 1) rotate(0) translate(4 84)">
<title>Eigen::SkylineInplaceLU::SkylineInplaceLU</title>
<!-- Node0 -->
<g id="node1" class="node"><title>Node0</title>
<polygon fill="#bfbfbf" stroke="black" points="0,-24.5 0,-54.5 128,-54.5 128,-24.5 0,-24.5"/>
<text text-anchor="start" x="8" y="-42.5" font-family="Helvetica,sans-Serif" font-size="10.00">Eigen::SkylineInplaceLU</text>
<text text-anchor="middle" x="64" y="-31.5" font-family="Helvetica,sans-Serif" font-size="10.00">::SkylineInplaceLU</text>
</g>
<!-- Node1 -->
<g id="node2" class="node"><title>Node1</title>
<g id="a_node2"><a xlink:href="classEigen_1_1SkylineInplaceLU.html#a590e9a988b2843712a29a541787e6c38" target="_top" xlink:title="Eigen::SkylineInplaceLU\l::compute">
<polygon fill="none" stroke="black" points="164,-49.5 164,-79.5 292,-79.5 292,-49.5 164,-49.5"/>
<text text-anchor="start" x="172" y="-67.5" font-family="Helvetica,sans-Serif" font-size="10.00">Eigen::SkylineInplaceLU</text>
<text text-anchor="middle" x="228" y="-56.5" font-family="Helvetica,sans-Serif" font-size="10.00">::compute</text>
</a>
</g>
</g>
<!-- Node0&#45;&gt;Node1 -->
<g id="edge1" class="edge"><title>Node0&#45;&gt;Node1</title>
<path fill="none" stroke="midnightblue" d="M128.097,-49.2372C136.526,-50.538 145.227,-51.8807 153.81,-53.2053"/>
<polygon fill="midnightblue" stroke="midnightblue" points="153.392,-56.682 163.808,-54.7482 154.459,-49.7639 153.392,-56.682"/>
</g>
<!-- Node4 -->
<g id="node5" class="node"><title>Node4</title>
<g id="a_node5"><a xlink:href="classEigen_1_1SkylineInplaceLU.html#a218636f299e9c066a07cb4be660267d1" target="_top" xlink:title="Eigen::SkylineInplaceLU\l::computeRowMajor">
<polygon fill="none" stroke="black" points="164,-0.5 164,-30.5 292,-30.5 292,-0.5 164,-0.5"/>
<text text-anchor="start" x="172" y="-18.5" font-family="Helvetica,sans-Serif" font-size="10.00">Eigen::SkylineInplaceLU</text>
<text text-anchor="middle" x="228" y="-7.5" font-family="Helvetica,sans-Serif" font-size="10.00">::computeRowMajor</text>
</a>
</g>
</g>
<!-- Node0&#45;&gt;Node4 -->
<g id="edge4" class="edge"><title>Node0&#45;&gt;Node4</title>
<path fill="none" stroke="midnightblue" d="M128.097,-30.1523C136.526,-28.9035 145.227,-27.6145 153.81,-26.3429"/>
<polygon fill="midnightblue" stroke="midnightblue" points="154.429,-29.7895 163.808,-24.8617 153.403,-22.8651 154.429,-29.7895"/>
</g>
<!-- Node2 -->
<g id="node3" class="node"><title>Node2</title>
<g id="a_node3"><a xlink:href="MatrixBase__row_8cpp.html#a64ef8efef59f875033a27e7cbbc879ec" target="_top" xlink:title="row">
<polygon fill="none" stroke="black" points="328,-52 328,-71 361,-71 361,-52 328,-52"/>
<text text-anchor="middle" x="344.5" y="-59" font-family="Helvetica,sans-Serif" font-size="10.00">row</text>
</a>
</g>
</g>
<!-- Node1&#45;&gt;Node2 -->
<g id="edge2" class="edge"><title>Node1&#45;&gt;Node2</title>
<path fill="none" stroke="midnightblue" d="M292.278,-62.8421C301.277,-62.6063 310.076,-62.3757 317.771,-62.1741"/>
<polygon fill="midnightblue" stroke="midnightblue" points="317.914,-65.6717 327.819,-61.9108 317.731,-58.6741 317.914,-65.6717"/>
</g>
<!-- Node3 -->
<g id="node4" class="node"><title>Node3</title>
<g id="a_node4"><a xlink:href="MatrixBase__col_8cpp.html#aa168d9544aa6d49fce0cbfc0bec849b0" target="_top" xlink:title="col">
<polygon fill="none" stroke="black" points="329.5,-11 329.5,-30 359.5,-30 359.5,-11 329.5,-11"/>
<text text-anchor="middle" x="344.5" y="-18" font-family="Helvetica,sans-Serif" font-size="10.00">col</text>
</a>
</g>
</g>
<!-- Node1&#45;&gt;Node3 -->
<g id="edge3" class="edge"><title>Node1&#45;&gt;Node3</title>
<path fill="none" stroke="midnightblue" d="M268.671,-49.4318C276.411,-46.4792 284.462,-43.3993 292,-40.5 301.008,-37.0351 310.891,-33.204 319.57,-29.83"/>
<polygon fill="midnightblue" stroke="midnightblue" points="321.031,-33.0173 329.08,-26.1284 318.492,-26.494 321.031,-33.0173"/>
</g>
<!-- Node4&#45;&gt;Node2 -->
<g id="edge5" class="edge"><title>Node4&#45;&gt;Node2</title>
<path fill="none" stroke="midnightblue" d="M267.002,-30.5131C275.249,-33.7901 283.921,-37.2501 292,-40.5 300.628,-43.9708 310.053,-47.8024 318.455,-51.2321"/>
<polygon fill="midnightblue" stroke="midnightblue" points="317.157,-54.4828 327.738,-55.0279 319.806,-48.0035 317.157,-54.4828"/>
</g>
<!-- Node4&#45;&gt;Node3 -->
<g id="edge6" class="edge"><title>Node4&#45;&gt;Node3</title>
<path fill="none" stroke="midnightblue" d="M292.278,-18.2632C301.808,-18.6794 311.112,-19.0857 319.119,-19.4353"/>
<polygon fill="midnightblue" stroke="midnightblue" points="318.989,-22.9329 329.133,-19.8726 319.295,-15.9396 318.989,-22.9329"/>
</g>
</g>
</svg>
