<?xml version="1.0" encoding="UTF-8" standalone="no"?>
<!DOCTYPE svg PUBLIC "-//W3C//DTD SVG 1.1//EN"
 "http://www.w3.org/Graphics/SVG/1.1/DTD/svg11.dtd">
<!-- Generated by graphviz version 2.38.0 (20140413.2041)
 -->
<!-- Title: Eigen::SparseLU::logAbsDeterminant Pages: 1 -->
<!--zoomable 104 -->
<svg id="main" version="1.1" xmlns="http://www.w3.org/2000/svg" xmlns:xlink="http://www.w3.org/1999/xlink" xml:space="preserve" onload="init(evt)">
<style type="text/css"><![CDATA[
.edge:hover path { stroke: red; }
.edge:hover polygon { stroke: red; fill: red; }
]]></style>
<script type="text/javascript"><![CDATA[
var edges = document.getElementsByTagName('g');
if (edges && edges.length) {
  for (var i=0;i<edges.length;i++) {
    if (edges[i].id.substr(0,4)=='edge') {
      edges[i].setAttribute('class','edge');
    }
  }
}
]]></script>
        <defs>
                <circle id="rim" cx="0" cy="0" r="7"/>
                <circle id="rim2" cx="0" cy="0" r="3.5"/>
                <g id="zoomPlus">
                        <use xlink:href="#rim" fill="#404040">
                                <set attributeName="fill" to="#808080" begin="zoomplus.mouseover" end="zoomplus.mouseout"/>
                        </use>
                        <path d="M-4,0h8M0,-4v8" fill="none" stroke="white" stroke-width="1.5" pointer-events="none"/>
                </g>
                <g id="zoomMin">
                        <use xlink:href="#rim" fill="#404040">
                                <set attributeName="fill" to="#808080" begin="zoomminus.mouseover" end="zoomminus.mouseout"/>
                        </use>
                        <path d="M-4,0h8" fill="none" stroke="white" stroke-width="1.5" pointer-events="none"/>
                </g>
                <g id="dirArrow">
                        <path fill="none" stroke="white" stroke-width="1.5" d="M0,-3.0v7 M-2.5,-0.5L0,-3.0L2.5,-0.5"/>
                </g>
               <g id="resetDef">
                       <use xlink:href="#rim2" fill="#404040">
                               <set attributeName="fill" to="#808080" begin="reset.mouseover" end="reset.mouseout"/>
                       </use>
               </g>
        </defs>

<script type="text/javascript">
var viewWidth = 505;
var viewHeight = 104;
var sectionId = 'dynsection-19';
</script>
<script xlink:href="svgpan.js"/>
<svg id="graph" class="graph">
<g id="viewport">
<title>Eigen::SparseLU::logAbsDeterminant</title>
<!-- Node243 -->
<g id="node1" class="node"><title>Node243</title>
<polygon fill="#bfbfbf" stroke="black" points="0,-38.5 0,-57.5 194,-57.5 194,-38.5 0,-38.5"/>
<text text-anchor="middle" x="97" y="-45.5" font-family="Helvetica,sans-Serif" font-size="10.00">Eigen::SparseLU::logAbsDeterminant</text>
</g>
<!-- Node244 -->
<g id="node2" class="node"><title>Node244</title>
<g id="a_node2"><a xlink:href="ArrayCwiseUnaryOps_8h.html#a35560f7dbf19244fda7e463d14157c43" target="_top" xlink:title="abs">
<polygon fill="none" stroke="black" points="272.5,-76.5 272.5,-95.5 306.5,-95.5 306.5,-76.5 272.5,-76.5"/>
<text text-anchor="middle" x="289.5" y="-83.5" font-family="Helvetica,sans-Serif" font-size="10.00">abs</text>
</a>
</g>
</g>
<!-- Node243&#45;&gt;Node244 -->
<g id="edge1" class="edge"><title>Node243&#45;&gt;Node244</title>
<path fill="none" stroke="midnightblue" d="M146.071,-57.589C182.982,-64.9518 232.539,-74.8371 262.409,-80.7955"/>
<polygon fill="midnightblue" stroke="midnightblue" points="261.972,-84.2771 272.463,-82.8011 263.341,-77.4124 261.972,-84.2771"/>
</g>
<!-- Node245 -->
<g id="node3" class="node"><title>Node245</title>
<g id="a_node3"><a xlink:href="classEigen_1_1SparseLU.html#a634e903f97c46b55591db2e12d1d45d1" target="_top" xlink:title="Eigen::SparseLU::cols">
<polygon fill="none" stroke="black" points="230,-38.5 230,-57.5 349,-57.5 349,-38.5 230,-38.5"/>
<text text-anchor="middle" x="289.5" y="-45.5" font-family="Helvetica,sans-Serif" font-size="10.00">Eigen::SparseLU::cols</text>
</a>
</g>
</g>
<!-- Node243&#45;&gt;Node245 -->
<g id="edge2" class="edge"><title>Node243&#45;&gt;Node245</title>
<path fill="none" stroke="midnightblue" d="M194.087,-48C202.765,-48 211.433,-48 219.804,-48"/>
<polygon fill="midnightblue" stroke="midnightblue" points="219.848,-51.5001 229.848,-48 219.848,-44.5001 219.848,-51.5001"/>
</g>
<!-- Node247 -->
<g id="node5" class="node"><title>Node247</title>
<g id="a_node5"><a xlink:href="ArrayCwiseUnaryOps_8h.html#a48e72df6412ca98881afcd657352a1d5" target="_top" xlink:title="log">
<polygon fill="none" stroke="black" points="274,-0.5 274,-19.5 305,-19.5 305,-0.5 274,-0.5"/>
<text text-anchor="middle" x="289.5" y="-7.5" font-family="Helvetica,sans-Serif" font-size="10.00">log</text>
</a>
</g>
</g>
<!-- Node243&#45;&gt;Node247 -->
<g id="edge4" class="edge"><title>Node243&#45;&gt;Node247</title>
<path fill="none" stroke="midnightblue" d="M146.071,-38.411C183.571,-30.9307 234.123,-20.8468 263.824,-14.9223"/>
<polygon fill="midnightblue" stroke="midnightblue" points="264.638,-18.329 273.76,-12.9403 263.268,-11.4642 264.638,-18.329"/>
</g>
<!-- Node246 -->
<g id="node4" class="node"><title>Node246</title>
<g id="a_node4"><a xlink:href="classEigen_1_1SparseMatrix.html#aa391750e3c530227e4a5c3c52e959975" target="_top" xlink:title="Eigen::SparseMatrix\l::cols">
<polygon fill="none" stroke="black" points="385,-33 385,-63 497,-63 497,-33 385,-33"/>
<text text-anchor="start" x="393" y="-51" font-family="Helvetica,sans-Serif" font-size="10.00">Eigen::SparseMatrix</text>
<text text-anchor="middle" x="441" y="-40" font-family="Helvetica,sans-Serif" font-size="10.00">::cols</text>
</a>
</g>
</g>
<!-- Node245&#45;&gt;Node246 -->
<g id="edge3" class="edge"><title>Node245&#45;&gt;Node246</title>
<path fill="none" stroke="midnightblue" d="M349.157,-48C357.532,-48 366.189,-48 374.682,-48"/>
<polygon fill="midnightblue" stroke="midnightblue" points="374.929,-51.5001 384.929,-48 374.929,-44.5001 374.929,-51.5001"/>
</g>
</g>
</svg>
        <g id="navigator" transform="translate(0 0)" fill="#404254">
                <rect fill="#f2f5e9" fill-opacity="0.5" stroke="#606060" stroke-width=".5" x="0" y="0" width="60" height="60"/>
                <use id="zoomplus" xlink:href="#zoomPlus" x="17" y="9" onmousedown="handleZoom(evt,'in')"/>
                <use id="zoomminus" xlink:href="#zoomMin" x="42" y="9" onmousedown="handleZoom(evt,'out')"/>
                <use id="reset" xlink:href="#resetDef" x="30" y="36" onmousedown="handleReset()"/>
                <g id="arrowUp" xlink:href="#dirArrow" transform="translate(30 24)" onmousedown="handlePan(0,-1)">
                  <use xlink:href="#rim" fill="#404040">
                        <set attributeName="fill" to="#808080" begin="arrowUp.mouseover" end="arrowUp.mouseout"/>
                  </use>
                  <path fill="none" stroke="white" stroke-width="1.5" d="M0,-3.0v7 M-2.5,-0.5L0,-3.0L2.5,-0.5"/>
                </g>
                <g id="arrowRight" xlink:href="#dirArrow" transform="rotate(90) translate(36 -43)" onmousedown="handlePan(1,0)">
                  <use xlink:href="#rim" fill="#404040">
                        <set attributeName="fill" to="#808080" begin="arrowRight.mouseover" end="arrowRight.mouseout"/>
                  </use>
                  <path fill="none" stroke="white" stroke-width="1.5" d="M0,-3.0v7 M-2.5,-0.5L0,-3.0L2.5,-0.5"/>
                </g>
                <g id="arrowDown" xlink:href="#dirArrow" transform="rotate(180) translate(-30 -48)" onmousedown="handlePan(0,1)">
                  <use xlink:href="#rim" fill="#404040">
                        <set attributeName="fill" to="#808080" begin="arrowDown.mouseover" end="arrowDown.mouseout"/>
                  </use>
                  <path fill="none" stroke="white" stroke-width="1.5" d="M0,-3.0v7 M-2.5,-0.5L0,-3.0L2.5,-0.5"/>
                </g>
                <g id="arrowLeft" xlink:href="#dirArrow" transform="rotate(270) translate(-36 17)" onmousedown="handlePan(-1,0)">
                  <use xlink:href="#rim" fill="#404040">
                        <set attributeName="fill" to="#808080" begin="arrowLeft.mouseover" end="arrowLeft.mouseout"/>
                  </use>
                  <path fill="none" stroke="white" stroke-width="1.5" d="M0,-3.0v7 M-2.5,-0.5L0,-3.0L2.5,-0.5"/>
                </g>
        </g>
        <svg viewBox="0 0 15 15" width="100%" height="30px" preserveAspectRatio="xMaxYMin meet">
         <g id="arrow_out" transform="scale(0.3 0.3)">
          <a xlink:href="classEigen_1_1SparseLU_a89e30a7df205596784a5a73f4768eaec_cgraph_org.svg" target="_base">
           <rect id="button" ry="5" rx="5" y="6" x="6" height="38" width="38"
                fill="#f2f5e9" fill-opacity="0.5" stroke="#606060" stroke-width="1.0"/>
           <path id="arrow"
             d="M 11.500037,31.436501 C 11.940474,20.09759 22.043105,11.32322 32.158766,21.979434 L 37.068811,17.246167 C 37.068811,17.246167 37.088388,32 37.088388,32 L 22.160133,31.978069 C 22.160133,31.978069 26.997745,27.140456 26.997745,27.140456 C 18.528582,18.264221 13.291696,25.230495 11.500037,31.436501 z"
             style="fill:#404040;"/>
          </a>
         </g>
        </svg>
</svg>
