<?xml version="1.0" encoding="UTF-8" standalone="no"?>
<!DOCTYPE svg PUBLIC "-//W3C//DTD SVG 1.1//EN"
 "http://www.w3.org/Graphics/SVG/1.1/DTD/svg11.dtd">
<!-- Generated by graphviz version 2.38.0 (20140413.2041)
 -->
<!-- Title: Eigen::Spline::basisFunctions Pages: 1 -->
<svg width="471pt" height="47pt"
 viewBox="0.00 0.00 471.00 47.00" xmlns="http://www.w3.org/2000/svg" xmlns:xlink="http://www.w3.org/1999/xlink">
<g id="graph0" class="graph" transform="scale(1 1) rotate(0) translate(4 43)">
<title>Eigen::Spline::basisFunctions</title>
<!-- Node24 -->
<g id="node1" class="node"><title>Node24</title>
<polygon fill="#bfbfbf" stroke="black" points="0,-0.5 0,-19.5 154,-19.5 154,-0.5 0,-0.5"/>
<text text-anchor="middle" x="77" y="-7.5" font-family="Helvetica,sans-Serif" font-size="10.00">Eigen::Spline::basisFunctions</text>
</g>
<!-- Node25 -->
<g id="node2" class="node"><title>Node25</title>
<g id="a_node2"><a xlink:href="classEigen_1_1Spline.html#a0fc81e475d3a0ba34da1bd97f2e8fbc7" target="_top" xlink:title="Returns the ctrls of the underlying spline. ">
<polygon fill="none" stroke="black" points="190,-19.5 190,-38.5 294,-38.5 294,-19.5 190,-19.5"/>
<text text-anchor="middle" x="242" y="-26.5" font-family="Helvetica,sans-Serif" font-size="10.00">Eigen::Spline::ctrls</text>
</a>
</g>
</g>
<!-- Node24&#45;&gt;Node25 -->
<g id="edge1" class="edge"><title>Node24&#45;&gt;Node25</title>
<path fill="none" stroke="midnightblue" d="M164.186,-20.0463C172.979,-21.0712 181.699,-22.0876 189.934,-23.0475"/>
<polygon fill="midnightblue" stroke="midnightblue" points="164.588,-16.5695 154.25,-18.8881 163.778,-23.5224 164.588,-16.5695"/>
</g>
<!-- Node26 -->
<g id="node3" class="node"><title>Node26</title>
<g id="a_node3"><a xlink:href="classEigen_1_1Spline.html#a3c7e1838eae4ee7e341ef9d3dbf9ba45" target="_top" xlink:title="Returns the spline value at a given site . ">
<polygon fill="none" stroke="black" points="330,-19.5 330,-38.5 463,-38.5 463,-19.5 330,-19.5"/>
<text text-anchor="middle" x="396.5" y="-26.5" font-family="Helvetica,sans-Serif" font-size="10.00">Eigen::Spline::operator()</text>
</a>
</g>
</g>
<!-- Node24&#45;&gt;Node26 -->
<g id="edge4" class="edge"><title>Node24&#45;&gt;Node26</title>
<path fill="none" stroke="midnightblue" d="M164.284,-6.35555C203.885,-5.61764 251.407,-6.04775 294,-10 313.993,-11.8552 335.92,-15.7238 354.262,-19.489"/>
<polygon fill="midnightblue" stroke="midnightblue" points="164.053,-2.85959 154.131,-6.57325 164.204,-9.85798 164.053,-2.85959"/>
</g>
<!-- Node25&#45;&gt;Node26 -->
<g id="edge2" class="edge"><title>Node25&#45;&gt;Node26</title>
<path fill="none" stroke="midnightblue" d="M304.292,-22.3668C312.688,-22.2341 321.336,-22.2145 329.806,-22.3078"/>
<polygon fill="midnightblue" stroke="midnightblue" points="304.127,-18.8695 294.205,-22.5846 304.278,-25.8678 304.127,-18.8695"/>
</g>
<!-- Node26&#45;&gt;Node25 -->
<g id="edge3" class="edge"><title>Node26&#45;&gt;Node25</title>
<path fill="none" stroke="midnightblue" d="M319.697,-35.7499C311.059,-35.7539 302.414,-35.6424 294.205,-35.4154"/>
<polygon fill="midnightblue" stroke="midnightblue" points="319.826,-39.2493 329.806,-35.6922 319.786,-32.2494 319.826,-39.2493"/>
</g>
</g>
</svg>
