<?xml version="1.0" encoding="UTF-8" standalone="no"?>
<!DOCTYPE svg PUBLIC "-//W3C//DTD SVG 1.1//EN"
 "http://www.w3.org/Graphics/SVG/1.1/DTD/svg11.dtd">
<!-- Generated by graphviz version 2.38.0 (20140413.2041)
 -->
<!-- Title: Eigen::FullPivLU::inverse Pages: 1 -->
<svg width="265pt" height="66pt"
 viewBox="0.00 0.00 265.00 66.00" xmlns="http://www.w3.org/2000/svg" xmlns:xlink="http://www.w3.org/1999/xlink">
<g id="graph0" class="graph" transform="scale(1 1) rotate(0) translate(4 62)">
<title>Eigen::FullPivLU::inverse</title>
<!-- Node85 -->
<g id="node1" class="node"><title>Node85</title>
<polygon fill="#bfbfbf" stroke="black" points="0,-19.5 0,-38.5 130,-38.5 130,-19.5 0,-19.5"/>
<text text-anchor="middle" x="65" y="-26.5" font-family="Helvetica,sans-Serif" font-size="10.00">Eigen::FullPivLU::inverse</text>
</g>
<!-- Node86 -->
<g id="node2" class="node"><title>Node86</title>
<g id="a_node2"><a xlink:href="test_2lu_8cpp.html#a7754798ba2c63ea970514b317e050b7d" target="_top" xlink:title="lu_invertible">
<polygon fill="none" stroke="black" points="174.5,-38.5 174.5,-57.5 248.5,-57.5 248.5,-38.5 174.5,-38.5"/>
<text text-anchor="middle" x="211.5" y="-45.5" font-family="Helvetica,sans-Serif" font-size="10.00">lu_invertible</text>
</a>
</g>
</g>
<!-- Node85&#45;&gt;Node86 -->
<g id="edge1" class="edge"><title>Node85&#45;&gt;Node86</title>
<path fill="none" stroke="midnightblue" d="M140.154,-38.7504C151.993,-40.3071 163.764,-41.8548 174.194,-43.2262"/>
<polygon fill="midnightblue" stroke="midnightblue" points="140.592,-35.2779 130.221,-37.4443 139.68,-42.2182 140.592,-35.2779"/>
</g>
<!-- Node87 -->
<g id="node3" class="node"><title>Node87</title>
<g id="a_node3"><a xlink:href="test_2lu_8cpp.html#a04b439edcc62d2ff657795ffa6c72b63" target="_top" xlink:title="lu_verify_assert">
<polygon fill="none" stroke="black" points="166,-0.5 166,-19.5 257,-19.5 257,-0.5 166,-0.5"/>
<text text-anchor="middle" x="211.5" y="-7.5" font-family="Helvetica,sans-Serif" font-size="10.00">lu_verify_assert</text>
</a>
</g>
</g>
<!-- Node85&#45;&gt;Node87 -->
<g id="edge2" class="edge"><title>Node85&#45;&gt;Node87</title>
<path fill="none" stroke="midnightblue" d="M140.154,-19.2496C148.962,-18.0914 157.733,-16.9382 165.942,-15.8589"/>
<polygon fill="midnightblue" stroke="midnightblue" points="139.68,-15.7818 130.221,-20.5557 140.592,-22.7221 139.68,-15.7818"/>
</g>
</g>
</svg>
