<?xml version="1.0" encoding="UTF-8" standalone="no"?>
<!DOCTYPE svg PUBLIC "-//W3C//DTD SVG 1.1//EN"
 "http://www.w3.org/Graphics/SVG/1.1/DTD/svg11.dtd">
<!-- Generated by graphviz version 2.38.0 (20140413.2041)
 -->
<!-- Title: Eigen::DGMRES::dgmresComputeDeflationData Pages: 1 -->
<svg width="555pt" height="140pt"
 viewBox="0.00 0.00 555.00 140.00" xmlns="http://www.w3.org/2000/svg" xmlns:xlink="http://www.w3.org/1999/xlink">
<g id="graph0" class="graph" transform="scale(1 1) rotate(0) translate(4 136)">
<title>Eigen::DGMRES::dgmresComputeDeflationData</title>
<!-- Node17 -->
<g id="node1" class="node"><title>Node17</title>
<polygon fill="#bfbfbf" stroke="black" points="0,-63 0,-93 178,-93 178,-63 0,-63"/>
<text text-anchor="start" x="8" y="-81" font-family="Helvetica,sans-Serif" font-size="10.00">Eigen::DGMRES::dgmresCompute</text>
<text text-anchor="middle" x="89" y="-70" font-family="Helvetica,sans-Serif" font-size="10.00">DeflationData</text>
</g>
<!-- Node18 -->
<g id="node2" class="node"><title>Node18</title>
<g id="a_node2"><a xlink:href="ArrayCwiseUnaryOps_8h.html#a35560f7dbf19244fda7e463d14157c43" target="_top" xlink:title="abs">
<polygon fill="none" stroke="black" points="262,-112.5 262,-131.5 296,-131.5 296,-112.5 262,-112.5"/>
<text text-anchor="middle" x="279" y="-119.5" font-family="Helvetica,sans-Serif" font-size="10.00">abs</text>
</a>
</g>
</g>
<!-- Node17&#45;&gt;Node18 -->
<g id="edge1" class="edge"><title>Node17&#45;&gt;Node18</title>
<path fill="none" stroke="midnightblue" d="M154.173,-93.0192C187.68,-100.861 226.828,-110.024 251.993,-115.913"/>
<polygon fill="midnightblue" stroke="midnightblue" points="251.33,-119.353 261.865,-118.224 252.925,-112.537 251.33,-119.353"/>
</g>
<!-- Node19 -->
<g id="node3" class="node"><title>Node19</title>
<g id="a_node3"><a xlink:href="classEigen_1_1PlainObjectBase.html#ac21ad5f989f320e46958b75ac8d9a1da" target="_top" xlink:title="Eigen::PlainObjectBase\l::setZero">
<polygon fill="none" stroke="black" points="216,-63 216,-93 342,-93 342,-63 216,-63"/>
<text text-anchor="start" x="224" y="-81" font-family="Helvetica,sans-Serif" font-size="10.00">Eigen::PlainObjectBase</text>
<text text-anchor="middle" x="279" y="-70" font-family="Helvetica,sans-Serif" font-size="10.00">::setZero</text>
</a>
</g>
</g>
<!-- Node17&#45;&gt;Node19 -->
<g id="edge2" class="edge"><title>Node17&#45;&gt;Node19</title>
<path fill="none" stroke="midnightblue" d="M178.22,-78C187.439,-78 196.732,-78 205.743,-78"/>
<polygon fill="midnightblue" stroke="midnightblue" points="205.779,-81.5001 215.779,-78 205.779,-74.5001 205.779,-81.5001"/>
</g>
<!-- Node20 -->
<g id="node4" class="node"><title>Node20</title>
<g id="a_node4"><a xlink:href="namespaceEigen_1_1internal.html#afe2a11c61eff70f7f68681a557fa21e7" target="_top" xlink:title="Computes a permutation vector to have a sorted sequence. ">
<polygon fill="none" stroke="black" points="214,-14 214,-44 344,-44 344,-14 214,-14"/>
<text text-anchor="start" x="222" y="-32" font-family="Helvetica,sans-Serif" font-size="10.00">Eigen::internal::sortWith</text>
<text text-anchor="middle" x="279" y="-21" font-family="Helvetica,sans-Serif" font-size="10.00">Permutation</text>
</a>
</g>
</g>
<!-- Node17&#45;&gt;Node20 -->
<g id="edge3" class="edge"><title>Node17&#45;&gt;Node20</title>
<path fill="none" stroke="midnightblue" d="M147.684,-62.9654C167.534,-57.7917 189.937,-51.9525 210.499,-46.5934"/>
<polygon fill="midnightblue" stroke="midnightblue" points="211.631,-49.9152 220.425,-44.0062 209.866,-43.1415 211.631,-49.9152"/>
</g>
<!-- Node21 -->
<g id="node5" class="node"><title>Node21</title>
<g id="a_node5"><a xlink:href="namespacestd.html#ad33a269e67f055aaa18f57f76b015387" target="_top" xlink:title="std::swap">
<polygon fill="none" stroke="black" points="380,-38.5 380,-57.5 442,-57.5 442,-38.5 380,-38.5"/>
<text text-anchor="middle" x="411" y="-45.5" font-family="Helvetica,sans-Serif" font-size="10.00">std::swap</text>
</a>
</g>
</g>
<!-- Node20&#45;&gt;Node21 -->
<g id="edge4" class="edge"><title>Node20&#45;&gt;Node21</title>
<path fill="none" stroke="midnightblue" d="M344.238,-38.3887C352.964,-39.664 361.708,-40.9419 369.841,-42.1306"/>
<polygon fill="midnightblue" stroke="midnightblue" points="369.368,-45.5986 379.769,-43.5817 370.381,-38.6722 369.368,-45.5986"/>
</g>
<!-- Node23 -->
<g id="node7" class="node"><title>Node23</title>
<g id="a_node7"><a xlink:href="common_8h.html#a94360d20ee722c1bcb23e5b2fbba8554" target="_top" xlink:title="matrix">
<polygon fill="none" stroke="black" points="387.5,-0.5 387.5,-19.5 434.5,-19.5 434.5,-0.5 387.5,-0.5"/>
<text text-anchor="middle" x="411" y="-7.5" font-family="Helvetica,sans-Serif" font-size="10.00">matrix</text>
</a>
</g>
</g>
<!-- Node20&#45;&gt;Node23 -->
<g id="edge6" class="edge"><title>Node20&#45;&gt;Node23</title>
<path fill="none" stroke="midnightblue" d="M344.238,-19.6113C355.728,-17.9321 367.249,-16.2483 377.365,-14.7697"/>
<polygon fill="midnightblue" stroke="midnightblue" points="377.951,-18.2214 387.339,-13.3119 376.938,-11.295 377.951,-18.2214"/>
</g>
<!-- Node22 -->
<g id="node6" class="node"><title>Node22</title>
<g id="a_node6"><a xlink:href="namespacempfr.html#aa617cb4d22ad8120d69f10b306b97f19" target="_top" xlink:title="mpfr::swap">
<polygon fill="none" stroke="black" points="478,-38.5 478,-57.5 547,-57.5 547,-38.5 478,-38.5"/>
<text text-anchor="middle" x="512.5" y="-45.5" font-family="Helvetica,sans-Serif" font-size="10.00">mpfr::swap</text>
</a>
</g>
</g>
<!-- Node21&#45;&gt;Node22 -->
<g id="edge5" class="edge"><title>Node21&#45;&gt;Node22</title>
<path fill="none" stroke="midnightblue" d="M442.123,-48C450.093,-48 458.864,-48 467.409,-48"/>
<polygon fill="midnightblue" stroke="midnightblue" points="467.651,-51.5001 477.651,-48 467.651,-44.5001 467.651,-51.5001"/>
</g>
</g>
</svg>
