<?xml version="1.0" encoding="UTF-8" standalone="no"?>
<!DOCTYPE svg PUBLIC "-//W3C//DTD SVG 1.1//EN"
 "http://www.w3.org/Graphics/SVG/1.1/DTD/svg11.dtd">
<!-- Generated by graphviz version 2.38.0 (20140413.2041)
 -->
<!-- Title: Eigen::SPQR&lt; _MatrixType &gt; Pages: 1 -->
<svg width="161pt" height="151pt"
 viewBox="0.00 0.00 161.00 151.00" xmlns="http://www.w3.org/2000/svg" xmlns:xlink="http://www.w3.org/1999/xlink">
<g id="graph0" class="graph" transform="scale(1 1) rotate(0) translate(4 147)">
<title>Eigen::SPQR&lt; _MatrixType &gt;</title>
<!-- Node0 -->
<g id="node1" class="node"><title>Node0</title>
<polygon fill="#bfbfbf" stroke="black" points="0,-0.5 0,-19.5 153,-19.5 153,-0.5 0,-0.5"/>
<text text-anchor="middle" x="76.5" y="-7.5" font-family="Helvetica,sans-Serif" font-size="10.00">Eigen::SPQR&lt; _MatrixType &gt;</text>
</g>
<!-- Node1 -->
<g id="node2" class="node"><title>Node1</title>
<g id="a_node2"><a xlink:href="classEigen_1_1SparseSolverBase.html" target="_top" xlink:title="Eigen::SparseSolverBase\l\&lt; SPQR\&lt; _MatrixType \&gt; \&gt;">
<polygon fill="none" stroke="black" points="5,-56.5 5,-86.5 148,-86.5 148,-56.5 5,-56.5"/>
<text text-anchor="start" x="13" y="-74.5" font-family="Helvetica,sans-Serif" font-size="10.00">Eigen::SparseSolverBase</text>
<text text-anchor="middle" x="76.5" y="-63.5" font-family="Helvetica,sans-Serif" font-size="10.00">&lt; SPQR&lt; _MatrixType &gt; &gt;</text>
</a>
</g>
</g>
<!-- Node1&#45;&gt;Node0 -->
<g id="edge1" class="edge"><title>Node1&#45;&gt;Node0</title>
<path fill="none" stroke="midnightblue" d="M76.5,-46.2892C76.5,-36.857 76.5,-26.6548 76.5,-19.6578"/>
<polygon fill="midnightblue" stroke="midnightblue" points="73.0001,-46.3993 76.5,-56.3993 80.0001,-46.3994 73.0001,-46.3993"/>
</g>
<!-- Node2 -->
<g id="node3" class="node"><title>Node2</title>
<g id="a_node3"><a xlink:href="classEigen_1_1internal_1_1noncopyable.html" target="_top" xlink:title="Eigen::internal::noncopyable">
<polygon fill="none" stroke="black" points="0.5,-123.5 0.5,-142.5 152.5,-142.5 152.5,-123.5 0.5,-123.5"/>
<text text-anchor="middle" x="76.5" y="-130.5" font-family="Helvetica,sans-Serif" font-size="10.00">Eigen::internal::noncopyable</text>
</a>
</g>
</g>
<!-- Node2&#45;&gt;Node1 -->
<g id="edge2" class="edge"><title>Node2&#45;&gt;Node1</title>
<path fill="none" stroke="#8b1a1a" d="M76.5,-113.235C76.5,-104.586 76.5,-94.4969 76.5,-86.523"/>
<polygon fill="#8b1a1a" stroke="#8b1a1a" points="73.0001,-113.475 76.5,-123.475 80.0001,-113.475 73.0001,-113.475"/>
</g>
</g>
</svg>
