<?xml version="1.0" encoding="UTF-8" standalone="no"?>
<!DOCTYPE svg PUBLIC "-//W3C//DTD SVG 1.1//EN"
 "http://www.w3.org/Graphics/SVG/1.1/DTD/svg11.dtd">
<!-- Generated by graphviz version 2.38.0 (20140413.2041)
 -->
<!-- Title: Eigen::internal::CompressedStorage::append Pages: 1 -->
<svg width="341pt" height="160pt"
 viewBox="0.00 0.00 341.00 159.50" xmlns="http://www.w3.org/2000/svg" xmlns:xlink="http://www.w3.org/1999/xlink">
<g id="graph0" class="graph" transform="scale(1 1) rotate(0) translate(4 155.5)">
<title>Eigen::internal::CompressedStorage::append</title>
<!-- Node13 -->
<g id="node1" class="node"><title>Node13</title>
<polygon fill="#bfbfbf" stroke="black" points="0,-66 0,-96 152,-96 152,-66 0,-66"/>
<text text-anchor="start" x="8" y="-84" font-family="Helvetica,sans-Serif" font-size="10.00">Eigen::internal::Compressed</text>
<text text-anchor="middle" x="76" y="-73" font-family="Helvetica,sans-Serif" font-size="10.00">Storage::append</text>
</g>
<!-- Node14 -->
<g id="node2" class="node"><title>Node14</title>
<g id="a_node2"><a xlink:href="classEigen_1_1SparseMatrix.html#aae45e3b5fec7f6a0cdd10eec7c6d3666" target="_top" xlink:title="Eigen::SparseMatrix\l\&lt; scalar_t \&gt;::insert">
<polygon fill="none" stroke="black" points="204.5,-121 204.5,-151 316.5,-151 316.5,-121 204.5,-121"/>
<text text-anchor="start" x="212.5" y="-139" font-family="Helvetica,sans-Serif" font-size="10.00">Eigen::SparseMatrix</text>
<text text-anchor="middle" x="260.5" y="-128" font-family="Helvetica,sans-Serif" font-size="10.00">&lt; scalar_t &gt;::insert</text>
</a>
</g>
</g>
<!-- Node13&#45;&gt;Node14 -->
<g id="edge1" class="edge"><title>Node13&#45;&gt;Node14</title>
<path fill="none" stroke="midnightblue" d="M136.449,-98.9162C160.126,-106.052 187.066,-114.171 209.691,-120.989"/>
<polygon fill="midnightblue" stroke="midnightblue" points="137.454,-95.5634 126.869,-96.029 135.434,-102.266 137.454,-95.5634"/>
</g>
<!-- Node15 -->
<g id="node3" class="node"><title>Node15</title>
<g id="a_node3"><a xlink:href="classEigen_1_1SparseMatrix.html#a0ed7b169210d6a1189f6066f0c69fba4" target="_top" xlink:title="Eigen::SparseMatrix\l\&lt; scalar_t \&gt;::insertBackBy\lOuterInner">
<polygon fill="none" stroke="black" points="188,-60.5 188,-101.5 333,-101.5 333,-60.5 188,-60.5"/>
<text text-anchor="start" x="196" y="-89.5" font-family="Helvetica,sans-Serif" font-size="10.00">Eigen::SparseMatrix</text>
<text text-anchor="start" x="196" y="-78.5" font-family="Helvetica,sans-Serif" font-size="10.00">&lt; scalar_t &gt;::insertBackBy</text>
<text text-anchor="middle" x="260.5" y="-67.5" font-family="Helvetica,sans-Serif" font-size="10.00">OuterInner</text>
</a>
</g>
</g>
<!-- Node13&#45;&gt;Node15 -->
<g id="edge2" class="edge"><title>Node13&#45;&gt;Node15</title>
<path fill="none" stroke="midnightblue" d="M162.044,-81C170.628,-81 179.286,-81 187.711,-81"/>
<polygon fill="midnightblue" stroke="midnightblue" points="162.02,-77.5001 152.02,-81 162.02,-84.5001 162.02,-77.5001"/>
</g>
<!-- Node16 -->
<g id="node4" class="node"><title>Node16</title>
<g id="a_node4"><a xlink:href="classEigen_1_1SparseMatrix.html#a813f143769608dbe9b0973e6134261b9" target="_top" xlink:title="Eigen::SparseMatrix\l\&lt; scalar_t \&gt;::insertBackBy\lOuterInnerUnordered">
<polygon fill="none" stroke="black" points="188,-0.5 188,-41.5 333,-41.5 333,-0.5 188,-0.5"/>
<text text-anchor="start" x="196" y="-29.5" font-family="Helvetica,sans-Serif" font-size="10.00">Eigen::SparseMatrix</text>
<text text-anchor="start" x="196" y="-18.5" font-family="Helvetica,sans-Serif" font-size="10.00">&lt; scalar_t &gt;::insertBackBy</text>
<text text-anchor="middle" x="260.5" y="-7.5" font-family="Helvetica,sans-Serif" font-size="10.00">OuterInnerUnordered</text>
</a>
</g>
</g>
<!-- Node13&#45;&gt;Node16 -->
<g id="edge3" class="edge"><title>Node13&#45;&gt;Node16</title>
<path fill="none" stroke="midnightblue" d="M132.763,-62.6671C153.041,-56.0004 176.088,-48.4231 196.917,-41.5751"/>
<polygon fill="midnightblue" stroke="midnightblue" points="131.459,-59.4113 123.052,-65.8595 133.645,-66.0611 131.459,-59.4113"/>
</g>
</g>
</svg>
