<?xml version="1.0" encoding="UTF-8" standalone="no"?>
<!DOCTYPE svg PUBLIC "-//W3C//DTD SVG 1.1//EN"
 "http://www.w3.org/Graphics/SVG/1.1/DTD/svg11.dtd">
<!-- Generated by graphviz version 2.38.0 (20140413.2041)
 -->
<!-- Title: Eigen::PastixLLT&lt; _MatrixType, _UpLo &gt; Pages: 1 -->
<svg width="160pt" height="251pt"
 viewBox="0.00 0.00 160.00 251.00" xmlns="http://www.w3.org/2000/svg" xmlns:xlink="http://www.w3.org/1999/xlink">
<g id="graph0" class="graph" transform="scale(1 1) rotate(0) translate(4 247)">
<title>Eigen::PastixLLT&lt; _MatrixType, _UpLo &gt;</title>
<!-- Node0 -->
<g id="node1" class="node"><title>Node0</title>
<polygon fill="#bfbfbf" stroke="black" points="16.5,-0.5 16.5,-30.5 135.5,-30.5 135.5,-0.5 16.5,-0.5"/>
<text text-anchor="start" x="24.5" y="-18.5" font-family="Helvetica,sans-Serif" font-size="10.00">Eigen::PastixLLT&lt; </text>
<text text-anchor="middle" x="76" y="-7.5" font-family="Helvetica,sans-Serif" font-size="10.00">_MatrixType, _UpLo &gt;</text>
</g>
<!-- Node1 -->
<g id="node2" class="node"><title>Node1</title>
<g id="a_node2"><a xlink:href="classEigen_1_1PastixBase.html" target="_top" xlink:title="Eigen::PastixBase\&lt;\l PastixLLT\&lt; _MatrixType,\l _UpLo \&gt; \&gt;">
<polygon fill="none" stroke="black" points="10.5,-67.5 10.5,-108.5 141.5,-108.5 141.5,-67.5 10.5,-67.5"/>
<text text-anchor="start" x="18.5" y="-96.5" font-family="Helvetica,sans-Serif" font-size="10.00">Eigen::PastixBase&lt;</text>
<text text-anchor="start" x="18.5" y="-85.5" font-family="Helvetica,sans-Serif" font-size="10.00"> PastixLLT&lt; _MatrixType,</text>
<text text-anchor="middle" x="76" y="-74.5" font-family="Helvetica,sans-Serif" font-size="10.00"> _UpLo &gt; &gt;</text>
</a>
</g>
</g>
<!-- Node1&#45;&gt;Node0 -->
<g id="edge1" class="edge"><title>Node1&#45;&gt;Node0</title>
<path fill="none" stroke="midnightblue" d="M76,-57.08C76,-48.0061 76,-38.4498 76,-30.8916"/>
<polygon fill="midnightblue" stroke="midnightblue" points="72.5001,-57.3618 76,-67.3618 79.5001,-57.3619 72.5001,-57.3618"/>
</g>
<!-- Node2 -->
<g id="node3" class="node"><title>Node2</title>
<g id="a_node3"><a xlink:href="classEigen_1_1SparseSolverBase.html" target="_top" xlink:title="Eigen::SparseSolverBase\l\&lt; PastixLLT\&lt; _MatrixType,\l _UpLo \&gt; \&gt;">
<polygon fill="none" stroke="black" points="6,-145.5 6,-186.5 146,-186.5 146,-145.5 6,-145.5"/>
<text text-anchor="start" x="14" y="-174.5" font-family="Helvetica,sans-Serif" font-size="10.00">Eigen::SparseSolverBase</text>
<text text-anchor="start" x="14" y="-163.5" font-family="Helvetica,sans-Serif" font-size="10.00">&lt; PastixLLT&lt; _MatrixType,</text>
<text text-anchor="middle" x="76" y="-152.5" font-family="Helvetica,sans-Serif" font-size="10.00"> _UpLo &gt; &gt;</text>
</a>
</g>
</g>
<!-- Node2&#45;&gt;Node1 -->
<g id="edge2" class="edge"><title>Node2&#45;&gt;Node1</title>
<path fill="none" stroke="midnightblue" d="M76,-135.297C76,-126.301 76,-116.653 76,-108.506"/>
<polygon fill="midnightblue" stroke="midnightblue" points="72.5001,-135.428 76,-145.428 79.5001,-135.428 72.5001,-135.428"/>
</g>
<!-- Node3 -->
<g id="node4" class="node"><title>Node3</title>
<g id="a_node4"><a xlink:href="classEigen_1_1internal_1_1noncopyable.html" target="_top" xlink:title="Eigen::internal::noncopyable">
<polygon fill="none" stroke="black" points="0,-223.5 0,-242.5 152,-242.5 152,-223.5 0,-223.5"/>
<text text-anchor="middle" x="76" y="-230.5" font-family="Helvetica,sans-Serif" font-size="10.00">Eigen::internal::noncopyable</text>
</a>
</g>
</g>
<!-- Node3&#45;&gt;Node2 -->
<g id="edge3" class="edge"><title>Node3&#45;&gt;Node2</title>
<path fill="none" stroke="#8b1a1a" d="M76,-213.037C76,-204.708 76,-194.936 76,-186.542"/>
<polygon fill="#8b1a1a" stroke="#8b1a1a" points="72.5001,-213.234 76,-223.234 79.5001,-213.234 72.5001,-213.234"/>
</g>
</g>
</svg>
