<?xml version="1.0" encoding="UTF-8" standalone="no"?>
<!DOCTYPE svg PUBLIC "-//W3C//DTD SVG 1.1//EN"
 "http://www.w3.org/Graphics/SVG/1.1/DTD/svg11.dtd">
<!-- Generated by graphviz version 2.38.0 (20140413.2041)
 -->
<!-- Title: Eigen::internal::TensorLazyEvaluatorWritable&lt; Dimensions, Expr, Device &gt; Pages: 1 -->
<svg width="858pt" height="283pt"
 viewBox="0.00 0.00 858.00 282.50" xmlns="http://www.w3.org/2000/svg" xmlns:xlink="http://www.w3.org/1999/xlink">
<g id="graph0" class="graph" transform="scale(1 1) rotate(0) translate(4 278.5)">
<title>Eigen::internal::TensorLazyEvaluatorWritable&lt; Dimensions, Expr, Device &gt;</title>
<!-- Node5 -->
<g id="node1" class="node"><title>Node5</title>
<polygon fill="#bfbfbf" stroke="black" points="680,-171.5 680,-212.5 850,-212.5 850,-171.5 680,-171.5"/>
<text text-anchor="start" x="688" y="-200.5" font-family="Helvetica,sans-Serif" font-size="10.00">Eigen::internal::TensorLazy</text>
<text text-anchor="start" x="688" y="-189.5" font-family="Helvetica,sans-Serif" font-size="10.00">EvaluatorWritable&lt; Dimensions,</text>
<text text-anchor="middle" x="765" y="-178.5" font-family="Helvetica,sans-Serif" font-size="10.00"> Expr, Device &gt;</text>
</g>
<!-- Node6 -->
<g id="node2" class="node"><title>Node6</title>
<g id="a_node2"><a xlink:href="classEigen_1_1internal_1_1TensorLazyEvaluatorReadOnly.html" target="_top" xlink:title="Eigen::internal::TensorLazy\lEvaluatorReadOnly\&lt; Dimensions,\l Expr, Device \&gt;">
<polygon fill="none" stroke="black" points="467,-171.5 467,-212.5 643,-212.5 643,-171.5 467,-171.5"/>
<text text-anchor="start" x="475" y="-200.5" font-family="Helvetica,sans-Serif" font-size="10.00">Eigen::internal::TensorLazy</text>
<text text-anchor="start" x="475" y="-189.5" font-family="Helvetica,sans-Serif" font-size="10.00">EvaluatorReadOnly&lt; Dimensions,</text>
<text text-anchor="middle" x="555" y="-178.5" font-family="Helvetica,sans-Serif" font-size="10.00"> Expr, Device &gt;</text>
</a>
</g>
</g>
<!-- Node6&#45;&gt;Node5 -->
<g id="edge1" class="edge"><title>Node6&#45;&gt;Node5</title>
<path fill="none" stroke="midnightblue" d="M653.017,-192C661.922,-192 670.895,-192 679.675,-192"/>
<polygon fill="midnightblue" stroke="midnightblue" points="653.006,-188.5 643.006,-192 653.006,-195.5 653.006,-188.5"/>
</g>
<!-- Node7 -->
<g id="node3" class="node"><title>Node7</title>
<g id="a_node3"><a xlink:href="classEigen_1_1internal_1_1TensorLazyBaseEvaluator.html" target="_top" xlink:title="Eigen::internal::TensorLazy\lBaseEvaluator\&lt; Dimensions,\l TensorEvaluator\&lt; Expr, Device\l \&gt;::Scalar \&gt;">
<polygon fill="none" stroke="black" points="213,-222 213,-274 379,-274 379,-222 213,-222"/>
<text text-anchor="start" x="221" y="-262" font-family="Helvetica,sans-Serif" font-size="10.00">Eigen::internal::TensorLazy</text>
<text text-anchor="start" x="221" y="-251" font-family="Helvetica,sans-Serif" font-size="10.00">BaseEvaluator&lt; Dimensions,</text>
<text text-anchor="start" x="221" y="-240" font-family="Helvetica,sans-Serif" font-size="10.00"> TensorEvaluator&lt; Expr, Device</text>
<text text-anchor="middle" x="296" y="-229" font-family="Helvetica,sans-Serif" font-size="10.00"> &gt;::Scalar &gt;</text>
</a>
</g>
</g>
<!-- Node7&#45;&gt;Node6 -->
<g id="edge2" class="edge"><title>Node7&#45;&gt;Node6</title>
<path fill="none" stroke="midnightblue" d="M389.017,-227.949C414.416,-222.415 441.888,-216.429 466.993,-210.959"/>
<polygon fill="midnightblue" stroke="midnightblue" points="388.049,-224.578 379.023,-230.127 389.539,-231.418 388.049,-224.578"/>
</g>
<!-- Node8 -->
<g id="node4" class="node"><title>Node8</title>
<polygon fill="none" stroke="#bfbfbf" points="21.5,-173.5 21.5,-192.5 94.5,-192.5 94.5,-173.5 21.5,-173.5"/>
<text text-anchor="middle" x="58" y="-180.5" font-family="Helvetica,sans-Serif" font-size="10.00">Dimensions</text>
</g>
<!-- Node8&#45;&gt;Node6 -->
<g id="edge3" class="edge"><title>Node8&#45;&gt;Node6</title>
<path fill="none" stroke="#9a32cd" stroke-dasharray="5,2" d="M104.621,-183.829C186.754,-185.323 360.775,-188.487 466.537,-190.41"/>
<polygon fill="#9a32cd" stroke="#9a32cd" points="104.661,-180.33 94.5992,-183.647 104.534,-187.329 104.661,-180.33"/>
<text text-anchor="middle" x="296" y="-191" font-family="Helvetica,sans-Serif" font-size="10.00"> m_dims</text>
</g>
<!-- Node9 -->
<g id="node5" class="node"><title>Node9</title>
<g id="a_node5"><a xlink:href="structEigen_1_1TensorEvaluator.html" target="_top" xlink:title="Eigen::TensorEvaluator\l\&lt; Expr, Device \&gt;">
<polygon fill="none" stroke="black" points="233.5,-97 233.5,-127 358.5,-127 358.5,-97 233.5,-97"/>
<text text-anchor="start" x="241.5" y="-115" font-family="Helvetica,sans-Serif" font-size="10.00">Eigen::TensorEvaluator</text>
<text text-anchor="middle" x="296" y="-104" font-family="Helvetica,sans-Serif" font-size="10.00">&lt; Expr, Device &gt;</text>
</a>
</g>
</g>
<!-- Node8&#45;&gt;Node9 -->
<g id="edge7" class="edge"><title>Node8&#45;&gt;Node9</title>
<path fill="none" stroke="#9a32cd" stroke-dasharray="5,2" d="M103.258,-170.676C129.901,-163.166 164.466,-153.261 195,-144 212.705,-138.63 232.091,-132.488 249.041,-127.03"/>
<polygon fill="#9a32cd" stroke="#9a32cd" points="102.139,-167.355 93.4599,-173.431 104.034,-174.093 102.139,-167.355"/>
<text text-anchor="middle" x="164.5" y="-165" font-family="Helvetica,sans-Serif" font-size="10.00"> m_dims</text>
</g>
<!-- Node9&#45;&gt;Node6 -->
<g id="edge4" class="edge"><title>Node9&#45;&gt;Node6</title>
<path fill="none" stroke="#9a32cd" stroke-dasharray="5,2" d="M361.146,-129.822C388.333,-137.569 420.303,-146.933 449,-156 464.16,-160.79 480.453,-166.231 495.576,-171.407"/>
<polygon fill="#9a32cd" stroke="#9a32cd" points="361.936,-126.408 351.36,-127.045 360.025,-133.142 361.936,-126.408"/>
<text text-anchor="middle" x="423" y="-170" font-family="Helvetica,sans-Serif" font-size="10.00"> m_impl</text>
<text text-anchor="middle" x="423" y="-159" font-family="Helvetica,sans-Serif" font-size="10.00">m_dummy</text>
</g>
<!-- Node10 -->
<g id="node6" class="node"><title>Node10</title>
<polygon fill="none" stroke="#bfbfbf" points="19,-126.5 19,-145.5 97,-145.5 97,-126.5 19,-126.5"/>
<text text-anchor="middle" x="58" y="-133.5" font-family="Helvetica,sans-Serif" font-size="10.00">const Expr &amp;</text>
</g>
<!-- Node10&#45;&gt;Node9 -->
<g id="edge5" class="edge"><title>Node10&#45;&gt;Node9</title>
<path fill="none" stroke="#9a32cd" stroke-dasharray="5,2" d="M107.544,-131.063C143.974,-127.359 194.118,-122.259 233.378,-118.267"/>
<polygon fill="#9a32cd" stroke="#9a32cd" points="106.774,-127.623 97.1798,-132.117 107.483,-134.588 106.774,-127.623"/>
<text text-anchor="middle" x="164.5" y="-132" font-family="Helvetica,sans-Serif" font-size="10.00"> m_impl</text>
</g>
<!-- Node11 -->
<g id="node7" class="node"><title>Node11</title>
<polygon fill="none" stroke="#bfbfbf" points="33.5,-88.5 33.5,-107.5 82.5,-107.5 82.5,-88.5 33.5,-88.5"/>
<text text-anchor="middle" x="58" y="-95.5" font-family="Helvetica,sans-Serif" font-size="10.00">Device</text>
</g>
<!-- Node11&#45;&gt;Node9 -->
<g id="edge6" class="edge"><title>Node11&#45;&gt;Node9</title>
<path fill="none" stroke="#9a32cd" stroke-dasharray="5,2" d="M92.8962,-97.1049C120.437,-96.6528 160.27,-96.6238 195,-99 207.401,-99.8485 220.615,-101.226 233.238,-102.775"/>
<polygon fill="#9a32cd" stroke="#9a32cd" points="92.55,-93.6108 82.6192,-97.3026 92.6847,-100.609 92.55,-93.6108"/>
<text text-anchor="middle" x="164.5" y="-102" font-family="Helvetica,sans-Serif" font-size="10.00"> m_device</text>
</g>
<!-- Node12 -->
<g id="node8" class="node"><title>Node12</title>
<g id="a_node8"><a xlink:href="structEigen_1_1internal_1_1traits.html" target="_top" xlink:title="Eigen::internal::traits\l\&lt; Expr \&gt;">
<polygon fill="none" stroke="black" points="0,-39 0,-69 116,-69 116,-39 0,-39"/>
<text text-anchor="start" x="8" y="-57" font-family="Helvetica,sans-Serif" font-size="10.00">Eigen::internal::traits</text>
<text text-anchor="middle" x="58" y="-46" font-family="Helvetica,sans-Serif" font-size="10.00">&lt; Expr &gt;</text>
</a>
</g>
</g>
<!-- Node12&#45;&gt;Node9 -->
<g id="edge8" class="edge"><title>Node12&#45;&gt;Node9</title>
<path fill="none" stroke="#9a32cd" stroke-dasharray="5,2" d="M126.096,-66.5888C148.141,-71.0508 172.704,-76.3722 195,-82 212.399,-86.3917 231.296,-91.8732 247.93,-96.9449"/>
<polygon fill="#9a32cd" stroke="#9a32cd" points="126.654,-63.1311 116.162,-64.6012 125.281,-69.9951 126.654,-63.1311"/>
<text text-anchor="middle" x="164.5" y="-85" font-family="Helvetica,sans-Serif" font-size="10.00"> m_data</text>
</g>
<!-- Node13 -->
<g id="node9" class="node"><title>Node13</title>
<polygon fill="none" stroke="#bfbfbf" points="43.5,-0.5 43.5,-19.5 72.5,-19.5 72.5,-0.5 43.5,-0.5"/>
<text text-anchor="middle" x="58" y="-7.5" font-family="Helvetica,sans-Serif" font-size="10.00">int</text>
</g>
<!-- Node13&#45;&gt;Node9 -->
<g id="edge9" class="edge"><title>Node13&#45;&gt;Node9</title>
<path fill="none" stroke="#9a32cd" stroke-dasharray="5,2" d="M82.7944,-16.0421C110.397,-23.4263 156.98,-37.0557 195,-54 222.681,-66.3365 252.499,-84.2989 272.302,-96.9583"/>
<polygon fill="#9a32cd" stroke="#9a32cd" points="83.4308,-12.5907 72.87,-13.4385 81.6545,-19.3616 83.4308,-12.5907"/>
<text text-anchor="middle" x="164.5" y="-57" font-family="Helvetica,sans-Serif" font-size="10.00"> NumCoords</text>
</g>
</g>
</svg>
