<?xml version="1.0" encoding="UTF-8" standalone="no"?>
<!DOCTYPE svg PUBLIC "-//W3C//DTD SVG 1.1//EN"
 "http://www.w3.org/Graphics/SVG/1.1/DTD/svg11.dtd">
<!-- Generated by graphviz version 2.38.0 (20140413.2041)
 -->
<!-- Title: Eigen::HouseholderSequence::essentialVector Pages: 1 -->
<svg width="520pt" height="50pt"
 viewBox="0.00 0.00 520.00 50.00" xmlns="http://www.w3.org/2000/svg" xmlns:xlink="http://www.w3.org/1999/xlink">
<g id="graph0" class="graph" transform="scale(1 1) rotate(0) translate(4 46)">
<title>Eigen::HouseholderSequence::essentialVector</title>
<!-- Node35 -->
<g id="node1" class="node"><title>Node35</title>
<polygon fill="#bfbfbf" stroke="black" points="0,-6 0,-36 158,-36 158,-6 0,-6"/>
<text text-anchor="start" x="8" y="-24" font-family="Helvetica,sans-Serif" font-size="10.00">Eigen::HouseholderSequence</text>
<text text-anchor="middle" x="79" y="-13" font-family="Helvetica,sans-Serif" font-size="10.00">::essentialVector</text>
</g>
<!-- Node36 -->
<g id="node2" class="node"><title>Node36</title>
<g id="a_node2"><a xlink:href="structEigen_1_1internal_1_1hseq__side__dependent__impl.html#ad783e05cccf4f436e44769df2bb199af" target="_top" xlink:title="Eigen::internal::hseq\l_side_dependent_impl\l::essentialVector">
<polygon fill="none" stroke="black" points="194,-0.5 194,-41.5 318,-41.5 318,-0.5 194,-0.5"/>
<text text-anchor="start" x="202" y="-29.5" font-family="Helvetica,sans-Serif" font-size="10.00">Eigen::internal::hseq</text>
<text text-anchor="start" x="202" y="-18.5" font-family="Helvetica,sans-Serif" font-size="10.00">_side_dependent_impl</text>
<text text-anchor="middle" x="256" y="-7.5" font-family="Helvetica,sans-Serif" font-size="10.00">::essentialVector</text>
</a>
</g>
</g>
<!-- Node35&#45;&gt;Node36 -->
<g id="edge1" class="edge"><title>Node35&#45;&gt;Node36</title>
<path fill="none" stroke="midnightblue" d="M158.032,-21C166.585,-21 175.261,-21 183.726,-21"/>
<polygon fill="midnightblue" stroke="midnightblue" points="183.926,-24.5001 193.926,-21 183.926,-17.5001 183.926,-24.5001"/>
</g>
<!-- Node37 -->
<g id="node3" class="node"><title>Node37</title>
<g id="a_node3"><a xlink:href="classEigen_1_1HouseholderSequence.html#a6eaafe2460930d1f4aa67d6e577b71f0" target="_top" xlink:title="Number of rows of transformation viewed as a matrix. ">
<polygon fill="none" stroke="black" points="354,-6 354,-36 512,-36 512,-6 354,-6"/>
<text text-anchor="start" x="362" y="-24" font-family="Helvetica,sans-Serif" font-size="10.00">Eigen::HouseholderSequence</text>
<text text-anchor="middle" x="433" y="-13" font-family="Helvetica,sans-Serif" font-size="10.00">::rows</text>
</a>
</g>
</g>
<!-- Node36&#45;&gt;Node37 -->
<g id="edge2" class="edge"><title>Node36&#45;&gt;Node37</title>
<path fill="none" stroke="midnightblue" d="M318.207,-21C326.495,-21 335.131,-21 343.776,-21"/>
<polygon fill="midnightblue" stroke="midnightblue" points="343.909,-24.5001 353.909,-21 343.909,-17.5001 343.909,-24.5001"/>
</g>
</g>
</svg>
