<?xml version="1.0" encoding="UTF-8" standalone="no"?>
<!DOCTYPE svg PUBLIC "-//W3C//DTD SVG 1.1//EN"
 "http://www.w3.org/Graphics/SVG/1.1/DTD/svg11.dtd">
<!-- Generated by graphviz version 2.38.0 (20140413.2041)
 -->
<!-- Title: Eigen::UmfPackLU::compute Pages: 1 -->
<!--zoomable 253 -->
<svg id="main" version="1.1" xmlns="http://www.w3.org/2000/svg" xmlns:xlink="http://www.w3.org/1999/xlink" xml:space="preserve" onload="init(evt)">
<style type="text/css"><![CDATA[
.edge:hover path { stroke: red; }
.edge:hover polygon { stroke: red; fill: red; }
]]></style>
<script type="text/javascript"><![CDATA[
var edges = document.getElementsByTagName('g');
if (edges && edges.length) {
  for (var i=0;i<edges.length;i++) {
    if (edges[i].id.substr(0,4)=='edge') {
      edges[i].setAttribute('class','edge');
    }
  }
}
]]></script>
        <defs>
                <circle id="rim" cx="0" cy="0" r="7"/>
                <circle id="rim2" cx="0" cy="0" r="3.5"/>
                <g id="zoomPlus">
                        <use xlink:href="#rim" fill="#404040">
                                <set attributeName="fill" to="#808080" begin="zoomplus.mouseover" end="zoomplus.mouseout"/>
                        </use>
                        <path d="M-4,0h8M0,-4v8" fill="none" stroke="white" stroke-width="1.5" pointer-events="none"/>
                </g>
                <g id="zoomMin">
                        <use xlink:href="#rim" fill="#404040">
                                <set attributeName="fill" to="#808080" begin="zoomminus.mouseover" end="zoomminus.mouseout"/>
                        </use>
                        <path d="M-4,0h8" fill="none" stroke="white" stroke-width="1.5" pointer-events="none"/>
                </g>
                <g id="dirArrow">
                        <path fill="none" stroke="white" stroke-width="1.5" d="M0,-3.0v7 M-2.5,-0.5L0,-3.0L2.5,-0.5"/>
                </g>
               <g id="resetDef">
                       <use xlink:href="#rim2" fill="#404040">
                               <set attributeName="fill" to="#808080" begin="reset.mouseover" end="reset.mouseout"/>
                       </use>
               </g>
        </defs>

<script type="text/javascript">
var viewWidth = 548;
var viewHeight = 253;
var sectionId = 'dynsection-11';
</script>
<script xlink:href="svgpan.js"/>
<svg id="graph" class="graph">
<g id="viewport">
<title>Eigen::UmfPackLU::compute</title>
<!-- Node54 -->
<g id="node1" class="node"><title>Node54</title>
<polygon fill="#bfbfbf" stroke="black" points="0,-99 0,-118 152,-118 152,-99 0,-99"/>
<text text-anchor="middle" x="76" y="-106" font-family="Helvetica,sans-Serif" font-size="10.00">Eigen::UmfPackLU::compute</text>
</g>
<!-- Node55 -->
<g id="node2" class="node"><title>Node55</title>
<g id="a_node2"><a xlink:href="classEigen_1_1UmfPackLU.html#a9d319cce61d8797d1f0ba6b6ae3087c9" target="_top" xlink:title="Eigen::UmfPackLU::analyze\lPattern_impl">
<polygon fill="none" stroke="black" points="203,-175.5 203,-205.5 349,-205.5 349,-175.5 203,-175.5"/>
<text text-anchor="start" x="211" y="-193.5" font-family="Helvetica,sans-Serif" font-size="10.00">Eigen::UmfPackLU::analyze</text>
<text text-anchor="middle" x="276" y="-182.5" font-family="Helvetica,sans-Serif" font-size="10.00">Pattern_impl</text>
</a>
</g>
</g>
<!-- Node54&#45;&gt;Node55 -->
<g id="edge1" class="edge"><title>Node54&#45;&gt;Node55</title>
<path fill="none" stroke="midnightblue" d="M93.0831,-118.026C114.27,-130.275 152.955,-151.62 188,-165.5 193.945,-167.855 200.198,-170.092 206.511,-172.191"/>
<polygon fill="midnightblue" stroke="midnightblue" points="205.853,-175.655 216.444,-175.37 207.987,-168.988 205.853,-175.655"/>
</g>
<!-- Node58 -->
<g id="node5" class="node"><title>Node58</title>
<g id="a_node5"><a xlink:href="classEigen_1_1UmfPackLU.html#a23ec2a84911a59ee4295d309d975a3d5" target="_top" xlink:title="Eigen::UmfPackLU::factorize_impl">
<polygon fill="none" stroke="black" points="188,-137 188,-156 364,-156 364,-137 188,-137"/>
<text text-anchor="middle" x="276" y="-144" font-family="Helvetica,sans-Serif" font-size="10.00">Eigen::UmfPackLU::factorize_impl</text>
</a>
</g>
</g>
<!-- Node54&#45;&gt;Node58 -->
<g id="edge4" class="edge"><title>Node54&#45;&gt;Node58</title>
<path fill="none" stroke="midnightblue" d="M126.708,-118.04C153.541,-123.19 186.859,-129.584 215.113,-135.006"/>
<polygon fill="midnightblue" stroke="midnightblue" points="214.791,-138.509 225.271,-136.956 216.11,-131.634 214.791,-138.509"/>
</g>
<!-- Node60 -->
<g id="node7" class="node"><title>Node60</title>
<g id="a_node7"><a xlink:href="classEigen_1_1UmfPackLU.html#a1b47abf8be308bbd60c37f3a0940fc43" target="_top" xlink:title="Eigen::UmfPackLU::grab">
<polygon fill="none" stroke="black" points="210.5,-99 210.5,-118 341.5,-118 341.5,-99 210.5,-99"/>
<text text-anchor="middle" x="276" y="-106" font-family="Helvetica,sans-Serif" font-size="10.00">Eigen::UmfPackLU::grab</text>
</a>
</g>
</g>
<!-- Node54&#45;&gt;Node60 -->
<g id="edge7" class="edge"><title>Node54&#45;&gt;Node60</title>
<path fill="none" stroke="midnightblue" d="M152.138,-108.5C167.842,-108.5 184.399,-108.5 200.096,-108.5"/>
<polygon fill="midnightblue" stroke="midnightblue" points="200.269,-112 210.269,-108.5 200.269,-105 200.269,-112"/>
</g>
<!-- Node62 -->
<g id="node9" class="node"><title>Node62</title>
<g id="a_node9"><a xlink:href="namespaceEigen.html#a3b1224272137249b08cfa93a27fe740d" target="_top" xlink:title="Eigen::umfpack_free\l_numeric">
<polygon fill="none" stroke="black" points="219,-49.5 219,-79.5 333,-79.5 333,-49.5 219,-49.5"/>
<text text-anchor="start" x="227" y="-67.5" font-family="Helvetica,sans-Serif" font-size="10.00">Eigen::umfpack_free</text>
<text text-anchor="middle" x="276" y="-56.5" font-family="Helvetica,sans-Serif" font-size="10.00">_numeric</text>
</a>
</g>
</g>
<!-- Node54&#45;&gt;Node62 -->
<g id="edge9" class="edge"><title>Node54&#45;&gt;Node62</title>
<path fill="none" stroke="midnightblue" d="M119.963,-98.9527C146.02,-93.1621 179.8,-85.6555 209.175,-79.1279"/>
<polygon fill="midnightblue" stroke="midnightblue" points="209.947,-82.5416 218.95,-76.9556 208.429,-75.7083 209.947,-82.5416"/>
</g>
<!-- Node63 -->
<g id="node10" class="node"><title>Node63</title>
<g id="a_node10"><a xlink:href="namespaceEigen.html#aca848a572692372a17c2e418ad49cec1" target="_top" xlink:title="Eigen::umfpack_free\l_symbolic">
<polygon fill="none" stroke="black" points="219,-0.5 219,-30.5 333,-30.5 333,-0.5 219,-0.5"/>
<text text-anchor="start" x="227" y="-18.5" font-family="Helvetica,sans-Serif" font-size="10.00">Eigen::umfpack_free</text>
<text text-anchor="middle" x="276" y="-7.5" font-family="Helvetica,sans-Serif" font-size="10.00">_symbolic</text>
</a>
</g>
</g>
<!-- Node54&#45;&gt;Node63 -->
<g id="edge10" class="edge"><title>Node54&#45;&gt;Node63</title>
<path fill="none" stroke="midnightblue" d="M89.6509,-98.9303C109.585,-84.2567 149.962,-56.1533 188,-39.5 194.71,-36.5623 201.871,-33.8972 209.094,-31.503"/>
<polygon fill="midnightblue" stroke="midnightblue" points="210.455,-34.744 218.945,-28.4061 208.356,-28.0662 210.455,-34.744"/>
</g>
<!-- Node56 -->
<g id="node3" class="node"><title>Node56</title>
<g id="a_node3"><a xlink:href="classEigen_1_1PlainObjectBase.html#ac25699535374b1854cf8494e44ad31b2" target="_top" xlink:title="Eigen::PlainObjectBase\l::data">
<polygon fill="none" stroke="black" points="407,-175.5 407,-205.5 533,-205.5 533,-175.5 407,-175.5"/>
<text text-anchor="start" x="415" y="-193.5" font-family="Helvetica,sans-Serif" font-size="10.00">Eigen::PlainObjectBase</text>
<text text-anchor="middle" x="470" y="-182.5" font-family="Helvetica,sans-Serif" font-size="10.00">::data</text>
</a>
</g>
</g>
<!-- Node55&#45;&gt;Node56 -->
<g id="edge2" class="edge"><title>Node55&#45;&gt;Node56</title>
<path fill="none" stroke="midnightblue" d="M349.04,-190.5C364.664,-190.5 381.194,-190.5 396.823,-190.5"/>
<polygon fill="midnightblue" stroke="midnightblue" points="396.946,-194 406.946,-190.5 396.946,-187 396.946,-194"/>
</g>
<!-- Node57 -->
<g id="node4" class="node"><title>Node57</title>
<g id="a_node4"><a xlink:href="namespaceEigen.html#a093d6099185afc4102643f91c3ecb56b" target="_top" xlink:title="Eigen::umfpack_symbolic">
<polygon fill="none" stroke="black" points="401.5,-225 401.5,-244 538.5,-244 538.5,-225 401.5,-225"/>
<text text-anchor="middle" x="470" y="-232" font-family="Helvetica,sans-Serif" font-size="10.00">Eigen::umfpack_symbolic</text>
</a>
</g>
</g>
<!-- Node55&#45;&gt;Node57 -->
<g id="edge3" class="edge"><title>Node55&#45;&gt;Node57</title>
<path fill="none" stroke="midnightblue" d="M342.539,-205.519C367.048,-211.136 394.513,-217.43 417.569,-222.714"/>
<polygon fill="midnightblue" stroke="midnightblue" points="416.962,-226.165 427.491,-224.988 418.526,-219.342 416.962,-226.165"/>
</g>
<!-- Node58&#45;&gt;Node56 -->
<g id="edge6" class="edge"><title>Node58&#45;&gt;Node56</title>
<path fill="none" stroke="midnightblue" d="M318.661,-156.047C341.546,-161.292 370.573,-167.944 397.005,-174.001"/>
<polygon fill="midnightblue" stroke="midnightblue" points="396.461,-177.467 406.99,-176.289 398.025,-170.644 396.461,-177.467"/>
</g>
<!-- Node59 -->
<g id="node6" class="node"><title>Node59</title>
<g id="a_node6"><a xlink:href="namespaceEigen.html#a53029c5ce698ff0242e9086cadd687a0" target="_top" xlink:title="Eigen::umfpack_numeric">
<polygon fill="none" stroke="black" points="403,-137 403,-156 537,-156 537,-137 403,-137"/>
<text text-anchor="middle" x="470" y="-144" font-family="Helvetica,sans-Serif" font-size="10.00">Eigen::umfpack_numeric</text>
</a>
</g>
</g>
<!-- Node58&#45;&gt;Node59 -->
<g id="edge5" class="edge"><title>Node58&#45;&gt;Node59</title>
<path fill="none" stroke="midnightblue" d="M364.012,-146.5C373.63,-146.5 383.369,-146.5 392.84,-146.5"/>
<polygon fill="midnightblue" stroke="midnightblue" points="392.992,-150 402.992,-146.5 392.992,-143 392.992,-150"/>
</g>
<!-- Node61 -->
<g id="node8" class="node"><title>Node61</title>
<g id="a_node8"><a xlink:href="structEigen_1_1EigenBase.html#a324b16961a11d2ecfd2d1b7dd7946545" target="_top" xlink:title="Eigen::EigenBase::derived">
<polygon fill="none" stroke="black" points="400,-99 400,-118 540,-118 540,-99 400,-99"/>
<text text-anchor="middle" x="470" y="-106" font-family="Helvetica,sans-Serif" font-size="10.00">Eigen::EigenBase::derived</text>
</a>
</g>
</g>
<!-- Node60&#45;&gt;Node61 -->
<g id="edge8" class="edge"><title>Node60&#45;&gt;Node61</title>
<path fill="none" stroke="midnightblue" d="M341.735,-108.5C357.095,-108.5 373.654,-108.5 389.585,-108.5"/>
<polygon fill="midnightblue" stroke="midnightblue" points="389.944,-112 399.944,-108.5 389.944,-105 389.944,-112"/>
</g>
</g>
</svg>
        <g id="navigator" transform="translate(0 0)" fill="#404254">
                <rect fill="#f2f5e9" fill-opacity="0.5" stroke="#606060" stroke-width=".5" x="0" y="0" width="60" height="60"/>
                <use id="zoomplus" xlink:href="#zoomPlus" x="17" y="9" onmousedown="handleZoom(evt,'in')"/>
                <use id="zoomminus" xlink:href="#zoomMin" x="42" y="9" onmousedown="handleZoom(evt,'out')"/>
                <use id="reset" xlink:href="#resetDef" x="30" y="36" onmousedown="handleReset()"/>
                <g id="arrowUp" xlink:href="#dirArrow" transform="translate(30 24)" onmousedown="handlePan(0,-1)">
                  <use xlink:href="#rim" fill="#404040">
                        <set attributeName="fill" to="#808080" begin="arrowUp.mouseover" end="arrowUp.mouseout"/>
                  </use>
                  <path fill="none" stroke="white" stroke-width="1.5" d="M0,-3.0v7 M-2.5,-0.5L0,-3.0L2.5,-0.5"/>
                </g>
                <g id="arrowRight" xlink:href="#dirArrow" transform="rotate(90) translate(36 -43)" onmousedown="handlePan(1,0)">
                  <use xlink:href="#rim" fill="#404040">
                        <set attributeName="fill" to="#808080" begin="arrowRight.mouseover" end="arrowRight.mouseout"/>
                  </use>
                  <path fill="none" stroke="white" stroke-width="1.5" d="M0,-3.0v7 M-2.5,-0.5L0,-3.0L2.5,-0.5"/>
                </g>
                <g id="arrowDown" xlink:href="#dirArrow" transform="rotate(180) translate(-30 -48)" onmousedown="handlePan(0,1)">
                  <use xlink:href="#rim" fill="#404040">
                        <set attributeName="fill" to="#808080" begin="arrowDown.mouseover" end="arrowDown.mouseout"/>
                  </use>
                  <path fill="none" stroke="white" stroke-width="1.5" d="M0,-3.0v7 M-2.5,-0.5L0,-3.0L2.5,-0.5"/>
                </g>
                <g id="arrowLeft" xlink:href="#dirArrow" transform="rotate(270) translate(-36 17)" onmousedown="handlePan(-1,0)">
                  <use xlink:href="#rim" fill="#404040">
                        <set attributeName="fill" to="#808080" begin="arrowLeft.mouseover" end="arrowLeft.mouseout"/>
                  </use>
                  <path fill="none" stroke="white" stroke-width="1.5" d="M0,-3.0v7 M-2.5,-0.5L0,-3.0L2.5,-0.5"/>
                </g>
        </g>
        <svg viewBox="0 0 15 15" width="100%" height="30px" preserveAspectRatio="xMaxYMin meet">
         <g id="arrow_out" transform="scale(0.3 0.3)">
          <a xlink:href="classEigen_1_1UmfPackLU_a05fb2b5717ebd67e46b83439721ceee7_cgraph_org.svg" target="_base">
           <rect id="button" ry="5" rx="5" y="6" x="6" height="38" width="38"
                fill="#f2f5e9" fill-opacity="0.5" stroke="#606060" stroke-width="1.0"/>
           <path id="arrow"
             d="M 11.500037,31.436501 C 11.940474,20.09759 22.043105,11.32322 32.158766,21.979434 L 37.068811,17.246167 C 37.068811,17.246167 37.088388,32 37.088388,32 L 22.160133,31.978069 C 22.160133,31.978069 26.997745,27.140456 26.997745,27.140456 C 18.528582,18.264221 13.291696,25.230495 11.500037,31.436501 z"
             style="fill:#404040;"/>
          </a>
         </g>
        </svg>
</svg>
