<?xml version="1.0" encoding="UTF-8" standalone="no"?>
<!DOCTYPE svg PUBLIC "-//W3C//DTD SVG 1.1//EN"
 "http://www.w3.org/Graphics/SVG/1.1/DTD/svg11.dtd">
<!-- Generated by graphviz version 2.38.0 (20140413.2041)
 -->
<!-- Title: BtlConfig Pages: 1 -->
<svg width="336pt" height="117pt"
 viewBox="0.00 0.00 336.00 117.00" xmlns="http://www.w3.org/2000/svg" xmlns:xlink="http://www.w3.org/1999/xlink">
<g id="graph0" class="graph" transform="scale(1 1) rotate(0) translate(4 113)">
<title>BtlConfig</title>
<!-- Node1 -->
<g id="node1" class="node"><title>Node1</title>
<polygon fill="#bfbfbf" stroke="black" points="172.5,-0.5 172.5,-19.5 231.5,-19.5 231.5,-0.5 172.5,-0.5"/>
<text text-anchor="middle" x="202" y="-7.5" font-family="Helvetica,sans-Serif" font-size="10.00">BtlConfig</text>
</g>
<!-- Node1&#45;&gt;Node1 -->
<g id="edge1" class="edge"><title>Node1&#45;&gt;Node1</title>
<path fill="none" stroke="#9a32cd" stroke-dasharray="5,2" d="M241.672,-17.0898C246.408,-15.8008 249.5,-13.4375 249.5,-10 249.5,-4.5 241.583,-1.75 231.688,-1.75"/>
<polygon fill="#9a32cd" stroke="#9a32cd" points="241.217,-13.6191 231.688,-18.25 242.025,-20.5724 241.217,-13.6191"/>
<text text-anchor="middle" x="271.5" y="-7.5" font-family="Helvetica,sans-Serif" font-size="10.00"> Instance</text>
</g>
<!-- Node2 -->
<g id="node2" class="node"><title>Node2</title>
<polygon fill="none" stroke="#bfbfbf" points="0,-89.5 0,-108.5 110,-108.5 110,-89.5 0,-89.5"/>
<text text-anchor="middle" x="55" y="-96.5" font-family="Helvetica,sans-Serif" font-size="10.00">vector&lt; BtlString &gt;</text>
</g>
<!-- Node2&#45;&gt;Node1 -->
<g id="edge2" class="edge"><title>Node2&#45;&gt;Node1</title>
<path fill="none" stroke="#9a32cd" stroke-dasharray="5,2" d="M56.0993,-79.1518C57.9003,-65.7833 62.4853,-48.4299 74,-38 88.1814,-25.1546 139.148,-17.5217 172.332,-13.8046"/>
<polygon fill="#9a32cd" stroke="#9a32cd" points="52.6057,-78.9199 55.1503,-89.2046 59.5748,-79.5779 52.6057,-78.9199"/>
<text text-anchor="middle" x="136" y="-52" font-family="Helvetica,sans-Serif" font-size="10.00"> m_selectedActionNames</text>
</g>
<!-- Node3 -->
<g id="node3" class="node"><title>Node3</title>
<polygon fill="none" stroke="#bfbfbf" points="187.5,-89.5 187.5,-108.5 216.5,-108.5 216.5,-89.5 187.5,-89.5"/>
<text text-anchor="middle" x="202" y="-96.5" font-family="Helvetica,sans-Serif" font-size="10.00">int</text>
</g>
<!-- Node3&#45;&gt;Node1 -->
<g id="edge3" class="edge"><title>Node3&#45;&gt;Node1</title>
<path fill="none" stroke="#9a32cd" stroke-dasharray="5,2" d="M202,-79.1946C202,-60.7379 202,-33.412 202,-19.6249"/>
<polygon fill="#9a32cd" stroke="#9a32cd" points="198.5,-79.34 202,-89.34 205.5,-79.3401 198.5,-79.34"/>
<text text-anchor="middle" x="214.5" y="-52" font-family="Helvetica,sans-Serif" font-size="10.00"> tries</text>
</g>
<!-- Node4 -->
<g id="node4" class="node"><title>Node4</title>
<g id="a_node4"><a xlink:href="classbool.html" target="_top" xlink:title="bool">
<polygon fill="none" stroke="black" points="234.5,-89.5 234.5,-108.5 271.5,-108.5 271.5,-89.5 234.5,-89.5"/>
<text text-anchor="middle" x="253" y="-96.5" font-family="Helvetica,sans-Serif" font-size="10.00">bool</text>
</a>
</g>
</g>
<!-- Node4&#45;&gt;Node1 -->
<g id="edge4" class="edge"><title>Node4&#45;&gt;Node1</title>
<path fill="none" stroke="#9a32cd" stroke-dasharray="5,2" d="M248.661,-79.549C245.175,-67.1148 239.451,-50.7238 231,-38 226.357,-31.009 219.553,-24.5493 213.702,-19.7022"/>
<polygon fill="#9a32cd" stroke="#9a32cd" points="245.279,-80.453 251.16,-89.2657 252.059,-78.709 245.279,-80.453"/>
<text text-anchor="middle" x="287.5" y="-63" font-family="Helvetica,sans-Serif" font-size="10.00"> overwriteResults</text>
<text text-anchor="middle" x="287.5" y="-52" font-family="Helvetica,sans-Serif" font-size="10.00">checkResults</text>
<text text-anchor="middle" x="287.5" y="-41" font-family="Helvetica,sans-Serif" font-size="10.00">realclock</text>
</g>
</g>
</svg>
