<?xml version="1.0" encoding="UTF-8" standalone="no"?>
<!DOCTYPE svg PUBLIC "-//W3C//DTD SVG 1.1//EN"
 "http://www.w3.org/Graphics/SVG/1.1/DTD/svg11.dtd">
<!-- Generated by graphviz version 2.38.0 (20140413.2041)
 -->
<!-- Title: Eigen::MatrixPower::compute Pages: 1 -->
<!--zoomable 777 -->
<svg id="main" version="1.1" xmlns="http://www.w3.org/2000/svg" xmlns:xlink="http://www.w3.org/1999/xlink" xml:space="preserve" onload="init(evt)">
<style type="text/css"><![CDATA[
.edge:hover path { stroke: red; }
.edge:hover polygon { stroke: red; fill: red; }
]]></style>
<script type="text/javascript"><![CDATA[
var edges = document.getElementsByTagName('g');
if (edges && edges.length) {
  for (var i=0;i<edges.length;i++) {
    if (edges[i].id.substr(0,4)=='edge') {
      edges[i].setAttribute('class','edge');
    }
  }
}
]]></script>
        <defs>
                <circle id="rim" cx="0" cy="0" r="7"/>
                <circle id="rim2" cx="0" cy="0" r="3.5"/>
                <g id="zoomPlus">
                        <use xlink:href="#rim" fill="#404040">
                                <set attributeName="fill" to="#808080" begin="zoomplus.mouseover" end="zoomplus.mouseout"/>
                        </use>
                        <path d="M-4,0h8M0,-4v8" fill="none" stroke="white" stroke-width="1.5" pointer-events="none"/>
                </g>
                <g id="zoomMin">
                        <use xlink:href="#rim" fill="#404040">
                                <set attributeName="fill" to="#808080" begin="zoomminus.mouseover" end="zoomminus.mouseout"/>
                        </use>
                        <path d="M-4,0h8" fill="none" stroke="white" stroke-width="1.5" pointer-events="none"/>
                </g>
                <g id="dirArrow">
                        <path fill="none" stroke="white" stroke-width="1.5" d="M0,-3.0v7 M-2.5,-0.5L0,-3.0L2.5,-0.5"/>
                </g>
               <g id="resetDef">
                       <use xlink:href="#rim2" fill="#404040">
                               <set attributeName="fill" to="#808080" begin="reset.mouseover" end="reset.mouseout"/>
                       </use>
               </g>
        </defs>

<script type="text/javascript">
var viewWidth = 650;
var viewHeight = 777;
var sectionId = 'dynsection-2';
</script>
<script xlink:href="svgpan.js"/>
<svg id="graph" class="graph">
<g id="viewport">
<title>Eigen::MatrixPower::compute</title>
<!-- Node4 -->
<g id="node1" class="node"><title>Node4</title>
<polygon fill="#bfbfbf" stroke="black" points="0,-266 0,-296 107,-296 107,-266 0,-266"/>
<text text-anchor="start" x="8" y="-284" font-family="Helvetica,sans-Serif" font-size="10.00">Eigen::MatrixPower</text>
<text text-anchor="middle" x="53.5" y="-273" font-family="Helvetica,sans-Serif" font-size="10.00">::compute</text>
</g>
<!-- Node5 -->
<g id="node2" class="node"><title>Node5</title>
<g id="a_node2"><a xlink:href="ArrayCwiseUnaryOps_8h.html#a35560f7dbf19244fda7e463d14157c43" target="_top" xlink:title="abs">
<polygon fill="none" stroke="black" points="365.5,-585.5 365.5,-604.5 399.5,-604.5 399.5,-585.5 365.5,-585.5"/>
<text text-anchor="middle" x="382.5" y="-592.5" font-family="Helvetica,sans-Serif" font-size="10.00">abs</text>
</a>
</g>
</g>
<!-- Node4&#45;&gt;Node5 -->
<g id="edge1" class="edge"><title>Node4&#45;&gt;Node5</title>
<path fill="none" stroke="midnightblue" d="M54.9217,-296.144C57.0137,-340.509 69.4362,-471.25 143,-538 203.4,-592.806 306.966,-597.505 355.265,-596.4"/>
<polygon fill="midnightblue" stroke="midnightblue" points="355.623,-599.89 365.5,-596.057 355.388,-592.894 355.623,-599.89"/>
</g>
<!-- Node6 -->
<g id="node3" class="node"><title>Node6</title>
<g id="a_node3"><a xlink:href="classEigen_1_1JacobiRotation.html#a89c8ea615f8fa77ddd5810a1e5fde4da" target="_top" xlink:title="Eigen::JacobiRotation\l::adjoint">
<polygon fill="none" stroke="black" points="155,-348 155,-378 271,-378 271,-348 155,-348"/>
<text text-anchor="start" x="163" y="-366" font-family="Helvetica,sans-Serif" font-size="10.00">Eigen::JacobiRotation</text>
<text text-anchor="middle" x="213" y="-355" font-family="Helvetica,sans-Serif" font-size="10.00">::adjoint</text>
</a>
</g>
</g>
<!-- Node4&#45;&gt;Node6 -->
<g id="edge2" class="edge"><title>Node4&#45;&gt;Node6</title>
<path fill="none" stroke="midnightblue" d="M83.3879,-296.04C108.84,-309.291 146.097,-328.689 173.968,-343.199"/>
<polygon fill="midnightblue" stroke="midnightblue" points="172.543,-346.403 183.029,-347.917 175.775,-340.194 172.543,-346.403"/>
</g>
<!-- Node10 -->
<g id="node7" class="node"><title>Node10</title>
<g id="a_node7"><a xlink:href="classEigen_1_1JacobiRotation.html#af73c81e9cc139b7e0d877ce553b02ec0" target="_top" xlink:title="Eigen::JacobiRotation\l::makeGivens">
<polygon fill="none" stroke="black" points="324.5,-285 324.5,-315 440.5,-315 440.5,-285 324.5,-285"/>
<text text-anchor="start" x="332.5" y="-303" font-family="Helvetica,sans-Serif" font-size="10.00">Eigen::JacobiRotation</text>
<text text-anchor="middle" x="382.5" y="-292" font-family="Helvetica,sans-Serif" font-size="10.00">::makeGivens</text>
</a>
</g>
</g>
<!-- Node4&#45;&gt;Node10 -->
<g id="edge25" class="edge"><title>Node4&#45;&gt;Node10</title>
<path fill="none" stroke="midnightblue" d="M107.038,-284.053C163.272,-287.32 252.664,-292.514 314.058,-296.081"/>
<polygon fill="midnightblue" stroke="midnightblue" points="314.234,-299.597 324.42,-296.683 314.64,-292.609 314.234,-299.597"/>
</g>
<!-- Node12 -->
<g id="node9" class="node"><title>Node12</title>
<g id="a_node9"><a xlink:href="classEigen_1_1PlainObjectBase.html#afbfc12954f16d21aedb7bd839f64a278" target="_top" xlink:title="Eigen::PlainObjectBase\l::coeff">
<polygon fill="none" stroke="black" points="150,-203 150,-233 276,-233 276,-203 150,-203"/>
<text text-anchor="start" x="158" y="-221" font-family="Helvetica,sans-Serif" font-size="10.00">Eigen::PlainObjectBase</text>
<text text-anchor="middle" x="213" y="-210" font-family="Helvetica,sans-Serif" font-size="10.00">::coeff</text>
</a>
</g>
</g>
<!-- Node4&#45;&gt;Node12 -->
<g id="edge8" class="edge"><title>Node4&#45;&gt;Node12</title>
<path fill="none" stroke="midnightblue" d="M88.3496,-265.92C104.758,-258.75 124.807,-250.195 143,-243 148.389,-240.869 154.041,-238.706 159.693,-236.589"/>
<polygon fill="midnightblue" stroke="midnightblue" points="160.995,-239.84 169.158,-233.086 158.565,-233.275 160.995,-239.84"/>
</g>
<!-- Node13 -->
<g id="node10" class="node"><title>Node13</title>
<g id="a_node10"><a xlink:href="classEigen_1_1MatrixPowerAtomic.html#ac3cdfb54a5b60079d068784534cbc174" target="_top" xlink:title="Compute the matrix power. ">
<polygon fill="none" stroke="black" points="143,-621 143,-651 283,-651 283,-621 143,-621"/>
<text text-anchor="start" x="151" y="-639" font-family="Helvetica,sans-Serif" font-size="10.00">Eigen::MatrixPowerAtomic</text>
<text text-anchor="middle" x="213" y="-628" font-family="Helvetica,sans-Serif" font-size="10.00">::compute</text>
</a>
</g>
</g>
<!-- Node4&#45;&gt;Node13 -->
<g id="edge9" class="edge"><title>Node4&#45;&gt;Node13</title>
<path fill="none" stroke="midnightblue" d="M55.2725,-296.024C58.3984,-343.525 73.5372,-492.988 143,-589 150.575,-599.471 161.244,-608.349 171.933,-615.474"/>
<polygon fill="midnightblue" stroke="midnightblue" points="170.117,-618.467 180.45,-620.81 173.833,-612.535 170.117,-618.467"/>
</g>
<!-- Node14 -->
<g id="node11" class="node"><title>Node14</title>
<g id="a_node11"><a xlink:href="namespaceEigen_1_1half__impl.html#a829ad00a9c93131d5a8342b4ee29d83d" target="_top" xlink:title="Eigen::half_impl::pow">
<polygon fill="none" stroke="black" points="324.5,-749.5 324.5,-768.5 440.5,-768.5 440.5,-749.5 324.5,-749.5"/>
<text text-anchor="middle" x="382.5" y="-756.5" font-family="Helvetica,sans-Serif" font-size="10.00">Eigen::half_impl::pow</text>
</a>
</g>
</g>
<!-- Node4&#45;&gt;Node14 -->
<g id="edge28" class="edge"><title>Node4&#45;&gt;Node14</title>
<path fill="none" stroke="midnightblue" d="M56.2394,-296.257C63.7515,-359.817 95.2061,-602.956 143,-661 185.66,-712.809 260.149,-737.546 314.557,-749.152"/>
<polygon fill="midnightblue" stroke="midnightblue" points="313.973,-752.604 324.47,-751.169 315.369,-745.745 313.973,-752.604"/>
</g>
<!-- Node22 -->
<g id="node19" class="node"><title>Node22</title>
<g id="a_node19"><a xlink:href="ArrayCwiseUnaryOps_8h.html#a3230e10964844c34fb73eaccc84dc8a7" target="_top" xlink:title="floor">
<polygon fill="none" stroke="black" points="194,-164.5 194,-183.5 232,-183.5 232,-164.5 194,-164.5"/>
<text text-anchor="middle" x="213" y="-171.5" font-family="Helvetica,sans-Serif" font-size="10.00">floor</text>
</a>
</g>
</g>
<!-- Node4&#45;&gt;Node22 -->
<g id="edge19" class="edge"><title>Node4&#45;&gt;Node22</title>
<path fill="none" stroke="midnightblue" d="M65.6223,-265.859C80.888,-246.162 110.201,-212.026 143,-193 155.467,-185.769 170.801,-181.19 183.846,-178.344"/>
<polygon fill="midnightblue" stroke="midnightblue" points="184.574,-181.768 193.718,-176.416 183.232,-174.898 184.574,-181.768"/>
</g>
<!-- Node23 -->
<g id="node20" class="node"><title>Node23</title>
<g id="a_node20"><a xlink:href="namespacempfr.html#ab3b7a323b554fa71e65ed0cddd7c4838" target="_top" xlink:title="mpfr::fmod">
<polygon fill="none" stroke="black" points="178,-509.5 178,-528.5 248,-528.5 248,-509.5 178,-509.5"/>
<text text-anchor="middle" x="213" y="-516.5" font-family="Helvetica,sans-Serif" font-size="10.00">mpfr::fmod</text>
</a>
</g>
</g>
<!-- Node4&#45;&gt;Node23 -->
<g id="edge20" class="edge"><title>Node4&#45;&gt;Node23</title>
<path fill="none" stroke="midnightblue" d="M64.5919,-296.25C92.4183,-338.299 170.151,-455.761 200.061,-500.959"/>
<polygon fill="midnightblue" stroke="midnightblue" points="197.245,-503.046 205.682,-509.453 203.082,-499.183 197.245,-503.046"/>
</g>
<!-- Node26 -->
<g id="node23" class="node"><title>Node26</title>
<g id="a_node23"><a xlink:href="classEigen_1_1ComplexSchur.html#add3ab5ed83f7f2f06b79fa910a2d5684" target="_top" xlink:title="Returns the triangular matrix in the Schur decomposition. ">
<polygon fill="none" stroke="black" points="153.5,-115 153.5,-145 272.5,-145 272.5,-115 153.5,-115"/>
<text text-anchor="start" x="161.5" y="-133" font-family="Helvetica,sans-Serif" font-size="10.00">Eigen::ComplexSchur</text>
<text text-anchor="middle" x="213" y="-122" font-family="Helvetica,sans-Serif" font-size="10.00">::matrixT</text>
</a>
</g>
</g>
<!-- Node4&#45;&gt;Node26 -->
<g id="edge26" class="edge"><title>Node4&#45;&gt;Node26</title>
<path fill="none" stroke="midnightblue" d="M61.267,-265.934C73.7581,-239.746 102.873,-185.698 143,-155 145.324,-153.222 147.787,-151.562 150.345,-150.012"/>
<polygon fill="midnightblue" stroke="midnightblue" points="152.2,-152.988 159.342,-145.162 148.879,-146.826 152.2,-152.988"/>
</g>
<!-- Node27 -->
<g id="node24" class="node"><title>Node27</title>
<g id="a_node24"><a xlink:href="classEigen_1_1ComplexSchur.html#afed8177cf9836f032d42bdb6c6bc6e01" target="_top" xlink:title="Returns the unitary matrix in the Schur decomposition. ">
<polygon fill="none" stroke="black" points="153.5,-66 153.5,-96 272.5,-96 272.5,-66 153.5,-66"/>
<text text-anchor="start" x="161.5" y="-84" font-family="Helvetica,sans-Serif" font-size="10.00">Eigen::ComplexSchur</text>
<text text-anchor="middle" x="213" y="-73" font-family="Helvetica,sans-Serif" font-size="10.00">::matrixU</text>
</a>
</g>
</g>
<!-- Node4&#45;&gt;Node27 -->
<g id="edge27" class="edge"><title>Node4&#45;&gt;Node27</title>
<path fill="none" stroke="midnightblue" d="M57.9683,-265.892C66.4816,-232.15 91.5662,-150.093 143,-105 144.344,-103.822 145.749,-102.7 147.205,-101.633"/>
<polygon fill="midnightblue" stroke="midnightblue" points="149.411,-104.38 156.016,-96.0965 145.687,-98.4532 149.411,-104.38"/>
</g>
<!-- Node28 -->
<g id="node25" class="node"><title>Node28</title>
<g id="a_node25"><a xlink:href="level1__real__impl_8h.html#ae381d5286bacccc54459c8ae7dc50202" target="_top" xlink:title="rot">
<polygon fill="none" stroke="black" points="198,-252.5 198,-271.5 228,-271.5 228,-252.5 198,-252.5"/>
<text text-anchor="middle" x="213" y="-259.5" font-family="Helvetica,sans-Serif" font-size="10.00">rot</text>
</a>
</g>
</g>
<!-- Node4&#45;&gt;Node28 -->
<g id="edge29" class="edge"><title>Node4&#45;&gt;Node28</title>
<path fill="none" stroke="midnightblue" d="M107.383,-274.62C134.627,-271.334 166.518,-267.487 187.863,-264.912"/>
<polygon fill="midnightblue" stroke="midnightblue" points="188.474,-268.364 197.983,-263.691 187.636,-261.414 188.474,-268.364"/>
</g>
<!-- Node42 -->
<g id="node39" class="node"><title>Node42</title>
<g id="a_node39"><a xlink:href="ComplexSchur__matrixT_8cpp.html#a8796b04bcff2f436eb964e9dadba55a4" target="_top" xlink:title="schurOfA">
<polygon fill="none" stroke="black" points="183,-27.5 183,-46.5 243,-46.5 243,-27.5 183,-27.5"/>
<text text-anchor="middle" x="213" y="-34.5" font-family="Helvetica,sans-Serif" font-size="10.00">schurOfA</text>
</a>
</g>
</g>
<!-- Node4&#45;&gt;Node42 -->
<g id="edge45" class="edge"><title>Node4&#45;&gt;Node42</title>
<path fill="none" stroke="midnightblue" d="M55.8845,-265.812C60.4031,-225.351 78.3901,-114.098 143,-56 151.262,-48.571 162.171,-44.0137 172.869,-41.2283"/>
<polygon fill="midnightblue" stroke="midnightblue" points="173.924,-44.5818 182.969,-39.0649 172.458,-37.7371 173.924,-44.5818"/>
</g>
<!-- Node7 -->
<g id="node4" class="node"><title>Node7</title>
<g id="a_node4"><a xlink:href="exceptions_8cpp.html#a75f785bf0f51cbc94279c80d143642ae" target="_top" xlink:title="conj">
<polygon fill="none" stroke="black" points="544,-325.5 544,-344.5 580,-344.5 580,-325.5 544,-325.5"/>
<text text-anchor="middle" x="562" y="-332.5" font-family="Helvetica,sans-Serif" font-size="10.00">conj</text>
</a>
</g>
</g>
<!-- Node6&#45;&gt;Node7 -->
<g id="edge3" class="edge"><title>Node6&#45;&gt;Node7</title>
<path fill="none" stroke="midnightblue" d="M271.432,-366.792C318.52,-368.992 386.813,-370.102 446,-363 476.608,-359.327 510.836,-350.343 533.93,-343.534"/>
<polygon fill="midnightblue" stroke="midnightblue" points="535.141,-346.825 543.704,-340.586 533.119,-340.123 535.141,-346.825"/>
</g>
<!-- Node8 -->
<g id="node5" class="node"><title>Node8</title>
<g id="a_node5"><a xlink:href="namespaceEigen.html#abf77613d5f9e90497c6d3e01f915b588" target="_top" xlink:title="Eigen::conj">
<polygon fill="none" stroke="black" points="348.5,-334.5 348.5,-353.5 416.5,-353.5 416.5,-334.5 348.5,-334.5"/>
<text text-anchor="middle" x="382.5" y="-341.5" font-family="Helvetica,sans-Serif" font-size="10.00">Eigen::conj</text>
</a>
</g>
</g>
<!-- Node6&#45;&gt;Node8 -->
<g id="edge4" class="edge"><title>Node6&#45;&gt;Node8</title>
<path fill="none" stroke="midnightblue" d="M271.176,-356.514C293.228,-354.013 318.023,-351.2 338.512,-348.876"/>
<polygon fill="midnightblue" stroke="midnightblue" points="338.953,-352.349 348.495,-347.744 338.164,-345.393 338.953,-352.349"/>
</g>
<!-- Node9 -->
<g id="node6" class="node"><title>Node9</title>
<g id="a_node6"><a xlink:href="classEigen_1_1JacobiRotation.html#a38fec2c4da529ef3d05ff37b848b4227" target="_top" xlink:title="Eigen::JacobiRotation\l::JacobiRotation">
<polygon fill="none" stroke="black" points="324.5,-460 324.5,-490 440.5,-490 440.5,-460 324.5,-460"/>
<text text-anchor="start" x="332.5" y="-478" font-family="Helvetica,sans-Serif" font-size="10.00">Eigen::JacobiRotation</text>
<text text-anchor="middle" x="382.5" y="-467" font-family="Helvetica,sans-Serif" font-size="10.00">::JacobiRotation</text>
</a>
</g>
</g>
<!-- Node6&#45;&gt;Node9 -->
<g id="edge5" class="edge"><title>Node6&#45;&gt;Node9</title>
<path fill="none" stroke="midnightblue" d="M228.773,-378.17C248.056,-397.276 283.541,-430.124 319,-451 321.805,-452.651 324.743,-454.228 327.753,-455.728"/>
<polygon fill="midnightblue" stroke="midnightblue" points="326.39,-458.954 336.934,-459.989 329.338,-452.604 326.39,-458.954"/>
</g>
<!-- Node6&#45;&gt;Node10 -->
<g id="edge6" class="edge"><title>Node6&#45;&gt;Node10</title>
<path fill="none" stroke="midnightblue" d="M254.12,-347.91C277.446,-339.137 307.036,-328.007 331.825,-318.684"/>
<polygon fill="midnightblue" stroke="midnightblue" points="333.289,-321.872 341.417,-315.076 330.825,-315.321 333.289,-321.872"/>
</g>
<!-- Node11 -->
<g id="node8" class="node"><title>Node11</title>
<g id="a_node8"><a xlink:href="classEigen_1_1JacobiRotation.html#a69076401f22e883dc76b6ff9074ac669" target="_top" xlink:title="Eigen::JacobiRotation\l::makeJacobi">
<polygon fill="none" stroke="black" points="324.5,-411 324.5,-441 440.5,-441 440.5,-411 324.5,-411"/>
<text text-anchor="start" x="332.5" y="-429" font-family="Helvetica,sans-Serif" font-size="10.00">Eigen::JacobiRotation</text>
<text text-anchor="middle" x="382.5" y="-418" font-family="Helvetica,sans-Serif" font-size="10.00">::makeJacobi</text>
</a>
</g>
</g>
<!-- Node6&#45;&gt;Node11 -->
<g id="edge7" class="edge"><title>Node6&#45;&gt;Node11</title>
<path fill="none" stroke="midnightblue" d="M254.12,-378.09C277.446,-386.863 307.036,-397.993 331.825,-407.316"/>
<polygon fill="midnightblue" stroke="midnightblue" points="330.825,-410.679 341.417,-410.924 333.289,-404.128 330.825,-410.679"/>
</g>
<!-- Node13&#45;&gt;Node5 -->
<g id="edge12" class="edge"><title>Node13&#45;&gt;Node5</title>
<path fill="none" stroke="midnightblue" d="M275.42,-620.966C303.056,-614.201 334.192,-606.58 355.545,-601.353"/>
<polygon fill="midnightblue" stroke="midnightblue" points="356.584,-604.702 365.465,-598.925 354.92,-597.903 356.584,-604.702"/>
</g>
<!-- Node13&#45;&gt;Node14 -->
<g id="edge10" class="edge"><title>Node13&#45;&gt;Node14</title>
<path fill="none" stroke="midnightblue" d="M229.023,-651.065C257.407,-679.503 316.328,-738.406 319,-740 322.616,-742.157 326.497,-744.088 330.492,-745.813"/>
<polygon fill="midnightblue" stroke="midnightblue" points="329.354,-749.126 339.943,-749.474 331.883,-742.598 329.354,-749.126"/>
</g>
<!-- Node15 -->
<g id="node12" class="node"><title>Node15</title>
<g id="a_node12"><a xlink:href="sparse__permutations_8cpp.html#ad87822100feba90851ac71ba08fce30b" target="_top" xlink:title="eval">
<polygon fill="none" stroke="black" points="364.5,-623.5 364.5,-642.5 400.5,-642.5 400.5,-623.5 364.5,-623.5"/>
<text text-anchor="middle" x="382.5" y="-630.5" font-family="Helvetica,sans-Serif" font-size="10.00">eval</text>
</a>
</g>
</g>
<!-- Node13&#45;&gt;Node15 -->
<g id="edge11" class="edge"><title>Node13&#45;&gt;Node15</title>
<path fill="none" stroke="midnightblue" d="M283.096,-634.762C308.071,-634.315 334.842,-633.836 354.146,-633.49"/>
<polygon fill="midnightblue" stroke="midnightblue" points="354.375,-636.986 364.311,-633.308 354.249,-629.988 354.375,-636.986"/>
</g>
<!-- Node16 -->
<g id="node13" class="node"><title>Node16</title>
<g id="a_node13"><a xlink:href="namespacempfr.html#a0183f8cadde6442a5dfb40140409a5e0" target="_top" xlink:title="mpfr::ldexp">
<polygon fill="none" stroke="black" points="347,-661.5 347,-680.5 418,-680.5 418,-661.5 347,-661.5"/>
<text text-anchor="middle" x="382.5" y="-668.5" font-family="Helvetica,sans-Serif" font-size="10.00">mpfr::ldexp</text>
</a>
</g>
</g>
<!-- Node13&#45;&gt;Node16 -->
<g id="edge13" class="edge"><title>Node13&#45;&gt;Node16</title>
<path fill="none" stroke="midnightblue" d="M283.096,-650.438C301.305,-654.243 320.468,-658.247 336.996,-661.701"/>
<polygon fill="midnightblue" stroke="midnightblue" points="336.41,-665.154 346.915,-663.773 337.842,-658.302 336.41,-665.154"/>
</g>
<!-- Node20 -->
<g id="node17" class="node"><title>Node20</title>
<g id="a_node17"><a xlink:href="namespaceEigen.html#ae51c91f920f6ea4a7f6f72caa1e8249f" target="_top" xlink:title="Compute matrix square root of triangular matrix. ">
<polygon fill="none" stroke="black" points="330.5,-700 330.5,-730 434.5,-730 434.5,-700 330.5,-700"/>
<text text-anchor="start" x="338.5" y="-718" font-family="Helvetica,sans-Serif" font-size="10.00">Eigen::matrix_sqrt</text>
<text text-anchor="middle" x="382.5" y="-707" font-family="Helvetica,sans-Serif" font-size="10.00">_triangular</text>
</a>
</g>
</g>
<!-- Node13&#45;&gt;Node20 -->
<g id="edge17" class="edge"><title>Node13&#45;&gt;Node20</title>
<path fill="none" stroke="midnightblue" d="M241.724,-651.168C262.691,-662.416 292.328,-677.84 319,-690 323.42,-692.015 328.052,-694.035 332.71,-696.004"/>
<polygon fill="midnightblue" stroke="midnightblue" points="331.674,-699.363 342.252,-699.96 334.354,-692.897 331.674,-699.363"/>
</g>
<!-- Node17 -->
<g id="node14" class="node"><title>Node17</title>
<g id="a_node14"><a xlink:href="classmpfr_1_1mpreal.html#af4e3b56888463376c675cac70b6ceca3" target="_top" xlink:title="mpfr::mpreal::mpfr_ptr">
<polygon fill="none" stroke="black" points="499,-588.5 499,-607.5 625,-607.5 625,-588.5 499,-588.5"/>
<text text-anchor="middle" x="562" y="-595.5" font-family="Helvetica,sans-Serif" font-size="10.00">mpfr::mpreal::mpfr_ptr</text>
</a>
</g>
</g>
<!-- Node16&#45;&gt;Node17 -->
<g id="edge14" class="edge"><title>Node16&#45;&gt;Node17</title>
<path fill="none" stroke="midnightblue" d="M418.187,-661.424C427.322,-658.64 437.108,-655.419 446,-652 476.624,-640.225 510.486,-623.902 533.484,-612.292"/>
<polygon fill="midnightblue" stroke="midnightblue" points="535.312,-615.289 542.634,-607.632 532.135,-609.052 535.312,-615.289"/>
</g>
<!-- Node18 -->
<g id="node15" class="node"><title>Node18</title>
<g id="a_node15"><a xlink:href="classmpfr_1_1mpreal.html#a566f64ca066c54923d19c11d6c3d15cd" target="_top" xlink:title="mpfr::mpreal::mpfr\l_srcptr">
<polygon fill="none" stroke="black" points="508.5,-521 508.5,-551 615.5,-551 615.5,-521 508.5,-521"/>
<text text-anchor="start" x="516.5" y="-539" font-family="Helvetica,sans-Serif" font-size="10.00">mpfr::mpreal::mpfr</text>
<text text-anchor="middle" x="562" y="-528" font-family="Helvetica,sans-Serif" font-size="10.00">_srcptr</text>
</a>
</g>
</g>
<!-- Node16&#45;&gt;Node18 -->
<g id="edge15" class="edge"><title>Node16&#45;&gt;Node18</title>
<path fill="none" stroke="midnightblue" d="M418.117,-665.82C427.961,-663.011 438.132,-658.679 446,-652 473.578,-628.588 456.941,-605.09 482,-579 490.877,-569.758 502.18,-562.023 513.442,-555.778"/>
<polygon fill="midnightblue" stroke="midnightblue" points="515.176,-558.821 522.419,-551.089 511.935,-552.617 515.176,-558.821"/>
</g>
<!-- Node19 -->
<g id="node16" class="node"><title>Node19</title>
<g id="a_node16"><a xlink:href="classmpfr_1_1mpreal.html#ae0bdf9ca1838bd5851ac1c7c6b360553" target="_top" xlink:title="mpfr::mpreal::get_default_rnd">
<polygon fill="none" stroke="black" points="482,-661.5 482,-680.5 642,-680.5 642,-661.5 482,-661.5"/>
<text text-anchor="middle" x="562" y="-668.5" font-family="Helvetica,sans-Serif" font-size="10.00">mpfr::mpreal::get_default_rnd</text>
</a>
</g>
</g>
<!-- Node16&#45;&gt;Node19 -->
<g id="edge16" class="edge"><title>Node16&#45;&gt;Node19</title>
<path fill="none" stroke="midnightblue" d="M418.145,-671C433.624,-671 452.654,-671 471.717,-671"/>
<polygon fill="midnightblue" stroke="midnightblue" points="471.978,-674.5 481.978,-671 471.978,-667.5 471.978,-674.5"/>
</g>
<!-- Node21 -->
<g id="node18" class="node"><title>Node21</title>
<g id="a_node18"><a xlink:href="ArrayCwiseUnaryOps_8h.html#a656b9217a2fcb6de59dc8d1eb3079cc7" target="_top" xlink:title="sqrt">
<polygon fill="none" stroke="black" points="544.5,-705.5 544.5,-724.5 579.5,-724.5 579.5,-705.5 544.5,-705.5"/>
<text text-anchor="middle" x="562" y="-712.5" font-family="Helvetica,sans-Serif" font-size="10.00">sqrt</text>
</a>
</g>
</g>
<!-- Node20&#45;&gt;Node21 -->
<g id="edge18" class="edge"><title>Node20&#45;&gt;Node21</title>
<path fill="none" stroke="midnightblue" d="M434.84,-715C467.272,-715 507.861,-715 534.101,-715"/>
<polygon fill="midnightblue" stroke="midnightblue" points="534.403,-718.5 544.403,-715 534.403,-711.5 534.403,-718.5"/>
</g>
<!-- Node24 -->
<g id="node21" class="node"><title>Node24</title>
<g id="a_node21"><a xlink:href="classmpfr_1_1mpreal.html#a3a7ea3586a91489fa7509562becd304d" target="_top" xlink:title="mpfr::mpreal::get_prec">
<polygon fill="none" stroke="black" points="319,-509.5 319,-528.5 446,-528.5 446,-509.5 319,-509.5"/>
<text text-anchor="middle" x="382.5" y="-516.5" font-family="Helvetica,sans-Serif" font-size="10.00">mpfr::mpreal::get_prec</text>
</a>
</g>
</g>
<!-- Node23&#45;&gt;Node24 -->
<g id="edge21" class="edge"><title>Node23&#45;&gt;Node24</title>
<path fill="none" stroke="midnightblue" d="M248.3,-519C265.738,-519 287.631,-519 308.601,-519"/>
<polygon fill="midnightblue" stroke="midnightblue" points="308.798,-522.5 318.798,-519 308.798,-515.5 308.798,-522.5"/>
</g>
<!-- Node25 -->
<g id="node22" class="node"><title>Node25</title>
<g id="a_node22"><a xlink:href="classmpfr_1_1mpreal.html#a7e096c82de9a582878e55834733788bc" target="_top" xlink:title="mpfr::mpreal::set_prec">
<polygon fill="none" stroke="black" points="319.5,-547.5 319.5,-566.5 445.5,-566.5 445.5,-547.5 319.5,-547.5"/>
<text text-anchor="middle" x="382.5" y="-554.5" font-family="Helvetica,sans-Serif" font-size="10.00">mpfr::mpreal::set_prec</text>
</a>
</g>
</g>
<!-- Node23&#45;&gt;Node25 -->
<g id="edge23" class="edge"><title>Node23&#45;&gt;Node25</title>
<path fill="none" stroke="midnightblue" d="M248.3,-526.782C271.724,-532.096 303.189,-539.234 329.655,-545.238"/>
<polygon fill="midnightblue" stroke="midnightblue" points="329,-548.678 339.526,-547.478 330.549,-541.852 329,-548.678"/>
</g>
<!-- Node24&#45;&gt;Node18 -->
<g id="edge22" class="edge"><title>Node24&#45;&gt;Node18</title>
<path fill="none" stroke="midnightblue" d="M446.08,-524.994C462.942,-526.609 481.188,-528.356 498.069,-529.973"/>
<polygon fill="midnightblue" stroke="midnightblue" points="498.09,-533.491 508.378,-530.96 498.758,-526.523 498.09,-533.491"/>
</g>
<!-- Node25&#45;&gt;Node17 -->
<g id="edge24" class="edge"><title>Node25&#45;&gt;Node17</title>
<path fill="none" stroke="midnightblue" d="M424.668,-566.509C450.005,-572.362 482.686,-579.911 509.7,-586.15"/>
<polygon fill="midnightblue" stroke="midnightblue" points="509.217,-589.631 519.748,-588.471 510.792,-582.81 509.217,-589.631"/>
</g>
<!-- Node28&#45;&gt;Node5 -->
<g id="edge30" class="edge"><title>Node28&#45;&gt;Node5</title>
<path fill="none" stroke="midnightblue" d="M226.332,-271.551C242.285,-284.66 269.614,-309.832 283,-338 328.92,-434.625 249.031,-495.072 319,-576 327.982,-586.389 342.451,-591.201 355.206,-593.387"/>
<polygon fill="midnightblue" stroke="midnightblue" points="355,-596.889 365.36,-594.671 355.878,-589.944 355,-596.889"/>
</g>
<!-- Node29 -->
<g id="node26" class="node"><title>Node29</title>
<g id="a_node26"><a xlink:href="namespaceEigen_1_1internal.html#a5f7738a5c56c9b9decf94d9728ba7906" target="_top" xlink:title="Eigen::internal::apply\l_rotation_in_the_plane">
<polygon fill="none" stroke="black" points="320,-121 320,-151 445,-151 445,-121 320,-121"/>
<text text-anchor="start" x="328" y="-139" font-family="Helvetica,sans-Serif" font-size="10.00">Eigen::internal::apply</text>
<text text-anchor="middle" x="382.5" y="-128" font-family="Helvetica,sans-Serif" font-size="10.00">_rotation_in_the_plane</text>
</a>
</g>
</g>
<!-- Node28&#45;&gt;Node29 -->
<g id="edge31" class="edge"><title>Node28&#45;&gt;Node29</title>
<path fill="none" stroke="midnightblue" d="M228.079,-261.343C243.311,-259.926 267.493,-255.529 283,-242 312.687,-216.102 290.623,-188.327 319,-161 320.484,-159.571 322.059,-158.221 323.707,-156.944"/>
<polygon fill="midnightblue" stroke="midnightblue" points="326.044,-159.596 332.458,-151.163 322.185,-153.755 326.044,-159.596"/>
</g>
<!-- Node37 -->
<g id="node34" class="node"><title>Node37</title>
<g id="a_node34"><a xlink:href="common_8h.html#a7fecc876b02cead11e333e3d17465a3b" target="_top" xlink:title="make_vector">
<polygon fill="none" stroke="black" points="343,-82.5 343,-101.5 422,-101.5 422,-82.5 343,-82.5"/>
<text text-anchor="middle" x="382.5" y="-89.5" font-family="Helvetica,sans-Serif" font-size="10.00">make_vector</text>
</a>
</g>
</g>
<!-- Node28&#45;&gt;Node37 -->
<g id="edge40" class="edge"><title>Node28&#45;&gt;Node37</title>
<path fill="none" stroke="midnightblue" d="M228.198,-261.788C243.766,-260.775 268.462,-256.742 283,-242 325.397,-199.008 276.883,-154.267 319,-111 323.005,-106.886 327.87,-103.656 333.098,-101.121"/>
<polygon fill="midnightblue" stroke="midnightblue" points="334.793,-104.214 342.794,-97.2692 332.209,-97.7087 334.793,-104.214"/>
</g>
<!-- Node38 -->
<g id="node35" class="node"><title>Node38</title>
<g id="a_node35"><a xlink:href="level1__cplx__impl_8h.html#a8bf94ce8356a33ac47003c927a2041ce" target="_top" xlink:title="rvx">
<polygon fill="none" stroke="black" points="367,-44.5 367,-63.5 398,-63.5 398,-44.5 367,-44.5"/>
<text text-anchor="middle" x="382.5" y="-51.5" font-family="Helvetica,sans-Serif" font-size="10.00">rvx</text>
</a>
</g>
</g>
<!-- Node28&#45;&gt;Node38 -->
<g id="edge41" class="edge"><title>Node28&#45;&gt;Node38</title>
<path fill="none" stroke="midnightblue" d="M228.076,-261.959C243.773,-261.115 268.813,-257.25 283,-242 335.307,-185.771 267.06,-129.568 319,-73 328.588,-62.5579 343.714,-57.7832 356.684,-55.6309"/>
<polygon fill="midnightblue" stroke="midnightblue" points="357.405,-59.0687 366.902,-54.373 356.549,-52.1211 357.405,-59.0687"/>
</g>
<!-- Node39 -->
<g id="node36" class="node"><title>Node39</title>
<g id="a_node36"><a xlink:href="level1__cplx__impl_8h.html#a350a7cbbdbb64866d420982fd0c4aa04" target="_top" xlink:title="rvy">
<polygon fill="none" stroke="black" points="367,-246.5 367,-265.5 398,-265.5 398,-246.5 367,-246.5"/>
<text text-anchor="middle" x="382.5" y="-253.5" font-family="Helvetica,sans-Serif" font-size="10.00">rvy</text>
</a>
</g>
</g>
<!-- Node28&#45;&gt;Node39 -->
<g id="edge42" class="edge"><title>Node28&#45;&gt;Node39</title>
<path fill="none" stroke="midnightblue" d="M228.281,-261.488C256.816,-260.466 321.186,-258.161 356.74,-256.887"/>
<polygon fill="midnightblue" stroke="midnightblue" points="356.909,-260.383 366.778,-256.527 356.659,-253.388 356.909,-260.383"/>
</g>
<!-- Node40 -->
<g id="node37" class="node"><title>Node40</title>
<g id="a_node37"><a xlink:href="level1__cplx__impl_8h.html#a76b57f4654907ddf5e378e28cdac4835" target="_top" xlink:title="vx">
<polygon fill="none" stroke="black" points="368,-208.5 368,-227.5 397,-227.5 397,-208.5 368,-208.5"/>
<text text-anchor="middle" x="382.5" y="-215.5" font-family="Helvetica,sans-Serif" font-size="10.00">vx</text>
</a>
</g>
</g>
<!-- Node28&#45;&gt;Node40 -->
<g id="edge43" class="edge"><title>Node28&#45;&gt;Node40</title>
<path fill="none" stroke="midnightblue" d="M228.281,-258.249C257.103,-250.677 322.483,-233.503 357.803,-224.225"/>
<polygon fill="midnightblue" stroke="midnightblue" points="358.943,-227.544 367.726,-221.618 357.165,-220.774 358.943,-227.544"/>
</g>
<!-- Node41 -->
<g id="node38" class="node"><title>Node41</title>
<g id="a_node38"><a xlink:href="level1__cplx__impl_8h.html#a597b30b6b23602957548d07b47be830a" target="_top" xlink:title="vy">
<polygon fill="none" stroke="black" points="368,-170.5 368,-189.5 397,-189.5 397,-170.5 368,-170.5"/>
<text text-anchor="middle" x="382.5" y="-177.5" font-family="Helvetica,sans-Serif" font-size="10.00">vy</text>
</a>
</g>
</g>
<!-- Node28&#45;&gt;Node41 -->
<g id="edge44" class="edge"><title>Node28&#45;&gt;Node41</title>
<path fill="none" stroke="midnightblue" d="M228.232,-260.355C242.941,-258.115 266.077,-253.038 283,-242 303.876,-228.384 298.212,-212.752 319,-199 330.632,-191.305 345.511,-186.619 357.833,-183.826"/>
<polygon fill="midnightblue" stroke="midnightblue" points="358.733,-187.215 367.858,-181.831 357.367,-180.35 358.733,-187.215"/>
</g>
<!-- Node29&#45;&gt;Node7 -->
<g id="edge34" class="edge"><title>Node29&#45;&gt;Node7</title>
<path fill="none" stroke="midnightblue" d="M433.533,-151.156C438.122,-153.92 442.392,-157.174 446,-161 480.711,-197.813 453.503,-227.192 482,-269 496.229,-289.875 518.832,-307.821 536.222,-319.706"/>
<polygon fill="midnightblue" stroke="midnightblue" points="534.496,-322.761 544.769,-325.353 538.355,-316.921 534.496,-322.761"/>
</g>
<!-- Node30 -->
<g id="node27" class="node"><title>Node30</title>
<g id="a_node27"><a xlink:href="classEigen_1_1JacobiRotation.html#af1c132146bc93a872b799bc57d9ced50" target="_top" xlink:title="Eigen::JacobiRotation::c">
<polygon fill="none" stroke="black" points="498.5,-202.5 498.5,-221.5 625.5,-221.5 625.5,-202.5 498.5,-202.5"/>
<text text-anchor="middle" x="562" y="-209.5" font-family="Helvetica,sans-Serif" font-size="10.00">Eigen::JacobiRotation::c</text>
</a>
</g>
</g>
<!-- Node29&#45;&gt;Node30 -->
<g id="edge32" class="edge"><title>Node29&#45;&gt;Node30</title>
<path fill="none" stroke="midnightblue" d="M426.82,-151.041C433.433,-153.982 440.035,-157.314 446,-161 464.21,-172.254 463.025,-183.089 482,-193 486.495,-195.348 491.286,-197.411 496.201,-199.223"/>
<polygon fill="midnightblue" stroke="midnightblue" points="495.166,-202.568 505.76,-202.408 497.379,-195.926 495.166,-202.568"/>
</g>
<!-- Node31 -->
<g id="node28" class="node"><title>Node31</title>
<g id="a_node28"><a xlink:href="classEigen_1_1JacobiRotation.html#a2c7a08e2d27875fd770d489317746969" target="_top" xlink:title="Eigen::JacobiRotation::s">
<polygon fill="none" stroke="black" points="498.5,-164.5 498.5,-183.5 625.5,-183.5 625.5,-164.5 498.5,-164.5"/>
<text text-anchor="middle" x="562" y="-171.5" font-family="Helvetica,sans-Serif" font-size="10.00">Eigen::JacobiRotation::s</text>
</a>
</g>
</g>
<!-- Node29&#45;&gt;Node31 -->
<g id="edge33" class="edge"><title>Node29&#45;&gt;Node31</title>
<path fill="none" stroke="midnightblue" d="M445.083,-149.184C465.12,-153.474 487.203,-158.201 506.67,-162.369"/>
<polygon fill="midnightblue" stroke="midnightblue" points="506.076,-165.821 516.588,-164.492 507.542,-158.976 506.076,-165.821"/>
</g>
<!-- Node32 -->
<g id="node29" class="node"><title>Node32</title>
<g id="a_node29"><a xlink:href="namespaceEigen_1_1internal.html#aaab57ef8d873301545ff0afbf2e28458" target="_top" xlink:title="Eigen::internal::pstore">
<polygon fill="none" stroke="black" points="501,-126.5 501,-145.5 623,-145.5 623,-126.5 501,-126.5"/>
<text text-anchor="middle" x="562" y="-133.5" font-family="Helvetica,sans-Serif" font-size="10.00">Eigen::internal::pstore</text>
</a>
</g>
</g>
<!-- Node29&#45;&gt;Node32 -->
<g id="edge35" class="edge"><title>Node29&#45;&gt;Node32</title>
<path fill="none" stroke="midnightblue" d="M445.083,-136C459.727,-136 475.463,-136 490.472,-136"/>
<polygon fill="midnightblue" stroke="midnightblue" points="490.725,-139.5 500.725,-136 490.725,-132.5 490.725,-139.5"/>
</g>
<!-- Node33 -->
<g id="node30" class="node"><title>Node33</title>
<g id="a_node30"><a xlink:href="namespaceEigen_1_1internal.html#a0f50f3baa0dcc73cd1c0baa06e5c8c13" target="_top" xlink:title="Eigen::internal::padd">
<polygon fill="none" stroke="black" points="504.5,-88.5 504.5,-107.5 619.5,-107.5 619.5,-88.5 504.5,-88.5"/>
<text text-anchor="middle" x="562" y="-95.5" font-family="Helvetica,sans-Serif" font-size="10.00">Eigen::internal::padd</text>
</a>
</g>
</g>
<!-- Node29&#45;&gt;Node33 -->
<g id="edge36" class="edge"><title>Node29&#45;&gt;Node33</title>
<path fill="none" stroke="midnightblue" d="M445.083,-122.816C465.12,-118.526 487.203,-113.799 506.67,-109.631"/>
<polygon fill="midnightblue" stroke="midnightblue" points="507.542,-113.024 516.588,-107.508 506.076,-106.179 507.542,-113.024"/>
</g>
<!-- Node34 -->
<g id="node31" class="node"><title>Node34</title>
<g id="a_node31"><a xlink:href="structEigen_1_1internal_1_1conj__helper.html#a10c2bdc3cc1a624a2c8d5d9ccc89679e" target="_top" xlink:title="Eigen::internal::conj\l_helper::pmul">
<polygon fill="none" stroke="black" points="507,-39 507,-69 617,-69 617,-39 507,-39"/>
<text text-anchor="start" x="515" y="-57" font-family="Helvetica,sans-Serif" font-size="10.00">Eigen::internal::conj</text>
<text text-anchor="middle" x="562" y="-46" font-family="Helvetica,sans-Serif" font-size="10.00">_helper::pmul</text>
</a>
</g>
</g>
<!-- Node29&#45;&gt;Node34 -->
<g id="edge37" class="edge"><title>Node29&#45;&gt;Node34</title>
<path fill="none" stroke="midnightblue" d="M426.82,-120.959C433.433,-118.018 440.035,-114.686 446,-111 464.21,-99.7455 463.386,-89.5729 482,-79 486.769,-76.2912 491.87,-73.8348 497.097,-71.6156"/>
<polygon fill="midnightblue" stroke="midnightblue" points="498.578,-74.7943 506.6,-67.8741 496.013,-68.2809 498.578,-74.7943"/>
</g>
<!-- Node35 -->
<g id="node32" class="node"><title>Node35</title>
<g id="a_node32"><a xlink:href="namespaceEigen_1_1internal.html#acfb1e7fe49c73d1885dea028b1745e6a" target="_top" xlink:title="Eigen::internal::psub">
<polygon fill="none" stroke="black" points="505,-0.5 505,-19.5 619,-19.5 619,-0.5 505,-0.5"/>
<text text-anchor="middle" x="562" y="-7.5" font-family="Helvetica,sans-Serif" font-size="10.00">Eigen::internal::psub</text>
</a>
</g>
</g>
<!-- Node29&#45;&gt;Node35 -->
<g id="edge38" class="edge"><title>Node29&#45;&gt;Node35</title>
<path fill="none" stroke="midnightblue" d="M432.56,-120.855C437.447,-118.078 442.052,-114.819 446,-111 474.607,-83.3266 451.47,-54.5364 482,-29 486.022,-25.6358 490.542,-22.8479 495.33,-20.5401"/>
<polygon fill="midnightblue" stroke="midnightblue" points="496.874,-23.69 504.808,-16.668 494.227,-17.2099 496.874,-23.69"/>
</g>
<!-- Node36 -->
<g id="node33" class="node"><title>Node36</title>
<g id="a_node33"><a xlink:href="namespaceEigen_1_1internal.html#abcb1c5d429335ed8c976a6b238287a2e" target="_top" xlink:title="Eigen::internal::pstoreu">
<polygon fill="none" stroke="black" points="498,-240.5 498,-259.5 626,-259.5 626,-240.5 498,-240.5"/>
<text text-anchor="middle" x="562" y="-247.5" font-family="Helvetica,sans-Serif" font-size="10.00">Eigen::internal::pstoreu</text>
</a>
</g>
</g>
<!-- Node29&#45;&gt;Node36 -->
<g id="edge39" class="edge"><title>Node29&#45;&gt;Node36</title>
<path fill="none" stroke="midnightblue" d="M431.699,-151.045C436.86,-153.852 441.764,-157.147 446,-161 471.878,-184.542 454.49,-209.388 482,-231 484.288,-232.797 486.72,-234.428 489.258,-235.908"/>
<polygon fill="midnightblue" stroke="midnightblue" points="487.729,-239.057 498.241,-240.38 490.848,-232.79 487.729,-239.057"/>
</g>
</g>
</svg>
        <g id="navigator" transform="translate(0 0)" fill="#404254">
                <rect fill="#f2f5e9" fill-opacity="0.5" stroke="#606060" stroke-width=".5" x="0" y="0" width="60" height="60"/>
                <use id="zoomplus" xlink:href="#zoomPlus" x="17" y="9" onmousedown="handleZoom(evt,'in')"/>
                <use id="zoomminus" xlink:href="#zoomMin" x="42" y="9" onmousedown="handleZoom(evt,'out')"/>
                <use id="reset" xlink:href="#resetDef" x="30" y="36" onmousedown="handleReset()"/>
                <g id="arrowUp" xlink:href="#dirArrow" transform="translate(30 24)" onmousedown="handlePan(0,-1)">
                  <use xlink:href="#rim" fill="#404040">
                        <set attributeName="fill" to="#808080" begin="arrowUp.mouseover" end="arrowUp.mouseout"/>
                  </use>
                  <path fill="none" stroke="white" stroke-width="1.5" d="M0,-3.0v7 M-2.5,-0.5L0,-3.0L2.5,-0.5"/>
                </g>
                <g id="arrowRight" xlink:href="#dirArrow" transform="rotate(90) translate(36 -43)" onmousedown="handlePan(1,0)">
                  <use xlink:href="#rim" fill="#404040">
                        <set attributeName="fill" to="#808080" begin="arrowRight.mouseover" end="arrowRight.mouseout"/>
                  </use>
                  <path fill="none" stroke="white" stroke-width="1.5" d="M0,-3.0v7 M-2.5,-0.5L0,-3.0L2.5,-0.5"/>
                </g>
                <g id="arrowDown" xlink:href="#dirArrow" transform="rotate(180) translate(-30 -48)" onmousedown="handlePan(0,1)">
                  <use xlink:href="#rim" fill="#404040">
                        <set attributeName="fill" to="#808080" begin="arrowDown.mouseover" end="arrowDown.mouseout"/>
                  </use>
                  <path fill="none" stroke="white" stroke-width="1.5" d="M0,-3.0v7 M-2.5,-0.5L0,-3.0L2.5,-0.5"/>
                </g>
                <g id="arrowLeft" xlink:href="#dirArrow" transform="rotate(270) translate(-36 17)" onmousedown="handlePan(-1,0)">
                  <use xlink:href="#rim" fill="#404040">
                        <set attributeName="fill" to="#808080" begin="arrowLeft.mouseover" end="arrowLeft.mouseout"/>
                  </use>
                  <path fill="none" stroke="white" stroke-width="1.5" d="M0,-3.0v7 M-2.5,-0.5L0,-3.0L2.5,-0.5"/>
                </g>
        </g>
        <svg viewBox="0 0 15 15" width="100%" height="30px" preserveAspectRatio="xMaxYMin meet">
         <g id="arrow_out" transform="scale(0.3 0.3)">
          <a xlink:href="classEigen_1_1MatrixPower_aa1258393dc13acd6e401e000f99b915f_cgraph_org.svg" target="_base">
           <rect id="button" ry="5" rx="5" y="6" x="6" height="38" width="38"
                fill="#f2f5e9" fill-opacity="0.5" stroke="#606060" stroke-width="1.0"/>
           <path id="arrow"
             d="M 11.500037,31.436501 C 11.940474,20.09759 22.043105,11.32322 32.158766,21.979434 L 37.068811,17.246167 C 37.068811,17.246167 37.088388,32 37.088388,32 L 22.160133,31.978069 C 22.160133,31.978069 26.997745,27.140456 26.997745,27.140456 C 18.528582,18.264221 13.291696,25.230495 11.500037,31.436501 z"
             style="fill:#404040;"/>
          </a>
         </g>
        </svg>
</svg>
