<?xml version="1.0" encoding="UTF-8" standalone="no"?>
<!DOCTYPE svg PUBLIC "-//W3C//DTD SVG 1.1//EN"
 "http://www.w3.org/Graphics/SVG/1.1/DTD/svg11.dtd">
<!-- Generated by graphviz version 2.38.0 (20140413.2041)
 -->
<!-- Title: Eigen::BenchTimer::stop Pages: 1 -->
<svg width="354pt" height="88pt"
 viewBox="0.00 0.00 354.00 88.00" xmlns="http://www.w3.org/2000/svg" xmlns:xlink="http://www.w3.org/1999/xlink">
<g id="graph0" class="graph" transform="scale(1 1) rotate(0) translate(4 84)">
<title>Eigen::BenchTimer::stop</title>
<!-- Node63 -->
<g id="node1" class="node"><title>Node63</title>
<polygon fill="#bfbfbf" stroke="black" points="0,-30 0,-49 133,-49 133,-30 0,-30"/>
<text text-anchor="middle" x="66.5" y="-37" font-family="Helvetica,sans-Serif" font-size="10.00">Eigen::BenchTimer::stop</text>
</g>
<!-- Node64 -->
<g id="node2" class="node"><title>Node64</title>
<g id="a_node2"><a xlink:href="classEigen_1_1BenchTimer.html#a5e1faf3cf0c7958128fc4ad10377f51c" target="_top" xlink:title="Eigen::BenchTimer::\lgetCpuTime">
<polygon fill="none" stroke="black" points="169,-49.5 169,-79.5 281,-79.5 281,-49.5 169,-49.5"/>
<text text-anchor="start" x="177" y="-67.5" font-family="Helvetica,sans-Serif" font-size="10.00">Eigen::BenchTimer::</text>
<text text-anchor="middle" x="225" y="-56.5" font-family="Helvetica,sans-Serif" font-size="10.00">getCpuTime</text>
</a>
</g>
</g>
<!-- Node63&#45;&gt;Node64 -->
<g id="edge1" class="edge"><title>Node63&#45;&gt;Node64</title>
<path fill="none" stroke="midnightblue" d="M127.112,-49.0227C137.521,-50.6854 148.396,-52.4227 158.942,-54.1073"/>
<polygon fill="midnightblue" stroke="midnightblue" points="158.499,-57.5809 168.926,-55.7023 159.604,-50.6686 158.499,-57.5809"/>
</g>
<!-- Node66 -->
<g id="node4" class="node"><title>Node66</title>
<g id="a_node4"><a xlink:href="classEigen_1_1BenchTimer.html#af215200501091952ffa5e919fe31cfca" target="_top" xlink:title="Eigen::BenchTimer::\lgetRealTime">
<polygon fill="none" stroke="black" points="169,-0.5 169,-30.5 281,-30.5 281,-0.5 169,-0.5"/>
<text text-anchor="start" x="177" y="-18.5" font-family="Helvetica,sans-Serif" font-size="10.00">Eigen::BenchTimer::</text>
<text text-anchor="middle" x="225" y="-7.5" font-family="Helvetica,sans-Serif" font-size="10.00">getRealTime</text>
</a>
</g>
</g>
<!-- Node63&#45;&gt;Node66 -->
<g id="edge3" class="edge"><title>Node63&#45;&gt;Node66</title>
<path fill="none" stroke="midnightblue" d="M129.803,-29.9456C139.419,-28.4709 149.37,-26.9448 159.043,-25.4615"/>
<polygon fill="midnightblue" stroke="midnightblue" points="159.642,-28.9106 168.996,-23.9351 158.581,-21.9915 159.642,-28.9106"/>
</g>
<!-- Node65 -->
<g id="node3" class="node"><title>Node65</title>
<g id="a_node3"><a xlink:href="Cwise__array__power__array_8cpp.html#aa9e3025f5efca2c2a39d785652f2d710" target="_top" xlink:title="e">
<polygon fill="none" stroke="black" points="317,-30 317,-49 346,-49 346,-30 317,-30"/>
<text text-anchor="middle" x="331.5" y="-37" font-family="Helvetica,sans-Serif" font-size="10.00">e</text>
</a>
</g>
</g>
<!-- Node64&#45;&gt;Node65 -->
<g id="edge2" class="edge"><title>Node64&#45;&gt;Node65</title>
<path fill="none" stroke="midnightblue" d="M281.004,-51.3411C290.199,-49.1414 299.28,-46.9689 307.104,-45.0972"/>
<polygon fill="midnightblue" stroke="midnightblue" points="307.974,-48.4878 316.885,-42.7571 306.345,-41.6799 307.974,-48.4878"/>
</g>
<!-- Node66&#45;&gt;Node65 -->
<g id="edge4" class="edge"><title>Node66&#45;&gt;Node65</title>
<path fill="none" stroke="midnightblue" d="M281.004,-28.1326C290.199,-30.2443 299.28,-32.3299 307.104,-34.1267"/>
<polygon fill="midnightblue" stroke="midnightblue" points="306.356,-37.5459 316.885,-36.3732 307.923,-30.7235 306.356,-37.5459"/>
</g>
</g>
</svg>
