<?xml version="1.0" encoding="UTF-8" standalone="no"?>
<!DOCTYPE svg PUBLIC "-//W3C//DTD SVG 1.1//EN"
 "http://www.w3.org/Graphics/SVG/1.1/DTD/svg11.dtd">
<!-- Generated by graphviz version 2.38.0 (20140413.2041)
 -->
<!-- Title: Eigen::SPQR&lt; _MatrixType &gt; Pages: 1 -->
<!--zoomable 495 -->
<svg id="main" version="1.1" xmlns="http://www.w3.org/2000/svg" xmlns:xlink="http://www.w3.org/1999/xlink" xml:space="preserve" onload="init(evt)">
<style type="text/css"><![CDATA[
.edge:hover path { stroke: red; }
.edge:hover polygon { stroke: red; fill: red; }
]]></style>
<script type="text/javascript"><![CDATA[
var edges = document.getElementsByTagName('g');
if (edges && edges.length) {
  for (var i=0;i<edges.length;i++) {
    if (edges[i].id.substr(0,4)=='edge') {
      edges[i].setAttribute('class','edge');
    }
  }
}
]]></script>
        <defs>
                <circle id="rim" cx="0" cy="0" r="7"/>
                <circle id="rim2" cx="0" cy="0" r="3.5"/>
                <g id="zoomPlus">
                        <use xlink:href="#rim" fill="#404040">
                                <set attributeName="fill" to="#808080" begin="zoomplus.mouseover" end="zoomplus.mouseout"/>
                        </use>
                        <path d="M-4,0h8M0,-4v8" fill="none" stroke="white" stroke-width="1.5" pointer-events="none"/>
                </g>
                <g id="zoomMin">
                        <use xlink:href="#rim" fill="#404040">
                                <set attributeName="fill" to="#808080" begin="zoomminus.mouseover" end="zoomminus.mouseout"/>
                        </use>
                        <path d="M-4,0h8" fill="none" stroke="white" stroke-width="1.5" pointer-events="none"/>
                </g>
                <g id="dirArrow">
                        <path fill="none" stroke="white" stroke-width="1.5" d="M0,-3.0v7 M-2.5,-0.5L0,-3.0L2.5,-0.5"/>
                </g>
               <g id="resetDef">
                       <use xlink:href="#rim2" fill="#404040">
                               <set attributeName="fill" to="#808080" begin="reset.mouseover" end="reset.mouseout"/>
                       </use>
               </g>
        </defs>

<script type="text/javascript">
var viewWidth = 1154;
var viewHeight = 495;
var sectionId = 'dynsection-1';
</script>
<script xlink:href="svgpan.js"/>
<svg id="graph" class="graph">
<g id="viewport">
<title>Eigen::SPQR&lt; _MatrixType &gt;</title>
<!-- Node3 -->
<g id="node1" class="node"><title>Node3</title>
<polygon fill="#bfbfbf" stroke="black" points="993,-193.5 993,-212.5 1146,-212.5 1146,-193.5 993,-193.5"/>
<text text-anchor="middle" x="1069.5" y="-200.5" font-family="Helvetica,sans-Serif" font-size="10.00">Eigen::SPQR&lt; _MatrixType &gt;</text>
</g>
<!-- Node4 -->
<g id="node2" class="node"><title>Node4</title>
<g id="a_node2"><a xlink:href="classEigen_1_1SparseSolverBase.html" target="_top" xlink:title="Eigen::SparseSolverBase\l\&lt; SPQR\&lt; _MatrixType \&gt; \&gt;">
<polygon fill="none" stroke="black" points="264,-130 264,-160 407,-160 407,-130 264,-130"/>
<text text-anchor="start" x="272" y="-148" font-family="Helvetica,sans-Serif" font-size="10.00">Eigen::SparseSolverBase</text>
<text text-anchor="middle" x="335.5" y="-137" font-family="Helvetica,sans-Serif" font-size="10.00">&lt; SPQR&lt; _MatrixType &gt; &gt;</text>
</a>
</g>
</g>
<!-- Node4&#45;&gt;Node3 -->
<g id="edge1" class="edge"><title>Node4&#45;&gt;Node3</title>
<path fill="none" stroke="midnightblue" d="M417.317,-152.617C506.36,-160.887 653.823,-174.22 781,-184 852.82,-189.523 934.809,-194.845 992.803,-198.444"/>
<polygon fill="midnightblue" stroke="midnightblue" points="417.568,-149.125 407.287,-151.684 416.92,-156.095 417.568,-149.125"/>
</g>
<!-- Node5 -->
<g id="node3" class="node"><title>Node5</title>
<g id="a_node3"><a xlink:href="classEigen_1_1internal_1_1noncopyable.html" target="_top" xlink:title="Eigen::internal::noncopyable">
<polygon fill="none" stroke="black" points="3,-54.5 3,-73.5 155,-73.5 155,-54.5 3,-54.5"/>
<text text-anchor="middle" x="79" y="-61.5" font-family="Helvetica,sans-Serif" font-size="10.00">Eigen::internal::noncopyable</text>
</a>
</g>
</g>
<!-- Node5&#45;&gt;Node4 -->
<g id="edge2" class="edge"><title>Node5&#45;&gt;Node4</title>
<path fill="none" stroke="#8b1a1a" d="M119.682,-76.6298C164.877,-91.0138 238.684,-114.505 286.927,-129.859"/>
<polygon fill="#8b1a1a" stroke="#8b1a1a" points="120.533,-73.2276 109.943,-73.5299 118.41,-79.898 120.533,-73.2276"/>
</g>
<!-- Node6 -->
<g id="node4" class="node"><title>Node6</title>
<g id="a_node4"><a xlink:href="classbool.html" target="_top" xlink:title="bool">
<polygon fill="none" stroke="black" points="60.5,-135.5 60.5,-154.5 97.5,-154.5 97.5,-135.5 60.5,-135.5"/>
<text text-anchor="middle" x="79" y="-142.5" font-family="Helvetica,sans-Serif" font-size="10.00">bool</text>
</a>
</g>
</g>
<!-- Node6&#45;&gt;Node3 -->
<g id="edge23" class="edge"><title>Node6&#45;&gt;Node3</title>
<path fill="none" stroke="#9a32cd" stroke-dasharray="5,2" d="M107.16,-134.954C153.235,-118.838 249.959,-89 334.5,-89 334.5,-89 334.5,-89 838,-89 901.431,-89 918.643,-99.8897 975,-129 1009.21,-146.671 1043.07,-177.728 1059.02,-193.391"/>
<polygon fill="#9a32cd" stroke="#9a32cd" points="105.849,-131.705 97.6019,-138.356 108.197,-138.3 105.849,-131.705"/>
<text text-anchor="middle" x="610.5" y="-125" font-family="Helvetica,sans-Serif" font-size="10.00"> m_factorizationIsOk</text>
<text text-anchor="middle" x="610.5" y="-114" font-family="Helvetica,sans-Serif" font-size="10.00">m_analysisIsOk</text>
<text text-anchor="middle" x="610.5" y="-103" font-family="Helvetica,sans-Serif" font-size="10.00">m_useDefaultThreshold</text>
<text text-anchor="middle" x="610.5" y="-92" font-family="Helvetica,sans-Serif" font-size="10.00">m_isRUpToDate</text>
</g>
<!-- Node6&#45;&gt;Node4 -->
<g id="edge3" class="edge"><title>Node6&#45;&gt;Node4</title>
<path fill="none" stroke="#9a32cd" stroke-dasharray="5,2" d="M108.005,-145C145.235,-145 212.324,-145 263.856,-145"/>
<polygon fill="#9a32cd" stroke="#9a32cd" points="107.896,-141.5 97.8959,-145 107.896,-148.5 107.896,-141.5"/>
<text text-anchor="middle" x="211" y="-148" font-family="Helvetica,sans-Serif" font-size="10.00"> m_isInitialized</text>
</g>
<!-- Node15 -->
<g id="node13" class="node"><title>Node15</title>
<g id="a_node13"><a xlink:href="classEigen_1_1SparseMatrixBase.html" target="_top" xlink:title="Base class of any sparse matrices or sparse expressions. ">
<polygon fill="none" stroke="black" points="267.5,-199 267.5,-229 403.5,-229 403.5,-199 267.5,-199"/>
<text text-anchor="start" x="275.5" y="-217" font-family="Helvetica,sans-Serif" font-size="10.00">Eigen::SparseMatrixBase</text>
<text text-anchor="middle" x="335.5" y="-206" font-family="Helvetica,sans-Serif" font-size="10.00">&lt; Derived &gt;</text>
</a>
</g>
</g>
<!-- Node6&#45;&gt;Node15 -->
<g id="edge14" class="edge"><title>Node6&#45;&gt;Node15</title>
<path fill="none" stroke="#9a32cd" stroke-dasharray="5,2" d="M107.724,-152.517C148.7,-163.626 226.276,-184.658 279.169,-198.999"/>
<polygon fill="#9a32cd" stroke="#9a32cd" points="108.463,-149.091 97.8959,-149.852 106.632,-155.847 108.463,-149.091"/>
<text text-anchor="middle" x="211" y="-193" font-family="Helvetica,sans-Serif" font-size="10.00"> m_isRValue</text>
</g>
<!-- Node7 -->
<g id="node5" class="node"><title>Node7</title>
<polygon fill="none" stroke="#bfbfbf" points="786.5,-307.5 786.5,-326.5 887.5,-326.5 887.5,-307.5 786.5,-307.5"/>
<text text-anchor="middle" x="837" y="-314.5" font-family="Helvetica,sans-Serif" font-size="10.00">cholmod_dense *</text>
</g>
<!-- Node7&#45;&gt;Node3 -->
<g id="edge4" class="edge"><title>Node7&#45;&gt;Node3</title>
<path fill="none" stroke="#9a32cd" stroke-dasharray="5,2" d="M897.838,-314.209C922.763,-311.134 951.346,-305.011 975,-293 1014.17,-273.107 1047.92,-231.3 1061.78,-212.506"/>
<polygon fill="#9a32cd" stroke="#9a32cd" points="897.325,-310.744 887.766,-315.314 898.088,-317.702 897.325,-310.744"/>
<text text-anchor="middle" x="943" y="-315" font-family="Helvetica,sans-Serif" font-size="10.00"> m_HTau</text>
</g>
<!-- Node8 -->
<g id="node6" class="node"><title>Node8</title>
<polygon fill="none" stroke="#bfbfbf" points="270,-445 270,-475 401,-475 401,-445 270,-445"/>
<text text-anchor="start" x="278" y="-463" font-family="Helvetica,sans-Serif" font-size="10.00">EIGEN_DEFAULT_DENSE</text>
<text text-anchor="middle" x="335.5" y="-452" font-family="Helvetica,sans-Serif" font-size="10.00">_INDEX_TYPE</text>
</g>
<!-- Node8&#45;&gt;Node3 -->
<g id="edge5" class="edge"><title>Node8&#45;&gt;Node3</title>
<path fill="none" stroke="#9a32cd" stroke-dasharray="5,2" d="M411.367,-470.424C485.118,-478.689 600.695,-486.26 699,-469 827.504,-446.438 875.44,-453.322 975,-369 1028,-324.108 1056.97,-241.163 1065.66,-212.805"/>
<polygon fill="#9a32cd" stroke="#9a32cd" points="411.579,-466.925 401.244,-469.256 410.776,-473.879 411.579,-466.925"/>
<text text-anchor="middle" x="740" y="-479" font-family="Helvetica,sans-Serif" font-size="10.00"> m_rank</text>
<text text-anchor="middle" x="740" y="-468" font-family="Helvetica,sans-Serif" font-size="10.00">m_rows</text>
</g>
<!-- Node13 -->
<g id="node11" class="node"><title>Node13</title>
<g id="a_node11"><a xlink:href="classEigen_1_1SparseMatrix.html" target="_top" xlink:title="Eigen::SparseMatrix\l\&lt; Scalar, ColMajor,\l StorageIndex \&gt;">
<polygon fill="none" stroke="black" points="781,-345.5 781,-386.5 893,-386.5 893,-345.5 781,-345.5"/>
<text text-anchor="start" x="789" y="-374.5" font-family="Helvetica,sans-Serif" font-size="10.00">Eigen::SparseMatrix</text>
<text text-anchor="start" x="789" y="-363.5" font-family="Helvetica,sans-Serif" font-size="10.00">&lt; Scalar, ColMajor,</text>
<text text-anchor="middle" x="837" y="-352.5" font-family="Helvetica,sans-Serif" font-size="10.00"> StorageIndex &gt;</text>
</a>
</g>
</g>
<!-- Node8&#45;&gt;Node13 -->
<g id="edge15" class="edge"><title>Node8&#45;&gt;Node13</title>
<path fill="none" stroke="#9a32cd" stroke-dasharray="5,2" d="M411.154,-455.273C440.201,-453.039 473.719,-449.974 504,-446 591.303,-434.543 613.477,-431.951 699,-411 726.355,-404.299 756.125,-394.797 780.905,-386.25"/>
<polygon fill="#9a32cd" stroke="#9a32cd" points="410.789,-451.791 401.079,-456.029 411.313,-458.771 410.789,-451.791"/>
<text text-anchor="middle" x="610.5" y="-457" font-family="Helvetica,sans-Serif" font-size="10.00"> m_outerSize</text>
<text text-anchor="middle" x="610.5" y="-446" font-family="Helvetica,sans-Serif" font-size="10.00">m_innerSize</text>
</g>
<!-- Node17 -->
<g id="node15" class="node"><title>Node17</title>
<g id="a_node15"><a xlink:href="classEigen_1_1internal_1_1CompressedStorage.html" target="_top" xlink:title="Eigen::internal::Compressed\lStorage\&lt; Scalar, StorageIndex \&gt;">
<polygon fill="none" stroke="black" points="522,-371 522,-401 699,-401 699,-371 522,-371"/>
<text text-anchor="start" x="530" y="-389" font-family="Helvetica,sans-Serif" font-size="10.00">Eigen::internal::Compressed</text>
<text text-anchor="middle" x="610.5" y="-378" font-family="Helvetica,sans-Serif" font-size="10.00">Storage&lt; Scalar, StorageIndex &gt;</text>
</a>
</g>
</g>
<!-- Node8&#45;&gt;Node17 -->
<g id="edge18" class="edge"><title>Node8&#45;&gt;Node17</title>
<path fill="none" stroke="#9a32cd" stroke-dasharray="5,2" d="M379.198,-440.788C393.551,-434.828 409.783,-428.619 425,-424 456.137,-414.548 490.941,-406.703 521.859,-400.643"/>
<polygon fill="#9a32cd" stroke="#9a32cd" points="377.443,-437.73 369.598,-444.851 380.171,-444.177 377.443,-437.73"/>
<text text-anchor="middle" x="464.5" y="-438" font-family="Helvetica,sans-Serif" font-size="10.00"> m_size</text>
<text text-anchor="middle" x="464.5" y="-427" font-family="Helvetica,sans-Serif" font-size="10.00">m_allocatedSize</text>
</g>
<!-- Node9 -->
<g id="node7" class="node"><title>Node9</title>
<g id="a_node7"><a xlink:href="classcholmod__common.html" target="_top" xlink:title="cholmod_common">
<polygon fill="none" stroke="black" points="784,-231.5 784,-250.5 890,-250.5 890,-231.5 784,-231.5"/>
<text text-anchor="middle" x="837" y="-238.5" font-family="Helvetica,sans-Serif" font-size="10.00">cholmod_common</text>
</a>
</g>
</g>
<!-- Node9&#45;&gt;Node3 -->
<g id="edge6" class="edge"><title>Node9&#45;&gt;Node3</title>
<path fill="none" stroke="#9a32cd" stroke-dasharray="5,2" d="M899.949,-230.787C934.348,-225.116 976.87,-218.106 1010.6,-212.546"/>
<polygon fill="#9a32cd" stroke="#9a32cd" points="899.314,-227.345 890.016,-232.425 900.452,-234.251 899.314,-227.345"/>
<text text-anchor="middle" x="943" y="-232" font-family="Helvetica,sans-Serif" font-size="10.00"> m_cc</text>
</g>
<!-- Node10 -->
<g id="node8" class="node"><title>Node10</title>
<polygon fill="none" stroke="#bfbfbf" points="291,-312.5 291,-331.5 380,-331.5 380,-312.5 291,-312.5"/>
<text text-anchor="middle" x="335.5" y="-319.5" font-family="Helvetica,sans-Serif" font-size="10.00">StorageIndex *</text>
</g>
<!-- Node10&#45;&gt;Node3 -->
<g id="edge7" class="edge"><title>Node10&#45;&gt;Node3</title>
<path fill="none" stroke="#9a32cd" stroke-dasharray="5,2" d="M390.428,-317.469C490.038,-308.771 709.469,-288.081 893,-260 929.705,-254.384 939.56,-255.079 975,-244 1001.9,-235.591 1031.45,-221.812 1049.99,-212.577"/>
<polygon fill="#9a32cd" stroke="#9a32cd" points="389.97,-313.995 380.31,-318.347 390.575,-320.969 389.97,-313.995"/>
<text text-anchor="middle" x="740" y="-298" font-family="Helvetica,sans-Serif" font-size="10.00"> m_HPinv</text>
<text text-anchor="middle" x="740" y="-287" font-family="Helvetica,sans-Serif" font-size="10.00">m_E</text>
</g>
<!-- Node10&#45;&gt;Node13 -->
<g id="edge16" class="edge"><title>Node10&#45;&gt;Node13</title>
<path fill="none" stroke="#9a32cd" stroke-dasharray="5,2" d="M390.225,-322.358C461.167,-323.357 589.866,-326.998 699,-340 726.164,-343.236 756.041,-348.681 780.942,-353.755"/>
<polygon fill="#9a32cd" stroke="#9a32cd" points="390.231,-318.857 380.187,-322.228 390.141,-325.857 390.231,-318.857"/>
<text text-anchor="middle" x="610.5" y="-354" font-family="Helvetica,sans-Serif" font-size="10.00"> m_outerIndex</text>
<text text-anchor="middle" x="610.5" y="-343" font-family="Helvetica,sans-Serif" font-size="10.00">m_innerNonZeros</text>
</g>
<!-- Node10&#45;&gt;Node17 -->
<g id="edge19" class="edge"><title>Node10&#45;&gt;Node17</title>
<path fill="none" stroke="#9a32cd" stroke-dasharray="5,2" d="M386.834,-333.8C431.488,-344.268 496.954,-359.615 545.351,-370.962"/>
<polygon fill="#9a32cd" stroke="#9a32cd" points="387.611,-330.387 377.076,-331.512 386.013,-337.202 387.611,-330.387"/>
<text text-anchor="middle" x="464.5" y="-362" font-family="Helvetica,sans-Serif" font-size="10.00"> m_indices</text>
</g>
<!-- Node11 -->
<g id="node9" class="node"><title>Node11</title>
<polygon fill="none" stroke="#bfbfbf" points="785,-155.5 785,-174.5 889,-174.5 889,-155.5 785,-155.5"/>
<text text-anchor="middle" x="837" y="-162.5" font-family="Helvetica,sans-Serif" font-size="10.00">cholmod_sparse *</text>
</g>
<!-- Node11&#45;&gt;Node3 -->
<g id="edge8" class="edge"><title>Node11&#45;&gt;Node3</title>
<path fill="none" stroke="#9a32cd" stroke-dasharray="5,2" d="M899.489,-161.313C923.269,-161.079 950.587,-162.278 975,-167 1001.81,-172.186 1030.9,-184.551 1049.4,-193.339"/>
<polygon fill="#9a32cd" stroke="#9a32cd" points="899.118,-157.819 889.185,-161.504 899.248,-164.818 899.118,-157.819"/>
<text text-anchor="middle" x="943" y="-181" font-family="Helvetica,sans-Serif" font-size="10.00"> m_H</text>
<text text-anchor="middle" x="943" y="-170" font-family="Helvetica,sans-Serif" font-size="10.00">m_cR</text>
</g>
<!-- Node12 -->
<g id="node10" class="node"><title>Node12</title>
<polygon fill="none" stroke="#bfbfbf" points="804,-117.5 804,-136.5 870,-136.5 870,-117.5 804,-117.5"/>
<text text-anchor="middle" x="837" y="-124.5" font-family="Helvetica,sans-Serif" font-size="10.00">RealScalar</text>
</g>
<!-- Node12&#45;&gt;Node3 -->
<g id="edge9" class="edge"><title>Node12&#45;&gt;Node3</title>
<path fill="none" stroke="#9a32cd" stroke-dasharray="5,2" d="M880.262,-128.869C907.885,-131.126 944.382,-136.09 975,-147 1006.37,-158.178 1038.8,-180.455 1056,-193.286"/>
<polygon fill="#9a32cd" stroke="#9a32cd" points="880.369,-125.368 870.141,-128.131 879.86,-132.349 880.369,-125.368"/>
<text text-anchor="middle" x="943" y="-150" font-family="Helvetica,sans-Serif" font-size="10.00"> m_tolerance</text>
</g>
<!-- Node13&#45;&gt;Node3 -->
<g id="edge10" class="edge"><title>Node13&#45;&gt;Node3</title>
<path fill="none" stroke="#9a32cd" stroke-dasharray="5,2" d="M903.001,-356.487C927.124,-350.734 953.758,-341.565 975,-327 1020.14,-296.049 1052.48,-236.213 1063.94,-212.764"/>
<polygon fill="#9a32cd" stroke="#9a32cd" points="902.192,-353.081 893.195,-358.675 903.717,-359.913 902.192,-353.081"/>
<text text-anchor="middle" x="943" y="-357" font-family="Helvetica,sans-Serif" font-size="10.00"> m_R</text>
</g>
<!-- Node14 -->
<g id="node12" class="node"><title>Node14</title>
<g id="a_node12"><a xlink:href="classEigen_1_1SparseCompressedBase.html" target="_top" xlink:title="Common base class for sparse [compressed]&#45;{row|column}&#45;storage format. ">
<polygon fill="none" stroke="black" points="527,-209.5 527,-250.5 694,-250.5 694,-209.5 527,-209.5"/>
<text text-anchor="start" x="535" y="-238.5" font-family="Helvetica,sans-Serif" font-size="10.00">Eigen::SparseCompressedBase</text>
<text text-anchor="start" x="535" y="-227.5" font-family="Helvetica,sans-Serif" font-size="10.00">&lt; SparseMatrix&lt; Scalar,</text>
<text text-anchor="middle" x="610.5" y="-216.5" font-family="Helvetica,sans-Serif" font-size="10.00"> _Options, StorageIndex &gt; &gt;</text>
</a>
</g>
</g>
<!-- Node14&#45;&gt;Node13 -->
<g id="edge11" class="edge"><title>Node14&#45;&gt;Node13</title>
<path fill="none" stroke="midnightblue" d="M704.049,-229.454C725.704,-233.603 747.07,-241.812 763,-257 789.063,-281.85 759.272,-307.283 781,-336 783.625,-339.469 786.773,-342.587 790.215,-345.378"/>
<polygon fill="midnightblue" stroke="midnightblue" points="704.533,-225.987 694.098,-227.823 703.401,-232.895 704.533,-225.987"/>
</g>
<!-- Node15&#45;&gt;Node14 -->
<g id="edge12" class="edge"><title>Node15&#45;&gt;Node14</title>
<path fill="none" stroke="midnightblue" d="M413.869,-218.534C449.117,-220.6 490.885,-223.048 526.759,-225.151"/>
<polygon fill="midnightblue" stroke="midnightblue" points="413.821,-215.026 403.633,-217.935 413.411,-222.014 413.821,-215.026"/>
</g>
<!-- Node16 -->
<g id="node14" class="node"><title>Node16</title>
<g id="a_node14"><a xlink:href="structEigen_1_1EigenBase.html" target="_top" xlink:title="Eigen::EigenBase\&lt; Derived \&gt;">
<polygon fill="none" stroke="black" points="0,-204.5 0,-223.5 158,-223.5 158,-204.5 0,-204.5"/>
<text text-anchor="middle" x="79" y="-211.5" font-family="Helvetica,sans-Serif" font-size="10.00">Eigen::EigenBase&lt; Derived &gt;</text>
</a>
</g>
</g>
<!-- Node16&#45;&gt;Node15 -->
<g id="edge13" class="edge"><title>Node16&#45;&gt;Node15</title>
<path fill="none" stroke="midnightblue" d="M168.474,-214C200.902,-214 237.044,-214 267.306,-214"/>
<polygon fill="midnightblue" stroke="midnightblue" points="168.088,-210.5 158.088,-214 168.088,-217.5 168.088,-210.5"/>
</g>
<!-- Node17&#45;&gt;Node13 -->
<g id="edge17" class="edge"><title>Node17&#45;&gt;Node13</title>
<path fill="none" stroke="#9a32cd" stroke-dasharray="5,2" d="M709.303,-377.287C733.753,-375.109 759.132,-372.848 780.697,-370.927"/>
<polygon fill="#9a32cd" stroke="#9a32cd" points="708.912,-373.808 699.262,-378.182 709.533,-380.78 708.912,-373.808"/>
<text text-anchor="middle" x="740" y="-379" font-family="Helvetica,sans-Serif" font-size="10.00"> m_data</text>
</g>
<!-- Node18 -->
<g id="node16" class="node"><title>Node18</title>
<polygon fill="none" stroke="#bfbfbf" points="308,-379.5 308,-398.5 363,-398.5 363,-379.5 308,-379.5"/>
<text text-anchor="middle" x="335.5" y="-386.5" font-family="Helvetica,sans-Serif" font-size="10.00">Scalar *</text>
</g>
<!-- Node18&#45;&gt;Node17 -->
<g id="edge20" class="edge"><title>Node18&#45;&gt;Node17</title>
<path fill="none" stroke="#9a32cd" stroke-dasharray="5,2" d="M373.236,-388.596C411.134,-388.18 471.634,-387.515 521.924,-386.962"/>
<polygon fill="#9a32cd" stroke="#9a32cd" points="373.134,-385.097 363.173,-388.707 373.211,-392.097 373.134,-385.097"/>
<text text-anchor="middle" x="464.5" y="-390" font-family="Helvetica,sans-Serif" font-size="10.00"> m_values</text>
</g>
<!-- Node19 -->
<g id="node17" class="node"><title>Node19</title>
<polygon fill="none" stroke="#bfbfbf" points="789,-41.5 789,-60.5 885,-60.5 885,-41.5 789,-41.5"/>
<text text-anchor="middle" x="837" y="-48.5" font-family="Helvetica,sans-Serif" font-size="10.00">ComputationInfo</text>
</g>
<!-- Node19&#45;&gt;Node3 -->
<g id="edge21" class="edge"><title>Node19&#45;&gt;Node3</title>
<path fill="none" stroke="#9a32cd" stroke-dasharray="5,2" d="M895.27,-45.7023C921.234,-45.8889 951.344,-49.9281 975,-64 1026.99,-94.927 1056.22,-167.359 1065.35,-193.434"/>
<polygon fill="#9a32cd" stroke="#9a32cd" points="895.133,-42.2035 885.174,-45.8172 895.213,-49.2031 895.133,-42.2035"/>
<text text-anchor="middle" x="943" y="-67" font-family="Helvetica,sans-Serif" font-size="10.00"> m_info</text>
</g>
<!-- Node20 -->
<g id="node18" class="node"><title>Node20</title>
<polygon fill="none" stroke="#bfbfbf" points="822.5,-0.5 822.5,-19.5 851.5,-19.5 851.5,-0.5 822.5,-0.5"/>
<text text-anchor="middle" x="837" y="-7.5" font-family="Helvetica,sans-Serif" font-size="10.00">int</text>
</g>
<!-- Node20&#45;&gt;Node3 -->
<g id="edge22" class="edge"><title>Node20&#45;&gt;Node3</title>
<path fill="none" stroke="#9a32cd" stroke-dasharray="5,2" d="M861.984,-5.35557C891.251,-1.06262 941.027,1.65709 975,-21 1038.24,-63.1785 1061.09,-162.02 1066.88,-193.317"/>
<polygon fill="#9a32cd" stroke="#9a32cd" points="861.143,-1.94685 851.846,-7.02828 862.283,-8.85345 861.143,-1.94685"/>
<text text-anchor="middle" x="943" y="-35" font-family="Helvetica,sans-Serif" font-size="10.00"> m_allow_tol</text>
<text text-anchor="middle" x="943" y="-24" font-family="Helvetica,sans-Serif" font-size="10.00">m_ordering</text>
</g>
</g>
</svg>
        <g id="navigator" transform="translate(0 0)" fill="#404254">
                <rect fill="#f2f5e9" fill-opacity="0.5" stroke="#606060" stroke-width=".5" x="0" y="0" width="60" height="60"/>
                <use id="zoomplus" xlink:href="#zoomPlus" x="17" y="9" onmousedown="handleZoom(evt,'in')"/>
                <use id="zoomminus" xlink:href="#zoomMin" x="42" y="9" onmousedown="handleZoom(evt,'out')"/>
                <use id="reset" xlink:href="#resetDef" x="30" y="36" onmousedown="handleReset()"/>
                <g id="arrowUp" xlink:href="#dirArrow" transform="translate(30 24)" onmousedown="handlePan(0,-1)">
                  <use xlink:href="#rim" fill="#404040">
                        <set attributeName="fill" to="#808080" begin="arrowUp.mouseover" end="arrowUp.mouseout"/>
                  </use>
                  <path fill="none" stroke="white" stroke-width="1.5" d="M0,-3.0v7 M-2.5,-0.5L0,-3.0L2.5,-0.5"/>
                </g>
                <g id="arrowRight" xlink:href="#dirArrow" transform="rotate(90) translate(36 -43)" onmousedown="handlePan(1,0)">
                  <use xlink:href="#rim" fill="#404040">
                        <set attributeName="fill" to="#808080" begin="arrowRight.mouseover" end="arrowRight.mouseout"/>
                  </use>
                  <path fill="none" stroke="white" stroke-width="1.5" d="M0,-3.0v7 M-2.5,-0.5L0,-3.0L2.5,-0.5"/>
                </g>
                <g id="arrowDown" xlink:href="#dirArrow" transform="rotate(180) translate(-30 -48)" onmousedown="handlePan(0,1)">
                  <use xlink:href="#rim" fill="#404040">
                        <set attributeName="fill" to="#808080" begin="arrowDown.mouseover" end="arrowDown.mouseout"/>
                  </use>
                  <path fill="none" stroke="white" stroke-width="1.5" d="M0,-3.0v7 M-2.5,-0.5L0,-3.0L2.5,-0.5"/>
                </g>
                <g id="arrowLeft" xlink:href="#dirArrow" transform="rotate(270) translate(-36 17)" onmousedown="handlePan(-1,0)">
                  <use xlink:href="#rim" fill="#404040">
                        <set attributeName="fill" to="#808080" begin="arrowLeft.mouseover" end="arrowLeft.mouseout"/>
                  </use>
                  <path fill="none" stroke="white" stroke-width="1.5" d="M0,-3.0v7 M-2.5,-0.5L0,-3.0L2.5,-0.5"/>
                </g>
        </g>
        <svg viewBox="0 0 15 15" width="100%" height="30px" preserveAspectRatio="xMaxYMin meet">
         <g id="arrow_out" transform="scale(0.3 0.3)">
          <a xlink:href="classEigen_1_1SPQR__coll__graph_org.svg" target="_base">
           <rect id="button" ry="5" rx="5" y="6" x="6" height="38" width="38"
                fill="#f2f5e9" fill-opacity="0.5" stroke="#606060" stroke-width="1.0"/>
           <path id="arrow"
             d="M 11.500037,31.436501 C 11.940474,20.09759 22.043105,11.32322 32.158766,21.979434 L 37.068811,17.246167 C 37.068811,17.246167 37.088388,32 37.088388,32 L 22.160133,31.978069 C 22.160133,31.978069 26.997745,27.140456 26.997745,27.140456 C 18.528582,18.264221 13.291696,25.230495 11.500037,31.436501 z"
             style="fill:#404040;"/>
          </a>
         </g>
        </svg>
</svg>
