<?xml version="1.0" encoding="UTF-8" standalone="no"?>
<!DOCTYPE svg PUBLIC "-//W3C//DTD SVG 1.1//EN"
 "http://www.w3.org/Graphics/SVG/1.1/DTD/svg11.dtd">
<!-- Generated by graphviz version 2.38.0 (20140413.2041)
 -->
<!-- Title: tensor_interface::matrix_from_stl Pages: 1 -->
<svg width="816pt" height="239pt"
 viewBox="0.00 0.00 816.00 239.00" xmlns="http://www.w3.org/2000/svg" xmlns:xlink="http://www.w3.org/1999/xlink">
<g id="graph0" class="graph" transform="scale(1 1) rotate(0) translate(4 235)">
<title>tensor_interface::matrix_from_stl</title>
<!-- Node12 -->
<g id="node1" class="node"><title>Node12</title>
<polygon fill="#bfbfbf" stroke="black" points="0,-74.5 0,-104.5 131,-104.5 131,-74.5 0,-74.5"/>
<text text-anchor="start" x="8" y="-92.5" font-family="Helvetica,sans-Serif" font-size="10.00">tensor_interface::matrix</text>
<text text-anchor="middle" x="65.5" y="-81.5" font-family="Helvetica,sans-Serif" font-size="10.00">_from_stl</text>
</g>
<!-- Node13 -->
<g id="node2" class="node"><title>Node13</title>
<g id="a_node2"><a xlink:href="classEigen_1_1Tensor.html#a5cffcaf8927b06f8e0d1c84eda3c53da" target="_top" xlink:title="Eigen::Tensor::coeffRef">
<polygon fill="none" stroke="black" points="167,-110 167,-129 290,-129 290,-110 167,-110"/>
<text text-anchor="middle" x="228.5" y="-117" font-family="Helvetica,sans-Serif" font-size="10.00">Eigen::Tensor::coeffRef</text>
</a>
</g>
</g>
<!-- Node12&#45;&gt;Node13 -->
<g id="edge1" class="edge"><title>Node12&#45;&gt;Node13</title>
<path fill="none" stroke="midnightblue" d="M131.057,-101.529C142.695,-103.698 154.796,-105.953 166.334,-108.103"/>
<polygon fill="midnightblue" stroke="midnightblue" points="165.831,-111.569 176.303,-109.96 167.113,-104.687 165.831,-111.569"/>
</g>
<!-- Node21 -->
<g id="node10" class="node"><title>Node21</title>
<g id="a_node10"><a xlink:href="classEigen_1_1Tensor.html#a5ab1ec6dc9b05d5e4db3600bc9d2cc6b" target="_top" xlink:title="Eigen::Tensor::resize">
<polygon fill="none" stroke="black" points="171.5,-50 171.5,-69 285.5,-69 285.5,-50 171.5,-50"/>
<text text-anchor="middle" x="228.5" y="-57" font-family="Helvetica,sans-Serif" font-size="10.00">Eigen::Tensor::resize</text>
</a>
</g>
</g>
<!-- Node12&#45;&gt;Node21 -->
<g id="edge9" class="edge"><title>Node12&#45;&gt;Node21</title>
<path fill="none" stroke="midnightblue" d="M131.057,-77.4707C142.695,-75.3021 154.796,-73.0473 166.334,-70.8974"/>
<polygon fill="midnightblue" stroke="midnightblue" points="167.113,-74.3125 176.303,-69.0399 165.831,-67.431 167.113,-74.3125"/>
</g>
<!-- Node14 -->
<g id="node3" class="node"><title>Node14</title>
<g id="a_node3"><a xlink:href="classEigen_1_1Tensor.html#a8362c995157473f21e6e5190d428e2c1" target="_top" xlink:title="Eigen::Tensor::checkIndex\lRange">
<polygon fill="none" stroke="black" points="332,-175.5 332,-205.5 471,-205.5 471,-175.5 332,-175.5"/>
<text text-anchor="start" x="340" y="-193.5" font-family="Helvetica,sans-Serif" font-size="10.00">Eigen::Tensor::checkIndex</text>
<text text-anchor="middle" x="401.5" y="-182.5" font-family="Helvetica,sans-Serif" font-size="10.00">Range</text>
</a>
</g>
</g>
<!-- Node13&#45;&gt;Node14 -->
<g id="edge2" class="edge"><title>Node13&#45;&gt;Node14</title>
<path fill="none" stroke="midnightblue" d="M248.06,-129.174C267.272,-138.992 298.299,-154.298 326,-165.5 331.51,-167.728 337.302,-169.922 343.12,-172.028"/>
<polygon fill="midnightblue" stroke="midnightblue" points="342.297,-175.45 352.892,-175.482 344.63,-168.85 342.297,-175.45"/>
</g>
<!-- Node19 -->
<g id="node8" class="node"><title>Node19</title>
<g id="a_node8"><a xlink:href="classEigen_1_1Tensor.html#a5994bdce0e90c9079966a6cb412f8727" target="_top" xlink:title="Eigen::Tensor::linearized\lIndex">
<polygon fill="none" stroke="black" points="336,-126.5 336,-156.5 467,-156.5 467,-126.5 336,-126.5"/>
<text text-anchor="start" x="344" y="-144.5" font-family="Helvetica,sans-Serif" font-size="10.00">Eigen::Tensor::linearized</text>
<text text-anchor="middle" x="401.5" y="-133.5" font-family="Helvetica,sans-Serif" font-size="10.00">Index</text>
</a>
</g>
</g>
<!-- Node13&#45;&gt;Node19 -->
<g id="edge7" class="edge"><title>Node13&#45;&gt;Node19</title>
<path fill="none" stroke="midnightblue" d="M290.27,-127.318C301.819,-128.804 314.028,-130.375 325.947,-131.908"/>
<polygon fill="midnightblue" stroke="midnightblue" points="325.506,-135.38 335.871,-133.185 326.4,-128.438 325.506,-135.38"/>
</g>
<!-- Node20 -->
<g id="node9" class="node"><title>Node20</title>
<g id="a_node9"><a xlink:href="classEigen_1_1Tensor.html#ade3fea6870c753611d94ad7cda134d08" target="_top" xlink:title="Eigen::Tensor::coeffRef">
<polygon fill="none" stroke="black" points="340,-88 340,-107 463,-107 463,-88 340,-88"/>
<text text-anchor="middle" x="401.5" y="-95" font-family="Helvetica,sans-Serif" font-size="10.00">Eigen::Tensor::coeffRef</text>
</a>
</g>
</g>
<!-- Node13&#45;&gt;Node20 -->
<g id="edge8" class="edge"><title>Node13&#45;&gt;Node20</title>
<path fill="none" stroke="midnightblue" d="M290.27,-111.682C303.121,-110.028 316.788,-108.27 329.966,-106.575"/>
<polygon fill="midnightblue" stroke="midnightblue" points="330.454,-110.041 339.926,-105.293 329.561,-103.098 330.454,-110.041"/>
</g>
<!-- Node15 -->
<g id="node4" class="node"><title>Node15</title>
<g id="a_node4"><a xlink:href="namespaceEigen_1_1internal.html#a78ca9587e39563e2c3b9d7c114e471fa" target="_top" xlink:title="Eigen::internal::array\l_apply_and_reduce">
<polygon fill="none" stroke="black" points="513,-200.5 513,-230.5 629,-230.5 629,-200.5 513,-200.5"/>
<text text-anchor="start" x="521" y="-218.5" font-family="Helvetica,sans-Serif" font-size="10.00">Eigen::internal::array</text>
<text text-anchor="middle" x="571" y="-207.5" font-family="Helvetica,sans-Serif" font-size="10.00">_apply_and_reduce</text>
</a>
</g>
</g>
<!-- Node14&#45;&gt;Node15 -->
<g id="edge3" class="edge"><title>Node14&#45;&gt;Node15</title>
<path fill="none" stroke="midnightblue" d="M471.112,-200.741C481.656,-202.314 492.531,-203.937 503.038,-205.506"/>
<polygon fill="midnightblue" stroke="midnightblue" points="502.569,-208.974 512.976,-206.989 503.602,-202.051 502.569,-208.974"/>
</g>
<!-- Node17 -->
<g id="node6" class="node"><title>Node17</title>
<g id="a_node6"><a xlink:href="namespaceEigen_1_1internal.html#a279cda04d38e51de5ca7933d83c93abf" target="_top" xlink:title="Eigen::internal::array\l_zip_and_reduce">
<polygon fill="none" stroke="black" points="513,-151.5 513,-181.5 629,-181.5 629,-151.5 513,-151.5"/>
<text text-anchor="start" x="521" y="-169.5" font-family="Helvetica,sans-Serif" font-size="10.00">Eigen::internal::array</text>
<text text-anchor="middle" x="571" y="-158.5" font-family="Helvetica,sans-Serif" font-size="10.00">_zip_and_reduce</text>
</a>
</g>
</g>
<!-- Node14&#45;&gt;Node17 -->
<g id="edge5" class="edge"><title>Node14&#45;&gt;Node17</title>
<path fill="none" stroke="midnightblue" d="M471.112,-180.669C481.656,-179.158 492.531,-177.6 503.038,-176.095"/>
<polygon fill="midnightblue" stroke="midnightblue" points="503.574,-179.554 512.976,-174.671 502.581,-172.624 503.574,-179.554"/>
</g>
<!-- Node16 -->
<g id="node5" class="node"><title>Node16</title>
<g id="a_node5"><a xlink:href="structEigen_1_1internal_1_1ArrayApplyAndReduce.html#a053cdf235cfc2311a2befbe28f863611" target="_top" xlink:title="Eigen::internal::ArrayApply\lAndReduce::run">
<polygon fill="none" stroke="black" points="665,-200.5 665,-230.5 808,-230.5 808,-200.5 665,-200.5"/>
<text text-anchor="start" x="673" y="-218.5" font-family="Helvetica,sans-Serif" font-size="10.00">Eigen::internal::ArrayApply</text>
<text text-anchor="middle" x="736.5" y="-207.5" font-family="Helvetica,sans-Serif" font-size="10.00">AndReduce::run</text>
</a>
</g>
</g>
<!-- Node15&#45;&gt;Node16 -->
<g id="edge4" class="edge"><title>Node15&#45;&gt;Node16</title>
<path fill="none" stroke="midnightblue" d="M629.184,-215.5C637.458,-215.5 646.101,-215.5 654.73,-215.5"/>
<polygon fill="midnightblue" stroke="midnightblue" points="654.83,-219 664.83,-215.5 654.83,-212 654.83,-219"/>
</g>
<!-- Node18 -->
<g id="node7" class="node"><title>Node18</title>
<g id="a_node7"><a xlink:href="structEigen_1_1internal_1_1ArrayZipAndReduce.html#a8cfdcb7b280d76182b8583b9064ed780" target="_top" xlink:title="Eigen::internal::ArrayZip\lAndReduce::run">
<polygon fill="none" stroke="black" points="670.5,-151.5 670.5,-181.5 802.5,-181.5 802.5,-151.5 670.5,-151.5"/>
<text text-anchor="start" x="678.5" y="-169.5" font-family="Helvetica,sans-Serif" font-size="10.00">Eigen::internal::ArrayZip</text>
<text text-anchor="middle" x="736.5" y="-158.5" font-family="Helvetica,sans-Serif" font-size="10.00">AndReduce::run</text>
</a>
</g>
</g>
<!-- Node17&#45;&gt;Node18 -->
<g id="edge6" class="edge"><title>Node17&#45;&gt;Node18</title>
<path fill="none" stroke="midnightblue" d="M629.184,-166.5C639.13,-166.5 649.61,-166.5 659.957,-166.5"/>
<polygon fill="midnightblue" stroke="midnightblue" points="660.234,-170 670.234,-166.5 660.234,-163 660.234,-170"/>
</g>
<!-- Node22 -->
<g id="node11" class="node"><title>Node22</title>
<g id="a_node11"><a xlink:href="classEigen_1_1Tensor.html#a890988b2e1dd992d9b905e0a6a488587" target="_top" xlink:title="Eigen::Tensor::size">
<polygon fill="none" stroke="black" points="349.5,-50 349.5,-69 453.5,-69 453.5,-50 349.5,-50"/>
<text text-anchor="middle" x="401.5" y="-57" font-family="Helvetica,sans-Serif" font-size="10.00">Eigen::Tensor::size</text>
</a>
</g>
</g>
<!-- Node21&#45;&gt;Node22 -->
<g id="edge10" class="edge"><title>Node21&#45;&gt;Node22</title>
<path fill="none" stroke="midnightblue" d="M285.966,-59.5C303.043,-59.5 321.875,-59.5 339.249,-59.5"/>
<polygon fill="midnightblue" stroke="midnightblue" points="339.287,-63.0001 349.287,-59.5 339.287,-56.0001 339.287,-63.0001"/>
</g>
<!-- Node23 -->
<g id="node12" class="node"><title>Node23</title>
<g id="a_node12"><a xlink:href="structEigen_1_1internal_1_1check__rows__cols__for__overflow.html#a96aadd23e6335d10018576e81dec4443" target="_top" xlink:title="Eigen::internal::check\l_rows_cols_for_overflow::run">
<polygon fill="none" stroke="black" points="326,-0.5 326,-30.5 477,-30.5 477,-0.5 326,-0.5"/>
<text text-anchor="start" x="334" y="-18.5" font-family="Helvetica,sans-Serif" font-size="10.00">Eigen::internal::check</text>
<text text-anchor="middle" x="401.5" y="-7.5" font-family="Helvetica,sans-Serif" font-size="10.00">_rows_cols_for_overflow::run</text>
</a>
</g>
</g>
<!-- Node21&#45;&gt;Node23 -->
<g id="edge11" class="edge"><title>Node21&#45;&gt;Node23</title>
<path fill="none" stroke="midnightblue" d="M266.604,-49.9527C285.771,-45.0209 309.776,-38.8442 332.147,-33.0879"/>
<polygon fill="midnightblue" stroke="midnightblue" points="333.138,-36.447 341.951,-30.5654 331.394,-29.6678 333.138,-36.447"/>
</g>
</g>
</svg>
