<?xml version="1.0" encoding="UTF-8" standalone="no"?>
<!DOCTYPE svg PUBLIC "-//W3C//DTD SVG 1.1//EN"
 "http://www.w3.org/Graphics/SVG/1.1/DTD/svg11.dtd">
<!-- Generated by graphviz version 2.38.0 (20140413.2041)
 -->
<!-- Title: BasisnamesOne Pages: 1 -->
<svg width="332pt" height="185pt"
 viewBox="0.00 0.00 331.50 185.00" xmlns="http://www.w3.org/2000/svg" xmlns:xlink="http://www.w3.org/1999/xlink">
<g id="graph0" class="graph" transform="scale(1 1) rotate(0) translate(4 181)">
<title>BasisnamesOne</title>
<!-- Node2 -->
<g id="node1" class="node"><title>Node2</title>
<polygon fill="#bfbfbf" stroke="black" points="135,-0.5 135,-19.5 230,-19.5 230,-0.5 135,-0.5"/>
<text text-anchor="middle" x="182.5" y="-7.5" font-family="Helvetica,sans-Serif" font-size="10.00">BasisnamesOne</text>
</g>
<!-- Node3 -->
<g id="node2" class="node"><title>Node3</title>
<g id="a_node2"><a xlink:href="classBasisnames.html" target="_top" xlink:title="Basisnames\&lt; StateOne \&gt;">
<polygon fill="none" stroke="black" points="111,-57.5 111,-76.5 254,-76.5 254,-57.5 111,-57.5"/>
<text text-anchor="middle" x="182.5" y="-64.5" font-family="Helvetica,sans-Serif" font-size="10.00">Basisnames&lt; StateOne &gt;</text>
</a>
</g>
</g>
<!-- Node3&#45;&gt;Node2 -->
<g id="edge1" class="edge"><title>Node3&#45;&gt;Node2</title>
<path fill="none" stroke="midnightblue" d="M182.5,-47.1166C182.5,-37.8173 182.5,-27.0557 182.5,-19.7149"/>
<polygon fill="midnightblue" stroke="midnightblue" points="179,-47.4062 182.5,-57.4062 186,-47.4063 179,-47.4062"/>
</g>
<!-- Node4 -->
<g id="node3" class="node"><title>Node4</title>
<g id="a_node3"><a xlink:href="classstd_1_1vector_3_01StateOne_01_4.html" target="_top" xlink:title="vector\&lt; StateOne \&gt;">
<polygon fill="none" stroke="black" points="0,-157.5 0,-176.5 115,-176.5 115,-157.5 0,-157.5"/>
<text text-anchor="middle" x="57.5" y="-164.5" font-family="Helvetica,sans-Serif" font-size="10.00">vector&lt; StateOne &gt;</text>
</a>
</g>
</g>
<!-- Node4&#45;&gt;Node3 -->
<g id="edge2" class="edge"><title>Node4&#45;&gt;Node3</title>
<path fill="none" stroke="#9a32cd" stroke-dasharray="5,2" d="M66.4311,-147.962C75.1629,-132.013 89.8513,-109.144 108.5,-95 119.505,-86.6533 133.345,-80.69 146.07,-76.5286"/>
<polygon fill="#9a32cd" stroke="#9a32cd" points="63.0914,-146.797 61.5715,-157.282 69.2983,-150.033 63.0914,-146.797"/>
<text text-anchor="middle" x="129.5" y="-114.5" font-family="Helvetica,sans-Serif" font-size="10.00"> names_</text>
</g>
<!-- Node5 -->
<g id="node4" class="node"><title>Node5</title>
<g id="a_node4"><a xlink:href="classsize__t.html" target="_top" xlink:title="size_t">
<polygon fill="none" stroke="black" points="133.5,-157.5 133.5,-176.5 177.5,-176.5 177.5,-157.5 133.5,-157.5"/>
<text text-anchor="middle" x="155.5" y="-164.5" font-family="Helvetica,sans-Serif" font-size="10.00">size_t</text>
</a>
</g>
</g>
<!-- Node5&#45;&gt;Node3 -->
<g id="edge3" class="edge"><title>Node5&#45;&gt;Node3</title>
<path fill="none" stroke="#9a32cd" stroke-dasharray="5,2" d="M154.224,-147.01C153.909,-132.318 154.961,-111.727 161.5,-95 164.181,-88.1418 169.192,-81.5928 173.646,-76.6625"/>
<polygon fill="#9a32cd" stroke="#9a32cd" points="150.742,-147.509 154.69,-157.341 157.735,-147.193 150.742,-147.509"/>
<text text-anchor="middle" x="175" y="-114.5" font-family="Helvetica,sans-Serif" font-size="10.00"> dim_</text>
</g>
<!-- Node6 -->
<g id="node5" class="node"><title>Node6</title>
<g id="a_node5"><a xlink:href="classint.html" target="_top" xlink:title="int">
<polygon fill="none" stroke="black" points="196,-157.5 196,-176.5 225,-176.5 225,-157.5 196,-157.5"/>
<text text-anchor="middle" x="210.5" y="-164.5" font-family="Helvetica,sans-Serif" font-size="10.00">int</text>
</a>
</g>
</g>
<!-- Node6&#45;&gt;Node3 -->
<g id="edge4" class="edge"><title>Node6&#45;&gt;Node3</title>
<path fill="none" stroke="#9a32cd" stroke-dasharray="5,2" d="M205.218,-147.514C199.146,-126.263 189.441,-92.2919 184.939,-76.5374"/>
<polygon fill="#9a32cd" stroke="#9a32cd" points="201.903,-148.649 208.015,-157.303 208.633,-146.726 201.903,-148.649"/>
<text text-anchor="middle" x="222.5" y="-131" font-family="Helvetica,sans-Serif" font-size="10.00"> delta_j</text>
<text text-anchor="middle" x="222.5" y="-120" font-family="Helvetica,sans-Serif" font-size="10.00">delta_l</text>
<text text-anchor="middle" x="222.5" y="-109" font-family="Helvetica,sans-Serif" font-size="10.00">delta_m</text>
<text text-anchor="middle" x="222.5" y="-98" font-family="Helvetica,sans-Serif" font-size="10.00">delta_n</text>
</g>
<!-- Node7 -->
<g id="node6" class="node"><title>Node7</title>
<g id="a_node6"><a xlink:href="classConfiguration.html" target="_top" xlink:title="Configuration storage ">
<polygon fill="none" stroke="black" points="243.5,-157.5 243.5,-176.5 323.5,-176.5 323.5,-157.5 243.5,-157.5"/>
<text text-anchor="middle" x="283.5" y="-164.5" font-family="Helvetica,sans-Serif" font-size="10.00">Configuration</text>
</a>
</g>
</g>
<!-- Node7&#45;&gt;Node3 -->
<g id="edge5" class="edge"><title>Node7&#45;&gt;Node3</title>
<path fill="none" stroke="#9a32cd" stroke-dasharray="5,2" d="M277.917,-147.691C272.265,-131.887 262.11,-109.392 246.5,-95 237.456,-86.6623 225.459,-80.6824 214.298,-76.505"/>
<polygon fill="#9a32cd" stroke="#9a32cd" points="274.659,-148.987 281.122,-157.382 281.305,-146.789 274.659,-148.987"/>
<text text-anchor="middle" x="286.5" y="-114.5" font-family="Helvetica,sans-Serif" font-size="10.00"> conf</text>
</g>
</g>
</svg>
