<?xml version="1.0" encoding="UTF-8" standalone="no"?>
<!DOCTYPE svg PUBLIC "-//W3C//DTD SVG 1.1//EN"
 "http://www.w3.org/Graphics/SVG/1.1/DTD/svg11.dtd">
<!-- Generated by graphviz version 2.38.0 (20140413.2041)
 -->
<!-- Title: Eigen::internal::MatrixFunctionAtomic::compute Pages: 1 -->
<svg width="333pt" height="116pt"
 viewBox="0.00 0.00 333.00 116.00" xmlns="http://www.w3.org/2000/svg" xmlns:xlink="http://www.w3.org/1999/xlink">
<g id="graph0" class="graph" transform="scale(1 1) rotate(0) translate(4 112)">
<title>Eigen::internal::MatrixFunctionAtomic::compute</title>
<!-- Node2 -->
<g id="node1" class="node"><title>Node2</title>
<polygon fill="#bfbfbf" stroke="black" points="0,-39 0,-69 160,-69 160,-39 0,-39"/>
<text text-anchor="start" x="8" y="-57" font-family="Helvetica,sans-Serif" font-size="10.00">Eigen::internal::MatrixFunction</text>
<text text-anchor="middle" x="80" y="-46" font-family="Helvetica,sans-Serif" font-size="10.00">Atomic::compute</text>
</g>
<!-- Node3 -->
<g id="node2" class="node"><title>Node3</title>
<g id="a_node2"><a xlink:href="ArrayCwiseUnaryOps_8h.html#a35560f7dbf19244fda7e463d14157c43" target="_top" xlink:title="abs">
<polygon fill="none" stroke="black" points="243.5,-88.5 243.5,-107.5 277.5,-107.5 277.5,-88.5 243.5,-88.5"/>
<text text-anchor="middle" x="260.5" y="-95.5" font-family="Helvetica,sans-Serif" font-size="10.00">abs</text>
</a>
</g>
</g>
<!-- Node2&#45;&gt;Node3 -->
<g id="edge1" class="edge"><title>Node2&#45;&gt;Node3</title>
<path fill="none" stroke="midnightblue" d="M141.93,-69.0192C173.25,-76.7395 209.761,-85.7394 233.685,-91.6365"/>
<polygon fill="midnightblue" stroke="midnightblue" points="232.874,-95.0414 243.421,-94.0365 234.549,-88.2448 232.874,-95.0414"/>
</g>
<!-- Node4 -->
<g id="node3" class="node"><title>Node4</title>
<g id="a_node3"><a xlink:href="namespaceEigen_1_1internal.html#a9b0420d6979caddbd61ba31cec4bffc2" target="_top" xlink:title="Eigen::internal::matrix\l_function_compute_mu">
<polygon fill="none" stroke="black" points="196,-39 196,-69 325,-69 325,-39 196,-39"/>
<text text-anchor="start" x="204" y="-57" font-family="Helvetica,sans-Serif" font-size="10.00">Eigen::internal::matrix</text>
<text text-anchor="middle" x="260.5" y="-46" font-family="Helvetica,sans-Serif" font-size="10.00">_function_compute_mu</text>
</a>
</g>
</g>
<!-- Node2&#45;&gt;Node4 -->
<g id="edge2" class="edge"><title>Node2&#45;&gt;Node4</title>
<path fill="none" stroke="midnightblue" d="M160.072,-54C168.558,-54 177.169,-54 185.591,-54"/>
<polygon fill="midnightblue" stroke="midnightblue" points="185.75,-57.5001 195.75,-54 185.75,-50.5001 185.75,-57.5001"/>
</g>
<!-- Node5 -->
<g id="node4" class="node"><title>Node5</title>
<g id="a_node4"><a xlink:href="DirectionWise__hnormalized_8cpp.html#a98fb883180cbb2e5412955dfd6edb605" target="_top" xlink:title="P">
<polygon fill="none" stroke="black" points="246,-0.5 246,-19.5 275,-19.5 275,-0.5 246,-0.5"/>
<text text-anchor="middle" x="260.5" y="-7.5" font-family="Helvetica,sans-Serif" font-size="10.00">P</text>
</a>
</g>
</g>
<!-- Node2&#45;&gt;Node5 -->
<g id="edge3" class="edge"><title>Node2&#45;&gt;Node5</title>
<path fill="none" stroke="midnightblue" d="M141.93,-38.9808C174.161,-31.036 211.888,-21.7363 235.739,-15.8571"/>
<polygon fill="midnightblue" stroke="midnightblue" points="236.78,-19.2054 245.651,-13.4137 235.104,-12.4089 236.78,-19.2054"/>
</g>
</g>
</svg>
