<?xml version="1.0" encoding="UTF-8" standalone="no"?>
<!DOCTYPE svg PUBLIC "-//W3C//DTD SVG 1.1//EN"
 "http://www.w3.org/Graphics/SVG/1.1/DTD/svg11.dtd">
<!-- Generated by graphviz version 2.38.0 (20140413.2041)
 -->
<!-- Title: Eigen::FullPivLU::FullPivLU Pages: 1 -->
<svg width="519pt" height="252pt"
 viewBox="0.00 0.00 519.00 252.00" xmlns="http://www.w3.org/2000/svg" xmlns:xlink="http://www.w3.org/1999/xlink">
<g id="graph0" class="graph" transform="scale(1 1) rotate(0) translate(4 248)">
<title>Eigen::FullPivLU::FullPivLU</title>
<!-- Node8 -->
<g id="node1" class="node"><title>Node8</title>
<polygon fill="#bfbfbf" stroke="black" points="0,-118 0,-137 136,-137 136,-118 0,-118"/>
<text text-anchor="middle" x="68" y="-125" font-family="Helvetica,sans-Serif" font-size="10.00">Eigen::FullPivLU::FullPivLU</text>
</g>
<!-- Node9 -->
<g id="node2" class="node"><title>Node9</title>
<g id="a_node2"><a xlink:href="classEigen_1_1FullPivLU.html#ae2ef37e62e6f776e1958d6a7591863c2" target="_top" xlink:title="Eigen::FullPivLU::compute\lInPlace">
<polygon fill="none" stroke="black" points="172,-112.5 172,-142.5 310,-142.5 310,-112.5 172,-112.5"/>
<text text-anchor="start" x="180" y="-130.5" font-family="Helvetica,sans-Serif" font-size="10.00">Eigen::FullPivLU::compute</text>
<text text-anchor="middle" x="241" y="-119.5" font-family="Helvetica,sans-Serif" font-size="10.00">InPlace</text>
</a>
</g>
</g>
<!-- Node8&#45;&gt;Node9 -->
<g id="edge1" class="edge"><title>Node8&#45;&gt;Node9</title>
<path fill="none" stroke="midnightblue" d="M136.093,-127.5C144.567,-127.5 153.294,-127.5 161.919,-127.5"/>
<polygon fill="midnightblue" stroke="midnightblue" points="161.977,-131 171.977,-127.5 161.977,-124 161.977,-131"/>
</g>
<!-- Node10 -->
<g id="node3" class="node"><title>Node10</title>
<g id="a_node3"><a xlink:href="classEigen_1_1FullPivLU.html#a6b17f29cc130870193a75f146bec0e33" target="_top" xlink:title="Eigen::FullPivLU::check\l_template_parameters">
<polygon fill="none" stroke="black" points="365,-213.5 365,-243.5 492,-243.5 492,-213.5 365,-213.5"/>
<text text-anchor="start" x="373" y="-231.5" font-family="Helvetica,sans-Serif" font-size="10.00">Eigen::FullPivLU::check</text>
<text text-anchor="middle" x="428.5" y="-220.5" font-family="Helvetica,sans-Serif" font-size="10.00">_template_parameters</text>
</a>
</g>
</g>
<!-- Node9&#45;&gt;Node10 -->
<g id="edge2" class="edge"><title>Node9&#45;&gt;Node10</title>
<path fill="none" stroke="midnightblue" d="M258.862,-142.606C278.525,-159.529 312.609,-186.775 346,-203.5 350.516,-205.762 355.276,-207.865 360.135,-209.811"/>
<polygon fill="midnightblue" stroke="midnightblue" points="358.97,-213.113 369.562,-213.362 361.438,-206.562 358.97,-213.113"/>
</g>
<!-- Node11 -->
<g id="node4" class="node"><title>Node11</title>
<g id="a_node4"><a xlink:href="structEigen_1_1EigenBase.html#ac2c9348df3bb9c0044dbae6c278a8977" target="_top" xlink:title="Eigen::EigenBase::size">
<polygon fill="none" stroke="black" points="366.5,-175 366.5,-194 490.5,-194 490.5,-175 366.5,-175"/>
<text text-anchor="middle" x="428.5" y="-182" font-family="Helvetica,sans-Serif" font-size="10.00">Eigen::EigenBase::size</text>
</a>
</g>
</g>
<!-- Node9&#45;&gt;Node11 -->
<g id="edge3" class="edge"><title>Node9&#45;&gt;Node11</title>
<path fill="none" stroke="midnightblue" d="M279.665,-142.514C299.256,-150.003 323.709,-158.856 346,-165.5 354.396,-168.003 363.36,-170.381 372.157,-172.554"/>
<polygon fill="midnightblue" stroke="midnightblue" points="371.438,-175.98 381.979,-174.916 373.074,-169.174 371.438,-175.98"/>
</g>
<!-- Node12 -->
<g id="node5" class="node"><title>Node12</title>
<g id="a_node5"><a xlink:href="classEigen_1_1FullPivLU.html#a3e6a55cd997c2a16fa6cd81be321c916" target="_top" xlink:title="Eigen::FullPivLU::rows">
<polygon fill="none" stroke="black" points="370,-137 370,-156 487,-156 487,-137 370,-137"/>
<text text-anchor="middle" x="428.5" y="-144" font-family="Helvetica,sans-Serif" font-size="10.00">Eigen::FullPivLU::rows</text>
</a>
</g>
</g>
<!-- Node9&#45;&gt;Node12 -->
<g id="edge4" class="edge"><title>Node9&#45;&gt;Node12</title>
<path fill="none" stroke="midnightblue" d="M310.02,-134.467C326.29,-136.133 343.654,-137.912 359.905,-139.576"/>
<polygon fill="midnightblue" stroke="midnightblue" points="359.555,-143.059 369.859,-140.596 360.268,-136.095 359.555,-143.059"/>
</g>
<!-- Node13 -->
<g id="node6" class="node"><title>Node13</title>
<g id="a_node6"><a xlink:href="classEigen_1_1FullPivLU.html#ab775ce41ec3e916ad86868f413c20e85" target="_top" xlink:title="Eigen::FullPivLU::cols">
<polygon fill="none" stroke="black" points="371.5,-99 371.5,-118 485.5,-118 485.5,-99 371.5,-99"/>
<text text-anchor="middle" x="428.5" y="-106" font-family="Helvetica,sans-Serif" font-size="10.00">Eigen::FullPivLU::cols</text>
</a>
</g>
</g>
<!-- Node9&#45;&gt;Node13 -->
<g id="edge5" class="edge"><title>Node9&#45;&gt;Node13</title>
<path fill="none" stroke="midnightblue" d="M310.02,-120.533C326.718,-118.823 344.569,-116.994 361.185,-115.292"/>
<polygon fill="midnightblue" stroke="midnightblue" points="361.759,-118.752 371.35,-114.251 361.046,-111.788 361.759,-118.752"/>
</g>
<!-- Node14 -->
<g id="node7" class="node"><title>Node14</title>
<g id="a_node7"><a xlink:href="classEigen_1_1PermutationBase.html#a6805bb75fd7966ea71895c24ff196444" target="_top" xlink:title="Eigen::PermutationBase\l::setIdentity">
<polygon fill="none" stroke="black" points="362.5,-49.5 362.5,-79.5 494.5,-79.5 494.5,-49.5 362.5,-49.5"/>
<text text-anchor="start" x="370.5" y="-67.5" font-family="Helvetica,sans-Serif" font-size="10.00">Eigen::PermutationBase</text>
<text text-anchor="middle" x="428.5" y="-56.5" font-family="Helvetica,sans-Serif" font-size="10.00">::setIdentity</text>
</a>
</g>
</g>
<!-- Node9&#45;&gt;Node14 -->
<g id="edge6" class="edge"><title>Node9&#45;&gt;Node14</title>
<path fill="none" stroke="midnightblue" d="M281.829,-112.389C301.124,-105.212 324.679,-96.6597 346,-89.5 352.848,-87.2002 360.048,-84.8686 367.217,-82.6008"/>
<polygon fill="midnightblue" stroke="midnightblue" points="368.439,-85.8857 376.936,-79.5569 366.347,-79.2056 368.439,-85.8857"/>
</g>
<!-- Node15 -->
<g id="node8" class="node"><title>Node15</title>
<g id="a_node8"><a xlink:href="classEigen_1_1PermutationBase.html#a5f98da0712570d0c4b12f61839ae4193" target="_top" xlink:title="Eigen::PermutationBase\l::applyTranspositionOnTheRight">
<polygon fill="none" stroke="black" points="346,-0.5 346,-30.5 511,-30.5 511,-0.5 346,-0.5"/>
<text text-anchor="start" x="354" y="-18.5" font-family="Helvetica,sans-Serif" font-size="10.00">Eigen::PermutationBase</text>
<text text-anchor="middle" x="428.5" y="-7.5" font-family="Helvetica,sans-Serif" font-size="10.00">::applyTranspositionOnTheRight</text>
</a>
</g>
</g>
<!-- Node9&#45;&gt;Node15 -->
<g id="edge7" class="edge"><title>Node9&#45;&gt;Node15</title>
<path fill="none" stroke="midnightblue" d="M256.094,-112.452C274.891,-93.2058 309.998,-60.034 346,-40.5 350.171,-38.237 354.575,-36.1486 359.09,-34.2267"/>
<polygon fill="midnightblue" stroke="midnightblue" points="360.461,-37.4483 368.47,-30.5129 357.884,-30.9399 360.461,-37.4483"/>
</g>
</g>
</svg>
