<?xml version="1.0" encoding="UTF-8" standalone="no"?>
<!DOCTYPE svg PUBLIC "-//W3C//DTD SVG 1.1//EN"
 "http://www.w3.org/Graphics/SVG/1.1/DTD/svg11.dtd">
<!-- Generated by graphviz version 2.38.0 (20140413.2041)
 -->
<!-- Title: sqlite::statement::exec Pages: 1 -->
<svg width="344pt" height="166pt"
 viewBox="0.00 0.00 344.00 165.50" xmlns="http://www.w3.org/2000/svg" xmlns:xlink="http://www.w3.org/1999/xlink">
<g id="graph0" class="graph" transform="scale(1 1) rotate(0) translate(4 161.5)">
<title>sqlite::statement::exec</title>
<!-- Node20 -->
<g id="node1" class="node"><title>Node20</title>
<polygon fill="#bfbfbf" stroke="black" points="0,-72 0,-91 127,-91 127,-72 0,-72"/>
<text text-anchor="middle" x="63.5" y="-79" font-family="Helvetica,sans-Serif" font-size="10.00">sqlite::statement::exec</text>
</g>
<!-- Node21 -->
<g id="node2" class="node"><title>Node21</title>
<g id="a_node2"><a xlink:href="sqlite__test_8cpp.html#a20fecf620cb330b84abd5166034e113a" target="_top" xlink:title="BOOST_AUTO_TEST_CASE">
<polygon fill="none" stroke="black" points="178,-138 178,-157 321,-157 321,-138 178,-138"/>
<text text-anchor="middle" x="249.5" y="-145" font-family="Helvetica,sans-Serif" font-size="10.00">BOOST_AUTO_TEST_CASE</text>
</a>
</g>
</g>
<!-- Node20&#45;&gt;Node21 -->
<g id="edge1" class="edge"><title>Node20&#45;&gt;Node21</title>
<path fill="none" stroke="midnightblue" d="M90.3,-95.8014C109.784,-106.105 137.445,-119.692 163,-128.5 173.638,-132.167 185.27,-135.301 196.433,-137.905"/>
<polygon fill="midnightblue" stroke="midnightblue" points="91.9028,-92.6894 81.4368,-91.0421 88.5912,-98.8565 91.9028,-92.6894"/>
</g>
<!-- Node22 -->
<g id="node3" class="node"><title>Node22</title>
<g id="a_node3"><a xlink:href="classEmbeddedDatabase.html#a43481ab98fd97cb66f3a56d614c79b47" target="_top" xlink:title="EmbeddedDatabase::Embedded\lDatabase">
<polygon fill="none" stroke="black" points="163,-88.5 163,-118.5 336,-118.5 336,-88.5 163,-88.5"/>
<text text-anchor="start" x="171" y="-106.5" font-family="Helvetica,sans-Serif" font-size="10.00">EmbeddedDatabase::Embedded</text>
<text text-anchor="middle" x="249.5" y="-95.5" font-family="Helvetica,sans-Serif" font-size="10.00">Database</text>
</a>
</g>
</g>
<!-- Node20&#45;&gt;Node22 -->
<g id="edge2" class="edge"><title>Node20&#45;&gt;Node22</title>
<path fill="none" stroke="midnightblue" d="M137.233,-90.1963C145.689,-91.2074 154.373,-92.2457 162.981,-93.2749"/>
<polygon fill="midnightblue" stroke="midnightblue" points="137.396,-86.6909 127.051,-88.9789 136.564,-93.6414 137.396,-86.6909"/>
</g>
<!-- Node23 -->
<g id="node4" class="node"><title>Node23</title>
<g id="a_node4"><a xlink:href="classMatrixElements.html#a5352b0d0dc75bb41105e40e02c271130" target="_top" xlink:title="MatrixElements::getRadial">
<polygon fill="none" stroke="black" points="179,-50 179,-69 320,-69 320,-50 179,-50"/>
<text text-anchor="middle" x="249.5" y="-57" font-family="Helvetica,sans-Serif" font-size="10.00">MatrixElements::getRadial</text>
</a>
</g>
</g>
<!-- Node20&#45;&gt;Node23 -->
<g id="edge3" class="edge"><title>Node20&#45;&gt;Node23</title>
<path fill="none" stroke="midnightblue" d="M137.366,-72.7878C151.033,-71.1537 165.289,-69.4491 178.856,-67.8271"/>
<polygon fill="midnightblue" stroke="midnightblue" points="136.564,-69.3586 127.051,-74.0211 137.396,-76.3091 136.564,-69.3586"/>
</g>
<!-- Node24 -->
<g id="node5" class="node"><title>Node24</title>
<g id="a_node5"><a xlink:href="classMatrixElements.html#adebeaf2c43204d0ed2f5d36b3ef9846b" target="_top" xlink:title="MatrixElements::precalculate\lDiamagnetism">
<polygon fill="none" stroke="black" points="172,-0.5 172,-30.5 327,-30.5 327,-0.5 172,-0.5"/>
<text text-anchor="start" x="180" y="-18.5" font-family="Helvetica,sans-Serif" font-size="10.00">MatrixElements::precalculate</text>
<text text-anchor="middle" x="249.5" y="-7.5" font-family="Helvetica,sans-Serif" font-size="10.00">Diamagnetism</text>
</a>
</g>
</g>
<!-- Node20&#45;&gt;Node24 -->
<g id="edge4" class="edge"><title>Node20&#45;&gt;Node24</title>
<path fill="none" stroke="midnightblue" d="M94.9534,-67.8049C114.247,-59.3838 139.84,-48.678 163,-40.5 172.77,-37.0499 183.283,-33.6933 193.48,-30.6175"/>
<polygon fill="midnightblue" stroke="midnightblue" points="93.4981,-64.6213 85.7563,-71.8542 96.3189,-71.0278 93.4981,-64.6213"/>
</g>
</g>
</svg>
