<?xml version="1.0" encoding="UTF-8" standalone="no"?>
<!DOCTYPE svg PUBLIC "-//W3C//DTD SVG 1.1//EN"
 "http://www.w3.org/Graphics/SVG/1.1/DTD/svg11.dtd">
<!-- Generated by graphviz version 2.38.0 (20140413.2041)
 -->
<!-- Title: Eigen::PolynomialSolver&lt; _Scalar, _Deg &gt; Pages: 1 -->
<!--zoomable 379 -->
<svg id="main" version="1.1" xmlns="http://www.w3.org/2000/svg" xmlns:xlink="http://www.w3.org/1999/xlink" xml:space="preserve" onload="init(evt)">
<style type="text/css"><![CDATA[
.edge:hover path { stroke: red; }
.edge:hover polygon { stroke: red; fill: red; }
]]></style>
<script type="text/javascript"><![CDATA[
var edges = document.getElementsByTagName('g');
if (edges && edges.length) {
  for (var i=0;i<edges.length;i++) {
    if (edges[i].id.substr(0,4)=='edge') {
      edges[i].setAttribute('class','edge');
    }
  }
}
]]></script>
        <defs>
                <circle id="rim" cx="0" cy="0" r="7"/>
                <circle id="rim2" cx="0" cy="0" r="3.5"/>
                <g id="zoomPlus">
                        <use xlink:href="#rim" fill="#404040">
                                <set attributeName="fill" to="#808080" begin="zoomplus.mouseover" end="zoomplus.mouseout"/>
                        </use>
                        <path d="M-4,0h8M0,-4v8" fill="none" stroke="white" stroke-width="1.5" pointer-events="none"/>
                </g>
                <g id="zoomMin">
                        <use xlink:href="#rim" fill="#404040">
                                <set attributeName="fill" to="#808080" begin="zoomminus.mouseover" end="zoomminus.mouseout"/>
                        </use>
                        <path d="M-4,0h8" fill="none" stroke="white" stroke-width="1.5" pointer-events="none"/>
                </g>
                <g id="dirArrow">
                        <path fill="none" stroke="white" stroke-width="1.5" d="M0,-3.0v7 M-2.5,-0.5L0,-3.0L2.5,-0.5"/>
                </g>
               <g id="resetDef">
                       <use xlink:href="#rim2" fill="#404040">
                               <set attributeName="fill" to="#808080" begin="reset.mouseover" end="reset.mouseout"/>
                       </use>
               </g>
        </defs>

<script type="text/javascript">
var viewWidth = 1348;
var viewHeight = 379;
var sectionId = 'dynsection-1';
</script>
<script xlink:href="svgpan.js"/>
<svg id="graph" class="graph">
<g id="viewport">
<title>Eigen::PolynomialSolver&lt; _Scalar, _Deg &gt;</title>
<!-- Node2 -->
<g id="node1" class="node"><title>Node2</title>
<polygon fill="#bfbfbf" stroke="black" points="1209,-201.5 1209,-231.5 1340,-231.5 1340,-201.5 1209,-201.5"/>
<text text-anchor="start" x="1217" y="-219.5" font-family="Helvetica,sans-Serif" font-size="10.00">Eigen::PolynomialSolver</text>
<text text-anchor="middle" x="1274.5" y="-208.5" font-family="Helvetica,sans-Serif" font-size="10.00">&lt; _Scalar, _Deg &gt;</text>
</g>
<!-- Node3 -->
<g id="node2" class="node"><title>Node3</title>
<g id="a_node2"><a xlink:href="classEigen_1_1PolynomialSolverBase.html" target="_top" xlink:title="Defined to be inherited by polynomial solvers: it provides convenient methods such as...">
<polygon fill="none" stroke="black" points="943,-243.5 943,-273.5 1098,-273.5 1098,-243.5 943,-243.5"/>
<text text-anchor="start" x="951" y="-261.5" font-family="Helvetica,sans-Serif" font-size="10.00">Eigen::PolynomialSolverBase</text>
<text text-anchor="middle" x="1020.5" y="-250.5" font-family="Helvetica,sans-Serif" font-size="10.00">&lt; _Scalar, _Deg &gt;</text>
</a>
</g>
</g>
<!-- Node3&#45;&gt;Node2 -->
<g id="edge1" class="edge"><title>Node3&#45;&gt;Node2</title>
<path fill="none" stroke="midnightblue" d="M1108.22,-244.046C1141.18,-238.554 1178.11,-232.398 1208.7,-227.3"/>
<polygon fill="midnightblue" stroke="midnightblue" points="1107.42,-240.631 1098.13,-245.728 1108.57,-247.536 1107.42,-240.631"/>
</g>
<!-- Node4 -->
<g id="node3" class="node"><title>Node4</title>
<g id="a_node3"><a xlink:href="classEigen_1_1Matrix.html" target="_top" xlink:title="Eigen::Matrix\&lt; RootType,\l _Deg, 1 \&gt;">
<polygon fill="none" stroke="black" points="636,-326.5 636,-356.5 770,-356.5 770,-326.5 636,-326.5"/>
<text text-anchor="start" x="644" y="-344.5" font-family="Helvetica,sans-Serif" font-size="10.00">Eigen::Matrix&lt; RootType,</text>
<text text-anchor="middle" x="703" y="-333.5" font-family="Helvetica,sans-Serif" font-size="10.00"> _Deg, 1 &gt;</text>
</a>
</g>
</g>
<!-- Node4&#45;&gt;Node3 -->
<g id="edge2" class="edge"><title>Node4&#45;&gt;Node3</title>
<path fill="none" stroke="#9a32cd" stroke-dasharray="5,2" d="M771.099,-323.848C827.905,-308.904 908.45,-287.715 962.258,-273.559"/>
<polygon fill="#9a32cd" stroke="#9a32cd" points="769.915,-320.54 761.135,-326.469 771.696,-327.31 769.915,-320.54"/>
<text text-anchor="middle" x="878.5" y="-309.5" font-family="Helvetica,sans-Serif" font-size="10.00"> m_roots</text>
</g>
<!-- Node5 -->
<g id="node4" class="node"><title>Node5</title>
<g id="a_node4"><a xlink:href="classEigen_1_1PlainObjectBase.html" target="_top" xlink:title="Eigen::PlainObjectBase\l\&lt; Matrix\&lt; RootType, _Rows,\l _Cols, _Options, _MaxRows,\l _MaxCols \&gt; \&gt;">
<polygon fill="none" stroke="black" points="288,-318.5 288,-370.5 438,-370.5 438,-318.5 288,-318.5"/>
<text text-anchor="start" x="296" y="-358.5" font-family="Helvetica,sans-Serif" font-size="10.00">Eigen::PlainObjectBase</text>
<text text-anchor="start" x="296" y="-347.5" font-family="Helvetica,sans-Serif" font-size="10.00">&lt; Matrix&lt; RootType, _Rows,</text>
<text text-anchor="start" x="296" y="-336.5" font-family="Helvetica,sans-Serif" font-size="10.00"> _Cols, _Options, _MaxRows,</text>
<text text-anchor="middle" x="363" y="-325.5" font-family="Helvetica,sans-Serif" font-size="10.00"> _MaxCols &gt; &gt;</text>
</a>
</g>
</g>
<!-- Node5&#45;&gt;Node4 -->
<g id="edge3" class="edge"><title>Node5&#45;&gt;Node4</title>
<path fill="none" stroke="midnightblue" d="M448.408,-343.751C506.336,-343.237 582.131,-342.564 635.722,-342.088"/>
<polygon fill="midnightblue" stroke="midnightblue" points="448.144,-340.253 438.176,-343.842 448.206,-347.253 448.144,-340.253"/>
</g>
<!-- Node6 -->
<g id="node5" class="node"><title>Node6</title>
<polygon fill="none" stroke="#bfbfbf" points="33,-304.5 33,-334.5 164,-334.5 164,-304.5 33,-304.5"/>
<text text-anchor="start" x="41" y="-322.5" font-family="Helvetica,sans-Serif" font-size="10.00">internal::dense_xpr</text>
<text text-anchor="middle" x="98.5" y="-311.5" font-family="Helvetica,sans-Serif" font-size="10.00">_base::type&lt; Derived &gt;</text>
</g>
<!-- Node6&#45;&gt;Node5 -->
<g id="edge4" class="edge"><title>Node6&#45;&gt;Node5</title>
<path fill="none" stroke="midnightblue" d="M174.383,-326.632C209.994,-330.023 252.438,-334.066 287.942,-337.447"/>
<polygon fill="midnightblue" stroke="midnightblue" points="174.338,-323.112 164.051,-325.648 173.674,-330.08 174.338,-323.112"/>
</g>
<!-- Node13 -->
<g id="node12" class="node"><title>Node13</title>
<g id="a_node12"><a xlink:href="classEigen_1_1PlainObjectBase.html" target="_top" xlink:title="Eigen::PlainObjectBase\l\&lt; Matrix\&lt; Scalar, _Rows,\l _Cols, _Options, _MaxRows,\l _MaxCols \&gt; \&gt;">
<polygon fill="none" stroke="black" points="288,-176.5 288,-228.5 438,-228.5 438,-176.5 288,-176.5"/>
<text text-anchor="start" x="296" y="-216.5" font-family="Helvetica,sans-Serif" font-size="10.00">Eigen::PlainObjectBase</text>
<text text-anchor="start" x="296" y="-205.5" font-family="Helvetica,sans-Serif" font-size="10.00">&lt; Matrix&lt; Scalar, _Rows,</text>
<text text-anchor="start" x="296" y="-194.5" font-family="Helvetica,sans-Serif" font-size="10.00"> _Cols, _Options, _MaxRows,</text>
<text text-anchor="middle" x="363" y="-183.5" font-family="Helvetica,sans-Serif" font-size="10.00"> _MaxCols &gt; &gt;</text>
</a>
</g>
</g>
<!-- Node6&#45;&gt;Node13 -->
<g id="edge13" class="edge"><title>Node6&#45;&gt;Node13</title>
<path fill="none" stroke="midnightblue" d="M145.709,-300.584C180.194,-286.258 228.344,-265.811 270,-246.5 278.115,-242.738 279.957,-241.412 288,-237.5 294.007,-234.578 300.302,-231.55 306.578,-228.552"/>
<polygon fill="midnightblue" stroke="midnightblue" points="144.261,-297.396 136.362,-304.457 146.94,-303.863 144.261,-297.396"/>
</g>
<!-- Node18 -->
<g id="node17" class="node"><title>Node18</title>
<g id="a_node17"><a xlink:href="classEigen_1_1PlainObjectBase.html" target="_top" xlink:title="Eigen::PlainObjectBase\l\&lt; Matrix\&lt; ComplexScalar,\l _Rows, _Cols, _Options,\l _MaxRows, _MaxCols \&gt; \&gt;">
<polygon fill="none" stroke="black" points="291.5,-247.5 291.5,-299.5 434.5,-299.5 434.5,-247.5 291.5,-247.5"/>
<text text-anchor="start" x="299.5" y="-287.5" font-family="Helvetica,sans-Serif" font-size="10.00">Eigen::PlainObjectBase</text>
<text text-anchor="start" x="299.5" y="-276.5" font-family="Helvetica,sans-Serif" font-size="10.00">&lt; Matrix&lt; ComplexScalar,</text>
<text text-anchor="start" x="299.5" y="-265.5" font-family="Helvetica,sans-Serif" font-size="10.00"> _Rows, _Cols, _Options,</text>
<text text-anchor="middle" x="363" y="-254.5" font-family="Helvetica,sans-Serif" font-size="10.00"> _MaxRows, _MaxCols &gt; &gt;</text>
</a>
</g>
</g>
<!-- Node6&#45;&gt;Node18 -->
<g id="edge20" class="edge"><title>Node6&#45;&gt;Node18</title>
<path fill="none" stroke="midnightblue" d="M174.015,-317.468C204.077,-315.591 238.933,-312.068 270,-305.5 277.611,-303.891 285.457,-301.827 293.208,-299.524"/>
<polygon fill="midnightblue" stroke="midnightblue" points="173.799,-313.975 164.017,-318.044 174.201,-320.963 173.799,-313.975"/>
</g>
<!-- Node7 -->
<g id="node6" class="node"><title>Node7</title>
<g id="a_node6"><a xlink:href="classEigen_1_1DenseStorage.html" target="_top" xlink:title="Eigen::DenseStorage\l\&lt; Scalar, Base::MaxSizeAtCompile\lTime, Base::RowsAtCompileTime,\l Base::ColsAtCompileTime, Options \&gt;">
<polygon fill="none" stroke="black" points="0,-191.5 0,-243.5 197,-243.5 197,-191.5 0,-191.5"/>
<text text-anchor="start" x="8" y="-231.5" font-family="Helvetica,sans-Serif" font-size="10.00">Eigen::DenseStorage</text>
<text text-anchor="start" x="8" y="-220.5" font-family="Helvetica,sans-Serif" font-size="10.00">&lt; Scalar, Base::MaxSizeAtCompile</text>
<text text-anchor="start" x="8" y="-209.5" font-family="Helvetica,sans-Serif" font-size="10.00">Time, Base::RowsAtCompileTime,</text>
<text text-anchor="middle" x="98.5" y="-198.5" font-family="Helvetica,sans-Serif" font-size="10.00"> Base::ColsAtCompileTime, Options &gt;</text>
</a>
</g>
</g>
<!-- Node7&#45;&gt;Node5 -->
<g id="edge5" class="edge"><title>Node7&#45;&gt;Node5</title>
<path fill="none" stroke="#9a32cd" stroke-dasharray="5,2" d="M162.49,-247.975C206.847,-269.436 265.618,-297.869 307.867,-318.31"/>
<polygon fill="#9a32cd" stroke="#9a32cd" points="163.78,-244.711 153.254,-243.507 160.732,-251.013 163.78,-244.711"/>
<text text-anchor="middle" x="242.5" y="-302.5" font-family="Helvetica,sans-Serif" font-size="10.00"> m_storage</text>
</g>
<!-- Node10 -->
<g id="node9" class="node"><title>Node10</title>
<g id="a_node9"><a xlink:href="classEigen_1_1PlainObjectBase.html" target="_top" xlink:title="Eigen::PlainObjectBase\l\&lt; Matrix\&lt; _Scalar, _Rows,\l _Cols, _Options, _MaxRows,\l _MaxCols \&gt; \&gt;">
<polygon fill="none" stroke="black" points="288,-99.5 288,-151.5 438,-151.5 438,-99.5 288,-99.5"/>
<text text-anchor="start" x="296" y="-139.5" font-family="Helvetica,sans-Serif" font-size="10.00">Eigen::PlainObjectBase</text>
<text text-anchor="start" x="296" y="-128.5" font-family="Helvetica,sans-Serif" font-size="10.00">&lt; Matrix&lt; _Scalar, _Rows,</text>
<text text-anchor="start" x="296" y="-117.5" font-family="Helvetica,sans-Serif" font-size="10.00"> _Cols, _Options, _MaxRows,</text>
<text text-anchor="middle" x="363" y="-106.5" font-family="Helvetica,sans-Serif" font-size="10.00"> _MaxCols &gt; &gt;</text>
</a>
</g>
</g>
<!-- Node7&#45;&gt;Node10 -->
<g id="edge10" class="edge"><title>Node7&#45;&gt;Node10</title>
<path fill="none" stroke="#9a32cd" stroke-dasharray="5,2" d="M183.778,-187.963C217.225,-176.24 255.36,-162.875 287.749,-151.523"/>
<polygon fill="#9a32cd" stroke="#9a32cd" points="182.299,-184.772 174.02,-191.383 184.615,-191.378 182.299,-184.772"/>
<text text-anchor="middle" x="242.5" y="-180.5" font-family="Helvetica,sans-Serif" font-size="10.00"> m_storage</text>
</g>
<!-- Node7&#45;&gt;Node13 -->
<g id="edge14" class="edge"><title>Node7&#45;&gt;Node13</title>
<path fill="none" stroke="#9a32cd" stroke-dasharray="5,2" d="M207.233,-202.093C209.846,-201.875 212.438,-201.677 215,-201.5 239.387,-199.819 245.556,-201.367 270,-201.5 275.75,-201.531 281.703,-201.573 287.686,-201.623"/>
<polygon fill="#9a32cd" stroke="#9a32cd" points="206.714,-198.625 197.074,-203.022 207.352,-205.596 206.714,-198.625"/>
<text text-anchor="middle" x="242.5" y="-204.5" font-family="Helvetica,sans-Serif" font-size="10.00"> m_storage</text>
</g>
<!-- Node7&#45;&gt;Node18 -->
<g id="edge21" class="edge"><title>Node7&#45;&gt;Node18</title>
<path fill="none" stroke="#9a32cd" stroke-dasharray="5,2" d="M207.197,-240.475C235.534,-246.521 265.387,-252.889 291.234,-258.403"/>
<polygon fill="#9a32cd" stroke="#9a32cd" points="207.756,-237.016 197.245,-238.352 206.295,-243.862 207.756,-237.016"/>
<text text-anchor="middle" x="242.5" y="-257.5" font-family="Helvetica,sans-Serif" font-size="10.00"> m_storage</text>
</g>
<!-- Node8 -->
<g id="node7" class="node"><title>Node8</title>
<g id="a_node7"><a xlink:href="classEigen_1_1EigenSolver.html" target="_top" xlink:title="Eigen::EigenSolver\l\&lt; CompanionMatrixType \&gt;">
<polygon fill="none" stroke="black" points="948.5,-142.5 948.5,-172.5 1092.5,-172.5 1092.5,-142.5 948.5,-142.5"/>
<text text-anchor="start" x="956.5" y="-160.5" font-family="Helvetica,sans-Serif" font-size="10.00">Eigen::EigenSolver</text>
<text text-anchor="middle" x="1020.5" y="-149.5" font-family="Helvetica,sans-Serif" font-size="10.00">&lt; CompanionMatrixType &gt;</text>
</a>
</g>
</g>
<!-- Node8&#45;&gt;Node2 -->
<g id="edge6" class="edge"><title>Node8&#45;&gt;Node2</title>
<path fill="none" stroke="#9a32cd" stroke-dasharray="5,2" d="M1095.72,-174.878C1131.8,-183.325 1174.74,-193.377 1209.38,-201.487"/>
<polygon fill="#9a32cd" stroke="#9a32cd" points="1096.28,-171.413 1085.74,-172.541 1094.68,-178.228 1096.28,-171.413"/>
<text text-anchor="middle" x="1153.5" y="-199.5" font-family="Helvetica,sans-Serif" font-size="10.00"> m_eigenSolver</text>
</g>
<!-- Node9 -->
<g id="node8" class="node"><title>Node9</title>
<g id="a_node8"><a xlink:href="classEigen_1_1Matrix.html" target="_top" xlink:title="The matrix class, also used for vectors and row&#45;vectors. ">
<polygon fill="none" stroke="black" points="637.5,-88 637.5,-129 768.5,-129 768.5,-88 637.5,-88"/>
<text text-anchor="start" x="645.5" y="-117" font-family="Helvetica,sans-Serif" font-size="10.00">Eigen::Matrix&lt; _Scalar,</text>
<text text-anchor="start" x="645.5" y="-106" font-family="Helvetica,sans-Serif" font-size="10.00"> _Rows, _Cols, _Options,</text>
<text text-anchor="middle" x="703" y="-95" font-family="Helvetica,sans-Serif" font-size="10.00"> _MaxRows, _MaxCols &gt;</text>
</a>
</g>
</g>
<!-- Node9&#45;&gt;Node8 -->
<g id="edge7" class="edge"><title>Node9&#45;&gt;Node8</title>
<path fill="none" stroke="#9a32cd" stroke-dasharray="5,2" d="M778.821,-113.206C821.835,-116.678 876.743,-122.415 925,-131.5 940.05,-134.333 956.198,-138.388 970.811,-142.455"/>
<polygon fill="#9a32cd" stroke="#9a32cd" points="778.957,-109.706 768.715,-112.414 778.411,-116.684 778.957,-109.706"/>
<text text-anchor="middle" x="878.5" y="-145.5" font-family="Helvetica,sans-Serif" font-size="10.00"> m_matT</text>
<text text-anchor="middle" x="878.5" y="-134.5" font-family="Helvetica,sans-Serif" font-size="10.00">m_eivec</text>
</g>
<!-- Node10&#45;&gt;Node9 -->
<g id="edge8" class="edge"><title>Node10&#45;&gt;Node9</title>
<path fill="none" stroke="midnightblue" d="M448.511,-121.249C507.033,-118.306 583.753,-114.447 637.399,-111.749"/>
<polygon fill="midnightblue" stroke="midnightblue" points="447.987,-117.771 438.176,-121.769 448.339,-124.762 447.987,-117.771"/>
</g>
<!-- Node11 -->
<g id="node10" class="node"><title>Node11</title>
<polygon fill="none" stroke="#bfbfbf" points="4,-99.5 4,-151.5 193,-151.5 193,-99.5 4,-99.5"/>
<text text-anchor="start" x="12" y="-139.5" font-family="Helvetica,sans-Serif" font-size="10.00">internal::dense_xpr</text>
<text text-anchor="start" x="12" y="-128.5" font-family="Helvetica,sans-Serif" font-size="10.00">_base::type&lt; Matrix</text>
<text text-anchor="start" x="12" y="-117.5" font-family="Helvetica,sans-Serif" font-size="10.00">&lt; _Scalar, _Rows, _Cols,</text>
<text text-anchor="middle" x="98.5" y="-106.5" font-family="Helvetica,sans-Serif" font-size="10.00"> _Options, _MaxRows, _MaxCols &gt; &gt;</text>
</g>
<!-- Node11&#45;&gt;Node10 -->
<g id="edge9" class="edge"><title>Node11&#45;&gt;Node10</title>
<path fill="none" stroke="midnightblue" d="M203.451,-125.5C231.635,-125.5 261.576,-125.5 287.76,-125.5"/>
<polygon fill="midnightblue" stroke="midnightblue" points="203.157,-122 193.157,-125.5 203.157,-129 203.157,-122"/>
</g>
<!-- Node12 -->
<g id="node11" class="node"><title>Node12</title>
<g id="a_node11"><a xlink:href="classEigen_1_1Matrix.html" target="_top" xlink:title="Eigen::Matrix\&lt; Scalar,\l ColsAtCompileTime, 1,\l Options &amp;~RowMajor, MaxCols\lAtCompileTime, 1 \&gt;">
<polygon fill="none" stroke="black" points="620,-186.5 620,-238.5 786,-238.5 786,-186.5 620,-186.5"/>
<text text-anchor="start" x="628" y="-226.5" font-family="Helvetica,sans-Serif" font-size="10.00">Eigen::Matrix&lt; Scalar,</text>
<text text-anchor="start" x="628" y="-215.5" font-family="Helvetica,sans-Serif" font-size="10.00"> ColsAtCompileTime, 1,</text>
<text text-anchor="start" x="628" y="-204.5" font-family="Helvetica,sans-Serif" font-size="10.00"> Options &amp;~RowMajor, MaxCols</text>
<text text-anchor="middle" x="703" y="-193.5" font-family="Helvetica,sans-Serif" font-size="10.00">AtCompileTime, 1 &gt;</text>
</a>
</g>
</g>
<!-- Node12&#45;&gt;Node8 -->
<g id="edge11" class="edge"><title>Node12&#45;&gt;Node8</title>
<path fill="none" stroke="#9a32cd" stroke-dasharray="5,2" d="M795.956,-196.47C844.525,-188.003 903.231,-177.769 948.292,-169.913"/>
<polygon fill="#9a32cd" stroke="#9a32cd" points="795.321,-193.028 786.07,-198.193 796.523,-199.924 795.321,-193.028"/>
<text text-anchor="middle" x="878.5" y="-193.5" font-family="Helvetica,sans-Serif" font-size="10.00"> m_tmp</text>
</g>
<!-- Node13&#45;&gt;Node12 -->
<g id="edge12" class="edge"><title>Node13&#45;&gt;Node12</title>
<path fill="none" stroke="midnightblue" d="M448.444,-204.998C500.803,-206.547 567.748,-208.528 619.701,-210.065"/>
<polygon fill="midnightblue" stroke="midnightblue" points="448.275,-201.492 438.176,-204.695 448.068,-208.489 448.275,-201.492"/>
</g>
<!-- Node14 -->
<g id="node13" class="node"><title>Node14</title>
<g id="a_node13"><a xlink:href="classEigen_1_1RealSchur.html" target="_top" xlink:title="Eigen::RealSchur\&lt; Matrix\lType \&gt;">
<polygon fill="none" stroke="black" points="634.5,-0.5 634.5,-30.5 771.5,-30.5 771.5,-0.5 634.5,-0.5"/>
<text text-anchor="start" x="642.5" y="-18.5" font-family="Helvetica,sans-Serif" font-size="10.00">Eigen::RealSchur&lt; Matrix</text>
<text text-anchor="middle" x="703" y="-7.5" font-family="Helvetica,sans-Serif" font-size="10.00">Type &gt;</text>
</a>
</g>
</g>
<!-- Node14&#45;&gt;Node8 -->
<g id="edge15" class="edge"><title>Node14&#45;&gt;Node8</title>
<path fill="none" stroke="#9a32cd" stroke-dasharray="5,2" d="M781.676,-17.0153C825.998,-20.7695 881.263,-30.5185 925,-54.5 963.941,-75.8514 995.498,-119.31 1010.33,-142.359"/>
<polygon fill="#9a32cd" stroke="#9a32cd" points="781.765,-13.5121 771.528,-16.2433 781.233,-20.4919 781.765,-13.5121"/>
<text text-anchor="middle" x="878.5" y="-57.5" font-family="Helvetica,sans-Serif" font-size="10.00"> m_realSchur</text>
</g>
<!-- Node15 -->
<g id="node14" class="node"><title>Node15</title>
<polygon fill="none" stroke="#bfbfbf" points="348.5,-6 348.5,-25 377.5,-25 377.5,-6 348.5,-6"/>
<text text-anchor="middle" x="363" y="-13" font-family="Helvetica,sans-Serif" font-size="10.00">int</text>
</g>
<!-- Node15&#45;&gt;Node14 -->
<g id="edge16" class="edge"><title>Node15&#45;&gt;Node14</title>
<path fill="none" stroke="#9a32cd" stroke-dasharray="5,2" d="M387.923,-15.5C438.548,-15.5 558.1,-15.5 634.237,-15.5"/>
<polygon fill="#9a32cd" stroke="#9a32cd" points="387.669,-12.0001 377.669,-15.5 387.669,-19.0001 387.669,-12.0001"/>
<text text-anchor="middle" x="515" y="-18.5" font-family="Helvetica,sans-Serif" font-size="10.00"> m_maxIterationsPerRow</text>
</g>
<!-- Node16 -->
<g id="node15" class="node"><title>Node16</title>
<polygon fill="none" stroke="#bfbfbf" points="655,-148 655,-167 751,-167 751,-148 655,-148"/>
<text text-anchor="middle" x="703" y="-155" font-family="Helvetica,sans-Serif" font-size="10.00">ComputationInfo</text>
</g>
<!-- Node16&#45;&gt;Node8 -->
<g id="edge17" class="edge"><title>Node16&#45;&gt;Node8</title>
<path fill="none" stroke="#9a32cd" stroke-dasharray="5,2" d="M761.382,-157.5C813.884,-157.5 891.754,-157.5 948.226,-157.5"/>
<polygon fill="#9a32cd" stroke="#9a32cd" points="761.234,-154 751.234,-157.5 761.234,-161 761.234,-154"/>
<text text-anchor="middle" x="878.5" y="-160.5" font-family="Helvetica,sans-Serif" font-size="10.00"> m_info</text>
</g>
<!-- Node17 -->
<g id="node16" class="node"><title>Node17</title>
<g id="a_node16"><a xlink:href="classEigen_1_1Matrix.html" target="_top" xlink:title="Eigen::Matrix\&lt; ComplexScalar,\l ColsAtCompileTime, 1, Options\l &amp;~RowMajor, MaxColsAtCompileTime, 1 \&gt;">
<polygon fill="none" stroke="black" points="592,-258 592,-299 814,-299 814,-258 592,-258"/>
<text text-anchor="start" x="600" y="-287" font-family="Helvetica,sans-Serif" font-size="10.00">Eigen::Matrix&lt; ComplexScalar,</text>
<text text-anchor="start" x="600" y="-276" font-family="Helvetica,sans-Serif" font-size="10.00"> ColsAtCompileTime, 1, Options</text>
<text text-anchor="middle" x="703" y="-265" font-family="Helvetica,sans-Serif" font-size="10.00"> &amp;~RowMajor, MaxColsAtCompileTime, 1 &gt;</text>
</a>
</g>
</g>
<!-- Node17&#45;&gt;Node8 -->
<g id="edge18" class="edge"><title>Node17&#45;&gt;Node8</title>
<path fill="none" stroke="#9a32cd" stroke-dasharray="5,2" d="M789.895,-255.075C798.071,-252.611 806.212,-250.066 814,-247.5 864.099,-230.997 876.749,-226.808 925,-205.5 947.893,-195.39 973.133,-182.475 991.764,-172.589"/>
<polygon fill="#9a32cd" stroke="#9a32cd" points="788.888,-251.723 780.3,-257.927 790.883,-258.433 788.888,-251.723"/>
<text text-anchor="middle" x="878.5" y="-244.5" font-family="Helvetica,sans-Serif" font-size="10.00"> m_eivalues</text>
</g>
<!-- Node18&#45;&gt;Node17 -->
<g id="edge19" class="edge"><title>Node18&#45;&gt;Node17</title>
<path fill="none" stroke="midnightblue" d="M444.937,-274.697C488.976,-275.349 544.087,-276.164 591.975,-276.872"/>
<polygon fill="midnightblue" stroke="midnightblue" points="444.907,-271.197 434.856,-274.548 444.803,-278.196 444.907,-271.197"/>
</g>
<!-- Node19 -->
<g id="node18" class="node"><title>Node19</title>
<g id="a_node18"><a xlink:href="classbool.html" target="_top" xlink:title="bool">
<polygon fill="none" stroke="black" points="684.5,-50 684.5,-69 721.5,-69 721.5,-50 684.5,-50"/>
<text text-anchor="middle" x="703" y="-57" font-family="Helvetica,sans-Serif" font-size="10.00">bool</text>
</a>
</g>
</g>
<!-- Node19&#45;&gt;Node8 -->
<g id="edge22" class="edge"><title>Node19&#45;&gt;Node8</title>
<path fill="none" stroke="#9a32cd" stroke-dasharray="5,2" d="M731.829,-59.678C774.765,-60.8182 859.094,-66.5295 925,-92.5 955.012,-104.326 984.883,-127.214 1002.77,-142.428"/>
<polygon fill="#9a32cd" stroke="#9a32cd" points="731.664,-56.1742 721.596,-59.4739 731.525,-63.1728 731.664,-56.1742"/>
<text text-anchor="middle" x="878.5" y="-106.5" font-family="Helvetica,sans-Serif" font-size="10.00"> m_eigenvectorsOk</text>
<text text-anchor="middle" x="878.5" y="-95.5" font-family="Helvetica,sans-Serif" font-size="10.00">m_isInitialized</text>
</g>
</g>
</svg>
        <g id="navigator" transform="translate(0 0)" fill="#404254">
                <rect fill="#f2f5e9" fill-opacity="0.5" stroke="#606060" stroke-width=".5" x="0" y="0" width="60" height="60"/>
                <use id="zoomplus" xlink:href="#zoomPlus" x="17" y="9" onmousedown="handleZoom(evt,'in')"/>
                <use id="zoomminus" xlink:href="#zoomMin" x="42" y="9" onmousedown="handleZoom(evt,'out')"/>
                <use id="reset" xlink:href="#resetDef" x="30" y="36" onmousedown="handleReset()"/>
                <g id="arrowUp" xlink:href="#dirArrow" transform="translate(30 24)" onmousedown="handlePan(0,-1)">
                  <use xlink:href="#rim" fill="#404040">
                        <set attributeName="fill" to="#808080" begin="arrowUp.mouseover" end="arrowUp.mouseout"/>
                  </use>
                  <path fill="none" stroke="white" stroke-width="1.5" d="M0,-3.0v7 M-2.5,-0.5L0,-3.0L2.5,-0.5"/>
                </g>
                <g id="arrowRight" xlink:href="#dirArrow" transform="rotate(90) translate(36 -43)" onmousedown="handlePan(1,0)">
                  <use xlink:href="#rim" fill="#404040">
                        <set attributeName="fill" to="#808080" begin="arrowRight.mouseover" end="arrowRight.mouseout"/>
                  </use>
                  <path fill="none" stroke="white" stroke-width="1.5" d="M0,-3.0v7 M-2.5,-0.5L0,-3.0L2.5,-0.5"/>
                </g>
                <g id="arrowDown" xlink:href="#dirArrow" transform="rotate(180) translate(-30 -48)" onmousedown="handlePan(0,1)">
                  <use xlink:href="#rim" fill="#404040">
                        <set attributeName="fill" to="#808080" begin="arrowDown.mouseover" end="arrowDown.mouseout"/>
                  </use>
                  <path fill="none" stroke="white" stroke-width="1.5" d="M0,-3.0v7 M-2.5,-0.5L0,-3.0L2.5,-0.5"/>
                </g>
                <g id="arrowLeft" xlink:href="#dirArrow" transform="rotate(270) translate(-36 17)" onmousedown="handlePan(-1,0)">
                  <use xlink:href="#rim" fill="#404040">
                        <set attributeName="fill" to="#808080" begin="arrowLeft.mouseover" end="arrowLeft.mouseout"/>
                  </use>
                  <path fill="none" stroke="white" stroke-width="1.5" d="M0,-3.0v7 M-2.5,-0.5L0,-3.0L2.5,-0.5"/>
                </g>
        </g>
        <svg viewBox="0 0 15 15" width="100%" height="30px" preserveAspectRatio="xMaxYMin meet">
         <g id="arrow_out" transform="scale(0.3 0.3)">
          <a xlink:href="classEigen_1_1PolynomialSolver__coll__graph_org.svg" target="_base">
           <rect id="button" ry="5" rx="5" y="6" x="6" height="38" width="38"
                fill="#f2f5e9" fill-opacity="0.5" stroke="#606060" stroke-width="1.0"/>
           <path id="arrow"
             d="M 11.500037,31.436501 C 11.940474,20.09759 22.043105,11.32322 32.158766,21.979434 L 37.068811,17.246167 C 37.068811,17.246167 37.088388,32 37.088388,32 L 22.160133,31.978069 C 22.160133,31.978069 26.997745,27.140456 26.997745,27.140456 C 18.528582,18.264221 13.291696,25.230495 11.500037,31.436501 z"
             style="fill:#404040;"/>
          </a>
         </g>
        </svg>
</svg>
