<?xml version="1.0" encoding="UTF-8" standalone="no"?>
<!DOCTYPE svg PUBLIC "-//W3C//DTD SVG 1.1//EN"
 "http://www.w3.org/Graphics/SVG/1.1/DTD/svg11.dtd">
<!-- Generated by graphviz version 2.38.0 (20140413.2041)
 -->
<!-- Title: Eigen::CompleteOrthogonalDecomposition::householderQ Pages: 1 -->
<svg width="355pt" height="66pt"
 viewBox="0.00 0.00 355.00 66.00" xmlns="http://www.w3.org/2000/svg" xmlns:xlink="http://www.w3.org/1999/xlink">
<g id="graph0" class="graph" transform="scale(1 1) rotate(0) translate(4 62)">
<title>Eigen::CompleteOrthogonalDecomposition::householderQ</title>
<!-- Node54 -->
<g id="node1" class="node"><title>Node54</title>
<polygon fill="#bfbfbf" stroke="black" points="0,-14 0,-44 161,-44 161,-14 0,-14"/>
<text text-anchor="start" x="8" y="-32" font-family="Helvetica,sans-Serif" font-size="10.00">Eigen::CompleteOrthogonal</text>
<text text-anchor="middle" x="80.5" y="-21" font-family="Helvetica,sans-Serif" font-size="10.00">Decomposition::householderQ</text>
</g>
<!-- Node55 -->
<g id="node2" class="node"><title>Node55</title>
<g id="a_node2"><a xlink:href="qr__colpivoting_8cpp.html#ab01bcdcb9896ed2aeb4fce98119a012d" target="_top" xlink:title="cod">
<polygon fill="none" stroke="black" points="197,-19.5 197,-38.5 231,-38.5 231,-19.5 197,-19.5"/>
<text text-anchor="middle" x="214" y="-26.5" font-family="Helvetica,sans-Serif" font-size="10.00">cod</text>
</a>
</g>
</g>
<!-- Node54&#45;&gt;Node55 -->
<g id="edge1" class="edge"><title>Node54&#45;&gt;Node55</title>
<path fill="none" stroke="midnightblue" d="M171.056,-29C180.852,-29 189.833,-29 196.95,-29"/>
<polygon fill="midnightblue" stroke="midnightblue" points="171.028,-25.5001 161.028,-29 171.028,-32.5001 171.028,-25.5001"/>
</g>
<!-- Node56 -->
<g id="node3" class="node"><title>Node56</title>
<g id="a_node3"><a xlink:href="dense__solvers_8cpp.html#a578ba2d5aea4aaa8751e7311d8384181" target="_top" xlink:title="bench">
<polygon fill="none" stroke="black" points="284,-38.5 284,-57.5 330,-57.5 330,-38.5 284,-38.5"/>
<text text-anchor="middle" x="307" y="-45.5" font-family="Helvetica,sans-Serif" font-size="10.00">bench</text>
</a>
</g>
</g>
<!-- Node55&#45;&gt;Node56 -->
<g id="edge2" class="edge"><title>Node55&#45;&gt;Node56</title>
<path fill="none" stroke="midnightblue" d="M241.338,-34.499C254.765,-37.3026 270.917,-40.675 283.719,-43.3479"/>
<polygon fill="midnightblue" stroke="midnightblue" points="241.773,-31.0146 231.269,-32.3968 240.343,-37.8669 241.773,-31.0146"/>
</g>
<!-- Node57 -->
<g id="node4" class="node"><title>Node57</title>
<g id="a_node4"><a xlink:href="qr__colpivoting_8cpp.html#ad8fd13db943a2d9cc9efbd4a20365bf5" target="_top" xlink:title="cod_fixedsize">
<polygon fill="none" stroke="black" points="267,-0.5 267,-19.5 347,-19.5 347,-0.5 267,-0.5"/>
<text text-anchor="middle" x="307" y="-7.5" font-family="Helvetica,sans-Serif" font-size="10.00">cod_fixedsize</text>
</a>
</g>
</g>
<!-- Node55&#45;&gt;Node57 -->
<g id="edge3" class="edge"><title>Node55&#45;&gt;Node57</title>
<path fill="none" stroke="midnightblue" d="M241.12,-23.5463C249.129,-21.8742 258.122,-19.9965 266.803,-18.1839"/>
<polygon fill="midnightblue" stroke="midnightblue" points="240.343,-20.1331 231.269,-25.6032 241.773,-26.9854 240.343,-20.1331"/>
</g>
</g>
</svg>
