<?xml version="1.0" encoding="UTF-8" standalone="no"?>
<!DOCTYPE svg PUBLIC "-//W3C//DTD SVG 1.1//EN"
 "http://www.w3.org/Graphics/SVG/1.1/DTD/svg11.dtd">
<!-- Generated by graphviz version 2.38.0 (20140413.2041)
 -->
<!-- Title: Eigen::JacobiRotation::transpose Pages: 1 -->
<!--zoomable 75 -->
<svg id="main" version="1.1" xmlns="http://www.w3.org/2000/svg" xmlns:xlink="http://www.w3.org/1999/xlink" xml:space="preserve" onload="init(evt)">
<style type="text/css"><![CDATA[
.edge:hover path { stroke: red; }
.edge:hover polygon { stroke: red; fill: red; }
]]></style>
<script type="text/javascript"><![CDATA[
var edges = document.getElementsByTagName('g');
if (edges && edges.length) {
  for (var i=0;i<edges.length;i++) {
    if (edges[i].id.substr(0,4)=='edge') {
      edges[i].setAttribute('class','edge');
    }
  }
}
]]></script>
        <defs>
                <circle id="rim" cx="0" cy="0" r="7"/>
                <circle id="rim2" cx="0" cy="0" r="3.5"/>
                <g id="zoomPlus">
                        <use xlink:href="#rim" fill="#404040">
                                <set attributeName="fill" to="#808080" begin="zoomplus.mouseover" end="zoomplus.mouseout"/>
                        </use>
                        <path d="M-4,0h8M0,-4v8" fill="none" stroke="white" stroke-width="1.5" pointer-events="none"/>
                </g>
                <g id="zoomMin">
                        <use xlink:href="#rim" fill="#404040">
                                <set attributeName="fill" to="#808080" begin="zoomminus.mouseover" end="zoomminus.mouseout"/>
                        </use>
                        <path d="M-4,0h8" fill="none" stroke="white" stroke-width="1.5" pointer-events="none"/>
                </g>
                <g id="dirArrow">
                        <path fill="none" stroke="white" stroke-width="1.5" d="M0,-3.0v7 M-2.5,-0.5L0,-3.0L2.5,-0.5"/>
                </g>
               <g id="resetDef">
                       <use xlink:href="#rim2" fill="#404040">
                               <set attributeName="fill" to="#808080" begin="reset.mouseover" end="reset.mouseout"/>
                       </use>
               </g>
        </defs>

<script type="text/javascript">
var viewWidth = 735;
var viewHeight = 75;
var sectionId = 'dynsection-13';
</script>
<script xlink:href="svgpan.js"/>
<svg id="graph" class="graph">
<g id="viewport">
<title>Eigen::JacobiRotation::transpose</title>
<!-- Node182 -->
<g id="node1" class="node"><title>Node182</title>
<polygon fill="#bfbfbf" stroke="black" points="0,-22.5 0,-52.5 116,-52.5 116,-22.5 0,-22.5"/>
<text text-anchor="start" x="8" y="-40.5" font-family="Helvetica,sans-Serif" font-size="10.00">Eigen::JacobiRotation</text>
<text text-anchor="middle" x="58" y="-29.5" font-family="Helvetica,sans-Serif" font-size="10.00">::transpose</text>
</g>
<!-- Node183 -->
<g id="node2" class="node"><title>Node183</title>
<g id="a_node2"><a xlink:href="classEigen_1_1JacobiSVD.html#a5dab376cc86cf0d36674bcdad4af3f5a" target="_top" xlink:title="Method performing the decomposition of given matrix using custom options. ">
<polygon fill="none" stroke="black" points="297,-28 297,-47 443,-47 443,-28 297,-28"/>
<text text-anchor="middle" x="370" y="-35" font-family="Helvetica,sans-Serif" font-size="10.00">Eigen::JacobiSVD::compute</text>
</a>
</g>
</g>
<!-- Node182&#45;&gt;Node183 -->
<g id="edge1" class="edge"><title>Node182&#45;&gt;Node183</title>
<path fill="none" stroke="midnightblue" d="M126.176,-39.1163C134.864,-39.2749 143.643,-39.4102 152,-39.5 200.442,-40.0208 212.558,-39.9485 261,-39.5 272.626,-39.3924 284.956,-39.2195 296.966,-39.0194"/>
<polygon fill="midnightblue" stroke="midnightblue" points="126.115,-35.6145 116.049,-38.9206 125.98,-42.6132 126.115,-35.6145"/>
</g>
<!-- Node187 -->
<g id="node6" class="node"><title>Node187</title>
<g id="a_node6"><a xlink:href="namespaceEigen_1_1internal.html#a6c2651dd28bd9227267e66aaca20330e" target="_top" xlink:title="Eigen::internal::real\l_2x2_jacobi_svd">
<polygon fill="none" stroke="black" points="152,-0.5 152,-30.5 261,-30.5 261,-0.5 152,-0.5"/>
<text text-anchor="start" x="160" y="-18.5" font-family="Helvetica,sans-Serif" font-size="10.00">Eigen::internal::real</text>
<text text-anchor="middle" x="206.5" y="-7.5" font-family="Helvetica,sans-Serif" font-size="10.00">_2x2_jacobi_svd</text>
</a>
</g>
</g>
<!-- Node182&#45;&gt;Node187 -->
<g id="edge5" class="edge"><title>Node182&#45;&gt;Node187</title>
<path fill="none" stroke="midnightblue" d="M126.067,-27.4285C134.66,-26.138 143.368,-24.8304 151.713,-23.5773"/>
<polygon fill="midnightblue" stroke="midnightblue" points="125.43,-23.9849 116.06,-28.9312 126.469,-30.9073 125.43,-23.9849"/>
</g>
<!-- Node184 -->
<g id="node3" class="node"><title>Node184</title>
<g id="a_node3"><a xlink:href="jacobisvd_8cpp.html#ac41cc1d5bee2a2a0a49d5855145febed" target="_top" xlink:title="jacobisvd_verify_assert">
<polygon fill="none" stroke="black" points="479,-47 479,-66 606,-66 606,-47 479,-47"/>
<text text-anchor="middle" x="542.5" y="-54" font-family="Helvetica,sans-Serif" font-size="10.00">jacobisvd_verify_assert</text>
</a>
</g>
</g>
<!-- Node183&#45;&gt;Node184 -->
<g id="edge2" class="edge"><title>Node183&#45;&gt;Node184</title>
<path fill="none" stroke="midnightblue" d="M453.322,-46.6738C461.887,-47.6281 470.491,-48.5869 478.788,-49.5115"/>
<polygon fill="midnightblue" stroke="midnightblue" points="453.633,-43.1868 443.307,-45.5577 452.858,-50.1438 453.633,-43.1868"/>
</g>
<!-- Node186 -->
<g id="node5" class="node"><title>Node186</title>
<g id="a_node5"><a xlink:href="nomalloc_8cpp.html#ac6a1cc3b954c50458ab44676411eece1" target="_top" xlink:title="ctms_decompositions">
<polygon fill="none" stroke="black" points="481.5,-9 481.5,-28 603.5,-28 603.5,-9 481.5,-9"/>
<text text-anchor="middle" x="542.5" y="-16" font-family="Helvetica,sans-Serif" font-size="10.00">ctms_decompositions</text>
</a>
</g>
</g>
<!-- Node183&#45;&gt;Node186 -->
<g id="edge4" class="edge"><title>Node183&#45;&gt;Node186</title>
<path fill="none" stroke="midnightblue" d="M453.494,-28.3071C462.918,-27.2569 472.388,-26.2017 481.441,-25.1928"/>
<polygon fill="midnightblue" stroke="midnightblue" points="452.858,-24.8562 443.307,-29.4423 453.633,-31.8132 452.858,-24.8562"/>
</g>
<!-- Node185 -->
<g id="node4" class="node"><title>Node185</title>
<g id="a_node4"><a xlink:href="jacobisvd_8cpp.html#aed9175723087a4e8e7cbd67da0d9186c" target="_top" xlink:title="test_jacobisvd">
<polygon fill="none" stroke="black" points="642,-47 642,-66 727,-66 727,-47 642,-47"/>
<text text-anchor="middle" x="684.5" y="-54" font-family="Helvetica,sans-Serif" font-size="10.00">test_jacobisvd</text>
</a>
</g>
</g>
<!-- Node184&#45;&gt;Node185 -->
<g id="edge3" class="edge"><title>Node184&#45;&gt;Node185</title>
<path fill="none" stroke="midnightblue" d="M616.364,-56.5C625.087,-56.5 633.751,-56.5 641.812,-56.5"/>
<polygon fill="midnightblue" stroke="midnightblue" points="616.129,-53.0001 606.129,-56.5 616.129,-60.0001 616.129,-53.0001"/>
</g>
<!-- Node187&#45;&gt;Node183 -->
<g id="edge6" class="edge"><title>Node187&#45;&gt;Node183</title>
<path fill="none" stroke="midnightblue" d="M271.392,-24.2036C280.486,-25.4424 289.879,-26.7219 299.081,-27.9754"/>
<polygon fill="midnightblue" stroke="midnightblue" points="271.658,-20.7076 261.277,-22.8257 270.713,-27.6435 271.658,-20.7076"/>
</g>
</g>
</svg>
        <g id="navigator" transform="translate(0 0)" fill="#404254">
                <rect fill="#f2f5e9" fill-opacity="0.5" stroke="#606060" stroke-width=".5" x="0" y="0" width="60" height="60"/>
                <use id="zoomplus" xlink:href="#zoomPlus" x="17" y="9" onmousedown="handleZoom(evt,'in')"/>
                <use id="zoomminus" xlink:href="#zoomMin" x="42" y="9" onmousedown="handleZoom(evt,'out')"/>
                <use id="reset" xlink:href="#resetDef" x="30" y="36" onmousedown="handleReset()"/>
                <g id="arrowUp" xlink:href="#dirArrow" transform="translate(30 24)" onmousedown="handlePan(0,-1)">
                  <use xlink:href="#rim" fill="#404040">
                        <set attributeName="fill" to="#808080" begin="arrowUp.mouseover" end="arrowUp.mouseout"/>
                  </use>
                  <path fill="none" stroke="white" stroke-width="1.5" d="M0,-3.0v7 M-2.5,-0.5L0,-3.0L2.5,-0.5"/>
                </g>
                <g id="arrowRight" xlink:href="#dirArrow" transform="rotate(90) translate(36 -43)" onmousedown="handlePan(1,0)">
                  <use xlink:href="#rim" fill="#404040">
                        <set attributeName="fill" to="#808080" begin="arrowRight.mouseover" end="arrowRight.mouseout"/>
                  </use>
                  <path fill="none" stroke="white" stroke-width="1.5" d="M0,-3.0v7 M-2.5,-0.5L0,-3.0L2.5,-0.5"/>
                </g>
                <g id="arrowDown" xlink:href="#dirArrow" transform="rotate(180) translate(-30 -48)" onmousedown="handlePan(0,1)">
                  <use xlink:href="#rim" fill="#404040">
                        <set attributeName="fill" to="#808080" begin="arrowDown.mouseover" end="arrowDown.mouseout"/>
                  </use>
                  <path fill="none" stroke="white" stroke-width="1.5" d="M0,-3.0v7 M-2.5,-0.5L0,-3.0L2.5,-0.5"/>
                </g>
                <g id="arrowLeft" xlink:href="#dirArrow" transform="rotate(270) translate(-36 17)" onmousedown="handlePan(-1,0)">
                  <use xlink:href="#rim" fill="#404040">
                        <set attributeName="fill" to="#808080" begin="arrowLeft.mouseover" end="arrowLeft.mouseout"/>
                  </use>
                  <path fill="none" stroke="white" stroke-width="1.5" d="M0,-3.0v7 M-2.5,-0.5L0,-3.0L2.5,-0.5"/>
                </g>
        </g>
        <svg viewBox="0 0 15 15" width="100%" height="30px" preserveAspectRatio="xMaxYMin meet">
         <g id="arrow_out" transform="scale(0.3 0.3)">
          <a xlink:href="classEigen_1_1JacobiRotation_ab40e9cdc4582593511e57ee896e055a2_icgraph_org.svg" target="_base">
           <rect id="button" ry="5" rx="5" y="6" x="6" height="38" width="38"
                fill="#f2f5e9" fill-opacity="0.5" stroke="#606060" stroke-width="1.0"/>
           <path id="arrow"
             d="M 11.500037,31.436501 C 11.940474,20.09759 22.043105,11.32322 32.158766,21.979434 L 37.068811,17.246167 C 37.068811,17.246167 37.088388,32 37.088388,32 L 22.160133,31.978069 C 22.160133,31.978069 26.997745,27.140456 26.997745,27.140456 C 18.528582,18.264221 13.291696,25.230495 11.500037,31.436501 z"
             style="fill:#404040;"/>
          </a>
         </g>
        </svg>
</svg>
