<?xml version="1.0" encoding="UTF-8" standalone="no"?>
<!DOCTYPE svg PUBLIC "-//W3C//DTD SVG 1.1//EN"
 "http://www.w3.org/Graphics/SVG/1.1/DTD/svg11.dtd">
<!-- Generated by graphviz version 2.38.0 (20140413.2041)
 -->
<!-- Title: Eigen::PlainObjectBase::data Pages: 1 -->
<!--zoomable 1079 -->
<svg id="main" version="1.1" xmlns="http://www.w3.org/2000/svg" xmlns:xlink="http://www.w3.org/1999/xlink" xml:space="preserve" onload="init(evt)">
<style type="text/css"><![CDATA[
.edge:hover path { stroke: red; }
.edge:hover polygon { stroke: red; fill: red; }
]]></style>
<script type="text/javascript"><![CDATA[
var edges = document.getElementsByTagName('g');
if (edges && edges.length) {
  for (var i=0;i<edges.length;i++) {
    if (edges[i].id.substr(0,4)=='edge') {
      edges[i].setAttribute('class','edge');
    }
  }
}
]]></script>
        <defs>
                <circle id="rim" cx="0" cy="0" r="7"/>
                <circle id="rim2" cx="0" cy="0" r="3.5"/>
                <g id="zoomPlus">
                        <use xlink:href="#rim" fill="#404040">
                                <set attributeName="fill" to="#808080" begin="zoomplus.mouseover" end="zoomplus.mouseout"/>
                        </use>
                        <path d="M-4,0h8M0,-4v8" fill="none" stroke="white" stroke-width="1.5" pointer-events="none"/>
                </g>
                <g id="zoomMin">
                        <use xlink:href="#rim" fill="#404040">
                                <set attributeName="fill" to="#808080" begin="zoomminus.mouseover" end="zoomminus.mouseout"/>
                        </use>
                        <path d="M-4,0h8" fill="none" stroke="white" stroke-width="1.5" pointer-events="none"/>
                </g>
                <g id="dirArrow">
                        <path fill="none" stroke="white" stroke-width="1.5" d="M0,-3.0v7 M-2.5,-0.5L0,-3.0L2.5,-0.5"/>
                </g>
               <g id="resetDef">
                       <use xlink:href="#rim2" fill="#404040">
                               <set attributeName="fill" to="#808080" begin="reset.mouseover" end="reset.mouseout"/>
                       </use>
               </g>
        </defs>

<script type="text/javascript">
var viewWidth = 956;
var viewHeight = 1079;
var sectionId = 'dynsection-5';
</script>
<script xlink:href="svgpan.js"/>
<svg id="graph" class="graph">
<g id="viewport">
<title>Eigen::PlainObjectBase::data</title>
<!-- Node168 -->
<g id="node1" class="node"><title>Node168</title>
<polygon fill="#bfbfbf" stroke="black" points="0,-476.5 0,-506.5 126,-506.5 126,-476.5 0,-476.5"/>
<text text-anchor="start" x="8" y="-494.5" font-family="Helvetica,sans-Serif" font-size="10.00">Eigen::PlainObjectBase</text>
<text text-anchor="middle" x="63" y="-483.5" font-family="Helvetica,sans-Serif" font-size="10.00">::data</text>
</g>
<!-- Node169 -->
<g id="node2" class="node"><title>Node169</title>
<g id="a_node2"><a xlink:href="classEigen_1_1UmfPackLU.html#a83a5aa7038e4920b79fefff82f49f610" target="_top" xlink:title="Eigen::UmfPackLU::\l_solve_impl">
<polygon fill="none" stroke="black" points="208,-977.5 208,-1007.5 317,-1007.5 317,-977.5 208,-977.5"/>
<text text-anchor="start" x="216" y="-995.5" font-family="Helvetica,sans-Serif" font-size="10.00">Eigen::UmfPackLU::</text>
<text text-anchor="middle" x="262.5" y="-984.5" font-family="Helvetica,sans-Serif" font-size="10.00">_solve_impl</text>
</a>
</g>
</g>
<!-- Node168&#45;&gt;Node169 -->
<g id="edge1" class="edge"><title>Node168&#45;&gt;Node169</title>
<path fill="none" stroke="midnightblue" d="M66.0324,-517.001C73.5139,-604.751 102.245,-892.525 162,-959.5 173.813,-972.741 191.061,-980.683 207.89,-985.441"/>
<polygon fill="midnightblue" stroke="midnightblue" points="69.5068,-516.547 65.1883,-506.872 62.531,-517.128 69.5068,-516.547"/>
</g>
<!-- Node170 -->
<g id="node3" class="node"><title>Node170</title>
<g id="a_node3"><a xlink:href="classEigen_1_1UmfPackLU.html#a82497bbf75d995a6d4ae7e9191f79525" target="_top" xlink:title="Eigen::UmfPackLU::umfpack\lReportStatus">
<polygon fill="none" stroke="black" points="424.5,-1029.5 424.5,-1059.5 574.5,-1059.5 574.5,-1029.5 424.5,-1029.5"/>
<text text-anchor="start" x="432.5" y="-1047.5" font-family="Helvetica,sans-Serif" font-size="10.00">Eigen::UmfPackLU::umfpack</text>
<text text-anchor="middle" x="499.5" y="-1036.5" font-family="Helvetica,sans-Serif" font-size="10.00">ReportStatus</text>
</a>
</g>
</g>
<!-- Node168&#45;&gt;Node170 -->
<g id="edge44" class="edge"><title>Node168&#45;&gt;Node170</title>
<path fill="none" stroke="midnightblue" d="M64.8102,-516.921C68.4242,-612.645 86.4044,-949.393 162,-1017.5 236.785,-1084.88 362.684,-1074 437.451,-1059.54"/>
<polygon fill="midnightblue" stroke="midnightblue" points="68.3005,-516.584 64.4458,-506.716 61.3049,-516.834 68.3005,-516.584"/>
</g>
<!-- Node171 -->
<g id="node4" class="node"><title>Node171</title>
<g id="a_node4"><a xlink:href="classEigen_1_1UmfPackLU.html#a9d319cce61d8797d1f0ba6b6ae3087c9" target="_top" xlink:title="Eigen::UmfPackLU::analyze\lPattern_impl">
<polygon fill="none" stroke="black" points="189.5,-751.5 189.5,-781.5 335.5,-781.5 335.5,-751.5 189.5,-751.5"/>
<text text-anchor="start" x="197.5" y="-769.5" font-family="Helvetica,sans-Serif" font-size="10.00">Eigen::UmfPackLU::analyze</text>
<text text-anchor="middle" x="262.5" y="-758.5" font-family="Helvetica,sans-Serif" font-size="10.00">Pattern_impl</text>
</a>
</g>
</g>
<!-- Node168&#45;&gt;Node171 -->
<g id="edge3" class="edge"><title>Node168&#45;&gt;Node171</title>
<path fill="none" stroke="midnightblue" d="M68.2224,-516.544C77.3059,-563.154 102.871,-663.882 162,-723.5 174.258,-735.859 190.648,-744.901 206.584,-751.409"/>
<polygon fill="midnightblue" stroke="midnightblue" points="71.6581,-515.875 66.3916,-506.682 64.7757,-517.153 71.6581,-515.875"/>
</g>
<!-- Node175 -->
<g id="node8" class="node"><title>Node175</title>
<g id="a_node8"><a xlink:href="classEigen_1_1GeneralizedEigenSolver.html#a275910b47dfe5f40211dcb59cfd68f3c" target="_top" xlink:title="Computes generalized eigendecomposition of given matrix. ">
<polygon fill="none" stroke="black" points="181.5,-683.5 181.5,-713.5 343.5,-713.5 343.5,-683.5 181.5,-683.5"/>
<text text-anchor="start" x="189.5" y="-701.5" font-family="Helvetica,sans-Serif" font-size="10.00">Eigen::GeneralizedEigenSolver</text>
<text text-anchor="middle" x="262.5" y="-690.5" font-family="Helvetica,sans-Serif" font-size="10.00">::compute</text>
</a>
</g>
</g>
<!-- Node168&#45;&gt;Node175 -->
<g id="edge7" class="edge"><title>Node168&#45;&gt;Node175</title>
<path fill="none" stroke="midnightblue" d="M70.1805,-516.236C81.4293,-555.958 109.121,-633.637 162,-674.5 167.765,-678.955 174.235,-682.598 181.038,-685.576"/>
<polygon fill="midnightblue" stroke="midnightblue" points="73.549,-515.285 67.5526,-506.55 66.7932,-517.118 73.549,-515.285"/>
</g>
<!-- Node180 -->
<g id="node13" class="node"><title>Node180</title>
<g id="a_node13"><a xlink:href="classEigen_1_1internal_1_1UpperBidiagonalization.html#a9899e0a0ee6bf4771fe4ef2d133e3e72" target="_top" xlink:title="Eigen::internal::UpperBidiagonalization\l::computeUnblocked">
<polygon fill="none" stroke="black" points="162,-634.5 162,-664.5 363,-664.5 363,-634.5 162,-634.5"/>
<text text-anchor="start" x="170" y="-652.5" font-family="Helvetica,sans-Serif" font-size="10.00">Eigen::internal::UpperBidiagonalization</text>
<text text-anchor="middle" x="262.5" y="-641.5" font-family="Helvetica,sans-Serif" font-size="10.00">::computeUnblocked</text>
</a>
</g>
</g>
<!-- Node168&#45;&gt;Node180 -->
<g id="edge13" class="edge"><title>Node168&#45;&gt;Node180</title>
<path fill="none" stroke="midnightblue" d="M75.1647,-515.527C90.4397,-545.687 120.737,-596.814 162,-624.5 167.768,-628.37 174.088,-631.642 180.658,-634.406"/>
<polygon fill="midnightblue" stroke="midnightblue" points="78.2927,-513.957 70.7383,-506.528 72.0114,-517.046 78.2927,-513.957"/>
</g>
<!-- Node182 -->
<g id="node15" class="node"><title>Node182</title>
<g id="a_node15"><a xlink:href="classEigen_1_1Transform.html#a75c33d8e3769936887149c9fca3e709f" target="_top" xlink:title="Eigen::Transform::data">
<polygon fill="none" stroke="black" points="200.5,-596 200.5,-615 324.5,-615 324.5,-596 200.5,-596"/>
<text text-anchor="middle" x="262.5" y="-603" font-family="Helvetica,sans-Serif" font-size="10.00">Eigen::Transform::data</text>
</a>
</g>
</g>
<!-- Node168&#45;&gt;Node182 -->
<g id="edge15" class="edge"><title>Node168&#45;&gt;Node182</title>
<path fill="none" stroke="midnightblue" d="M81.2408,-514.714C98.9646,-536.8 128.627,-569.157 162,-586.5 173.782,-592.623 187.269,-596.787 200.43,-599.615"/>
<polygon fill="midnightblue" stroke="midnightblue" points="83.9697,-512.522 75.0496,-506.805 78.4576,-516.837 83.9697,-512.522"/>
</g>
<!-- Node183 -->
<g id="node16" class="node"><title>Node183</title>
<g id="a_node16"><a xlink:href="classEigen_1_1UmfPackLU.html#a782dbc0e1ee6cef571e11d6b70c822c1" target="_top" xlink:title="Eigen::UmfPackLU::extractData">
<polygon fill="none" stroke="black" points="179.5,-931 179.5,-950 345.5,-950 345.5,-931 179.5,-931"/>
<text text-anchor="middle" x="262.5" y="-938" font-family="Helvetica,sans-Serif" font-size="10.00">Eigen::UmfPackLU::extractData</text>
</a>
</g>
</g>
<!-- Node168&#45;&gt;Node183 -->
<g id="edge16" class="edge"><title>Node168&#45;&gt;Node183</title>
<path fill="none" stroke="midnightblue" d="M67.3714,-516.693C75.9753,-574.928 102.411,-722.091 162,-829.5 185.855,-872.498 229.109,-912.814 249.826,-930.744"/>
<polygon fill="midnightblue" stroke="midnightblue" points="70.8053,-515.98 65.926,-506.576 63.8756,-516.97 70.8053,-515.98"/>
</g>
<!-- Node188 -->
<g id="node21" class="node"><title>Node188</title>
<g id="a_node21"><a xlink:href="classEigen_1_1SparseLU.html#a39858b0e72f2659d596364e252b34cbc" target="_top" xlink:title="Eigen::SparseLU::factorize">
<polygon fill="none" stroke="black" points="191.5,-558 191.5,-577 333.5,-577 333.5,-558 191.5,-558"/>
<text text-anchor="middle" x="262.5" y="-565" font-family="Helvetica,sans-Serif" font-size="10.00">Eigen::SparseLU::factorize</text>
</a>
</g>
</g>
<!-- Node168&#45;&gt;Node188 -->
<g id="edge22" class="edge"><title>Node168&#45;&gt;Node188</title>
<path fill="none" stroke="midnightblue" d="M93.5398,-512.238C112.338,-524.514 137.649,-539.397 162,-548.5 172.296,-552.349 183.495,-555.451 194.543,-557.941"/>
<polygon fill="midnightblue" stroke="midnightblue" points="95.3913,-509.266 85.1283,-506.636 91.5108,-515.092 95.3913,-509.266"/>
</g>
<!-- Node192 -->
<g id="node25" class="node"><title>Node192</title>
<g id="a_node25"><a xlink:href="classEigen_1_1SparseQR.html#a55a34bacf05bd30a1dacbccad9f03c6d" target="_top" xlink:title="Performs the numerical QR factorization of the input matrix. ">
<polygon fill="none" stroke="black" points="191,-520 191,-539 334,-539 334,-520 191,-520"/>
<text text-anchor="middle" x="262.5" y="-527" font-family="Helvetica,sans-Serif" font-size="10.00">Eigen::SparseQR::factorize</text>
</a>
</g>
</g>
<!-- Node168&#45;&gt;Node192 -->
<g id="edge26" class="edge"><title>Node168&#45;&gt;Node192</title>
<path fill="none" stroke="midnightblue" d="M136.031,-505.489C144.779,-507.181 153.592,-508.882 162,-510.5 178.061,-513.59 195.584,-516.943 211.387,-519.959"/>
<polygon fill="midnightblue" stroke="midnightblue" points="136.689,-502.052 126.206,-503.588 135.359,-508.924 136.689,-502.052"/>
</g>
<!-- Node193 -->
<g id="node26" class="node"><title>Node193</title>
<g id="a_node26"><a xlink:href="classEigen_1_1UmfPackLU.html#a23ec2a84911a59ee4295d309d975a3d5" target="_top" xlink:title="Eigen::UmfPackLU::factorize_impl">
<polygon fill="none" stroke="black" points="174.5,-801 174.5,-820 350.5,-820 350.5,-801 174.5,-801"/>
<text text-anchor="middle" x="262.5" y="-808" font-family="Helvetica,sans-Serif" font-size="10.00">Eigen::UmfPackLU::factorize_impl</text>
</a>
</g>
</g>
<!-- Node168&#45;&gt;Node193 -->
<g id="edge27" class="edge"><title>Node168&#45;&gt;Node193</title>
<path fill="none" stroke="midnightblue" d="M64.1791,-516.977C66.0616,-575.228 79.3207,-718.711 162,-791.5 166.224,-795.219 170.947,-798.305 175.977,-800.858"/>
<polygon fill="midnightblue" stroke="midnightblue" points="67.6744,-516.734 63.9413,-506.819 60.6764,-516.898 67.6744,-516.734"/>
</g>
<!-- Node195 -->
<g id="node28" class="node"><title>Node195</title>
<g id="a_node28"><a xlink:href="classEigen_1_1UmfPackLU.html#a5a5adf4464c78eb83aafa7cbf9ad39cf" target="_top" xlink:title="Eigen::UmfPackLU::init">
<polygon fill="none" stroke="black" points="201,-482 201,-501 324,-501 324,-482 201,-482"/>
<text text-anchor="middle" x="262.5" y="-489" font-family="Helvetica,sans-Serif" font-size="10.00">Eigen::UmfPackLU::init</text>
</a>
</g>
</g>
<!-- Node168&#45;&gt;Node195 -->
<g id="edge30" class="edge"><title>Node168&#45;&gt;Node195</title>
<path fill="none" stroke="midnightblue" d="M136.462,-491.5C157.649,-491.5 180.578,-491.5 200.945,-491.5"/>
<polygon fill="midnightblue" stroke="midnightblue" points="136.219,-488 126.219,-491.5 136.219,-495 136.219,-488"/>
</g>
<!-- Node197 -->
<g id="node30" class="node"><title>Node197</title>
<g id="a_node30"><a xlink:href="spmv_8cpp.html#a0ddf1224851353fc92bfbff6f499fa97" target="_top" xlink:title="main">
<polygon fill="none" stroke="black" points="242,-444 242,-463 283,-463 283,-444 242,-444"/>
<text text-anchor="middle" x="262.5" y="-451" font-family="Helvetica,sans-Serif" font-size="10.00">main</text>
</a>
</g>
</g>
<!-- Node168&#45;&gt;Node197 -->
<g id="edge32" class="edge"><title>Node168&#45;&gt;Node197</title>
<path fill="none" stroke="midnightblue" d="M136.031,-477.511C144.779,-475.819 153.592,-474.118 162,-472.5 189.631,-467.183 221.591,-461.091 241.675,-457.269"/>
<polygon fill="midnightblue" stroke="midnightblue" points="135.359,-474.076 126.206,-479.412 136.689,-480.948 135.359,-474.076"/>
</g>
<!-- Node198 -->
<g id="node31" class="node"><title>Node198</title>
<g id="a_node31"><a xlink:href="classEigen_1_1MetisOrdering.html#a48e1dc18153e426849b8f20c3a03a9c6" target="_top" xlink:title="Eigen::MetisOrdering\l::operator()">
<polygon fill="none" stroke="black" points="204.5,-394.5 204.5,-424.5 320.5,-424.5 320.5,-394.5 204.5,-394.5"/>
<text text-anchor="start" x="212.5" y="-412.5" font-family="Helvetica,sans-Serif" font-size="10.00">Eigen::MetisOrdering</text>
<text text-anchor="middle" x="262.5" y="-401.5" font-family="Helvetica,sans-Serif" font-size="10.00">::operator()</text>
</a>
</g>
</g>
<!-- Node168&#45;&gt;Node198 -->
<g id="edge33" class="edge"><title>Node168&#45;&gt;Node198</title>
<path fill="none" stroke="midnightblue" d="M94.474,-470.775C113.263,-458.772 138.235,-444.171 162,-434.5 175.363,-429.062 190.231,-424.562 204.314,-420.952"/>
<polygon fill="midnightblue" stroke="midnightblue" points="92.5213,-467.87 86.042,-476.253 96.3346,-473.74 92.5213,-467.87"/>
</g>
<!-- Node199 -->
<g id="node32" class="node"><title>Node199</title>
<g id="a_node32"><a xlink:href="classEigen_1_1internal_1_1SparseLUImpl.html#a277936738db49e25285164ac25c498c3" target="_top" xlink:title="Performs numeric block updates (sup&#45;panel) in topological order. ">
<polygon fill="none" stroke="black" points="409,-345 409,-386 590,-386 590,-345 409,-345"/>
<text text-anchor="start" x="417" y="-374" font-family="Helvetica,sans-Serif" font-size="10.00">Eigen::internal::SparseLUImpl</text>
<text text-anchor="start" x="417" y="-363" font-family="Helvetica,sans-Serif" font-size="10.00">&lt; _MatrixType::Scalar, _MatrixType</text>
<text text-anchor="middle" x="499.5" y="-352" font-family="Helvetica,sans-Serif" font-size="10.00">::StorageIndex &gt;::panel_bmod</text>
</a>
</g>
</g>
<!-- Node168&#45;&gt;Node199 -->
<g id="edge34" class="edge"><title>Node168&#45;&gt;Node199</title>
<path fill="none" stroke="midnightblue" d="M78.2466,-467.437C94.7992,-441.999 124.674,-403.163 162,-385.5 239.366,-348.891 338.159,-347.583 408.647,-353.19"/>
<polygon fill="midnightblue" stroke="midnightblue" points="75.1333,-465.813 72.7619,-476.139 81.0551,-469.545 75.1333,-465.813"/>
</g>
<!-- Node200 -->
<g id="node33" class="node"><title>Node200</title>
<g id="a_node33"><a xlink:href="structEigen_1_1internal_1_1LU__kernel__bmod.html#a475f853efdc24aaca3444da518f40ba8" target="_top" xlink:title="Eigen::internal::LU\l_kernel_bmod::run">
<polygon fill="none" stroke="black" points="209.5,-306.5 209.5,-336.5 315.5,-336.5 315.5,-306.5 209.5,-306.5"/>
<text text-anchor="start" x="217.5" y="-324.5" font-family="Helvetica,sans-Serif" font-size="10.00">Eigen::internal::LU</text>
<text text-anchor="middle" x="262.5" y="-313.5" font-family="Helvetica,sans-Serif" font-size="10.00">_kernel_bmod::run</text>
</a>
</g>
</g>
<!-- Node168&#45;&gt;Node200 -->
<g id="edge35" class="edge"><title>Node168&#45;&gt;Node200</title>
<path fill="none" stroke="midnightblue" d="M74.811,-467.008C89.882,-435.66 120.143,-381.792 162,-351.5 175.886,-341.451 193.168,-334.729 209.413,-330.248"/>
<polygon fill="midnightblue" stroke="midnightblue" points="71.515,-465.795 70.4561,-476.336 77.8578,-468.756 71.515,-465.795"/>
</g>
<!-- Node202 -->
<g id="node35" class="node"><title>Node202</title>
<g id="a_node35"><a xlink:href="structEigen_1_1SluMatrixMapHelper_3_01Matrix_3_01Scalar_00_01Rows_00_01Cols_00_01Options_00_01MRows_00_01MCols_01_4_01_4.html#a359c47a6e575a4424c3c04bf56872290" target="_top" xlink:title="Eigen::SluMatrixMapHelper\l\&lt; Matrix\&lt; Scalar, Rows,\l Cols, Options, MRows, MCols\l \&gt; \&gt;::run">
<polygon fill="none" stroke="black" points="185,-235.5 185,-287.5 340,-287.5 340,-235.5 185,-235.5"/>
<text text-anchor="start" x="193" y="-275.5" font-family="Helvetica,sans-Serif" font-size="10.00">Eigen::SluMatrixMapHelper</text>
<text text-anchor="start" x="193" y="-264.5" font-family="Helvetica,sans-Serif" font-size="10.00">&lt; Matrix&lt; Scalar, Rows,</text>
<text text-anchor="start" x="193" y="-253.5" font-family="Helvetica,sans-Serif" font-size="10.00"> Cols, Options, MRows, MCols</text>
<text text-anchor="middle" x="262.5" y="-242.5" font-family="Helvetica,sans-Serif" font-size="10.00"> &gt; &gt;::run</text>
</a>
</g>
</g>
<!-- Node168&#45;&gt;Node202 -->
<g id="edge38" class="edge"><title>Node168&#45;&gt;Node202</title>
<path fill="none" stroke="midnightblue" d="M70.1403,-466.546C81.4543,-425.615 109.391,-344.118 162,-297.5 168.737,-291.53 176.54,-286.527 184.755,-282.339"/>
<polygon fill="midnightblue" stroke="midnightblue" points="66.7439,-465.699 67.5582,-476.263 73.5091,-467.497 66.7439,-465.699"/>
</g>
<!-- Node203 -->
<g id="node36" class="node"><title>Node203</title>
<g id="a_node36"><a xlink:href="classEigen_1_1internal_1_1MappedSuperNodalMatrix.html#af1427486564e2c75b9da68f98bd04e63" target="_top" xlink:title="Eigen::internal::MappedSuper\lNodalMatrix\&lt; Scalar, StorageIndex\l \&gt;::setInfos">
<polygon fill="none" stroke="black" points="170,-175 170,-216 355,-216 355,-175 170,-175"/>
<text text-anchor="start" x="178" y="-204" font-family="Helvetica,sans-Serif" font-size="10.00">Eigen::internal::MappedSuper</text>
<text text-anchor="start" x="178" y="-193" font-family="Helvetica,sans-Serif" font-size="10.00">NodalMatrix&lt; Scalar, StorageIndex</text>
<text text-anchor="middle" x="262.5" y="-182" font-family="Helvetica,sans-Serif" font-size="10.00"> &gt;::setInfos</text>
</a>
</g>
</g>
<!-- Node168&#45;&gt;Node203 -->
<g id="edge39" class="edge"><title>Node168&#45;&gt;Node203</title>
<path fill="none" stroke="midnightblue" d="M66.0492,-466.352C71.6622,-414.076 91.915,-293.02 162,-226.5 166.199,-222.514 170.904,-219.04 175.921,-216.013"/>
<polygon fill="midnightblue" stroke="midnightblue" points="62.5548,-466.125 65.061,-476.419 69.5213,-466.809 62.5548,-466.125"/>
</g>
<!-- Node204 -->
<g id="node37" class="node"><title>Node204</title>
<g id="a_node37"><a xlink:href="level2__impl_8h.html#a2b4f86b5ce700a65d13007cc2594f1ed" target="_top" xlink:title="tpmv">
<polygon fill="none" stroke="black" points="242,-137 242,-156 283,-156 283,-137 242,-137"/>
<text text-anchor="middle" x="262.5" y="-144" font-family="Helvetica,sans-Serif" font-size="10.00">tpmv</text>
</a>
</g>
</g>
<!-- Node168&#45;&gt;Node204 -->
<g id="edge40" class="edge"><title>Node168&#45;&gt;Node204</title>
<path fill="none" stroke="midnightblue" d="M63.4048,-466.011C63.4528,-404.289 72.7485,-245.974 162,-165.5 183.812,-145.833 219.509,-143.74 241.693,-144.661"/>
<polygon fill="midnightblue" stroke="midnightblue" points="59.9076,-466.399 63.4862,-476.371 66.9074,-466.344 59.9076,-466.399"/>
</g>
<!-- Node205 -->
<g id="node38" class="node"><title>Node205</title>
<g id="a_node38"><a xlink:href="level2__impl_8h.html#a85fc713e394f5d9c78720bdeefe522d5" target="_top" xlink:title="trmv">
<polygon fill="none" stroke="black" points="243,-99 243,-118 282,-118 282,-99 243,-99"/>
<text text-anchor="middle" x="262.5" y="-106" font-family="Helvetica,sans-Serif" font-size="10.00">trmv</text>
</a>
</g>
</g>
<!-- Node168&#45;&gt;Node205 -->
<g id="edge41" class="edge"><title>Node168&#45;&gt;Node205</title>
<path fill="none" stroke="midnightblue" d="M67.312,-466.191C77.5979,-391.534 111.37,-174.5 162,-127.5 183.911,-107.16 220.599,-105.455 242.776,-106.606"/>
<polygon fill="midnightblue" stroke="midnightblue" points="63.839,-465.757 65.9656,-476.136 70.7757,-466.696 63.839,-465.757"/>
</g>
<!-- Node206 -->
<g id="node39" class="node"><title>Node206</title>
<g id="a_node39"><a xlink:href="classEigen_1_1UmfPackLU.html#ac6ff58ef8eb8221e6af87de750d6619b" target="_top" xlink:title="Eigen::UmfPackLU::umfpack\lReportControl">
<polygon fill="none" stroke="black" points="187.5,-49.5 187.5,-79.5 337.5,-79.5 337.5,-49.5 187.5,-49.5"/>
<text text-anchor="start" x="195.5" y="-67.5" font-family="Helvetica,sans-Serif" font-size="10.00">Eigen::UmfPackLU::umfpack</text>
<text text-anchor="middle" x="262.5" y="-56.5" font-family="Helvetica,sans-Serif" font-size="10.00">ReportControl</text>
</a>
</g>
</g>
<!-- Node168&#45;&gt;Node206 -->
<g id="edge42" class="edge"><title>Node168&#45;&gt;Node206</title>
<path fill="none" stroke="midnightblue" d="M66.7437,-466.395C75.9095,-387.079 107.977,-143.905 162,-89.5 169.091,-82.3591 177.898,-77.1525 187.319,-73.3742"/>
<polygon fill="midnightblue" stroke="midnightblue" points="63.2512,-466.131 65.6025,-476.462 70.2066,-466.92 63.2512,-466.131"/>
</g>
<!-- Node207 -->
<g id="node40" class="node"><title>Node207</title>
<g id="a_node40"><a xlink:href="classEigen_1_1UmfPackLU.html#afad062dfc49ca6d2d19d534b3f8f8d28" target="_top" xlink:title="Eigen::UmfPackLU::umfpack\lReportInfo">
<polygon fill="none" stroke="black" points="187.5,-0.5 187.5,-30.5 337.5,-30.5 337.5,-0.5 187.5,-0.5"/>
<text text-anchor="start" x="195.5" y="-18.5" font-family="Helvetica,sans-Serif" font-size="10.00">Eigen::UmfPackLU::umfpack</text>
<text text-anchor="middle" x="262.5" y="-7.5" font-family="Helvetica,sans-Serif" font-size="10.00">ReportInfo</text>
</a>
</g>
</g>
<!-- Node168&#45;&gt;Node207 -->
<g id="edge43" class="edge"><title>Node168&#45;&gt;Node207</title>
<path fill="none" stroke="midnightblue" d="M66.0369,-465.85C73.4101,-379.511 101.521,-101.397 162,-39.5 169.079,-32.2554 177.938,-27.0471 187.434,-23.3274"/>
<polygon fill="midnightblue" stroke="midnightblue" points="62.5284,-465.807 65.1859,-476.064 69.5043,-466.389 62.5284,-465.807"/>
</g>
<!-- Node169&#45;&gt;Node170 -->
<g id="edge2" class="edge"><title>Node169&#45;&gt;Node170</title>
<path fill="none" stroke="midnightblue" d="M327.232,-1006.6C359.159,-1013.67 397.839,-1022.23 430.356,-1029.42"/>
<polygon fill="midnightblue" stroke="midnightblue" points="327.639,-1003.11 317.119,-1004.36 326.127,-1009.94 327.639,-1003.11"/>
</g>
<!-- Node172 -->
<g id="node5" class="node"><title>Node172</title>
<g id="a_node5"><a xlink:href="classEigen_1_1UmfPackLU.html#a05fb2b5717ebd67e46b83439721ceee7" target="_top" xlink:title="Eigen::UmfPackLU::compute">
<polygon fill="none" stroke="black" points="423.5,-801 423.5,-820 575.5,-820 575.5,-801 423.5,-801"/>
<text text-anchor="middle" x="499.5" y="-808" font-family="Helvetica,sans-Serif" font-size="10.00">Eigen::UmfPackLU::compute</text>
</a>
</g>
</g>
<!-- Node171&#45;&gt;Node172 -->
<g id="edge4" class="edge"><title>Node171&#45;&gt;Node172</title>
<path fill="none" stroke="midnightblue" d="M345.502,-781.854C379.396,-788.2 417.639,-795.36 447.411,-800.934"/>
<polygon fill="midnightblue" stroke="midnightblue" points="346.078,-778.401 335.605,-780 344.79,-785.281 346.078,-778.401"/>
</g>
<!-- Node174 -->
<g id="node7" class="node"><title>Node174</title>
<g id="a_node7"><a xlink:href="classEigen_1_1UmfPackLU.html#ac7ea28b2017d6b26b7b08497f294e5e6" target="_top" xlink:title="Eigen::UmfPackLU::analyze\lPattern">
<polygon fill="none" stroke="black" points="426.5,-751.5 426.5,-781.5 572.5,-781.5 572.5,-751.5 426.5,-751.5"/>
<text text-anchor="start" x="434.5" y="-769.5" font-family="Helvetica,sans-Serif" font-size="10.00">Eigen::UmfPackLU::analyze</text>
<text text-anchor="middle" x="499.5" y="-758.5" font-family="Helvetica,sans-Serif" font-size="10.00">Pattern</text>
</a>
</g>
</g>
<!-- Node171&#45;&gt;Node174 -->
<g id="edge6" class="edge"><title>Node171&#45;&gt;Node174</title>
<path fill="none" stroke="midnightblue" d="M345.871,-766.5C372.023,-766.5 400.733,-766.5 426.127,-766.5"/>
<polygon fill="midnightblue" stroke="midnightblue" points="345.605,-763 335.605,-766.5 345.605,-770 345.605,-763"/>
</g>
<!-- Node173 -->
<g id="node6" class="node"><title>Node173</title>
<g id="a_node6"><a xlink:href="classEigen_1_1UmfPackLU.html#a3b0b5f84a7d80617dfb30346557314ee" target="_top" xlink:title="Eigen::UmfPackLU::UmfPackLU">
<polygon fill="none" stroke="black" points="636,-801 636,-820 799,-820 799,-801 636,-801"/>
<text text-anchor="middle" x="717.5" y="-808" font-family="Helvetica,sans-Serif" font-size="10.00">Eigen::UmfPackLU::UmfPackLU</text>
</a>
</g>
</g>
<!-- Node172&#45;&gt;Node173 -->
<g id="edge5" class="edge"><title>Node172&#45;&gt;Node173</title>
<path fill="none" stroke="midnightblue" d="M585.848,-810.5C602.252,-810.5 619.385,-810.5 635.642,-810.5"/>
<polygon fill="midnightblue" stroke="midnightblue" points="585.743,-807 575.743,-810.5 585.743,-814 585.743,-807"/>
</g>
<!-- Node176 -->
<g id="node9" class="node"><title>Node176</title>
<g id="a_node9"><a xlink:href="classEigen_1_1GeneralizedEigenSolver.html#abeaa6f56cee367b83fd09d428462ca0c" target="_top" xlink:title="Eigen::GeneralizedEigenSolver\l::betas">
<polygon fill="none" stroke="black" points="418.5,-663.5 418.5,-693.5 580.5,-693.5 580.5,-663.5 418.5,-663.5"/>
<text text-anchor="start" x="426.5" y="-681.5" font-family="Helvetica,sans-Serif" font-size="10.00">Eigen::GeneralizedEigenSolver</text>
<text text-anchor="middle" x="499.5" y="-670.5" font-family="Helvetica,sans-Serif" font-size="10.00">::betas</text>
</a>
</g>
</g>
<!-- Node175&#45;&gt;Node176 -->
<g id="edge8" class="edge"><title>Node175&#45;&gt;Node176</title>
<path fill="none" stroke="midnightblue" d="M353.706,-690.823C374.957,-689.014 397.468,-687.098 418.246,-685.33"/>
<polygon fill="midnightblue" stroke="midnightblue" points="353.384,-687.338 343.716,-691.673 353.977,-694.312 353.384,-687.338"/>
</g>
<!-- Node177 -->
<g id="node10" class="node"><title>Node177</title>
<g id="a_node10"><a xlink:href="eigensolver__generalized__real_8cpp.html#aa8cb39f7fc3c05a5a869203d49aea8df" target="_top" xlink:title="generalized_eigensolver_real">
<polygon fill="none" stroke="black" points="640,-691 640,-710 795,-710 795,-691 640,-691"/>
<text text-anchor="middle" x="717.5" y="-698" font-family="Helvetica,sans-Serif" font-size="10.00">generalized_eigensolver_real</text>
</a>
</g>
</g>
<!-- Node175&#45;&gt;Node177 -->
<g id="edge11" class="edge"><title>Node175&#45;&gt;Node177</title>
<path fill="none" stroke="midnightblue" d="M354.048,-702.305C369.06,-702.802 384.466,-703.232 399,-703.5 488.318,-705.147 510.674,-704.65 600,-703.5 612.847,-703.335 626.488,-703.067 639.739,-702.757"/>
<polygon fill="midnightblue" stroke="midnightblue" points="353.848,-698.796 343.734,-701.95 353.608,-705.792 353.848,-698.796"/>
</g>
<!-- Node179 -->
<g id="node12" class="node"><title>Node179</title>
<g id="a_node12"><a xlink:href="classEigen_1_1GeneralizedEigenSolver.html#a2a3528cbf75f66d3a60af9dc7b12ff65" target="_top" xlink:title="Constructor; computes the generalized eigendecomposition of given matrix pair. ">
<polygon fill="none" stroke="black" points="418.5,-614.5 418.5,-644.5 580.5,-644.5 580.5,-614.5 418.5,-614.5"/>
<text text-anchor="start" x="426.5" y="-632.5" font-family="Helvetica,sans-Serif" font-size="10.00">Eigen::GeneralizedEigenSolver</text>
<text text-anchor="middle" x="499.5" y="-621.5" font-family="Helvetica,sans-Serif" font-size="10.00">::GeneralizedEigenSolver</text>
</a>
</g>
</g>
<!-- Node175&#45;&gt;Node179 -->
<g id="edge12" class="edge"><title>Node175&#45;&gt;Node179</title>
<path fill="none" stroke="midnightblue" d="M345.865,-680.496C351.721,-678.649 357.485,-676.651 363,-674.5 380.052,-667.849 381.98,-661.232 399,-654.5 408.441,-650.766 418.61,-647.456 428.716,-644.565"/>
<polygon fill="midnightblue" stroke="midnightblue" points="344.528,-677.243 335.952,-683.465 346.536,-683.949 344.528,-677.243"/>
</g>
<!-- Node176&#45;&gt;Node177 -->
<g id="edge9" class="edge"><title>Node176&#45;&gt;Node177</title>
<path fill="none" stroke="midnightblue" d="M590.69,-687.686C606.995,-689.347 623.857,-691.064 639.734,-692.681"/>
<polygon fill="midnightblue" stroke="midnightblue" points="590.927,-684.192 580.623,-686.661 590.217,-691.156 590.927,-684.192"/>
</g>
<!-- Node178 -->
<g id="node11" class="node"><title>Node178</title>
<g id="a_node11"><a xlink:href="boostmultiprec_8cpp.html#af8983cadf0ba3b55cb55879f4b3d833d" target="_top" xlink:title="test_boostmultiprec">
<polygon fill="none" stroke="black" points="835,-691 835,-710 948,-710 948,-691 835,-691"/>
<text text-anchor="middle" x="891.5" y="-698" font-family="Helvetica,sans-Serif" font-size="10.00">test_boostmultiprec</text>
</a>
</g>
</g>
<!-- Node177&#45;&gt;Node178 -->
<g id="edge10" class="edge"><title>Node177&#45;&gt;Node178</title>
<path fill="none" stroke="midnightblue" d="M805.241,-700.5C815.304,-700.5 825.354,-700.5 834.839,-700.5"/>
<polygon fill="midnightblue" stroke="midnightblue" points="805.194,-697 795.194,-700.5 805.194,-704 805.194,-697"/>
</g>
<!-- Node181 -->
<g id="node14" class="node"><title>Node181</title>
<g id="a_node14"><a xlink:href="classEigen_1_1internal_1_1UpperBidiagonalization.html#a0be89ad4d54df169e3607031e0284e20" target="_top" xlink:title="Eigen::internal::UpperBidiagonalization\l::UpperBidiagonalization">
<polygon fill="none" stroke="black" points="399,-565.5 399,-595.5 600,-595.5 600,-565.5 399,-565.5"/>
<text text-anchor="start" x="407" y="-583.5" font-family="Helvetica,sans-Serif" font-size="10.00">Eigen::internal::UpperBidiagonalization</text>
<text text-anchor="middle" x="499.5" y="-572.5" font-family="Helvetica,sans-Serif" font-size="10.00">::UpperBidiagonalization</text>
</a>
</g>
</g>
<!-- Node180&#45;&gt;Node181 -->
<g id="edge14" class="edge"><title>Node180&#45;&gt;Node181</title>
<path fill="none" stroke="midnightblue" d="M342.146,-631.62C349.267,-629.438 356.311,-627.063 363,-624.5 379.894,-618.027 382.106,-611.973 399,-605.5 408.73,-601.772 419.209,-598.442 429.586,-595.524"/>
<polygon fill="midnightblue" stroke="midnightblue" points="341.024,-628.302 332.414,-634.476 342.995,-635.019 341.024,-628.302"/>
</g>
<!-- Node183&#45;&gt;Node170 -->
<g id="edge21" class="edge"><title>Node183&#45;&gt;Node170</title>
<path fill="none" stroke="midnightblue" d="M332.127,-953.115C343.041,-956.96 353.762,-961.971 363,-968.5 385.658,-984.513 376.119,-1003.81 399,-1019.5 406.712,-1024.79 415.445,-1028.96 424.456,-1032.25"/>
<polygon fill="midnightblue" stroke="midnightblue" points="333.11,-949.755 322.519,-950.028 330.968,-956.419 333.11,-949.755"/>
</g>
<!-- Node184 -->
<g id="node17" class="node"><title>Node184</title>
<g id="a_node17"><a xlink:href="classEigen_1_1UmfPackLU.html#a35ae31390d7c11e9a51b573616fc65ba" target="_top" xlink:title="Eigen::UmfPackLU::matrixL">
<polygon fill="none" stroke="black" points="427,-991 427,-1010 572,-1010 572,-991 427,-991"/>
<text text-anchor="middle" x="499.5" y="-998" font-family="Helvetica,sans-Serif" font-size="10.00">Eigen::UmfPackLU::matrixL</text>
</a>
</g>
</g>
<!-- Node183&#45;&gt;Node184 -->
<g id="edge17" class="edge"><title>Node183&#45;&gt;Node184</title>
<path fill="none" stroke="midnightblue" d="M310.176,-952.886C326.915,-957.525 345.878,-963.007 363,-968.5 379.198,-973.696 382.594,-977.002 399,-981.5 412.229,-985.127 426.634,-988.308 440.27,-990.978"/>
<polygon fill="midnightblue" stroke="midnightblue" points="310.647,-949.386 300.078,-950.114 308.794,-956.136 310.647,-949.386"/>
</g>
<!-- Node185 -->
<g id="node18" class="node"><title>Node185</title>
<g id="a_node18"><a xlink:href="classEigen_1_1UmfPackLU.html#afcbe772b2cbf458791111ae5b648c21a" target="_top" xlink:title="Eigen::UmfPackLU::matrixU">
<polygon fill="none" stroke="black" points="426,-953 426,-972 573,-972 573,-953 426,-953"/>
<text text-anchor="middle" x="499.5" y="-960" font-family="Helvetica,sans-Serif" font-size="10.00">Eigen::UmfPackLU::matrixU</text>
</a>
</g>
</g>
<!-- Node183&#45;&gt;Node185 -->
<g id="edge18" class="edge"><title>Node183&#45;&gt;Node185</title>
<path fill="none" stroke="midnightblue" d="M355.89,-949.149C379.093,-951.322 403.667,-953.622 425.759,-955.69"/>
<polygon fill="midnightblue" stroke="midnightblue" points="355.974,-945.642 345.692,-948.195 355.322,-952.611 355.974,-945.642"/>
</g>
<!-- Node186 -->
<g id="node19" class="node"><title>Node186</title>
<g id="a_node19"><a xlink:href="classEigen_1_1UmfPackLU.html#aa567568176f719c536ae84bb82128aae" target="_top" xlink:title="Eigen::UmfPackLU::permutationP">
<polygon fill="none" stroke="black" points="412.5,-915 412.5,-934 586.5,-934 586.5,-915 412.5,-915"/>
<text text-anchor="middle" x="499.5" y="-922" font-family="Helvetica,sans-Serif" font-size="10.00">Eigen::UmfPackLU::permutationP</text>
</a>
</g>
</g>
<!-- Node183&#45;&gt;Node186 -->
<g id="edge19" class="edge"><title>Node183&#45;&gt;Node186</title>
<path fill="none" stroke="midnightblue" d="M355.92,-934.208C374.517,-932.941 393.993,-931.615 412.366,-930.364"/>
<polygon fill="midnightblue" stroke="midnightblue" points="355.431,-930.733 345.692,-934.904 355.906,-937.717 355.431,-930.733"/>
</g>
<!-- Node187 -->
<g id="node20" class="node"><title>Node187</title>
<g id="a_node20"><a xlink:href="classEigen_1_1UmfPackLU.html#ac28a1e26d4dab8d1ee7c5d10e9770668" target="_top" xlink:title="Eigen::UmfPackLU::permutationQ">
<polygon fill="none" stroke="black" points="411.5,-877 411.5,-896 587.5,-896 587.5,-877 411.5,-877"/>
<text text-anchor="middle" x="499.5" y="-884" font-family="Helvetica,sans-Serif" font-size="10.00">Eigen::UmfPackLU::permutationQ</text>
</a>
</g>
</g>
<!-- Node183&#45;&gt;Node187 -->
<g id="edge20" class="edge"><title>Node183&#45;&gt;Node187</title>
<path fill="none" stroke="midnightblue" d="M307.594,-928.347C334.006,-921.259 368.309,-912.387 399,-905.5 413.929,-902.15 430.203,-898.883 445.183,-896.029"/>
<polygon fill="midnightblue" stroke="midnightblue" points="306.624,-924.984 297.882,-930.969 308.448,-931.742 306.624,-924.984"/>
</g>
<!-- Node189 -->
<g id="node22" class="node"><title>Node189</title>
<g id="a_node22"><a xlink:href="classEigen_1_1SparseLU.html#a9f8d0e64ae5bb5568ca091a0dbc8c9dd" target="_top" xlink:title="Eigen::SparseLU::~SparseLU">
<polygon fill="none" stroke="black" points="422,-527 422,-546 577,-546 577,-527 422,-527"/>
<text text-anchor="middle" x="499.5" y="-534" font-family="Helvetica,sans-Serif" font-size="10.00">Eigen::SparseLU::~SparseLU</text>
</a>
</g>
</g>
<!-- Node188&#45;&gt;Node189 -->
<g id="edge23" class="edge"><title>Node188&#45;&gt;Node189</title>
<path fill="none" stroke="midnightblue" d="M343.784,-556.909C370.525,-553.382 400.134,-549.476 426.23,-546.033"/>
<polygon fill="midnightblue" stroke="midnightblue" points="343.146,-553.463 333.689,-558.241 344.061,-560.403 343.146,-553.463"/>
</g>
<!-- Node190 -->
<g id="node23" class="node"><title>Node190</title>
<g id="a_node23"><a xlink:href="classEigen_1_1SparseLU.html#a96a8dcb02015ab9be5777d4ba9173266" target="_top" xlink:title="Eigen::SparseLU::compute">
<polygon fill="none" stroke="black" points="428,-489 428,-508 571,-508 571,-489 428,-489"/>
<text text-anchor="middle" x="499.5" y="-496" font-family="Helvetica,sans-Serif" font-size="10.00">Eigen::SparseLU::compute</text>
</a>
</g>
</g>
<!-- Node188&#45;&gt;Node190 -->
<g id="edge24" class="edge"><title>Node188&#45;&gt;Node190</title>
<path fill="none" stroke="midnightblue" d="M343.478,-556.111C350.23,-553.992 356.828,-551.48 363,-548.5 382.014,-539.32 379.986,-526.68 399,-517.5 408.027,-513.142 417.967,-509.782 427.966,-507.193"/>
<polygon fill="midnightblue" stroke="midnightblue" points="342.171,-552.844 333.508,-558.943 344.083,-559.578 342.171,-552.844"/>
</g>
<!-- Node191 -->
<g id="node24" class="node"><title>Node191</title>
<g id="a_node24"><a xlink:href="classEigen_1_1SparseLU.html#ac1678e57af46b42561cea4f149861164" target="_top" xlink:title="Eigen::SparseLU::SparseLU">
<polygon fill="none" stroke="black" points="644.5,-489 644.5,-508 790.5,-508 790.5,-489 644.5,-489"/>
<text text-anchor="middle" x="717.5" y="-496" font-family="Helvetica,sans-Serif" font-size="10.00">Eigen::SparseLU::SparseLU</text>
</a>
</g>
</g>
<!-- Node190&#45;&gt;Node191 -->
<g id="edge25" class="edge"><title>Node190&#45;&gt;Node191</title>
<path fill="none" stroke="midnightblue" d="M581.232,-498.5C601.875,-498.5 623.94,-498.5 644.134,-498.5"/>
<polygon fill="midnightblue" stroke="midnightblue" points="581.227,-495 571.226,-498.5 581.226,-502 581.227,-495"/>
</g>
<!-- Node193&#45;&gt;Node172 -->
<g id="edge28" class="edge"><title>Node193&#45;&gt;Node172</title>
<path fill="none" stroke="midnightblue" d="M360.85,-810.5C381.754,-810.5 403.534,-810.5 423.437,-810.5"/>
<polygon fill="midnightblue" stroke="midnightblue" points="360.671,-807 350.671,-810.5 360.671,-814 360.671,-807"/>
</g>
<!-- Node194 -->
<g id="node27" class="node"><title>Node194</title>
<g id="a_node27"><a xlink:href="classEigen_1_1UmfPackLU.html#a1471bf890503e743c45d75cc02a5345d" target="_top" xlink:title="Eigen::UmfPackLU::factorize">
<polygon fill="none" stroke="black" points="424.5,-839 424.5,-858 574.5,-858 574.5,-839 424.5,-839"/>
<text text-anchor="middle" x="499.5" y="-846" font-family="Helvetica,sans-Serif" font-size="10.00">Eigen::UmfPackLU::factorize</text>
</a>
</g>
</g>
<!-- Node193&#45;&gt;Node194 -->
<g id="edge29" class="edge"><title>Node193&#45;&gt;Node194</title>
<path fill="none" stroke="midnightblue" d="M332.794,-821.705C366.693,-827.187 407.069,-833.715 439.479,-838.956"/>
<polygon fill="midnightblue" stroke="midnightblue" points="332.928,-818.181 322.497,-820.04 331.81,-825.091 332.928,-818.181"/>
</g>
<!-- Node196 -->
<g id="node29" class="node"><title>Node196</title>
<g id="a_node29"><a xlink:href="classEigen_1_1UmfPackLU.html#af6a45bf31b8f17008b22c517e2fc11c2" target="_top" xlink:title="Eigen::UmfPackLU::UmfPackLU">
<polygon fill="none" stroke="black" points="418,-451 418,-470 581,-470 581,-451 418,-451"/>
<text text-anchor="middle" x="499.5" y="-458" font-family="Helvetica,sans-Serif" font-size="10.00">Eigen::UmfPackLU::UmfPackLU</text>
</a>
</g>
</g>
<!-- Node195&#45;&gt;Node196 -->
<g id="edge31" class="edge"><title>Node195&#45;&gt;Node196</title>
<path fill="none" stroke="midnightblue" d="M334.137,-482.182C363.332,-478.331 397.143,-473.871 426.48,-470"/>
<polygon fill="midnightblue" stroke="midnightblue" points="333.475,-478.739 324.018,-483.517 334.39,-485.679 333.475,-478.739"/>
</g>
<!-- Node200&#45;&gt;Node199 -->
<g id="edge37" class="edge"><title>Node200&#45;&gt;Node199</title>
<path fill="none" stroke="midnightblue" d="M325.526,-333.113C350.951,-337.874 380.874,-343.476 408.619,-348.671"/>
<polygon fill="midnightblue" stroke="midnightblue" points="326.127,-329.665 315.654,-331.265 324.839,-336.546 326.127,-329.665"/>
</g>
<!-- Node201 -->
<g id="node34" class="node"><title>Node201</title>
<g id="a_node34"><a xlink:href="classEigen_1_1internal_1_1SparseLUImpl.html#ae34275602cf12560edfcaf7cd5cbe932" target="_top" xlink:title="Performs numeric block updates (sup&#45;col) in topological order. ">
<polygon fill="none" stroke="black" points="409,-285 409,-326 590,-326 590,-285 409,-285"/>
<text text-anchor="start" x="417" y="-314" font-family="Helvetica,sans-Serif" font-size="10.00">Eigen::internal::SparseLUImpl</text>
<text text-anchor="start" x="417" y="-303" font-family="Helvetica,sans-Serif" font-size="10.00">&lt; _MatrixType::Scalar, _MatrixType</text>
<text text-anchor="middle" x="499.5" y="-292" font-family="Helvetica,sans-Serif" font-size="10.00">::StorageIndex &gt;::column_bmod</text>
</a>
</g>
</g>
<!-- Node200&#45;&gt;Node201 -->
<g id="edge36" class="edge"><title>Node200&#45;&gt;Node201</title>
<path fill="none" stroke="midnightblue" d="M325.864,-317.254C351.216,-315.528 380.997,-313.5 408.619,-311.62"/>
<polygon fill="midnightblue" stroke="midnightblue" points="325.393,-313.778 315.654,-317.949 325.869,-320.762 325.393,-313.778"/>
</g>
</g>
</svg>
        <g id="navigator" transform="translate(0 0)" fill="#404254">
                <rect fill="#f2f5e9" fill-opacity="0.5" stroke="#606060" stroke-width=".5" x="0" y="0" width="60" height="60"/>
                <use id="zoomplus" xlink:href="#zoomPlus" x="17" y="9" onmousedown="handleZoom(evt,'in')"/>
                <use id="zoomminus" xlink:href="#zoomMin" x="42" y="9" onmousedown="handleZoom(evt,'out')"/>
                <use id="reset" xlink:href="#resetDef" x="30" y="36" onmousedown="handleReset()"/>
                <g id="arrowUp" xlink:href="#dirArrow" transform="translate(30 24)" onmousedown="handlePan(0,-1)">
                  <use xlink:href="#rim" fill="#404040">
                        <set attributeName="fill" to="#808080" begin="arrowUp.mouseover" end="arrowUp.mouseout"/>
                  </use>
                  <path fill="none" stroke="white" stroke-width="1.5" d="M0,-3.0v7 M-2.5,-0.5L0,-3.0L2.5,-0.5"/>
                </g>
                <g id="arrowRight" xlink:href="#dirArrow" transform="rotate(90) translate(36 -43)" onmousedown="handlePan(1,0)">
                  <use xlink:href="#rim" fill="#404040">
                        <set attributeName="fill" to="#808080" begin="arrowRight.mouseover" end="arrowRight.mouseout"/>
                  </use>
                  <path fill="none" stroke="white" stroke-width="1.5" d="M0,-3.0v7 M-2.5,-0.5L0,-3.0L2.5,-0.5"/>
                </g>
                <g id="arrowDown" xlink:href="#dirArrow" transform="rotate(180) translate(-30 -48)" onmousedown="handlePan(0,1)">
                  <use xlink:href="#rim" fill="#404040">
                        <set attributeName="fill" to="#808080" begin="arrowDown.mouseover" end="arrowDown.mouseout"/>
                  </use>
                  <path fill="none" stroke="white" stroke-width="1.5" d="M0,-3.0v7 M-2.5,-0.5L0,-3.0L2.5,-0.5"/>
                </g>
                <g id="arrowLeft" xlink:href="#dirArrow" transform="rotate(270) translate(-36 17)" onmousedown="handlePan(-1,0)">
                  <use xlink:href="#rim" fill="#404040">
                        <set attributeName="fill" to="#808080" begin="arrowLeft.mouseover" end="arrowLeft.mouseout"/>
                  </use>
                  <path fill="none" stroke="white" stroke-width="1.5" d="M0,-3.0v7 M-2.5,-0.5L0,-3.0L2.5,-0.5"/>
                </g>
        </g>
        <svg viewBox="0 0 15 15" width="100%" height="30px" preserveAspectRatio="xMaxYMin meet">
         <g id="arrow_out" transform="scale(0.3 0.3)">
          <a xlink:href="classEigen_1_1PlainObjectBase_ac25699535374b1854cf8494e44ad31b2_icgraph_org.svg" target="_base">
           <rect id="button" ry="5" rx="5" y="6" x="6" height="38" width="38"
                fill="#f2f5e9" fill-opacity="0.5" stroke="#606060" stroke-width="1.0"/>
           <path id="arrow"
             d="M 11.500037,31.436501 C 11.940474,20.09759 22.043105,11.32322 32.158766,21.979434 L 37.068811,17.246167 C 37.068811,17.246167 37.088388,32 37.088388,32 L 22.160133,31.978069 C 22.160133,31.978069 26.997745,27.140456 26.997745,27.140456 C 18.528582,18.264221 13.291696,25.230495 11.500037,31.436501 z"
             style="fill:#404040;"/>
          </a>
         </g>
        </svg>
</svg>
