<?xml version="1.0" encoding="UTF-8" standalone="no"?>
<!DOCTYPE svg PUBLIC "-//W3C//DTD SVG 1.1//EN"
 "http://www.w3.org/Graphics/SVG/1.1/DTD/svg11.dtd">
<!-- Generated by graphviz version 2.38.0 (20140413.2041)
 -->
<!-- Title: Eigen::RealQZ::info Pages: 1 -->
<svg width="851pt" height="171pt"
 viewBox="0.00 0.00 851.00 170.50" xmlns="http://www.w3.org/2000/svg" xmlns:xlink="http://www.w3.org/1999/xlink">
<g id="graph0" class="graph" transform="scale(1 1) rotate(0) translate(4 166.5)">
<title>Eigen::RealQZ::info</title>
<!-- Node15 -->
<g id="node1" class="node"><title>Node15</title>
<polygon fill="#bfbfbf" stroke="black" points="0,-44.5 0,-63.5 107,-63.5 107,-44.5 0,-44.5"/>
<text text-anchor="middle" x="53.5" y="-51.5" font-family="Helvetica,sans-Serif" font-size="10.00">Eigen::RealQZ::info</text>
</g>
<!-- Node16 -->
<g id="node2" class="node"><title>Node16</title>
<g id="a_node2"><a xlink:href="classEigen_1_1GeneralizedEigenSolver.html#a275910b47dfe5f40211dcb59cfd68f3c" target="_top" xlink:title="Computes generalized eigendecomposition of given matrix. ">
<polygon fill="none" stroke="black" points="143,-88 143,-118 305,-118 305,-88 143,-88"/>
<text text-anchor="start" x="151" y="-106" font-family="Helvetica,sans-Serif" font-size="10.00">Eigen::GeneralizedEigenSolver</text>
<text text-anchor="middle" x="224" y="-95" font-family="Helvetica,sans-Serif" font-size="10.00">::compute</text>
</a>
</g>
</g>
<!-- Node15&#45;&gt;Node16 -->
<g id="edge1" class="edge"><title>Node15&#45;&gt;Node16</title>
<path fill="none" stroke="midnightblue" d="M97.0229,-66.3657C119.584,-72.9265 147.485,-81.0403 171.291,-87.963"/>
<polygon fill="midnightblue" stroke="midnightblue" points="97.9681,-62.9956 87.3885,-63.564 96.0134,-69.7172 97.9681,-62.9956"/>
</g>
<!-- Node21 -->
<g id="node7" class="node"><title>Node21</title>
<g id="a_node7"><a xlink:href="classEigen_1_1GeneralizedEigenSolver.html#aad204fd80e2633d5693b78916bcda40c" target="_top" xlink:title="Eigen::GeneralizedEigenSolver\l::info">
<polygon fill="none" stroke="black" points="143,-39 143,-69 305,-69 305,-39 143,-39"/>
<text text-anchor="start" x="151" y="-57" font-family="Helvetica,sans-Serif" font-size="10.00">Eigen::GeneralizedEigenSolver</text>
<text text-anchor="middle" x="224" y="-46" font-family="Helvetica,sans-Serif" font-size="10.00">::info</text>
</a>
</g>
</g>
<!-- Node15&#45;&gt;Node21 -->
<g id="edge7" class="edge"><title>Node15&#45;&gt;Node21</title>
<path fill="none" stroke="midnightblue" d="M117.616,-54C125.861,-54 134.394,-54 142.872,-54"/>
<polygon fill="midnightblue" stroke="midnightblue" points="117.352,-50.5001 107.352,-54 117.352,-57.5001 117.352,-50.5001"/>
</g>
<!-- Node22 -->
<g id="node8" class="node"><title>Node22</title>
<g id="a_node8"><a xlink:href="real__qz_8cpp.html#a50a5328a06d0dddd2fc98c7b62661ec8" target="_top" xlink:title="real_qz">
<polygon fill="none" stroke="black" points="198.5,-0.5 198.5,-19.5 249.5,-19.5 249.5,-0.5 198.5,-0.5"/>
<text text-anchor="middle" x="224" y="-7.5" font-family="Helvetica,sans-Serif" font-size="10.00">real_qz</text>
</a>
</g>
</g>
<!-- Node15&#45;&gt;Node22 -->
<g id="edge8" class="edge"><title>Node15&#45;&gt;Node22</title>
<path fill="none" stroke="midnightblue" d="M96.9403,-41.6194C111.506,-37.4746 127.934,-32.9153 143,-29 161.514,-24.1888 182.565,-19.2086 198.425,-15.5545"/>
<polygon fill="midnightblue" stroke="midnightblue" points="95.8436,-38.2927 87.193,-44.4096 97.7701,-45.0224 95.8436,-38.2927"/>
</g>
<!-- Node17 -->
<g id="node3" class="node"><title>Node17</title>
<g id="a_node3"><a xlink:href="classEigen_1_1GeneralizedEigenSolver.html#abeaa6f56cee367b83fd09d428462ca0c" target="_top" xlink:title="Eigen::GeneralizedEigenSolver\l::betas">
<polygon fill="none" stroke="black" points="341,-132 341,-162 503,-162 503,-132 341,-132"/>
<text text-anchor="start" x="349" y="-150" font-family="Helvetica,sans-Serif" font-size="10.00">Eigen::GeneralizedEigenSolver</text>
<text text-anchor="middle" x="422" y="-139" font-family="Helvetica,sans-Serif" font-size="10.00">::betas</text>
</a>
</g>
</g>
<!-- Node16&#45;&gt;Node17 -->
<g id="edge2" class="edge"><title>Node16&#45;&gt;Node17</title>
<path fill="none" stroke="midnightblue" d="M301.923,-120.268C319.148,-124.135 337.284,-128.207 354.065,-131.974"/>
<polygon fill="midnightblue" stroke="midnightblue" points="302.428,-116.795 291.904,-118.019 300.894,-123.625 302.428,-116.795"/>
</g>
<!-- Node18 -->
<g id="node4" class="node"><title>Node18</title>
<g id="a_node4"><a xlink:href="eigensolver__generalized__real_8cpp.html#aa8cb39f7fc3c05a5a869203d49aea8df" target="_top" xlink:title="generalized_eigensolver_real">
<polygon fill="none" stroke="black" points="539,-115.5 539,-134.5 694,-134.5 694,-115.5 539,-115.5"/>
<text text-anchor="middle" x="616.5" y="-122.5" font-family="Helvetica,sans-Serif" font-size="10.00">generalized_eigensolver_real</text>
</a>
</g>
</g>
<!-- Node16&#45;&gt;Node18 -->
<g id="edge5" class="edge"><title>Node16&#45;&gt;Node18</title>
<path fill="none" stroke="midnightblue" d="M315.664,-108.108C383.331,-111.92 474.773,-117.072 538.82,-120.68"/>
<polygon fill="midnightblue" stroke="midnightblue" points="315.619,-104.6 305.438,-107.532 315.226,-111.589 315.619,-104.6"/>
</g>
<!-- Node20 -->
<g id="node6" class="node"><title>Node20</title>
<g id="a_node6"><a xlink:href="classEigen_1_1GeneralizedEigenSolver.html#a2a3528cbf75f66d3a60af9dc7b12ff65" target="_top" xlink:title="Constructor; computes the generalized eigendecomposition of given matrix pair. ">
<polygon fill="none" stroke="black" points="341,-44 341,-74 503,-74 503,-44 341,-44"/>
<text text-anchor="start" x="349" y="-62" font-family="Helvetica,sans-Serif" font-size="10.00">Eigen::GeneralizedEigenSolver</text>
<text text-anchor="middle" x="422" y="-51" font-family="Helvetica,sans-Serif" font-size="10.00">::GeneralizedEigenSolver</text>
</a>
</g>
</g>
<!-- Node16&#45;&gt;Node20 -->
<g id="edge6" class="edge"><title>Node16&#45;&gt;Node20</title>
<path fill="none" stroke="midnightblue" d="M301.923,-85.7316C319.148,-81.8648 337.284,-77.7934 354.065,-74.0262"/>
<polygon fill="midnightblue" stroke="midnightblue" points="300.894,-82.3753 291.904,-87.9808 302.428,-89.2053 300.894,-82.3753"/>
</g>
<!-- Node17&#45;&gt;Node18 -->
<g id="edge3" class="edge"><title>Node17&#45;&gt;Node18</title>
<path fill="none" stroke="midnightblue" d="M513.228,-136.688C521.772,-135.712 530.38,-134.728 538.78,-133.768"/>
<polygon fill="midnightblue" stroke="midnightblue" points="512.781,-133.216 503.243,-137.829 513.576,-140.171 512.781,-133.216"/>
</g>
<!-- Node19 -->
<g id="node5" class="node"><title>Node19</title>
<g id="a_node5"><a xlink:href="boostmultiprec_8cpp.html#af8983cadf0ba3b55cb55879f4b3d833d" target="_top" xlink:title="test_boostmultiprec">
<polygon fill="none" stroke="black" points="730,-115.5 730,-134.5 843,-134.5 843,-115.5 730,-115.5"/>
<text text-anchor="middle" x="786.5" y="-122.5" font-family="Helvetica,sans-Serif" font-size="10.00">test_boostmultiprec</text>
</a>
</g>
</g>
<!-- Node18&#45;&gt;Node19 -->
<g id="edge4" class="edge"><title>Node18&#45;&gt;Node19</title>
<path fill="none" stroke="midnightblue" d="M704.228,-125C712.837,-125 721.408,-125 729.578,-125"/>
<polygon fill="midnightblue" stroke="midnightblue" points="704.126,-121.5 694.126,-125 704.126,-128.5 704.126,-121.5"/>
</g>
</g>
</svg>
