<?xml version="1.0" encoding="UTF-8" standalone="no"?>
<!DOCTYPE svg PUBLIC "-//W3C//DTD SVG 1.1//EN"
 "http://www.w3.org/Graphics/SVG/1.1/DTD/svg11.dtd">
<!-- Generated by graphviz version 2.38.0 (20140413.2041)
 -->
<!-- Title: Eigen::Transform::inverse Pages: 1 -->
<svg width="337pt" height="116pt"
 viewBox="0.00 0.00 337.00 115.50" xmlns="http://www.w3.org/2000/svg" xmlns:xlink="http://www.w3.org/1999/xlink">
<g id="graph0" class="graph" transform="scale(1 1) rotate(0) translate(4 111.5)">
<title>Eigen::Transform::inverse</title>
<!-- Node94 -->
<g id="node1" class="node"><title>Node94</title>
<polygon fill="#bfbfbf" stroke="black" points="0,-50 0,-69 137,-69 137,-50 0,-50"/>
<text text-anchor="middle" x="68.5" y="-57" font-family="Helvetica,sans-Serif" font-size="10.00">Eigen::Transform::inverse</text>
</g>
<!-- Node95 -->
<g id="node2" class="node"><title>Node95</title>
<g id="a_node2"><a xlink:href="classEigen_1_1Transform.html#a18580c6c151bac89f03818164dd19632" target="_top" xlink:title="Eigen::Transform::makeAffine">
<polygon fill="none" stroke="black" points="173,-88 173,-107 329,-107 329,-88 173,-88"/>
<text text-anchor="middle" x="251" y="-95" font-family="Helvetica,sans-Serif" font-size="10.00">Eigen::Transform::makeAffine</text>
</a>
</g>
</g>
<!-- Node94&#45;&gt;Node95 -->
<g id="edge1" class="edge"><title>Node94&#45;&gt;Node95</title>
<path fill="none" stroke="midnightblue" d="M115.048,-69.089C139.296,-74.1939 169.304,-80.5113 194.861,-85.8918"/>
<polygon fill="midnightblue" stroke="midnightblue" points="194.273,-89.3447 204.78,-87.9799 195.715,-82.4948 194.273,-89.3447"/>
</g>
<!-- Node96 -->
<g id="node3" class="node"><title>Node96</title>
<g id="a_node3"><a xlink:href="classEigen_1_1Transform.html#aec8168000a88a807130d41020af98d47" target="_top" xlink:title="Eigen::Transform::matrix">
<polygon fill="none" stroke="black" points="184.5,-50 184.5,-69 317.5,-69 317.5,-50 184.5,-50"/>
<text text-anchor="middle" x="251" y="-57" font-family="Helvetica,sans-Serif" font-size="10.00">Eigen::Transform::matrix</text>
</a>
</g>
</g>
<!-- Node94&#45;&gt;Node96 -->
<g id="edge2" class="edge"><title>Node94&#45;&gt;Node96</title>
<path fill="none" stroke="midnightblue" d="M137.225,-59.5C149.26,-59.5 161.867,-59.5 174.111,-59.5"/>
<polygon fill="midnightblue" stroke="midnightblue" points="174.291,-63.0001 184.291,-59.5 174.291,-56.0001 174.291,-63.0001"/>
</g>
<!-- Node97 -->
<g id="node4" class="node"><title>Node97</title>
<g id="a_node4"><a xlink:href="structEigen_1_1internal_1_1projective__transform__inverse.html#adf4ddcf803974e309b1e280c19da56c1" target="_top" xlink:title="Eigen::internal::projective\l_transform_inverse::run">
<polygon fill="none" stroke="black" points="182.5,-0.5 182.5,-30.5 319.5,-30.5 319.5,-0.5 182.5,-0.5"/>
<text text-anchor="start" x="190.5" y="-18.5" font-family="Helvetica,sans-Serif" font-size="10.00">Eigen::internal::projective</text>
<text text-anchor="middle" x="251" y="-7.5" font-family="Helvetica,sans-Serif" font-size="10.00">_transform_inverse::run</text>
</a>
</g>
</g>
<!-- Node94&#45;&gt;Node97 -->
<g id="edge3" class="edge"><title>Node94&#45;&gt;Node97</title>
<path fill="none" stroke="midnightblue" d="M108.666,-49.9527C128.988,-44.9988 154.463,-38.7888 178.167,-33.0105"/>
<polygon fill="midnightblue" stroke="midnightblue" points="179.311,-36.3342 188.198,-30.5654 177.653,-29.5333 179.311,-36.3342"/>
</g>
</g>
</svg>
