<?xml version="1.0" encoding="UTF-8" standalone="no"?>
<!DOCTYPE svg PUBLIC "-//W3C//DTD SVG 1.1//EN"
 "http://www.w3.org/Graphics/SVG/1.1/DTD/svg11.dtd">
<!-- Generated by graphviz version 2.38.0 (20140413.2041)
 -->
<!-- Title: Eigen::Spline::basisFunctions Pages: 1 -->
<svg width="652pt" height="156pt"
 viewBox="0.00 0.00 652.00 156.47" xmlns="http://www.w3.org/2000/svg" xmlns:xlink="http://www.w3.org/1999/xlink">
<g id="graph0" class="graph" transform="scale(1 1) rotate(0) translate(4 152.467)">
<title>Eigen::Spline::basisFunctions</title>
<!-- Node18 -->
<g id="node1" class="node"><title>Node18</title>
<polygon fill="#bfbfbf" stroke="black" points="0,-59.2348 0,-78.2348 154,-78.2348 154,-59.2348 0,-59.2348"/>
<text text-anchor="middle" x="77" y="-66.2348" font-family="Helvetica,sans-Serif" font-size="10.00">Eigen::Spline::basisFunctions</text>
</g>
<!-- Node19 -->
<g id="node2" class="node"><title>Node19</title>
<g id="a_node2"><a xlink:href="classEigen_1_1Spline.html#aac1839e8a956636d76bec24a4afc27e2" target="_top" xlink:title="Returns the spline&#39;s non&#45;zero basis functions. ">
<polygon fill="none" stroke="black" points="190,-31.2348 190,-50.2348 345,-50.2348 345,-31.2348 190,-31.2348"/>
<text text-anchor="middle" x="267.5" y="-38.2348" font-family="Helvetica,sans-Serif" font-size="10.00">Eigen::Spline::BasisFunctions</text>
</a>
</g>
</g>
<!-- Node18&#45;&gt;Node19 -->
<g id="edge1" class="edge"><title>Node18&#45;&gt;Node19</title>
<path fill="none" stroke="midnightblue" d="M142.081,-59.2162C158.167,-56.8267 175.564,-54.2425 192.106,-51.7853"/>
<polygon fill="midnightblue" stroke="midnightblue" points="192.899,-55.206 202.277,-50.2746 191.871,-48.282 192.899,-55.206"/>
</g>
<!-- Node20 -->
<g id="node3" class="node"><title>Node20</title>
<g id="a_node3"><a xlink:href="classEigen_1_1Spline.html#a0df23e941ac0f31dcd095a4dd4f4a7ec" target="_top" xlink:title="Returns the spline degree. ">
<polygon fill="none" stroke="black" points="526,-98.2348 526,-117.235 644,-117.235 644,-98.2348 526,-98.2348"/>
<text text-anchor="middle" x="585" y="-105.235" font-family="Helvetica,sans-Serif" font-size="10.00">Eigen::Spline::degree</text>
</a>
</g>
</g>
<!-- Node18&#45;&gt;Node20 -->
<g id="edge7" class="edge"><title>Node18&#45;&gt;Node20</title>
<path fill="none" stroke="midnightblue" d="M95.6434,-78.2795C117.226,-89.4819 155.196,-107.677 190,-116.735 319.321,-150.392 357.864,-156.654 490,-136.735 510.47,-133.649 532.629,-126.984 550.288,-120.821"/>
<polygon fill="midnightblue" stroke="midnightblue" points="551.896,-123.962 560.119,-117.281 549.525,-117.376 551.896,-123.962"/>
</g>
<!-- Node22 -->
<g id="node5" class="node"><title>Node22</title>
<g id="a_node5"><a xlink:href="classEigen_1_1Spline.html#ae3eac8af580ad880d8ad3a259d453aa1" target="_top" xlink:title="Returns the knots of the underlying spline. ">
<polygon fill="none" stroke="black" points="530,-3.23478 530,-22.2348 640,-22.2348 640,-3.23478 530,-3.23478"/>
<text text-anchor="middle" x="585" y="-10.2348" font-family="Helvetica,sans-Serif" font-size="10.00">Eigen::Spline::knots</text>
</a>
</g>
</g>
<!-- Node18&#45;&gt;Node22 -->
<g id="edge8" class="edge"><title>Node18&#45;&gt;Node22</title>
<path fill="none" stroke="midnightblue" d="M96.0292,-59.1113C117.679,-48.047 155.41,-30.3113 190,-21.7348 303.289,6.35512 440.548,1.00491 519.526,-5.69172"/>
<polygon fill="midnightblue" stroke="midnightblue" points="519.535,-9.20603 529.804,-6.59895 520.151,-2.23314 519.535,-9.20603"/>
</g>
<!-- Node23 -->
<g id="node6" class="node"><title>Node23</title>
<g id="a_node6"><a xlink:href="classEigen_1_1Spline.html#ab62751802b4cc237aadb0dbf3455df98" target="_top" xlink:title="Returns the span within the knot vector in which u is falling. ">
<polygon fill="none" stroke="black" points="214,-88.2348 214,-107.235 321,-107.235 321,-88.2348 214,-88.2348"/>
<text text-anchor="middle" x="267.5" y="-95.2348" font-family="Helvetica,sans-Serif" font-size="10.00">Eigen::Spline::span</text>
</a>
</g>
</g>
<!-- Node18&#45;&gt;Node23 -->
<g id="edge9" class="edge"><title>Node18&#45;&gt;Node23</title>
<path fill="none" stroke="midnightblue" d="M139.983,-78.2706C160.547,-81.4343 183.442,-84.9566 204.042,-88.1258"/>
<polygon fill="midnightblue" stroke="midnightblue" points="203.534,-91.5888 213.95,-89.6501 204.598,-84.6702 203.534,-91.5888"/>
</g>
<!-- Node19&#45;&gt;Node20 -->
<g id="edge2" class="edge"><title>Node19&#45;&gt;Node20</title>
<path fill="none" stroke="midnightblue" d="M313.368,-50.2631C370.175,-62.3266 467.993,-83.0994 529.168,-96.0907"/>
<polygon fill="midnightblue" stroke="midnightblue" points="528.522,-99.5314 539.031,-98.1852 529.976,-92.6841 528.522,-99.5314"/>
</g>
<!-- Node21 -->
<g id="node4" class="node"><title>Node21</title>
<g id="a_node4"><a xlink:href="classEigen_1_1Spline.html#aaba7632c61b84194e890696c2b57be1b" target="_top" xlink:title="Computes the spang within the provided knot vector in which u is falling. ">
<polygon fill="none" stroke="black" points="381,-22.2348 381,-41.2348 490,-41.2348 490,-22.2348 381,-22.2348"/>
<text text-anchor="middle" x="435.5" y="-29.2348" font-family="Helvetica,sans-Serif" font-size="10.00">Eigen::Spline::Span</text>
</a>
</g>
</g>
<!-- Node19&#45;&gt;Node21 -->
<g id="edge3" class="edge"><title>Node19&#45;&gt;Node21</title>
<path fill="none" stroke="midnightblue" d="M345.183,-36.5773C353.759,-36.1123 362.426,-35.6424 370.814,-35.1877"/>
<polygon fill="midnightblue" stroke="midnightblue" points="371.086,-38.6781 380.882,-34.6418 370.707,-31.6884 371.086,-38.6781"/>
</g>
<!-- Node19&#45;&gt;Node22 -->
<g id="edge6" class="edge"><title>Node19&#45;&gt;Node22</title>
<path fill="none" stroke="midnightblue" d="M298.209,-31.2313C320.677,-24.5629 352.432,-16.2365 381,-12.7348 427.178,-7.07449 479.711,-7.25176 519.765,-8.75131"/>
<polygon fill="midnightblue" stroke="midnightblue" points="519.793,-12.2554 529.929,-9.16999 520.082,-5.26128 519.793,-12.2554"/>
</g>
<!-- Node21&#45;&gt;Node20 -->
<g id="edge5" class="edge"><title>Node21&#45;&gt;Node20</title>
<path fill="none" stroke="midnightblue" d="M458.82,-41.2493C468.492,-45.5 479.892,-50.683 490,-55.7348 513.69,-67.5753 540.023,-82.2805 558.776,-93.0288"/>
<polygon fill="midnightblue" stroke="midnightblue" points="557.171,-96.1435 567.583,-98.1048 560.667,-90.0788 557.171,-96.1435"/>
</g>
<!-- Node21&#45;&gt;Node22 -->
<g id="edge4" class="edge"><title>Node21&#45;&gt;Node22</title>
<path fill="none" stroke="midnightblue" d="M490.168,-24.8216C499.705,-23.5931 509.727,-22.3021 519.527,-21.0398"/>
<polygon fill="midnightblue" stroke="midnightblue" points="520.159,-24.4874 529.63,-19.7384 519.264,-17.5448 520.159,-24.4874"/>
</g>
<!-- Node23&#45;&gt;Node20 -->
<g id="edge11" class="edge"><title>Node23&#45;&gt;Node20</title>
<path fill="none" stroke="midnightblue" d="M303.913,-107.288C325.913,-112.723 354.883,-118.98 381,-121.735 429.177,-126.817 441.688,-125.313 490,-121.735 499.526,-121.029 509.55,-119.927 519.36,-118.643"/>
<polygon fill="midnightblue" stroke="midnightblue" points="520.048,-122.082 529.476,-117.249 519.092,-115.147 520.048,-122.082"/>
</g>
<!-- Node23&#45;&gt;Node21 -->
<g id="edge10" class="edge"><title>Node23&#45;&gt;Node21</title>
<path fill="none" stroke="midnightblue" d="M292.638,-88.1378C321.241,-76.7654 369.06,-57.7531 401.178,-44.9835"/>
<polygon fill="midnightblue" stroke="midnightblue" points="402.603,-48.1833 410.602,-41.2363 400.017,-41.6785 402.603,-48.1833"/>
</g>
<!-- Node23&#45;&gt;Node22 -->
<g id="edge12" class="edge"><title>Node23&#45;&gt;Node22</title>
<path fill="none" stroke="midnightblue" d="M321.071,-89.2572C366.37,-81.3198 433.233,-68.0855 490,-50.7348 511.975,-44.0183 535.98,-34.2709 554.232,-26.33"/>
<polygon fill="midnightblue" stroke="midnightblue" points="555.735,-29.4923 563.47,-22.2517 552.908,-23.0886 555.735,-29.4923"/>
</g>
</g>
</svg>
