<?xml version="1.0" encoding="UTF-8" standalone="no"?>
<!DOCTYPE svg PUBLIC "-//W3C//DTD SVG 1.1//EN"
 "http://www.w3.org/Graphics/SVG/1.1/DTD/svg11.dtd">
<!-- Generated by graphviz version 2.38.0 (20140413.2041)
 -->
<!-- Title: Eigen::Spline::Span Pages: 1 -->
<!--zoomable 227 -->
<svg id="main" version="1.1" xmlns="http://www.w3.org/2000/svg" xmlns:xlink="http://www.w3.org/1999/xlink" xml:space="preserve" onload="init(evt)">
<style type="text/css"><![CDATA[
.edge:hover path { stroke: red; }
.edge:hover polygon { stroke: red; fill: red; }
]]></style>
<script type="text/javascript"><![CDATA[
var edges = document.getElementsByTagName('g');
if (edges && edges.length) {
  for (var i=0;i<edges.length;i++) {
    if (edges[i].id.substr(0,4)=='edge') {
      edges[i].setAttribute('class','edge');
    }
  }
}
]]></script>
        <defs>
                <circle id="rim" cx="0" cy="0" r="7"/>
                <circle id="rim2" cx="0" cy="0" r="3.5"/>
                <g id="zoomPlus">
                        <use xlink:href="#rim" fill="#404040">
                                <set attributeName="fill" to="#808080" begin="zoomplus.mouseover" end="zoomplus.mouseout"/>
                        </use>
                        <path d="M-4,0h8M0,-4v8" fill="none" stroke="white" stroke-width="1.5" pointer-events="none"/>
                </g>
                <g id="zoomMin">
                        <use xlink:href="#rim" fill="#404040">
                                <set attributeName="fill" to="#808080" begin="zoomminus.mouseover" end="zoomminus.mouseout"/>
                        </use>
                        <path d="M-4,0h8" fill="none" stroke="white" stroke-width="1.5" pointer-events="none"/>
                </g>
                <g id="dirArrow">
                        <path fill="none" stroke="white" stroke-width="1.5" d="M0,-3.0v7 M-2.5,-0.5L0,-3.0L2.5,-0.5"/>
                </g>
               <g id="resetDef">
                       <use xlink:href="#rim2" fill="#404040">
                               <set attributeName="fill" to="#808080" begin="reset.mouseover" end="reset.mouseout"/>
                       </use>
               </g>
        </defs>

<script type="text/javascript">
var viewWidth = 989;
var viewHeight = 227;
var sectionId = 'dynsection-18';
</script>
<script xlink:href="svgpan.js"/>
<svg id="graph" class="graph">
<g id="viewport">
<title>Eigen::Spline::Span</title>
<!-- Node118 -->
<g id="node1" class="node"><title>Node118</title>
<polygon fill="#bfbfbf" stroke="black" points="0,-89.7452 0,-108.745 109,-108.745 109,-89.7452 0,-89.7452"/>
<text text-anchor="middle" x="54.5" y="-96.7452" font-family="Helvetica,sans-Serif" font-size="10.00">Eigen::Spline::Span</text>
</g>
<!-- Node119 -->
<g id="node2" class="node"><title>Node119</title>
<g id="a_node2"><a xlink:href="classEigen_1_1Spline.html#aac1839e8a956636d76bec24a4afc27e2" target="_top" xlink:title="Returns the spline&#39;s non&#45;zero basis functions. ">
<polygon fill="none" stroke="black" points="288,-156.745 288,-175.745 443,-175.745 443,-156.745 288,-156.745"/>
<text text-anchor="middle" x="365.5" y="-163.745" font-family="Helvetica,sans-Serif" font-size="10.00">Eigen::Spline::BasisFunctions</text>
</a>
</g>
</g>
<!-- Node118&#45;&gt;Node119 -->
<g id="edge1" class="edge"><title>Node118&#45;&gt;Node119</title>
<path fill="none" stroke="midnightblue" d="M109.452,-110.944C169.258,-123.911 264.598,-144.584 320.207,-156.641"/>
<polygon fill="midnightblue" stroke="midnightblue" points="109.959,-107.472 99.444,-108.774 108.475,-114.313 109.959,-107.472"/>
</g>
<!-- Node121 -->
<g id="node4" class="node"><title>Node121</title>
<g id="a_node4"><a xlink:href="classEigen_1_1Spline.html#a0fc81e475d3a0ba34da1bd97f2e8fbc7" target="_top" xlink:title="Returns the ctrls of the underlying spline. ">
<polygon fill="none" stroke="black" points="688.5,-83.7452 688.5,-102.745 792.5,-102.745 792.5,-83.7452 688.5,-83.7452"/>
<text text-anchor="middle" x="740.5" y="-90.7452" font-family="Helvetica,sans-Serif" font-size="10.00">Eigen::Spline::ctrls</text>
</a>
</g>
</g>
<!-- Node118&#45;&gt;Node121 -->
<g id="edge8" class="edge"><title>Node118&#45;&gt;Node121</title>
<path fill="none" stroke="midnightblue" d="M89.9985,-86.1949C134.84,-69.9942 215.943,-43.2746 288,-33.2452 439.869,-12.1072 492.93,29.1367 633,-33.2452 654.849,-42.9758 648.7,-60.5973 669,-73.2452 675.911,-77.5511 683.772,-80.954 691.678,-83.6363"/>
<polygon fill="midnightblue" stroke="midnightblue" points="88.6574,-82.9586 80.4663,-89.6785 91.0601,-89.5333 88.6574,-82.9586"/>
</g>
<!-- Node123 -->
<g id="node6" class="node"><title>Node123</title>
<g id="a_node6"><a xlink:href="classEigen_1_1Spline.html#ab62751802b4cc237aadb0dbf3455df98" target="_top" xlink:title="Returns the span within the knot vector in which u is falling. ">
<polygon fill="none" stroke="black" points="145,-89.7452 145,-108.745 252,-108.745 252,-89.7452 145,-89.7452"/>
<text text-anchor="middle" x="198.5" y="-96.7452" font-family="Helvetica,sans-Serif" font-size="10.00">Eigen::Spline::span</text>
</a>
</g>
</g>
<!-- Node118&#45;&gt;Node123 -->
<g id="edge9" class="edge"><title>Node118&#45;&gt;Node123</title>
<path fill="none" stroke="midnightblue" d="M119.397,-99.2452C127.851,-99.2452 136.441,-99.2452 144.681,-99.2452"/>
<polygon fill="midnightblue" stroke="midnightblue" points="119.184,-95.7453 109.184,-99.2452 119.184,-102.745 119.184,-95.7453"/>
</g>
<!-- Node120 -->
<g id="node3" class="node"><title>Node120</title>
<g id="a_node3"><a xlink:href="classEigen_1_1Spline.html#afe0997f0bb02a3fac3073016abac04c6" target="_top" xlink:title="Computes the non&#45;zero basis functions at the given site. ">
<polygon fill="none" stroke="black" points="479,-118.745 479,-137.745 633,-137.745 633,-118.745 479,-118.745"/>
<text text-anchor="middle" x="556" y="-125.745" font-family="Helvetica,sans-Serif" font-size="10.00">Eigen::Spline::basisFunctions</text>
</a>
</g>
</g>
<!-- Node119&#45;&gt;Node120 -->
<g id="edge2" class="edge"><title>Node119&#45;&gt;Node120</title>
<path fill="none" stroke="midnightblue" d="M424.089,-154.636C450.898,-149.231 482.395,-142.882 507.776,-137.765"/>
<polygon fill="midnightblue" stroke="midnightblue" points="423.178,-151.249 414.067,-156.656 424.561,-158.111 423.178,-151.249"/>
</g>
<!-- Node119&#45;&gt;Node121 -->
<g id="edge7" class="edge"><title>Node119&#45;&gt;Node121</title>
<path fill="none" stroke="midnightblue" d="M453.117,-168.682C505.973,-168.065 574.417,-163.472 633,-147.245 668.162,-137.506 705.314,-115.635 725.1,-102.916"/>
<polygon fill="midnightblue" stroke="midnightblue" points="453.073,-165.182 443.098,-168.754 453.123,-172.182 453.073,-165.182"/>
</g>
<!-- Node120&#45;&gt;Node121 -->
<g id="edge3" class="edge"><title>Node120&#45;&gt;Node121</title>
<path fill="none" stroke="midnightblue" d="M616.765,-116.783C640.365,-112.257 667.167,-107.117 689.691,-102.798"/>
<polygon fill="midnightblue" stroke="midnightblue" points="616.031,-113.36 606.869,-118.681 617.349,-120.235 616.031,-113.36"/>
</g>
<!-- Node122 -->
<g id="node5" class="node"><title>Node122</title>
<g id="a_node5"><a xlink:href="classEigen_1_1Spline.html#a3c7e1838eae4ee7e341ef9d3dbf9ba45" target="_top" xlink:title="Returns the spline value at a given site . ">
<polygon fill="none" stroke="black" points="848,-102.745 848,-121.745 981,-121.745 981,-102.745 848,-102.745"/>
<text text-anchor="middle" x="914.5" y="-109.745" font-family="Helvetica,sans-Serif" font-size="10.00">Eigen::Spline::operator()</text>
</a>
</g>
</g>
<!-- Node120&#45;&gt;Node122 -->
<g id="edge6" class="edge"><title>Node120&#45;&gt;Node122</title>
<path fill="none" stroke="midnightblue" d="M643.346,-124.37C706.273,-121.546 790.233,-117.778 847.755,-115.196"/>
<polygon fill="midnightblue" stroke="midnightblue" points="642.874,-120.888 633.041,-124.832 643.188,-127.88 642.874,-120.888"/>
</g>
<!-- Node121&#45;&gt;Node122 -->
<g id="edge4" class="edge"><title>Node121&#45;&gt;Node122</title>
<path fill="none" stroke="midnightblue" d="M802.83,-93.5232C827.968,-95.7708 856.178,-99.1877 877.825,-102.71"/>
<polygon fill="midnightblue" stroke="midnightblue" points="802.899,-90.0167 792.64,-92.6636 802.31,-96.9919 802.899,-90.0167"/>
</g>
<!-- Node122&#45;&gt;Node121 -->
<g id="edge5" class="edge"><title>Node122&#45;&gt;Node121</title>
<path fill="none" stroke="midnightblue" d="M837.445,-110.553C816.444,-108.404 794.643,-105.624 777.139,-102.775"/>
<polygon fill="midnightblue" stroke="midnightblue" points="837.373,-114.063 847.667,-111.555 838.056,-107.097 837.373,-114.063"/>
</g>
<!-- Node123&#45;&gt;Node120 -->
<g id="edge10" class="edge"><title>Node123&#45;&gt;Node120</title>
<path fill="none" stroke="midnightblue" d="M262.508,-104.385C322.961,-109.317 414.336,-116.771 478.84,-122.032"/>
<polygon fill="midnightblue" stroke="midnightblue" points="262.59,-100.88 252.338,-103.556 262.02,-107.857 262.59,-100.88"/>
</g>
<!-- Node123&#45;&gt;Node121 -->
<g id="edge11" class="edge"><title>Node123&#45;&gt;Node121</title>
<path fill="none" stroke="midnightblue" d="M262.349,-98.5469C370.243,-97.3481 588.67,-94.9211 688.11,-93.8162"/>
<polygon fill="midnightblue" stroke="midnightblue" points="262.221,-95.048 252.261,-98.659 262.299,-102.048 262.221,-95.048"/>
</g>
<!-- Node123&#45;&gt;Node122 -->
<g id="edge17" class="edge"><title>Node123&#45;&gt;Node122</title>
<path fill="none" stroke="midnightblue" d="M211.363,-117.254C226.344,-138.173 254.28,-171.56 288,-185.245 510.366,-275.492 811.259,-157.312 892.541,-121.778"/>
<polygon fill="midnightblue" stroke="midnightblue" points="214.149,-115.13 205.586,-108.891 208.39,-119.108 214.149,-115.13"/>
</g>
<!-- Node124 -->
<g id="node7" class="node"><title>Node124</title>
<g id="a_node7"><a xlink:href="namespaceEigen.html#ae8ed4b8aebde67ffb90eafe2d29dd969" target="_top" xlink:title="Eigen::derivativesImpl">
<polygon fill="none" stroke="black" points="305,-42.7452 305,-61.7452 426,-61.7452 426,-42.7452 305,-42.7452"/>
<text text-anchor="middle" x="365.5" y="-49.7452" font-family="Helvetica,sans-Serif" font-size="10.00">Eigen::derivativesImpl</text>
</a>
</g>
</g>
<!-- Node123&#45;&gt;Node124 -->
<g id="edge12" class="edge"><title>Node123&#45;&gt;Node124</title>
<path fill="none" stroke="midnightblue" d="M242.663,-86.9505C270.213,-79.1027 305.405,-69.0783 330.877,-61.8228"/>
<polygon fill="midnightblue" stroke="midnightblue" points="241.549,-83.6284 232.89,-89.7341 243.467,-90.3606 241.549,-83.6284"/>
</g>
<!-- Node125 -->
<g id="node8" class="node"><title>Node125</title>
<g id="a_node8"><a xlink:href="classEigen_1_1Spline.html#a196730cf190dfa16907db888277e5aed" target="_top" xlink:title="Evaluation of spline derivatives of up&#45;to given order. ">
<polygon fill="none" stroke="black" points="488,-42.7452 488,-61.7452 624,-61.7452 624,-42.7452 488,-42.7452"/>
<text text-anchor="middle" x="556" y="-49.7452" font-family="Helvetica,sans-Serif" font-size="10.00">Eigen::Spline::derivatives</text>
</a>
</g>
</g>
<!-- Node124&#45;&gt;Node125 -->
<g id="edge13" class="edge"><title>Node124&#45;&gt;Node125</title>
<path fill="none" stroke="midnightblue" d="M436.45,-52.2452C453.267,-52.2452 471.193,-52.2452 487.878,-52.2452"/>
<polygon fill="midnightblue" stroke="midnightblue" points="436.143,-48.7453 426.143,-52.2452 436.143,-55.7453 436.143,-48.7453"/>
</g>
<!-- Node125&#45;&gt;Node121 -->
<g id="edge16" class="edge"><title>Node125&#45;&gt;Node121</title>
<path fill="none" stroke="midnightblue" d="M609.287,-63.9919C637.119,-70.2445 670.904,-77.8347 697.086,-83.7166"/>
<polygon fill="midnightblue" stroke="midnightblue" points="609.852,-60.5316 599.328,-61.7545 608.317,-67.3614 609.852,-60.5316"/>
</g>
<!-- Node126 -->
<g id="node9" class="node"><title>Node126</title>
<g id="a_node9"><a xlink:href="splines_8cpp.html#a6cf977c6acde0519c1f7f5e7f428d0aa" target="_top" xlink:title="check_global_interpolation\l_with_derivatives2d">
<polygon fill="none" stroke="black" points="669,-34.2452 669,-64.2452 812,-64.2452 812,-34.2452 669,-34.2452"/>
<text text-anchor="start" x="677" y="-52.2452" font-family="Helvetica,sans-Serif" font-size="10.00">check_global_interpolation</text>
<text text-anchor="middle" x="740.5" y="-41.2452" font-family="Helvetica,sans-Serif" font-size="10.00">_with_derivatives2d</text>
</a>
</g>
</g>
<!-- Node125&#45;&gt;Node126 -->
<g id="edge14" class="edge"><title>Node125&#45;&gt;Node126</title>
<path fill="none" stroke="midnightblue" d="M634.521,-50.9709C645.895,-50.7839 657.561,-50.5922 668.788,-50.4076"/>
<polygon fill="midnightblue" stroke="midnightblue" points="634.12,-47.4769 624.179,-51.1409 634.235,-54.476 634.12,-47.4769"/>
</g>
<!-- Node127 -->
<g id="node10" class="node"><title>Node127</title>
<g id="a_node10"><a xlink:href="splines_8cpp.html#a57b2505a0c99a367836411dc4e1546e2" target="_top" xlink:title="test_splines">
<polygon fill="none" stroke="black" points="877.5,-39.7452 877.5,-58.7452 951.5,-58.7452 951.5,-39.7452 877.5,-39.7452"/>
<text text-anchor="middle" x="914.5" y="-46.7452" font-family="Helvetica,sans-Serif" font-size="10.00">test_splines</text>
</a>
</g>
</g>
<!-- Node126&#45;&gt;Node127 -->
<g id="edge15" class="edge"><title>Node126&#45;&gt;Node127</title>
<path fill="none" stroke="midnightblue" d="M822.677,-49.2452C841.738,-49.2452 861.116,-49.2452 877.05,-49.2452"/>
<polygon fill="midnightblue" stroke="midnightblue" points="822.452,-45.7453 812.452,-49.2452 822.452,-52.7453 822.452,-45.7453"/>
</g>
</g>
</svg>
        <g id="navigator" transform="translate(0 0)" fill="#404254">
                <rect fill="#f2f5e9" fill-opacity="0.5" stroke="#606060" stroke-width=".5" x="0" y="0" width="60" height="60"/>
                <use id="zoomplus" xlink:href="#zoomPlus" x="17" y="9" onmousedown="handleZoom(evt,'in')"/>
                <use id="zoomminus" xlink:href="#zoomMin" x="42" y="9" onmousedown="handleZoom(evt,'out')"/>
                <use id="reset" xlink:href="#resetDef" x="30" y="36" onmousedown="handleReset()"/>
                <g id="arrowUp" xlink:href="#dirArrow" transform="translate(30 24)" onmousedown="handlePan(0,-1)">
                  <use xlink:href="#rim" fill="#404040">
                        <set attributeName="fill" to="#808080" begin="arrowUp.mouseover" end="arrowUp.mouseout"/>
                  </use>
                  <path fill="none" stroke="white" stroke-width="1.5" d="M0,-3.0v7 M-2.5,-0.5L0,-3.0L2.5,-0.5"/>
                </g>
                <g id="arrowRight" xlink:href="#dirArrow" transform="rotate(90) translate(36 -43)" onmousedown="handlePan(1,0)">
                  <use xlink:href="#rim" fill="#404040">
                        <set attributeName="fill" to="#808080" begin="arrowRight.mouseover" end="arrowRight.mouseout"/>
                  </use>
                  <path fill="none" stroke="white" stroke-width="1.5" d="M0,-3.0v7 M-2.5,-0.5L0,-3.0L2.5,-0.5"/>
                </g>
                <g id="arrowDown" xlink:href="#dirArrow" transform="rotate(180) translate(-30 -48)" onmousedown="handlePan(0,1)">
                  <use xlink:href="#rim" fill="#404040">
                        <set attributeName="fill" to="#808080" begin="arrowDown.mouseover" end="arrowDown.mouseout"/>
                  </use>
                  <path fill="none" stroke="white" stroke-width="1.5" d="M0,-3.0v7 M-2.5,-0.5L0,-3.0L2.5,-0.5"/>
                </g>
                <g id="arrowLeft" xlink:href="#dirArrow" transform="rotate(270) translate(-36 17)" onmousedown="handlePan(-1,0)">
                  <use xlink:href="#rim" fill="#404040">
                        <set attributeName="fill" to="#808080" begin="arrowLeft.mouseover" end="arrowLeft.mouseout"/>
                  </use>
                  <path fill="none" stroke="white" stroke-width="1.5" d="M0,-3.0v7 M-2.5,-0.5L0,-3.0L2.5,-0.5"/>
                </g>
        </g>
        <svg viewBox="0 0 15 15" width="100%" height="30px" preserveAspectRatio="xMaxYMin meet">
         <g id="arrow_out" transform="scale(0.3 0.3)">
          <a xlink:href="classEigen_1_1Spline_aaba7632c61b84194e890696c2b57be1b_icgraph_org.svg" target="_base">
           <rect id="button" ry="5" rx="5" y="6" x="6" height="38" width="38"
                fill="#f2f5e9" fill-opacity="0.5" stroke="#606060" stroke-width="1.0"/>
           <path id="arrow"
             d="M 11.500037,31.436501 C 11.940474,20.09759 22.043105,11.32322 32.158766,21.979434 L 37.068811,17.246167 C 37.068811,17.246167 37.088388,32 37.088388,32 L 22.160133,31.978069 C 22.160133,31.978069 26.997745,27.140456 26.997745,27.140456 C 18.528582,18.264221 13.291696,25.230495 11.500037,31.436501 z"
             style="fill:#404040;"/>
          </a>
         </g>
        </svg>
</svg>
