<?xml version="1.0" encoding="UTF-8" standalone="no"?>
<!DOCTYPE svg PUBLIC "-//W3C//DTD SVG 1.1//EN"
 "http://www.w3.org/Graphics/SVG/1.1/DTD/svg11.dtd">
<!-- Generated by graphviz version 2.38.0 (20140413.2041)
 -->
<!-- Title: Eigen::TensorFixedSize::TensorFixedSize Pages: 1 -->
<svg width="911pt" height="176pt"
 viewBox="0.00 0.00 911.00 176.00" xmlns="http://www.w3.org/2000/svg" xmlns:xlink="http://www.w3.org/1999/xlink">
<g id="graph0" class="graph" transform="scale(1 1) rotate(0) translate(4 172)">
<title>Eigen::TensorFixedSize::TensorFixedSize</title>
<!-- Node16 -->
<g id="node1" class="node"><title>Node16</title>
<polygon fill="#bfbfbf" stroke="black" points="0,-93.5 0,-123.5 124,-123.5 124,-93.5 0,-93.5"/>
<text text-anchor="start" x="8" y="-111.5" font-family="Helvetica,sans-Serif" font-size="10.00">Eigen::TensorFixedSize</text>
<text text-anchor="middle" x="62" y="-100.5" font-family="Helvetica,sans-Serif" font-size="10.00">::TensorFixedSize</text>
</g>
<!-- Node17 -->
<g id="node2" class="node"><title>Node17</title>
<g id="a_node2"><a xlink:href="classEigen_1_1TensorBase.html#aa039c491d3323f602a3066e6cbaa98d4" target="_top" xlink:title="Eigen::TensorBase::\lderived">
<polygon fill="none" stroke="black" points="197.5,-115.5 197.5,-145.5 307.5,-145.5 307.5,-115.5 197.5,-115.5"/>
<text text-anchor="start" x="205.5" y="-133.5" font-family="Helvetica,sans-Serif" font-size="10.00">Eigen::TensorBase::</text>
<text text-anchor="middle" x="252.5" y="-122.5" font-family="Helvetica,sans-Serif" font-size="10.00">derived</text>
</a>
</g>
</g>
<!-- Node16&#45;&gt;Node17 -->
<g id="edge1" class="edge"><title>Node16&#45;&gt;Node17</title>
<path fill="none" stroke="midnightblue" d="M124.201,-115.643C144.341,-117.993 166.786,-120.613 187.153,-122.99"/>
<polygon fill="midnightblue" stroke="midnightblue" points="186.939,-126.489 197.277,-124.172 187.75,-119.536 186.939,-126.489"/>
</g>
<!-- Node18 -->
<g id="node3" class="node"><title>Node18</title>
<g id="a_node3"><a xlink:href="classEigen_1_1internal_1_1TensorExecutor.html#a2746f3ea9258215fe221288ec352c0bc" target="_top" xlink:title="Eigen::internal::TensorExecutor::run">
<polygon fill="none" stroke="black" points="160,-77 160,-96 345,-96 345,-77 160,-77"/>
<text text-anchor="middle" x="252.5" y="-84" font-family="Helvetica,sans-Serif" font-size="10.00">Eigen::internal::TensorExecutor::run</text>
</a>
</g>
</g>
<!-- Node16&#45;&gt;Node18 -->
<g id="edge2" class="edge"><title>Node16&#45;&gt;Node18</title>
<path fill="none" stroke="midnightblue" d="M124.201,-101.357C135.623,-100.024 147.786,-98.6045 159.891,-97.1917"/>
<polygon fill="midnightblue" stroke="midnightblue" points="160.502,-100.644 170.029,-96.0086 159.69,-93.6915 160.502,-100.644"/>
</g>
<!-- Node19 -->
<g id="node4" class="node"><title>Node19</title>
<g id="a_node4"><a xlink:href="structEigen_1_1TensorEvaluator.html#ae188d806978166eb8cbffbd63c944fb3" target="_top" xlink:title="Eigen::TensorEvaluator\l::evalSubExprsIfNeeded">
<polygon fill="none" stroke="black" points="387.5,-137.5 387.5,-167.5 517.5,-167.5 517.5,-137.5 387.5,-137.5"/>
<text text-anchor="start" x="395.5" y="-155.5" font-family="Helvetica,sans-Serif" font-size="10.00">Eigen::TensorEvaluator</text>
<text text-anchor="middle" x="452.5" y="-144.5" font-family="Helvetica,sans-Serif" font-size="10.00">::evalSubExprsIfNeeded</text>
</a>
</g>
</g>
<!-- Node18&#45;&gt;Node19 -->
<g id="edge3" class="edge"><title>Node18&#45;&gt;Node19</title>
<path fill="none" stroke="midnightblue" d="M310.452,-96.0549C322.081,-98.8065 334.092,-102.249 345,-106.5 362.259,-113.227 364.197,-119.704 381,-127.5 385.666,-129.665 390.576,-131.758 395.542,-133.751"/>
<polygon fill="midnightblue" stroke="midnightblue" points="394.525,-137.11 405.114,-137.45 397.048,-130.58 394.525,-137.11"/>
</g>
<!-- Node20 -->
<g id="node5" class="node"><title>Node20</title>
<g id="a_node5"><a xlink:href="namespaceEigen_1_1internal.html#a3b99e338d92a91c8b3f89d32d0ca2c39" target="_top" xlink:title="Eigen::internal::array_prod">
<polygon fill="none" stroke="black" points="381,-99 381,-118 524,-118 524,-99 381,-99"/>
<text text-anchor="middle" x="452.5" y="-106" font-family="Helvetica,sans-Serif" font-size="10.00">Eigen::internal::array_prod</text>
</a>
</g>
</g>
<!-- Node18&#45;&gt;Node20 -->
<g id="edge4" class="edge"><title>Node18&#45;&gt;Node20</title>
<path fill="none" stroke="midnightblue" d="M339.194,-96.0216C349.619,-97.1799 360.245,-98.3606 370.598,-99.5109"/>
<polygon fill="midnightblue" stroke="midnightblue" points="370.516,-103.023 380.842,-100.649 371.29,-96.0661 370.516,-103.023"/>
</g>
<!-- Node23 -->
<g id="node8" class="node"><title>Node23</title>
<g id="a_node8"><a xlink:href="structEigen_1_1TensorEvaluator.html#af32e0f48e24581602b66e9d33af58c85" target="_top" xlink:title="Eigen::TensorEvaluator\l::dimensions">
<polygon fill="none" stroke="black" points="390,-49.5 390,-79.5 515,-79.5 515,-49.5 390,-49.5"/>
<text text-anchor="start" x="398" y="-67.5" font-family="Helvetica,sans-Serif" font-size="10.00">Eigen::TensorEvaluator</text>
<text text-anchor="middle" x="452.5" y="-56.5" font-family="Helvetica,sans-Serif" font-size="10.00">::dimensions</text>
</a>
</g>
</g>
<!-- Node18&#45;&gt;Node23 -->
<g id="edge7" class="edge"><title>Node18&#45;&gt;Node23</title>
<path fill="none" stroke="midnightblue" d="M339.194,-76.9784C352.77,-75.47 366.685,-73.9239 379.894,-72.4562"/>
<polygon fill="midnightblue" stroke="midnightblue" points="380.288,-75.934 389.841,-71.351 379.515,-68.9768 380.288,-75.934"/>
</g>
<!-- Node24 -->
<g id="node9" class="node"><title>Node24</title>
<g id="a_node9"><a xlink:href="structEigen_1_1TensorEvaluator.html#a76ec54bcca9523ec104aaa9adaf74983" target="_top" xlink:title="Eigen::TensorEvaluator\l::cleanup">
<polygon fill="none" stroke="black" points="390,-0.5 390,-30.5 515,-30.5 515,-0.5 390,-0.5"/>
<text text-anchor="start" x="398" y="-18.5" font-family="Helvetica,sans-Serif" font-size="10.00">Eigen::TensorEvaluator</text>
<text text-anchor="middle" x="452.5" y="-7.5" font-family="Helvetica,sans-Serif" font-size="10.00">::cleanup</text>
</a>
</g>
</g>
<!-- Node18&#45;&gt;Node24 -->
<g id="edge8" class="edge"><title>Node18&#45;&gt;Node24</title>
<path fill="none" stroke="midnightblue" d="M279.857,-76.9431C305.629,-67.6097 345.992,-53.0223 381,-40.5 386.938,-38.376 393.16,-36.1582 399.345,-33.9586"/>
<polygon fill="midnightblue" stroke="midnightblue" points="400.736,-37.179 408.987,-30.5333 398.392,-30.5829 400.736,-37.179"/>
</g>
<!-- Node21 -->
<g id="node6" class="node"><title>Node21</title>
<g id="a_node6"><a xlink:href="structEigen_1_1internal_1_1fixed__size__tensor__index__linearization__helper.html#ad9f850bf5d539ce2ceb45a27e8ae4975" target="_top" xlink:title="Eigen::internal::fixed\l_size_tensor_index_linearization\l_helper::run">
<polygon fill="none" stroke="black" points="560,-88 560,-129 730,-129 730,-88 560,-88"/>
<text text-anchor="start" x="568" y="-117" font-family="Helvetica,sans-Serif" font-size="10.00">Eigen::internal::fixed</text>
<text text-anchor="start" x="568" y="-106" font-family="Helvetica,sans-Serif" font-size="10.00">_size_tensor_index_linearization</text>
<text text-anchor="middle" x="645" y="-95" font-family="Helvetica,sans-Serif" font-size="10.00">_helper::run</text>
</a>
</g>
</g>
<!-- Node20&#45;&gt;Node21 -->
<g id="edge5" class="edge"><title>Node20&#45;&gt;Node21</title>
<path fill="none" stroke="midnightblue" d="M524.164,-108.5C532.536,-108.5 541.18,-108.5 549.812,-108.5"/>
<polygon fill="midnightblue" stroke="midnightblue" points="549.923,-112 559.923,-108.5 549.923,-105 549.923,-112"/>
</g>
<!-- Node22 -->
<g id="node7" class="node"><title>Node22</title>
<g id="a_node7"><a xlink:href="namespaceEigen_1_1internal.html#a7dd131bbd4a892f4d48cfce903de56c5" target="_top" xlink:title="Eigen::internal::array_get">
<polygon fill="none" stroke="black" points="766,-99 766,-118 903,-118 903,-99 766,-99"/>
<text text-anchor="middle" x="834.5" y="-106" font-family="Helvetica,sans-Serif" font-size="10.00">Eigen::internal::array_get</text>
</a>
</g>
</g>
<!-- Node21&#45;&gt;Node22 -->
<g id="edge6" class="edge"><title>Node21&#45;&gt;Node22</title>
<path fill="none" stroke="midnightblue" d="M730.152,-108.5C738.665,-108.5 747.285,-108.5 755.727,-108.5"/>
<polygon fill="midnightblue" stroke="midnightblue" points="755.916,-112 765.916,-108.5 755.916,-105 755.916,-112"/>
</g>
</g>
</svg>
