<?xml version="1.0" encoding="UTF-8" standalone="no"?>
<!DOCTYPE svg PUBLIC "-//W3C//DTD SVG 1.1//EN"
 "http://www.w3.org/Graphics/SVG/1.1/DTD/svg11.dtd">
<!-- Generated by graphviz version 2.38.0 (20140413.2041)
 -->
<!-- Title: Eigen::CompleteOrthogonalDecomposition::isSurjective Pages: 1 -->
<svg width="343pt" height="66pt"
 viewBox="0.00 0.00 343.00 66.00" xmlns="http://www.w3.org/2000/svg" xmlns:xlink="http://www.w3.org/1999/xlink">
<g id="graph0" class="graph" transform="scale(1 1) rotate(0) translate(4 62)">
<title>Eigen::CompleteOrthogonalDecomposition::isSurjective</title>
<!-- Node71 -->
<g id="node1" class="node"><title>Node71</title>
<polygon fill="#bfbfbf" stroke="black" points="0,-14 0,-44 149,-44 149,-14 0,-14"/>
<text text-anchor="start" x="8" y="-32" font-family="Helvetica,sans-Serif" font-size="10.00">Eigen::CompleteOrthogonal</text>
<text text-anchor="middle" x="74.5" y="-21" font-family="Helvetica,sans-Serif" font-size="10.00">Decomposition::isSurjective</text>
</g>
<!-- Node72 -->
<g id="node2" class="node"><title>Node72</title>
<g id="a_node2"><a xlink:href="qr__colpivoting_8cpp.html#ab01bcdcb9896ed2aeb4fce98119a012d" target="_top" xlink:title="cod">
<polygon fill="none" stroke="black" points="185,-38.5 185,-57.5 219,-57.5 219,-38.5 185,-38.5"/>
<text text-anchor="middle" x="202" y="-45.5" font-family="Helvetica,sans-Serif" font-size="10.00">cod</text>
</a>
</g>
</g>
<!-- Node71&#45;&gt;Node72 -->
<g id="edge1" class="edge"><title>Node71&#45;&gt;Node72</title>
<path fill="none" stroke="midnightblue" d="M159.144,-41.6632C168.847,-43.1322 177.797,-44.4873 184.91,-45.5641"/>
<polygon fill="midnightblue" stroke="midnightblue" points="159.641,-38.1987 149.23,-40.1623 158.593,-45.1198 159.641,-38.1987"/>
</g>
<!-- Node74 -->
<g id="node4" class="node"><title>Node74</title>
<g id="a_node4"><a xlink:href="qr__colpivoting_8cpp.html#ad8fd13db943a2d9cc9efbd4a20365bf5" target="_top" xlink:title="cod_fixedsize">
<polygon fill="none" stroke="black" points="255,-0.5 255,-19.5 335,-19.5 335,-0.5 255,-0.5"/>
<text text-anchor="middle" x="295" y="-7.5" font-family="Helvetica,sans-Serif" font-size="10.00">cod_fixedsize</text>
</a>
</g>
</g>
<!-- Node71&#45;&gt;Node74 -->
<g id="edge4" class="edge"><title>Node71&#45;&gt;Node74</title>
<path fill="none" stroke="midnightblue" d="M159.269,-21.7158C192.195,-18.8526 228.391,-15.7052 254.967,-13.3942"/>
<polygon fill="midnightblue" stroke="midnightblue" points="158.829,-18.2407 149.17,-22.594 159.435,-25.2144 158.829,-18.2407"/>
</g>
<!-- Node73 -->
<g id="node3" class="node"><title>Node73</title>
<g id="a_node3"><a xlink:href="dense__solvers_8cpp.html#a578ba2d5aea4aaa8751e7311d8384181" target="_top" xlink:title="bench">
<polygon fill="none" stroke="black" points="272,-38.5 272,-57.5 318,-57.5 318,-38.5 272,-38.5"/>
<text text-anchor="middle" x="295" y="-45.5" font-family="Helvetica,sans-Serif" font-size="10.00">bench</text>
</a>
</g>
</g>
<!-- Node72&#45;&gt;Node73 -->
<g id="edge2" class="edge"><title>Node72&#45;&gt;Node73</title>
<path fill="none" stroke="midnightblue" d="M229.338,-48C242.765,-48 258.917,-48 271.719,-48"/>
<polygon fill="midnightblue" stroke="midnightblue" points="229.269,-44.5001 219.269,-48 229.269,-51.5001 229.269,-44.5001"/>
</g>
<!-- Node72&#45;&gt;Node74 -->
<g id="edge3" class="edge"><title>Node72&#45;&gt;Node74</title>
<path fill="none" stroke="midnightblue" d="M228.795,-37.2284C242.092,-31.676 258.171,-24.9616 271.035,-19.5898"/>
<polygon fill="midnightblue" stroke="midnightblue" points="227.148,-34.1232 219.269,-41.2064 229.845,-40.5827 227.148,-34.1232"/>
</g>
</g>
</svg>
