<?xml version="1.0" encoding="UTF-8" standalone="no"?>
<!DOCTYPE svg PUBLIC "-//W3C//DTD SVG 1.1//EN"
 "http://www.w3.org/Graphics/SVG/1.1/DTD/svg11.dtd">
<!-- Generated by graphviz version 2.38.0 (20140413.2041)
 -->
<!-- Title: Eigen::internal::TensorLazyBaseEvaluator::dimensions Pages: 1 -->
<svg width="401pt" height="159pt"
 viewBox="0.00 0.00 401.00 159.00" xmlns="http://www.w3.org/2000/svg" xmlns:xlink="http://www.w3.org/1999/xlink">
<g id="graph0" class="graph" transform="scale(1 1) rotate(0) translate(4 155)">
<title>Eigen::internal::TensorLazyBaseEvaluator::dimensions</title>
<!-- Node20 -->
<g id="node1" class="node"><title>Node20</title>
<polygon fill="#bfbfbf" stroke="black" points="0,-71.5 0,-101.5 146,-101.5 146,-71.5 0,-71.5"/>
<text text-anchor="start" x="8" y="-89.5" font-family="Helvetica,sans-Serif" font-size="10.00">Eigen::internal::TensorLazy</text>
<text text-anchor="middle" x="73" y="-78.5" font-family="Helvetica,sans-Serif" font-size="10.00">BaseEvaluator::dimensions</text>
</g>
<!-- Node21 -->
<g id="node2" class="node"><title>Node21</title>
<g id="a_node2"><a xlink:href="classEigen_1_1TensorRef.html#a42cc669aea64fb4d84b689abd9686524" target="_top" xlink:title="Eigen::TensorRef\&lt; Derived\l \&gt;::coeff">
<polygon fill="none" stroke="black" points="216.5,-120.5 216.5,-150.5 358.5,-150.5 358.5,-120.5 216.5,-120.5"/>
<text text-anchor="start" x="224.5" y="-138.5" font-family="Helvetica,sans-Serif" font-size="10.00">Eigen::TensorRef&lt; Derived</text>
<text text-anchor="middle" x="287.5" y="-127.5" font-family="Helvetica,sans-Serif" font-size="10.00"> &gt;::coeff</text>
</a>
</g>
</g>
<!-- Node20&#45;&gt;Node21 -->
<g id="edge1" class="edge"><title>Node20&#45;&gt;Node21</title>
<path fill="none" stroke="midnightblue" d="M148.581,-103.782C159.781,-106.372 171.194,-109.008 182,-111.5 194.606,-114.407 208.07,-117.504 220.996,-120.474"/>
<polygon fill="midnightblue" stroke="midnightblue" points="149.347,-100.367 138.815,-101.523 147.769,-107.186 149.347,-100.367"/>
</g>
<!-- Node22 -->
<g id="node3" class="node"><title>Node22</title>
<g id="a_node3"><a xlink:href="classEigen_1_1TensorRef.html#a57a515b812336de074aaf6ad7b94b08b" target="_top" xlink:title="Eigen::TensorRef\&lt; Derived\l \&gt;::coeffRef">
<polygon fill="none" stroke="black" points="216.5,-71.5 216.5,-101.5 358.5,-101.5 358.5,-71.5 216.5,-71.5"/>
<text text-anchor="start" x="224.5" y="-89.5" font-family="Helvetica,sans-Serif" font-size="10.00">Eigen::TensorRef&lt; Derived</text>
<text text-anchor="middle" x="287.5" y="-78.5" font-family="Helvetica,sans-Serif" font-size="10.00"> &gt;::coeffRef</text>
</a>
</g>
</g>
<!-- Node20&#45;&gt;Node22 -->
<g id="edge2" class="edge"><title>Node20&#45;&gt;Node22</title>
<path fill="none" stroke="midnightblue" d="M156.449,-86.5C176.204,-86.5 197.116,-86.5 216.259,-86.5"/>
<polygon fill="midnightblue" stroke="midnightblue" points="156.239,-83.0001 146.239,-86.5 156.239,-90.0001 156.239,-83.0001"/>
</g>
<!-- Node23 -->
<g id="node4" class="node"><title>Node23</title>
<g id="a_node4"><a xlink:href="classEigen_1_1internal_1_1TensorLazyBaseEvaluator.html#a7b803311dcffa71ee36f4e9c55a63fc2" target="_top" xlink:title="Eigen::internal::TensorLazy\lBaseEvaluator\&lt; Dimensions,\l TensorEvaluator\&lt; Expr, Device\l \&gt;::Scalar \&gt;::~TensorLazyBaseEvaluator">
<polygon fill="none" stroke="black" points="182,-0.5 182,-52.5 393,-52.5 393,-0.5 182,-0.5"/>
<text text-anchor="start" x="190" y="-40.5" font-family="Helvetica,sans-Serif" font-size="10.00">Eigen::internal::TensorLazy</text>
<text text-anchor="start" x="190" y="-29.5" font-family="Helvetica,sans-Serif" font-size="10.00">BaseEvaluator&lt; Dimensions,</text>
<text text-anchor="start" x="190" y="-18.5" font-family="Helvetica,sans-Serif" font-size="10.00"> TensorEvaluator&lt; Expr, Device</text>
<text text-anchor="middle" x="287.5" y="-7.5" font-family="Helvetica,sans-Serif" font-size="10.00"> &gt;::Scalar &gt;::~TensorLazyBaseEvaluator</text>
</a>
</g>
</g>
<!-- Node20&#45;&gt;Node23 -->
<g id="edge3" class="edge"><title>Node20&#45;&gt;Node23</title>
<path fill="none" stroke="midnightblue" d="M137.094,-68.6853C155.031,-63.6206 174.946,-57.9977 194.234,-52.5515"/>
<polygon fill="midnightblue" stroke="midnightblue" points="136.021,-65.3512 127.348,-71.4369 137.923,-72.0879 136.021,-65.3512"/>
</g>
</g>
</svg>
