<?xml version="1.0" encoding="UTF-8" standalone="no"?>
<!DOCTYPE svg PUBLIC "-//W3C//DTD SVG 1.1//EN"
 "http://www.w3.org/Graphics/SVG/1.1/DTD/svg11.dtd">
<!-- Generated by graphviz version 2.38.0 (20140413.2041)
 -->
<!-- Title: sqlite::statement::set Pages: 1 -->
<svg width="339pt" height="116pt"
 viewBox="0.00 0.00 339.00 116.00" xmlns="http://www.w3.org/2000/svg" xmlns:xlink="http://www.w3.org/1999/xlink">
<g id="graph0" class="graph" transform="scale(1 1) rotate(0) translate(4 112)">
<title>sqlite::statement::set</title>
<!-- Node45 -->
<g id="node1" class="node"><title>Node45</title>
<polygon fill="#bfbfbf" stroke="black" points="0,-44.5 0,-63.5 119,-63.5 119,-44.5 0,-44.5"/>
<text text-anchor="middle" x="59.5" y="-51.5" font-family="Helvetica,sans-Serif" font-size="10.00">sqlite::statement::set</text>
</g>
<!-- Node46 -->
<g id="node2" class="node"><title>Node46</title>
<g id="a_node2"><a xlink:href="quantum__defect__test_8cpp.html#aa6d045e9def139cd75c41b225e83676e" target="_top" xlink:title="BOOST_AUTO_TEST_CASE">
<polygon fill="none" stroke="black" points="171.5,-88.5 171.5,-107.5 314.5,-107.5 314.5,-88.5 171.5,-88.5"/>
<text text-anchor="middle" x="243" y="-95.5" font-family="Helvetica,sans-Serif" font-size="10.00">BOOST_AUTO_TEST_CASE</text>
</a>
</g>
</g>
<!-- Node45&#45;&gt;Node46 -->
<g id="edge1" class="edge"><title>Node45&#45;&gt;Node46</title>
<path fill="none" stroke="midnightblue" d="M104.982,-66.195C120.742,-70.4023 138.625,-75.048 155,-79 168.376,-82.2282 182.966,-85.5082 196.31,-88.4138"/>
<polygon fill="midnightblue" stroke="midnightblue" points="105.535,-62.7194 94.9689,-63.5051 103.718,-69.4797 105.535,-62.7194"/>
</g>
<!-- Node47 -->
<g id="node3" class="node"><title>Node47</title>
<g id="a_node3"><a xlink:href="classMatrixElements.html#adebeaf2c43204d0ed2f5d36b3ef9846b" target="_top" xlink:title="MatrixElements::precalculate\lDiamagnetism">
<polygon fill="none" stroke="black" points="165.5,-39 165.5,-69 320.5,-69 320.5,-39 165.5,-39"/>
<text text-anchor="start" x="173.5" y="-57" font-family="Helvetica,sans-Serif" font-size="10.00">MatrixElements::precalculate</text>
<text text-anchor="middle" x="243" y="-46" font-family="Helvetica,sans-Serif" font-size="10.00">Diamagnetism</text>
</a>
</g>
</g>
<!-- Node45&#45;&gt;Node47 -->
<g id="edge2" class="edge"><title>Node45&#45;&gt;Node47</title>
<path fill="none" stroke="midnightblue" d="M129.35,-54C141.104,-54 153.379,-54 165.321,-54"/>
<polygon fill="midnightblue" stroke="midnightblue" points="129.177,-50.5001 119.177,-54 129.177,-57.5001 129.177,-50.5001"/>
</g>
<!-- Node48 -->
<g id="node4" class="node"><title>Node48</title>
<g id="a_node4"><a xlink:href="classQuantumDefect.html#ae35ddcbfdf6d217950469549c60743d2" target="_top" xlink:title="QuantumDefect::QuantumDefect">
<polygon fill="none" stroke="black" points="155,-0.5 155,-19.5 331,-19.5 331,-0.5 155,-0.5"/>
<text text-anchor="middle" x="243" y="-7.5" font-family="Helvetica,sans-Serif" font-size="10.00">QuantumDefect::QuantumDefect</text>
</a>
</g>
</g>
<!-- Node45&#45;&gt;Node48 -->
<g id="edge3" class="edge"><title>Node45&#45;&gt;Node48</title>
<path fill="none" stroke="midnightblue" d="M106.996,-41.9675C122.271,-38.0747 139.344,-33.787 155,-30 169.461,-26.5019 185.311,-22.8149 199.474,-19.5726"/>
<polygon fill="midnightblue" stroke="midnightblue" points="106.073,-38.591 97.2517,-44.4595 107.807,-45.3728 106.073,-38.591"/>
</g>
</g>
</svg>
