<?xml version="1.0" encoding="UTF-8" standalone="no"?>
<!DOCTYPE svg PUBLIC "-//W3C//DTD SVG 1.1//EN"
 "http://www.w3.org/Graphics/SVG/1.1/DTD/svg11.dtd">
<!-- Generated by graphviz version 2.38.0 (20140413.2041)
 -->
<!-- Title: Camera::activateGL Pages: 1 -->
<!--zoomable 408 -->
<svg id="main" version="1.1" xmlns="http://www.w3.org/2000/svg" xmlns:xlink="http://www.w3.org/1999/xlink" xml:space="preserve" onload="init(evt)">
<style type="text/css"><![CDATA[
.edge:hover path { stroke: red; }
.edge:hover polygon { stroke: red; fill: red; }
]]></style>
<script type="text/javascript"><![CDATA[
var edges = document.getElementsByTagName('g');
if (edges && edges.length) {
  for (var i=0;i<edges.length;i++) {
    if (edges[i].id.substr(0,4)=='edge') {
      edges[i].setAttribute('class','edge');
    }
  }
}
]]></script>
        <defs>
                <circle id="rim" cx="0" cy="0" r="7"/>
                <circle id="rim2" cx="0" cy="0" r="3.5"/>
                <g id="zoomPlus">
                        <use xlink:href="#rim" fill="#404040">
                                <set attributeName="fill" to="#808080" begin="zoomplus.mouseover" end="zoomplus.mouseout"/>
                        </use>
                        <path d="M-4,0h8M0,-4v8" fill="none" stroke="white" stroke-width="1.5" pointer-events="none"/>
                </g>
                <g id="zoomMin">
                        <use xlink:href="#rim" fill="#404040">
                                <set attributeName="fill" to="#808080" begin="zoomminus.mouseover" end="zoomminus.mouseout"/>
                        </use>
                        <path d="M-4,0h8" fill="none" stroke="white" stroke-width="1.5" pointer-events="none"/>
                </g>
                <g id="dirArrow">
                        <path fill="none" stroke="white" stroke-width="1.5" d="M0,-3.0v7 M-2.5,-0.5L0,-3.0L2.5,-0.5"/>
                </g>
               <g id="resetDef">
                       <use xlink:href="#rim2" fill="#404040">
                               <set attributeName="fill" to="#808080" begin="reset.mouseover" end="reset.mouseout"/>
                       </use>
               </g>
        </defs>

<script type="text/javascript">
var viewWidth = 624;
var viewHeight = 408;
var sectionId = 'dynsection-2';
</script>
<script xlink:href="svgpan.js"/>
<svg id="graph" class="graph">
<g id="viewport">
<title>Camera::activateGL</title>
<!-- Node14 -->
<g id="node1" class="node"><title>Node14</title>
<polygon fill="#bfbfbf" stroke="black" points="0,-190.5 0,-209.5 112,-209.5 112,-190.5 0,-190.5"/>
<text text-anchor="middle" x="56" y="-197.5" font-family="Helvetica,sans-Serif" font-size="10.00">Camera::activateGL</text>
</g>
<!-- Node15 -->
<g id="node2" class="node"><title>Node15</title>
<g id="a_node2"><a xlink:href="classGpuHelper.html#a31ac77373dc54409648558d79d5a8c3e" target="_top" xlink:title="GpuHelper::loadMatrix">
<polygon fill="none" stroke="black" points="155,-380.5 155,-399.5 278,-399.5 278,-380.5 155,-380.5"/>
<text text-anchor="middle" x="216.5" y="-387.5" font-family="Helvetica,sans-Serif" font-size="10.00">GpuHelper::loadMatrix</text>
</a>
</g>
</g>
<!-- Node14&#45;&gt;Node15 -->
<g id="edge1" class="edge"><title>Node14&#45;&gt;Node15</title>
<path fill="none" stroke="midnightblue" d="M59.3243,-209.868C66.7525,-239.185 92.7386,-326.489 148,-371 150.267,-372.826 152.698,-374.476 155.245,-375.968"/>
<polygon fill="midnightblue" stroke="midnightblue" points="153.759,-379.138 164.271,-380.454 156.874,-372.869 153.759,-379.138"/>
</g>
<!-- Node16 -->
<g id="node3" class="node"><title>Node16</title>
<g id="a_node3"><a xlink:href="common_8h.html#a94360d20ee722c1bcb23e5b2fbba8554" target="_top" xlink:title="matrix">
<polygon fill="none" stroke="black" points="193,-342.5 193,-361.5 240,-361.5 240,-342.5 193,-342.5"/>
<text text-anchor="middle" x="216.5" y="-349.5" font-family="Helvetica,sans-Serif" font-size="10.00">matrix</text>
</a>
</g>
</g>
<!-- Node14&#45;&gt;Node16 -->
<g id="edge2" class="edge"><title>Node14&#45;&gt;Node16</title>
<path fill="none" stroke="midnightblue" d="M60.8482,-209.75C71.0814,-234.388 101.406,-299.555 148,-333 158.174,-340.303 171.07,-344.804 182.858,-347.577"/>
<polygon fill="midnightblue" stroke="midnightblue" points="182.341,-351.043 192.836,-349.595 183.729,-344.182 182.341,-351.043"/>
</g>
<!-- Node17 -->
<g id="node4" class="node"><title>Node17</title>
<g id="a_node4"><a xlink:href="classCamera.html#a5dfd06d331ed3b5869043de343573643" target="_top" xlink:title="Camera::projectionMatrix">
<polygon fill="none" stroke="black" points="148,-304.5 148,-323.5 285,-323.5 285,-304.5 148,-304.5"/>
<text text-anchor="middle" x="216.5" y="-311.5" font-family="Helvetica,sans-Serif" font-size="10.00">Camera::projectionMatrix</text>
</a>
</g>
</g>
<!-- Node14&#45;&gt;Node17 -->
<g id="edge3" class="edge"><title>Node14&#45;&gt;Node17</title>
<path fill="none" stroke="midnightblue" d="M64.2225,-209.525C78.4029,-227.621 111.682,-267.193 148,-290 154.739,-294.232 162.327,-297.848 169.917,-300.891"/>
<polygon fill="midnightblue" stroke="midnightblue" points="168.876,-304.239 179.469,-304.443 171.316,-297.677 168.876,-304.239"/>
</g>
<!-- Node18 -->
<g id="node5" class="node"><title>Node18</title>
<g id="a_node5"><a xlink:href="classCamera.html#a0d31ec301bed986e1a8db01c8a8ef9d7" target="_top" xlink:title="Camera::updateProjection\lMatrix">
<polygon fill="none" stroke="black" points="323,-280 323,-310 465,-310 465,-280 323,-280"/>
<text text-anchor="start" x="331" y="-298" font-family="Helvetica,sans-Serif" font-size="10.00">Camera::updateProjection</text>
<text text-anchor="middle" x="394" y="-287" font-family="Helvetica,sans-Serif" font-size="10.00">Matrix</text>
</a>
</g>
</g>
<!-- Node14&#45;&gt;Node18 -->
<g id="edge7" class="edge"><title>Node14&#45;&gt;Node18</title>
<path fill="none" stroke="midnightblue" d="M68.8161,-209.642C85.4153,-222.64 117.081,-245.477 148,-257 200.905,-276.717 263.916,-286.205 312.788,-290.77"/>
<polygon fill="midnightblue" stroke="midnightblue" points="312.724,-294.278 322.993,-291.671 313.34,-287.305 312.724,-294.278"/>
</g>
<!-- Node20 -->
<g id="node7" class="node"><title>Node20</title>
<g id="a_node7"><a xlink:href="classCamera.html#acb7561ec2c581385a86fa5adacc096ab" target="_top" xlink:title="Camera::unProject">
<polygon fill="none" stroke="black" points="163.5,-228.5 163.5,-247.5 269.5,-247.5 269.5,-228.5 163.5,-228.5"/>
<text text-anchor="middle" x="216.5" y="-235.5" font-family="Helvetica,sans-Serif" font-size="10.00">Camera::unProject</text>
</a>
</g>
</g>
<!-- Node14&#45;&gt;Node20 -->
<g id="edge6" class="edge"><title>Node14&#45;&gt;Node20</title>
<path fill="none" stroke="midnightblue" d="M96.9962,-209.589C117.912,-214.604 143.708,-220.788 165.886,-226.105"/>
<polygon fill="midnightblue" stroke="midnightblue" points="165.251,-229.552 175.791,-228.48 166.883,-222.745 165.251,-229.552"/>
</g>
<!-- Node21 -->
<g id="node8" class="node"><title>Node21</title>
<g id="a_node8"><a xlink:href="classCamera.html#a3aa2a49c68b8d2e70e22dfb870f0921c" target="_top" xlink:title="Camera::updateViewMatrix">
<polygon fill="none" stroke="black" points="321,-171.5 321,-190.5 467,-190.5 467,-171.5 321,-171.5"/>
<text text-anchor="middle" x="394" y="-178.5" font-family="Helvetica,sans-Serif" font-size="10.00">Camera::updateViewMatrix</text>
</a>
</g>
</g>
<!-- Node14&#45;&gt;Node21 -->
<g id="edge8" class="edge"><title>Node14&#45;&gt;Node21</title>
<path fill="none" stroke="midnightblue" d="M112.107,-196.884C166.073,-193.832 248.964,-189.145 310.733,-185.652"/>
<polygon fill="midnightblue" stroke="midnightblue" points="311.057,-189.139 320.844,-185.08 310.662,-182.151 311.057,-189.139"/>
</g>
<!-- Node24 -->
<g id="node11" class="node"><title>Node24</title>
<g id="a_node11"><a xlink:href="classCamera.html#a733bc9a1e7bd797d36e09ac652f1fea5" target="_top" xlink:title="Camera::viewMatrix">
<polygon fill="none" stroke="black" points="161.5,-152.5 161.5,-171.5 271.5,-171.5 271.5,-152.5 161.5,-152.5"/>
<text text-anchor="middle" x="216.5" y="-159.5" font-family="Helvetica,sans-Serif" font-size="10.00">Camera::viewMatrix</text>
</a>
</g>
</g>
<!-- Node14&#45;&gt;Node24 -->
<g id="edge11" class="edge"><title>Node14&#45;&gt;Node24</title>
<path fill="none" stroke="midnightblue" d="M96.9962,-190.411C117.912,-185.396 143.708,-179.212 165.886,-173.895"/>
<polygon fill="midnightblue" stroke="midnightblue" points="166.883,-177.255 175.791,-171.52 165.251,-170.448 166.883,-177.255"/>
</g>
<!-- Node25 -->
<g id="node12" class="node"><title>Node25</title>
<g id="a_node12"><a xlink:href="classCamera.html#a03cd0c3febe3a446b1c7bdbc060d3031" target="_top" xlink:title="Camera::vpHeight">
<polygon fill="none" stroke="black" points="164.5,-114.5 164.5,-133.5 268.5,-133.5 268.5,-114.5 164.5,-114.5"/>
<text text-anchor="middle" x="216.5" y="-121.5" font-family="Helvetica,sans-Serif" font-size="10.00">Camera::vpHeight</text>
</a>
</g>
</g>
<!-- Node14&#45;&gt;Node25 -->
<g id="edge13" class="edge"><title>Node14&#45;&gt;Node25</title>
<path fill="none" stroke="midnightblue" d="M69.6072,-190.46C86.6001,-177.997 118.172,-156.213 148,-143 153.348,-140.631 159.066,-138.482 164.828,-136.554"/>
<polygon fill="midnightblue" stroke="midnightblue" points="166.012,-139.85 174.506,-133.517 163.917,-133.171 166.012,-139.85"/>
</g>
<!-- Node26 -->
<g id="node13" class="node"><title>Node26</title>
<g id="a_node13"><a xlink:href="classCamera.html#a284a34e208b7ddbd41fb306647f6818f" target="_top" xlink:title="Camera::vpWidth">
<polygon fill="none" stroke="black" points="167.5,-76.5 167.5,-95.5 265.5,-95.5 265.5,-76.5 167.5,-76.5"/>
<text text-anchor="middle" x="216.5" y="-83.5" font-family="Helvetica,sans-Serif" font-size="10.00">Camera::vpWidth</text>
</a>
</g>
</g>
<!-- Node14&#45;&gt;Node26 -->
<g id="edge14" class="edge"><title>Node14&#45;&gt;Node26</title>
<path fill="none" stroke="midnightblue" d="M63.534,-190.293C77.0033,-171.044 109.816,-127.922 148,-105 151.64,-102.815 155.541,-100.872 159.565,-99.1471"/>
<polygon fill="midnightblue" stroke="midnightblue" points="161.015,-102.34 169.109,-95.5035 158.518,-95.8001 161.015,-102.34"/>
</g>
<!-- Node27 -->
<g id="node14" class="node"><title>Node27</title>
<g id="a_node14"><a xlink:href="classCamera.html#a0462fcbd95a3e7cfef772cec82b58abe" target="_top" xlink:title="Camera::vpX">
<polygon fill="none" stroke="black" points="177.5,-38.5 177.5,-57.5 255.5,-57.5 255.5,-38.5 177.5,-38.5"/>
<text text-anchor="middle" x="216.5" y="-45.5" font-family="Helvetica,sans-Serif" font-size="10.00">Camera::vpX</text>
</a>
</g>
</g>
<!-- Node14&#45;&gt;Node27 -->
<g id="edge15" class="edge"><title>Node14&#45;&gt;Node27</title>
<path fill="none" stroke="midnightblue" d="M60.8482,-190.25C71.0814,-165.612 101.406,-100.445 148,-67 153.916,-62.7539 160.752,-59.4548 167.755,-56.8919"/>
<polygon fill="midnightblue" stroke="midnightblue" points="168.876,-60.2082 177.338,-53.8336 166.748,-53.5395 168.876,-60.2082"/>
</g>
<!-- Node28 -->
<g id="node15" class="node"><title>Node28</title>
<g id="a_node15"><a xlink:href="classCamera.html#ad5c56d0e29df685bbe62bc9b77a52b1c" target="_top" xlink:title="Camera::vpY">
<polygon fill="none" stroke="black" points="178,-0.5 178,-19.5 255,-19.5 255,-0.5 178,-0.5"/>
<text text-anchor="middle" x="216.5" y="-7.5" font-family="Helvetica,sans-Serif" font-size="10.00">Camera::vpY</text>
</a>
</g>
</g>
<!-- Node14&#45;&gt;Node28 -->
<g id="edge16" class="edge"><title>Node14&#45;&gt;Node28</title>
<path fill="none" stroke="midnightblue" d="M59.3243,-190.132C66.7525,-160.815 92.7386,-73.5113 148,-29 153.866,-24.2748 160.84,-20.7238 168.044,-18.0554"/>
<polygon fill="midnightblue" stroke="midnightblue" points="169.443,-21.284 177.926,-14.9365 167.336,-14.6086 169.443,-21.284"/>
</g>
<!-- Node17&#45;&gt;Node18 -->
<g id="edge4" class="edge"><title>Node17&#45;&gt;Node18</title>
<path fill="none" stroke="midnightblue" d="M285.102,-306.681C294.179,-305.699 303.559,-304.683 312.826,-303.68"/>
<polygon fill="midnightblue" stroke="midnightblue" points="313.253,-307.154 322.818,-302.598 312.499,-300.195 313.253,-307.154"/>
</g>
<!-- Node19 -->
<g id="node6" class="node"><title>Node19</title>
<g id="a_node6"><a xlink:href="ArrayCwiseUnaryOps_8h.html#a0c32a3874bfc5438d11b75c9f40256d1" target="_top" xlink:title="tan">
<polygon fill="none" stroke="black" points="543.5,-285.5 543.5,-304.5 575.5,-304.5 575.5,-285.5 543.5,-285.5"/>
<text text-anchor="middle" x="559.5" y="-292.5" font-family="Helvetica,sans-Serif" font-size="10.00">tan</text>
</a>
</g>
</g>
<!-- Node18&#45;&gt;Node19 -->
<g id="edge5" class="edge"><title>Node18&#45;&gt;Node19</title>
<path fill="none" stroke="midnightblue" d="M465.288,-295C489.484,-295 515.047,-295 533.271,-295"/>
<polygon fill="midnightblue" stroke="midnightblue" points="533.338,-298.5 543.338,-295 533.338,-291.5 533.338,-298.5"/>
</g>
<!-- Node22 -->
<g id="node9" class="node"><title>Node22</title>
<g id="a_node9"><a xlink:href="classCamera.html#a87dcab091782b992386fc0fa30d77f46" target="_top" xlink:title="Camera::orientation">
<polygon fill="none" stroke="black" points="503,-190.5 503,-209.5 616,-209.5 616,-190.5 503,-190.5"/>
<text text-anchor="middle" x="559.5" y="-197.5" font-family="Helvetica,sans-Serif" font-size="10.00">Camera::orientation</text>
</a>
</g>
</g>
<!-- Node21&#45;&gt;Node22 -->
<g id="edge9" class="edge"><title>Node21&#45;&gt;Node22</title>
<path fill="none" stroke="midnightblue" d="M467.189,-189.389C475.704,-190.378 484.359,-191.384 492.777,-192.363"/>
<polygon fill="midnightblue" stroke="midnightblue" points="492.567,-195.862 502.904,-193.539 493.375,-188.908 492.567,-195.862"/>
</g>
<!-- Node23 -->
<g id="node10" class="node"><title>Node23</title>
<g id="a_node10"><a xlink:href="classCamera.html#ac5e39b63430bbcdc52d42e7c69374efe" target="_top" xlink:title="Camera::position">
<polygon fill="none" stroke="black" points="510.5,-152.5 510.5,-171.5 608.5,-171.5 608.5,-152.5 510.5,-152.5"/>
<text text-anchor="middle" x="559.5" y="-159.5" font-family="Helvetica,sans-Serif" font-size="10.00">Camera::position</text>
</a>
</g>
</g>
<!-- Node21&#45;&gt;Node23 -->
<g id="edge10" class="edge"><title>Node21&#45;&gt;Node23</title>
<path fill="none" stroke="midnightblue" d="M467.189,-172.611C478.21,-171.33 489.466,-170.022 500.14,-168.782"/>
<polygon fill="midnightblue" stroke="midnightblue" points="500.641,-172.247 510.17,-167.616 499.833,-165.294 500.641,-172.247"/>
</g>
<!-- Node24&#45;&gt;Node21 -->
<g id="edge12" class="edge"><title>Node24&#45;&gt;Node21</title>
<path fill="none" stroke="midnightblue" d="M271.588,-167.856C283.947,-169.194 297.357,-170.646 310.604,-172.08"/>
<polygon fill="midnightblue" stroke="midnightblue" points="310.363,-175.574 320.681,-173.171 311.116,-168.615 310.363,-175.574"/>
</g>
</g>
</svg>
        <g id="navigator" transform="translate(0 0)" fill="#404254">
                <rect fill="#f2f5e9" fill-opacity="0.5" stroke="#606060" stroke-width=".5" x="0" y="0" width="60" height="60"/>
                <use id="zoomplus" xlink:href="#zoomPlus" x="17" y="9" onmousedown="handleZoom(evt,'in')"/>
                <use id="zoomminus" xlink:href="#zoomMin" x="42" y="9" onmousedown="handleZoom(evt,'out')"/>
                <use id="reset" xlink:href="#resetDef" x="30" y="36" onmousedown="handleReset()"/>
                <g id="arrowUp" xlink:href="#dirArrow" transform="translate(30 24)" onmousedown="handlePan(0,-1)">
                  <use xlink:href="#rim" fill="#404040">
                        <set attributeName="fill" to="#808080" begin="arrowUp.mouseover" end="arrowUp.mouseout"/>
                  </use>
                  <path fill="none" stroke="white" stroke-width="1.5" d="M0,-3.0v7 M-2.5,-0.5L0,-3.0L2.5,-0.5"/>
                </g>
                <g id="arrowRight" xlink:href="#dirArrow" transform="rotate(90) translate(36 -43)" onmousedown="handlePan(1,0)">
                  <use xlink:href="#rim" fill="#404040">
                        <set attributeName="fill" to="#808080" begin="arrowRight.mouseover" end="arrowRight.mouseout"/>
                  </use>
                  <path fill="none" stroke="white" stroke-width="1.5" d="M0,-3.0v7 M-2.5,-0.5L0,-3.0L2.5,-0.5"/>
                </g>
                <g id="arrowDown" xlink:href="#dirArrow" transform="rotate(180) translate(-30 -48)" onmousedown="handlePan(0,1)">
                  <use xlink:href="#rim" fill="#404040">
                        <set attributeName="fill" to="#808080" begin="arrowDown.mouseover" end="arrowDown.mouseout"/>
                  </use>
                  <path fill="none" stroke="white" stroke-width="1.5" d="M0,-3.0v7 M-2.5,-0.5L0,-3.0L2.5,-0.5"/>
                </g>
                <g id="arrowLeft" xlink:href="#dirArrow" transform="rotate(270) translate(-36 17)" onmousedown="handlePan(-1,0)">
                  <use xlink:href="#rim" fill="#404040">
                        <set attributeName="fill" to="#808080" begin="arrowLeft.mouseover" end="arrowLeft.mouseout"/>
                  </use>
                  <path fill="none" stroke="white" stroke-width="1.5" d="M0,-3.0v7 M-2.5,-0.5L0,-3.0L2.5,-0.5"/>
                </g>
        </g>
        <svg viewBox="0 0 15 15" width="100%" height="30px" preserveAspectRatio="xMaxYMin meet">
         <g id="arrow_out" transform="scale(0.3 0.3)">
          <a xlink:href="classCamera_a4872379b01876af2ffd8d2d871472ed1_cgraph_org.svg" target="_base">
           <rect id="button" ry="5" rx="5" y="6" x="6" height="38" width="38"
                fill="#f2f5e9" fill-opacity="0.5" stroke="#606060" stroke-width="1.0"/>
           <path id="arrow"
             d="M 11.500037,31.436501 C 11.940474,20.09759 22.043105,11.32322 32.158766,21.979434 L 37.068811,17.246167 C 37.068811,17.246167 37.088388,32 37.088388,32 L 22.160133,31.978069 C 22.160133,31.978069 26.997745,27.140456 26.997745,27.140456 C 18.528582,18.264221 13.291696,25.230495 11.500037,31.436501 z"
             style="fill:#404040;"/>
          </a>
         </g>
        </svg>
</svg>
