<?xml version="1.0" encoding="UTF-8" standalone="no"?>
<!DOCTYPE svg PUBLIC "-//W3C//DTD SVG 1.1//EN"
 "http://www.w3.org/Graphics/SVG/1.1/DTD/svg11.dtd">
<!-- Generated by graphviz version 2.38.0 (20140413.2041)
 -->
<!-- Title: RenderingWidget::drawScene Pages: 1 -->
<svg width="488pt" height="218pt"
 viewBox="0.00 0.00 488.00 218.00" xmlns="http://www.w3.org/2000/svg" xmlns:xlink="http://www.w3.org/1999/xlink">
<g id="graph0" class="graph" transform="scale(1 1) rotate(0) translate(4 214)">
<title>RenderingWidget::drawScene</title>
<!-- Node11 -->
<g id="node1" class="node"><title>Node11</title>
<polygon fill="#bfbfbf" stroke="black" points="0,-76.5 0,-95.5 155,-95.5 155,-76.5 0,-76.5"/>
<text text-anchor="middle" x="77.5" y="-83.5" font-family="Helvetica,sans-Serif" font-size="10.00">RenderingWidget::drawScene</text>
</g>
<!-- Node12 -->
<g id="node2" class="node"><title>Node12</title>
<g id="a_node2"><a xlink:href="classFancySpheres.html#a1621bf349aa1a2df706b8c08356aeb35" target="_top" xlink:title="FancySpheres::draw">
<polygon fill="none" stroke="black" points="198.5,-114.5 198.5,-133.5 310.5,-133.5 310.5,-114.5 198.5,-114.5"/>
<text text-anchor="middle" x="254.5" y="-121.5" font-family="Helvetica,sans-Serif" font-size="10.00">FancySpheres::draw</text>
</a>
</g>
</g>
<!-- Node11&#45;&gt;Node12 -->
<g id="edge1" class="edge"><title>Node11&#45;&gt;Node12</title>
<path fill="none" stroke="midnightblue" d="M122.66,-95.589C146.065,-100.671 175.005,-106.955 199.712,-112.32"/>
<polygon fill="midnightblue" stroke="midnightblue" points="199.143,-115.778 209.658,-114.48 200.628,-108.938 199.143,-115.778"/>
</g>
<!-- Node17 -->
<g id="node7" class="node"><title>Node17</title>
<g id="a_node7"><a xlink:href="classGpuHelper.html#a0d2c77ee60d1954d609af0ca1075fb06" target="_top" xlink:title="GpuHelper::drawVector">
<polygon fill="none" stroke="black" points="191,-76.5 191,-95.5 318,-95.5 318,-76.5 191,-76.5"/>
<text text-anchor="middle" x="254.5" y="-83.5" font-family="Helvetica,sans-Serif" font-size="10.00">GpuHelper::drawVector</text>
</a>
</g>
</g>
<!-- Node11&#45;&gt;Node17 -->
<g id="edge6" class="edge"><title>Node11&#45;&gt;Node17</title>
<path fill="none" stroke="midnightblue" d="M155.003,-86C163.503,-86 172.144,-86 180.598,-86"/>
<polygon fill="midnightblue" stroke="midnightblue" points="180.795,-89.5001 190.795,-86 180.795,-82.5001 180.795,-89.5001"/>
</g>
<!-- Node20 -->
<g id="node10" class="node"><title>Node20</title>
<g id="a_node10"><a xlink:href="ArrayCwiseUnaryOps_8h.html#a656b9217a2fcb6de59dc8d1eb3079cc7" target="_top" xlink:title="sqrt">
<polygon fill="none" stroke="black" points="237,-38.5 237,-57.5 272,-57.5 272,-38.5 237,-38.5"/>
<text text-anchor="middle" x="254.5" y="-45.5" font-family="Helvetica,sans-Serif" font-size="10.00">sqrt</text>
</a>
</g>
</g>
<!-- Node11&#45;&gt;Node20 -->
<g id="edge11" class="edge"><title>Node11&#45;&gt;Node20</title>
<path fill="none" stroke="midnightblue" d="M122.66,-76.411C155.376,-69.3069 198.907,-59.8544 226.574,-53.8468"/>
<polygon fill="midnightblue" stroke="midnightblue" points="227.661,-57.1924 236.69,-51.6501 226.176,-50.3518 227.661,-57.1924"/>
</g>
<!-- Node13 -->
<g id="node3" class="node"><title>Node13</title>
<g id="a_node3"><a xlink:href="classGpuHelper.html#a3abb45392e7dcf6450fa94bd345d9096" target="_top" xlink:title="GpuHelper::multMatrix">
<polygon fill="none" stroke="black" points="354.5,-190.5 354.5,-209.5 479.5,-209.5 479.5,-190.5 354.5,-190.5"/>
<text text-anchor="middle" x="417" y="-197.5" font-family="Helvetica,sans-Serif" font-size="10.00">GpuHelper::multMatrix</text>
</a>
</g>
</g>
<!-- Node12&#45;&gt;Node13 -->
<g id="edge2" class="edge"><title>Node12&#45;&gt;Node13</title>
<path fill="none" stroke="midnightblue" d="M269.644,-133.571C288.306,-145.869 322.485,-167.266 354,-181 359.096,-183.221 364.532,-185.292 369.988,-187.188"/>
<polygon fill="midnightblue" stroke="midnightblue" points="369.168,-190.603 379.762,-190.407 371.359,-183.954 369.168,-190.603"/>
</g>
<!-- Node14 -->
<g id="node4" class="node"><title>Node14</title>
<g id="a_node4"><a xlink:href="classGpuHelper.html#aad0cc23c2eaf0dcc610b180e5c8b195e" target="_top" xlink:title="GpuHelper::popMatrix">
<polygon fill="none" stroke="black" points="356.5,-114.5 356.5,-133.5 477.5,-133.5 477.5,-114.5 356.5,-114.5"/>
<text text-anchor="middle" x="417" y="-121.5" font-family="Helvetica,sans-Serif" font-size="10.00">GpuHelper::popMatrix</text>
</a>
</g>
</g>
<!-- Node12&#45;&gt;Node14 -->
<g id="edge3" class="edge"><title>Node12&#45;&gt;Node14</title>
<path fill="none" stroke="midnightblue" d="M310.735,-124C322.097,-124 334.202,-124 346.005,-124"/>
<polygon fill="midnightblue" stroke="midnightblue" points="346.275,-127.5 356.275,-124 346.275,-120.5 346.275,-127.5"/>
</g>
<!-- Node15 -->
<g id="node5" class="node"><title>Node15</title>
<g id="a_node5"><a xlink:href="classGpuHelper.html#ac51c8b669a80ca6e4338c87136fb991e" target="_top" xlink:title="GpuHelper::pushMatrix">
<polygon fill="none" stroke="black" points="354,-76.5 354,-95.5 480,-95.5 480,-76.5 354,-76.5"/>
<text text-anchor="middle" x="417" y="-83.5" font-family="Helvetica,sans-Serif" font-size="10.00">GpuHelper::pushMatrix</text>
</a>
</g>
</g>
<!-- Node12&#45;&gt;Node15 -->
<g id="edge4" class="edge"><title>Node12&#45;&gt;Node15</title>
<path fill="none" stroke="midnightblue" d="M296.001,-114.411C317.181,-109.396 343.302,-103.212 365.76,-97.8947"/>
<polygon fill="midnightblue" stroke="midnightblue" points="366.866,-101.23 375.79,-95.5201 365.253,-94.4182 366.866,-101.23"/>
</g>
<!-- Node16 -->
<g id="node6" class="node"><title>Node16</title>
<g id="a_node6"><a xlink:href="group__Geometry__Module.html#ga02918175ff75e5df9fd291cf5fc3fd1b" target="_top" xlink:title="Eigen::Scaling">
<polygon fill="none" stroke="black" points="375.5,-152.5 375.5,-171.5 458.5,-171.5 458.5,-152.5 375.5,-152.5"/>
<text text-anchor="middle" x="417" y="-159.5" font-family="Helvetica,sans-Serif" font-size="10.00">Eigen::Scaling</text>
</a>
</g>
</g>
<!-- Node12&#45;&gt;Node16 -->
<g id="edge5" class="edge"><title>Node12&#45;&gt;Node16</title>
<path fill="none" stroke="midnightblue" d="M296.001,-133.589C317.181,-138.604 343.302,-144.788 365.76,-150.105"/>
<polygon fill="midnightblue" stroke="midnightblue" points="365.253,-153.582 375.79,-152.48 366.866,-146.77 365.253,-153.582"/>
</g>
<!-- Node17&#45;&gt;Node14 -->
<g id="edge9" class="edge"><title>Node17&#45;&gt;Node14</title>
<path fill="none" stroke="midnightblue" d="M296.001,-95.589C317.181,-100.604 343.302,-106.788 365.76,-112.105"/>
<polygon fill="midnightblue" stroke="midnightblue" points="365.253,-115.582 375.79,-114.48 366.866,-108.77 365.253,-115.582"/>
</g>
<!-- Node17&#45;&gt;Node15 -->
<g id="edge10" class="edge"><title>Node17&#45;&gt;Node15</title>
<path fill="none" stroke="midnightblue" d="M318.013,-86C326.49,-86 335.246,-86 343.874,-86"/>
<polygon fill="midnightblue" stroke="midnightblue" points="343.921,-89.5001 353.921,-86 343.921,-82.5001 343.921,-89.5001"/>
</g>
<!-- Node18 -->
<g id="node8" class="node"><title>Node18</title>
<g id="a_node8"><a xlink:href="ArrayCwiseUnaryOps_8h.html#a4ae93c48c742ccd51e0ec59fa85b49bd" target="_top" xlink:title="acos">
<polygon fill="none" stroke="black" points="397.5,-38.5 397.5,-57.5 436.5,-57.5 436.5,-38.5 397.5,-38.5"/>
<text text-anchor="middle" x="417" y="-45.5" font-family="Helvetica,sans-Serif" font-size="10.00">acos</text>
</a>
</g>
</g>
<!-- Node17&#45;&gt;Node18 -->
<g id="edge7" class="edge"><title>Node17&#45;&gt;Node18</title>
<path fill="none" stroke="midnightblue" d="M296.001,-76.411C324.568,-69.6475 362.125,-60.7555 387.557,-54.7341"/>
<polygon fill="midnightblue" stroke="midnightblue" points="388.399,-58.1316 397.324,-52.4218 386.786,-51.3199 388.399,-58.1316"/>
</g>
<!-- Node19 -->
<g id="node9" class="node"><title>Node19</title>
<g id="a_node9"><a xlink:href="Cwise__array__power__array_8cpp.html#aa9e3025f5efca2c2a39d785652f2d710" target="_top" xlink:title="e">
<polygon fill="none" stroke="black" points="402.5,-0.5 402.5,-19.5 431.5,-19.5 431.5,-0.5 402.5,-0.5"/>
<text text-anchor="middle" x="417" y="-7.5" font-family="Helvetica,sans-Serif" font-size="10.00">e</text>
</a>
</g>
</g>
<!-- Node17&#45;&gt;Node19 -->
<g id="edge8" class="edge"><title>Node17&#45;&gt;Node19</title>
<path fill="none" stroke="midnightblue" d="M297.817,-76.4101C304.834,-73.9131 311.827,-70.8171 318,-67 337.788,-54.7653 334.226,-41.2569 354,-29 365.693,-21.7518 380.351,-17.094 392.478,-14.2052"/>
<polygon fill="midnightblue" stroke="midnightblue" points="393.295,-17.6097 402.346,-12.1013 391.836,-10.7636 393.295,-17.6097"/>
</g>
</g>
</svg>
