<?xml version="1.0" encoding="UTF-8" standalone="no"?>
<!DOCTYPE svg PUBLIC "-//W3C//DTD SVG 1.1//EN"
 "http://www.w3.org/Graphics/SVG/1.1/DTD/svg11.dtd">
<!-- Generated by graphviz version 2.38.0 (20140413.2041)
 -->
<!-- Title: StateTwo::first Pages: 1 -->
<svg width="646pt" height="180pt"
 viewBox="0.00 0.00 646.00 180.00" xmlns="http://www.w3.org/2000/svg" xmlns:xlink="http://www.w3.org/1999/xlink">
<g id="graph0" class="graph" transform="scale(1 1) rotate(0) translate(4 176)">
<title>StateTwo::first</title>
<!-- Node17 -->
<g id="node1" class="node"><title>Node17</title>
<polygon fill="#bfbfbf" stroke="black" points="0,-76.5 0,-95.5 83,-95.5 83,-76.5 0,-76.5"/>
<text text-anchor="middle" x="41.5" y="-83.5" font-family="Helvetica,sans-Serif" font-size="10.00">StateTwo::first</text>
</g>
<!-- Node18 -->
<g id="node2" class="node"><title>Node18</title>
<g id="a_node2"><a xlink:href="classHamiltonianTwo.html#a6ca0a318f25170b69e571a07064a5afb" target="_top" xlink:title="HamiltonianTwo::calculate">
<polygon fill="none" stroke="black" points="119,-152.5 119,-171.5 259,-171.5 259,-152.5 119,-152.5"/>
<text text-anchor="middle" x="189" y="-159.5" font-family="Helvetica,sans-Serif" font-size="10.00">HamiltonianTwo::calculate</text>
</a>
</g>
</g>
<!-- Node17&#45;&gt;Node18 -->
<g id="edge1" class="edge"><title>Node17&#45;&gt;Node18</title>
<path fill="none" stroke="midnightblue" d="M60.8668,-102.79C75.6105,-115.464 97.3552,-132.423 119,-143 126.703,-146.764 135.266,-149.879 143.666,-152.422"/>
<polygon fill="midnightblue" stroke="midnightblue" points="62.8662,-99.8871 53.0487,-95.9036 58.2392,-105.14 62.8662,-99.8871"/>
</g>
<!-- Node20 -->
<g id="node4" class="node"><title>Node20</title>
<g id="a_node4"><a xlink:href="classBasisnamesOne.html#ab3030f74ccafcc178f38e7a8ada13b9b" target="_top" xlink:title="BasisnamesOne::fromBoth">
<polygon fill="none" stroke="black" points="307.5,-38.5 307.5,-57.5 453.5,-57.5 453.5,-38.5 307.5,-38.5"/>
<text text-anchor="middle" x="380.5" y="-45.5" font-family="Helvetica,sans-Serif" font-size="10.00">BasisnamesOne::fromBoth</text>
</a>
</g>
</g>
<!-- Node17&#45;&gt;Node20 -->
<g id="edge3" class="edge"><title>Node17&#45;&gt;Node20</title>
<path fill="none" stroke="midnightblue" d="M93.4321,-82.5249C137.371,-79.2894 202.486,-73.927 259,-67 280.442,-64.3719 303.927,-60.8217 324.423,-57.5015"/>
<polygon fill="midnightblue" stroke="midnightblue" points="93.0083,-79.0464 83.2882,-83.2618 93.5155,-86.028 93.0083,-79.0464"/>
</g>
<!-- Node23 -->
<g id="node7" class="node"><title>Node23</title>
<g id="a_node7"><a xlink:href="classStateTwo.html#a3f9e530a17bed5048f16653dcd9c7991" target="_top" xlink:title="StateTwo::getEnergy">
<polygon fill="none" stroke="black" points="132,-114.5 132,-133.5 246,-133.5 246,-114.5 132,-114.5"/>
<text text-anchor="middle" x="189" y="-121.5" font-family="Helvetica,sans-Serif" font-size="10.00">StateTwo::getEnergy</text>
</a>
</g>
</g>
<!-- Node17&#45;&gt;Node23 -->
<g id="edge6" class="edge"><title>Node17&#45;&gt;Node23</title>
<path fill="none" stroke="midnightblue" d="M89.1532,-98.1843C109.353,-103.46 132.648,-109.544 151.548,-114.48"/>
<polygon fill="midnightblue" stroke="midnightblue" points="89.7757,-94.7296 79.2158,-95.589 88.0068,-101.502 89.7757,-94.7296"/>
</g>
<!-- Node25 -->
<g id="node9" class="node"><title>Node25</title>
<g id="a_node9"><a xlink:href="classStateTwo.html#a486e0f13ed9b4101622742059945e835" target="_top" xlink:title="StateTwo::operator\&lt;">
<polygon fill="none" stroke="black" points="131.5,-38.5 131.5,-57.5 246.5,-57.5 246.5,-38.5 131.5,-38.5"/>
<text text-anchor="middle" x="189" y="-45.5" font-family="Helvetica,sans-Serif" font-size="10.00">StateTwo::operator&lt;</text>
</a>
</g>
</g>
<!-- Node17&#45;&gt;Node25 -->
<g id="edge8" class="edge"><title>Node17&#45;&gt;Node25</title>
<path fill="none" stroke="midnightblue" d="M89.1532,-73.8157C109.353,-68.54 132.648,-62.4562 151.548,-57.5201"/>
<polygon fill="midnightblue" stroke="midnightblue" points="88.0068,-70.4976 79.2158,-76.411 89.7757,-77.2704 88.0068,-70.4976"/>
</g>
<!-- Node26 -->
<g id="node10" class="node"><title>Node26</title>
<g id="a_node10"><a xlink:href="classStateTwo.html#a7431fc271acaf34c4ddbb9b53966895d" target="_top" xlink:title="StateTwo::order">
<polygon fill="none" stroke="black" points="143.5,-0.5 143.5,-19.5 234.5,-19.5 234.5,-0.5 143.5,-0.5"/>
<text text-anchor="middle" x="189" y="-7.5" font-family="Helvetica,sans-Serif" font-size="10.00">StateTwo::order</text>
</a>
</g>
</g>
<!-- Node17&#45;&gt;Node26 -->
<g id="edge9" class="edge"><title>Node17&#45;&gt;Node26</title>
<path fill="none" stroke="midnightblue" d="M60.8668,-69.2098C75.6105,-56.5356 97.3552,-39.5768 119,-29 126.703,-25.236 135.266,-22.1207 143.666,-19.5779"/>
<polygon fill="midnightblue" stroke="midnightblue" points="58.2392,-66.8601 53.0487,-76.0964 62.8662,-72.1129 58.2392,-66.8601"/>
</g>
<!-- Node19 -->
<g id="node3" class="node"><title>Node19</title>
<g id="a_node3"><a xlink:href="classHamiltonianTwo.html#a8d51d632bd7862cf1e566f6faf9ccc8c" target="_top" xlink:title="HamiltonianTwo::HamiltonianTwo">
<polygon fill="none" stroke="black" points="295,-152.5 295,-171.5 466,-171.5 466,-152.5 295,-152.5"/>
<text text-anchor="middle" x="380.5" y="-159.5" font-family="Helvetica,sans-Serif" font-size="10.00">HamiltonianTwo::HamiltonianTwo</text>
</a>
</g>
</g>
<!-- Node18&#45;&gt;Node19 -->
<g id="edge2" class="edge"><title>Node18&#45;&gt;Node19</title>
<path fill="none" stroke="midnightblue" d="M269.424,-162C277.874,-162 286.492,-162 294.997,-162"/>
<polygon fill="midnightblue" stroke="midnightblue" points="269.218,-158.5 259.218,-162 269.218,-165.5 269.218,-158.5"/>
</g>
<!-- Node21 -->
<g id="node5" class="node"><title>Node21</title>
<g id="a_node5"><a xlink:href="Interface_8h.html#a1631bc99f1971bffda69d81d8ebb8fd0" target="_top" xlink:title="compute">
<polygon fill="none" stroke="black" points="502,-38.5 502,-57.5 561,-57.5 561,-38.5 502,-38.5"/>
<text text-anchor="middle" x="531.5" y="-45.5" font-family="Helvetica,sans-Serif" font-size="10.00">compute</text>
</a>
</g>
</g>
<!-- Node20&#45;&gt;Node21 -->
<g id="edge4" class="edge"><title>Node20&#45;&gt;Node21</title>
<path fill="none" stroke="midnightblue" d="M464.199,-48C477.72,-48 490.877,-48 501.858,-48"/>
<polygon fill="midnightblue" stroke="midnightblue" points="463.818,-44.5001 453.818,-48 463.818,-51.5001 463.818,-44.5001"/>
</g>
<!-- Node22 -->
<g id="node6" class="node"><title>Node22</title>
<g id="a_node6"><a xlink:href="main_8cpp.html#a3c04138a5bfe5d72780bb7e82a18e627" target="_top" xlink:title="main">
<polygon fill="none" stroke="black" points="597,-38.5 597,-57.5 638,-57.5 638,-38.5 597,-38.5"/>
<text text-anchor="middle" x="617.5" y="-45.5" font-family="Helvetica,sans-Serif" font-size="10.00">main</text>
</a>
</g>
</g>
<!-- Node21&#45;&gt;Node22 -->
<g id="edge5" class="edge"><title>Node21&#45;&gt;Node22</title>
<path fill="none" stroke="midnightblue" d="M571.522,-48C580.284,-48 589.22,-48 596.794,-48"/>
<polygon fill="midnightblue" stroke="midnightblue" points="571.408,-44.5001 561.408,-48 571.408,-51.5001 571.408,-44.5001"/>
</g>
<!-- Node24 -->
<g id="node8" class="node"><title>Node24</title>
<g id="a_node8"><a xlink:href="integration__test_8cpp.html#a9a3b66fc678554dc46a5194bcbabc828" target="_top" xlink:title="BOOST_AUTO_TEST_CASE">
<polygon fill="none" stroke="black" points="309,-114.5 309,-133.5 452,-133.5 452,-114.5 309,-114.5"/>
<text text-anchor="middle" x="380.5" y="-121.5" font-family="Helvetica,sans-Serif" font-size="10.00">BOOST_AUTO_TEST_CASE</text>
</a>
</g>
</g>
<!-- Node23&#45;&gt;Node24 -->
<g id="edge7" class="edge"><title>Node23&#45;&gt;Node24</title>
<path fill="none" stroke="midnightblue" d="M256.432,-124C273.357,-124 291.609,-124 308.741,-124"/>
<polygon fill="midnightblue" stroke="midnightblue" points="256.087,-120.5 246.087,-124 256.087,-127.5 256.087,-120.5"/>
</g>
<!-- Node26&#45;&gt;Node20 -->
<g id="edge10" class="edge"><title>Node26&#45;&gt;Node20</title>
<path fill="none" stroke="midnightblue" d="M244.792,-20.9874C272.359,-26.5152 305.45,-33.1508 331.935,-38.462"/>
<polygon fill="midnightblue" stroke="midnightblue" points="245.402,-17.54 234.909,-19.0055 244.025,-24.4034 245.402,-17.54"/>
</g>
</g>
</svg>
