<?xml version="1.0" encoding="UTF-8" standalone="no"?>
<!DOCTYPE svg PUBLIC "-//W3C//DTD SVG 1.1//EN"
 "http://www.w3.org/Graphics/SVG/1.1/DTD/svg11.dtd">
<!-- Generated by graphviz version 2.38.0 (20140413.2041)
 -->
<!-- Title: Eigen::UmfPackLU::factorize Pages: 1 -->
<!--zoomable 163 -->
<svg id="main" version="1.1" xmlns="http://www.w3.org/2000/svg" xmlns:xlink="http://www.w3.org/1999/xlink" xml:space="preserve" onload="init(evt)">
<style type="text/css"><![CDATA[
.edge:hover path { stroke: red; }
.edge:hover polygon { stroke: red; fill: red; }
]]></style>
<script type="text/javascript"><![CDATA[
var edges = document.getElementsByTagName('g');
if (edges && edges.length) {
  for (var i=0;i<edges.length;i++) {
    if (edges[i].id.substr(0,4)=='edge') {
      edges[i].setAttribute('class','edge');
    }
  }
}
]]></script>
        <defs>
                <circle id="rim" cx="0" cy="0" r="7"/>
                <circle id="rim2" cx="0" cy="0" r="3.5"/>
                <g id="zoomPlus">
                        <use xlink:href="#rim" fill="#404040">
                                <set attributeName="fill" to="#808080" begin="zoomplus.mouseover" end="zoomplus.mouseout"/>
                        </use>
                        <path d="M-4,0h8M0,-4v8" fill="none" stroke="white" stroke-width="1.5" pointer-events="none"/>
                </g>
                <g id="zoomMin">
                        <use xlink:href="#rim" fill="#404040">
                                <set attributeName="fill" to="#808080" begin="zoomminus.mouseover" end="zoomminus.mouseout"/>
                        </use>
                        <path d="M-4,0h8" fill="none" stroke="white" stroke-width="1.5" pointer-events="none"/>
                </g>
                <g id="dirArrow">
                        <path fill="none" stroke="white" stroke-width="1.5" d="M0,-3.0v7 M-2.5,-0.5L0,-3.0L2.5,-0.5"/>
                </g>
               <g id="resetDef">
                       <use xlink:href="#rim2" fill="#404040">
                               <set attributeName="fill" to="#808080" begin="reset.mouseover" end="reset.mouseout"/>
                       </use>
               </g>
        </defs>

<script type="text/javascript">
var viewWidth = 546;
var viewHeight = 163;
var sectionId = 'dynsection-17';
</script>
<script xlink:href="svgpan.js"/>
<svg id="graph" class="graph">
<g id="viewport">
<title>Eigen::UmfPackLU::factorize</title>
<!-- Node88 -->
<g id="node1" class="node"><title>Node88</title>
<polygon fill="#bfbfbf" stroke="black" points="0,-50 0,-69 150,-69 150,-50 0,-50"/>
<text text-anchor="middle" x="75" y="-57" font-family="Helvetica,sans-Serif" font-size="10.00">Eigen::UmfPackLU::factorize</text>
</g>
<!-- Node89 -->
<g id="node2" class="node"><title>Node89</title>
<g id="a_node2"><a xlink:href="classEigen_1_1UmfPackLU.html#a23ec2a84911a59ee4295d309d975a3d5" target="_top" xlink:title="Eigen::UmfPackLU::factorize_impl">
<polygon fill="none" stroke="black" points="186,-91 186,-110 362,-110 362,-91 186,-91"/>
<text text-anchor="middle" x="274" y="-98" font-family="Helvetica,sans-Serif" font-size="10.00">Eigen::UmfPackLU::factorize_impl</text>
</a>
</g>
</g>
<!-- Node88&#45;&gt;Node89 -->
<g id="edge1" class="edge"><title>Node88&#45;&gt;Node89</title>
<path fill="none" stroke="midnightblue" d="M121.691,-69.0093C150.182,-74.939 187.043,-82.6105 217.249,-88.897"/>
<polygon fill="midnightblue" stroke="midnightblue" points="216.713,-92.3603 227.216,-90.9714 218.139,-85.5071 216.713,-92.3603"/>
</g>
<!-- Node92 -->
<g id="node5" class="node"><title>Node92</title>
<g id="a_node5"><a xlink:href="classEigen_1_1UmfPackLU.html#a1b47abf8be308bbd60c37f3a0940fc43" target="_top" xlink:title="Eigen::UmfPackLU::grab">
<polygon fill="none" stroke="black" points="208.5,-50 208.5,-69 339.5,-69 339.5,-50 208.5,-50"/>
<text text-anchor="middle" x="274" y="-57" font-family="Helvetica,sans-Serif" font-size="10.00">Eigen::UmfPackLU::grab</text>
</a>
</g>
</g>
<!-- Node88&#45;&gt;Node92 -->
<g id="edge4" class="edge"><title>Node88&#45;&gt;Node92</title>
<path fill="none" stroke="midnightblue" d="M150.197,-59.5C165.854,-59.5 182.385,-59.5 198.07,-59.5"/>
<polygon fill="midnightblue" stroke="midnightblue" points="198.236,-63.0001 208.236,-59.5 198.236,-56.0001 198.236,-63.0001"/>
</g>
<!-- Node94 -->
<g id="node7" class="node"><title>Node94</title>
<g id="a_node7"><a xlink:href="namespaceEigen.html#a3b1224272137249b08cfa93a27fe740d" target="_top" xlink:title="Eigen::umfpack_free\l_numeric">
<polygon fill="none" stroke="black" points="217,-0.5 217,-30.5 331,-30.5 331,-0.5 217,-0.5"/>
<text text-anchor="start" x="225" y="-18.5" font-family="Helvetica,sans-Serif" font-size="10.00">Eigen::umfpack_free</text>
<text text-anchor="middle" x="274" y="-7.5" font-family="Helvetica,sans-Serif" font-size="10.00">_numeric</text>
</a>
</g>
</g>
<!-- Node88&#45;&gt;Node94 -->
<g id="edge6" class="edge"><title>Node88&#45;&gt;Node94</title>
<path fill="none" stroke="midnightblue" d="M118.746,-49.9527C144.458,-44.2099 177.727,-36.7792 206.783,-30.2897"/>
<polygon fill="midnightblue" stroke="midnightblue" points="207.868,-33.6335 216.865,-28.0378 206.342,-26.8018 207.868,-33.6335"/>
</g>
<!-- Node90 -->
<g id="node3" class="node"><title>Node90</title>
<g id="a_node3"><a xlink:href="namespaceEigen.html#a53029c5ce698ff0242e9086cadd687a0" target="_top" xlink:title="Eigen::umfpack_numeric">
<polygon fill="none" stroke="black" points="401,-135 401,-154 535,-154 535,-135 401,-135"/>
<text text-anchor="middle" x="468" y="-142" font-family="Helvetica,sans-Serif" font-size="10.00">Eigen::umfpack_numeric</text>
</a>
</g>
</g>
<!-- Node89&#45;&gt;Node90 -->
<g id="edge2" class="edge"><title>Node89&#45;&gt;Node90</title>
<path fill="none" stroke="midnightblue" d="M316.661,-110.047C345.721,-116.707 384.686,-125.636 415.665,-132.736"/>
<polygon fill="midnightblue" stroke="midnightblue" points="414.891,-136.149 425.42,-134.971 416.455,-129.326 414.891,-136.149"/>
</g>
<!-- Node91 -->
<g id="node4" class="node"><title>Node91</title>
<g id="a_node4"><a xlink:href="classEigen_1_1PlainObjectBase.html#ac25699535374b1854cf8494e44ad31b2" target="_top" xlink:title="Eigen::PlainObjectBase\l::data">
<polygon fill="none" stroke="black" points="405,-85.5 405,-115.5 531,-115.5 531,-85.5 405,-85.5"/>
<text text-anchor="start" x="413" y="-103.5" font-family="Helvetica,sans-Serif" font-size="10.00">Eigen::PlainObjectBase</text>
<text text-anchor="middle" x="468" y="-92.5" font-family="Helvetica,sans-Serif" font-size="10.00">::data</text>
</a>
</g>
</g>
<!-- Node89&#45;&gt;Node91 -->
<g id="edge3" class="edge"><title>Node89&#45;&gt;Node91</title>
<path fill="none" stroke="midnightblue" d="M362.012,-100.5C372.99,-100.5 384.125,-100.5 394.839,-100.5"/>
<polygon fill="midnightblue" stroke="midnightblue" points="394.961,-104 404.961,-100.5 394.961,-97.0001 394.961,-104"/>
</g>
<!-- Node93 -->
<g id="node6" class="node"><title>Node93</title>
<g id="a_node6"><a xlink:href="structEigen_1_1EigenBase.html#a324b16961a11d2ecfd2d1b7dd7946545" target="_top" xlink:title="Eigen::EigenBase::derived">
<polygon fill="none" stroke="black" points="398,-47 398,-66 538,-66 538,-47 398,-47"/>
<text text-anchor="middle" x="468" y="-54" font-family="Helvetica,sans-Serif" font-size="10.00">Eigen::EigenBase::derived</text>
</a>
</g>
</g>
<!-- Node92&#45;&gt;Node93 -->
<g id="edge5" class="edge"><title>Node92&#45;&gt;Node93</title>
<path fill="none" stroke="midnightblue" d="M339.735,-58.4885C355.095,-58.2485 371.654,-57.9898 387.585,-57.7409"/>
<polygon fill="midnightblue" stroke="midnightblue" points="388,-61.2349 397.944,-57.579 387.891,-54.2357 388,-61.2349"/>
</g>
</g>
</svg>
        <g id="navigator" transform="translate(0 0)" fill="#404254">
                <rect fill="#f2f5e9" fill-opacity="0.5" stroke="#606060" stroke-width=".5" x="0" y="0" width="60" height="60"/>
                <use id="zoomplus" xlink:href="#zoomPlus" x="17" y="9" onmousedown="handleZoom(evt,'in')"/>
                <use id="zoomminus" xlink:href="#zoomMin" x="42" y="9" onmousedown="handleZoom(evt,'out')"/>
                <use id="reset" xlink:href="#resetDef" x="30" y="36" onmousedown="handleReset()"/>
                <g id="arrowUp" xlink:href="#dirArrow" transform="translate(30 24)" onmousedown="handlePan(0,-1)">
                  <use xlink:href="#rim" fill="#404040">
                        <set attributeName="fill" to="#808080" begin="arrowUp.mouseover" end="arrowUp.mouseout"/>
                  </use>
                  <path fill="none" stroke="white" stroke-width="1.5" d="M0,-3.0v7 M-2.5,-0.5L0,-3.0L2.5,-0.5"/>
                </g>
                <g id="arrowRight" xlink:href="#dirArrow" transform="rotate(90) translate(36 -43)" onmousedown="handlePan(1,0)">
                  <use xlink:href="#rim" fill="#404040">
                        <set attributeName="fill" to="#808080" begin="arrowRight.mouseover" end="arrowRight.mouseout"/>
                  </use>
                  <path fill="none" stroke="white" stroke-width="1.5" d="M0,-3.0v7 M-2.5,-0.5L0,-3.0L2.5,-0.5"/>
                </g>
                <g id="arrowDown" xlink:href="#dirArrow" transform="rotate(180) translate(-30 -48)" onmousedown="handlePan(0,1)">
                  <use xlink:href="#rim" fill="#404040">
                        <set attributeName="fill" to="#808080" begin="arrowDown.mouseover" end="arrowDown.mouseout"/>
                  </use>
                  <path fill="none" stroke="white" stroke-width="1.5" d="M0,-3.0v7 M-2.5,-0.5L0,-3.0L2.5,-0.5"/>
                </g>
                <g id="arrowLeft" xlink:href="#dirArrow" transform="rotate(270) translate(-36 17)" onmousedown="handlePan(-1,0)">
                  <use xlink:href="#rim" fill="#404040">
                        <set attributeName="fill" to="#808080" begin="arrowLeft.mouseover" end="arrowLeft.mouseout"/>
                  </use>
                  <path fill="none" stroke="white" stroke-width="1.5" d="M0,-3.0v7 M-2.5,-0.5L0,-3.0L2.5,-0.5"/>
                </g>
        </g>
        <svg viewBox="0 0 15 15" width="100%" height="30px" preserveAspectRatio="xMaxYMin meet">
         <g id="arrow_out" transform="scale(0.3 0.3)">
          <a xlink:href="classEigen_1_1UmfPackLU_a1471bf890503e743c45d75cc02a5345d_cgraph_org.svg" target="_base">
           <rect id="button" ry="5" rx="5" y="6" x="6" height="38" width="38"
                fill="#f2f5e9" fill-opacity="0.5" stroke="#606060" stroke-width="1.0"/>
           <path id="arrow"
             d="M 11.500037,31.436501 C 11.940474,20.09759 22.043105,11.32322 32.158766,21.979434 L 37.068811,17.246167 C 37.068811,17.246167 37.088388,32 37.088388,32 L 22.160133,31.978069 C 22.160133,31.978069 26.997745,27.140456 26.997745,27.140456 C 18.528582,18.264221 13.291696,25.230495 11.500037,31.436501 z"
             style="fill:#404040;"/>
          </a>
         </g>
        </svg>
</svg>
