<?xml version="1.0" encoding="UTF-8" standalone="no"?>
<!DOCTYPE svg PUBLIC "-//W3C//DTD SVG 1.1//EN"
 "http://www.w3.org/Graphics/SVG/1.1/DTD/svg11.dtd">
<!-- Generated by graphviz version 2.38.0 (20140413.2041)
 -->
<!-- Title: Eigen::TriangularViewImpl&lt; _MatrixType, _Mode, Dense &gt;::operator+= Pages: 1 -->
<svg width="650pt" height="137pt"
 viewBox="0.00 0.00 650.00 137.00" xmlns="http://www.w3.org/2000/svg" xmlns:xlink="http://www.w3.org/1999/xlink">
<g id="graph0" class="graph" transform="scale(1 1) rotate(0) translate(4 133)">
<title>Eigen::TriangularViewImpl&lt; _MatrixType, _Mode, Dense &gt;::operator+=</title>
<!-- Node32 -->
<g id="node1" class="node"><title>Node32</title>
<polygon fill="#bfbfbf" stroke="black" points="0,-63 0,-104 158,-104 158,-63 0,-63"/>
<text text-anchor="start" x="8" y="-92" font-family="Helvetica,sans-Serif" font-size="10.00">Eigen::TriangularViewImpl</text>
<text text-anchor="start" x="8" y="-81" font-family="Helvetica,sans-Serif" font-size="10.00">&lt; _MatrixType, _Mode, Dense</text>
<text text-anchor="middle" x="79" y="-70" font-family="Helvetica,sans-Serif" font-size="10.00"> &gt;::operator+=</text>
</g>
<!-- Node33 -->
<g id="node2" class="node"><title>Node33</title>
<g id="a_node2"><a xlink:href="namespaceEigen_1_1internal.html#a5be231eab9df93bff91f5e0a81e87be7" target="_top" xlink:title="Eigen::internal::call\l_assignment_no_alias">
<polygon fill="none" stroke="black" points="194,-68.5 194,-98.5 316,-98.5 316,-68.5 194,-68.5"/>
<text text-anchor="start" x="202" y="-86.5" font-family="Helvetica,sans-Serif" font-size="10.00">Eigen::internal::call</text>
<text text-anchor="middle" x="255" y="-75.5" font-family="Helvetica,sans-Serif" font-size="10.00">_assignment_no_alias</text>
</a>
</g>
</g>
<!-- Node32&#45;&gt;Node33 -->
<g id="edge1" class="edge"><title>Node32&#45;&gt;Node33</title>
<path fill="none" stroke="midnightblue" d="M158.093,-83.5C166.636,-83.5 175.294,-83.5 183.734,-83.5"/>
<polygon fill="midnightblue" stroke="midnightblue" points="183.898,-87.0001 193.898,-83.5 183.898,-80.0001 183.898,-87.0001"/>
</g>
<!-- Node34 -->
<g id="node3" class="node"><title>Node34</title>
<g id="a_node3"><a xlink:href="level1__impl_8h.html#a4e8e1c1bb9d4e05fc671fc133ec9dc9b" target="_top" xlink:title="int">
<polygon fill="none" stroke="black" points="398,-93 398,-112 427,-112 427,-93 398,-93"/>
<text text-anchor="middle" x="412.5" y="-100" font-family="Helvetica,sans-Serif" font-size="10.00">int</text>
</a>
</g>
</g>
<!-- Node33&#45;&gt;Node34 -->
<g id="edge2" class="edge"><title>Node33&#45;&gt;Node34</title>
<path fill="none" stroke="midnightblue" d="M316.12,-90.8459C341.125,-93.9012 368.698,-97.2702 387.739,-99.5967"/>
<polygon fill="midnightblue" stroke="midnightblue" points="387.53,-103.097 397.88,-100.836 388.379,-96.1488 387.53,-103.097"/>
</g>
<!-- Node35 -->
<g id="node4" class="node"><title>Node35</title>
<g id="a_node4"><a xlink:href="namespaceEigen_1_1TensorSycl.html#a789ef14500d782279cc4bb95e6ba3dbd" target="_top" xlink:title="Eigen::TensorSycl::run">
<polygon fill="none" stroke="black" points="352,-55 352,-74 473,-74 473,-55 352,-55"/>
<text text-anchor="middle" x="412.5" y="-62" font-family="Helvetica,sans-Serif" font-size="10.00">Eigen::TensorSycl::run</text>
</a>
</g>
</g>
<!-- Node33&#45;&gt;Node35 -->
<g id="edge3" class="edge"><title>Node33&#45;&gt;Node35</title>
<path fill="none" stroke="midnightblue" d="M316.12,-76.1541C324.536,-75.1258 333.242,-74.062 341.817,-73.0144"/>
<polygon fill="midnightblue" stroke="midnightblue" points="342.294,-76.4822 351.796,-71.7951 341.445,-69.5338 342.294,-76.4822"/>
</g>
<!-- Node36 -->
<g id="node5" class="node"><title>Node36</title>
<g id="a_node5"><a xlink:href="structEigen_1_1TensorEvaluator.html#ae188d806978166eb8cbffbd63c944fb3" target="_top" xlink:title="Eigen::TensorEvaluator\l::evalSubExprsIfNeeded">
<polygon fill="none" stroke="black" points="510.5,-98.5 510.5,-128.5 640.5,-128.5 640.5,-98.5 510.5,-98.5"/>
<text text-anchor="start" x="518.5" y="-116.5" font-family="Helvetica,sans-Serif" font-size="10.00">Eigen::TensorEvaluator</text>
<text text-anchor="middle" x="575.5" y="-105.5" font-family="Helvetica,sans-Serif" font-size="10.00">::evalSubExprsIfNeeded</text>
</a>
</g>
</g>
<!-- Node35&#45;&gt;Node36 -->
<g id="edge4" class="edge"><title>Node35&#45;&gt;Node36</title>
<path fill="none" stroke="midnightblue" d="M444.925,-74.064C464.952,-80.1592 491.532,-88.2488 515.404,-95.5143"/>
<polygon fill="midnightblue" stroke="midnightblue" points="514.507,-98.8997 525.093,-98.463 516.545,-92.203 514.507,-98.8997"/>
</g>
<!-- Node37 -->
<g id="node6" class="node"><title>Node37</title>
<g id="a_node6"><a xlink:href="namespaceEigen_1_1TensorSycl_1_1internal.html#a525ee07cdeb68d18359b511b1ae9ffc7" target="_top" xlink:title="template deduction function for FunctorExtractor ">
<polygon fill="none" stroke="black" points="509,-49.5 509,-79.5 642,-79.5 642,-49.5 509,-49.5"/>
<text text-anchor="start" x="517" y="-67.5" font-family="Helvetica,sans-Serif" font-size="10.00">Eigen::TensorSycl::</text>
<text text-anchor="middle" x="575.5" y="-56.5" font-family="Helvetica,sans-Serif" font-size="10.00">internal::extractFunctors</text>
</a>
</g>
</g>
<!-- Node35&#45;&gt;Node37 -->
<g id="edge5" class="edge"><title>Node35&#45;&gt;Node37</title>
<path fill="none" stroke="midnightblue" d="M473.45,-64.5C481.65,-64.5 490.154,-64.5 498.59,-64.5"/>
<polygon fill="midnightblue" stroke="midnightblue" points="498.823,-68.0001 508.823,-64.5 498.823,-61.0001 498.823,-68.0001"/>
</g>
<!-- Node38 -->
<g id="node7" class="node"><title>Node38</title>
<g id="a_node7"><a xlink:href="structEigen_1_1TensorEvaluator.html#a76ec54bcca9523ec104aaa9adaf74983" target="_top" xlink:title="Eigen::TensorEvaluator\l::cleanup">
<polygon fill="none" stroke="black" points="513,-0.5 513,-30.5 638,-30.5 638,-0.5 513,-0.5"/>
<text text-anchor="start" x="521" y="-18.5" font-family="Helvetica,sans-Serif" font-size="10.00">Eigen::TensorEvaluator</text>
<text text-anchor="middle" x="575.5" y="-7.5" font-family="Helvetica,sans-Serif" font-size="10.00">::cleanup</text>
</a>
</g>
</g>
<!-- Node35&#45;&gt;Node38 -->
<g id="edge6" class="edge"><title>Node35&#45;&gt;Node38</title>
<path fill="none" stroke="midnightblue" d="M444.925,-54.936C464.952,-48.8408 491.532,-40.7512 515.404,-33.4857"/>
<polygon fill="midnightblue" stroke="midnightblue" points="516.545,-36.797 525.093,-30.537 514.507,-30.1003 516.545,-36.797"/>
</g>
</g>
</svg>
