<?xml version="1.0" encoding="UTF-8" standalone="no"?>
<!DOCTYPE svg PUBLIC "-//W3C//DTD SVG 1.1//EN"
 "http://www.w3.org/Graphics/SVG/1.1/DTD/svg11.dtd">
<!-- Generated by graphviz version 2.38.0 (20140413.2041)
 -->
<!-- Title: Eigen::SkylineStorage::diagSize Pages: 1 -->
<svg width="600pt" height="284pt"
 viewBox="0.00 0.00 600.00 284.00" xmlns="http://www.w3.org/2000/svg" xmlns:xlink="http://www.w3.org/1999/xlink">
<g id="graph0" class="graph" transform="scale(1 1) rotate(0) translate(4 280)">
<title>Eigen::SkylineStorage::diagSize</title>
<!-- Node34 -->
<g id="node1" class="node"><title>Node34</title>
<polygon fill="#bfbfbf" stroke="black" points="0,-170.5 0,-200.5 121,-200.5 121,-170.5 0,-170.5"/>
<text text-anchor="start" x="8" y="-188.5" font-family="Helvetica,sans-Serif" font-size="10.00">Eigen::SkylineStorage</text>
<text text-anchor="middle" x="60.5" y="-177.5" font-family="Helvetica,sans-Serif" font-size="10.00">::diagSize</text>
</g>
<!-- Node35 -->
<g id="node2" class="node"><title>Node35</title>
<g id="a_node2"><a xlink:href="classEigen_1_1SkylineMatrix.html#aea6d3b694cef560f15a7d18c1f010604" target="_top" xlink:title="Eigen::SkylineMatrix\l::nonZeros">
<polygon fill="none" stroke="black" points="161.5,-235.5 161.5,-265.5 273.5,-265.5 273.5,-235.5 161.5,-235.5"/>
<text text-anchor="start" x="169.5" y="-253.5" font-family="Helvetica,sans-Serif" font-size="10.00">Eigen::SkylineMatrix</text>
<text text-anchor="middle" x="217.5" y="-242.5" font-family="Helvetica,sans-Serif" font-size="10.00">::nonZeros</text>
</a>
</g>
</g>
<!-- Node34&#45;&gt;Node35 -->
<g id="edge1" class="edge"><title>Node34&#45;&gt;Node35</title>
<path fill="none" stroke="midnightblue" d="M106.844,-204.515C130.3,-214.352 158.533,-226.191 180.477,-235.394"/>
<polygon fill="midnightblue" stroke="midnightblue" points="108.025,-201.215 97.4497,-200.576 105.318,-207.671 108.025,-201.215"/>
</g>
<!-- Node36 -->
<g id="node3" class="node"><title>Node36</title>
<g id="a_node3"><a xlink:href="classEigen_1_1SkylineStorage.html#a7738010c4f6de76370ec7796ed06c7d1" target="_top" xlink:title="Eigen::SkylineStorage\l::operator=">
<polygon fill="none" stroke="black" points="471,-245.5 471,-275.5 592,-275.5 592,-245.5 471,-245.5"/>
<text text-anchor="start" x="479" y="-263.5" font-family="Helvetica,sans-Serif" font-size="10.00">Eigen::SkylineStorage</text>
<text text-anchor="middle" x="531.5" y="-252.5" font-family="Helvetica,sans-Serif" font-size="10.00">::operator=</text>
</a>
</g>
</g>
<!-- Node34&#45;&gt;Node36 -->
<g id="edge2" class="edge"><title>Node34&#45;&gt;Node36</title>
<path fill="none" stroke="midnightblue" d="M131.45,-196.686C223.659,-211.432 384.305,-237.121 470.981,-250.982"/>
<polygon fill="midnightblue" stroke="midnightblue" points="131.803,-193.198 121.376,-195.075 130.697,-200.11 131.803,-193.198"/>
</g>
<!-- Node37 -->
<g id="node4" class="node"><title>Node37</title>
<g id="a_node4"><a xlink:href="classEigen_1_1SkylineStorage.html#adbd0f2125fc8ac1a85fc2740835b9bbe" target="_top" xlink:title="Eigen::SkylineStorage\l::reallocate">
<polygon fill="none" stroke="black" points="157,-98.5 157,-128.5 278,-128.5 278,-98.5 157,-98.5"/>
<text text-anchor="start" x="165" y="-116.5" font-family="Helvetica,sans-Serif" font-size="10.00">Eigen::SkylineStorage</text>
<text text-anchor="middle" x="217.5" y="-105.5" font-family="Helvetica,sans-Serif" font-size="10.00">::reallocate</text>
</a>
</g>
</g>
<!-- Node34&#45;&gt;Node37 -->
<g id="edge3" class="edge"><title>Node34&#45;&gt;Node37</title>
<path fill="none" stroke="midnightblue" d="M103.364,-166.053C128.729,-154.271 160.603,-139.465 184.05,-128.574"/>
<polygon fill="midnightblue" stroke="midnightblue" points="101.588,-163.019 93.9931,-170.406 104.537,-169.368 101.588,-163.019"/>
</g>
<!-- Node42 -->
<g id="node9" class="node"><title>Node42</title>
<g id="a_node9"><a xlink:href="classEigen_1_1SkylineStorage.html#a4735650ecee3ca2348d4225315260576" target="_top" xlink:title="Eigen::SkylineStorage\l::resize">
<polygon fill="none" stroke="black" points="314,-147.5 314,-177.5 435,-177.5 435,-147.5 314,-147.5"/>
<text text-anchor="start" x="322" y="-165.5" font-family="Helvetica,sans-Serif" font-size="10.00">Eigen::SkylineStorage</text>
<text text-anchor="middle" x="374.5" y="-154.5" font-family="Helvetica,sans-Serif" font-size="10.00">::resize</text>
</a>
</g>
</g>
<!-- Node34&#45;&gt;Node42 -->
<g id="edge13" class="edge"><title>Node34&#45;&gt;Node42</title>
<path fill="none" stroke="midnightblue" d="M131.286,-180.356C186.18,-176.309 261.838,-170.732 313.915,-166.893"/>
<polygon fill="midnightblue" stroke="midnightblue" points="131.003,-176.867 121.288,-181.093 131.518,-183.848 131.003,-176.867"/>
</g>
<!-- Node38 -->
<g id="node5" class="node"><title>Node38</title>
<g id="a_node5"><a xlink:href="classEigen_1_1SkylineStorage.html#a4b124e460d00bb59e892bf14f2b466a6" target="_top" xlink:title="Eigen::SkylineStorage\l::reserve">
<polygon fill="none" stroke="black" points="314,-86.5 314,-116.5 435,-116.5 435,-86.5 314,-86.5"/>
<text text-anchor="start" x="322" y="-104.5" font-family="Helvetica,sans-Serif" font-size="10.00">Eigen::SkylineStorage</text>
<text text-anchor="middle" x="374.5" y="-93.5" font-family="Helvetica,sans-Serif" font-size="10.00">::reserve</text>
</a>
</g>
</g>
<!-- Node37&#45;&gt;Node38 -->
<g id="edge4" class="edge"><title>Node37&#45;&gt;Node38</title>
<path fill="none" stroke="midnightblue" d="M288.661,-108.068C297.122,-107.413 305.7,-106.749 313.988,-106.107"/>
<polygon fill="midnightblue" stroke="midnightblue" points="288.127,-104.599 278.427,-108.86 288.667,-111.578 288.127,-104.599"/>
</g>
<!-- Node40 -->
<g id="node7" class="node"><title>Node40</title>
<g id="a_node7"><a xlink:href="classEigen_1_1SkylineStorage.html#a6be0d1708b4048b5bfef64c296b12f59" target="_top" xlink:title="Eigen::SkylineStorage\l::squeeze">
<polygon fill="none" stroke="black" points="314,-13.5 314,-43.5 435,-43.5 435,-13.5 314,-13.5"/>
<text text-anchor="start" x="322" y="-31.5" font-family="Helvetica,sans-Serif" font-size="10.00">Eigen::SkylineStorage</text>
<text text-anchor="middle" x="374.5" y="-20.5" font-family="Helvetica,sans-Serif" font-size="10.00">::squeeze</text>
</a>
</g>
</g>
<!-- Node37&#45;&gt;Node40 -->
<g id="edge6" class="edge"><title>Node37&#45;&gt;Node40</title>
<path fill="none" stroke="midnightblue" d="M254.88,-93.5495C282.718,-78.2839 320.518,-57.5546 345.898,-43.6366"/>
<polygon fill="midnightblue" stroke="midnightblue" points="252.939,-90.6221 245.854,-98.4994 256.305,-96.7598 252.939,-90.6221"/>
</g>
<!-- Node37&#45;&gt;Node42 -->
<g id="edge8" class="edge"><title>Node37&#45;&gt;Node42</title>
<path fill="none" stroke="midnightblue" d="M276.258,-131.759C292.607,-136.927 310.211,-142.492 325.888,-147.448"/>
<polygon fill="midnightblue" stroke="midnightblue" points="276.86,-128.279 266.27,-128.601 274.75,-134.953 276.86,-128.279"/>
</g>
<!-- Node39 -->
<g id="node6" class="node"><title>Node39</title>
<g id="a_node6"><a xlink:href="classEigen_1_1SkylineMatrix.html#aac6da20a87fca9d4cb6b871504497577" target="_top" xlink:title="Eigen::SkylineMatrix\l::reserve">
<polygon fill="none" stroke="black" points="475.5,-49.5 475.5,-79.5 587.5,-79.5 587.5,-49.5 475.5,-49.5"/>
<text text-anchor="start" x="483.5" y="-67.5" font-family="Helvetica,sans-Serif" font-size="10.00">Eigen::SkylineMatrix</text>
<text text-anchor="middle" x="531.5" y="-56.5" font-family="Helvetica,sans-Serif" font-size="10.00">::reserve</text>
</a>
</g>
</g>
<!-- Node38&#45;&gt;Node39 -->
<g id="edge5" class="edge"><title>Node38&#45;&gt;Node39</title>
<path fill="none" stroke="midnightblue" d="M445.374,-84.8204C455.404,-82.4262 465.606,-79.9909 475.299,-77.6771"/>
<polygon fill="midnightblue" stroke="midnightblue" points="444.341,-81.4685 435.427,-87.1948 445.966,-88.2772 444.341,-81.4685"/>
</g>
<!-- Node41 -->
<g id="node8" class="node"><title>Node41</title>
<g id="a_node8"><a xlink:href="classEigen_1_1SkylineMatrix.html#a96b5819fc711164e746450262dae8693" target="_top" xlink:title="Eigen::SkylineMatrix\l::squeeze">
<polygon fill="none" stroke="black" points="475.5,-0.5 475.5,-30.5 587.5,-30.5 587.5,-0.5 475.5,-0.5"/>
<text text-anchor="start" x="483.5" y="-18.5" font-family="Helvetica,sans-Serif" font-size="10.00">Eigen::SkylineMatrix</text>
<text text-anchor="middle" x="531.5" y="-7.5" font-family="Helvetica,sans-Serif" font-size="10.00">::squeeze</text>
</a>
</g>
</g>
<!-- Node40&#45;&gt;Node41 -->
<g id="edge7" class="edge"><title>Node40&#45;&gt;Node41</title>
<path fill="none" stroke="midnightblue" d="M445.688,-22.6133C455.616,-21.7806 465.707,-20.9343 475.299,-20.1298"/>
<polygon fill="midnightblue" stroke="midnightblue" points="445.1,-19.1502 435.427,-23.4739 445.685,-26.1258 445.1,-19.1502"/>
</g>
<!-- Node42&#45;&gt;Node36 -->
<g id="edge12" class="edge"><title>Node42&#45;&gt;Node36</title>
<path fill="none" stroke="midnightblue" d="M420.699,-182.712C425.719,-185.698 430.601,-188.971 435,-192.5 454.71,-208.31 450.647,-221.528 471,-236.5 475.576,-239.866 480.69,-242.844 485.946,-245.454"/>
<polygon fill="midnightblue" stroke="midnightblue" points="422.028,-179.447 411.586,-177.653 418.63,-185.567 422.028,-179.447"/>
</g>
<!-- Node43 -->
<g id="node10" class="node"><title>Node43</title>
<g id="a_node10"><a xlink:href="classEigen_1_1SkylineMatrix.html#a1269310d041fb3ca2a980644f3cfe5a2" target="_top" xlink:title="Eigen::SkylineMatrix\l::finalize">
<polygon fill="none" stroke="black" points="475.5,-196.5 475.5,-226.5 587.5,-226.5 587.5,-196.5 475.5,-196.5"/>
<text text-anchor="start" x="483.5" y="-214.5" font-family="Helvetica,sans-Serif" font-size="10.00">Eigen::SkylineMatrix</text>
<text text-anchor="middle" x="531.5" y="-203.5" font-family="Helvetica,sans-Serif" font-size="10.00">::finalize</text>
</a>
</g>
</g>
<!-- Node42&#45;&gt;Node43 -->
<g id="edge9" class="edge"><title>Node42&#45;&gt;Node43</title>
<path fill="none" stroke="midnightblue" d="M433.258,-180.759C449.607,-185.927 467.211,-191.492 482.888,-196.448"/>
<polygon fill="midnightblue" stroke="midnightblue" points="433.86,-177.279 423.27,-177.601 431.75,-183.953 433.86,-177.279"/>
</g>
<!-- Node44 -->
<g id="node11" class="node"><title>Node44</title>
<g id="a_node11"><a xlink:href="classEigen_1_1SkylineMatrix.html#a918eed5cc583f6d402f0db60c5c5ad52" target="_top" xlink:title="Eigen::SkylineMatrix\l::resize">
<polygon fill="none" stroke="black" points="475.5,-147.5 475.5,-177.5 587.5,-177.5 587.5,-147.5 475.5,-147.5"/>
<text text-anchor="start" x="483.5" y="-165.5" font-family="Helvetica,sans-Serif" font-size="10.00">Eigen::SkylineMatrix</text>
<text text-anchor="middle" x="531.5" y="-154.5" font-family="Helvetica,sans-Serif" font-size="10.00">::resize</text>
</a>
</g>
</g>
<!-- Node42&#45;&gt;Node44 -->
<g id="edge10" class="edge"><title>Node42&#45;&gt;Node44</title>
<path fill="none" stroke="midnightblue" d="M445.688,-162.5C455.616,-162.5 465.707,-162.5 475.299,-162.5"/>
<polygon fill="midnightblue" stroke="midnightblue" points="445.427,-159 435.427,-162.5 445.427,-166 445.427,-159"/>
</g>
<!-- Node45 -->
<g id="node12" class="node"><title>Node45</title>
<g id="a_node12"><a xlink:href="classEigen_1_1SkylineMatrix.html#a050a0ba5d47a1373a8ed9e1f7d02388e" target="_top" xlink:title="Eigen::SkylineMatrix\l::resizeNonZeros">
<polygon fill="none" stroke="black" points="475.5,-98.5 475.5,-128.5 587.5,-128.5 587.5,-98.5 475.5,-98.5"/>
<text text-anchor="start" x="483.5" y="-116.5" font-family="Helvetica,sans-Serif" font-size="10.00">Eigen::SkylineMatrix</text>
<text text-anchor="middle" x="531.5" y="-105.5" font-family="Helvetica,sans-Serif" font-size="10.00">::resizeNonZeros</text>
</a>
</g>
</g>
<!-- Node42&#45;&gt;Node45 -->
<g id="edge11" class="edge"><title>Node42&#45;&gt;Node45</title>
<path fill="none" stroke="midnightblue" d="M433.258,-144.241C449.607,-139.073 467.211,-133.508 482.888,-128.552"/>
<polygon fill="midnightblue" stroke="midnightblue" points="431.75,-141.047 423.27,-147.399 433.86,-147.721 431.75,-141.047"/>
</g>
</g>
</svg>
