<?xml version="1.0" encoding="UTF-8" standalone="no"?>
<!DOCTYPE svg PUBLIC "-//W3C//DTD SVG 1.1//EN"
 "http://www.w3.org/Graphics/SVG/1.1/DTD/svg11.dtd">
<!-- Generated by graphviz version 2.38.0 (20140413.2041)
 -->
<!-- Title: mpfr::mpreal::mpreal Pages: 1 -->
<!--zoomable 144 -->
<svg id="main" version="1.1" xmlns="http://www.w3.org/2000/svg" xmlns:xlink="http://www.w3.org/1999/xlink" xml:space="preserve" onload="init(evt)">
<style type="text/css"><![CDATA[
.edge:hover path { stroke: red; }
.edge:hover polygon { stroke: red; fill: red; }
]]></style>
<script type="text/javascript"><![CDATA[
var edges = document.getElementsByTagName('g');
if (edges && edges.length) {
  for (var i=0;i<edges.length;i++) {
    if (edges[i].id.substr(0,4)=='edge') {
      edges[i].setAttribute('class','edge');
    }
  }
}
]]></script>
        <defs>
                <circle id="rim" cx="0" cy="0" r="7"/>
                <circle id="rim2" cx="0" cy="0" r="3.5"/>
                <g id="zoomPlus">
                        <use xlink:href="#rim" fill="#404040">
                                <set attributeName="fill" to="#808080" begin="zoomplus.mouseover" end="zoomplus.mouseout"/>
                        </use>
                        <path d="M-4,0h8M0,-4v8" fill="none" stroke="white" stroke-width="1.5" pointer-events="none"/>
                </g>
                <g id="zoomMin">
                        <use xlink:href="#rim" fill="#404040">
                                <set attributeName="fill" to="#808080" begin="zoomminus.mouseover" end="zoomminus.mouseout"/>
                        </use>
                        <path d="M-4,0h8" fill="none" stroke="white" stroke-width="1.5" pointer-events="none"/>
                </g>
                <g id="dirArrow">
                        <path fill="none" stroke="white" stroke-width="1.5" d="M0,-3.0v7 M-2.5,-0.5L0,-3.0L2.5,-0.5"/>
                </g>
               <g id="resetDef">
                       <use xlink:href="#rim2" fill="#404040">
                               <set attributeName="fill" to="#808080" begin="reset.mouseover" end="reset.mouseout"/>
                       </use>
               </g>
        </defs>

<script type="text/javascript">
var viewWidth = 565;
var viewHeight = 144;
var sectionId = 'dynsection-6';
</script>
<script xlink:href="svgpan.js"/>
<svg id="graph" class="graph">
<g id="viewport">
<title>mpfr::mpreal::mpreal</title>
<!-- Node163 -->
<g id="node1" class="node"><title>Node163</title>
<polygon fill="#bfbfbf" stroke="black" points="0,-7.63643 0,-26.6364 119,-26.6364 119,-7.63643 0,-7.63643"/>
<text text-anchor="middle" x="59.5" y="-14.6364" font-family="Helvetica,sans-Serif" font-size="10.00">mpfr::mpreal::mpreal</text>
</g>
<!-- Node164 -->
<g id="node2" class="node"><title>Node164</title>
<g id="a_node2"><a xlink:href="classmpfr_1_1mpreal.html#af2562b87b51837e39296db6c224ec034" target="_top" xlink:title="mpfr::mpreal::fits\l_in_bits">
<polygon fill="none" stroke="black" points="155,-32.1364 155,-62.1364 254,-62.1364 254,-32.1364 155,-32.1364"/>
<text text-anchor="start" x="163" y="-50.1364" font-family="Helvetica,sans-Serif" font-size="10.00">mpfr::mpreal::fits</text>
<text text-anchor="middle" x="204.5" y="-39.1364" font-family="Helvetica,sans-Serif" font-size="10.00">_in_bits</text>
</a>
</g>
</g>
<!-- Node163&#45;&gt;Node164 -->
<g id="edge1" class="edge"><title>Node163&#45;&gt;Node164</title>
<path fill="none" stroke="midnightblue" d="M106.139,-26.7111C118.394,-29.2819 131.819,-32.0985 144.68,-34.7965"/>
<polygon fill="midnightblue" stroke="midnightblue" points="144.333,-38.2999 154.839,-36.9278 145.771,-31.4491 144.333,-38.2999"/>
</g>
<!-- Node168 -->
<g id="node6" class="node"><title>Node168</title>
<g id="a_node6"><a xlink:href="classmpfr_1_1mpreal.html#af4e3b56888463376c675cac70b6ceca3" target="_top" xlink:title="mpfr::mpreal::mpfr_ptr">
<polygon fill="none" stroke="black" points="414,-28.6364 414,-47.6364 540,-47.6364 540,-28.6364 414,-28.6364"/>
<text text-anchor="middle" x="477" y="-35.6364" font-family="Helvetica,sans-Serif" font-size="10.00">mpfr::mpreal::mpfr_ptr</text>
</a>
</g>
</g>
<!-- Node163&#45;&gt;Node168 -->
<g id="edge10" class="edge"><title>Node163&#45;&gt;Node168</title>
<path fill="none" stroke="midnightblue" d="M119.245,-9.05124C180.035,-2.07084 277.593,5.25167 361,-6.13643 387.887,-9.80755 417.357,-18.0955 439.732,-25.3167"/>
<polygon fill="midnightblue" stroke="midnightblue" points="438.886,-28.723 449.479,-28.539 441.083,-22.0768 438.886,-28.723"/>
</g>
<!-- Node165 -->
<g id="node3" class="node"><title>Node165</title>
<g id="a_node3"><a xlink:href="namespacempfr.html#ab3d576a0281f699cfe1aa186dd95522f" target="_top" xlink:title="mpfr::modf">
<polygon fill="none" stroke="black" points="290.5,-15.6364 290.5,-34.6364 360.5,-34.6364 360.5,-15.6364 290.5,-15.6364"/>
<text text-anchor="middle" x="325.5" y="-22.6364" font-family="Helvetica,sans-Serif" font-size="10.00">mpfr::modf</text>
</a>
</g>
</g>
<!-- Node164&#45;&gt;Node165 -->
<g id="edge2" class="edge"><title>Node164&#45;&gt;Node165</title>
<path fill="none" stroke="midnightblue" d="M254.245,-38.1247C262.824,-36.5387 271.712,-34.8956 280.162,-33.3334"/>
<polygon fill="midnightblue" stroke="midnightblue" points="281.005,-36.7368 290.203,-31.4771 279.733,-29.8535 281.005,-36.7368"/>
</g>
<!-- Node166 -->
<g id="node4" class="node"><title>Node166</title>
<g id="a_node4"><a xlink:href="namespacempfr.html#a0183f8cadde6442a5dfb40140409a5e0" target="_top" xlink:title="mpfr::ldexp">
<polygon fill="none" stroke="black" points="290,-91.6364 290,-110.636 361,-110.636 361,-91.6364 290,-91.6364"/>
<text text-anchor="middle" x="325.5" y="-98.6364" font-family="Helvetica,sans-Serif" font-size="10.00">mpfr::ldexp</text>
</a>
</g>
</g>
<!-- Node164&#45;&gt;Node166 -->
<g id="edge3" class="edge"><title>Node164&#45;&gt;Node166</title>
<path fill="none" stroke="midnightblue" d="M238.648,-62.1784C256.01,-70.0568 277.123,-79.6375 294.067,-87.3263"/>
<polygon fill="midnightblue" stroke="midnightblue" points="292.949,-90.6625 303.501,-91.6076 295.841,-84.2881 292.949,-90.6625"/>
</g>
<!-- Node170 -->
<g id="node8" class="node"><title>Node170</title>
<g id="a_node8"><a xlink:href="namespacempfr.html#abdb6197c40bc63bf3ad4892d9608d052" target="_top" xlink:title="mpfr::frexp">
<polygon fill="none" stroke="black" points="291,-53.6364 291,-72.6364 360,-72.6364 360,-53.6364 291,-53.6364"/>
<text text-anchor="middle" x="325.5" y="-60.6364" font-family="Helvetica,sans-Serif" font-size="10.00">mpfr::frexp</text>
</a>
</g>
</g>
<!-- Node164&#45;&gt;Node170 -->
<g id="edge7" class="edge"><title>Node164&#45;&gt;Node170</title>
<path fill="none" stroke="midnightblue" d="M254.245,-53.6904C263.103,-54.8814 272.29,-56.1165 280.984,-57.2856"/>
<polygon fill="midnightblue" stroke="midnightblue" points="280.539,-60.7571 290.916,-58.621 281.472,-53.8195 280.539,-60.7571"/>
</g>
<!-- Node167 -->
<g id="node5" class="node"><title>Node167</title>
<g id="a_node5"><a xlink:href="classmpfr_1_1mpreal.html#ae0bdf9ca1838bd5851ac1c7c6b360553" target="_top" xlink:title="mpfr::mpreal::get_default_rnd">
<polygon fill="none" stroke="black" points="397,-116.636 397,-135.636 557,-135.636 557,-116.636 397,-116.636"/>
<text text-anchor="middle" x="477" y="-123.636" font-family="Helvetica,sans-Serif" font-size="10.00">mpfr::mpreal::get_default_rnd</text>
</a>
</g>
</g>
<!-- Node166&#45;&gt;Node167 -->
<g id="edge4" class="edge"><title>Node166&#45;&gt;Node167</title>
<path fill="none" stroke="midnightblue" d="M361.174,-106.935C375.389,-109.312 392.349,-112.148 408.815,-114.901"/>
<polygon fill="midnightblue" stroke="midnightblue" points="408.534,-118.403 418.974,-116.6 409.688,-111.499 408.534,-118.403"/>
</g>
<!-- Node166&#45;&gt;Node168 -->
<g id="edge5" class="edge"><title>Node166&#45;&gt;Node168</title>
<path fill="none" stroke="midnightblue" d="M344.609,-91.6221C349.954,-88.6916 355.77,-85.3803 361,-82.1364 377.554,-71.8686 379.225,-65.1062 397,-57.1364 402.442,-54.6962 408.242,-52.5438 414.132,-50.6506"/>
<polygon fill="midnightblue" stroke="midnightblue" points="415.489,-53.8992 424.084,-47.7043 413.502,-47.1871 415.489,-53.8992"/>
</g>
<!-- Node169 -->
<g id="node7" class="node"><title>Node169</title>
<g id="a_node7"><a xlink:href="classmpfr_1_1mpreal.html#a566f64ca066c54923d19c11d6c3d15cd" target="_top" xlink:title="mpfr::mpreal::mpfr\l_srcptr">
<polygon fill="none" stroke="black" points="423.5,-67.1364 423.5,-97.1364 530.5,-97.1364 530.5,-67.1364 423.5,-67.1364"/>
<text text-anchor="start" x="431.5" y="-85.1364" font-family="Helvetica,sans-Serif" font-size="10.00">mpfr::mpreal::mpfr</text>
<text text-anchor="middle" x="477" y="-74.1364" font-family="Helvetica,sans-Serif" font-size="10.00">_srcptr</text>
</a>
</g>
</g>
<!-- Node166&#45;&gt;Node169 -->
<g id="edge6" class="edge"><title>Node166&#45;&gt;Node169</title>
<path fill="none" stroke="midnightblue" d="M361.174,-96.7297C376.605,-94.7686 395.27,-92.3964 413.026,-90.1398"/>
<polygon fill="midnightblue" stroke="midnightblue" points="413.866,-93.5614 423.344,-88.8284 412.983,-86.6172 413.866,-93.5614"/>
</g>
<!-- Node170&#45;&gt;Node168 -->
<g id="edge8" class="edge"><title>Node170&#45;&gt;Node168</title>
<path fill="none" stroke="midnightblue" d="M360.051,-57.5259C374.588,-55.095 392.148,-52.1585 409.156,-49.3144"/>
<polygon fill="midnightblue" stroke="midnightblue" points="409.793,-52.7565 419.079,-47.655 408.639,-45.8523 409.793,-52.7565"/>
</g>
<!-- Node170&#45;&gt;Node169 -->
<g id="edge9" class="edge"><title>Node170&#45;&gt;Node169</title>
<path fill="none" stroke="midnightblue" d="M360.051,-67.4004C375.813,-69.4036 395.13,-71.8586 413.443,-74.186"/>
<polygon fill="midnightblue" stroke="midnightblue" points="413.123,-77.6735 423.485,-75.4623 414.006,-70.7293 413.123,-77.6735"/>
</g>
</g>
</svg>
        <g id="navigator" transform="translate(0 0)" fill="#404254">
                <rect fill="#f2f5e9" fill-opacity="0.5" stroke="#606060" stroke-width=".5" x="0" y="0" width="60" height="60"/>
                <use id="zoomplus" xlink:href="#zoomPlus" x="17" y="9" onmousedown="handleZoom(evt,'in')"/>
                <use id="zoomminus" xlink:href="#zoomMin" x="42" y="9" onmousedown="handleZoom(evt,'out')"/>
                <use id="reset" xlink:href="#resetDef" x="30" y="36" onmousedown="handleReset()"/>
                <g id="arrowUp" xlink:href="#dirArrow" transform="translate(30 24)" onmousedown="handlePan(0,-1)">
                  <use xlink:href="#rim" fill="#404040">
                        <set attributeName="fill" to="#808080" begin="arrowUp.mouseover" end="arrowUp.mouseout"/>
                  </use>
                  <path fill="none" stroke="white" stroke-width="1.5" d="M0,-3.0v7 M-2.5,-0.5L0,-3.0L2.5,-0.5"/>
                </g>
                <g id="arrowRight" xlink:href="#dirArrow" transform="rotate(90) translate(36 -43)" onmousedown="handlePan(1,0)">
                  <use xlink:href="#rim" fill="#404040">
                        <set attributeName="fill" to="#808080" begin="arrowRight.mouseover" end="arrowRight.mouseout"/>
                  </use>
                  <path fill="none" stroke="white" stroke-width="1.5" d="M0,-3.0v7 M-2.5,-0.5L0,-3.0L2.5,-0.5"/>
                </g>
                <g id="arrowDown" xlink:href="#dirArrow" transform="rotate(180) translate(-30 -48)" onmousedown="handlePan(0,1)">
                  <use xlink:href="#rim" fill="#404040">
                        <set attributeName="fill" to="#808080" begin="arrowDown.mouseover" end="arrowDown.mouseout"/>
                  </use>
                  <path fill="none" stroke="white" stroke-width="1.5" d="M0,-3.0v7 M-2.5,-0.5L0,-3.0L2.5,-0.5"/>
                </g>
                <g id="arrowLeft" xlink:href="#dirArrow" transform="rotate(270) translate(-36 17)" onmousedown="handlePan(-1,0)">
                  <use xlink:href="#rim" fill="#404040">
                        <set attributeName="fill" to="#808080" begin="arrowLeft.mouseover" end="arrowLeft.mouseout"/>
                  </use>
                  <path fill="none" stroke="white" stroke-width="1.5" d="M0,-3.0v7 M-2.5,-0.5L0,-3.0L2.5,-0.5"/>
                </g>
        </g>
        <svg viewBox="0 0 15 15" width="100%" height="30px" preserveAspectRatio="xMaxYMin meet">
         <g id="arrow_out" transform="scale(0.3 0.3)">
          <a xlink:href="classmpfr_1_1mpreal_a719c3d6efce9bf4edf605793b3017a9f_cgraph_org.svg" target="_base">
           <rect id="button" ry="5" rx="5" y="6" x="6" height="38" width="38"
                fill="#f2f5e9" fill-opacity="0.5" stroke="#606060" stroke-width="1.0"/>
           <path id="arrow"
             d="M 11.500037,31.436501 C 11.940474,20.09759 22.043105,11.32322 32.158766,21.979434 L 37.068811,17.246167 C 37.068811,17.246167 37.088388,32 37.088388,32 L 22.160133,31.978069 C 22.160133,31.978069 26.997745,27.140456 26.997745,27.140456 C 18.528582,18.264221 13.291696,25.230495 11.500037,31.436501 z"
             style="fill:#404040;"/>
          </a>
         </g>
        </svg>
</svg>
