<?xml version="1.0" encoding="UTF-8" standalone="no"?>
<!DOCTYPE svg PUBLIC "-//W3C//DTD SVG 1.1//EN"
 "http://www.w3.org/Graphics/SVG/1.1/DTD/svg11.dtd">
<!-- Generated by graphviz version 2.38.0 (20140413.2041)
 -->
<!-- Title: Eigen::internal::UpperBidiagonalization::compute Pages: 1 -->
<svg width="841pt" height="116pt"
 viewBox="0.00 0.00 841.00 115.50" xmlns="http://www.w3.org/2000/svg" xmlns:xlink="http://www.w3.org/1999/xlink">
<g id="graph0" class="graph" transform="scale(1 1) rotate(0) translate(4 111.5)">
<title>Eigen::internal::UpperBidiagonalization::compute</title>
<!-- Node15 -->
<g id="node1" class="node"><title>Node15</title>
<polygon fill="#bfbfbf" stroke="black" points="0,-44.5 0,-74.5 201,-74.5 201,-44.5 0,-44.5"/>
<text text-anchor="start" x="8" y="-62.5" font-family="Helvetica,sans-Serif" font-size="10.00">Eigen::internal::UpperBidiagonalization</text>
<text text-anchor="middle" x="100.5" y="-51.5" font-family="Helvetica,sans-Serif" font-size="10.00">::compute</text>
</g>
<!-- Node16 -->
<g id="node2" class="node"><title>Node16</title>
<g id="a_node2"><a xlink:href="sparse__permutations_8cpp.html#ad87822100feba90851ac71ba08fce30b" target="_top" xlink:title="eval">
<polygon fill="none" stroke="black" points="318.5,-88 318.5,-107 354.5,-107 354.5,-88 318.5,-88"/>
<text text-anchor="middle" x="336.5" y="-95" font-family="Helvetica,sans-Serif" font-size="10.00">eval</text>
</a>
</g>
</g>
<!-- Node15&#45;&gt;Node16 -->
<g id="edge1" class="edge"><title>Node15&#45;&gt;Node16</title>
<path fill="none" stroke="midnightblue" d="M193.983,-74.5186C234.808,-81.1484 279.804,-88.4553 307.858,-93.0111"/>
<polygon fill="midnightblue" stroke="midnightblue" points="307.654,-96.5237 318.085,-94.672 308.776,-89.6142 307.654,-96.5237"/>
</g>
<!-- Node17 -->
<g id="node3" class="node"><title>Node17</title>
<g id="a_node3"><a xlink:href="common_8h.html#a94360d20ee722c1bcb23e5b2fbba8554" target="_top" xlink:title="matrix">
<polygon fill="none" stroke="black" points="313,-50 313,-69 360,-69 360,-50 313,-50"/>
<text text-anchor="middle" x="336.5" y="-57" font-family="Helvetica,sans-Serif" font-size="10.00">matrix</text>
</a>
</g>
</g>
<!-- Node15&#45;&gt;Node17 -->
<g id="edge2" class="edge"><title>Node15&#45;&gt;Node17</title>
<path fill="none" stroke="midnightblue" d="M201.076,-59.5C237.374,-59.5 275.959,-59.5 302.436,-59.5"/>
<polygon fill="midnightblue" stroke="midnightblue" points="302.652,-63.0001 312.652,-59.5 302.652,-56.0001 302.652,-63.0001"/>
</g>
<!-- Node18 -->
<g id="node4" class="node"><title>Node18</title>
<g id="a_node4"><a xlink:href="namespaceEigen_1_1internal.html#aa788c9dc214d8e6722eb9d10cb097c74" target="_top" xlink:title="Eigen::internal::upperbidiagonalization\l_inplace_blocked">
<polygon fill="none" stroke="black" points="237,-0.5 237,-30.5 436,-30.5 436,-0.5 237,-0.5"/>
<text text-anchor="start" x="245" y="-18.5" font-family="Helvetica,sans-Serif" font-size="10.00">Eigen::internal::upperbidiagonalization</text>
<text text-anchor="middle" x="336.5" y="-7.5" font-family="Helvetica,sans-Serif" font-size="10.00">_inplace_blocked</text>
</a>
</g>
</g>
<!-- Node15&#45;&gt;Node18 -->
<g id="edge3" class="edge"><title>Node15&#45;&gt;Node18</title>
<path fill="none" stroke="midnightblue" d="M181.375,-44.4808C202.063,-40.5908 224.478,-36.3759 245.64,-32.3968"/>
<polygon fill="midnightblue" stroke="midnightblue" points="246.407,-35.814 255.588,-30.5262 245.113,-28.9345 246.407,-35.814"/>
</g>
<!-- Node19 -->
<g id="node5" class="node"><title>Node19</title>
<g id="a_node5"><a xlink:href="namespaceEigen_1_1internal.html#a5778293700634082639d20b7e2106f39" target="_top" xlink:title="Eigen::internal::upperbidiagonalization\l_inplace_unblocked">
<polygon fill="none" stroke="black" points="472,-0.5 472,-30.5 671,-30.5 671,-0.5 472,-0.5"/>
<text text-anchor="start" x="480" y="-18.5" font-family="Helvetica,sans-Serif" font-size="10.00">Eigen::internal::upperbidiagonalization</text>
<text text-anchor="middle" x="571.5" y="-7.5" font-family="Helvetica,sans-Serif" font-size="10.00">_inplace_unblocked</text>
</a>
</g>
</g>
<!-- Node18&#45;&gt;Node19 -->
<g id="edge4" class="edge"><title>Node18&#45;&gt;Node19</title>
<path fill="none" stroke="midnightblue" d="M436.313,-15.5C444.69,-15.5 453.192,-15.5 461.64,-15.5"/>
<polygon fill="midnightblue" stroke="midnightblue" points="461.906,-19.0001 471.906,-15.5 461.906,-12.0001 461.906,-19.0001"/>
</g>
<!-- Node20 -->
<g id="node6" class="node"><title>Node20</title>
<g id="a_node6"><a xlink:href="classEigen_1_1PlainObjectBase.html#a99d9054ee2d5a40c6e00ded0265e9cea" target="_top" xlink:title="Eigen::PlainObjectBase\l::resize">
<polygon fill="none" stroke="black" points="707,-0.5 707,-30.5 833,-30.5 833,-0.5 707,-0.5"/>
<text text-anchor="start" x="715" y="-18.5" font-family="Helvetica,sans-Serif" font-size="10.00">Eigen::PlainObjectBase</text>
<text text-anchor="middle" x="770" y="-7.5" font-family="Helvetica,sans-Serif" font-size="10.00">::resize</text>
</a>
</g>
</g>
<!-- Node19&#45;&gt;Node20 -->
<g id="edge5" class="edge"><title>Node19&#45;&gt;Node20</title>
<path fill="none" stroke="midnightblue" d="M671.038,-15.5C679.684,-15.5 688.327,-15.5 696.699,-15.5"/>
<polygon fill="midnightblue" stroke="midnightblue" points="696.759,-19.0001 706.759,-15.5 696.759,-12.0001 696.759,-19.0001"/>
</g>
</g>
</svg>
