<?xml version="1.0" encoding="UTF-8" standalone="no"?>
<!DOCTYPE svg PUBLIC "-//W3C//DTD SVG 1.1//EN"
 "http://www.w3.org/Graphics/SVG/1.1/DTD/svg11.dtd">
<!-- Generated by graphviz version 2.38.0 (20140413.2041)
 -->
<!-- Title: Eigen::MetisOrdering&lt; StorageIndex &gt; Pages: 1 -->
<svg width="855pt" height="110pt"
 viewBox="0.00 0.00 855.00 110.00" xmlns="http://www.w3.org/2000/svg" xmlns:xlink="http://www.w3.org/1999/xlink">
<g id="graph0" class="graph" transform="scale(1 1) rotate(0) translate(4 106)">
<title>Eigen::MetisOrdering&lt; StorageIndex &gt;</title>
<!-- Node1 -->
<g id="node1" class="node"><title>Node1</title>
<polygon fill="#bfbfbf" stroke="black" points="731,-41.5 731,-71.5 847,-71.5 847,-41.5 731,-41.5"/>
<text text-anchor="start" x="739" y="-59.5" font-family="Helvetica,sans-Serif" font-size="10.00">Eigen::MetisOrdering</text>
<text text-anchor="middle" x="789" y="-48.5" font-family="Helvetica,sans-Serif" font-size="10.00">&lt; StorageIndex &gt;</text>
</g>
<!-- Node2 -->
<g id="node2" class="node"><title>Node2</title>
<g id="a_node2"><a xlink:href="classEigen_1_1Matrix.html" target="_top" xlink:title="Eigen::Matrix\&lt; StorageIndex,\l Dynamic, 1 \&gt;">
<polygon fill="none" stroke="black" points="466,-41.5 466,-71.5 622,-71.5 622,-41.5 466,-41.5"/>
<text text-anchor="start" x="474" y="-59.5" font-family="Helvetica,sans-Serif" font-size="10.00">Eigen::Matrix&lt; StorageIndex,</text>
<text text-anchor="middle" x="544" y="-48.5" font-family="Helvetica,sans-Serif" font-size="10.00"> Dynamic, 1 &gt;</text>
</a>
</g>
</g>
<!-- Node2&#45;&gt;Node1 -->
<g id="edge1" class="edge"><title>Node2&#45;&gt;Node1</title>
<path fill="none" stroke="#9a32cd" stroke-dasharray="5,2" d="M632.249,-56.5C664.973,-56.5 701.307,-56.5 730.645,-56.5"/>
<polygon fill="#9a32cd" stroke="#9a32cd" points="632.221,-53.0001 622.221,-56.5 632.221,-60.0001 632.221,-53.0001"/>
<text text-anchor="middle" x="676.5" y="-70.5" font-family="Helvetica,sans-Serif" font-size="10.00"> m_indexPtr</text>
<text text-anchor="middle" x="676.5" y="-59.5" font-family="Helvetica,sans-Serif" font-size="10.00">m_innerIndices</text>
</g>
<!-- Node3 -->
<g id="node3" class="node"><title>Node3</title>
<g id="a_node3"><a xlink:href="classEigen_1_1PlainObjectBase.html" target="_top" xlink:title="Eigen::PlainObjectBase\l\&lt; Matrix\&lt; StorageIndex,\l _Rows, _Cols, _Options,\l _MaxRows, _MaxCols \&gt; \&gt;">
<polygon fill="none" stroke="black" points="288,-30.5 288,-82.5 429,-82.5 429,-30.5 288,-30.5"/>
<text text-anchor="start" x="296" y="-70.5" font-family="Helvetica,sans-Serif" font-size="10.00">Eigen::PlainObjectBase</text>
<text text-anchor="start" x="296" y="-59.5" font-family="Helvetica,sans-Serif" font-size="10.00">&lt; Matrix&lt; StorageIndex,</text>
<text text-anchor="start" x="296" y="-48.5" font-family="Helvetica,sans-Serif" font-size="10.00"> _Rows, _Cols, _Options,</text>
<text text-anchor="middle" x="358.5" y="-37.5" font-family="Helvetica,sans-Serif" font-size="10.00"> _MaxRows, _MaxCols &gt; &gt;</text>
</a>
</g>
</g>
<!-- Node3&#45;&gt;Node2 -->
<g id="edge2" class="edge"><title>Node3&#45;&gt;Node2</title>
<path fill="none" stroke="midnightblue" d="M439.337,-56.5C448.101,-56.5 457.013,-56.5 465.746,-56.5"/>
<polygon fill="midnightblue" stroke="midnightblue" points="439.135,-53.0001 429.135,-56.5 439.135,-60.0001 439.135,-53.0001"/>
</g>
<!-- Node4 -->
<g id="node4" class="node"><title>Node4</title>
<polygon fill="none" stroke="#bfbfbf" points="33,-71.5 33,-101.5 164,-101.5 164,-71.5 33,-71.5"/>
<text text-anchor="start" x="41" y="-89.5" font-family="Helvetica,sans-Serif" font-size="10.00">internal::dense_xpr</text>
<text text-anchor="middle" x="98.5" y="-78.5" font-family="Helvetica,sans-Serif" font-size="10.00">_base::type&lt; Derived &gt;</text>
</g>
<!-- Node4&#45;&gt;Node3 -->
<g id="edge3" class="edge"><title>Node4&#45;&gt;Node3</title>
<path fill="none" stroke="midnightblue" d="M174.633,-77.7636C210.331,-73.6127 252.737,-68.6817 287.721,-64.6138"/>
<polygon fill="midnightblue" stroke="midnightblue" points="173.8,-74.3368 164.271,-78.9685 174.609,-81.2899 173.8,-74.3368"/>
</g>
<!-- Node5 -->
<g id="node5" class="node"><title>Node5</title>
<g id="a_node5"><a xlink:href="classEigen_1_1DenseStorage.html" target="_top" xlink:title="Eigen::DenseStorage\l\&lt; Scalar, Base::MaxSizeAtCompile\lTime, Base::RowsAtCompileTime,\l Base::ColsAtCompileTime, Options \&gt;">
<polygon fill="none" stroke="black" points="0,-0.5 0,-52.5 197,-52.5 197,-0.5 0,-0.5"/>
<text text-anchor="start" x="8" y="-40.5" font-family="Helvetica,sans-Serif" font-size="10.00">Eigen::DenseStorage</text>
<text text-anchor="start" x="8" y="-29.5" font-family="Helvetica,sans-Serif" font-size="10.00">&lt; Scalar, Base::MaxSizeAtCompile</text>
<text text-anchor="start" x="8" y="-18.5" font-family="Helvetica,sans-Serif" font-size="10.00">Time, Base::RowsAtCompileTime,</text>
<text text-anchor="middle" x="98.5" y="-7.5" font-family="Helvetica,sans-Serif" font-size="10.00"> Base::ColsAtCompileTime, Options &gt;</text>
</a>
</g>
</g>
<!-- Node5&#45;&gt;Node3 -->
<g id="edge4" class="edge"><title>Node5&#45;&gt;Node3</title>
<path fill="none" stroke="#9a32cd" stroke-dasharray="5,2" d="M207.044,-39.0051C234.389,-42.1848 263.057,-45.5183 287.947,-48.4124"/>
<polygon fill="#9a32cd" stroke="#9a32cd" points="207.376,-35.5202 197.039,-37.8417 206.568,-42.4734 207.376,-35.5202"/>
<text text-anchor="middle" x="242.5" y="-48.5" font-family="Helvetica,sans-Serif" font-size="10.00"> m_storage</text>
</g>
</g>
</svg>
