<?xml version="1.0" encoding="UTF-8" standalone="no"?>
<!DOCTYPE svg PUBLIC "-//W3C//DTD SVG 1.1//EN"
 "http://www.w3.org/Graphics/SVG/1.1/DTD/svg11.dtd">
<!-- Generated by graphviz version 2.38.0 (20140413.2041)
 -->
<!-- Title: mpfr::mpreal::set_emax Pages: 1 -->
<!--zoomable 657 -->
<svg id="main" version="1.1" xmlns="http://www.w3.org/2000/svg" xmlns:xlink="http://www.w3.org/1999/xlink" xml:space="preserve" onload="init(evt)">
<style type="text/css"><![CDATA[
.edge:hover path { stroke: red; }
.edge:hover polygon { stroke: red; fill: red; }
]]></style>
<script type="text/javascript"><![CDATA[
var edges = document.getElementsByTagName('g');
if (edges && edges.length) {
  for (var i=0;i<edges.length;i++) {
    if (edges[i].id.substr(0,4)=='edge') {
      edges[i].setAttribute('class','edge');
    }
  }
}
]]></script>
        <defs>
                <circle id="rim" cx="0" cy="0" r="7"/>
                <circle id="rim2" cx="0" cy="0" r="3.5"/>
                <g id="zoomPlus">
                        <use xlink:href="#rim" fill="#404040">
                                <set attributeName="fill" to="#808080" begin="zoomplus.mouseover" end="zoomplus.mouseout"/>
                        </use>
                        <path d="M-4,0h8M0,-4v8" fill="none" stroke="white" stroke-width="1.5" pointer-events="none"/>
                </g>
                <g id="zoomMin">
                        <use xlink:href="#rim" fill="#404040">
                                <set attributeName="fill" to="#808080" begin="zoomminus.mouseover" end="zoomminus.mouseout"/>
                        </use>
                        <path d="M-4,0h8" fill="none" stroke="white" stroke-width="1.5" pointer-events="none"/>
                </g>
                <g id="dirArrow">
                        <path fill="none" stroke="white" stroke-width="1.5" d="M0,-3.0v7 M-2.5,-0.5L0,-3.0L2.5,-0.5"/>
                </g>
               <g id="resetDef">
                       <use xlink:href="#rim2" fill="#404040">
                               <set attributeName="fill" to="#808080" begin="reset.mouseover" end="reset.mouseout"/>
                       </use>
               </g>
        </defs>

<script type="text/javascript">
var viewWidth = 1039;
var viewHeight = 657;
var sectionId = 'dynsection-124';
</script>
<script xlink:href="svgpan.js"/>
<svg id="graph" class="graph">
<g id="viewport">
<title>mpfr::mpreal::set_emax</title>
<!-- Node3097 -->
<g id="node1" class="node"><title>Node3097</title>
<polygon fill="#bfbfbf" stroke="black" points="0,-266.5 0,-285.5 132,-285.5 132,-266.5 0,-266.5"/>
<text text-anchor="middle" x="66" y="-273.5" font-family="Helvetica,sans-Serif" font-size="10.00">mpfr::mpreal::set_emax</text>
</g>
<!-- Node3098 -->
<g id="node2" class="node"><title>Node3098</title>
<g id="a_node2"><a xlink:href="classmpfr_1_1mpreal.html#aae18e3b781bffbf4fd9938d4d3043aa1" target="_top" xlink:title="mpfr::mpreal::get_default_prec">
<polygon fill="none" stroke="black" points="168,-266.5 168,-285.5 333,-285.5 333,-266.5 168,-266.5"/>
<text text-anchor="middle" x="250.5" y="-273.5" font-family="Helvetica,sans-Serif" font-size="10.00">mpfr::mpreal::get_default_prec</text>
</a>
</g>
</g>
<!-- Node3097&#45;&gt;Node3098 -->
<g id="edge1" class="edge"><title>Node3097&#45;&gt;Node3098</title>
<path fill="none" stroke="midnightblue" d="M142.278,-276C150.704,-276 159.317,-276 167.818,-276"/>
<polygon fill="midnightblue" stroke="midnightblue" points="142.114,-272.5 132.114,-276 142.114,-279.5 142.114,-272.5"/>
</g>
<!-- Node3099 -->
<g id="node3" class="node"><title>Node3099</title>
<g id="a_node3"><a xlink:href="classstd_1_1numeric__limits_3_01mpfr_1_1mpreal_01_4.html#a3934cff230bb0e9121edf616b6d0627d" target="_top" xlink:title="std::numeric_limits\l\&lt; mpfr::mpreal \&gt;::digits">
<polygon fill="none" stroke="black" points="369,-618 369,-648 502,-648 502,-618 369,-618"/>
<text text-anchor="start" x="377" y="-636" font-family="Helvetica,sans-Serif" font-size="10.00">std::numeric_limits</text>
<text text-anchor="middle" x="435.5" y="-625" font-family="Helvetica,sans-Serif" font-size="10.00">&lt; mpfr::mpreal &gt;::digits</text>
</a>
</g>
</g>
<!-- Node3098&#45;&gt;Node3099 -->
<g id="edge2" class="edge"><title>Node3098&#45;&gt;Node3099</title>
<path fill="none" stroke="midnightblue" d="M253.331,-295.904C259.441,-351.48 283.835,-510.313 369,-603 374.585,-609.079 381.644,-614.017 389.046,-617.999"/>
<polygon fill="midnightblue" stroke="midnightblue" points="256.785,-295.266 252.29,-285.672 249.821,-295.976 256.785,-295.266"/>
</g>
<!-- Node3100 -->
<g id="node4" class="node"><title>Node3100</title>
<g id="a_node4"><a xlink:href="classmpfr_1_1mpreal.html#a9c370c68865b32775c1c1cb5123cea90" target="_top" xlink:title="mpfr::mpreal::mpreal">
<polygon fill="none" stroke="black" points="376,-266.5 376,-285.5 495,-285.5 495,-266.5 376,-266.5"/>
<text text-anchor="middle" x="435.5" y="-273.5" font-family="Helvetica,sans-Serif" font-size="10.00">mpfr::mpreal::mpreal</text>
</a>
</g>
</g>
<!-- Node3098&#45;&gt;Node3100 -->
<g id="edge3" class="edge"><title>Node3098&#45;&gt;Node3100</title>
<path fill="none" stroke="midnightblue" d="M343.254,-269.25C354.331,-269.252 365.403,-269.386 375.82,-269.652"/>
<polygon fill="midnightblue" stroke="midnightblue" points="343.087,-265.75 333.099,-269.285 343.111,-272.75 343.087,-265.75"/>
</g>
<!-- Node3105 -->
<g id="node9" class="node"><title>Node3105</title>
<g id="a_node9"><a xlink:href="namespacempfr.html#ab6cfe9d750c1cdf9f8d65c93bc75fa57" target="_top" xlink:title="mpfr::operator/">
<polygon fill="none" stroke="black" points="918,-453.5 918,-472.5 1007,-472.5 1007,-453.5 918,-453.5"/>
<text text-anchor="middle" x="962.5" y="-460.5" font-family="Helvetica,sans-Serif" font-size="10.00">mpfr::operator/</text>
</a>
</g>
</g>
<!-- Node3098&#45;&gt;Node3105 -->
<g id="edge39" class="edge"><title>Node3098&#45;&gt;Node3105</title>
<path fill="none" stroke="midnightblue" d="M259.683,-295.091C276.028,-331.46 315.766,-411.623 369,-463 431.475,-523.296 454.154,-538.448 538,-561 675.408,-597.958 725.887,-603.85 858,-551 900.702,-533.918 938.403,-491.8 953.945,-472.699"/>
<polygon fill="midnightblue" stroke="midnightblue" points="262.769,-293.413 255.537,-285.671 256.362,-296.234 262.769,-293.413"/>
</g>
<!-- Node3100&#45;&gt;Node3098 -->
<g id="edge4" class="edge"><title>Node3100&#45;&gt;Node3098</title>
<path fill="none" stroke="midnightblue" d="M365.758,-282.561C355.102,-282.741 344.005,-282.793 333.099,-282.715"/>
<polygon fill="midnightblue" stroke="midnightblue" points="365.897,-286.059 375.82,-282.348 365.749,-279.06 365.897,-286.059"/>
</g>
<!-- Node3101 -->
<g id="node5" class="node"><title>Node3101</title>
<g id="a_node5"><a xlink:href="namespacempfr.html#ab72db36dfba03626c173e0beb84b49e8" target="_top" xlink:title="mpfr::machine_epsilon">
<polygon fill="none" stroke="black" points="547,-456.5 547,-475.5 672,-475.5 672,-456.5 547,-456.5"/>
<text text-anchor="middle" x="609.5" y="-463.5" font-family="Helvetica,sans-Serif" font-size="10.00">mpfr::machine_epsilon</text>
</a>
</g>
</g>
<!-- Node3100&#45;&gt;Node3101 -->
<g id="edge5" class="edge"><title>Node3100&#45;&gt;Node3101</title>
<path fill="none" stroke="midnightblue" d="M442.607,-295.642C454.756,-331.396 485.414,-407.091 538,-447 543.15,-450.908 549.046,-454.013 555.186,-456.48"/>
<polygon fill="midnightblue" stroke="midnightblue" points="445.861,-294.33 439.427,-285.912 439.207,-296.504 445.861,-294.33"/>
</g>
<!-- Node3106 -->
<g id="node10" class="node"><title>Node3106</title>
<g id="a_node10"><a xlink:href="namespacempfr.html#ac5d52f3ecbedf807efc1815b836d587e" target="_top" xlink:title="mpfr::maxval">
<polygon fill="none" stroke="black" points="747.5,-289.5 747.5,-308.5 827.5,-308.5 827.5,-289.5 747.5,-289.5"/>
<text text-anchor="middle" x="787.5" y="-296.5" font-family="Helvetica,sans-Serif" font-size="10.00">mpfr::maxval</text>
</a>
</g>
</g>
<!-- Node3100&#45;&gt;Node3106 -->
<g id="edge19" class="edge"><title>Node3100&#45;&gt;Node3106</title>
<path fill="none" stroke="midnightblue" d="M466.618,-261.449C478.919,-254.288 492.465,-244.667 502,-233 529.263,-199.642 502.326,-167.153 538,-143 590.628,-107.369 624.866,-113.197 681,-143 741.932,-175.35 774.091,-260.35 783.515,-289.233"/>
<polygon fill="midnightblue" stroke="midnightblue" points="464.618,-258.554 457.541,-266.439 467.99,-264.689 464.618,-258.554"/>
</g>
<!-- Node3113 -->
<g id="node17" class="node"><title>Node3113</title>
<g id="a_node17"><a xlink:href="namespacempfr.html#a55c33a2e33adf3ed6f1cdca5536d8f8f" target="_top" xlink:title="mpfr::minval">
<polygon fill="none" stroke="black" points="571,-494.5 571,-513.5 648,-513.5 648,-494.5 571,-494.5"/>
<text text-anchor="middle" x="609.5" y="-501.5" font-family="Helvetica,sans-Serif" font-size="10.00">mpfr::minval</text>
</a>
</g>
</g>
<!-- Node3100&#45;&gt;Node3113 -->
<g id="edge20" class="edge"><title>Node3100&#45;&gt;Node3113</title>
<path fill="none" stroke="midnightblue" d="M445.386,-294.819C469.38,-345.566 533.956,-481.656 538,-485 547.28,-492.675 559.381,-497.27 570.932,-500.014"/>
<polygon fill="midnightblue" stroke="midnightblue" points="448.474,-293.163 441.037,-285.617 442.145,-296.153 448.474,-293.163"/>
</g>
<!-- Node3115 -->
<g id="node19" class="node"><title>Node3115</title>
<g id="a_node19"><a xlink:href="classmpfr_1_1mpreal.html#a74b08628ebe3b25cb7e08d28bc87a42d" target="_top" xlink:title="mpfr::mpreal::mpreal">
<polygon fill="none" stroke="black" points="550,-418.5 550,-437.5 669,-437.5 669,-418.5 550,-418.5"/>
<text text-anchor="middle" x="609.5" y="-425.5" font-family="Helvetica,sans-Serif" font-size="10.00">mpfr::mpreal::mpreal</text>
</a>
</g>
</g>
<!-- Node3100&#45;&gt;Node3115 -->
<g id="edge23" class="edge"><title>Node3100&#45;&gt;Node3115</title>
<path fill="none" stroke="midnightblue" d="M445.692,-294.87C460.826,-323.915 493.773,-379.318 538,-409 543.789,-412.885 550.345,-415.978 557.07,-418.44"/>
<polygon fill="midnightblue" stroke="midnightblue" points="448.731,-293.124 441.093,-285.782 442.486,-296.285 448.731,-293.124"/>
</g>
<!-- Node3116 -->
<g id="node20" class="node"><title>Node3116</title>
<g id="a_node20"><a xlink:href="namespacempfr.html#a1fdf070115136efdf0eea414e54b4ef5" target="_top" xlink:title="mpfr::operator*">
<polygon fill="none" stroke="black" points="563.5,-380.5 563.5,-399.5 655.5,-399.5 655.5,-380.5 563.5,-380.5"/>
<text text-anchor="middle" x="609.5" y="-387.5" font-family="Helvetica,sans-Serif" font-size="10.00">mpfr::operator*</text>
</a>
</g>
</g>
<!-- Node3100&#45;&gt;Node3116 -->
<g id="edge24" class="edge"><title>Node3100&#45;&gt;Node3116</title>
<path fill="none" stroke="midnightblue" d="M450.589,-293.682C468.613,-315.125 501.854,-350.886 538,-371 545.754,-375.315 554.538,-378.69 563.21,-381.318"/>
<polygon fill="midnightblue" stroke="midnightblue" points="453.091,-291.215 444.037,-285.713 447.684,-295.66 453.091,-291.215"/>
</g>
<!-- Node3117 -->
<g id="node21" class="node"><title>Node3117</title>
<g id="a_node21"><a xlink:href="classmpfr_1_1mpreal.html#a5f9aebe5664c2a335468c8ed0d08fa6f" target="_top" xlink:title="mpfr::mpreal::operator*=">
<polygon fill="none" stroke="black" points="539.5,-532.5 539.5,-551.5 679.5,-551.5 679.5,-532.5 539.5,-532.5"/>
<text text-anchor="middle" x="609.5" y="-539.5" font-family="Helvetica,sans-Serif" font-size="10.00">mpfr::mpreal::operator*=</text>
</a>
</g>
</g>
<!-- Node3100&#45;&gt;Node3117 -->
<g id="edge25" class="edge"><title>Node3100&#45;&gt;Node3117</title>
<path fill="none" stroke="midnightblue" d="M446.273,-294.668C459.789,-320.889 484.498,-370.317 502,-414 520.975,-461.359 500.933,-487.944 538,-523 542.052,-526.832 546.794,-529.909 551.869,-532.376"/>
<polygon fill="midnightblue" stroke="midnightblue" points="449.239,-292.784 441.526,-285.52 443.026,-296.009 449.239,-292.784"/>
</g>
<!-- Node3118 -->
<g id="node22" class="node"><title>Node3118</title>
<g id="a_node22"><a xlink:href="classmpfr_1_1mpreal.html#a3f7f5d20cfe5d4d5cbcee9ad7b450ca3" target="_top" xlink:title="mpfr::mpreal::operator+">
<polygon fill="none" stroke="black" points="542.5,-76.5 542.5,-95.5 676.5,-95.5 676.5,-76.5 542.5,-76.5"/>
<text text-anchor="middle" x="609.5" y="-83.5" font-family="Helvetica,sans-Serif" font-size="10.00">mpfr::mpreal::operator+</text>
</a>
</g>
</g>
<!-- Node3100&#45;&gt;Node3118 -->
<g id="edge27" class="edge"><title>Node3100&#45;&gt;Node3118</title>
<path fill="none" stroke="midnightblue" d="M467.703,-261.569C479.952,-254.511 493.163,-244.936 502,-233 535.893,-187.221 498.606,-151.141 538,-110 544.081,-103.65 551.905,-98.9797 560.118,-95.5453"/>
<polygon fill="midnightblue" stroke="midnightblue" points="465.752,-258.645 458.613,-266.473 469.076,-264.806 465.752,-258.645"/>
</g>
<!-- Node3119 -->
<g id="node23" class="node"><title>Node3119</title>
<g id="a_node23"><a xlink:href="namespacempfr.html#a7db5edb2c8a8f13df654e3f22b0c1d2a" target="_top" xlink:title="mpfr::operator+">
<polygon fill="none" stroke="black" points="562,-342.5 562,-361.5 657,-361.5 657,-342.5 562,-342.5"/>
<text text-anchor="middle" x="609.5" y="-349.5" font-family="Helvetica,sans-Serif" font-size="10.00">mpfr::operator+</text>
</a>
</g>
</g>
<!-- Node3100&#45;&gt;Node3119 -->
<g id="edge29" class="edge"><title>Node3100&#45;&gt;Node3119</title>
<path fill="none" stroke="midnightblue" d="M459.502,-291.109C479.553,-303.736 509.766,-321.478 538,-333 546.92,-336.64 556.757,-339.794 566.181,-342.428"/>
<polygon fill="midnightblue" stroke="midnightblue" points="461.36,-288.143 451.049,-285.708 457.591,-294.042 461.36,-288.143"/>
</g>
<!-- Node3120 -->
<g id="node24" class="node"><title>Node3120</title>
<g id="a_node24"><a xlink:href="classmpfr_1_1mpreal.html#a11fd44a6fe5b15dd2e8d96c5f65f0b59" target="_top" xlink:title="mpfr::mpreal::operator+=">
<polygon fill="none" stroke="black" points="538,-304.5 538,-323.5 681,-323.5 681,-304.5 538,-304.5"/>
<text text-anchor="middle" x="609.5" y="-311.5" font-family="Helvetica,sans-Serif" font-size="10.00">mpfr::mpreal::operator+=</text>
</a>
</g>
</g>
<!-- Node3100&#45;&gt;Node3120 -->
<g id="edge30" class="edge"><title>Node3100&#45;&gt;Node3120</title>
<path fill="none" stroke="midnightblue" d="M489.696,-287.753C514.017,-293.126 542.455,-299.409 565.409,-304.48"/>
<polygon fill="midnightblue" stroke="midnightblue" points="490.422,-284.329 479.903,-285.589 488.912,-291.164 490.422,-284.329"/>
</g>
<!-- Node3121 -->
<g id="node25" class="node"><title>Node3121</title>
<g id="a_node25"><a xlink:href="namespacempfr.html#ad4ee72b1913629e82105f0c2d72a7b4a" target="_top" xlink:title="mpfr::operator&#45;">
<polygon fill="none" stroke="black" points="565,-266.5 565,-285.5 654,-285.5 654,-266.5 565,-266.5"/>
<text text-anchor="middle" x="609.5" y="-273.5" font-family="Helvetica,sans-Serif" font-size="10.00">mpfr::operator&#45;</text>
</a>
</g>
</g>
<!-- Node3100&#45;&gt;Node3121 -->
<g id="edge31" class="edge"><title>Node3100&#45;&gt;Node3121</title>
<path fill="none" stroke="midnightblue" d="M505.285,-276C525.427,-276 546.882,-276 564.983,-276"/>
<polygon fill="midnightblue" stroke="midnightblue" points="505.212,-272.5 495.212,-276 505.212,-279.5 505.212,-272.5"/>
</g>
<!-- Node3122 -->
<g id="node26" class="node"><title>Node3122</title>
<g id="a_node26"><a xlink:href="classmpfr_1_1mpreal.html#a8aafaacaea104a79fb62d8813226500f" target="_top" xlink:title="mpfr::mpreal::operator&#45;=">
<polygon fill="none" stroke="black" points="541,-38.5 541,-57.5 678,-57.5 678,-38.5 541,-38.5"/>
<text text-anchor="middle" x="609.5" y="-45.5" font-family="Helvetica,sans-Serif" font-size="10.00">mpfr::mpreal::operator&#45;=</text>
</a>
</g>
</g>
<!-- Node3100&#45;&gt;Node3122 -->
<g id="edge32" class="edge"><title>Node3100&#45;&gt;Node3122</title>
<path fill="none" stroke="midnightblue" d="M447.545,-257.613C461.187,-234.542 484.706,-193.56 502,-157 520.422,-118.056 505.804,-95.6258 538,-67 542.358,-63.1255 547.426,-60.0299 552.808,-57.5584"/>
<polygon fill="midnightblue" stroke="midnightblue" points="444.459,-255.956 442.35,-266.339 450.473,-259.537 444.459,-255.956"/>
</g>
<!-- Node3123 -->
<g id="node27" class="node"><title>Node3123</title>
<g id="a_node27"><a xlink:href="namespacempfr.html#a5486ca908b39cd91a9d60586866f40d6" target="_top" xlink:title="mpfr::operator/">
<polygon fill="none" stroke="black" points="565,-228.5 565,-247.5 654,-247.5 654,-228.5 565,-228.5"/>
<text text-anchor="middle" x="609.5" y="-235.5" font-family="Helvetica,sans-Serif" font-size="10.00">mpfr::operator/</text>
</a>
</g>
</g>
<!-- Node3100&#45;&gt;Node3123 -->
<g id="edge34" class="edge"><title>Node3100&#45;&gt;Node3123</title>
<path fill="none" stroke="midnightblue" d="M489.696,-264.247C514.017,-258.874 542.455,-252.591 565.409,-247.52"/>
<polygon fill="midnightblue" stroke="midnightblue" points="488.912,-260.836 479.903,-266.411 490.422,-267.671 488.912,-260.836"/>
</g>
<!-- Node3124 -->
<g id="node28" class="node"><title>Node3124</title>
<g id="a_node28"><a xlink:href="classmpfr_1_1mpreal.html#a9f6b4a0f16104e98d0f96b5666b08329" target="_top" xlink:title="mpfr::mpreal::operator/=">
<polygon fill="none" stroke="black" points="541,-0.5 541,-19.5 678,-19.5 678,-0.5 541,-0.5"/>
<text text-anchor="middle" x="609.5" y="-7.5" font-family="Helvetica,sans-Serif" font-size="10.00">mpfr::mpreal::operator/=</text>
</a>
</g>
</g>
<!-- Node3100&#45;&gt;Node3124 -->
<g id="edge35" class="edge"><title>Node3100&#45;&gt;Node3124</title>
<path fill="none" stroke="midnightblue" d="M438.689,-256.47C444.982,-209.812 467.45,-91.1365 538,-29 542.376,-25.146 547.455,-22.0635 552.845,-19.5998"/>
<polygon fill="midnightblue" stroke="midnightblue" points="435.206,-256.115 437.444,-266.47 442.153,-256.979 435.206,-256.115"/>
</g>
<!-- Node3125 -->
<g id="node29" class="node"><title>Node3125</title>
<g id="a_node29"><a xlink:href="namespacempfr.html#a47c705d079873d21b2ae64570c2dbe7c" target="_top" xlink:title="mpfr::pow">
<polygon fill="none" stroke="black" points="577.5,-190.5 577.5,-209.5 641.5,-209.5 641.5,-190.5 577.5,-190.5"/>
<text text-anchor="middle" x="609.5" y="-197.5" font-family="Helvetica,sans-Serif" font-size="10.00">mpfr::pow</text>
</a>
</g>
</g>
<!-- Node3100&#45;&gt;Node3125 -->
<g id="edge37" class="edge"><title>Node3100&#45;&gt;Node3125</title>
<path fill="none" stroke="midnightblue" d="M459.502,-260.891C479.553,-248.264 509.766,-230.522 538,-219 550.558,-213.875 564.935,-209.715 577.416,-206.609"/>
<polygon fill="midnightblue" stroke="midnightblue" points="457.591,-257.958 451.049,-266.292 461.36,-263.857 457.591,-257.958"/>
</g>
<!-- Node3126 -->
<g id="node30" class="node"><title>Node3126</title>
<g id="a_node30"><a xlink:href="namespacempfr.html#ac48d4b27943090ddad2744b82a4839b2" target="_top" xlink:title="mpfr::sqrt">
<polygon fill="none" stroke="black" points="577.5,-152.5 577.5,-171.5 641.5,-171.5 641.5,-152.5 577.5,-152.5"/>
<text text-anchor="middle" x="609.5" y="-159.5" font-family="Helvetica,sans-Serif" font-size="10.00">mpfr::sqrt</text>
</a>
</g>
</g>
<!-- Node3100&#45;&gt;Node3126 -->
<g id="edge38" class="edge"><title>Node3100&#45;&gt;Node3126</title>
<path fill="none" stroke="midnightblue" d="M463.749,-261.348C476.23,-253.86 490.718,-244.008 502,-233 522.119,-213.37 515.029,-197.201 538,-181 549.499,-172.89 564.28,-168.241 577.336,-165.576"/>
<polygon fill="midnightblue" stroke="midnightblue" points="461.988,-258.323 455.091,-266.365 465.498,-264.38 461.988,-258.323"/>
</g>
<!-- Node3102 -->
<g id="node6" class="node"><title>Node3102</title>
<g id="a_node6"><a xlink:href="classstd_1_1numeric__limits_3_01mpfr_1_1mpreal_01_4.html#ac2f7a8222ef4b03518ad0a3e247b0ff6" target="_top" xlink:title="std::numeric_limits\l\&lt; mpfr::mpreal \&gt;::epsilon">
<polygon fill="none" stroke="black" points="717,-366 717,-396 858,-396 858,-366 717,-366"/>
<text text-anchor="start" x="725" y="-384" font-family="Helvetica,sans-Serif" font-size="10.00">std::numeric_limits</text>
<text text-anchor="middle" x="787.5" y="-373" font-family="Helvetica,sans-Serif" font-size="10.00">&lt; mpfr::mpreal &gt;::epsilon</text>
</a>
</g>
</g>
<!-- Node3101&#45;&gt;Node3102 -->
<g id="edge6" class="edge"><title>Node3101&#45;&gt;Node3102</title>
<path fill="none" stroke="midnightblue" d="M668.724,-452.974C672.989,-451.22 677.13,-449.238 681,-447 700.588,-435.672 698.279,-423.71 717,-411 725.372,-405.316 734.996,-400.337 744.36,-396.153"/>
<polygon fill="midnightblue" stroke="midnightblue" points="667.424,-449.723 659.248,-456.46 669.841,-456.292 667.424,-449.723"/>
</g>
<!-- Node3103 -->
<g id="node7" class="node"><title>Node3103</title>
<g id="a_node7"><a xlink:href="namespacempfr.html#a2b277f6e7a98e7b5da7fad3a38a211ec" target="_top" xlink:title="mpfr::isEqualFuzzy">
<polygon fill="none" stroke="black" points="735,-327.5 735,-346.5 840,-346.5 840,-327.5 735,-327.5"/>
<text text-anchor="middle" x="787.5" y="-334.5" font-family="Helvetica,sans-Serif" font-size="10.00">mpfr::isEqualFuzzy</text>
</a>
</g>
</g>
<!-- Node3101&#45;&gt;Node3103 -->
<g id="edge7" class="edge"><title>Node3101&#45;&gt;Node3103</title>
<path fill="none" stroke="midnightblue" d="M675.372,-451.355C677.348,-450.026 679.233,-448.577 681,-447 713.449,-418.038 684.603,-385.02 717,-356 722.124,-351.41 728.255,-347.915 734.723,-345.256"/>
<polygon fill="midnightblue" stroke="midnightblue" points="673.241,-448.536 666.207,-456.458 676.647,-454.651 673.241,-448.536"/>
</g>
<!-- Node3104 -->
<g id="node8" class="node"><title>Node3104</title>
<g id="a_node8"><a xlink:href="namespacempfr.html#a63ac5362ad5af999b1bc94649e772dde" target="_top" xlink:title="mpfr::isEqualUlps">
<polygon fill="none" stroke="black" points="737.5,-453.5 737.5,-472.5 837.5,-472.5 837.5,-453.5 737.5,-453.5"/>
<text text-anchor="middle" x="787.5" y="-460.5" font-family="Helvetica,sans-Serif" font-size="10.00">mpfr::isEqualUlps</text>
</a>
</g>
</g>
<!-- Node3101&#45;&gt;Node3104 -->
<g id="edge8" class="edge"><title>Node3101&#45;&gt;Node3104</title>
<path fill="none" stroke="midnightblue" d="M682.24,-464.777C700.794,-464.461 720.348,-464.128 737.445,-463.836"/>
<polygon fill="midnightblue" stroke="midnightblue" points="681.995,-461.281 672.056,-464.951 682.114,-468.28 681.995,-461.281"/>
</g>
<!-- Node3101&#45;&gt;Node3105 -->
<g id="edge18" class="edge"><title>Node3101&#45;&gt;Node3105</title>
<path fill="none" stroke="midnightblue" d="M657.117,-454.226C675.627,-450.115 697.191,-446.025 717,-444 779.342,-437.628 795.591,-438.319 858,-444 878.377,-445.855 900.735,-449.723 919.44,-453.489"/>
<polygon fill="midnightblue" stroke="midnightblue" points="656.147,-450.857 647.178,-456.498 657.707,-457.681 656.147,-450.857"/>
</g>
<!-- Node3101&#45;&gt;Node3106 -->
<g id="edge10" class="edge"><title>Node3101&#45;&gt;Node3106</title>
<path fill="none" stroke="midnightblue" d="M676.372,-451.007C678,-449.772 679.548,-448.439 681,-447 723.277,-405.098 674.799,-359.978 717,-318 725.07,-309.972 736.185,-305.251 747.16,-302.5"/>
<polygon fill="midnightblue" stroke="midnightblue" points="674.323,-448.159 667.661,-456.397 678.006,-454.111 674.323,-448.159"/>
</g>
<!-- Node3104&#45;&gt;Node3105 -->
<g id="edge9" class="edge"><title>Node3104&#45;&gt;Node3105</title>
<path fill="none" stroke="midnightblue" d="M847.624,-463C870.659,-463 896.582,-463 917.869,-463"/>
<polygon fill="midnightblue" stroke="midnightblue" points="847.612,-459.5 837.612,-463 847.612,-466.5 847.612,-459.5"/>
</g>
<!-- Node3106&#45;&gt;Node3105 -->
<g id="edge17" class="edge"><title>Node3106&#45;&gt;Node3105</title>
<path fill="none" stroke="midnightblue" d="M837.488,-305.588C845.074,-308.419 852.278,-312.404 858,-318 898.114,-357.229 855.38,-398.3 894,-439 900.506,-445.857 909.099,-450.758 917.965,-454.26"/>
<polygon fill="midnightblue" stroke="midnightblue" points="838.343,-302.189 827.755,-302.586 836.279,-308.878 838.343,-302.189"/>
</g>
<!-- Node3107 -->
<g id="node11" class="node"><title>Node3107</title>
<g id="a_node11"><a xlink:href="classEigen_1_1EigenSolver.html#a99e6120839b1f65c4e1f1ba61efa264e" target="_top" xlink:title="Eigen::EigenSolver\l\&lt; CompanionMatrixType\l \&gt;::compute">
<polygon fill="none" stroke="black" points="896,-338.5 896,-379.5 1029,-379.5 1029,-338.5 896,-338.5"/>
<text text-anchor="start" x="904" y="-367.5" font-family="Helvetica,sans-Serif" font-size="10.00">Eigen::EigenSolver</text>
<text text-anchor="start" x="904" y="-356.5" font-family="Helvetica,sans-Serif" font-size="10.00">&lt; CompanionMatrixType</text>
<text text-anchor="middle" x="962.5" y="-345.5" font-family="Helvetica,sans-Serif" font-size="10.00"> &gt;::compute</text>
</a>
</g>
</g>
<!-- Node3106&#45;&gt;Node3107 -->
<g id="edge11" class="edge"><title>Node3106&#45;&gt;Node3107</title>
<path fill="none" stroke="midnightblue" d="M835.892,-311.203C843.332,-313.335 850.905,-315.633 858,-318 876.15,-324.056 895.741,-331.559 912.944,-338.485"/>
<polygon fill="midnightblue" stroke="midnightblue" points="836.813,-307.826 826.24,-308.504 834.928,-314.568 836.813,-307.826"/>
</g>
<!-- Node3108 -->
<g id="node12" class="node"><title>Node3108</title>
<g id="a_node12"><a xlink:href="classSystemBase.html#a4ffed53296033614e4701f01363e6b3f" target="_top" xlink:title="SystemBase\&lt; StateTwo\l \&gt;::getConnections">
<polygon fill="none" stroke="black" points="897,-289 897,-319 1028,-319 1028,-289 897,-289"/>
<text text-anchor="start" x="905" y="-307" font-family="Helvetica,sans-Serif" font-size="10.00">SystemBase&lt; StateTwo</text>
<text text-anchor="middle" x="962.5" y="-296" font-family="Helvetica,sans-Serif" font-size="10.00"> &gt;::getConnections</text>
</a>
</g>
</g>
<!-- Node3106&#45;&gt;Node3108 -->
<g id="edge12" class="edge"><title>Node3106&#45;&gt;Node3108</title>
<path fill="none" stroke="midnightblue" d="M837.936,-300.429C856.307,-300.96 877.429,-301.57 896.952,-302.134"/>
<polygon fill="midnightblue" stroke="midnightblue" points="837.853,-296.925 827.756,-300.135 837.651,-303.922 837.853,-296.925"/>
</g>
<!-- Node3109 -->
<g id="node13" class="node"><title>Node3109</title>
<g id="a_node13"><a xlink:href="classSystemBase.html#a36f4a02104e9f68e60732267bc6eafbc" target="_top" xlink:title="SystemBase\&lt; StateTwo\l \&gt;::getMainStates">
<polygon fill="none" stroke="black" points="897,-240 897,-270 1028,-270 1028,-240 897,-240"/>
<text text-anchor="start" x="905" y="-258" font-family="Helvetica,sans-Serif" font-size="10.00">SystemBase&lt; StateTwo</text>
<text text-anchor="middle" x="962.5" y="-247" font-family="Helvetica,sans-Serif" font-size="10.00"> &gt;::getMainStates</text>
</a>
</g>
</g>
<!-- Node3106&#45;&gt;Node3109 -->
<g id="edge13" class="edge"><title>Node3106&#45;&gt;Node3109</title>
<path fill="none" stroke="midnightblue" d="M835.785,-286.974C856.305,-281.755 880.561,-275.586 902.266,-270.065"/>
<polygon fill="midnightblue" stroke="midnightblue" points="834.867,-283.596 826.038,-289.453 836.593,-290.38 834.867,-283.596"/>
</g>
<!-- Node3110 -->
<g id="node14" class="node"><title>Node3110</title>
<g id="a_node14"><a xlink:href="classSystemBase.html#af68a98c6f66a1ef06fa78fbe9c209ba7" target="_top" xlink:title="SystemBase\&lt; StateTwo\l \&gt;::getVectorindex">
<polygon fill="none" stroke="black" points="897,-191 897,-221 1028,-221 1028,-191 897,-191"/>
<text text-anchor="start" x="905" y="-209" font-family="Helvetica,sans-Serif" font-size="10.00">SystemBase&lt; StateTwo</text>
<text text-anchor="middle" x="962.5" y="-198" font-family="Helvetica,sans-Serif" font-size="10.00"> &gt;::getVectorindex</text>
</a>
</g>
</g>
<!-- Node3106&#45;&gt;Node3110 -->
<g id="edge14" class="edge"><title>Node3106&#45;&gt;Node3110</title>
<path fill="none" stroke="midnightblue" d="M809.214,-283.316C829.87,-268.201 862.916,-245.416 894,-230 900.463,-226.795 907.462,-223.81 914.422,-221.11"/>
<polygon fill="midnightblue" stroke="midnightblue" points="806.855,-280.707 800.905,-289.473 811.023,-286.332 806.855,-280.707"/>
</g>
<!-- Node3111 -->
<g id="node15" class="node"><title>Node3111</title>
<g id="a_node15"><a xlink:href="classstd_1_1numeric__limits_3_01mpfr_1_1mpreal_01_4.html#afe87477420320b20ef726e383e06a950" target="_top" xlink:title="std::numeric_limits\l\&lt; mpfr::mpreal \&gt;::lowest">
<polygon fill="none" stroke="black" points="894,-142 894,-172 1031,-172 1031,-142 894,-142"/>
<text text-anchor="start" x="902" y="-160" font-family="Helvetica,sans-Serif" font-size="10.00">std::numeric_limits</text>
<text text-anchor="middle" x="962.5" y="-149" font-family="Helvetica,sans-Serif" font-size="10.00">&lt; mpfr::mpreal &gt;::lowest</text>
</a>
</g>
</g>
<!-- Node3106&#45;&gt;Node3111 -->
<g id="edge15" class="edge"><title>Node3106&#45;&gt;Node3111</title>
<path fill="none" stroke="midnightblue" d="M800.305,-280.846C817.85,-255.198 853.162,-208.428 894,-181 899.059,-177.602 904.655,-174.626 910.396,-172.034"/>
<polygon fill="midnightblue" stroke="midnightblue" points="797.323,-279.008 794.667,-289.265 803.139,-282.903 797.323,-279.008"/>
</g>
<!-- Node3112 -->
<g id="node16" class="node"><title>Node3112</title>
<g id="a_node16"><a xlink:href="classstd_1_1numeric__limits_3_01mpfr_1_1mpreal_01_4.html#af3b5798dea70eba7566b8558177c5cb7" target="_top" xlink:title="std::numeric_limits\l\&lt; mpfr::mpreal \&gt;::max">
<polygon fill="none" stroke="black" points="898.5,-399 898.5,-429 1026.5,-429 1026.5,-399 898.5,-399"/>
<text text-anchor="start" x="906.5" y="-417" font-family="Helvetica,sans-Serif" font-size="10.00">std::numeric_limits</text>
<text text-anchor="middle" x="962.5" y="-406" font-family="Helvetica,sans-Serif" font-size="10.00">&lt; mpfr::mpreal &gt;::max</text>
</a>
</g>
</g>
<!-- Node3106&#45;&gt;Node3112 -->
<g id="edge16" class="edge"><title>Node3106&#45;&gt;Node3112</title>
<path fill="none" stroke="midnightblue" d="M837.183,-306.676C844.681,-309.388 851.934,-313.052 858,-318 885.417,-340.362 867.591,-365.456 894,-389 898.291,-392.825 903.219,-396.083 908.417,-398.854"/>
<polygon fill="midnightblue" stroke="midnightblue" points="838.214,-303.331 827.627,-303.724 836.148,-310.02 838.214,-303.331"/>
</g>
<!-- Node3113&#45;&gt;Node3105 -->
<g id="edge22" class="edge"><title>Node3113&#45;&gt;Node3105</title>
<path fill="none" stroke="midnightblue" d="M655.944,-516.229C683.412,-523.573 713.749,-531.58 717,-532 779.15,-540.033 798.022,-550.16 858,-532 896.858,-520.235 934.462,-488.538 951.697,-472.529"/>
<polygon fill="midnightblue" stroke="midnightblue" points="656.575,-512.774 646.01,-513.568 654.764,-519.536 656.575,-512.774"/>
</g>
<!-- Node3114 -->
<g id="node18" class="node"><title>Node3114</title>
<g id="a_node18"><a xlink:href="classstd_1_1numeric__limits_3_01mpfr_1_1mpreal_01_4.html#ae26e5f5575ce3fcdc7571353d5943447" target="_top" xlink:title="std::numeric_limits\l\&lt; mpfr::mpreal \&gt;::min">
<polygon fill="none" stroke="black" points="725,-492 725,-522 850,-522 850,-492 725,-492"/>
<text text-anchor="start" x="733" y="-510" font-family="Helvetica,sans-Serif" font-size="10.00">std::numeric_limits</text>
<text text-anchor="middle" x="787.5" y="-499" font-family="Helvetica,sans-Serif" font-size="10.00">&lt; mpfr::mpreal &gt;::min</text>
</a>
</g>
</g>
<!-- Node3113&#45;&gt;Node3114 -->
<g id="edge21" class="edge"><title>Node3113&#45;&gt;Node3114</title>
<path fill="none" stroke="midnightblue" d="M658.312,-504.815C678.838,-505.165 703.078,-505.578 724.923,-505.95"/>
<polygon fill="midnightblue" stroke="midnightblue" points="658.315,-501.315 648.256,-504.644 658.195,-508.314 658.315,-501.315"/>
</g>
<!-- Node3117&#45;&gt;Node3098 -->
<g id="edge26" class="edge"><title>Node3117&#45;&gt;Node3098</title>
<path fill="none" stroke="midnightblue" d="M551.676,-529.122C546.944,-527.323 542.323,-525.291 538,-523 410.633,-455.493 291.054,-322.162 259.544,-285.515"/>
<polygon fill="midnightblue" stroke="midnightblue" points="550.89,-532.553 561.485,-532.496 553.167,-525.934 550.89,-532.553"/>
</g>
<!-- Node3118&#45;&gt;Node3098 -->
<g id="edge28" class="edge"><title>Node3118&#45;&gt;Node3098</title>
<path fill="none" stroke="midnightblue" d="M566.916,-99.3062C556.955,-103.496 546.695,-108.711 538,-115 518.08,-129.409 521.53,-142.066 502,-157 430.861,-211.398 330.859,-249.568 281.489,-266.375"/>
<polygon fill="midnightblue" stroke="midnightblue" points="568.294,-102.525 576.314,-95.6017 565.727,-96.0129 568.294,-102.525"/>
</g>
<!-- Node3122&#45;&gt;Node3098 -->
<g id="edge33" class="edge"><title>Node3122&#45;&gt;Node3098</title>
<path fill="none" stroke="midnightblue" d="M557.377,-60.3052C550.782,-62.3208 544.178,-64.5588 538,-67 458.856,-98.2717 437.229,-106.143 369,-157 322.443,-191.703 276.915,-244.814 259.224,-266.39"/>
<polygon fill="midnightblue" stroke="midnightblue" points="558.358,-63.6651 566.983,-57.5134 556.404,-56.9432 558.358,-63.6651"/>
</g>
<!-- Node3124&#45;&gt;Node3098 -->
<g id="edge36" class="edge"><title>Node3124&#45;&gt;Node3098</title>
<path fill="none" stroke="midnightblue" d="M531.056,-17.0272C480.56,-24.975 415.624,-41.9111 369,-78 301.04,-130.604 264.354,-234.506 254.347,-266.439"/>
<polygon fill="midnightblue" stroke="midnightblue" points="531.577,-20.4883 540.952,-15.5545 530.546,-13.5645 531.577,-20.4883"/>
</g>
</g>
</svg>
        <g id="navigator" transform="translate(0 0)" fill="#404254">
                <rect fill="#f2f5e9" fill-opacity="0.5" stroke="#606060" stroke-width=".5" x="0" y="0" width="60" height="60"/>
                <use id="zoomplus" xlink:href="#zoomPlus" x="17" y="9" onmousedown="handleZoom(evt,'in')"/>
                <use id="zoomminus" xlink:href="#zoomMin" x="42" y="9" onmousedown="handleZoom(evt,'out')"/>
                <use id="reset" xlink:href="#resetDef" x="30" y="36" onmousedown="handleReset()"/>
                <g id="arrowUp" xlink:href="#dirArrow" transform="translate(30 24)" onmousedown="handlePan(0,-1)">
                  <use xlink:href="#rim" fill="#404040">
                        <set attributeName="fill" to="#808080" begin="arrowUp.mouseover" end="arrowUp.mouseout"/>
                  </use>
                  <path fill="none" stroke="white" stroke-width="1.5" d="M0,-3.0v7 M-2.5,-0.5L0,-3.0L2.5,-0.5"/>
                </g>
                <g id="arrowRight" xlink:href="#dirArrow" transform="rotate(90) translate(36 -43)" onmousedown="handlePan(1,0)">
                  <use xlink:href="#rim" fill="#404040">
                        <set attributeName="fill" to="#808080" begin="arrowRight.mouseover" end="arrowRight.mouseout"/>
                  </use>
                  <path fill="none" stroke="white" stroke-width="1.5" d="M0,-3.0v7 M-2.5,-0.5L0,-3.0L2.5,-0.5"/>
                </g>
                <g id="arrowDown" xlink:href="#dirArrow" transform="rotate(180) translate(-30 -48)" onmousedown="handlePan(0,1)">
                  <use xlink:href="#rim" fill="#404040">
                        <set attributeName="fill" to="#808080" begin="arrowDown.mouseover" end="arrowDown.mouseout"/>
                  </use>
                  <path fill="none" stroke="white" stroke-width="1.5" d="M0,-3.0v7 M-2.5,-0.5L0,-3.0L2.5,-0.5"/>
                </g>
                <g id="arrowLeft" xlink:href="#dirArrow" transform="rotate(270) translate(-36 17)" onmousedown="handlePan(-1,0)">
                  <use xlink:href="#rim" fill="#404040">
                        <set attributeName="fill" to="#808080" begin="arrowLeft.mouseover" end="arrowLeft.mouseout"/>
                  </use>
                  <path fill="none" stroke="white" stroke-width="1.5" d="M0,-3.0v7 M-2.5,-0.5L0,-3.0L2.5,-0.5"/>
                </g>
        </g>
        <svg viewBox="0 0 15 15" width="100%" height="30px" preserveAspectRatio="xMaxYMin meet">
         <g id="arrow_out" transform="scale(0.3 0.3)">
          <a xlink:href="classmpfr_1_1mpreal_a92c6a0583c16f828e4a4a0a43e817874_icgraph_org.svg" target="_base">
           <rect id="button" ry="5" rx="5" y="6" x="6" height="38" width="38"
                fill="#f2f5e9" fill-opacity="0.5" stroke="#606060" stroke-width="1.0"/>
           <path id="arrow"
             d="M 11.500037,31.436501 C 11.940474,20.09759 22.043105,11.32322 32.158766,21.979434 L 37.068811,17.246167 C 37.068811,17.246167 37.088388,32 37.088388,32 L 22.160133,31.978069 C 22.160133,31.978069 26.997745,27.140456 26.997745,27.140456 C 18.528582,18.264221 13.291696,25.230495 11.500037,31.436501 z"
             style="fill:#404040;"/>
          </a>
         </g>
        </svg>
</svg>
