<?xml version="1.0" encoding="UTF-8" standalone="no"?>
<!DOCTYPE svg PUBLIC "-//W3C//DTD SVG 1.1//EN"
 "http://www.w3.org/Graphics/SVG/1.1/DTD/svg11.dtd">
<!-- Generated by graphviz version 2.38.0 (20140413.2041)
 -->
<!-- Title: MandelbrotThread::render Pages: 1 -->
<svg width="548pt" height="39pt"
 viewBox="0.00 0.00 548.00 39.00" xmlns="http://www.w3.org/2000/svg" xmlns:xlink="http://www.w3.org/1999/xlink">
<g id="graph0" class="graph" transform="scale(1 1) rotate(0) translate(4 35)">
<title>MandelbrotThread::render</title>
<!-- Node9 -->
<g id="node1" class="node"><title>Node9</title>
<polygon fill="#bfbfbf" stroke="black" points="0,-6 0,-25 141,-25 141,-6 0,-6"/>
<text text-anchor="middle" x="70.5" y="-13" font-family="Helvetica,sans-Serif" font-size="10.00">MandelbrotThread::render</text>
</g>
<!-- Node10 -->
<g id="node2" class="node"><title>Node10</title>
<g id="a_node2"><a xlink:href="classMandelbrotThread.html#a9a4ef89fdd1b0b92419ba484dd33a036" target="_top" xlink:title="MandelbrotThread::Mandelbrot\lThread">
<polygon fill="none" stroke="black" points="177,-0.5 177,-30.5 341,-30.5 341,-0.5 177,-0.5"/>
<text text-anchor="start" x="185" y="-18.5" font-family="Helvetica,sans-Serif" font-size="10.00">MandelbrotThread::Mandelbrot</text>
<text text-anchor="middle" x="259" y="-7.5" font-family="Helvetica,sans-Serif" font-size="10.00">Thread</text>
</a>
</g>
</g>
<!-- Node9&#45;&gt;Node10 -->
<g id="edge1" class="edge"><title>Node9&#45;&gt;Node10</title>
<path fill="none" stroke="midnightblue" d="M151.371,-15.5C159.776,-15.5 168.329,-15.5 176.749,-15.5"/>
<polygon fill="midnightblue" stroke="midnightblue" points="151.211,-12.0001 141.211,-15.5 151.211,-19.0001 151.211,-12.0001"/>
</g>
<!-- Node11 -->
<g id="node3" class="node"><title>Node11</title>
<g id="a_node3"><a xlink:href="classMandelbrotWidget.html#a591a68d3bfa1a5c69268dc8ea4c0a402" target="_top" xlink:title="MandelbrotWidget::Mandelbrot\lWidget">
<polygon fill="none" stroke="black" points="377,-0.5 377,-30.5 540,-30.5 540,-0.5 377,-0.5"/>
<text text-anchor="start" x="385" y="-18.5" font-family="Helvetica,sans-Serif" font-size="10.00">MandelbrotWidget::Mandelbrot</text>
<text text-anchor="middle" x="458.5" y="-7.5" font-family="Helvetica,sans-Serif" font-size="10.00">Widget</text>
</a>
</g>
</g>
<!-- Node10&#45;&gt;Node11 -->
<g id="edge2" class="edge"><title>Node10&#45;&gt;Node11</title>
<path fill="none" stroke="midnightblue" d="M351.217,-15.5C359.805,-15.5 368.469,-15.5 376.948,-15.5"/>
<polygon fill="midnightblue" stroke="midnightblue" points="351.186,-12.0001 341.186,-15.5 351.186,-19.0001 351.186,-12.0001"/>
</g>
</g>
</svg>
