<?xml version="1.0" encoding="UTF-8" standalone="no"?>
<!DOCTYPE svg PUBLIC "-//W3C//DTD SVG 1.1//EN"
 "http://www.w3.org/Graphics/SVG/1.1/DTD/svg11.dtd">
<!-- Generated by graphviz version 2.38.0 (20140413.2041)
 -->
<!-- Title: Eigen::FullPivLU::solve Pages: 1 -->
<svg width="312pt" height="192pt"
 viewBox="0.00 0.00 312.00 192.00" xmlns="http://www.w3.org/2000/svg" xmlns:xlink="http://www.w3.org/1999/xlink">
<g id="graph0" class="graph" transform="scale(1 1) rotate(0) translate(4 188)">
<title>Eigen::FullPivLU::solve</title>
<!-- Node173 -->
<g id="node1" class="node"><title>Node173</title>
<polygon fill="#bfbfbf" stroke="black" points="0,-76.5 0,-95.5 120,-95.5 120,-76.5 0,-76.5"/>
<text text-anchor="middle" x="60" y="-83.5" font-family="Helvetica,sans-Serif" font-size="10.00">Eigen::FullPivLU::solve</text>
</g>
<!-- Node174 -->
<g id="node2" class="node"><title>Node174</title>
<g id="a_node2"><a xlink:href="nomalloc_8cpp.html#ac6a1cc3b954c50458ab44676411eece1" target="_top" xlink:title="ctms_decompositions">
<polygon fill="none" stroke="black" points="169,-164.5 169,-183.5 291,-183.5 291,-164.5 169,-164.5"/>
<text text-anchor="middle" x="230" y="-171.5" font-family="Helvetica,sans-Serif" font-size="10.00">ctms_decompositions</text>
</a>
</g>
</g>
<!-- Node173&#45;&gt;Node174 -->
<g id="edge1" class="edge"><title>Node173&#45;&gt;Node174</title>
<path fill="none" stroke="midnightblue" d="M79.261,-102.507C97.4708,-118.146 126.857,-141.23 156,-155 164.052,-158.804 172.977,-161.928 181.743,-164.465"/>
<polygon fill="midnightblue" stroke="midnightblue" points="81.0963,-99.4616 71.2694,-95.5015 76.482,-104.725 81.0963,-99.4616"/>
</g>
<!-- Node175 -->
<g id="node3" class="node"><title>Node175</title>
<g id="a_node3"><a xlink:href="structEigen_1_1SplineFitting.html#a0317c97f2b57ccf5dcf077409d51e54d" target="_top" xlink:title="Fits an interpolating spline to the given data points and derivatives. ">
<polygon fill="none" stroke="black" points="156,-115 156,-145 304,-145 304,-115 156,-115"/>
<text text-anchor="start" x="164" y="-133" font-family="Helvetica,sans-Serif" font-size="10.00">Eigen::SplineFitting</text>
<text text-anchor="middle" x="230" y="-122" font-family="Helvetica,sans-Serif" font-size="10.00">::InterpolateWithDerivatives</text>
</a>
</g>
</g>
<!-- Node173&#45;&gt;Node175 -->
<g id="edge2" class="edge"><title>Node173&#45;&gt;Node175</title>
<path fill="none" stroke="midnightblue" d="M107.19,-98.0974C127.06,-103.301 150.496,-109.439 171.478,-114.935"/>
<polygon fill="midnightblue" stroke="midnightblue" points="108.014,-94.6952 97.4535,-95.5473 106.24,-101.467 108.014,-94.6952"/>
</g>
<!-- Node176 -->
<g id="node4" class="node"><title>Node176</title>
<g id="a_node4"><a xlink:href="test_2lu_8cpp.html#a7754798ba2c63ea970514b317e050b7d" target="_top" xlink:title="lu_invertible">
<polygon fill="none" stroke="black" points="193,-76.5 193,-95.5 267,-95.5 267,-76.5 193,-76.5"/>
<text text-anchor="middle" x="230" y="-83.5" font-family="Helvetica,sans-Serif" font-size="10.00">lu_invertible</text>
</a>
</g>
</g>
<!-- Node173&#45;&gt;Node176 -->
<g id="edge3" class="edge"><title>Node173&#45;&gt;Node176</title>
<path fill="none" stroke="midnightblue" d="M130.295,-86C151.737,-86 174.498,-86 192.753,-86"/>
<polygon fill="midnightblue" stroke="midnightblue" points="130.231,-82.5001 120.231,-86 130.23,-89.5001 130.231,-82.5001"/>
</g>
<!-- Node177 -->
<g id="node5" class="node"><title>Node177</title>
<g id="a_node5"><a xlink:href="test_2lu_8cpp.html#af8b90dd33431d04306d5c675952d4591" target="_top" xlink:title="lu_non_invertible">
<polygon fill="none" stroke="black" points="181.5,-38.5 181.5,-57.5 278.5,-57.5 278.5,-38.5 181.5,-38.5"/>
<text text-anchor="middle" x="230" y="-45.5" font-family="Helvetica,sans-Serif" font-size="10.00">lu_non_invertible</text>
</a>
</g>
</g>
<!-- Node173&#45;&gt;Node177 -->
<g id="edge4" class="edge"><title>Node173&#45;&gt;Node177</title>
<path fill="none" stroke="midnightblue" d="M113.276,-74.1757C136.961,-68.8184 164.59,-62.5689 186.911,-57.5201"/>
<polygon fill="midnightblue" stroke="midnightblue" points="112.375,-70.791 103.393,-76.411 113.919,-77.6185 112.375,-70.791"/>
</g>
<!-- Node178 -->
<g id="node6" class="node"><title>Node178</title>
<g id="a_node6"><a xlink:href="test_2lu_8cpp.html#a04b439edcc62d2ff657795ffa6c72b63" target="_top" xlink:title="lu_verify_assert">
<polygon fill="none" stroke="black" points="184.5,-0.5 184.5,-19.5 275.5,-19.5 275.5,-0.5 184.5,-0.5"/>
<text text-anchor="middle" x="230" y="-7.5" font-family="Helvetica,sans-Serif" font-size="10.00">lu_verify_assert</text>
</a>
</g>
</g>
<!-- Node173&#45;&gt;Node178 -->
<g id="edge5" class="edge"><title>Node173&#45;&gt;Node178</title>
<path fill="none" stroke="midnightblue" d="M82.5467,-70.6193C101.209,-57.9109 129.329,-40.1983 156,-29 164.935,-25.2483 174.804,-22.078 184.321,-19.4664"/>
<polygon fill="midnightblue" stroke="midnightblue" points="80.4205,-67.8343 74.1927,-76.4054 84.4063,-73.5888 80.4205,-67.8343"/>
</g>
</g>
</svg>
