<?xml version="1.0" encoding="UTF-8" standalone="no"?>
<!DOCTYPE svg PUBLIC "-//W3C//DTD SVG 1.1//EN"
 "http://www.w3.org/Graphics/SVG/1.1/DTD/svg11.dtd">
<!-- Generated by graphviz version 2.38.0 (20140413.2041)
 -->
<!-- Title: Eigen::SparseVector::insert Pages: 1 -->
<svg width="201pt" height="104pt"
 viewBox="0.00 0.00 201.00 104.00" xmlns="http://www.w3.org/2000/svg" xmlns:xlink="http://www.w3.org/1999/xlink">
<g id="graph0" class="graph" transform="scale(1 1) rotate(0) translate(4 100)">
<title>Eigen::SparseVector::insert</title>
<!-- Node65 -->
<g id="node1" class="node"><title>Node65</title>
<polygon fill="#bfbfbf" stroke="black" points="0,-33 0,-63 113,-63 113,-33 0,-33"/>
<text text-anchor="start" x="8" y="-51" font-family="Helvetica,sans-Serif" font-size="10.00">Eigen::SparseVector</text>
<text text-anchor="middle" x="56.5" y="-40" font-family="Helvetica,sans-Serif" font-size="10.00">::insert</text>
</g>
<!-- Node66 -->
<g id="node2" class="node"><title>Node66</title>
<g id="a_node2"><a xlink:href="MatrixBase__col_8cpp.html#aa168d9544aa6d49fce0cbfc0bec849b0" target="_top" xlink:title="col">
<polygon fill="none" stroke="black" points="156,-76.5 156,-95.5 186,-95.5 186,-76.5 156,-76.5"/>
<text text-anchor="middle" x="171" y="-83.5" font-family="Helvetica,sans-Serif" font-size="10.00">col</text>
</a>
</g>
</g>
<!-- Node65&#45;&gt;Node66 -->
<g id="edge1" class="edge"><title>Node65&#45;&gt;Node66</title>
<path fill="none" stroke="midnightblue" d="M101.963,-63.0186C117.18,-68.1586 133.602,-73.7056 146.5,-78.0621"/>
<polygon fill="midnightblue" stroke="midnightblue" points="145.403,-81.3858 155.997,-81.2701 147.643,-74.7539 145.403,-81.3858"/>
</g>
<!-- Node67 -->
<g id="node3" class="node"><title>Node67</title>
<g id="a_node3"><a xlink:href="SparseMatrix__coeffs_8cpp.html#aefe497dc18ca05fbf160090a4e4d5c33" target="_top" xlink:title="insert">
<polygon fill="none" stroke="black" points="149,-38.5 149,-57.5 193,-57.5 193,-38.5 149,-38.5"/>
<text text-anchor="middle" x="171" y="-45.5" font-family="Helvetica,sans-Serif" font-size="10.00">insert</text>
</a>
</g>
</g>
<!-- Node65&#45;&gt;Node67 -->
<g id="edge2" class="edge"><title>Node65&#45;&gt;Node67</title>
<path fill="none" stroke="midnightblue" d="M113.091,-48C121.844,-48 130.619,-48 138.567,-48"/>
<polygon fill="midnightblue" stroke="midnightblue" points="138.813,-51.5001 148.813,-48 138.813,-44.5001 138.813,-51.5001"/>
</g>
<!-- Node68 -->
<g id="node4" class="node"><title>Node68</title>
<g id="a_node4"><a xlink:href="MatrixBase__row_8cpp.html#a64ef8efef59f875033a27e7cbbc879ec" target="_top" xlink:title="row">
<polygon fill="none" stroke="black" points="154.5,-0.5 154.5,-19.5 187.5,-19.5 187.5,-0.5 154.5,-0.5"/>
<text text-anchor="middle" x="171" y="-7.5" font-family="Helvetica,sans-Serif" font-size="10.00">row</text>
</a>
</g>
</g>
<!-- Node65&#45;&gt;Node68 -->
<g id="edge3" class="edge"><title>Node65&#45;&gt;Node68</title>
<path fill="none" stroke="midnightblue" d="M101.963,-32.9814C116.454,-28.0868 132.037,-22.8231 144.629,-18.5698"/>
<polygon fill="midnightblue" stroke="midnightblue" points="146.059,-21.7812 154.413,-15.265 143.819,-15.1493 146.059,-21.7812"/>
</g>
</g>
</svg>
