<?xml version="1.0" encoding="UTF-8" standalone="no"?>
<!DOCTYPE svg PUBLIC "-//W3C//DTD SVG 1.1//EN"
 "http://www.w3.org/Graphics/SVG/1.1/DTD/svg11.dtd">
<!-- Generated by graphviz version 2.38.0 (20140413.2041)
 -->
<!-- Title: BtlConfig::skipAction Pages: 1 -->
<svg width="235pt" height="66pt"
 viewBox="0.00 0.00 235.00 66.00" xmlns="http://www.w3.org/2000/svg" xmlns:xlink="http://www.w3.org/1999/xlink">
<g id="graph0" class="graph" transform="scale(1 1) rotate(0) translate(4 62)">
<title>BtlConfig::skipAction</title>
<!-- Node6 -->
<g id="node1" class="node"><title>Node6</title>
<polygon fill="#bfbfbf" stroke="black" points="0,-19.5 0,-38.5 114,-38.5 114,-19.5 0,-19.5"/>
<text text-anchor="middle" x="57" y="-26.5" font-family="Helvetica,sans-Serif" font-size="10.00">BtlConfig::skipAction</text>
</g>
<!-- Node7 -->
<g id="node2" class="node"><title>Node7</title>
<g id="a_node2"><a xlink:href="bench_8hh.html#ad6e40d9b206134fb8fb7efcdf4d7d82b" target="_top" xlink:title="bench">
<polygon fill="none" stroke="black" points="165.5,-38.5 165.5,-57.5 211.5,-57.5 211.5,-38.5 165.5,-38.5"/>
<text text-anchor="middle" x="188.5" y="-45.5" font-family="Helvetica,sans-Serif" font-size="10.00">bench</text>
</a>
</g>
</g>
<!-- Node6&#45;&gt;Node7 -->
<g id="edge1" class="edge"><title>Node6&#45;&gt;Node7</title>
<path fill="none" stroke="midnightblue" d="M124.257,-38.7212C139.036,-40.8894 153.709,-43.0423 165.197,-44.7277"/>
<polygon fill="midnightblue" stroke="midnightblue" points="124.45,-35.212 114.047,-37.2232 123.433,-42.1378 124.45,-35.212"/>
</g>
<!-- Node8 -->
<g id="node3" class="node"><title>Node8</title>
<g id="a_node3"><a xlink:href="bench__static_8hh.html#a47bddd2b514260f4e819dc459ba078c3" target="_top" xlink:title="bench_static">
<polygon fill="none" stroke="black" points="150,-0.5 150,-19.5 227,-19.5 227,-0.5 150,-0.5"/>
<text text-anchor="middle" x="188.5" y="-7.5" font-family="Helvetica,sans-Serif" font-size="10.00">bench_static</text>
</a>
</g>
</g>
<!-- Node6&#45;&gt;Node8 -->
<g id="edge2" class="edge"><title>Node6&#45;&gt;Node8</title>
<path fill="none" stroke="midnightblue" d="M123.973,-19.3205C132.784,-18.0278 141.565,-16.7395 149.662,-15.5515"/>
<polygon fill="midnightblue" stroke="midnightblue" points="123.433,-15.8622 114.047,-20.7768 124.45,-22.788 123.433,-15.8622"/>
</g>
</g>
</svg>
