<?xml version="1.0" encoding="UTF-8" standalone="no"?>
<!DOCTYPE svg PUBLIC "-//W3C//DTD SVG 1.1//EN"
 "http://www.w3.org/Graphics/SVG/1.1/DTD/svg11.dtd">
<!-- Generated by graphviz version 2.38.0 (20140413.2041)
 -->
<!-- Title: Eigen::MatrixWrapper&lt; ExpressionType &gt; Pages: 1 -->
<!--zoomable 100 -->
<svg id="main" version="1.1" xmlns="http://www.w3.org/2000/svg" xmlns:xlink="http://www.w3.org/1999/xlink" xml:space="preserve" onload="init(evt)">
<style type="text/css"><![CDATA[
.edge:hover path { stroke: red; }
.edge:hover polygon { stroke: red; fill: red; }
]]></style>
<script type="text/javascript"><![CDATA[
var edges = document.getElementsByTagName('g');
if (edges && edges.length) {
  for (var i=0;i<edges.length;i++) {
    if (edges[i].id.substr(0,4)=='edge') {
      edges[i].setAttribute('class','edge');
    }
  }
}
]]></script>
        <defs>
                <circle id="rim" cx="0" cy="0" r="7"/>
                <circle id="rim2" cx="0" cy="0" r="3.5"/>
                <g id="zoomPlus">
                        <use xlink:href="#rim" fill="#404040">
                                <set attributeName="fill" to="#808080" begin="zoomplus.mouseover" end="zoomplus.mouseout"/>
                        </use>
                        <path d="M-4,0h8M0,-4v8" fill="none" stroke="white" stroke-width="1.5" pointer-events="none"/>
                </g>
                <g id="zoomMin">
                        <use xlink:href="#rim" fill="#404040">
                                <set attributeName="fill" to="#808080" begin="zoomminus.mouseover" end="zoomminus.mouseout"/>
                        </use>
                        <path d="M-4,0h8" fill="none" stroke="white" stroke-width="1.5" pointer-events="none"/>
                </g>
                <g id="dirArrow">
                        <path fill="none" stroke="white" stroke-width="1.5" d="M0,-3.0v7 M-2.5,-0.5L0,-3.0L2.5,-0.5"/>
                </g>
               <g id="resetDef">
                       <use xlink:href="#rim2" fill="#404040">
                               <set attributeName="fill" to="#808080" begin="reset.mouseover" end="reset.mouseout"/>
                       </use>
               </g>
        </defs>

<script type="text/javascript">
var viewWidth = 756;
var viewHeight = 100;
var sectionId = 'dynsection-1';
</script>
<script xlink:href="svgpan.js"/>
<svg id="graph" class="graph">
<g id="viewport">
<title>Eigen::MatrixWrapper&lt; ExpressionType &gt;</title>
<!-- Node4 -->
<g id="node1" class="node"><title>Node4</title>
<polygon fill="#bfbfbf" stroke="black" points="631,-20.5 631,-50.5 748,-50.5 748,-20.5 631,-20.5"/>
<text text-anchor="start" x="639" y="-38.5" font-family="Helvetica,sans-Serif" font-size="10.00">Eigen::MatrixWrapper</text>
<text text-anchor="middle" x="689.5" y="-27.5" font-family="Helvetica,sans-Serif" font-size="10.00">&lt; ExpressionType &gt;</text>
</g>
<!-- Node5 -->
<g id="node2" class="node"><title>Node5</title>
<g id="a_node2"><a xlink:href="classEigen_1_1MatrixBase.html" target="_top" xlink:title="Eigen::MatrixBase\&lt;\l MatrixWrapper\&lt; Expression\lType \&gt; \&gt;">
<polygon fill="none" stroke="black" points="372,-50 372,-91 523,-91 523,-50 372,-50"/>
<text text-anchor="start" x="380" y="-79" font-family="Helvetica,sans-Serif" font-size="10.00">Eigen::MatrixBase&lt;</text>
<text text-anchor="start" x="380" y="-68" font-family="Helvetica,sans-Serif" font-size="10.00"> MatrixWrapper&lt; Expression</text>
<text text-anchor="middle" x="447.5" y="-57" font-family="Helvetica,sans-Serif" font-size="10.00">Type &gt; &gt;</text>
</a>
</g>
</g>
<!-- Node5&#45;&gt;Node4 -->
<g id="edge1" class="edge"><title>Node5&#45;&gt;Node4</title>
<path fill="none" stroke="midnightblue" d="M533.019,-58.1743C565.338,-53.4611 601.43,-48.1977 630.699,-43.9293"/>
<polygon fill="midnightblue" stroke="midnightblue" points="532.512,-54.7111 523.122,-59.6176 533.522,-61.6378 532.512,-54.7111"/>
</g>
<!-- Node6 -->
<g id="node3" class="node"><title>Node6</title>
<g id="a_node3"><a xlink:href="classEigen_1_1DenseBase.html" target="_top" xlink:title="Base class for all dense matrices, vectors, and arrays. ">
<polygon fill="none" stroke="black" points="171,-55.5 171,-85.5 333,-85.5 333,-55.5 171,-55.5"/>
<text text-anchor="start" x="179" y="-73.5" font-family="Helvetica,sans-Serif" font-size="10.00">Eigen::DenseBase&lt; Matrix</text>
<text text-anchor="middle" x="252" y="-62.5" font-family="Helvetica,sans-Serif" font-size="10.00">Wrapper&lt; ExpressionType &gt; &gt;</text>
</a>
</g>
</g>
<!-- Node6&#45;&gt;Node5 -->
<g id="edge2" class="edge"><title>Node6&#45;&gt;Node5</title>
<path fill="none" stroke="midnightblue" d="M343.359,-70.5C352.858,-70.5 362.44,-70.5 371.736,-70.5"/>
<polygon fill="midnightblue" stroke="midnightblue" points="343.101,-67.0001 333.101,-70.5 343.101,-74.0001 343.101,-67.0001"/>
</g>
<!-- Node7 -->
<g id="node4" class="node"><title>Node7</title>
<g id="a_node4"><a xlink:href="classEigen_1_1DenseCoeffsBase.html" target="_top" xlink:title="Eigen::DenseCoeffsBase\l\&lt; Derived \&gt;">
<polygon fill="none" stroke="black" points="0,-55.5 0,-85.5 134,-85.5 134,-55.5 0,-55.5"/>
<text text-anchor="start" x="8" y="-73.5" font-family="Helvetica,sans-Serif" font-size="10.00">Eigen::DenseCoeffsBase</text>
<text text-anchor="middle" x="67" y="-62.5" font-family="Helvetica,sans-Serif" font-size="10.00">&lt; Derived &gt;</text>
</a>
</g>
</g>
<!-- Node7&#45;&gt;Node6 -->
<g id="edge3" class="edge"><title>Node7&#45;&gt;Node6</title>
<path fill="none" stroke="midnightblue" d="M144.304,-70.5C153.116,-70.5 162.123,-70.5 170.983,-70.5"/>
<polygon fill="midnightblue" stroke="midnightblue" points="144.067,-67.0001 134.067,-70.5 144.067,-74.0001 144.067,-67.0001"/>
</g>
<!-- Node8 -->
<g id="node5" class="node"><title>Node8</title>
<g id="a_node5"><a xlink:href="structEigen_1_1internal_1_1ref__selector.html" target="_top" xlink:title="Eigen::internal::ref\l_selector\&lt; ExpressionType \&gt;">
<polygon fill="none" stroke="black" points="370,-0.5 370,-30.5 525,-30.5 525,-0.5 370,-0.5"/>
<text text-anchor="start" x="378" y="-18.5" font-family="Helvetica,sans-Serif" font-size="10.00">Eigen::internal::ref</text>
<text text-anchor="middle" x="447.5" y="-7.5" font-family="Helvetica,sans-Serif" font-size="10.00">_selector&lt; ExpressionType &gt;</text>
</a>
</g>
</g>
<!-- Node8&#45;&gt;Node4 -->
<g id="edge4" class="edge"><title>Node8&#45;&gt;Node4</title>
<path fill="none" stroke="#9a32cd" stroke-dasharray="5,2" d="M535.289,-22.7324C567.082,-25.3819 602.252,-28.3127 630.869,-30.6974"/>
<polygon fill="#9a32cd" stroke="#9a32cd" points="535.354,-19.2257 525.097,-21.8831 534.772,-26.2016 535.354,-19.2257"/>
<text text-anchor="middle" x="578" y="-32.5" font-family="Helvetica,sans-Serif" font-size="10.00"> m_expression</text>
</g>
</g>
</svg>
        <g id="navigator" transform="translate(0 0)" fill="#404254">
                <rect fill="#f2f5e9" fill-opacity="0.5" stroke="#606060" stroke-width=".5" x="0" y="0" width="60" height="60"/>
                <use id="zoomplus" xlink:href="#zoomPlus" x="17" y="9" onmousedown="handleZoom(evt,'in')"/>
                <use id="zoomminus" xlink:href="#zoomMin" x="42" y="9" onmousedown="handleZoom(evt,'out')"/>
                <use id="reset" xlink:href="#resetDef" x="30" y="36" onmousedown="handleReset()"/>
                <g id="arrowUp" xlink:href="#dirArrow" transform="translate(30 24)" onmousedown="handlePan(0,-1)">
                  <use xlink:href="#rim" fill="#404040">
                        <set attributeName="fill" to="#808080" begin="arrowUp.mouseover" end="arrowUp.mouseout"/>
                  </use>
                  <path fill="none" stroke="white" stroke-width="1.5" d="M0,-3.0v7 M-2.5,-0.5L0,-3.0L2.5,-0.5"/>
                </g>
                <g id="arrowRight" xlink:href="#dirArrow" transform="rotate(90) translate(36 -43)" onmousedown="handlePan(1,0)">
                  <use xlink:href="#rim" fill="#404040">
                        <set attributeName="fill" to="#808080" begin="arrowRight.mouseover" end="arrowRight.mouseout"/>
                  </use>
                  <path fill="none" stroke="white" stroke-width="1.5" d="M0,-3.0v7 M-2.5,-0.5L0,-3.0L2.5,-0.5"/>
                </g>
                <g id="arrowDown" xlink:href="#dirArrow" transform="rotate(180) translate(-30 -48)" onmousedown="handlePan(0,1)">
                  <use xlink:href="#rim" fill="#404040">
                        <set attributeName="fill" to="#808080" begin="arrowDown.mouseover" end="arrowDown.mouseout"/>
                  </use>
                  <path fill="none" stroke="white" stroke-width="1.5" d="M0,-3.0v7 M-2.5,-0.5L0,-3.0L2.5,-0.5"/>
                </g>
                <g id="arrowLeft" xlink:href="#dirArrow" transform="rotate(270) translate(-36 17)" onmousedown="handlePan(-1,0)">
                  <use xlink:href="#rim" fill="#404040">
                        <set attributeName="fill" to="#808080" begin="arrowLeft.mouseover" end="arrowLeft.mouseout"/>
                  </use>
                  <path fill="none" stroke="white" stroke-width="1.5" d="M0,-3.0v7 M-2.5,-0.5L0,-3.0L2.5,-0.5"/>
                </g>
        </g>
        <svg viewBox="0 0 15 15" width="100%" height="30px" preserveAspectRatio="xMaxYMin meet">
         <g id="arrow_out" transform="scale(0.3 0.3)">
          <a xlink:href="classEigen_1_1MatrixWrapper__coll__graph_org.svg" target="_base">
           <rect id="button" ry="5" rx="5" y="6" x="6" height="38" width="38"
                fill="#f2f5e9" fill-opacity="0.5" stroke="#606060" stroke-width="1.0"/>
           <path id="arrow"
             d="M 11.500037,31.436501 C 11.940474,20.09759 22.043105,11.32322 32.158766,21.979434 L 37.068811,17.246167 C 37.068811,17.246167 37.088388,32 37.088388,32 L 22.160133,31.978069 C 22.160133,31.978069 26.997745,27.140456 26.997745,27.140456 C 18.528582,18.264221 13.291696,25.230495 11.500037,31.436501 z"
             style="fill:#404040;"/>
          </a>
         </g>
        </svg>
</svg>
