<?xml version="1.0" encoding="UTF-8" standalone="no"?>
<!DOCTYPE svg PUBLIC "-//W3C//DTD SVG 1.1//EN"
 "http://www.w3.org/Graphics/SVG/1.1/DTD/svg11.dtd">
<!-- Generated by graphviz version 2.38.0 (20140413.2041)
 -->
<!-- Title: lu Pages: 1 -->
<svg width="221pt" height="165pt"
 viewBox="0.00 0.00 221.00 165.00" xmlns="http://www.w3.org/2000/svg" xmlns:xlink="http://www.w3.org/1999/xlink">
<g id="graph0" class="graph" transform="scale(1 1) rotate(0) translate(4 161)">
<title>lu</title>
<!-- Node5 -->
<g id="node1" class="node"><title>Node5</title>
<polygon fill="#bfbfbf" stroke="black" points="0,-68.5 0,-87.5 29,-87.5 29,-68.5 0,-68.5"/>
<text text-anchor="middle" x="14.5" y="-75.5" font-family="Helvetica,sans-Serif" font-size="10.00">lu</text>
</g>
<!-- Node6 -->
<g id="node2" class="node"><title>Node6</title>
<g id="a_node2"><a xlink:href="dense__solvers_8cpp.html#a578ba2d5aea4aaa8751e7311d8384181" target="_top" xlink:title="bench">
<polygon fill="none" stroke="black" points="116,-137.5 116,-156.5 162,-156.5 162,-137.5 116,-137.5"/>
<text text-anchor="middle" x="139" y="-144.5" font-family="Helvetica,sans-Serif" font-size="10.00">bench</text>
</a>
</g>
</g>
<!-- Node5&#45;&gt;Node6 -->
<g id="edge1" class="edge"><title>Node5&#45;&gt;Node6</title>
<path fill="none" stroke="midnightblue" d="M28.8185,-95.6437C37.8916,-106.487 50.8012,-119.823 65,-128 80.6607,-137.019 100.65,-141.836 115.751,-144.36"/>
<polygon fill="midnightblue" stroke="midnightblue" points="31.3903,-93.2554 22.4133,-87.6283 25.9218,-97.6253 31.3903,-93.2554"/>
</g>
<!-- Node7 -->
<g id="node3" class="node"><title>Node7</title>
<g id="a_node3"><a xlink:href="structEigen_1_1internal_1_1partial__lu__impl.html#ab66f4cb2c3942d9c5a09aa4a26a15349" target="_top" xlink:title="Eigen::internal::partial\l_lu_impl::blocked_lu">
<polygon fill="none" stroke="black" points="78.5,-88 78.5,-118 199.5,-118 199.5,-88 78.5,-88"/>
<text text-anchor="start" x="86.5" y="-106" font-family="Helvetica,sans-Serif" font-size="10.00">Eigen::internal::partial</text>
<text text-anchor="middle" x="139" y="-95" font-family="Helvetica,sans-Serif" font-size="10.00">_lu_impl::blocked_lu</text>
</a>
</g>
</g>
<!-- Node5&#45;&gt;Node7 -->
<g id="edge2" class="edge"><title>Node5&#45;&gt;Node7</title>
<path fill="none" stroke="midnightblue" d="M38.9596,-82.7877C50.2681,-85.0955 64.3976,-87.9791 78.4111,-90.839"/>
<polygon fill="midnightblue" stroke="midnightblue" points="39.5756,-79.3413 29.0777,-80.771 38.1758,-86.2 39.5756,-79.3413"/>
</g>
<!-- Node8 -->
<g id="node4" class="node"><title>Node8</title>
<g id="a_node4"><a xlink:href="structEigen_1_1SplineFitting.html#a0317c97f2b57ccf5dcf077409d51e54d" target="_top" xlink:title="Fits an interpolating spline to the given data points and derivatives. ">
<polygon fill="none" stroke="black" points="65,-39 65,-69 213,-69 213,-39 65,-39"/>
<text text-anchor="start" x="73" y="-57" font-family="Helvetica,sans-Serif" font-size="10.00">Eigen::SplineFitting</text>
<text text-anchor="middle" x="139" y="-46" font-family="Helvetica,sans-Serif" font-size="10.00">::InterpolateWithDerivatives</text>
</a>
</g>
</g>
<!-- Node5&#45;&gt;Node8 -->
<g id="edge3" class="edge"><title>Node5&#45;&gt;Node8</title>
<path fill="none" stroke="midnightblue" d="M38.9273,-73.4102C46.5697,-71.9129 55.503,-70.1627 64.8193,-68.3374"/>
<polygon fill="midnightblue" stroke="midnightblue" points="38.2182,-69.9825 29.0777,-75.3399 39.5641,-76.8519 38.2182,-69.9825"/>
</g>
<!-- Node9 -->
<g id="node5" class="node"><title>Node9</title>
<g id="a_node5"><a xlink:href="TutorialInplaceLU_8cpp.html#ae66f6b31b5ad750f1fe042a706a4e3d4" target="_top" xlink:title="main">
<polygon fill="none" stroke="black" points="118.5,-0.5 118.5,-19.5 159.5,-19.5 159.5,-0.5 118.5,-0.5"/>
<text text-anchor="middle" x="139" y="-7.5" font-family="Helvetica,sans-Serif" font-size="10.00">main</text>
</a>
</g>
</g>
<!-- Node5&#45;&gt;Node9 -->
<g id="edge4" class="edge"><title>Node5&#45;&gt;Node9</title>
<path fill="none" stroke="midnightblue" d="M29.315,-60.7698C38.4371,-50.4574 51.2188,-37.8671 65,-30 81.6617,-20.4886 103.062,-15.321 118.377,-12.6362"/>
<polygon fill="midnightblue" stroke="midnightblue" points="26.6289,-58.5259 22.8348,-68.4181 31.9696,-63.0511 26.6289,-58.5259"/>
</g>
</g>
</svg>
