<?xml version="1.0" encoding="UTF-8" standalone="no"?>
<!DOCTYPE svg PUBLIC "-//W3C//DTD SVG 1.1//EN"
 "http://www.w3.org/Graphics/SVG/1.1/DTD/svg11.dtd">
<!-- Generated by graphviz version 2.38.0 (20140413.2041)
 -->
<!-- Title: Eigen::GeneralizedSelfAdjointEigenSolver::compute Pages: 1 -->
<svg width="537pt" height="126pt"
 viewBox="0.00 0.00 537.00 126.00" xmlns="http://www.w3.org/2000/svg" xmlns:xlink="http://www.w3.org/1999/xlink">
<g id="graph0" class="graph" transform="scale(1 1) rotate(0) translate(4 122)">
<title>Eigen::GeneralizedSelfAdjointEigenSolver::compute</title>
<!-- Node16 -->
<g id="node1" class="node"><title>Node16</title>
<polygon fill="#bfbfbf" stroke="black" points="0,-44 0,-74 157,-74 157,-44 0,-44"/>
<text text-anchor="start" x="8" y="-62" font-family="Helvetica,sans-Serif" font-size="10.00">Eigen::GeneralizedSelfAdjoint</text>
<text text-anchor="middle" x="78.5" y="-51" font-family="Helvetica,sans-Serif" font-size="10.00">EigenSolver::compute</text>
</g>
<!-- Node17 -->
<g id="node2" class="node"><title>Node17</title>
<g id="a_node2"><a xlink:href="eigensolver__generalized__real_8cpp.html#aa8cb39f7fc3c05a5a869203d49aea8df" target="_top" xlink:title="generalized_eigensolver_real">
<polygon fill="none" stroke="black" points="209,-98.5 209,-117.5 364,-117.5 364,-98.5 209,-98.5"/>
<text text-anchor="middle" x="286.5" y="-105.5" font-family="Helvetica,sans-Serif" font-size="10.00">generalized_eigensolver_real</text>
</a>
</g>
</g>
<!-- Node16&#45;&gt;Node17 -->
<g id="edge1" class="edge"><title>Node16&#45;&gt;Node17</title>
<path fill="none" stroke="midnightblue" d="M143.724,-76.6433C159.773,-80.8679 176.979,-85.2403 193,-89 207.045,-92.296 222.365,-95.5711 236.423,-98.4503"/>
<polygon fill="midnightblue" stroke="midnightblue" points="144.464,-73.2188 133.901,-74.0388 142.67,-79.985 144.464,-73.2188"/>
</g>
<!-- Node19 -->
<g id="node4" class="node"><title>Node19</title>
<g id="a_node4"><a xlink:href="classEigen_1_1GeneralizedSelfAdjointEigenSolver.html#addc0409c9cb1a5ac9cbbd00efe68908e" target="_top" xlink:title="Constructor; computes generalized eigendecomposition of given matrix pencil. ">
<polygon fill="none" stroke="black" points="193,-38.5 193,-79.5 380,-79.5 380,-38.5 193,-38.5"/>
<text text-anchor="start" x="201" y="-67.5" font-family="Helvetica,sans-Serif" font-size="10.00">Eigen::GeneralizedSelfAdjoint</text>
<text text-anchor="start" x="201" y="-56.5" font-family="Helvetica,sans-Serif" font-size="10.00">EigenSolver::GeneralizedSelfAdjoint</text>
<text text-anchor="middle" x="286.5" y="-45.5" font-family="Helvetica,sans-Serif" font-size="10.00">EigenSolver</text>
</a>
</g>
</g>
<!-- Node16&#45;&gt;Node19 -->
<g id="edge3" class="edge"><title>Node16&#45;&gt;Node19</title>
<path fill="none" stroke="midnightblue" d="M167.275,-59C175.696,-59 184.257,-59 192.725,-59"/>
<polygon fill="midnightblue" stroke="midnightblue" points="167.086,-55.5001 157.086,-59 167.086,-62.5001 167.086,-55.5001"/>
</g>
<!-- Node20 -->
<g id="node5" class="node"><title>Node20</title>
<g id="a_node5"><a xlink:href="eigensolver__selfadjoint_8cpp.html#abc47a768b2337f0e2cf111ccf190589f" target="_top" xlink:title="selfadjointeigensolver">
<polygon fill="none" stroke="black" points="226.5,-0.5 226.5,-19.5 346.5,-19.5 346.5,-0.5 226.5,-0.5"/>
<text text-anchor="middle" x="286.5" y="-7.5" font-family="Helvetica,sans-Serif" font-size="10.00">selfadjointeigensolver</text>
</a>
</g>
</g>
<!-- Node16&#45;&gt;Node20 -->
<g id="edge4" class="edge"><title>Node16&#45;&gt;Node20</title>
<path fill="none" stroke="midnightblue" d="M143.724,-41.3567C159.773,-37.1321 176.979,-32.7597 193,-29 207.045,-25.704 222.365,-22.4289 236.423,-19.5497"/>
<polygon fill="midnightblue" stroke="midnightblue" points="142.67,-38.015 133.901,-43.9612 144.464,-44.7812 142.67,-38.015"/>
</g>
<!-- Node18 -->
<g id="node3" class="node"><title>Node18</title>
<g id="a_node3"><a xlink:href="boostmultiprec_8cpp.html#af8983cadf0ba3b55cb55879f4b3d833d" target="_top" xlink:title="test_boostmultiprec">
<polygon fill="none" stroke="black" points="416,-49.5 416,-68.5 529,-68.5 529,-49.5 416,-49.5"/>
<text text-anchor="middle" x="472.5" y="-56.5" font-family="Helvetica,sans-Serif" font-size="10.00">test_boostmultiprec</text>
</a>
</g>
</g>
<!-- Node17&#45;&gt;Node18 -->
<g id="edge2" class="edge"><title>Node17&#45;&gt;Node18</title>
<path fill="none" stroke="midnightblue" d="M348.981,-96.3973C359.381,-94.1418 370.034,-91.648 380,-89 402.135,-83.1186 426.783,-74.9404 444.916,-68.608"/>
<polygon fill="midnightblue" stroke="midnightblue" points="348.176,-92.9899 339.117,-98.484 349.625,-99.8383 348.176,-92.9899"/>
</g>
<!-- Node20&#45;&gt;Node18 -->
<g id="edge5" class="edge"><title>Node20&#45;&gt;Node18</title>
<path fill="none" stroke="midnightblue" d="M348.981,-21.6027C359.381,-23.8582 370.034,-26.352 380,-29 402.135,-34.8814 426.783,-43.0596 444.916,-49.392"/>
<polygon fill="midnightblue" stroke="midnightblue" points="349.625,-18.1617 339.117,-19.516 348.176,-25.0101 349.625,-18.1617"/>
</g>
</g>
</svg>
