<?xml version="1.0" encoding="UTF-8" standalone="no"?>
<!DOCTYPE svg PUBLIC "-//W3C//DTD SVG 1.1//EN"
 "http://www.w3.org/Graphics/SVG/1.1/DTD/svg11.dtd">
<!-- Generated by graphviz version 2.38.0 (20140413.2041)
 -->
<!-- Title: Eigen::TensorConcatenationOp&lt; Axis, LhsXprType, RhsXprType &gt; Pages: 1 -->
<svg width="662pt" height="153pt"
 viewBox="0.00 0.00 662.00 152.50" xmlns="http://www.w3.org/2000/svg" xmlns:xlink="http://www.w3.org/1999/xlink">
<g id="graph0" class="graph" transform="scale(1 1) rotate(0) translate(4 148.5)">
<title>Eigen::TensorConcatenationOp&lt; Axis, LhsXprType, RhsXprType &gt;</title>
<!-- Node2 -->
<g id="node1" class="node"><title>Node2</title>
<polygon fill="#bfbfbf" stroke="black" points="463,-31 463,-61 654,-61 654,-31 463,-31"/>
<text text-anchor="start" x="471" y="-49" font-family="Helvetica,sans-Serif" font-size="10.00">Eigen::TensorConcatenation</text>
<text text-anchor="middle" x="558.5" y="-38" font-family="Helvetica,sans-Serif" font-size="10.00">Op&lt; Axis, LhsXprType, RhsXprType &gt;</text>
</g>
<!-- Node3 -->
<g id="node2" class="node"><title>Node3</title>
<g id="a_node2"><a xlink:href="classEigen_1_1TensorBase.html" target="_top" xlink:title="Eigen::TensorBase\&lt;\l TensorConcatenationOp\l\&lt; Axis, LhsXprType, RhsXprType\l \&gt;, WriteAccessors \&gt;">
<polygon fill="none" stroke="black" points="206,-92 206,-144 373,-144 373,-92 206,-92"/>
<text text-anchor="start" x="214" y="-132" font-family="Helvetica,sans-Serif" font-size="10.00">Eigen::TensorBase&lt;</text>
<text text-anchor="start" x="214" y="-121" font-family="Helvetica,sans-Serif" font-size="10.00"> TensorConcatenationOp</text>
<text text-anchor="start" x="214" y="-110" font-family="Helvetica,sans-Serif" font-size="10.00">&lt; Axis, LhsXprType, RhsXprType</text>
<text text-anchor="middle" x="289.5" y="-99" font-family="Helvetica,sans-Serif" font-size="10.00"> &gt;, WriteAccessors &gt;</text>
</a>
</g>
</g>
<!-- Node3&#45;&gt;Node2 -->
<g id="edge1" class="edge"><title>Node3&#45;&gt;Node2</title>
<path fill="none" stroke="midnightblue" d="M382.834,-93.101C422.453,-82.4172 467.434,-70.2876 501.826,-61.0133"/>
<polygon fill="midnightblue" stroke="midnightblue" points="381.896,-89.7288 373.152,-95.7118 383.718,-96.4874 381.896,-89.7288"/>
</g>
<!-- Node4 -->
<g id="node3" class="node"><title>Node4</title>
<polygon fill="none" stroke="#bfbfbf" points="0,-108.5 0,-127.5 87,-127.5 87,-108.5 0,-108.5"/>
<text text-anchor="middle" x="43.5" y="-115.5" font-family="Helvetica,sans-Serif" font-size="10.00">static const int</text>
</g>
<!-- Node4&#45;&gt;Node3 -->
<g id="edge2" class="edge"><title>Node4&#45;&gt;Node3</title>
<path fill="none" stroke="#9a32cd" stroke-dasharray="5,2" d="M97.3621,-118C129.022,-118 169.954,-118 205.813,-118"/>
<polygon fill="#9a32cd" stroke="#9a32cd" points="97.0016,-114.5 87.0016,-118 97.0015,-121.5 97.0016,-114.5"/>
<text text-anchor="middle" x="146.5" y="-121" font-family="Helvetica,sans-Serif" font-size="10.00"> NumDimensions</text>
</g>
<!-- Node5 -->
<g id="node4" class="node"><title>Node5</title>
<polygon fill="none" stroke="#bfbfbf" points="257,-53.5 257,-72.5 322,-72.5 322,-53.5 257,-53.5"/>
<text text-anchor="middle" x="289.5" y="-60.5" font-family="Helvetica,sans-Serif" font-size="10.00">const Axis</text>
</g>
<!-- Node5&#45;&gt;Node2 -->
<g id="edge3" class="edge"><title>Node5&#45;&gt;Node2</title>
<path fill="none" stroke="#9a32cd" stroke-dasharray="5,2" d="M332.455,-60.3287C367.315,-58.1092 418.239,-54.8668 462.831,-52.0276"/>
<polygon fill="#9a32cd" stroke="#9a32cd" points="331.934,-56.8547 322.177,-60.9831 332.379,-63.8405 331.934,-56.8547"/>
<text text-anchor="middle" x="418" y="-60" font-family="Helvetica,sans-Serif" font-size="10.00"> m_axis</text>
</g>
<!-- Node6 -->
<g id="node5" class="node"><title>Node6</title>
<polygon fill="none" stroke="#bfbfbf" points="264,-0.5 264,-19.5 315,-19.5 315,-0.5 264,-0.5"/>
<text text-anchor="middle" x="289.5" y="-7.5" font-family="Helvetica,sans-Serif" font-size="10.00">Nested</text>
</g>
<!-- Node6&#45;&gt;Node2 -->
<g id="edge4" class="edge"><title>Node6&#45;&gt;Node2</title>
<path fill="none" stroke="#9a32cd" stroke-dasharray="5,2" d="M325.257,-14.6863C360.053,-19.378 415.147,-26.8064 462.943,-33.2507"/>
<polygon fill="#9a32cd" stroke="#9a32cd" points="325.518,-11.19 315.14,-13.3223 324.583,-18.1272 325.518,-11.19"/>
<text text-anchor="middle" x="418" y="-34" font-family="Helvetica,sans-Serif" font-size="10.00"> m_rhs_xpr</text>
</g>
<!-- Node6&#45;&gt;Node2 -->
<g id="edge5" class="edge"><title>Node6&#45;&gt;Node2</title>
<path fill="none" stroke="#9a32cd" stroke-dasharray="5,2" d="M325.061,-6.54164C356.536,-4.15597 404.19,-2.46136 445,-9 471.29,-13.2123 499.77,-22.631 521.497,-30.9108"/>
<polygon fill="#9a32cd" stroke="#9a32cd" points="324.719,-3.05783 315.04,-7.36629 325.293,-10.0342 324.719,-3.05783"/>
<text text-anchor="middle" x="418" y="-12" font-family="Helvetica,sans-Serif" font-size="10.00"> m_lhs_xpr</text>
</g>
</g>
</svg>
