<?xml version="1.0" encoding="UTF-8" standalone="no"?>
<!DOCTYPE svg PUBLIC "-//W3C//DTD SVG 1.1//EN"
 "http://www.w3.org/Graphics/SVG/1.1/DTD/svg11.dtd">
<!-- Generated by graphviz version 2.38.0 (20140413.2041)
 -->
<!-- Title: Eigen::LevenbergMarquardt::lmdif1 Pages: 1 -->
<svg width="342pt" height="186pt"
 viewBox="0.00 0.00 342.00 186.00" xmlns="http://www.w3.org/2000/svg" xmlns:xlink="http://www.w3.org/1999/xlink">
<g id="graph0" class="graph" transform="scale(1 1) rotate(0) translate(4 182)">
<title>Eigen::LevenbergMarquardt::lmdif1</title>
<!-- Node66 -->
<g id="node1" class="node"><title>Node66</title>
<polygon fill="#bfbfbf" stroke="black" points="0,-73.5 0,-103.5 149,-103.5 149,-73.5 0,-73.5"/>
<text text-anchor="start" x="8" y="-91.5" font-family="Helvetica,sans-Serif" font-size="10.00">Eigen::LevenbergMarquardt</text>
<text text-anchor="middle" x="74.5" y="-80.5" font-family="Helvetica,sans-Serif" font-size="10.00">::lmdif1</text>
</g>
<!-- Node67 -->
<g id="node2" class="node"><title>Node67</title>
<g id="a_node2"><a xlink:href="classEigen_1_1LevenbergMarquardt.html#a5c1ef387601af15f7d2474165bb82865" target="_top" xlink:title="Eigen::LevenbergMarquardt\l::minimize">
<polygon fill="none" stroke="black" points="185,-147.5 185,-177.5 334,-177.5 334,-147.5 185,-147.5"/>
<text text-anchor="start" x="193" y="-165.5" font-family="Helvetica,sans-Serif" font-size="10.00">Eigen::LevenbergMarquardt</text>
<text text-anchor="middle" x="259.5" y="-154.5" font-family="Helvetica,sans-Serif" font-size="10.00">::minimize</text>
</a>
</g>
</g>
<!-- Node66&#45;&gt;Node67 -->
<g id="edge1" class="edge"><title>Node66&#45;&gt;Node67</title>
<path fill="none" stroke="midnightblue" d="M106.252,-103.669C127.981,-114.108 157.938,-127.942 185,-138.5 189.801,-140.373 194.815,-142.224 199.87,-144.018"/>
<polygon fill="midnightblue" stroke="midnightblue" points="199.002,-147.421 209.597,-147.386 201.293,-140.806 199.002,-147.421"/>
</g>
<!-- Node68 -->
<g id="node3" class="node"><title>Node68</title>
<g id="a_node3"><a xlink:href="classEigen_1_1LevenbergMarquardt.html#a09c0852c6a4534b84a16ac5d9c631c12" target="_top" xlink:title="Eigen::LevenbergMarquardt\l::setFtol">
<polygon fill="none" stroke="black" points="185,-98.5 185,-128.5 334,-128.5 334,-98.5 185,-98.5"/>
<text text-anchor="start" x="193" y="-116.5" font-family="Helvetica,sans-Serif" font-size="10.00">Eigen::LevenbergMarquardt</text>
<text text-anchor="middle" x="259.5" y="-105.5" font-family="Helvetica,sans-Serif" font-size="10.00">::setFtol</text>
</a>
</g>
</g>
<!-- Node66&#45;&gt;Node68 -->
<g id="edge2" class="edge"><title>Node66&#45;&gt;Node68</title>
<path fill="none" stroke="midnightblue" d="M149.142,-98.5604C157.565,-99.7111 166.199,-100.891 174.742,-102.058"/>
<polygon fill="midnightblue" stroke="midnightblue" points="174.329,-105.534 184.711,-103.419 175.277,-98.5981 174.329,-105.534"/>
</g>
<!-- Node69 -->
<g id="node4" class="node"><title>Node69</title>
<g id="a_node4"><a xlink:href="classEigen_1_1LevenbergMarquardt.html#af072d0f89c44415d8ed284df8b4a634a" target="_top" xlink:title="Eigen::LevenbergMarquardt\l::setMaxfev">
<polygon fill="none" stroke="black" points="185,-49.5 185,-79.5 334,-79.5 334,-49.5 185,-49.5"/>
<text text-anchor="start" x="193" y="-67.5" font-family="Helvetica,sans-Serif" font-size="10.00">Eigen::LevenbergMarquardt</text>
<text text-anchor="middle" x="259.5" y="-56.5" font-family="Helvetica,sans-Serif" font-size="10.00">::setMaxfev</text>
</a>
</g>
</g>
<!-- Node66&#45;&gt;Node69 -->
<g id="edge3" class="edge"><title>Node66&#45;&gt;Node69</title>
<path fill="none" stroke="midnightblue" d="M149.142,-78.842C157.565,-77.7373 166.199,-76.6051 174.742,-75.4847"/>
<polygon fill="midnightblue" stroke="midnightblue" points="175.251,-78.948 184.711,-74.1773 174.34,-72.0074 175.251,-78.948"/>
</g>
<!-- Node70 -->
<g id="node5" class="node"><title>Node70</title>
<g id="a_node5"><a xlink:href="classEigen_1_1LevenbergMarquardt.html#a691b571366630f1329d2de7a5e40e7a5" target="_top" xlink:title="Eigen::LevenbergMarquardt\l::setXtol">
<polygon fill="none" stroke="black" points="185,-0.5 185,-30.5 334,-30.5 334,-0.5 185,-0.5"/>
<text text-anchor="start" x="193" y="-18.5" font-family="Helvetica,sans-Serif" font-size="10.00">Eigen::LevenbergMarquardt</text>
<text text-anchor="middle" x="259.5" y="-7.5" font-family="Helvetica,sans-Serif" font-size="10.00">::setXtol</text>
</a>
</g>
</g>
<!-- Node66&#45;&gt;Node70 -->
<g id="edge4" class="edge"><title>Node66&#45;&gt;Node70</title>
<path fill="none" stroke="midnightblue" d="M107.778,-73.4846C129.427,-63.6292 158.686,-50.7211 185,-40.5 190.772,-38.2582 196.838,-36.0159 202.909,-33.8455"/>
<polygon fill="midnightblue" stroke="midnightblue" points="204.137,-37.124 212.409,-30.5045 201.814,-30.5204 204.137,-37.124"/>
</g>
</g>
</svg>
