<?xml version="1.0" encoding="UTF-8" standalone="no"?>
<!DOCTYPE svg PUBLIC "-//W3C//DTD SVG 1.1//EN"
 "http://www.w3.org/Graphics/SVG/1.1/DTD/svg11.dtd">
<!-- Generated by graphviz version 2.38.0 (20140413.2041)
 -->
<!-- Title: Eigen::BlockSparseMatrixView&lt; BlockSparseMatrixT &gt; Pages: 1 -->
<svg width="392pt" height="195pt"
 viewBox="0.00 0.00 391.50 195.00" xmlns="http://www.w3.org/2000/svg" xmlns:xlink="http://www.w3.org/1999/xlink">
<g id="graph0" class="graph" transform="scale(1 1) rotate(0) translate(4 191)">
<title>Eigen::BlockSparseMatrixView&lt; BlockSparseMatrixT &gt;</title>
<!-- Node3 -->
<g id="node1" class="node"><title>Node3</title>
<polygon fill="#bfbfbf" stroke="black" points="189.5,-0.5 189.5,-30.5 344.5,-30.5 344.5,-0.5 189.5,-0.5"/>
<text text-anchor="start" x="197.5" y="-18.5" font-family="Helvetica,sans-Serif" font-size="10.00">Eigen::BlockSparseMatrix</text>
<text text-anchor="middle" x="267" y="-7.5" font-family="Helvetica,sans-Serif" font-size="10.00">View&lt; BlockSparseMatrixT &gt;</text>
</g>
<!-- Node4 -->
<g id="node2" class="node"><title>Node4</title>
<g id="a_node2"><a xlink:href="classEigen_1_1SparseMatrixBase.html" target="_top" xlink:title="Eigen::SparseMatrixBase\l\&lt; BlockSparseMatrixT \&gt;">
<polygon fill="none" stroke="black" points="78,-78.5 78,-108.5 214,-108.5 214,-78.5 78,-78.5"/>
<text text-anchor="start" x="86" y="-96.5" font-family="Helvetica,sans-Serif" font-size="10.00">Eigen::SparseMatrixBase</text>
<text text-anchor="middle" x="146" y="-85.5" font-family="Helvetica,sans-Serif" font-size="10.00">&lt; BlockSparseMatrixT &gt;</text>
</a>
</g>
</g>
<!-- Node4&#45;&gt;Node3 -->
<g id="edge1" class="edge"><title>Node4&#45;&gt;Node3</title>
<path fill="none" stroke="midnightblue" d="M177.099,-72.967C198.222,-59.6993 225.664,-42.4633 244.645,-30.5413"/>
<polygon fill="midnightblue" stroke="midnightblue" points="175.082,-70.1003 168.476,-78.3831 178.805,-76.0281 175.082,-70.1003"/>
</g>
<!-- Node5 -->
<g id="node3" class="node"><title>Node5</title>
<g id="a_node3"><a xlink:href="structEigen_1_1EigenBase.html" target="_top" xlink:title="Eigen::EigenBase\&lt; BlockSparse\lMatrixT \&gt;">
<polygon fill="none" stroke="black" points="0,-156.5 0,-186.5 170,-186.5 170,-156.5 0,-156.5"/>
<text text-anchor="start" x="8" y="-174.5" font-family="Helvetica,sans-Serif" font-size="10.00">Eigen::EigenBase&lt; BlockSparse</text>
<text text-anchor="middle" x="85" y="-163.5" font-family="Helvetica,sans-Serif" font-size="10.00">MatrixT &gt;</text>
</a>
</g>
</g>
<!-- Node5&#45;&gt;Node4 -->
<g id="edge2" class="edge"><title>Node5&#45;&gt;Node4</title>
<path fill="none" stroke="midnightblue" d="M102.813,-148.307C113.066,-135.533 125.646,-119.86 134.578,-108.731"/>
<polygon fill="midnightblue" stroke="midnightblue" points="100.004,-146.215 96.4736,-156.205 105.463,-150.597 100.004,-146.215"/>
</g>
<!-- Node6 -->
<g id="node4" class="node"><title>Node6</title>
<g id="a_node4"><a xlink:href="classbool.html" target="_top" xlink:title="bool">
<polygon fill="none" stroke="black" points="188.5,-162 188.5,-181 225.5,-181 225.5,-162 188.5,-162"/>
<text text-anchor="middle" x="207" y="-169" font-family="Helvetica,sans-Serif" font-size="10.00">bool</text>
</a>
</g>
</g>
<!-- Node6&#45;&gt;Node4 -->
<g id="edge3" class="edge"><title>Node6&#45;&gt;Node4</title>
<path fill="none" stroke="#9a32cd" stroke-dasharray="5,2" d="M193.56,-153.754C182.671,-140.189 167.508,-121.296 157.253,-108.52"/>
<polygon fill="#9a32cd" stroke="#9a32cd" points="191.013,-156.174 200.003,-161.782 196.473,-151.792 191.013,-156.174"/>
<text text-anchor="middle" x="210" y="-130" font-family="Helvetica,sans-Serif" font-size="10.00"> m_isRValue</text>
</g>
<!-- Node7 -->
<g id="node5" class="node"><title>Node7</title>
<polygon fill="none" stroke="#bfbfbf" points="232.5,-84 232.5,-103 383.5,-103 383.5,-84 232.5,-84"/>
<text text-anchor="middle" x="308" y="-91" font-family="Helvetica,sans-Serif" font-size="10.00">const BlockSparseMatrixT &amp;</text>
</g>
<!-- Node7&#45;&gt;Node3 -->
<g id="edge4" class="edge"><title>Node7&#45;&gt;Node3</title>
<path fill="none" stroke="#9a32cd" stroke-dasharray="5,2" d="M298.545,-74.9736C291.261,-61.4715 281.325,-43.0531 274.563,-30.5198"/>
<polygon fill="#9a32cd" stroke="#9a32cd" points="295.468,-76.6426 303.297,-83.7818 301.629,-73.319 295.468,-76.6426"/>
<text text-anchor="middle" x="327" y="-52" font-family="Helvetica,sans-Serif" font-size="10.00"> m_spblockmat</text>
</g>
</g>
</svg>
