<?xml version="1.0" encoding="UTF-8" standalone="no"?>
<!DOCTYPE svg PUBLIC "-//W3C//DTD SVG 1.1//EN"
 "http://www.w3.org/Graphics/SVG/1.1/DTD/svg11.dtd">
<!-- Generated by graphviz version 2.38.0 (20140413.2041)
 -->
<!-- Title: Eigen::Quaternion&lt; _Scalar, _Options &gt; Pages: 1 -->
<svg width="139pt" height="195pt"
 viewBox="0.00 0.00 139.00 195.00" xmlns="http://www.w3.org/2000/svg" xmlns:xlink="http://www.w3.org/1999/xlink">
<g id="graph0" class="graph" transform="scale(1 1) rotate(0) translate(4 191)">
<title>Eigen::Quaternion&lt; _Scalar, _Options &gt;</title>
<!-- Node0 -->
<g id="node1" class="node"><title>Node0</title>
<polygon fill="#bfbfbf" stroke="black" points="8.5,-0.5 8.5,-30.5 122.5,-30.5 122.5,-0.5 8.5,-0.5"/>
<text text-anchor="start" x="16.5" y="-18.5" font-family="Helvetica,sans-Serif" font-size="10.00">Eigen::Quaternion&lt;</text>
<text text-anchor="middle" x="65.5" y="-7.5" font-family="Helvetica,sans-Serif" font-size="10.00"> _Scalar, _Options &gt;</text>
</g>
<!-- Node1 -->
<g id="node2" class="node"><title>Node1</title>
<g id="a_node2"><a xlink:href="classEigen_1_1QuaternionBase.html" target="_top" xlink:title="Eigen::QuaternionBase\l\&lt; Quaternion\&lt; _Scalar,\l _Options \&gt; \&gt;">
<polygon fill="none" stroke="black" points="0,-67.5 0,-108.5 131,-108.5 131,-67.5 0,-67.5"/>
<text text-anchor="start" x="8" y="-96.5" font-family="Helvetica,sans-Serif" font-size="10.00">Eigen::QuaternionBase</text>
<text text-anchor="start" x="8" y="-85.5" font-family="Helvetica,sans-Serif" font-size="10.00">&lt; Quaternion&lt; _Scalar,</text>
<text text-anchor="middle" x="65.5" y="-74.5" font-family="Helvetica,sans-Serif" font-size="10.00"> _Options &gt; &gt;</text>
</a>
</g>
</g>
<!-- Node1&#45;&gt;Node0 -->
<g id="edge1" class="edge"><title>Node1&#45;&gt;Node0</title>
<path fill="none" stroke="midnightblue" d="M65.5,-57.08C65.5,-48.0061 65.5,-38.4498 65.5,-30.8916"/>
<polygon fill="midnightblue" stroke="midnightblue" points="62.0001,-57.3618 65.5,-67.3618 69.0001,-57.3619 62.0001,-57.3618"/>
</g>
<!-- Node2 -->
<g id="node3" class="node"><title>Node2</title>
<g id="a_node3"><a xlink:href="classEigen_1_1RotationBase.html" target="_top" xlink:title="Eigen::RotationBase\l\&lt; Quaternion\&lt; _Scalar,\l _Options \&gt;, 3 \&gt;">
<polygon fill="none" stroke="black" points="0,-145.5 0,-186.5 131,-186.5 131,-145.5 0,-145.5"/>
<text text-anchor="start" x="8" y="-174.5" font-family="Helvetica,sans-Serif" font-size="10.00">Eigen::RotationBase</text>
<text text-anchor="start" x="8" y="-163.5" font-family="Helvetica,sans-Serif" font-size="10.00">&lt; Quaternion&lt; _Scalar,</text>
<text text-anchor="middle" x="65.5" y="-152.5" font-family="Helvetica,sans-Serif" font-size="10.00"> _Options &gt;, 3 &gt;</text>
</a>
</g>
</g>
<!-- Node2&#45;&gt;Node1 -->
<g id="edge2" class="edge"><title>Node2&#45;&gt;Node1</title>
<path fill="none" stroke="midnightblue" d="M65.5,-135.297C65.5,-126.301 65.5,-116.653 65.5,-108.506"/>
<polygon fill="midnightblue" stroke="midnightblue" points="62.0001,-135.428 65.5,-145.428 69.0001,-135.428 62.0001,-135.428"/>
</g>
</g>
</svg>
