<?xml version="1.0" encoding="UTF-8" standalone="no"?>
<!DOCTYPE svg PUBLIC "-//W3C//DTD SVG 1.1//EN"
 "http://www.w3.org/Graphics/SVG/1.1/DTD/svg11.dtd">
<!-- Generated by graphviz version 2.38.0 (20140413.2041)
 -->
<!-- Title: Eigen::AutoDiffScalar::value Pages: 1 -->
<!--zoomable 661 -->
<svg id="main" version="1.1" xmlns="http://www.w3.org/2000/svg" xmlns:xlink="http://www.w3.org/1999/xlink" xml:space="preserve" onload="init(evt)">
<style type="text/css"><![CDATA[
.edge:hover path { stroke: red; }
.edge:hover polygon { stroke: red; fill: red; }
]]></style>
<script type="text/javascript"><![CDATA[
var edges = document.getElementsByTagName('g');
if (edges && edges.length) {
  for (var i=0;i<edges.length;i++) {
    if (edges[i].id.substr(0,4)=='edge') {
      edges[i].setAttribute('class','edge');
    }
  }
}
]]></script>
        <defs>
                <circle id="rim" cx="0" cy="0" r="7"/>
                <circle id="rim2" cx="0" cy="0" r="3.5"/>
                <g id="zoomPlus">
                        <use xlink:href="#rim" fill="#404040">
                                <set attributeName="fill" to="#808080" begin="zoomplus.mouseover" end="zoomplus.mouseout"/>
                        </use>
                        <path d="M-4,0h8M0,-4v8" fill="none" stroke="white" stroke-width="1.5" pointer-events="none"/>
                </g>
                <g id="zoomMin">
                        <use xlink:href="#rim" fill="#404040">
                                <set attributeName="fill" to="#808080" begin="zoomminus.mouseover" end="zoomminus.mouseout"/>
                        </use>
                        <path d="M-4,0h8" fill="none" stroke="white" stroke-width="1.5" pointer-events="none"/>
                </g>
                <g id="dirArrow">
                        <path fill="none" stroke="white" stroke-width="1.5" d="M0,-3.0v7 M-2.5,-0.5L0,-3.0L2.5,-0.5"/>
                </g>
               <g id="resetDef">
                       <use xlink:href="#rim2" fill="#404040">
                               <set attributeName="fill" to="#808080" begin="reset.mouseover" end="reset.mouseout"/>
                       </use>
               </g>
        </defs>

<script type="text/javascript">
var viewWidth = 747;
var viewHeight = 661;
var sectionId = 'dynsection-15';
</script>
<script xlink:href="svgpan.js"/>
<svg id="graph" class="graph">
<g id="viewport">
<title>Eigen::AutoDiffScalar::value</title>
<!-- Node148 -->
<g id="node1" class="node"><title>Node148</title>
<polygon fill="#bfbfbf" stroke="black" points="0,-220.5 0,-250.5 117,-250.5 117,-220.5 0,-220.5"/>
<text text-anchor="start" x="8" y="-238.5" font-family="Helvetica,sans-Serif" font-size="10.00">Eigen::AutoDiffScalar</text>
<text text-anchor="middle" x="58.5" y="-227.5" font-family="Helvetica,sans-Serif" font-size="10.00">::value</text>
</g>
<!-- Node149 -->
<g id="node2" class="node"><title>Node149</title>
<g id="a_node2"><a xlink:href="namespaceEigen.html#a005dd347b005fd91307df49f89186e06" target="_top" xlink:title="Eigen::atan2">
<polygon fill="none" stroke="black" points="173,-442 173,-461 250,-461 250,-442 173,-442"/>
<text text-anchor="middle" x="211.5" y="-449" font-family="Helvetica,sans-Serif" font-size="10.00">Eigen::atan2</text>
</a>
</g>
</g>
<!-- Node148&#45;&gt;Node149 -->
<g id="edge1" class="edge"><title>Node148&#45;&gt;Node149</title>
<path fill="none" stroke="midnightblue" d="M64.6187,-260.37C74.4491,-301.94 99.8773,-385.587 153,-432.5 158.674,-437.511 165.705,-441.206 172.88,-443.929"/>
<polygon fill="midnightblue" stroke="midnightblue" points="68.0123,-259.508 62.3981,-250.523 61.1837,-261.048 68.0123,-259.508"/>
</g>
<!-- Node163 -->
<g id="node16" class="node"><title>Node163</title>
<g id="a_node16"><a xlink:href="classEigen_1_1AutoDiffScalar.html#adb82d0cf1a5105b67014598b8feabd81" target="_top" xlink:title="Eigen::AutoDiffScalar\l::operator!=">
<polygon fill="none" stroke="black" points="153,-392.5 153,-422.5 270,-422.5 270,-392.5 153,-392.5"/>
<text text-anchor="start" x="161" y="-410.5" font-family="Helvetica,sans-Serif" font-size="10.00">Eigen::AutoDiffScalar</text>
<text text-anchor="middle" x="211.5" y="-399.5" font-family="Helvetica,sans-Serif" font-size="10.00">::operator!=</text>
</a>
</g>
</g>
<!-- Node148&#45;&gt;Node163 -->
<g id="edge15" class="edge"><title>Node148&#45;&gt;Node163</title>
<path fill="none" stroke="midnightblue" d="M69.4415,-260.236C83.5769,-292.586 112.355,-349.169 153,-383.5 156.967,-386.85 161.467,-389.788 166.162,-392.35"/>
<polygon fill="midnightblue" stroke="midnightblue" points="72.4989,-258.481 65.3702,-250.643 66.0552,-261.216 72.4989,-258.481"/>
</g>
<!-- Node164 -->
<g id="node17" class="node"><title>Node164</title>
<g id="a_node17"><a xlink:href="classEigen_1_1AutoDiffScalar.html#a667db5476e895fe41d3c603134fdab12" target="_top" xlink:title="Eigen::AutoDiffScalar\l::operator*">
<polygon fill="none" stroke="black" points="153,-343.5 153,-373.5 270,-373.5 270,-343.5 153,-343.5"/>
<text text-anchor="start" x="161" y="-361.5" font-family="Helvetica,sans-Serif" font-size="10.00">Eigen::AutoDiffScalar</text>
<text text-anchor="middle" x="211.5" y="-350.5" font-family="Helvetica,sans-Serif" font-size="10.00">::operator*</text>
</a>
</g>
</g>
<!-- Node148&#45;&gt;Node164 -->
<g id="edge16" class="edge"><title>Node148&#45;&gt;Node164</title>
<path fill="none" stroke="midnightblue" d="M76.888,-258.94C94.1656,-280.886 122.437,-313.38 153,-334.5 157.806,-337.821 163.142,-340.809 168.572,-343.456"/>
<polygon fill="midnightblue" stroke="midnightblue" points="79.4912,-256.584 70.609,-250.809 73.9508,-260.863 79.4912,-256.584"/>
</g>
<!-- Node165 -->
<g id="node18" class="node"><title>Node165</title>
<g id="a_node18"><a xlink:href="classEigen_1_1AutoDiffScalar.html#a476a55b11b3869b3908d164e19feeaff" target="_top" xlink:title="Eigen::AutoDiffScalar\l::operator+">
<polygon fill="none" stroke="black" points="153,-294.5 153,-324.5 270,-324.5 270,-294.5 153,-294.5"/>
<text text-anchor="start" x="161" y="-312.5" font-family="Helvetica,sans-Serif" font-size="10.00">Eigen::AutoDiffScalar</text>
<text text-anchor="middle" x="211.5" y="-301.5" font-family="Helvetica,sans-Serif" font-size="10.00">::operator+</text>
</a>
</g>
</g>
<!-- Node148&#45;&gt;Node165 -->
<g id="edge17" class="edge"><title>Node148&#45;&gt;Node165</title>
<path fill="none" stroke="midnightblue" d="M95.3033,-255.682C112.546,-265.134 133.637,-276.308 153,-285.5 159.352,-288.515 166.185,-291.547 172.846,-294.392"/>
<polygon fill="midnightblue" stroke="midnightblue" points="96.6018,-252.401 86.1557,-250.632 93.2187,-258.529 96.6018,-252.401"/>
</g>
<!-- Node166 -->
<g id="node19" class="node"><title>Node166</title>
<g id="a_node19"><a xlink:href="classEigen_1_1AutoDiffScalar.html#ab27197e734ceb3cbcfb53f5685dd8ae2" target="_top" xlink:title="Eigen::AutoDiffScalar\l::operator&#45;">
<polygon fill="none" stroke="black" points="153,-245.5 153,-275.5 270,-275.5 270,-245.5 153,-245.5"/>
<text text-anchor="start" x="161" y="-263.5" font-family="Helvetica,sans-Serif" font-size="10.00">Eigen::AutoDiffScalar</text>
<text text-anchor="middle" x="211.5" y="-252.5" font-family="Helvetica,sans-Serif" font-size="10.00">::operator&#45;</text>
</a>
</g>
</g>
<!-- Node148&#45;&gt;Node166 -->
<g id="edge18" class="edge"><title>Node148&#45;&gt;Node166</title>
<path fill="none" stroke="midnightblue" d="M127.052,-246.684C135.678,-248.112 144.444,-249.564 152.893,-250.962"/>
<polygon fill="midnightblue" stroke="midnightblue" points="127.455,-243.203 117.017,-245.023 126.311,-250.109 127.455,-243.203"/>
</g>
<!-- Node167 -->
<g id="node20" class="node"><title>Node167</title>
<g id="a_node20"><a xlink:href="classEigen_1_1AutoDiffScalar.html#ada083e615e9a99170467c29224f96917" target="_top" xlink:title="Eigen::AutoDiffScalar\l::operator/">
<polygon fill="none" stroke="black" points="153,-196.5 153,-226.5 270,-226.5 270,-196.5 153,-196.5"/>
<text text-anchor="start" x="161" y="-214.5" font-family="Helvetica,sans-Serif" font-size="10.00">Eigen::AutoDiffScalar</text>
<text text-anchor="middle" x="211.5" y="-203.5" font-family="Helvetica,sans-Serif" font-size="10.00">::operator/</text>
</a>
</g>
</g>
<!-- Node148&#45;&gt;Node167 -->
<g id="edge19" class="edge"><title>Node148&#45;&gt;Node167</title>
<path fill="none" stroke="midnightblue" d="M127.052,-224.763C135.678,-223.392 144.444,-221.999 152.893,-220.656"/>
<polygon fill="midnightblue" stroke="midnightblue" points="126.344,-221.332 117.017,-226.358 127.443,-228.245 126.344,-221.332"/>
</g>
<!-- Node168 -->
<g id="node21" class="node"><title>Node168</title>
<g id="a_node21"><a xlink:href="classEigen_1_1AutoDiffScalar.html#ace0b339ca93dbf2097e69b1d3996f2cd" target="_top" xlink:title="Eigen::AutoDiffScalar\l::operator=">
<polygon fill="none" stroke="black" points="153,-147.5 153,-177.5 270,-177.5 270,-147.5 153,-147.5"/>
<text text-anchor="start" x="161" y="-165.5" font-family="Helvetica,sans-Serif" font-size="10.00">Eigen::AutoDiffScalar</text>
<text text-anchor="middle" x="211.5" y="-154.5" font-family="Helvetica,sans-Serif" font-size="10.00">::operator=</text>
</a>
</g>
</g>
<!-- Node148&#45;&gt;Node168 -->
<g id="edge20" class="edge"><title>Node148&#45;&gt;Node168</title>
<path fill="none" stroke="midnightblue" d="M95.7212,-215.576C112.903,-206.369 133.825,-195.505 153,-186.5 159.462,-183.465 166.414,-180.4 173.174,-177.522"/>
<polygon fill="midnightblue" stroke="midnightblue" points="93.7351,-212.67 86.5955,-220.498 97.0584,-218.831 93.7351,-212.67"/>
</g>
<!-- Node169 -->
<g id="node22" class="node"><title>Node169</title>
<g id="a_node22"><a xlink:href="classEigen_1_1AutoDiffScalar.html#a75a2c079719492832e48b01e6a1d5475" target="_top" xlink:title="Eigen::AutoDiffScalar\l::operator==">
<polygon fill="none" stroke="black" points="153,-98.5 153,-128.5 270,-128.5 270,-98.5 153,-98.5"/>
<text text-anchor="start" x="161" y="-116.5" font-family="Helvetica,sans-Serif" font-size="10.00">Eigen::AutoDiffScalar</text>
<text text-anchor="middle" x="211.5" y="-105.5" font-family="Helvetica,sans-Serif" font-size="10.00">::operator==</text>
</a>
</g>
</g>
<!-- Node148&#45;&gt;Node169 -->
<g id="edge21" class="edge"><title>Node148&#45;&gt;Node169</title>
<path fill="none" stroke="midnightblue" d="M76.937,-212.308C94.2503,-190.59 122.547,-158.43 153,-137.5 157.814,-134.191 163.155,-131.211 168.588,-128.567"/>
<polygon fill="midnightblue" stroke="midnightblue" points="74.0479,-210.321 70.6436,-220.354 79.5615,-214.633 74.0479,-210.321"/>
</g>
<!-- Node170 -->
<g id="node23" class="node"><title>Node170</title>
<g id="a_node23"><a xlink:href="classEigen_1_1AutoDiffScalar.html#a620709009b961f29437b2beeb6037d19" target="_top" xlink:title="Eigen::AutoDiffScalar\l::operator\&gt;">
<polygon fill="none" stroke="black" points="153,-49.5 153,-79.5 270,-79.5 270,-49.5 153,-49.5"/>
<text text-anchor="start" x="161" y="-67.5" font-family="Helvetica,sans-Serif" font-size="10.00">Eigen::AutoDiffScalar</text>
<text text-anchor="middle" x="211.5" y="-56.5" font-family="Helvetica,sans-Serif" font-size="10.00">::operator&gt;</text>
</a>
</g>
</g>
<!-- Node148&#45;&gt;Node170 -->
<g id="edge22" class="edge"><title>Node148&#45;&gt;Node170</title>
<path fill="none" stroke="midnightblue" d="M69.4846,-210.932C83.6678,-178.802 112.499,-122.603 153,-88.5 157.055,-85.086 161.664,-82.0996 166.466,-79.5022"/>
<polygon fill="midnightblue" stroke="midnightblue" points="66.1234,-209.89 65.3982,-220.46 72.5567,-212.649 66.1234,-209.89"/>
</g>
<!-- Node171 -->
<g id="node24" class="node"><title>Node171</title>
<g id="a_node24"><a xlink:href="classEigen_1_1AutoDiffScalar.html#ae50812039ed161f3357587873ba2c26f" target="_top" xlink:title="Eigen::AutoDiffScalar\l::operator\&gt;=">
<polygon fill="none" stroke="black" points="153,-0.5 153,-30.5 270,-30.5 270,-0.5 153,-0.5"/>
<text text-anchor="start" x="161" y="-18.5" font-family="Helvetica,sans-Serif" font-size="10.00">Eigen::AutoDiffScalar</text>
<text text-anchor="middle" x="211.5" y="-7.5" font-family="Helvetica,sans-Serif" font-size="10.00">::operator&gt;=</text>
</a>
</g>
</g>
<!-- Node148&#45;&gt;Node171 -->
<g id="edge23" class="edge"><title>Node148&#45;&gt;Node171</title>
<path fill="none" stroke="midnightblue" d="M65.2057,-210.581C75.7791,-169.651 102.12,-87.9118 153,-39.5 156.605,-36.07 160.771,-33.0977 165.18,-30.5295"/>
<polygon fill="midnightblue" stroke="midnightblue" points="61.8072,-209.744 62.7971,-220.293 68.6014,-211.429 61.8072,-209.744"/>
</g>
<!-- Node150 -->
<g id="node3" class="node"><title>Node150</title>
<g id="a_node3"><a xlink:href="classEigen_1_1QuaternionBase.html#a03ff48b4eac8b8f64af37ed2ce796747" target="_top" xlink:title="Eigen::QuaternionBase\l\&lt; Quaternion\&lt; _Scalar,\l _Options \&gt; \&gt;::angularDistance">
<polygon fill="none" stroke="black" points="306,-611 306,-652 474,-652 474,-611 306,-611"/>
<text text-anchor="start" x="314" y="-640" font-family="Helvetica,sans-Serif" font-size="10.00">Eigen::QuaternionBase</text>
<text text-anchor="start" x="314" y="-629" font-family="Helvetica,sans-Serif" font-size="10.00">&lt; Quaternion&lt; _Scalar,</text>
<text text-anchor="middle" x="390" y="-618" font-family="Helvetica,sans-Serif" font-size="10.00"> _Options &gt; &gt;::angularDistance</text>
</a>
</g>
</g>
<!-- Node149&#45;&gt;Node150 -->
<g id="edge2" class="edge"><title>Node149&#45;&gt;Node150</title>
<path fill="none" stroke="midnightblue" d="M219.517,-470.515C232.098,-502.093 261.414,-565.436 306,-601.5 310.289,-604.969 315.012,-608.055 319.964,-610.799"/>
<polygon fill="midnightblue" stroke="midnightblue" points="222.755,-469.183 215.895,-461.109 216.223,-471.699 222.755,-469.183"/>
</g>
<!-- Node151 -->
<g id="node4" class="node"><title>Node151</title>
<g id="a_node4"><a xlink:href="array_8cpp.html#a42679ca56b93432f069ffb2f7da98ecd" target="_top" xlink:title="array_complex">
<polygon fill="none" stroke="black" points="346.5,-573 346.5,-592 433.5,-592 433.5,-573 346.5,-573"/>
<text text-anchor="middle" x="390" y="-580" font-family="Helvetica,sans-Serif" font-size="10.00">array_complex</text>
</a>
</g>
</g>
<!-- Node149&#45;&gt;Node151 -->
<g id="edge3" class="edge"><title>Node149&#45;&gt;Node151</title>
<path fill="none" stroke="midnightblue" d="M222.686,-470.028C237.564,-495.269 267.685,-540.003 306,-563.5 318.097,-570.919 332.794,-575.445 346.438,-578.206"/>
<polygon fill="midnightblue" stroke="midnightblue" points="225.584,-468.047 217.583,-461.102 219.507,-471.521 225.584,-468.047"/>
</g>
<!-- Node152 -->
<g id="node5" class="node"><title>Node152</title>
<g id="a_node5"><a xlink:href="autodiff__scalar_8cpp.html#a0bde63ab6f5f966c8fa91fbe96c3a15d" target="_top" xlink:title="check_atan2">
<polygon fill="none" stroke="black" points="351.5,-535 351.5,-554 428.5,-554 428.5,-535 351.5,-535"/>
<text text-anchor="middle" x="390" y="-542" font-family="Helvetica,sans-Serif" font-size="10.00">check_atan2</text>
</a>
</g>
</g>
<!-- Node149&#45;&gt;Node152 -->
<g id="edge4" class="edge"><title>Node149&#45;&gt;Node152</title>
<path fill="none" stroke="midnightblue" d="M228.778,-468.186C246.293,-485.162 275.732,-510.981 306,-525.5 320.128,-532.277 336.786,-536.699 351.458,-539.555"/>
<polygon fill="midnightblue" stroke="midnightblue" points="231.175,-465.635 221.609,-461.081 226.247,-470.606 231.175,-465.635"/>
</g>
<!-- Node153 -->
<g id="node6" class="node"><title>Node153</title>
<g id="a_node6"><a xlink:href="eig33_8cpp.html#a9b30d5945effb5111b5c9d18c4c241ee" target="_top" xlink:title="computeRoots">
<polygon fill="none" stroke="black" points="347,-497 347,-516 433,-516 433,-497 347,-497"/>
<text text-anchor="middle" x="390" y="-504" font-family="Helvetica,sans-Serif" font-size="10.00">computeRoots</text>
</a>
</g>
</g>
<!-- Node149&#45;&gt;Node153 -->
<g id="edge5" class="edge"><title>Node149&#45;&gt;Node153</title>
<path fill="none" stroke="midnightblue" d="M244.249,-465.02C262.163,-472.319 285.085,-481.115 306,-487.5 319.149,-491.514 333.698,-495.119 346.895,-498.082"/>
<polygon fill="midnightblue" stroke="midnightblue" points="245.436,-461.724 234.857,-461.144 242.766,-468.194 245.436,-461.724"/>
</g>
<!-- Node158 -->
<g id="node11" class="node"><title>Node158</title>
<g id="a_node11"><a xlink:href="structEigen_1_1internal_1_1direct__selfadjoint__eigenvalues_3_01SolverType_00_013_00_01false_01_4.html#abb216c5ee047da4b4d7b225948b5d666" target="_top" xlink:title="Eigen::internal::direct\l_selfadjoint_eigenvalues\l\&lt; SolverType, 3, false \&gt;\l::computeRoots">
<polygon fill="none" stroke="black" points="323.5,-425.5 323.5,-477.5 456.5,-477.5 456.5,-425.5 323.5,-425.5"/>
<text text-anchor="start" x="331.5" y="-465.5" font-family="Helvetica,sans-Serif" font-size="10.00">Eigen::internal::direct</text>
<text text-anchor="start" x="331.5" y="-454.5" font-family="Helvetica,sans-Serif" font-size="10.00">_selfadjoint_eigenvalues</text>
<text text-anchor="start" x="331.5" y="-443.5" font-family="Helvetica,sans-Serif" font-size="10.00">&lt; SolverType, 3, false &gt;</text>
<text text-anchor="middle" x="390" y="-432.5" font-family="Helvetica,sans-Serif" font-size="10.00">::computeRoots</text>
</a>
</g>
</g>
<!-- Node149&#45;&gt;Node158 -->
<g id="edge10" class="edge"><title>Node149&#45;&gt;Node158</title>
<path fill="none" stroke="midnightblue" d="M260.465,-451.5C279.847,-451.5 302.531,-451.5 323.401,-451.5"/>
<polygon fill="midnightblue" stroke="midnightblue" points="260.364,-448 250.364,-451.5 260.364,-455 260.364,-448"/>
</g>
<!-- Node159 -->
<g id="node12" class="node"><title>Node159</title>
<g id="a_node12"><a xlink:href="group__Geometry__Module.html#ga24e8dc29689f0075ba5b1f90c02b76dc" target="_top" xlink:title="Eigen::MatrixBase\&lt;\l Solve\&lt; Decomposition,\l RhsType \&gt; \&gt;::eulerAngles">
<polygon fill="none" stroke="black" points="318.5,-365 318.5,-406 461.5,-406 461.5,-365 318.5,-365"/>
<text text-anchor="start" x="326.5" y="-394" font-family="Helvetica,sans-Serif" font-size="10.00">Eigen::MatrixBase&lt;</text>
<text text-anchor="start" x="326.5" y="-383" font-family="Helvetica,sans-Serif" font-size="10.00"> Solve&lt; Decomposition,</text>
<text text-anchor="middle" x="390" y="-372" font-family="Helvetica,sans-Serif" font-size="10.00"> RhsType &gt; &gt;::eulerAngles</text>
</a>
</g>
</g>
<!-- Node149&#45;&gt;Node159 -->
<g id="edge11" class="edge"><title>Node149&#45;&gt;Node159</title>
<path fill="none" stroke="midnightblue" d="M252.777,-438.755C258.589,-436.753 264.471,-434.636 270,-432.5 286.333,-426.19 289.791,-423.122 306,-416.5 314.544,-413.01 323.642,-409.453 332.565,-406.052"/>
<polygon fill="midnightblue" stroke="midnightblue" points="251.499,-435.492 243.138,-442 253.732,-442.126 251.499,-435.492"/>
</g>
<!-- Node160 -->
<g id="node13" class="node"><title>Node160</title>
<g id="a_node13"><a xlink:href="classEigen_1_1Rotation2D.html#ab60bf3b2d7a33e8e29856f35839eba72" target="_top" xlink:title="Eigen::Rotation2D::\lfromRotationMatrix">
<polygon fill="none" stroke="black" points="336.5,-315.5 336.5,-345.5 443.5,-345.5 443.5,-315.5 336.5,-315.5"/>
<text text-anchor="start" x="344.5" y="-333.5" font-family="Helvetica,sans-Serif" font-size="10.00">Eigen::Rotation2D::</text>
<text text-anchor="middle" x="390" y="-322.5" font-family="Helvetica,sans-Serif" font-size="10.00">fromRotationMatrix</text>
</a>
</g>
</g>
<!-- Node149&#45;&gt;Node160 -->
<g id="edge12" class="edge"><title>Node149&#45;&gt;Node160</title>
<path fill="none" stroke="midnightblue" d="M259.37,-439.788C263.201,-437.736 266.817,-435.328 270,-432.5 298.244,-407.412 277.425,-380.211 306,-355.5 314.651,-348.019 325.481,-342.776 336.433,-339.102"/>
<polygon fill="midnightblue" stroke="midnightblue" points="257.816,-436.649 250.142,-443.954 260.697,-443.029 257.816,-436.649"/>
</g>
<!-- Node161 -->
<g id="node14" class="node"><title>Node161</title>
<g id="a_node14"><a xlink:href="classEulerAngles.html#a205606bcdcfc9ae5cd0d82d54f8639ed" target="_top" xlink:title="EulerAngles::operator=">
<polygon fill="none" stroke="black" points="326,-277 326,-296 454,-296 454,-277 326,-277"/>
<text text-anchor="middle" x="390" y="-284" font-family="Helvetica,sans-Serif" font-size="10.00">EulerAngles::operator=</text>
</a>
</g>
</g>
<!-- Node149&#45;&gt;Node161 -->
<g id="edge13" class="edge"><title>Node149&#45;&gt;Node161</title>
<path fill="none" stroke="midnightblue" d="M259.558,-440.485C263.404,-438.29 266.969,-435.657 270,-432.5 310.333,-390.485 263.965,-346.812 306,-306.5 311.67,-301.063 318.55,-297.019 325.895,-294.026"/>
<polygon fill="midnightblue" stroke="midnightblue" points="257.776,-437.454 250.194,-444.855 260.736,-443.798 257.776,-437.454"/>
</g>
<!-- Node162 -->
<g id="node15" class="node"><title>Node162</title>
<g id="a_node15"><a xlink:href="classEigen_1_1AngleAxis.html#aff838a6d260ae70bd7b8ff452dfbdfb6" target="_top" xlink:title="Eigen::AngleAxis::operator=">
<polygon fill="none" stroke="black" points="314.5,-239 314.5,-258 465.5,-258 465.5,-239 314.5,-239"/>
<text text-anchor="middle" x="390" y="-246" font-family="Helvetica,sans-Serif" font-size="10.00">Eigen::AngleAxis::operator=</text>
</a>
</g>
</g>
<!-- Node149&#45;&gt;Node162 -->
<g id="edge14" class="edge"><title>Node149&#45;&gt;Node162</title>
<path fill="none" stroke="midnightblue" d="M259.295,-440.961C263.282,-438.672 266.949,-435.887 270,-432.5 320.235,-376.731 253.198,-320.845 306,-267.5 309.744,-263.718 314.076,-260.624 318.757,-258.099"/>
<polygon fill="midnightblue" stroke="midnightblue" points="257.751,-437.82 250.172,-445.223 260.713,-444.162 257.751,-437.82"/>
</g>
<!-- Node154 -->
<g id="node7" class="node"><title>Node154</title>
<g id="a_node7"><a xlink:href="eig33_8cpp.html#a1c6f436d9603b7ff6f87e16873565f14" target="_top" xlink:title="eigen33">
<polygon fill="none" stroke="black" points="558.5,-546 558.5,-565 613.5,-565 613.5,-546 558.5,-546"/>
<text text-anchor="middle" x="586" y="-553" font-family="Helvetica,sans-Serif" font-size="10.00">eigen33</text>
</a>
</g>
</g>
<!-- Node153&#45;&gt;Node154 -->
<g id="edge6" class="edge"><title>Node153&#45;&gt;Node154</title>
<path fill="none" stroke="midnightblue" d="M443.386,-517.893C453.573,-520.277 464.145,-522.87 474,-525.5 490.165,-529.814 493.886,-532 510,-536.5 525.913,-540.944 543.848,-545.504 558.189,-549.042"/>
<polygon fill="midnightblue" stroke="midnightblue" points="443.899,-514.42 433.368,-515.585 442.327,-521.241 443.899,-514.42"/>
</g>
<!-- Node156 -->
<g id="node9" class="node"><title>Node156</title>
<g id="a_node9"><a xlink:href="structEigen_1_1internal_1_1direct__selfadjoint__eigenvalues_3_01SolverType_00_013_00_01false_01_4.html#a9bba7b5bd5aeb6d3ede0cd70ed18f231" target="_top" xlink:title="Eigen::internal::direct\l_selfadjoint_eigenvalues\l\&lt; SolverType, 3, false \&gt;::run">
<polygon fill="none" stroke="black" points="510,-486 510,-527 662,-527 662,-486 510,-486"/>
<text text-anchor="start" x="518" y="-515" font-family="Helvetica,sans-Serif" font-size="10.00">Eigen::internal::direct</text>
<text text-anchor="start" x="518" y="-504" font-family="Helvetica,sans-Serif" font-size="10.00">_selfadjoint_eigenvalues</text>
<text text-anchor="middle" x="586" y="-493" font-family="Helvetica,sans-Serif" font-size="10.00">&lt; SolverType, 3, false &gt;::run</text>
</a>
</g>
</g>
<!-- Node153&#45;&gt;Node156 -->
<g id="edge8" class="edge"><title>Node153&#45;&gt;Node156</title>
<path fill="none" stroke="midnightblue" d="M443.148,-506.5C463.607,-506.5 487.479,-506.5 509.741,-506.5"/>
<polygon fill="midnightblue" stroke="midnightblue" points="443.095,-503 433.095,-506.5 443.095,-510 443.095,-503"/>
</g>
<!-- Node157 -->
<g id="node10" class="node"><title>Node157</title>
<g id="a_node10"><a xlink:href="structEigen_1_1internal_1_1direct__selfadjoint__eigenvalues_3_01SolverType_00_012_00_01false_01_4.html#addc88bfeaab72fc09c5429df3d680bd7" target="_top" xlink:title="Eigen::internal::direct\l_selfadjoint_eigenvalues\l\&lt; SolverType, 2, false \&gt;::run">
<polygon fill="none" stroke="black" points="510,-426 510,-467 662,-467 662,-426 510,-426"/>
<text text-anchor="start" x="518" y="-455" font-family="Helvetica,sans-Serif" font-size="10.00">Eigen::internal::direct</text>
<text text-anchor="start" x="518" y="-444" font-family="Helvetica,sans-Serif" font-size="10.00">_selfadjoint_eigenvalues</text>
<text text-anchor="middle" x="586" y="-433" font-family="Helvetica,sans-Serif" font-size="10.00">&lt; SolverType, 2, false &gt;::run</text>
</a>
</g>
</g>
<!-- Node153&#45;&gt;Node157 -->
<g id="edge9" class="edge"><title>Node153&#45;&gt;Node157</title>
<path fill="none" stroke="midnightblue" d="M442.86,-495.712C453.237,-493.25 464.015,-490.473 474,-487.5 493.689,-481.637 514.933,-474.098 533.513,-467.088"/>
<polygon fill="midnightblue" stroke="midnightblue" points="442.028,-492.312 433.072,-497.973 443.604,-499.132 442.028,-492.312"/>
</g>
<!-- Node155 -->
<g id="node8" class="node"><title>Node155</title>
<g id="a_node8"><a xlink:href="eig33_8cpp.html#ae66f6b31b5ad750f1fe042a706a4e3d4" target="_top" xlink:title="main">
<polygon fill="none" stroke="black" points="698,-546 698,-565 739,-565 739,-546 698,-546"/>
<text text-anchor="middle" x="718.5" y="-553" font-family="Helvetica,sans-Serif" font-size="10.00">main</text>
</a>
</g>
</g>
<!-- Node154&#45;&gt;Node155 -->
<g id="edge7" class="edge"><title>Node154&#45;&gt;Node155</title>
<path fill="none" stroke="midnightblue" d="M623.882,-555.5C647.824,-555.5 678.093,-555.5 697.623,-555.5"/>
<polygon fill="midnightblue" stroke="midnightblue" points="623.724,-552 613.724,-555.5 623.723,-559 623.724,-552"/>
</g>
</g>
</svg>
        <g id="navigator" transform="translate(0 0)" fill="#404254">
                <rect fill="#f2f5e9" fill-opacity="0.5" stroke="#606060" stroke-width=".5" x="0" y="0" width="60" height="60"/>
                <use id="zoomplus" xlink:href="#zoomPlus" x="17" y="9" onmousedown="handleZoom(evt,'in')"/>
                <use id="zoomminus" xlink:href="#zoomMin" x="42" y="9" onmousedown="handleZoom(evt,'out')"/>
                <use id="reset" xlink:href="#resetDef" x="30" y="36" onmousedown="handleReset()"/>
                <g id="arrowUp" xlink:href="#dirArrow" transform="translate(30 24)" onmousedown="handlePan(0,-1)">
                  <use xlink:href="#rim" fill="#404040">
                        <set attributeName="fill" to="#808080" begin="arrowUp.mouseover" end="arrowUp.mouseout"/>
                  </use>
                  <path fill="none" stroke="white" stroke-width="1.5" d="M0,-3.0v7 M-2.5,-0.5L0,-3.0L2.5,-0.5"/>
                </g>
                <g id="arrowRight" xlink:href="#dirArrow" transform="rotate(90) translate(36 -43)" onmousedown="handlePan(1,0)">
                  <use xlink:href="#rim" fill="#404040">
                        <set attributeName="fill" to="#808080" begin="arrowRight.mouseover" end="arrowRight.mouseout"/>
                  </use>
                  <path fill="none" stroke="white" stroke-width="1.5" d="M0,-3.0v7 M-2.5,-0.5L0,-3.0L2.5,-0.5"/>
                </g>
                <g id="arrowDown" xlink:href="#dirArrow" transform="rotate(180) translate(-30 -48)" onmousedown="handlePan(0,1)">
                  <use xlink:href="#rim" fill="#404040">
                        <set attributeName="fill" to="#808080" begin="arrowDown.mouseover" end="arrowDown.mouseout"/>
                  </use>
                  <path fill="none" stroke="white" stroke-width="1.5" d="M0,-3.0v7 M-2.5,-0.5L0,-3.0L2.5,-0.5"/>
                </g>
                <g id="arrowLeft" xlink:href="#dirArrow" transform="rotate(270) translate(-36 17)" onmousedown="handlePan(-1,0)">
                  <use xlink:href="#rim" fill="#404040">
                        <set attributeName="fill" to="#808080" begin="arrowLeft.mouseover" end="arrowLeft.mouseout"/>
                  </use>
                  <path fill="none" stroke="white" stroke-width="1.5" d="M0,-3.0v7 M-2.5,-0.5L0,-3.0L2.5,-0.5"/>
                </g>
        </g>
        <svg viewBox="0 0 15 15" width="100%" height="30px" preserveAspectRatio="xMaxYMin meet">
         <g id="arrow_out" transform="scale(0.3 0.3)">
          <a xlink:href="classEigen_1_1AutoDiffScalar_a3fb25233941b46affc60c9569829656b_icgraph_org.svg" target="_base">
           <rect id="button" ry="5" rx="5" y="6" x="6" height="38" width="38"
                fill="#f2f5e9" fill-opacity="0.5" stroke="#606060" stroke-width="1.0"/>
           <path id="arrow"
             d="M 11.500037,31.436501 C 11.940474,20.09759 22.043105,11.32322 32.158766,21.979434 L 37.068811,17.246167 C 37.068811,17.246167 37.088388,32 37.088388,32 L 22.160133,31.978069 C 22.160133,31.978069 26.997745,27.140456 26.997745,27.140456 C 18.528582,18.264221 13.291696,25.230495 11.500037,31.436501 z"
             style="fill:#404040;"/>
          </a>
         </g>
        </svg>
</svg>
