<?xml version="1.0" encoding="UTF-8" standalone="no"?>
<!DOCTYPE svg PUBLIC "-//W3C//DTD SVG 1.1//EN"
 "http://www.w3.org/Graphics/SVG/1.1/DTD/svg11.dtd">
<!-- Generated by graphviz version 2.38.0 (20140413.2041)
 -->
<!-- Title: Eigen::IncompleteCholesky::factorize Pages: 1 -->
<svg width="696pt" height="61pt"
 viewBox="0.00 0.00 696.00 61.00" xmlns="http://www.w3.org/2000/svg" xmlns:xlink="http://www.w3.org/1999/xlink">
<g id="graph0" class="graph" transform="scale(1 1) rotate(0) translate(4 57)">
<title>Eigen::IncompleteCholesky::factorize</title>
<!-- Node29 -->
<g id="node1" class="node"><title>Node29</title>
<polygon fill="#bfbfbf" stroke="black" points="0,-0.5 0,-30.5 145,-30.5 145,-0.5 0,-0.5"/>
<text text-anchor="start" x="8" y="-18.5" font-family="Helvetica,sans-Serif" font-size="10.00">Eigen::IncompleteCholesky</text>
<text text-anchor="middle" x="72.5" y="-7.5" font-family="Helvetica,sans-Serif" font-size="10.00">::factorize</text>
</g>
<!-- Node30 -->
<g id="node2" class="node"><title>Node30</title>
<g id="a_node2"><a xlink:href="classEigen_1_1IncompleteCholesky.html#a702560ecdddef77dc51d20ab22bd974e" target="_top" xlink:title="Computes the fill reducing permutation vector using the sparsity pattern of mat. ">
<polygon fill="none" stroke="black" points="181,-22.5 181,-52.5 326,-52.5 326,-22.5 181,-22.5"/>
<text text-anchor="start" x="189" y="-40.5" font-family="Helvetica,sans-Serif" font-size="10.00">Eigen::IncompleteCholesky</text>
<text text-anchor="middle" x="253.5" y="-29.5" font-family="Helvetica,sans-Serif" font-size="10.00">::analyzePattern</text>
</a>
</g>
</g>
<!-- Node29&#45;&gt;Node30 -->
<g id="edge1" class="edge"><title>Node29&#45;&gt;Node30</title>
<path fill="none" stroke="midnightblue" d="M155.043,-25.522C163.638,-26.5784 172.332,-27.647 180.804,-28.6882"/>
<polygon fill="midnightblue" stroke="midnightblue" points="155.37,-22.0359 145.017,-24.2898 154.516,-28.9836 155.37,-22.0359"/>
</g>
<!-- Node31 -->
<g id="node3" class="node"><title>Node31</title>
<g id="a_node3"><a xlink:href="classEigen_1_1IncompleteCholesky.html#a7966bedeebbeaa7a8fe4dd1da3797a0b" target="_top" xlink:title="Eigen::IncompleteCholesky\l::compute">
<polygon fill="none" stroke="black" points="362,-0.5 362,-30.5 507,-30.5 507,-0.5 362,-0.5"/>
<text text-anchor="start" x="370" y="-18.5" font-family="Helvetica,sans-Serif" font-size="10.00">Eigen::IncompleteCholesky</text>
<text text-anchor="middle" x="434.5" y="-7.5" font-family="Helvetica,sans-Serif" font-size="10.00">::compute</text>
</a>
</g>
</g>
<!-- Node29&#45;&gt;Node31 -->
<g id="edge4" class="edge"><title>Node29&#45;&gt;Node31</title>
<path fill="none" stroke="midnightblue" d="M155.34,-13.819C164.003,-13.6884 172.682,-13.5774 181,-13.5 245.442,-12.9006 261.558,-12.9006 326,-13.5 337.573,-13.6076 349.845,-13.7805 361.8,-13.9806"/>
<polygon fill="midnightblue" stroke="midnightblue" points="155.143,-10.3216 145.2,-13.9806 155.255,-17.3207 155.143,-10.3216"/>
</g>
<!-- Node30&#45;&gt;Node31 -->
<g id="edge2" class="edge"><title>Node30&#45;&gt;Node31</title>
<path fill="none" stroke="midnightblue" d="M336.043,-27.478C344.638,-26.4216 353.332,-25.353 361.804,-24.3118"/>
<polygon fill="midnightblue" stroke="midnightblue" points="335.516,-24.0164 326.017,-28.7102 336.37,-30.9641 335.516,-24.0164"/>
</g>
<!-- Node32 -->
<g id="node4" class="node"><title>Node32</title>
<g id="a_node4"><a xlink:href="classEigen_1_1IncompleteCholesky.html#a757499fc814988a5b112b1f34d0295e1" target="_top" xlink:title="Eigen::IncompleteCholesky\l::IncompleteCholesky">
<polygon fill="none" stroke="black" points="543,-0.5 543,-30.5 688,-30.5 688,-0.5 543,-0.5"/>
<text text-anchor="start" x="551" y="-18.5" font-family="Helvetica,sans-Serif" font-size="10.00">Eigen::IncompleteCholesky</text>
<text text-anchor="middle" x="615.5" y="-7.5" font-family="Helvetica,sans-Serif" font-size="10.00">::IncompleteCholesky</text>
</a>
</g>
</g>
<!-- Node31&#45;&gt;Node32 -->
<g id="edge3" class="edge"><title>Node31&#45;&gt;Node32</title>
<path fill="none" stroke="midnightblue" d="M517.043,-15.5C525.638,-15.5 534.332,-15.5 542.804,-15.5"/>
<polygon fill="midnightblue" stroke="midnightblue" points="517.017,-12.0001 507.017,-15.5 517.017,-19.0001 517.017,-12.0001"/>
</g>
</g>
</svg>
