<?xml version="1.0" encoding="UTF-8" standalone="no"?>
<!DOCTYPE svg PUBLIC "-//W3C//DTD SVG 1.1//EN"
 "http://www.w3.org/Graphics/SVG/1.1/DTD/svg11.dtd">
<!-- Generated by graphviz version 2.38.0 (20140413.2041)
 -->
<!-- Title: Eigen::SparseMatrixBase::isRValue Pages: 1 -->
<svg width="334pt" height="137pt"
 viewBox="0.00 0.00 334.00 137.00" xmlns="http://www.w3.org/2000/svg" xmlns:xlink="http://www.w3.org/1999/xlink">
<g id="graph0" class="graph" transform="scale(1 1) rotate(0) translate(4 133)">
<title>Eigen::SparseMatrixBase::isRValue</title>
<!-- Node219 -->
<g id="node1" class="node"><title>Node219</title>
<polygon fill="#bfbfbf" stroke="black" points="0,-49.5 0,-79.5 136,-79.5 136,-49.5 0,-49.5"/>
<text text-anchor="start" x="8" y="-67.5" font-family="Helvetica,sans-Serif" font-size="10.00">Eigen::SparseMatrixBase</text>
<text text-anchor="middle" x="68" y="-56.5" font-family="Helvetica,sans-Serif" font-size="10.00">::isRValue</text>
</g>
<!-- Node220 -->
<g id="node2" class="node"><title>Node220</title>
<g id="a_node2"><a xlink:href="classEigen_1_1DynamicSparseMatrix.html#a12fab494d7e774126fca5d0cd6e82851" target="_top" xlink:title="Eigen::DynamicSparseMatrix\l::operator=">
<polygon fill="none" stroke="black" points="172,-98.5 172,-128.5 326,-128.5 326,-98.5 172,-98.5"/>
<text text-anchor="start" x="180" y="-116.5" font-family="Helvetica,sans-Serif" font-size="10.00">Eigen::DynamicSparseMatrix</text>
<text text-anchor="middle" x="249" y="-105.5" font-family="Helvetica,sans-Serif" font-size="10.00">::operator=</text>
</a>
</g>
</g>
<!-- Node219&#45;&gt;Node220 -->
<g id="edge1" class="edge"><title>Node219&#45;&gt;Node220</title>
<path fill="none" stroke="midnightblue" d="M133.836,-82.2485C153.236,-87.5591 174.313,-93.3288 193.016,-98.4484"/>
<polygon fill="midnightblue" stroke="midnightblue" points="134.736,-78.866 124.166,-79.6014 132.888,-85.6176 134.736,-78.866"/>
</g>
<!-- Node221 -->
<g id="node3" class="node"><title>Node221</title>
<g id="a_node3"><a xlink:href="classEigen_1_1SparseVector.html#a935bfc1abd2a6d621addee147fe53fc9" target="_top" xlink:title="Eigen::SparseVector\l::operator=">
<polygon fill="none" stroke="black" points="192.5,-49.5 192.5,-79.5 305.5,-79.5 305.5,-49.5 192.5,-49.5"/>
<text text-anchor="start" x="200.5" y="-67.5" font-family="Helvetica,sans-Serif" font-size="10.00">Eigen::SparseVector</text>
<text text-anchor="middle" x="249" y="-56.5" font-family="Helvetica,sans-Serif" font-size="10.00">::operator=</text>
</a>
</g>
</g>
<!-- Node219&#45;&gt;Node221 -->
<g id="edge2" class="edge"><title>Node219&#45;&gt;Node221</title>
<path fill="none" stroke="midnightblue" d="M146.275,-64.5C161.804,-64.5 177.833,-64.5 192.445,-64.5"/>
<polygon fill="midnightblue" stroke="midnightblue" points="146.162,-61.0001 136.162,-64.5 146.162,-68.0001 146.162,-61.0001"/>
</g>
<!-- Node222 -->
<g id="node4" class="node"><title>Node222</title>
<g id="a_node4"><a xlink:href="classEigen_1_1SparseMatrix.html#a241af782636f279406f4860fe49252b0" target="_top" xlink:title="Eigen::SparseMatrix\l\&lt; scalar_t \&gt;::operator=">
<polygon fill="none" stroke="black" points="183,-0.5 183,-30.5 315,-30.5 315,-0.5 183,-0.5"/>
<text text-anchor="start" x="191" y="-18.5" font-family="Helvetica,sans-Serif" font-size="10.00">Eigen::SparseMatrix</text>
<text text-anchor="middle" x="249" y="-7.5" font-family="Helvetica,sans-Serif" font-size="10.00">&lt; scalar_t &gt;::operator=</text>
</a>
</g>
</g>
<!-- Node219&#45;&gt;Node222 -->
<g id="edge3" class="edge"><title>Node219&#45;&gt;Node222</title>
<path fill="none" stroke="midnightblue" d="M133.836,-46.7515C153.236,-41.4409 174.313,-35.6712 193.016,-30.5516"/>
<polygon fill="midnightblue" stroke="midnightblue" points="132.888,-43.3824 124.166,-49.3986 134.736,-50.134 132.888,-43.3824"/>
</g>
</g>
</svg>
