<?xml version="1.0" encoding="UTF-8" standalone="no"?>
<!DOCTYPE svg PUBLIC "-//W3C//DTD SVG 1.1//EN"
 "http://www.w3.org/Graphics/SVG/1.1/DTD/svg11.dtd">
<!-- Generated by graphviz version 2.38.0 (20140413.2041)
 -->
<!-- Title: Eigen::SparseMapBase&lt; Derived, ReadOnlyAccessors &gt; Pages: 1 -->
<svg width="957pt" height="334pt"
 viewBox="0.00 0.00 957.00 333.50" xmlns="http://www.w3.org/2000/svg" xmlns:xlink="http://www.w3.org/1999/xlink">
<g id="graph0" class="graph" transform="scale(1 1) rotate(0) translate(4 329.5)">
<title>Eigen::SparseMapBase&lt; Derived, ReadOnlyAccessors &gt;</title>
<!-- Node5 -->
<g id="node1" class="node"><title>Node5</title>
<polygon fill="#bfbfbf" stroke="black" points="774,-161.5 774,-191.5 949,-191.5 949,-161.5 774,-161.5"/>
<text text-anchor="start" x="782" y="-179.5" font-family="Helvetica,sans-Serif" font-size="10.00">Eigen::SparseMapBase</text>
<text text-anchor="middle" x="861.5" y="-168.5" font-family="Helvetica,sans-Serif" font-size="10.00">&lt; Derived, ReadOnlyAccessors &gt;</text>
</g>
<!-- Node6 -->
<g id="node2" class="node"><title>Node6</title>
<g id="a_node2"><a xlink:href="classEigen_1_1SparseCompressedBase.html" target="_top" xlink:title="Common base class for sparse [compressed]&#45;{row|column}&#45;storage format. ">
<polygon fill="none" stroke="black" points="476,-281.5 476,-311.5 643,-311.5 643,-281.5 476,-281.5"/>
<text text-anchor="start" x="484" y="-299.5" font-family="Helvetica,sans-Serif" font-size="10.00">Eigen::SparseCompressedBase</text>
<text text-anchor="middle" x="559.5" y="-288.5" font-family="Helvetica,sans-Serif" font-size="10.00">&lt; Derived &gt;</text>
</a>
</g>
</g>
<!-- Node6&#45;&gt;Node5 -->
<g id="edge1" class="edge"><title>Node6&#45;&gt;Node5</title>
<path fill="none" stroke="midnightblue" d="M653.612,-285.572C686.929,-279.457 724.104,-270.013 756,-255.5 791.399,-239.393 826.133,-209.555 845.296,-191.517"/>
<polygon fill="midnightblue" stroke="midnightblue" points="652.649,-282.188 643.406,-287.365 653.861,-289.082 652.649,-282.188"/>
</g>
<!-- Node7 -->
<g id="node3" class="node"><title>Node7</title>
<g id="a_node3"><a xlink:href="classEigen_1_1SparseMatrixBase.html" target="_top" xlink:title="Base class of any sparse matrices or sparse expressions. ">
<polygon fill="none" stroke="black" points="293.5,-281.5 293.5,-311.5 429.5,-311.5 429.5,-281.5 293.5,-281.5"/>
<text text-anchor="start" x="301.5" y="-299.5" font-family="Helvetica,sans-Serif" font-size="10.00">Eigen::SparseMatrixBase</text>
<text text-anchor="middle" x="361.5" y="-288.5" font-family="Helvetica,sans-Serif" font-size="10.00">&lt; Derived &gt;</text>
</a>
</g>
</g>
<!-- Node7&#45;&gt;Node6 -->
<g id="edge2" class="edge"><title>Node7&#45;&gt;Node6</title>
<path fill="none" stroke="midnightblue" d="M439.914,-296.5C451.706,-296.5 463.913,-296.5 475.812,-296.5"/>
<polygon fill="midnightblue" stroke="midnightblue" points="439.678,-293 429.678,-296.5 439.678,-300 439.678,-293"/>
</g>
<!-- Node8 -->
<g id="node4" class="node"><title>Node8</title>
<g id="a_node4"><a xlink:href="structEigen_1_1EigenBase.html" target="_top" xlink:title="Eigen::EigenBase\&lt; Derived \&gt;">
<polygon fill="none" stroke="black" points="19.5,-306 19.5,-325 177.5,-325 177.5,-306 19.5,-306"/>
<text text-anchor="middle" x="98.5" y="-313" font-family="Helvetica,sans-Serif" font-size="10.00">Eigen::EigenBase&lt; Derived &gt;</text>
</a>
</g>
</g>
<!-- Node8&#45;&gt;Node7 -->
<g id="edge3" class="edge"><title>Node8&#45;&gt;Node7</title>
<path fill="none" stroke="midnightblue" d="M187.874,-309.067C222.332,-306.558 261.179,-303.73 293.283,-301.393"/>
<polygon fill="midnightblue" stroke="midnightblue" points="187.528,-305.582 177.809,-309.799 188.036,-312.564 187.528,-305.582"/>
</g>
<!-- Node9 -->
<g id="node5" class="node"><title>Node9</title>
<g id="a_node5"><a xlink:href="classbool.html" target="_top" xlink:title="bool">
<polygon fill="none" stroke="black" points="80,-268 80,-287 117,-287 117,-268 80,-268"/>
<text text-anchor="middle" x="98.5" y="-275" font-family="Helvetica,sans-Serif" font-size="10.00">bool</text>
</a>
</g>
</g>
<!-- Node9&#45;&gt;Node7 -->
<g id="edge4" class="edge"><title>Node9&#45;&gt;Node7</title>
<path fill="none" stroke="#9a32cd" stroke-dasharray="5,2" d="M127.447,-278.724C161.757,-280.315 221.709,-283.386 273,-287.5 279.546,-288.025 286.361,-288.628 293.171,-289.267"/>
<polygon fill="#9a32cd" stroke="#9a32cd" points="127.4,-275.218 117.252,-278.26 127.082,-282.211 127.4,-275.218"/>
<text text-anchor="middle" x="244" y="-290.5" font-family="Helvetica,sans-Serif" font-size="10.00"> m_isRValue</text>
</g>
<!-- Node10 -->
<g id="node6" class="node"><title>Node10</title>
<g id="a_node6"><a xlink:href="structEigen_1_1internal_1_1conditional.html" target="_top" xlink:title="Eigen::internal::conditional\l\&lt; bool(internal::is_lvalue\l\&lt; Derived \&gt;::value), StorageIndex\l *, const StorageIndex * \&gt;">
<polygon fill="none" stroke="black" points="469,-210.5 469,-262.5 650,-262.5 650,-210.5 469,-210.5"/>
<text text-anchor="start" x="477" y="-250.5" font-family="Helvetica,sans-Serif" font-size="10.00">Eigen::internal::conditional</text>
<text text-anchor="start" x="477" y="-239.5" font-family="Helvetica,sans-Serif" font-size="10.00">&lt; bool(internal::is_lvalue</text>
<text text-anchor="start" x="477" y="-228.5" font-family="Helvetica,sans-Serif" font-size="10.00">&lt; Derived &gt;::value), StorageIndex</text>
<text text-anchor="middle" x="559.5" y="-217.5" font-family="Helvetica,sans-Serif" font-size="10.00"> *, const StorageIndex * &gt;</text>
</a>
</g>
</g>
<!-- Node10&#45;&gt;Node5 -->
<g id="edge5" class="edge"><title>Node10&#45;&gt;Node5</title>
<path fill="none" stroke="#9a32cd" stroke-dasharray="5,2" d="M660.181,-220.583C690.989,-215.283 724.976,-209.048 756,-202.5 771.366,-199.257 787.899,-195.342 803.179,-191.547"/>
<polygon fill="#9a32cd" stroke="#9a32cd" points="659.566,-217.137 650.298,-222.27 660.744,-224.037 659.566,-217.137"/>
<text text-anchor="middle" x="712" y="-243.5" font-family="Helvetica,sans-Serif" font-size="10.00"> m_outerIndex</text>
<text text-anchor="middle" x="712" y="-232.5" font-family="Helvetica,sans-Serif" font-size="10.00">m_innerIndices</text>
<text text-anchor="middle" x="712" y="-221.5" font-family="Helvetica,sans-Serif" font-size="10.00">m_innerNonZeros</text>
</g>
<!-- Node11 -->
<g id="node7" class="node"><title>Node11</title>
<polygon fill="none" stroke="#bfbfbf" points="494,-161.5 494,-191.5 625,-191.5 625,-161.5 494,-161.5"/>
<text text-anchor="start" x="502" y="-179.5" font-family="Helvetica,sans-Serif" font-size="10.00">EIGEN_DEFAULT_DENSE</text>
<text text-anchor="middle" x="559.5" y="-168.5" font-family="Helvetica,sans-Serif" font-size="10.00">_INDEX_TYPE</text>
</g>
<!-- Node11&#45;&gt;Node5 -->
<g id="edge6" class="edge"><title>Node11&#45;&gt;Node5</title>
<path fill="none" stroke="#9a32cd" stroke-dasharray="5,2" d="M635.403,-176.5C677.467,-176.5 730.148,-176.5 773.969,-176.5"/>
<polygon fill="#9a32cd" stroke="#9a32cd" points="635.226,-173 625.226,-176.5 635.226,-180 635.226,-173"/>
<text text-anchor="middle" x="712" y="-190.5" font-family="Helvetica,sans-Serif" font-size="10.00"> m_outerSize</text>
<text text-anchor="middle" x="712" y="-179.5" font-family="Helvetica,sans-Serif" font-size="10.00">m_innerSize</text>
</g>
<!-- Node12 -->
<g id="node8" class="node"><title>Node12</title>
<g id="a_node8"><a xlink:href="structEigen_1_1internal_1_1conditional.html" target="_top" xlink:title="Eigen::internal::conditional\l\&lt; bool(internal::is_lvalue\l\&lt; Derived \&gt;::value), Scalar\l *, const Scalar * \&gt;">
<polygon fill="none" stroke="black" points="486,-90.5 486,-142.5 633,-142.5 633,-90.5 486,-90.5"/>
<text text-anchor="start" x="494" y="-130.5" font-family="Helvetica,sans-Serif" font-size="10.00">Eigen::internal::conditional</text>
<text text-anchor="start" x="494" y="-119.5" font-family="Helvetica,sans-Serif" font-size="10.00">&lt; bool(internal::is_lvalue</text>
<text text-anchor="start" x="494" y="-108.5" font-family="Helvetica,sans-Serif" font-size="10.00">&lt; Derived &gt;::value), Scalar</text>
<text text-anchor="middle" x="559.5" y="-97.5" font-family="Helvetica,sans-Serif" font-size="10.00"> *, const Scalar * &gt;</text>
</a>
</g>
</g>
<!-- Node12&#45;&gt;Node5 -->
<g id="edge7" class="edge"><title>Node12&#45;&gt;Node5</title>
<path fill="none" stroke="#9a32cd" stroke-dasharray="5,2" d="M643.042,-133.008C687.562,-141.912 742.095,-152.819 785.414,-161.483"/>
<polygon fill="#9a32cd" stroke="#9a32cd" points="643.614,-129.554 633.122,-131.024 642.241,-136.418 643.614,-129.554"/>
<text text-anchor="middle" x="712" y="-158.5" font-family="Helvetica,sans-Serif" font-size="10.00"> m_values</text>
</g>
<!-- Node13 -->
<g id="node9" class="node"><title>Node13</title>
<g id="a_node9"><a xlink:href="classEigen_1_1Array.html" target="_top" xlink:title="Eigen::Array\&lt; StorageIndex,\l 2, 1 \&gt;">
<polygon fill="none" stroke="black" points="483.5,-41.5 483.5,-71.5 635.5,-71.5 635.5,-41.5 483.5,-41.5"/>
<text text-anchor="start" x="491.5" y="-59.5" font-family="Helvetica,sans-Serif" font-size="10.00">Eigen::Array&lt; StorageIndex,</text>
<text text-anchor="middle" x="559.5" y="-48.5" font-family="Helvetica,sans-Serif" font-size="10.00"> 2, 1 &gt;</text>
</a>
</g>
</g>
<!-- Node13&#45;&gt;Node5 -->
<g id="edge8" class="edge"><title>Node13&#45;&gt;Node5</title>
<path fill="none" stroke="#9a32cd" stroke-dasharray="5,2" d="M630.642,-74.3602C637.22,-76.3199 643.758,-78.3777 650,-80.5 717.501,-103.449 792.594,-140.726 832.301,-161.429"/>
<polygon fill="#9a32cd" stroke="#9a32cd" points="631.584,-70.9892 621.005,-71.5632 629.633,-77.7118 631.584,-70.9892"/>
<text text-anchor="middle" x="712" y="-127.5" font-family="Helvetica,sans-Serif" font-size="10.00"> m_zero_nnz</text>
</g>
<!-- Node14 -->
<g id="node10" class="node"><title>Node14</title>
<g id="a_node10"><a xlink:href="classEigen_1_1PlainObjectBase.html" target="_top" xlink:title="Eigen::PlainObjectBase\l\&lt; Array\&lt; StorageIndex,\l _Rows, _Cols, _Options,\l _MaxRows, _MaxCols \&gt; \&gt;">
<polygon fill="none" stroke="black" points="291,-30.5 291,-82.5 432,-82.5 432,-30.5 291,-30.5"/>
<text text-anchor="start" x="299" y="-70.5" font-family="Helvetica,sans-Serif" font-size="10.00">Eigen::PlainObjectBase</text>
<text text-anchor="start" x="299" y="-59.5" font-family="Helvetica,sans-Serif" font-size="10.00">&lt; Array&lt; StorageIndex,</text>
<text text-anchor="start" x="299" y="-48.5" font-family="Helvetica,sans-Serif" font-size="10.00"> _Rows, _Cols, _Options,</text>
<text text-anchor="middle" x="361.5" y="-37.5" font-family="Helvetica,sans-Serif" font-size="10.00"> _MaxRows, _MaxCols &gt; &gt;</text>
</a>
</g>
</g>
<!-- Node14&#45;&gt;Node13 -->
<g id="edge9" class="edge"><title>Node14&#45;&gt;Node13</title>
<path fill="none" stroke="midnightblue" d="M442.408,-56.5C455.962,-56.5 469.995,-56.5 483.42,-56.5"/>
<polygon fill="midnightblue" stroke="midnightblue" points="442.154,-53.0001 432.154,-56.5 442.154,-60.0001 442.154,-53.0001"/>
</g>
<!-- Node15 -->
<g id="node11" class="node"><title>Node15</title>
<polygon fill="none" stroke="#bfbfbf" points="33,-71.5 33,-101.5 164,-101.5 164,-71.5 33,-71.5"/>
<text text-anchor="start" x="41" y="-89.5" font-family="Helvetica,sans-Serif" font-size="10.00">internal::dense_xpr</text>
<text text-anchor="middle" x="98.5" y="-78.5" font-family="Helvetica,sans-Serif" font-size="10.00">_base::type&lt; Derived &gt;</text>
</g>
<!-- Node15&#45;&gt;Node14 -->
<g id="edge10" class="edge"><title>Node15&#45;&gt;Node14</title>
<path fill="none" stroke="midnightblue" d="M174.159,-77.9185C210.843,-73.7019 254.783,-68.6514 290.779,-64.5139"/>
<polygon fill="midnightblue" stroke="midnightblue" points="173.552,-74.4652 164.017,-79.0843 174.351,-81.4194 173.552,-74.4652"/>
</g>
<!-- Node16 -->
<g id="node12" class="node"><title>Node16</title>
<g id="a_node12"><a xlink:href="classEigen_1_1DenseStorage.html" target="_top" xlink:title="Eigen::DenseStorage\l\&lt; Scalar, Base::MaxSizeAtCompile\lTime, Base::RowsAtCompileTime,\l Base::ColsAtCompileTime, Options \&gt;">
<polygon fill="none" stroke="black" points="0,-0.5 0,-52.5 197,-52.5 197,-0.5 0,-0.5"/>
<text text-anchor="start" x="8" y="-40.5" font-family="Helvetica,sans-Serif" font-size="10.00">Eigen::DenseStorage</text>
<text text-anchor="start" x="8" y="-29.5" font-family="Helvetica,sans-Serif" font-size="10.00">&lt; Scalar, Base::MaxSizeAtCompile</text>
<text text-anchor="start" x="8" y="-18.5" font-family="Helvetica,sans-Serif" font-size="10.00">Time, Base::RowsAtCompileTime,</text>
<text text-anchor="middle" x="98.5" y="-7.5" font-family="Helvetica,sans-Serif" font-size="10.00"> Base::ColsAtCompileTime, Options &gt;</text>
</a>
</g>
</g>
<!-- Node16&#45;&gt;Node14 -->
<g id="edge11" class="edge"><title>Node16&#45;&gt;Node14</title>
<path fill="none" stroke="#9a32cd" stroke-dasharray="5,2" d="M207.358,-38.8975C235.523,-42.1348 265.138,-45.5389 290.74,-48.4816"/>
<polygon fill="#9a32cd" stroke="#9a32cd" points="207.392,-35.3784 197.058,-37.7136 206.593,-42.3327 207.392,-35.3784"/>
<text text-anchor="middle" x="244" y="-49.5" font-family="Helvetica,sans-Serif" font-size="10.00"> m_storage</text>
</g>
</g>
</svg>
