<?xml version="1.0" encoding="UTF-8" standalone="no"?>
<!DOCTYPE svg PUBLIC "-//W3C//DTD SVG 1.1//EN"
 "http://www.w3.org/Graphics/SVG/1.1/DTD/svg11.dtd">
<!-- Generated by graphviz version 2.38.0 (20140413.2041)
 -->
<!-- Title: Eigen::DynamicSGroup::apply Pages: 1 -->
<svg width="467pt" height="137pt"
 viewBox="0.00 0.00 467.00 137.00" xmlns="http://www.w3.org/2000/svg" xmlns:xlink="http://www.w3.org/1999/xlink">
<g id="graph0" class="graph" transform="scale(1 1) rotate(0) translate(4 133)">
<title>Eigen::DynamicSGroup::apply</title>
<!-- Node62 -->
<g id="node1" class="node"><title>Node62</title>
<polygon fill="#bfbfbf" stroke="black" points="0,-27.5 0,-57.5 127,-57.5 127,-27.5 0,-27.5"/>
<text text-anchor="start" x="8" y="-45.5" font-family="Helvetica,sans-Serif" font-size="10.00">Eigen::DynamicSGroup</text>
<text text-anchor="middle" x="63.5" y="-34.5" font-family="Helvetica,sans-Serif" font-size="10.00">::apply</text>
</g>
<!-- Node63 -->
<g id="node2" class="node"><title>Node63</title>
<g id="a_node2"><a xlink:href="namespaceEigen_1_1TensorSycl.html#a789ef14500d782279cc4bb95e6ba3dbd" target="_top" xlink:title="Eigen::TensorSycl::run">
<polygon fill="none" stroke="black" points="166,-55 166,-74 287,-74 287,-55 166,-55"/>
<text text-anchor="middle" x="226.5" y="-62" font-family="Helvetica,sans-Serif" font-size="10.00">Eigen::TensorSycl::run</text>
</a>
</g>
</g>
<!-- Node62&#45;&gt;Node63 -->
<g id="edge1" class="edge"><title>Node62&#45;&gt;Node63</title>
<path fill="none" stroke="midnightblue" d="M127.208,-51.0688C136.545,-52.3446 146.218,-53.6664 155.69,-54.9608"/>
<polygon fill="midnightblue" stroke="midnightblue" points="155.482,-58.4648 165.864,-56.351 156.43,-51.5293 155.482,-58.4648"/>
</g>
<!-- Node67 -->
<g id="node6" class="node"><title>Node67</title>
<g id="a_node6"><a xlink:href="classEigen_1_1DynamicSGroup.html#acb5356798035ce1ae0d00eec033ef32f" target="_top" xlink:title="Eigen::DynamicSGroup\l::size">
<polygon fill="none" stroke="black" points="163,-5.5 163,-35.5 290,-35.5 290,-5.5 163,-5.5"/>
<text text-anchor="start" x="171" y="-23.5" font-family="Helvetica,sans-Serif" font-size="10.00">Eigen::DynamicSGroup</text>
<text text-anchor="middle" x="226.5" y="-12.5" font-family="Helvetica,sans-Serif" font-size="10.00">::size</text>
</a>
</g>
</g>
<!-- Node62&#45;&gt;Node67 -->
<g id="edge5" class="edge"><title>Node62&#45;&gt;Node67</title>
<path fill="none" stroke="midnightblue" d="M127.208,-33.9312C135.648,-32.7779 144.363,-31.587 152.956,-30.4129"/>
<polygon fill="midnightblue" stroke="midnightblue" points="153.529,-33.8671 162.963,-29.0454 152.582,-26.9316 153.529,-33.8671"/>
</g>
<!-- Node64 -->
<g id="node3" class="node"><title>Node64</title>
<g id="a_node3"><a xlink:href="structEigen_1_1TensorEvaluator.html#ae188d806978166eb8cbffbd63c944fb3" target="_top" xlink:title="Eigen::TensorEvaluator\l::evalSubExprsIfNeeded">
<polygon fill="none" stroke="black" points="327.5,-98.5 327.5,-128.5 457.5,-128.5 457.5,-98.5 327.5,-98.5"/>
<text text-anchor="start" x="335.5" y="-116.5" font-family="Helvetica,sans-Serif" font-size="10.00">Eigen::TensorEvaluator</text>
<text text-anchor="middle" x="392.5" y="-105.5" font-family="Helvetica,sans-Serif" font-size="10.00">::evalSubExprsIfNeeded</text>
</a>
</g>
</g>
<!-- Node63&#45;&gt;Node64 -->
<g id="edge2" class="edge"><title>Node63&#45;&gt;Node64</title>
<path fill="none" stroke="midnightblue" d="M259.51,-74.064C279.91,-80.1592 306.986,-88.2488 331.303,-95.5143"/>
<polygon fill="midnightblue" stroke="midnightblue" points="330.589,-98.9537 341.172,-98.463 332.593,-92.2467 330.589,-98.9537"/>
</g>
<!-- Node65 -->
<g id="node4" class="node"><title>Node65</title>
<g id="a_node4"><a xlink:href="namespaceEigen_1_1TensorSycl_1_1internal.html#a525ee07cdeb68d18359b511b1ae9ffc7" target="_top" xlink:title="template deduction function for FunctorExtractor ">
<polygon fill="none" stroke="black" points="326,-49.5 326,-79.5 459,-79.5 459,-49.5 326,-49.5"/>
<text text-anchor="start" x="334" y="-67.5" font-family="Helvetica,sans-Serif" font-size="10.00">Eigen::TensorSycl::</text>
<text text-anchor="middle" x="392.5" y="-56.5" font-family="Helvetica,sans-Serif" font-size="10.00">internal::extractFunctors</text>
</a>
</g>
</g>
<!-- Node63&#45;&gt;Node65 -->
<g id="edge3" class="edge"><title>Node63&#45;&gt;Node65</title>
<path fill="none" stroke="midnightblue" d="M287.172,-64.5C296.386,-64.5 306.008,-64.5 315.52,-64.5"/>
<polygon fill="midnightblue" stroke="midnightblue" points="315.776,-68.0001 325.776,-64.5 315.776,-61.0001 315.776,-68.0001"/>
</g>
<!-- Node66 -->
<g id="node5" class="node"><title>Node66</title>
<g id="a_node5"><a xlink:href="structEigen_1_1TensorEvaluator.html#a76ec54bcca9523ec104aaa9adaf74983" target="_top" xlink:title="Eigen::TensorEvaluator\l::cleanup">
<polygon fill="none" stroke="black" points="330,-0.5 330,-30.5 455,-30.5 455,-0.5 330,-0.5"/>
<text text-anchor="start" x="338" y="-18.5" font-family="Helvetica,sans-Serif" font-size="10.00">Eigen::TensorEvaluator</text>
<text text-anchor="middle" x="392.5" y="-7.5" font-family="Helvetica,sans-Serif" font-size="10.00">::cleanup</text>
</a>
</g>
</g>
<!-- Node63&#45;&gt;Node66 -->
<g id="edge4" class="edge"><title>Node63&#45;&gt;Node66</title>
<path fill="none" stroke="midnightblue" d="M259.51,-54.936C279.91,-48.8408 306.986,-40.7512 331.303,-33.4857"/>
<polygon fill="midnightblue" stroke="midnightblue" points="332.593,-36.7533 341.172,-30.537 330.589,-30.0463 332.593,-36.7533"/>
</g>
</g>
</svg>
