<?xml version="1.0" encoding="UTF-8" standalone="no"?>
<!DOCTYPE svg PUBLIC "-//W3C//DTD SVG 1.1//EN"
 "http://www.w3.org/Graphics/SVG/1.1/DTD/svg11.dtd">
<!-- Generated by graphviz version 2.38.0 (20140413.2041)
 -->
<!-- Title: Eigen::LevenbergMarquardt::matrixR Pages: 1 -->
<svg width="439pt" height="66pt"
 viewBox="0.00 0.00 439.00 66.00" xmlns="http://www.w3.org/2000/svg" xmlns:xlink="http://www.w3.org/1999/xlink">
<g id="graph0" class="graph" transform="scale(1 1) rotate(0) translate(4 62)">
<title>Eigen::LevenbergMarquardt::matrixR</title>
<!-- Node80 -->
<g id="node1" class="node"><title>Node80</title>
<polygon fill="#bfbfbf" stroke="black" points="0,-14 0,-44 149,-44 149,-14 0,-14"/>
<text text-anchor="start" x="8" y="-32" font-family="Helvetica,sans-Serif" font-size="10.00">Eigen::LevenbergMarquardt</text>
<text text-anchor="middle" x="74.5" y="-21" font-family="Helvetica,sans-Serif" font-size="10.00">::matrixR</text>
</g>
<!-- Node81 -->
<g id="node2" class="node"><title>Node81</title>
<g id="a_node2"><a xlink:href="levenberg__marquardt_8cpp.html#a5582ec2061086c55cca75abd2d3b8579" target="_top" xlink:title="testLmder">
<polygon fill="none" stroke="black" points="185,-38.5 185,-57.5 251,-57.5 251,-38.5 185,-38.5"/>
<text text-anchor="middle" x="218" y="-45.5" font-family="Helvetica,sans-Serif" font-size="10.00">testLmder</text>
</a>
</g>
</g>
<!-- Node80&#45;&gt;Node81 -->
<g id="edge1" class="edge"><title>Node80&#45;&gt;Node81</title>
<path fill="none" stroke="midnightblue" d="M159.338,-40.2574C168.28,-41.4581 176.934,-42.6201 184.699,-43.6628"/>
<polygon fill="midnightblue" stroke="midnightblue" points="159.528,-36.7516 149.151,-38.8896 158.596,-43.6893 159.528,-36.7516"/>
</g>
<!-- Node83 -->
<g id="node4" class="node"><title>Node83</title>
<g id="a_node4"><a xlink:href="levenberg__marquardt_8cpp.html#a45e369e946fefe0584611e7d2d8a7909" target="_top" xlink:title="testLmdif">
<polygon fill="none" stroke="black" points="187,-0.5 187,-19.5 249,-19.5 249,-0.5 187,-0.5"/>
<text text-anchor="middle" x="218" y="-7.5" font-family="Helvetica,sans-Serif" font-size="10.00">testLmdif</text>
</a>
</g>
</g>
<!-- Node80&#45;&gt;Node83 -->
<g id="edge3" class="edge"><title>Node80&#45;&gt;Node83</title>
<path fill="none" stroke="midnightblue" d="M159.068,-17.7788C168.901,-16.4586 178.392,-15.1842 186.746,-14.0623"/>
<polygon fill="midnightblue" stroke="midnightblue" points="158.596,-14.3107 149.151,-19.1104 159.528,-21.2484 158.596,-14.3107"/>
</g>
<!-- Node82 -->
<g id="node3" class="node"><title>Node82</title>
<g id="a_node3"><a xlink:href="levenberg__marquardt_8cpp.html#af463fc119b46ec5d41e757c1aa8bac51" target="_top" xlink:title="test_levenberg_marquardt">
<polygon fill="none" stroke="black" points="287,-19.5 287,-38.5 431,-38.5 431,-19.5 287,-19.5"/>
<text text-anchor="middle" x="359" y="-26.5" font-family="Helvetica,sans-Serif" font-size="10.00">test_levenberg_marquardt</text>
</a>
</g>
</g>
<!-- Node81&#45;&gt;Node82 -->
<g id="edge2" class="edge"><title>Node81&#45;&gt;Node82</title>
<path fill="none" stroke="midnightblue" d="M261.317,-42.2156C269.882,-41.0449 279.1,-39.7849 288.322,-38.5244"/>
<polygon fill="midnightblue" stroke="midnightblue" points="260.673,-38.7711 251.239,-43.5933 261.621,-45.7066 260.673,-38.7711"/>
</g>
<!-- Node83&#45;&gt;Node82 -->
<g id="edge4" class="edge"><title>Node83&#45;&gt;Node82</title>
<path fill="none" stroke="midnightblue" d="M259.101,-15.4815C268.259,-16.7332 278.251,-18.0991 288.25,-19.4659"/>
<polygon fill="midnightblue" stroke="midnightblue" points="259.543,-12.0094 249.161,-14.1227 258.595,-18.9449 259.543,-12.0094"/>
</g>
</g>
</svg>
