<?xml version="1.0" encoding="UTF-8" standalone="no"?>
<!DOCTYPE svg PUBLIC "-//W3C//DTD SVG 1.1//EN"
 "http://www.w3.org/Graphics/SVG/1.1/DTD/svg11.dtd">
<!-- Generated by graphviz version 2.38.0 (20140413.2041)
 -->
<!-- Title: Eigen::SkylineMatrix&lt; _Scalar, _Options &gt;::InnerLowerIterator Pages: 1 -->
<svg width="853pt" height="177pt"
 viewBox="0.00 0.00 853.00 176.50" xmlns="http://www.w3.org/2000/svg" xmlns:xlink="http://www.w3.org/1999/xlink">
<g id="graph0" class="graph" transform="scale(1 1) rotate(0) translate(4 172.5)">
<title>Eigen::SkylineMatrix&lt; _Scalar, _Options &gt;::InnerLowerIterator</title>
<!-- Node1 -->
<g id="node1" class="node"><title>Node1</title>
<polygon fill="#bfbfbf" stroke="black" points="723,-70.5 723,-111.5 845,-111.5 845,-70.5 723,-70.5"/>
<text text-anchor="start" x="731" y="-99.5" font-family="Helvetica,sans-Serif" font-size="10.00">Eigen::SkylineMatrix</text>
<text text-anchor="start" x="731" y="-88.5" font-family="Helvetica,sans-Serif" font-size="10.00">&lt; _Scalar, _Options &gt;</text>
<text text-anchor="middle" x="784" y="-77.5" font-family="Helvetica,sans-Serif" font-size="10.00">::InnerLowerIterator</text>
</g>
<!-- Node2 -->
<g id="node2" class="node"><title>Node2</title>
<polygon fill="none" stroke="#bfbfbf" points="262,-138 262,-168 393,-168 393,-138 262,-138"/>
<text text-anchor="start" x="270" y="-156" font-family="Helvetica,sans-Serif" font-size="10.00">EIGEN_DEFAULT_DENSE</text>
<text text-anchor="middle" x="327.5" y="-145" font-family="Helvetica,sans-Serif" font-size="10.00">_INDEX_TYPE</text>
</g>
<!-- Node2&#45;&gt;Node1 -->
<g id="edge1" class="edge"><title>Node2&#45;&gt;Node1</title>
<path fill="none" stroke="#9a32cd" stroke-dasharray="5,2" d="M403.291,-149.37C432.856,-147.501 467.093,-144.795 498,-141 576.156,-131.403 665.453,-114.813 722.945,-103.392"/>
<polygon fill="#9a32cd" stroke="#9a32cd" points="402.808,-145.893 393.041,-149.997 403.236,-152.88 402.808,-145.893"/>
<text text-anchor="middle" x="577" y="-142" font-family="Helvetica,sans-Serif" font-size="10.00"> m_id</text>
</g>
<!-- Node4 -->
<g id="node4" class="node"><title>Node4</title>
<g id="a_node4"><a xlink:href="classEigen_1_1SkylineMatrix.html" target="_top" xlink:title="The main skyline matrix class. ">
<polygon fill="none" stroke="black" points="516,-70 516,-100 638,-100 638,-70 516,-70"/>
<text text-anchor="start" x="524" y="-88" font-family="Helvetica,sans-Serif" font-size="10.00">Eigen::SkylineMatrix</text>
<text text-anchor="middle" x="577" y="-77" font-family="Helvetica,sans-Serif" font-size="10.00">&lt; _Scalar, _Options &gt;</text>
</a>
</g>
</g>
<!-- Node2&#45;&gt;Node4 -->
<g id="edge7" class="edge"><title>Node2&#45;&gt;Node4</title>
<path fill="none" stroke="#9a32cd" stroke-dasharray="5,2" d="M379.793,-134.21C385.95,-131.837 392.131,-129.4 398,-127 406.103,-123.687 407.673,-121.702 416,-119 448.413,-108.481 485.596,-100.353 515.954,-94.6854"/>
<polygon fill="#9a32cd" stroke="#9a32cd" points="378.286,-131.039 370.187,-137.871 380.778,-137.58 378.286,-131.039"/>
<text text-anchor="middle" x="457" y="-133" font-family="Helvetica,sans-Serif" font-size="10.00"> m_outerSize</text>
<text text-anchor="middle" x="457" y="-122" font-family="Helvetica,sans-Serif" font-size="10.00">m_innerSize</text>
</g>
<!-- Node3 -->
<g id="node3" class="node"><title>Node3</title>
<polygon fill="none" stroke="#bfbfbf" points="541.5,-25.5 541.5,-44.5 612.5,-44.5 612.5,-25.5 541.5,-25.5"/>
<text text-anchor="middle" x="577" y="-32.5" font-family="Helvetica,sans-Serif" font-size="10.00">const Index</text>
</g>
<!-- Node3&#45;&gt;Node1 -->
<g id="edge2" class="edge"><title>Node3&#45;&gt;Node1</title>
<path fill="none" stroke="#9a32cd" stroke-dasharray="5,2" d="M622.808,-36.8351C647.496,-38.7869 678.432,-42.7936 705,-51 720.122,-55.671 735.831,-63.1484 749.153,-70.3811"/>
<polygon fill="#9a32cd" stroke="#9a32cd" points="622.863,-33.3303 612.641,-36.1181 622.37,-40.313 622.863,-33.3303"/>
<text text-anchor="middle" x="680.5" y="-76" font-family="Helvetica,sans-Serif" font-size="10.00"> m_end</text>
<text text-anchor="middle" x="680.5" y="-65" font-family="Helvetica,sans-Serif" font-size="10.00">m_outer</text>
<text text-anchor="middle" x="680.5" y="-54" font-family="Helvetica,sans-Serif" font-size="10.00">m_start</text>
</g>
<!-- Node4&#45;&gt;Node1 -->
<g id="edge3" class="edge"><title>Node4&#45;&gt;Node1</title>
<path fill="none" stroke="#9a32cd" stroke-dasharray="5,2" d="M648.334,-87.0586C672.589,-87.7684 699.517,-88.5566 722.879,-89.2404"/>
<polygon fill="#9a32cd" stroke="#9a32cd" points="648.22,-83.5538 638.122,-86.7597 648.015,-90.5508 648.22,-83.5538"/>
<text text-anchor="middle" x="680.5" y="-92" font-family="Helvetica,sans-Serif" font-size="10.00"> m_matrix</text>
</g>
<!-- Node5 -->
<g id="node5" class="node"><title>Node5</title>
<g id="a_node5"><a xlink:href="classEigen_1_1SkylineMatrixBase.html" target="_top" xlink:title="Eigen::SkylineMatrixBase\l\&lt; SkylineMatrix\&lt; _Scalar,\l _Options \&gt; \&gt;">
<polygon fill="none" stroke="black" points="257.5,-76.5 257.5,-117.5 397.5,-117.5 397.5,-76.5 257.5,-76.5"/>
<text text-anchor="start" x="265.5" y="-105.5" font-family="Helvetica,sans-Serif" font-size="10.00">Eigen::SkylineMatrixBase</text>
<text text-anchor="start" x="265.5" y="-94.5" font-family="Helvetica,sans-Serif" font-size="10.00">&lt; SkylineMatrix&lt; _Scalar,</text>
<text text-anchor="middle" x="327.5" y="-83.5" font-family="Helvetica,sans-Serif" font-size="10.00"> _Options &gt; &gt;</text>
</a>
</g>
</g>
<!-- Node5&#45;&gt;Node4 -->
<g id="edge4" class="edge"><title>Node5&#45;&gt;Node4</title>
<path fill="none" stroke="midnightblue" d="M407.979,-93.1465C443.029,-91.4471 483.537,-89.4831 515.996,-87.9093"/>
<polygon fill="midnightblue" stroke="midnightblue" points="407.59,-89.6611 397.772,-93.6414 407.929,-96.6529 407.59,-89.6611"/>
</g>
<!-- Node6 -->
<g id="node6" class="node"><title>Node6</title>
<g id="a_node6"><a xlink:href="structEigen_1_1EigenBase.html" target="_top" xlink:title="Eigen::EigenBase\&lt; Skyline\lMatrix\&lt; _Scalar, _Options \&gt; \&gt;">
<polygon fill="none" stroke="black" points="0,-104 0,-134 163,-134 163,-104 0,-104"/>
<text text-anchor="start" x="8" y="-122" font-family="Helvetica,sans-Serif" font-size="10.00">Eigen::EigenBase&lt; Skyline</text>
<text text-anchor="middle" x="81.5" y="-111" font-family="Helvetica,sans-Serif" font-size="10.00">Matrix&lt; _Scalar, _Options &gt; &gt;</text>
</a>
</g>
</g>
<!-- Node6&#45;&gt;Node5 -->
<g id="edge5" class="edge"><title>Node6&#45;&gt;Node5</title>
<path fill="none" stroke="midnightblue" d="M173.221,-110.82C201.089,-108.308 231.292,-105.584 257.461,-103.225"/>
<polygon fill="midnightblue" stroke="midnightblue" points="172.716,-107.351 163.071,-111.735 173.345,-114.323 172.716,-107.351"/>
</g>
<!-- Node7 -->
<g id="node7" class="node"><title>Node7</title>
<g id="a_node7"><a xlink:href="classbool.html" target="_top" xlink:title="bool">
<polygon fill="none" stroke="black" points="63,-65.5 63,-84.5 100,-84.5 100,-65.5 63,-65.5"/>
<text text-anchor="middle" x="81.5" y="-72.5" font-family="Helvetica,sans-Serif" font-size="10.00">bool</text>
</a>
</g>
</g>
<!-- Node7&#45;&gt;Node5 -->
<g id="edge6" class="edge"><title>Node7&#45;&gt;Node5</title>
<path fill="none" stroke="#9a32cd" stroke-dasharray="5,2" d="M110.146,-77.4927C145.664,-80.6951 208.557,-86.3658 257.41,-90.7706"/>
<polygon fill="#9a32cd" stroke="#9a32cd" points="110.322,-73.9944 100.048,-76.5822 109.693,-80.9661 110.322,-73.9944"/>
<text text-anchor="middle" x="210" y="-92" font-family="Helvetica,sans-Serif" font-size="10.00"> m_isRValue</text>
</g>
<!-- Node8 -->
<g id="node8" class="node"><title>Node8</title>
<polygon fill="none" stroke="#bfbfbf" points="302.5,-38.5 302.5,-57.5 352.5,-57.5 352.5,-38.5 302.5,-38.5"/>
<text text-anchor="middle" x="327.5" y="-45.5" font-family="Helvetica,sans-Serif" font-size="10.00">Index *</text>
</g>
<!-- Node8&#45;&gt;Node4 -->
<g id="edge8" class="edge"><title>Node8&#45;&gt;Node4</title>
<path fill="none" stroke="#9a32cd" stroke-dasharray="5,2" d="M362.548,-49.1463C396.953,-50.7408 451.523,-54.4664 498,-63 507.825,-64.8041 518.201,-67.2997 528.065,-69.9644"/>
<polygon fill="#9a32cd" stroke="#9a32cd" points="362.69,-45.6493 352.549,-48.717 362.39,-52.6429 362.69,-45.6493"/>
<text text-anchor="middle" x="457" y="-77" font-family="Helvetica,sans-Serif" font-size="10.00"> m_colStartIndex</text>
<text text-anchor="middle" x="457" y="-66" font-family="Helvetica,sans-Serif" font-size="10.00">m_rowStartIndex</text>
</g>
<!-- Node9 -->
<g id="node9" class="node"><title>Node9</title>
<polygon fill="none" stroke="#bfbfbf" points="257,-0.5 257,-19.5 398,-19.5 398,-0.5 257,-0.5"/>
<text text-anchor="middle" x="327.5" y="-7.5" font-family="Helvetica,sans-Serif" font-size="10.00">SkylineStorage&lt; Scalar &gt;</text>
</g>
<!-- Node9&#45;&gt;Node4 -->
<g id="edge9" class="edge"><title>Node9&#45;&gt;Node4</title>
<path fill="none" stroke="#9a32cd" stroke-dasharray="5,2" d="M408.545,-13.9374C437.787,-17.7345 470.429,-24.8451 498,-38 507.66,-42.6092 507.177,-47.9407 516,-54 524.409,-59.7746 534.032,-65.2046 543.073,-69.8572"/>
<polygon fill="#9a32cd" stroke="#9a32cd" points="408.701,-10.4314 398.358,-12.728 407.876,-17.3825 408.701,-10.4314"/>
<text text-anchor="middle" x="457" y="-41" font-family="Helvetica,sans-Serif" font-size="10.00"> m_data</text>
</g>
</g>
</svg>
