<?xml version="1.0" encoding="UTF-8" standalone="no"?>
<!DOCTYPE svg PUBLIC "-//W3C//DTD SVG 1.1//EN"
 "http://www.w3.org/Graphics/SVG/1.1/DTD/svg11.dtd">
<!-- Generated by graphviz version 2.38.0 (20140413.2041)
 -->
<!-- Title: Eigen::LevenbergMarquardt::resetParameters Pages: 1 -->
<svg width="471pt" height="256pt"
 viewBox="0.00 0.00 471.00 256.00" xmlns="http://www.w3.org/2000/svg" xmlns:xlink="http://www.w3.org/1999/xlink">
<g id="graph0" class="graph" transform="scale(1 1) rotate(0) translate(4 252)">
<title>Eigen::LevenbergMarquardt::resetParameters</title>
<!-- Node176 -->
<g id="node1" class="node"><title>Node176</title>
<polygon fill="#bfbfbf" stroke="black" points="0,-109 0,-139 149,-139 149,-109 0,-109"/>
<text text-anchor="start" x="8" y="-127" font-family="Helvetica,sans-Serif" font-size="10.00">Eigen::LevenbergMarquardt</text>
<text text-anchor="middle" x="74.5" y="-116" font-family="Helvetica,sans-Serif" font-size="10.00">::resetParameters</text>
</g>
<!-- Node177 -->
<g id="node2" class="node"><title>Node177</title>
<g id="a_node2"><a xlink:href="levenberg__marquardt_8cpp.html#a6b5a766f7807dda36102888b9e613fb5" target="_top" xlink:title="testNistBennett5">
<polygon fill="none" stroke="black" points="185,-228.5 185,-247.5 283,-247.5 283,-228.5 185,-228.5"/>
<text text-anchor="middle" x="234" y="-235.5" font-family="Helvetica,sans-Serif" font-size="10.00">testNistBennett5</text>
</a>
</g>
</g>
<!-- Node176&#45;&gt;Node177 -->
<g id="edge1" class="edge"><title>Node176&#45;&gt;Node177</title>
<path fill="none" stroke="midnightblue" d="M96.9092,-146.532C117.801,-167.505 151.28,-198.523 185,-219 190.975,-222.629 197.765,-225.81 204.319,-228.48"/>
<polygon fill="midnightblue" stroke="midnightblue" points="99.3087,-143.98 89.8047,-139.298 94.3144,-148.885 99.3087,-143.98"/>
</g>
<!-- Node179 -->
<g id="node4" class="node"><title>Node179</title>
<g id="a_node4"><a xlink:href="levenberg__marquardt_8cpp.html#a58daf200c329d1f89d0a08c272f57053" target="_top" xlink:title="testNistBoxBOD">
<polygon fill="none" stroke="black" points="187,-190.5 187,-209.5 281,-209.5 281,-190.5 187,-190.5"/>
<text text-anchor="middle" x="234" y="-197.5" font-family="Helvetica,sans-Serif" font-size="10.00">testNistBoxBOD</text>
</a>
</g>
</g>
<!-- Node176&#45;&gt;Node179 -->
<g id="edge3" class="edge"><title>Node176&#45;&gt;Node179</title>
<path fill="none" stroke="midnightblue" d="M111.51,-143.939C132.65,-155.342 160.037,-169.599 185,-181 192.174,-184.277 200.088,-187.546 207.385,-190.425"/>
<polygon fill="midnightblue" stroke="midnightblue" points="113.022,-140.777 102.563,-139.083 109.682,-146.929 113.022,-140.777"/>
</g>
<!-- Node180 -->
<g id="node5" class="node"><title>Node180</title>
<g id="a_node5"><a xlink:href="levenberg__marquardt_8cpp.html#ad3ba43fe79634825535fafc75ad70b10" target="_top" xlink:title="testNistChwirut2">
<polygon fill="none" stroke="black" points="186.5,-152.5 186.5,-171.5 281.5,-171.5 281.5,-152.5 186.5,-152.5"/>
<text text-anchor="middle" x="234" y="-159.5" font-family="Helvetica,sans-Serif" font-size="10.00">testNistChwirut2</text>
</a>
</g>
</g>
<!-- Node176&#45;&gt;Node180 -->
<g id="edge5" class="edge"><title>Node176&#45;&gt;Node180</title>
<path fill="none" stroke="midnightblue" d="M147.506,-141.373C163.29,-145.181 179.439,-149.077 193.39,-152.443"/>
<polygon fill="midnightblue" stroke="midnightblue" points="148.29,-137.962 137.748,-139.019 146.648,-144.766 148.29,-137.962"/>
</g>
<!-- Node181 -->
<g id="node6" class="node"><title>Node181</title>
<g id="a_node6"><a xlink:href="levenberg__marquardt_8cpp.html#ae464d952ae3638feabc5c218e4e3abdd" target="_top" xlink:title="testNistMGH09">
<polygon fill="none" stroke="black" points="189.5,-114.5 189.5,-133.5 278.5,-133.5 278.5,-114.5 189.5,-114.5"/>
<text text-anchor="middle" x="234" y="-121.5" font-family="Helvetica,sans-Serif" font-size="10.00">testNistMGH09</text>
</a>
</g>
</g>
<!-- Node176&#45;&gt;Node181 -->
<g id="edge7" class="edge"><title>Node176&#45;&gt;Node181</title>
<path fill="none" stroke="midnightblue" d="M159.195,-124C169.631,-124 179.951,-124 189.418,-124"/>
<polygon fill="midnightblue" stroke="midnightblue" points="159.177,-120.5 149.177,-124 159.177,-127.5 159.177,-120.5"/>
</g>
<!-- Node182 -->
<g id="node7" class="node"><title>Node182</title>
<g id="a_node7"><a xlink:href="levenberg__marquardt_8cpp.html#ae73bf26c085014d83d575807ed3550d2" target="_top" xlink:title="testNistMGH17">
<polygon fill="none" stroke="black" points="189.5,-76.5 189.5,-95.5 278.5,-95.5 278.5,-76.5 189.5,-76.5"/>
<text text-anchor="middle" x="234" y="-83.5" font-family="Helvetica,sans-Serif" font-size="10.00">testNistMGH17</text>
</a>
</g>
</g>
<!-- Node176&#45;&gt;Node182 -->
<g id="edge8" class="edge"><title>Node176&#45;&gt;Node182</title>
<path fill="none" stroke="midnightblue" d="M147.506,-106.627C163.29,-102.819 179.439,-98.9227 193.39,-95.5568"/>
<polygon fill="midnightblue" stroke="midnightblue" points="146.648,-103.234 137.748,-108.981 148.29,-110.038 146.648,-103.234"/>
</g>
<!-- Node183 -->
<g id="node8" class="node"><title>Node183</title>
<g id="a_node8"><a xlink:href="levenberg__marquardt_8cpp.html#a670ed4aa2b289e3686d0b080a57bb3a7" target="_top" xlink:title="testNistRat43">
<polygon fill="none" stroke="black" points="193,-38.5 193,-57.5 275,-57.5 275,-38.5 193,-38.5"/>
<text text-anchor="middle" x="234" y="-45.5" font-family="Helvetica,sans-Serif" font-size="10.00">testNistRat43</text>
</a>
</g>
</g>
<!-- Node176&#45;&gt;Node183 -->
<g id="edge10" class="edge"><title>Node176&#45;&gt;Node183</title>
<path fill="none" stroke="midnightblue" d="M111.51,-104.061C132.65,-92.6581 160.037,-78.4013 185,-67 192.174,-63.7234 200.088,-60.4544 207.385,-57.5749"/>
<polygon fill="midnightblue" stroke="midnightblue" points="109.682,-101.071 102.563,-108.917 113.022,-107.223 109.682,-101.071"/>
</g>
<!-- Node184 -->
<g id="node9" class="node"><title>Node184</title>
<g id="a_node9"><a xlink:href="levenberg__marquardt_8cpp.html#a8ab5c766b24d60c93dbeb3b4c4dc6203" target="_top" xlink:title="testNistThurber">
<polygon fill="none" stroke="black" points="188.5,-0.5 188.5,-19.5 279.5,-19.5 279.5,-0.5 188.5,-0.5"/>
<text text-anchor="middle" x="234" y="-7.5" font-family="Helvetica,sans-Serif" font-size="10.00">testNistThurber</text>
</a>
</g>
</g>
<!-- Node176&#45;&gt;Node184 -->
<g id="edge12" class="edge"><title>Node176&#45;&gt;Node184</title>
<path fill="none" stroke="midnightblue" d="M96.9092,-101.468C117.801,-80.4952 151.28,-49.4775 185,-29 190.975,-25.3713 197.765,-22.1901 204.319,-19.5204"/>
<polygon fill="midnightblue" stroke="midnightblue" points="94.3144,-99.1151 89.8047,-108.702 99.3087,-104.02 94.3144,-99.1151"/>
</g>
<!-- Node178 -->
<g id="node3" class="node"><title>Node178</title>
<g id="a_node3"><a xlink:href="levenberg__marquardt_8cpp.html#af463fc119b46ec5d41e757c1aa8bac51" target="_top" xlink:title="test_levenberg_marquardt">
<polygon fill="none" stroke="black" points="319,-114.5 319,-133.5 463,-133.5 463,-114.5 319,-114.5"/>
<text text-anchor="middle" x="391" y="-121.5" font-family="Helvetica,sans-Serif" font-size="10.00">test_levenberg_marquardt</text>
</a>
</g>
</g>
<!-- Node177&#45;&gt;Node178 -->
<g id="edge2" class="edge"><title>Node177&#45;&gt;Node178</title>
<path fill="none" stroke="midnightblue" d="M273.404,-224.222C276.724,-222.608 279.969,-220.864 283,-219 324.048,-193.749 364.331,-152.213 381.435,-133.574"/>
<polygon fill="midnightblue" stroke="midnightblue" points="271.675,-221.161 263.963,-228.426 274.522,-227.555 271.675,-221.161"/>
</g>
<!-- Node179&#45;&gt;Node178 -->
<g id="edge4" class="edge"><title>Node179&#45;&gt;Node178</title>
<path fill="none" stroke="midnightblue" d="M270.095,-186.639C274.472,-184.818 278.862,-182.914 283,-181 315.667,-165.892 352.435,-145.535 373.249,-133.682"/>
<polygon fill="midnightblue" stroke="midnightblue" points="268.591,-183.472 260.635,-190.469 271.218,-189.961 268.591,-183.472"/>
</g>
<!-- Node180&#45;&gt;Node178 -->
<g id="edge6" class="edge"><title>Node180&#45;&gt;Node178</title>
<path fill="none" stroke="midnightblue" d="M284.111,-149.96C305.765,-144.651 330.85,-138.501 351.168,-133.52"/>
<polygon fill="midnightblue" stroke="midnightblue" points="282.992,-146.63 274.113,-152.411 284.659,-153.429 282.992,-146.63"/>
</g>
<!-- Node182&#45;&gt;Node178 -->
<g id="edge9" class="edge"><title>Node182&#45;&gt;Node178</title>
<path fill="none" stroke="midnightblue" d="M284.111,-98.04C305.765,-103.349 330.85,-109.499 351.168,-114.48"/>
<polygon fill="midnightblue" stroke="midnightblue" points="284.659,-94.5708 274.113,-95.589 282.992,-101.37 284.659,-94.5708"/>
</g>
<!-- Node183&#45;&gt;Node178 -->
<g id="edge11" class="edge"><title>Node183&#45;&gt;Node178</title>
<path fill="none" stroke="midnightblue" d="M270.095,-61.3606C274.472,-63.1824 278.862,-65.086 283,-67 315.667,-82.1082 352.435,-102.465 373.249,-114.318"/>
<polygon fill="midnightblue" stroke="midnightblue" points="271.218,-58.0391 260.635,-57.5308 268.591,-64.5276 271.218,-58.0391"/>
</g>
<!-- Node184&#45;&gt;Node178 -->
<g id="edge13" class="edge"><title>Node184&#45;&gt;Node178</title>
<path fill="none" stroke="midnightblue" d="M273.404,-23.7779C276.724,-25.3925 279.969,-27.1356 283,-29 324.048,-54.2507 364.331,-95.7874 381.435,-114.426"/>
<polygon fill="midnightblue" stroke="midnightblue" points="274.522,-20.4447 263.963,-19.5739 271.675,-26.8393 274.522,-20.4447"/>
</g>
</g>
</svg>
