<?xml version="1.0" encoding="UTF-8" standalone="no"?>
<!DOCTYPE svg PUBLIC "-//W3C//DTD SVG 1.1//EN"
 "http://www.w3.org/Graphics/SVG/1.1/DTD/svg11.dtd">
<!-- Generated by graphviz version 2.38.0 (20140413.2041)
 -->
<!-- Title: imag Pages: 1 -->
<svg width="343pt" height="85pt"
 viewBox="0.00 0.00 343.00 85.00" xmlns="http://www.w3.org/2000/svg" xmlns:xlink="http://www.w3.org/1999/xlink">
<g id="graph0" class="graph" transform="scale(1 1) rotate(0) translate(4 81)">
<title>imag</title>
<!-- Node50 -->
<g id="node1" class="node"><title>Node50</title>
<polygon fill="#bfbfbf" stroke="black" points="0,-19.5 0,-38.5 41,-38.5 41,-19.5 0,-19.5"/>
<text text-anchor="middle" x="20.5" y="-26.5" font-family="Helvetica,sans-Serif" font-size="10.00">imag</text>
</g>
<!-- Node51 -->
<g id="node2" class="node"><title>Node51</title>
<g id="a_node2"><a xlink:href="CommonCwiseUnaryOps_8h.html#ab8047e72312c629685f323ffa253de80" target="_top" xlink:title="Apply a unary operator coefficient&#45;wise. ">
<polygon fill="none" stroke="black" points="77,-57.5 77,-76.5 142,-76.5 142,-57.5 77,-57.5"/>
<text text-anchor="middle" x="109.5" y="-64.5" font-family="Helvetica,sans-Serif" font-size="10.00">unaryExpr</text>
</a>
</g>
</g>
<!-- Node50&#45;&gt;Node51 -->
<g id="edge1" class="edge"><title>Node50&#45;&gt;Node51</title>
<path fill="none" stroke="midnightblue" d="M41.2416,-37.6228C51.9226,-42.288 65.3601,-48.1573 77.4109,-53.4208"/>
<polygon fill="midnightblue" stroke="midnightblue" points="76.1339,-56.6823 86.6988,-57.4777 78.9358,-50.2675 76.1339,-56.6823"/>
</g>
<!-- Node52 -->
<g id="node3" class="node"><title>Node52</title>
<g id="a_node3"><a xlink:href="CommonCwiseUnaryOps_8h.html#a77fe7ae45351d38a1936f075e555760d" target="_top" xlink:title="unaryViewExpr">
<polygon fill="none" stroke="black" points="178,-19.5 178,-38.5 264,-38.5 264,-19.5 178,-19.5"/>
<text text-anchor="middle" x="221" y="-26.5" font-family="Helvetica,sans-Serif" font-size="10.00">unaryViewExpr</text>
</a>
</g>
</g>
<!-- Node51&#45;&gt;Node52 -->
<g id="edge2" class="edge"><title>Node51&#45;&gt;Node52</title>
<path fill="none" stroke="midnightblue" d="M138.131,-57.411C151.618,-52.7306 168.043,-47.0308 182.63,-41.9685"/>
<polygon fill="midnightblue" stroke="midnightblue" points="184.078,-45.1711 192.377,-38.5859 181.783,-38.558 184.078,-45.1711"/>
</g>
<!-- Node52&#45;&gt;Node50 -->
<g id="edge5" class="edge"><title>Node52&#45;&gt;Node50</title>
<path fill="none" stroke="midnightblue" d="M177.862,-29C139.889,-29 85.0096,-29 51.3817,-29"/>
<polygon fill="midnightblue" stroke="midnightblue" points="51.2587,-25.5001 41.2586,-29 51.2586,-32.5001 51.2587,-25.5001"/>
</g>
<!-- Node53 -->
<g id="node4" class="node"><title>Node53</title>
<g id="a_node4"><a xlink:href="CommonCwiseUnaryOps_8h.html#a756e40bd56eb3768e9dd9d2ecf0a0c4f" target="_top" xlink:title="real">
<polygon fill="none" stroke="black" points="300,-0.5 300,-19.5 335,-19.5 335,-0.5 300,-0.5"/>
<text text-anchor="middle" x="317.5" y="-7.5" font-family="Helvetica,sans-Serif" font-size="10.00">real</text>
</a>
</g>
</g>
<!-- Node52&#45;&gt;Node53 -->
<g id="edge3" class="edge"><title>Node52&#45;&gt;Node53</title>
<path fill="none" stroke="midnightblue" d="M264.275,-20.5003C273.022,-18.7416 282,-16.9366 289.99,-15.3301"/>
<polygon fill="midnightblue" stroke="midnightblue" points="290.709,-18.7556 299.823,-13.3531 289.329,-11.893 290.709,-18.7556"/>
</g>
<!-- Node53&#45;&gt;Node50 -->
<g id="edge4" class="edge"><title>Node53&#45;&gt;Node50</title>
<path fill="none" stroke="midnightblue" d="M299.851,-9.35198C273.823,-8.48499 221.922,-7.34354 178,-10 133.767,-12.6753 82.8839,-19.5667 51.4564,-24.271"/>
<polygon fill="midnightblue" stroke="midnightblue" points="50.5536,-20.868 41.1943,-25.8333 51.6071,-27.7883 50.5536,-20.868"/>
</g>
</g>
</svg>
