<?xml version="1.0" encoding="UTF-8" standalone="no"?>
<!DOCTYPE svg PUBLIC "-//W3C//DTD SVG 1.1//EN"
 "http://www.w3.org/Graphics/SVG/1.1/DTD/svg11.dtd">
<!-- Generated by graphviz version 2.38.0 (20140413.2041)
 -->
<!-- Title: copy_back Pages: 1 -->
<svg width="316pt" height="294pt"
 viewBox="0.00 0.00 316.00 294.00" xmlns="http://www.w3.org/2000/svg" xmlns:xlink="http://www.w3.org/1999/xlink">
<g id="graph0" class="graph" transform="scale(1 1) rotate(0) translate(4 290)">
<title>copy_back</title>
<!-- Node8 -->
<g id="node1" class="node"><title>Node8</title>
<polygon fill="#bfbfbf" stroke="black" points="0,-133.5 0,-152.5 67,-152.5 67,-133.5 0,-133.5"/>
<text text-anchor="middle" x="33.5" y="-140.5" font-family="Helvetica,sans-Serif" font-size="10.00">copy_back</text>
</g>
<!-- Node9 -->
<g id="node2" class="node"><title>Node9</title>
<g id="a_node2"><a xlink:href="level2__impl_8h.html#a628a32457a1e2b0022b3da465c7231aa" target="_top" xlink:title="gemv">
<polygon fill="none" stroke="black" points="103,-266.5 103,-285.5 147,-285.5 147,-266.5 103,-266.5"/>
<text text-anchor="middle" x="125" y="-273.5" font-family="Helvetica,sans-Serif" font-size="10.00">gemv</text>
</a>
</g>
</g>
<!-- Node8&#45;&gt;Node9 -->
<g id="edge1" class="edge"><title>Node8&#45;&gt;Node9</title>
<path fill="none" stroke="midnightblue" d="M43.7198,-162.021C55.6263,-185.596 77.833,-226.396 103,-257 105.623,-260.19 108.786,-263.332 111.852,-266.114"/>
<polygon fill="midnightblue" stroke="midnightblue" points="46.7133,-160.18 39.1345,-152.776 40.4422,-163.29 46.7133,-160.18"/>
</g>
<!-- Node10 -->
<g id="node3" class="node"><title>Node10</title>
<g id="a_node3"><a xlink:href="level2__cplx__impl_8h.html#a1fd058652d5df85dc6aed39e789db2e7" target="_top" xlink:title="hemv">
<polygon fill="none" stroke="black" points="103,-228.5 103,-247.5 147,-247.5 147,-228.5 103,-228.5"/>
<text text-anchor="middle" x="125" y="-235.5" font-family="Helvetica,sans-Serif" font-size="10.00">hemv</text>
</a>
</g>
</g>
<!-- Node8&#45;&gt;Node10 -->
<g id="edge2" class="edge"><title>Node8&#45;&gt;Node10</title>
<path fill="none" stroke="midnightblue" d="M49.3703,-160.494C62.9307,-176.203 83.7304,-199.694 103,-219 106.056,-222.062 109.493,-225.264 112.687,-228.148"/>
<polygon fill="midnightblue" stroke="midnightblue" points="51.8042,-157.956 42.6372,-152.644 46.4908,-162.513 51.8042,-157.956"/>
</g>
<!-- Node11 -->
<g id="node4" class="node"><title>Node11</title>
<g id="a_node4"><a xlink:href="level2__real__impl_8h.html#a5aa7f49253741e11b60cbe1d5d40743e" target="_top" xlink:title="symv">
<polygon fill="none" stroke="black" points="104,-190.5 104,-209.5 146,-209.5 146,-190.5 104,-190.5"/>
<text text-anchor="middle" x="125" y="-197.5" font-family="Helvetica,sans-Serif" font-size="10.00">symv</text>
</a>
</g>
</g>
<!-- Node8&#45;&gt;Node11 -->
<g id="edge3" class="edge"><title>Node8&#45;&gt;Node11</title>
<path fill="none" stroke="midnightblue" d="M58.5346,-158.307C74.6151,-168.548 95.2749,-181.706 109.042,-190.474"/>
<polygon fill="midnightblue" stroke="midnightblue" points="59.9973,-155.089 49.6825,-152.669 56.237,-160.993 59.9973,-155.089"/>
</g>
<!-- Node13 -->
<g id="node6" class="node"><title>Node13</title>
<g id="a_node6"><a xlink:href="level2__impl_8h.html#aeda724eb23a962869e628533b2706bf6" target="_top" xlink:title="tbsv">
<polygon fill="none" stroke="black" points="106.5,-152.5 106.5,-171.5 143.5,-171.5 143.5,-152.5 106.5,-152.5"/>
<text text-anchor="middle" x="125" y="-159.5" font-family="Helvetica,sans-Serif" font-size="10.00">tbsv</text>
</a>
</g>
</g>
<!-- Node8&#45;&gt;Node13 -->
<g id="edge5" class="edge"><title>Node8&#45;&gt;Node13</title>
<path fill="none" stroke="midnightblue" d="M76.9238,-152.006C87.3377,-154.217 97.9202,-156.463 106.407,-158.265"/>
<polygon fill="midnightblue" stroke="midnightblue" points="77.5736,-148.566 67.0647,-149.913 76.1199,-155.414 77.5736,-148.566"/>
</g>
<!-- Node14 -->
<g id="node7" class="node"><title>Node14</title>
<g id="a_node7"><a xlink:href="level2__impl_8h.html#a2b4f86b5ce700a65d13007cc2594f1ed" target="_top" xlink:title="tpmv">
<polygon fill="none" stroke="black" points="104.5,-114.5 104.5,-133.5 145.5,-133.5 145.5,-114.5 104.5,-114.5"/>
<text text-anchor="middle" x="125" y="-121.5" font-family="Helvetica,sans-Serif" font-size="10.00">tpmv</text>
</a>
</g>
</g>
<!-- Node8&#45;&gt;Node14 -->
<g id="edge6" class="edge"><title>Node8&#45;&gt;Node14</title>
<path fill="none" stroke="midnightblue" d="M76.9286,-133.993C86.5144,-131.958 96.2427,-129.893 104.348,-128.172"/>
<polygon fill="midnightblue" stroke="midnightblue" points="76.1199,-130.586 67.0647,-136.087 77.5736,-137.434 76.1199,-130.586"/>
</g>
<!-- Node15 -->
<g id="node8" class="node"><title>Node15</title>
<g id="a_node8"><a xlink:href="level2__impl_8h.html#aea3340406c9da44b558ab8c4667ef236" target="_top" xlink:title="tpsv">
<polygon fill="none" stroke="black" points="106.5,-76.5 106.5,-95.5 143.5,-95.5 143.5,-76.5 106.5,-76.5"/>
<text text-anchor="middle" x="125" y="-83.5" font-family="Helvetica,sans-Serif" font-size="10.00">tpsv</text>
</a>
</g>
</g>
<!-- Node8&#45;&gt;Node15 -->
<g id="edge7" class="edge"><title>Node8&#45;&gt;Node15</title>
<path fill="none" stroke="midnightblue" d="M58.5346,-127.693C74.6151,-117.452 95.2749,-104.294 109.042,-95.5265"/>
<polygon fill="midnightblue" stroke="midnightblue" points="56.237,-125.007 49.6825,-133.331 59.9973,-130.911 56.237,-125.007"/>
</g>
<!-- Node16 -->
<g id="node9" class="node"><title>Node16</title>
<g id="a_node9"><a xlink:href="level2__impl_8h.html#a85fc713e394f5d9c78720bdeefe522d5" target="_top" xlink:title="trmv">
<polygon fill="none" stroke="black" points="105.5,-38.5 105.5,-57.5 144.5,-57.5 144.5,-38.5 105.5,-38.5"/>
<text text-anchor="middle" x="125" y="-45.5" font-family="Helvetica,sans-Serif" font-size="10.00">trmv</text>
</a>
</g>
</g>
<!-- Node8&#45;&gt;Node16 -->
<g id="edge8" class="edge"><title>Node8&#45;&gt;Node16</title>
<path fill="none" stroke="midnightblue" d="M49.3703,-125.506C62.9307,-109.797 83.7304,-86.3062 103,-67 106.056,-63.9377 109.493,-60.7356 112.687,-57.8517"/>
<polygon fill="midnightblue" stroke="midnightblue" points="46.4908,-123.487 42.6372,-133.356 51.8042,-128.044 46.4908,-123.487"/>
</g>
<!-- Node17 -->
<g id="node10" class="node"><title>Node17</title>
<g id="a_node10"><a xlink:href="level2__impl_8h.html#ab36f99aa539e13a878a2d572a5ef46ee" target="_top" xlink:title="trsv">
<polygon fill="none" stroke="black" points="107.5,-0.5 107.5,-19.5 142.5,-19.5 142.5,-0.5 107.5,-0.5"/>
<text text-anchor="middle" x="125" y="-7.5" font-family="Helvetica,sans-Serif" font-size="10.00">trsv</text>
</a>
</g>
</g>
<!-- Node8&#45;&gt;Node17 -->
<g id="edge9" class="edge"><title>Node8&#45;&gt;Node17</title>
<path fill="none" stroke="midnightblue" d="M43.7198,-123.979C55.6263,-100.404 77.833,-59.6044 103,-29 105.623,-25.8101 108.786,-22.6679 111.852,-19.8856"/>
<polygon fill="midnightblue" stroke="midnightblue" points="40.4422,-122.71 39.1345,-133.224 46.7133,-125.82 40.4422,-122.71"/>
</g>
<!-- Node12 -->
<g id="node5" class="node"><title>Node12</title>
<g id="a_node5"><a xlink:href="classAction__symv.html#a1125303ff8722640da4b2487891b28e9" target="_top" xlink:title="Action_symv::calculate">
<polygon fill="none" stroke="black" points="183,-190.5 183,-209.5 308,-209.5 308,-190.5 183,-190.5"/>
<text text-anchor="middle" x="245.5" y="-197.5" font-family="Helvetica,sans-Serif" font-size="10.00">Action_symv::calculate</text>
</a>
</g>
</g>
<!-- Node11&#45;&gt;Node12 -->
<g id="edge4" class="edge"><title>Node11&#45;&gt;Node12</title>
<path fill="none" stroke="midnightblue" d="M156.237,-200C164.436,-200 173.62,-200 182.88,-200"/>
<polygon fill="midnightblue" stroke="midnightblue" points="156.102,-196.5 146.102,-200 156.102,-203.5 156.102,-196.5"/>
</g>
</g>
</svg>
