<?xml version="1.0" encoding="UTF-8" standalone="no"?>
<!DOCTYPE svg PUBLIC "-//W3C//DTD SVG 1.1//EN"
 "http://www.w3.org/Graphics/SVG/1.1/DTD/svg11.dtd">
<!-- Generated by graphviz version 2.38.0 (20140413.2041)
 -->
<!-- Title: /travis/libpairinteraction/eigen/unsupported/test/cxx11_tensor_symmetry.cpp Pages: 1 -->
<svg width="1271pt" height="162pt"
 viewBox="0.00 0.00 1271.00 162.00" xmlns="http://www.w3.org/2000/svg" xmlns:xlink="http://www.w3.org/1999/xlink">
<g id="graph0" class="graph" transform="scale(1 1) rotate(0) translate(4 158)">
<title>/travis/libpairinteraction/eigen/unsupported/test/cxx11_tensor_symmetry.cpp</title>
<!-- Node0 -->
<g id="node1" class="node"><title>Node0</title>
<polygon fill="#bfbfbf" stroke="black" points="778.5,-112.5 778.5,-153.5 934.5,-153.5 934.5,-112.5 778.5,-112.5"/>
<text text-anchor="start" x="786.5" y="-141.5" font-family="Helvetica,sans-Serif" font-size="10.00">/travis/libpairinteraction</text>
<text text-anchor="start" x="786.5" y="-130.5" font-family="Helvetica,sans-Serif" font-size="10.00">/eigen/unsupported/test</text>
<text text-anchor="middle" x="856.5" y="-119.5" font-family="Helvetica,sans-Serif" font-size="10.00">/cxx11_tensor_symmetry.cpp</text>
</g>
<!-- Node1 -->
<g id="node2" class="node"><title>Node1</title>
<g id="a_node2"><a xlink:href="main_8h.html" target="_top" xlink:title="main.h">
<polygon fill="none" stroke="black" points="579.5,-56.5 579.5,-75.5 629.5,-75.5 629.5,-56.5 579.5,-56.5"/>
<text text-anchor="middle" x="604.5" y="-63.5" font-family="Helvetica,sans-Serif" font-size="10.00">main.h</text>
</a>
</g>
</g>
<!-- Node0&#45;&gt;Node1 -->
<g id="edge1" class="edge"><title>Node0&#45;&gt;Node1</title>
<path fill="none" stroke="midnightblue" d="M779.789,-112.441C740.447,-102.375 691.514,-89.8022 639.493,-76.2468"/>
<polygon fill="midnightblue" stroke="midnightblue" points="640.305,-72.8415 629.746,-73.7046 638.539,-79.615 640.305,-72.8415"/>
</g>
<!-- Node20 -->
<g id="node21" class="node"><title>Node20</title>
<polygon fill="none" stroke="#bfbfbf" points="647.5,-56.5 647.5,-75.5 757.5,-75.5 757.5,-56.5 647.5,-56.5"/>
<text text-anchor="middle" x="702.5" y="-63.5" font-family="Helvetica,sans-Serif" font-size="10.00">Eigen/CXX11/Tensor</text>
</g>
<!-- Node0&#45;&gt;Node20 -->
<g id="edge20" class="edge"><title>Node0&#45;&gt;Node20</title>
<path fill="none" stroke="midnightblue" d="M810.295,-112.498C784.981,-101.813 754.351,-88.8851 732.221,-79.5446"/>
<polygon fill="midnightblue" stroke="midnightblue" points="733.574,-76.3166 723,-75.6525 730.852,-82.7657 733.574,-76.3166"/>
</g>
<!-- Node21 -->
<g id="node22" class="node"><title>Node21</title>
<polygon fill="none" stroke="#bfbfbf" points="776,-56.5 776,-75.5 937,-75.5 937,-56.5 776,-56.5"/>
<text text-anchor="middle" x="856.5" y="-63.5" font-family="Helvetica,sans-Serif" font-size="10.00">Eigen/CXX11/TensorSymmetry</text>
</g>
<!-- Node0&#45;&gt;Node21 -->
<g id="edge21" class="edge"><title>Node0&#45;&gt;Node21</title>
<path fill="none" stroke="midnightblue" d="M856.5,-112.498C856.5,-104.065 856.5,-94.2351 856.5,-85.874"/>
<polygon fill="midnightblue" stroke="midnightblue" points="860,-85.6525 856.5,-75.6525 853,-85.6525 860,-85.6525"/>
</g>
<!-- Node22 -->
<g id="node23" class="node"><title>Node22</title>
<polygon fill="none" stroke="#bfbfbf" points="955.5,-56.5 955.5,-75.5 993.5,-75.5 993.5,-56.5 955.5,-56.5"/>
<text text-anchor="middle" x="974.5" y="-63.5" font-family="Helvetica,sans-Serif" font-size="10.00">map</text>
</g>
<!-- Node0&#45;&gt;Node22 -->
<g id="edge22" class="edge"><title>Node0&#45;&gt;Node22</title>
<path fill="none" stroke="midnightblue" d="M891.904,-112.498C910.517,-102.245 932.882,-89.925 949.643,-80.6927"/>
<polygon fill="midnightblue" stroke="midnightblue" points="951.722,-83.5431 958.792,-75.6525 948.345,-77.4118 951.722,-83.5431"/>
</g>
<!-- Node23 -->
<g id="node24" class="node"><title>Node23</title>
<polygon fill="none" stroke="#bfbfbf" points="1011.5,-56.5 1011.5,-75.5 1043.5,-75.5 1043.5,-56.5 1011.5,-56.5"/>
<text text-anchor="middle" x="1027.5" y="-63.5" font-family="Helvetica,sans-Serif" font-size="10.00">set</text>
</g>
<!-- Node0&#45;&gt;Node23 -->
<g id="edge23" class="edge"><title>Node0&#45;&gt;Node23</title>
<path fill="none" stroke="midnightblue" d="M907.806,-112.498C938.933,-100.666 977.299,-86.0821 1002.07,-76.6663"/>
<polygon fill="midnightblue" stroke="midnightblue" points="1003.38,-79.9143 1011.48,-73.0895 1000.89,-73.3711 1003.38,-79.9143"/>
</g>
<!-- Node2 -->
<g id="node3" class="node"><title>Node2</title>
<polygon fill="none" stroke="#bfbfbf" points="0,-0.5 0,-19.5 47,-19.5 47,-0.5 0,-0.5"/>
<text text-anchor="middle" x="23.5" y="-7.5" font-family="Helvetica,sans-Serif" font-size="10.00">cstdlib</text>
</g>
<!-- Node1&#45;&gt;Node2 -->
<g id="edge2" class="edge"><title>Node1&#45;&gt;Node2</title>
<path fill="none" stroke="midnightblue" d="M579.382,-64.655C502.43,-63.2391 263.154,-56.1681 57.2367,-19.9987"/>
<polygon fill="midnightblue" stroke="midnightblue" points="57.6068,-16.5096 47.1474,-18.1982 56.3769,-23.4007 57.6068,-16.5096"/>
</g>
<!-- Node3 -->
<g id="node4" class="node"><title>Node3</title>
<polygon fill="none" stroke="#bfbfbf" points="65,-0.5 65,-19.5 112,-19.5 112,-0.5 65,-0.5"/>
<text text-anchor="middle" x="88.5" y="-7.5" font-family="Helvetica,sans-Serif" font-size="10.00">cerrno</text>
</g>
<!-- Node1&#45;&gt;Node3 -->
<g id="edge3" class="edge"><title>Node1&#45;&gt;Node3</title>
<path fill="none" stroke="midnightblue" d="M579.408,-64.1951C508.826,-61.6088 302.528,-51.8379 122.111,-19.7784"/>
<polygon fill="midnightblue" stroke="midnightblue" points="122.643,-16.3179 112.18,-17.9861 121.4,-23.2066 122.643,-16.3179"/>
</g>
<!-- Node4 -->
<g id="node5" class="node"><title>Node4</title>
<polygon fill="none" stroke="#bfbfbf" points="130.5,-0.5 130.5,-19.5 174.5,-19.5 174.5,-0.5 130.5,-0.5"/>
<text text-anchor="middle" x="152.5" y="-7.5" font-family="Helvetica,sans-Serif" font-size="10.00">ctime</text>
</g>
<!-- Node1&#45;&gt;Node4 -->
<g id="edge4" class="edge"><title>Node1&#45;&gt;Node4</title>
<path fill="none" stroke="midnightblue" d="M579.117,-63.8462C514.672,-60.5884 339.455,-49.6811 184.886,-19.9495"/>
<polygon fill="midnightblue" stroke="midnightblue" points="185.222,-16.4489 174.736,-17.9637 183.878,-23.3187 185.222,-16.4489"/>
</g>
<!-- Node5 -->
<g id="node6" class="node"><title>Node5</title>
<polygon fill="none" stroke="#bfbfbf" points="193,-0.5 193,-19.5 252,-19.5 252,-0.5 193,-0.5"/>
<text text-anchor="middle" x="222.5" y="-7.5" font-family="Helvetica,sans-Serif" font-size="10.00">iostream</text>
</g>
<!-- Node1&#45;&gt;Node5 -->
<g id="edge5" class="edge"><title>Node1&#45;&gt;Node5</title>
<path fill="none" stroke="midnightblue" d="M579.411,-62.5459C524.065,-56.9544 387.18,-42.1506 262.362,-19.9925"/>
<polygon fill="midnightblue" stroke="midnightblue" points="262.711,-16.4992 252.249,-18.1761 261.473,-23.389 262.711,-16.4992"/>
</g>
<!-- Node6 -->
<g id="node7" class="node"><title>Node6</title>
<polygon fill="none" stroke="#bfbfbf" points="270.5,-0.5 270.5,-19.5 324.5,-19.5 324.5,-0.5 270.5,-0.5"/>
<text text-anchor="middle" x="297.5" y="-7.5" font-family="Helvetica,sans-Serif" font-size="10.00">fstream</text>
</g>
<!-- Node1&#45;&gt;Node6 -->
<g id="edge6" class="edge"><title>Node1&#45;&gt;Node6</title>
<path fill="none" stroke="midnightblue" d="M579.342,-61.5132C532.921,-54.9317 430.492,-39.7229 334.444,-20.0579"/>
<polygon fill="midnightblue" stroke="midnightblue" points="335.075,-16.6144 324.573,-18.0162 333.657,-23.4693 335.075,-16.6144"/>
</g>
<!-- Node7 -->
<g id="node8" class="node"><title>Node7</title>
<polygon fill="none" stroke="#bfbfbf" points="342.5,-0.5 342.5,-19.5 386.5,-19.5 386.5,-0.5 342.5,-0.5"/>
<text text-anchor="middle" x="364.5" y="-7.5" font-family="Helvetica,sans-Serif" font-size="10.00">string</text>
</g>
<!-- Node1&#45;&gt;Node7 -->
<g id="edge7" class="edge"><title>Node1&#45;&gt;Node7</title>
<path fill="none" stroke="midnightblue" d="M579.273,-60.1656C541.628,-52.8233 468.33,-38.0351 396.867,-20.2124"/>
<polygon fill="midnightblue" stroke="midnightblue" points="397.352,-16.7251 386.8,-17.6778 395.643,-23.5133 397.352,-16.7251"/>
</g>
<!-- Node8 -->
<g id="node9" class="node"><title>Node8</title>
<polygon fill="none" stroke="#bfbfbf" points="404.5,-0.5 404.5,-19.5 460.5,-19.5 460.5,-0.5 404.5,-0.5"/>
<text text-anchor="middle" x="432.5" y="-7.5" font-family="Helvetica,sans-Serif" font-size="10.00">sstream</text>
</g>
<!-- Node1&#45;&gt;Node8 -->
<g id="edge8" class="edge"><title>Node1&#45;&gt;Node8</title>
<path fill="none" stroke="midnightblue" d="M579.49,-57.1479C550.612,-48.0818 502.833,-33.0813 469.618,-22.6534"/>
<polygon fill="midnightblue" stroke="midnightblue" points="470.404,-19.2317 459.815,-19.5756 468.307,-25.9103 470.404,-19.2317"/>
</g>
<!-- Node9 -->
<g id="node10" class="node"><title>Node9</title>
<polygon fill="none" stroke="#bfbfbf" points="479,-0.5 479,-19.5 526,-19.5 526,-0.5 479,-0.5"/>
<text text-anchor="middle" x="502.5" y="-7.5" font-family="Helvetica,sans-Serif" font-size="10.00">vector</text>
</g>
<!-- Node1&#45;&gt;Node9 -->
<g id="edge9" class="edge"><title>Node1&#45;&gt;Node9</title>
<path fill="none" stroke="midnightblue" d="M588.112,-56.324C571.829,-47.7034 546.633,-34.3643 527.784,-24.3855"/>
<polygon fill="midnightblue" stroke="midnightblue" points="529.323,-21.2402 518.847,-19.6545 526.048,-27.4267 529.323,-21.2402"/>
</g>
<!-- Node10 -->
<g id="node11" class="node"><title>Node10</title>
<polygon fill="none" stroke="#bfbfbf" points="544,-0.5 544,-19.5 599,-19.5 599,-0.5 544,-0.5"/>
<text text-anchor="middle" x="571.5" y="-7.5" font-family="Helvetica,sans-Serif" font-size="10.00">typeinfo</text>
</g>
<!-- Node1&#45;&gt;Node10 -->
<g id="edge10" class="edge"><title>Node1&#45;&gt;Node10</title>
<path fill="none" stroke="midnightblue" d="M599.051,-56.083C594.486,-48.6127 587.832,-37.7244 582.207,-28.5199"/>
<polygon fill="midnightblue" stroke="midnightblue" points="585.049,-26.4588 576.848,-19.7511 579.076,-30.109 585.049,-26.4588"/>
</g>
<!-- Node11 -->
<g id="node12" class="node"><title>Node11</title>
<polygon fill="none" stroke="#bfbfbf" points="617.5,-0.5 617.5,-19.5 659.5,-19.5 659.5,-0.5 617.5,-0.5"/>
<text text-anchor="middle" x="638.5" y="-7.5" font-family="Helvetica,sans-Serif" font-size="10.00">limits</text>
</g>
<!-- Node1&#45;&gt;Node11 -->
<g id="edge11" class="edge"><title>Node1&#45;&gt;Node11</title>
<path fill="none" stroke="midnightblue" d="M610.114,-56.083C614.867,-48.5341 621.818,-37.4948 627.652,-28.2298"/>
<polygon fill="midnightblue" stroke="midnightblue" points="630.624,-30.0783 632.99,-19.7511 624.7,-26.3486 630.624,-30.0783"/>
</g>
<!-- Node12 -->
<g id="node13" class="node"><title>Node12</title>
<polygon fill="none" stroke="#bfbfbf" points="677.5,-0.5 677.5,-19.5 739.5,-19.5 739.5,-0.5 677.5,-0.5"/>
<text text-anchor="middle" x="708.5" y="-7.5" font-family="Helvetica,sans-Serif" font-size="10.00">algorithm</text>
</g>
<!-- Node1&#45;&gt;Node12 -->
<g id="edge12" class="edge"><title>Node1&#45;&gt;Node12</title>
<path fill="none" stroke="midnightblue" d="M621.209,-56.324C637.812,-47.7034 663.502,-34.3643 682.72,-24.3855"/>
<polygon fill="midnightblue" stroke="midnightblue" points="684.57,-27.3689 691.832,-19.6545 681.344,-21.1565 684.57,-27.3689"/>
</g>
<!-- Node13 -->
<g id="node14" class="node"><title>Node13</title>
<polygon fill="none" stroke="#bfbfbf" points="758,-0.5 758,-19.5 815,-19.5 815,-0.5 758,-0.5"/>
<text text-anchor="middle" x="786.5" y="-7.5" font-family="Helvetica,sans-Serif" font-size="10.00">complex</text>
</g>
<!-- Node1&#45;&gt;Node13 -->
<g id="edge13" class="edge"><title>Node1&#45;&gt;Node13</title>
<path fill="none" stroke="midnightblue" d="M629.806,-57.4915C660.387,-48.4181 712.162,-33.0564 747.774,-22.49"/>
<polygon fill="midnightblue" stroke="midnightblue" points="749.221,-25.7117 757.812,-19.5118 747.23,-19.0009 749.221,-25.7117"/>
</g>
<!-- Node14 -->
<g id="node15" class="node"><title>Node14</title>
<polygon fill="none" stroke="#bfbfbf" points="833,-0.5 833,-19.5 880,-19.5 880,-0.5 833,-0.5"/>
<text text-anchor="middle" x="856.5" y="-7.5" font-family="Helvetica,sans-Serif" font-size="10.00">deque</text>
</g>
<!-- Node1&#45;&gt;Node14 -->
<g id="edge14" class="edge"><title>Node1&#45;&gt;Node14</title>
<path fill="none" stroke="midnightblue" d="M629.704,-58.1255C632.662,-57.3789 635.643,-56.6538 638.5,-56 717.533,-37.9132 740.853,-39.2809 823.022,-20.2035"/>
<polygon fill="midnightblue" stroke="midnightblue" points="823.859,-23.6023 832.791,-17.9044 822.256,-16.7884 823.859,-23.6023"/>
</g>
<!-- Node15 -->
<g id="node16" class="node"><title>Node15</title>
<polygon fill="none" stroke="#bfbfbf" points="898,-0.5 898,-19.5 945,-19.5 945,-0.5 898,-0.5"/>
<text text-anchor="middle" x="921.5" y="-7.5" font-family="Helvetica,sans-Serif" font-size="10.00">queue</text>
</g>
<!-- Node1&#45;&gt;Node15 -->
<g id="edge15" class="edge"><title>Node1&#45;&gt;Node15</title>
<path fill="none" stroke="midnightblue" d="M629.674,-57.9872C632.637,-57.2655 635.628,-56.584 638.5,-56 745.809,-34.1788 777.459,-42.7795 887.954,-20.0992"/>
<polygon fill="midnightblue" stroke="midnightblue" points="888.749,-23.5087 897.821,-18.0349 887.316,-16.6571 888.749,-23.5087"/>
</g>
<!-- Node16 -->
<g id="node17" class="node"><title>Node16</title>
<polygon fill="none" stroke="#bfbfbf" points="963.5,-0.5 963.5,-19.5 1015.5,-19.5 1015.5,-0.5 963.5,-0.5"/>
<text text-anchor="middle" x="989.5" y="-7.5" font-family="Helvetica,sans-Serif" font-size="10.00">cassert</text>
</g>
<!-- Node1&#45;&gt;Node16 -->
<g id="edge16" class="edge"><title>Node1&#45;&gt;Node16</title>
<path fill="none" stroke="midnightblue" d="M629.658,-57.9046C632.624,-57.1977 635.62,-56.5423 638.5,-56 774.156,-30.4584 813.656,-44.9443 953.005,-20.0374"/>
<polygon fill="midnightblue" stroke="midnightblue" points="954.004,-23.413 963.213,-18.1749 952.748,-16.5266 954.004,-23.413"/>
</g>
<!-- Node17 -->
<g id="node18" class="node"><title>Node17</title>
<polygon fill="none" stroke="#bfbfbf" points="1033.5,-0.5 1033.5,-19.5 1063.5,-19.5 1063.5,-0.5 1033.5,-0.5"/>
<text text-anchor="middle" x="1048.5" y="-7.5" font-family="Helvetica,sans-Serif" font-size="10.00">list</text>
</g>
<!-- Node1&#45;&gt;Node17 -->
<g id="edge17" class="edge"><title>Node1&#45;&gt;Node17</title>
<path fill="none" stroke="midnightblue" d="M629.647,-57.8462C632.615,-57.1498 635.614,-56.5128 638.5,-56 804.911,-26.4255 854.688,-57.3655 1023.49,-19.613"/>
<polygon fill="midnightblue" stroke="midnightblue" points="1024.48,-22.9754 1033.45,-17.3358 1022.92,-16.1513 1024.48,-22.9754"/>
</g>
<!-- Node18 -->
<g id="node19" class="node"><title>Node18</title>
<polygon fill="none" stroke="#bfbfbf" points="1081.5,-0.5 1081.5,-19.5 1185.5,-19.5 1185.5,-0.5 1081.5,-0.5"/>
<text text-anchor="middle" x="1133.5" y="-7.5" font-family="Helvetica,sans-Serif" font-size="10.00">split_test_helper.h</text>
</g>
<!-- Node1&#45;&gt;Node18 -->
<g id="edge18" class="edge"><title>Node1&#45;&gt;Node18</title>
<path fill="none" stroke="midnightblue" d="M629.642,-57.817C632.611,-57.1258 635.612,-56.4981 638.5,-56 825.976,-23.6706 878.435,-41.5015 1071.11,-20.0806"/>
<polygon fill="midnightblue" stroke="midnightblue" points="1071.74,-23.531 1081.29,-18.9272 1070.95,-16.5755 1071.74,-23.531"/>
</g>
<!-- Node19 -->
<g id="node20" class="node"><title>Node19</title>
<polygon fill="none" stroke="#bfbfbf" points="1204,-0.5 1204,-19.5 1263,-19.5 1263,-0.5 1204,-0.5"/>
<text text-anchor="middle" x="1233.5" y="-7.5" font-family="Helvetica,sans-Serif" font-size="10.00">Eigen/QR</text>
</g>
<!-- Node1&#45;&gt;Node19 -->
<g id="edge19" class="edge"><title>Node1&#45;&gt;Node19</title>
<path fill="none" stroke="midnightblue" d="M629.633,-57.7652C632.604,-57.0833 635.607,-56.4719 638.5,-56 879.676,-16.6548 947.709,-54.9226 1193.82,-19.8266"/>
<polygon fill="midnightblue" stroke="midnightblue" points="1194.39,-23.2811 1203.78,-18.3803 1193.38,-16.3537 1194.39,-23.2811"/>
</g>
</g>
</svg>
