<?xml version="1.0" encoding="UTF-8" standalone="no"?>
<!DOCTYPE svg PUBLIC "-//W3C//DTD SVG 1.1//EN"
 "http://www.w3.org/Graphics/SVG/1.1/DTD/svg11.dtd">
<!-- Generated by graphviz version 2.38.0 (20140413.2041)
 -->
<!-- Title: test_cxx11_runqueue Pages: 1 -->
<!--zoomable 474 -->
<svg id="main" version="1.1" xmlns="http://www.w3.org/2000/svg" xmlns:xlink="http://www.w3.org/1999/xlink" xml:space="preserve" onload="init(evt)">
<style type="text/css"><![CDATA[
.edge:hover path { stroke: red; }
.edge:hover polygon { stroke: red; fill: red; }
]]></style>
<script type="text/javascript"><![CDATA[
var edges = document.getElementsByTagName('g');
if (edges && edges.length) {
  for (var i=0;i<edges.length;i++) {
    if (edges[i].id.substr(0,4)=='edge') {
      edges[i].setAttribute('class','edge');
    }
  }
}
]]></script>
        <defs>
                <circle id="rim" cx="0" cy="0" r="7"/>
                <circle id="rim2" cx="0" cy="0" r="3.5"/>
                <g id="zoomPlus">
                        <use xlink:href="#rim" fill="#404040">
                                <set attributeName="fill" to="#808080" begin="zoomplus.mouseover" end="zoomplus.mouseout"/>
                        </use>
                        <path d="M-4,0h8M0,-4v8" fill="none" stroke="white" stroke-width="1.5" pointer-events="none"/>
                </g>
                <g id="zoomMin">
                        <use xlink:href="#rim" fill="#404040">
                                <set attributeName="fill" to="#808080" begin="zoomminus.mouseover" end="zoomminus.mouseout"/>
                        </use>
                        <path d="M-4,0h8" fill="none" stroke="white" stroke-width="1.5" pointer-events="none"/>
                </g>
                <g id="dirArrow">
                        <path fill="none" stroke="white" stroke-width="1.5" d="M0,-3.0v7 M-2.5,-0.5L0,-3.0L2.5,-0.5"/>
                </g>
               <g id="resetDef">
                       <use xlink:href="#rim2" fill="#404040">
                               <set attributeName="fill" to="#808080" begin="reset.mouseover" end="reset.mouseout"/>
                       </use>
               </g>
        </defs>

<script type="text/javascript">
var viewWidth = 843;
var viewHeight = 474;
var sectionId = 'dynsection-4';
</script>
<script xlink:href="svgpan.js"/>
<svg id="graph" class="graph">
<g id="viewport">
<title>test_cxx11_runqueue</title>
<!-- Node16 -->
<g id="node1" class="node"><title>Node16</title>
<polygon fill="#bfbfbf" stroke="black" points="0,-209.5 0,-228.5 119,-228.5 119,-209.5 0,-209.5"/>
<text text-anchor="middle" x="59.5" y="-216.5" font-family="Helvetica,sans-Serif" font-size="10.00">test_cxx11_runqueue</text>
</g>
<!-- Node17 -->
<g id="node2" class="node"><title>Node17</title>
<g id="a_node2"><a xlink:href="cxx11__runqueue_8cpp.html#a5c9245cdfa688e1ba81f425c3897504f" target="_top" xlink:title="test_basic_runqueue">
<polygon fill="none" stroke="black" points="158,-209.5 158,-228.5 274,-228.5 274,-209.5 158,-209.5"/>
<text text-anchor="middle" x="216" y="-216.5" font-family="Helvetica,sans-Serif" font-size="10.00">test_basic_runqueue</text>
</a>
</g>
</g>
<!-- Node16&#45;&gt;Node17 -->
<g id="edge1" class="edge"><title>Node16&#45;&gt;Node17</title>
<path fill="none" stroke="midnightblue" d="M119.351,-219C128.619,-219 138.263,-219 147.705,-219"/>
<polygon fill="midnightblue" stroke="midnightblue" points="147.844,-222.5 157.844,-219 147.844,-215.5 147.844,-222.5"/>
</g>
<!-- Node27 -->
<g id="node12" class="node"><title>Node27</title>
<g id="a_node12"><a xlink:href="cxx11__runqueue_8cpp.html#a926a6180225bebddfb708e466cd6ee9d" target="_top" xlink:title="test_empty_runqueue">
<polygon fill="none" stroke="black" points="155,-171.5 155,-190.5 277,-190.5 277,-171.5 155,-171.5"/>
<text text-anchor="middle" x="216" y="-178.5" font-family="Helvetica,sans-Serif" font-size="10.00">test_empty_runqueue</text>
</a>
</g>
</g>
<!-- Node16&#45;&gt;Node27 -->
<g id="edge19" class="edge"><title>Node16&#45;&gt;Node27</title>
<path fill="none" stroke="midnightblue" d="M99.4869,-209.411C119.783,-204.419 144.793,-198.268 166.346,-192.967"/>
<polygon fill="midnightblue" stroke="midnightblue" points="167.419,-196.307 176.293,-190.52 165.747,-189.51 167.419,-196.307"/>
</g>
<!-- Node29 -->
<g id="node14" class="node"><title>Node29</title>
<g id="a_node14"><a xlink:href="cxx11__runqueue_8cpp.html#a344ecde431f63f23f1f3dba3bac867ee" target="_top" xlink:title="test_stress_runqueue">
<polygon fill="none" stroke="black" points="155.5,-247.5 155.5,-266.5 276.5,-266.5 276.5,-247.5 155.5,-247.5"/>
<text text-anchor="middle" x="216" y="-254.5" font-family="Helvetica,sans-Serif" font-size="10.00">test_stress_runqueue</text>
</a>
</g>
</g>
<!-- Node16&#45;&gt;Node29 -->
<g id="edge27" class="edge"><title>Node16&#45;&gt;Node29</title>
<path fill="none" stroke="midnightblue" d="M99.4869,-228.589C119.783,-233.581 144.793,-239.732 166.346,-245.033"/>
<polygon fill="midnightblue" stroke="midnightblue" points="165.747,-248.49 176.293,-247.48 167.419,-241.693 165.747,-248.49"/>
</g>
<!-- Node18 -->
<g id="node3" class="node"><title>Node18</title>
<g id="a_node3"><a xlink:href="classEigen_1_1RunQueue.html#aa7abe7eea034f24a03843b90109636dc" target="_top" xlink:title="Eigen::RunQueue::Empty">
<polygon fill="none" stroke="black" points="513,-304.5 513,-323.5 647,-323.5 647,-304.5 513,-304.5"/>
<text text-anchor="middle" x="580" y="-311.5" font-family="Helvetica,sans-Serif" font-size="10.00">Eigen::RunQueue::Empty</text>
</a>
</g>
</g>
<!-- Node17&#45;&gt;Node18 -->
<g id="edge2" class="edge"><title>Node17&#45;&gt;Node18</title>
<path fill="none" stroke="midnightblue" d="M262.716,-228.529C267.946,-230.993 272.872,-234.096 277,-238 309.802,-269.028 275.844,-307.346 313,-333 384.943,-382.673 495.478,-348.729 548.53,-327.497"/>
<polygon fill="midnightblue" stroke="midnightblue" points="550.134,-330.622 558.046,-323.576 547.467,-324.15 550.134,-330.622"/>
</g>
<!-- Node19 -->
<g id="node4" class="node"><title>Node19</title>
<g id="a_node4"><a xlink:href="classEigen_1_1RunQueue.html#aa193d3baea623281da1886603799dd87" target="_top" xlink:title="Eigen::RunQueue::Size">
<polygon fill="none" stroke="black" points="697,-171.5 697,-190.5 821,-190.5 821,-171.5 697,-171.5"/>
<text text-anchor="middle" x="759" y="-178.5" font-family="Helvetica,sans-Serif" font-size="10.00">Eigen::RunQueue::Size</text>
</a>
</g>
</g>
<!-- Node17&#45;&gt;Node19 -->
<g id="edge18" class="edge"><title>Node17&#45;&gt;Node19</title>
<path fill="none" stroke="midnightblue" d="M260.151,-209.431C266.158,-206.963 271.982,-203.871 277,-200 300.724,-181.698 286.759,-157.463 313,-143 451.426,-66.7039 651.558,-136.008 727.355,-167.412"/>
<polygon fill="midnightblue" stroke="midnightblue" points="726.221,-170.733 736.795,-171.396 728.943,-164.283 726.221,-170.733"/>
</g>
<!-- Node21 -->
<g id="node6" class="node"><title>Node21</title>
<g id="a_node6"><a xlink:href="classEigen_1_1RunQueue.html#a5f0a65d40022baef3d77abb8226f35b0" target="_top" xlink:title="Eigen::RunQueue::PopBack">
<polygon fill="none" stroke="black" points="322.5,-266.5 322.5,-285.5 467.5,-285.5 467.5,-266.5 322.5,-266.5"/>
<text text-anchor="middle" x="395" y="-273.5" font-family="Helvetica,sans-Serif" font-size="10.00">Eigen::RunQueue::PopBack</text>
</a>
</g>
</g>
<!-- Node17&#45;&gt;Node21 -->
<g id="edge5" class="edge"><title>Node17&#45;&gt;Node21</title>
<path fill="none" stroke="midnightblue" d="M250.706,-228.509C259.385,-231.273 268.633,-234.501 277,-238 293.691,-244.981 296.055,-250.66 313,-257 319.79,-259.54 327.03,-261.815 334.284,-263.83"/>
<polygon fill="midnightblue" stroke="midnightblue" points="333.581,-267.264 344.142,-266.418 335.359,-260.493 333.581,-267.264"/>
</g>
<!-- Node23 -->
<g id="node8" class="node"><title>Node23</title>
<g id="a_node8"><a xlink:href="classEigen_1_1RunQueue.html#a583d558af80e41729d7808ed5dfa25d9" target="_top" xlink:title="Eigen::RunQueue::PopBackHalf">
<polygon fill="none" stroke="black" points="313,-304.5 313,-323.5 477,-323.5 477,-304.5 313,-304.5"/>
<text text-anchor="middle" x="395" y="-311.5" font-family="Helvetica,sans-Serif" font-size="10.00">Eigen::RunQueue::PopBackHalf</text>
</a>
</g>
</g>
<!-- Node17&#45;&gt;Node23 -->
<g id="edge8" class="edge"><title>Node17&#45;&gt;Node23</title>
<path fill="none" stroke="midnightblue" d="M260.151,-228.569C266.158,-231.037 271.982,-234.129 277,-238 300.724,-256.302 288.595,-277.616 313,-295 315.706,-296.927 318.579,-298.662 321.569,-300.223"/>
<polygon fill="midnightblue" stroke="midnightblue" points="320.276,-303.479 330.831,-304.402 323.155,-297.099 320.276,-303.479"/>
</g>
<!-- Node24 -->
<g id="node9" class="node"><title>Node24</title>
<g id="a_node9"><a xlink:href="classEigen_1_1RunQueue.html#a70485d807cb89b34d882471f069eeeea" target="_top" xlink:title="Eigen::RunQueue::PopFront">
<polygon fill="none" stroke="black" points="322,-228.5 322,-247.5 468,-247.5 468,-228.5 322,-228.5"/>
<text text-anchor="middle" x="395" y="-235.5" font-family="Helvetica,sans-Serif" font-size="10.00">Eigen::RunQueue::PopFront</text>
</a>
</g>
</g>
<!-- Node17&#45;&gt;Node24 -->
<g id="edge12" class="edge"><title>Node17&#45;&gt;Node24</title>
<path fill="none" stroke="midnightblue" d="M274.467,-225.169C286.414,-226.451 299.226,-227.827 311.864,-229.183"/>
<polygon fill="midnightblue" stroke="midnightblue" points="311.625,-232.678 321.942,-230.265 312.372,-225.717 311.625,-232.678"/>
</g>
<!-- Node25 -->
<g id="node10" class="node"><title>Node25</title>
<g id="a_node10"><a xlink:href="classEigen_1_1RunQueue.html#a205fedbfce51498cde3069171ff4790d" target="_top" xlink:title="Eigen::RunQueue::PushBack">
<polygon fill="none" stroke="black" points="320,-190.5 320,-209.5 470,-209.5 470,-190.5 320,-190.5"/>
<text text-anchor="middle" x="395" y="-197.5" font-family="Helvetica,sans-Serif" font-size="10.00">Eigen::RunQueue::PushBack</text>
</a>
</g>
</g>
<!-- Node17&#45;&gt;Node25 -->
<g id="edge14" class="edge"><title>Node17&#45;&gt;Node25</title>
<path fill="none" stroke="midnightblue" d="M274.467,-212.831C285.744,-211.621 297.791,-210.328 309.735,-209.045"/>
<polygon fill="midnightblue" stroke="midnightblue" points="310.155,-212.52 319.724,-207.973 309.408,-205.56 310.155,-212.52"/>
</g>
<!-- Node26 -->
<g id="node11" class="node"><title>Node26</title>
<g id="a_node11"><a xlink:href="classEigen_1_1RunQueue.html#aa176e6edcabac0e168f579a968eeb49f" target="_top" xlink:title="Eigen::RunQueue::PushFront">
<polygon fill="none" stroke="black" points="319.5,-152.5 319.5,-171.5 470.5,-171.5 470.5,-152.5 319.5,-152.5"/>
<text text-anchor="middle" x="395" y="-159.5" font-family="Helvetica,sans-Serif" font-size="10.00">Eigen::RunQueue::PushFront</text>
</a>
</g>
</g>
<!-- Node17&#45;&gt;Node26 -->
<g id="edge16" class="edge"><title>Node17&#45;&gt;Node26</title>
<path fill="none" stroke="midnightblue" d="M250.706,-209.491C259.385,-206.727 268.633,-203.499 277,-200 293.691,-193.019 296.055,-187.34 313,-181 319.79,-178.46 327.03,-176.185 334.284,-174.17"/>
<polygon fill="midnightblue" stroke="midnightblue" points="335.359,-177.507 344.142,-171.582 333.581,-170.736 335.359,-177.507"/>
</g>
<!-- Node18&#45;&gt;Node19 -->
<g id="edge3" class="edge"><title>Node18&#45;&gt;Node19</title>
<path fill="none" stroke="midnightblue" d="M615.873,-304.437C626.319,-300.765 637.511,-295.982 647,-290 687.492,-264.47 725.121,-222.045 744.442,-198.356"/>
<polygon fill="midnightblue" stroke="midnightblue" points="747.182,-200.534 750.704,-190.542 741.719,-196.157 747.182,-200.534"/>
</g>
<!-- Node20 -->
<g id="node5" class="node"><title>Node20</title>
<g id="a_node5"><a xlink:href="classEigen_1_1RunQueue.html#afd6573d43cd90181d21cedb9c1721672" target="_top" xlink:title="Eigen::RunQueue::RunQueue">
<polygon fill="none" stroke="black" points="683,-304.5 683,-323.5 835,-323.5 835,-304.5 683,-304.5"/>
<text text-anchor="middle" x="759" y="-311.5" font-family="Helvetica,sans-Serif" font-size="10.00">Eigen::RunQueue::RunQueue</text>
</a>
</g>
</g>
<!-- Node18&#45;&gt;Node20 -->
<g id="edge4" class="edge"><title>Node18&#45;&gt;Node20</title>
<path fill="none" stroke="midnightblue" d="M647.16,-314C655.558,-314 664.244,-314 672.887,-314"/>
<polygon fill="midnightblue" stroke="midnightblue" points="672.993,-317.5 682.993,-314 672.993,-310.5 672.993,-317.5"/>
</g>
<!-- Node21&#45;&gt;Node18 -->
<g id="edge6" class="edge"><title>Node21&#45;&gt;Node18</title>
<path fill="none" stroke="midnightblue" d="M442.179,-285.589C466.763,-290.694 497.186,-297.011 523.097,-302.392"/>
<polygon fill="midnightblue" stroke="midnightblue" points="522.651,-305.874 533.153,-304.48 524.074,-299.02 522.651,-305.874"/>
</g>
<!-- Node22 -->
<g id="node7" class="node"><title>Node22</title>
<g id="a_node7"><a xlink:href="Cwise__array__power__array_8cpp.html#aa9e3025f5efca2c2a39d785652f2d710" target="_top" xlink:title="e">
<polygon fill="none" stroke="black" points="565.5,-228.5 565.5,-247.5 594.5,-247.5 594.5,-228.5 565.5,-228.5"/>
<text text-anchor="middle" x="580" y="-235.5" font-family="Helvetica,sans-Serif" font-size="10.00">e</text>
</a>
</g>
</g>
<!-- Node21&#45;&gt;Node22 -->
<g id="edge7" class="edge"><title>Node21&#45;&gt;Node22</title>
<path fill="none" stroke="midnightblue" d="M442.179,-266.411C478.232,-258.925 526.844,-248.83 555.366,-242.908"/>
<polygon fill="midnightblue" stroke="midnightblue" points="556.166,-246.316 565.245,-240.856 554.742,-239.462 556.166,-246.316"/>
</g>
<!-- Node23&#45;&gt;Node18 -->
<g id="edge9" class="edge"><title>Node23&#45;&gt;Node18</title>
<path fill="none" stroke="midnightblue" d="M477.066,-314C485.562,-314 494.179,-314 502.62,-314"/>
<polygon fill="midnightblue" stroke="midnightblue" points="502.809,-317.5 512.809,-314 502.809,-310.5 502.809,-317.5"/>
</g>
<!-- Node23&#45;&gt;Node19 -->
<g id="edge10" class="edge"><title>Node23&#45;&gt;Node19</title>
<path fill="none" stroke="midnightblue" d="M448.51,-304.482C511.171,-292.707 611.886,-272.339 647,-257 682.364,-241.552 718.32,-214.384 739.37,-197.061"/>
<polygon fill="midnightblue" stroke="midnightblue" points="741.763,-199.622 747.182,-190.518 737.269,-194.256 741.763,-199.622"/>
</g>
<!-- Node23&#45;&gt;Node22 -->
<g id="edge11" class="edge"><title>Node23&#45;&gt;Node22</title>
<path fill="none" stroke="midnightblue" d="M453.546,-304.38C461.668,-301.923 469.721,-298.847 477,-295 496.19,-284.858 494.443,-273.259 513,-262 526.242,-253.965 542.595,-247.995 555.71,-244.018"/>
<polygon fill="midnightblue" stroke="midnightblue" points="556.753,-247.36 565.412,-241.255 554.836,-240.628 556.753,-247.36"/>
</g>
<!-- Node24&#45;&gt;Node22 -->
<g id="edge13" class="edge"><title>Node24&#45;&gt;Node22</title>
<path fill="none" stroke="midnightblue" d="M468.064,-238C499.038,-238 533.127,-238 555.232,-238"/>
<polygon fill="midnightblue" stroke="midnightblue" points="555.337,-241.5 565.337,-238 555.337,-234.5 555.337,-241.5"/>
</g>
<!-- Node25&#45;&gt;Node22 -->
<g id="edge15" class="edge"><title>Node25&#45;&gt;Node22</title>
<path fill="none" stroke="midnightblue" d="M442.179,-209.589C478.232,-217.075 526.844,-227.17 555.366,-233.092"/>
<polygon fill="midnightblue" stroke="midnightblue" points="554.742,-236.538 565.245,-235.144 556.166,-229.684 554.742,-236.538"/>
</g>
<!-- Node26&#45;&gt;Node22 -->
<g id="edge17" class="edge"><title>Node26&#45;&gt;Node22</title>
<path fill="none" stroke="midnightblue" d="M446.355,-171.508C456.655,-174.091 467.304,-177.239 477,-181 506.03,-192.26 536.917,-210.508 556.998,-223.317"/>
<polygon fill="midnightblue" stroke="midnightblue" points="555.123,-226.273 565.418,-228.775 558.931,-220.399 555.123,-226.273"/>
</g>
<!-- Node27&#45;&gt;Node18 -->
<g id="edge25" class="edge"><title>Node27&#45;&gt;Node18</title>
<path fill="none" stroke="midnightblue" d="M233.239,-171.4C277.254,-146.764 400.651,-87.0447 477,-143 519.856,-174.408 483.786,-212.619 513,-257 523.961,-273.651 541.107,-288.253 555.175,-298.508"/>
<polygon fill="midnightblue" stroke="midnightblue" points="553.257,-301.438 563.455,-304.312 557.275,-295.706 553.257,-301.438"/>
</g>
<!-- Node27&#45;&gt;Node19 -->
<g id="edge26" class="edge"><title>Node27&#45;&gt;Node19</title>
<path fill="none" stroke="midnightblue" d="M221.816,-171.296C233.645,-148.714 266.58,-92.9731 313,-72 380.639,-41.4396 578.299,-43.9084 647,-72 691.976,-90.3905 728.557,-136.765 746.33,-162.708"/>
<polygon fill="midnightblue" stroke="midnightblue" points="743.558,-164.861 752.008,-171.253 749.388,-160.987 743.558,-164.861"/>
</g>
<!-- Node27&#45;&gt;Node23 -->
<g id="edge24" class="edge"><title>Node27&#45;&gt;Node23</title>
<path fill="none" stroke="midnightblue" d="M262.716,-190.529C267.946,-192.993 272.872,-196.096 277,-200 309.802,-231.028 279.039,-265.245 313,-295 314.765,-296.547 316.633,-297.974 318.583,-299.29"/>
<polygon fill="midnightblue" stroke="midnightblue" points="317.167,-302.51 327.596,-304.378 320.609,-296.414 317.167,-302.51"/>
</g>
<!-- Node27&#45;&gt;Node24 -->
<g id="edge23" class="edge"><title>Node27&#45;&gt;Node24</title>
<path fill="none" stroke="midnightblue" d="M250.706,-190.509C259.385,-193.273 268.633,-196.501 277,-200 293.691,-206.981 296.055,-212.66 313,-219 319.79,-221.54 327.03,-223.815 334.284,-225.83"/>
<polygon fill="midnightblue" stroke="midnightblue" points="333.581,-229.264 344.142,-228.418 335.359,-222.493 333.581,-229.264"/>
</g>
<!-- Node27&#45;&gt;Node25 -->
<g id="edge22" class="edge"><title>Node27&#45;&gt;Node25</title>
<path fill="none" stroke="midnightblue" d="M277.418,-187.486C287.846,-188.605 298.854,-189.787 309.775,-190.959"/>
<polygon fill="midnightblue" stroke="midnightblue" points="309.445,-194.443 319.761,-192.031 310.192,-187.483 309.445,-194.443"/>
</g>
<!-- Node27&#45;&gt;Node26 -->
<g id="edge20" class="edge"><title>Node27&#45;&gt;Node26</title>
<path fill="none" stroke="midnightblue" d="M277.418,-174.514C287.664,-173.415 298.47,-172.255 309.203,-171.103"/>
<polygon fill="midnightblue" stroke="midnightblue" points="309.881,-174.55 319.45,-170.003 309.134,-167.59 309.881,-174.55"/>
</g>
<!-- Node28 -->
<g id="node13" class="node"><title>Node28</title>
<g id="a_node13"><a xlink:href="cxx11__runqueue_8cpp.html#a266e47be17e15851db3c3598ca94d7a8" target="_top" xlink:title="rand_reentrant">
<polygon fill="none" stroke="black" points="350.5,-0.5 350.5,-19.5 439.5,-19.5 439.5,-0.5 350.5,-0.5"/>
<text text-anchor="middle" x="395" y="-7.5" font-family="Helvetica,sans-Serif" font-size="10.00">rand_reentrant</text>
</a>
</g>
</g>
<!-- Node27&#45;&gt;Node28 -->
<g id="edge21" class="edge"><title>Node27&#45;&gt;Node28</title>
<path fill="none" stroke="midnightblue" d="M220.497,-171.428C230.557,-145.245 262.153,-71.8708 313,-34 321.116,-27.955 330.742,-23.4251 340.473,-20.0327"/>
<polygon fill="midnightblue" stroke="midnightblue" points="341.682,-23.3221 350.188,-17.0055 339.6,-16.639 341.682,-23.3221"/>
</g>
<!-- Node29&#45;&gt;Node18 -->
<g id="edge35" class="edge"><title>Node29&#45;&gt;Node18</title>
<path fill="none" stroke="midnightblue" d="M221.816,-266.704C233.645,-289.286 266.58,-345.027 313,-366 379.424,-396.011 406.127,-383.023 477,-366 506.365,-358.947 536.803,-341.949 556.696,-329.295"/>
<polygon fill="midnightblue" stroke="midnightblue" points="558.852,-332.067 565.308,-323.667 555.023,-326.208 558.852,-332.067"/>
</g>
<!-- Node29&#45;&gt;Node23 -->
<g id="edge34" class="edge"><title>Node29&#45;&gt;Node23</title>
<path fill="none" stroke="midnightblue" d="M238.407,-266.522C257.651,-274.828 286.83,-286.8 313,-295 321.025,-297.514 329.588,-299.868 338.031,-302.004"/>
<polygon fill="midnightblue" stroke="midnightblue" points="337.302,-305.428 347.847,-304.407 338.967,-298.629 337.302,-305.428"/>
</g>
<!-- Node29&#45;&gt;Node24 -->
<g id="edge32" class="edge"><title>Node29&#45;&gt;Node24</title>
<path fill="none" stroke="midnightblue" d="M276.924,-250.567C288.094,-249.368 299.944,-248.096 311.65,-246.84"/>
<polygon fill="midnightblue" stroke="midnightblue" points="312.31,-250.289 321.88,-245.742 311.563,-243.329 312.31,-250.289"/>
</g>
<!-- Node29&#45;&gt;Node25 -->
<g id="edge33" class="edge"><title>Node29&#45;&gt;Node25</title>
<path fill="none" stroke="midnightblue" d="M250.706,-247.491C259.385,-244.727 268.633,-241.499 277,-238 293.691,-231.019 296.055,-225.34 313,-219 319.79,-216.46 327.03,-214.185 334.284,-212.17"/>
<polygon fill="midnightblue" stroke="midnightblue" points="335.359,-215.507 344.142,-209.582 333.581,-208.736 335.359,-215.507"/>
</g>
<!-- Node29&#45;&gt;Node26 -->
<g id="edge31" class="edge"><title>Node29&#45;&gt;Node26</title>
<path fill="none" stroke="midnightblue" d="M260.151,-247.431C266.158,-244.963 271.982,-241.871 277,-238 300.724,-219.698 288.595,-198.384 313,-181 315.706,-179.073 318.579,-177.338 321.569,-175.777"/>
<polygon fill="midnightblue" stroke="midnightblue" points="323.155,-178.901 330.831,-171.598 320.276,-172.521 323.155,-178.901"/>
</g>
<!-- Node30 -->
<g id="node15" class="node"><title>Node30</title>
<g id="a_node15"><a xlink:href="namespacempfr.html#ae94ad8b45bc3c448549d7c094e7f24fd" target="_top" xlink:title="mpfr::sum">
<polygon fill="none" stroke="black" points="362,-418.5 362,-437.5 428,-437.5 428,-418.5 362,-418.5"/>
<text text-anchor="middle" x="395" y="-425.5" font-family="Helvetica,sans-Serif" font-size="10.00">mpfr::sum</text>
</a>
</g>
</g>
<!-- Node29&#45;&gt;Node30 -->
<g id="edge28" class="edge"><title>Node29&#45;&gt;Node30</title>
<path fill="none" stroke="midnightblue" d="M220.497,-266.572C230.557,-292.755 262.153,-366.129 313,-404 324.248,-412.378 338.395,-417.845 351.705,-421.408"/>
<polygon fill="midnightblue" stroke="midnightblue" points="351.12,-424.866 361.659,-423.778 352.742,-418.057 351.12,-424.866"/>
</g>
<!-- Node31 -->
<g id="node16" class="node"><title>Node31</title>
<g id="a_node16"><a xlink:href="classmpfr_1_1mpreal.html#a566f64ca066c54923d19c11d6c3d15cd" target="_top" xlink:title="mpfr::mpreal::mpfr\l_srcptr">
<polygon fill="none" stroke="black" points="526.5,-435 526.5,-465 633.5,-465 633.5,-435 526.5,-435"/>
<text text-anchor="start" x="534.5" y="-453" font-family="Helvetica,sans-Serif" font-size="10.00">mpfr::mpreal::mpfr</text>
<text text-anchor="middle" x="580" y="-442" font-family="Helvetica,sans-Serif" font-size="10.00">_srcptr</text>
</a>
</g>
</g>
<!-- Node30&#45;&gt;Node31 -->
<g id="edge29" class="edge"><title>Node30&#45;&gt;Node31</title>
<path fill="none" stroke="midnightblue" d="M428.295,-431.883C452.527,-434.796 486.467,-438.876 516.004,-442.427"/>
<polygon fill="midnightblue" stroke="midnightblue" points="515.899,-445.939 526.245,-443.658 516.735,-438.989 515.899,-445.939"/>
</g>
<!-- Node32 -->
<g id="node17" class="node"><title>Node32</title>
<g id="a_node17"><a xlink:href="classmpfr_1_1mpreal.html#af4e3b56888463376c675cac70b6ceca3" target="_top" xlink:title="mpfr::mpreal::mpfr_ptr">
<polygon fill="none" stroke="black" points="517,-396.5 517,-415.5 643,-415.5 643,-396.5 517,-396.5"/>
<text text-anchor="middle" x="580" y="-403.5" font-family="Helvetica,sans-Serif" font-size="10.00">mpfr::mpreal::mpfr_ptr</text>
</a>
</g>
</g>
<!-- Node30&#45;&gt;Node32 -->
<g id="edge30" class="edge"><title>Node30&#45;&gt;Node32</title>
<path fill="none" stroke="midnightblue" d="M428.295,-424.117C449.95,-421.514 479.357,-417.979 506.447,-414.722"/>
<polygon fill="midnightblue" stroke="midnightblue" points="507.185,-418.159 516.695,-413.49 506.349,-411.209 507.185,-418.159"/>
</g>
</g>
</svg>
        <g id="navigator" transform="translate(0 0)" fill="#404254">
                <rect fill="#f2f5e9" fill-opacity="0.5" stroke="#606060" stroke-width=".5" x="0" y="0" width="60" height="60"/>
                <use id="zoomplus" xlink:href="#zoomPlus" x="17" y="9" onmousedown="handleZoom(evt,'in')"/>
                <use id="zoomminus" xlink:href="#zoomMin" x="42" y="9" onmousedown="handleZoom(evt,'out')"/>
                <use id="reset" xlink:href="#resetDef" x="30" y="36" onmousedown="handleReset()"/>
                <g id="arrowUp" xlink:href="#dirArrow" transform="translate(30 24)" onmousedown="handlePan(0,-1)">
                  <use xlink:href="#rim" fill="#404040">
                        <set attributeName="fill" to="#808080" begin="arrowUp.mouseover" end="arrowUp.mouseout"/>
                  </use>
                  <path fill="none" stroke="white" stroke-width="1.5" d="M0,-3.0v7 M-2.5,-0.5L0,-3.0L2.5,-0.5"/>
                </g>
                <g id="arrowRight" xlink:href="#dirArrow" transform="rotate(90) translate(36 -43)" onmousedown="handlePan(1,0)">
                  <use xlink:href="#rim" fill="#404040">
                        <set attributeName="fill" to="#808080" begin="arrowRight.mouseover" end="arrowRight.mouseout"/>
                  </use>
                  <path fill="none" stroke="white" stroke-width="1.5" d="M0,-3.0v7 M-2.5,-0.5L0,-3.0L2.5,-0.5"/>
                </g>
                <g id="arrowDown" xlink:href="#dirArrow" transform="rotate(180) translate(-30 -48)" onmousedown="handlePan(0,1)">
                  <use xlink:href="#rim" fill="#404040">
                        <set attributeName="fill" to="#808080" begin="arrowDown.mouseover" end="arrowDown.mouseout"/>
                  </use>
                  <path fill="none" stroke="white" stroke-width="1.5" d="M0,-3.0v7 M-2.5,-0.5L0,-3.0L2.5,-0.5"/>
                </g>
                <g id="arrowLeft" xlink:href="#dirArrow" transform="rotate(270) translate(-36 17)" onmousedown="handlePan(-1,0)">
                  <use xlink:href="#rim" fill="#404040">
                        <set attributeName="fill" to="#808080" begin="arrowLeft.mouseover" end="arrowLeft.mouseout"/>
                  </use>
                  <path fill="none" stroke="white" stroke-width="1.5" d="M0,-3.0v7 M-2.5,-0.5L0,-3.0L2.5,-0.5"/>
                </g>
        </g>
        <svg viewBox="0 0 15 15" width="100%" height="30px" preserveAspectRatio="xMaxYMin meet">
         <g id="arrow_out" transform="scale(0.3 0.3)">
          <a xlink:href="cxx11__runqueue_8cpp_ae4a3dab3ca550ad05f208087f02bd7bb_cgraph_org.svg" target="_base">
           <rect id="button" ry="5" rx="5" y="6" x="6" height="38" width="38"
                fill="#f2f5e9" fill-opacity="0.5" stroke="#606060" stroke-width="1.0"/>
           <path id="arrow"
             d="M 11.500037,31.436501 C 11.940474,20.09759 22.043105,11.32322 32.158766,21.979434 L 37.068811,17.246167 C 37.068811,17.246167 37.088388,32 37.088388,32 L 22.160133,31.978069 C 22.160133,31.978069 26.997745,27.140456 26.997745,27.140456 C 18.528582,18.264221 13.291696,25.230495 11.500037,31.436501 z"
             style="fill:#404040;"/>
          </a>
         </g>
        </svg>
</svg>
