<?xml version="1.0" encoding="UTF-8" standalone="no"?>
<!DOCTYPE svg PUBLIC "-//W3C//DTD SVG 1.1//EN"
 "http://www.w3.org/Graphics/SVG/1.1/DTD/svg11.dtd">
<!-- Generated by graphviz version 2.38.0 (20140413.2041)
 -->
<!-- Title: test_basic_runqueue Pages: 1 -->
<svg width="682pt" height="257pt"
 viewBox="0.00 0.00 682.00 256.80" xmlns="http://www.w3.org/2000/svg" xmlns:xlink="http://www.w3.org/1999/xlink">
<g id="graph0" class="graph" transform="scale(1 1) rotate(0) translate(4 252.802)">
<title>test_basic_runqueue</title>
<!-- Node4 -->
<g id="node1" class="node"><title>Node4</title>
<polygon fill="#bfbfbf" stroke="black" points="0,-114.5 0,-133.5 116,-133.5 116,-114.5 0,-114.5"/>
<text text-anchor="middle" x="58" y="-121.5" font-family="Helvetica,sans-Serif" font-size="10.00">test_basic_runqueue</text>
</g>
<!-- Node5 -->
<g id="node2" class="node"><title>Node5</title>
<g id="a_node2"><a xlink:href="classEigen_1_1RunQueue.html#aa7abe7eea034f24a03843b90109636dc" target="_top" xlink:title="Eigen::RunQueue::Empty">
<polygon fill="none" stroke="black" points="352,-152.5 352,-171.5 486,-171.5 486,-152.5 352,-152.5"/>
<text text-anchor="middle" x="419" y="-159.5" font-family="Helvetica,sans-Serif" font-size="10.00">Eigen::RunQueue::Empty</text>
</a>
</g>
</g>
<!-- Node4&#45;&gt;Node5 -->
<g id="edge1" class="edge"><title>Node4&#45;&gt;Node5</title>
<path fill="none" stroke="midnightblue" d="M100.006,-133.577C116.132,-137.028 134.857,-140.647 152,-143 215.667,-151.74 288.493,-156.588 341.829,-159.195"/>
<polygon fill="midnightblue" stroke="midnightblue" points="341.736,-162.694 351.891,-159.671 342.067,-155.702 341.736,-162.694"/>
</g>
<!-- Node6 -->
<g id="node3" class="node"><title>Node6</title>
<g id="a_node3"><a xlink:href="classEigen_1_1RunQueue.html#aa193d3baea623281da1886603799dd87" target="_top" xlink:title="Eigen::RunQueue::Size">
<polygon fill="none" stroke="black" points="536,-190.5 536,-209.5 660,-209.5 660,-190.5 536,-190.5"/>
<text text-anchor="middle" x="598" y="-197.5" font-family="Helvetica,sans-Serif" font-size="10.00">Eigen::RunQueue::Size</text>
</a>
</g>
</g>
<!-- Node4&#45;&gt;Node6 -->
<g id="edge17" class="edge"><title>Node4&#45;&gt;Node6</title>
<path fill="none" stroke="midnightblue" d="M64.6709,-133.692C77.278,-154.144 109.873,-201.287 152,-219 291.623,-277.706 478.099,-235.454 557.993,-212.368"/>
<polygon fill="midnightblue" stroke="midnightblue" points="559.046,-215.706 567.647,-209.52 557.066,-208.992 559.046,-215.706"/>
</g>
<!-- Node8 -->
<g id="node5" class="node"><title>Node8</title>
<g id="a_node5"><a xlink:href="classEigen_1_1RunQueue.html#a5f0a65d40022baef3d77abb8226f35b0" target="_top" xlink:title="Eigen::RunQueue::PopBack">
<polygon fill="none" stroke="black" points="161.5,-114.5 161.5,-133.5 306.5,-133.5 306.5,-114.5 161.5,-114.5"/>
<text text-anchor="middle" x="234" y="-121.5" font-family="Helvetica,sans-Serif" font-size="10.00">Eigen::RunQueue::PopBack</text>
</a>
</g>
</g>
<!-- Node4&#45;&gt;Node8 -->
<g id="edge4" class="edge"><title>Node4&#45;&gt;Node8</title>
<path fill="none" stroke="midnightblue" d="M116.456,-124C127.558,-124 139.388,-124 151.094,-124"/>
<polygon fill="midnightblue" stroke="midnightblue" points="151.328,-127.5 161.328,-124 151.328,-120.5 151.328,-127.5"/>
</g>
<!-- Node10 -->
<g id="node7" class="node"><title>Node10</title>
<g id="a_node7"><a xlink:href="classEigen_1_1RunQueue.html#a583d558af80e41729d7808ed5dfa25d9" target="_top" xlink:title="Eigen::RunQueue::PopBackHalf">
<polygon fill="none" stroke="black" points="152,-190.5 152,-209.5 316,-209.5 316,-190.5 152,-190.5"/>
<text text-anchor="middle" x="234" y="-197.5" font-family="Helvetica,sans-Serif" font-size="10.00">Eigen::RunQueue::PopBackHalf</text>
</a>
</g>
</g>
<!-- Node4&#45;&gt;Node10 -->
<g id="edge7" class="edge"><title>Node4&#45;&gt;Node10</title>
<path fill="none" stroke="midnightblue" d="M73.6239,-133.527C91.5196,-144.862 123.022,-163.784 152,-176 162.347,-180.362 173.751,-184.262 184.652,-187.585"/>
<polygon fill="midnightblue" stroke="midnightblue" points="183.898,-191.011 194.479,-190.472 185.871,-184.295 183.898,-191.011"/>
</g>
<!-- Node11 -->
<g id="node8" class="node"><title>Node11</title>
<g id="a_node8"><a xlink:href="classEigen_1_1RunQueue.html#a70485d807cb89b34d882471f069eeeea" target="_top" xlink:title="Eigen::RunQueue::PopFront">
<polygon fill="none" stroke="black" points="161,-76.5 161,-95.5 307,-95.5 307,-76.5 161,-76.5"/>
<text text-anchor="middle" x="234" y="-83.5" font-family="Helvetica,sans-Serif" font-size="10.00">Eigen::RunQueue::PopFront</text>
</a>
</g>
</g>
<!-- Node4&#45;&gt;Node11 -->
<g id="edge11" class="edge"><title>Node4&#45;&gt;Node11</title>
<path fill="none" stroke="midnightblue" d="M102.908,-114.411C126.179,-109.329 154.954,-103.045 179.519,-97.6797"/>
<polygon fill="midnightblue" stroke="midnightblue" points="180.385,-101.073 189.408,-95.5201 178.892,-94.2343 180.385,-101.073"/>
</g>
<!-- Node12 -->
<g id="node9" class="node"><title>Node12</title>
<g id="a_node9"><a xlink:href="classEigen_1_1RunQueue.html#a205fedbfce51498cde3069171ff4790d" target="_top" xlink:title="Eigen::RunQueue::PushBack">
<polygon fill="none" stroke="black" points="159,-38.5 159,-57.5 309,-57.5 309,-38.5 159,-38.5"/>
<text text-anchor="middle" x="234" y="-45.5" font-family="Helvetica,sans-Serif" font-size="10.00">Eigen::RunQueue::PushBack</text>
</a>
</g>
</g>
<!-- Node4&#45;&gt;Node12 -->
<g id="edge13" class="edge"><title>Node4&#45;&gt;Node12</title>
<path fill="none" stroke="midnightblue" d="M71.5391,-114.493C88.7773,-101.864 121.175,-79.6754 152,-67 158.193,-64.4534 164.799,-62.206 171.466,-60.233"/>
<polygon fill="midnightblue" stroke="midnightblue" points="172.528,-63.5708 181.236,-57.5358 170.665,-56.8233 172.528,-63.5708"/>
</g>
<!-- Node13 -->
<g id="node10" class="node"><title>Node13</title>
<g id="a_node10"><a xlink:href="classEigen_1_1RunQueue.html#aa176e6edcabac0e168f579a968eeb49f" target="_top" xlink:title="Eigen::RunQueue::PushFront">
<polygon fill="none" stroke="black" points="158.5,-0.5 158.5,-19.5 309.5,-19.5 309.5,-0.5 158.5,-0.5"/>
<text text-anchor="middle" x="234" y="-7.5" font-family="Helvetica,sans-Serif" font-size="10.00">Eigen::RunQueue::PushFront</text>
</a>
</g>
</g>
<!-- Node4&#45;&gt;Node13 -->
<g id="edge15" class="edge"><title>Node4&#45;&gt;Node13</title>
<path fill="none" stroke="midnightblue" d="M65.4367,-114.451C79.0118,-95.0987 112.59,-51.211 152,-29 156.001,-26.745 160.258,-24.7571 164.645,-23.0046"/>
<polygon fill="midnightblue" stroke="midnightblue" points="166.16,-26.1806 174.409,-19.5322 163.815,-19.5853 166.16,-26.1806"/>
</g>
<!-- Node5&#45;&gt;Node6 -->
<g id="edge2" class="edge"><title>Node5&#45;&gt;Node6</title>
<path fill="none" stroke="midnightblue" d="M464.665,-171.589C488.337,-176.671 517.608,-182.955 542.597,-188.32"/>
<polygon fill="midnightblue" stroke="midnightblue" points="542.145,-191.803 552.657,-190.48 543.614,-184.959 542.145,-191.803"/>
</g>
<!-- Node7 -->
<g id="node4" class="node"><title>Node7</title>
<g id="a_node4"><a xlink:href="classEigen_1_1RunQueue.html#afd6573d43cd90181d21cedb9c1721672" target="_top" xlink:title="Eigen::RunQueue::RunQueue">
<polygon fill="none" stroke="black" points="522,-152.5 522,-171.5 674,-171.5 674,-152.5 522,-152.5"/>
<text text-anchor="middle" x="598" y="-159.5" font-family="Helvetica,sans-Serif" font-size="10.00">Eigen::RunQueue::RunQueue</text>
</a>
</g>
</g>
<!-- Node5&#45;&gt;Node7 -->
<g id="edge3" class="edge"><title>Node5&#45;&gt;Node7</title>
<path fill="none" stroke="midnightblue" d="M486.16,-162C494.558,-162 503.244,-162 511.887,-162"/>
<polygon fill="midnightblue" stroke="midnightblue" points="511.993,-165.5 521.993,-162 511.993,-158.5 511.993,-165.5"/>
</g>
<!-- Node8&#45;&gt;Node5 -->
<g id="edge5" class="edge"><title>Node8&#45;&gt;Node5</title>
<path fill="none" stroke="midnightblue" d="M281.179,-133.589C305.763,-138.694 336.186,-145.011 362.097,-150.392"/>
<polygon fill="midnightblue" stroke="midnightblue" points="361.651,-153.874 372.153,-152.48 363.074,-147.02 361.651,-153.874"/>
</g>
<!-- Node9 -->
<g id="node6" class="node"><title>Node9</title>
<g id="a_node6"><a xlink:href="Cwise__array__power__array_8cpp.html#aa9e3025f5efca2c2a39d785652f2d710" target="_top" xlink:title="e">
<polygon fill="none" stroke="black" points="404.5,-76.5 404.5,-95.5 433.5,-95.5 433.5,-76.5 404.5,-76.5"/>
<text text-anchor="middle" x="419" y="-83.5" font-family="Helvetica,sans-Serif" font-size="10.00">e</text>
</a>
</g>
</g>
<!-- Node8&#45;&gt;Node9 -->
<g id="edge6" class="edge"><title>Node8&#45;&gt;Node9</title>
<path fill="none" stroke="midnightblue" d="M281.179,-114.411C317.232,-106.925 365.844,-96.8301 394.366,-90.9076"/>
<polygon fill="midnightblue" stroke="midnightblue" points="395.166,-94.3163 404.245,-88.8562 393.742,-87.4625 395.166,-94.3163"/>
</g>
<!-- Node10&#45;&gt;Node5 -->
<g id="edge8" class="edge"><title>Node10&#45;&gt;Node5</title>
<path fill="none" stroke="midnightblue" d="M281.179,-190.411C305.763,-185.306 336.186,-178.989 362.097,-173.608"/>
<polygon fill="midnightblue" stroke="midnightblue" points="363.074,-176.98 372.153,-171.52 361.651,-170.126 363.074,-176.98"/>
</g>
<!-- Node10&#45;&gt;Node6 -->
<g id="edge9" class="edge"><title>Node10&#45;&gt;Node6</title>
<path fill="none" stroke="midnightblue" d="M316.24,-200C379.101,-200 465.308,-200 525.555,-200"/>
<polygon fill="midnightblue" stroke="midnightblue" points="525.74,-203.5 535.74,-200 525.74,-196.5 525.74,-203.5"/>
</g>
<!-- Node10&#45;&gt;Node9 -->
<g id="edge10" class="edge"><title>Node10&#45;&gt;Node9</title>
<path fill="none" stroke="midnightblue" d="M250.288,-190.477C282.598,-170.349 357.945,-123.411 395.661,-99.916"/>
<polygon fill="midnightblue" stroke="midnightblue" points="397.753,-102.737 404.39,-94.4783 394.052,-96.7951 397.753,-102.737"/>
</g>
<!-- Node11&#45;&gt;Node9 -->
<g id="edge12" class="edge"><title>Node11&#45;&gt;Node9</title>
<path fill="none" stroke="midnightblue" d="M307.064,-86C338.038,-86 372.127,-86 394.232,-86"/>
<polygon fill="midnightblue" stroke="midnightblue" points="394.337,-89.5001 404.337,-86 394.337,-82.5001 394.337,-89.5001"/>
</g>
<!-- Node12&#45;&gt;Node9 -->
<g id="edge14" class="edge"><title>Node12&#45;&gt;Node9</title>
<path fill="none" stroke="midnightblue" d="M281.179,-57.589C317.232,-65.0755 365.844,-75.1699 394.366,-81.0924"/>
<polygon fill="midnightblue" stroke="midnightblue" points="393.742,-84.5375 404.245,-83.1438 395.166,-77.6837 393.742,-84.5375"/>
</g>
<!-- Node13&#45;&gt;Node9 -->
<g id="edge16" class="edge"><title>Node13&#45;&gt;Node9</title>
<path fill="none" stroke="midnightblue" d="M285.355,-19.5082C295.655,-22.0911 306.304,-25.2393 316,-29 345.03,-40.2596 375.917,-58.5083 395.998,-71.3174"/>
<polygon fill="midnightblue" stroke="midnightblue" points="394.123,-74.2732 404.418,-76.7752 397.931,-68.3991 394.123,-74.2732"/>
</g>
</g>
</svg>
