<?xml version="1.0" encoding="UTF-8" standalone="no"?>
<!DOCTYPE svg PUBLIC "-//W3C//DTD SVG 1.1//EN"
 "http://www.w3.org/Graphics/SVG/1.1/DTD/svg11.dtd">
<!-- Generated by graphviz version 2.38.0 (20140413.2041)
 -->
<!-- Title: test_patch_padding_valid Pages: 1 -->
<svg width="314pt" height="176pt"
 viewBox="0.00 0.00 314.00 175.50" xmlns="http://www.w3.org/2000/svg" xmlns:xlink="http://www.w3.org/1999/xlink">
<g id="graph0" class="graph" transform="scale(1 1) rotate(0) translate(4 171.5)">
<title>test_patch_padding_valid</title>
<!-- Node39 -->
<g id="node1" class="node"><title>Node39</title>
<polygon fill="#bfbfbf" stroke="black" points="0,-85.5 0,-115.5 111,-115.5 111,-85.5 0,-85.5"/>
<text text-anchor="start" x="8" y="-103.5" font-family="Helvetica,sans-Serif" font-size="10.00">test_patch_padding</text>
<text text-anchor="middle" x="55.5" y="-92.5" font-family="Helvetica,sans-Serif" font-size="10.00">_valid</text>
</g>
<!-- Node40 -->
<g id="node2" class="node"><title>Node40</title>
<g id="a_node2"><a xlink:href="classEigen_1_1Tensor.html#ae09663818399750cf150181aaed47b99" target="_top" xlink:title="Eigen::Tensor::data">
<polygon fill="none" stroke="black" points="173,-148 173,-167 280,-167 280,-148 173,-148"/>
<text text-anchor="middle" x="226.5" y="-155" font-family="Helvetica,sans-Serif" font-size="10.00">Eigen::Tensor::data</text>
</a>
</g>
</g>
<!-- Node39&#45;&gt;Node40 -->
<g id="edge1" class="edge"><title>Node39&#45;&gt;Node40</title>
<path fill="none" stroke="midnightblue" d="M88.6952,-115.5C105.77,-123.075 127.249,-132.01 147,-138.5 154.671,-141.021 162.863,-143.369 170.954,-145.495"/>
<polygon fill="midnightblue" stroke="midnightblue" points="170.177,-148.908 180.73,-147.974 171.897,-142.123 170.177,-148.908"/>
</g>
<!-- Node41 -->
<g id="node3" class="node"><title>Node41</title>
<g id="a_node3"><a xlink:href="classEigen_1_1Tensor.html#ac0a1bb6142d4e5c4d15ba25beccb26a5" target="_top" xlink:title="Eigen::Tensor::dimension">
<polygon fill="none" stroke="black" points="159,-110 159,-129 294,-129 294,-110 159,-110"/>
<text text-anchor="middle" x="226.5" y="-117" font-family="Helvetica,sans-Serif" font-size="10.00">Eigen::Tensor::dimension</text>
</a>
</g>
</g>
<!-- Node39&#45;&gt;Node41 -->
<g id="edge2" class="edge"><title>Node39&#45;&gt;Node41</title>
<path fill="none" stroke="midnightblue" d="M111.369,-106.669C123.309,-108.011 136.153,-109.455 148.764,-110.873"/>
<polygon fill="midnightblue" stroke="midnightblue" points="148.478,-114.363 158.806,-112.002 149.26,-107.406 148.478,-114.363"/>
</g>
<!-- Node42 -->
<g id="node4" class="node"><title>Node42</title>
<g id="a_node4"><a xlink:href="classEigen_1_1Tensor.html#a890988b2e1dd992d9b905e0a6a488587" target="_top" xlink:title="Eigen::Tensor::size">
<polygon fill="none" stroke="black" points="174.5,-72 174.5,-91 278.5,-91 278.5,-72 174.5,-72"/>
<text text-anchor="middle" x="226.5" y="-79" font-family="Helvetica,sans-Serif" font-size="10.00">Eigen::Tensor::size</text>
</a>
</g>
</g>
<!-- Node39&#45;&gt;Node42 -->
<g id="edge3" class="edge"><title>Node39&#45;&gt;Node42</title>
<path fill="none" stroke="midnightblue" d="M111.369,-94.3312C128.289,-92.4291 147.023,-90.3229 164.338,-88.3762"/>
<polygon fill="midnightblue" stroke="midnightblue" points="164.798,-91.8466 174.345,-87.2512 164.016,-84.8904 164.798,-91.8466"/>
</g>
<!-- Node43 -->
<g id="node5" class="node"><title>Node43</title>
<g id="a_node5"><a xlink:href="classEigen_1_1TensorBase.html#a342b9da2268a7f7880060eac66949b08" target="_top" xlink:title="Eigen::TensorBase\&lt;\l Tensor\&lt; Scalar_, NumIndices\l_, Options_, IndexType_ \&gt;\l \&gt;::swap_layout">
<polygon fill="none" stroke="black" points="147,-0.5 147,-52.5 306,-52.5 306,-0.5 147,-0.5"/>
<text text-anchor="start" x="155" y="-40.5" font-family="Helvetica,sans-Serif" font-size="10.00">Eigen::TensorBase&lt;</text>
<text text-anchor="start" x="155" y="-29.5" font-family="Helvetica,sans-Serif" font-size="10.00"> Tensor&lt; Scalar_, NumIndices</text>
<text text-anchor="start" x="155" y="-18.5" font-family="Helvetica,sans-Serif" font-size="10.00">_, Options_, IndexType_ &gt;</text>
<text text-anchor="middle" x="226.5" y="-7.5" font-family="Helvetica,sans-Serif" font-size="10.00"> &gt;::swap_layout</text>
</a>
</g>
</g>
<!-- Node39&#45;&gt;Node43 -->
<g id="edge4" class="edge"><title>Node39&#45;&gt;Node43</title>
<path fill="none" stroke="midnightblue" d="M91.1075,-85.3464C110.035,-77.0588 134.165,-66.493 156.741,-56.6076"/>
<polygon fill="midnightblue" stroke="midnightblue" points="158.21,-59.7853 165.966,-52.5681 155.402,-53.3731 158.21,-59.7853"/>
</g>
</g>
</svg>
