<?xml version="1.0" encoding="UTF-8" standalone="no"?>
<!DOCTYPE svg PUBLIC "-//W3C//DTD SVG 1.1//EN"
 "http://www.w3.org/Graphics/SVG/1.1/DTD/svg11.dtd">
<!-- Generated by graphviz version 2.38.0 (20140413.2041)
 -->
<!-- Title: dchk4 Pages: 1 -->
<svg width="210pt" height="104pt"
 viewBox="0.00 0.00 210.00 104.00" xmlns="http://www.w3.org/2000/svg" xmlns:xlink="http://www.w3.org/1999/xlink">
<g id="graph0" class="graph" transform="scale(1 1) rotate(0) translate(4 100)">
<title>dchk4</title>
<!-- Node66 -->
<g id="node1" class="node"><title>Node66</title>
<polygon fill="#bfbfbf" stroke="black" points="0,-38.5 0,-57.5 45,-57.5 45,-38.5 0,-38.5"/>
<text text-anchor="middle" x="22.5" y="-45.5" font-family="Helvetica,sans-Serif" font-size="10.00">dchk4</text>
</g>
<!-- Node67 -->
<g id="node2" class="node"><title>Node67</title>
<g id="a_node2"><a xlink:href="bench_2btl_2libs_2BLAS_2blas_8h.html#aaff3a8cbf2ee6c216d2ab07f45d03066" target="_top" xlink:title="dger">
<polygon fill="none" stroke="black" points="87,-76.5 87,-95.5 125,-95.5 125,-76.5 87,-76.5"/>
<text text-anchor="middle" x="106" y="-83.5" font-family="Helvetica,sans-Serif" font-size="10.00">dger</text>
</a>
</g>
</g>
<!-- Node66&#45;&gt;Node67 -->
<g id="edge1" class="edge"><title>Node66&#45;&gt;Node67</title>
<path fill="none" stroke="midnightblue" d="M44.0659,-57.589C54.278,-62.3505 66.7528,-68.1669 77.749,-73.294"/>
<polygon fill="midnightblue" stroke="midnightblue" points="76.3955,-76.5246 86.9378,-77.5784 79.3536,-70.1803 76.3955,-76.5246"/>
</g>
<!-- Node68 -->
<g id="node3" class="node"><title>Node68</title>
<g id="a_node3"><a xlink:href="dblat2_8f.html#a1c65c92d411e657e5fd49db5ea7739b4" target="_top" xlink:title="dmake">
<polygon fill="none" stroke="black" points="81,-38.5 81,-57.5 131,-57.5 131,-38.5 81,-38.5"/>
<text text-anchor="middle" x="106" y="-45.5" font-family="Helvetica,sans-Serif" font-size="10.00">dmake</text>
</a>
</g>
</g>
<!-- Node66&#45;&gt;Node68 -->
<g id="edge2" class="edge"><title>Node66&#45;&gt;Node68</title>
<path fill="none" stroke="midnightblue" d="M45.3405,-48C53.1175,-48 62.0751,-48 70.6456,-48"/>
<polygon fill="midnightblue" stroke="midnightblue" points="70.8024,-51.5001 80.8024,-48 70.8024,-44.5001 70.8024,-51.5001"/>
</g>
<!-- Node69 -->
<g id="node4" class="node"><title>Node69</title>
<g id="a_node4"><a xlink:href="dblat2_8f.html#afbbc0e902d1922bc88fd3de1837756ef" target="_top" xlink:title="dmvch">
<polygon fill="none" stroke="black" points="81.5,-0.5 81.5,-19.5 130.5,-19.5 130.5,-0.5 81.5,-0.5"/>
<text text-anchor="middle" x="106" y="-7.5" font-family="Helvetica,sans-Serif" font-size="10.00">dmvch</text>
</a>
</g>
</g>
<!-- Node66&#45;&gt;Node69 -->
<g id="edge3" class="edge"><title>Node66&#45;&gt;Node69</title>
<path fill="none" stroke="midnightblue" d="M44.0659,-38.411C53.525,-34.0006 64.9254,-28.6851 75.2939,-23.8507"/>
<polygon fill="midnightblue" stroke="midnightblue" points="76.8565,-26.9839 84.4407,-19.5859 73.8984,-20.6397 76.8565,-26.9839"/>
</g>
<!-- Node70 -->
<g id="node5" class="node"><title>Node70</title>
<g id="a_node5"><a xlink:href="ArrayCwiseUnaryOps_8h.html#a656b9217a2fcb6de59dc8d1eb3079cc7" target="_top" xlink:title="sqrt">
<polygon fill="none" stroke="black" points="167,-0.5 167,-19.5 202,-19.5 202,-0.5 167,-0.5"/>
<text text-anchor="middle" x="184.5" y="-7.5" font-family="Helvetica,sans-Serif" font-size="10.00">sqrt</text>
</a>
</g>
</g>
<!-- Node69&#45;&gt;Node70 -->
<g id="edge4" class="edge"><title>Node69&#45;&gt;Node70</title>
<path fill="none" stroke="midnightblue" d="M130.786,-10C138.927,-10 148.094,-10 156.473,-10"/>
<polygon fill="midnightblue" stroke="midnightblue" points="156.528,-13.5001 166.528,-10 156.528,-6.5001 156.528,-13.5001"/>
</g>
</g>
</svg>
