<?xml version="1.0" encoding="UTF-8" standalone="no"?>
<!DOCTYPE svg PUBLIC "-//W3C//DTD SVG 1.1//EN"
 "http://www.w3.org/Graphics/SVG/1.1/DTD/svg11.dtd">
<!-- Generated by graphviz version 2.38.0 (20140413.2041)
 -->
<!-- Title: dchk1 Pages: 1 -->
<svg width="210pt" height="142pt"
 viewBox="0.00 0.00 210.00 142.00" xmlns="http://www.w3.org/2000/svg" xmlns:xlink="http://www.w3.org/1999/xlink">
<g id="graph0" class="graph" transform="scale(1 1) rotate(0) translate(4 138)">
<title>dchk1</title>
<!-- Node34 -->
<g id="node1" class="node"><title>Node34</title>
<polygon fill="#bfbfbf" stroke="black" points="0,-57.5 0,-76.5 45,-76.5 45,-57.5 0,-57.5"/>
<text text-anchor="middle" x="22.5" y="-64.5" font-family="Helvetica,sans-Serif" font-size="10.00">dchk1</text>
</g>
<!-- Node35 -->
<g id="node2" class="node"><title>Node35</title>
<g id="a_node2"><a xlink:href="bench_2btl_2libs_2BLAS_2blas_8h.html#a3ee846dfd7565eb8e66890dde27a4583" target="_top" xlink:title="dgbmv">
<polygon fill="none" stroke="black" points="81,-114.5 81,-133.5 131,-133.5 131,-114.5 81,-114.5"/>
<text text-anchor="middle" x="106" y="-121.5" font-family="Helvetica,sans-Serif" font-size="10.00">dgbmv</text>
</a>
</g>
</g>
<!-- Node34&#45;&gt;Node35 -->
<g id="edge1" class="edge"><title>Node34&#45;&gt;Node35</title>
<path fill="none" stroke="midnightblue" d="M37.3254,-76.6693C49.8116,-85.4019 68.4022,-98.404 82.9409,-108.572"/>
<polygon fill="midnightblue" stroke="midnightblue" points="81.1782,-111.61 91.3788,-114.474 85.1901,-105.874 81.1782,-111.61"/>
</g>
<!-- Node36 -->
<g id="node3" class="node"><title>Node36</title>
<g id="a_node3"><a xlink:href="bench_2btl_2libs_2BLAS_2blas_8h.html#a9a335858ceda256f234af77d6e91b8a1" target="_top" xlink:title="dgemv">
<polygon fill="none" stroke="black" points="81,-76.5 81,-95.5 131,-95.5 131,-76.5 81,-76.5"/>
<text text-anchor="middle" x="106" y="-83.5" font-family="Helvetica,sans-Serif" font-size="10.00">dgemv</text>
</a>
</g>
</g>
<!-- Node34&#45;&gt;Node36 -->
<g id="edge2" class="edge"><title>Node34&#45;&gt;Node36</title>
<path fill="none" stroke="midnightblue" d="M45.3405,-72.0917C53.2029,-73.9246 62.2721,-76.0389 70.928,-78.0568"/>
<polygon fill="midnightblue" stroke="midnightblue" points="70.2689,-81.497 80.8024,-80.3588 71.8582,-74.6798 70.2689,-81.497"/>
</g>
<!-- Node37 -->
<g id="node4" class="node"><title>Node37</title>
<g id="a_node4"><a xlink:href="dblat2_8f.html#a1c65c92d411e657e5fd49db5ea7739b4" target="_top" xlink:title="dmake">
<polygon fill="none" stroke="black" points="81,-38.5 81,-57.5 131,-57.5 131,-38.5 81,-38.5"/>
<text text-anchor="middle" x="106" y="-45.5" font-family="Helvetica,sans-Serif" font-size="10.00">dmake</text>
</a>
</g>
</g>
<!-- Node34&#45;&gt;Node37 -->
<g id="edge3" class="edge"><title>Node34&#45;&gt;Node37</title>
<path fill="none" stroke="midnightblue" d="M45.3405,-61.9083C53.2029,-60.0754 62.2721,-57.9611 70.928,-55.9432"/>
<polygon fill="midnightblue" stroke="midnightblue" points="71.8582,-59.3202 80.8024,-53.6412 70.2689,-52.503 71.8582,-59.3202"/>
</g>
<!-- Node38 -->
<g id="node5" class="node"><title>Node38</title>
<g id="a_node5"><a xlink:href="dblat2_8f.html#afbbc0e902d1922bc88fd3de1837756ef" target="_top" xlink:title="dmvch">
<polygon fill="none" stroke="black" points="81.5,-0.5 81.5,-19.5 130.5,-19.5 130.5,-0.5 81.5,-0.5"/>
<text text-anchor="middle" x="106" y="-7.5" font-family="Helvetica,sans-Serif" font-size="10.00">dmvch</text>
</a>
</g>
</g>
<!-- Node34&#45;&gt;Node38 -->
<g id="edge4" class="edge"><title>Node34&#45;&gt;Node38</title>
<path fill="none" stroke="midnightblue" d="M37.3254,-57.3307C49.8116,-48.5981 68.4022,-35.596 82.9409,-25.4278"/>
<polygon fill="midnightblue" stroke="midnightblue" points="85.1901,-28.1259 91.3788,-19.5265 81.1782,-22.3896 85.1901,-28.1259"/>
</g>
<!-- Node39 -->
<g id="node6" class="node"><title>Node39</title>
<g id="a_node6"><a xlink:href="ArrayCwiseUnaryOps_8h.html#a656b9217a2fcb6de59dc8d1eb3079cc7" target="_top" xlink:title="sqrt">
<polygon fill="none" stroke="black" points="167,-0.5 167,-19.5 202,-19.5 202,-0.5 167,-0.5"/>
<text text-anchor="middle" x="184.5" y="-7.5" font-family="Helvetica,sans-Serif" font-size="10.00">sqrt</text>
</a>
</g>
</g>
<!-- Node38&#45;&gt;Node39 -->
<g id="edge5" class="edge"><title>Node38&#45;&gt;Node39</title>
<path fill="none" stroke="midnightblue" d="M130.786,-10C138.927,-10 148.094,-10 156.473,-10"/>
<polygon fill="midnightblue" stroke="midnightblue" points="156.528,-13.5001 166.528,-10 156.528,-6.5001 156.528,-13.5001"/>
</g>
</g>
</svg>
