<?xml version="1.0" encoding="UTF-8" standalone="no"?>
<!DOCTYPE svg PUBLIC "-//W3C//DTD SVG 1.1//EN"
 "http://www.w3.org/Graphics/SVG/1.1/DTD/svg11.dtd">
<!-- Generated by graphviz version 2.38.0 (20140413.2041)
 -->
<!-- Title: dmvch Pages: 1 -->
<svg width="221pt" height="256pt"
 viewBox="0.00 0.00 221.00 256.00" xmlns="http://www.w3.org/2000/svg" xmlns:xlink="http://www.w3.org/1999/xlink">
<g id="graph0" class="graph" transform="scale(1 1) rotate(0) translate(4 252)">
<title>dmvch</title>
<!-- Node127 -->
<g id="node1" class="node"><title>Node127</title>
<polygon fill="#bfbfbf" stroke="black" points="0,-114.5 0,-133.5 49,-133.5 49,-114.5 0,-114.5"/>
<text text-anchor="middle" x="24.5" y="-121.5" font-family="Helvetica,sans-Serif" font-size="10.00">dmvch</text>
</g>
<!-- Node128 -->
<g id="node2" class="node"><title>Node128</title>
<g id="a_node2"><a xlink:href="dblat2_8f.html#a7003ac6a725228e895e4e675b3ef1775" target="_top" xlink:title="DBLAT2 ">
<polygon fill="none" stroke="black" points="166,-114.5 166,-133.5 213,-133.5 213,-114.5 166,-114.5"/>
<text text-anchor="middle" x="189.5" y="-121.5" font-family="Helvetica,sans-Serif" font-size="10.00">dblat2</text>
</a>
</g>
</g>
<!-- Node127&#45;&gt;Node128 -->
<g id="edge1" class="edge"><title>Node127&#45;&gt;Node128</title>
<path fill="none" stroke="midnightblue" d="M37.9192,-141.756C48.6155,-155.373 65.4,-173.127 85,-181 103.559,-188.455 111.473,-188.534 130,-181 153.644,-171.386 172.96,-147.112 182.345,-133.546"/>
<polygon fill="midnightblue" stroke="midnightblue" points="40.5844,-139.475 31.8009,-133.55 34.9726,-143.659 40.5844,-139.475"/>
</g>
<!-- Node129 -->
<g id="node3" class="node"><title>Node129</title>
<g id="a_node3"><a xlink:href="dblat2_8f.html#abc28e954ae40095eb4051416b83bec18" target="_top" xlink:title="dchk1">
<polygon fill="none" stroke="black" points="85,-76.5 85,-95.5 130,-95.5 130,-76.5 85,-76.5"/>
<text text-anchor="middle" x="107.5" y="-83.5" font-family="Helvetica,sans-Serif" font-size="10.00">dchk1</text>
</a>
</g>
</g>
<!-- Node127&#45;&gt;Node129 -->
<g id="edge2" class="edge"><title>Node127&#45;&gt;Node129</title>
<path fill="none" stroke="midnightblue" d="M55.031,-110.146C65.3364,-105.311 76.6666,-99.9959 86.0668,-95.5859"/>
<polygon fill="midnightblue" stroke="midnightblue" points="53.5064,-106.995 45.9397,-114.411 56.4795,-113.332 53.5064,-106.995"/>
</g>
<!-- Node131 -->
<g id="node5" class="node"><title>Node131</title>
<g id="a_node5"><a xlink:href="dblat2_8f.html#a3589e340665ad60c229f4efdc79a6229" target="_top" xlink:title="dchk2">
<polygon fill="none" stroke="black" points="85,-38.5 85,-57.5 130,-57.5 130,-38.5 85,-38.5"/>
<text text-anchor="middle" x="107.5" y="-45.5" font-family="Helvetica,sans-Serif" font-size="10.00">dchk2</text>
</a>
</g>
</g>
<!-- Node127&#45;&gt;Node131 -->
<g id="edge5" class="edge"><title>Node127&#45;&gt;Node131</title>
<path fill="none" stroke="midnightblue" d="M42.8981,-106.978C54.6691,-95.5491 70.6311,-80.2217 85,-67 88.3723,-63.8969 92.0976,-60.5703 95.4865,-57.5816"/>
<polygon fill="midnightblue" stroke="midnightblue" points="40.2114,-104.709 35.4895,-114.193 45.0954,-109.723 40.2114,-104.709"/>
</g>
<!-- Node132 -->
<g id="node6" class="node"><title>Node132</title>
<g id="a_node6"><a xlink:href="dblat2_8f.html#a96c113ecd52e4867dc5d4fb4735e9489" target="_top" xlink:title="dchk3">
<polygon fill="none" stroke="black" points="85,-0.5 85,-19.5 130,-19.5 130,-0.5 85,-0.5"/>
<text text-anchor="middle" x="107.5" y="-7.5" font-family="Helvetica,sans-Serif" font-size="10.00">dchk3</text>
</a>
</g>
</g>
<!-- Node127&#45;&gt;Node132 -->
<g id="edge8" class="edge"><title>Node127&#45;&gt;Node132</title>
<path fill="none" stroke="midnightblue" d="M34.9838,-105.533C45.6886,-85.5824 64.3274,-53.3798 85,-29 87.7061,-25.8086 90.9512,-22.6659 94.0901,-19.8835"/>
<polygon fill="midnightblue" stroke="midnightblue" points="31.8251,-104.02 30.2659,-114.5 38.0199,-107.28 31.8251,-104.02"/>
</g>
<!-- Node133 -->
<g id="node7" class="node"><title>Node133</title>
<g id="a_node7"><a xlink:href="dblat2_8f.html#aa8fdd6ba213f5c4bdf7f9ba5e6a1a0e7" target="_top" xlink:title="dchk4">
<polygon fill="none" stroke="black" points="85,-152.5 85,-171.5 130,-171.5 130,-152.5 85,-152.5"/>
<text text-anchor="middle" x="107.5" y="-159.5" font-family="Helvetica,sans-Serif" font-size="10.00">dchk4</text>
</a>
</g>
</g>
<!-- Node127&#45;&gt;Node133 -->
<g id="edge11" class="edge"><title>Node127&#45;&gt;Node133</title>
<path fill="none" stroke="midnightblue" d="M55.031,-137.854C65.3364,-142.689 76.6666,-148.004 86.0668,-152.414"/>
<polygon fill="midnightblue" stroke="midnightblue" points="56.4795,-134.668 45.9397,-133.589 53.5064,-141.005 56.4795,-134.668"/>
</g>
<!-- Node134 -->
<g id="node8" class="node"><title>Node134</title>
<g id="a_node8"><a xlink:href="dblat2_8f.html#aa5e1ff12141c4f3001796e7c26fb4f4a" target="_top" xlink:title="dchk5">
<polygon fill="none" stroke="black" points="85,-114.5 85,-133.5 130,-133.5 130,-114.5 85,-114.5"/>
<text text-anchor="middle" x="107.5" y="-121.5" font-family="Helvetica,sans-Serif" font-size="10.00">dchk5</text>
</a>
</g>
</g>
<!-- Node127&#45;&gt;Node134 -->
<g id="edge14" class="edge"><title>Node127&#45;&gt;Node134</title>
<path fill="none" stroke="midnightblue" d="M59.4859,-124C68.0321,-124 76.9756,-124 84.7402,-124"/>
<polygon fill="midnightblue" stroke="midnightblue" points="59.3646,-120.5 49.3646,-124 59.3645,-127.5 59.3646,-120.5"/>
</g>
<!-- Node135 -->
<g id="node9" class="node"><title>Node135</title>
<g id="a_node9"><a xlink:href="dblat2_8f.html#add7fe1a057c0b80a7547c153f32fc0d3" target="_top" xlink:title="dchk6">
<polygon fill="none" stroke="black" points="85,-228.5 85,-247.5 130,-247.5 130,-228.5 85,-228.5"/>
<text text-anchor="middle" x="107.5" y="-235.5" font-family="Helvetica,sans-Serif" font-size="10.00">dchk6</text>
</a>
</g>
</g>
<!-- Node127&#45;&gt;Node135 -->
<g id="edge17" class="edge"><title>Node127&#45;&gt;Node135</title>
<path fill="none" stroke="midnightblue" d="M36.3993,-142.139C47.8037,-160.705 66.5804,-190.135 85,-214 88.8282,-218.96 93.4219,-224.174 97.3786,-228.47"/>
<polygon fill="midnightblue" stroke="midnightblue" points="39.3361,-140.233 31.1485,-133.508 33.3558,-143.871 39.3361,-140.233"/>
</g>
<!-- Node129&#45;&gt;Node128 -->
<g id="edge3" class="edge"><title>Node129&#45;&gt;Node128</title>
<path fill="none" stroke="midnightblue" d="M137.978,-100.002C148.073,-104.797 159.13,-110.049 168.319,-114.414"/>
<polygon fill="midnightblue" stroke="midnightblue" points="139.222,-96.7182 128.687,-95.589 136.218,-103.041 139.222,-96.7182"/>
</g>
<!-- Node130 -->
<g id="node4" class="node"><title>Node130</title>
<g id="a_node4"><a xlink:href="dblat3_8f.html#a797f4debf4a6bff750260b5347fb61ed" target="_top" xlink:title="DBLAT3 ">
<polygon fill="none" stroke="black" points="166,-76.5 166,-95.5 213,-95.5 213,-76.5 166,-76.5"/>
<text text-anchor="middle" x="189.5" y="-83.5" font-family="Helvetica,sans-Serif" font-size="10.00">dblat3</text>
</a>
</g>
</g>
<!-- Node129&#45;&gt;Node130 -->
<g id="edge4" class="edge"><title>Node129&#45;&gt;Node130</title>
<path fill="none" stroke="midnightblue" d="M140.382,-86C148.896,-86 157.923,-86 165.829,-86"/>
<polygon fill="midnightblue" stroke="midnightblue" points="140.36,-82.5001 130.36,-86 140.36,-89.5001 140.36,-82.5001"/>
</g>
<!-- Node131&#45;&gt;Node128 -->
<g id="edge6" class="edge"><title>Node131&#45;&gt;Node128</title>
<path fill="none" stroke="midnightblue" d="M127.575,-64.6947C128.4,-65.4678 129.212,-66.2386 130,-67 146.733,-83.1632 149.087,-89.026 166,-105 169.271,-108.089 172.952,-111.3 176.374,-114.183"/>
<polygon fill="midnightblue" stroke="midnightblue" points="129.811,-61.9973 120.052,-57.8734 125.109,-67.1832 129.811,-61.9973"/>
</g>
<!-- Node131&#45;&gt;Node130 -->
<g id="edge7" class="edge"><title>Node131&#45;&gt;Node130</title>
<path fill="none" stroke="midnightblue" d="M137.978,-62.0022C148.073,-66.7971 159.13,-72.0491 168.319,-76.4141"/>
<polygon fill="midnightblue" stroke="midnightblue" points="139.222,-58.7182 128.687,-57.589 136.218,-65.0411 139.222,-58.7182"/>
</g>
<!-- Node132&#45;&gt;Node128 -->
<g id="edge9" class="edge"><title>Node132&#45;&gt;Node128</title>
<path fill="none" stroke="midnightblue" d="M128.262,-26.8294C128.868,-27.544 129.45,-28.2684 130,-29 152.462,-58.8733 143.204,-75.3811 166,-105 168.619,-108.403 171.942,-111.619 175.225,-114.404"/>
<polygon fill="midnightblue" stroke="midnightblue" points="130.696,-24.3131 121.169,-19.6764 125.725,-29.2418 130.696,-24.3131"/>
</g>
<!-- Node132&#45;&gt;Node130 -->
<g id="edge10" class="edge"><title>Node132&#45;&gt;Node130</title>
<path fill="none" stroke="midnightblue" d="M127.095,-26.3315C128.082,-27.2296 129.055,-28.1232 130,-29 147.462,-45.205 167.199,-64.6888 178.705,-76.169"/>
<polygon fill="midnightblue" stroke="midnightblue" points="129.316,-23.6225 119.53,-19.564 124.649,-28.8398 129.316,-23.6225"/>
</g>
<!-- Node133&#45;&gt;Node128 -->
<g id="edge12" class="edge"><title>Node133&#45;&gt;Node128</title>
<path fill="none" stroke="midnightblue" d="M137.978,-147.998C148.073,-143.203 159.13,-137.951 168.319,-133.586"/>
<polygon fill="midnightblue" stroke="midnightblue" points="136.218,-144.959 128.687,-152.411 139.222,-151.282 136.218,-144.959"/>
</g>
<!-- Node133&#45;&gt;Node130 -->
<g id="edge13" class="edge"><title>Node133&#45;&gt;Node130</title>
<path fill="none" stroke="midnightblue" d="M127.575,-145.305C128.4,-144.532 129.212,-143.761 130,-143 146.733,-126.837 149.087,-120.974 166,-105 169.271,-101.911 172.952,-98.7002 176.374,-95.8169"/>
<polygon fill="midnightblue" stroke="midnightblue" points="125.109,-142.817 120.052,-152.127 129.811,-148.003 125.109,-142.817"/>
</g>
<!-- Node134&#45;&gt;Node128 -->
<g id="edge15" class="edge"><title>Node134&#45;&gt;Node128</title>
<path fill="none" stroke="midnightblue" d="M140.382,-124C148.896,-124 157.923,-124 165.829,-124"/>
<polygon fill="midnightblue" stroke="midnightblue" points="140.36,-120.5 130.36,-124 140.36,-127.5 140.36,-120.5"/>
</g>
<!-- Node134&#45;&gt;Node130 -->
<g id="edge16" class="edge"><title>Node134&#45;&gt;Node130</title>
<path fill="none" stroke="midnightblue" d="M137.978,-109.998C148.073,-105.203 159.13,-99.9509 168.319,-95.5859"/>
<polygon fill="midnightblue" stroke="midnightblue" points="136.218,-106.959 128.687,-114.411 139.222,-113.282 136.218,-106.959"/>
</g>
<!-- Node135&#45;&gt;Node128 -->
<g id="edge18" class="edge"><title>Node135&#45;&gt;Node128</title>
<path fill="none" stroke="midnightblue" d="M124.67,-220.57C126.517,-218.399 128.334,-216.176 130,-214 151.412,-186.034 173.094,-150.306 182.976,-133.521"/>
<polygon fill="midnightblue" stroke="midnightblue" points="121.665,-218.683 117.64,-228.484 126.898,-223.332 121.665,-218.683"/>
</g>
</g>
</svg>
