<?xml version="1.0" encoding="UTF-8" standalone="no"?>
<!DOCTYPE svg PUBLIC "-//W3C//DTD SVG 1.1//EN"
 "http://www.w3.org/Graphics/SVG/1.1/DTD/svg11.dtd">
<!-- Generated by graphviz version 2.38.0 (20140413.2041)
 -->
<!-- Title: dchk5 Pages: 1 -->
<svg width="210pt" height="142pt"
 viewBox="0.00 0.00 210.00 142.00" xmlns="http://www.w3.org/2000/svg" xmlns:xlink="http://www.w3.org/1999/xlink">
<g id="graph0" class="graph" transform="scale(1 1) rotate(0) translate(4 138)">
<title>dchk5</title>
<!-- Node74 -->
<g id="node1" class="node"><title>Node74</title>
<polygon fill="#bfbfbf" stroke="black" points="0,-57.5 0,-76.5 45,-76.5 45,-57.5 0,-57.5"/>
<text text-anchor="middle" x="22.5" y="-64.5" font-family="Helvetica,sans-Serif" font-size="10.00">dchk5</text>
</g>
<!-- Node75 -->
<g id="node2" class="node"><title>Node75</title>
<g id="a_node2"><a xlink:href="dblat2_8f.html#a1c65c92d411e657e5fd49db5ea7739b4" target="_top" xlink:title="dmake">
<polygon fill="none" stroke="black" points="81,-114.5 81,-133.5 131,-133.5 131,-114.5 81,-114.5"/>
<text text-anchor="middle" x="106" y="-121.5" font-family="Helvetica,sans-Serif" font-size="10.00">dmake</text>
</a>
</g>
</g>
<!-- Node74&#45;&gt;Node75 -->
<g id="edge1" class="edge"><title>Node74&#45;&gt;Node75</title>
<path fill="none" stroke="midnightblue" d="M37.3254,-76.6693C49.8116,-85.4019 68.4022,-98.404 82.9409,-108.572"/>
<polygon fill="midnightblue" stroke="midnightblue" points="81.1782,-111.61 91.3788,-114.474 85.1901,-105.874 81.1782,-111.61"/>
</g>
<!-- Node76 -->
<g id="node3" class="node"><title>Node76</title>
<g id="a_node3"><a xlink:href="dblat2_8f.html#afbbc0e902d1922bc88fd3de1837756ef" target="_top" xlink:title="dmvch">
<polygon fill="none" stroke="black" points="81.5,-76.5 81.5,-95.5 130.5,-95.5 130.5,-76.5 81.5,-76.5"/>
<text text-anchor="middle" x="106" y="-83.5" font-family="Helvetica,sans-Serif" font-size="10.00">dmvch</text>
</a>
</g>
</g>
<!-- Node74&#45;&gt;Node76 -->
<g id="edge2" class="edge"><title>Node74&#45;&gt;Node76</title>
<path fill="none" stroke="midnightblue" d="M45.3405,-72.0917C53.3385,-73.9562 62.5852,-76.1119 71.3754,-78.1611"/>
<polygon fill="midnightblue" stroke="midnightblue" points="70.8488,-81.6322 81.3824,-80.494 72.4382,-74.815 70.8488,-81.6322"/>
</g>
<!-- Node78 -->
<g id="node5" class="node"><title>Node78</title>
<g id="a_node5"><a xlink:href="bench_2btl_2libs_2BLAS_2blas_8h.html#a7b656b29fa7428de6e2ed2fc476675f9" target="_top" xlink:title="dspr">
<polygon fill="none" stroke="black" points="87,-38.5 87,-57.5 125,-57.5 125,-38.5 87,-38.5"/>
<text text-anchor="middle" x="106" y="-45.5" font-family="Helvetica,sans-Serif" font-size="10.00">dspr</text>
</a>
</g>
</g>
<!-- Node74&#45;&gt;Node78 -->
<g id="edge4" class="edge"><title>Node74&#45;&gt;Node78</title>
<path fill="none" stroke="midnightblue" d="M45.3405,-61.9083C55.1008,-59.633 66.7206,-56.924 77.1011,-54.504"/>
<polygon fill="midnightblue" stroke="midnightblue" points="78.0094,-57.8862 86.9536,-52.2071 76.4201,-51.069 78.0094,-57.8862"/>
</g>
<!-- Node79 -->
<g id="node6" class="node"><title>Node79</title>
<g id="a_node6"><a xlink:href="bench_2btl_2libs_2BLAS_2blas_8h.html#af6c83265b239636b20d0bf7f05f4dc00" target="_top" xlink:title="dsyr">
<polygon fill="none" stroke="black" points="87.5,-0.5 87.5,-19.5 124.5,-19.5 124.5,-0.5 87.5,-0.5"/>
<text text-anchor="middle" x="106" y="-7.5" font-family="Helvetica,sans-Serif" font-size="10.00">dsyr</text>
</a>
</g>
</g>
<!-- Node74&#45;&gt;Node79 -->
<g id="edge5" class="edge"><title>Node74&#45;&gt;Node79</title>
<path fill="none" stroke="midnightblue" d="M37.3254,-57.3307C49.8116,-48.5981 68.4022,-35.596 82.9409,-25.4278"/>
<polygon fill="midnightblue" stroke="midnightblue" points="85.1901,-28.1259 91.3788,-19.5265 81.1782,-22.3896 85.1901,-28.1259"/>
</g>
<!-- Node77 -->
<g id="node4" class="node"><title>Node77</title>
<g id="a_node4"><a xlink:href="ArrayCwiseUnaryOps_8h.html#a656b9217a2fcb6de59dc8d1eb3079cc7" target="_top" xlink:title="sqrt">
<polygon fill="none" stroke="black" points="167,-76.5 167,-95.5 202,-95.5 202,-76.5 167,-76.5"/>
<text text-anchor="middle" x="184.5" y="-83.5" font-family="Helvetica,sans-Serif" font-size="10.00">sqrt</text>
</a>
</g>
</g>
<!-- Node76&#45;&gt;Node77 -->
<g id="edge3" class="edge"><title>Node76&#45;&gt;Node77</title>
<path fill="none" stroke="midnightblue" d="M130.786,-86C138.927,-86 148.094,-86 156.473,-86"/>
<polygon fill="midnightblue" stroke="midnightblue" points="156.528,-89.5001 166.528,-86 156.528,-82.5001 156.528,-89.5001"/>
</g>
</g>
</svg>
