<?xml version="1.0" encoding="UTF-8" standalone="no"?>
<!DOCTYPE svg PUBLIC "-//W3C//DTD SVG 1.1//EN"
 "http://www.w3.org/Graphics/SVG/1.1/DTD/svg11.dtd">
<!-- Generated by graphviz version 2.38.0 (20140413.2041)
 -->
<!-- Title: test_dgmres Pages: 1 -->
<svg width="365pt" height="39pt"
 viewBox="0.00 0.00 365.00 39.00" xmlns="http://www.w3.org/2000/svg" xmlns:xlink="http://www.w3.org/1999/xlink">
<g id="graph0" class="graph" transform="scale(1 1) rotate(0) translate(4 35)">
<title>test_dgmres</title>
<!-- Node0 -->
<g id="node1" class="node"><title>Node0</title>
<polygon fill="#bfbfbf" stroke="black" points="0,-6 0,-25 77,-25 77,-6 0,-6"/>
<text text-anchor="middle" x="38.5" y="-13" font-family="Helvetica,sans-Serif" font-size="10.00">test_dgmres</text>
</g>
<!-- Node1 -->
<g id="node2" class="node"><title>Node1</title>
<g id="a_node2"><a xlink:href="dgmres_8cpp.html#a27a94a47bf37c1f6d7e0a4f7f47c2dca" target="_top" xlink:title="test_dgmres_T">
<polygon fill="none" stroke="black" points="113,-6 113,-25 201,-25 201,-6 113,-6"/>
<text text-anchor="middle" x="157" y="-13" font-family="Helvetica,sans-Serif" font-size="10.00">test_dgmres_T</text>
</a>
</g>
</g>
<!-- Node0&#45;&gt;Node1 -->
<g id="edge1" class="edge"><title>Node0&#45;&gt;Node1</title>
<path fill="none" stroke="midnightblue" d="M77.0026,-15.5C85.2258,-15.5 94.0835,-15.5 102.79,-15.5"/>
<polygon fill="midnightblue" stroke="midnightblue" points="102.894,-19.0001 112.894,-15.5 102.894,-12.0001 102.894,-19.0001"/>
</g>
<!-- Node2 -->
<g id="node3" class="node"><title>Node2</title>
<g id="a_node3"><a xlink:href="sparse__solver_8h.html#a12301f6419eb573c0fca674bc589b4f6" target="_top" xlink:title="check_sparse_square\l_solving">
<polygon fill="none" stroke="black" points="237,-0.5 237,-30.5 357,-30.5 357,-0.5 237,-0.5"/>
<text text-anchor="start" x="245" y="-18.5" font-family="Helvetica,sans-Serif" font-size="10.00">check_sparse_square</text>
<text text-anchor="middle" x="297" y="-7.5" font-family="Helvetica,sans-Serif" font-size="10.00">_solving</text>
</a>
</g>
</g>
<!-- Node1&#45;&gt;Node2 -->
<g id="edge2" class="edge"><title>Node1&#45;&gt;Node2</title>
<path fill="none" stroke="midnightblue" d="M201.285,-15.5C209.41,-15.5 218.089,-15.5 226.773,-15.5"/>
<polygon fill="midnightblue" stroke="midnightblue" points="226.937,-19.0001 236.937,-15.5 226.937,-12.0001 226.937,-19.0001"/>
</g>
</g>
</svg>
