<?xml version="1.0" encoding="UTF-8" standalone="no"?>
<!DOCTYPE svg PUBLIC "-//W3C//DTD SVG 1.1//EN"
 "http://www.w3.org/Graphics/SVG/1.1/DTD/svg11.dtd">
<!-- Generated by graphviz version 2.38.0 (20140413.2041)
 -->
<!-- Title: /travis/libpairinteraction/eigen/bench/btl/generic_bench Pages: 1 -->
<svg width="286pt" height="255pt"
 viewBox="0.00 0.00 286.00 255.00" xmlns="http://www.w3.org/2000/svg" xmlns:xlink="http://www.w3.org/1999/xlink">
<g id="graph0" class="graph" transform="scale(1 1) rotate(0) translate(4 251)">
<title>/travis/libpairinteraction/eigen/bench/btl/generic_bench</title>
<g id="clust1" class="cluster"><title>clusterdir_6e88f15fb279171fbd54e1dde664bb11</title>
<g id="a_clust1"><a xlink:href="dir_6e88f15fb279171fbd54e1dde664bb11.html" target="_top" xlink:title="btl">
<polygon fill="#ddddee" stroke="black" points="8,-8 8,-239 270,-239 270,-8 8,-8"/>
<text text-anchor="middle" x="139" y="-227" font-family="Helvetica,sans-Serif" font-size="10.00">btl</text>
</a>
</g>
</g>
<g id="clust2" class="cluster"><title>clusterdir_cf06ad005f4a0bb398ae2b383d393f73</title>
<g id="a_clust2"><a xlink:href="dir_cf06ad005f4a0bb398ae2b383d393f73.html" target="_top">
<polygon fill="#eeeeff" stroke="black" points="16,-16 16,-212 262,-212 262,-16 16,-16"/>
</a>
</g>
</g>
<!-- dir_cf06ad005f4a0bb398ae2b383d393f73 -->
<g id="node1" class="node"><title>dir_cf06ad005f4a0bb398ae2b383d393f73</title>
<text text-anchor="middle" x="211" y="-183.5" font-family="Helvetica,sans-Serif" font-size="10.00">generic_bench</text>
</g>
<!-- dir_9e9f4fbc266d3f9ab90a74dcd9a9d9fd -->
<g id="node4" class="node"><title>dir_9e9f4fbc266d3f9ab90a74dcd9a9d9fd</title>
<g id="a_node4"><a xlink:href="dir_9e9f4fbc266d3f9ab90a74dcd9a9d9fd.html" target="_top" xlink:title="timers">
<polygon fill="white" stroke="black" points="166,-132 112,-132 112,-96 166,-96 166,-132"/>
<text text-anchor="middle" x="139" y="-111.5" font-family="Helvetica,sans-Serif" font-size="10.00">timers</text>
</a>
</g>
</g>
<!-- dir_cf06ad005f4a0bb398ae2b383d393f73&#45;&gt;dir_9e9f4fbc266d3f9ab90a74dcd9a9d9fd -->
<g id="edge2" class="edge"><title>dir_cf06ad005f4a0bb398ae2b383d393f73&#45;&gt;dir_9e9f4fbc266d3f9ab90a74dcd9a9d9fd</title>
<path fill="none" stroke="black" d="M193.202,-167.697C184.396,-159.135 173.618,-148.656 163.999,-139.304"/>
<polygon fill="black" stroke="black" points="166.203,-136.566 156.593,-132.104 161.323,-141.585 166.203,-136.566"/>
<g id="a_edge2&#45;headlabel"><a xlink:href="dir_000006_000009.html" target="_top" xlink:title="2">
<text text-anchor="middle" x="170.759" y="-134.536" font-family="Helvetica,sans-Serif" font-size="10.00">2</text>
</a>
</g>
</g>
<!-- dir_5ec462ee4069604adc1f1bf238252ab7 -->
<g id="node5" class="node"><title>dir_5ec462ee4069604adc1f1bf238252ab7</title>
<g id="a_node5"><a xlink:href="dir_5ec462ee4069604adc1f1bf238252ab7.html" target="_top" xlink:title="utils">
<polygon fill="white" stroke="black" points="166,-60 112,-60 112,-24 166,-24 166,-60"/>
<text text-anchor="middle" x="139" y="-39.5" font-family="Helvetica,sans-Serif" font-size="10.00">utils</text>
</a>
</g>
</g>
<!-- dir_cf06ad005f4a0bb398ae2b383d393f73&#45;&gt;dir_5ec462ee4069604adc1f1bf238252ab7 -->
<g id="edge1" class="edge"><title>dir_cf06ad005f4a0bb398ae2b383d393f73&#45;&gt;dir_5ec462ee4069604adc1f1bf238252ab7</title>
<path fill="none" stroke="black" d="M205.266,-167.785C198.894,-149.493 187.798,-119.965 175,-96 170.022,-86.6788 163.781,-76.9771 157.9,-68.4608"/>
<polygon fill="black" stroke="black" points="160.603,-66.2217 151.97,-60.0807 154.889,-70.2653 160.603,-66.2217"/>
<g id="a_edge1&#45;headlabel"><a xlink:href="dir_000006_000010.html" target="_top" xlink:title="10">
<text text-anchor="middle" x="164.997" y="-65.0158" font-family="Helvetica,sans-Serif" font-size="10.00">10</text>
</a>
</g>
</g>
<!-- dir_f4359f2c6dc4d7f240fb771397b0a9e9 -->
<g id="node2" class="node"><title>dir_f4359f2c6dc4d7f240fb771397b0a9e9</title>
<g id="a_node2"><a xlink:href="dir_f4359f2c6dc4d7f240fb771397b0a9e9.html" target="_top" xlink:title="init">
<polygon fill="white" stroke="black" points="150,-204 96,-204 96,-168 150,-168 150,-204"/>
<text text-anchor="middle" x="123" y="-183.5" font-family="Helvetica,sans-Serif" font-size="10.00">init</text>
</a>
</g>
</g>
<!-- dir_f70acce3b26d964999b65a287859b234 -->
<g id="node3" class="node"><title>dir_f70acce3b26d964999b65a287859b234</title>
<g id="a_node3"><a xlink:href="dir_f70acce3b26d964999b65a287859b234.html" target="_top" xlink:title="static">
<polygon fill="white" stroke="black" points="78,-204 24,-204 24,-168 78,-168 78,-204"/>
<text text-anchor="middle" x="51" y="-183.5" font-family="Helvetica,sans-Serif" font-size="10.00">static</text>
</a>
</g>
</g>
<!-- dir_f70acce3b26d964999b65a287859b234&#45;&gt;dir_9e9f4fbc266d3f9ab90a74dcd9a9d9fd -->
<g id="edge5" class="edge"><title>dir_f70acce3b26d964999b65a287859b234&#45;&gt;dir_9e9f4fbc266d3f9ab90a74dcd9a9d9fd</title>
<path fill="none" stroke="black" d="M72.7528,-167.697C83.8357,-158.881 97.474,-148.032 109.49,-138.474"/>
<polygon fill="black" stroke="black" points="111.85,-141.069 117.497,-132.104 107.493,-135.59 111.85,-141.069"/>
<g id="a_edge5&#45;headlabel"><a xlink:href="dir_000008_000009.html" target="_top" xlink:title="1">
<text text-anchor="middle" x="110.805" y="-143.028" font-family="Helvetica,sans-Serif" font-size="10.00">1</text>
</a>
</g>
</g>
<!-- dir_f70acce3b26d964999b65a287859b234&#45;&gt;dir_5ec462ee4069604adc1f1bf238252ab7 -->
<g id="edge4" class="edge"><title>dir_f70acce3b26d964999b65a287859b234&#45;&gt;dir_5ec462ee4069604adc1f1bf238252ab7</title>
<path fill="none" stroke="black" d="M60.6286,-167.732C70.8186,-149.647 87.5339,-120.52 103,-96 108.637,-87.0622 115.048,-77.4593 120.882,-68.9157"/>
<polygon fill="black" stroke="black" points="123.91,-70.69 126.697,-60.4681 118.144,-66.7212 123.91,-70.69"/>
<g id="a_edge4&#45;headlabel"><a xlink:href="dir_000008_000010.html" target="_top" xlink:title="3">
<text text-anchor="middle" x="124.211" y="-72.7607" font-family="Helvetica,sans-Serif" font-size="10.00">3</text>
</a>
</g>
</g>
<!-- dir_9e9f4fbc266d3f9ab90a74dcd9a9d9fd&#45;&gt;dir_5ec462ee4069604adc1f1bf238252ab7 -->
<g id="edge3" class="edge"><title>dir_9e9f4fbc266d3f9ab90a74dcd9a9d9fd&#45;&gt;dir_5ec462ee4069604adc1f1bf238252ab7</title>
<path fill="none" stroke="black" d="M139,-95.6966C139,-87.9827 139,-78.7125 139,-70.1124"/>
<polygon fill="black" stroke="black" points="142.5,-70.1043 139,-60.1043 135.5,-70.1044 142.5,-70.1043"/>
<g id="a_edge3&#45;headlabel"><a xlink:href="dir_000009_000010.html" target="_top" xlink:title="3">
<text text-anchor="middle" x="145.339" y="-71.199" font-family="Helvetica,sans-Serif" font-size="10.00">3</text>
</a>
</g>
</g>
</g>
</svg>
