<?xml version="1.0" encoding="UTF-8" standalone="no"?>
<!DOCTYPE svg PUBLIC "-//W3C//DTD SVG 1.1//EN"
 "http://www.w3.org/Graphics/SVG/1.1/DTD/svg11.dtd">
<!-- Generated by graphviz version 2.38.0 (20140413.2041)
 -->
<!-- Title: /travis/libpairinteraction/eigen/bench/btl/libs Pages: 1 -->
<svg width="1051pt" height="231pt"
 viewBox="0.00 0.00 1051.07 231.00" xmlns="http://www.w3.org/2000/svg" xmlns:xlink="http://www.w3.org/1999/xlink">
<g id="graph0" class="graph" transform="scale(1 1) rotate(0) translate(4 227)">
<title>/travis/libpairinteraction/eigen/bench/btl/libs</title>
<g id="clust1" class="cluster"><title>clusterdir_6e88f15fb279171fbd54e1dde664bb11</title>
<g id="a_clust1"><a xlink:href="dir_6e88f15fb279171fbd54e1dde664bb11.html" target="_top" xlink:title="btl">
<polygon fill="#ddddee" stroke="black" points="8,-56 8,-215 814,-215 814,-56 8,-56"/>
<text text-anchor="middle" x="411" y="-203" font-family="Helvetica,sans-Serif" font-size="10.00">btl</text>
</a>
</g>
</g>
<g id="clust2" class="cluster"><title>clusterdir_f2299b681d83c6e1af09e81aec8283a7</title>
<g id="a_clust2"><a xlink:href="dir_f2299b681d83c6e1af09e81aec8283a7.html" target="_top">
<polygon fill="#eeeeff" stroke="black" points="16,-64 16,-188 806,-188 806,-64 16,-64"/>
</a>
</g>
</g>
<!-- dir_f2299b681d83c6e1af09e81aec8283a7 -->
<g id="node1" class="node"><title>dir_f2299b681d83c6e1af09e81aec8283a7</title>
<text text-anchor="middle" x="411" y="-159.5" font-family="Helvetica,sans-Serif" font-size="10.00">libs</text>
</g>
<!-- dir_c9b52af4a8460ced04bce25beaaf0386 -->
<g id="node2" class="node"><title>dir_c9b52af4a8460ced04bce25beaaf0386</title>
<g id="a_node2"><a xlink:href="dir_c9b52af4a8460ced04bce25beaaf0386.html" target="_top" xlink:title="BLAS">
<polygon fill="white" stroke="black" points="150,-180 96,-180 96,-144 150,-144 150,-180"/>
<text text-anchor="middle" x="123" y="-159.5" font-family="Helvetica,sans-Serif" font-size="10.00">BLAS</text>
</a>
</g>
</g>
<!-- dir_538e77bc0b40b9c711ceab0a4f61c3fe -->
<g id="node13" class="node"><title>dir_538e77bc0b40b9c711ceab0a4f61c3fe</title>
<g id="a_node13"><a xlink:href="dir_538e77bc0b40b9c711ceab0a4f61c3fe.html" target="_top" xlink:title="actions">
<polygon fill="none" stroke="black" points="876,-108 822,-108 822,-72 876,-72 876,-108"/>
<text text-anchor="middle" x="849" y="-87.5" font-family="Helvetica,sans-Serif" font-size="10.00">actions</text>
</a>
</g>
</g>
<!-- dir_c9b52af4a8460ced04bce25beaaf0386&#45;&gt;dir_538e77bc0b40b9c711ceab0a4f61c3fe -->
<g id="edge1" class="edge"><title>dir_c9b52af4a8460ced04bce25beaaf0386&#45;&gt;dir_538e77bc0b40b9c711ceab0a4f61c3fe</title>
<path fill="none" stroke="black" d="M150.11,-146.871C153.054,-145.74 156.052,-144.747 159,-144 439.895,-72.8107 528.065,-174.952 810,-108 810.728,-107.827 811.459,-107.642 812.192,-107.444"/>
<polygon fill="black" stroke="black" points="813.305,-110.763 821.722,-104.329 811.13,-104.109 813.305,-110.763"/>
<g id="a_edge1&#45;headlabel"><a xlink:href="dir_000012_000004.html" target="_top" xlink:title="5">
<text text-anchor="middle" x="810.77" y="-112.078" font-family="Helvetica,sans-Serif" font-size="10.00">5</text>
</a>
</g>
</g>
<!-- dir_cf06ad005f4a0bb398ae2b383d393f73 -->
<g id="node14" class="node"><title>dir_cf06ad005f4a0bb398ae2b383d393f73</title>
<g id="a_node14"><a xlink:href="dir_cf06ad005f4a0bb398ae2b383d393f73.html" target="_top" xlink:title="generic_bench">
<polygon fill="none" stroke="red" points="864,-36 778,-36 778,-0 864,-0 864,-36"/>
<text text-anchor="middle" x="821" y="-15.5" font-family="Helvetica,sans-Serif" font-size="10.00">generic_bench</text>
</a>
</g>
</g>
<!-- dir_c9b52af4a8460ced04bce25beaaf0386&#45;&gt;dir_cf06ad005f4a0bb398ae2b383d393f73 -->
<g id="edge2" class="edge"><title>dir_c9b52af4a8460ced04bce25beaaf0386&#45;&gt;dir_cf06ad005f4a0bb398ae2b383d393f73</title>
<path fill="none" stroke="black" d="M150.123,-146.923C153.065,-145.781 156.058,-144.772 159,-144 266.104,-115.881 559.143,-161.672 656,-108 681.037,-94.1259 670.564,-72.4356 694,-56 715.717,-40.7699 743.689,-31.751 767.852,-26.4389"/>
<polygon fill="black" stroke="black" points="768.845,-29.8085 777.945,-24.3819 767.447,-22.9495 768.845,-29.8085"/>
<g id="a_edge2&#45;headlabel"><a xlink:href="dir_000012_000006.html" target="_top" xlink:title="3">
<text text-anchor="middle" x="765.89" y="-30.8083" font-family="Helvetica,sans-Serif" font-size="10.00">3</text>
</a>
</g>
</g>
<!-- dir_e9e385f7a8bd1d6dea9e2321dd1f7ea9 -->
<g id="node3" class="node"><title>dir_e9e385f7a8bd1d6dea9e2321dd1f7ea9</title>
<g id="a_node3"><a xlink:href="dir_e9e385f7a8bd1d6dea9e2321dd1f7ea9.html" target="_top" xlink:title="blaze">
<polygon fill="white" stroke="black" points="222,-180 168,-180 168,-144 222,-144 222,-180"/>
<text text-anchor="middle" x="195" y="-159.5" font-family="Helvetica,sans-Serif" font-size="10.00">blaze</text>
</a>
</g>
</g>
<!-- dir_e9e385f7a8bd1d6dea9e2321dd1f7ea9&#45;&gt;dir_538e77bc0b40b9c711ceab0a4f61c3fe -->
<g id="edge10" class="edge"><title>dir_e9e385f7a8bd1d6dea9e2321dd1f7ea9&#45;&gt;dir_538e77bc0b40b9c711ceab0a4f61c3fe</title>
<path fill="none" stroke="black" d="M222.115,-146.892C225.058,-145.756 228.055,-144.757 231,-144 480.71,-79.8027 559.352,-168.43 810,-108 810.727,-107.825 811.458,-107.637 812.19,-107.437"/>
<polygon fill="black" stroke="black" points="813.311,-110.753 821.716,-104.304 811.123,-104.104 813.311,-110.753"/>
<g id="a_edge10&#45;headlabel"><a xlink:href="dir_000016_000004.html" target="_top" xlink:title="1">
<text text-anchor="middle" x="810.783" y="-112.073" font-family="Helvetica,sans-Serif" font-size="10.00">1</text>
</a>
</g>
</g>
<!-- dir_e9e385f7a8bd1d6dea9e2321dd1f7ea9&#45;&gt;dir_cf06ad005f4a0bb398ae2b383d393f73 -->
<g id="edge11" class="edge"><title>dir_e9e385f7a8bd1d6dea9e2321dd1f7ea9&#45;&gt;dir_cf06ad005f4a0bb398ae2b383d393f73</title>
<path fill="none" stroke="black" d="M222.128,-146.939C225.068,-145.794 228.061,-144.78 231,-144 330.747,-117.53 603.866,-158.259 694,-108 719.001,-94.0598 709.508,-73.7047 732,-56 742.687,-47.5874 755.56,-40.787 768.153,-35.423"/>
<polygon fill="black" stroke="black" points="769.71,-38.5698 777.688,-31.5982 767.104,-32.073 769.71,-38.5698"/>
<g id="a_edge11&#45;headlabel"><a xlink:href="dir_000016_000006.html" target="_top" xlink:title="2">
<text text-anchor="middle" x="767.431" y="-40.0431" font-family="Helvetica,sans-Serif" font-size="10.00">2</text>
</a>
</g>
</g>
<!-- dir_28b153d6e339220c154f2c2289255175 -->
<g id="node4" class="node"><title>dir_28b153d6e339220c154f2c2289255175</title>
<g id="a_node4"><a xlink:href="dir_28b153d6e339220c154f2c2289255175.html" target="_top" xlink:title="blitz">
<polygon fill="white" stroke="black" points="294,-180 240,-180 240,-144 294,-144 294,-180"/>
<text text-anchor="middle" x="267" y="-159.5" font-family="Helvetica,sans-Serif" font-size="10.00">blitz</text>
</a>
</g>
</g>
<!-- dir_28b153d6e339220c154f2c2289255175&#45;&gt;dir_538e77bc0b40b9c711ceab0a4f61c3fe -->
<g id="edge17" class="edge"><title>dir_28b153d6e339220c154f2c2289255175&#45;&gt;dir_538e77bc0b40b9c711ceab0a4f61c3fe</title>
<path fill="none" stroke="black" d="M294.122,-146.918C297.064,-145.778 300.058,-144.77 303,-144 521.537,-86.7918 590.627,-161.911 810,-108 810.726,-107.822 811.456,-107.631 812.188,-107.428"/>
<polygon fill="black" stroke="black" points="813.318,-110.741 821.709,-104.272 811.115,-104.097 813.318,-110.741"/>
<g id="a_edge17&#45;headlabel"><a xlink:href="dir_000022_000004.html" target="_top" xlink:title="10">
<text text-anchor="middle" x="810.8" y="-112.067" font-family="Helvetica,sans-Serif" font-size="10.00">10</text>
</a>
</g>
</g>
<!-- dir_28b153d6e339220c154f2c2289255175&#45;&gt;dir_cf06ad005f4a0bb398ae2b383d393f73 -->
<g id="edge18" class="edge"><title>dir_28b153d6e339220c154f2c2289255175&#45;&gt;dir_cf06ad005f4a0bb398ae2b383d393f73</title>
<path fill="none" stroke="black" d="M294.133,-146.957C297.072,-145.809 300.063,-144.789 303,-144 395.392,-119.179 648.586,-154.847 732,-108 756.958,-93.9833 749.725,-76.2056 770,-56 774.841,-51.1752 780.358,-46.5014 785.931,-42.1923"/>
<polygon fill="black" stroke="black" points="788.115,-44.9306 794.066,-36.1649 783.947,-39.3063 788.115,-44.9306"/>
<g id="a_edge18&#45;headlabel"><a xlink:href="dir_000022_000006.html" target="_top" xlink:title="4">
<text text-anchor="middle" x="786.917" y="-46.8518" font-family="Helvetica,sans-Serif" font-size="10.00">4</text>
</a>
</g>
</g>
<!-- dir_a9cdd866ffdf05f9f717b12d7477f78f -->
<g id="node5" class="node"><title>dir_a9cdd866ffdf05f9f717b12d7477f78f</title>
<g id="a_node5"><a xlink:href="dir_a9cdd866ffdf05f9f717b12d7477f78f.html" target="_top" xlink:title="eigen2">
<polygon fill="white" stroke="black" points="78,-180 24,-180 24,-144 78,-144 78,-180"/>
<text text-anchor="middle" x="51" y="-159.5" font-family="Helvetica,sans-Serif" font-size="10.00">eigen2</text>
</a>
</g>
</g>
<!-- dir_640ebf88f37f0e1d2e6f6edffeef15b9 -->
<g id="node6" class="node"><title>dir_640ebf88f37f0e1d2e6f6edffeef15b9</title>
<g id="a_node6"><a xlink:href="dir_640ebf88f37f0e1d2e6f6edffeef15b9.html" target="_top" xlink:title="eigen3">
<polygon fill="white" stroke="black" points="614,-108 560,-108 560,-72 614,-72 614,-108"/>
<text text-anchor="middle" x="587" y="-87.5" font-family="Helvetica,sans-Serif" font-size="10.00">eigen3</text>
</a>
</g>
</g>
<!-- dir_a9cdd866ffdf05f9f717b12d7477f78f&#45;&gt;dir_640ebf88f37f0e1d2e6f6edffeef15b9 -->
<g id="edge16" class="edge"><title>dir_a9cdd866ffdf05f9f717b12d7477f78f&#45;&gt;dir_640ebf88f37f0e1d2e6f6edffeef15b9</title>
<path fill="none" stroke="black" d="M78.1506,-147.023C81.0866,-145.862 84.0717,-144.821 87,-144 255.056,-96.8747 465.61,-91.0317 549.756,-90.7323"/>
<polygon fill="black" stroke="black" points="549.85,-94.2323 559.846,-90.7215 549.842,-87.2323 549.85,-94.2323"/>
<g id="a_edge16&#45;headlabel"><a xlink:href="dir_000023_000024.html" target="_top" xlink:title="1">
<text text-anchor="middle" x="546.258" y="-94.5753" font-family="Helvetica,sans-Serif" font-size="10.00">1</text>
</a>
</g>
</g>
<!-- dir_a9cdd866ffdf05f9f717b12d7477f78f&#45;&gt;dir_538e77bc0b40b9c711ceab0a4f61c3fe -->
<g id="edge14" class="edge"><title>dir_a9cdd866ffdf05f9f717b12d7477f78f&#45;&gt;dir_538e77bc0b40b9c711ceab0a4f61c3fe</title>
<path fill="none" stroke="black" d="M78.1058,-146.854C81.0505,-145.726 84.05,-144.739 87,-144 399.087,-65.8167 496.771,-181.475 810,-108 810.728,-107.829 811.46,-107.645 812.193,-107.45"/>
<polygon fill="black" stroke="black" points="813.3,-110.77 821.727,-104.348 811.135,-104.114 813.3,-110.77"/>
<g id="a_edge14&#45;headlabel"><a xlink:href="dir_000023_000004.html" target="_top" xlink:title="17">
<text text-anchor="middle" x="810.76" y="-112.082" font-family="Helvetica,sans-Serif" font-size="10.00">17</text>
</a>
</g>
</g>
<!-- dir_a9cdd866ffdf05f9f717b12d7477f78f&#45;&gt;dir_cf06ad005f4a0bb398ae2b383d393f73 -->
<g id="edge15" class="edge"><title>dir_a9cdd866ffdf05f9f717b12d7477f78f&#45;&gt;dir_cf06ad005f4a0bb398ae2b383d393f73</title>
<path fill="none" stroke="black" d="M78.1192,-146.907C81.0613,-145.768 84.0565,-144.765 87,-144 202.546,-113.989 520.374,-168.987 623,-108 646.531,-94.0166 633.611,-71.7468 656,-56 688.534,-33.1183 732.846,-24.0929 767.358,-20.6662"/>
<polygon fill="black" stroke="black" points="768.067,-24.1182 777.73,-19.7734 767.466,-17.144 768.067,-24.1182"/>
<g id="a_edge15&#45;headlabel"><a xlink:href="dir_000023_000006.html" target="_top" xlink:title="11">
<text text-anchor="middle" x="764.729" y="-24.7553" font-family="Helvetica,sans-Serif" font-size="10.00">11</text>
</a>
</g>
</g>
<!-- dir_640ebf88f37f0e1d2e6f6edffeef15b9&#45;&gt;dir_538e77bc0b40b9c711ceab0a4f61c3fe -->
<g id="edge19" class="edge"><title>dir_640ebf88f37f0e1d2e6f6edffeef15b9&#45;&gt;dir_538e77bc0b40b9c711ceab0a4f61c3fe</title>
<path fill="none" stroke="black" d="M614.121,-90C680.01,-90 745.898,-90 811.787,-90"/>
<polygon fill="black" stroke="black" points="811.934,-93.5001 821.934,-90 811.934,-86.5001 811.934,-93.5001"/>
<g id="a_edge19&#45;headlabel"><a xlink:href="dir_000024_000004.html" target="_top" xlink:title="18">
<text text-anchor="middle" x="808.339" y="-93.8393" font-family="Helvetica,sans-Serif" font-size="10.00">18</text>
</a>
</g>
</g>
<!-- dir_640ebf88f37f0e1d2e6f6edffeef15b9&#45;&gt;dir_cf06ad005f4a0bb398ae2b383d393f73 -->
<g id="edge20" class="edge"><title>dir_640ebf88f37f0e1d2e6f6edffeef15b9&#45;&gt;dir_cf06ad005f4a0bb398ae2b383d393f73</title>
<path fill="none" stroke="black" d="M604.478,-71.7925C611.315,-65.9495 619.542,-59.9154 628,-56 672.431,-35.4314 727.697,-26.2962 767.689,-22.2395"/>
<polygon fill="black" stroke="black" points="768.14,-25.7126 777.768,-21.2913 767.484,-18.7434 768.14,-25.7126"/>
<g id="a_edge20&#45;headlabel"><a xlink:href="dir_000024_000006.html" target="_top" xlink:title="11">
<text text-anchor="middle" x="764.827" y="-26.376" font-family="Helvetica,sans-Serif" font-size="10.00">11</text>
</a>
</g>
</g>
<!-- dir_c13015ee7992d77baa6c52d880cf5e5e -->
<g id="node7" class="node"><title>dir_c13015ee7992d77baa6c52d880cf5e5e</title>
<g id="a_node7"><a xlink:href="dir_c13015ee7992d77baa6c52d880cf5e5e.html" target="_top" xlink:title="gmm">
<polygon fill="white" stroke="black" points="366,-180 312,-180 312,-144 366,-144 366,-180"/>
<text text-anchor="middle" x="339" y="-159.5" font-family="Helvetica,sans-Serif" font-size="10.00">gmm</text>
</a>
</g>
</g>
<!-- dir_c13015ee7992d77baa6c52d880cf5e5e&#45;&gt;dir_538e77bc0b40b9c711ceab0a4f61c3fe -->
<g id="edge6" class="edge"><title>dir_c13015ee7992d77baa6c52d880cf5e5e&#45;&gt;dir_538e77bc0b40b9c711ceab0a4f61c3fe</title>
<path fill="none" stroke="black" d="M366.132,-146.954C369.071,-145.806 372.062,-144.787 375,-144 562.38,-93.7764 621.885,-155.397 810,-108 810.725,-107.817 811.454,-107.622 812.185,-107.417"/>
<polygon fill="black" stroke="black" points="813.328,-110.725 821.698,-104.23 811.104,-104.088 813.328,-110.725"/>
<g id="a_edge6&#45;headlabel"><a xlink:href="dir_000017_000004.html" target="_top" xlink:title="3">
<text text-anchor="middle" x="810.821" y="-112.059" font-family="Helvetica,sans-Serif" font-size="10.00">3</text>
</a>
</g>
</g>
<!-- dir_c13015ee7992d77baa6c52d880cf5e5e&#45;&gt;dir_cf06ad005f4a0bb398ae2b383d393f73 -->
<g id="edge7" class="edge"><title>dir_c13015ee7992d77baa6c52d880cf5e5e&#45;&gt;dir_cf06ad005f4a0bb398ae2b383d393f73</title>
<path fill="none" stroke="black" d="M366.138,-146.979C369.077,-145.826 372.066,-144.8 375,-144 460.041,-120.827 695.825,-155.613 770,-108 792.152,-93.7805 805.726,-66.3104 813.242,-45.6319"/>
<polygon fill="black" stroke="black" points="816.573,-46.7082 816.456,-36.114 809.941,-44.4684 816.573,-46.7082"/>
<g id="a_edge7&#45;headlabel"><a xlink:href="dir_000017_000006.html" target="_top" xlink:title="2">
<text text-anchor="middle" x="818.113" y="-48.5223" font-family="Helvetica,sans-Serif" font-size="10.00">2</text>
</a>
</g>
</g>
<!-- dir_2673c772ecc4cfb56683c2e97b4cf0f9 -->
<g id="node8" class="node"><title>dir_2673c772ecc4cfb56683c2e97b4cf0f9</title>
<g id="a_node8"><a xlink:href="dir_2673c772ecc4cfb56683c2e97b4cf0f9.html" target="_top" xlink:title="mtl4">
<polygon fill="white" stroke="black" points="582,-180 528,-180 528,-144 582,-144 582,-180"/>
<text text-anchor="middle" x="555" y="-159.5" font-family="Helvetica,sans-Serif" font-size="10.00">mtl4</text>
</a>
</g>
</g>
<!-- dir_2673c772ecc4cfb56683c2e97b4cf0f9&#45;&gt;dir_538e77bc0b40b9c711ceab0a4f61c3fe -->
<g id="edge21" class="edge"><title>dir_2673c772ecc4cfb56683c2e97b4cf0f9&#45;&gt;dir_538e77bc0b40b9c711ceab0a4f61c3fe</title>
<path fill="none" stroke="black" d="M582.202,-147.195C585.128,-146.001 588.096,-144.905 591,-144 685.174,-114.657 715.395,-135.922 810,-108 810.717,-107.788 811.439,-107.567 812.163,-107.336"/>
<polygon fill="black" stroke="black" points="813.39,-110.615 821.619,-103.941 811.025,-104.027 813.39,-110.615"/>
<g id="a_edge21&#45;headlabel"><a xlink:href="dir_000018_000004.html" target="_top" xlink:title="2">
<text text-anchor="middle" x="810.967" y="-112.002" font-family="Helvetica,sans-Serif" font-size="10.00">2</text>
</a>
</g>
</g>
<!-- dir_2673c772ecc4cfb56683c2e97b4cf0f9&#45;&gt;dir_cf06ad005f4a0bb398ae2b383d393f73 -->
<g id="edge22" class="edge"><title>dir_2673c772ecc4cfb56683c2e97b4cf0f9&#45;&gt;dir_cf06ad005f4a0bb398ae2b383d393f73</title>
<path fill="none" stroke="black" d="M582.154,-147.035C585.089,-145.872 588.073,-144.827 591,-144 661.351,-124.119 869.217,-162.449 918,-108 933.422,-90.787 931.11,-75.0326 918,-56 907.829,-41.2346 890.916,-32.3575 874.036,-27.022"/>
<polygon fill="black" stroke="black" points="874.725,-23.5808 864.153,-24.2721 872.849,-30.3246 874.725,-23.5808"/>
<g id="a_edge22&#45;headlabel"><a xlink:href="dir_000018_000006.html" target="_top" xlink:title="2">
<text text-anchor="middle" x="878.949" y="-19.3089" font-family="Helvetica,sans-Serif" font-size="10.00">2</text>
</a>
</g>
</g>
<!-- dir_2f8be4bbe6930888dce119135d3c88ad -->
<g id="node9" class="node"><title>dir_2f8be4bbe6930888dce119135d3c88ad</title>
<g id="a_node9"><a xlink:href="dir_2f8be4bbe6930888dce119135d3c88ad.html" target="_top" xlink:title="STL">
<polygon fill="white" stroke="black" points="510,-180 456,-180 456,-144 510,-144 510,-180"/>
<text text-anchor="middle" x="483" y="-159.5" font-family="Helvetica,sans-Serif" font-size="10.00">STL</text>
</a>
</g>
</g>
<!-- dir_2f8be4bbe6930888dce119135d3c88ad&#45;&gt;dir_538e77bc0b40b9c711ceab0a4f61c3fe -->
<g id="edge8" class="edge"><title>dir_2f8be4bbe6930888dce119135d3c88ad&#45;&gt;dir_538e77bc0b40b9c711ceab0a4f61c3fe</title>
<path fill="none" stroke="black" d="M510.366,-143.894C635.245,-107.786 675.424,-142.359 801,-108 804.74,-106.977 808.587,-105.658 812.416,-104.208"/>
<polygon fill="black" stroke="black" points="813.854,-107.403 821.829,-100.428 811.245,-100.907 813.854,-107.403"/>
<g id="a_edge8&#45;headlabel"><a xlink:href="dir_000019_000004.html" target="_top" xlink:title="1">
<text text-anchor="middle" x="811.576" y="-108.877" font-family="Helvetica,sans-Serif" font-size="10.00">1</text>
</a>
</g>
</g>
<!-- dir_2f8be4bbe6930888dce119135d3c88ad&#45;&gt;dir_cf06ad005f4a0bb398ae2b383d393f73 -->
<g id="edge9" class="edge"><title>dir_2f8be4bbe6930888dce119135d3c88ad&#45;&gt;dir_cf06ad005f4a0bb398ae2b383d393f73</title>
<path fill="none" stroke="black" d="M510.144,-147.001C513.082,-145.844 516.069,-144.81 519,-144 597.773,-122.232 830.112,-168.551 885,-108 900.522,-90.8768 896.55,-76.0182 885,-56 881.801,-50.4555 877.419,-45.6671 872.437,-41.5505"/>
<polygon fill="black" stroke="black" points="874.359,-38.6215 864.197,-35.6225 870.271,-44.3038 874.359,-38.6215"/>
<g id="a_edge9&#45;headlabel"><a xlink:href="dir_000019_000006.html" target="_top" xlink:title="3">
<text text-anchor="middle" x="878.935" y="-35.916" font-family="Helvetica,sans-Serif" font-size="10.00">3</text>
</a>
</g>
</g>
<!-- dir_b9a32a858f084018a07412dffac67cac -->
<g id="node10" class="node"><title>dir_b9a32a858f084018a07412dffac67cac</title>
<g id="a_node10"><a xlink:href="dir_b9a32a858f084018a07412dffac67cac.html" target="_top" xlink:title="tensors">
<polygon fill="white" stroke="black" points="654,-180 600,-180 600,-144 654,-144 654,-180"/>
<text text-anchor="middle" x="627" y="-159.5" font-family="Helvetica,sans-Serif" font-size="10.00">tensors</text>
</a>
</g>
</g>
<!-- dir_b9a32a858f084018a07412dffac67cac&#45;&gt;dir_538e77bc0b40b9c711ceab0a4f61c3fe -->
<g id="edge23" class="edge"><title>dir_b9a32a858f084018a07412dffac67cac&#45;&gt;dir_538e77bc0b40b9c711ceab0a4f61c3fe</title>
<path fill="none" stroke="black" d="M654.278,-147.425C657.189,-146.185 660.134,-145.016 663,-144 726.398,-121.526 746.271,-129.517 810,-108 810.857,-107.711 811.722,-107.41 812.591,-107.1"/>
<polygon fill="black" stroke="black" points="813.884,-110.353 821.958,-103.493 811.368,-103.82 813.884,-110.353"/>
<g id="a_edge23&#45;headlabel"><a xlink:href="dir_000025_000004.html" target="_top" xlink:title="3">
<text text-anchor="middle" x="811.549" y="-111.794" font-family="Helvetica,sans-Serif" font-size="10.00">3</text>
</a>
</g>
</g>
<!-- dir_b9a32a858f084018a07412dffac67cac&#45;&gt;dir_cf06ad005f4a0bb398ae2b383d393f73 -->
<g id="edge24" class="edge"><title>dir_b9a32a858f084018a07412dffac67cac&#45;&gt;dir_cf06ad005f4a0bb398ae2b383d393f73</title>
<path fill="none" stroke="black" d="M654.165,-147.073C657.098,-145.903 660.079,-144.845 663,-144 726.015,-125.763 912.534,-157.134 956,-108 971.313,-90.6902 970.017,-74.3753 956,-56 945.849,-42.6919 907.534,-32.9928 874.305,-26.8719"/>
<polygon fill="black" stroke="black" points="874.648,-23.3785 864.192,-25.0872 873.431,-30.272 874.648,-23.3785"/>
<g id="a_edge24&#45;headlabel"><a xlink:href="dir_000025_000006.html" target="_top" xlink:title="7">
<text text-anchor="middle" x="878.681" y="-18.7071" font-family="Helvetica,sans-Serif" font-size="10.00">7</text>
</a>
</g>
</g>
<!-- dir_23167c76cb87786fcadb68a82acce10c -->
<g id="node11" class="node"><title>dir_23167c76cb87786fcadb68a82acce10c</title>
<g id="a_node11"><a xlink:href="dir_23167c76cb87786fcadb68a82acce10c.html" target="_top" xlink:title="tvmet">
<polygon fill="white" stroke="black" points="726,-180 672,-180 672,-144 726,-144 726,-180"/>
<text text-anchor="middle" x="699" y="-159.5" font-family="Helvetica,sans-Serif" font-size="10.00">tvmet</text>
</a>
</g>
</g>
<!-- dir_23167c76cb87786fcadb68a82acce10c&#45;&gt;dir_538e77bc0b40b9c711ceab0a4f61c3fe -->
<g id="edge25" class="edge"><title>dir_23167c76cb87786fcadb68a82acce10c&#45;&gt;dir_538e77bc0b40b9c711ceab0a4f61c3fe</title>
<path fill="none" stroke="black" d="M726.119,-148.173C729.114,-146.762 732.121,-145.349 735,-144 760.94,-131.845 790.247,-118.223 812.65,-107.832"/>
<polygon fill="black" stroke="black" points="814.199,-110.972 821.799,-103.591 811.254,-104.621 814.199,-110.972"/>
<g id="a_edge25&#45;headlabel"><a xlink:href="dir_000020_000004.html" target="_top" xlink:title="4">
<text text-anchor="middle" x="812.132" y="-112.56" font-family="Helvetica,sans-Serif" font-size="10.00">4</text>
</a>
</g>
</g>
<!-- dir_23167c76cb87786fcadb68a82acce10c&#45;&gt;dir_cf06ad005f4a0bb398ae2b383d393f73 -->
<g id="edge26" class="edge"><title>dir_23167c76cb87786fcadb68a82acce10c&#45;&gt;dir_cf06ad005f4a0bb398ae2b383d393f73</title>
<path fill="none" stroke="black" d="M726.179,-147.121C729.109,-145.941 732.085,-144.869 735,-144 790.688,-127.403 955.844,-151.826 994,-108 1009.18,-90.5693 1008.53,-73.9699 994,-56 979.097,-37.5721 919.29,-27.916 874.136,-23.1526"/>
<polygon fill="black" stroke="black" points="874.467,-19.6684 864.168,-22.1541 873.769,-26.6335 874.467,-19.6684"/>
<g id="a_edge26&#45;headlabel"><a xlink:href="dir_000020_000006.html" target="_top" xlink:title="2">
<text text-anchor="middle" x="878.327" y="-14.7014" font-family="Helvetica,sans-Serif" font-size="10.00">2</text>
</a>
</g>
</g>
<!-- dir_febfba9f4be167b6bf1f62ae8203ddc3 -->
<g id="node12" class="node"><title>dir_febfba9f4be167b6bf1f62ae8203ddc3</title>
<g id="a_node12"><a xlink:href="dir_febfba9f4be167b6bf1f62ae8203ddc3.html" target="_top" xlink:title="ublas">
<polygon fill="white" stroke="black" points="798,-180 744,-180 744,-144 798,-144 798,-180"/>
<text text-anchor="middle" x="771" y="-159.5" font-family="Helvetica,sans-Serif" font-size="10.00">ublas</text>
</a>
</g>
</g>
<!-- dir_febfba9f4be167b6bf1f62ae8203ddc3&#45;&gt;dir_538e77bc0b40b9c711ceab0a4f61c3fe -->
<g id="edge12" class="edge"><title>dir_febfba9f4be167b6bf1f62ae8203ddc3&#45;&gt;dir_538e77bc0b40b9c711ceab0a4f61c3fe</title>
<path fill="none" stroke="black" d="M790.281,-143.697C799.915,-135.05 811.729,-124.449 822.227,-115.027"/>
<polygon fill="black" stroke="black" points="824.836,-117.388 829.941,-108.104 820.161,-112.179 824.836,-117.388"/>
<g id="a_edge12&#45;headlabel"><a xlink:href="dir_000021_000004.html" target="_top" xlink:title="1">
<text text-anchor="middle" x="824.057" y="-119.402" font-family="Helvetica,sans-Serif" font-size="10.00">1</text>
</a>
</g>
</g>
<!-- dir_febfba9f4be167b6bf1f62ae8203ddc3&#45;&gt;dir_cf06ad005f4a0bb398ae2b383d393f73 -->
<g id="edge13" class="edge"><title>dir_febfba9f4be167b6bf1f62ae8203ddc3&#45;&gt;dir_cf06ad005f4a0bb398ae2b383d393f73</title>
<path fill="none" stroke="black" d="M798.346,-159.668C859.182,-156.072 1002.67,-143.89 1032,-108 1046.63,-90.1056 1046.86,-73.6971 1032,-56 1012.24,-32.4743 930.102,-23.9036 874.33,-20.7833"/>
<polygon fill="black" stroke="black" points="874.411,-17.283 864.244,-20.2618 874.05,-24.2736 874.411,-17.283"/>
<g id="a_edge13&#45;headlabel"><a xlink:href="dir_000021_000006.html" target="_top" xlink:title="2">
<text text-anchor="middle" x="878.148" y="-12.133" font-family="Helvetica,sans-Serif" font-size="10.00">2</text>
</a>
</g>
</g>
<!-- dir_538e77bc0b40b9c711ceab0a4f61c3fe&#45;&gt;dir_f2299b681d83c6e1af09e81aec8283a7 -->
<g id="edge3" class="edge"><title>dir_538e77bc0b40b9c711ceab0a4f61c3fe&#45;&gt;dir_f2299b681d83c6e1af09e81aec8283a7</title>
<path fill="none" stroke="black" d="M821.683,-104.171C817.826,-105.656 813.86,-106.994 810,-108 656.333,-148.05 605.341,-102.691 448.159,-144.275"/>
<polygon fill="black" stroke="black" points="446.874,-140.998 438.145,-147.003 448.713,-147.752 446.874,-140.998"/>
<g id="a_edge3&#45;headlabel"><a xlink:href="dir_000004_000011.html" target="_top" xlink:title="20">
<text text-anchor="middle" x="449.596" y="-134.814" font-family="Helvetica,sans-Serif" font-size="10.00">20</text>
</a>
</g>
</g>
<!-- dir_538e77bc0b40b9c711ceab0a4f61c3fe&#45;&gt;dir_2f8be4bbe6930888dce119135d3c88ad -->
<g id="edge4" class="edge"><title>dir_538e77bc0b40b9c711ceab0a4f61c3fe&#45;&gt;dir_2f8be4bbe6930888dce119135d3c88ad</title>
<path fill="none" stroke="black" d="M821.578,-107.254C820.715,-107.517 819.855,-107.766 819,-108 693.301,-142.393 653.167,-107.719 528,-144 525.262,-144.794 522.471,-145.773 519.678,-146.858"/>
<polygon fill="black" stroke="black" points="518.104,-143.723 510.25,-150.833 520.824,-150.173 518.104,-143.723"/>
<g id="a_edge4&#45;headlabel"><a xlink:href="dir_000004_000019.html" target="_top" xlink:title="20">
<text text-anchor="middle" x="520.313" y="-137.21" font-family="Helvetica,sans-Serif" font-size="10.00">20</text>
</a>
</g>
</g>
<!-- dir_538e77bc0b40b9c711ceab0a4f61c3fe&#45;&gt;dir_cf06ad005f4a0bb398ae2b383d393f73 -->
<g id="edge5" class="edge"><title>dir_538e77bc0b40b9c711ceab0a4f61c3fe&#45;&gt;dir_cf06ad005f4a0bb398ae2b383d393f73</title>
<path fill="none" stroke="black" d="M842.079,-71.6966C838.925,-63.8132 835.122,-54.3042 831.619,-45.5464"/>
<polygon fill="black" stroke="black" points="834.805,-44.0892 827.842,-36.1043 828.306,-46.689 834.805,-44.0892"/>
<g id="a_edge5&#45;headlabel"><a xlink:href="dir_000004_000006.html" target="_top" xlink:title="81">
<text text-anchor="middle" x="838.777" y="-43.8723" font-family="Helvetica,sans-Serif" font-size="10.00">81</text>
</a>
</g>
</g>
</g>
</svg>
