<?xml version="1.0" encoding="UTF-8" standalone="no"?>
<!DOCTYPE svg PUBLIC "-//W3C//DTD SVG 1.1//EN"
 "http://www.w3.org/Graphics/SVG/1.1/DTD/svg11.dtd">
<!-- Generated by graphviz version 2.38.0 (20140413.2041)
 -->
<!-- Title: test_dontalign Pages: 1 -->
<svg width="715pt" height="78pt"
 viewBox="0.00 0.00 715.00 77.50" xmlns="http://www.w3.org/2000/svg" xmlns:xlink="http://www.w3.org/1999/xlink">
<g id="graph0" class="graph" transform="scale(1 1) rotate(0) translate(4 73.5)">
<title>test_dontalign</title>
<!-- Node7 -->
<g id="node1" class="node"><title>Node7</title>
<polygon fill="#bfbfbf" stroke="black" points="0,-22.5 0,-41.5 85,-41.5 85,-22.5 0,-22.5"/>
<text text-anchor="middle" x="42.5" y="-29.5" font-family="Helvetica,sans-Serif" font-size="10.00">test_dontalign</text>
</g>
<!-- Node8 -->
<g id="node2" class="node"><title>Node8</title>
<g id="a_node2"><a xlink:href="dontalign_8cpp.html#a042977202eda4590a0a85d5d770d7c01" target="_top" xlink:title="dontalign">
<polygon fill="none" stroke="black" points="121,-22.5 121,-41.5 182,-41.5 182,-22.5 121,-22.5"/>
<text text-anchor="middle" x="151.5" y="-29.5" font-family="Helvetica,sans-Serif" font-size="10.00">dontalign</text>
</a>
</g>
</g>
<!-- Node7&#45;&gt;Node8 -->
<g id="edge1" class="edge"><title>Node7&#45;&gt;Node8</title>
<path fill="none" stroke="midnightblue" d="M85.1754,-32C93.5097,-32 102.247,-32 110.522,-32"/>
<polygon fill="midnightblue" stroke="midnightblue" points="110.692,-35.5001 120.692,-32 110.692,-28.5001 110.692,-35.5001"/>
</g>
<!-- Node9 -->
<g id="node3" class="node"><title>Node9</title>
<g id="a_node3"><a xlink:href="namespaceEigen_1_1internal.html#a0a7685afbcd966504733314551bb1c0f" target="_top" xlink:title="Eigen::internal::aligned\l_delete">
<polygon fill="none" stroke="black" points="218,-39 218,-69 343,-69 343,-39 218,-39"/>
<text text-anchor="start" x="226" y="-57" font-family="Helvetica,sans-Serif" font-size="10.00">Eigen::internal::aligned</text>
<text text-anchor="middle" x="280.5" y="-46" font-family="Helvetica,sans-Serif" font-size="10.00">_delete</text>
</a>
</g>
</g>
<!-- Node8&#45;&gt;Node9 -->
<g id="edge2" class="edge"><title>Node8&#45;&gt;Node9</title>
<path fill="none" stroke="midnightblue" d="M182.276,-37.158C190.137,-38.5197 198.969,-40.0497 208.021,-41.6177"/>
<polygon fill="midnightblue" stroke="midnightblue" points="207.443,-45.0697 217.894,-43.328 208.638,-38.1724 207.443,-45.0697"/>
</g>
<!-- Node12 -->
<g id="node6" class="node"><title>Node12</title>
<g id="a_node6"><a xlink:href="ArrayCwiseUnaryOps_8h.html#aa1e484838873e960b8c8ba7e066ba837" target="_top" xlink:title="square">
<polygon fill="none" stroke="black" points="255.5,-0.5 255.5,-19.5 305.5,-19.5 305.5,-0.5 255.5,-0.5"/>
<text text-anchor="middle" x="280.5" y="-7.5" font-family="Helvetica,sans-Serif" font-size="10.00">square</text>
</a>
</g>
</g>
<!-- Node8&#45;&gt;Node12 -->
<g id="edge5" class="edge"><title>Node8&#45;&gt;Node12</title>
<path fill="none" stroke="midnightblue" d="M182.276,-26.842C201.168,-23.5693 225.671,-19.3247 245.352,-15.9155"/>
<polygon fill="midnightblue" stroke="midnightblue" points="246.179,-19.3243 255.435,-14.1688 244.984,-12.4271 246.179,-19.3243"/>
</g>
<!-- Node10 -->
<g id="node4" class="node"><title>Node10</title>
<g id="a_node4"><a xlink:href="namespaceEigen_1_1internal.html#adad153f95799bcc02d86235418c0a73f" target="_top" xlink:title="Eigen::internal::aligned_free">
<polygon fill="none" stroke="black" points="379,-44.5 379,-63.5 528,-63.5 528,-44.5 379,-44.5"/>
<text text-anchor="middle" x="453.5" y="-51.5" font-family="Helvetica,sans-Serif" font-size="10.00">Eigen::internal::aligned_free</text>
</a>
</g>
</g>
<!-- Node9&#45;&gt;Node10 -->
<g id="edge3" class="edge"><title>Node9&#45;&gt;Node10</title>
<path fill="none" stroke="midnightblue" d="M343.235,-54C351.555,-54 360.201,-54 368.822,-54"/>
<polygon fill="midnightblue" stroke="midnightblue" points="368.911,-57.5001 378.911,-54 368.911,-50.5001 368.911,-57.5001"/>
</g>
<!-- Node11 -->
<g id="node5" class="node"><title>Node11</title>
<g id="a_node5"><a xlink:href="namespaceEigen_1_1internal.html#a2a2e468d0c36a0b52ab8e22efdc6ca67" target="_top" xlink:title="Eigen::internal::handmade\l_aligned_free">
<polygon fill="none" stroke="black" points="564,-39 564,-69 707,-69 707,-39 564,-39"/>
<text text-anchor="start" x="572" y="-57" font-family="Helvetica,sans-Serif" font-size="10.00">Eigen::internal::handmade</text>
<text text-anchor="middle" x="635.5" y="-46" font-family="Helvetica,sans-Serif" font-size="10.00">_aligned_free</text>
</a>
</g>
</g>
<!-- Node10&#45;&gt;Node11 -->
<g id="edge4" class="edge"><title>Node10&#45;&gt;Node11</title>
<path fill="none" stroke="midnightblue" d="M528.232,-54C536.584,-54 545.129,-54 553.567,-54"/>
<polygon fill="midnightblue" stroke="midnightblue" points="553.786,-57.5001 563.786,-54 553.786,-50.5001 553.786,-57.5001"/>
</g>
</g>
</svg>
