<?xml version="1.0" encoding="UTF-8" standalone="no"?>
<!DOCTYPE svg PUBLIC "-//W3C//DTD SVG 1.1//EN"
 "http://www.w3.org/Graphics/SVG/1.1/DTD/svg11.dtd">
<!-- Generated by graphviz version 2.38.0 (20140413.2041)
 -->
<!-- Title: bug_854 Pages: 1 -->
<!--zoomable 644 -->
<svg id="main" version="1.1" xmlns="http://www.w3.org/2000/svg" xmlns:xlink="http://www.w3.org/1999/xlink" xml:space="preserve" onload="init(evt)">
<style type="text/css"><![CDATA[
.edge:hover path { stroke: red; }
.edge:hover polygon { stroke: red; fill: red; }
]]></style>
<script type="text/javascript"><![CDATA[
var edges = document.getElementsByTagName('g');
if (edges && edges.length) {
  for (var i=0;i<edges.length;i++) {
    if (edges[i].id.substr(0,4)=='edge') {
      edges[i].setAttribute('class','edge');
    }
  }
}
]]></script>
        <defs>
                <circle id="rim" cx="0" cy="0" r="7"/>
                <circle id="rim2" cx="0" cy="0" r="3.5"/>
                <g id="zoomPlus">
                        <use xlink:href="#rim" fill="#404040">
                                <set attributeName="fill" to="#808080" begin="zoomplus.mouseover" end="zoomplus.mouseout"/>
                        </use>
                        <path d="M-4,0h8M0,-4v8" fill="none" stroke="white" stroke-width="1.5" pointer-events="none"/>
                </g>
                <g id="zoomMin">
                        <use xlink:href="#rim" fill="#404040">
                                <set attributeName="fill" to="#808080" begin="zoomminus.mouseover" end="zoomminus.mouseout"/>
                        </use>
                        <path d="M-4,0h8" fill="none" stroke="white" stroke-width="1.5" pointer-events="none"/>
                </g>
                <g id="dirArrow">
                        <path fill="none" stroke="white" stroke-width="1.5" d="M0,-3.0v7 M-2.5,-0.5L0,-3.0L2.5,-0.5"/>
                </g>
               <g id="resetDef">
                       <use xlink:href="#rim2" fill="#404040">
                               <set attributeName="fill" to="#808080" begin="reset.mouseover" end="reset.mouseout"/>
                       </use>
               </g>
        </defs>

<script type="text/javascript">
var viewWidth = 914;
var viewHeight = 644;
var sectionId = 'dynsection-4';
</script>
<script xlink:href="svgpan.js"/>
<svg id="graph" class="graph">
<g id="viewport">
<title>bug_854</title>
<!-- Node43 -->
<g id="node1" class="node"><title>Node43</title>
<polygon fill="#bfbfbf" stroke="black" points="0,-230.5 0,-249.5 58,-249.5 58,-230.5 0,-230.5"/>
<text text-anchor="middle" x="29" y="-237.5" font-family="Helvetica,sans-Serif" font-size="10.00">bug_854</text>
</g>
<!-- Node44 -->
<g id="node2" class="node"><title>Node44</title>
<g id="a_node2"><a xlink:href="eigensolver__selfadjoint_8cpp.html#a507481e3a562013d80e091ff8e3b206a" target="_top" xlink:title="selfadjointeigensolver\l_essential_check">
<polygon fill="none" stroke="black" points="94,-225 94,-255 214,-255 214,-225 94,-225"/>
<text text-anchor="start" x="102" y="-243" font-family="Helvetica,sans-Serif" font-size="10.00">selfadjointeigensolver</text>
<text text-anchor="middle" x="154" y="-232" font-family="Helvetica,sans-Serif" font-size="10.00">_essential_check</text>
</a>
</g>
</g>
<!-- Node43&#45;&gt;Node44 -->
<g id="edge1" class="edge"><title>Node43&#45;&gt;Node44</title>
<path fill="none" stroke="midnightblue" d="M58.2187,-240C65.9484,-240 74.682,-240 83.6417,-240"/>
<polygon fill="midnightblue" stroke="midnightblue" points="83.8123,-243.5 93.8122,-240 83.8122,-236.5 83.8123,-243.5"/>
</g>
<!-- Node45 -->
<g id="node3" class="node"><title>Node45</title>
<g id="a_node3"><a xlink:href="classEigen_1_1SelfAdjointEigenSolver.html#a40b0a68841d6176b1ab98743cc82bef4" target="_top" xlink:title="Computes eigendecomposition of given matrix using a closed&#45;form algorithm. ">
<polygon fill="none" stroke="black" points="250,-299 250,-329 406,-329 406,-299 250,-299"/>
<text text-anchor="start" x="258" y="-317" font-family="Helvetica,sans-Serif" font-size="10.00">Eigen::SelfAdjointEigenSolver</text>
<text text-anchor="middle" x="328" y="-306" font-family="Helvetica,sans-Serif" font-size="10.00">::computeDirect</text>
</a>
</g>
</g>
<!-- Node44&#45;&gt;Node45 -->
<g id="edge2" class="edge"><title>Node44&#45;&gt;Node45</title>
<path fill="none" stroke="midnightblue" d="M181.473,-255.128C200.23,-265.479 226.192,-279.072 250,-289 255.402,-291.252 261.083,-293.434 266.811,-295.507"/>
<polygon fill="midnightblue" stroke="midnightblue" points="265.858,-298.882 276.453,-298.888 268.174,-292.276 265.858,-298.882"/>
</g>
<!-- Node75 -->
<g id="node33" class="node"><title>Node75</title>
<g id="a_node33"><a xlink:href="classEigen_1_1SelfAdjointEigenSolver.html#a56bd59b85a6f6f00ff7bff307ad0e015" target="_top" xlink:title="Reports whether previous computation was successful. ">
<polygon fill="none" stroke="black" points="250,-250 250,-280 406,-280 406,-250 250,-250"/>
<text text-anchor="start" x="258" y="-268" font-family="Helvetica,sans-Serif" font-size="10.00">Eigen::SelfAdjointEigenSolver</text>
<text text-anchor="middle" x="328" y="-257" font-family="Helvetica,sans-Serif" font-size="10.00">::info</text>
</a>
</g>
</g>
<!-- Node44&#45;&gt;Node75 -->
<g id="edge36" class="edge"><title>Node44&#45;&gt;Node75</title>
<path fill="none" stroke="midnightblue" d="M214.193,-248.604C222.434,-249.801 231.041,-251.052 239.665,-252.306"/>
<polygon fill="midnightblue" stroke="midnightblue" points="239.378,-255.801 249.777,-253.776 240.385,-248.874 239.378,-255.801"/>
</g>
<!-- Node76 -->
<g id="node34" class="node"><title>Node76</title>
<g id="a_node34"><a xlink:href="classEigen_1_1SelfAdjointEigenSolver.html#a8efab27e82aa6aa0ae0c64739238c2e0" target="_top" xlink:title="Returns the eigenvalues of given matrix. ">
<polygon fill="none" stroke="black" points="250,-201 250,-231 406,-231 406,-201 250,-201"/>
<text text-anchor="start" x="258" y="-219" font-family="Helvetica,sans-Serif" font-size="10.00">Eigen::SelfAdjointEigenSolver</text>
<text text-anchor="middle" x="328" y="-208" font-family="Helvetica,sans-Serif" font-size="10.00">::eigenvalues</text>
</a>
</g>
</g>
<!-- Node44&#45;&gt;Node76 -->
<g id="edge37" class="edge"><title>Node44&#45;&gt;Node76</title>
<path fill="none" stroke="midnightblue" d="M214.193,-231.741C222.434,-230.591 231.041,-229.39 239.665,-228.186"/>
<polygon fill="midnightblue" stroke="midnightblue" points="240.357,-231.624 249.777,-226.775 239.389,-224.691 240.357,-231.624"/>
</g>
<!-- Node77 -->
<g id="node35" class="node"><title>Node77</title>
<g id="a_node35"><a xlink:href="classEigen_1_1SelfAdjointEigenSolver.html#a7b9f7e641fa46ac4c5f2371405c69b2b" target="_top" xlink:title="Returns the eigenvectors of given matrix. ">
<polygon fill="none" stroke="black" points="250,-152 250,-182 406,-182 406,-152 250,-152"/>
<text text-anchor="start" x="258" y="-170" font-family="Helvetica,sans-Serif" font-size="10.00">Eigen::SelfAdjointEigenSolver</text>
<text text-anchor="middle" x="328" y="-159" font-family="Helvetica,sans-Serif" font-size="10.00">::eigenvectors</text>
</a>
</g>
</g>
<!-- Node44&#45;&gt;Node77 -->
<g id="edge38" class="edge"><title>Node44&#45;&gt;Node77</title>
<path fill="none" stroke="midnightblue" d="M181.437,-224.783C200.177,-214.392 226.134,-200.787 250,-191 254.737,-189.058 259.691,-187.18 264.704,-185.389"/>
<polygon fill="midnightblue" stroke="midnightblue" points="266.062,-188.624 274.376,-182.057 263.781,-182.006 266.062,-188.624"/>
</g>
<!-- Node46 -->
<g id="node4" class="node"><title>Node46</title>
<g id="a_node4"><a xlink:href="namespaceEigen_1_1TensorSycl.html#a789ef14500d782279cc4bb95e6ba3dbd" target="_top" xlink:title="Eigen::TensorSycl::run">
<polygon fill="none" stroke="black" points="442,-536.5 442,-555.5 563,-555.5 563,-536.5 442,-536.5"/>
<text text-anchor="middle" x="502.5" y="-543.5" font-family="Helvetica,sans-Serif" font-size="10.00">Eigen::TensorSycl::run</text>
</a>
</g>
</g>
<!-- Node45&#45;&gt;Node46 -->
<g id="edge3" class="edge"><title>Node45&#45;&gt;Node46</title>
<path fill="none" stroke="midnightblue" d="M336.84,-329.215C353.678,-361.165 395.561,-436.835 442,-492 453.825,-506.047 469.22,-519.924 481.387,-530.093"/>
<polygon fill="midnightblue" stroke="midnightblue" points="479.256,-532.872 489.211,-536.498 483.69,-527.455 479.256,-532.872"/>
</g>
<!-- Node50 -->
<g id="node8" class="node"><title>Node50</title>
<g id="a_node8"><a xlink:href="ArrayCwiseUnaryOps_8h.html#a35560f7dbf19244fda7e463d14157c43" target="_top" xlink:title="abs">
<polygon fill="none" stroke="black" points="653.5,-392.5 653.5,-411.5 687.5,-411.5 687.5,-392.5 653.5,-392.5"/>
<text text-anchor="middle" x="670.5" y="-399.5" font-family="Helvetica,sans-Serif" font-size="10.00">abs</text>
</a>
</g>
</g>
<!-- Node45&#45;&gt;Node50 -->
<g id="edge7" class="edge"><title>Node45&#45;&gt;Node50</title>
<path fill="none" stroke="midnightblue" d="M387.147,-329.028C462.115,-348.403 589.289,-381.27 643.63,-395.314"/>
<polygon fill="midnightblue" stroke="midnightblue" points="642.933,-398.749 653.491,-397.862 644.685,-391.972 642.933,-398.749"/>
</g>
<!-- Node51 -->
<g id="node9" class="node"><title>Node51</title>
<g id="a_node9"><a xlink:href="Cwise__array__power__array_8cpp.html#aa9e3025f5efca2c2a39d785652f2d710" target="_top" xlink:title="e">
<polygon fill="none" stroke="black" points="488,-266.5 488,-285.5 517,-285.5 517,-266.5 488,-266.5"/>
<text text-anchor="middle" x="502.5" y="-273.5" font-family="Helvetica,sans-Serif" font-size="10.00">e</text>
</a>
</g>
</g>
<!-- Node45&#45;&gt;Node51 -->
<g id="edge8" class="edge"><title>Node45&#45;&gt;Node51</title>
<path fill="none" stroke="midnightblue" d="M397.177,-298.981C425.726,-292.692 457.041,-285.794 477.838,-281.213"/>
<polygon fill="midnightblue" stroke="midnightblue" points="478.671,-284.613 487.684,-279.043 477.165,-277.777 478.671,-284.613"/>
</g>
<!-- Node52 -->
<g id="node10" class="node"><title>Node52</title>
<g id="a_node10"><a xlink:href="ArrayCwiseUnaryOps_8h.html#a4921dbe62d034394f6fa7810e8711356" target="_top" xlink:title="abs2">
<polygon fill="none" stroke="black" points="482.5,-228.5 482.5,-247.5 522.5,-247.5 522.5,-228.5 482.5,-228.5"/>
<text text-anchor="middle" x="502.5" y="-235.5" font-family="Helvetica,sans-Serif" font-size="10.00">abs2</text>
</a>
</g>
</g>
<!-- Node45&#45;&gt;Node52 -->
<g id="edge9" class="edge"><title>Node45&#45;&gt;Node52</title>
<path fill="none" stroke="midnightblue" d="M384.867,-298.915C392.181,-296.067 399.415,-292.773 406,-289 424.575,-278.358 423.4,-267.597 442,-257 451.37,-251.661 462.44,-247.603 472.475,-244.636"/>
<polygon fill="midnightblue" stroke="midnightblue" points="473.708,-247.928 482.442,-241.932 471.875,-241.173 473.708,-247.928"/>
</g>
<!-- Node53 -->
<g id="node11" class="node"><title>Node53</title>
<g id="a_node11"><a xlink:href="namespacempfr.html#a4238bee86f75920532130abda801e7d0" target="_top" xlink:title="mpfr::hypot">
<polygon fill="none" stroke="black" points="466.5,-95.5 466.5,-114.5 538.5,-114.5 538.5,-95.5 466.5,-95.5"/>
<text text-anchor="middle" x="502.5" y="-102.5" font-family="Helvetica,sans-Serif" font-size="10.00">mpfr::hypot</text>
</a>
</g>
</g>
<!-- Node45&#45;&gt;Node53 -->
<g id="edge10" class="edge"><title>Node45&#45;&gt;Node53</title>
<path fill="none" stroke="midnightblue" d="M391.036,-298.816C396.41,-296.067 401.504,-292.825 406,-289 432.648,-266.333 425.906,-250.063 442,-219 459.367,-185.479 479.752,-146.501 491.59,-123.902"/>
<polygon fill="midnightblue" stroke="midnightblue" points="494.845,-125.231 496.386,-114.749 488.645,-121.982 494.845,-125.231"/>
</g>
<!-- Node59 -->
<g id="node17" class="node"><title>Node59</title>
<g id="a_node17"><a xlink:href="level1__real__impl_8h.html#ae381d5286bacccc54459c8ae7dc50202" target="_top" xlink:title="rot">
<polygon fill="none" stroke="black" points="487.5,-304.5 487.5,-323.5 517.5,-323.5 517.5,-304.5 487.5,-304.5"/>
<text text-anchor="middle" x="502.5" y="-311.5" font-family="Helvetica,sans-Serif" font-size="10.00">rot</text>
</a>
</g>
</g>
<!-- Node45&#45;&gt;Node59 -->
<g id="edge17" class="edge"><title>Node45&#45;&gt;Node59</title>
<path fill="none" stroke="midnightblue" d="M406.168,-314C431.844,-314 458.604,-314 477.213,-314"/>
<polygon fill="midnightblue" stroke="midnightblue" points="477.411,-317.5 487.411,-314 477.411,-310.5 477.411,-317.5"/>
</g>
<!-- Node61 -->
<g id="node19" class="node"><title>Node61</title>
<g id="a_node19"><a xlink:href="classEigen_1_1JacobiRotation.html#af1c132146bc93a872b799bc57d9ced50" target="_top" xlink:title="Eigen::JacobiRotation::c">
<polygon fill="none" stroke="black" points="778.5,-468.5 778.5,-487.5 905.5,-487.5 905.5,-468.5 778.5,-468.5"/>
<text text-anchor="middle" x="842" y="-475.5" font-family="Helvetica,sans-Serif" font-size="10.00">Eigen::JacobiRotation::c</text>
</a>
</g>
</g>
<!-- Node45&#45;&gt;Node61 -->
<g id="edge35" class="edge"><title>Node45&#45;&gt;Node61</title>
<path fill="none" stroke="midnightblue" d="M342.724,-329.284C362.525,-350.351 401.23,-387.973 442,-408 547.438,-459.794 685.148,-473.8 768.129,-477.28"/>
<polygon fill="midnightblue" stroke="midnightblue" points="768.095,-480.781 778.221,-477.662 768.36,-473.786 768.095,-480.781"/>
</g>
<!-- Node62 -->
<g id="node20" class="node"><title>Node62</title>
<g id="a_node20"><a xlink:href="classEigen_1_1JacobiRotation.html#a2c7a08e2d27875fd770d489317746969" target="_top" xlink:title="Eigen::JacobiRotation::s">
<polygon fill="none" stroke="black" points="778.5,-430.5 778.5,-449.5 905.5,-449.5 905.5,-430.5 778.5,-430.5"/>
<text text-anchor="middle" x="842" y="-437.5" font-family="Helvetica,sans-Serif" font-size="10.00">Eigen::JacobiRotation::s</text>
</a>
</g>
</g>
<!-- Node45&#45;&gt;Node62 -->
<g id="edge34" class="edge"><title>Node45&#45;&gt;Node62</title>
<path fill="none" stroke="midnightblue" d="M353.89,-329.056C376.339,-342.184 410.561,-361.095 442,-374 509.382,-401.658 527.4,-407.63 599,-421 655.274,-431.508 719.964,-436.215 768.295,-438.317"/>
<polygon fill="midnightblue" stroke="midnightblue" points="768.216,-441.817 778.351,-438.727 768.502,-434.823 768.216,-441.817"/>
</g>
<!-- Node74 -->
<g id="node32" class="node"><title>Node74</title>
<g id="a_node32"><a xlink:href="classEigen_1_1JacobiRotation.html#af73c81e9cc139b7e0d877ce553b02ec0" target="_top" xlink:title="Eigen::JacobiRotation\l::makeGivens">
<polygon fill="none" stroke="black" points="444.5,-46 444.5,-76 560.5,-76 560.5,-46 444.5,-46"/>
<text text-anchor="start" x="452.5" y="-64" font-family="Helvetica,sans-Serif" font-size="10.00">Eigen::JacobiRotation</text>
<text text-anchor="middle" x="502.5" y="-53" font-family="Helvetica,sans-Serif" font-size="10.00">::makeGivens</text>
</a>
</g>
</g>
<!-- Node45&#45;&gt;Node74 -->
<g id="edge33" class="edge"><title>Node45&#45;&gt;Node74</title>
<path fill="none" stroke="midnightblue" d="M394.5,-298.8C398.768,-296.054 402.678,-292.817 406,-289 466.156,-219.882 384.793,-157.578 442,-86 442.962,-84.7965 443.992,-83.6502 445.08,-82.5583"/>
<polygon fill="midnightblue" stroke="midnightblue" points="447.453,-85.1406 453.001,-76.115 443.035,-79.7103 447.453,-85.1406"/>
</g>
<!-- Node47 -->
<g id="node5" class="node"><title>Node47</title>
<g id="a_node5"><a xlink:href="structEigen_1_1TensorEvaluator.html#ae188d806978166eb8cbffbd63c944fb3" target="_top" xlink:title="Eigen::TensorEvaluator\l::evalSubExprsIfNeeded">
<polygon fill="none" stroke="black" points="605.5,-605 605.5,-635 735.5,-635 735.5,-605 605.5,-605"/>
<text text-anchor="start" x="613.5" y="-623" font-family="Helvetica,sans-Serif" font-size="10.00">Eigen::TensorEvaluator</text>
<text text-anchor="middle" x="670.5" y="-612" font-family="Helvetica,sans-Serif" font-size="10.00">::evalSubExprsIfNeeded</text>
</a>
</g>
</g>
<!-- Node46&#45;&gt;Node47 -->
<g id="edge4" class="edge"><title>Node46&#45;&gt;Node47</title>
<path fill="none" stroke="midnightblue" d="M520.025,-555.653C538.77,-566.365 570.449,-583.753 599,-596 603.374,-597.876 607.948,-599.709 612.574,-601.473"/>
<polygon fill="midnightblue" stroke="midnightblue" points="611.501,-604.807 622.095,-604.986 613.925,-598.24 611.501,-604.807"/>
</g>
<!-- Node48 -->
<g id="node6" class="node"><title>Node48</title>
<g id="a_node6"><a xlink:href="namespaceEigen_1_1TensorSycl_1_1internal.html#a525ee07cdeb68d18359b511b1ae9ffc7" target="_top" xlink:title="template deduction function for FunctorExtractor ">
<polygon fill="none" stroke="black" points="604,-556 604,-586 737,-586 737,-556 604,-556"/>
<text text-anchor="start" x="612" y="-574" font-family="Helvetica,sans-Serif" font-size="10.00">Eigen::TensorSycl::</text>
<text text-anchor="middle" x="670.5" y="-563" font-family="Helvetica,sans-Serif" font-size="10.00">internal::extractFunctors</text>
</a>
</g>
</g>
<!-- Node46&#45;&gt;Node48 -->
<g id="edge5" class="edge"><title>Node46&#45;&gt;Node48</title>
<path fill="none" stroke="midnightblue" d="M563.43,-555.026C573.251,-556.505 583.54,-558.054 593.684,-559.582"/>
<polygon fill="midnightblue" stroke="midnightblue" points="593.349,-563.071 603.758,-561.099 594.391,-556.149 593.349,-563.071"/>
</g>
<!-- Node49 -->
<g id="node7" class="node"><title>Node49</title>
<g id="a_node7"><a xlink:href="structEigen_1_1TensorEvaluator.html#a76ec54bcca9523ec104aaa9adaf74983" target="_top" xlink:title="Eigen::TensorEvaluator\l::cleanup">
<polygon fill="none" stroke="black" points="608,-507 608,-537 733,-537 733,-507 608,-507"/>
<text text-anchor="start" x="616" y="-525" font-family="Helvetica,sans-Serif" font-size="10.00">Eigen::TensorEvaluator</text>
<text text-anchor="middle" x="670.5" y="-514" font-family="Helvetica,sans-Serif" font-size="10.00">::cleanup</text>
</a>
</g>
</g>
<!-- Node46&#45;&gt;Node49 -->
<g id="edge6" class="edge"><title>Node46&#45;&gt;Node49</title>
<path fill="none" stroke="midnightblue" d="M563.43,-537.335C574.635,-535.715 586.45,-534.007 597.964,-532.343"/>
<polygon fill="midnightblue" stroke="midnightblue" points="598.586,-535.789 607.983,-530.894 597.585,-528.861 598.586,-535.789"/>
</g>
<!-- Node54 -->
<g id="node12" class="node"><title>Node54</title>
<g id="a_node12"><a xlink:href="namespacempfr.html#a004935036c2970cebb55e20e22edb67e" target="_top" xlink:title="mpfr::max">
<polygon fill="none" stroke="black" points="637.5,-114.5 637.5,-133.5 703.5,-133.5 703.5,-114.5 637.5,-114.5"/>
<text text-anchor="middle" x="670.5" y="-121.5" font-family="Helvetica,sans-Serif" font-size="10.00">mpfr::max</text>
</a>
</g>
</g>
<!-- Node53&#45;&gt;Node54 -->
<g id="edge11" class="edge"><title>Node53&#45;&gt;Node54</title>
<path fill="none" stroke="midnightblue" d="M538.704,-109.029C564.612,-111.995 599.945,-116.039 627.356,-119.176"/>
<polygon fill="midnightblue" stroke="midnightblue" points="627.105,-122.67 637.438,-120.33 627.901,-115.716 627.105,-122.67"/>
</g>
<!-- Node55 -->
<g id="node13" class="node"><title>Node55</title>
<g id="a_node13"><a xlink:href="classmpfr_1_1mpreal.html#ab554a180ceca6eed0e5798b316f944b0" target="_top" xlink:title="mpfr::mpreal::getPrecision">
<polygon fill="none" stroke="black" points="599,-76.5 599,-95.5 742,-95.5 742,-76.5 599,-76.5"/>
<text text-anchor="middle" x="670.5" y="-83.5" font-family="Helvetica,sans-Serif" font-size="10.00">mpfr::mpreal::getPrecision</text>
</a>
</g>
</g>
<!-- Node53&#45;&gt;Node55 -->
<g id="edge12" class="edge"><title>Node53&#45;&gt;Node55</title>
<path fill="none" stroke="midnightblue" d="M538.704,-100.971C553.343,-99.2951 570.99,-97.2752 588.518,-95.269"/>
<polygon fill="midnightblue" stroke="midnightblue" points="589.263,-98.7067 598.8,-94.0922 588.467,-91.7521 589.263,-98.7067"/>
</g>
<!-- Node57 -->
<g id="node15" class="node"><title>Node57</title>
<g id="a_node15"><a xlink:href="classmpfr_1_1mpreal.html#a566f64ca066c54923d19c11d6c3d15cd" target="_top" xlink:title="mpfr::mpreal::mpfr\l_srcptr">
<polygon fill="none" stroke="black" points="788.5,-33 788.5,-63 895.5,-63 895.5,-33 788.5,-33"/>
<text text-anchor="start" x="796.5" y="-51" font-family="Helvetica,sans-Serif" font-size="10.00">mpfr::mpreal::mpfr</text>
<text text-anchor="middle" x="842" y="-40" font-family="Helvetica,sans-Serif" font-size="10.00">_srcptr</text>
</a>
</g>
</g>
<!-- Node53&#45;&gt;Node57 -->
<g id="edge16" class="edge"><title>Node53&#45;&gt;Node57</title>
<path fill="none" stroke="midnightblue" d="M534.685,-95.4266C543.901,-92.3544 553.943,-88.7648 563,-85 579.518,-78.1335 581.764,-71.7887 599,-67 658.138,-50.5695 728.312,-46.6845 777.826,-46.3882"/>
<polygon fill="midnightblue" stroke="midnightblue" points="778.071,-49.8881 788.066,-46.3763 778.062,-42.8881 778.071,-49.8881"/>
</g>
<!-- Node58 -->
<g id="node16" class="node"><title>Node58</title>
<g id="a_node16"><a xlink:href="classmpfr_1_1mpreal.html#af4e3b56888463376c675cac70b6ceca3" target="_top" xlink:title="mpfr::mpreal::mpfr_ptr">
<polygon fill="none" stroke="black" points="607.5,-0.5 607.5,-19.5 733.5,-19.5 733.5,-0.5 607.5,-0.5"/>
<text text-anchor="middle" x="670.5" y="-7.5" font-family="Helvetica,sans-Serif" font-size="10.00">mpfr::mpreal::mpfr_ptr</text>
</a>
</g>
</g>
<!-- Node53&#45;&gt;Node58 -->
<g id="edge15" class="edge"><title>Node53&#45;&gt;Node58</title>
<path fill="none" stroke="midnightblue" d="M538.664,-97.2397C547.153,-94.3085 555.833,-90.3381 563,-85 585.251,-68.4264 576.781,-50.6164 599,-34 604.766,-29.6879 611.359,-26.1162 618.147,-23.1667"/>
<polygon fill="midnightblue" stroke="midnightblue" points="619.429,-26.4238 627.465,-19.5194 616.877,-19.9054 619.429,-26.4238"/>
</g>
<!-- Node56 -->
<g id="node14" class="node"><title>Node56</title>
<g id="a_node14"><a xlink:href="level1__impl_8h.html#a4e8e1c1bb9d4e05fc671fc133ec9dc9b" target="_top" xlink:title="int">
<polygon fill="none" stroke="black" points="827.5,-82.5 827.5,-101.5 856.5,-101.5 856.5,-82.5 827.5,-82.5"/>
<text text-anchor="middle" x="842" y="-89.5" font-family="Helvetica,sans-Serif" font-size="10.00">int</text>
</a>
</g>
</g>
<!-- Node55&#45;&gt;Node56 -->
<g id="edge13" class="edge"><title>Node55&#45;&gt;Node56</title>
<path fill="none" stroke="midnightblue" d="M742.401,-88.5098C769.22,-89.4591 797.94,-90.4757 817.424,-91.1655"/>
<polygon fill="midnightblue" stroke="midnightblue" points="817.369,-94.6656 827.487,-91.5217 817.617,-87.67 817.369,-94.6656"/>
</g>
<!-- Node55&#45;&gt;Node57 -->
<g id="edge14" class="edge"><title>Node55&#45;&gt;Node57</title>
<path fill="none" stroke="midnightblue" d="M714.272,-76.411C733.66,-72.0644 756.969,-66.8387 778.281,-62.0608"/>
<polygon fill="midnightblue" stroke="midnightblue" points="779.241,-65.4326 788.233,-59.8298 777.71,-58.6022 779.241,-65.4326"/>
</g>
<!-- Node59&#45;&gt;Node50 -->
<g id="edge18" class="edge"><title>Node59&#45;&gt;Node50</title>
<path fill="none" stroke="midnightblue" d="M514.177,-323.502C531.05,-338.058 565.422,-365.88 599,-382 612.937,-388.691 629.528,-393.536 643.112,-396.78"/>
<polygon fill="midnightblue" stroke="midnightblue" points="642.732,-400.282 653.255,-399.043 644.257,-393.45 642.732,-400.282"/>
</g>
<!-- Node60 -->
<g id="node18" class="node"><title>Node60</title>
<g id="a_node18"><a xlink:href="namespaceEigen_1_1internal.html#a5f7738a5c56c9b9decf94d9728ba7906" target="_top" xlink:title="Eigen::internal::apply\l_rotation_in_the_plane">
<polygon fill="none" stroke="black" points="608,-343 608,-373 733,-373 733,-343 608,-343"/>
<text text-anchor="start" x="616" y="-361" font-family="Helvetica,sans-Serif" font-size="10.00">Eigen::internal::apply</text>
<text text-anchor="middle" x="670.5" y="-350" font-family="Helvetica,sans-Serif" font-size="10.00">_rotation_in_the_plane</text>
</a>
</g>
</g>
<!-- Node59&#45;&gt;Node60 -->
<g id="edge19" class="edge"><title>Node59&#45;&gt;Node60</title>
<path fill="none" stroke="midnightblue" d="M517.653,-317.751C536.625,-322.78 571.579,-332.045 603.172,-340.419"/>
<polygon fill="midnightblue" stroke="midnightblue" points="602.284,-343.805 612.847,-342.984 604.078,-337.038 602.284,-343.805"/>
</g>
<!-- Node69 -->
<g id="node27" class="node"><title>Node69</title>
<g id="a_node27"><a xlink:href="common_8h.html#a7fecc876b02cead11e333e3d17465a3b" target="_top" xlink:title="make_vector">
<polygon fill="none" stroke="black" points="631,-304.5 631,-323.5 710,-323.5 710,-304.5 631,-304.5"/>
<text text-anchor="middle" x="670.5" y="-311.5" font-family="Helvetica,sans-Serif" font-size="10.00">make_vector</text>
</a>
</g>
</g>
<!-- Node59&#45;&gt;Node69 -->
<g id="edge28" class="edge"><title>Node59&#45;&gt;Node69</title>
<path fill="none" stroke="midnightblue" d="M517.653,-314C540.203,-314 585.334,-314 620.561,-314"/>
<polygon fill="midnightblue" stroke="midnightblue" points="620.672,-317.5 630.672,-314 620.672,-310.5 620.672,-317.5"/>
</g>
<!-- Node70 -->
<g id="node28" class="node"><title>Node70</title>
<g id="a_node28"><a xlink:href="level1__cplx__impl_8h.html#a8bf94ce8356a33ac47003c927a2041ce" target="_top" xlink:title="rvx">
<polygon fill="none" stroke="black" points="655,-266.5 655,-285.5 686,-285.5 686,-266.5 655,-266.5"/>
<text text-anchor="middle" x="670.5" y="-273.5" font-family="Helvetica,sans-Serif" font-size="10.00">rvx</text>
</a>
</g>
</g>
<!-- Node59&#45;&gt;Node70 -->
<g id="edge29" class="edge"><title>Node59&#45;&gt;Node70</title>
<path fill="none" stroke="midnightblue" d="M517.653,-310.76C545.933,-304.286 609.726,-289.683 644.962,-281.617"/>
<polygon fill="midnightblue" stroke="midnightblue" points="645.943,-284.983 654.91,-279.34 644.381,-278.16 645.943,-284.983"/>
</g>
<!-- Node71 -->
<g id="node29" class="node"><title>Node71</title>
<g id="a_node29"><a xlink:href="level1__cplx__impl_8h.html#a350a7cbbdbb64866d420982fd0c4aa04" target="_top" xlink:title="rvy">
<polygon fill="none" stroke="black" points="655,-228.5 655,-247.5 686,-247.5 686,-228.5 655,-228.5"/>
<text text-anchor="middle" x="670.5" y="-235.5" font-family="Helvetica,sans-Serif" font-size="10.00">rvy</text>
</a>
</g>
</g>
<!-- Node59&#45;&gt;Node71 -->
<g id="edge30" class="edge"><title>Node59&#45;&gt;Node71</title>
<path fill="none" stroke="midnightblue" d="M517.575,-311.584C530.199,-308.953 548.858,-303.881 563,-295 582.702,-282.627 579.02,-268.918 599,-257 612.967,-248.669 630.642,-243.916 644.8,-241.247"/>
<polygon fill="midnightblue" stroke="midnightblue" points="645.527,-244.675 654.821,-239.588 644.384,-237.769 645.527,-244.675"/>
</g>
<!-- Node72 -->
<g id="node30" class="node"><title>Node72</title>
<g id="a_node30"><a xlink:href="level1__cplx__impl_8h.html#a76b57f4654907ddf5e378e28cdac4835" target="_top" xlink:title="vx">
<polygon fill="none" stroke="black" points="656,-190.5 656,-209.5 685,-209.5 685,-190.5 656,-190.5"/>
<text text-anchor="middle" x="670.5" y="-197.5" font-family="Helvetica,sans-Serif" font-size="10.00">vx</text>
</a>
</g>
</g>
<!-- Node59&#45;&gt;Node72 -->
<g id="edge31" class="edge"><title>Node59&#45;&gt;Node72</title>
<path fill="none" stroke="midnightblue" d="M517.564,-312.703C530.711,-310.816 550.187,-306.21 563,-295 591.13,-270.39 570.314,-242.959 599,-219 612.074,-208.08 630.849,-203.389 645.737,-201.397"/>
<polygon fill="midnightblue" stroke="midnightblue" points="646.161,-204.872 655.753,-200.372 645.449,-197.908 646.161,-204.872"/>
</g>
<!-- Node73 -->
<g id="node31" class="node"><title>Node73</title>
<g id="a_node31"><a xlink:href="level1__cplx__impl_8h.html#a597b30b6b23602957548d07b47be830a" target="_top" xlink:title="vy">
<polygon fill="none" stroke="black" points="656,-152.5 656,-171.5 685,-171.5 685,-152.5 656,-152.5"/>
<text text-anchor="middle" x="670.5" y="-159.5" font-family="Helvetica,sans-Serif" font-size="10.00">vy</text>
</a>
</g>
</g>
<!-- Node59&#45;&gt;Node73 -->
<g id="edge32" class="edge"><title>Node59&#45;&gt;Node73</title>
<path fill="none" stroke="midnightblue" d="M517.665,-313.113C531.075,-311.528 550.905,-307.134 563,-295 600.51,-257.369 560.637,-217.761 599,-181 611.447,-169.073 630.564,-164.456 645.753,-162.748"/>
<polygon fill="midnightblue" stroke="midnightblue" points="646.267,-166.219 655.967,-161.956 645.726,-159.24 646.267,-166.219"/>
</g>
<!-- Node60&#45;&gt;Node61 -->
<g id="edge20" class="edge"><title>Node60&#45;&gt;Node61</title>
<path fill="none" stroke="midnightblue" d="M727.744,-373.158C732.894,-375.918 737.76,-379.17 742,-383 769.736,-408.052 749.672,-434.618 778,-459 779.97,-460.695 782.087,-462.24 784.31,-463.646"/>
<polygon fill="midnightblue" stroke="midnightblue" points="782.844,-466.83 793.319,-468.416 786.119,-460.643 782.844,-466.83"/>
</g>
<!-- Node60&#45;&gt;Node62 -->
<g id="edge21" class="edge"><title>Node60&#45;&gt;Node62</title>
<path fill="none" stroke="midnightblue" d="M723.301,-373.151C729.827,-375.978 736.23,-379.248 742,-383 761.503,-395.683 758.199,-408.787 778,-421 781.403,-423.099 785.053,-424.979 788.819,-426.661"/>
<polygon fill="midnightblue" stroke="midnightblue" points="787.759,-430.006 798.345,-430.446 790.344,-423.501 787.759,-430.006"/>
</g>
<!-- Node63 -->
<g id="node21" class="node"><title>Node63</title>
<g id="a_node21"><a xlink:href="exceptions_8cpp.html#a75f785bf0f51cbc94279c80d143642ae" target="_top" xlink:title="conj">
<polygon fill="none" stroke="black" points="824,-392.5 824,-411.5 860,-411.5 860,-392.5 824,-392.5"/>
<text text-anchor="middle" x="842" y="-399.5" font-family="Helvetica,sans-Serif" font-size="10.00">conj</text>
</a>
</g>
</g>
<!-- Node60&#45;&gt;Node63 -->
<g id="edge22" class="edge"><title>Node60&#45;&gt;Node63</title>
<path fill="none" stroke="midnightblue" d="M729.358,-373.019C758.004,-380.455 791.223,-389.079 813.93,-394.973"/>
<polygon fill="midnightblue" stroke="midnightblue" points="813.309,-398.428 823.867,-397.553 815.068,-391.652 813.309,-398.428"/>
</g>
<!-- Node64 -->
<g id="node22" class="node"><title>Node64</title>
<g id="a_node22"><a xlink:href="namespaceEigen_1_1internal.html#aaab57ef8d873301545ff0afbf2e28458" target="_top" xlink:title="Eigen::internal::pstore">
<polygon fill="none" stroke="black" points="781,-354.5 781,-373.5 903,-373.5 903,-354.5 781,-354.5"/>
<text text-anchor="middle" x="842" y="-361.5" font-family="Helvetica,sans-Serif" font-size="10.00">Eigen::internal::pstore</text>
</a>
</g>
</g>
<!-- Node60&#45;&gt;Node64 -->
<g id="edge23" class="edge"><title>Node60&#45;&gt;Node64</title>
<path fill="none" stroke="midnightblue" d="M733.173,-360.183C745.301,-360.612 758.111,-361.066 770.503,-361.505"/>
<polygon fill="midnightblue" stroke="midnightblue" points="770.672,-365.013 780.79,-361.869 770.92,-358.017 770.672,-365.013"/>
</g>
<!-- Node65 -->
<g id="node23" class="node"><title>Node65</title>
<g id="a_node23"><a xlink:href="namespaceEigen_1_1internal.html#a0f50f3baa0dcc73cd1c0baa06e5c8c13" target="_top" xlink:title="Eigen::internal::padd">
<polygon fill="none" stroke="black" points="784.5,-316.5 784.5,-335.5 899.5,-335.5 899.5,-316.5 784.5,-316.5"/>
<text text-anchor="middle" x="842" y="-323.5" font-family="Helvetica,sans-Serif" font-size="10.00">Eigen::internal::padd</text>
</a>
</g>
</g>
<!-- Node60&#45;&gt;Node65 -->
<g id="edge24" class="edge"><title>Node60&#45;&gt;Node65</title>
<path fill="none" stroke="midnightblue" d="M733.173,-346.357C748.625,-343.44 765.185,-340.313 780.575,-337.408"/>
<polygon fill="midnightblue" stroke="midnightblue" points="781.32,-340.829 790.497,-335.535 780.021,-333.951 781.32,-340.829"/>
</g>
<!-- Node66 -->
<g id="node24" class="node"><title>Node66</title>
<g id="a_node24"><a xlink:href="structEigen_1_1internal_1_1conj__helper.html#a10c2bdc3cc1a624a2c8d5d9ccc89679e" target="_top" xlink:title="Eigen::internal::conj\l_helper::pmul">
<polygon fill="none" stroke="black" points="787,-267 787,-297 897,-297 897,-267 787,-267"/>
<text text-anchor="start" x="795" y="-285" font-family="Helvetica,sans-Serif" font-size="10.00">Eigen::internal::conj</text>
<text text-anchor="middle" x="842" y="-274" font-family="Helvetica,sans-Serif" font-size="10.00">_helper::pmul</text>
</a>
</g>
</g>
<!-- Node60&#45;&gt;Node66 -->
<g id="edge25" class="edge"><title>Node60&#45;&gt;Node66</title>
<path fill="none" stroke="midnightblue" d="M719.688,-342.988C727.31,-340.026 734.985,-336.68 742,-333 759.478,-323.831 760.695,-316.49 778,-307 781.656,-304.995 785.507,-303.066 789.43,-301.23"/>
<polygon fill="midnightblue" stroke="midnightblue" points="790.939,-304.389 798.652,-297.125 788.093,-297.994 790.939,-304.389"/>
</g>
<!-- Node67 -->
<g id="node25" class="node"><title>Node67</title>
<g id="a_node25"><a xlink:href="namespaceEigen_1_1internal.html#acfb1e7fe49c73d1885dea028b1745e6a" target="_top" xlink:title="Eigen::internal::psub">
<polygon fill="none" stroke="black" points="785,-228.5 785,-247.5 899,-247.5 899,-228.5 785,-228.5"/>
<text text-anchor="middle" x="842" y="-235.5" font-family="Helvetica,sans-Serif" font-size="10.00">Eigen::internal::psub</text>
</a>
</g>
</g>
<!-- Node60&#45;&gt;Node67 -->
<g id="edge26" class="edge"><title>Node60&#45;&gt;Node67</title>
<path fill="none" stroke="midnightblue" d="M727.744,-342.842C732.894,-340.082 737.76,-336.83 742,-333 769.736,-307.948 749.672,-281.382 778,-257 779.97,-255.305 782.087,-253.76 784.31,-252.354"/>
<polygon fill="midnightblue" stroke="midnightblue" points="786.119,-255.357 793.319,-247.584 782.844,-249.17 786.119,-255.357"/>
</g>
<!-- Node68 -->
<g id="node26" class="node"><title>Node68</title>
<g id="a_node26"><a xlink:href="namespaceEigen_1_1internal.html#abcb1c5d429335ed8c976a6b238287a2e" target="_top" xlink:title="Eigen::internal::pstoreu">
<polygon fill="none" stroke="black" points="778,-190.5 778,-209.5 906,-209.5 906,-190.5 778,-190.5"/>
<text text-anchor="middle" x="842" y="-197.5" font-family="Helvetica,sans-Serif" font-size="10.00">Eigen::internal::pstoreu</text>
</a>
</g>
</g>
<!-- Node60&#45;&gt;Node68 -->
<g id="edge27" class="edge"><title>Node60&#45;&gt;Node68</title>
<path fill="none" stroke="midnightblue" d="M729.328,-342.823C733.979,-340.075 738.301,-336.83 742,-333 778.909,-294.78 740.187,-256.326 778,-219 779.463,-217.555 781.033,-216.22 782.685,-214.986"/>
<polygon fill="midnightblue" stroke="midnightblue" points="784.805,-217.794 791.543,-209.617 781.177,-211.807 784.805,-217.794"/>
</g>
</g>
</svg>
        <g id="navigator" transform="translate(0 0)" fill="#404254">
                <rect fill="#f2f5e9" fill-opacity="0.5" stroke="#606060" stroke-width=".5" x="0" y="0" width="60" height="60"/>
                <use id="zoomplus" xlink:href="#zoomPlus" x="17" y="9" onmousedown="handleZoom(evt,'in')"/>
                <use id="zoomminus" xlink:href="#zoomMin" x="42" y="9" onmousedown="handleZoom(evt,'out')"/>
                <use id="reset" xlink:href="#resetDef" x="30" y="36" onmousedown="handleReset()"/>
                <g id="arrowUp" xlink:href="#dirArrow" transform="translate(30 24)" onmousedown="handlePan(0,-1)">
                  <use xlink:href="#rim" fill="#404040">
                        <set attributeName="fill" to="#808080" begin="arrowUp.mouseover" end="arrowUp.mouseout"/>
                  </use>
                  <path fill="none" stroke="white" stroke-width="1.5" d="M0,-3.0v7 M-2.5,-0.5L0,-3.0L2.5,-0.5"/>
                </g>
                <g id="arrowRight" xlink:href="#dirArrow" transform="rotate(90) translate(36 -43)" onmousedown="handlePan(1,0)">
                  <use xlink:href="#rim" fill="#404040">
                        <set attributeName="fill" to="#808080" begin="arrowRight.mouseover" end="arrowRight.mouseout"/>
                  </use>
                  <path fill="none" stroke="white" stroke-width="1.5" d="M0,-3.0v7 M-2.5,-0.5L0,-3.0L2.5,-0.5"/>
                </g>
                <g id="arrowDown" xlink:href="#dirArrow" transform="rotate(180) translate(-30 -48)" onmousedown="handlePan(0,1)">
                  <use xlink:href="#rim" fill="#404040">
                        <set attributeName="fill" to="#808080" begin="arrowDown.mouseover" end="arrowDown.mouseout"/>
                  </use>
                  <path fill="none" stroke="white" stroke-width="1.5" d="M0,-3.0v7 M-2.5,-0.5L0,-3.0L2.5,-0.5"/>
                </g>
                <g id="arrowLeft" xlink:href="#dirArrow" transform="rotate(270) translate(-36 17)" onmousedown="handlePan(-1,0)">
                  <use xlink:href="#rim" fill="#404040">
                        <set attributeName="fill" to="#808080" begin="arrowLeft.mouseover" end="arrowLeft.mouseout"/>
                  </use>
                  <path fill="none" stroke="white" stroke-width="1.5" d="M0,-3.0v7 M-2.5,-0.5L0,-3.0L2.5,-0.5"/>
                </g>
        </g>
        <svg viewBox="0 0 15 15" width="100%" height="30px" preserveAspectRatio="xMaxYMin meet">
         <g id="arrow_out" transform="scale(0.3 0.3)">
          <a xlink:href="eigensolver__selfadjoint_8cpp_a8a826ea7c4364ccc850a3b439b1d6962_cgraph_org.svg" target="_base">
           <rect id="button" ry="5" rx="5" y="6" x="6" height="38" width="38"
                fill="#f2f5e9" fill-opacity="0.5" stroke="#606060" stroke-width="1.0"/>
           <path id="arrow"
             d="M 11.500037,31.436501 C 11.940474,20.09759 22.043105,11.32322 32.158766,21.979434 L 37.068811,17.246167 C 37.068811,17.246167 37.088388,32 37.088388,32 L 22.160133,31.978069 C 22.160133,31.978069 26.997745,27.140456 26.997745,27.140456 C 18.528582,18.264221 13.291696,25.230495 11.500037,31.436501 z"
             style="fill:#404040;"/>
          </a>
         </g>
        </svg>
</svg>
