<?xml version="1.0" encoding="UTF-8" standalone="no"?>
<!DOCTYPE svg PUBLIC "-//W3C//DTD SVG 1.1//EN"
 "http://www.w3.org/Graphics/SVG/1.1/DTD/svg11.dtd">
<!-- Generated by graphviz version 2.38.0 (20140413.2041)
 -->
<!-- Title: main Pages: 1 -->
<svg width="352pt" height="88pt"
 viewBox="0.00 0.00 352.00 88.00" xmlns="http://www.w3.org/2000/svg" xmlns:xlink="http://www.w3.org/1999/xlink">
<g id="graph0" class="graph" transform="scale(1 1) rotate(0) translate(4 84)">
<title>main</title>
<!-- Node14 -->
<g id="node1" class="node"><title>Node14</title>
<polygon fill="#bfbfbf" stroke="black" points="0,-30 0,-49 41,-49 41,-30 0,-30"/>
<text text-anchor="middle" x="20.5" y="-37" font-family="Helvetica,sans-Serif" font-size="10.00">main</text>
</g>
<!-- Node15 -->
<g id="node2" class="node"><title>Node15</title>
<g id="a_node2"><a xlink:href="eigen__gen__credits_8cpp.html#a73eb0afdbd874f3e86cdc619fbd6f3f9" target="_top" xlink:title="add_online_info_into\l_contributors_list">
<polygon fill="none" stroke="black" points="84.5,-49.5 84.5,-79.5 198.5,-79.5 198.5,-49.5 84.5,-49.5"/>
<text text-anchor="start" x="92.5" y="-67.5" font-family="Helvetica,sans-Serif" font-size="10.00">add_online_info_into</text>
<text text-anchor="middle" x="141.5" y="-56.5" font-family="Helvetica,sans-Serif" font-size="10.00">_contributors_list</text>
</a>
</g>
</g>
<!-- Node14&#45;&gt;Node15 -->
<g id="edge1" class="edge"><title>Node14&#45;&gt;Node15</title>
<path fill="none" stroke="midnightblue" d="M41.1504,-43.6282C50.5265,-45.598 62.346,-48.0811 74.5316,-50.6411"/>
<polygon fill="midnightblue" stroke="midnightblue" points="73.8371,-54.0715 84.3431,-52.7023 75.2764,-47.2211 73.8371,-54.0715"/>
</g>
<!-- Node16 -->
<g id="node3" class="node"><title>Node16</title>
<g id="a_node3"><a xlink:href="eigen__gen__credits_8cpp.html#a5026f66e39ac34ef2ccdb152c662a9dd" target="_top" xlink:title="contributors_map_from\l_churn_output">
<polygon fill="none" stroke="black" points="77,-0.5 77,-30.5 206,-30.5 206,-0.5 77,-0.5"/>
<text text-anchor="start" x="85" y="-18.5" font-family="Helvetica,sans-Serif" font-size="10.00">contributors_map_from</text>
<text text-anchor="middle" x="141.5" y="-7.5" font-family="Helvetica,sans-Serif" font-size="10.00">_churn_output</text>
</a>
</g>
</g>
<!-- Node14&#45;&gt;Node16 -->
<g id="edge2" class="edge"><title>Node14&#45;&gt;Node16</title>
<path fill="none" stroke="midnightblue" d="M41.1504,-35.5369C48.5487,-34.0448 57.4682,-32.2459 66.8885,-30.346"/>
<polygon fill="midnightblue" stroke="midnightblue" points="67.7333,-33.7462 76.8439,-28.3382 66.3493,-26.8844 67.7333,-33.7462"/>
</g>
<!-- Node17 -->
<g id="node4" class="node"><title>Node17</title>
<g id="a_node4"><a xlink:href="eigen__gen__credits_8cpp.html#a66a3a8cd7b058958364381a442e77438" target="_top" xlink:title="contributor_name">
<polygon fill="none" stroke="black" points="242,-6 242,-25 344,-25 344,-6 242,-6"/>
<text text-anchor="middle" x="293" y="-13" font-family="Helvetica,sans-Serif" font-size="10.00">contributor_name</text>
</a>
</g>
</g>
<!-- Node16&#45;&gt;Node17 -->
<g id="edge3" class="edge"><title>Node16&#45;&gt;Node17</title>
<path fill="none" stroke="midnightblue" d="M206.335,-15.5C214.798,-15.5 223.452,-15.5 231.851,-15.5"/>
<polygon fill="midnightblue" stroke="midnightblue" points="231.938,-19.0001 241.938,-15.5 231.938,-12.0001 231.938,-19.0001"/>
</g>
</g>
</svg>
