<?xml version="1.0" encoding="UTF-8" standalone="no"?>
<!DOCTYPE svg PUBLIC "-//W3C//DTD SVG 1.1//EN"
 "http://www.w3.org/Graphics/SVG/1.1/DTD/svg11.dtd">
<!-- Generated by graphviz version 2.38.0 (20140413.2041)
 -->
<!-- Title: /travis/libpairinteraction/EmbeddedDatabase.h Pages: 1 -->
<!--zoomable 218 -->
<svg id="main" version="1.1" xmlns="http://www.w3.org/2000/svg" xmlns:xlink="http://www.w3.org/1999/xlink" xml:space="preserve" onload="init(evt)">
<style type="text/css"><![CDATA[
.edge:hover path { stroke: red; }
.edge:hover polygon { stroke: red; fill: red; }
]]></style>
<script type="text/javascript"><![CDATA[
var edges = document.getElementsByTagName('g');
if (edges && edges.length) {
  for (var i=0;i<edges.length;i++) {
    if (edges[i].id.substr(0,4)=='edge') {
      edges[i].setAttribute('class','edge');
    }
  }
}
]]></script>
        <defs>
                <circle id="rim" cx="0" cy="0" r="7"/>
                <circle id="rim2" cx="0" cy="0" r="3.5"/>
                <g id="zoomPlus">
                        <use xlink:href="#rim" fill="#404040">
                                <set attributeName="fill" to="#808080" begin="zoomplus.mouseover" end="zoomplus.mouseout"/>
                        </use>
                        <path d="M-4,0h8M0,-4v8" fill="none" stroke="white" stroke-width="1.5" pointer-events="none"/>
                </g>
                <g id="zoomMin">
                        <use xlink:href="#rim" fill="#404040">
                                <set attributeName="fill" to="#808080" begin="zoomminus.mouseover" end="zoomminus.mouseout"/>
                        </use>
                        <path d="M-4,0h8" fill="none" stroke="white" stroke-width="1.5" pointer-events="none"/>
                </g>
                <g id="dirArrow">
                        <path fill="none" stroke="white" stroke-width="1.5" d="M0,-3.0v7 M-2.5,-0.5L0,-3.0L2.5,-0.5"/>
                </g>
               <g id="resetDef">
                       <use xlink:href="#rim2" fill="#404040">
                               <set attributeName="fill" to="#808080" begin="reset.mouseover" end="reset.mouseout"/>
                       </use>
               </g>
        </defs>

<script type="text/javascript">
var viewWidth = 797;
var viewHeight = 218;
var sectionId = 'dynsection-0';
</script>
<script xlink:href="svgpan.js"/>
<svg id="graph" class="graph">
<g id="viewport">
<title>/travis/libpairinteraction/EmbeddedDatabase.h</title>
<!-- Node0 -->
<g id="node1" class="node"><title>Node0</title>
<polygon fill="#bfbfbf" stroke="black" points="280.5,-179.5 280.5,-209.5 408.5,-209.5 408.5,-179.5 280.5,-179.5"/>
<text text-anchor="start" x="288.5" y="-197.5" font-family="Helvetica,sans-Serif" font-size="10.00">/travis/libpairinteraction</text>
<text text-anchor="middle" x="344.5" y="-186.5" font-family="Helvetica,sans-Serif" font-size="10.00">/EmbeddedDatabase.h</text>
</g>
<!-- Node1 -->
<g id="node2" class="node"><title>Node1</title>
<g id="a_node2"><a xlink:href="SQLite_8h.html" target="_top" xlink:title="SQLite.h">
<polygon fill="none" stroke="black" points="316,-123.5 316,-142.5 373,-142.5 373,-123.5 316,-123.5"/>
<text text-anchor="middle" x="344.5" y="-130.5" font-family="Helvetica,sans-Serif" font-size="10.00">SQLite.h</text>
</a>
</g>
</g>
<!-- Node0&#45;&gt;Node1 -->
<g id="edge1" class="edge"><title>Node0&#45;&gt;Node1</title>
<path fill="none" stroke="midnightblue" d="M344.5,-179.399C344.5,-171.466 344.5,-161.458 344.5,-152.858"/>
<polygon fill="midnightblue" stroke="midnightblue" points="348,-152.658 344.5,-142.658 341,-152.658 348,-152.658"/>
</g>
<!-- Node2 -->
<g id="node3" class="node"><title>Node2</title>
<polygon fill="none" stroke="#bfbfbf" points="0,-0.5 0,-19.5 63,-19.5 63,-0.5 0,-0.5"/>
<text text-anchor="middle" x="31.5" y="-7.5" font-family="Helvetica,sans-Serif" font-size="10.00">functional</text>
</g>
<!-- Node1&#45;&gt;Node2 -->
<g id="edge2" class="edge"><title>Node1&#45;&gt;Node2</title>
<path fill="none" stroke="midnightblue" d="M315.874,-131.816C269.64,-130.404 176.814,-122.882 108.5,-87 81.3121,-72.7197 57.4441,-45.6797 43.7453,-28.0035"/>
<polygon fill="midnightblue" stroke="midnightblue" points="46.343,-25.6336 37.5449,-19.7307 40.7416,-29.8318 46.343,-25.6336"/>
</g>
<!-- Node3 -->
<g id="node4" class="node"><title>Node3</title>
<polygon fill="none" stroke="#bfbfbf" points="239,-62 239,-81 298,-81 298,-62 239,-62"/>
<text text-anchor="middle" x="268.5" y="-69" font-family="Helvetica,sans-Serif" font-size="10.00">iostream</text>
</g>
<!-- Node1&#45;&gt;Node3 -->
<g id="edge3" class="edge"><title>Node1&#45;&gt;Node3</title>
<path fill="none" stroke="midnightblue" d="M333.611,-123.475C321.534,-114.02 301.833,-98.5961 287.26,-87.1871"/>
<polygon fill="midnightblue" stroke="midnightblue" points="289.4,-84.4177 279.369,-81.0091 285.085,-89.9295 289.4,-84.4177"/>
</g>
<!-- Node4 -->
<g id="node5" class="node"><title>Node4</title>
<polygon fill="none" stroke="#bfbfbf" points="316,-62 316,-81 373,-81 373,-62 316,-62"/>
<text text-anchor="middle" x="344.5" y="-69" font-family="Helvetica,sans-Serif" font-size="10.00">memory</text>
</g>
<!-- Node1&#45;&gt;Node4 -->
<g id="edge4" class="edge"><title>Node1&#45;&gt;Node4</title>
<path fill="none" stroke="midnightblue" d="M344.5,-123.475C344.5,-115.08 344.5,-101.981 344.5,-91.1631"/>
<polygon fill="midnightblue" stroke="midnightblue" points="348,-91.0091 344.5,-81.0091 341,-91.0091 348,-91.0091"/>
</g>
<!-- Node5 -->
<g id="node6" class="node"><title>Node5</title>
<polygon fill="none" stroke="#bfbfbf" points="81.5,-0.5 81.5,-19.5 135.5,-19.5 135.5,-0.5 81.5,-0.5"/>
<text text-anchor="middle" x="108.5" y="-7.5" font-family="Helvetica,sans-Serif" font-size="10.00">random</text>
</g>
<!-- Node1&#45;&gt;Node5 -->
<g id="edge5" class="edge"><title>Node1&#45;&gt;Node5</title>
<path fill="none" stroke="midnightblue" d="M316,-129.802C263.45,-125.169 154.211,-112.65 127.5,-87 112.13,-72.2403 108.457,-47.0792 107.92,-29.7774"/>
<polygon fill="midnightblue" stroke="midnightblue" points="111.42,-29.7339 107.929,-19.7308 104.42,-29.7277 111.42,-29.7339"/>
</g>
<!-- Node6 -->
<g id="node7" class="node"><title>Node6</title>
<polygon fill="none" stroke="#bfbfbf" points="391.5,-62 391.5,-81 447.5,-81 447.5,-62 391.5,-62"/>
<text text-anchor="middle" x="419.5" y="-69" font-family="Helvetica,sans-Serif" font-size="10.00">sstream</text>
</g>
<!-- Node1&#45;&gt;Node6 -->
<g id="edge6" class="edge"><title>Node1&#45;&gt;Node6</title>
<path fill="none" stroke="midnightblue" d="M355.246,-123.475C367.053,-114.108 386.243,-98.8839 400.582,-87.5081"/>
<polygon fill="midnightblue" stroke="midnightblue" points="403.115,-89.9661 408.774,-81.0091 398.765,-84.4822 403.115,-89.9661"/>
</g>
<!-- Node7 -->
<g id="node8" class="node"><title>Node7</title>
<polygon fill="none" stroke="#bfbfbf" points="465.5,-62 465.5,-81 509.5,-81 509.5,-62 465.5,-62"/>
<text text-anchor="middle" x="487.5" y="-69" font-family="Helvetica,sans-Serif" font-size="10.00">string</text>
</g>
<!-- Node1&#45;&gt;Node7 -->
<g id="edge7" class="edge"><title>Node1&#45;&gt;Node7</title>
<path fill="none" stroke="midnightblue" d="M366.964,-123.397C389.686,-114.597 425.747,-100.358 456.5,-87 457.696,-86.4807 458.914,-85.9439 460.142,-85.3965"/>
<polygon fill="midnightblue" stroke="midnightblue" points="461.902,-88.4408 469.545,-81.104 458.995,-82.0729 461.902,-88.4408"/>
</g>
<!-- Node8 -->
<g id="node9" class="node"><title>Node8</title>
<polygon fill="none" stroke="#bfbfbf" points="527.5,-62 527.5,-81 575.5,-81 575.5,-62 527.5,-62"/>
<text text-anchor="middle" x="551.5" y="-69" font-family="Helvetica,sans-Serif" font-size="10.00">thread</text>
</g>
<!-- Node1&#45;&gt;Node8 -->
<g id="edge8" class="edge"><title>Node1&#45;&gt;Node8</title>
<path fill="none" stroke="midnightblue" d="M373.248,-126.056C408.095,-118.512 468.379,-104.366 518.5,-87 520.363,-86.3546 522.266,-85.6486 524.173,-84.9065"/>
<polygon fill="midnightblue" stroke="midnightblue" points="525.661,-88.0785 533.554,-81.0105 522.976,-81.6139 525.661,-88.0785"/>
</g>
<!-- Node9 -->
<g id="node10" class="node"><title>Node9</title>
<polygon fill="none" stroke="#bfbfbf" points="229.5,-0.5 229.5,-19.5 297.5,-19.5 297.5,-0.5 229.5,-0.5"/>
<text text-anchor="middle" x="263.5" y="-7.5" font-family="Helvetica,sans-Serif" font-size="10.00">type_traits</text>
</g>
<!-- Node1&#45;&gt;Node9 -->
<g id="edge9" class="edge"><title>Node1&#45;&gt;Node9</title>
<path fill="none" stroke="midnightblue" d="M315.999,-129.562C288.898,-125.556 249.531,-114.972 230.5,-87 217.546,-67.96 233.7,-43.0116 247.621,-26.9909"/>
<polygon fill="midnightblue" stroke="midnightblue" points="250.32,-29.2272 254.532,-19.5055 245.177,-24.4789 250.32,-29.2272"/>
</g>
<!-- Node10 -->
<g id="node11" class="node"><title>Node10</title>
<polygon fill="none" stroke="#bfbfbf" points="593.5,-56.5 593.5,-86.5 713.5,-86.5 713.5,-56.5 593.5,-56.5"/>
<text text-anchor="start" x="601.5" y="-74.5" font-family="Helvetica,sans-Serif" font-size="10.00">boost/iterator/iterator</text>
<text text-anchor="middle" x="653.5" y="-63.5" font-family="Helvetica,sans-Serif" font-size="10.00">_facade.hpp</text>
</g>
<!-- Node1&#45;&gt;Node10 -->
<g id="edge10" class="edge"><title>Node1&#45;&gt;Node10</title>
<path fill="none" stroke="midnightblue" d="M373.355,-126.799C416.703,-118.941 501.452,-103.403 583.336,-87.2079"/>
<polygon fill="midnightblue" stroke="midnightblue" points="584.177,-90.6094 593.305,-85.2302 582.815,-83.7432 584.177,-90.6094"/>
</g>
<!-- Node11 -->
<g id="node12" class="node"><title>Node11</title>
<polygon fill="none" stroke="#bfbfbf" points="732,-62 732,-81 789,-81 789,-62 732,-62"/>
<text text-anchor="middle" x="760.5" y="-69" font-family="Helvetica,sans-Serif" font-size="10.00">sqlite3.h</text>
</g>
<!-- Node1&#45;&gt;Node11 -->
<g id="edge11" class="edge"><title>Node1&#45;&gt;Node11</title>
<path fill="none" stroke="midnightblue" d="M373.382,-130.979C437.222,-128.199 594.801,-118.454 722.5,-87 725.328,-86.3034 728.232,-85.4548 731.113,-84.5212"/>
<polygon fill="midnightblue" stroke="midnightblue" points="732.431,-87.7673 740.679,-81.1177 730.084,-81.1722 732.431,-87.7673"/>
</g>
<!-- Node12 -->
<g id="node13" class="node"><title>Node12</title>
<g id="a_node13"><a xlink:href="utils_8h.html" target="_top" xlink:title="utils.h">
<polygon fill="none" stroke="black" points="137,-62 137,-81 182,-81 182,-62 137,-62"/>
<text text-anchor="middle" x="159.5" y="-69" font-family="Helvetica,sans-Serif" font-size="10.00">utils.h</text>
</a>
</g>
</g>
<!-- Node1&#45;&gt;Node12 -->
<g id="edge12" class="edge"><title>Node1&#45;&gt;Node12</title>
<path fill="none" stroke="midnightblue" d="M315.914,-124.028C285.948,-115.504 237.598,-101.276 196.5,-87 194.382,-86.2642 192.205,-85.4816 190.019,-84.6758"/>
<polygon fill="midnightblue" stroke="midnightblue" points="191.117,-81.3487 180.525,-81.0688 188.63,-87.8924 191.117,-81.3487"/>
</g>
<!-- Node12&#45;&gt;Node2 -->
<g id="edge14" class="edge"><title>Node12&#45;&gt;Node2</title>
<path fill="none" stroke="midnightblue" d="M141.161,-61.9751C119.679,-51.9897 83.878,-35.3476 59.0523,-23.8075"/>
<polygon fill="midnightblue" stroke="midnightblue" points="60.3488,-20.5506 49.8053,-19.5091 57.3981,-26.8983 60.3488,-20.5506"/>
</g>
<!-- Node12&#45;&gt;Node5 -->
<g id="edge15" class="edge"><title>Node12&#45;&gt;Node5</title>
<path fill="none" stroke="midnightblue" d="M152.193,-61.9751C144.467,-52.9617 132.092,-38.5246 122.482,-27.3118"/>
<polygon fill="midnightblue" stroke="midnightblue" points="124.959,-24.8239 115.794,-19.5091 119.644,-29.3795 124.959,-24.8239"/>
</g>
<!-- Node12&#45;&gt;Node9 -->
<g id="edge16" class="edge"><title>Node12&#45;&gt;Node9</title>
<path fill="none" stroke="midnightblue" d="M174.401,-61.9751C191.468,-52.2106 219.661,-36.0807 239.762,-24.5808"/>
<polygon fill="midnightblue" stroke="midnightblue" points="241.685,-27.513 248.627,-19.5091 238.209,-21.4371 241.685,-27.513"/>
</g>
<!-- Node13 -->
<g id="node14" class="node"><title>Node13</title>
<polygon fill="none" stroke="#bfbfbf" points="154,-0.5 154,-19.5 211,-19.5 211,-0.5 154,-0.5"/>
<text text-anchor="middle" x="182.5" y="-7.5" font-family="Helvetica,sans-Serif" font-size="10.00">complex</text>
</g>
<!-- Node12&#45;&gt;Node13 -->
<g id="edge13" class="edge"><title>Node12&#45;&gt;Node13</title>
<path fill="none" stroke="midnightblue" d="M162.795,-61.9751C166.109,-53.4035 171.318,-39.9269 175.549,-28.983"/>
<polygon fill="midnightblue" stroke="midnightblue" points="178.87,-30.0984 179.211,-19.5091 172.341,-27.5745 178.87,-30.0984"/>
</g>
</g>
</svg>
        <g id="navigator" transform="translate(0 0)" fill="#404254">
                <rect fill="#f2f5e9" fill-opacity="0.5" stroke="#606060" stroke-width=".5" x="0" y="0" width="60" height="60"/>
                <use id="zoomplus" xlink:href="#zoomPlus" x="17" y="9" onmousedown="handleZoom(evt,'in')"/>
                <use id="zoomminus" xlink:href="#zoomMin" x="42" y="9" onmousedown="handleZoom(evt,'out')"/>
                <use id="reset" xlink:href="#resetDef" x="30" y="36" onmousedown="handleReset()"/>
                <g id="arrowUp" xlink:href="#dirArrow" transform="translate(30 24)" onmousedown="handlePan(0,-1)">
                  <use xlink:href="#rim" fill="#404040">
                        <set attributeName="fill" to="#808080" begin="arrowUp.mouseover" end="arrowUp.mouseout"/>
                  </use>
                  <path fill="none" stroke="white" stroke-width="1.5" d="M0,-3.0v7 M-2.5,-0.5L0,-3.0L2.5,-0.5"/>
                </g>
                <g id="arrowRight" xlink:href="#dirArrow" transform="rotate(90) translate(36 -43)" onmousedown="handlePan(1,0)">
                  <use xlink:href="#rim" fill="#404040">
                        <set attributeName="fill" to="#808080" begin="arrowRight.mouseover" end="arrowRight.mouseout"/>
                  </use>
                  <path fill="none" stroke="white" stroke-width="1.5" d="M0,-3.0v7 M-2.5,-0.5L0,-3.0L2.5,-0.5"/>
                </g>
                <g id="arrowDown" xlink:href="#dirArrow" transform="rotate(180) translate(-30 -48)" onmousedown="handlePan(0,1)">
                  <use xlink:href="#rim" fill="#404040">
                        <set attributeName="fill" to="#808080" begin="arrowDown.mouseover" end="arrowDown.mouseout"/>
                  </use>
                  <path fill="none" stroke="white" stroke-width="1.5" d="M0,-3.0v7 M-2.5,-0.5L0,-3.0L2.5,-0.5"/>
                </g>
                <g id="arrowLeft" xlink:href="#dirArrow" transform="rotate(270) translate(-36 17)" onmousedown="handlePan(-1,0)">
                  <use xlink:href="#rim" fill="#404040">
                        <set attributeName="fill" to="#808080" begin="arrowLeft.mouseover" end="arrowLeft.mouseout"/>
                  </use>
                  <path fill="none" stroke="white" stroke-width="1.5" d="M0,-3.0v7 M-2.5,-0.5L0,-3.0L2.5,-0.5"/>
                </g>
        </g>
        <svg viewBox="0 0 15 15" width="100%" height="30px" preserveAspectRatio="xMaxYMin meet">
         <g id="arrow_out" transform="scale(0.3 0.3)">
          <a xlink:href="EmbeddedDatabase_8h__incl_org.svg" target="_base">
           <rect id="button" ry="5" rx="5" y="6" x="6" height="38" width="38"
                fill="#f2f5e9" fill-opacity="0.5" stroke="#606060" stroke-width="1.0"/>
           <path id="arrow"
             d="M 11.500037,31.436501 C 11.940474,20.09759 22.043105,11.32322 32.158766,21.979434 L 37.068811,17.246167 C 37.068811,17.246167 37.088388,32 37.088388,32 L 22.160133,31.978069 C 22.160133,31.978069 26.997745,27.140456 26.997745,27.140456 C 18.528582,18.264221 13.291696,25.230495 11.500037,31.436501 z"
             style="fill:#404040;"/>
          </a>
         </g>
        </svg>
</svg>
