<?xml version="1.0" encoding="UTF-8" standalone="no"?>
<!DOCTYPE svg PUBLIC "-//W3C//DTD SVG 1.1//EN"
 "http://www.w3.org/Graphics/SVG/1.1/DTD/svg11.dtd">
<!-- Generated by graphviz version 2.38.0 (20140413.2041)
 -->
<!-- Title: main Pages: 1 -->
<svg width="300pt" height="203pt"
 viewBox="0.00 0.00 300.00 202.50" xmlns="http://www.w3.org/2000/svg" xmlns:xlink="http://www.w3.org/1999/xlink">
<g id="graph0" class="graph" transform="scale(1 1) rotate(0) translate(4 198.5)">
<title>main</title>
<!-- Node12 -->
<g id="node1" class="node"><title>Node12</title>
<polygon fill="#bfbfbf" stroke="black" points="0,-99 0,-118 41,-118 41,-99 0,-99"/>
<text text-anchor="middle" x="20.5" y="-106" font-family="Helvetica,sans-Serif" font-size="10.00">main</text>
</g>
<!-- Node13 -->
<g id="node2" class="node"><title>Node13</title>
<g id="a_node2"><a xlink:href="gemm_8cpp.html#aae6abcf4557f5cb1b52516e7f1777fae" target="_top" xlink:title="bench">
<polygon fill="none" stroke="black" points="77,-99 77,-118 123,-118 123,-99 77,-99"/>
<text text-anchor="middle" x="100" y="-106" font-family="Helvetica,sans-Serif" font-size="10.00">bench</text>
</a>
</g>
</g>
<!-- Node12&#45;&gt;Node13 -->
<g id="edge1" class="edge"><title>Node12&#45;&gt;Node13</title>
<path fill="none" stroke="midnightblue" d="M41.0565,-108.5C48.8351,-108.5 57.9941,-108.5 66.7053,-108.5"/>
<polygon fill="midnightblue" stroke="midnightblue" points="66.986,-112 76.986,-108.5 66.9859,-105 66.986,-112"/>
</g>
<!-- Node14 -->
<g id="node3" class="node"><title>Node14</title>
<g id="a_node3"><a xlink:href="classEigen_1_1BenchTimer.html#ae8b673b0fa356d3432c7a65c79e8af0e" target="_top" xlink:title="Eigen::BenchTimer::best">
<polygon fill="none" stroke="black" points="159,-175 159,-194 292,-194 292,-175 159,-175"/>
<text text-anchor="middle" x="225.5" y="-182" font-family="Helvetica,sans-Serif" font-size="10.00">Eigen::BenchTimer::best</text>
</a>
</g>
</g>
<!-- Node13&#45;&gt;Node14 -->
<g id="edge2" class="edge"><title>Node13&#45;&gt;Node14</title>
<path fill="none" stroke="midnightblue" d="M108.169,-118.043C118.183,-130.714 137.555,-152.949 159,-165.5 162.679,-167.653 166.618,-169.576 170.672,-171.292"/>
<polygon fill="midnightblue" stroke="midnightblue" points="169.679,-174.658 180.271,-174.928 172.159,-168.112 169.679,-174.658"/>
</g>
<!-- Node15 -->
<g id="node4" class="node"><title>Node15</title>
<g id="a_node4"><a xlink:href="Cwise__array__power__array_8cpp.html#aa9e3025f5efca2c2a39d785652f2d710" target="_top" xlink:title="e">
<polygon fill="none" stroke="black" points="211,-137 211,-156 240,-156 240,-137 211,-137"/>
<text text-anchor="middle" x="225.5" y="-144" font-family="Helvetica,sans-Serif" font-size="10.00">e</text>
</a>
</g>
</g>
<!-- Node13&#45;&gt;Node15 -->
<g id="edge3" class="edge"><title>Node13&#45;&gt;Node15</title>
<path fill="none" stroke="midnightblue" d="M123.252,-115.987C134.022,-119.56 147.154,-123.843 159,-127.5 172.965,-131.811 188.691,-136.383 201.233,-139.96"/>
<polygon fill="midnightblue" stroke="midnightblue" points="200.336,-143.344 210.911,-142.705 202.246,-136.609 200.336,-143.344"/>
</g>
<!-- Node16 -->
<g id="node5" class="node"><title>Node16</title>
<g id="a_node5"><a xlink:href="gemm_8cpp.html#af5b04ff924d63476b2113bf32f3c1d14" target="_top" xlink:title="gemm">
<polygon fill="none" stroke="black" points="201.5,-99 201.5,-118 249.5,-118 249.5,-99 201.5,-99"/>
<text text-anchor="middle" x="225.5" y="-106" font-family="Helvetica,sans-Serif" font-size="10.00">gemm</text>
</a>
</g>
</g>
<!-- Node13&#45;&gt;Node16 -->
<g id="edge4" class="edge"><title>Node13&#45;&gt;Node16</title>
<path fill="none" stroke="midnightblue" d="M123.079,-108.5C142.04,-108.5 169.654,-108.5 191.282,-108.5"/>
<polygon fill="midnightblue" stroke="midnightblue" points="191.354,-112 201.354,-108.5 191.354,-105 191.354,-112"/>
</g>
<!-- Node17 -->
<g id="node6" class="node"><title>Node17</title>
<g id="a_node6"><a xlink:href="classEigen_1_1PlainObjectBase.html#af0e576a0e1aefc9ee346de44cc352ba3" target="_top" xlink:title="Eigen::PlainObjectBase\l::setRandom">
<polygon fill="none" stroke="black" points="162.5,-49.5 162.5,-79.5 288.5,-79.5 288.5,-49.5 162.5,-49.5"/>
<text text-anchor="start" x="170.5" y="-67.5" font-family="Helvetica,sans-Serif" font-size="10.00">Eigen::PlainObjectBase</text>
<text text-anchor="middle" x="225.5" y="-56.5" font-family="Helvetica,sans-Serif" font-size="10.00">::setRandom</text>
</a>
</g>
</g>
<!-- Node13&#45;&gt;Node17 -->
<g id="edge5" class="edge"><title>Node13&#45;&gt;Node17</title>
<path fill="none" stroke="midnightblue" d="M123.079,-100.634C136.953,-95.6907 155.461,-89.097 172.866,-82.896"/>
<polygon fill="midnightblue" stroke="midnightblue" points="174.14,-86.1575 182.386,-79.5044 171.791,-79.5635 174.14,-86.1575"/>
</g>
<!-- Node18 -->
<g id="node7" class="node"><title>Node18</title>
<g id="a_node7"><a xlink:href="classEigen_1_1PlainObjectBase.html#ac21ad5f989f320e46958b75ac8d9a1da" target="_top" xlink:title="Eigen::PlainObjectBase\l::setZero">
<polygon fill="none" stroke="black" points="162.5,-0.5 162.5,-30.5 288.5,-30.5 288.5,-0.5 162.5,-0.5"/>
<text text-anchor="start" x="170.5" y="-18.5" font-family="Helvetica,sans-Serif" font-size="10.00">Eigen::PlainObjectBase</text>
<text text-anchor="middle" x="225.5" y="-7.5" font-family="Helvetica,sans-Serif" font-size="10.00">::setZero</text>
</a>
</g>
</g>
<!-- Node13&#45;&gt;Node18 -->
<g id="edge6" class="edge"><title>Node13&#45;&gt;Node18</title>
<path fill="none" stroke="midnightblue" d="M106.954,-98.8212C116.346,-84.2838 135.928,-56.7843 159,-40.5 161.685,-38.605 164.532,-36.8316 167.477,-35.1753"/>
<polygon fill="midnightblue" stroke="midnightblue" points="169.225,-38.2132 176.544,-30.5529 166.045,-31.9769 169.225,-38.2132"/>
</g>
</g>
</svg>
