<?xml version="1.0" encoding="UTF-8" standalone="no"?>
<!DOCTYPE svg PUBLIC "-//W3C//DTD SVG 1.1//EN"
 "http://www.w3.org/Graphics/SVG/1.1/DTD/svg11.dtd">
<!-- Generated by graphviz version 2.38.0 (20140413.2041)
 -->
<!-- Title: eulerangles Pages: 1 -->
<svg width="696pt" height="78pt"
 viewBox="0.00 0.00 696.00 77.50" xmlns="http://www.w3.org/2000/svg" xmlns:xlink="http://www.w3.org/1999/xlink">
<g id="graph0" class="graph" transform="scale(1 1) rotate(0) translate(4 73.5)">
<title>eulerangles</title>
<!-- Node8 -->
<g id="node1" class="node"><title>Node8</title>
<polygon fill="#bfbfbf" stroke="black" points="0,-28 0,-47 72,-47 72,-28 0,-28"/>
<text text-anchor="middle" x="36" y="-35" font-family="Helvetica,sans-Serif" font-size="10.00">eulerangles</text>
</g>
<!-- Node9 -->
<g id="node2" class="node"><title>Node9</title>
<g id="a_node2"><a xlink:href="geo__eulerangles_8cpp.html#af73d6098f2d25b9901839c60037c6474" target="_top" xlink:title="check_all_var">
<polygon fill="none" stroke="black" points="108,-28 108,-47 188,-47 188,-28 108,-28"/>
<text text-anchor="middle" x="148" y="-35" font-family="Helvetica,sans-Serif" font-size="10.00">check_all_var</text>
</a>
</g>
</g>
<!-- Node8&#45;&gt;Node9 -->
<g id="edge1" class="edge"><title>Node8&#45;&gt;Node9</title>
<path fill="none" stroke="midnightblue" d="M72.1071,-37.5C80.1532,-37.5 88.8558,-37.5 97.384,-37.5"/>
<polygon fill="midnightblue" stroke="midnightblue" points="97.6443,-41.0001 107.644,-37.5 97.6442,-34.0001 97.6443,-41.0001"/>
</g>
<!-- Node10 -->
<g id="node3" class="node"><title>Node10</title>
<g id="a_node3"><a xlink:href="geo__eulerangles_8cpp.html#a2555900353b22c3df3d92616b848f6c7" target="_top" xlink:title="verify_euler">
<polygon fill="none" stroke="black" points="224,-28 224,-47 295,-47 295,-28 224,-28"/>
<text text-anchor="middle" x="259.5" y="-35" font-family="Helvetica,sans-Serif" font-size="10.00">verify_euler</text>
</a>
</g>
</g>
<!-- Node9&#45;&gt;Node10 -->
<g id="edge2" class="edge"><title>Node9&#45;&gt;Node10</title>
<path fill="none" stroke="midnightblue" d="M188.223,-37.5C196.512,-37.5 205.319,-37.5 213.794,-37.5"/>
<polygon fill="midnightblue" stroke="midnightblue" points="213.909,-41.0001 223.909,-37.5 213.909,-34.0001 213.909,-41.0001"/>
</g>
<!-- Node11 -->
<g id="node4" class="node"><title>Node11</title>
<g id="a_node4"><a xlink:href="ArrayCwiseUnaryOps_8h.html#a35560f7dbf19244fda7e463d14157c43" target="_top" xlink:title="abs">
<polygon fill="none" stroke="black" points="384,-50 384,-69 418,-69 418,-50 384,-50"/>
<text text-anchor="middle" x="401" y="-57" font-family="Helvetica,sans-Serif" font-size="10.00">abs</text>
</a>
</g>
</g>
<!-- Node10&#45;&gt;Node11 -->
<g id="edge3" class="edge"><title>Node10&#45;&gt;Node11</title>
<path fill="none" stroke="midnightblue" d="M295.342,-42.9948C319.615,-46.8228 351.488,-51.8494 373.655,-55.3452"/>
<polygon fill="midnightblue" stroke="midnightblue" points="373.257,-58.8257 383.681,-56.9263 374.348,-51.9112 373.257,-58.8257"/>
</g>
<!-- Node12 -->
<g id="node5" class="node"><title>Node12</title>
<g id="a_node5"><a xlink:href="namespaceboost_1_1multiprecision.html#a7279863141aac872da0e40a1f5c1593b" target="_top" xlink:title="boost::multiprecision\l::test_isMuchSmallerThan">
<polygon fill="none" stroke="black" points="331,-0.5 331,-30.5 471,-30.5 471,-0.5 331,-0.5"/>
<text text-anchor="start" x="339" y="-18.5" font-family="Helvetica,sans-Serif" font-size="10.00">boost::multiprecision</text>
<text text-anchor="middle" x="401" y="-7.5" font-family="Helvetica,sans-Serif" font-size="10.00">::test_isMuchSmallerThan</text>
</a>
</g>
</g>
<!-- Node10&#45;&gt;Node12 -->
<g id="edge4" class="edge"><title>Node10&#45;&gt;Node12</title>
<path fill="none" stroke="midnightblue" d="M295.342,-32.0052C303.199,-30.7661 311.852,-29.4015 320.715,-28.0038"/>
<polygon fill="midnightblue" stroke="midnightblue" points="321.446,-31.4318 330.778,-26.4167 320.355,-24.5173 321.446,-31.4318"/>
</g>
<!-- Node13 -->
<g id="node6" class="node"><title>Node13</title>
<g id="a_node6"><a xlink:href="namespaceEigen.html#a8b3c5cef3b8c53fa6c69aa2f608a5888" target="_top" xlink:title="Eigen::test_precision\l\&lt; Real \&gt;">
<polygon fill="none" stroke="black" points="507,-0.5 507,-30.5 623,-30.5 623,-0.5 507,-0.5"/>
<text text-anchor="start" x="515" y="-18.5" font-family="Helvetica,sans-Serif" font-size="10.00">Eigen::test_precision</text>
<text text-anchor="middle" x="565" y="-7.5" font-family="Helvetica,sans-Serif" font-size="10.00">&lt; Real &gt;</text>
</a>
</g>
</g>
<!-- Node12&#45;&gt;Node13 -->
<g id="edge5" class="edge"><title>Node12&#45;&gt;Node13</title>
<path fill="none" stroke="midnightblue" d="M471.172,-15.5C479.61,-15.5 488.222,-15.5 496.632,-15.5"/>
<polygon fill="midnightblue" stroke="midnightblue" points="496.766,-19.0001 506.766,-15.5 496.766,-12.0001 496.766,-19.0001"/>
</g>
<!-- Node14 -->
<g id="node7" class="node"><title>Node14</title>
<g id="a_node7"><a xlink:href="Cwise__array__power__array_8cpp.html#aa9e3025f5efca2c2a39d785652f2d710" target="_top" xlink:title="e">
<polygon fill="none" stroke="black" points="659,-6 659,-25 688,-25 688,-6 659,-6"/>
<text text-anchor="middle" x="673.5" y="-13" font-family="Helvetica,sans-Serif" font-size="10.00">e</text>
</a>
</g>
</g>
<!-- Node13&#45;&gt;Node14 -->
<g id="edge6" class="edge"><title>Node13&#45;&gt;Node14</title>
<path fill="none" stroke="midnightblue" d="M623.303,-15.5C632.168,-15.5 640.882,-15.5 648.456,-15.5"/>
<polygon fill="midnightblue" stroke="midnightblue" points="648.62,-19.0001 658.62,-15.5 648.62,-12.0001 648.62,-19.0001"/>
</g>
</g>
</svg>
