<?xml version="1.0" encoding="UTF-8" standalone="no"?>
<!DOCTYPE svg PUBLIC "-//W3C//DTD SVG 1.1//EN"
 "http://www.w3.org/Graphics/SVG/1.1/DTD/svg11.dtd">
<!-- Generated by graphviz version 2.38.0 (20140413.2041)
 -->
<!-- Title: /travis/libpairinteraction/eigen/demos/opengl/gpuhelper.h Pages: 1 -->
<svg width="624pt" height="184pt"
 viewBox="0.00 0.00 623.50 184.00" xmlns="http://www.w3.org/2000/svg" xmlns:xlink="http://www.w3.org/1999/xlink">
<g id="graph0" class="graph" transform="scale(1 1) rotate(0) translate(4 180)">
<title>/travis/libpairinteraction/eigen/demos/opengl/gpuhelper.h</title>
<!-- Node4 -->
<g id="node1" class="node"><title>Node4</title>
<polygon fill="#bfbfbf" stroke="black" points="201.5,-145.5 201.5,-175.5 377.5,-175.5 377.5,-145.5 201.5,-145.5"/>
<text text-anchor="start" x="209.5" y="-163.5" font-family="Helvetica,sans-Serif" font-size="10.00">/travis/libpairinteraction</text>
<text text-anchor="middle" x="289.5" y="-152.5" font-family="Helvetica,sans-Serif" font-size="10.00">/eigen/demos/opengl/gpuhelper.h</text>
</g>
<!-- Node5 -->
<g id="node2" class="node"><title>Node5</title>
<g id="a_node2"><a xlink:href="camera_8cpp.html" target="_top" xlink:title="/travis/libpairinteraction\l/eigen/demos/opengl/camera.cpp">
<polygon fill="none" stroke="black" points="-1.42109e-14,-78.5 -1.42109e-14,-108.5 177,-108.5 177,-78.5 -1.42109e-14,-78.5"/>
<text text-anchor="start" x="8" y="-96.5" font-family="Helvetica,sans-Serif" font-size="10.00">/travis/libpairinteraction</text>
<text text-anchor="middle" x="88.5" y="-85.5" font-family="Helvetica,sans-Serif" font-size="10.00">/eigen/demos/opengl/camera.cpp</text>
</a>
</g>
</g>
<!-- Node4&#45;&gt;Node5 -->
<g id="edge1" class="edge"><title>Node4&#45;&gt;Node5</title>
<path fill="none" stroke="midnightblue" d="M236.089,-142.228C203.574,-131.713 162.563,-118.451 132.029,-108.577"/>
<polygon fill="midnightblue" stroke="midnightblue" points="235.294,-145.649 245.886,-145.396 237.448,-138.989 235.294,-145.649"/>
</g>
<!-- Node6 -->
<g id="node3" class="node"><title>Node6</title>
<g id="a_node3"><a xlink:href="gpuhelper_8cpp.html" target="_top" xlink:title="/travis/libpairinteraction\l/eigen/demos/opengl/gpuhelper.cpp">
<polygon fill="none" stroke="black" points="195.5,-78.5 195.5,-108.5 383.5,-108.5 383.5,-78.5 195.5,-78.5"/>
<text text-anchor="start" x="203.5" y="-96.5" font-family="Helvetica,sans-Serif" font-size="10.00">/travis/libpairinteraction</text>
<text text-anchor="middle" x="289.5" y="-85.5" font-family="Helvetica,sans-Serif" font-size="10.00">/eigen/demos/opengl/gpuhelper.cpp</text>
</a>
</g>
</g>
<!-- Node4&#45;&gt;Node6 -->
<g id="edge2" class="edge"><title>Node4&#45;&gt;Node6</title>
<path fill="none" stroke="midnightblue" d="M289.5,-135.108C289.5,-126.154 289.5,-116.323 289.5,-108.577"/>
<polygon fill="midnightblue" stroke="midnightblue" points="286,-135.396 289.5,-145.396 293,-135.396 286,-135.396"/>
</g>
<!-- Node7 -->
<g id="node4" class="node"><title>Node7</title>
<g id="a_node4"><a xlink:href="quaternion__demo_8h.html" target="_top" xlink:title="/travis/libpairinteraction\l/eigen/demos/opengl/quaternion_demo.h">
<polygon fill="none" stroke="black" points="401.5,-78.5 401.5,-108.5 615.5,-108.5 615.5,-78.5 401.5,-78.5"/>
<text text-anchor="start" x="409.5" y="-96.5" font-family="Helvetica,sans-Serif" font-size="10.00">/travis/libpairinteraction</text>
<text text-anchor="middle" x="508.5" y="-85.5" font-family="Helvetica,sans-Serif" font-size="10.00">/eigen/demos/opengl/quaternion_demo.h</text>
</a>
</g>
</g>
<!-- Node4&#45;&gt;Node7 -->
<g id="edge3" class="edge"><title>Node4&#45;&gt;Node7</title>
<path fill="none" stroke="midnightblue" d="M346.508,-142.58C382.078,-132.022 427.328,-118.592 460.957,-108.611"/>
<polygon fill="midnightblue" stroke="midnightblue" points="345.341,-139.275 336.75,-145.476 347.333,-145.986 345.341,-139.275"/>
</g>
<!-- Node8 -->
<g id="node5" class="node"><title>Node8</title>
<g id="a_node5"><a xlink:href="quaternion__demo_8cpp.html" target="_top" xlink:title="/travis/libpairinteraction\l/eigen/demos/opengl/quaternion\l_demo.cpp">
<polygon fill="none" stroke="black" points="422.5,-0.5 422.5,-41.5 594.5,-41.5 594.5,-0.5 422.5,-0.5"/>
<text text-anchor="start" x="430.5" y="-29.5" font-family="Helvetica,sans-Serif" font-size="10.00">/travis/libpairinteraction</text>
<text text-anchor="start" x="430.5" y="-18.5" font-family="Helvetica,sans-Serif" font-size="10.00">/eigen/demos/opengl/quaternion</text>
<text text-anchor="middle" x="508.5" y="-7.5" font-family="Helvetica,sans-Serif" font-size="10.00">_demo.cpp</text>
</a>
</g>
</g>
<!-- Node7&#45;&gt;Node8 -->
<g id="edge4" class="edge"><title>Node7&#45;&gt;Node8</title>
<path fill="none" stroke="midnightblue" d="M508.5,-67.9815C508.5,-59.3468 508.5,-49.7625 508.5,-41.5884"/>
<polygon fill="midnightblue" stroke="midnightblue" points="505,-68.2332 508.5,-78.2333 512,-68.2333 505,-68.2332"/>
</g>
</g>
</svg>
