<?xml version="1.0" encoding="UTF-8" standalone="no"?>
<!DOCTYPE svg PUBLIC "-//W3C//DTD SVG 1.1//EN"
 "http://www.w3.org/Graphics/SVG/1.1/DTD/svg11.dtd">
<!-- Generated by graphviz version 2.38.0 (20140413.2041)
 -->
<!-- Title: Eigen::householderSequence Pages: 1 -->
<svg width="397pt" height="160pt"
 viewBox="0.00 0.00 397.00 160.00" xmlns="http://www.w3.org/2000/svg" xmlns:xlink="http://www.w3.org/1999/xlink">
<g id="graph0" class="graph" transform="scale(1 1) rotate(0) translate(4 156)">
<title>Eigen::householderSequence</title>
<!-- Node1 -->
<g id="node1" class="node"><title>Node1</title>
<polygon fill="#bfbfbf" stroke="black" points="0,-66.5 0,-85.5 156,-85.5 156,-66.5 0,-66.5"/>
<text text-anchor="middle" x="78" y="-73.5" font-family="Helvetica,sans-Serif" font-size="10.00">Eigen::householderSequence</text>
</g>
<!-- Node2 -->
<g id="node2" class="node"><title>Node2</title>
<g id="a_node2"><a xlink:href="classEigen_1_1HouseholderQR.html#ade4806131aa604a7e767a276d99894e9" target="_top" xlink:title="Eigen::HouseholderQR\l\&lt; TransposeTypeWithSameStorage\lOrder \&gt;::_solve_impl">
<polygon fill="none" stroke="black" points="198.5,-110.5 198.5,-151.5 382.5,-151.5 382.5,-110.5 198.5,-110.5"/>
<text text-anchor="start" x="206.5" y="-139.5" font-family="Helvetica,sans-Serif" font-size="10.00">Eigen::HouseholderQR</text>
<text text-anchor="start" x="206.5" y="-128.5" font-family="Helvetica,sans-Serif" font-size="10.00">&lt; TransposeTypeWithSameStorage</text>
<text text-anchor="middle" x="290.5" y="-117.5" font-family="Helvetica,sans-Serif" font-size="10.00">Order &gt;::_solve_impl</text>
</a>
</g>
</g>
<!-- Node1&#45;&gt;Node2 -->
<g id="edge1" class="edge"><title>Node1&#45;&gt;Node2</title>
<path fill="none" stroke="midnightblue" d="M125.628,-88.1832C150.687,-94.7304 182.254,-102.978 210.977,-110.483"/>
<polygon fill="midnightblue" stroke="midnightblue" points="126.226,-84.722 115.666,-85.5803 124.457,-91.4946 126.226,-84.722"/>
</g>
<!-- Node3 -->
<g id="node3" class="node"><title>Node3</title>
<g id="a_node3"><a xlink:href="classEigen_1_1CompleteOrthogonalDecomposition.html#a6b6db285a30edd61d7ea2690062f4a93" target="_top" xlink:title="Eigen::CompleteOrthogonal\lDecomposition::_solve_impl">
<polygon fill="none" stroke="black" points="215.5,-61 215.5,-91 365.5,-91 365.5,-61 215.5,-61"/>
<text text-anchor="start" x="223.5" y="-79" font-family="Helvetica,sans-Serif" font-size="10.00">Eigen::CompleteOrthogonal</text>
<text text-anchor="middle" x="290.5" y="-68" font-family="Helvetica,sans-Serif" font-size="10.00">Decomposition::_solve_impl</text>
</a>
</g>
</g>
<!-- Node1&#45;&gt;Node3 -->
<g id="edge2" class="edge"><title>Node1&#45;&gt;Node3</title>
<path fill="none" stroke="midnightblue" d="M166.276,-76C182.628,-76 199.576,-76 215.478,-76"/>
<polygon fill="midnightblue" stroke="midnightblue" points="166.187,-72.5001 156.187,-76 166.187,-79.5001 166.187,-72.5001"/>
</g>
<!-- Node4 -->
<g id="node4" class="node"><title>Node4</title>
<g id="a_node4"><a xlink:href="classEigen_1_1ColPivHouseholderQR.html#ae6bdb186aa81c7b4fae575c6e055ab47" target="_top" xlink:title="Eigen::ColPivHouseholder\lQR\&lt; TransposeTypeWithSameStorage\lOrder \&gt;::_solve_impl">
<polygon fill="none" stroke="black" points="192,-0.5 192,-41.5 389,-41.5 389,-0.5 192,-0.5"/>
<text text-anchor="start" x="200" y="-29.5" font-family="Helvetica,sans-Serif" font-size="10.00">Eigen::ColPivHouseholder</text>
<text text-anchor="start" x="200" y="-18.5" font-family="Helvetica,sans-Serif" font-size="10.00">QR&lt; TransposeTypeWithSameStorage</text>
<text text-anchor="middle" x="290.5" y="-7.5" font-family="Helvetica,sans-Serif" font-size="10.00">Order &gt;::_solve_impl</text>
</a>
</g>
</g>
<!-- Node1&#45;&gt;Node4 -->
<g id="edge3" class="edge"><title>Node1&#45;&gt;Node4</title>
<path fill="none" stroke="midnightblue" d="M125.628,-63.8168C150.687,-57.2696 182.254,-49.0215 210.977,-41.5166"/>
<polygon fill="midnightblue" stroke="midnightblue" points="124.457,-60.5054 115.666,-66.4197 126.226,-67.278 124.457,-60.5054"/>
</g>
</g>
</svg>
