<?xml version="1.0" encoding="UTF-8" standalone="no"?>
<!DOCTYPE svg PUBLIC "-//W3C//DTD SVG 1.1//EN"
 "http://www.w3.org/Graphics/SVG/1.1/DTD/svg11.dtd">
<!-- Generated by graphviz version 2.38.0 (20140413.2041)
 -->
<!-- Title: Eigen::ChordLengths Pages: 1 -->
<!--zoomable 145 -->
<svg id="main" version="1.1" xmlns="http://www.w3.org/2000/svg" xmlns:xlink="http://www.w3.org/1999/xlink" xml:space="preserve" onload="init(evt)">
<style type="text/css"><![CDATA[
.edge:hover path { stroke: red; }
.edge:hover polygon { stroke: red; fill: red; }
]]></style>
<script type="text/javascript"><![CDATA[
var edges = document.getElementsByTagName('g');
if (edges && edges.length) {
  for (var i=0;i<edges.length;i++) {
    if (edges[i].id.substr(0,4)=='edge') {
      edges[i].setAttribute('class','edge');
    }
  }
}
]]></script>
        <defs>
                <circle id="rim" cx="0" cy="0" r="7"/>
                <circle id="rim2" cx="0" cy="0" r="3.5"/>
                <g id="zoomPlus">
                        <use xlink:href="#rim" fill="#404040">
                                <set attributeName="fill" to="#808080" begin="zoomplus.mouseover" end="zoomplus.mouseout"/>
                        </use>
                        <path d="M-4,0h8M0,-4v8" fill="none" stroke="white" stroke-width="1.5" pointer-events="none"/>
                </g>
                <g id="zoomMin">
                        <use xlink:href="#rim" fill="#404040">
                                <set attributeName="fill" to="#808080" begin="zoomminus.mouseover" end="zoomminus.mouseout"/>
                        </use>
                        <path d="M-4,0h8" fill="none" stroke="white" stroke-width="1.5" pointer-events="none"/>
                </g>
                <g id="dirArrow">
                        <path fill="none" stroke="white" stroke-width="1.5" d="M0,-3.0v7 M-2.5,-0.5L0,-3.0L2.5,-0.5"/>
                </g>
               <g id="resetDef">
                       <use xlink:href="#rim2" fill="#404040">
                               <set attributeName="fill" to="#808080" begin="reset.mouseover" end="reset.mouseout"/>
                       </use>
               </g>
        </defs>

<script type="text/javascript">
var viewWidth = 609;
var viewHeight = 145;
var sectionId = 'dynsection-2';
</script>
<script xlink:href="svgpan.js"/>
<svg id="graph" class="graph">
<g id="viewport">
<title>Eigen::ChordLengths</title>
<!-- Node2 -->
<g id="node1" class="node"><title>Node2</title>
<polygon fill="#bfbfbf" stroke="black" points="0,-72 0,-91 116,-91 116,-72 0,-72"/>
<text text-anchor="middle" x="58" y="-79" font-family="Helvetica,sans-Serif" font-size="10.00">Eigen::ChordLengths</text>
</g>
<!-- Node3 -->
<g id="node2" class="node"><title>Node3</title>
<g id="a_node2"><a xlink:href="splines_8cpp.html#a77f0fc9d98ed14abf8a32e543f74e152" target="_top" xlink:title="check_global_interpolation2d">
<polygon fill="none" stroke="black" points="336,-94 336,-113 491,-113 491,-94 336,-94"/>
<text text-anchor="middle" x="413.5" y="-101" font-family="Helvetica,sans-Serif" font-size="10.00">check_global_interpolation2d</text>
</a>
</g>
</g>
<!-- Node2&#45;&gt;Node3 -->
<g id="edge1" class="edge"><title>Node2&#45;&gt;Node3</title>
<path fill="none" stroke="midnightblue" d="M81.3506,-96.5755C99.5005,-107.858 126.225,-122.357 152,-128.5 233.099,-147.829 331.779,-126.603 381.168,-113.03"/>
<polygon fill="midnightblue" stroke="midnightblue" points="83,-93.4756 72.6913,-91.03 79.2249,-99.3705 83,-93.4756"/>
</g>
<!-- Node5 -->
<g id="node4" class="node"><title>Node5</title>
<g id="a_node4"><a xlink:href="splines_8cpp.html#a6cf977c6acde0519c1f7f5e7f428d0aa" target="_top" xlink:title="check_global_interpolation\l_with_derivatives2d">
<polygon fill="none" stroke="black" points="342,-44.5 342,-74.5 485,-74.5 485,-44.5 342,-44.5"/>
<text text-anchor="start" x="350" y="-62.5" font-family="Helvetica,sans-Serif" font-size="10.00">check_global_interpolation</text>
<text text-anchor="middle" x="413.5" y="-51.5" font-family="Helvetica,sans-Serif" font-size="10.00">_with_derivatives2d</text>
</a>
</g>
</g>
<!-- Node2&#45;&gt;Node5 -->
<g id="edge3" class="edge"><title>Node2&#45;&gt;Node5</title>
<path fill="none" stroke="midnightblue" d="M126.22,-77.3165C187.987,-73.4725 279.209,-67.7954 341.993,-63.888"/>
<polygon fill="midnightblue" stroke="midnightblue" points="125.952,-73.8264 116.189,-77.9409 126.387,-80.8129 125.952,-73.8264"/>
</g>
<!-- Node6 -->
<g id="node5" class="node"><title>Node6</title>
<g id="a_node5"><a xlink:href="structEigen_1_1SplineFitting.html#adc80b6f0dd0dbbea28130fb254626874" target="_top" xlink:title="Fits an interpolating Spline to the given data points. ">
<polygon fill="none" stroke="black" points="172.5,-88.5 172.5,-118.5 279.5,-118.5 279.5,-88.5 172.5,-88.5"/>
<text text-anchor="start" x="180.5" y="-106.5" font-family="Helvetica,sans-Serif" font-size="10.00">Eigen::SplineFitting</text>
<text text-anchor="middle" x="226" y="-95.5" font-family="Helvetica,sans-Serif" font-size="10.00">::Interpolate</text>
</a>
</g>
</g>
<!-- Node2&#45;&gt;Node6 -->
<g id="edge5" class="edge"><title>Node2&#45;&gt;Node6</title>
<path fill="none" stroke="midnightblue" d="M126.091,-90.3916C141.453,-92.4275 157.571,-94.5636 172.231,-96.5065"/>
<polygon fill="midnightblue" stroke="midnightblue" points="126.501,-86.9154 116.128,-89.0712 125.581,-93.8547 126.501,-86.9154"/>
</g>
<!-- Node7 -->
<g id="node6" class="node"><title>Node7</title>
<g id="a_node6"><a xlink:href="structEigen_1_1SplineFitting.html#a7bd937fdcfa168dbdc27932886a4da9f" target="_top" xlink:title="Fits an interpolating spline to the given data points and derivatives. ">
<polygon fill="none" stroke="black" points="152,-0.5 152,-30.5 300,-30.5 300,-0.5 152,-0.5"/>
<text text-anchor="start" x="160" y="-18.5" font-family="Helvetica,sans-Serif" font-size="10.00">Eigen::SplineFitting</text>
<text text-anchor="middle" x="226" y="-7.5" font-family="Helvetica,sans-Serif" font-size="10.00">::InterpolateWithDerivatives</text>
</a>
</g>
</g>
<!-- Node2&#45;&gt;Node7 -->
<g id="edge7" class="edge"><title>Node2&#45;&gt;Node7</title>
<path fill="none" stroke="midnightblue" d="M92.6642,-68.1154C120.006,-57.2448 158.558,-41.9165 187.003,-30.6071"/>
<polygon fill="midnightblue" stroke="midnightblue" points="91.1372,-64.956 83.1378,-71.903 93.7234,-71.4607 91.1372,-64.956"/>
</g>
<!-- Node4 -->
<g id="node3" class="node"><title>Node4</title>
<g id="a_node3"><a xlink:href="splines_8cpp.html#a57b2505a0c99a367836411dc4e1546e2" target="_top" xlink:title="test_splines">
<polygon fill="none" stroke="black" points="527,-72 527,-91 601,-91 601,-72 527,-72"/>
<text text-anchor="middle" x="564" y="-79" font-family="Helvetica,sans-Serif" font-size="10.00">test_splines</text>
</a>
</g>
</g>
<!-- Node3&#45;&gt;Node4 -->
<g id="edge2" class="edge"><title>Node3&#45;&gt;Node4</title>
<path fill="none" stroke="midnightblue" d="M488.856,-92.4843C502.081,-90.5251 515.3,-88.5666 526.838,-86.8574"/>
<polygon fill="midnightblue" stroke="midnightblue" points="488.15,-89.0507 478.771,-93.9784 489.176,-95.9751 488.15,-89.0507"/>
</g>
<!-- Node5&#45;&gt;Node4 -->
<g id="edge4" class="edge"><title>Node5&#45;&gt;Node4</title>
<path fill="none" stroke="midnightblue" d="M495.356,-71.4787C506.31,-73.1014 517.07,-74.6955 526.673,-76.1182"/>
<polygon fill="midnightblue" stroke="midnightblue" points="495.676,-67.9879 485.271,-69.9845 494.65,-74.9123 495.676,-67.9879"/>
</g>
<!-- Node6&#45;&gt;Node3 -->
<g id="edge6" class="edge"><title>Node6&#45;&gt;Node3</title>
<path fill="none" stroke="midnightblue" d="M289.708,-103.5C304.515,-103.5 320.468,-103.5 335.816,-103.5"/>
<polygon fill="midnightblue" stroke="midnightblue" points="289.661,-100 279.661,-103.5 289.661,-107 289.661,-100"/>
</g>
<!-- Node7&#45;&gt;Node5 -->
<g id="edge8" class="edge"><title>Node7&#45;&gt;Node5</title>
<path fill="none" stroke="midnightblue" d="M300.259,-32.8769C316.425,-36.7112 333.417,-40.7418 349.151,-44.4738"/>
<polygon fill="midnightblue" stroke="midnightblue" points="300.858,-29.4217 290.32,-30.5192 299.242,-36.2328 300.858,-29.4217"/>
</g>
</g>
</svg>
        <g id="navigator" transform="translate(0 0)" fill="#404254">
                <rect fill="#f2f5e9" fill-opacity="0.5" stroke="#606060" stroke-width=".5" x="0" y="0" width="60" height="60"/>
                <use id="zoomplus" xlink:href="#zoomPlus" x="17" y="9" onmousedown="handleZoom(evt,'in')"/>
                <use id="zoomminus" xlink:href="#zoomMin" x="42" y="9" onmousedown="handleZoom(evt,'out')"/>
                <use id="reset" xlink:href="#resetDef" x="30" y="36" onmousedown="handleReset()"/>
                <g id="arrowUp" xlink:href="#dirArrow" transform="translate(30 24)" onmousedown="handlePan(0,-1)">
                  <use xlink:href="#rim" fill="#404040">
                        <set attributeName="fill" to="#808080" begin="arrowUp.mouseover" end="arrowUp.mouseout"/>
                  </use>
                  <path fill="none" stroke="white" stroke-width="1.5" d="M0,-3.0v7 M-2.5,-0.5L0,-3.0L2.5,-0.5"/>
                </g>
                <g id="arrowRight" xlink:href="#dirArrow" transform="rotate(90) translate(36 -43)" onmousedown="handlePan(1,0)">
                  <use xlink:href="#rim" fill="#404040">
                        <set attributeName="fill" to="#808080" begin="arrowRight.mouseover" end="arrowRight.mouseout"/>
                  </use>
                  <path fill="none" stroke="white" stroke-width="1.5" d="M0,-3.0v7 M-2.5,-0.5L0,-3.0L2.5,-0.5"/>
                </g>
                <g id="arrowDown" xlink:href="#dirArrow" transform="rotate(180) translate(-30 -48)" onmousedown="handlePan(0,1)">
                  <use xlink:href="#rim" fill="#404040">
                        <set attributeName="fill" to="#808080" begin="arrowDown.mouseover" end="arrowDown.mouseout"/>
                  </use>
                  <path fill="none" stroke="white" stroke-width="1.5" d="M0,-3.0v7 M-2.5,-0.5L0,-3.0L2.5,-0.5"/>
                </g>
                <g id="arrowLeft" xlink:href="#dirArrow" transform="rotate(270) translate(-36 17)" onmousedown="handlePan(-1,0)">
                  <use xlink:href="#rim" fill="#404040">
                        <set attributeName="fill" to="#808080" begin="arrowLeft.mouseover" end="arrowLeft.mouseout"/>
                  </use>
                  <path fill="none" stroke="white" stroke-width="1.5" d="M0,-3.0v7 M-2.5,-0.5L0,-3.0L2.5,-0.5"/>
                </g>
        </g>
        <svg viewBox="0 0 15 15" width="100%" height="30px" preserveAspectRatio="xMaxYMin meet">
         <g id="arrow_out" transform="scale(0.3 0.3)">
          <a xlink:href="group__Splines__Module_ga1b4cbde5d98411405871accf877552d2_icgraph_org.svg" target="_base">
           <rect id="button" ry="5" rx="5" y="6" x="6" height="38" width="38"
                fill="#f2f5e9" fill-opacity="0.5" stroke="#606060" stroke-width="1.0"/>
           <path id="arrow"
             d="M 11.500037,31.436501 C 11.940474,20.09759 22.043105,11.32322 32.158766,21.979434 L 37.068811,17.246167 C 37.068811,17.246167 37.088388,32 37.088388,32 L 22.160133,31.978069 C 22.160133,31.978069 26.997745,27.140456 26.997745,27.140456 C 18.528582,18.264221 13.291696,25.230495 11.500037,31.436501 z"
             style="fill:#404040;"/>
          </a>
         </g>
        </svg>
</svg>
