<?xml version="1.0" encoding="UTF-8" standalone="no"?>
<!DOCTYPE svg PUBLIC "-//W3C//DTD SVG 1.1//EN"
 "http://www.w3.org/Graphics/SVG/1.1/DTD/svg11.dtd">
<!-- Generated by graphviz version 2.38.0 (20140413.2041)
 -->
<!-- Title: energycutoff Pages: 1 -->
<svg width="468pt" height="28pt"
 viewBox="0.00 0.00 468.00 28.00" xmlns="http://www.w3.org/2000/svg" xmlns:xlink="http://www.w3.org/1999/xlink">
<g id="graph0" class="graph" transform="scale(1 1) rotate(0) translate(4 24)">
<title>energycutoff</title>
<!-- Node15 -->
<g id="node1" class="node"><title>Node15</title>
<polygon fill="#bfbfbf" stroke="black" points="0,-0.5 0,-19.5 77,-19.5 77,-0.5 0,-0.5"/>
<text text-anchor="middle" x="38.5" y="-7.5" font-family="Helvetica,sans-Serif" font-size="10.00">energycutoff</text>
</g>
<!-- Node16 -->
<g id="node2" class="node"><title>Node16</title>
<g id="a_node2"><a xlink:href="classHamiltonianTwo.html#a6ca0a318f25170b69e571a07064a5afb" target="_top" xlink:title="HamiltonianTwo::calculate">
<polygon fill="none" stroke="black" points="113,-0.5 113,-19.5 253,-19.5 253,-0.5 113,-0.5"/>
<text text-anchor="middle" x="183" y="-7.5" font-family="Helvetica,sans-Serif" font-size="10.00">HamiltonianTwo::calculate</text>
</a>
</g>
</g>
<!-- Node15&#45;&gt;Node16 -->
<g id="edge1" class="edge"><title>Node15&#45;&gt;Node16</title>
<path fill="none" stroke="midnightblue" d="M87.4036,-10C95.595,-10 104.249,-10 112.862,-10"/>
<polygon fill="midnightblue" stroke="midnightblue" points="87.3133,-6.5001 77.3133,-10 87.3132,-13.5001 87.3133,-6.5001"/>
</g>
<!-- Node17 -->
<g id="node3" class="node"><title>Node17</title>
<g id="a_node3"><a xlink:href="classHamiltonianTwo.html#a8d51d632bd7862cf1e566f6faf9ccc8c" target="_top" xlink:title="HamiltonianTwo::HamiltonianTwo">
<polygon fill="none" stroke="black" points="289,-0.5 289,-19.5 460,-19.5 460,-0.5 289,-0.5"/>
<text text-anchor="middle" x="374.5" y="-7.5" font-family="Helvetica,sans-Serif" font-size="10.00">HamiltonianTwo::HamiltonianTwo</text>
</a>
</g>
</g>
<!-- Node16&#45;&gt;Node17 -->
<g id="edge2" class="edge"><title>Node16&#45;&gt;Node17</title>
<path fill="none" stroke="midnightblue" d="M263.424,-10C271.874,-10 280.492,-10 288.997,-10"/>
<polygon fill="midnightblue" stroke="midnightblue" points="263.218,-6.5001 253.218,-10 263.218,-13.5001 263.218,-6.5001"/>
</g>
</g>
</svg>
