<?xml version="1.0" encoding="UTF-8" standalone="no"?>
<!DOCTYPE svg PUBLIC "-//W3C//DTD SVG 1.1//EN"
 "http://www.w3.org/Graphics/SVG/1.1/DTD/svg11.dtd">
<!-- Generated by graphviz version 2.38.0 (20140413.2041)
 -->
<!-- Title: /travis/libpairinteraction/Hamiltonian.h Pages: 1 -->
<svg width="1463pt" height="330pt"
 viewBox="0.00 0.00 1463.00 330.00" xmlns="http://www.w3.org/2000/svg" xmlns:xlink="http://www.w3.org/1999/xlink">
<g id="graph0" class="graph" transform="scale(1 1) rotate(0) translate(4 326)">
<title>/travis/libpairinteraction/Hamiltonian.h</title>
<!-- Node0 -->
<g id="node1" class="node"><title>Node0</title>
<polygon fill="#bfbfbf" stroke="black" points="315,-291.5 315,-321.5 443,-321.5 443,-291.5 315,-291.5"/>
<text text-anchor="start" x="323" y="-309.5" font-family="Helvetica,sans-Serif" font-size="10.00">/travis/libpairinteraction</text>
<text text-anchor="middle" x="379" y="-298.5" font-family="Helvetica,sans-Serif" font-size="10.00">/Hamiltonian.h</text>
</g>
<!-- Node1 -->
<g id="node2" class="node"><title>Node1</title>
<g id="a_node2"><a xlink:href="Hamiltonianmatrix_8h.html" target="_top" xlink:title="Hamiltonianmatrix.h">
<polygon fill="none" stroke="black" points="704,-235.5 704,-254.5 818,-254.5 818,-235.5 704,-235.5"/>
<text text-anchor="middle" x="761" y="-242.5" font-family="Helvetica,sans-Serif" font-size="10.00">Hamiltonianmatrix.h</text>
</a>
</g>
</g>
<!-- Node0&#45;&gt;Node1 -->
<g id="edge1" class="edge"><title>Node0&#45;&gt;Node1</title>
<path fill="none" stroke="midnightblue" d="M443.369,-295.474C513.694,-284.52 625.702,-267.074 696.197,-256.094"/>
<polygon fill="midnightblue" stroke="midnightblue" points="696.945,-259.519 706.287,-254.522 695.867,-252.603 696.945,-259.519"/>
</g>
<!-- Node3 -->
<g id="node4" class="node"><title>Node3</title>
<polygon fill="none" stroke="#bfbfbf" points="87.5,-0.5 87.5,-19.5 134.5,-19.5 134.5,-0.5 87.5,-0.5"/>
<text text-anchor="middle" x="111" y="-7.5" font-family="Helvetica,sans-Serif" font-size="10.00">vector</text>
</g>
<!-- Node0&#45;&gt;Node3 -->
<g id="edge50" class="edge"><title>Node0&#45;&gt;Node3</title>
<path fill="none" stroke="midnightblue" d="M314.708,-299.264C206.577,-286.979 0,-255.003 0,-190 0,-190 0,-190 0,-132 0,-82.1838 51.7223,-43.9965 84.5538,-24.7745"/>
<polygon fill="midnightblue" stroke="midnightblue" points="86.6635,-27.6031 93.6562,-19.6437 83.2262,-21.5051 86.6635,-27.6031"/>
</g>
<!-- Node2 -->
<g id="node3" class="node"><title>Node2</title>
<g id="a_node3"><a xlink:href="dtypes_8h.html" target="_top" xlink:title="dtypes.h">
<polygon fill="none" stroke="black" points="261,-62 261,-81 319,-81 319,-62 261,-62"/>
<text text-anchor="middle" x="290" y="-69" font-family="Helvetica,sans-Serif" font-size="10.00">dtypes.h</text>
</a>
</g>
</g>
<!-- Node1&#45;&gt;Node2 -->
<g id="edge2" class="edge"><title>Node1&#45;&gt;Node2</title>
<path fill="none" stroke="midnightblue" d="M703.83,-244.399C565.538,-243.909 220.034,-233.494 162,-143 138.318,-106.071 205.031,-86.8646 250.826,-78.2877"/>
<polygon fill="midnightblue" stroke="midnightblue" points="251.572,-81.7101 260.809,-76.521 250.352,-74.8172 251.572,-81.7101"/>
</g>
<!-- Node1&#45;&gt;Node3 -->
<g id="edge49" class="edge"><title>Node1&#45;&gt;Node3</title>
<path fill="none" stroke="midnightblue" d="M703.713,-244.473C580.318,-244.673 293.582,-240.502 207,-199 148.655,-171.033 134.957,-148.213 114,-87 107.598,-68.3017 107.657,-45.489 108.81,-29.7645"/>
<polygon fill="midnightblue" stroke="midnightblue" points="112.302,-30.0144 109.766,-19.7275 105.333,-29.3505 112.302,-30.0144"/>
</g>
<!-- Node7 -->
<g id="node8" class="node"><title>Node7</title>
<g id="a_node8"><a xlink:href="Serializable_8h.html" target="_top" xlink:title="Serializable.h">
<polygon fill="none" stroke="black" points="293,-179.5 293,-198.5 373,-198.5 373,-179.5 293,-179.5"/>
<text text-anchor="middle" x="333" y="-186.5" font-family="Helvetica,sans-Serif" font-size="10.00">Serializable.h</text>
</a>
</g>
</g>
<!-- Node1&#45;&gt;Node7 -->
<g id="edge7" class="edge"><title>Node1&#45;&gt;Node7</title>
<path fill="none" stroke="midnightblue" d="M703.722,-236.773C619.466,-226.143 463.46,-206.46 383.351,-196.353"/>
<polygon fill="midnightblue" stroke="midnightblue" points="383.393,-192.83 373.033,-195.051 382.517,-199.775 383.393,-192.83"/>
</g>
<!-- Node10 -->
<g id="node11" class="node"><title>Node10</title>
<polygon fill="none" stroke="#bfbfbf" points="516.5,-123.5 516.5,-142.5 573.5,-142.5 573.5,-123.5 516.5,-123.5"/>
<text text-anchor="middle" x="545" y="-130.5" font-family="Helvetica,sans-Serif" font-size="10.00">memory</text>
</g>
<!-- Node1&#45;&gt;Node10 -->
<g id="edge46" class="edge"><title>Node1&#45;&gt;Node10</title>
<path fill="none" stroke="midnightblue" d="M744.051,-235.368C706.433,-216.211 615.761,-170.036 570.954,-147.217"/>
<polygon fill="midnightblue" stroke="midnightblue" points="572.37,-144.011 561.87,-142.591 569.193,-150.248 572.37,-144.011"/>
</g>
<!-- Node13 -->
<g id="node14" class="node"><title>Node13</title>
<g id="a_node14"><a xlink:href="Basisnames_8h.html" target="_top" xlink:title="Basisnames.h">
<polygon fill="none" stroke="black" points="719,-179.5 719,-198.5 803,-198.5 803,-179.5 719,-179.5"/>
<text text-anchor="middle" x="761" y="-186.5" font-family="Helvetica,sans-Serif" font-size="10.00">Basisnames.h</text>
</a>
</g>
</g>
<!-- Node1&#45;&gt;Node13 -->
<g id="edge15" class="edge"><title>Node1&#45;&gt;Node13</title>
<path fill="none" stroke="midnightblue" d="M761,-235.083C761,-228.006 761,-217.861 761,-208.986"/>
<polygon fill="midnightblue" stroke="midnightblue" points="764.5,-208.751 761,-198.751 757.5,-208.751 764.5,-208.751"/>
</g>
<!-- Node15 -->
<g id="node16" class="node"><title>Node15</title>
<g id="a_node16"><a xlink:href="State_8h.html" target="_top" xlink:title="State.h">
<polygon fill="none" stroke="black" points="668,-123.5 668,-142.5 720,-142.5 720,-123.5 668,-123.5"/>
<text text-anchor="middle" x="694" y="-130.5" font-family="Helvetica,sans-Serif" font-size="10.00">State.h</text>
</a>
</g>
</g>
<!-- Node1&#45;&gt;Node15 -->
<g id="edge37" class="edge"><title>Node1&#45;&gt;Node15</title>
<path fill="none" stroke="midnightblue" d="M747.192,-235.355C735.534,-227.338 719.298,-214.352 710,-199 701.439,-184.866 697.452,-166.381 695.599,-152.738"/>
<polygon fill="midnightblue" stroke="midnightblue" points="699.059,-152.178 694.491,-142.619 692.101,-152.94 699.059,-152.178"/>
</g>
<!-- Node28 -->
<g id="node29" class="node"><title>Node28</title>
<g id="a_node29"><a xlink:href="utils_8h.html" target="_top" xlink:title="utils.h">
<polygon fill="none" stroke="black" points="821.5,-179.5 821.5,-198.5 866.5,-198.5 866.5,-179.5 821.5,-179.5"/>
<text text-anchor="middle" x="844" y="-186.5" font-family="Helvetica,sans-Serif" font-size="10.00">utils.h</text>
</a>
</g>
</g>
<!-- Node1&#45;&gt;Node28 -->
<g id="edge38" class="edge"><title>Node1&#45;&gt;Node28</title>
<path fill="none" stroke="midnightblue" d="M774.335,-235.324C787.162,-226.979 806.785,-214.212 821.94,-204.352"/>
<polygon fill="midnightblue" stroke="midnightblue" points="824.224,-207.042 830.698,-198.655 820.407,-201.174 824.224,-207.042"/>
</g>
<!-- Node33 -->
<g id="node34" class="node"><title>Node33</title>
<polygon fill="none" stroke="#bfbfbf" points="884.5,-179.5 884.5,-198.5 931.5,-198.5 931.5,-179.5 884.5,-179.5"/>
<text text-anchor="middle" x="908" y="-186.5" font-family="Helvetica,sans-Serif" font-size="10.00">cmath</text>
</g>
<!-- Node1&#45;&gt;Node33 -->
<g id="edge43" class="edge"><title>Node1&#45;&gt;Node33</title>
<path fill="none" stroke="midnightblue" d="M784.293,-235.444C808.807,-226.438 847.596,-212.189 875.2,-202.049"/>
<polygon fill="midnightblue" stroke="midnightblue" points="876.637,-205.25 884.816,-198.516 874.223,-198.679 876.637,-205.25"/>
</g>
<!-- Node34 -->
<g id="node35" class="node"><title>Node34</title>
<polygon fill="none" stroke="#bfbfbf" points="949.5,-179.5 949.5,-198.5 998.5,-198.5 998.5,-179.5 949.5,-179.5"/>
<text text-anchor="middle" x="974" y="-186.5" font-family="Helvetica,sans-Serif" font-size="10.00">cstdint</text>
</g>
<!-- Node1&#45;&gt;Node34 -->
<g id="edge44" class="edge"><title>Node1&#45;&gt;Node34</title>
<path fill="none" stroke="midnightblue" d="M795.682,-235.417C829.793,-226.945 883.6,-213.502 939.733,-199.044"/>
<polygon fill="midnightblue" stroke="midnightblue" points="940.687,-202.413 949.496,-196.526 938.938,-195.635 940.687,-202.413"/>
</g>
<!-- Node35 -->
<g id="node36" class="node"><title>Node35</title>
<polygon fill="none" stroke="#bfbfbf" points="1016.5,-179.5 1016.5,-198.5 1065.5,-198.5 1065.5,-179.5 1016.5,-179.5"/>
<text text-anchor="middle" x="1041" y="-186.5" font-family="Helvetica,sans-Serif" font-size="10.00">stdio.h</text>
</g>
<!-- Node1&#45;&gt;Node35 -->
<g id="edge45" class="edge"><title>Node1&#45;&gt;Node35</title>
<path fill="none" stroke="midnightblue" d="M814.508,-235.447C862.257,-227.536 934.282,-214.921 1006.05,-199.069"/>
<polygon fill="midnightblue" stroke="midnightblue" points="1007.17,-202.404 1016.17,-196.811 1005.65,-195.572 1007.17,-202.404"/>
</g>
<!-- Node36 -->
<g id="node37" class="node"><title>Node36</title>
<polygon fill="none" stroke="#bfbfbf" points="1083.5,-179.5 1083.5,-198.5 1146.5,-198.5 1146.5,-179.5 1083.5,-179.5"/>
<text text-anchor="middle" x="1115" y="-186.5" font-family="Helvetica,sans-Serif" font-size="10.00">exception</text>
</g>
<!-- Node1&#45;&gt;Node36 -->
<g id="edge47" class="edge"><title>Node1&#45;&gt;Node36</title>
<path fill="none" stroke="midnightblue" d="M818.032,-237.077C878.775,-229.416 977.939,-216.093 1073.17,-199.033"/>
<polygon fill="midnightblue" stroke="midnightblue" points="1074.04,-202.431 1083.26,-197.208 1072.8,-195.543 1074.04,-202.431"/>
</g>
<!-- Node37 -->
<g id="node38" class="node"><title>Node37</title>
<polygon fill="none" stroke="#bfbfbf" points="1165,-179.5 1165,-198.5 1229,-198.5 1229,-179.5 1165,-179.5"/>
<text text-anchor="middle" x="1197" y="-186.5" font-family="Helvetica,sans-Serif" font-size="10.00">stdexcept</text>
</g>
<!-- Node1&#45;&gt;Node37 -->
<g id="edge48" class="edge"><title>Node1&#45;&gt;Node37</title>
<path fill="none" stroke="midnightblue" d="M818.005,-239.245C894.841,-232.436 1035.76,-218.537 1155,-199 1155.1,-198.983 1155.2,-198.967 1155.3,-198.95"/>
<polygon fill="midnightblue" stroke="midnightblue" points="1155.74,-202.428 1164.96,-197.202 1154.49,-195.54 1155.74,-202.428"/>
</g>
<!-- Node2&#45;&gt;Node3 -->
<g id="edge3" class="edge"><title>Node2&#45;&gt;Node3</title>
<path fill="none" stroke="midnightblue" d="M264.542,-61.8887C258.776,-59.9457 252.679,-57.897 247,-56 211.915,-44.2802 171.691,-30.9888 144.143,-21.908"/>
<polygon fill="midnightblue" stroke="midnightblue" points="145.193,-18.5689 134.6,-18.7636 143.002,-25.2173 145.193,-18.5689"/>
</g>
<!-- Node4 -->
<g id="node5" class="node"><title>Node4</title>
<polygon fill="none" stroke="#bfbfbf" points="346.5,-0.5 346.5,-19.5 387.5,-19.5 387.5,-0.5 346.5,-0.5"/>
<text text-anchor="middle" x="367" y="-7.5" font-family="Helvetica,sans-Serif" font-size="10.00">array</text>
</g>
<!-- Node2&#45;&gt;Node4 -->
<g id="edge4" class="edge"><title>Node2&#45;&gt;Node4</title>
<path fill="none" stroke="midnightblue" d="M301.032,-61.9751C313.268,-52.5199 333.229,-37.0961 347.993,-25.6871"/>
<polygon fill="midnightblue" stroke="midnightblue" points="350.215,-28.3931 355.988,-19.5091 345.935,-22.8541 350.215,-28.3931"/>
</g>
<!-- Node5 -->
<g id="node6" class="node"><title>Node5</title>
<polygon fill="none" stroke="#bfbfbf" points="153,-0.5 153,-19.5 233,-19.5 233,-0.5 153,-0.5"/>
<text text-anchor="middle" x="193" y="-7.5" font-family="Helvetica,sans-Serif" font-size="10.00">Eigen/Sparse</text>
</g>
<!-- Node2&#45;&gt;Node5 -->
<g id="edge5" class="edge"><title>Node2&#45;&gt;Node5</title>
<path fill="none" stroke="midnightblue" d="M276.102,-61.9751C260.328,-52.2989 234.363,-36.3721 215.651,-24.8941"/>
<polygon fill="midnightblue" stroke="midnightblue" points="217.226,-21.7544 206.872,-19.5091 213.566,-27.7213 217.226,-21.7544"/>
</g>
<!-- Node6 -->
<g id="node7" class="node"><title>Node6</title>
<polygon fill="none" stroke="#bfbfbf" points="251.5,-0.5 251.5,-19.5 328.5,-19.5 328.5,-0.5 251.5,-0.5"/>
<text text-anchor="middle" x="290" y="-7.5" font-family="Helvetica,sans-Serif" font-size="10.00">Eigen/Dense</text>
</g>
<!-- Node2&#45;&gt;Node6 -->
<g id="edge6" class="edge"><title>Node2&#45;&gt;Node6</title>
<path fill="none" stroke="midnightblue" d="M290,-61.9751C290,-53.5803 290,-40.4806 290,-29.6631"/>
<polygon fill="midnightblue" stroke="midnightblue" points="293.5,-29.5091 290,-19.5091 286.5,-29.5091 293.5,-29.5091"/>
</g>
<!-- Node7&#45;&gt;Node2 -->
<g id="edge8" class="edge"><title>Node7&#45;&gt;Node2</title>
<path fill="none" stroke="midnightblue" d="M292.835,-182.439C249.809,-175.563 185.705,-162.346 171,-143 146.195,-110.366 207.382,-89.9064 250.91,-79.8956"/>
<polygon fill="midnightblue" stroke="midnightblue" points="251.693,-83.307 260.711,-77.7456 250.193,-76.4696 251.693,-83.307"/>
</g>
<!-- Node7&#45;&gt;Node3 -->
<g id="edge9" class="edge"><title>Node7&#45;&gt;Node3</title>
<path fill="none" stroke="midnightblue" d="M292.902,-187.481C254.817,-184.898 198.153,-175.335 162,-143 128.524,-113.059 116.851,-58.5662 112.913,-29.8558"/>
<polygon fill="midnightblue" stroke="midnightblue" points="116.349,-29.104 111.689,-19.5887 109.398,-29.9327 116.349,-29.104"/>
</g>
<!-- Node8 -->
<g id="node9" class="node"><title>Node8</title>
<polygon fill="none" stroke="#bfbfbf" points="180.5,-123.5 180.5,-142.5 235.5,-142.5 235.5,-123.5 180.5,-123.5"/>
<text text-anchor="middle" x="208" y="-130.5" font-family="Helvetica,sans-Serif" font-size="10.00">typeinfo</text>
</g>
<!-- Node7&#45;&gt;Node8 -->
<g id="edge10" class="edge"><title>Node7&#45;&gt;Node8</title>
<path fill="none" stroke="midnightblue" d="M313.193,-179.444C292.713,-170.596 260.517,-156.687 237.135,-146.586"/>
<polygon fill="midnightblue" stroke="midnightblue" points="238.282,-143.269 227.714,-142.516 235.506,-149.695 238.282,-143.269"/>
</g>
<!-- Node9 -->
<g id="node10" class="node"><title>Node9</title>
<polygon fill="none" stroke="#bfbfbf" points="253.5,-123.5 253.5,-142.5 316.5,-142.5 316.5,-123.5 253.5,-123.5"/>
<text text-anchor="middle" x="285" y="-130.5" font-family="Helvetica,sans-Serif" font-size="10.00">typeindex</text>
</g>
<!-- Node7&#45;&gt;Node9 -->
<g id="edge11" class="edge"><title>Node7&#45;&gt;Node9</title>
<path fill="none" stroke="midnightblue" d="M325.074,-179.083C318.154,-171.298 307.935,-159.801 299.548,-150.367"/>
<polygon fill="midnightblue" stroke="midnightblue" points="302.038,-147.9 292.779,-142.751 296.806,-152.55 302.038,-147.9"/>
</g>
<!-- Node7&#45;&gt;Node10 -->
<g id="edge12" class="edge"><title>Node7&#45;&gt;Node10</title>
<path fill="none" stroke="midnightblue" d="M366.592,-179.444C404.613,-169.759 466.443,-154.01 506.413,-143.829"/>
<polygon fill="midnightblue" stroke="midnightblue" points="507.498,-147.164 516.324,-141.304 505.77,-140.381 507.498,-147.164"/>
</g>
<!-- Node11 -->
<g id="node12" class="node"><title>Node11</title>
<polygon fill="none" stroke="#bfbfbf" points="334.5,-123.5 334.5,-142.5 427.5,-142.5 427.5,-123.5 334.5,-123.5"/>
<text text-anchor="middle" x="381" y="-130.5" font-family="Helvetica,sans-Serif" font-size="10.00">unordered_map</text>
</g>
<!-- Node7&#45;&gt;Node11 -->
<g id="edge13" class="edge"><title>Node7&#45;&gt;Node11</title>
<path fill="none" stroke="midnightblue" d="M340.926,-179.083C347.846,-171.298 358.065,-159.801 366.452,-150.367"/>
<polygon fill="midnightblue" stroke="midnightblue" points="369.194,-152.55 373.221,-142.751 363.962,-147.9 369.194,-152.55"/>
</g>
<!-- Node12 -->
<g id="node13" class="node"><title>Node12</title>
<polygon fill="none" stroke="#bfbfbf" points="446,-123.5 446,-142.5 498,-142.5 498,-123.5 446,-123.5"/>
<text text-anchor="middle" x="472" y="-130.5" font-family="Helvetica,sans-Serif" font-size="10.00">iterator</text>
</g>
<!-- Node7&#45;&gt;Node12 -->
<g id="edge14" class="edge"><title>Node7&#45;&gt;Node12</title>
<path fill="none" stroke="midnightblue" d="M355.025,-179.444C378.104,-170.478 414.562,-156.314 440.641,-146.183"/>
<polygon fill="midnightblue" stroke="midnightblue" points="442.024,-149.4 450.078,-142.516 439.489,-142.875 442.024,-149.4"/>
</g>
<!-- Node13&#45;&gt;Node2 -->
<g id="edge16" class="edge"><title>Node13&#45;&gt;Node2</title>
<path fill="none" stroke="midnightblue" d="M741.395,-179.488C720.82,-170.524 687.56,-155.941 659,-143 639.802,-134.301 636.223,-128.94 616,-123 502.803,-89.7507 469.049,-108.253 353,-87 345.16,-85.5642 336.822,-83.8092 328.865,-82.0225"/>
<polygon fill="midnightblue" stroke="midnightblue" points="329.587,-78.5972 319.056,-79.7642 328.016,-85.4188 329.587,-78.5972"/>
</g>
<!-- Node13&#45;&gt;Node3 -->
<g id="edge31" class="edge"><title>Node13&#45;&gt;Node3</title>
<path fill="none" stroke="midnightblue" d="M725.606,-179.467C695.727,-171.69 652.16,-158.989 616,-143 599.966,-135.91 598.641,-128.518 582,-123 441.962,-76.5629 392.881,-130.813 252,-87 206.156,-72.7427 158.018,-43.1502 131.53,-25.3907"/>
<polygon fill="midnightblue" stroke="midnightblue" points="133.338,-22.3871 123.104,-19.647 129.395,-28.1713 133.338,-22.3871"/>
</g>
<!-- Node13&#45;&gt;Node10 -->
<g id="edge34" class="edge"><title>Node13&#45;&gt;Node10</title>
<path fill="none" stroke="midnightblue" d="M726.774,-179.444C687.734,-169.683 624.057,-153.764 583.368,-143.592"/>
<polygon fill="midnightblue" stroke="midnightblue" points="584.098,-140.167 573.547,-141.137 582.4,-146.958 584.098,-140.167"/>
</g>
<!-- Node14 -->
<g id="node15" class="node"><title>Node14</title>
<g id="a_node15"><a xlink:href="Iter_8h.html" target="_top" xlink:title="Iter.h">
<polygon fill="none" stroke="black" points="738.5,-123.5 738.5,-142.5 779.5,-142.5 779.5,-123.5 738.5,-123.5"/>
<text text-anchor="middle" x="759" y="-130.5" font-family="Helvetica,sans-Serif" font-size="10.00">Iter.h</text>
</a>
</g>
</g>
<!-- Node13&#45;&gt;Node14 -->
<g id="edge17" class="edge"><title>Node13&#45;&gt;Node14</title>
<path fill="none" stroke="midnightblue" d="M760.67,-179.083C760.408,-172.006 760.032,-161.861 759.703,-152.986"/>
<polygon fill="midnightblue" stroke="midnightblue" points="763.192,-152.615 759.324,-142.751 756.197,-152.874 763.192,-152.615"/>
</g>
<!-- Node13&#45;&gt;Node15 -->
<g id="edge18" class="edge"><title>Node13&#45;&gt;Node15</title>
<path fill="none" stroke="midnightblue" d="M750.235,-179.324C740.234,-171.263 725.113,-159.077 713.07,-149.369"/>
<polygon fill="midnightblue" stroke="midnightblue" points="714.943,-146.384 704.961,-142.834 710.55,-151.834 714.943,-146.384"/>
</g>
<!-- Node16 -->
<g id="node17" class="node"><title>Node16</title>
<polygon fill="none" stroke="#bfbfbf" points="855,-62 855,-81 899,-81 899,-62 855,-62"/>
<text text-anchor="middle" x="877" y="-69" font-family="Helvetica,sans-Serif" font-size="10.00">string</text>
</g>
<!-- Node13&#45;&gt;Node16 -->
<g id="edge35" class="edge"><title>Node13&#45;&gt;Node16</title>
<path fill="none" stroke="midnightblue" d="M769.719,-179.319C789.117,-160.004 836.087,-113.237 860.948,-88.4827"/>
<polygon fill="midnightblue" stroke="midnightblue" points="863.563,-90.818 868.18,-81.282 858.624,-85.8576 863.563,-90.818"/>
</g>
<!-- Node21 -->
<g id="node22" class="node"><title>Node21</title>
<g id="a_node22"><a xlink:href="ConfParser_8h.html" target="_top" xlink:title="ConfParser.h">
<polygon fill="none" stroke="black" points="836.5,-123.5 836.5,-142.5 913.5,-142.5 913.5,-123.5 836.5,-123.5"/>
<text text-anchor="middle" x="875" y="-130.5" font-family="Helvetica,sans-Serif" font-size="10.00">ConfParser.h</text>
</a>
</g>
</g>
<!-- Node13&#45;&gt;Node21 -->
<g id="edge26" class="edge"><title>Node13&#45;&gt;Node21</title>
<path fill="none" stroke="midnightblue" d="M779.064,-179.444C797.575,-170.675 826.581,-156.935 847.855,-146.858"/>
<polygon fill="midnightblue" stroke="midnightblue" points="849.482,-149.96 857.021,-142.516 846.485,-143.634 849.482,-149.96"/>
</g>
<!-- Node25 -->
<g id="node26" class="node"><title>Node25</title>
<polygon fill="none" stroke="#bfbfbf" points="932,-123.5 932,-142.5 964,-142.5 964,-123.5 932,-123.5"/>
<text text-anchor="middle" x="948" y="-130.5" font-family="Helvetica,sans-Serif" font-size="10.00">set</text>
</g>
<!-- Node13&#45;&gt;Node25 -->
<g id="edge32" class="edge"><title>Node13&#45;&gt;Node25</title>
<path fill="none" stroke="midnightblue" d="M793.857,-179.443C826.515,-170.79 877.955,-156.765 922,-143 922.1,-142.969 922.2,-142.938 922.3,-142.906"/>
<polygon fill="midnightblue" stroke="midnightblue" points="923.42,-146.222 931.823,-139.77 921.23,-139.574 923.42,-146.222"/>
</g>
<!-- Node26 -->
<g id="node27" class="node"><title>Node26</title>
<polygon fill="none" stroke="#bfbfbf" points="982,-123.5 982,-142.5 1068,-142.5 1068,-123.5 982,-123.5"/>
<text text-anchor="middle" x="1025" y="-130.5" font-family="Helvetica,sans-Serif" font-size="10.00">unordered_set</text>
</g>
<!-- Node13&#45;&gt;Node26 -->
<g id="edge33" class="edge"><title>Node13&#45;&gt;Node26</title>
<path fill="none" stroke="midnightblue" d="M802.832,-179.444C849.079,-169.984 923.612,-154.738 973.436,-144.547"/>
<polygon fill="midnightblue" stroke="midnightblue" points="974.268,-147.949 983.364,-142.516 972.866,-141.091 974.268,-147.949"/>
</g>
<!-- Node27 -->
<g id="node28" class="node"><title>Node27</title>
<polygon fill="none" stroke="#bfbfbf" points="1086,-123.5 1086,-142.5 1140,-142.5 1140,-123.5 1086,-123.5"/>
<text text-anchor="middle" x="1113" y="-130.5" font-family="Helvetica,sans-Serif" font-size="10.00">fstream</text>
</g>
<!-- Node13&#45;&gt;Node27 -->
<g id="edge36" class="edge"><title>Node13&#45;&gt;Node27</title>
<path fill="none" stroke="midnightblue" d="M803.003,-180.452C806.045,-179.947 809.068,-179.458 812,-179 926.226,-161.17 958.528,-165.204 1075.84,-143.036"/>
<polygon fill="midnightblue" stroke="midnightblue" points="1076.78,-146.42 1085.94,-141.103 1075.46,-139.545 1076.78,-146.42"/>
</g>
<!-- Node15&#45;&gt;Node2 -->
<g id="edge19" class="edge"><title>Node15&#45;&gt;Node2</title>
<path fill="none" stroke="midnightblue" d="M667.831,-125.68C663.239,-124.695 658.493,-123.755 654,-123 512.424,-99.2076 473.149,-118.113 333,-87 329.51,-86.2253 325.907,-85.2696 322.339,-84.2216"/>
<polygon fill="midnightblue" stroke="midnightblue" points="323.096,-80.7897 312.506,-81.0965 320.976,-87.4609 323.096,-80.7897"/>
</g>
<!-- Node15&#45;&gt;Node4 -->
<g id="edge20" class="edge"><title>Node15&#45;&gt;Node4</title>
<path fill="none" stroke="midnightblue" d="M667.823,-125.728C663.232,-124.738 658.488,-123.783 654,-123 590.463,-111.908 408.685,-135.353 366,-87 352.389,-71.5817 355.722,-46.7667 360.413,-29.712"/>
<polygon fill="midnightblue" stroke="midnightblue" points="363.868,-30.3913 363.526,-19.802 357.19,-28.2929 363.868,-30.3913"/>
</g>
<!-- Node15&#45;&gt;Node16 -->
<g id="edge21" class="edge"><title>Node15&#45;&gt;Node16</title>
<path fill="none" stroke="midnightblue" d="M720.112,-124.78C757.104,-114.465 822.842,-95.7873 846,-87 847.423,-86.4598 848.873,-85.8825 850.328,-85.281"/>
<polygon fill="midnightblue" stroke="midnightblue" points="852.081,-88.3331 859.817,-81.0944 849.255,-81.9287 852.081,-88.3331"/>
</g>
<!-- Node17 -->
<g id="node18" class="node"><title>Node17</title>
<polygon fill="none" stroke="#bfbfbf" points="375.5,-62 375.5,-81 434.5,-81 434.5,-62 375.5,-62"/>
<text text-anchor="middle" x="405" y="-69" font-family="Helvetica,sans-Serif" font-size="10.00">iostream</text>
</g>
<!-- Node15&#45;&gt;Node17 -->
<g id="edge22" class="edge"><title>Node15&#45;&gt;Node17</title>
<path fill="none" stroke="midnightblue" d="M667.791,-125.9C663.203,-124.89 658.469,-123.885 654,-123 561.11,-104.601 535.442,-111.607 444,-87 441.188,-86.2433 438.295,-85.3654 435.415,-84.4231"/>
<polygon fill="midnightblue" stroke="midnightblue" points="436.412,-81.0637 425.817,-81.0547 434.094,-87.6688 436.412,-81.0637"/>
</g>
<!-- Node18 -->
<g id="node19" class="node"><title>Node18</title>
<polygon fill="none" stroke="#bfbfbf" points="453,-62 453,-81 593,-81 593,-62 453,-62"/>
<text text-anchor="middle" x="523" y="-69" font-family="Helvetica,sans-Serif" font-size="10.00">boost/functional/hash.hpp</text>
</g>
<!-- Node15&#45;&gt;Node18 -->
<g id="edge23" class="edge"><title>Node15&#45;&gt;Node18</title>
<path fill="none" stroke="midnightblue" d="M669.5,-123.475C640.04,-113.225 590.421,-95.9593 557.198,-84.3994"/>
<polygon fill="midnightblue" stroke="midnightblue" points="558.05,-80.9898 547.455,-81.0091 555.749,-87.601 558.05,-80.9898"/>
</g>
<!-- Node19 -->
<g id="node20" class="node"><title>Node19</title>
<polygon fill="none" stroke="#bfbfbf" points="611,-56.5 611,-86.5 715,-86.5 715,-56.5 611,-56.5"/>
<text text-anchor="start" x="619" y="-74.5" font-family="Helvetica,sans-Serif" font-size="10.00">boost/serialization</text>
<text text-anchor="middle" x="663" y="-63.5" font-family="Helvetica,sans-Serif" font-size="10.00">/array.hpp</text>
</g>
<!-- Node15&#45;&gt;Node19 -->
<g id="edge24" class="edge"><title>Node15&#45;&gt;Node19</title>
<path fill="none" stroke="midnightblue" d="M689.558,-123.475C685.752,-116.17 680.09,-105.302 674.97,-95.475"/>
<polygon fill="midnightblue" stroke="midnightblue" points="678.031,-93.7743 670.306,-86.523 671.823,-97.0087 678.031,-93.7743"/>
</g>
<!-- Node20 -->
<g id="node21" class="node"><title>Node20</title>
<polygon fill="none" stroke="#bfbfbf" points="733,-56.5 733,-86.5 837,-86.5 837,-56.5 733,-56.5"/>
<text text-anchor="start" x="741" y="-74.5" font-family="Helvetica,sans-Serif" font-size="10.00">boost/serialization</text>
<text text-anchor="middle" x="785" y="-63.5" font-family="Helvetica,sans-Serif" font-size="10.00">/string.hpp</text>
</g>
<!-- Node15&#45;&gt;Node20 -->
<g id="edge25" class="edge"><title>Node15&#45;&gt;Node20</title>
<path fill="none" stroke="midnightblue" d="M707.038,-123.475C719.478,-115.341 738.673,-102.791 754.903,-92.1788"/>
<polygon fill="midnightblue" stroke="midnightblue" points="757.099,-94.9249 763.553,-86.523 753.268,-89.0661 757.099,-94.9249"/>
</g>
<!-- Node21&#45;&gt;Node16 -->
<g id="edge27" class="edge"><title>Node21&#45;&gt;Node16</title>
<path fill="none" stroke="midnightblue" d="M875.287,-123.475C875.569,-115.08 876.009,-101.981 876.373,-91.1631"/>
<polygon fill="midnightblue" stroke="midnightblue" points="879.876,-91.1211 876.714,-81.0091 872.88,-90.8858 879.876,-91.1211"/>
</g>
<!-- Node22 -->
<g id="node23" class="node"><title>Node22</title>
<polygon fill="none" stroke="#bfbfbf" points="917,-62 917,-81 973,-81 973,-62 917,-62"/>
<text text-anchor="middle" x="945" y="-69" font-family="Helvetica,sans-Serif" font-size="10.00">sstream</text>
</g>
<!-- Node21&#45;&gt;Node22 -->
<g id="edge28" class="edge"><title>Node21&#45;&gt;Node22</title>
<path fill="none" stroke="midnightblue" d="M885.029,-123.475C896.049,-114.108 913.96,-98.8839 927.343,-87.5081"/>
<polygon fill="midnightblue" stroke="midnightblue" points="929.637,-90.1524 934.989,-81.0091 925.103,-84.8188 929.637,-90.1524"/>
</g>
<!-- Node23 -->
<g id="node24" class="node"><title>Node23</title>
<polygon fill="none" stroke="#bfbfbf" points="991,-62 991,-81 1029,-81 1029,-62 991,-62"/>
<text text-anchor="middle" x="1010" y="-69" font-family="Helvetica,sans-Serif" font-size="10.00">map</text>
</g>
<!-- Node21&#45;&gt;Node23 -->
<g id="edge29" class="edge"><title>Node21&#45;&gt;Node23</title>
<path fill="none" stroke="midnightblue" d="M896.946,-123.367C918.734,-114.657 952.982,-100.589 982,-87 982.992,-86.5357 983.999,-86.0554 985.014,-85.5645"/>
<polygon fill="midnightblue" stroke="midnightblue" points="986.745,-88.612 994.118,-81.0034 983.609,-82.3535 986.745,-88.612"/>
</g>
<!-- Node24 -->
<g id="node25" class="node"><title>Node24</title>
<polygon fill="none" stroke="#bfbfbf" points="1047,-62 1047,-81 1169,-81 1169,-62 1047,-62"/>
<text text-anchor="middle" x="1108" y="-69" font-family="Helvetica,sans-Serif" font-size="10.00">boost/lexical_cast.hpp</text>
</g>
<!-- Node21&#45;&gt;Node24 -->
<g id="edge30" class="edge"><title>Node21&#45;&gt;Node24</title>
<path fill="none" stroke="midnightblue" d="M908.383,-123.475C949.562,-112.959 1019.65,-95.0615 1064.87,-83.5142"/>
<polygon fill="midnightblue" stroke="midnightblue" points="1065.86,-86.8746 1074.68,-81.0091 1064.12,-80.0922 1065.86,-86.8746"/>
</g>
<!-- Node29 -->
<g id="node30" class="node"><title>Node29</title>
<polygon fill="none" stroke="#bfbfbf" points="1158.5,-123.5 1158.5,-142.5 1215.5,-142.5 1215.5,-123.5 1158.5,-123.5"/>
<text text-anchor="middle" x="1187" y="-130.5" font-family="Helvetica,sans-Serif" font-size="10.00">complex</text>
</g>
<!-- Node28&#45;&gt;Node29 -->
<g id="edge39" class="edge"><title>Node28&#45;&gt;Node29</title>
<path fill="none" stroke="midnightblue" d="M866.587,-181.012C869.404,-180.268 872.258,-179.575 875,-179 992.043,-154.469 1026.4,-164.608 1148.33,-142.928"/>
<polygon fill="midnightblue" stroke="midnightblue" points="1149.22,-146.324 1158.43,-141.096 1147.97,-139.437 1149.22,-146.324"/>
</g>
<!-- Node30 -->
<g id="node31" class="node"><title>Node30</title>
<polygon fill="none" stroke="#bfbfbf" points="1233.5,-123.5 1233.5,-142.5 1296.5,-142.5 1296.5,-123.5 1233.5,-123.5"/>
<text text-anchor="middle" x="1265" y="-130.5" font-family="Helvetica,sans-Serif" font-size="10.00">functional</text>
</g>
<!-- Node28&#45;&gt;Node30 -->
<g id="edge40" class="edge"><title>Node28&#45;&gt;Node30</title>
<path fill="none" stroke="midnightblue" d="M866.572,-180.938C869.391,-180.207 872.25,-179.537 875,-179 1024.91,-149.754 1068.27,-167.013 1223.39,-142.904"/>
<polygon fill="midnightblue" stroke="midnightblue" points="1223.96,-146.358 1233.28,-141.334 1222.86,-139.444 1223.96,-146.358"/>
</g>
<!-- Node31 -->
<g id="node32" class="node"><title>Node31</title>
<polygon fill="none" stroke="#bfbfbf" points="1315,-123.5 1315,-142.5 1369,-142.5 1369,-123.5 1315,-123.5"/>
<text text-anchor="middle" x="1342" y="-130.5" font-family="Helvetica,sans-Serif" font-size="10.00">random</text>
</g>
<!-- Node28&#45;&gt;Node31 -->
<g id="edge41" class="edge"><title>Node28&#45;&gt;Node31</title>
<path fill="none" stroke="midnightblue" d="M866.562,-180.887C869.383,-180.164 872.245,-179.51 875,-179 1060.35,-144.689 1113.88,-172.761 1304.55,-142.779"/>
<polygon fill="midnightblue" stroke="midnightblue" points="1305.3,-146.203 1314.62,-141.162 1304.19,-139.291 1305.3,-146.203"/>
</g>
<!-- Node32 -->
<g id="node33" class="node"><title>Node32</title>
<polygon fill="none" stroke="#bfbfbf" points="1387,-123.5 1387,-142.5 1455,-142.5 1455,-123.5 1387,-123.5"/>
<text text-anchor="middle" x="1421" y="-130.5" font-family="Helvetica,sans-Serif" font-size="10.00">type_traits</text>
</g>
<!-- Node28&#45;&gt;Node32 -->
<g id="edge42" class="edge"><title>Node28&#45;&gt;Node32</title>
<path fill="none" stroke="midnightblue" d="M866.556,-180.854C869.378,-180.137 872.242,-179.493 875,-179 1092.39,-140.114 1154.23,-173.034 1376.77,-142.974"/>
<polygon fill="midnightblue" stroke="midnightblue" points="1377.38,-146.424 1386.81,-141.591 1376.42,-139.489 1377.38,-146.424"/>
</g>
</g>
</svg>
