<?xml version="1.0" encoding="UTF-8" standalone="no"?>
<!DOCTYPE svg PUBLIC "-//W3C//DTD SVG 1.1//EN"
 "http://www.w3.org/Graphics/SVG/1.1/DTD/svg11.dtd">
<!-- Generated by graphviz version 2.38.0 (20140413.2041)
 -->
<!-- Title: qr Pages: 1 -->
<!--zoomable 296 -->
<svg id="main" version="1.1" xmlns="http://www.w3.org/2000/svg" xmlns:xlink="http://www.w3.org/1999/xlink" xml:space="preserve" onload="init(evt)">
<style type="text/css"><![CDATA[
.edge:hover path { stroke: red; }
.edge:hover polygon { stroke: red; fill: red; }
]]></style>
<script type="text/javascript"><![CDATA[
var edges = document.getElementsByTagName('g');
if (edges && edges.length) {
  for (var i=0;i<edges.length;i++) {
    if (edges[i].id.substr(0,4)=='edge') {
      edges[i].setAttribute('class','edge');
    }
  }
}
]]></script>
        <defs>
                <circle id="rim" cx="0" cy="0" r="7"/>
                <circle id="rim2" cx="0" cy="0" r="3.5"/>
                <g id="zoomPlus">
                        <use xlink:href="#rim" fill="#404040">
                                <set attributeName="fill" to="#808080" begin="zoomplus.mouseover" end="zoomplus.mouseout"/>
                        </use>
                        <path d="M-4,0h8M0,-4v8" fill="none" stroke="white" stroke-width="1.5" pointer-events="none"/>
                </g>
                <g id="zoomMin">
                        <use xlink:href="#rim" fill="#404040">
                                <set attributeName="fill" to="#808080" begin="zoomminus.mouseover" end="zoomminus.mouseout"/>
                        </use>
                        <path d="M-4,0h8" fill="none" stroke="white" stroke-width="1.5" pointer-events="none"/>
                </g>
                <g id="dirArrow">
                        <path fill="none" stroke="white" stroke-width="1.5" d="M0,-3.0v7 M-2.5,-0.5L0,-3.0L2.5,-0.5"/>
                </g>
               <g id="resetDef">
                       <use xlink:href="#rim2" fill="#404040">
                               <set attributeName="fill" to="#808080" begin="reset.mouseover" end="reset.mouseout"/>
                       </use>
               </g>
        </defs>

<script type="text/javascript">
var viewWidth = 619;
var viewHeight = 296;
var sectionId = 'dynsection-0';
</script>
<script xlink:href="svgpan.js"/>
<svg id="graph" class="graph">
<g id="viewport">
<title>qr</title>
<!-- Node3 -->
<g id="node1" class="node"><title>Node3</title>
<polygon fill="#bfbfbf" stroke="black" points="0,-130.814 0,-149.814 29,-149.814 29,-130.814 0,-130.814"/>
<text text-anchor="middle" x="14.5" y="-137.814" font-family="Helvetica,sans-Serif" font-size="10.00">qr</text>
</g>
<!-- Node4 -->
<g id="node2" class="node"><title>Node4</title>
<g id="a_node2"><a xlink:href="dense__solvers_8cpp.html#a578ba2d5aea4aaa8751e7311d8384181" target="_top" xlink:title="bench">
<polygon fill="none" stroke="black" points="531.5,-175.814 531.5,-194.814 577.5,-194.814 577.5,-175.814 531.5,-175.814"/>
<text text-anchor="middle" x="554.5" y="-182.814" font-family="Helvetica,sans-Serif" font-size="10.00">bench</text>
</a>
</g>
</g>
<!-- Node3&#45;&gt;Node4 -->
<g id="edge1" class="edge"><title>Node3&#45;&gt;Node4</title>
<path fill="none" stroke="midnightblue" d="M18.1595,-159.839C22.758,-185.061 34.8045,-228.013 65,-247.314 223.108,-348.378 469.217,-230.552 536.183,-194.899"/>
<polygon fill="midnightblue" stroke="midnightblue" points="21.6115,-159.26 16.5726,-149.94 14.6998,-160.368 21.6115,-159.26"/>
</g>
<!-- Node5 -->
<g id="node3" class="node"><title>Node5</title>
<g id="a_node3"><a xlink:href="householder_8cpp.html#af983e9da1e058e66c41bf91c3b54f7a0" target="_top" xlink:title="householder">
<polygon fill="none" stroke="black" points="89.5,-218.814 89.5,-237.814 165.5,-237.814 165.5,-218.814 89.5,-218.814"/>
<text text-anchor="middle" x="127.5" y="-225.814" font-family="Helvetica,sans-Serif" font-size="10.00">householder</text>
</a>
</g>
</g>
<!-- Node3&#45;&gt;Node5 -->
<g id="edge2" class="edge"><title>Node3&#45;&gt;Node5</title>
<path fill="none" stroke="midnightblue" d="M24.5439,-159.07C32.9703,-174.655 46.9419,-196.311 65,-209.314 72.1642,-214.473 80.7634,-218.257 89.2297,-221.024"/>
<polygon fill="midnightblue" stroke="midnightblue" points="27.4972,-157.158 19.8201,-149.856 21.2682,-160.352 27.4972,-157.158"/>
</g>
<!-- Node6 -->
<g id="node4" class="node"><title>Node6</title>
<g id="a_node4"><a xlink:href="structEigen_1_1SplineFitting.html#af08185c8b635283f7c76efe91576cc83" target="_top" xlink:title="Fits an interpolating Spline to the given data points. ">
<polygon fill="none" stroke="black" points="74,-169.314 74,-199.314 181,-199.314 181,-169.314 74,-169.314"/>
<text text-anchor="start" x="82" y="-187.314" font-family="Helvetica,sans-Serif" font-size="10.00">Eigen::SplineFitting</text>
<text text-anchor="middle" x="127.5" y="-176.314" font-family="Helvetica,sans-Serif" font-size="10.00">::Interpolate</text>
</a>
</g>
</g>
<!-- Node3&#45;&gt;Node6 -->
<g id="edge3" class="edge"><title>Node3&#45;&gt;Node6</title>
<path fill="none" stroke="midnightblue" d="M38.7036,-149.512C53.0874,-155.214 71.9096,-162.675 88.436,-169.226"/>
<polygon fill="midnightblue" stroke="midnightblue" points="39.6968,-146.141 29.1108,-145.709 37.1173,-152.648 39.6968,-146.141"/>
</g>
<!-- Node7 -->
<g id="node5" class="node"><title>Node7</title>
<g id="a_node5"><a xlink:href="namespaceEigen_1_1internal.html#aed2fa0ec22bcc867b9a8115c0c5f1cf5" target="_top" xlink:title="Eigen::internal::lmpar2">
<polygon fill="none" stroke="black" points="65,-130.814 65,-149.814 190,-149.814 190,-130.814 65,-130.814"/>
<text text-anchor="middle" x="127.5" y="-137.814" font-family="Helvetica,sans-Serif" font-size="10.00">Eigen::internal::lmpar2</text>
</a>
</g>
</g>
<!-- Node3&#45;&gt;Node7 -->
<g id="edge4" class="edge"><title>Node3&#45;&gt;Node7</title>
<path fill="none" stroke="midnightblue" d="M39.3165,-140.314C46.947,-140.314 55.779,-140.314 64.8326,-140.314"/>
<polygon fill="midnightblue" stroke="midnightblue" points="39.1108,-136.814 29.1108,-140.314 39.1107,-143.814 39.1108,-136.814"/>
</g>
<!-- Node8 -->
<g id="node6" class="node"><title>Node8</title>
<g id="a_node6"><a xlink:href="bdcsvd__int_8cpp.html#ae66f6b31b5ad750f1fe042a706a4e3d4" target="_top" xlink:title="main">
<polygon fill="none" stroke="black" points="107,-92.8142 107,-111.814 148,-111.814 148,-92.8142 107,-92.8142"/>
<text text-anchor="middle" x="127.5" y="-99.8142" font-family="Helvetica,sans-Serif" font-size="10.00">main</text>
</a>
</g>
</g>
<!-- Node3&#45;&gt;Node8 -->
<g id="edge5" class="edge"><title>Node3&#45;&gt;Node8</title>
<path fill="none" stroke="midnightblue" d="M38.6673,-131.054C46.9334,-127.848 56.3416,-124.31 65,-121.314 78.8347,-116.528 94.6146,-111.665 106.726,-108.057"/>
<polygon fill="midnightblue" stroke="midnightblue" points="37.3065,-127.828 29.2779,-134.741 39.8653,-134.344 37.3065,-127.828"/>
</g>
<!-- Node9 -->
<g id="node7" class="node"><title>Node9</title>
<g id="a_node7"><a xlink:href="svd__common_8h.html#a59fb42b0829d86517e758c9b3c5c3769" target="_top" xlink:title="svd_min_norm">
<polygon fill="none" stroke="black" points="84,-54.8142 84,-73.8142 171,-73.8142 171,-54.8142 84,-54.8142"/>
<text text-anchor="middle" x="127.5" y="-61.8142" font-family="Helvetica,sans-Serif" font-size="10.00">svd_min_norm</text>
</a>
</g>
</g>
<!-- Node3&#45;&gt;Node9 -->
<g id="edge6" class="edge"><title>Node3&#45;&gt;Node9</title>
<path fill="none" stroke="midnightblue" d="M27.0013,-122.417C35.9554,-109.817 49.4499,-93.4504 65,-83.3142 70.8979,-79.4696 77.6175,-76.3667 84.3971,-73.8731"/>
<polygon fill="midnightblue" stroke="midnightblue" points="24.0419,-120.545 21.3193,-130.784 29.8328,-124.478 24.0419,-120.545"/>
</g>
<!-- Node12 -->
<g id="node10" class="node"><title>Node12</title>
<g id="a_node10"><a xlink:href="boostmultiprec_8cpp.html#af8983cadf0ba3b55cb55879f4b3d833d" target="_top" xlink:title="test_boostmultiprec">
<polygon fill="none" stroke="black" points="498,-57.8142 498,-76.8142 611,-76.8142 611,-57.8142 498,-57.8142"/>
<text text-anchor="middle" x="554.5" y="-64.8142" font-family="Helvetica,sans-Serif" font-size="10.00">test_boostmultiprec</text>
</a>
</g>
</g>
<!-- Node3&#45;&gt;Node12 -->
<g id="edge13" class="edge"><title>Node3&#45;&gt;Node12</title>
<path fill="none" stroke="midnightblue" d="M19.4241,-120.623C25.1168,-97.9218 38.0797,-61.6427 65,-45.3142 219.608,48.4642 455.116,-29.0406 529.869,-57.7231"/>
<polygon fill="midnightblue" stroke="midnightblue" points="15.9758,-120.004 17.1842,-130.53 22.8034,-121.548 15.9758,-120.004"/>
</g>
<!-- Node10 -->
<g id="node8" class="node"><title>Node10</title>
<g id="a_node8"><a xlink:href="svd__common_8h.html#ab1630fb76a0e3e342bffe3dd03e8619d" target="_top" xlink:title="svd_test_all_computation\l_options">
<polygon fill="none" stroke="black" points="226,-55.3142 226,-85.3142 365,-85.3142 365,-55.3142 226,-55.3142"/>
<text text-anchor="start" x="234" y="-73.3142" font-family="Helvetica,sans-Serif" font-size="10.00">svd_test_all_computation</text>
<text text-anchor="middle" x="295.5" y="-62.3142" font-family="Helvetica,sans-Serif" font-size="10.00">_options</text>
</a>
</g>
</g>
<!-- Node9&#45;&gt;Node10 -->
<g id="edge7" class="edge"><title>Node9&#45;&gt;Node10</title>
<path fill="none" stroke="midnightblue" d="M181.283,-66.222C195.432,-66.7334 210.938,-67.2938 225.811,-67.8314"/>
<polygon fill="midnightblue" stroke="midnightblue" points="181.369,-62.7229 171.249,-65.8593 181.116,-69.7183 181.369,-62.7229"/>
</g>
<!-- Node11 -->
<g id="node9" class="node"><title>Node11</title>
<g id="a_node9"><a xlink:href="bdcsvd_8cpp.html#a55d9069ac4c9bf0feb5f2e1d3760f118" target="_top" xlink:title="bdcsvd">
<polygon fill="none" stroke="black" points="406.5,-95.8142 406.5,-114.814 456.5,-114.814 456.5,-95.8142 406.5,-95.8142"/>
<text text-anchor="middle" x="431.5" y="-102.814" font-family="Helvetica,sans-Serif" font-size="10.00">bdcsvd</text>
</a>
</g>
</g>
<!-- Node10&#45;&gt;Node11 -->
<g id="edge8" class="edge"><title>Node10&#45;&gt;Node11</title>
<path fill="none" stroke="midnightblue" d="M364.031,-87.9529C379.176,-91.9087 394.286,-95.8552 406.263,-98.9835"/>
<polygon fill="midnightblue" stroke="midnightblue" points="364.666,-84.5013 354.106,-85.3604 362.897,-91.274 364.666,-84.5013"/>
</g>
<!-- Node13 -->
<g id="node11" class="node"><title>Node13</title>
<g id="a_node11"><a xlink:href="jacobisvd_8cpp.html#a2d5810666a5ef33f431b89cce0a56958" target="_top" xlink:title="jacobisvd">
<polygon fill="none" stroke="black" points="401,-57.8142 401,-76.8142 462,-76.8142 462,-57.8142 401,-57.8142"/>
<text text-anchor="middle" x="431.5" y="-64.8142" font-family="Helvetica,sans-Serif" font-size="10.00">jacobisvd</text>
</a>
</g>
</g>
<!-- Node10&#45;&gt;Node13 -->
<g id="edge11" class="edge"><title>Node10&#45;&gt;Node13</title>
<path fill="none" stroke="midnightblue" d="M375.078,-68.5549C384.225,-68.3502 393.074,-68.152 400.917,-67.9765"/>
<polygon fill="midnightblue" stroke="midnightblue" points="374.989,-65.056 365.07,-68.779 375.146,-72.0542 374.989,-65.056"/>
</g>
<!-- Node11&#45;&gt;Node4 -->
<g id="edge9" class="edge"><title>Node11&#45;&gt;Node4</title>
<path fill="none" stroke="midnightblue" d="M455.72,-120.666C480.278,-136.903 518.267,-162.019 538.92,-175.674"/>
<polygon fill="midnightblue" stroke="midnightblue" points="457.609,-117.719 447.337,-115.124 453.748,-123.558 457.609,-117.719"/>
</g>
<!-- Node11&#45;&gt;Node12 -->
<g id="edge10" class="edge"><title>Node11&#45;&gt;Node12</title>
<path fill="none" stroke="midnightblue" d="M466.618,-94.5995C484.308,-89.044 505.739,-82.3133 522.891,-76.9269"/>
<polygon fill="midnightblue" stroke="midnightblue" points="465.187,-91.3801 456.695,-97.7156 467.285,-98.0585 465.187,-91.3801"/>
</g>
<!-- Node13&#45;&gt;Node12 -->
<g id="edge12" class="edge"><title>Node13&#45;&gt;Node12</title>
<path fill="none" stroke="midnightblue" d="M472.115,-67.3142C480.31,-67.3142 489.088,-67.3142 497.736,-67.3142"/>
<polygon fill="midnightblue" stroke="midnightblue" points="472.1,-63.8143 462.1,-67.3142 472.1,-70.8143 472.1,-63.8143"/>
</g>
</g>
</svg>
        <g id="navigator" transform="translate(0 0)" fill="#404254">
                <rect fill="#f2f5e9" fill-opacity="0.5" stroke="#606060" stroke-width=".5" x="0" y="0" width="60" height="60"/>
                <use id="zoomplus" xlink:href="#zoomPlus" x="17" y="9" onmousedown="handleZoom(evt,'in')"/>
                <use id="zoomminus" xlink:href="#zoomMin" x="42" y="9" onmousedown="handleZoom(evt,'out')"/>
                <use id="reset" xlink:href="#resetDef" x="30" y="36" onmousedown="handleReset()"/>
                <g id="arrowUp" xlink:href="#dirArrow" transform="translate(30 24)" onmousedown="handlePan(0,-1)">
                  <use xlink:href="#rim" fill="#404040">
                        <set attributeName="fill" to="#808080" begin="arrowUp.mouseover" end="arrowUp.mouseout"/>
                  </use>
                  <path fill="none" stroke="white" stroke-width="1.5" d="M0,-3.0v7 M-2.5,-0.5L0,-3.0L2.5,-0.5"/>
                </g>
                <g id="arrowRight" xlink:href="#dirArrow" transform="rotate(90) translate(36 -43)" onmousedown="handlePan(1,0)">
                  <use xlink:href="#rim" fill="#404040">
                        <set attributeName="fill" to="#808080" begin="arrowRight.mouseover" end="arrowRight.mouseout"/>
                  </use>
                  <path fill="none" stroke="white" stroke-width="1.5" d="M0,-3.0v7 M-2.5,-0.5L0,-3.0L2.5,-0.5"/>
                </g>
                <g id="arrowDown" xlink:href="#dirArrow" transform="rotate(180) translate(-30 -48)" onmousedown="handlePan(0,1)">
                  <use xlink:href="#rim" fill="#404040">
                        <set attributeName="fill" to="#808080" begin="arrowDown.mouseover" end="arrowDown.mouseout"/>
                  </use>
                  <path fill="none" stroke="white" stroke-width="1.5" d="M0,-3.0v7 M-2.5,-0.5L0,-3.0L2.5,-0.5"/>
                </g>
                <g id="arrowLeft" xlink:href="#dirArrow" transform="rotate(270) translate(-36 17)" onmousedown="handlePan(-1,0)">
                  <use xlink:href="#rim" fill="#404040">
                        <set attributeName="fill" to="#808080" begin="arrowLeft.mouseover" end="arrowLeft.mouseout"/>
                  </use>
                  <path fill="none" stroke="white" stroke-width="1.5" d="M0,-3.0v7 M-2.5,-0.5L0,-3.0L2.5,-0.5"/>
                </g>
        </g>
        <svg viewBox="0 0 15 15" width="100%" height="30px" preserveAspectRatio="xMaxYMin meet">
         <g id="arrow_out" transform="scale(0.3 0.3)">
          <a xlink:href="HouseholderQR__householderQ_8cpp_af53b5efeae0c759d8b7022b84007a9a2_icgraph_org.svg" target="_base">
           <rect id="button" ry="5" rx="5" y="6" x="6" height="38" width="38"
                fill="#f2f5e9" fill-opacity="0.5" stroke="#606060" stroke-width="1.0"/>
           <path id="arrow"
             d="M 11.500037,31.436501 C 11.940474,20.09759 22.043105,11.32322 32.158766,21.979434 L 37.068811,17.246167 C 37.068811,17.246167 37.088388,32 37.088388,32 L 22.160133,31.978069 C 22.160133,31.978069 26.997745,27.140456 26.997745,27.140456 C 18.528582,18.264221 13.291696,25.230495 11.500037,31.436501 z"
             style="fill:#404040;"/>
          </a>
         </g>
        </svg>
</svg>
