<?xml version="1.0" encoding="UTF-8" standalone="no"?>
<!DOCTYPE svg PUBLIC "-//W3C//DTD SVG 1.1//EN"
 "http://www.w3.org/Graphics/SVG/1.1/DTD/svg11.dtd">
<!-- Generated by graphviz version 2.38.0 (20140413.2041)
 -->
<!-- Title: Graphical Class Hierarchy Pages: 1 -->
<svg width="360pt" height="88pt"
 viewBox="0.00 0.00 360.00 88.00" xmlns="http://www.w3.org/2000/svg" xmlns:xlink="http://www.w3.org/1999/xlink">
<g id="graph0" class="graph" transform="scale(1 1) rotate(0) translate(4 84)">
<title>Graphical Class Hierarchy</title>
<!-- Node0 -->
<g id="node1" class="node"><title>Node0</title>
<g id="a_node1"><a xlink:href="structEigen_1_1internal_1_1functor__traits.html" target="_top" xlink:title="Eigen::internal::functor\l_traits\&lt; BinaryOp \&gt;">
<polygon fill="none" stroke="black" points="0,-24.5 0,-54.5 125,-54.5 125,-24.5 0,-24.5"/>
<text text-anchor="start" x="8" y="-42.5" font-family="Helvetica,sans-Serif" font-size="10.00">Eigen::internal::functor</text>
<text text-anchor="middle" x="62.5" y="-31.5" font-family="Helvetica,sans-Serif" font-size="10.00">_traits&lt; BinaryOp &gt;</text>
</a>
</g>
</g>
<!-- Node1 -->
<g id="node2" class="node"><title>Node1</title>
<g id="a_node2"><a xlink:href="structEigen_1_1internal_1_1functor__traits_3_01bind1st__op_3_01BinaryOp_01_4_01_4.html" target="_top" xlink:title="Eigen::internal::functor\l_traits\&lt; bind1st_op\&lt; BinaryOp \&gt; \&gt;">
<polygon fill="none" stroke="black" points="162.5,-49.5 162.5,-79.5 350.5,-79.5 350.5,-49.5 162.5,-49.5"/>
<text text-anchor="start" x="170.5" y="-67.5" font-family="Helvetica,sans-Serif" font-size="10.00">Eigen::internal::functor</text>
<text text-anchor="middle" x="256.5" y="-56.5" font-family="Helvetica,sans-Serif" font-size="10.00">_traits&lt; bind1st_op&lt; BinaryOp &gt; &gt;</text>
</a>
</g>
</g>
<!-- Node0&#45;&gt;Node1 -->
<g id="edge1" class="edge"><title>Node0&#45;&gt;Node1</title>
<path fill="none" stroke="midnightblue" d="M135.016,-48.812C143.981,-49.9793 153.251,-51.1863 162.484,-52.3885"/>
<polygon fill="midnightblue" stroke="midnightblue" points="135.41,-45.3339 125.042,-47.5133 134.507,-52.2753 135.41,-45.3339"/>
</g>
<!-- Node2 -->
<g id="node3" class="node"><title>Node2</title>
<g id="a_node3"><a xlink:href="structEigen_1_1internal_1_1functor__traits_3_01bind2nd__op_3_01BinaryOp_01_4_01_4.html" target="_top" xlink:title="Eigen::internal::functor\l_traits\&lt; bind2nd_op\&lt; BinaryOp \&gt; \&gt;">
<polygon fill="none" stroke="black" points="161,-0.5 161,-30.5 352,-30.5 352,-0.5 161,-0.5"/>
<text text-anchor="start" x="169" y="-18.5" font-family="Helvetica,sans-Serif" font-size="10.00">Eigen::internal::functor</text>
<text text-anchor="middle" x="256.5" y="-7.5" font-family="Helvetica,sans-Serif" font-size="10.00">_traits&lt; bind2nd_op&lt; BinaryOp &gt; &gt;</text>
</a>
</g>
</g>
<!-- Node0&#45;&gt;Node2 -->
<g id="edge2" class="edge"><title>Node0&#45;&gt;Node2</title>
<path fill="none" stroke="midnightblue" d="M135.103,-30.5496C143.475,-29.5031 152.112,-28.4236 160.735,-27.3456"/>
<polygon fill="midnightblue" stroke="midnightblue" points="134.531,-27.0938 125.042,-31.8072 135.399,-34.0398 134.531,-27.0938"/>
</g>
</g>
</svg>
