<?xml version="1.0" encoding="UTF-8" standalone="no"?>
<!DOCTYPE svg PUBLIC "-//W3C//DTD SVG 1.1//EN"
 "http://www.w3.org/Graphics/SVG/1.1/DTD/svg11.dtd">
<!-- Generated by graphviz version 2.38.0 (20140413.2041)
 -->
<!-- Title: Graphical Class Hierarchy Pages: 1 -->
<svg width="544pt" height="188pt"
 viewBox="0.00 0.00 544.00 187.50" xmlns="http://www.w3.org/2000/svg" xmlns:xlink="http://www.w3.org/1999/xlink">
<g id="graph0" class="graph" transform="scale(1 1) rotate(0) translate(4 183.5)">
<title>Graphical Class Hierarchy</title>
<!-- Node0 -->
<g id="node1" class="node"><title>Node0</title>
<g id="a_node1"><a xlink:href="structEigen_1_1GenericNumTraits.html" target="_top" xlink:title="Eigen::GenericNumTraits\&lt; T \&gt;">
<polygon fill="none" stroke="black" points="0,-77 0,-96 161,-96 161,-77 0,-77"/>
<text text-anchor="middle" x="80.5" y="-84" font-family="Helvetica,sans-Serif" font-size="10.00">Eigen::GenericNumTraits&lt; T &gt;</text>
</a>
</g>
</g>
<!-- Node1 -->
<g id="node2" class="node"><title>Node1</title>
<g id="a_node2"><a xlink:href="structEigen_1_1NumTraits.html" target="_top" xlink:title="Holds information about the various numeric (i.e. scalar) types allowed by Eigen. ...">
<polygon fill="none" stroke="black" points="213,-160 213,-179 338,-179 338,-160 213,-160"/>
<text text-anchor="middle" x="275.5" y="-167" font-family="Helvetica,sans-Serif" font-size="10.00">Eigen::NumTraits&lt; T &gt;</text>
</a>
</g>
</g>
<!-- Node0&#45;&gt;Node1 -->
<g id="edge1" class="edge"><title>Node0&#45;&gt;Node1</title>
<path fill="none" stroke="midnightblue" d="M104.404,-101.595C127.088,-115.955 163.229,-137.277 197,-150.5 206.417,-154.187 216.765,-157.317 226.747,-159.906"/>
<polygon fill="midnightblue" stroke="midnightblue" points="106.141,-98.5511 95.8351,-96.0947 102.36,-104.442 106.141,-98.5511"/>
</g>
<!-- Node2 -->
<g id="node3" class="node"><title>Node2</title>
<g id="a_node3"><a xlink:href="structEigen_1_1NumTraits.html" target="_top" xlink:title="Eigen::NumTraits\&lt; NumTraits\l\&lt; internal::remove_all\&lt;\l DerType \&gt;::type::Scalar\l \&gt;::Real \&gt;">
<polygon fill="none" stroke="black" points="197.5,-88.5 197.5,-140.5 353.5,-140.5 353.5,-88.5 197.5,-88.5"/>
<text text-anchor="start" x="205.5" y="-128.5" font-family="Helvetica,sans-Serif" font-size="10.00">Eigen::NumTraits&lt; NumTraits</text>
<text text-anchor="start" x="205.5" y="-117.5" font-family="Helvetica,sans-Serif" font-size="10.00">&lt; internal::remove_all&lt;</text>
<text text-anchor="start" x="205.5" y="-106.5" font-family="Helvetica,sans-Serif" font-size="10.00"> DerType &gt;::type::Scalar</text>
<text text-anchor="middle" x="275.5" y="-95.5" font-family="Helvetica,sans-Serif" font-size="10.00"> &gt;::Real &gt;</text>
</a>
</g>
</g>
<!-- Node0&#45;&gt;Node2 -->
<g id="edge2" class="edge"><title>Node0&#45;&gt;Node2</title>
<path fill="none" stroke="midnightblue" d="M157.109,-97.4691C170.347,-99.3897 184.136,-101.39 197.413,-103.316"/>
<polygon fill="midnightblue" stroke="midnightblue" points="157.509,-93.9907 147.11,-96.0186 156.504,-100.918 157.509,-93.9907"/>
</g>
<!-- Node4 -->
<g id="node5" class="node"><title>Node4</title>
<g id="a_node5"><a xlink:href="structEigen_1_1NumTraits.html" target="_top" xlink:title="Eigen::NumTraits\&lt; Scalar \&gt;">
<polygon fill="none" stroke="black" points="201,-50 201,-69 350,-69 350,-50 201,-50"/>
<text text-anchor="middle" x="275.5" y="-57" font-family="Helvetica,sans-Serif" font-size="10.00">Eigen::NumTraits&lt; Scalar &gt;</text>
</a>
</g>
</g>
<!-- Node0&#45;&gt;Node4 -->
<g id="edge4" class="edge"><title>Node0&#45;&gt;Node4</title>
<path fill="none" stroke="midnightblue" d="M159.62,-75.5713C175.123,-73.4025 191.283,-71.1417 206.419,-69.0242"/>
<polygon fill="midnightblue" stroke="midnightblue" points="158.963,-72.129 149.545,-76.9808 159.933,-79.0615 158.963,-72.129"/>
</g>
<!-- Node5 -->
<g id="node6" class="node"><title>Node5</title>
<g id="a_node6"><a xlink:href="structEigen_1_1NumTraits.html" target="_top" xlink:title="Eigen::NumTraits\&lt; typename\l MatrixType::Scalar \&gt;">
<polygon fill="none" stroke="black" points="197,-0.5 197,-30.5 354,-30.5 354,-0.5 197,-0.5"/>
<text text-anchor="start" x="205" y="-18.5" font-family="Helvetica,sans-Serif" font-size="10.00">Eigen::NumTraits&lt; typename</text>
<text text-anchor="middle" x="275.5" y="-7.5" font-family="Helvetica,sans-Serif" font-size="10.00"> MatrixType::Scalar &gt;</text>
</a>
</g>
</g>
<!-- Node0&#45;&gt;Node5 -->
<g id="edge5" class="edge"><title>Node0&#45;&gt;Node5</title>
<path fill="none" stroke="midnightblue" d="M113.64,-73.029C136.691,-63.5323 168.569,-50.7344 197,-40.5 206.311,-37.1482 216.325,-33.7602 225.961,-30.6064"/>
<polygon fill="midnightblue" stroke="midnightblue" points="112.238,-69.8212 104.337,-76.8798 114.915,-76.289 112.238,-69.8212"/>
</g>
<!-- Node3 -->
<g id="node4" class="node"><title>Node3</title>
<g id="a_node4"><a xlink:href="structEigen_1_1NumTraits_3_01AutoDiffScalar_3_01DerType_01_4_01_4.html" target="_top" xlink:title="Eigen::NumTraits\&lt; AutoDiff\lScalar\&lt; DerType \&gt; \&gt;">
<polygon fill="none" stroke="black" points="390,-99.5 390,-129.5 536,-129.5 536,-99.5 390,-99.5"/>
<text text-anchor="start" x="398" y="-117.5" font-family="Helvetica,sans-Serif" font-size="10.00">Eigen::NumTraits&lt; AutoDiff</text>
<text text-anchor="middle" x="463" y="-106.5" font-family="Helvetica,sans-Serif" font-size="10.00">Scalar&lt; DerType &gt; &gt;</text>
</a>
</g>
</g>
<!-- Node2&#45;&gt;Node3 -->
<g id="edge3" class="edge"><title>Node2&#45;&gt;Node3</title>
<path fill="none" stroke="midnightblue" d="M363.787,-114.5C372.543,-114.5 381.365,-114.5 389.938,-114.5"/>
<polygon fill="midnightblue" stroke="midnightblue" points="363.557,-111 353.557,-114.5 363.557,-118 363.557,-111"/>
</g>
</g>
</svg>
