<?xml version="1.0" encoding="UTF-8" standalone="no"?>
<!DOCTYPE svg PUBLIC "-//W3C//DTD SVG 1.1//EN"
 "http://www.w3.org/Graphics/SVG/1.1/DTD/svg11.dtd">
<!-- Generated by graphviz version 2.38.0 (20140413.2041)
 -->
<!-- Title: Graphical Class Hierarchy Pages: 1 -->
<svg width="450pt" height="405pt"
 viewBox="0.00 0.00 450.00 405.00" xmlns="http://www.w3.org/2000/svg" xmlns:xlink="http://www.w3.org/1999/xlink">
<g id="graph0" class="graph" transform="scale(1 1) rotate(0) translate(4 401)">
<title>Graphical Class Hierarchy</title>
<!-- Node0 -->
<g id="node1" class="node"><title>Node0</title>
<g id="a_node1"><a xlink:href="structEigen_1_1internal_1_1default__packet__traits.html" target="_top" xlink:title="Eigen::internal::default\l_packet_traits">
<polygon fill="none" stroke="black" points="0,-194.5 0,-224.5 124,-224.5 124,-194.5 0,-194.5"/>
<text text-anchor="start" x="8" y="-212.5" font-family="Helvetica,sans-Serif" font-size="10.00">Eigen::internal::default</text>
<text text-anchor="middle" x="62" y="-201.5" font-family="Helvetica,sans-Serif" font-size="10.00">_packet_traits</text>
</a>
</g>
</g>
<!-- Node1 -->
<g id="node2" class="node"><title>Node1</title>
<g id="a_node2"><a xlink:href="structEigen_1_1internal_1_1packet__traits.html" target="_top" xlink:title="Eigen::internal::packet\l_traits\&lt; T \&gt;">
<polygon fill="none" stroke="black" points="160,-366.5 160,-396.5 283,-396.5 283,-366.5 160,-366.5"/>
<text text-anchor="start" x="168" y="-384.5" font-family="Helvetica,sans-Serif" font-size="10.00">Eigen::internal::packet</text>
<text text-anchor="middle" x="221.5" y="-373.5" font-family="Helvetica,sans-Serif" font-size="10.00">_traits&lt; T &gt;</text>
</a>
</g>
</g>
<!-- Node0&#45;&gt;Node1 -->
<g id="edge1" class="edge"><title>Node0&#45;&gt;Node1</title>
<path fill="none" stroke="midnightblue" d="M73.2688,-233.918C88.0279,-266.311 118.143,-323.364 160,-357.5 164.116,-360.857 168.759,-363.79 173.599,-366.341"/>
<polygon fill="midnightblue" stroke="midnightblue" points="76.4387,-232.433 69.1854,-224.71 70.0396,-235.27 76.4387,-232.433"/>
</g>
<!-- Node3 -->
<g id="node4" class="node"><title>Node3</title>
<g id="a_node4"><a xlink:href="structEigen_1_1internal_1_1packet__traits_3_01double_01_4.html" target="_top" xlink:title="Eigen::internal::packet\l_traits\&lt; double \&gt;">
<polygon fill="none" stroke="black" points="160,-317.5 160,-347.5 283,-347.5 283,-317.5 160,-317.5"/>
<text text-anchor="start" x="168" y="-335.5" font-family="Helvetica,sans-Serif" font-size="10.00">Eigen::internal::packet</text>
<text text-anchor="middle" x="221.5" y="-324.5" font-family="Helvetica,sans-Serif" font-size="10.00">_traits&lt; double &gt;</text>
</a>
</g>
</g>
<!-- Node0&#45;&gt;Node3 -->
<g id="edge3" class="edge"><title>Node0&#45;&gt;Node3</title>
<path fill="none" stroke="midnightblue" d="M80.5956,-232.363C98.539,-254.376 128.193,-287.358 160,-308.5 164.988,-311.815 170.503,-314.786 176.114,-317.414"/>
<polygon fill="midnightblue" stroke="midnightblue" points="83.2928,-230.131 74.3119,-224.51 77.8274,-234.505 83.2928,-230.131"/>
</g>
<!-- Node4 -->
<g id="node5" class="node"><title>Node4</title>
<g id="a_node5"><a xlink:href="structEigen_1_1internal_1_1packet__traits_3_01float_01_4.html" target="_top" xlink:title="Eigen::internal::packet\l_traits\&lt; float \&gt;">
<polygon fill="none" stroke="black" points="160,-268.5 160,-298.5 283,-298.5 283,-268.5 160,-268.5"/>
<text text-anchor="start" x="168" y="-286.5" font-family="Helvetica,sans-Serif" font-size="10.00">Eigen::internal::packet</text>
<text text-anchor="middle" x="221.5" y="-275.5" font-family="Helvetica,sans-Serif" font-size="10.00">_traits&lt; float &gt;</text>
</a>
</g>
</g>
<!-- Node0&#45;&gt;Node4 -->
<g id="edge4" class="edge"><title>Node0&#45;&gt;Node4</title>
<path fill="none" stroke="midnightblue" d="M99.6531,-229.474C117.633,-238.992 139.733,-250.283 160,-259.5 166.686,-262.54 173.877,-265.584 180.886,-268.433"/>
<polygon fill="midnightblue" stroke="midnightblue" points="101.129,-226.294 90.6581,-224.678 97.8356,-232.471 101.129,-226.294"/>
</g>
<!-- Node5 -->
<g id="node6" class="node"><title>Node5</title>
<g id="a_node6"><a xlink:href="structEigen_1_1internal_1_1packet__traits_3_01int_01_4.html" target="_top" xlink:title="Eigen::internal::packet\l_traits\&lt; int \&gt;">
<polygon fill="none" stroke="black" points="160,-219.5 160,-249.5 283,-249.5 283,-219.5 160,-219.5"/>
<text text-anchor="start" x="168" y="-237.5" font-family="Helvetica,sans-Serif" font-size="10.00">Eigen::internal::packet</text>
<text text-anchor="middle" x="221.5" y="-226.5" font-family="Helvetica,sans-Serif" font-size="10.00">_traits&lt; int &gt;</text>
</a>
</g>
</g>
<!-- Node0&#45;&gt;Node5 -->
<g id="edge5" class="edge"><title>Node0&#45;&gt;Node5</title>
<path fill="none" stroke="midnightblue" d="M134.286,-220.815C142.821,-222.17 151.475,-223.544 159.84,-224.872"/>
<polygon fill="midnightblue" stroke="midnightblue" points="134.77,-217.348 124.345,-219.237 133.672,-224.262 134.77,-217.348"/>
</g>
<!-- Node6 -->
<g id="node7" class="node"><title>Node6</title>
<g id="a_node7"><a xlink:href="structEigen_1_1internal_1_1packet__traits_3_01int32__t_01_4.html" target="_top" xlink:title="Eigen::internal::packet\l_traits\&lt; int32_t \&gt;">
<polygon fill="none" stroke="black" points="160,-170.5 160,-200.5 283,-200.5 283,-170.5 160,-170.5"/>
<text text-anchor="start" x="168" y="-188.5" font-family="Helvetica,sans-Serif" font-size="10.00">Eigen::internal::packet</text>
<text text-anchor="middle" x="221.5" y="-177.5" font-family="Helvetica,sans-Serif" font-size="10.00">_traits&lt; int32_t &gt;</text>
</a>
</g>
</g>
<!-- Node0&#45;&gt;Node6 -->
<g id="edge6" class="edge"><title>Node0&#45;&gt;Node6</title>
<path fill="none" stroke="midnightblue" d="M134.286,-198.637C142.821,-197.337 151.475,-196.018 159.84,-194.743"/>
<polygon fill="midnightblue" stroke="midnightblue" points="133.703,-195.186 124.345,-200.152 134.758,-202.106 133.703,-195.186"/>
</g>
<!-- Node7 -->
<g id="node8" class="node"><title>Node7</title>
<g id="a_node8"><a xlink:href="structEigen_1_1internal_1_1packet__traits_3_01std_1_1complex_3_01double_01_4_01_4.html" target="_top" xlink:title="Eigen::internal::packet\l_traits\&lt; std::complex\l\&lt; double \&gt; \&gt;">
<polygon fill="none" stroke="black" points="160,-110 160,-151 283,-151 283,-110 160,-110"/>
<text text-anchor="start" x="168" y="-139" font-family="Helvetica,sans-Serif" font-size="10.00">Eigen::internal::packet</text>
<text text-anchor="start" x="168" y="-128" font-family="Helvetica,sans-Serif" font-size="10.00">_traits&lt; std::complex</text>
<text text-anchor="middle" x="221.5" y="-117" font-family="Helvetica,sans-Serif" font-size="10.00">&lt; double &gt; &gt;</text>
</a>
</g>
</g>
<!-- Node0&#45;&gt;Node7 -->
<g id="edge7" class="edge"><title>Node0&#45;&gt;Node7</title>
<path fill="none" stroke="midnightblue" d="M102.024,-189.926C125.626,-178.088 155.678,-163.014 179.609,-151.01"/>
<polygon fill="midnightblue" stroke="midnightblue" points="100.365,-186.843 92.9953,-194.455 103.503,-193.1 100.365,-186.843"/>
</g>
<!-- Node8 -->
<g id="node9" class="node"><title>Node8</title>
<g id="a_node9"><a xlink:href="structEigen_1_1internal_1_1packet__traits_3_01std_1_1complex_3_01float_01_4_01_4.html" target="_top" xlink:title="Eigen::internal::packet\l_traits\&lt; std::complex\l\&lt; float \&gt; \&gt;">
<polygon fill="none" stroke="black" points="160,-50 160,-91 283,-91 283,-50 160,-50"/>
<text text-anchor="start" x="168" y="-79" font-family="Helvetica,sans-Serif" font-size="10.00">Eigen::internal::packet</text>
<text text-anchor="start" x="168" y="-68" font-family="Helvetica,sans-Serif" font-size="10.00">_traits&lt; std::complex</text>
<text text-anchor="middle" x="221.5" y="-57" font-family="Helvetica,sans-Serif" font-size="10.00">&lt; float &gt; &gt;</text>
</a>
</g>
</g>
<!-- Node0&#45;&gt;Node8 -->
<g id="edge8" class="edge"><title>Node0&#45;&gt;Node8</title>
<path fill="none" stroke="midnightblue" d="M79.4051,-186.317C97.1656,-162.478 127.361,-125.414 160,-100.5 164.38,-97.1567 169.191,-94.0298 174.127,-91.1526"/>
<polygon fill="midnightblue" stroke="midnightblue" points="76.5298,-184.319 73.4429,-194.454 82.1764,-188.456 76.5298,-184.319"/>
</g>
<!-- Node9 -->
<g id="node10" class="node"><title>Node9</title>
<g id="a_node10"><a xlink:href="structEigen_1_1internal_1_1packet__traits.html" target="_top" xlink:title="Eigen::internal::packet\l_traits\&lt; Scalar \&gt;">
<polygon fill="none" stroke="black" points="160,-0.5 160,-30.5 283,-30.5 283,-0.5 160,-0.5"/>
<text text-anchor="start" x="168" y="-18.5" font-family="Helvetica,sans-Serif" font-size="10.00">Eigen::internal::packet</text>
<text text-anchor="middle" x="221.5" y="-7.5" font-family="Helvetica,sans-Serif" font-size="10.00">_traits&lt; Scalar &gt;</text>
</a>
</g>
</g>
<!-- Node0&#45;&gt;Node9 -->
<g id="edge9" class="edge"><title>Node0&#45;&gt;Node9</title>
<path fill="none" stroke="midnightblue" d="M71.4282,-184.413C84.813,-148.071 114.198,-80.7358 160,-40.5 164.354,-36.6747 169.375,-33.3813 174.624,-30.5597"/>
<polygon fill="midnightblue" stroke="midnightblue" points="67.9955,-183.619 67.9318,-194.214 74.5885,-185.971 67.9955,-183.619"/>
</g>
<!-- Node2 -->
<g id="node3" class="node"><title>Node2</title>
<g id="a_node3"><a xlink:href="structEigen_1_1internal_1_1packet__traits_3_01const_01T_01_4.html" target="_top" xlink:title="Eigen::internal::packet\l_traits\&lt; const T \&gt;">
<polygon fill="none" stroke="black" points="319,-366.5 319,-396.5 442,-396.5 442,-366.5 319,-366.5"/>
<text text-anchor="start" x="327" y="-384.5" font-family="Helvetica,sans-Serif" font-size="10.00">Eigen::internal::packet</text>
<text text-anchor="middle" x="380.5" y="-373.5" font-family="Helvetica,sans-Serif" font-size="10.00">_traits&lt; const T &gt;</text>
</a>
</g>
</g>
<!-- Node1&#45;&gt;Node2 -->
<g id="edge2" class="edge"><title>Node1&#45;&gt;Node2</title>
<path fill="none" stroke="midnightblue" d="M293.21,-381.5C301.807,-381.5 310.53,-381.5 318.961,-381.5"/>
<polygon fill="midnightblue" stroke="midnightblue" points="293.2,-378 283.2,-381.5 293.2,-385 293.2,-378"/>
</g>
<!-- Node10 -->
<g id="node11" class="node"><title>Node10</title>
<g id="a_node11"><a xlink:href="structEigen_1_1PacketType.html" target="_top" xlink:title="Eigen::PacketType\&lt;\l Scalar, Device \&gt;">
<polygon fill="none" stroke="black" points="325.5,-0.5 325.5,-30.5 435.5,-30.5 435.5,-0.5 325.5,-0.5"/>
<text text-anchor="start" x="333.5" y="-18.5" font-family="Helvetica,sans-Serif" font-size="10.00">Eigen::PacketType&lt;</text>
<text text-anchor="middle" x="380.5" y="-7.5" font-family="Helvetica,sans-Serif" font-size="10.00"> Scalar, Device &gt;</text>
</a>
</g>
</g>
<!-- Node9&#45;&gt;Node10 -->
<g id="edge10" class="edge"><title>Node9&#45;&gt;Node10</title>
<path fill="none" stroke="midnightblue" d="M293.406,-15.5C304.139,-15.5 315.063,-15.5 325.366,-15.5"/>
<polygon fill="midnightblue" stroke="midnightblue" points="293.2,-12.0001 283.2,-15.5 293.2,-19.0001 293.2,-12.0001"/>
</g>
</g>
</svg>
