<?xml version="1.0" encoding="UTF-8" standalone="no"?>
<!DOCTYPE svg PUBLIC "-//W3C//DTD SVG 1.1//EN"
 "http://www.w3.org/Graphics/SVG/1.1/DTD/svg11.dtd">
<!-- Generated by graphviz version 2.38.0 (20140413.2041)
 -->
<!-- Title: Graphical Class Hierarchy Pages: 1 -->
<svg width="296pt" height="88pt"
 viewBox="0.00 0.00 296.00 88.00" xmlns="http://www.w3.org/2000/svg" xmlns:xlink="http://www.w3.org/1999/xlink">
<g id="graph0" class="graph" transform="scale(1 1) rotate(0) translate(4 84)">
<title>Graphical Class Hierarchy</title>
<!-- Node0 -->
<g id="node1" class="node"><title>Node0</title>
<g id="a_node1"><a xlink:href="structEigen_1_1internal_1_1coeff__visitor.html" target="_top" xlink:title="Eigen::internal::coeff\l_visitor\&lt; Derived \&gt;">
<polygon fill="none" stroke="black" points="0,-24.5 0,-54.5 114,-54.5 114,-24.5 0,-24.5"/>
<text text-anchor="start" x="8" y="-42.5" font-family="Helvetica,sans-Serif" font-size="10.00">Eigen::internal::coeff</text>
<text text-anchor="middle" x="57" y="-31.5" font-family="Helvetica,sans-Serif" font-size="10.00">_visitor&lt; Derived &gt;</text>
</a>
</g>
</g>
<!-- Node1 -->
<g id="node2" class="node"><title>Node1</title>
<g id="a_node2"><a xlink:href="structEigen_1_1internal_1_1max__coeff__visitor.html" target="_top" xlink:title="Eigen::internal::max\l_coeff_visitor\&lt; Derived \&gt;">
<polygon fill="none" stroke="black" points="150,-49.5 150,-79.5 288,-79.5 288,-49.5 150,-49.5"/>
<text text-anchor="start" x="158" y="-67.5" font-family="Helvetica,sans-Serif" font-size="10.00">Eigen::internal::max</text>
<text text-anchor="middle" x="219" y="-56.5" font-family="Helvetica,sans-Serif" font-size="10.00">_coeff_visitor&lt; Derived &gt;</text>
</a>
</g>
</g>
<!-- Node0&#45;&gt;Node1 -->
<g id="edge1" class="edge"><title>Node0&#45;&gt;Node1</title>
<path fill="none" stroke="midnightblue" d="M124.47,-49.8859C132.821,-51.1907 141.374,-52.5272 149.751,-53.8361"/>
<polygon fill="midnightblue" stroke="midnightblue" points="124.83,-46.3999 114.41,-48.3141 123.75,-53.316 124.83,-46.3999"/>
</g>
<!-- Node2 -->
<g id="node3" class="node"><title>Node2</title>
<g id="a_node3"><a xlink:href="structEigen_1_1internal_1_1min__coeff__visitor.html" target="_top" xlink:title="Eigen::internal::min\l_coeff_visitor\&lt; Derived \&gt;">
<polygon fill="none" stroke="black" points="150,-0.5 150,-30.5 288,-30.5 288,-0.5 150,-0.5"/>
<text text-anchor="start" x="158" y="-18.5" font-family="Helvetica,sans-Serif" font-size="10.00">Eigen::internal::min</text>
<text text-anchor="middle" x="219" y="-7.5" font-family="Helvetica,sans-Serif" font-size="10.00">_coeff_visitor&lt; Derived &gt;</text>
</a>
</g>
</g>
<!-- Node0&#45;&gt;Node2 -->
<g id="edge2" class="edge"><title>Node0&#45;&gt;Node2</title>
<path fill="none" stroke="midnightblue" d="M124.47,-29.5295C132.821,-28.2769 141.374,-26.9939 149.751,-25.7373"/>
<polygon fill="midnightblue" stroke="midnightblue" points="123.78,-26.0937 114.41,-31.0385 124.819,-33.0163 123.78,-26.0937"/>
</g>
</g>
</svg>
