<?xml version="1.0" encoding="UTF-8" standalone="no"?>
<!DOCTYPE svg PUBLIC "-//W3C//DTD SVG 1.1//EN"
 "http://www.w3.org/Graphics/SVG/1.1/DTD/svg11.dtd">
<!-- Generated by graphviz version 2.38.0 (20140413.2041)
 -->
<!-- Title: Graphical Class Hierarchy Pages: 1 -->
<svg width="387pt" height="39pt"
 viewBox="0.00 0.00 387.00 39.00" xmlns="http://www.w3.org/2000/svg" xmlns:xlink="http://www.w3.org/1999/xlink">
<g id="graph0" class="graph" transform="scale(1 1) rotate(0) translate(4 35)">
<title>Graphical Class Hierarchy</title>
<!-- Node0 -->
<g id="node1" class="node"><title>Node0</title>
<g id="a_node1"><a xlink:href="structEigen_1_1half__impl_1_1____half.html" target="_top" xlink:title="Eigen::half_impl::\l__half">
<polygon fill="none" stroke="black" points="0,-0.5 0,-30.5 98,-30.5 98,-0.5 0,-0.5"/>
<text text-anchor="start" x="8" y="-18.5" font-family="Helvetica,sans-Serif" font-size="10.00">Eigen::half_impl::</text>
<text text-anchor="middle" x="49" y="-7.5" font-family="Helvetica,sans-Serif" font-size="10.00">__half</text>
</a>
</g>
</g>
<!-- Node1 -->
<g id="node2" class="node"><title>Node1</title>
<g id="a_node2"><a xlink:href="structEigen_1_1half__impl_1_1half__base.html" target="_top" xlink:title="Eigen::half_impl::half_base">
<polygon fill="none" stroke="black" points="134,-6 134,-25 277,-25 277,-6 134,-6"/>
<text text-anchor="middle" x="205.5" y="-13" font-family="Helvetica,sans-Serif" font-size="10.00">Eigen::half_impl::half_base</text>
</a>
</g>
</g>
<!-- Node0&#45;&gt;Node1 -->
<g id="edge1" class="edge"><title>Node0&#45;&gt;Node1</title>
<path fill="none" stroke="midnightblue" d="M108.088,-15.5C116.483,-15.5 125.199,-15.5 133.806,-15.5"/>
<polygon fill="midnightblue" stroke="midnightblue" points="108.038,-12.0001 98.0379,-15.5 108.038,-19.0001 108.038,-12.0001"/>
</g>
<!-- Node2 -->
<g id="node3" class="node"><title>Node2</title>
<g id="a_node3"><a xlink:href="structEigen_1_1half.html" target="_top" xlink:title="Eigen::half">
<polygon fill="none" stroke="black" points="313,-6 313,-25 379,-25 379,-6 313,-6"/>
<text text-anchor="middle" x="346" y="-13" font-family="Helvetica,sans-Serif" font-size="10.00">Eigen::half</text>
</a>
</g>
</g>
<!-- Node1&#45;&gt;Node2 -->
<g id="edge2" class="edge"><title>Node1&#45;&gt;Node2</title>
<path fill="none" stroke="midnightblue" d="M287.48,-15.5C296.36,-15.5 304.976,-15.5 312.719,-15.5"/>
<polygon fill="midnightblue" stroke="midnightblue" points="287.373,-12.0001 277.373,-15.5 287.373,-19.0001 287.373,-12.0001"/>
</g>
</g>
</svg>
