<?xml version="1.0" encoding="UTF-8" standalone="no"?>
<!DOCTYPE svg PUBLIC "-//W3C//DTD SVG 1.1//EN"
 "http://www.w3.org/Graphics/SVG/1.1/DTD/svg11.dtd">
<!-- Generated by graphviz version 2.38.0 (20140413.2041)
 -->
<!-- Title: Graphical Class Hierarchy Pages: 1 -->
<svg width="341pt" height="220pt"
 viewBox="0.00 0.00 341.00 219.50" xmlns="http://www.w3.org/2000/svg" xmlns:xlink="http://www.w3.org/1999/xlink">
<g id="graph0" class="graph" transform="scale(1 1) rotate(0) translate(4 215.5)">
<title>Graphical Class Hierarchy</title>
<!-- Node0 -->
<g id="node1" class="node"><title>Node0</title>
<g id="a_node1"><a xlink:href="structEigen_1_1internal_1_1traits.html" target="_top" xlink:title="Eigen::internal::traits\l\&lt; PlainObjectType \&gt;">
<polygon fill="none" stroke="black" points="0,-85.5 0,-115.5 116,-115.5 116,-85.5 0,-85.5"/>
<text text-anchor="start" x="8" y="-103.5" font-family="Helvetica,sans-Serif" font-size="10.00">Eigen::internal::traits</text>
<text text-anchor="middle" x="58" y="-92.5" font-family="Helvetica,sans-Serif" font-size="10.00">&lt; PlainObjectType &gt;</text>
</a>
</g>
</g>
<!-- Node1 -->
<g id="node2" class="node"><title>Node1</title>
<g id="a_node2"><a xlink:href="structEigen_1_1internal_1_1traits_3_01CwiseNullaryOp_3_01NullaryOp_00_01PlainObjectType_01_4_01_4.html" target="_top" xlink:title="Eigen::internal::traits\l\&lt; CwiseNullaryOp\&lt; NullaryOp,\l PlainObjectType \&gt; \&gt;">
<polygon fill="none" stroke="black" points="161.5,-170 161.5,-211 323.5,-211 323.5,-170 161.5,-170"/>
<text text-anchor="start" x="169.5" y="-199" font-family="Helvetica,sans-Serif" font-size="10.00">Eigen::internal::traits</text>
<text text-anchor="start" x="169.5" y="-188" font-family="Helvetica,sans-Serif" font-size="10.00">&lt; CwiseNullaryOp&lt; NullaryOp,</text>
<text text-anchor="middle" x="242.5" y="-177" font-family="Helvetica,sans-Serif" font-size="10.00"> PlainObjectType &gt; &gt;</text>
</a>
</g>
</g>
<!-- Node0&#45;&gt;Node1 -->
<g id="edge1" class="edge"><title>Node0&#45;&gt;Node1</title>
<path fill="none" stroke="midnightblue" d="M87.4423,-121.505C105.318,-134.022 129.231,-149.552 152,-160.5 158.942,-163.838 166.351,-166.961 173.823,-169.836"/>
<polygon fill="midnightblue" stroke="midnightblue" points="89.3621,-118.576 79.1834,-115.636 85.3071,-124.282 89.3621,-118.576"/>
</g>
<!-- Node2 -->
<g id="node3" class="node"><title>Node2</title>
<g id="a_node3"><a xlink:href="structEigen_1_1internal_1_1traits_3_01Map_3_01PlainObjectType_00_01MapOptions_00_01StrideType_01_4_01_4.html" target="_top" xlink:title="Eigen::internal::traits\l\&lt; Map\&lt; PlainObjectType,\l MapOptions, StrideType \&gt; \&gt;">
<polygon fill="none" stroke="black" points="165,-110 165,-151 320,-151 320,-110 165,-110"/>
<text text-anchor="start" x="173" y="-139" font-family="Helvetica,sans-Serif" font-size="10.00">Eigen::internal::traits</text>
<text text-anchor="start" x="173" y="-128" font-family="Helvetica,sans-Serif" font-size="10.00">&lt; Map&lt; PlainObjectType,</text>
<text text-anchor="middle" x="242.5" y="-117" font-family="Helvetica,sans-Serif" font-size="10.00"> MapOptions, StrideType &gt; &gt;</text>
</a>
</g>
</g>
<!-- Node0&#45;&gt;Node2 -->
<g id="edge2" class="edge"><title>Node0&#45;&gt;Node2</title>
<path fill="none" stroke="midnightblue" d="M126.148,-111.538C138.698,-113.601 151.903,-115.772 164.718,-117.878"/>
<polygon fill="midnightblue" stroke="midnightblue" points="126.679,-108.078 116.243,-109.91 125.543,-114.986 126.679,-108.078"/>
</g>
<!-- Node3 -->
<g id="node4" class="node"><title>Node3</title>
<g id="a_node4"><a xlink:href="structEigen_1_1internal_1_1traits_3_01TensorMap_3_01PlainObjectType_00_01Options___00_01MakePointer___01_4_01_4.html" target="_top" xlink:title="Eigen::internal::traits\l\&lt; TensorMap\&lt; PlainObjectType,\l Options_, MakePointer_ \&gt; \&gt;">
<polygon fill="none" stroke="black" points="159,-50 159,-91 326,-91 326,-50 159,-50"/>
<text text-anchor="start" x="167" y="-79" font-family="Helvetica,sans-Serif" font-size="10.00">Eigen::internal::traits</text>
<text text-anchor="start" x="167" y="-68" font-family="Helvetica,sans-Serif" font-size="10.00">&lt; TensorMap&lt; PlainObjectType,</text>
<text text-anchor="middle" x="242.5" y="-57" font-family="Helvetica,sans-Serif" font-size="10.00"> Options_, MakePointer_ &gt; &gt;</text>
</a>
</g>
</g>
<!-- Node0&#45;&gt;Node3 -->
<g id="edge3" class="edge"><title>Node0&#45;&gt;Node3</title>
<path fill="none" stroke="midnightblue" d="M126.224,-89.4495C136.803,-87.7104 147.847,-85.895 158.728,-84.1064"/>
<polygon fill="midnightblue" stroke="midnightblue" points="125.543,-86.0143 116.243,-91.0901 126.679,-92.9216 125.543,-86.0143"/>
</g>
<!-- Node4 -->
<g id="node5" class="node"><title>Node4</title>
<g id="a_node5"><a xlink:href="structEigen_1_1internal_1_1traits_3_01TensorRef_3_01PlainObjectType_01_4_01_4.html" target="_top" xlink:title="Eigen::internal::traits\l\&lt; TensorRef\&lt; PlainObjectType \&gt; \&gt;">
<polygon fill="none" stroke="black" points="152,-0.5 152,-30.5 333,-30.5 333,-0.5 152,-0.5"/>
<text text-anchor="start" x="160" y="-18.5" font-family="Helvetica,sans-Serif" font-size="10.00">Eigen::internal::traits</text>
<text text-anchor="middle" x="242.5" y="-7.5" font-family="Helvetica,sans-Serif" font-size="10.00">&lt; TensorRef&lt; PlainObjectType &gt; &gt;</text>
</a>
</g>
</g>
<!-- Node0&#45;&gt;Node4 -->
<g id="edge4" class="edge"><title>Node0&#45;&gt;Node4</title>
<path fill="none" stroke="midnightblue" d="M86.901,-79.3279C104.741,-66.6125 128.809,-50.9311 152,-40.5 160.239,-36.794 169.157,-33.5131 178.061,-30.6487"/>
<polygon fill="midnightblue" stroke="midnightblue" points="84.7137,-76.5906 78.6745,-85.2957 88.8242,-82.2567 84.7137,-76.5906"/>
</g>
</g>
</svg>
