<?xml version="1.0" encoding="UTF-8" standalone="no"?>
<!DOCTYPE svg PUBLIC "-//W3C//DTD SVG 1.1//EN"
 "http://www.w3.org/Graphics/SVG/1.1/DTD/svg11.dtd">
<!-- Generated by graphviz version 2.38.0 (20140413.2041)
 -->
<!-- Title: /travis/libpairinteraction/eigen/lapack/complex_double.cpp Pages: 1 -->
<!--zoomable 285 -->
<svg id="main" version="1.1" xmlns="http://www.w3.org/2000/svg" xmlns:xlink="http://www.w3.org/1999/xlink" xml:space="preserve" onload="init(evt)">
<style type="text/css"><![CDATA[
.edge:hover path { stroke: red; }
.edge:hover polygon { stroke: red; fill: red; }
]]></style>
<script type="text/javascript"><![CDATA[
var edges = document.getElementsByTagName('g');
if (edges && edges.length) {
  for (var i=0;i<edges.length;i++) {
    if (edges[i].id.substr(0,4)=='edge') {
      edges[i].setAttribute('class','edge');
    }
  }
}
]]></script>
        <defs>
                <circle id="rim" cx="0" cy="0" r="7"/>
                <circle id="rim2" cx="0" cy="0" r="3.5"/>
                <g id="zoomPlus">
                        <use xlink:href="#rim" fill="#404040">
                                <set attributeName="fill" to="#808080" begin="zoomplus.mouseover" end="zoomplus.mouseout"/>
                        </use>
                        <path d="M-4,0h8M0,-4v8" fill="none" stroke="white" stroke-width="1.5" pointer-events="none"/>
                </g>
                <g id="zoomMin">
                        <use xlink:href="#rim" fill="#404040">
                                <set attributeName="fill" to="#808080" begin="zoomminus.mouseover" end="zoomminus.mouseout"/>
                        </use>
                        <path d="M-4,0h8" fill="none" stroke="white" stroke-width="1.5" pointer-events="none"/>
                </g>
                <g id="dirArrow">
                        <path fill="none" stroke="white" stroke-width="1.5" d="M0,-3.0v7 M-2.5,-0.5L0,-3.0L2.5,-0.5"/>
                </g>
               <g id="resetDef">
                       <use xlink:href="#rim2" fill="#404040">
                               <set attributeName="fill" to="#808080" begin="reset.mouseover" end="reset.mouseout"/>
                       </use>
               </g>
        </defs>

<script type="text/javascript">
var viewWidth = 1947;
var viewHeight = 285;
var sectionId = 'dynsection-0';
</script>
<script xlink:href="svgpan.js"/>
<svg id="graph" class="graph">
<g id="viewport">
<title>/travis/libpairinteraction/eigen/lapack/complex_double.cpp</title>
<!-- Node0 -->
<g id="node1" class="node"><title>Node0</title>
<polygon fill="#bfbfbf" stroke="black" points="998,-246.5 998,-276.5 1179,-276.5 1179,-246.5 998,-246.5"/>
<text text-anchor="start" x="1006" y="-264.5" font-family="Helvetica,sans-Serif" font-size="10.00">/travis/libpairinteraction</text>
<text text-anchor="middle" x="1088.5" y="-253.5" font-family="Helvetica,sans-Serif" font-size="10.00">/eigen/lapack/complex_double.cpp</text>
</g>
<!-- Node1 -->
<g id="node2" class="node"><title>Node1</title>
<g id="a_node2"><a xlink:href="lapack_2cholesky_8cpp.html" target="_top" xlink:title="cholesky.cpp">
<polygon fill="none" stroke="black" points="1050,-190.5 1050,-209.5 1127,-209.5 1127,-190.5 1050,-190.5"/>
<text text-anchor="middle" x="1088.5" y="-197.5" font-family="Helvetica,sans-Serif" font-size="10.00">cholesky.cpp</text>
</a>
</g>
</g>
<!-- Node0&#45;&gt;Node1 -->
<g id="edge1" class="edge"><title>Node0&#45;&gt;Node1</title>
<path fill="none" stroke="midnightblue" d="M1088.5,-246.399C1088.5,-238.466 1088.5,-228.458 1088.5,-219.858"/>
<polygon fill="midnightblue" stroke="midnightblue" points="1092,-219.658 1088.5,-209.658 1085,-219.658 1092,-219.658"/>
</g>
<!-- Node20 -->
<g id="node21" class="node"><title>Node20</title>
<g id="a_node21"><a xlink:href="lapack_2lu_8cpp.html" target="_top" xlink:title="lu.cpp">
<polygon fill="none" stroke="black" points="974,-190.5 974,-209.5 1019,-209.5 1019,-190.5 974,-190.5"/>
<text text-anchor="middle" x="996.5" y="-197.5" font-family="Helvetica,sans-Serif" font-size="10.00">lu.cpp</text>
</a>
</g>
</g>
<!-- Node0&#45;&gt;Node20 -->
<g id="edge21" class="edge"><title>Node0&#45;&gt;Node20</title>
<path fill="none" stroke="midnightblue" d="M1066.7,-246.399C1052.09,-236.951 1032.93,-224.559 1018.32,-215.109"/>
<polygon fill="midnightblue" stroke="midnightblue" points="1020.18,-212.15 1009.89,-209.658 1016.38,-218.027 1020.18,-212.15"/>
</g>
<!-- Node22 -->
<g id="node23" class="node"><title>Node22</title>
<g id="a_node23"><a xlink:href="svd_8cpp.html" target="_top" xlink:title="svd.cpp">
<polygon fill="none" stroke="black" points="1158,-190.5 1158,-209.5 1211,-209.5 1211,-190.5 1158,-190.5"/>
<text text-anchor="middle" x="1184.5" y="-197.5" font-family="Helvetica,sans-Serif" font-size="10.00">svd.cpp</text>
</a>
</g>
</g>
<!-- Node0&#45;&gt;Node22 -->
<g id="edge24" class="edge"><title>Node0&#45;&gt;Node22</title>
<path fill="none" stroke="midnightblue" d="M1111.25,-246.399C1126.49,-236.951 1146.49,-224.559 1161.74,-215.109"/>
<polygon fill="midnightblue" stroke="midnightblue" points="1163.88,-217.901 1170.53,-209.658 1160.19,-211.951 1163.88,-217.901"/>
</g>
<!-- Node2 -->
<g id="node3" class="node"><title>Node2</title>
<g id="a_node3"><a xlink:href="lapack__common_8h.html" target="_top" xlink:title="lapack_common.h">
<polygon fill="none" stroke="black" points="1132.5,-134.5 1132.5,-153.5 1236.5,-153.5 1236.5,-134.5 1132.5,-134.5"/>
<text text-anchor="middle" x="1184.5" y="-141.5" font-family="Helvetica,sans-Serif" font-size="10.00">lapack_common.h</text>
</a>
</g>
</g>
<!-- Node1&#45;&gt;Node2 -->
<g id="edge2" class="edge"><title>Node1&#45;&gt;Node2</title>
<path fill="none" stroke="midnightblue" d="M1103.92,-190.324C1119.04,-181.822 1142.32,-168.729 1159.97,-158.797"/>
<polygon fill="midnightblue" stroke="midnightblue" points="1162.11,-161.608 1169.11,-153.655 1158.68,-155.507 1162.11,-161.608"/>
</g>
<!-- Node19 -->
<g id="node20" class="node"><title>Node19</title>
<polygon fill="none" stroke="#bfbfbf" points="1025,-134.5 1025,-153.5 1114,-153.5 1114,-134.5 1025,-134.5"/>
<text text-anchor="middle" x="1069.5" y="-141.5" font-family="Helvetica,sans-Serif" font-size="10.00">Eigen/Cholesky</text>
</g>
<!-- Node1&#45;&gt;Node19 -->
<g id="edge20" class="edge"><title>Node1&#45;&gt;Node19</title>
<path fill="none" stroke="midnightblue" d="M1085.36,-190.083C1082.82,-182.849 1079.14,-172.409 1075.97,-163.397"/>
<polygon fill="midnightblue" stroke="midnightblue" points="1079.2,-162.023 1072.58,-153.751 1072.6,-164.346 1079.2,-162.023"/>
</g>
<!-- Node3 -->
<g id="node4" class="node"><title>Node3</title>
<g id="a_node4"><a xlink:href="common_8h.html" target="_top" xlink:title="../blas/common.h">
<polygon fill="none" stroke="black" points="946.5,-78.5 946.5,-97.5 1046.5,-97.5 1046.5,-78.5 946.5,-78.5"/>
<text text-anchor="middle" x="996.5" y="-85.5" font-family="Helvetica,sans-Serif" font-size="10.00">../blas/common.h</text>
</a>
</g>
</g>
<!-- Node2&#45;&gt;Node3 -->
<g id="edge3" class="edge"><title>Node2&#45;&gt;Node3</title>
<path fill="none" stroke="midnightblue" d="M1154.71,-134.444C1122.67,-125.241 1071.57,-110.562 1036.15,-100.388"/>
<polygon fill="midnightblue" stroke="midnightblue" points="1036.73,-96.9132 1026.15,-97.5164 1034.79,-103.641 1036.73,-96.9132"/>
</g>
<!-- Node18 -->
<g id="node19" class="node"><title>Node18</title>
<g id="a_node19"><a xlink:href="lapack_8h.html" target="_top" xlink:title="../Eigen/src/misc/lapack.h">
<polygon fill="none" stroke="black" points="1461,-78.5 1461,-97.5 1598,-97.5 1598,-78.5 1461,-78.5"/>
<text text-anchor="middle" x="1529.5" y="-85.5" font-family="Helvetica,sans-Serif" font-size="10.00">../Eigen/src/misc/lapack.h</text>
</a>
</g>
</g>
<!-- Node2&#45;&gt;Node18 -->
<g id="edge18" class="edge"><title>Node2&#45;&gt;Node18</title>
<path fill="none" stroke="midnightblue" d="M1236.52,-134.857C1297.54,-125.306 1398.73,-109.468 1464.77,-99.1314"/>
<polygon fill="midnightblue" stroke="midnightblue" points="1465.72,-102.526 1475.06,-97.5216 1464.64,-95.6102 1465.72,-102.526"/>
</g>
<!-- Node4 -->
<g id="node5" class="node"><title>Node4</title>
<polygon fill="none" stroke="#bfbfbf" points="1717,-11.5 1717,-30.5 1794,-30.5 1794,-11.5 1717,-11.5"/>
<text text-anchor="middle" x="1755.5" y="-18.5" font-family="Helvetica,sans-Serif" font-size="10.00">../Eigen/Core</text>
</g>
<!-- Node3&#45;&gt;Node4 -->
<g id="edge4" class="edge"><title>Node3&#45;&gt;Node4</title>
<path fill="none" stroke="midnightblue" d="M1046.62,-85.9792C1186.91,-82.7804 1581.55,-71.3577 1707.5,-42 1714.71,-40.3202 1722.22,-37.6657 1729.1,-34.8328"/>
<polygon fill="midnightblue" stroke="midnightblue" points="1730.88,-37.8741 1738.63,-30.6476 1728.07,-31.4653 1730.88,-37.8741"/>
</g>
<!-- Node5 -->
<g id="node6" class="node"><title>Node5</title>
<polygon fill="none" stroke="#bfbfbf" points="0,-11.5 0,-30.5 83,-30.5 83,-11.5 0,-11.5"/>
<text text-anchor="middle" x="41.5" y="-18.5" font-family="Helvetica,sans-Serif" font-size="10.00">../Eigen/Jacobi</text>
</g>
<!-- Node3&#45;&gt;Node5 -->
<g id="edge5" class="edge"><title>Node3&#45;&gt;Node5</title>
<path fill="none" stroke="midnightblue" d="M946.499,-86.6333C781.804,-85.0936 257.46,-77.4588 92.5,-42 84.6125,-40.3045 76.3524,-37.5367 68.8327,-34.5933"/>
<polygon fill="midnightblue" stroke="midnightblue" points="70.0448,-31.3069 59.4674,-30.6983 67.3567,-37.7702 70.0448,-31.3069"/>
</g>
<!-- Node6 -->
<g id="node7" class="node"><title>Node6</title>
<polygon fill="none" stroke="#bfbfbf" points="101.5,-6 101.5,-36 229.5,-36 229.5,-6 101.5,-6"/>
<text text-anchor="start" x="109.5" y="-24" font-family="Helvetica,sans-Serif" font-size="10.00">/travis/libpairinteraction</text>
<text text-anchor="middle" x="165.5" y="-13" font-family="Helvetica,sans-Serif" font-size="10.00">/eigen/Eigen/Core</text>
</g>
<!-- Node3&#45;&gt;Node6 -->
<g id="edge6" class="edge"><title>Node3&#45;&gt;Node6</title>
<path fill="none" stroke="midnightblue" d="M946.438,-87.6085C824.463,-88.3166 502.55,-85.5214 238.5,-42 232.769,-41.0554 226.84,-39.8407 220.954,-38.4773"/>
<polygon fill="midnightblue" stroke="midnightblue" points="221.674,-35.0504 211.128,-36.064 220.005,-41.8483 221.674,-35.0504"/>
</g>
<!-- Node7 -->
<g id="node8" class="node"><title>Node7</title>
<polygon fill="none" stroke="#bfbfbf" points="248,-0.5 248,-41.5 385,-41.5 385,-0.5 248,-0.5"/>
<text text-anchor="start" x="256" y="-29.5" font-family="Helvetica,sans-Serif" font-size="10.00">/travis/libpairinteraction</text>
<text text-anchor="start" x="256" y="-18.5" font-family="Helvetica,sans-Serif" font-size="10.00">/eigen/Eigen/src/Core/util</text>
<text text-anchor="middle" x="316.5" y="-7.5" font-family="Helvetica,sans-Serif" font-size="10.00">/DisableStupidWarnings.h</text>
</g>
<!-- Node3&#45;&gt;Node7 -->
<g id="edge7" class="edge"><title>Node3&#45;&gt;Node7</title>
<path fill="none" stroke="midnightblue" d="M946.199,-86.23C844.02,-84.0208 604.83,-75.5661 395.222,-41.9525"/>
<polygon fill="midnightblue" stroke="midnightblue" points="395.696,-38.4836 385.264,-40.3327 394.572,-45.3928 395.696,-38.4836"/>
</g>
<!-- Node8 -->
<g id="node9" class="node"><title>Node8</title>
<polygon fill="none" stroke="#bfbfbf" points="403.5,-0.5 403.5,-41.5 531.5,-41.5 531.5,-0.5 403.5,-0.5"/>
<text text-anchor="start" x="411.5" y="-29.5" font-family="Helvetica,sans-Serif" font-size="10.00">/travis/libpairinteraction</text>
<text text-anchor="start" x="411.5" y="-18.5" font-family="Helvetica,sans-Serif" font-size="10.00">/eigen/Eigen/src/Jacobi</text>
<text text-anchor="middle" x="467.5" y="-7.5" font-family="Helvetica,sans-Serif" font-size="10.00">/Jacobi.h</text>
</g>
<!-- Node3&#45;&gt;Node8 -->
<g id="edge8" class="edge"><title>Node3&#45;&gt;Node8</title>
<path fill="none" stroke="midnightblue" d="M946.179,-84.8171C863.543,-80.6259 693.881,-69.4758 541.838,-42.0917"/>
<polygon fill="midnightblue" stroke="midnightblue" points="542.317,-38.6212 531.85,-40.2644 541.057,-45.5069 542.317,-38.6212"/>
</g>
<!-- Node9 -->
<g id="node10" class="node"><title>Node9</title>
<polygon fill="none" stroke="#bfbfbf" points="549.5,-0.5 549.5,-41.5 695.5,-41.5 695.5,-0.5 549.5,-0.5"/>
<text text-anchor="start" x="557.5" y="-29.5" font-family="Helvetica,sans-Serif" font-size="10.00">/travis/libpairinteraction</text>
<text text-anchor="start" x="557.5" y="-18.5" font-family="Helvetica,sans-Serif" font-size="10.00">/eigen/Eigen/src/Core/util</text>
<text text-anchor="middle" x="622.5" y="-7.5" font-family="Helvetica,sans-Serif" font-size="10.00">/ReenableStupidWarnings.h</text>
</g>
<!-- Node3&#45;&gt;Node9 -->
<g id="edge9" class="edge"><title>Node3&#45;&gt;Node9</title>
<path fill="none" stroke="midnightblue" d="M946.411,-80.6201C890.118,-73.1514 795.818,-59.7474 705.592,-42.1387"/>
<polygon fill="midnightblue" stroke="midnightblue" points="706.236,-38.6983 695.748,-40.1972 704.882,-45.5661 706.236,-38.6983"/>
</g>
<!-- Node10 -->
<g id="node11" class="node"><title>Node10</title>
<polygon fill="none" stroke="#bfbfbf" points="714,-11.5 714,-30.5 771,-30.5 771,-11.5 714,-11.5"/>
<text text-anchor="middle" x="742.5" y="-18.5" font-family="Helvetica,sans-Serif" font-size="10.00">complex</text>
</g>
<!-- Node3&#45;&gt;Node10 -->
<g id="edge10" class="edge"><title>Node3&#45;&gt;Node10</title>
<path fill="none" stroke="midnightblue" d="M946.238,-80.8112C901.508,-74.3172 834.798,-62.1861 779.5,-42 774.694,-40.2457 769.748,-37.9536 765.097,-35.5495"/>
<polygon fill="midnightblue" stroke="midnightblue" points="766.555,-32.3564 756.108,-30.5937 763.175,-38.4866 766.555,-32.3564"/>
</g>
<!-- Node11 -->
<g id="node12" class="node"><title>Node11</title>
<g id="a_node12"><a xlink:href="Eigen_2src_2misc_2blas_8h.html" target="_top" xlink:title="../Eigen/src/misc/blas.h">
<polygon fill="none" stroke="black" points="1812.5,-11.5 1812.5,-30.5 1938.5,-30.5 1938.5,-11.5 1812.5,-11.5"/>
<text text-anchor="middle" x="1875.5" y="-18.5" font-family="Helvetica,sans-Serif" font-size="10.00">../Eigen/src/misc/blas.h</text>
</a>
</g>
</g>
<!-- Node3&#45;&gt;Node11 -->
<g id="edge11" class="edge"><title>Node3&#45;&gt;Node11</title>
<path fill="none" stroke="midnightblue" d="M1046.55,-85.6201C1199.08,-81.192 1656.65,-66.1996 1803.5,-42 1815.58,-40.0095 1828.53,-36.7692 1840.08,-33.4708"/>
<polygon fill="midnightblue" stroke="midnightblue" points="1841.21,-36.7855 1849.81,-30.5873 1839.22,-30.0742 1841.21,-36.7855"/>
</g>
<!-- Node12 -->
<g id="node13" class="node"><title>Node12</title>
<g id="a_node13"><a xlink:href="BandTriangularSolver_8h.html" target="_top" xlink:title="BandTriangularSolver.h">
<polygon fill="none" stroke="black" points="789,-11.5 789,-30.5 914,-30.5 914,-11.5 789,-11.5"/>
<text text-anchor="middle" x="851.5" y="-18.5" font-family="Helvetica,sans-Serif" font-size="10.00">BandTriangularSolver.h</text>
</a>
</g>
</g>
<!-- Node3&#45;&gt;Node12 -->
<g id="edge12" class="edge"><title>Node3&#45;&gt;Node12</title>
<path fill="none" stroke="midnightblue" d="M977.245,-78.3685C952.329,-67.199 908.712,-47.6468 879.965,-34.7602"/>
<polygon fill="midnightblue" stroke="midnightblue" points="881.391,-31.564 870.835,-30.6672 878.528,-37.9516 881.391,-31.564"/>
</g>
<!-- Node13 -->
<g id="node14" class="node"><title>Node13</title>
<g id="a_node14"><a xlink:href="GeneralRank1Update_8h.html" target="_top" xlink:title="GeneralRank1Update.h">
<polygon fill="none" stroke="black" points="932.5,-11.5 932.5,-30.5 1060.5,-30.5 1060.5,-11.5 932.5,-11.5"/>
<text text-anchor="middle" x="996.5" y="-18.5" font-family="Helvetica,sans-Serif" font-size="10.00">GeneralRank1Update.h</text>
</a>
</g>
</g>
<!-- Node3&#45;&gt;Node13 -->
<g id="edge13" class="edge"><title>Node3&#45;&gt;Node13</title>
<path fill="none" stroke="midnightblue" d="M996.5,-78.2338C996.5,-68.6826 996.5,-53.1183 996.5,-40.7829"/>
<polygon fill="midnightblue" stroke="midnightblue" points="1000,-40.6273 996.5,-30.6273 993,-40.6273 1000,-40.6273"/>
</g>
<!-- Node14 -->
<g id="node15" class="node"><title>Node14</title>
<g id="a_node15"><a xlink:href="PackedSelfadjointProduct_8h.html" target="_top" xlink:title="PackedSelfadjointProduct.h">
<polygon fill="none" stroke="black" points="1078.5,-11.5 1078.5,-30.5 1224.5,-30.5 1224.5,-11.5 1078.5,-11.5"/>
<text text-anchor="middle" x="1151.5" y="-18.5" font-family="Helvetica,sans-Serif" font-size="10.00">PackedSelfadjointProduct.h</text>
</a>
</g>
</g>
<!-- Node3&#45;&gt;Node14 -->
<g id="edge14" class="edge"><title>Node3&#45;&gt;Node14</title>
<path fill="none" stroke="midnightblue" d="M1017.08,-78.3685C1043.83,-67.1504 1090.75,-47.4766 1121.47,-34.5925"/>
<polygon fill="midnightblue" stroke="midnightblue" points="1122.96,-37.7622 1130.83,-30.6672 1120.26,-31.3068 1122.96,-37.7622"/>
</g>
<!-- Node15 -->
<g id="node16" class="node"><title>Node15</title>
<g id="a_node16"><a xlink:href="PackedTriangularMatrixVector_8h.html" target="_top" xlink:title="PackedTriangularMatrixVector.h">
<polygon fill="none" stroke="black" points="1242.5,-11.5 1242.5,-30.5 1406.5,-30.5 1406.5,-11.5 1242.5,-11.5"/>
<text text-anchor="middle" x="1324.5" y="-18.5" font-family="Helvetica,sans-Serif" font-size="10.00">PackedTriangularMatrixVector.h</text>
</a>
</g>
</g>
<!-- Node3&#45;&gt;Node15 -->
<g id="edge15" class="edge"><title>Node3&#45;&gt;Node15</title>
<path fill="none" stroke="midnightblue" d="M1043.79,-78.4332C1091.69,-69.6607 1167.85,-55.4434 1233.5,-42 1247.65,-39.1014 1263.01,-35.7908 1277,-32.7085"/>
<polygon fill="midnightblue" stroke="midnightblue" points="1277.91,-36.0926 1286.92,-30.5136 1276.4,-29.2581 1277.91,-36.0926"/>
</g>
<!-- Node16 -->
<g id="node17" class="node"><title>Node16</title>
<g id="a_node17"><a xlink:href="PackedTriangularSolverVector_8h.html" target="_top" xlink:title="PackedTriangularSolverVector.h">
<polygon fill="none" stroke="black" points="1425,-11.5 1425,-30.5 1590,-30.5 1590,-11.5 1425,-11.5"/>
<text text-anchor="middle" x="1507.5" y="-18.5" font-family="Helvetica,sans-Serif" font-size="10.00">PackedTriangularSolverVector.h</text>
</a>
</g>
</g>
<!-- Node3&#45;&gt;Node16 -->
<g id="edge16" class="edge"><title>Node3&#45;&gt;Node16</title>
<path fill="none" stroke="midnightblue" d="M1046.72,-83.3548C1125.59,-77.2373 1283.16,-63.4289 1415.5,-42 1430.84,-39.5164 1447.47,-36.1195 1462.32,-32.83"/>
<polygon fill="midnightblue" stroke="midnightblue" points="1463.3,-36.1981 1472.28,-30.5824 1461.76,-29.3699 1463.3,-36.1981"/>
</g>
<!-- Node17 -->
<g id="node18" class="node"><title>Node17</title>
<g id="a_node18"><a xlink:href="Rank2Update_8h.html" target="_top" xlink:title="Rank2Update.h">
<polygon fill="none" stroke="black" points="1608.5,-11.5 1608.5,-30.5 1698.5,-30.5 1698.5,-11.5 1608.5,-11.5"/>
<text text-anchor="middle" x="1653.5" y="-18.5" font-family="Helvetica,sans-Serif" font-size="10.00">Rank2Update.h</text>
</a>
</g>
</g>
<!-- Node3&#45;&gt;Node17 -->
<g id="edge17" class="edge"><title>Node3&#45;&gt;Node17</title>
<path fill="none" stroke="midnightblue" d="M1046.7,-85.0633C1171.72,-79.9495 1494.49,-64.8865 1599.5,-42 1607.97,-40.1534 1616.9,-37.2623 1625.01,-34.2465"/>
<polygon fill="midnightblue" stroke="midnightblue" points="1626.36,-37.4741 1634.4,-30.5677 1623.81,-30.9563 1626.36,-37.4741"/>
</g>
<!-- Node18&#45;&gt;Node11 -->
<g id="edge19" class="edge"><title>Node18&#45;&gt;Node11</title>
<path fill="none" stroke="midnightblue" d="M1593.54,-78.4821C1649.31,-70.5894 1732.18,-57.7144 1803.5,-42 1814.66,-39.5422 1826.65,-36.4093 1837.6,-33.3563"/>
<polygon fill="midnightblue" stroke="midnightblue" points="1838.63,-36.7001 1847.29,-30.5967 1836.72,-29.9673 1838.63,-36.7001"/>
</g>
<!-- Node20&#45;&gt;Node3 -->
<g id="edge22" class="edge"><title>Node20&#45;&gt;Node3</title>
<path fill="none" stroke="midnightblue" d="M996.5,-190.368C996.5,-172.617 996.5,-131.666 996.5,-107.597"/>
<polygon fill="midnightblue" stroke="midnightblue" points="1000,-107.591 996.5,-97.5914 993,-107.591 1000,-107.591"/>
</g>
<!-- Node21 -->
<g id="node22" class="node"><title>Node21</title>
<polygon fill="none" stroke="#bfbfbf" points="910.5,-134.5 910.5,-153.5 968.5,-153.5 968.5,-134.5 910.5,-134.5"/>
<text text-anchor="middle" x="939.5" y="-141.5" font-family="Helvetica,sans-Serif" font-size="10.00">Eigen/LU</text>
</g>
<!-- Node20&#45;&gt;Node21 -->
<g id="edge23" class="edge"><title>Node20&#45;&gt;Node21</title>
<path fill="none" stroke="midnightblue" d="M987.342,-190.324C978.999,-182.42 966.468,-170.548 956.323,-160.938"/>
<polygon fill="midnightblue" stroke="midnightblue" points="958.491,-158.171 948.825,-153.834 953.677,-163.252 958.491,-158.171"/>
</g>
<!-- Node22&#45;&gt;Node2 -->
<g id="edge25" class="edge"><title>Node22&#45;&gt;Node2</title>
<path fill="none" stroke="midnightblue" d="M1184.5,-190.083C1184.5,-183.006 1184.5,-172.861 1184.5,-163.986"/>
<polygon fill="midnightblue" stroke="midnightblue" points="1188,-163.751 1184.5,-153.751 1181,-163.751 1188,-163.751"/>
</g>
<!-- Node23 -->
<g id="node24" class="node"><title>Node23</title>
<polygon fill="none" stroke="#bfbfbf" points="1255,-134.5 1255,-153.5 1322,-153.5 1322,-134.5 1255,-134.5"/>
<text text-anchor="middle" x="1288.5" y="-141.5" font-family="Helvetica,sans-Serif" font-size="10.00">Eigen/SVD</text>
</g>
<!-- Node22&#45;&gt;Node23 -->
<g id="edge26" class="edge"><title>Node22&#45;&gt;Node23</title>
<path fill="none" stroke="midnightblue" d="M1201.21,-190.324C1217.81,-181.703 1243.5,-168.364 1262.72,-158.386"/>
<polygon fill="midnightblue" stroke="midnightblue" points="1264.57,-161.369 1271.83,-153.655 1261.34,-155.156 1264.57,-161.369"/>
</g>
</g>
</svg>
        <g id="navigator" transform="translate(0 0)" fill="#404254">
                <rect fill="#f2f5e9" fill-opacity="0.5" stroke="#606060" stroke-width=".5" x="0" y="0" width="60" height="60"/>
                <use id="zoomplus" xlink:href="#zoomPlus" x="17" y="9" onmousedown="handleZoom(evt,'in')"/>
                <use id="zoomminus" xlink:href="#zoomMin" x="42" y="9" onmousedown="handleZoom(evt,'out')"/>
                <use id="reset" xlink:href="#resetDef" x="30" y="36" onmousedown="handleReset()"/>
                <g id="arrowUp" xlink:href="#dirArrow" transform="translate(30 24)" onmousedown="handlePan(0,-1)">
                  <use xlink:href="#rim" fill="#404040">
                        <set attributeName="fill" to="#808080" begin="arrowUp.mouseover" end="arrowUp.mouseout"/>
                  </use>
                  <path fill="none" stroke="white" stroke-width="1.5" d="M0,-3.0v7 M-2.5,-0.5L0,-3.0L2.5,-0.5"/>
                </g>
                <g id="arrowRight" xlink:href="#dirArrow" transform="rotate(90) translate(36 -43)" onmousedown="handlePan(1,0)">
                  <use xlink:href="#rim" fill="#404040">
                        <set attributeName="fill" to="#808080" begin="arrowRight.mouseover" end="arrowRight.mouseout"/>
                  </use>
                  <path fill="none" stroke="white" stroke-width="1.5" d="M0,-3.0v7 M-2.5,-0.5L0,-3.0L2.5,-0.5"/>
                </g>
                <g id="arrowDown" xlink:href="#dirArrow" transform="rotate(180) translate(-30 -48)" onmousedown="handlePan(0,1)">
                  <use xlink:href="#rim" fill="#404040">
                        <set attributeName="fill" to="#808080" begin="arrowDown.mouseover" end="arrowDown.mouseout"/>
                  </use>
                  <path fill="none" stroke="white" stroke-width="1.5" d="M0,-3.0v7 M-2.5,-0.5L0,-3.0L2.5,-0.5"/>
                </g>
                <g id="arrowLeft" xlink:href="#dirArrow" transform="rotate(270) translate(-36 17)" onmousedown="handlePan(-1,0)">
                  <use xlink:href="#rim" fill="#404040">
                        <set attributeName="fill" to="#808080" begin="arrowLeft.mouseover" end="arrowLeft.mouseout"/>
                  </use>
                  <path fill="none" stroke="white" stroke-width="1.5" d="M0,-3.0v7 M-2.5,-0.5L0,-3.0L2.5,-0.5"/>
                </g>
        </g>
        <svg viewBox="0 0 15 15" width="100%" height="30px" preserveAspectRatio="xMaxYMin meet">
         <g id="arrow_out" transform="scale(0.3 0.3)">
          <a xlink:href="lapack_2complex__double_8cpp__incl_org.svg" target="_base">
           <rect id="button" ry="5" rx="5" y="6" x="6" height="38" width="38"
                fill="#f2f5e9" fill-opacity="0.5" stroke="#606060" stroke-width="1.0"/>
           <path id="arrow"
             d="M 11.500037,31.436501 C 11.940474,20.09759 22.043105,11.32322 32.158766,21.979434 L 37.068811,17.246167 C 37.068811,17.246167 37.088388,32 37.088388,32 L 22.160133,31.978069 C 22.160133,31.978069 26.997745,27.140456 26.997745,27.140456 C 18.528582,18.264221 13.291696,25.230495 11.500037,31.436501 z"
             style="fill:#404040;"/>
          </a>
         </g>
        </svg>
</svg>
