<?xml version="1.0" encoding="UTF-8" standalone="no"?>
<!DOCTYPE svg PUBLIC "-//W3C//DTD SVG 1.1//EN"
 "http://www.w3.org/Graphics/SVG/1.1/DTD/svg11.dtd">
<!-- Generated by graphviz version 2.38.0 (20140413.2041)
 -->
<!-- Title: syr2k Pages: 1 -->
<svg width="376pt" height="180pt"
 viewBox="0.00 0.00 376.00 180.00" xmlns="http://www.w3.org/2000/svg" xmlns:xlink="http://www.w3.org/1999/xlink">
<g id="graph0" class="graph" transform="scale(1 1) rotate(0) translate(4 176)">
<title>syr2k</title>
<!-- Node23 -->
<g id="node1" class="node"><title>Node23</title>
<polygon fill="#bfbfbf" stroke="black" points="0,-76.5 0,-95.5 42,-95.5 42,-76.5 0,-76.5"/>
<text text-anchor="middle" x="21" y="-83.5" font-family="Helvetica,sans-Serif" font-size="10.00">syr2k</text>
</g>
<!-- Node24 -->
<g id="node2" class="node"><title>Node24</title>
<g id="a_node2"><a xlink:href="exceptions_8cpp.html#a75f785bf0f51cbc94279c80d143642ae" target="_top" xlink:title="conj">
<polygon fill="none" stroke="black" points="120.5,-152.5 120.5,-171.5 156.5,-171.5 156.5,-152.5 120.5,-152.5"/>
<text text-anchor="middle" x="138.5" y="-159.5" font-family="Helvetica,sans-Serif" font-size="10.00">conj</text>
</a>
</g>
</g>
<!-- Node23&#45;&gt;Node24 -->
<g id="edge1" class="edge"><title>Node23&#45;&gt;Node24</title>
<path fill="none" stroke="midnightblue" d="M29.2285,-95.9041C38.9598,-108.563 57.4426,-130.349 78,-143 87.8354,-149.053 99.785,-153.358 110.388,-156.322"/>
<polygon fill="midnightblue" stroke="midnightblue" points="109.86,-159.798 120.413,-158.853 111.574,-153.011 109.86,-159.798"/>
</g>
<!-- Node25 -->
<g id="node3" class="node"><title>Node25</title>
<g id="a_node3"><a xlink:href="common_8h.html#a94360d20ee722c1bcb23e5b2fbba8554" target="_top" xlink:title="matrix">
<polygon fill="none" stroke="black" points="115,-114.5 115,-133.5 162,-133.5 162,-114.5 115,-114.5"/>
<text text-anchor="middle" x="138.5" y="-121.5" font-family="Helvetica,sans-Serif" font-size="10.00">matrix</text>
</a>
</g>
</g>
<!-- Node23&#45;&gt;Node25 -->
<g id="edge2" class="edge"><title>Node23&#45;&gt;Node25</title>
<path fill="none" stroke="midnightblue" d="M42.1886,-92.9476C52.8272,-96.5839 66.1031,-101.083 78,-105 86.8304,-107.908 96.4196,-110.999 105.269,-113.824"/>
<polygon fill="midnightblue" stroke="midnightblue" points="104.275,-117.181 114.866,-116.878 106.398,-110.511 104.275,-117.181"/>
</g>
<!-- Node26 -->
<g id="node4" class="node"><title>Node26</title>
<g id="a_node4"><a xlink:href="namespaceEigen_1_1TensorSycl.html#a789ef14500d782279cc4bb95e6ba3dbd" target="_top" xlink:title="Eigen::TensorSycl::run">
<polygon fill="none" stroke="black" points="78,-76.5 78,-95.5 199,-95.5 199,-76.5 78,-76.5"/>
<text text-anchor="middle" x="138.5" y="-83.5" font-family="Helvetica,sans-Serif" font-size="10.00">Eigen::TensorSycl::run</text>
</a>
</g>
</g>
<!-- Node23&#45;&gt;Node26 -->
<g id="edge3" class="edge"><title>Node23&#45;&gt;Node26</title>
<path fill="none" stroke="midnightblue" d="M42.1186,-86C49.523,-86 58.3892,-86 67.6924,-86"/>
<polygon fill="midnightblue" stroke="midnightblue" points="67.9104,-89.5001 77.9103,-86 67.9103,-82.5001 67.9104,-89.5001"/>
</g>
<!-- Node30 -->
<g id="node8" class="node"><title>Node30</title>
<g id="a_node8"><a xlink:href="Matrix__setZero__int_8cpp.html#ad232582b2296c80e793e9f17c6f5a0ab" target="_top" xlink:title="setZero">
<polygon fill="none" stroke="black" points="111,-38.5 111,-57.5 166,-57.5 166,-38.5 111,-38.5"/>
<text text-anchor="middle" x="138.5" y="-45.5" font-family="Helvetica,sans-Serif" font-size="10.00">setZero</text>
</a>
</g>
</g>
<!-- Node23&#45;&gt;Node30 -->
<g id="edge7" class="edge"><title>Node23&#45;&gt;Node30</title>
<path fill="none" stroke="midnightblue" d="M42.1886,-79.0524C52.8272,-75.4161 66.1031,-70.9174 78,-67 85.448,-64.5475 93.4358,-61.9646 101.064,-59.5205"/>
<polygon fill="midnightblue" stroke="midnightblue" points="102.347,-62.785 110.81,-56.4102 100.219,-56.1164 102.347,-62.785"/>
</g>
<!-- Node31 -->
<g id="node9" class="node"><title>Node31</title>
<g id="a_node9"><a xlink:href="xerbla_8cpp.html#a62138258d20ba11e2039fc20f90b4e4a" target="_top" xlink:title="xerbla_">
<polygon fill="none" stroke="black" points="113,-0.5 113,-19.5 164,-19.5 164,-0.5 113,-0.5"/>
<text text-anchor="middle" x="138.5" y="-7.5" font-family="Helvetica,sans-Serif" font-size="10.00">xerbla_</text>
</a>
</g>
</g>
<!-- Node23&#45;&gt;Node31 -->
<g id="edge8" class="edge"><title>Node23&#45;&gt;Node31</title>
<path fill="none" stroke="midnightblue" d="M29.2285,-76.0959C38.9598,-63.4372 57.4426,-41.6512 78,-29 85.6334,-24.3024 94.5403,-20.6575 103.103,-17.8753"/>
<polygon fill="midnightblue" stroke="midnightblue" points="104.293,-21.1736 112.899,-14.9942 102.317,-14.4581 104.293,-21.1736"/>
</g>
<!-- Node27 -->
<g id="node5" class="node"><title>Node27</title>
<g id="a_node5"><a xlink:href="structEigen_1_1TensorEvaluator.html#ae188d806978166eb8cbffbd63c944fb3" target="_top" xlink:title="Eigen::TensorEvaluator\l::evalSubExprsIfNeeded">
<polygon fill="none" stroke="black" points="236.5,-120 236.5,-150 366.5,-150 366.5,-120 236.5,-120"/>
<text text-anchor="start" x="244.5" y="-138" font-family="Helvetica,sans-Serif" font-size="10.00">Eigen::TensorEvaluator</text>
<text text-anchor="middle" x="301.5" y="-127" font-family="Helvetica,sans-Serif" font-size="10.00">::evalSubExprsIfNeeded</text>
</a>
</g>
</g>
<!-- Node26&#45;&gt;Node27 -->
<g id="edge4" class="edge"><title>Node26&#45;&gt;Node27</title>
<path fill="none" stroke="midnightblue" d="M170.925,-95.564C190.952,-101.659 217.532,-109.749 241.404,-117.014"/>
<polygon fill="midnightblue" stroke="midnightblue" points="240.507,-120.4 251.093,-119.963 242.545,-113.703 240.507,-120.4"/>
</g>
<!-- Node28 -->
<g id="node6" class="node"><title>Node28</title>
<g id="a_node6"><a xlink:href="namespaceEigen_1_1TensorSycl_1_1internal.html#a525ee07cdeb68d18359b511b1ae9ffc7" target="_top" xlink:title="template deduction function for FunctorExtractor ">
<polygon fill="none" stroke="black" points="235,-71 235,-101 368,-101 368,-71 235,-71"/>
<text text-anchor="start" x="243" y="-89" font-family="Helvetica,sans-Serif" font-size="10.00">Eigen::TensorSycl::</text>
<text text-anchor="middle" x="301.5" y="-78" font-family="Helvetica,sans-Serif" font-size="10.00">internal::extractFunctors</text>
</a>
</g>
</g>
<!-- Node26&#45;&gt;Node28 -->
<g id="edge5" class="edge"><title>Node26&#45;&gt;Node28</title>
<path fill="none" stroke="midnightblue" d="M199.45,-86C207.65,-86 216.154,-86 224.59,-86"/>
<polygon fill="midnightblue" stroke="midnightblue" points="224.823,-89.5001 234.823,-86 224.823,-82.5001 224.823,-89.5001"/>
</g>
<!-- Node29 -->
<g id="node7" class="node"><title>Node29</title>
<g id="a_node7"><a xlink:href="structEigen_1_1TensorEvaluator.html#a76ec54bcca9523ec104aaa9adaf74983" target="_top" xlink:title="Eigen::TensorEvaluator\l::cleanup">
<polygon fill="none" stroke="black" points="239,-22 239,-52 364,-52 364,-22 239,-22"/>
<text text-anchor="start" x="247" y="-40" font-family="Helvetica,sans-Serif" font-size="10.00">Eigen::TensorEvaluator</text>
<text text-anchor="middle" x="301.5" y="-29" font-family="Helvetica,sans-Serif" font-size="10.00">::cleanup</text>
</a>
</g>
</g>
<!-- Node26&#45;&gt;Node29 -->
<g id="edge6" class="edge"><title>Node26&#45;&gt;Node29</title>
<path fill="none" stroke="midnightblue" d="M170.925,-76.436C190.952,-70.3408 217.532,-62.2512 241.404,-54.9857"/>
<polygon fill="midnightblue" stroke="midnightblue" points="242.545,-58.297 251.093,-52.037 240.507,-51.6003 242.545,-58.297"/>
</g>
</g>
</svg>
