<?xml version="1.0" encoding="UTF-8" standalone="no"?>
<!DOCTYPE svg PUBLIC "-//W3C//DTD SVG 1.1//EN"
 "http://www.w3.org/Graphics/SVG/1.1/DTD/svg11.dtd">
<!-- Generated by graphviz version 2.38.0 (20140413.2041)
 -->
<!-- Title: spr Pages: 1 -->
<svg width="306pt" height="104pt"
 viewBox="0.00 0.00 306.00 104.00" xmlns="http://www.w3.org/2000/svg" xmlns:xlink="http://www.w3.org/1999/xlink">
<g id="graph0" class="graph" transform="scale(1 1) rotate(0) translate(4 100)">
<title>spr</title>
<!-- Node10 -->
<g id="node1" class="node"><title>Node10</title>
<polygon fill="#bfbfbf" stroke="black" points="0,-38.5 0,-57.5 32,-57.5 32,-38.5 0,-38.5"/>
<text text-anchor="middle" x="16" y="-45.5" font-family="Helvetica,sans-Serif" font-size="10.00">spr</text>
</g>
<!-- Node11 -->
<g id="node2" class="node"><title>Node11</title>
<g id="a_node2"><a xlink:href="common_8h.html#a3ef9559c0ce50ef27fb5fc97a5a53f00" target="_top" xlink:title="get_compact_vector">
<polygon fill="none" stroke="black" points="68,-76.5 68,-95.5 183,-95.5 183,-76.5 68,-76.5"/>
<text text-anchor="middle" x="125.5" y="-83.5" font-family="Helvetica,sans-Serif" font-size="10.00">get_compact_vector</text>
</a>
</g>
</g>
<!-- Node10&#45;&gt;Node11 -->
<g id="edge1" class="edge"><title>Node10&#45;&gt;Node11</title>
<path fill="none" stroke="midnightblue" d="M32.1283,-53.7816C42.2511,-57.6144 55.8876,-62.7084 68,-67 73.6866,-69.0148 79.7133,-71.0973 85.6302,-73.1122"/>
<polygon fill="midnightblue" stroke="midnightblue" points="84.8106,-76.5296 95.4048,-76.4152 87.0516,-69.898 84.8106,-76.5296"/>
</g>
<!-- Node13 -->
<g id="node4" class="node"><title>Node13</title>
<g id="a_node4"><a xlink:href="level1__impl_8h.html#a4e8e1c1bb9d4e05fc671fc133ec9dc9b" target="_top" xlink:title="int">
<polygon fill="none" stroke="black" points="111,-38.5 111,-57.5 140,-57.5 140,-38.5 111,-38.5"/>
<text text-anchor="middle" x="125.5" y="-45.5" font-family="Helvetica,sans-Serif" font-size="10.00">int</text>
</a>
</g>
</g>
<!-- Node10&#45;&gt;Node13 -->
<g id="edge3" class="edge"><title>Node10&#45;&gt;Node13</title>
<path fill="none" stroke="midnightblue" d="M32.4021,-48C50.2167,-48 79.7581,-48 100.571,-48"/>
<polygon fill="midnightblue" stroke="midnightblue" points="100.829,-51.5001 110.829,-48 100.829,-44.5001 100.829,-51.5001"/>
</g>
<!-- Node14 -->
<g id="node5" class="node"><title>Node14</title>
<g id="a_node5"><a xlink:href="xerbla_8cpp.html#a62138258d20ba11e2039fc20f90b4e4a" target="_top" xlink:title="xerbla_">
<polygon fill="none" stroke="black" points="100,-0.5 100,-19.5 151,-19.5 151,-0.5 100,-0.5"/>
<text text-anchor="middle" x="125.5" y="-7.5" font-family="Helvetica,sans-Serif" font-size="10.00">xerbla_</text>
</a>
</g>
</g>
<!-- Node10&#45;&gt;Node14 -->
<g id="edge4" class="edge"><title>Node10&#45;&gt;Node14</title>
<path fill="none" stroke="midnightblue" d="M32.1283,-42.2184C42.2511,-38.3856 55.8876,-33.2916 68,-29 75.1757,-26.4575 82.8929,-23.8074 90.2477,-21.3214"/>
<polygon fill="midnightblue" stroke="midnightblue" points="91.6013,-24.559 99.9676,-18.0586 89.3736,-17.9229 91.6013,-24.559"/>
</g>
<!-- Node12 -->
<g id="node3" class="node"><title>Node12</title>
<g id="a_node3"><a xlink:href="common_8h.html#a7fecc876b02cead11e333e3d17465a3b" target="_top" xlink:title="make_vector">
<polygon fill="none" stroke="black" points="219,-76.5 219,-95.5 298,-95.5 298,-76.5 219,-76.5"/>
<text text-anchor="middle" x="258.5" y="-83.5" font-family="Helvetica,sans-Serif" font-size="10.00">make_vector</text>
</a>
</g>
</g>
<!-- Node11&#45;&gt;Node12 -->
<g id="edge2" class="edge"><title>Node11&#45;&gt;Node12</title>
<path fill="none" stroke="midnightblue" d="M183.197,-86C191.657,-86 200.316,-86 208.597,-86"/>
<polygon fill="midnightblue" stroke="midnightblue" points="208.839,-89.5001 218.839,-86 208.839,-82.5001 208.839,-89.5001"/>
</g>
</g>
</svg>
