<?xml version="1.0" encoding="UTF-8" standalone="no"?>
<!DOCTYPE svg PUBLIC "-//W3C//DTD SVG 1.1//EN"
 "http://www.w3.org/Graphics/SVG/1.1/DTD/svg11.dtd">
<!-- Generated by graphviz version 2.38.0 (20140413.2041)
 -->
<!-- Title: testLmder Pages: 1 -->
<svg width="421pt" height="198pt"
 viewBox="0.00 0.00 421.00 197.50" xmlns="http://www.w3.org/2000/svg" xmlns:xlink="http://www.w3.org/1999/xlink">
<g id="graph0" class="graph" transform="scale(1 1) rotate(0) translate(4 193.5)">
<title>testLmder</title>
<!-- Node33 -->
<g id="node1" class="node"><title>Node33</title>
<polygon fill="#bfbfbf" stroke="black" points="0,-79 0,-98 66,-98 66,-79 0,-79"/>
<text text-anchor="middle" x="33" y="-86" font-family="Helvetica,sans-Serif" font-size="10.00">testLmder</text>
</g>
<!-- Node34 -->
<g id="node2" class="node"><title>Node34</title>
<g id="a_node2"><a xlink:href="namespaceEigen_1_1internal.html#ab02b12e1b86ddb7b50855f9ecf000410" target="_top" xlink:title="Eigen::internal::covar">
<polygon fill="none" stroke="black" points="118,-148 118,-167 235,-167 235,-148 118,-148"/>
<text text-anchor="middle" x="176.5" y="-155" font-family="Helvetica,sans-Serif" font-size="10.00">Eigen::internal::covar</text>
</a>
</g>
</g>
<!-- Node33&#45;&gt;Node34 -->
<g id="edge1" class="edge"><title>Node33&#45;&gt;Node34</title>
<path fill="none" stroke="midnightblue" d="M44.2482,-98.018C56.8956,-109.269 79.4991,-127.811 102,-138.5 106.985,-140.868 112.306,-142.97 117.719,-144.829"/>
<polygon fill="midnightblue" stroke="midnightblue" points="116.921,-148.247 127.511,-147.919 119.028,-141.572 116.921,-148.247"/>
</g>
<!-- Node37 -->
<g id="node5" class="node"><title>Node37</title>
<g id="a_node5"><a xlink:href="classEigen_1_1PermutationMatrix.html#a2f1ab379207fcd1ceb33941e25cf50c2" target="_top" xlink:title="Eigen::PermutationMatrix\l::indices">
<polygon fill="none" stroke="black" points="108,-98.5 108,-128.5 245,-128.5 245,-98.5 108,-98.5"/>
<text text-anchor="start" x="116" y="-116.5" font-family="Helvetica,sans-Serif" font-size="10.00">Eigen::PermutationMatrix</text>
<text text-anchor="middle" x="176.5" y="-105.5" font-family="Helvetica,sans-Serif" font-size="10.00">::indices</text>
</a>
</g>
</g>
<!-- Node33&#45;&gt;Node37 -->
<g id="edge4" class="edge"><title>Node33&#45;&gt;Node37</title>
<path fill="none" stroke="midnightblue" d="M66.1085,-94.1729C75.7576,-95.8777 86.79,-97.8269 98.0508,-99.8164"/>
<polygon fill="midnightblue" stroke="midnightblue" points="97.5199,-103.277 107.976,-101.57 98.7378,-96.3835 97.5199,-103.277"/>
</g>
<!-- Node38 -->
<g id="node6" class="node"><title>Node38</title>
<g id="a_node6"><a xlink:href="classEigen_1_1LevenbergMarquardt.html#afd6cd64fdd7ca32cc71a83d91432ea69" target="_top" xlink:title="Eigen::LevenbergMarquardt\l::matrixR">
<polygon fill="none" stroke="black" points="102,-49.5 102,-79.5 251,-79.5 251,-49.5 102,-49.5"/>
<text text-anchor="start" x="110" y="-67.5" font-family="Helvetica,sans-Serif" font-size="10.00">Eigen::LevenbergMarquardt</text>
<text text-anchor="middle" x="176.5" y="-56.5" font-family="Helvetica,sans-Serif" font-size="10.00">::matrixR</text>
</a>
</g>
</g>
<!-- Node33&#45;&gt;Node38 -->
<g id="edge5" class="edge"><title>Node33&#45;&gt;Node38</title>
<path fill="none" stroke="midnightblue" d="M66.1085,-83.054C74.0128,-81.7134 82.8453,-80.2153 91.9712,-78.6674"/>
<polygon fill="midnightblue" stroke="midnightblue" points="92.685,-82.0964 101.959,-76.9734 91.5144,-75.195 92.685,-82.0964"/>
</g>
<!-- Node39 -->
<g id="node7" class="node"><title>Node39</title>
<g id="a_node7"><a xlink:href="classEigen_1_1LevenbergMarquardt.html#a5c1ef387601af15f7d2474165bb82865" target="_top" xlink:title="Eigen::LevenbergMarquardt\l::minimize">
<polygon fill="none" stroke="black" points="102,-0.5 102,-30.5 251,-30.5 251,-0.5 102,-0.5"/>
<text text-anchor="start" x="110" y="-18.5" font-family="Helvetica,sans-Serif" font-size="10.00">Eigen::LevenbergMarquardt</text>
<text text-anchor="middle" x="176.5" y="-7.5" font-family="Helvetica,sans-Serif" font-size="10.00">::minimize</text>
</a>
</g>
</g>
<!-- Node33&#45;&gt;Node39 -->
<g id="edge6" class="edge"><title>Node33&#45;&gt;Node39</title>
<path fill="none" stroke="midnightblue" d="M45.3793,-78.9117C58.3801,-68.3401 80.627,-51.3907 102,-40.5 106.278,-38.32 110.789,-36.2626 115.385,-34.3359"/>
<polygon fill="midnightblue" stroke="midnightblue" points="116.885,-37.5064 124.891,-30.5672 114.305,-30.9991 116.885,-37.5064"/>
</g>
<!-- Node35 -->
<g id="node3" class="node"><title>Node35</title>
<g id="a_node3"><a xlink:href="ArrayCwiseUnaryOps_8h.html#a35560f7dbf19244fda7e463d14157c43" target="_top" xlink:title="abs">
<polygon fill="none" stroke="black" points="333,-170 333,-189 367,-189 367,-170 333,-170"/>
<text text-anchor="middle" x="350" y="-177" font-family="Helvetica,sans-Serif" font-size="10.00">abs</text>
</a>
</g>
</g>
<!-- Node34&#45;&gt;Node35 -->
<g id="edge2" class="edge"><title>Node34&#45;&gt;Node35</title>
<path fill="none" stroke="midnightblue" d="M235.084,-164.887C264.822,-168.702 299.644,-173.169 322.887,-176.15"/>
<polygon fill="midnightblue" stroke="midnightblue" points="322.628,-179.646 332.992,-177.447 323.519,-172.702 322.628,-179.646"/>
</g>
<!-- Node36 -->
<g id="node4" class="node"><title>Node36</title>
<g id="a_node4"><a xlink:href="classEigen_1_1PlainObjectBase.html#a10b8b33b7587da564415561aa246f78f" target="_top" xlink:title="Eigen::PlainObjectBase\l::cols">
<polygon fill="none" stroke="black" points="287,-120.5 287,-150.5 413,-150.5 413,-120.5 287,-120.5"/>
<text text-anchor="start" x="295" y="-138.5" font-family="Helvetica,sans-Serif" font-size="10.00">Eigen::PlainObjectBase</text>
<text text-anchor="middle" x="350" y="-127.5" font-family="Helvetica,sans-Serif" font-size="10.00">::cols</text>
</a>
</g>
</g>
<!-- Node34&#45;&gt;Node36 -->
<g id="edge3" class="edge"><title>Node34&#45;&gt;Node36</title>
<path fill="none" stroke="midnightblue" d="M235.084,-150.113C248.474,-148.395 262.895,-146.546 276.825,-144.759"/>
<polygon fill="midnightblue" stroke="midnightblue" points="277.387,-148.215 286.86,-143.471 276.496,-141.272 277.387,-148.215"/>
</g>
</g>
</svg>
