<?xml version="1.0" encoding="UTF-8" standalone="no"?>
<!DOCTYPE svg PUBLIC "-//W3C//DTD SVG 1.1//EN"
 "http://www.w3.org/Graphics/SVG/1.1/DTD/svg11.dtd">
<!-- Generated by graphviz version 2.38.0 (20140413.2041)
 -->
<!-- Title: testNistBennett5 Pages: 1 -->
<svg width="362pt" height="137pt"
 viewBox="0.00 0.00 362.00 137.00" xmlns="http://www.w3.org/2000/svg" xmlns:xlink="http://www.w3.org/1999/xlink">
<g id="graph0" class="graph" transform="scale(1 1) rotate(0) translate(4 133)">
<title>testNistBennett5</title>
<!-- Node58 -->
<g id="node1" class="node"><title>Node58</title>
<polygon fill="#bfbfbf" stroke="black" points="0,-55 0,-74 98,-74 98,-55 0,-55"/>
<text text-anchor="middle" x="49" y="-62" font-family="Helvetica,sans-Serif" font-size="10.00">testNistBennett5</text>
</g>
<!-- Node59 -->
<g id="node2" class="node"><title>Node59</title>
<g id="a_node2"><a xlink:href="classEigen_1_1LevenbergMarquardt.html#a5c1ef387601af15f7d2474165bb82865" target="_top" xlink:title="Eigen::LevenbergMarquardt\l::minimize">
<polygon fill="none" stroke="black" points="134,-98.5 134,-128.5 283,-128.5 283,-98.5 134,-98.5"/>
<text text-anchor="start" x="142" y="-116.5" font-family="Helvetica,sans-Serif" font-size="10.00">Eigen::LevenbergMarquardt</text>
<text text-anchor="middle" x="208.5" y="-105.5" font-family="Helvetica,sans-Serif" font-size="10.00">::minimize</text>
</a>
</g>
</g>
<!-- Node58&#45;&gt;Node59 -->
<g id="edge1" class="edge"><title>Node58&#45;&gt;Node59</title>
<path fill="none" stroke="midnightblue" d="M80.7415,-74.064C100.246,-80.1321 126.105,-88.177 149.377,-95.4174"/>
<polygon fill="midnightblue" stroke="midnightblue" points="148.579,-98.8343 159.167,-98.463 150.658,-92.1503 148.579,-98.8343"/>
</g>
<!-- Node60 -->
<g id="node3" class="node"><title>Node60</title>
<g id="a_node3"><a xlink:href="classEigen_1_1LevenbergMarquardt.html#a16172a2048058ea0a908213a7b0f8971" target="_top" xlink:title="Eigen::LevenbergMarquardt\l::resetParameters">
<polygon fill="none" stroke="black" points="134,-49.5 134,-79.5 283,-79.5 283,-49.5 134,-49.5"/>
<text text-anchor="start" x="142" y="-67.5" font-family="Helvetica,sans-Serif" font-size="10.00">Eigen::LevenbergMarquardt</text>
<text text-anchor="middle" x="208.5" y="-56.5" font-family="Helvetica,sans-Serif" font-size="10.00">::resetParameters</text>
</a>
</g>
</g>
<!-- Node58&#45;&gt;Node60 -->
<g id="edge2" class="edge"><title>Node58&#45;&gt;Node60</title>
<path fill="none" stroke="midnightblue" d="M98.111,-64.5C106.239,-64.5 114.882,-64.5 123.61,-64.5"/>
<polygon fill="midnightblue" stroke="midnightblue" points="123.869,-68.0001 133.869,-64.5 123.869,-61.0001 123.869,-68.0001"/>
</g>
<!-- Node62 -->
<g id="node5" class="node"><title>Node62</title>
<g id="a_node5"><a xlink:href="classEigen_1_1LevenbergMarquardt.html#af072d0f89c44415d8ed284df8b4a634a" target="_top" xlink:title="Eigen::LevenbergMarquardt\l::setMaxfev">
<polygon fill="none" stroke="black" points="134,-0.5 134,-30.5 283,-30.5 283,-0.5 134,-0.5"/>
<text text-anchor="start" x="142" y="-18.5" font-family="Helvetica,sans-Serif" font-size="10.00">Eigen::LevenbergMarquardt</text>
<text text-anchor="middle" x="208.5" y="-7.5" font-family="Helvetica,sans-Serif" font-size="10.00">::setMaxfev</text>
</a>
</g>
</g>
<!-- Node58&#45;&gt;Node62 -->
<g id="edge4" class="edge"><title>Node58&#45;&gt;Node62</title>
<path fill="none" stroke="midnightblue" d="M80.7415,-54.936C100.246,-48.8679 126.105,-40.823 149.377,-33.5826"/>
<polygon fill="midnightblue" stroke="midnightblue" points="150.658,-36.8497 159.167,-30.537 148.579,-30.1657 150.658,-36.8497"/>
</g>
<!-- Node61 -->
<g id="node4" class="node"><title>Node61</title>
<g id="a_node4"><a xlink:href="ArrayCwiseUnaryOps_8h.html#a656b9217a2fcb6de59dc8d1eb3079cc7" target="_top" xlink:title="sqrt">
<polygon fill="none" stroke="black" points="319,-55 319,-74 354,-74 354,-55 319,-55"/>
<text text-anchor="middle" x="336.5" y="-62" font-family="Helvetica,sans-Serif" font-size="10.00">sqrt</text>
</a>
</g>
</g>
<!-- Node60&#45;&gt;Node61 -->
<g id="edge3" class="edge"><title>Node60&#45;&gt;Node61</title>
<path fill="none" stroke="midnightblue" d="M283.159,-64.5C292.237,-64.5 301.011,-64.5 308.697,-64.5"/>
<polygon fill="midnightblue" stroke="midnightblue" points="308.756,-68.0001 318.756,-64.5 308.756,-61.0001 308.756,-68.0001"/>
</g>
</g>
</svg>
