<?xml version="1.0" encoding="UTF-8" standalone="no"?>
<!DOCTYPE svg PUBLIC "-//W3C//DTD SVG 1.1//EN"
 "http://www.w3.org/Graphics/SVG/1.1/DTD/svg11.dtd">
<!-- Generated by graphviz version 2.38.0 (20140413.2041)
 -->
<!-- Title: test_lscg Pages: 1 -->
<svg width="352pt" height="88pt"
 viewBox="0.00 0.00 352.00 88.00" xmlns="http://www.w3.org/2000/svg" xmlns:xlink="http://www.w3.org/1999/xlink">
<g id="graph0" class="graph" transform="scale(1 1) rotate(0) translate(4 84)">
<title>test_lscg</title>
<!-- Node0 -->
<g id="node1" class="node"><title>Node0</title>
<polygon fill="#bfbfbf" stroke="black" points="0,-30 0,-49 59,-49 59,-30 0,-30"/>
<text text-anchor="middle" x="29.5" y="-37" font-family="Helvetica,sans-Serif" font-size="10.00">test_lscg</text>
</g>
<!-- Node1 -->
<g id="node2" class="node"><title>Node1</title>
<g id="a_node2"><a xlink:href="lscg_8cpp.html#ae86b5d0fecebb22c09f4d9090181fcbb" target="_top" xlink:title="test_lscg_T">
<polygon fill="none" stroke="black" points="95,-30 95,-49 165,-49 165,-30 95,-30"/>
<text text-anchor="middle" x="130" y="-37" font-family="Helvetica,sans-Serif" font-size="10.00">test_lscg_T</text>
</a>
</g>
</g>
<!-- Node0&#45;&gt;Node1 -->
<g id="edge1" class="edge"><title>Node0&#45;&gt;Node1</title>
<path fill="none" stroke="midnightblue" d="M59.2551,-39.5C67.2546,-39.5 76.1321,-39.5 84.7988,-39.5"/>
<polygon fill="midnightblue" stroke="midnightblue" points="84.8108,-43.0001 94.8108,-39.5 84.8108,-36.0001 84.8108,-43.0001"/>
</g>
<!-- Node2 -->
<g id="node3" class="node"><title>Node2</title>
<g id="a_node3"><a xlink:href="sparse__solver_8h.html#a12301f6419eb573c0fca674bc589b4f6" target="_top" xlink:title="check_sparse_square\l_solving">
<polygon fill="none" stroke="black" points="212.5,-49.5 212.5,-79.5 332.5,-79.5 332.5,-49.5 212.5,-49.5"/>
<text text-anchor="start" x="220.5" y="-67.5" font-family="Helvetica,sans-Serif" font-size="10.00">check_sparse_square</text>
<text text-anchor="middle" x="272.5" y="-56.5" font-family="Helvetica,sans-Serif" font-size="10.00">_solving</text>
</a>
</g>
</g>
<!-- Node1&#45;&gt;Node2 -->
<g id="edge2" class="edge"><title>Node1&#45;&gt;Node2</title>
<path fill="none" stroke="midnightblue" d="M165.011,-45.5518C176.337,-47.567 189.393,-49.8901 202.396,-52.2039"/>
<polygon fill="midnightblue" stroke="midnightblue" points="201.842,-55.6602 212.3,-53.9662 203.068,-48.7684 201.842,-55.6602"/>
</g>
<!-- Node3 -->
<g id="node4" class="node"><title>Node3</title>
<g id="a_node4"><a xlink:href="sparse__solver_8h.html#aa559b721502e88a13007ed08ab0a8685" target="_top" xlink:title="check_sparse_leastsquare\l_solving">
<polygon fill="none" stroke="black" points="201,-0.5 201,-30.5 344,-30.5 344,-0.5 201,-0.5"/>
<text text-anchor="start" x="209" y="-18.5" font-family="Helvetica,sans-Serif" font-size="10.00">check_sparse_leastsquare</text>
<text text-anchor="middle" x="272.5" y="-7.5" font-family="Helvetica,sans-Serif" font-size="10.00">_solving</text>
</a>
</g>
</g>
<!-- Node1&#45;&gt;Node3 -->
<g id="edge3" class="edge"><title>Node1&#45;&gt;Node3</title>
<path fill="none" stroke="midnightblue" d="M165.011,-33.6903C173.003,-32.3251 181.857,-30.8127 190.946,-29.2602"/>
<polygon fill="midnightblue" stroke="midnightblue" points="191.603,-32.6987 200.871,-27.5648 190.424,-25.7987 191.603,-32.6987"/>
</g>
</g>
</svg>
