<?xml version="1.0" encoding="UTF-8" standalone="no"?>
<!DOCTYPE svg PUBLIC "-//W3C//DTD SVG 1.1//EN"
 "http://www.w3.org/Graphics/SVG/1.1/DTD/svg11.dtd">
<!-- Generated by graphviz version 2.38.0 (20140413.2041)
 -->
<!-- Title: /travis/libpairinteraction/main.cpp Pages: 1 -->
<svg width="531pt" height="151pt"
 viewBox="0.00 0.00 530.50 151.00" xmlns="http://www.w3.org/2000/svg" xmlns:xlink="http://www.w3.org/1999/xlink">
<g id="graph0" class="graph" transform="scale(1 1) rotate(0) translate(4 147)">
<title>/travis/libpairinteraction/main.cpp</title>
<!-- Node0 -->
<g id="node1" class="node"><title>Node0</title>
<polygon fill="#bfbfbf" stroke="black" points="128,-112.5 128,-142.5 256,-142.5 256,-112.5 128,-112.5"/>
<text text-anchor="start" x="136" y="-130.5" font-family="Helvetica,sans-Serif" font-size="10.00">/travis/libpairinteraction</text>
<text text-anchor="middle" x="192" y="-119.5" font-family="Helvetica,sans-Serif" font-size="10.00">/main.cpp</text>
</g>
<!-- Node1 -->
<g id="node2" class="node"><title>Node1</title>
<g id="a_node2"><a xlink:href="Interface_8h.html" target="_top" xlink:title="Interface.h">
<polygon fill="none" stroke="black" points="0,-56.5 0,-75.5 68,-75.5 68,-56.5 0,-56.5"/>
<text text-anchor="middle" x="34" y="-63.5" font-family="Helvetica,sans-Serif" font-size="10.00">Interface.h</text>
</a>
</g>
</g>
<!-- Node0&#45;&gt;Node1 -->
<g id="edge1" class="edge"><title>Node0&#45;&gt;Node1</title>
<path fill="none" stroke="midnightblue" d="M154.556,-112.399C127.81,-102.327 92.1793,-88.9093 66.6009,-79.2769"/>
<polygon fill="midnightblue" stroke="midnightblue" points="67.5823,-75.9066 56.9904,-75.6578 65.1153,-82.4575 67.5823,-75.9066"/>
</g>
<!-- Node3 -->
<g id="node4" class="node"><title>Node3</title>
<polygon fill="none" stroke="#bfbfbf" points="86.5,-56.5 86.5,-75.5 145.5,-75.5 145.5,-56.5 86.5,-56.5"/>
<text text-anchor="middle" x="116" y="-63.5" font-family="Helvetica,sans-Serif" font-size="10.00">iostream</text>
</g>
<!-- Node0&#45;&gt;Node3 -->
<g id="edge3" class="edge"><title>Node0&#45;&gt;Node3</title>
<path fill="none" stroke="midnightblue" d="M173.989,-112.399C162.262,-103.218 146.985,-91.2579 135.055,-81.9182"/>
<polygon fill="midnightblue" stroke="midnightblue" points="137.09,-79.0664 127.059,-75.6578 132.775,-84.5782 137.09,-79.0664"/>
</g>
<!-- Node4 -->
<g id="node5" class="node"><title>Node4</title>
<polygon fill="none" stroke="#bfbfbf" points="163.5,-56.5 163.5,-75.5 220.5,-75.5 220.5,-56.5 163.5,-56.5"/>
<text text-anchor="middle" x="192" y="-63.5" font-family="Helvetica,sans-Serif" font-size="10.00">memory</text>
</g>
<!-- Node0&#45;&gt;Node4 -->
<g id="edge4" class="edge"><title>Node0&#45;&gt;Node4</title>
<path fill="none" stroke="midnightblue" d="M192,-112.399C192,-104.466 192,-94.458 192,-85.8583"/>
<polygon fill="midnightblue" stroke="midnightblue" points="195.5,-85.6577 192,-75.6578 188.5,-85.6578 195.5,-85.6577"/>
</g>
<!-- Node5 -->
<g id="node6" class="node"><title>Node5</title>
<polygon fill="none" stroke="#bfbfbf" points="239,-56.5 239,-75.5 355,-75.5 355,-56.5 239,-56.5"/>
<text text-anchor="middle" x="297" y="-63.5" font-family="Helvetica,sans-Serif" font-size="10.00">boost/filesystem.hpp</text>
</g>
<!-- Node0&#45;&gt;Node5 -->
<g id="edge5" class="edge"><title>Node0&#45;&gt;Node5</title>
<path fill="none" stroke="midnightblue" d="M216.884,-112.399C233.714,-102.862 255.839,-90.3248 272.573,-80.8422"/>
<polygon fill="midnightblue" stroke="midnightblue" points="274.747,-83.633 281.722,-75.6578 271.296,-77.5429 274.747,-83.633"/>
</g>
<!-- Node6 -->
<g id="node7" class="node"><title>Node6</title>
<polygon fill="none" stroke="#bfbfbf" points="373.5,-56.5 373.5,-75.5 522.5,-75.5 522.5,-56.5 373.5,-56.5"/>
<text text-anchor="middle" x="448" y="-63.5" font-family="Helvetica,sans-Serif" font-size="10.00">boost/program_options.hpp</text>
</g>
<!-- Node0&#45;&gt;Node6 -->
<g id="edge6" class="edge"><title>Node0&#45;&gt;Node6</title>
<path fill="none" stroke="midnightblue" d="M252.344,-112.475C297.956,-101.874 359.652,-87.534 401.48,-77.8123"/>
<polygon fill="midnightblue" stroke="midnightblue" points="402.453,-81.1795 411.401,-75.5064 400.868,-74.3612 402.453,-81.1795"/>
</g>
<!-- Node2 -->
<g id="node3" class="node"><title>Node2</title>
<polygon fill="none" stroke="#bfbfbf" points="12,-0.5 12,-19.5 56,-19.5 56,-0.5 12,-0.5"/>
<text text-anchor="middle" x="34" y="-7.5" font-family="Helvetica,sans-Serif" font-size="10.00">string</text>
</g>
<!-- Node1&#45;&gt;Node2 -->
<g id="edge2" class="edge"><title>Node1&#45;&gt;Node2</title>
<path fill="none" stroke="midnightblue" d="M34,-56.083C34,-49.0059 34,-38.8611 34,-29.9865"/>
<polygon fill="midnightblue" stroke="midnightblue" points="37.5001,-29.751 34,-19.7511 30.5001,-29.7511 37.5001,-29.751"/>
</g>
</g>
</svg>
