<?xml version="1.0" encoding="UTF-8" standalone="no"?>
<!DOCTYPE svg PUBLIC "-//W3C//DTD SVG 1.1//EN"
 "http://www.w3.org/Graphics/SVG/1.1/DTD/svg11.dtd">
<!-- Generated by graphviz version 2.38.0 (20140413.2041)
 -->
<!-- Title: cwiseAbs Pages: 1 -->
<svg width="268pt" height="236pt"
 viewBox="0.00 0.00 268.00 236.00" xmlns="http://www.w3.org/2000/svg" xmlns:xlink="http://www.w3.org/1999/xlink">
<g id="graph0" class="graph" transform="scale(1 1) rotate(0) translate(4 232)">
<title>cwiseAbs</title>
<!-- Node11 -->
<g id="node1" class="node"><title>Node11</title>
<polygon fill="#bfbfbf" stroke="black" points="0,-109.5 0,-128.5 60,-128.5 60,-109.5 0,-109.5"/>
<text text-anchor="middle" x="30" y="-116.5" font-family="Helvetica,sans-Serif" font-size="10.00">cwiseAbs</text>
</g>
<!-- Node12 -->
<g id="node2" class="node"><title>Node12</title>
<g id="a_node2"><a xlink:href="integration__test_8cpp.html#a9a3b66fc678554dc46a5194bcbabc828" target="_top" xlink:title="BOOST_AUTO_TEST_CASE">
<polygon fill="none" stroke="black" points="106.5,-208.5 106.5,-227.5 249.5,-227.5 249.5,-208.5 106.5,-208.5"/>
<text text-anchor="middle" x="178" y="-215.5" font-family="Helvetica,sans-Serif" font-size="10.00">BOOST_AUTO_TEST_CASE</text>
</a>
</g>
</g>
<!-- Node11&#45;&gt;Node12 -->
<g id="edge1" class="edge"><title>Node11&#45;&gt;Node12</title>
<path fill="none" stroke="midnightblue" d="M41.1104,-137.538C52.1541,-155.991 71.5724,-183.704 96,-199 102.244,-202.91 109.214,-206.015 116.374,-208.483"/>
<polygon fill="midnightblue" stroke="midnightblue" points="44.0007,-135.543 35.9871,-128.612 37.9297,-139.027 44.0007,-135.543"/>
</g>
<!-- Node13 -->
<g id="node3" class="node"><title>Node13</title>
<g id="a_node3"><a xlink:href="classSystemBase.html#a4ffed53296033614e4701f01363e6b3f" target="_top" xlink:title="SystemBase\&lt; StateTwo\l \&gt;::getConnections">
<polygon fill="none" stroke="black" points="112.5,-159 112.5,-189 243.5,-189 243.5,-159 112.5,-159"/>
<text text-anchor="start" x="120.5" y="-177" font-family="Helvetica,sans-Serif" font-size="10.00">SystemBase&lt; StateTwo</text>
<text text-anchor="middle" x="178" y="-166" font-family="Helvetica,sans-Serif" font-size="10.00"> &gt;::getConnections</text>
</a>
</g>
</g>
<!-- Node11&#45;&gt;Node13 -->
<g id="edge2" class="edge"><title>Node11&#45;&gt;Node13</title>
<path fill="none" stroke="midnightblue" d="M59.3859,-133.098C70.6423,-138.424 83.792,-144.323 96,-149 105.07,-152.475 114.848,-155.82 124.364,-158.871"/>
<polygon fill="midnightblue" stroke="midnightblue" points="60.5815,-129.789 50.0525,-128.609 57.5477,-136.097 60.5815,-129.789"/>
</g>
<!-- Node14 -->
<g id="node4" class="node"><title>Node14</title>
<g id="a_node4"><a xlink:href="classEigen_1_1MatrixBase.html#a32222d3b6677e6cdf0b801463f329b72" target="_top" xlink:title="Eigen::MatrixBase\&lt;\l Solve\&lt; Decomposition,\l RhsType \&gt; \&gt;::hypotNorm">
<polygon fill="none" stroke="black" points="108,-98.5 108,-139.5 248,-139.5 248,-98.5 108,-98.5"/>
<text text-anchor="start" x="116" y="-127.5" font-family="Helvetica,sans-Serif" font-size="10.00">Eigen::MatrixBase&lt;</text>
<text text-anchor="start" x="116" y="-116.5" font-family="Helvetica,sans-Serif" font-size="10.00"> Solve&lt; Decomposition,</text>
<text text-anchor="middle" x="178" y="-105.5" font-family="Helvetica,sans-Serif" font-size="10.00"> RhsType &gt; &gt;::hypotNorm</text>
</a>
</g>
</g>
<!-- Node11&#45;&gt;Node14 -->
<g id="edge3" class="edge"><title>Node11&#45;&gt;Node14</title>
<path fill="none" stroke="midnightblue" d="M70.4081,-119C82.0245,-119 95.0923,-119 107.993,-119"/>
<polygon fill="midnightblue" stroke="midnightblue" points="70.1944,-115.5 60.1944,-119 70.1943,-122.5 70.1944,-115.5"/>
</g>
<!-- Node15 -->
<g id="node5" class="node"><title>Node15</title>
<g id="a_node5"><a xlink:href="geo__orthomethods_8cpp.html#a494d5e4bc3d97b31d9c7d71a598505d9" target="_top" xlink:title="orthomethods_3">
<polygon fill="none" stroke="black" points="130,-60.5 130,-79.5 226,-79.5 226,-60.5 130,-60.5"/>
<text text-anchor="middle" x="178" y="-67.5" font-family="Helvetica,sans-Serif" font-size="10.00">orthomethods_3</text>
</a>
</g>
</g>
<!-- Node11&#45;&gt;Node15 -->
<g id="edge4" class="edge"><title>Node11&#45;&gt;Node15</title>
<path fill="none" stroke="midnightblue" d="M58.1403,-104.983C69.6066,-99.4555 83.2377,-93.3915 96,-89 106.79,-85.2872 118.634,-82.0565 129.854,-79.364"/>
<polygon fill="midnightblue" stroke="midnightblue" points="56.5034,-101.888 49.0843,-109.451 59.6008,-108.165 56.5034,-101.888"/>
</g>
<!-- Node16 -->
<g id="node6" class="node"><title>Node16</title>
<g id="a_node6"><a xlink:href="classEigen_1_1MatrixBase.html#a0b1443fa322615379557ade3399a3c3c" target="_top" xlink:title="Eigen::MatrixBase\&lt;\l Solve\&lt; Decomposition,\l RhsType \&gt; \&gt;::stableNormalize">
<polygon fill="none" stroke="black" points="96,-0.5 96,-41.5 260,-41.5 260,-0.5 96,-0.5"/>
<text text-anchor="start" x="104" y="-29.5" font-family="Helvetica,sans-Serif" font-size="10.00">Eigen::MatrixBase&lt;</text>
<text text-anchor="start" x="104" y="-18.5" font-family="Helvetica,sans-Serif" font-size="10.00"> Solve&lt; Decomposition,</text>
<text text-anchor="middle" x="178" y="-7.5" font-family="Helvetica,sans-Serif" font-size="10.00"> RhsType &gt; &gt;::stableNormalize</text>
</a>
</g>
</g>
<!-- Node11&#45;&gt;Node16 -->
<g id="edge5" class="edge"><title>Node11&#45;&gt;Node16</title>
<path fill="none" stroke="midnightblue" d="M44.1614,-101.242C56.1936,-86.088 75.2347,-64.6442 96,-51 101.264,-47.5414 106.981,-44.4101 112.86,-41.5919"/>
<polygon fill="midnightblue" stroke="midnightblue" points="41.2594,-99.2736 37.9269,-109.331 46.8037,-103.547 41.2594,-99.2736"/>
</g>
</g>
</svg>
