<?xml version="1.0" encoding="UTF-8" standalone="no"?>
<!DOCTYPE svg PUBLIC "-//W3C//DTD SVG 1.1//EN"
 "http://www.w3.org/Graphics/SVG/1.1/DTD/svg11.dtd">
<!-- Generated by graphviz version 2.38.0 (20140413.2041)
 -->
<!-- Title: head&lt; 2 &gt; Pages: 1 -->
<svg width="275pt" height="116pt"
 viewBox="0.00 0.00 275.00 115.50" xmlns="http://www.w3.org/2000/svg" xmlns:xlink="http://www.w3.org/1999/xlink">
<g id="graph0" class="graph" transform="scale(1 1) rotate(0) translate(4 111.5)">
<title>head&lt; 2 &gt;</title>
<!-- Node3 -->
<g id="node1" class="node"><title>Node3</title>
<polygon fill="#bfbfbf" stroke="black" points="0,-50 0,-69 69,-69 69,-50 0,-50"/>
<text text-anchor="middle" x="34.5" y="-57" font-family="Helvetica,sans-Serif" font-size="10.00">head&lt; 2 &gt;</text>
</g>
<!-- Node4 -->
<g id="node2" class="node"><title>Node4</title>
<g id="a_node2"><a xlink:href="block_8cpp.html#a25bc0cff03548429e0450cc776890d23" target="_top" xlink:title="block">
<polygon fill="none" stroke="black" points="165.5,-88 165.5,-107 206.5,-107 206.5,-88 165.5,-88"/>
<text text-anchor="middle" x="186" y="-95" font-family="Helvetica,sans-Serif" font-size="10.00">block</text>
</a>
</g>
</g>
<!-- Node3&#45;&gt;Node4 -->
<g id="edge1" class="edge"><title>Node3&#45;&gt;Node4</title>
<path fill="none" stroke="midnightblue" d="M78.9213,-71.6124C87.5481,-73.9506 96.5502,-76.3422 105,-78.5 125.47,-83.7274 149.01,-89.261 165.229,-92.9995"/>
<polygon fill="midnightblue" stroke="midnightblue" points="79.5909,-68.1672 69.0221,-68.9094 77.747,-74.92 79.5909,-68.1672"/>
</g>
<!-- Node5 -->
<g id="node3" class="node"><title>Node5</title>
<g id="a_node3"><a xlink:href="geo__orthomethods_8cpp.html#a021ac2641dc59d729d888cfb3d744352" target="_top" xlink:title="orthomethods">
<polygon fill="none" stroke="black" points="143.5,-50 143.5,-69 228.5,-69 228.5,-50 143.5,-50"/>
<text text-anchor="middle" x="186" y="-57" font-family="Helvetica,sans-Serif" font-size="10.00">orthomethods</text>
</a>
</g>
</g>
<!-- Node3&#45;&gt;Node5 -->
<g id="edge2" class="edge"><title>Node3&#45;&gt;Node5</title>
<path fill="none" stroke="midnightblue" d="M79.242,-59.5C99.448,-59.5 123.328,-59.5 143.279,-59.5"/>
<polygon fill="midnightblue" stroke="midnightblue" points="79.0508,-56.0001 69.0507,-59.5 79.0507,-63.0001 79.0508,-56.0001"/>
</g>
<!-- Node6 -->
<g id="node4" class="node"><title>Node6</title>
<g id="a_node4"><a xlink:href="structEigen_1_1internal_1_1unitOrthogonal__selector_3_01Derived_00_013_01_4.html#ae4934414f579b7264887a98c0db3e3f5" target="_top" xlink:title="Eigen::internal::unitOrthogonal\l_selector\&lt; Derived, 3 \&gt;::run">
<polygon fill="none" stroke="black" points="105,-0.5 105,-30.5 267,-30.5 267,-0.5 105,-0.5"/>
<text text-anchor="start" x="113" y="-18.5" font-family="Helvetica,sans-Serif" font-size="10.00">Eigen::internal::unitOrthogonal</text>
<text text-anchor="middle" x="186" y="-7.5" font-family="Helvetica,sans-Serif" font-size="10.00">_selector&lt; Derived, 3 &gt;::run</text>
</a>
</g>
</g>
<!-- Node3&#45;&gt;Node6 -->
<g id="edge3" class="edge"><title>Node3&#45;&gt;Node6</title>
<path fill="none" stroke="midnightblue" d="M77.8196,-47.0447C95.2364,-41.9187 115.567,-35.9351 133.812,-30.5654"/>
<polygon fill="midnightblue" stroke="midnightblue" points="76.5442,-43.7716 67.9393,-49.9527 78.5206,-50.4868 76.5442,-43.7716"/>
</g>
</g>
</svg>
