<?xml version="1.0" encoding="UTF-8" standalone="no"?>
<!DOCTYPE svg PUBLIC "-//W3C//DTD SVG 1.1//EN"
 "http://www.w3.org/Graphics/SVG/1.1/DTD/svg11.dtd">
<!-- Generated by graphviz version 2.38.0 (20140413.2041)
 -->
<!-- Title: cwiseAbs Pages: 1 -->
<svg width="546pt" height="181pt"
 viewBox="0.00 0.00 546.00 181.00" xmlns="http://www.w3.org/2000/svg" xmlns:xlink="http://www.w3.org/1999/xlink">
<g id="graph0" class="graph" transform="scale(1 1) rotate(0) translate(4 177)">
<title>cwiseAbs</title>
<!-- Node0 -->
<g id="node1" class="node"><title>Node0</title>
<polygon fill="#bfbfbf" stroke="black" points="0,-74.5 0,-93.5 60,-93.5 60,-74.5 0,-74.5"/>
<text text-anchor="middle" x="30" y="-81.5" font-family="Helvetica,sans-Serif" font-size="10.00">cwiseAbs</text>
</g>
<!-- Node1 -->
<g id="node2" class="node"><title>Node1</title>
<g id="a_node2"><a xlink:href="MatrixCwiseUnaryOps_8h.html#a426713f88e0c1c0d6626fbadced4e9d7" target="_top" xlink:title="cwiseAbs2">
<polygon fill="none" stroke="black" points="96,-74.5 96,-93.5 162,-93.5 162,-74.5 96,-74.5"/>
<text text-anchor="middle" x="129" y="-81.5" font-family="Helvetica,sans-Serif" font-size="10.00">cwiseAbs2</text>
</a>
</g>
</g>
<!-- Node0&#45;&gt;Node1 -->
<g id="edge1" class="edge"><title>Node0&#45;&gt;Node1</title>
<path fill="none" stroke="midnightblue" d="M60.1032,-84C68.2053,-84 77.1721,-84 85.8617,-84"/>
<polygon fill="midnightblue" stroke="midnightblue" points="85.8667,-87.5001 95.8667,-84 85.8667,-80.5001 85.8667,-87.5001"/>
</g>
<!-- Node2 -->
<g id="node3" class="node"><title>Node2</title>
<g id="a_node3"><a xlink:href="MatrixCwiseUnaryOps_8h.html#a0e379b45253546d07dcea81d8588297e" target="_top" xlink:title="cwiseSqrt">
<polygon fill="none" stroke="black" points="199.5,-112.5 199.5,-131.5 261.5,-131.5 261.5,-112.5 199.5,-112.5"/>
<text text-anchor="middle" x="230.5" y="-119.5" font-family="Helvetica,sans-Serif" font-size="10.00">cwiseSqrt</text>
</a>
</g>
</g>
<!-- Node1&#45;&gt;Node2 -->
<g id="edge2" class="edge"><title>Node1&#45;&gt;Node2</title>
<path fill="none" stroke="midnightblue" d="M155.108,-93.589C167.128,-98.1794 181.715,-103.75 194.777,-108.739"/>
<polygon fill="midnightblue" stroke="midnightblue" points="193.809,-112.116 204.4,-112.414 196.307,-105.577 193.809,-112.116"/>
</g>
<!-- Node7 -->
<g id="node8" class="node"><title>Node7</title>
<g id="a_node8"><a xlink:href="ArrayCwiseUnaryOps_8h.html#aa1e484838873e960b8c8ba7e066ba837" target="_top" xlink:title="square">
<polygon fill="none" stroke="black" points="205.5,-74.5 205.5,-93.5 255.5,-93.5 255.5,-74.5 205.5,-74.5"/>
<text text-anchor="middle" x="230.5" y="-81.5" font-family="Helvetica,sans-Serif" font-size="10.00">square</text>
</a>
</g>
</g>
<!-- Node1&#45;&gt;Node7 -->
<g id="edge7" class="edge"><title>Node1&#45;&gt;Node7</title>
<path fill="none" stroke="midnightblue" d="M162.03,-84C172.597,-84 184.39,-84 195.125,-84"/>
<polygon fill="midnightblue" stroke="midnightblue" points="195.422,-87.5001 205.422,-84 195.422,-80.5001 195.422,-87.5001"/>
</g>
<!-- Node8 -->
<g id="node9" class="node"><title>Node8</title>
<g id="a_node9"><a xlink:href="namespacempfr.html#ad838087b4c59a17f714c4da9984aea66" target="_top" xlink:title="mpfr::root">
<polygon fill="none" stroke="black" points="198,-36.5 198,-55.5 263,-55.5 263,-36.5 198,-36.5"/>
<text text-anchor="middle" x="230.5" y="-43.5" font-family="Helvetica,sans-Serif" font-size="10.00">mpfr::root</text>
</a>
</g>
</g>
<!-- Node1&#45;&gt;Node8 -->
<g id="edge8" class="edge"><title>Node1&#45;&gt;Node8</title>
<path fill="none" stroke="midnightblue" d="M155.108,-74.411C167.128,-69.8206 181.715,-64.2497 194.777,-59.2612"/>
<polygon fill="midnightblue" stroke="midnightblue" points="196.307,-62.4234 204.4,-55.5859 193.809,-55.8841 196.307,-62.4234"/>
</g>
<!-- Node3 -->
<g id="node4" class="node"><title>Node3</title>
<g id="a_node4"><a xlink:href="MatrixCwiseUnaryOps_8h.html#a92d50e5a414332785a7e6b6ff406198c" target="_top" xlink:title="cwiseSign">
<polygon fill="none" stroke="black" points="330.5,-134.5 330.5,-153.5 393.5,-153.5 393.5,-134.5 330.5,-134.5"/>
<text text-anchor="middle" x="362" y="-141.5" font-family="Helvetica,sans-Serif" font-size="10.00">cwiseSign</text>
</a>
</g>
</g>
<!-- Node2&#45;&gt;Node3 -->
<g id="edge3" class="edge"><title>Node2&#45;&gt;Node3</title>
<path fill="none" stroke="midnightblue" d="M261.535,-127.103C279.016,-130.072 301.289,-133.856 320.325,-137.09"/>
<polygon fill="midnightblue" stroke="midnightblue" points="319.783,-140.548 330.228,-138.772 320.956,-133.647 319.783,-140.548"/>
</g>
<!-- Node6 -->
<g id="node7" class="node"><title>Node6</title>
<g id="a_node7"><a xlink:href="ArrayCwiseUnaryOps_8h.html#a281eccb624a3ff6dacbe305828e43a82" target="_top" xlink:title="sign">
<polygon fill="none" stroke="black" points="344,-96.5 344,-115.5 380,-115.5 380,-96.5 344,-96.5"/>
<text text-anchor="middle" x="362" y="-103.5" font-family="Helvetica,sans-Serif" font-size="10.00">sign</text>
</a>
</g>
</g>
<!-- Node2&#45;&gt;Node6 -->
<g id="edge6" class="edge"><title>Node2&#45;&gt;Node6</title>
<path fill="none" stroke="midnightblue" d="M261.535,-118.289C283.396,-115.588 312.751,-111.961 333.897,-109.349"/>
<polygon fill="midnightblue" stroke="midnightblue" points="334.341,-112.82 343.837,-108.121 333.483,-105.873 334.341,-112.82"/>
</g>
<!-- Node4 -->
<g id="node5" class="node"><title>Node4</title>
<g id="a_node5"><a xlink:href="MatrixCwiseUnaryOps_8h.html#a71265e72c85a2d90d349543171b150cb" target="_top" xlink:title="cwiseInverse">
<polygon fill="none" stroke="black" points="461,-153.5 461,-172.5 538,-172.5 538,-153.5 461,-153.5"/>
<text text-anchor="middle" x="499.5" y="-160.5" font-family="Helvetica,sans-Serif" font-size="10.00">cwiseInverse</text>
</a>
</g>
</g>
<!-- Node3&#45;&gt;Node4 -->
<g id="edge4" class="edge"><title>Node3&#45;&gt;Node4</title>
<path fill="none" stroke="midnightblue" d="M393.747,-148.311C410.559,-150.669 431.755,-153.641 450.676,-156.294"/>
<polygon fill="midnightblue" stroke="midnightblue" points="450.229,-159.765 460.618,-157.688 451.201,-152.833 450.229,-159.765"/>
</g>
<!-- Node5 -->
<g id="node6" class="node"><title>Node5</title>
<g id="a_node6"><a xlink:href="ArrayCwiseUnaryOps_8h.html#ab3df1b08b9c073db2a7e61a9b06bb295" target="_top" xlink:title="inverse">
<polygon fill="none" stroke="black" points="474,-115.5 474,-134.5 525,-134.5 525,-115.5 474,-115.5"/>
<text text-anchor="middle" x="499.5" y="-122.5" font-family="Helvetica,sans-Serif" font-size="10.00">inverse</text>
</a>
</g>
</g>
<!-- Node3&#45;&gt;Node5 -->
<g id="edge5" class="edge"><title>Node3&#45;&gt;Node5</title>
<path fill="none" stroke="midnightblue" d="M393.747,-139.689C414.549,-136.772 442.064,-132.914 463.674,-129.883"/>
<polygon fill="midnightblue" stroke="midnightblue" points="464.336,-133.325 473.753,-128.47 463.364,-126.393 464.336,-133.325"/>
</g>
<!-- Node9 -->
<g id="node10" class="node"><title>Node9</title>
<g id="a_node10"><a xlink:href="classmpfr_1_1mpreal.html#a566f64ca066c54923d19c11d6c3d15cd" target="_top" xlink:title="mpfr::mpreal::mpfr\l_srcptr">
<polygon fill="none" stroke="black" points="308.5,-39 308.5,-69 415.5,-69 415.5,-39 308.5,-39"/>
<text text-anchor="start" x="316.5" y="-57" font-family="Helvetica,sans-Serif" font-size="10.00">mpfr::mpreal::mpfr</text>
<text text-anchor="middle" x="362" y="-46" font-family="Helvetica,sans-Serif" font-size="10.00">_srcptr</text>
</a>
</g>
</g>
<!-- Node8&#45;&gt;Node9 -->
<g id="edge9" class="edge"><title>Node8&#45;&gt;Node9</title>
<path fill="none" stroke="midnightblue" d="M263.179,-47.957C273.826,-48.6147 286.104,-49.3732 298.285,-50.1257"/>
<polygon fill="midnightblue" stroke="midnightblue" points="298.26,-53.6308 308.457,-50.7541 298.692,-46.6441 298.26,-53.6308"/>
</g>
<!-- Node10 -->
<g id="node11" class="node"><title>Node10</title>
<g id="a_node11"><a xlink:href="classmpfr_1_1mpreal.html#af4e3b56888463376c675cac70b6ceca3" target="_top" xlink:title="mpfr::mpreal::mpfr_ptr">
<polygon fill="none" stroke="black" points="299,-0.5 299,-19.5 425,-19.5 425,-0.5 299,-0.5"/>
<text text-anchor="middle" x="362" y="-7.5" font-family="Helvetica,sans-Serif" font-size="10.00">mpfr::mpreal::mpfr_ptr</text>
</a>
</g>
</g>
<!-- Node8&#45;&gt;Node10 -->
<g id="edge10" class="edge"><title>Node8&#45;&gt;Node10</title>
<path fill="none" stroke="midnightblue" d="M263.179,-37.1934C279.203,-32.7388 298.922,-27.2573 316.446,-22.3856"/>
<polygon fill="midnightblue" stroke="midnightblue" points="317.769,-25.6506 326.466,-19.6 315.894,-18.9063 317.769,-25.6506"/>
</g>
</g>
</svg>
