<?xml version="1.0" encoding="UTF-8" standalone="no"?>
<!DOCTYPE svg PUBLIC "-//W3C//DTD SVG 1.1//EN"
 "http://www.w3.org/Graphics/SVG/1.1/DTD/svg11.dtd">
<!-- Generated by graphviz version 2.38.0 (20140413.2041)
 -->
<!-- Title: /travis/libpairinteraction/eigen/bench/btl/generic_bench/timers/mixed_perf_analyzer.hh Pages: 1 -->
<!--zoomable 285 -->
<svg id="main" version="1.1" xmlns="http://www.w3.org/2000/svg" xmlns:xlink="http://www.w3.org/1999/xlink" xml:space="preserve" onload="init(evt)">
<style type="text/css"><![CDATA[
.edge:hover path { stroke: red; }
.edge:hover polygon { stroke: red; fill: red; }
]]></style>
<script type="text/javascript"><![CDATA[
var edges = document.getElementsByTagName('g');
if (edges && edges.length) {
  for (var i=0;i<edges.length;i++) {
    if (edges[i].id.substr(0,4)=='edge') {
      edges[i].setAttribute('class','edge');
    }
  }
}
]]></script>
        <defs>
                <circle id="rim" cx="0" cy="0" r="7"/>
                <circle id="rim2" cx="0" cy="0" r="3.5"/>
                <g id="zoomPlus">
                        <use xlink:href="#rim" fill="#404040">
                                <set attributeName="fill" to="#808080" begin="zoomplus.mouseover" end="zoomplus.mouseout"/>
                        </use>
                        <path d="M-4,0h8M0,-4v8" fill="none" stroke="white" stroke-width="1.5" pointer-events="none"/>
                </g>
                <g id="zoomMin">
                        <use xlink:href="#rim" fill="#404040">
                                <set attributeName="fill" to="#808080" begin="zoomminus.mouseover" end="zoomminus.mouseout"/>
                        </use>
                        <path d="M-4,0h8" fill="none" stroke="white" stroke-width="1.5" pointer-events="none"/>
                </g>
                <g id="dirArrow">
                        <path fill="none" stroke="white" stroke-width="1.5" d="M0,-3.0v7 M-2.5,-0.5L0,-3.0L2.5,-0.5"/>
                </g>
               <g id="resetDef">
                       <use xlink:href="#rim2" fill="#404040">
                               <set attributeName="fill" to="#808080" begin="reset.mouseover" end="reset.mouseout"/>
                       </use>
               </g>
        </defs>

<script type="text/javascript">
var viewWidth = 926;
var viewHeight = 285;
var sectionId = 'dynsection-0';
</script>
<script xlink:href="svgpan.js"/>
<svg id="graph" class="graph">
<g id="viewport">
<title>/travis/libpairinteraction/eigen/bench/btl/generic_bench/timers/mixed_perf_analyzer.hh</title>
<!-- Node0 -->
<g id="node1" class="node"><title>Node0</title>
<polygon fill="#bfbfbf" stroke="black" points="402.5,-224.5 402.5,-276.5 543.5,-276.5 543.5,-224.5 402.5,-224.5"/>
<text text-anchor="start" x="410.5" y="-264.5" font-family="Helvetica,sans-Serif" font-size="10.00">/travis/libpairinteraction</text>
<text text-anchor="start" x="410.5" y="-253.5" font-family="Helvetica,sans-Serif" font-size="10.00">/eigen/bench/btl/generic</text>
<text text-anchor="start" x="410.5" y="-242.5" font-family="Helvetica,sans-Serif" font-size="10.00">_bench/timers/mixed_perf</text>
<text text-anchor="middle" x="473" y="-231.5" font-family="Helvetica,sans-Serif" font-size="10.00">_analyzer.hh</text>
</g>
<!-- Node1 -->
<g id="node2" class="node"><title>Node1</title>
<g id="a_node2"><a xlink:href="x86__perf__analyzer_8hh.html" target="_top" xlink:title="x86_perf_analyzer.hh">
<polygon fill="none" stroke="black" points="283,-168.5 283,-187.5 401,-187.5 401,-168.5 283,-168.5"/>
<text text-anchor="middle" x="342" y="-175.5" font-family="Helvetica,sans-Serif" font-size="10.00">x86_perf_analyzer.hh</text>
</a>
</g>
</g>
<!-- Node0&#45;&gt;Node1 -->
<g id="edge1" class="edge"><title>Node0&#45;&gt;Node1</title>
<path fill="none" stroke="midnightblue" d="M426.445,-224.446C406.404,-213.66 383.774,-201.481 366.988,-192.448"/>
<polygon fill="midnightblue" stroke="midnightblue" points="368.309,-189.184 357.844,-187.527 364.992,-195.348 368.309,-189.184"/>
</g>
<!-- Node15 -->
<g id="node16" class="node"><title>Node15</title>
<g id="a_node16"><a xlink:href="portable__perf__analyzer_8hh.html" target="_top" xlink:title="portable_perf_analyzer.hh">
<polygon fill="none" stroke="black" points="534,-168.5 534,-187.5 674,-187.5 674,-168.5 534,-168.5"/>
<text text-anchor="middle" x="604" y="-175.5" font-family="Helvetica,sans-Serif" font-size="10.00">portable_perf_analyzer.hh</text>
</a>
</g>
</g>
<!-- Node0&#45;&gt;Node15 -->
<g id="edge16" class="edge"><title>Node0&#45;&gt;Node15</title>
<path fill="none" stroke="midnightblue" d="M519.555,-224.446C539.596,-213.66 562.226,-201.481 579.012,-192.448"/>
<polygon fill="midnightblue" stroke="midnightblue" points="581.008,-195.348 588.156,-187.527 577.691,-189.184 581.008,-195.348"/>
</g>
<!-- Node2 -->
<g id="node3" class="node"><title>Node2</title>
<g id="a_node3"><a xlink:href="x86__timer_8hh.html" target="_top" xlink:title="x86_timer.hh">
<polygon fill="none" stroke="black" points="302.5,-112.5 302.5,-131.5 381.5,-131.5 381.5,-112.5 302.5,-112.5"/>
<text text-anchor="middle" x="342" y="-119.5" font-family="Helvetica,sans-Serif" font-size="10.00">x86_timer.hh</text>
</a>
</g>
</g>
<!-- Node1&#45;&gt;Node2 -->
<g id="edge2" class="edge"><title>Node1&#45;&gt;Node2</title>
<path fill="none" stroke="midnightblue" d="M342,-168.083C342,-161.006 342,-150.861 342,-141.986"/>
<polygon fill="midnightblue" stroke="midnightblue" points="345.5,-141.751 342,-131.751 338.5,-141.751 345.5,-141.751"/>
</g>
<!-- Node14 -->
<g id="node15" class="node"><title>Node14</title>
<g id="a_node15"><a xlink:href="bench__parameter_8hh.html" target="_top" xlink:title="bench_parameter.hh">
<polygon fill="none" stroke="black" points="168,-112.5 168,-131.5 284,-131.5 284,-112.5 168,-112.5"/>
<text text-anchor="middle" x="226" y="-119.5" font-family="Helvetica,sans-Serif" font-size="10.00">bench_parameter.hh</text>
</a>
</g>
</g>
<!-- Node1&#45;&gt;Node14 -->
<g id="edge15" class="edge"><title>Node1&#45;&gt;Node14</title>
<path fill="none" stroke="midnightblue" d="M323.619,-168.444C304.784,-159.675 275.269,-145.935 253.621,-135.858"/>
<polygon fill="midnightblue" stroke="midnightblue" points="254.838,-132.564 244.295,-131.516 251.883,-138.91 254.838,-132.564"/>
</g>
<!-- Node3 -->
<g id="node4" class="node"><title>Node3</title>
<polygon fill="none" stroke="#bfbfbf" points="477,-56.5 477,-75.5 543,-75.5 543,-56.5 477,-56.5"/>
<text text-anchor="middle" x="510" y="-63.5" font-family="Helvetica,sans-Serif" font-size="10.00">sys/time.h</text>
</g>
<!-- Node2&#45;&gt;Node3 -->
<g id="edge3" class="edge"><title>Node2&#45;&gt;Node3</title>
<path fill="none" stroke="midnightblue" d="M368.62,-112.444C397.006,-103.32 442.137,-88.8133 473.753,-78.6509"/>
<polygon fill="midnightblue" stroke="midnightblue" points="475.055,-81.9087 483.504,-75.5164 472.913,-75.2445 475.055,-81.9087"/>
</g>
<!-- Node4 -->
<g id="node5" class="node"><title>Node4</title>
<polygon fill="none" stroke="#bfbfbf" points="561,-56.5 561,-75.5 647,-75.5 647,-56.5 561,-56.5"/>
<text text-anchor="middle" x="604" y="-63.5" font-family="Helvetica,sans-Serif" font-size="10.00">sys/resource.h</text>
</g>
<!-- Node2&#45;&gt;Node4 -->
<g id="edge4" class="edge"><title>Node2&#45;&gt;Node4</title>
<path fill="none" stroke="midnightblue" d="M381.508,-112.857C427.113,-103.458 502.266,-87.968 552.44,-77.6269"/>
<polygon fill="midnightblue" stroke="midnightblue" points="553.349,-81.0133 562.436,-75.5666 551.935,-74.1574 553.349,-81.0133"/>
</g>
<!-- Node5 -->
<g id="node6" class="node"><title>Node5</title>
<polygon fill="none" stroke="#bfbfbf" points="314.5,-56.5 314.5,-75.5 369.5,-75.5 369.5,-56.5 314.5,-56.5"/>
<text text-anchor="middle" x="342" y="-63.5" font-family="Helvetica,sans-Serif" font-size="10.00">unistd.h</text>
</g>
<!-- Node2&#45;&gt;Node5 -->
<g id="edge5" class="edge"><title>Node2&#45;&gt;Node5</title>
<path fill="none" stroke="midnightblue" d="M342,-112.083C342,-105.006 342,-94.8611 342,-85.9865"/>
<polygon fill="midnightblue" stroke="midnightblue" points="345.5,-85.751 342,-75.7511 338.5,-85.7511 345.5,-85.751"/>
</g>
<!-- Node6 -->
<g id="node7" class="node"><title>Node6</title>
<polygon fill="none" stroke="#bfbfbf" points="387.5,-56.5 387.5,-75.5 458.5,-75.5 458.5,-56.5 387.5,-56.5"/>
<text text-anchor="middle" x="423" y="-63.5" font-family="Helvetica,sans-Serif" font-size="10.00">sys/times.h</text>
</g>
<!-- Node2&#45;&gt;Node6 -->
<g id="edge6" class="edge"><title>Node2&#45;&gt;Node6</title>
<path fill="none" stroke="midnightblue" d="M355.014,-112.324C367.532,-103.979 386.682,-91.2122 401.471,-81.3524"/>
<polygon fill="midnightblue" stroke="midnightblue" points="403.639,-84.1137 410.018,-75.6545 399.756,-78.2894 403.639,-84.1137"/>
</g>
<!-- Node7 -->
<g id="node8" class="node"><title>Node7</title>
<polygon fill="none" stroke="#bfbfbf" points="0,-56.5 0,-75.5 68,-75.5 68,-56.5 0,-56.5"/>
<text text-anchor="middle" x="34" y="-63.5" font-family="Helvetica,sans-Serif" font-size="10.00">asm/msr.h</text>
</g>
<!-- Node2&#45;&gt;Node7 -->
<g id="edge7" class="edge"><title>Node2&#45;&gt;Node7</title>
<path fill="none" stroke="midnightblue" d="M302.43,-113.674C299.24,-113.101 296.067,-112.537 293,-112 200.225,-95.7497 174.303,-94.0687 78.0924,-76.1453"/>
<polygon fill="midnightblue" stroke="midnightblue" points="78.7158,-72.7013 68.2422,-74.2996 77.4266,-79.5815 78.7158,-72.7013"/>
</g>
<!-- Node8 -->
<g id="node9" class="node"><title>Node8</title>
<g id="a_node9"><a xlink:href="utilities_8h.html" target="_top" xlink:title="utilities.h">
<polygon fill="none" stroke="black" points="793.5,-56.5 793.5,-75.5 852.5,-75.5 852.5,-56.5 793.5,-56.5"/>
<text text-anchor="middle" x="823" y="-63.5" font-family="Helvetica,sans-Serif" font-size="10.00">utilities.h</text>
</a>
</g>
</g>
<!-- Node2&#45;&gt;Node8 -->
<g id="edge8" class="edge"><title>Node2&#45;&gt;Node8</title>
<path fill="none" stroke="midnightblue" d="M381.541,-118.643C457.453,-113.759 628.985,-100.983 783.139,-75.9337"/>
<polygon fill="midnightblue" stroke="midnightblue" points="783.968,-79.3444 793.266,-74.266 782.83,-72.4375 783.968,-79.3444"/>
</g>
<!-- Node10 -->
<g id="node11" class="node"><title>Node10</title>
<polygon fill="none" stroke="#bfbfbf" points="488.5,-0.5 488.5,-19.5 547.5,-19.5 547.5,-0.5 488.5,-0.5"/>
<text text-anchor="middle" x="518" y="-7.5" font-family="Helvetica,sans-Serif" font-size="10.00">iostream</text>
</g>
<!-- Node2&#45;&gt;Node10 -->
<g id="edge14" class="edge"><title>Node2&#45;&gt;Node10</title>
<path fill="none" stroke="midnightblue" d="M330.782,-112.448C315.096,-99.4656 290.116,-74.3567 305,-56 326.356,-29.6608 422.419,-18.1369 477.97,-13.5998"/>
<polygon fill="midnightblue" stroke="midnightblue" points="478.475,-17.0712 488.174,-12.8076 477.933,-10.0922 478.475,-17.0712"/>
</g>
<!-- Node11 -->
<g id="node12" class="node"><title>Node11</title>
<polygon fill="none" stroke="#bfbfbf" points="86,-56.5 86,-75.5 124,-75.5 124,-56.5 86,-56.5"/>
<text text-anchor="middle" x="105" y="-63.5" font-family="Helvetica,sans-Serif" font-size="10.00">map</text>
</g>
<!-- Node2&#45;&gt;Node11 -->
<g id="edge11" class="edge"><title>Node2&#45;&gt;Node11</title>
<path fill="none" stroke="midnightblue" d="M302.432,-113.692C262.255,-106.004 198.093,-92.9929 134.062,-76.0839"/>
<polygon fill="midnightblue" stroke="midnightblue" points="134.77,-72.6503 124.205,-73.4492 132.962,-79.4129 134.77,-72.6503"/>
</g>
<!-- Node12 -->
<g id="node13" class="node"><title>Node12</title>
<polygon fill="none" stroke="#bfbfbf" points="142,-56.5 142,-75.5 196,-75.5 196,-56.5 142,-56.5"/>
<text text-anchor="middle" x="169" y="-63.5" font-family="Helvetica,sans-Serif" font-size="10.00">fstream</text>
</g>
<!-- Node2&#45;&gt;Node12 -->
<g id="edge12" class="edge"><title>Node2&#45;&gt;Node12</title>
<path fill="none" stroke="midnightblue" d="M314.588,-112.444C285.231,-103.28 238.481,-88.6876 205.904,-78.5192"/>
<polygon fill="midnightblue" stroke="midnightblue" points="206.873,-75.1551 196.284,-75.5164 204.787,-81.8371 206.873,-75.1551"/>
</g>
<!-- Node13 -->
<g id="node14" class="node"><title>Node13</title>
<polygon fill="none" stroke="#bfbfbf" points="214,-56.5 214,-75.5 258,-75.5 258,-56.5 214,-56.5"/>
<text text-anchor="middle" x="236" y="-63.5" font-family="Helvetica,sans-Serif" font-size="10.00">string</text>
</g>
<!-- Node2&#45;&gt;Node13 -->
<g id="edge13" class="edge"><title>Node2&#45;&gt;Node13</title>
<path fill="none" stroke="midnightblue" d="M324.969,-112.324C307.97,-103.664 281.624,-90.2424 262.007,-80.249"/>
<polygon fill="midnightblue" stroke="midnightblue" points="263.488,-77.0752 252.988,-75.6545 260.31,-83.3125 263.488,-77.0752"/>
</g>
<!-- Node9 -->
<g id="node10" class="node"><title>Node9</title>
<polygon fill="none" stroke="#bfbfbf" points="797.5,-0.5 797.5,-19.5 848.5,-19.5 848.5,-0.5 797.5,-0.5"/>
<text text-anchor="middle" x="823" y="-7.5" font-family="Helvetica,sans-Serif" font-size="10.00">stdlib.h</text>
</g>
<!-- Node8&#45;&gt;Node9 -->
<g id="edge9" class="edge"><title>Node8&#45;&gt;Node9</title>
<path fill="none" stroke="midnightblue" d="M823,-56.083C823,-49.0059 823,-38.8611 823,-29.9865"/>
<polygon fill="midnightblue" stroke="midnightblue" points="826.5,-29.751 823,-19.7511 819.5,-29.7511 826.5,-29.751"/>
</g>
<!-- Node8&#45;&gt;Node10 -->
<g id="edge10" class="edge"><title>Node8&#45;&gt;Node10</title>
<path fill="none" stroke="midnightblue" d="M793.229,-57.9386C790.118,-57.258 786.998,-56.599 784,-56 704.078,-40.0325 609.905,-24.9806 557.782,-16.9772"/>
<polygon fill="midnightblue" stroke="midnightblue" points="558.041,-13.4761 547.627,-15.4254 556.983,-20.3958 558.041,-13.4761"/>
</g>
<!-- Node15&#45;&gt;Node8 -->
<g id="edge17" class="edge"><title>Node15&#45;&gt;Node8</title>
<path fill="none" stroke="midnightblue" d="M621.185,-168.368C659.325,-149.211 751.257,-103.036 796.686,-80.2172"/>
<polygon fill="midnightblue" stroke="midnightblue" points="798.53,-83.2076 805.895,-75.5914 795.388,-76.9523 798.53,-83.2076"/>
</g>
<!-- Node16 -->
<g id="node17" class="node"><title>Node16</title>
<g id="a_node17"><a xlink:href="portable__timer_8hh.html" target="_top" xlink:title="timers/portable_timer.hh">
<polygon fill="none" stroke="black" points="536.5,-112.5 536.5,-131.5 671.5,-131.5 671.5,-112.5 536.5,-112.5"/>
<text text-anchor="middle" x="604" y="-119.5" font-family="Helvetica,sans-Serif" font-size="10.00">timers/portable_timer.hh</text>
</a>
</g>
</g>
<!-- Node15&#45;&gt;Node16 -->
<g id="edge18" class="edge"><title>Node15&#45;&gt;Node16</title>
<path fill="none" stroke="midnightblue" d="M604,-168.083C604,-161.006 604,-150.861 604,-141.986"/>
<polygon fill="midnightblue" stroke="midnightblue" points="607.5,-141.751 604,-131.751 600.5,-141.751 607.5,-141.751"/>
</g>
<!-- Node16&#45;&gt;Node3 -->
<g id="edge22" class="edge"><title>Node16&#45;&gt;Node3</title>
<path fill="none" stroke="midnightblue" d="M588.897,-112.324C574.097,-103.822 551.306,-90.7288 534.018,-80.7975"/>
<polygon fill="midnightblue" stroke="midnightblue" points="535.48,-77.6009 525.065,-75.6545 531.993,-83.6707 535.48,-77.6009"/>
</g>
<!-- Node16&#45;&gt;Node4 -->
<g id="edge23" class="edge"><title>Node16&#45;&gt;Node4</title>
<path fill="none" stroke="midnightblue" d="M604,-112.083C604,-105.006 604,-94.8611 604,-85.9865"/>
<polygon fill="midnightblue" stroke="midnightblue" points="607.5,-85.751 604,-75.7511 600.5,-85.7511 607.5,-85.751"/>
</g>
<!-- Node16&#45;&gt;Node5 -->
<g id="edge24" class="edge"><title>Node16&#45;&gt;Node5</title>
<path fill="none" stroke="midnightblue" d="M557.548,-112.432C513.908,-104.23 446.554,-91.1804 379.729,-76.3165"/>
<polygon fill="midnightblue" stroke="midnightblue" points="380.399,-72.88 369.876,-74.1107 378.87,-79.7109 380.399,-72.88"/>
</g>
<!-- Node16&#45;&gt;Node6 -->
<g id="edge25" class="edge"><title>Node16&#45;&gt;Node6</title>
<path fill="none" stroke="midnightblue" d="M575.32,-112.444C544.473,-103.241 495.272,-88.5617 461.171,-78.3879"/>
<polygon fill="midnightblue" stroke="midnightblue" points="462.129,-75.0215 451.546,-75.5164 460.128,-81.7293 462.129,-75.0215"/>
</g>
<!-- Node17 -->
<g id="node18" class="node"><title>Node17</title>
<polygon fill="none" stroke="#bfbfbf" points="731,-56.5 731,-75.5 775,-75.5 775,-56.5 731,-56.5"/>
<text text-anchor="middle" x="753" y="-63.5" font-family="Helvetica,sans-Serif" font-size="10.00">ctime</text>
</g>
<!-- Node16&#45;&gt;Node17 -->
<g id="edge19" class="edge"><title>Node16&#45;&gt;Node17</title>
<path fill="none" stroke="midnightblue" d="M627.609,-112.444C652.896,-103.279 693.167,-88.6846 721.224,-78.5161"/>
<polygon fill="midnightblue" stroke="midnightblue" points="722.749,-81.6862 730.958,-74.9883 720.364,-75.1051 722.749,-81.6862"/>
</g>
<!-- Node18 -->
<g id="node19" class="node"><title>Node18</title>
<polygon fill="none" stroke="#bfbfbf" points="870.5,-56.5 870.5,-75.5 917.5,-75.5 917.5,-56.5 870.5,-56.5"/>
<text text-anchor="middle" x="894" y="-63.5" font-family="Helvetica,sans-Serif" font-size="10.00">cstdlib</text>
</g>
<!-- Node16&#45;&gt;Node18 -->
<g id="edge20" class="edge"><title>Node16&#45;&gt;Node18</title>
<path fill="none" stroke="midnightblue" d="M662.743,-112.494C713,-104.821 787.431,-92.527 860.475,-76.1801"/>
<polygon fill="midnightblue" stroke="midnightblue" points="861.323,-79.5768 870.303,-73.9539 859.777,-72.7497 861.323,-79.5768"/>
</g>
<!-- Node19 -->
<g id="node20" class="node"><title>Node19</title>
<polygon fill="none" stroke="#bfbfbf" points="665.5,-56.5 665.5,-75.5 712.5,-75.5 712.5,-56.5 665.5,-56.5"/>
<text text-anchor="middle" x="689" y="-63.5" font-family="Helvetica,sans-Serif" font-size="10.00">time.h</text>
</g>
<!-- Node16&#45;&gt;Node19 -->
<g id="edge21" class="edge"><title>Node16&#45;&gt;Node19</title>
<path fill="none" stroke="midnightblue" d="M617.657,-112.324C630.916,-103.9 651.268,-90.9709 666.846,-81.0741"/>
<polygon fill="midnightblue" stroke="midnightblue" points="668.813,-83.9711 675.377,-75.6545 665.06,-78.0626 668.813,-83.9711"/>
</g>
</g>
</svg>
        <g id="navigator" transform="translate(0 0)" fill="#404254">
                <rect fill="#f2f5e9" fill-opacity="0.5" stroke="#606060" stroke-width=".5" x="0" y="0" width="60" height="60"/>
                <use id="zoomplus" xlink:href="#zoomPlus" x="17" y="9" onmousedown="handleZoom(evt,'in')"/>
                <use id="zoomminus" xlink:href="#zoomMin" x="42" y="9" onmousedown="handleZoom(evt,'out')"/>
                <use id="reset" xlink:href="#resetDef" x="30" y="36" onmousedown="handleReset()"/>
                <g id="arrowUp" xlink:href="#dirArrow" transform="translate(30 24)" onmousedown="handlePan(0,-1)">
                  <use xlink:href="#rim" fill="#404040">
                        <set attributeName="fill" to="#808080" begin="arrowUp.mouseover" end="arrowUp.mouseout"/>
                  </use>
                  <path fill="none" stroke="white" stroke-width="1.5" d="M0,-3.0v7 M-2.5,-0.5L0,-3.0L2.5,-0.5"/>
                </g>
                <g id="arrowRight" xlink:href="#dirArrow" transform="rotate(90) translate(36 -43)" onmousedown="handlePan(1,0)">
                  <use xlink:href="#rim" fill="#404040">
                        <set attributeName="fill" to="#808080" begin="arrowRight.mouseover" end="arrowRight.mouseout"/>
                  </use>
                  <path fill="none" stroke="white" stroke-width="1.5" d="M0,-3.0v7 M-2.5,-0.5L0,-3.0L2.5,-0.5"/>
                </g>
                <g id="arrowDown" xlink:href="#dirArrow" transform="rotate(180) translate(-30 -48)" onmousedown="handlePan(0,1)">
                  <use xlink:href="#rim" fill="#404040">
                        <set attributeName="fill" to="#808080" begin="arrowDown.mouseover" end="arrowDown.mouseout"/>
                  </use>
                  <path fill="none" stroke="white" stroke-width="1.5" d="M0,-3.0v7 M-2.5,-0.5L0,-3.0L2.5,-0.5"/>
                </g>
                <g id="arrowLeft" xlink:href="#dirArrow" transform="rotate(270) translate(-36 17)" onmousedown="handlePan(-1,0)">
                  <use xlink:href="#rim" fill="#404040">
                        <set attributeName="fill" to="#808080" begin="arrowLeft.mouseover" end="arrowLeft.mouseout"/>
                  </use>
                  <path fill="none" stroke="white" stroke-width="1.5" d="M0,-3.0v7 M-2.5,-0.5L0,-3.0L2.5,-0.5"/>
                </g>
        </g>
        <svg viewBox="0 0 15 15" width="100%" height="30px" preserveAspectRatio="xMaxYMin meet">
         <g id="arrow_out" transform="scale(0.3 0.3)">
          <a xlink:href="mixed__perf__analyzer_8hh__incl_org.svg" target="_base">
           <rect id="button" ry="5" rx="5" y="6" x="6" height="38" width="38"
                fill="#f2f5e9" fill-opacity="0.5" stroke="#606060" stroke-width="1.0"/>
           <path id="arrow"
             d="M 11.500037,31.436501 C 11.940474,20.09759 22.043105,11.32322 32.158766,21.979434 L 37.068811,17.246167 C 37.068811,17.246167 37.088388,32 37.088388,32 L 22.160133,31.978069 C 22.160133,31.978069 26.997745,27.140456 26.997745,27.140456 C 18.528582,18.264221 13.291696,25.230495 11.500037,31.436501 z"
             style="fill:#404040;"/>
          </a>
         </g>
        </svg>
</svg>
