<?xml version="1.0" encoding="UTF-8" standalone="no"?>
<!DOCTYPE svg PUBLIC "-//W3C//DTD SVG 1.1//EN"
 "http://www.w3.org/Graphics/SVG/1.1/DTD/svg11.dtd">
<!-- Generated by graphviz version 2.38.0 (20140413.2041)
 -->
<!-- Title: boost::multiprecision::test_isMuchSmallerThan Pages: 1 -->
<svg width="508pt" height="66pt"
 viewBox="0.00 0.00 508.00 66.00" xmlns="http://www.w3.org/2000/svg" xmlns:xlink="http://www.w3.org/1999/xlink">
<g id="graph0" class="graph" transform="scale(1 1) rotate(0) translate(4 62)">
<title>boost::multiprecision::test_isMuchSmallerThan</title>
<!-- Node41 -->
<g id="node1" class="node"><title>Node41</title>
<polygon fill="#bfbfbf" stroke="black" points="0,-14 0,-44 140,-44 140,-14 0,-14"/>
<text text-anchor="start" x="8" y="-32" font-family="Helvetica,sans-Serif" font-size="10.00">boost::multiprecision</text>
<text text-anchor="middle" x="70" y="-21" font-family="Helvetica,sans-Serif" font-size="10.00">::test_isMuchSmallerThan</text>
</g>
<!-- Node42 -->
<g id="node2" class="node"><title>Node42</title>
<g id="a_node2"><a xlink:href="svd__common_8h.html#a993e3af0920e58583d5df615c5f56d35" target="_top" xlink:title="svd_least_square">
<polygon fill="none" stroke="black" points="176,-38.5 176,-57.5 276,-57.5 276,-38.5 176,-38.5"/>
<text text-anchor="middle" x="226" y="-45.5" font-family="Helvetica,sans-Serif" font-size="10.00">svd_least_square</text>
</a>
</g>
</g>
<!-- Node41&#45;&gt;Node42 -->
<g id="edge1" class="edge"><title>Node41&#45;&gt;Node42</title>
<path fill="none" stroke="midnightblue" d="M150.479,-38.8058C159.12,-39.8719 167.72,-40.9329 175.842,-41.935"/>
<polygon fill="midnightblue" stroke="midnightblue" points="150.695,-35.306 140.341,-37.5551 149.838,-42.2533 150.695,-35.306"/>
</g>
<!-- Node43 -->
<g id="node3" class="node"><title>Node43</title>
<g id="a_node3"><a xlink:href="geo__eulerangles_8cpp.html#a2555900353b22c3df3d92616b848f6c7" target="_top" xlink:title="verify_euler">
<polygon fill="none" stroke="black" points="190.5,-0.5 190.5,-19.5 261.5,-19.5 261.5,-0.5 190.5,-0.5"/>
<text text-anchor="middle" x="226" y="-7.5" font-family="Helvetica,sans-Serif" font-size="10.00">verify_euler</text>
</a>
</g>
</g>
<!-- Node41&#45;&gt;Node43 -->
<g id="edge2" class="edge"><title>Node41&#45;&gt;Node43</title>
<path fill="none" stroke="midnightblue" d="M150.479,-19.1942C164.41,-17.4754 178.233,-15.7699 190.121,-14.3032"/>
<polygon fill="midnightblue" stroke="midnightblue" points="149.838,-15.7467 140.341,-20.4449 150.695,-22.694 149.838,-15.7467"/>
</g>
<!-- Node44 -->
<g id="node4" class="node"><title>Node44</title>
<g id="a_node4"><a xlink:href="geo__eulerangles_8cpp.html#af73d6098f2d25b9901839c60037c6474" target="_top" xlink:title="check_all_var">
<polygon fill="none" stroke="black" points="312,-0.5 312,-19.5 392,-19.5 392,-0.5 312,-0.5"/>
<text text-anchor="middle" x="352" y="-7.5" font-family="Helvetica,sans-Serif" font-size="10.00">check_all_var</text>
</a>
</g>
</g>
<!-- Node43&#45;&gt;Node44 -->
<g id="edge3" class="edge"><title>Node43&#45;&gt;Node44</title>
<path fill="none" stroke="midnightblue" d="M271.766,-10C284.877,-10 299.104,-10 311.837,-10"/>
<polygon fill="midnightblue" stroke="midnightblue" points="271.541,-6.5001 261.541,-10 271.541,-13.5001 271.541,-6.5001"/>
</g>
<!-- Node45 -->
<g id="node5" class="node"><title>Node45</title>
<g id="a_node5"><a xlink:href="geo__eulerangles_8cpp.html#a34bc4cd7df3148e720ffe58684c50e4a" target="_top" xlink:title="eulerangles">
<polygon fill="none" stroke="black" points="428,-0.5 428,-19.5 500,-19.5 500,-0.5 428,-0.5"/>
<text text-anchor="middle" x="464" y="-7.5" font-family="Helvetica,sans-Serif" font-size="10.00">eulerangles</text>
</a>
</g>
</g>
<!-- Node44&#45;&gt;Node45 -->
<g id="edge4" class="edge"><title>Node44&#45;&gt;Node45</title>
<path fill="none" stroke="midnightblue" d="M402.362,-10C410.903,-10 419.627,-10 427.699,-10"/>
<polygon fill="midnightblue" stroke="midnightblue" points="402.092,-6.5001 392.092,-10 402.092,-13.5001 402.092,-6.5001"/>
</g>
</g>
</svg>
