<?xml version="1.0" encoding="UTF-8" standalone="no"?>
<!DOCTYPE svg PUBLIC "-//W3C//DTD SVG 1.1//EN"
 "http://www.w3.org/Graphics/SVG/1.1/DTD/svg11.dtd">
<!-- Generated by graphviz version 2.38.0 (20140413.2041)
 -->
<!-- Title: Eigen::internal::pset1&lt; Packet4d &gt; Pages: 1 -->
<svg width="304pt" height="116pt"
 viewBox="0.00 0.00 304.00 115.50" xmlns="http://www.w3.org/2000/svg" xmlns:xlink="http://www.w3.org/1999/xlink">
<g id="graph0" class="graph" transform="scale(1 1) rotate(0) translate(4 111.5)">
<title>Eigen::internal::pset1&lt; Packet4d &gt;</title>
<!-- Node4529 -->
<g id="node1" class="node"><title>Node4529</title>
<polygon fill="#bfbfbf" stroke="black" points="0,-44.5 0,-74.5 118,-74.5 118,-44.5 0,-44.5"/>
<text text-anchor="start" x="8" y="-62.5" font-family="Helvetica,sans-Serif" font-size="10.00">Eigen::internal::pset1</text>
<text text-anchor="middle" x="59" y="-51.5" font-family="Helvetica,sans-Serif" font-size="10.00">&lt; Packet4d &gt;</text>
</g>
<!-- Node4530 -->
<g id="node2" class="node"><title>Node4530</title>
<g id="a_node2"><a xlink:href="namespaceEigen_1_1internal.html#a1c3862e87d930ec6efc2c9dd4cef3a2b" target="_top" xlink:title="Eigen::internal::pinsertfirst">
<polygon fill="none" stroke="black" points="154,-88 154,-107 296,-107 296,-88 154,-88"/>
<text text-anchor="middle" x="225" y="-95" font-family="Helvetica,sans-Serif" font-size="10.00">Eigen::internal::pinsertfirst</text>
</a>
</g>
</g>
<!-- Node4529&#45;&gt;Node4530 -->
<g id="edge1" class="edge"><title>Node4529&#45;&gt;Node4530</title>
<path fill="none" stroke="midnightblue" d="M128.185,-75.2989C146.769,-79.6049 166.328,-84.1369 182.894,-87.9754"/>
<polygon fill="midnightblue" stroke="midnightblue" points="128.814,-71.8521 118.282,-73.0044 127.234,-78.6714 128.814,-71.8521"/>
</g>
<!-- Node4531 -->
<g id="node3" class="node"><title>Node4531</title>
<g id="a_node3"><a xlink:href="namespaceEigen_1_1internal.html#a1d47d94a58c112440594fc167306538c" target="_top" xlink:title="Eigen::internal::pinsertlast">
<polygon fill="none" stroke="black" points="154.5,-50 154.5,-69 295.5,-69 295.5,-50 154.5,-50"/>
<text text-anchor="middle" x="225" y="-57" font-family="Helvetica,sans-Serif" font-size="10.00">Eigen::internal::pinsertlast</text>
</a>
</g>
</g>
<!-- Node4529&#45;&gt;Node4531 -->
<g id="edge2" class="edge"><title>Node4529&#45;&gt;Node4531</title>
<path fill="none" stroke="midnightblue" d="M128.291,-59.5C136.919,-59.5 145.755,-59.5 154.403,-59.5"/>
<polygon fill="midnightblue" stroke="midnightblue" points="128.282,-56.0001 118.282,-59.5 128.282,-63.0001 128.282,-56.0001"/>
</g>
<!-- Node4532 -->
<g id="node4" class="node"><title>Node4532</title>
<g id="a_node4"><a xlink:href="namespaceEigen_1_1internal.html#a63d9077ff787720975cb4674ce682655" target="_top" xlink:title="Eigen::internal::pstore1\l\&lt; Packet4d \&gt;">
<polygon fill="none" stroke="black" points="161,-0.5 161,-30.5 289,-30.5 289,-0.5 161,-0.5"/>
<text text-anchor="start" x="169" y="-18.5" font-family="Helvetica,sans-Serif" font-size="10.00">Eigen::internal::pstore1</text>
<text text-anchor="middle" x="225" y="-7.5" font-family="Helvetica,sans-Serif" font-size="10.00">&lt; Packet4d &gt;</text>
</a>
</g>
</g>
<!-- Node4529&#45;&gt;Node4532 -->
<g id="edge3" class="edge"><title>Node4529&#45;&gt;Node4532</title>
<path fill="none" stroke="midnightblue" d="M125.984,-41.7971C139.91,-38.0608 154.477,-34.1525 167.993,-30.5262"/>
<polygon fill="midnightblue" stroke="midnightblue" points="124.732,-38.509 115.981,-44.4808 126.546,-45.2699 124.732,-38.509"/>
</g>
</g>
</svg>
