<?xml version="1.0" encoding="UTF-8" standalone="no"?>
<!DOCTYPE svg PUBLIC "-//W3C//DTD SVG 1.1//EN"
 "http://www.w3.org/Graphics/SVG/1.1/DTD/svg11.dtd">
<!-- Generated by graphviz version 2.38.0 (20140413.2041)
 -->
<!-- Title: Eigen::matrix_sqrt_quasi_triangular Pages: 1 -->
<svg width="952pt" height="295pt"
 viewBox="0.00 0.00 952.00 295.00" xmlns="http://www.w3.org/2000/svg" xmlns:xlink="http://www.w3.org/1999/xlink">
<g id="graph0" class="graph" transform="scale(1 1) rotate(0) translate(4 291)">
<title>Eigen::matrix_sqrt_quasi_triangular</title>
<!-- Node373 -->
<g id="node1" class="node"><title>Node373</title>
<polygon fill="#bfbfbf" stroke="black" points="0,-153 0,-183 104,-183 104,-153 0,-153"/>
<text text-anchor="start" x="8" y="-171" font-family="Helvetica,sans-Serif" font-size="10.00">Eigen::matrix_sqrt</text>
<text text-anchor="middle" x="52" y="-160" font-family="Helvetica,sans-Serif" font-size="10.00">_quasi_triangular</text>
</g>
<!-- Node374 -->
<g id="node2" class="node"><title>Node374</title>
<g id="a_node2"><a xlink:href="namespaceEigen_1_1internal.html#a8e5c9733af465bc14851019818a5d2b3" target="_top" xlink:title="Eigen::internal::matrix\l_sqrt_quasi_triangular\l_diagonal">
<polygon fill="none" stroke="black" points="140,-207.5 140,-248.5 262,-248.5 262,-207.5 140,-207.5"/>
<text text-anchor="start" x="148" y="-236.5" font-family="Helvetica,sans-Serif" font-size="10.00">Eigen::internal::matrix</text>
<text text-anchor="start" x="148" y="-225.5" font-family="Helvetica,sans-Serif" font-size="10.00">_sqrt_quasi_triangular</text>
<text text-anchor="middle" x="201" y="-214.5" font-family="Helvetica,sans-Serif" font-size="10.00">_diagonal</text>
</a>
</g>
</g>
<!-- Node373&#45;&gt;Node374 -->
<g id="edge1" class="edge"><title>Node373&#45;&gt;Node374</title>
<path fill="none" stroke="midnightblue" d="M90.0943,-183.141C105.308,-189.35 123.306,-196.697 140.286,-203.627"/>
<polygon fill="midnightblue" stroke="midnightblue" points="139.01,-206.886 149.591,-207.425 141.655,-200.405 139.01,-206.886"/>
</g>
<!-- Node379 -->
<g id="node7" class="node"><title>Node379</title>
<g id="a_node7"><a xlink:href="namespaceEigen_1_1internal.html#a95c0b49fec5ce44af43283d7f541d341" target="_top" xlink:title="Eigen::internal::matrix\l_sqrt_quasi_triangular\l_off_diagonal">
<polygon fill="none" stroke="black" points="140,-87.5 140,-128.5 262,-128.5 262,-87.5 140,-87.5"/>
<text text-anchor="start" x="148" y="-116.5" font-family="Helvetica,sans-Serif" font-size="10.00">Eigen::internal::matrix</text>
<text text-anchor="start" x="148" y="-105.5" font-family="Helvetica,sans-Serif" font-size="10.00">_sqrt_quasi_triangular</text>
<text text-anchor="middle" x="201" y="-94.5" font-family="Helvetica,sans-Serif" font-size="10.00">_off_diagonal</text>
</a>
</g>
</g>
<!-- Node373&#45;&gt;Node379 -->
<g id="edge6" class="edge"><title>Node373&#45;&gt;Node379</title>
<path fill="none" stroke="midnightblue" d="M90.0943,-152.859C105.308,-146.65 123.306,-139.303 140.286,-132.373"/>
<polygon fill="midnightblue" stroke="midnightblue" points="141.655,-135.595 149.591,-128.575 139.01,-129.114 141.655,-135.595"/>
</g>
<!-- Node375 -->
<g id="node3" class="node"><title>Node375</title>
<g id="a_node3"><a xlink:href="ArrayCwiseUnaryOps_8h.html#a656b9217a2fcb6de59dc8d1eb3079cc7" target="_top" xlink:title="sqrt">
<polygon fill="none" stroke="black" points="346.5,-267.5 346.5,-286.5 381.5,-286.5 381.5,-267.5 346.5,-267.5"/>
<text text-anchor="middle" x="364" y="-274.5" font-family="Helvetica,sans-Serif" font-size="10.00">sqrt</text>
</a>
</g>
</g>
<!-- Node374&#45;&gt;Node375 -->
<g id="edge2" class="edge"><title>Node374&#45;&gt;Node375</title>
<path fill="none" stroke="midnightblue" d="M262.12,-246.975C273.999,-250.671 286.384,-254.488 298,-258 310.708,-261.843 324.852,-265.992 336.693,-269.43"/>
<polygon fill="midnightblue" stroke="midnightblue" points="335.832,-272.825 346.411,-272.243 337.778,-266.101 335.832,-272.825"/>
</g>
<!-- Node376 -->
<g id="node4" class="node"><title>Node376</title>
<g id="a_node4"><a xlink:href="namespaceEigen_1_1internal.html#a7a96ef1b033a05cde18ea4d933ec62ca" target="_top" xlink:title="Eigen::internal::matrix\l_sqrt_quasi_triangular\l_2x2_diagonal_block">
<polygon fill="none" stroke="black" points="303,-207.5 303,-248.5 425,-248.5 425,-207.5 303,-207.5"/>
<text text-anchor="start" x="311" y="-236.5" font-family="Helvetica,sans-Serif" font-size="10.00">Eigen::internal::matrix</text>
<text text-anchor="start" x="311" y="-225.5" font-family="Helvetica,sans-Serif" font-size="10.00">_sqrt_quasi_triangular</text>
<text text-anchor="middle" x="364" y="-214.5" font-family="Helvetica,sans-Serif" font-size="10.00">_2x2_diagonal_block</text>
</a>
</g>
</g>
<!-- Node374&#45;&gt;Node376 -->
<g id="edge3" class="edge"><title>Node374&#45;&gt;Node376</title>
<path fill="none" stroke="midnightblue" d="M262.409,-228C272.313,-228 282.65,-228 292.768,-228"/>
<polygon fill="midnightblue" stroke="midnightblue" points="292.788,-231.5 302.788,-228 292.788,-224.5 292.788,-231.5"/>
</g>
<!-- Node377 -->
<g id="node5" class="node"><title>Node377</title>
<g id="a_node5"><a xlink:href="Tutorial__commainit__01b_8cpp.html#a379f624db323dcf7558d0941192f3f91" target="_top" xlink:title="block">
<polygon fill="none" stroke="black" points="514.5,-204.5 514.5,-223.5 555.5,-223.5 555.5,-204.5 514.5,-204.5"/>
<text text-anchor="middle" x="535" y="-211.5" font-family="Helvetica,sans-Serif" font-size="10.00">block</text>
</a>
</g>
</g>
<!-- Node376&#45;&gt;Node377 -->
<g id="edge4" class="edge"><title>Node376&#45;&gt;Node377</title>
<path fill="none" stroke="midnightblue" d="M425.059,-223.025C451.965,-220.796 482.487,-218.267 504.366,-216.455"/>
<polygon fill="midnightblue" stroke="midnightblue" points="504.681,-219.941 514.358,-215.627 504.103,-212.965 504.681,-219.941"/>
</g>
<!-- Node378 -->
<g id="node6" class="node"><title>Node378</title>
<g id="a_node6"><a xlink:href="namespaceEigen.html#a32bc447a8f5140365c7ef5ac58ec774c" target="_top" xlink:title="Eigen::real">
<polygon fill="none" stroke="black" points="501.5,-242.5 501.5,-261.5 568.5,-261.5 568.5,-242.5 501.5,-242.5"/>
<text text-anchor="middle" x="535" y="-249.5" font-family="Helvetica,sans-Serif" font-size="10.00">Eigen::real</text>
</a>
</g>
</g>
<!-- Node376&#45;&gt;Node378 -->
<g id="edge5" class="edge"><title>Node376&#45;&gt;Node378</title>
<path fill="none" stroke="midnightblue" d="M425.059,-236.529C446.873,-239.627 471.064,-243.062 491.098,-245.907"/>
<polygon fill="midnightblue" stroke="midnightblue" points="490.769,-249.396 501.161,-247.337 491.753,-242.465 490.769,-249.396"/>
</g>
<!-- Node380 -->
<g id="node8" class="node"><title>Node380</title>
<g id="a_node8"><a xlink:href="namespaceEigen_1_1internal.html#ac968fcd5f7206aef781631df79524727" target="_top" xlink:title="Eigen::internal::matrix\l_sqrt_quasi_triangular\l_2x2_off_diagonal_block">
<polygon fill="none" stroke="black" points="298,-147.5 298,-188.5 430,-188.5 430,-147.5 298,-147.5"/>
<text text-anchor="start" x="306" y="-176.5" font-family="Helvetica,sans-Serif" font-size="10.00">Eigen::internal::matrix</text>
<text text-anchor="start" x="306" y="-165.5" font-family="Helvetica,sans-Serif" font-size="10.00">_sqrt_quasi_triangular</text>
<text text-anchor="middle" x="364" y="-154.5" font-family="Helvetica,sans-Serif" font-size="10.00">_2x2_off_diagonal_block</text>
</a>
</g>
</g>
<!-- Node379&#45;&gt;Node380 -->
<g id="edge7" class="edge"><title>Node379&#45;&gt;Node380</title>
<path fill="none" stroke="midnightblue" d="M257.407,-128.649C270.509,-133.531 284.596,-138.781 298.077,-143.805"/>
<polygon fill="midnightblue" stroke="midnightblue" points="297.171,-147.203 307.764,-147.415 299.615,-140.643 297.171,-147.203"/>
</g>
<!-- Node387 -->
<g id="node15" class="node"><title>Node387</title>
<g id="a_node15"><a xlink:href="namespaceEigen_1_1internal.html#acf8f128614be4802a6af9f357da3d169" target="_top" xlink:title="Eigen::internal::matrix\l_sqrt_quasi_triangular\l_2x1_off_diagonal_block">
<polygon fill="none" stroke="black" points="469,-0.5 469,-41.5 601,-41.5 601,-0.5 469,-0.5"/>
<text text-anchor="start" x="477" y="-29.5" font-family="Helvetica,sans-Serif" font-size="10.00">Eigen::internal::matrix</text>
<text text-anchor="start" x="477" y="-18.5" font-family="Helvetica,sans-Serif" font-size="10.00">_sqrt_quasi_triangular</text>
<text text-anchor="middle" x="535" y="-7.5" font-family="Helvetica,sans-Serif" font-size="10.00">_2x1_off_diagonal_block</text>
</a>
</g>
</g>
<!-- Node379&#45;&gt;Node387 -->
<g id="edge17" class="edge"><title>Node379&#45;&gt;Node387</title>
<path fill="none" stroke="midnightblue" d="M244.763,-87.4448C261.131,-80.1897 280.156,-72.4819 298,-67 350.788,-50.7823 412.042,-39.0419 458.914,-31.4823"/>
<polygon fill="midnightblue" stroke="midnightblue" points="459.662,-34.9076 468.991,-29.8856 458.566,-27.9939 459.662,-34.9076"/>
</g>
<!-- Node388 -->
<g id="node16" class="node"><title>Node388</title>
<g id="a_node16"><a xlink:href="namespaceEigen_1_1internal.html#a922345d30d56d13fc20dcc452755ea65" target="_top" xlink:title="Eigen::internal::matrix\l_sqrt_quasi_triangular\l_1x2_off_diagonal_block">
<polygon fill="none" stroke="black" points="469,-60.5 469,-101.5 601,-101.5 601,-60.5 469,-60.5"/>
<text text-anchor="start" x="477" y="-89.5" font-family="Helvetica,sans-Serif" font-size="10.00">Eigen::internal::matrix</text>
<text text-anchor="start" x="477" y="-78.5" font-family="Helvetica,sans-Serif" font-size="10.00">_sqrt_quasi_triangular</text>
<text text-anchor="middle" x="535" y="-67.5" font-family="Helvetica,sans-Serif" font-size="10.00">_1x2_off_diagonal_block</text>
</a>
</g>
</g>
<!-- Node379&#45;&gt;Node388 -->
<g id="edge19" class="edge"><title>Node379&#45;&gt;Node388</title>
<path fill="none" stroke="midnightblue" d="M257.675,-87.4847C270.728,-83.5507 284.709,-80.0284 298,-78 351.399,-69.8508 412.383,-70.89 458.981,-73.8154"/>
<polygon fill="midnightblue" stroke="midnightblue" points="458.785,-77.31 468.997,-74.4869 459.253,-70.3257 458.785,-77.31"/>
</g>
<!-- Node389 -->
<g id="node17" class="node"><title>Node389</title>
<g id="a_node17"><a xlink:href="namespaceEigen_1_1internal.html#a39b907e48b9b9fed8cea3fbb67c35b54" target="_top" xlink:title="Eigen::internal::matrix\l_sqrt_quasi_triangular\l_1x1_off_diagonal_block">
<polygon fill="none" stroke="black" points="298,-87.5 298,-128.5 430,-128.5 430,-87.5 298,-87.5"/>
<text text-anchor="start" x="306" y="-116.5" font-family="Helvetica,sans-Serif" font-size="10.00">Eigen::internal::matrix</text>
<text text-anchor="start" x="306" y="-105.5" font-family="Helvetica,sans-Serif" font-size="10.00">_sqrt_quasi_triangular</text>
<text text-anchor="middle" x="364" y="-94.5" font-family="Helvetica,sans-Serif" font-size="10.00">_1x1_off_diagonal_block</text>
</a>
</g>
</g>
<!-- Node379&#45;&gt;Node389 -->
<g id="edge21" class="edge"><title>Node379&#45;&gt;Node389</title>
<path fill="none" stroke="midnightblue" d="M262.409,-108C270.655,-108 279.202,-108 287.673,-108"/>
<polygon fill="midnightblue" stroke="midnightblue" points="287.941,-111.5 297.941,-108 287.941,-104.5 287.941,-111.5"/>
</g>
<!-- Node381 -->
<g id="node9" class="node"><title>Node381</title>
<g id="a_node9"><a xlink:href="namespaceEigen_1_1internal.html#a691211492c8b69df5c7391bd1de411c4" target="_top" xlink:title="Eigen::internal::matrix\l_sqrt_quasi_triangular\l_solve_auxiliary_equation">
<polygon fill="none" stroke="black" points="466,-131.5 466,-172.5 604,-172.5 604,-131.5 466,-131.5"/>
<text text-anchor="start" x="474" y="-160.5" font-family="Helvetica,sans-Serif" font-size="10.00">Eigen::internal::matrix</text>
<text text-anchor="start" x="474" y="-149.5" font-family="Helvetica,sans-Serif" font-size="10.00">_sqrt_quasi_triangular</text>
<text text-anchor="middle" x="535" y="-138.5" font-family="Helvetica,sans-Serif" font-size="10.00">_solve_auxiliary_equation</text>
</a>
</g>
</g>
<!-- Node380&#45;&gt;Node381 -->
<g id="edge8" class="edge"><title>Node380&#45;&gt;Node381</title>
<path fill="none" stroke="midnightblue" d="M430.34,-161.814C438.594,-161.033 447.106,-160.227 455.537,-159.428"/>
<polygon fill="midnightblue" stroke="midnightblue" points="456.133,-162.888 465.759,-158.461 455.473,-155.919 456.133,-162.888"/>
</g>
<!-- Node382 -->
<g id="node10" class="node"><title>Node382</title>
<g id="a_node10"><a xlink:href="classEigen_1_1PlainObjectBase.html#a25626a55b26a4323565f79d1b7c48ea8" target="_top" xlink:title="Eigen::PlainObjectBase\l\&lt; Matrix\&lt; _Scalar, _Rows,\l _Cols, _Options, _MaxRows,\l _MaxCols \&gt; \&gt;::coeffRef">
<polygon fill="none" stroke="black" points="640,-126 640,-178 790,-178 790,-126 640,-126"/>
<text text-anchor="start" x="648" y="-166" font-family="Helvetica,sans-Serif" font-size="10.00">Eigen::PlainObjectBase</text>
<text text-anchor="start" x="648" y="-155" font-family="Helvetica,sans-Serif" font-size="10.00">&lt; Matrix&lt; _Scalar, _Rows,</text>
<text text-anchor="start" x="648" y="-144" font-family="Helvetica,sans-Serif" font-size="10.00"> _Cols, _Options, _MaxRows,</text>
<text text-anchor="middle" x="715" y="-133" font-family="Helvetica,sans-Serif" font-size="10.00"> _MaxCols &gt; &gt;::coeffRef</text>
</a>
</g>
</g>
<!-- Node381&#45;&gt;Node382 -->
<g id="edge9" class="edge"><title>Node381&#45;&gt;Node382</title>
<path fill="none" stroke="midnightblue" d="M604.056,-152C612.451,-152 621.109,-152 629.708,-152"/>
<polygon fill="midnightblue" stroke="midnightblue" points="629.756,-155.5 639.756,-152 629.756,-148.5 629.756,-155.5"/>
</g>
<!-- Node386 -->
<g id="node14" class="node"><title>Node386</title>
<g id="a_node14"><a xlink:href="classEigen_1_1PlainObjectBase.html#afbfc12954f16d21aedb7bd839f64a278" target="_top" xlink:title="Eigen::PlainObjectBase\l\&lt; Matrix\&lt; _Scalar, _Rows,\l _Cols, _Options, _MaxRows,\l _MaxCols \&gt; \&gt;::coeff">
<polygon fill="none" stroke="black" points="640,-55 640,-107 790,-107 790,-55 640,-55"/>
<text text-anchor="start" x="648" y="-95" font-family="Helvetica,sans-Serif" font-size="10.00">Eigen::PlainObjectBase</text>
<text text-anchor="start" x="648" y="-84" font-family="Helvetica,sans-Serif" font-size="10.00">&lt; Matrix&lt; _Scalar, _Rows,</text>
<text text-anchor="start" x="648" y="-73" font-family="Helvetica,sans-Serif" font-size="10.00"> _Cols, _Options, _MaxRows,</text>
<text text-anchor="middle" x="715" y="-62" font-family="Helvetica,sans-Serif" font-size="10.00"> _MaxCols &gt; &gt;::coeff</text>
</a>
</g>
</g>
<!-- Node381&#45;&gt;Node386 -->
<g id="edge13" class="edge"><title>Node381&#45;&gt;Node386</title>
<path fill="none" stroke="midnightblue" d="M587.485,-131.464C603.599,-125.036 621.721,-117.808 639.106,-110.874"/>
<polygon fill="midnightblue" stroke="midnightblue" points="640.679,-114.014 648.671,-107.058 638.086,-107.512 640.679,-114.014"/>
</g>
<!-- Node383 -->
<g id="node11" class="node"><title>Node383</title>
<g id="a_node11"><a xlink:href="classEigen_1_1DenseStorage.html#a5b5984857e0f9091125bc75acc6f770f" target="_top" xlink:title="Eigen::DenseStorage\l::data">
<polygon fill="none" stroke="black" points="826,-151 826,-181 944,-181 944,-151 826,-151"/>
<text text-anchor="start" x="834" y="-169" font-family="Helvetica,sans-Serif" font-size="10.00">Eigen::DenseStorage</text>
<text text-anchor="middle" x="885" y="-158" font-family="Helvetica,sans-Serif" font-size="10.00">::data</text>
</a>
</g>
</g>
<!-- Node382&#45;&gt;Node383 -->
<g id="edge10" class="edge"><title>Node382&#45;&gt;Node383</title>
<path fill="none" stroke="midnightblue" d="M790.176,-158.181C798.675,-158.89 807.31,-159.609 815.726,-160.311"/>
<polygon fill="midnightblue" stroke="midnightblue" points="815.604,-163.812 825.86,-161.155 816.186,-156.837 815.604,-163.812"/>
</g>
<!-- Node384 -->
<g id="node12" class="node"><title>Node384</title>
<g id="a_node12"><a xlink:href="classEigen_1_1DenseStorage.html#aef23781f9dc545e8b3f6b75d6c05d777" target="_top" xlink:title="Eigen::DenseStorage\l::cols">
<polygon fill="none" stroke="black" points="826,-102 826,-132 944,-132 944,-102 826,-102"/>
<text text-anchor="start" x="834" y="-120" font-family="Helvetica,sans-Serif" font-size="10.00">Eigen::DenseStorage</text>
<text text-anchor="middle" x="885" y="-109" font-family="Helvetica,sans-Serif" font-size="10.00">::cols</text>
</a>
</g>
</g>
<!-- Node382&#45;&gt;Node384 -->
<g id="edge11" class="edge"><title>Node382&#45;&gt;Node384</title>
<path fill="none" stroke="midnightblue" d="M790.176,-136.547C798.769,-134.757 807.5,-132.938 816.004,-131.166"/>
<polygon fill="midnightblue" stroke="midnightblue" points="816.784,-134.578 825.86,-129.112 815.357,-127.726 816.784,-134.578"/>
</g>
<!-- Node385 -->
<g id="node13" class="node"><title>Node385</title>
<g id="a_node13"><a xlink:href="classEigen_1_1DenseStorage.html#a14b68f709f5fb46eeebb203266cc29b2" target="_top" xlink:title="Eigen::DenseStorage\l::rows">
<polygon fill="none" stroke="black" points="826,-53 826,-83 944,-83 944,-53 826,-53"/>
<text text-anchor="start" x="834" y="-71" font-family="Helvetica,sans-Serif" font-size="10.00">Eigen::DenseStorage</text>
<text text-anchor="middle" x="885" y="-60" font-family="Helvetica,sans-Serif" font-size="10.00">::rows</text>
</a>
</g>
</g>
<!-- Node382&#45;&gt;Node385 -->
<g id="edge12" class="edge"><title>Node382&#45;&gt;Node385</title>
<path fill="none" stroke="midnightblue" d="M773.392,-125.881C779.062,-122.995 784.681,-120.009 790,-117 806.736,-107.53 809.101,-102.177 826,-93 829.531,-91.0827 833.239,-89.2021 837.001,-87.387"/>
<polygon fill="midnightblue" stroke="midnightblue" points="838.799,-90.4113 846.396,-83.0263 835.852,-84.062 838.799,-90.4113"/>
</g>
<!-- Node386&#45;&gt;Node383 -->
<g id="edge14" class="edge"><title>Node386&#45;&gt;Node383</title>
<path fill="none" stroke="midnightblue" d="M771.848,-107.019C778.045,-110.245 784.206,-113.606 790,-117 806.808,-126.846 808.902,-132.667 826,-142 829.009,-143.642 832.153,-145.243 835.356,-146.788"/>
<polygon fill="midnightblue" stroke="midnightblue" points="833.919,-149.98 844.466,-150.983 836.846,-143.621 833.919,-149.98"/>
</g>
<!-- Node386&#45;&gt;Node384 -->
<g id="edge15" class="edge"><title>Node386&#45;&gt;Node384</title>
<path fill="none" stroke="midnightblue" d="M790.176,-96.8949C798.769,-98.7361 807.5,-100.607 816.004,-102.429"/>
<polygon fill="midnightblue" stroke="midnightblue" points="815.349,-105.868 825.86,-104.542 816.816,-99.0238 815.349,-105.868"/>
</g>
<!-- Node386&#45;&gt;Node385 -->
<g id="edge16" class="edge"><title>Node386&#45;&gt;Node385</title>
<path fill="none" stroke="midnightblue" d="M790.176,-75.2602C798.675,-74.6025 807.31,-73.9343 815.726,-73.2831"/>
<polygon fill="midnightblue" stroke="midnightblue" points="816.16,-76.7601 825.86,-72.4989 815.62,-69.7809 816.16,-76.7601"/>
</g>
<!-- Node387&#45;&gt;Node386 -->
<g id="edge18" class="edge"><title>Node387&#45;&gt;Node386</title>
<path fill="none" stroke="midnightblue" d="M597.258,-41.6486C607.836,-45.2143 618.995,-48.9758 630.05,-52.7021"/>
<polygon fill="midnightblue" stroke="midnightblue" points="629.126,-56.0843 639.72,-55.9619 631.362,-49.451 629.126,-56.0843"/>
</g>
<!-- Node388&#45;&gt;Node386 -->
<g id="edge20" class="edge"><title>Node388&#45;&gt;Node386</title>
<path fill="none" stroke="midnightblue" d="M601.018,-81C610.379,-81 620.122,-81 629.79,-81"/>
<polygon fill="midnightblue" stroke="midnightblue" points="629.819,-84.5001 639.819,-81 629.818,-77.5001 629.819,-84.5001"/>
</g>
</g>
</svg>
