<?xml version="1.0" encoding="UTF-8" standalone="no"?>
<!DOCTYPE svg PUBLIC "-//W3C//DTD SVG 1.1//EN"
 "http://www.w3.org/Graphics/SVG/1.1/DTD/svg11.dtd">
<!-- Generated by graphviz version 2.38.0 (20140413.2041)
 -->
<!-- Title: Eigen::internal::pabs Pages: 1 -->
<svg width="462pt" height="100pt"
 viewBox="0.00 0.00 462.00 99.50" xmlns="http://www.w3.org/2000/svg" xmlns:xlink="http://www.w3.org/1999/xlink">
<g id="graph0" class="graph" transform="scale(1 1) rotate(0) translate(4 95.5)">
<title>Eigen::internal::pabs</title>
<!-- Node1286 -->
<g id="node1" class="node"><title>Node1286</title>
<polygon fill="#bfbfbf" stroke="black" points="0,-28 0,-47 114,-47 114,-28 0,-28"/>
<text text-anchor="middle" x="57" y="-35" font-family="Helvetica,sans-Serif" font-size="10.00">Eigen::internal::pabs</text>
</g>
<!-- Node1287 -->
<g id="node2" class="node"><title>Node1287</title>
<g id="a_node2"><a xlink:href="namespaceEigen_1_1internal.html#a9fdd6f0bbf0e65f4b7f1d47a7b9e76c0" target="_top" xlink:title="Eigen::internal::pabs">
<polygon fill="none" stroke="black" points="168.5,-72 168.5,-91 282.5,-91 282.5,-72 168.5,-72"/>
<text text-anchor="middle" x="225.5" y="-79" font-family="Helvetica,sans-Serif" font-size="10.00">Eigen::internal::pabs</text>
</a>
</g>
</g>
<!-- Node1286&#45;&gt;Node1287 -->
<g id="edge1" class="edge"><title>Node1286&#45;&gt;Node1287</title>
<path fill="none" stroke="midnightblue" d="M92.4791,-47.0063C109.735,-51.729 130.953,-57.4837 150,-62.5 158.628,-64.7724 167.83,-67.1535 176.717,-69.4315"/>
<polygon fill="midnightblue" stroke="midnightblue" points="176.015,-72.8646 186.57,-71.9485 177.748,-66.0824 176.015,-72.8646"/>
</g>
<!-- Node1288 -->
<g id="node3" class="node"><title>Node1288</title>
<g id="a_node3"><a xlink:href="namespaceEigen_1_1internal.html#adb4795938f0301e168c416c4b53ea7ea" target="_top" xlink:title="Eigen::internal::pbroadcast4\l\&lt; Packet4f \&gt;">
<polygon fill="none" stroke="black" points="150,-22.5 150,-52.5 301,-52.5 301,-22.5 150,-22.5"/>
<text text-anchor="start" x="158" y="-40.5" font-family="Helvetica,sans-Serif" font-size="10.00">Eigen::internal::pbroadcast4</text>
<text text-anchor="middle" x="225.5" y="-29.5" font-family="Helvetica,sans-Serif" font-size="10.00">&lt; Packet4f &gt;</text>
</a>
</g>
</g>
<!-- Node1286&#45;&gt;Node1288 -->
<g id="edge2" class="edge"><title>Node1286&#45;&gt;Node1288</title>
<path fill="none" stroke="midnightblue" d="M114.369,-37.5C122.574,-37.5 131.169,-37.5 139.785,-37.5"/>
<polygon fill="midnightblue" stroke="midnightblue" points="139.887,-41.0001 149.887,-37.5 139.887,-34.0001 139.887,-41.0001"/>
</g>
<!-- Node1289 -->
<g id="node4" class="node"><title>Node1289</title>
<g id="a_node4"><a xlink:href="namespaceEigen_1_1internal.html#a63e92b056e3378b0853f510fdb6757b2" target="_top" xlink:title="Eigen::internal::pload\l\&lt; Packet4f \&gt;">
<polygon fill="none" stroke="black" points="337,-0.5 337,-30.5 454,-30.5 454,-0.5 337,-0.5"/>
<text text-anchor="start" x="345" y="-18.5" font-family="Helvetica,sans-Serif" font-size="10.00">Eigen::internal::pload</text>
<text text-anchor="middle" x="395.5" y="-7.5" font-family="Helvetica,sans-Serif" font-size="10.00">&lt; Packet4f &gt;</text>
</a>
</g>
</g>
<!-- Node1286&#45;&gt;Node1289 -->
<g id="edge4" class="edge"><title>Node1286&#45;&gt;Node1289</title>
<path fill="none" stroke="midnightblue" d="M87.0422,-27.8898C104.964,-22.4716 128.552,-16.2515 150,-13.5 209.356,-5.88539 277.483,-7.26361 326.722,-10.0395"/>
<polygon fill="midnightblue" stroke="midnightblue" points="326.741,-13.5468 336.932,-10.6503 327.159,-6.5593 326.741,-13.5468"/>
</g>
<!-- Node1288&#45;&gt;Node1289 -->
<g id="edge3" class="edge"><title>Node1288&#45;&gt;Node1289</title>
<path fill="none" stroke="midnightblue" d="M301.166,-27.7224C309.701,-26.6046 318.367,-25.4698 326.804,-24.365"/>
<polygon fill="midnightblue" stroke="midnightblue" points="327.498,-27.8041 336.958,-23.0352 326.589,-20.8634 327.498,-27.8041"/>
</g>
</g>
</svg>
