<?xml version="1.0" encoding="UTF-8" standalone="no"?>
<!DOCTYPE svg PUBLIC "-//W3C//DTD SVG 1.1//EN"
 "http://www.w3.org/Graphics/SVG/1.1/DTD/svg11.dtd">
<!-- Generated by graphviz version 2.38.0 (20140413.2041)
 -->
<!-- Title: Eigen::internal::pmin&lt; Packet2d &gt; Pages: 1 -->
<svg width="284pt" height="116pt"
 viewBox="0.00 0.00 284.00 115.50" xmlns="http://www.w3.org/2000/svg" xmlns:xlink="http://www.w3.org/1999/xlink">
<g id="graph0" class="graph" transform="scale(1 1) rotate(0) translate(4 111.5)">
<title>Eigen::internal::pmin&lt; Packet2d &gt;</title>
<!-- Node3450 -->
<g id="node1" class="node"><title>Node3450</title>
<polygon fill="#bfbfbf" stroke="black" points="0,-33 0,-63 115,-63 115,-33 0,-33"/>
<text text-anchor="start" x="8" y="-51" font-family="Helvetica,sans-Serif" font-size="10.00">Eigen::internal::pmin</text>
<text text-anchor="middle" x="57.5" y="-40" font-family="Helvetica,sans-Serif" font-size="10.00">&lt; Packet2d &gt;</text>
</g>
<!-- Node3451 -->
<g id="node2" class="node"><title>Node3451</title>
<g id="a_node2"><a xlink:href="namespaceEigen_1_1internal.html#a2636173af6863de34e156dfbf6ed6301" target="_top" xlink:title="Eigen::internal::pabs\l\&lt; Packet4f \&gt;">
<polygon fill="none" stroke="black" points="156.5,-77 156.5,-107 270.5,-107 270.5,-77 156.5,-77"/>
<text text-anchor="start" x="164.5" y="-95" font-family="Helvetica,sans-Serif" font-size="10.00">Eigen::internal::pabs</text>
<text text-anchor="middle" x="213.5" y="-84" font-family="Helvetica,sans-Serif" font-size="10.00">&lt; Packet4f &gt;</text>
</a>
</g>
</g>
<!-- Node3450&#45;&gt;Node3451 -->
<g id="edge1" class="edge"><title>Node3450&#45;&gt;Node3451</title>
<path fill="none" stroke="midnightblue" d="M120.841,-65.8118C133.803,-69.515 147.339,-73.3827 159.908,-76.9738"/>
<polygon fill="midnightblue" stroke="midnightblue" points="121.644,-62.4012 111.067,-63.0192 119.721,-69.1319 121.644,-62.4012"/>
</g>
<!-- Node3452 -->
<g id="node3" class="node"><title>Node3452</title>
<g id="a_node3"><a xlink:href="namespaceEigen_1_1internal.html#abaadd9aa6aafdf268f71646684340302" target="_top" xlink:title="Eigen::internal::pblend">
<polygon fill="none" stroke="black" points="152,-38.5 152,-57.5 275,-57.5 275,-38.5 152,-38.5"/>
<text text-anchor="middle" x="213.5" y="-45.5" font-family="Helvetica,sans-Serif" font-size="10.00">Eigen::internal::pblend</text>
</a>
</g>
</g>
<!-- Node3450&#45;&gt;Node3452 -->
<g id="edge2" class="edge"><title>Node3450&#45;&gt;Node3452</title>
<path fill="none" stroke="midnightblue" d="M125.591,-48C134.359,-48 143.301,-48 151.952,-48"/>
<polygon fill="midnightblue" stroke="midnightblue" points="125.406,-44.5001 115.406,-48 125.406,-51.5001 125.406,-44.5001"/>
</g>
<!-- Node3453 -->
<g id="node4" class="node"><title>Node3453</title>
<g id="a_node4"><a xlink:href="namespaceEigen_1_1internal.html#abdf0ea7e126fdf116b7e4d9200f7a90f" target="_top" xlink:title="Eigen::internal::pmadd">
<polygon fill="none" stroke="black" points="151,-0.5 151,-19.5 276,-19.5 276,-0.5 151,-0.5"/>
<text text-anchor="middle" x="213.5" y="-7.5" font-family="Helvetica,sans-Serif" font-size="10.00">Eigen::internal::pmadd</text>
</a>
</g>
</g>
<!-- Node3450&#45;&gt;Node3453 -->
<g id="edge3" class="edge"><title>Node3450&#45;&gt;Node3453</title>
<path fill="none" stroke="midnightblue" d="M125.525,-31.4613C141.948,-27.4089 158.987,-23.2045 173.585,-19.6024"/>
<polygon fill="midnightblue" stroke="midnightblue" points="124.277,-28.1643 115.406,-33.9582 125.954,-34.9605 124.277,-28.1643"/>
</g>
</g>
</svg>
