<?xml version="1.0" encoding="UTF-8" standalone="no"?>
<!DOCTYPE svg PUBLIC "-//W3C//DTD SVG 1.1//EN"
 "http://www.w3.org/Graphics/SVG/1.1/DTD/svg11.dtd">
<!-- Generated by graphviz version 2.38.0 (20140413.2041)
 -->
<!-- Title: Eigen::internal::matrix_function_find_cluster Pages: 1 -->
<svg width="542pt" height="50pt"
 viewBox="0.00 0.00 542.00 50.00" xmlns="http://www.w3.org/2000/svg" xmlns:xlink="http://www.w3.org/1999/xlink">
<g id="graph0" class="graph" transform="scale(1 1) rotate(0) translate(4 46)">
<title>Eigen::internal::matrix_function_find_cluster</title>
<!-- Node1074 -->
<g id="node1" class="node"><title>Node1074</title>
<polygon fill="#bfbfbf" stroke="black" points="0,-6 0,-36 122,-36 122,-6 0,-6"/>
<text text-anchor="start" x="8" y="-24" font-family="Helvetica,sans-Serif" font-size="10.00">Eigen::internal::matrix</text>
<text text-anchor="middle" x="61" y="-13" font-family="Helvetica,sans-Serif" font-size="10.00">_function_find_cluster</text>
</g>
<!-- Node1075 -->
<g id="node2" class="node"><title>Node1075</title>
<g id="a_node2"><a xlink:href="namespaceEigen_1_1internal.html#a9291a6ab4fe0ad1346049a8f2feddeaa" target="_top" xlink:title="Partition eigenvalues in clusters of ei&#39;vals close to each other. ">
<polygon fill="none" stroke="black" points="158,-6 158,-36 325,-36 325,-6 158,-6"/>
<text text-anchor="start" x="166" y="-24" font-family="Helvetica,sans-Serif" font-size="10.00">Eigen::internal::matrix</text>
<text text-anchor="middle" x="241.5" y="-13" font-family="Helvetica,sans-Serif" font-size="10.00">_function_partition_eigenvalues</text>
</a>
</g>
</g>
<!-- Node1074&#45;&gt;Node1075 -->
<g id="edge1" class="edge"><title>Node1074&#45;&gt;Node1075</title>
<path fill="none" stroke="midnightblue" d="M132.499,-21C140.863,-21 149.457,-21 157.969,-21"/>
<polygon fill="midnightblue" stroke="midnightblue" points="132.432,-17.5001 122.432,-21 132.432,-24.5001 132.432,-17.5001"/>
</g>
<!-- Node1076 -->
<g id="node3" class="node"><title>Node1076</title>
<g id="a_node3"><a xlink:href="structEigen_1_1internal_1_1matrix__function__compute_3_01MatrixType_00_011_01_4.html#ad6c56b11de78e66a39194b001045298a" target="_top" xlink:title="Eigen::internal::matrix\l_function_compute\&lt; MatrixType,\l 1 \&gt;::run">
<polygon fill="none" stroke="black" points="361,-0.5 361,-41.5 534,-41.5 534,-0.5 361,-0.5"/>
<text text-anchor="start" x="369" y="-29.5" font-family="Helvetica,sans-Serif" font-size="10.00">Eigen::internal::matrix</text>
<text text-anchor="start" x="369" y="-18.5" font-family="Helvetica,sans-Serif" font-size="10.00">_function_compute&lt; MatrixType,</text>
<text text-anchor="middle" x="447.5" y="-7.5" font-family="Helvetica,sans-Serif" font-size="10.00"> 1 &gt;::run</text>
</a>
</g>
</g>
<!-- Node1075&#45;&gt;Node1076 -->
<g id="edge2" class="edge"><title>Node1075&#45;&gt;Node1076</title>
<path fill="none" stroke="midnightblue" d="M335.406,-21C343.835,-21 352.348,-21 360.712,-21"/>
<polygon fill="midnightblue" stroke="midnightblue" points="335.181,-17.5001 325.181,-21 335.18,-24.5001 335.181,-17.5001"/>
</g>
</g>
</svg>
