<?xml version="1.0" encoding="UTF-8" standalone="no"?>
<!DOCTYPE svg PUBLIC "-//W3C//DTD SVG 1.1//EN"
 "http://www.w3.org/Graphics/SVG/1.1/DTD/svg11.dtd">
<!-- Generated by graphviz version 2.38.0 (20140413.2041)
 -->
<!-- Title: Eigen::internal::predux_downto4 Pages: 1 -->
<svg width="417pt" height="78pt"
 viewBox="0.00 0.00 417.00 77.50" xmlns="http://www.w3.org/2000/svg" xmlns:xlink="http://www.w3.org/1999/xlink">
<g id="graph0" class="graph" transform="scale(1 1) rotate(0) translate(4 73.5)">
<title>Eigen::internal::predux_downto4</title>
<!-- Node3908 -->
<g id="node1" class="node"><title>Node3908</title>
<polygon fill="#bfbfbf" stroke="black" points="0,-17 0,-47 124,-47 124,-17 0,-17"/>
<text text-anchor="start" x="8" y="-35" font-family="Helvetica,sans-Serif" font-size="10.00">Eigen::internal::predux</text>
<text text-anchor="middle" x="62" y="-24" font-family="Helvetica,sans-Serif" font-size="10.00">_downto4</text>
</g>
<!-- Node3909 -->
<g id="node2" class="node"><title>Node3909</title>
<g id="a_node2"><a xlink:href="structEigen_1_1internal_1_1gebp__kernel.html#afd8f51fe544ebb1106bbae9698f8a1de" target="_top" xlink:title="Eigen::internal::gebp\l_kernel::operator()">
<polygon fill="none" stroke="black" points="160,-39 160,-69 275,-69 275,-39 160,-39"/>
<text text-anchor="start" x="168" y="-57" font-family="Helvetica,sans-Serif" font-size="10.00">Eigen::internal::gebp</text>
<text text-anchor="middle" x="217.5" y="-46" font-family="Helvetica,sans-Serif" font-size="10.00">_kernel::operator()</text>
</a>
</g>
</g>
<!-- Node3908&#45;&gt;Node3909 -->
<g id="edge1" class="edge"><title>Node3908&#45;&gt;Node3909</title>
<path fill="none" stroke="midnightblue" d="M134.079,-42.1872C142.631,-43.4129 151.278,-44.6522 159.591,-45.8437"/>
<polygon fill="midnightblue" stroke="midnightblue" points="134.504,-38.7124 124.108,-40.7582 133.511,-45.6416 134.504,-38.7124"/>
</g>
<!-- Node3910 -->
<g id="node3" class="node"><title>Node3910</title>
<g id="a_node3"><a xlink:href="packetmath_8cpp.html#a517110e4796d1bac787500a5b23f9bbe" target="_top" xlink:title="packetmath">
<polygon fill="none" stroke="black" points="180.5,-0.5 180.5,-19.5 254.5,-19.5 254.5,-0.5 180.5,-0.5"/>
<text text-anchor="middle" x="217.5" y="-7.5" font-family="Helvetica,sans-Serif" font-size="10.00">packetmath</text>
</a>
</g>
</g>
<!-- Node3908&#45;&gt;Node3910 -->
<g id="edge2" class="edge"><title>Node3908&#45;&gt;Node3910</title>
<path fill="none" stroke="midnightblue" d="M134.031,-21.8196C150.078,-19.5198 166.46,-17.1719 180.35,-15.1811"/>
<polygon fill="midnightblue" stroke="midnightblue" points="133.511,-18.3584 124.108,-23.2418 134.504,-25.2876 133.511,-18.3584"/>
</g>
<!-- Node3911 -->
<g id="node4" class="node"><title>Node3911</title>
<g id="a_node4"><a xlink:href="packetmath_8cpp.html#a43e3c22d695551e0e3da70b69ce93742" target="_top" xlink:title="test_packetmath">
<polygon fill="none" stroke="black" points="311,-0.5 311,-19.5 409,-19.5 409,-0.5 311,-0.5"/>
<text text-anchor="middle" x="360" y="-7.5" font-family="Helvetica,sans-Serif" font-size="10.00">test_packetmath</text>
</a>
</g>
</g>
<!-- Node3910&#45;&gt;Node3911 -->
<g id="edge3" class="edge"><title>Node3910&#45;&gt;Node3911</title>
<path fill="none" stroke="midnightblue" d="M265.049,-10C279.725,-10 295.964,-10 310.755,-10"/>
<polygon fill="midnightblue" stroke="midnightblue" points="264.682,-6.5001 254.682,-10 264.682,-13.5001 264.682,-6.5001"/>
</g>
</g>
</svg>
