<?xml version="1.0" encoding="UTF-8" standalone="no"?>
<!DOCTYPE svg PUBLIC "-//W3C//DTD SVG 1.1//EN"
 "http://www.w3.org/Graphics/SVG/1.1/DTD/svg11.dtd">
<!-- Generated by graphviz version 2.38.0 (20140413.2041)
 -->
<!-- Title: Eigen::operator&lt;&lt; Pages: 1 -->
<svg width="884pt" height="153pt"
 viewBox="0.00 0.00 884.00 153.00" xmlns="http://www.w3.org/2000/svg" xmlns:xlink="http://www.w3.org/1999/xlink">
<g id="graph0" class="graph" transform="scale(1 1) rotate(0) translate(4 149)">
<title>Eigen::operator&lt;&lt;</title>
<!-- Node466 -->
<g id="node1" class="node"><title>Node466</title>
<polygon fill="#bfbfbf" stroke="black" points="0,-76.5 0,-95.5 107,-95.5 107,-76.5 0,-76.5"/>
<text text-anchor="middle" x="53.5" y="-83.5" font-family="Helvetica,sans-Serif" font-size="10.00">Eigen::operator&lt;&lt;</text>
</g>
<!-- Node467 -->
<g id="node2" class="node"><title>Node467</title>
<g id="a_node2"><a xlink:href="sparse__permutations_8cpp.html#ad87822100feba90851ac71ba08fce30b" target="_top" xlink:title="eval">
<polygon fill="none" stroke="black" points="212.5,-95.5 212.5,-114.5 248.5,-114.5 248.5,-95.5 212.5,-95.5"/>
<text text-anchor="middle" x="230.5" y="-102.5" font-family="Helvetica,sans-Serif" font-size="10.00">eval</text>
</a>
</g>
</g>
<!-- Node466&#45;&gt;Node467 -->
<g id="edge1" class="edge"><title>Node466&#45;&gt;Node467</title>
<path fill="none" stroke="midnightblue" d="M107.006,-91.7006C138.367,-95.1056 176.909,-99.2901 202.286,-102.045"/>
<polygon fill="midnightblue" stroke="midnightblue" points="201.977,-105.532 212.297,-103.132 202.733,-98.5732 201.977,-105.532"/>
</g>
<!-- Node468 -->
<g id="node3" class="node"><title>Node468</title>
<g id="a_node3"><a xlink:href="structEigen_1_1internal_1_1TensorPrinter.html#a8021cfd7526ef9baf49379ff95465ab2" target="_top" xlink:title="Eigen::internal::TensorPrinter::run">
<polygon fill="none" stroke="black" points="143,-57.5 143,-76.5 318,-76.5 318,-57.5 143,-57.5"/>
<text text-anchor="middle" x="230.5" y="-64.5" font-family="Helvetica,sans-Serif" font-size="10.00">Eigen::internal::TensorPrinter::run</text>
</a>
</g>
</g>
<!-- Node466&#45;&gt;Node468 -->
<g id="edge2" class="edge"><title>Node466&#45;&gt;Node468</title>
<path fill="none" stroke="midnightblue" d="M107.006,-80.2994C115.272,-79.4019 124.036,-78.4503 132.927,-77.485"/>
<polygon fill="midnightblue" stroke="midnightblue" points="133.436,-80.9505 142.999,-76.3915 132.68,-73.9914 133.436,-80.9505"/>
</g>
<!-- Node469 -->
<g id="node4" class="node"><title>Node469</title>
<g id="a_node4"><a xlink:href="namespaceEigen_1_1internal.html#a3b99e338d92a91c8b3f89d32d0ca2c39" target="_top" xlink:title="Eigen::internal::array_prod">
<polygon fill="none" stroke="black" points="354,-114.5 354,-133.5 497,-133.5 497,-114.5 354,-114.5"/>
<text text-anchor="middle" x="425.5" y="-121.5" font-family="Helvetica,sans-Serif" font-size="10.00">Eigen::internal::array_prod</text>
</a>
</g>
</g>
<!-- Node468&#45;&gt;Node469 -->
<g id="edge3" class="edge"><title>Node468&#45;&gt;Node469</title>
<path fill="none" stroke="midnightblue" d="M285.669,-76.5469C296.53,-79.1147 307.749,-82.2473 318,-86 334.989,-92.2192 337.162,-98.383 354,-105 360.183,-107.43 366.789,-109.661 373.385,-111.673"/>
<polygon fill="midnightblue" stroke="midnightblue" points="372.414,-115.035 382.993,-114.462 374.365,-108.313 372.414,-115.035"/>
</g>
<!-- Node472 -->
<g id="node7" class="node"><title>Node472</title>
<g id="a_node7"><a xlink:href="classEigen_1_1Tensor.html#a2aae1ea69ec73eab862d4534ee00dac6" target="_top" xlink:title="Eigen::Tensor::dimensions">
<polygon fill="none" stroke="black" points="355.5,-76.5 355.5,-95.5 495.5,-95.5 495.5,-76.5 355.5,-76.5"/>
<text text-anchor="middle" x="425.5" y="-83.5" font-family="Helvetica,sans-Serif" font-size="10.00">Eigen::Tensor::dimensions</text>
</a>
</g>
</g>
<!-- Node468&#45;&gt;Node472 -->
<g id="edge6" class="edge"><title>Node468&#45;&gt;Node472</title>
<path fill="none" stroke="midnightblue" d="M318.12,-75.5274C327.149,-76.4162 336.294,-77.3165 345.234,-78.1966"/>
<polygon fill="midnightblue" stroke="midnightblue" points="344.93,-81.6835 355.225,-79.1802 345.616,-74.7172 344.93,-81.6835"/>
</g>
<!-- Node473 -->
<g id="node8" class="node"><title>Node473</title>
<g id="a_node8"><a xlink:href="common_8h.html#a94360d20ee722c1bcb23e5b2fbba8554" target="_top" xlink:title="matrix">
<polygon fill="none" stroke="black" points="402,-38.5 402,-57.5 449,-57.5 449,-38.5 402,-38.5"/>
<text text-anchor="middle" x="425.5" y="-45.5" font-family="Helvetica,sans-Serif" font-size="10.00">matrix</text>
</a>
</g>
</g>
<!-- Node468&#45;&gt;Node473 -->
<g id="edge7" class="edge"><title>Node468&#45;&gt;Node473</title>
<path fill="none" stroke="midnightblue" d="M318.12,-58.4726C344.404,-55.8851 371.675,-53.2004 392.024,-51.1971"/>
<polygon fill="midnightblue" stroke="midnightblue" points="392.384,-54.6787 401.993,-50.2157 391.698,-47.7124 392.384,-54.6787"/>
</g>
<!-- Node474 -->
<g id="node9" class="node"><title>Node474</title>
<g id="a_node9"><a xlink:href="classEigen_1_1Tensor.html#ae09663818399750cf150181aaed47b99" target="_top" xlink:title="Eigen::Tensor::data">
<polygon fill="none" stroke="black" points="372,-0.5 372,-19.5 479,-19.5 479,-0.5 372,-0.5"/>
<text text-anchor="middle" x="425.5" y="-7.5" font-family="Helvetica,sans-Serif" font-size="10.00">Eigen::Tensor::data</text>
</a>
</g>
</g>
<!-- Node468&#45;&gt;Node474 -->
<g id="edge8" class="edge"><title>Node468&#45;&gt;Node474</title>
<path fill="none" stroke="midnightblue" d="M261.111,-57.473C285.863,-49.5914 322.133,-38.2333 354,-29 361.877,-26.7177 370.275,-24.3755 378.428,-22.1494"/>
<polygon fill="midnightblue" stroke="midnightblue" points="379.462,-25.4956 388.2,-19.5036 377.633,-18.7389 379.462,-25.4956"/>
</g>
<!-- Node470 -->
<g id="node5" class="node"><title>Node470</title>
<g id="a_node5"><a xlink:href="structEigen_1_1internal_1_1fixed__size__tensor__index__linearization__helper.html#ad9f850bf5d539ce2ceb45a27e8ae4975" target="_top" xlink:title="Eigen::internal::fixed\l_size_tensor_index_linearization\l_helper::run">
<polygon fill="none" stroke="black" points="533,-103.5 533,-144.5 703,-144.5 703,-103.5 533,-103.5"/>
<text text-anchor="start" x="541" y="-132.5" font-family="Helvetica,sans-Serif" font-size="10.00">Eigen::internal::fixed</text>
<text text-anchor="start" x="541" y="-121.5" font-family="Helvetica,sans-Serif" font-size="10.00">_size_tensor_index_linearization</text>
<text text-anchor="middle" x="618" y="-110.5" font-family="Helvetica,sans-Serif" font-size="10.00">_helper::run</text>
</a>
</g>
</g>
<!-- Node469&#45;&gt;Node470 -->
<g id="edge4" class="edge"><title>Node469&#45;&gt;Node470</title>
<path fill="none" stroke="midnightblue" d="M497.164,-124C505.536,-124 514.18,-124 522.812,-124"/>
<polygon fill="midnightblue" stroke="midnightblue" points="522.923,-127.5 532.923,-124 522.923,-120.5 522.923,-127.5"/>
</g>
<!-- Node471 -->
<g id="node6" class="node"><title>Node471</title>
<g id="a_node6"><a xlink:href="namespaceEigen_1_1internal.html#a7dd131bbd4a892f4d48cfce903de56c5" target="_top" xlink:title="Eigen::internal::array_get">
<polygon fill="none" stroke="black" points="739,-114.5 739,-133.5 876,-133.5 876,-114.5 739,-114.5"/>
<text text-anchor="middle" x="807.5" y="-121.5" font-family="Helvetica,sans-Serif" font-size="10.00">Eigen::internal::array_get</text>
</a>
</g>
</g>
<!-- Node470&#45;&gt;Node471 -->
<g id="edge5" class="edge"><title>Node470&#45;&gt;Node471</title>
<path fill="none" stroke="midnightblue" d="M703.152,-124C711.665,-124 720.285,-124 728.727,-124"/>
<polygon fill="midnightblue" stroke="midnightblue" points="728.916,-127.5 738.916,-124 728.916,-120.5 728.916,-127.5"/>
</g>
</g>
</svg>
