<?xml version="1.0" encoding="UTF-8" standalone="no"?>
<!DOCTYPE svg PUBLIC "-//W3C//DTD SVG 1.1//EN"
 "http://www.w3.org/Graphics/SVG/1.1/DTD/svg11.dtd">
<!-- Generated by graphviz version 2.38.0 (20140413.2041)
 -->
<!-- Title: Eigen::internal::pceil&lt; Packet2d &gt; Pages: 1 -->
<svg width="434pt" height="88pt"
 viewBox="0.00 0.00 434.00 88.00" xmlns="http://www.w3.org/2000/svg" xmlns:xlink="http://www.w3.org/1999/xlink">
<g id="graph0" class="graph" transform="scale(1 1) rotate(0) translate(4 84)">
<title>Eigen::internal::pceil&lt; Packet2d &gt;</title>
<!-- Node2003 -->
<g id="node1" class="node"><title>Node2003</title>
<polygon fill="#bfbfbf" stroke="black" points="0,-24.5 0,-54.5 113,-54.5 113,-24.5 0,-24.5"/>
<text text-anchor="start" x="8" y="-42.5" font-family="Helvetica,sans-Serif" font-size="10.00">Eigen::internal::pceil</text>
<text text-anchor="middle" x="56.5" y="-31.5" font-family="Helvetica,sans-Serif" font-size="10.00">&lt; Packet2d &gt;</text>
</g>
<!-- Node2004 -->
<g id="node2" class="node"><title>Node2004</title>
<g id="a_node2"><a xlink:href="namespaceEigen_1_1internal.html#a7320ad2f9ea3e75c263fa8839b8fd89f" target="_top" xlink:title="Eigen::internal::pfloor\l\&lt; Packet4f \&gt;">
<polygon fill="none" stroke="black" points="149,-24.5 149,-54.5 267,-54.5 267,-24.5 149,-24.5"/>
<text text-anchor="start" x="157" y="-42.5" font-family="Helvetica,sans-Serif" font-size="10.00">Eigen::internal::pfloor</text>
<text text-anchor="middle" x="208" y="-31.5" font-family="Helvetica,sans-Serif" font-size="10.00">&lt; Packet4f &gt;</text>
</a>
</g>
</g>
<!-- Node2003&#45;&gt;Node2004 -->
<g id="edge1" class="edge"><title>Node2003&#45;&gt;Node2004</title>
<path fill="none" stroke="midnightblue" d="M113.168,-39.5C121.431,-39.5 130.027,-39.5 138.515,-39.5"/>
<polygon fill="midnightblue" stroke="midnightblue" points="138.785,-43.0001 148.785,-39.5 138.785,-36.0001 138.785,-43.0001"/>
</g>
<!-- Node2005 -->
<g id="node3" class="node"><title>Node2005</title>
<g id="a_node3"><a xlink:href="namespaceEigen_1_1internal.html#ac7c8e9806e423b61bb6ec916769bd133" target="_top" xlink:title="Eigen::internal::ploadu\l\&lt; Packet4f \&gt;">
<polygon fill="none" stroke="black" points="303,-49.5 303,-79.5 426,-79.5 426,-49.5 303,-49.5"/>
<text text-anchor="start" x="311" y="-67.5" font-family="Helvetica,sans-Serif" font-size="10.00">Eigen::internal::ploadu</text>
<text text-anchor="middle" x="364.5" y="-56.5" font-family="Helvetica,sans-Serif" font-size="10.00">&lt; Packet4f &gt;</text>
</a>
</g>
</g>
<!-- Node2004&#45;&gt;Node2005 -->
<g id="edge2" class="edge"><title>Node2004&#45;&gt;Node2005</title>
<path fill="none" stroke="midnightblue" d="M267.41,-48.9514C275.763,-50.303 284.429,-51.7053 292.984,-53.0896"/>
<polygon fill="midnightblue" stroke="midnightblue" points="292.519,-56.5599 302.95,-54.7023 293.638,-49.6498 292.519,-56.5599"/>
</g>
<!-- Node2006 -->
<g id="node4" class="node"><title>Node2006</title>
<g id="a_node4"><a xlink:href="namespaceEigen_1_1internal.html#a8ca7358422bc5068a529fb12256f17c0" target="_top" xlink:title="Eigen::internal::ploadu\l\&lt; Packet4i \&gt;">
<polygon fill="none" stroke="black" points="303,-0.5 303,-30.5 426,-30.5 426,-0.5 303,-0.5"/>
<text text-anchor="start" x="311" y="-18.5" font-family="Helvetica,sans-Serif" font-size="10.00">Eigen::internal::ploadu</text>
<text text-anchor="middle" x="364.5" y="-7.5" font-family="Helvetica,sans-Serif" font-size="10.00">&lt; Packet4i &gt;</text>
</a>
</g>
</g>
<!-- Node2004&#45;&gt;Node2006 -->
<g id="edge3" class="edge"><title>Node2004&#45;&gt;Node2006</title>
<path fill="none" stroke="midnightblue" d="M267.41,-30.4266C275.763,-29.1291 284.429,-27.7829 292.984,-26.454"/>
<polygon fill="midnightblue" stroke="midnightblue" points="293.606,-29.8994 302.95,-24.9058 292.531,-22.9823 293.606,-29.8994"/>
</g>
</g>
</svg>
