<?xml version="1.0" encoding="UTF-8" standalone="no"?>
<!DOCTYPE svg PUBLIC "-//W3C//DTD SVG 1.1//EN"
 "http://www.w3.org/Graphics/SVG/1.1/DTD/svg11.dtd">
<!-- Generated by graphviz version 2.38.0 (20140413.2041)
 -->
<!-- Title: Eigen::internal::psub&lt; Packet1cd &gt; Pages: 1 -->
<svg width="665pt" height="586pt"
 viewBox="0.00 0.00 665.00 586.00" xmlns="http://www.w3.org/2000/svg" xmlns:xlink="http://www.w3.org/1999/xlink">
<g id="graph0" class="graph" transform="scale(1 1) rotate(0) translate(4 582)">
<title>Eigen::internal::psub&lt; Packet1cd &gt;</title>
<!-- Node4983 -->
<g id="node1" class="node"><title>Node4983</title>
<polygon fill="#bfbfbf" stroke="black" points="0,-482 0,-512 114,-512 114,-482 0,-482"/>
<text text-anchor="start" x="8" y="-500" font-family="Helvetica,sans-Serif" font-size="10.00">Eigen::internal::psub</text>
<text text-anchor="middle" x="57" y="-489" font-family="Helvetica,sans-Serif" font-size="10.00">&lt; Packet1cd &gt;</text>
</g>
<!-- Node4984 -->
<g id="node2" class="node"><title>Node4984</title>
<g id="a_node2"><a xlink:href="structEigen_1_1internal_1_1conj__helper_3_01Packet2cf_00_01Packet2cf_00_01true_00_01true_01_4.html#a6956a6a7b0de2fd58bd9a8ab2e3c25ae" target="_top" xlink:title="Eigen::internal::conj\l_helper\&lt; Packet2cf, Packet2cf,\l true, true \&gt;::pmul">
<polygon fill="none" stroke="black" points="345,-536.5 345,-577.5 509,-577.5 509,-536.5 345,-536.5"/>
<text text-anchor="start" x="353" y="-565.5" font-family="Helvetica,sans-Serif" font-size="10.00">Eigen::internal::conj</text>
<text text-anchor="start" x="353" y="-554.5" font-family="Helvetica,sans-Serif" font-size="10.00">_helper&lt; Packet2cf, Packet2cf,</text>
<text text-anchor="middle" x="427" y="-543.5" font-family="Helvetica,sans-Serif" font-size="10.00"> true, true &gt;::pmul</text>
</a>
</g>
</g>
<!-- Node4983&#45;&gt;Node4984 -->
<g id="edge1" class="edge"><title>Node4983&#45;&gt;Node4984</title>
<path fill="none" stroke="midnightblue" d="M124.327,-507.814C186.171,-517.897 278.572,-532.963 344.804,-543.761"/>
<polygon fill="midnightblue" stroke="midnightblue" points="124.725,-504.333 114.292,-506.178 123.598,-511.242 124.725,-504.333"/>
</g>
<!-- Node4985 -->
<g id="node3" class="node"><title>Node4985</title>
<g id="a_node3"><a xlink:href="namespaceEigen_1_1internal.html#afc41c0196b601e87b2123adfee80c65f" target="_top" xlink:title="Eigen::internal::pscatter\l\&lt; std::complex\&lt; double\l \&gt;, Packet1cd \&gt;">
<polygon fill="none" stroke="black" points="360.5,-476.5 360.5,-517.5 493.5,-517.5 493.5,-476.5 360.5,-476.5"/>
<text text-anchor="start" x="368.5" y="-505.5" font-family="Helvetica,sans-Serif" font-size="10.00">Eigen::internal::pscatter</text>
<text text-anchor="start" x="368.5" y="-494.5" font-family="Helvetica,sans-Serif" font-size="10.00">&lt; std::complex&lt; double</text>
<text text-anchor="middle" x="427" y="-483.5" font-family="Helvetica,sans-Serif" font-size="10.00"> &gt;, Packet1cd &gt;</text>
</a>
</g>
</g>
<!-- Node4983&#45;&gt;Node4985 -->
<g id="edge2" class="edge"><title>Node4983&#45;&gt;Node4985</title>
<path fill="none" stroke="midnightblue" d="M124.297,-497C191.163,-497 293.771,-497 360.39,-497"/>
<polygon fill="midnightblue" stroke="midnightblue" points="124.292,-493.5 114.292,-497 124.292,-500.5 124.292,-493.5"/>
</g>
<!-- Node4986 -->
<g id="node4" class="node"><title>Node4986</title>
<g id="a_node4"><a xlink:href="namespaceEigen_1_1internal.html#a375fca01f8ae80efcba6793f990c7917" target="_top" xlink:title="Eigen::internal::ptranspose">
<polygon fill="none" stroke="black" points="150,-267.5 150,-286.5 295,-286.5 295,-267.5 150,-267.5"/>
<text text-anchor="middle" x="222.5" y="-274.5" font-family="Helvetica,sans-Serif" font-size="10.00">Eigen::internal::ptranspose</text>
</a>
</g>
</g>
<!-- Node4983&#45;&gt;Node4986 -->
<g id="edge3" class="edge"><title>Node4983&#45;&gt;Node4986</title>
<path fill="none" stroke="midnightblue" d="M75.2984,-473.724C110.608,-426.213 189.704,-319.784 214.155,-286.883"/>
<polygon fill="midnightblue" stroke="midnightblue" points="72.3938,-471.765 69.238,-481.879 78.0121,-475.94 72.3938,-471.765"/>
</g>
<!-- Node4986&#45;&gt;Node4984 -->
<g id="edge4" class="edge"><title>Node4986&#45;&gt;Node4984</title>
<path fill="none" stroke="midnightblue" d="M226.294,-296.589C234.008,-343.42 259.948,-462.734 331,-527 335.233,-530.829 339.953,-534.169 344.965,-537.083"/>
<polygon fill="midnightblue" stroke="midnightblue" points="229.729,-295.902 224.742,-286.555 222.812,-296.972 229.729,-295.902"/>
</g>
<!-- Node4986&#45;&gt;Node4985 -->
<g id="edge6" class="edge"><title>Node4986&#45;&gt;Node4985</title>
<path fill="none" stroke="midnightblue" d="M229.163,-296.432C241.336,-334.788 273.642,-420.532 331,-467 339.601,-473.968 349.839,-479.327 360.358,-483.446"/>
<polygon fill="midnightblue" stroke="midnightblue" points="232.411,-295.083 226.142,-286.542 225.716,-297.128 232.411,-295.083"/>
</g>
<!-- Node4987 -->
<g id="node5" class="node"><title>Node4987</title>
<g id="a_node5"><a xlink:href="namespaceEigen_1_1internal.html#a79e630f9d4aa81b60904b7085c99c473" target="_top" xlink:title="Eigen::internal::pcplxflip">
<polygon fill="none" stroke="black" points="362.5,-76.5 362.5,-95.5 491.5,-95.5 491.5,-76.5 362.5,-76.5"/>
<text text-anchor="middle" x="427" y="-83.5" font-family="Helvetica,sans-Serif" font-size="10.00">Eigen::internal::pcplxflip</text>
</a>
</g>
</g>
<!-- Node4986&#45;&gt;Node4987 -->
<g id="edge5" class="edge"><title>Node4986&#45;&gt;Node4987</title>
<path fill="none" stroke="midnightblue" d="M229.844,-257.404C242.68,-221.072 275.346,-143.468 331,-105 340.27,-98.5924 351.195,-94.2373 362.274,-91.2993"/>
<polygon fill="midnightblue" stroke="midnightblue" points="226.396,-256.671 226.493,-267.265 233.024,-258.923 226.396,-256.671"/>
</g>
<!-- Node4988 -->
<g id="node6" class="node"><title>Node4988</title>
<g id="a_node6"><a xlink:href="namespaceEigen_1_1internal.html#a03c68a7844a6c488608dd1fdb91cedfb" target="_top" xlink:title="Eigen::internal::ptranspose">
<polygon fill="none" stroke="black" points="354.5,-38.5 354.5,-57.5 499.5,-57.5 499.5,-38.5 354.5,-38.5"/>
<text text-anchor="middle" x="427" y="-45.5" font-family="Helvetica,sans-Serif" font-size="10.00">Eigen::internal::ptranspose</text>
</a>
</g>
</g>
<!-- Node4986&#45;&gt;Node4988 -->
<g id="edge7" class="edge"><title>Node4986&#45;&gt;Node4988</title>
<path fill="none" stroke="midnightblue" d="M227.552,-257.259C237.303,-215.07 266.228,-115.988 331,-67 337.976,-61.7241 346.037,-57.8076 354.456,-54.9159"/>
<polygon fill="midnightblue" stroke="midnightblue" points="224.111,-256.612 225.385,-267.13 230.948,-258.113 224.111,-256.612"/>
</g>
<!-- Node4989 -->
<g id="node7" class="node"><title>Node4989</title>
<g id="a_node7"><a xlink:href="namespaceEigen_1_1internal.html#abaadd9aa6aafdf268f71646684340302" target="_top" xlink:title="Eigen::internal::pblend">
<polygon fill="none" stroke="black" points="365.5,-0.5 365.5,-19.5 488.5,-19.5 488.5,-0.5 365.5,-0.5"/>
<text text-anchor="middle" x="427" y="-7.5" font-family="Helvetica,sans-Serif" font-size="10.00">Eigen::internal::pblend</text>
</a>
</g>
</g>
<!-- Node4986&#45;&gt;Node4989 -->
<g id="edge8" class="edge"><title>Node4986&#45;&gt;Node4989</title>
<path fill="none" stroke="midnightblue" d="M225.91,-257.056C232.776,-209.47 256.983,-88.8038 331,-29 340.812,-21.072 353.029,-16.1585 365.399,-13.1737"/>
<polygon fill="midnightblue" stroke="midnightblue" points="222.401,-256.886 224.547,-267.261 229.34,-257.812 222.401,-256.886"/>
</g>
<!-- Node4990 -->
<g id="node8" class="node"><title>Node4990</title>
<g id="a_node8"><a xlink:href="structEigen_1_1internal_1_1palign__impl_3_01Offset_00_01Packet2d_01_4.html#a67e74f2cd50ad7d14d1820186da5f752" target="_top" xlink:title="Eigen::internal::palign\l_impl\&lt; Offset, Packet2d\l \&gt;::run">
<polygon fill="none" stroke="black" points="361.5,-416.5 361.5,-457.5 492.5,-457.5 492.5,-416.5 361.5,-416.5"/>
<text text-anchor="start" x="369.5" y="-445.5" font-family="Helvetica,sans-Serif" font-size="10.00">Eigen::internal::palign</text>
<text text-anchor="start" x="369.5" y="-434.5" font-family="Helvetica,sans-Serif" font-size="10.00">_impl&lt; Offset, Packet2d</text>
<text text-anchor="middle" x="427" y="-423.5" font-family="Helvetica,sans-Serif" font-size="10.00"> &gt;::run</text>
</a>
</g>
</g>
<!-- Node4986&#45;&gt;Node4990 -->
<g id="edge9" class="edge"><title>Node4986&#45;&gt;Node4990</title>
<path fill="none" stroke="midnightblue" d="M234.038,-295.617C250.92,-323.793 286.677,-377.139 331,-407 340.18,-413.185 350.708,-418.152 361.336,-422.125"/>
<polygon fill="midnightblue" stroke="midnightblue" points="236.94,-293.646 228.871,-286.78 230.898,-297.18 236.94,-293.646"/>
</g>
<!-- Node4991 -->
<g id="node9" class="node"><title>Node4991</title>
<g id="a_node9"><a xlink:href="namespaceEigen_1_1internal.html#a2636173af6863de34e156dfbf6ed6301" target="_top" xlink:title="Eigen::internal::pabs\l\&lt; Packet4f \&gt;">
<polygon fill="none" stroke="black" points="370,-367 370,-397 484,-397 484,-367 370,-367"/>
<text text-anchor="start" x="378" y="-385" font-family="Helvetica,sans-Serif" font-size="10.00">Eigen::internal::pabs</text>
<text text-anchor="middle" x="427" y="-374" font-family="Helvetica,sans-Serif" font-size="10.00">&lt; Packet4f &gt;</text>
</a>
</g>
</g>
<!-- Node4986&#45;&gt;Node4991 -->
<g id="edge10" class="edge"><title>Node4986&#45;&gt;Node4991</title>
<path fill="none" stroke="midnightblue" d="M241.074,-293.464C261.284,-311.548 296.178,-340.241 331,-357 343.14,-362.843 356.835,-367.46 369.968,-371.052"/>
<polygon fill="midnightblue" stroke="midnightblue" points="243.345,-290.798 233.594,-286.653 238.631,-295.974 243.345,-290.798"/>
</g>
<!-- Node4992 -->
<g id="node10" class="node"><title>Node4992</title>
<g id="a_node10"><a xlink:href="structEigen_1_1internal_1_1gemm__pack__lhs_3_01Scalar_00_01Index_00_01DataMapper_00_01Pack1_00_02096896f571e4dfaad2de53af9b13499.html#af0f474d4d31213df020ad25af0c482d3" target="_top" xlink:title="Eigen::internal::gemm\l_pack_lhs\&lt; Scalar, Index,\l DataMapper, Pack1, Pack2,\l RowMajor, Conjugate, PanelMode\l \&gt;::operator()">
<polygon fill="none" stroke="black" points="339,-284.5 339,-347.5 515,-347.5 515,-284.5 339,-284.5"/>
<text text-anchor="start" x="347" y="-335.5" font-family="Helvetica,sans-Serif" font-size="10.00">Eigen::internal::gemm</text>
<text text-anchor="start" x="347" y="-324.5" font-family="Helvetica,sans-Serif" font-size="10.00">_pack_lhs&lt; Scalar, Index,</text>
<text text-anchor="start" x="347" y="-313.5" font-family="Helvetica,sans-Serif" font-size="10.00"> DataMapper, Pack1, Pack2,</text>
<text text-anchor="start" x="347" y="-302.5" font-family="Helvetica,sans-Serif" font-size="10.00"> RowMajor, Conjugate, PanelMode</text>
<text text-anchor="middle" x="427" y="-291.5" font-family="Helvetica,sans-Serif" font-size="10.00"> &gt;::operator()</text>
</a>
</g>
</g>
<!-- Node4986&#45;&gt;Node4992 -->
<g id="edge11" class="edge"><title>Node4986&#45;&gt;Node4992</title>
<path fill="none" stroke="midnightblue" d="M283.047,-288.468C300.475,-291.825 319.9,-295.566 338.674,-299.182"/>
<polygon fill="midnightblue" stroke="midnightblue" points="283.519,-284.995 273.037,-286.54 282.195,-291.869 283.519,-284.995"/>
</g>
<!-- Node4993 -->
<g id="node11" class="node"><title>Node4993</title>
<g id="a_node11"><a xlink:href="structEigen_1_1internal_1_1gemm__pack__rhs_3_01Scalar_00_01Index_00_01DataMapper_00_01nr_00_01Coa362601eadb4c84345b37afcaba09a6d.html#adecc1d0ef7d3a37b141ab64bd56feaf0" target="_top" xlink:title="Eigen::internal::gemm\l_pack_rhs\&lt; Scalar, Index,\l DataMapper, nr, ColMajor,\l Conjugate, PanelMode \&gt;::operator()">
<polygon fill="none" stroke="black" points="331,-213 331,-265 523,-265 523,-213 331,-213"/>
<text text-anchor="start" x="339" y="-253" font-family="Helvetica,sans-Serif" font-size="10.00">Eigen::internal::gemm</text>
<text text-anchor="start" x="339" y="-242" font-family="Helvetica,sans-Serif" font-size="10.00">_pack_rhs&lt; Scalar, Index,</text>
<text text-anchor="start" x="339" y="-231" font-family="Helvetica,sans-Serif" font-size="10.00"> DataMapper, nr, ColMajor,</text>
<text text-anchor="middle" x="427" y="-220" font-family="Helvetica,sans-Serif" font-size="10.00"> Conjugate, PanelMode &gt;::operator()</text>
</a>
</g>
</g>
<!-- Node4986&#45;&gt;Node4993 -->
<g id="edge12" class="edge"><title>Node4986&#45;&gt;Node4993</title>
<path fill="none" stroke="midnightblue" d="M284.282,-265.594C298.987,-262.835 315.056,-259.819 330.922,-256.842"/>
<polygon fill="midnightblue" stroke="midnightblue" points="283.521,-262.176 274.338,-267.46 284.812,-269.056 283.521,-262.176"/>
</g>
<!-- Node4994 -->
<g id="node12" class="node"><title>Node4994</title>
<g id="a_node12"><a xlink:href="structEigen_1_1internal_1_1inplace__transpose__selector_3_01MatrixType_00_01true_00_01true_01_4.html#ade80113166d3d27b8631ba4549269926" target="_top" xlink:title="Eigen::internal::inplace\l_transpose_selector\&lt; MatrixType,\l true, true \&gt;::run">
<polygon fill="none" stroke="black" points="338,-152.5 338,-193.5 516,-193.5 516,-152.5 338,-152.5"/>
<text text-anchor="start" x="346" y="-181.5" font-family="Helvetica,sans-Serif" font-size="10.00">Eigen::internal::inplace</text>
<text text-anchor="start" x="346" y="-170.5" font-family="Helvetica,sans-Serif" font-size="10.00">_transpose_selector&lt; MatrixType,</text>
<text text-anchor="middle" x="427" y="-159.5" font-family="Helvetica,sans-Serif" font-size="10.00"> true, true &gt;::run</text>
</a>
</g>
</g>
<!-- Node4986&#45;&gt;Node4994 -->
<g id="edge13" class="edge"><title>Node4986&#45;&gt;Node4994</title>
<path fill="none" stroke="midnightblue" d="M243.452,-260.91C264.279,-244.743 298.39,-219.994 331,-204 338.71,-200.218 346.991,-196.74 355.333,-193.59"/>
<polygon fill="midnightblue" stroke="midnightblue" points="241.075,-258.327 235.383,-267.262 245.405,-263.827 241.075,-258.327"/>
</g>
<!-- Node4995 -->
<g id="node13" class="node"><title>Node4995</title>
<g id="a_node13"><a xlink:href="packetmath_8cpp.html#a517110e4796d1bac787500a5b23f9bbe" target="_top" xlink:title="packetmath">
<polygon fill="none" stroke="black" points="390,-114.5 390,-133.5 464,-133.5 464,-114.5 390,-114.5"/>
<text text-anchor="middle" x="427" y="-121.5" font-family="Helvetica,sans-Serif" font-size="10.00">packetmath</text>
</a>
</g>
</g>
<!-- Node4986&#45;&gt;Node4995 -->
<g id="edge14" class="edge"><title>Node4986&#45;&gt;Node4995</title>
<path fill="none" stroke="midnightblue" d="M232.819,-258.445C248.675,-228.921 283.827,-171.666 331,-143 348.536,-132.344 370.934,-127.529 389.577,-125.408"/>
<polygon fill="midnightblue" stroke="midnightblue" points="229.715,-256.828 228.192,-267.313 235.921,-260.066 229.715,-256.828"/>
</g>
<!-- Node4996 -->
<g id="node14" class="node"><title>Node4996</title>
<g id="a_node14"><a xlink:href="packetmath_8cpp.html#a43e3c22d695551e0e3da70b69ce93742" target="_top" xlink:title="test_packetmath">
<polygon fill="none" stroke="black" points="559,-114.5 559,-133.5 657,-133.5 657,-114.5 559,-114.5"/>
<text text-anchor="middle" x="608" y="-121.5" font-family="Helvetica,sans-Serif" font-size="10.00">test_packetmath</text>
</a>
</g>
</g>
<!-- Node4995&#45;&gt;Node4996 -->
<g id="edge15" class="edge"><title>Node4995&#45;&gt;Node4996</title>
<path fill="none" stroke="midnightblue" d="M474.556,-124C500.504,-124 532.762,-124 558.947,-124"/>
<polygon fill="midnightblue" stroke="midnightblue" points="474.223,-120.5 464.223,-124 474.223,-127.5 474.223,-120.5"/>
</g>
</g>
</svg>
