<?xml version="1.0" encoding="UTF-8" standalone="no"?>
<!DOCTYPE svg PUBLIC "-//W3C//DTD SVG 1.1//EN"
 "http://www.w3.org/Graphics/SVG/1.1/DTD/svg11.dtd">
<!-- Generated by graphviz version 2.38.0 (20140413.2041)
 -->
<!-- Title: Eigen::internal::pload&lt; Packet2cf &gt; Pages: 1 -->
<svg width="298pt" height="88pt"
 viewBox="0.00 0.00 298.00 88.00" xmlns="http://www.w3.org/2000/svg" xmlns:xlink="http://www.w3.org/1999/xlink">
<g id="graph0" class="graph" transform="scale(1 1) rotate(0) translate(4 84)">
<title>Eigen::internal::pload&lt; Packet2cf &gt;</title>
<!-- Node2770 -->
<g id="node1" class="node"><title>Node2770</title>
<polygon fill="#bfbfbf" stroke="black" points="0,-24.5 0,-54.5 117,-54.5 117,-24.5 0,-24.5"/>
<text text-anchor="start" x="8" y="-42.5" font-family="Helvetica,sans-Serif" font-size="10.00">Eigen::internal::pload</text>
<text text-anchor="middle" x="58.5" y="-31.5" font-family="Helvetica,sans-Serif" font-size="10.00">&lt; Packet2cf &gt;</text>
</g>
<!-- Node2771 -->
<g id="node2" class="node"><title>Node2771</title>
<g id="a_node2"><a xlink:href="structEigen_1_1internal_1_1Packet2cf.html#a711d3d975ff2d7978f3098c8b11a68f6" target="_top" xlink:title="Eigen::internal::Packet2cf\l::Packet2cf">
<polygon fill="none" stroke="black" points="153,-49.5 153,-79.5 290,-79.5 290,-49.5 153,-49.5"/>
<text text-anchor="start" x="161" y="-67.5" font-family="Helvetica,sans-Serif" font-size="10.00">Eigen::internal::Packet2cf</text>
<text text-anchor="middle" x="221.5" y="-56.5" font-family="Helvetica,sans-Serif" font-size="10.00">::Packet2cf</text>
</a>
</g>
</g>
<!-- Node2770&#45;&gt;Node2771 -->
<g id="edge1" class="edge"><title>Node2770&#45;&gt;Node2771</title>
<path fill="none" stroke="midnightblue" d="M117.17,-48.455C125.471,-49.7439 134.125,-51.0878 142.737,-52.4251"/>
<polygon fill="midnightblue" stroke="midnightblue" points="142.386,-55.9124 152.805,-53.9883 143.46,-48.9953 142.386,-55.9124"/>
</g>
<!-- Node2772 -->
<g id="node3" class="node"><title>Node2772</title>
<g id="a_node3"><a xlink:href="namespaceEigen_1_1internal.html#a63e92b056e3378b0853f510fdb6757b2" target="_top" xlink:title="Eigen::internal::pload\l\&lt; Packet4f \&gt;">
<polygon fill="none" stroke="black" points="163,-0.5 163,-30.5 280,-30.5 280,-0.5 163,-0.5"/>
<text text-anchor="start" x="171" y="-18.5" font-family="Helvetica,sans-Serif" font-size="10.00">Eigen::internal::pload</text>
<text text-anchor="middle" x="221.5" y="-7.5" font-family="Helvetica,sans-Serif" font-size="10.00">&lt; Packet4f &gt;</text>
</a>
</g>
</g>
<!-- Node2770&#45;&gt;Node2772 -->
<g id="edge2" class="edge"><title>Node2770&#45;&gt;Node2772</title>
<path fill="none" stroke="midnightblue" d="M117.17,-30.9032C128.801,-29.1694 141.125,-27.3323 153.056,-25.5537"/>
<polygon fill="midnightblue" stroke="midnightblue" points="153.588,-29.0133 162.962,-24.0771 152.555,-22.0898 153.588,-29.0133"/>
</g>
</g>
</svg>
