<?xml version="1.0" encoding="UTF-8" standalone="no"?>
<!DOCTYPE svg PUBLIC "-//W3C//DTD SVG 1.1//EN"
 "http://www.w3.org/Graphics/SVG/1.1/DTD/svg11.dtd">
<!-- Generated by graphviz version 2.38.0 (20140413.2041)
 -->
<!-- Title: Eigen::internal::predux_mul Pages: 1 -->
<svg width="476pt" height="225pt"
 viewBox="0.00 0.00 476.00 225.00" xmlns="http://www.w3.org/2000/svg" xmlns:xlink="http://www.w3.org/1999/xlink">
<g id="graph0" class="graph" transform="scale(1 1) rotate(0) translate(4 221)">
<title>Eigen::internal::predux_mul</title>
<!-- Node4019 -->
<g id="node1" class="node"><title>Node4019</title>
<polygon fill="#bfbfbf" stroke="black" points="0,-99 0,-118 147,-118 147,-99 0,-99"/>
<text text-anchor="middle" x="73.5" y="-106" font-family="Helvetica,sans-Serif" font-size="10.00">Eigen::internal::predux_mul</text>
</g>
<!-- Node4020 -->
<g id="node2" class="node"><title>Node4020</title>
<g id="a_node2"><a xlink:href="structEigen_1_1internal_1_1ProdReducer.html#a323559d5af0d53d1b36a258a7555958e" target="_top" xlink:title="Eigen::internal::ProdReducer\l::finalizeBoth">
<polygon fill="none" stroke="black" points="183,-186.5 183,-216.5 334,-216.5 334,-186.5 183,-186.5"/>
<text text-anchor="start" x="191" y="-204.5" font-family="Helvetica,sans-Serif" font-size="10.00">Eigen::internal::ProdReducer</text>
<text text-anchor="middle" x="258.5" y="-193.5" font-family="Helvetica,sans-Serif" font-size="10.00">::finalizeBoth</text>
</a>
</g>
</g>
<!-- Node4019&#45;&gt;Node4020 -->
<g id="edge1" class="edge"><title>Node4019&#45;&gt;Node4020</title>
<path fill="none" stroke="midnightblue" d="M95.4897,-124.142C116.691,-139.377 150.822,-162.389 183,-177.5 189.888,-180.735 197.327,-183.703 204.747,-186.366"/>
<polygon fill="midnightblue" stroke="midnightblue" points="97.3826,-121.191 87.2381,-118.134 93.2624,-126.85 97.3826,-121.191"/>
</g>
<!-- Node4021 -->
<g id="node3" class="node"><title>Node4021</title>
<g id="a_node3"><a xlink:href="namespaceEigen_1_1internal.html#a2636173af6863de34e156dfbf6ed6301" target="_top" xlink:title="Eigen::internal::pabs\l\&lt; Packet4f \&gt;">
<polygon fill="none" stroke="black" points="201.5,-137.5 201.5,-167.5 315.5,-167.5 315.5,-137.5 201.5,-137.5"/>
<text text-anchor="start" x="209.5" y="-155.5" font-family="Helvetica,sans-Serif" font-size="10.00">Eigen::internal::pabs</text>
<text text-anchor="middle" x="258.5" y="-144.5" font-family="Helvetica,sans-Serif" font-size="10.00">&lt; Packet4f &gt;</text>
</a>
</g>
</g>
<!-- Node4019&#45;&gt;Node4021 -->
<g id="edge2" class="edge"><title>Node4019&#45;&gt;Node4021</title>
<path fill="none" stroke="midnightblue" d="M124.095,-120.425C147.916,-126.152 176.57,-133.041 201.206,-138.965"/>
<polygon fill="midnightblue" stroke="midnightblue" points="124.749,-116.982 114.208,-118.047 123.113,-123.788 124.749,-116.982"/>
</g>
<!-- Node4022 -->
<g id="node4" class="node"><title>Node4022</title>
<g id="a_node4"><a xlink:href="packetmath_8cpp.html#a517110e4796d1bac787500a5b23f9bbe" target="_top" xlink:title="packetmath">
<polygon fill="none" stroke="black" points="221.5,-99 221.5,-118 295.5,-118 295.5,-99 221.5,-99"/>
<text text-anchor="middle" x="258.5" y="-106" font-family="Helvetica,sans-Serif" font-size="10.00">packetmath</text>
</a>
</g>
</g>
<!-- Node4019&#45;&gt;Node4022 -->
<g id="edge3" class="edge"><title>Node4019&#45;&gt;Node4022</title>
<path fill="none" stroke="midnightblue" d="M157.357,-108.5C179.855,-108.5 203.056,-108.5 221.454,-108.5"/>
<polygon fill="midnightblue" stroke="midnightblue" points="157.089,-105 147.089,-108.5 157.089,-112 157.089,-105"/>
</g>
<!-- Node4024 -->
<g id="node6" class="node"><title>Node4024</title>
<g id="a_node6"><a xlink:href="structEigen_1_1internal_1_1scalar__product__op.html#a5a613968cd8a77c2e7e25feee9ac02a7" target="_top" xlink:title="Eigen::internal::scalar\l_product_op::predux">
<polygon fill="none" stroke="black" points="199,-49.5 199,-79.5 318,-79.5 318,-49.5 199,-49.5"/>
<text text-anchor="start" x="207" y="-67.5" font-family="Helvetica,sans-Serif" font-size="10.00">Eigen::internal::scalar</text>
<text text-anchor="middle" x="258.5" y="-56.5" font-family="Helvetica,sans-Serif" font-size="10.00">_product_op::predux</text>
</a>
</g>
</g>
<!-- Node4019&#45;&gt;Node4024 -->
<g id="edge5" class="edge"><title>Node4019&#45;&gt;Node4024</title>
<path fill="none" stroke="midnightblue" d="M124.11,-96.5719C147.14,-91.0346 174.686,-84.4116 198.75,-78.6257"/>
<polygon fill="midnightblue" stroke="midnightblue" points="123.113,-93.2118 114.208,-98.9527 124.749,-100.018 123.113,-93.2118"/>
</g>
<!-- Node4025 -->
<g id="node7" class="node"><title>Node4025</title>
<g id="a_node7"><a xlink:href="namespaceEigen_1_1internal.html#a9c50aecd61dc9f87fb584165e99adb46" target="_top" xlink:title="Eigen::internal::predux\l_mul\&lt; Packet4cf \&gt;">
<polygon fill="none" stroke="black" points="196.5,-0.5 196.5,-30.5 320.5,-30.5 320.5,-0.5 196.5,-0.5"/>
<text text-anchor="start" x="204.5" y="-18.5" font-family="Helvetica,sans-Serif" font-size="10.00">Eigen::internal::predux</text>
<text text-anchor="middle" x="258.5" y="-7.5" font-family="Helvetica,sans-Serif" font-size="10.00">_mul&lt; Packet4cf &gt;</text>
</a>
</g>
</g>
<!-- Node4019&#45;&gt;Node4025 -->
<g id="edge6" class="edge"><title>Node4019&#45;&gt;Node4025</title>
<path fill="none" stroke="midnightblue" d="M95.9164,-92.943C117.199,-78.0071 151.173,-55.5537 183,-40.5 190.646,-36.8834 198.959,-33.5522 207.166,-30.5803"/>
<polygon fill="midnightblue" stroke="midnightblue" points="93.7404,-90.1954 87.6153,-98.8403 97.7946,-95.902 93.7404,-90.1954"/>
</g>
<!-- Node4023 -->
<g id="node5" class="node"><title>Node4023</title>
<g id="a_node5"><a xlink:href="packetmath_8cpp.html#a43e3c22d695551e0e3da70b69ce93742" target="_top" xlink:title="test_packetmath">
<polygon fill="none" stroke="black" points="370,-99 370,-118 468,-118 468,-99 370,-99"/>
<text text-anchor="middle" x="419" y="-106" font-family="Helvetica,sans-Serif" font-size="10.00">test_packetmath</text>
</a>
</g>
</g>
<!-- Node4022&#45;&gt;Node4023 -->
<g id="edge4" class="edge"><title>Node4022&#45;&gt;Node4023</title>
<path fill="none" stroke="midnightblue" d="M306.011,-108.5C326.075,-108.5 349.536,-108.5 369.786,-108.5"/>
<polygon fill="midnightblue" stroke="midnightblue" points="305.863,-105 295.863,-108.5 305.863,-112 305.863,-105"/>
</g>
</g>
</svg>
