<?xml version="1.0" encoding="UTF-8" standalone="no"?>
<!DOCTYPE svg PUBLIC "-//W3C//DTD SVG 1.1//EN"
 "http://www.w3.org/Graphics/SVG/1.1/DTD/svg11.dtd">
<!-- Generated by graphviz version 2.38.0 (20140413.2041)
 -->
<!-- Title: Eigen::internal::pdiv&lt; Packet2cf &gt; Pages: 1 -->
<svg width="291pt" height="214pt"
 viewBox="0.00 0.00 291.00 214.00" xmlns="http://www.w3.org/2000/svg" xmlns:xlink="http://www.w3.org/1999/xlink">
<g id="graph0" class="graph" transform="scale(1 1) rotate(0) translate(4 210)">
<title>Eigen::internal::pdiv&lt; Packet2cf &gt;</title>
<!-- Node2243 -->
<g id="node1" class="node"><title>Node2243</title>
<polygon fill="#bfbfbf" stroke="black" points="0,-82.5 0,-112.5 110,-112.5 110,-82.5 0,-82.5"/>
<text text-anchor="start" x="8" y="-100.5" font-family="Helvetica,sans-Serif" font-size="10.00">Eigen::internal::pdiv</text>
<text text-anchor="middle" x="55" y="-89.5" font-family="Helvetica,sans-Serif" font-size="10.00">&lt; Packet2cf &gt;</text>
</g>
<!-- Node2244 -->
<g id="node2" class="node"><title>Node2244</title>
<g id="a_node2"><a xlink:href="structEigen_1_1internal_1_1Packet2cf.html#a711d3d975ff2d7978f3098c8b11a68f6" target="_top" xlink:title="Eigen::internal::Packet2cf\l::Packet2cf">
<polygon fill="none" stroke="black" points="146,-175.5 146,-205.5 283,-205.5 283,-175.5 146,-175.5"/>
<text text-anchor="start" x="154" y="-193.5" font-family="Helvetica,sans-Serif" font-size="10.00">Eigen::internal::Packet2cf</text>
<text text-anchor="middle" x="214.5" y="-182.5" font-family="Helvetica,sans-Serif" font-size="10.00">::Packet2cf</text>
</a>
</g>
</g>
<!-- Node2243&#45;&gt;Node2244 -->
<g id="edge1" class="edge"><title>Node2243&#45;&gt;Node2244</title>
<path fill="none" stroke="midnightblue" d="M72.4772,-112.7C89.7324,-127.974 118.149,-151.363 146,-166.5 149.099,-168.184 152.34,-169.79 155.653,-171.314"/>
<polygon fill="midnightblue" stroke="midnightblue" points="154.554,-174.651 165.124,-175.389 157.321,-168.221 154.554,-174.651"/>
</g>
<!-- Node2245 -->
<g id="node3" class="node"><title>Node2245</title>
<g id="a_node3"><a xlink:href="namespaceEigen_1_1internal.html#a1b00ef4c11d9b491edfbee232e5bea00" target="_top" xlink:title="Eigen::internal::padd\l\&lt; Packet4f \&gt;">
<polygon fill="none" stroke="black" points="157,-126.5 157,-156.5 272,-156.5 272,-126.5 157,-126.5"/>
<text text-anchor="start" x="165" y="-144.5" font-family="Helvetica,sans-Serif" font-size="10.00">Eigen::internal::padd</text>
<text text-anchor="middle" x="214.5" y="-133.5" font-family="Helvetica,sans-Serif" font-size="10.00">&lt; Packet4f &gt;</text>
</a>
</g>
</g>
<!-- Node2243&#45;&gt;Node2245 -->
<g id="edge2" class="edge"><title>Node2243&#45;&gt;Node2245</title>
<path fill="none" stroke="midnightblue" d="M109.762,-112.519C122.615,-116.11 136.46,-119.978 149.716,-123.681"/>
<polygon fill="midnightblue" stroke="midnightblue" points="149.14,-127.154 159.713,-126.474 151.024,-120.412 149.14,-127.154"/>
</g>
<!-- Node2246 -->
<g id="node4" class="node"><title>Node2246</title>
<g id="a_node4"><a xlink:href="namespaceEigen_1_1internal.html#a462e918f3381d435028a0decd5485844" target="_top" xlink:title="Eigen::internal::pdiv">
<polygon fill="none" stroke="black" points="159.5,-88 159.5,-107 269.5,-107 269.5,-88 159.5,-88"/>
<text text-anchor="middle" x="214.5" y="-95" font-family="Helvetica,sans-Serif" font-size="10.00">Eigen::internal::pdiv</text>
</a>
</g>
</g>
<!-- Node2243&#45;&gt;Node2246 -->
<g id="edge3" class="edge"><title>Node2243&#45;&gt;Node2246</title>
<path fill="none" stroke="midnightblue" d="M110.203,-97.5C122.771,-97.5 136.266,-97.5 149.22,-97.5"/>
<polygon fill="midnightblue" stroke="midnightblue" points="149.464,-101 159.464,-97.5 149.464,-94.0001 149.464,-101"/>
</g>
<!-- Node2247 -->
<g id="node5" class="node"><title>Node2247</title>
<g id="a_node5"><a xlink:href="namespaceEigen_1_1internal.html#a776f5f4b514ecaed2a98db928b8f745f" target="_top" xlink:title="Eigen::internal::pmul">
<polygon fill="none" stroke="black" points="157,-50 157,-69 272,-69 272,-50 157,-50"/>
<text text-anchor="middle" x="214.5" y="-57" font-family="Helvetica,sans-Serif" font-size="10.00">Eigen::internal::pmul</text>
</a>
</g>
</g>
<!-- Node2243&#45;&gt;Node2247 -->
<g id="edge4" class="edge"><title>Node2243&#45;&gt;Node2247</title>
<path fill="none" stroke="midnightblue" d="M110.203,-84.4226C127.757,-80.1872 147.12,-75.5155 164.291,-71.3726"/>
<polygon fill="midnightblue" stroke="midnightblue" points="165.218,-74.7495 174.118,-69.0017 163.576,-67.9448 165.218,-74.7495"/>
</g>
<!-- Node2248 -->
<g id="node6" class="node"><title>Node2248</title>
<g id="a_node6"><a xlink:href="namespaceEigen_1_1internal.html#a5828d050de45a585645f9a959b52a10c" target="_top" xlink:title="Eigen::internal::pmul\l\&lt; Packet4f \&gt;">
<polygon fill="none" stroke="black" points="157,-0.5 157,-30.5 272,-30.5 272,-0.5 157,-0.5"/>
<text text-anchor="start" x="165" y="-18.5" font-family="Helvetica,sans-Serif" font-size="10.00">Eigen::internal::pmul</text>
<text text-anchor="middle" x="214.5" y="-7.5" font-family="Helvetica,sans-Serif" font-size="10.00">&lt; Packet4f &gt;</text>
</a>
</g>
</g>
<!-- Node2243&#45;&gt;Node2248 -->
<g id="edge5" class="edge"><title>Node2243&#45;&gt;Node2248</title>
<path fill="none" stroke="midnightblue" d="M77.0813,-82.3579C94.866,-70.0289 121.302,-52.7252 146,-40.5 150.256,-38.3933 154.736,-36.3613 159.279,-34.428"/>
<polygon fill="midnightblue" stroke="midnightblue" points="160.707,-37.6257 168.643,-30.6064 158.061,-31.1447 160.707,-37.6257"/>
</g>
</g>
</svg>
