<?xml version="1.0" encoding="UTF-8" standalone="no"?>
<!DOCTYPE svg PUBLIC "-//W3C//DTD SVG 1.1//EN"
 "http://www.w3.org/Graphics/SVG/1.1/DTD/svg11.dtd">
<!-- Generated by graphviz version 2.38.0 (20140413.2041)
 -->
<!-- Title: Eigen::internal::etree_find Pages: 1 -->
<!--zoomable 140 -->
<svg id="main" version="1.1" xmlns="http://www.w3.org/2000/svg" xmlns:xlink="http://www.w3.org/1999/xlink" xml:space="preserve" onload="init(evt)">
<style type="text/css"><![CDATA[
.edge:hover path { stroke: red; }
.edge:hover polygon { stroke: red; fill: red; }
]]></style>
<script type="text/javascript"><![CDATA[
var edges = document.getElementsByTagName('g');
if (edges && edges.length) {
  for (var i=0;i<edges.length;i++) {
    if (edges[i].id.substr(0,4)=='edge') {
      edges[i].setAttribute('class','edge');
    }
  }
}
]]></script>
        <defs>
                <circle id="rim" cx="0" cy="0" r="7"/>
                <circle id="rim2" cx="0" cy="0" r="3.5"/>
                <g id="zoomPlus">
                        <use xlink:href="#rim" fill="#404040">
                                <set attributeName="fill" to="#808080" begin="zoomplus.mouseover" end="zoomplus.mouseout"/>
                        </use>
                        <path d="M-4,0h8M0,-4v8" fill="none" stroke="white" stroke-width="1.5" pointer-events="none"/>
                </g>
                <g id="zoomMin">
                        <use xlink:href="#rim" fill="#404040">
                                <set attributeName="fill" to="#808080" begin="zoomminus.mouseover" end="zoomminus.mouseout"/>
                        </use>
                        <path d="M-4,0h8" fill="none" stroke="white" stroke-width="1.5" pointer-events="none"/>
                </g>
                <g id="dirArrow">
                        <path fill="none" stroke="white" stroke-width="1.5" d="M0,-3.0v7 M-2.5,-0.5L0,-3.0L2.5,-0.5"/>
                </g>
               <g id="resetDef">
                       <use xlink:href="#rim2" fill="#404040">
                               <set attributeName="fill" to="#808080" begin="reset.mouseover" end="reset.mouseout"/>
                       </use>
               </g>
        </defs>

<script type="text/javascript">
var viewWidth = 865;
var viewHeight = 140;
var sectionId = 'dynsection-88';
</script>
<script xlink:href="svgpan.js"/>
<svg id="graph" class="graph">
<g id="viewport">
<title>Eigen::internal::etree_find</title>
<!-- Node740 -->
<g id="node1" class="node"><title>Node740</title>
<polygon fill="#bfbfbf" stroke="black" points="0,-44.5 0,-63.5 139,-63.5 139,-44.5 0,-44.5"/>
<text text-anchor="middle" x="69.5" y="-51.5" font-family="Helvetica,sans-Serif" font-size="10.00">Eigen::internal::etree_find</text>
</g>
<!-- Node741 -->
<g id="node2" class="node"><title>Node741</title>
<g id="a_node2"><a xlink:href="namespaceEigen_1_1internal.html#a86181db74ba596a7afbfd89efcc5788c" target="_top" xlink:title="Eigen::internal::coletree">
<polygon fill="none" stroke="black" points="175,-44.5 175,-63.5 305,-63.5 305,-44.5 175,-44.5"/>
<text text-anchor="middle" x="240" y="-51.5" font-family="Helvetica,sans-Serif" font-size="10.00">Eigen::internal::coletree</text>
</a>
</g>
</g>
<!-- Node740&#45;&gt;Node741 -->
<g id="edge1" class="edge"><title>Node740&#45;&gt;Node741</title>
<path fill="none" stroke="midnightblue" d="M149.11,-54C157.741,-54 166.451,-54 174.877,-54"/>
<polygon fill="midnightblue" stroke="midnightblue" points="149.035,-50.5001 139.035,-54 149.035,-57.5001 149.035,-50.5001"/>
</g>
<!-- Node742 -->
<g id="node3" class="node"><title>Node742</title>
<g id="a_node3"><a xlink:href="classEigen_1_1SparseLU.html#aa907ff958c4f4855145091d2686f3a8a" target="_top" xlink:title="Eigen::SparseLU::analyze\lPattern">
<polygon fill="none" stroke="black" points="344,-88 344,-118 481,-118 481,-88 344,-88"/>
<text text-anchor="start" x="352" y="-106" font-family="Helvetica,sans-Serif" font-size="10.00">Eigen::SparseLU::analyze</text>
<text text-anchor="middle" x="412.5" y="-95" font-family="Helvetica,sans-Serif" font-size="10.00">Pattern</text>
</a>
</g>
</g>
<!-- Node741&#45;&gt;Node742 -->
<g id="edge2" class="edge"><title>Node741&#45;&gt;Node742</title>
<path fill="none" stroke="midnightblue" d="M284.028,-66.3657C306.856,-72.9265 335.089,-81.0403 359.178,-87.963"/>
<polygon fill="midnightblue" stroke="midnightblue" points="284.857,-62.9623 274.279,-63.564 282.923,-69.69 284.857,-62.9623"/>
</g>
<!-- Node746 -->
<g id="node7" class="node"><title>Node746</title>
<g id="a_node7"><a xlink:href="classEigen_1_1SparseQR.html#a4b425ddb1358c914d764cde48853a4f6" target="_top" xlink:title="Preprocessing step of a QR factorization. ">
<polygon fill="none" stroke="black" points="343,-39 343,-69 482,-69 482,-39 343,-39"/>
<text text-anchor="start" x="351" y="-57" font-family="Helvetica,sans-Serif" font-size="10.00">Eigen::SparseQR::analyze</text>
<text text-anchor="middle" x="412.5" y="-46" font-family="Helvetica,sans-Serif" font-size="10.00">Pattern</text>
</a>
</g>
</g>
<!-- Node741&#45;&gt;Node746 -->
<g id="edge6" class="edge"><title>Node741&#45;&gt;Node746</title>
<path fill="none" stroke="midnightblue" d="M315.63,-54C324.72,-54 333.973,-54 342.969,-54"/>
<polygon fill="midnightblue" stroke="midnightblue" points="315.459,-50.5001 305.459,-54 315.459,-57.5001 315.459,-50.5001"/>
</g>
<!-- Node747 -->
<g id="node8" class="node"><title>Node747</title>
<g id="a_node8"><a xlink:href="classEigen_1_1SparseQR.html#a55a34bacf05bd30a1dacbccad9f03c6d" target="_top" xlink:title="Performs the numerical QR factorization of the input matrix. ">
<polygon fill="none" stroke="black" points="341,-0.5 341,-19.5 484,-19.5 484,-0.5 341,-0.5"/>
<text text-anchor="middle" x="412.5" y="-7.5" font-family="Helvetica,sans-Serif" font-size="10.00">Eigen::SparseQR::factorize</text>
</a>
</g>
</g>
<!-- Node741&#45;&gt;Node747 -->
<g id="edge7" class="edge"><title>Node741&#45;&gt;Node747</title>
<path fill="none" stroke="midnightblue" d="M287.739,-41.9383C315.084,-34.8815 349.122,-26.0976 374.576,-19.5287"/>
<polygon fill="midnightblue" stroke="midnightblue" points="286.804,-38.5648 277.996,-44.4527 288.553,-45.3428 286.804,-38.5648"/>
</g>
<!-- Node743 -->
<g id="node4" class="node"><title>Node743</title>
<g id="a_node4"><a xlink:href="classEigen_1_1SparseLU.html#a96a8dcb02015ab9be5777d4ba9173266" target="_top" xlink:title="Eigen::SparseLU::compute">
<polygon fill="none" stroke="black" points="526,-112.5 526,-131.5 669,-131.5 669,-112.5 526,-112.5"/>
<text text-anchor="middle" x="597.5" y="-119.5" font-family="Helvetica,sans-Serif" font-size="10.00">Eigen::SparseLU::compute</text>
</a>
</g>
</g>
<!-- Node742&#45;&gt;Node743 -->
<g id="edge3" class="edge"><title>Node742&#45;&gt;Node743</title>
<path fill="none" stroke="midnightblue" d="M491.133,-111.06C502.634,-112.254 514.434,-113.479 525.783,-114.658"/>
<polygon fill="midnightblue" stroke="midnightblue" points="491.431,-107.572 481.123,-110.021 490.708,-114.535 491.431,-107.572"/>
</g>
<!-- Node745 -->
<g id="node6" class="node"><title>Node745</title>
<g id="a_node6"><a xlink:href="classEigen_1_1SparseLU.html#a9f8d0e64ae5bb5568ca091a0dbc8c9dd" target="_top" xlink:title="Eigen::SparseLU::~SparseLU">
<polygon fill="none" stroke="black" points="520,-74.5 520,-93.5 675,-93.5 675,-74.5 520,-74.5"/>
<text text-anchor="middle" x="597.5" y="-81.5" font-family="Helvetica,sans-Serif" font-size="10.00">Eigen::SparseLU::~SparseLU</text>
</a>
</g>
</g>
<!-- Node742&#45;&gt;Node745 -->
<g id="edge5" class="edge"><title>Node742&#45;&gt;Node745</title>
<path fill="none" stroke="midnightblue" d="M491.301,-94.9223C500.773,-93.9389 510.444,-92.9347 519.898,-91.9532"/>
<polygon fill="midnightblue" stroke="midnightblue" points="490.708,-91.465 481.123,-95.9791 491.431,-98.4276 490.708,-91.465"/>
</g>
<!-- Node744 -->
<g id="node5" class="node"><title>Node744</title>
<g id="a_node5"><a xlink:href="classEigen_1_1SparseLU.html#ac1678e57af46b42561cea4f149861164" target="_top" xlink:title="Eigen::SparseLU::SparseLU">
<polygon fill="none" stroke="black" points="711,-112.5 711,-131.5 857,-131.5 857,-112.5 711,-112.5"/>
<text text-anchor="middle" x="784" y="-119.5" font-family="Helvetica,sans-Serif" font-size="10.00">Eigen::SparseLU::SparseLU</text>
</a>
</g>
</g>
<!-- Node743&#45;&gt;Node744 -->
<g id="edge4" class="edge"><title>Node743&#45;&gt;Node744</title>
<path fill="none" stroke="midnightblue" d="M679.121,-122C689.719,-122 700.526,-122 710.969,-122"/>
<polygon fill="midnightblue" stroke="midnightblue" points="679.041,-118.5 669.041,-122 679.041,-125.5 679.041,-118.5"/>
</g>
</g>
</svg>
        <g id="navigator" transform="translate(0 0)" fill="#404254">
                <rect fill="#f2f5e9" fill-opacity="0.5" stroke="#606060" stroke-width=".5" x="0" y="0" width="60" height="60"/>
                <use id="zoomplus" xlink:href="#zoomPlus" x="17" y="9" onmousedown="handleZoom(evt,'in')"/>
                <use id="zoomminus" xlink:href="#zoomMin" x="42" y="9" onmousedown="handleZoom(evt,'out')"/>
                <use id="reset" xlink:href="#resetDef" x="30" y="36" onmousedown="handleReset()"/>
                <g id="arrowUp" xlink:href="#dirArrow" transform="translate(30 24)" onmousedown="handlePan(0,-1)">
                  <use xlink:href="#rim" fill="#404040">
                        <set attributeName="fill" to="#808080" begin="arrowUp.mouseover" end="arrowUp.mouseout"/>
                  </use>
                  <path fill="none" stroke="white" stroke-width="1.5" d="M0,-3.0v7 M-2.5,-0.5L0,-3.0L2.5,-0.5"/>
                </g>
                <g id="arrowRight" xlink:href="#dirArrow" transform="rotate(90) translate(36 -43)" onmousedown="handlePan(1,0)">
                  <use xlink:href="#rim" fill="#404040">
                        <set attributeName="fill" to="#808080" begin="arrowRight.mouseover" end="arrowRight.mouseout"/>
                  </use>
                  <path fill="none" stroke="white" stroke-width="1.5" d="M0,-3.0v7 M-2.5,-0.5L0,-3.0L2.5,-0.5"/>
                </g>
                <g id="arrowDown" xlink:href="#dirArrow" transform="rotate(180) translate(-30 -48)" onmousedown="handlePan(0,1)">
                  <use xlink:href="#rim" fill="#404040">
                        <set attributeName="fill" to="#808080" begin="arrowDown.mouseover" end="arrowDown.mouseout"/>
                  </use>
                  <path fill="none" stroke="white" stroke-width="1.5" d="M0,-3.0v7 M-2.5,-0.5L0,-3.0L2.5,-0.5"/>
                </g>
                <g id="arrowLeft" xlink:href="#dirArrow" transform="rotate(270) translate(-36 17)" onmousedown="handlePan(-1,0)">
                  <use xlink:href="#rim" fill="#404040">
                        <set attributeName="fill" to="#808080" begin="arrowLeft.mouseover" end="arrowLeft.mouseout"/>
                  </use>
                  <path fill="none" stroke="white" stroke-width="1.5" d="M0,-3.0v7 M-2.5,-0.5L0,-3.0L2.5,-0.5"/>
                </g>
        </g>
        <svg viewBox="0 0 15 15" width="100%" height="30px" preserveAspectRatio="xMaxYMin meet">
         <g id="arrow_out" transform="scale(0.3 0.3)">
          <a xlink:href="namespaceEigen_1_1internal_af1daa938f6414254cc9a754f1ef2490b_icgraph_org.svg" target="_base">
           <rect id="button" ry="5" rx="5" y="6" x="6" height="38" width="38"
                fill="#f2f5e9" fill-opacity="0.5" stroke="#606060" stroke-width="1.0"/>
           <path id="arrow"
             d="M 11.500037,31.436501 C 11.940474,20.09759 22.043105,11.32322 32.158766,21.979434 L 37.068811,17.246167 C 37.068811,17.246167 37.088388,32 37.088388,32 L 22.160133,31.978069 C 22.160133,31.978069 26.997745,27.140456 26.997745,27.140456 C 18.528582,18.264221 13.291696,25.230495 11.500037,31.436501 z"
             style="fill:#404040;"/>
          </a>
         </g>
        </svg>
</svg>
