<?xml version="1.0" encoding="UTF-8" standalone="no"?>
<!DOCTYPE svg PUBLIC "-//W3C//DTD SVG 1.1//EN"
 "http://www.w3.org/Graphics/SVG/1.1/DTD/svg11.dtd">
<!-- Generated by graphviz version 2.38.0 (20140413.2041)
 -->
<!-- Title: Eigen::internal::preduxp&lt; Packet2d &gt; Pages: 1 -->
<svg width="311pt" height="116pt"
 viewBox="0.00 0.00 311.00 115.50" xmlns="http://www.w3.org/2000/svg" xmlns:xlink="http://www.w3.org/1999/xlink">
<g id="graph0" class="graph" transform="scale(1 1) rotate(0) translate(4 111.5)">
<title>Eigen::internal::preduxp&lt; Packet2d &gt;</title>
<!-- Node4145 -->
<g id="node1" class="node"><title>Node4145</title>
<polygon fill="#bfbfbf" stroke="black" points="0,-33 0,-63 130,-63 130,-33 0,-33"/>
<text text-anchor="start" x="8" y="-51" font-family="Helvetica,sans-Serif" font-size="10.00">Eigen::internal::preduxp</text>
<text text-anchor="middle" x="65" y="-40" font-family="Helvetica,sans-Serif" font-size="10.00">&lt; Packet2d &gt;</text>
</g>
<!-- Node4146 -->
<g id="node2" class="node"><title>Node4146</title>
<g id="a_node2"><a xlink:href="namespaceEigen_1_1internal.html#a2636173af6863de34e156dfbf6ed6301" target="_top" xlink:title="Eigen::internal::pabs\l\&lt; Packet4f \&gt;">
<polygon fill="none" stroke="black" points="177.5,-77 177.5,-107 291.5,-107 291.5,-77 177.5,-77"/>
<text text-anchor="start" x="185.5" y="-95" font-family="Helvetica,sans-Serif" font-size="10.00">Eigen::internal::pabs</text>
<text text-anchor="middle" x="234.5" y="-84" font-family="Helvetica,sans-Serif" font-size="10.00">&lt; Packet4f &gt;</text>
</a>
</g>
</g>
<!-- Node4145&#45;&gt;Node4146 -->
<g id="edge1" class="edge"><title>Node4145&#45;&gt;Node4146</title>
<path fill="none" stroke="midnightblue" d="M133.197,-65.6518C147.87,-69.5061 163.248,-73.5458 177.433,-77.2719"/>
<polygon fill="midnightblue" stroke="midnightblue" points="133.737,-62.1748 123.176,-63.0192 131.958,-68.9451 133.737,-62.1748"/>
</g>
<!-- Node4147 -->
<g id="node3" class="node"><title>Node4147</title>
<g id="a_node3"><a xlink:href="namespaceEigen_1_1internal.html#abaadd9aa6aafdf268f71646684340302" target="_top" xlink:title="Eigen::internal::pblend">
<polygon fill="none" stroke="black" points="173,-38.5 173,-57.5 296,-57.5 296,-38.5 173,-38.5"/>
<text text-anchor="middle" x="234.5" y="-45.5" font-family="Helvetica,sans-Serif" font-size="10.00">Eigen::internal::pblend</text>
</a>
</g>
</g>
<!-- Node4145&#45;&gt;Node4147 -->
<g id="edge2" class="edge"><title>Node4145&#45;&gt;Node4147</title>
<path fill="none" stroke="midnightblue" d="M140.581,-48C151.416,-48 162.458,-48 172.969,-48"/>
<polygon fill="midnightblue" stroke="midnightblue" points="140.281,-44.5001 130.281,-48 140.281,-51.5001 140.281,-44.5001"/>
</g>
<!-- Node4148 -->
<g id="node4" class="node"><title>Node4148</title>
<g id="a_node4"><a xlink:href="namespaceEigen_1_1internal.html#a62c23ae3be5330c3ba229b9becb68395" target="_top" xlink:title="Eigen::internal::punpackp">
<polygon fill="none" stroke="black" points="166,-0.5 166,-19.5 303,-19.5 303,-0.5 166,-0.5"/>
<text text-anchor="middle" x="234.5" y="-7.5" font-family="Helvetica,sans-Serif" font-size="10.00">Eigen::internal::punpackp</text>
</a>
</g>
</g>
<!-- Node4145&#45;&gt;Node4148 -->
<g id="edge3" class="edge"><title>Node4145&#45;&gt;Node4148</title>
<path fill="none" stroke="midnightblue" d="M140.471,-31.1051C157.924,-27.1455 175.922,-23.0625 191.381,-19.5553"/>
<polygon fill="midnightblue" stroke="midnightblue" points="139.259,-27.7911 130.281,-33.4169 140.807,-34.6176 139.259,-27.7911"/>
</g>
</g>
</svg>
