<?xml version="1.0" encoding="UTF-8" standalone="no"?>
<!DOCTYPE svg PUBLIC "-//W3C//DTD SVG 1.1//EN"
 "http://www.w3.org/Graphics/SVG/1.1/DTD/svg11.dtd">
<!-- Generated by graphviz version 2.38.0 (20140413.2041)
 -->
<!-- Title: Eigen::internal::ploaddup&lt; Packet2d &gt; Pages: 1 -->
<svg width="612pt" height="140pt"
 viewBox="0.00 0.00 612.00 140.00" xmlns="http://www.w3.org/2000/svg" xmlns:xlink="http://www.w3.org/1999/xlink">
<g id="graph0" class="graph" transform="scale(1 1) rotate(0) translate(4 136)">
<title>Eigen::internal::ploaddup&lt; Packet2d &gt;</title>
<!-- Node2927 -->
<g id="node1" class="node"><title>Node2927</title>
<polygon fill="#bfbfbf" stroke="black" points="0,-101.5 0,-131.5 135,-131.5 135,-101.5 0,-101.5"/>
<text text-anchor="start" x="8" y="-119.5" font-family="Helvetica,sans-Serif" font-size="10.00">Eigen::internal::ploaddup</text>
<text text-anchor="middle" x="67.5" y="-108.5" font-family="Helvetica,sans-Serif" font-size="10.00">&lt; Packet2d &gt;</text>
</g>
<!-- Node2928 -->
<g id="node2" class="node"><title>Node2928</title>
<g id="a_node2"><a xlink:href="namespaceEigen_1_1internal.html#abaadd9aa6aafdf268f71646684340302" target="_top" xlink:title="Eigen::internal::pblend">
<polygon fill="none" stroke="black" points="480,-91 480,-110 603,-110 603,-91 480,-91"/>
<text text-anchor="middle" x="541.5" y="-98" font-family="Helvetica,sans-Serif" font-size="10.00">Eigen::internal::pblend</text>
</a>
</g>
</g>
<!-- Node2927&#45;&gt;Node2928 -->
<g id="edge1" class="edge"><title>Node2927&#45;&gt;Node2928</title>
<path fill="none" stroke="midnightblue" d="M145.331,-118.993C153.989,-119.201 162.684,-119.378 171,-119.5 291.928,-121.269 322.466,-121.421 443,-111.5 454.969,-110.515 467.74,-109.238 479.964,-107.905"/>
<polygon fill="midnightblue" stroke="midnightblue" points="145.295,-115.491 135.209,-118.735 145.117,-122.489 145.295,-115.491"/>
</g>
<!-- Node2929 -->
<g id="node3" class="node"><title>Node2929</title>
<g id="a_node3"><a xlink:href="namespaceEigen_1_1internal.html#afcef5b81d59c0cde536eac077cc8e581" target="_top" xlink:title="Eigen::internal::pfloor\l\&lt; Packet2d \&gt;">
<polygon fill="none" stroke="black" points="171,-79.5 171,-109.5 289,-109.5 289,-79.5 171,-79.5"/>
<text text-anchor="start" x="179" y="-97.5" font-family="Helvetica,sans-Serif" font-size="10.00">Eigen::internal::pfloor</text>
<text text-anchor="middle" x="230" y="-86.5" font-family="Helvetica,sans-Serif" font-size="10.00">&lt; Packet2d &gt;</text>
</a>
</g>
</g>
<!-- Node2927&#45;&gt;Node2929 -->
<g id="edge2" class="edge"><title>Node2927&#45;&gt;Node2929</title>
<path fill="none" stroke="midnightblue" d="M145.274,-105.977C153.92,-104.791 162.621,-103.599 170.973,-102.454"/>
<polygon fill="midnightblue" stroke="midnightblue" points="144.604,-102.535 135.172,-107.361 145.555,-109.471 144.604,-102.535"/>
</g>
<!-- Node2929&#45;&gt;Node2928 -->
<g id="edge3" class="edge"><title>Node2929&#45;&gt;Node2928</title>
<path fill="none" stroke="midnightblue" d="M299.387,-95.8258C353.389,-96.8726 428.031,-98.3197 479.904,-99.3253"/>
<polygon fill="midnightblue" stroke="midnightblue" points="299.281,-92.3231 289.215,-95.6286 299.145,-99.3218 299.281,-92.3231"/>
</g>
<!-- Node2930 -->
<g id="node4" class="node"><title>Node2930</title>
<g id="a_node4"><a xlink:href="namespaceEigen_1_1internal.html#aeab59aec7b70a1f67d9f060b55903ceb" target="_top" xlink:title="Eigen::internal::pmax\l\&lt; Packet2d \&gt;">
<polygon fill="none" stroke="black" points="325,-41.5 325,-71.5 443,-71.5 443,-41.5 325,-41.5"/>
<text text-anchor="start" x="333" y="-59.5" font-family="Helvetica,sans-Serif" font-size="10.00">Eigen::internal::pmax</text>
<text text-anchor="middle" x="384" y="-48.5" font-family="Helvetica,sans-Serif" font-size="10.00">&lt; Packet2d &gt;</text>
</a>
</g>
</g>
<!-- Node2929&#45;&gt;Node2930 -->
<g id="edge4" class="edge"><title>Node2929&#45;&gt;Node2930</title>
<path fill="none" stroke="midnightblue" d="M299.264,-77.434C307.798,-75.3005 316.463,-73.1342 324.824,-71.0441"/>
<polygon fill="midnightblue" stroke="midnightblue" points="298.185,-74.096 289.332,-79.9169 299.883,-80.887 298.185,-74.096"/>
</g>
<!-- Node2930&#45;&gt;Node2928 -->
<g id="edge5" class="edge"><title>Node2930&#45;&gt;Node2928</title>
<path fill="none" stroke="midnightblue" d="M447.817,-74.2745C467.929,-79.9654 489.427,-86.0484 506.649,-90.9217"/>
<polygon fill="midnightblue" stroke="midnightblue" points="448.655,-70.8742 438.079,-71.5192 446.749,-77.6098 448.655,-70.8742"/>
</g>
<!-- Node2931 -->
<g id="node5" class="node"><title>Node2931</title>
<g id="a_node5"><a xlink:href="namespaceEigen_1_1internal.html#abdf0ea7e126fdf116b7e4d9200f7a90f" target="_top" xlink:title="Eigen::internal::pmadd">
<polygon fill="none" stroke="black" points="479,-50 479,-69 604,-69 604,-50 479,-50"/>
<text text-anchor="middle" x="541.5" y="-57" font-family="Helvetica,sans-Serif" font-size="10.00">Eigen::internal::pmadd</text>
</a>
</g>
</g>
<!-- Node2930&#45;&gt;Node2931 -->
<g id="edge6" class="edge"><title>Node2930&#45;&gt;Node2931</title>
<path fill="none" stroke="midnightblue" d="M453.562,-57.8227C462.02,-57.9859 470.625,-58.1519 478.97,-58.3129"/>
<polygon fill="midnightblue" stroke="midnightblue" points="453.411,-54.3193 443.345,-57.6256 453.275,-61.318 453.411,-54.3193"/>
</g>
<!-- Node2932 -->
<g id="node6" class="node"><title>Node2932</title>
<g id="a_node6"><a xlink:href="namespaceEigen_1_1internal.html#a2636173af6863de34e156dfbf6ed6301" target="_top" xlink:title="Eigen::internal::pabs\l\&lt; Packet4f \&gt;">
<polygon fill="none" stroke="black" points="484.5,-0.5 484.5,-30.5 598.5,-30.5 598.5,-0.5 484.5,-0.5"/>
<text text-anchor="start" x="492.5" y="-18.5" font-family="Helvetica,sans-Serif" font-size="10.00">Eigen::internal::pabs</text>
<text text-anchor="middle" x="541.5" y="-7.5" font-family="Helvetica,sans-Serif" font-size="10.00">&lt; Packet4f &gt;</text>
</a>
</g>
</g>
<!-- Node2930&#45;&gt;Node2932 -->
<g id="edge7" class="edge"><title>Node2930&#45;&gt;Node2932</title>
<path fill="none" stroke="midnightblue" d="M451.84,-38.8766C462.648,-36.027 473.743,-33.1016 484.266,-30.3268"/>
<polygon fill="midnightblue" stroke="midnightblue" points="450.797,-35.532 442.019,-41.4659 452.581,-42.3007 450.797,-35.532"/>
</g>
</g>
</svg>
