<?xml version="1.0" encoding="UTF-8" standalone="no"?>
<!DOCTYPE svg PUBLIC "-//W3C//DTD SVG 1.1//EN"
 "http://www.w3.org/Graphics/SVG/1.1/DTD/svg11.dtd">
<!-- Generated by graphviz version 2.38.0 (20140413.2041)
 -->
<!-- Title: Eigen::internal::pstore1&lt; Packet16i &gt; Pages: 1 -->
<svg width="470pt" height="215pt"
 viewBox="0.00 0.00 470.00 214.50" xmlns="http://www.w3.org/2000/svg" xmlns:xlink="http://www.w3.org/1999/xlink">
<g id="graph0" class="graph" transform="scale(1 1) rotate(0) translate(4 210.5)">
<title>Eigen::internal::pstore1&lt; Packet16i &gt;</title>
<!-- Node4731 -->
<g id="node1" class="node"><title>Node4731</title>
<polygon fill="#bfbfbf" stroke="black" points="0,-88 0,-118 128,-118 128,-88 0,-88"/>
<text text-anchor="start" x="8" y="-106" font-family="Helvetica,sans-Serif" font-size="10.00">Eigen::internal::pstore1</text>
<text text-anchor="middle" x="64" y="-95" font-family="Helvetica,sans-Serif" font-size="10.00">&lt; Packet16i &gt;</text>
</g>
<!-- Node4732 -->
<g id="node2" class="node"><title>Node4732</title>
<g id="a_node2"><a xlink:href="namespaceEigen_1_1internal.html#afd9b32ea1210628e6993a912fb0f301c" target="_top" xlink:title="Eigen::internal::prefetch\l\&lt; double \&gt;">
<polygon fill="none" stroke="black" points="164,-176 164,-206 295,-206 295,-176 164,-176"/>
<text text-anchor="start" x="172" y="-194" font-family="Helvetica,sans-Serif" font-size="10.00">Eigen::internal::prefetch</text>
<text text-anchor="middle" x="229.5" y="-183" font-family="Helvetica,sans-Serif" font-size="10.00">&lt; double &gt;</text>
</a>
</g>
</g>
<!-- Node4731&#45;&gt;Node4732 -->
<g id="edge1" class="edge"><title>Node4731&#45;&gt;Node4732</title>
<path fill="none" stroke="midnightblue" d="M89.453,-118.199C109.27,-130.302 138.063,-147.409 164,-161 170.693,-164.507 177.872,-168.052 184.921,-171.415"/>
<polygon fill="midnightblue" stroke="midnightblue" points="183.857,-174.783 194.396,-175.87 186.835,-168.448 183.857,-174.783"/>
</g>
<!-- Node4733 -->
<g id="node3" class="node"><title>Node4733</title>
<g id="a_node3"><a xlink:href="namespaceEigen_1_1internal.html#af11b2c02aed99a41cf13ab7c867b5ab2" target="_top" xlink:title="Eigen::internal::prefetch\l\&lt; int \&gt;">
<polygon fill="none" stroke="black" points="331,-154 331,-184 462,-184 462,-154 331,-154"/>
<text text-anchor="start" x="339" y="-172" font-family="Helvetica,sans-Serif" font-size="10.00">Eigen::internal::prefetch</text>
<text text-anchor="middle" x="396.5" y="-161" font-family="Helvetica,sans-Serif" font-size="10.00">&lt; int &gt;</text>
</a>
</g>
</g>
<!-- Node4731&#45;&gt;Node4733 -->
<g id="edge4" class="edge"><title>Node4731&#45;&gt;Node4733</title>
<path fill="none" stroke="midnightblue" d="M121.637,-118.049C135.452,-121.513 150.221,-125.044 164,-128 216.129,-139.183 275.331,-149.628 320.817,-157.177"/>
<polygon fill="midnightblue" stroke="midnightblue" points="320.456,-160.665 330.893,-158.839 321.596,-153.758 320.456,-160.665"/>
</g>
<!-- Node4734 -->
<g id="node4" class="node"><title>Node4734</title>
<g id="a_node4"><a xlink:href="namespaceEigen_1_1internal.html#a84729d9dc9045c5aa096ce1c355da8cc" target="_top" xlink:title="Eigen::internal::prefetch\l\&lt; float \&gt;">
<polygon fill="none" stroke="black" points="164,-88 164,-118 295,-118 295,-88 164,-88"/>
<text text-anchor="start" x="172" y="-106" font-family="Helvetica,sans-Serif" font-size="10.00">Eigen::internal::prefetch</text>
<text text-anchor="middle" x="229.5" y="-95" font-family="Helvetica,sans-Serif" font-size="10.00">&lt; float &gt;</text>
</a>
</g>
</g>
<!-- Node4731&#45;&gt;Node4734 -->
<g id="edge3" class="edge"><title>Node4731&#45;&gt;Node4734</title>
<path fill="none" stroke="midnightblue" d="M128.213,-103C136.518,-103 145.093,-103 153.569,-103"/>
<polygon fill="midnightblue" stroke="midnightblue" points="153.835,-106.5 163.835,-103 153.835,-99.5001 153.835,-106.5"/>
</g>
<!-- Node4735 -->
<g id="node5" class="node"><title>Node4735</title>
<g id="a_node5"><a xlink:href="namespaceEigen_1_1internal.html#a34956597a29e322dc0c92087ef76518e" target="_top" xlink:title="Eigen::internal::pset1\l\&lt; Packet16i \&gt;">
<polygon fill="none" stroke="black" points="170.5,-39 170.5,-69 288.5,-69 288.5,-39 170.5,-39"/>
<text text-anchor="start" x="178.5" y="-57" font-family="Helvetica,sans-Serif" font-size="10.00">Eigen::internal::pset1</text>
<text text-anchor="middle" x="229.5" y="-46" font-family="Helvetica,sans-Serif" font-size="10.00">&lt; Packet16i &gt;</text>
</a>
</g>
</g>
<!-- Node4731&#45;&gt;Node4735 -->
<g id="edge5" class="edge"><title>Node4731&#45;&gt;Node4735</title>
<path fill="none" stroke="midnightblue" d="M115.389,-87.8986C132.096,-82.8917 150.862,-77.2676 168.235,-72.061"/>
<polygon fill="midnightblue" stroke="midnightblue" points="169.703,-75.2751 178.277,-69.0516 167.693,-68.5698 169.703,-75.2751"/>
</g>
<!-- Node4736 -->
<g id="node6" class="node"><title>Node4736</title>
<g id="a_node6"><a xlink:href="namespaceEigen_1_1internal.html#aaab57ef8d873301545ff0afbf2e28458" target="_top" xlink:title="Eigen::internal::pstore">
<polygon fill="none" stroke="black" points="168.5,-0.5 168.5,-19.5 290.5,-19.5 290.5,-0.5 168.5,-0.5"/>
<text text-anchor="middle" x="229.5" y="-7.5" font-family="Helvetica,sans-Serif" font-size="10.00">Eigen::internal::pstore</text>
</a>
</g>
</g>
<!-- Node4731&#45;&gt;Node4736 -->
<g id="edge6" class="edge"><title>Node4731&#45;&gt;Node4736</title>
<path fill="none" stroke="midnightblue" d="M81.7144,-87.911C100.517,-71.6265 132.554,-45.8956 164,-30 169.228,-27.3572 174.873,-24.9841 180.572,-22.8761"/>
<polygon fill="midnightblue" stroke="midnightblue" points="181.836,-26.1429 190.152,-19.578 179.557,-19.5242 181.836,-26.1429"/>
</g>
<!-- Node4732&#45;&gt;Node4733 -->
<g id="edge2" class="edge"><title>Node4732&#45;&gt;Node4733</title>
<path fill="none" stroke="midnightblue" d="M295.239,-182.368C303.675,-181.243 312.371,-180.084 320.951,-178.94"/>
<polygon fill="midnightblue" stroke="midnightblue" points="321.498,-182.398 330.948,-177.607 320.573,-175.459 321.498,-182.398"/>
</g>
</g>
</svg>
