<?xml version="1.0" encoding="UTF-8" standalone="no"?>
<!DOCTYPE svg PUBLIC "-//W3C//DTD SVG 1.1//EN"
 "http://www.w3.org/Graphics/SVG/1.1/DTD/svg11.dtd">
<!-- Generated by graphviz version 2.38.0 (20140413.2041)
 -->
<!-- Title: Eigen::internal::por&lt; Packet2d &gt; Pages: 1 -->
<svg width="276pt" height="66pt"
 viewBox="0.00 0.00 276.00 66.00" xmlns="http://www.w3.org/2000/svg" xmlns:xlink="http://www.w3.org/1999/xlink">
<g id="graph0" class="graph" transform="scale(1 1) rotate(0) translate(4 62)">
<title>Eigen::internal::por&lt; Packet2d &gt;</title>
<!-- Node3760 -->
<g id="node1" class="node"><title>Node3760</title>
<polygon fill="#bfbfbf" stroke="black" points="0,-14 0,-44 107,-44 107,-14 0,-14"/>
<text text-anchor="start" x="8" y="-32" font-family="Helvetica,sans-Serif" font-size="10.00">Eigen::internal::por</text>
<text text-anchor="middle" x="53.5" y="-21" font-family="Helvetica,sans-Serif" font-size="10.00">&lt; Packet2d &gt;</text>
</g>
<!-- Node3761 -->
<g id="node2" class="node"><title>Node3761</title>
<g id="a_node2"><a xlink:href="namespaceEigen_1_1internal.html#abaadd9aa6aafdf268f71646684340302" target="_top" xlink:title="Eigen::internal::pblend">
<polygon fill="none" stroke="black" points="144,-38.5 144,-57.5 267,-57.5 267,-38.5 144,-38.5"/>
<text text-anchor="middle" x="205.5" y="-45.5" font-family="Helvetica,sans-Serif" font-size="10.00">Eigen::internal::pblend</text>
</a>
</g>
</g>
<!-- Node3760&#45;&gt;Node3761 -->
<g id="edge1" class="edge"><title>Node3760&#45;&gt;Node3761</title>
<path fill="none" stroke="midnightblue" d="M117.509,-36.9812C126.246,-38.0879 135.206,-39.2228 143.898,-40.3237"/>
<polygon fill="midnightblue" stroke="midnightblue" points="117.745,-33.4831 107.384,-35.6987 116.865,-40.4277 117.745,-33.4831"/>
</g>
<!-- Node3762 -->
<g id="node3" class="node"><title>Node3762</title>
<g id="a_node3"><a xlink:href="namespaceEigen_1_1internal.html#abdf0ea7e126fdf116b7e4d9200f7a90f" target="_top" xlink:title="Eigen::internal::pmadd">
<polygon fill="none" stroke="black" points="143,-0.5 143,-19.5 268,-19.5 268,-0.5 143,-0.5"/>
<text text-anchor="middle" x="205.5" y="-7.5" font-family="Helvetica,sans-Serif" font-size="10.00">Eigen::internal::pmadd</text>
</a>
</g>
</g>
<!-- Node3760&#45;&gt;Node3762 -->
<g id="edge2" class="edge"><title>Node3760&#45;&gt;Node3762</title>
<path fill="none" stroke="midnightblue" d="M117.493,-21.0209C125.888,-19.9575 134.489,-18.8681 142.86,-17.8077"/>
<polygon fill="midnightblue" stroke="midnightblue" points="116.865,-17.5723 107.384,-22.3013 117.745,-24.5169 116.865,-17.5723"/>
</g>
</g>
</svg>
