<?xml version="1.0" encoding="UTF-8" standalone="no"?>
<!DOCTYPE svg PUBLIC "-//W3C//DTD SVG 1.1//EN"
 "http://www.w3.org/Graphics/SVG/1.1/DTD/svg11.dtd">
<!-- Generated by graphviz version 2.38.0 (20140413.2041)
 -->
<!-- Title: Eigen::internal::plset&lt; Packet2d &gt; Pages: 1 -->
<!--zoomable 198 -->
<svg id="main" version="1.1" xmlns="http://www.w3.org/2000/svg" xmlns:xlink="http://www.w3.org/1999/xlink" xml:space="preserve" onload="init(evt)">
<style type="text/css"><![CDATA[
.edge:hover path { stroke: red; }
.edge:hover polygon { stroke: red; fill: red; }
]]></style>
<script type="text/javascript"><![CDATA[
var edges = document.getElementsByTagName('g');
if (edges && edges.length) {
  for (var i=0;i<edges.length;i++) {
    if (edges[i].id.substr(0,4)=='edge') {
      edges[i].setAttribute('class','edge');
    }
  }
}
]]></script>
        <defs>
                <circle id="rim" cx="0" cy="0" r="7"/>
                <circle id="rim2" cx="0" cy="0" r="3.5"/>
                <g id="zoomPlus">
                        <use xlink:href="#rim" fill="#404040">
                                <set attributeName="fill" to="#808080" begin="zoomplus.mouseover" end="zoomplus.mouseout"/>
                        </use>
                        <path d="M-4,0h8M0,-4v8" fill="none" stroke="white" stroke-width="1.5" pointer-events="none"/>
                </g>
                <g id="zoomMin">
                        <use xlink:href="#rim" fill="#404040">
                                <set attributeName="fill" to="#808080" begin="zoomminus.mouseover" end="zoomminus.mouseout"/>
                        </use>
                        <path d="M-4,0h8" fill="none" stroke="white" stroke-width="1.5" pointer-events="none"/>
                </g>
                <g id="dirArrow">
                        <path fill="none" stroke="white" stroke-width="1.5" d="M0,-3.0v7 M-2.5,-0.5L0,-3.0L2.5,-0.5"/>
                </g>
               <g id="resetDef">
                       <use xlink:href="#rim2" fill="#404040">
                               <set attributeName="fill" to="#808080" begin="reset.mouseover" end="reset.mouseout"/>
                       </use>
               </g>
        </defs>

<script type="text/javascript">
var viewWidth = 584;
var viewHeight = 198;
var sectionId = 'dynsection-395';
</script>
<script xlink:href="svgpan.js"/>
<svg id="graph" class="graph">
<g id="viewport">
<title>Eigen::internal::plset&lt; Packet2d &gt;</title>
<!-- Node3177 -->
<g id="node1" class="node"><title>Node3177</title>
<polygon fill="#bfbfbf" stroke="black" points="0,-88.5 0,-118.5 114,-118.5 114,-88.5 0,-88.5"/>
<text text-anchor="start" x="8" y="-106.5" font-family="Helvetica,sans-Serif" font-size="10.00">Eigen::internal::plset</text>
<text text-anchor="middle" x="57" y="-95.5" font-family="Helvetica,sans-Serif" font-size="10.00">&lt; Packet2d &gt;</text>
</g>
<!-- Node3178 -->
<g id="node2" class="node"><title>Node3178</title>
<g id="a_node2"><a xlink:href="namespaceEigen_1_1internal.html#a1b00ef4c11d9b491edfbee232e5bea00" target="_top" xlink:title="Eigen::internal::padd\l\&lt; Packet4f \&gt;">
<polygon fill="none" stroke="black" points="151.5,-159.5 151.5,-189.5 266.5,-189.5 266.5,-159.5 151.5,-159.5"/>
<text text-anchor="start" x="159.5" y="-177.5" font-family="Helvetica,sans-Serif" font-size="10.00">Eigen::internal::padd</text>
<text text-anchor="middle" x="209" y="-166.5" font-family="Helvetica,sans-Serif" font-size="10.00">&lt; Packet4f &gt;</text>
</a>
</g>
</g>
<!-- Node3177&#45;&gt;Node3178 -->
<g id="edge1" class="edge"><title>Node3177&#45;&gt;Node3178</title>
<path fill="none" stroke="midnightblue" d="M86.3055,-118.702C104.354,-128.21 128.34,-140.505 150,-150.5 153.571,-152.148 157.289,-153.808 161.04,-155.445"/>
<polygon fill="midnightblue" stroke="midnightblue" points="159.799,-158.721 170.37,-159.443 162.557,-152.287 159.799,-158.721"/>
</g>
<!-- Node3179 -->
<g id="node3" class="node"><title>Node3179</title>
<g id="a_node3"><a xlink:href="namespaceEigen_1_1internal.html#ac2a7b21b9cb3ee5ba528785ee4eb82b4" target="_top" xlink:title="Eigen::internal::plset\l\&lt; Packet4i \&gt;">
<polygon fill="none" stroke="black" points="152,-110.5 152,-140.5 266,-140.5 266,-110.5 152,-110.5"/>
<text text-anchor="start" x="160" y="-128.5" font-family="Helvetica,sans-Serif" font-size="10.00">Eigen::internal::plset</text>
<text text-anchor="middle" x="209" y="-117.5" font-family="Helvetica,sans-Serif" font-size="10.00">&lt; Packet4i &gt;</text>
</a>
</g>
</g>
<!-- Node3177&#45;&gt;Node3179 -->
<g id="edge2" class="edge"><title>Node3177&#45;&gt;Node3179</title>
<path fill="none" stroke="midnightblue" d="M114.281,-111.755C123.317,-113.08 132.739,-114.462 141.977,-115.817"/>
<polygon fill="midnightblue" stroke="midnightblue" points="141.5,-119.284 151.902,-117.272 142.516,-112.358 141.5,-119.284"/>
</g>
<!-- Node3180 -->
<g id="node4" class="node"><title>Node3180</title>
<g id="a_node4"><a xlink:href="namespaceEigen_1_1internal.html#a2531efc4e18dcd18aa6c28ea26b5fd4c" target="_top" xlink:title="Eigen::internal::pset1\l\&lt; Packet4i \&gt;">
<polygon fill="none" stroke="black" points="304,-71.5 304,-101.5 422,-101.5 422,-71.5 304,-71.5"/>
<text text-anchor="start" x="312" y="-89.5" font-family="Helvetica,sans-Serif" font-size="10.00">Eigen::internal::pset1</text>
<text text-anchor="middle" x="363" y="-78.5" font-family="Helvetica,sans-Serif" font-size="10.00">&lt; Packet4i &gt;</text>
</a>
</g>
</g>
<!-- Node3177&#45;&gt;Node3180 -->
<g id="edge9" class="edge"><title>Node3177&#45;&gt;Node3180</title>
<path fill="none" stroke="midnightblue" d="M114.113,-100.362C164.802,-97.5275 239.537,-93.3483 293.686,-90.3202"/>
<polygon fill="midnightblue" stroke="midnightblue" points="294.098,-93.8027 303.887,-89.7498 293.707,-86.8136 294.098,-93.8027"/>
</g>
<!-- Node3181 -->
<g id="node5" class="node"><title>Node3181</title>
<g id="a_node5"><a xlink:href="namespaceEigen_1_1internal.html#a6024368181b050eb03ef7eea98f084ea" target="_top" xlink:title="Eigen::internal::pset1\l\&lt; Packet2d \&gt;">
<polygon fill="none" stroke="black" points="150,-22.5 150,-52.5 268,-52.5 268,-22.5 150,-22.5"/>
<text text-anchor="start" x="158" y="-40.5" font-family="Helvetica,sans-Serif" font-size="10.00">Eigen::internal::pset1</text>
<text text-anchor="middle" x="209" y="-29.5" font-family="Helvetica,sans-Serif" font-size="10.00">&lt; Packet2d &gt;</text>
</a>
</g>
</g>
<!-- Node3177&#45;&gt;Node3181 -->
<g id="edge4" class="edge"><title>Node3177&#45;&gt;Node3181</title>
<path fill="none" stroke="midnightblue" d="M92.413,-88.3583C113.851,-78.9256 141.62,-66.7074 164.566,-56.6108"/>
<polygon fill="midnightblue" stroke="midnightblue" points="166.004,-59.8023 173.747,-52.5713 163.184,-53.3951 166.004,-59.8023"/>
</g>
<!-- Node3179&#45;&gt;Node3180 -->
<g id="edge3" class="edge"><title>Node3179&#45;&gt;Node3180</title>
<path fill="none" stroke="midnightblue" d="M266.167,-111.089C275.173,-108.778 284.577,-106.365 293.826,-103.992"/>
<polygon fill="midnightblue" stroke="midnightblue" points="294.957,-107.315 303.774,-101.44 293.217,-100.535 294.957,-107.315"/>
</g>
<!-- Node3181&#45;&gt;Node3180 -->
<g id="edge5" class="edge"><title>Node3181&#45;&gt;Node3180</title>
<path fill="none" stroke="midnightblue" d="M256.845,-52.6014C272.232,-57.5615 289.497,-63.1274 305.521,-68.2929"/>
<polygon fill="midnightblue" stroke="midnightblue" points="304.718,-71.7113 315.309,-71.4484 306.866,-65.049 304.718,-71.7113"/>
</g>
<!-- Node3182 -->
<g id="node6" class="node"><title>Node3182</title>
<g id="a_node6"><a xlink:href="namespaceEigen_1_1internal.html#ae62a34e75a1b533d4baaea4a1719bd45" target="_top" xlink:title="Eigen::internal::plset\l\&lt; Packet4f \&gt;">
<polygon fill="none" stroke="black" points="306,-22.5 306,-52.5 420,-52.5 420,-22.5 306,-22.5"/>
<text text-anchor="start" x="314" y="-40.5" font-family="Helvetica,sans-Serif" font-size="10.00">Eigen::internal::plset</text>
<text text-anchor="middle" x="363" y="-29.5" font-family="Helvetica,sans-Serif" font-size="10.00">&lt; Packet4f &gt;</text>
</a>
</g>
</g>
<!-- Node3181&#45;&gt;Node3182 -->
<g id="edge6" class="edge"><title>Node3181&#45;&gt;Node3182</title>
<path fill="none" stroke="midnightblue" d="M268.332,-37.5C277.213,-37.5 286.435,-37.5 295.475,-37.5"/>
<polygon fill="midnightblue" stroke="midnightblue" points="295.576,-41.0001 305.576,-37.5 295.576,-34.0001 295.576,-41.0001"/>
</g>
<!-- Node3183 -->
<g id="node7" class="node"><title>Node3183</title>
<g id="a_node7"><a xlink:href="namespaceEigen_1_1internal.html#a923941269228f9ceaf233636da958609" target="_top" xlink:title="Eigen::internal::pset1\l\&lt; Packet4f \&gt;">
<polygon fill="none" stroke="black" points="458,-0.5 458,-30.5 576,-30.5 576,-0.5 458,-0.5"/>
<text text-anchor="start" x="466" y="-18.5" font-family="Helvetica,sans-Serif" font-size="10.00">Eigen::internal::pset1</text>
<text text-anchor="middle" x="517" y="-7.5" font-family="Helvetica,sans-Serif" font-size="10.00">&lt; Packet4f &gt;</text>
</a>
</g>
</g>
<!-- Node3181&#45;&gt;Node3183 -->
<g id="edge8" class="edge"><title>Node3181&#45;&gt;Node3183</title>
<path fill="none" stroke="midnightblue" d="M256.857,-22.4763C271.764,-18.3913 288.428,-14.5354 304,-12.5 351.712,-6.26374 405.975,-7.17857 447.659,-9.56743"/>
<polygon fill="midnightblue" stroke="midnightblue" points="447.506,-13.0646 457.702,-10.1852 447.936,-6.07777 447.506,-13.0646"/>
</g>
<!-- Node3182&#45;&gt;Node3183 -->
<g id="edge7" class="edge"><title>Node3182&#45;&gt;Node3183</title>
<path fill="none" stroke="midnightblue" d="M420.167,-29.3705C429.173,-28.0671 438.577,-26.7059 447.826,-25.3673"/>
<polygon fill="midnightblue" stroke="midnightblue" points="448.378,-28.8239 457.774,-23.9275 447.375,-21.8961 448.378,-28.8239"/>
</g>
</g>
</svg>
        <g id="navigator" transform="translate(0 0)" fill="#404254">
                <rect fill="#f2f5e9" fill-opacity="0.5" stroke="#606060" stroke-width=".5" x="0" y="0" width="60" height="60"/>
                <use id="zoomplus" xlink:href="#zoomPlus" x="17" y="9" onmousedown="handleZoom(evt,'in')"/>
                <use id="zoomminus" xlink:href="#zoomMin" x="42" y="9" onmousedown="handleZoom(evt,'out')"/>
                <use id="reset" xlink:href="#resetDef" x="30" y="36" onmousedown="handleReset()"/>
                <g id="arrowUp" xlink:href="#dirArrow" transform="translate(30 24)" onmousedown="handlePan(0,-1)">
                  <use xlink:href="#rim" fill="#404040">
                        <set attributeName="fill" to="#808080" begin="arrowUp.mouseover" end="arrowUp.mouseout"/>
                  </use>
                  <path fill="none" stroke="white" stroke-width="1.5" d="M0,-3.0v7 M-2.5,-0.5L0,-3.0L2.5,-0.5"/>
                </g>
                <g id="arrowRight" xlink:href="#dirArrow" transform="rotate(90) translate(36 -43)" onmousedown="handlePan(1,0)">
                  <use xlink:href="#rim" fill="#404040">
                        <set attributeName="fill" to="#808080" begin="arrowRight.mouseover" end="arrowRight.mouseout"/>
                  </use>
                  <path fill="none" stroke="white" stroke-width="1.5" d="M0,-3.0v7 M-2.5,-0.5L0,-3.0L2.5,-0.5"/>
                </g>
                <g id="arrowDown" xlink:href="#dirArrow" transform="rotate(180) translate(-30 -48)" onmousedown="handlePan(0,1)">
                  <use xlink:href="#rim" fill="#404040">
                        <set attributeName="fill" to="#808080" begin="arrowDown.mouseover" end="arrowDown.mouseout"/>
                  </use>
                  <path fill="none" stroke="white" stroke-width="1.5" d="M0,-3.0v7 M-2.5,-0.5L0,-3.0L2.5,-0.5"/>
                </g>
                <g id="arrowLeft" xlink:href="#dirArrow" transform="rotate(270) translate(-36 17)" onmousedown="handlePan(-1,0)">
                  <use xlink:href="#rim" fill="#404040">
                        <set attributeName="fill" to="#808080" begin="arrowLeft.mouseover" end="arrowLeft.mouseout"/>
                  </use>
                  <path fill="none" stroke="white" stroke-width="1.5" d="M0,-3.0v7 M-2.5,-0.5L0,-3.0L2.5,-0.5"/>
                </g>
        </g>
        <svg viewBox="0 0 15 15" width="100%" height="30px" preserveAspectRatio="xMaxYMin meet">
         <g id="arrow_out" transform="scale(0.3 0.3)">
          <a xlink:href="namespaceEigen_1_1internal_a997a475a7aab55264d8b830068e65106_cgraph_org.svg" target="_base">
           <rect id="button" ry="5" rx="5" y="6" x="6" height="38" width="38"
                fill="#f2f5e9" fill-opacity="0.5" stroke="#606060" stroke-width="1.0"/>
           <path id="arrow"
             d="M 11.500037,31.436501 C 11.940474,20.09759 22.043105,11.32322 32.158766,21.979434 L 37.068811,17.246167 C 37.068811,17.246167 37.088388,32 37.088388,32 L 22.160133,31.978069 C 22.160133,31.978069 26.997745,27.140456 26.997745,27.140456 C 18.528582,18.264221 13.291696,25.230495 11.500037,31.436501 z"
             style="fill:#404040;"/>
          </a>
         </g>
        </svg>
</svg>
