<?xml version="1.0" encoding="UTF-8" standalone="no"?>
<!DOCTYPE svg PUBLIC "-//W3C//DTD SVG 1.1//EN"
 "http://www.w3.org/Graphics/SVG/1.1/DTD/svg11.dtd">
<!-- Generated by graphviz version 2.38.0 (20140413.2041)
 -->
<!-- Title: Eigen::internal::pandnot&lt; Packet1cd &gt; Pages: 1 -->
<svg width="682pt" height="586pt"
 viewBox="0.00 0.00 682.00 586.00" xmlns="http://www.w3.org/2000/svg" xmlns:xlink="http://www.w3.org/1999/xlink">
<g id="graph0" class="graph" transform="scale(1 1) rotate(0) translate(4 582)">
<title>Eigen::internal::pandnot&lt; Packet1cd &gt;</title>
<!-- Node1709 -->
<g id="node1" class="node"><title>Node1709</title>
<polygon fill="#bfbfbf" stroke="black" points="0,-482 0,-512 131,-512 131,-482 0,-482"/>
<text text-anchor="start" x="8" y="-500" font-family="Helvetica,sans-Serif" font-size="10.00">Eigen::internal::pandnot</text>
<text text-anchor="middle" x="65.5" y="-489" font-family="Helvetica,sans-Serif" font-size="10.00">&lt; Packet1cd &gt;</text>
</g>
<!-- Node1710 -->
<g id="node2" class="node"><title>Node1710</title>
<g id="a_node2"><a xlink:href="structEigen_1_1internal_1_1conj__helper_3_01Packet2cf_00_01Packet2cf_00_01true_00_01true_01_4.html#a6956a6a7b0de2fd58bd9a8ab2e3c25ae" target="_top" xlink:title="Eigen::internal::conj\l_helper\&lt; Packet2cf, Packet2cf,\l true, true \&gt;::pmul">
<polygon fill="none" stroke="black" points="362,-536.5 362,-577.5 526,-577.5 526,-536.5 362,-536.5"/>
<text text-anchor="start" x="370" y="-565.5" font-family="Helvetica,sans-Serif" font-size="10.00">Eigen::internal::conj</text>
<text text-anchor="start" x="370" y="-554.5" font-family="Helvetica,sans-Serif" font-size="10.00">_helper&lt; Packet2cf, Packet2cf,</text>
<text text-anchor="middle" x="444" y="-543.5" font-family="Helvetica,sans-Serif" font-size="10.00"> true, true &gt;::pmul</text>
</a>
</g>
</g>
<!-- Node1709&#45;&gt;Node1710 -->
<g id="edge1" class="edge"><title>Node1709&#45;&gt;Node1710</title>
<path fill="none" stroke="midnightblue" d="M141.198,-508.904C204.883,-519.053 296.249,-533.613 361.746,-544.051"/>
<polygon fill="midnightblue" stroke="midnightblue" points="141.649,-505.432 131.223,-507.314 140.547,-512.345 141.649,-505.432"/>
</g>
<!-- Node1711 -->
<g id="node3" class="node"><title>Node1711</title>
<g id="a_node3"><a xlink:href="namespaceEigen_1_1internal.html#afc41c0196b601e87b2123adfee80c65f" target="_top" xlink:title="Eigen::internal::pscatter\l\&lt; std::complex\&lt; double\l \&gt;, Packet1cd \&gt;">
<polygon fill="none" stroke="black" points="377.5,-476.5 377.5,-517.5 510.5,-517.5 510.5,-476.5 377.5,-476.5"/>
<text text-anchor="start" x="385.5" y="-505.5" font-family="Helvetica,sans-Serif" font-size="10.00">Eigen::internal::pscatter</text>
<text text-anchor="start" x="385.5" y="-494.5" font-family="Helvetica,sans-Serif" font-size="10.00">&lt; std::complex&lt; double</text>
<text text-anchor="middle" x="444" y="-483.5" font-family="Helvetica,sans-Serif" font-size="10.00"> &gt;, Packet1cd &gt;</text>
</a>
</g>
</g>
<!-- Node1709&#45;&gt;Node1711 -->
<g id="edge2" class="edge"><title>Node1709&#45;&gt;Node1711</title>
<path fill="none" stroke="midnightblue" d="M141.566,-497C210.438,-497 311.457,-497 377.229,-497"/>
<polygon fill="midnightblue" stroke="midnightblue" points="141.223,-493.5 131.223,-497 141.223,-500.5 141.223,-493.5"/>
</g>
<!-- Node1712 -->
<g id="node4" class="node"><title>Node1712</title>
<g id="a_node4"><a xlink:href="namespaceEigen_1_1internal.html#a375fca01f8ae80efcba6793f990c7917" target="_top" xlink:title="Eigen::internal::ptranspose">
<polygon fill="none" stroke="black" points="167,-267.5 167,-286.5 312,-286.5 312,-267.5 167,-267.5"/>
<text text-anchor="middle" x="239.5" y="-274.5" font-family="Helvetica,sans-Serif" font-size="10.00">Eigen::internal::ptranspose</text>
</a>
</g>
</g>
<!-- Node1709&#45;&gt;Node1712 -->
<g id="edge3" class="edge"><title>Node1709&#45;&gt;Node1712</title>
<path fill="none" stroke="midnightblue" d="M84.6977,-473.724C121.842,-426.213 205.051,-319.784 230.774,-286.883"/>
<polygon fill="midnightblue" stroke="midnightblue" points="81.7242,-471.845 78.3223,-481.879 87.2388,-476.156 81.7242,-471.845"/>
</g>
<!-- Node1712&#45;&gt;Node1710 -->
<g id="edge4" class="edge"><title>Node1712&#45;&gt;Node1710</title>
<path fill="none" stroke="midnightblue" d="M243.294,-296.589C251.008,-343.42 276.948,-462.734 348,-527 352.233,-530.829 356.953,-534.169 361.965,-537.083"/>
<polygon fill="midnightblue" stroke="midnightblue" points="246.729,-295.902 241.742,-286.555 239.812,-296.972 246.729,-295.902"/>
</g>
<!-- Node1712&#45;&gt;Node1711 -->
<g id="edge6" class="edge"><title>Node1712&#45;&gt;Node1711</title>
<path fill="none" stroke="midnightblue" d="M246.163,-296.432C258.336,-334.788 290.642,-420.532 348,-467 356.601,-473.968 366.839,-479.327 377.358,-483.446"/>
<polygon fill="midnightblue" stroke="midnightblue" points="249.411,-295.083 243.142,-286.542 242.716,-297.128 249.411,-295.083"/>
</g>
<!-- Node1713 -->
<g id="node5" class="node"><title>Node1713</title>
<g id="a_node5"><a xlink:href="namespaceEigen_1_1internal.html#a79e630f9d4aa81b60904b7085c99c473" target="_top" xlink:title="Eigen::internal::pcplxflip">
<polygon fill="none" stroke="black" points="379.5,-76.5 379.5,-95.5 508.5,-95.5 508.5,-76.5 379.5,-76.5"/>
<text text-anchor="middle" x="444" y="-83.5" font-family="Helvetica,sans-Serif" font-size="10.00">Eigen::internal::pcplxflip</text>
</a>
</g>
</g>
<!-- Node1712&#45;&gt;Node1713 -->
<g id="edge5" class="edge"><title>Node1712&#45;&gt;Node1713</title>
<path fill="none" stroke="midnightblue" d="M246.844,-257.404C259.68,-221.072 292.346,-143.468 348,-105 357.27,-98.5924 368.195,-94.2373 379.274,-91.2993"/>
<polygon fill="midnightblue" stroke="midnightblue" points="243.396,-256.671 243.493,-267.265 250.024,-258.923 243.396,-256.671"/>
</g>
<!-- Node1714 -->
<g id="node6" class="node"><title>Node1714</title>
<g id="a_node6"><a xlink:href="namespaceEigen_1_1internal.html#a03c68a7844a6c488608dd1fdb91cedfb" target="_top" xlink:title="Eigen::internal::ptranspose">
<polygon fill="none" stroke="black" points="371.5,-38.5 371.5,-57.5 516.5,-57.5 516.5,-38.5 371.5,-38.5"/>
<text text-anchor="middle" x="444" y="-45.5" font-family="Helvetica,sans-Serif" font-size="10.00">Eigen::internal::ptranspose</text>
</a>
</g>
</g>
<!-- Node1712&#45;&gt;Node1714 -->
<g id="edge7" class="edge"><title>Node1712&#45;&gt;Node1714</title>
<path fill="none" stroke="midnightblue" d="M244.552,-257.259C254.303,-215.07 283.228,-115.988 348,-67 354.976,-61.7241 363.037,-57.8076 371.456,-54.9159"/>
<polygon fill="midnightblue" stroke="midnightblue" points="241.111,-256.612 242.385,-267.13 247.948,-258.113 241.111,-256.612"/>
</g>
<!-- Node1715 -->
<g id="node7" class="node"><title>Node1715</title>
<g id="a_node7"><a xlink:href="namespaceEigen_1_1internal.html#abaadd9aa6aafdf268f71646684340302" target="_top" xlink:title="Eigen::internal::pblend">
<polygon fill="none" stroke="black" points="382.5,-0.5 382.5,-19.5 505.5,-19.5 505.5,-0.5 382.5,-0.5"/>
<text text-anchor="middle" x="444" y="-7.5" font-family="Helvetica,sans-Serif" font-size="10.00">Eigen::internal::pblend</text>
</a>
</g>
</g>
<!-- Node1712&#45;&gt;Node1715 -->
<g id="edge8" class="edge"><title>Node1712&#45;&gt;Node1715</title>
<path fill="none" stroke="midnightblue" d="M242.91,-257.056C249.776,-209.47 273.983,-88.8038 348,-29 357.812,-21.072 370.029,-16.1585 382.399,-13.1737"/>
<polygon fill="midnightblue" stroke="midnightblue" points="239.401,-256.886 241.547,-267.261 246.34,-257.812 239.401,-256.886"/>
</g>
<!-- Node1716 -->
<g id="node8" class="node"><title>Node1716</title>
<g id="a_node8"><a xlink:href="structEigen_1_1internal_1_1palign__impl_3_01Offset_00_01Packet2d_01_4.html#a67e74f2cd50ad7d14d1820186da5f752" target="_top" xlink:title="Eigen::internal::palign\l_impl\&lt; Offset, Packet2d\l \&gt;::run">
<polygon fill="none" stroke="black" points="378.5,-416.5 378.5,-457.5 509.5,-457.5 509.5,-416.5 378.5,-416.5"/>
<text text-anchor="start" x="386.5" y="-445.5" font-family="Helvetica,sans-Serif" font-size="10.00">Eigen::internal::palign</text>
<text text-anchor="start" x="386.5" y="-434.5" font-family="Helvetica,sans-Serif" font-size="10.00">_impl&lt; Offset, Packet2d</text>
<text text-anchor="middle" x="444" y="-423.5" font-family="Helvetica,sans-Serif" font-size="10.00"> &gt;::run</text>
</a>
</g>
</g>
<!-- Node1712&#45;&gt;Node1716 -->
<g id="edge9" class="edge"><title>Node1712&#45;&gt;Node1716</title>
<path fill="none" stroke="midnightblue" d="M251.038,-295.617C267.92,-323.793 303.677,-377.139 348,-407 357.18,-413.185 367.708,-418.152 378.336,-422.125"/>
<polygon fill="midnightblue" stroke="midnightblue" points="253.94,-293.646 245.871,-286.78 247.898,-297.18 253.94,-293.646"/>
</g>
<!-- Node1717 -->
<g id="node9" class="node"><title>Node1717</title>
<g id="a_node9"><a xlink:href="namespaceEigen_1_1internal.html#a2636173af6863de34e156dfbf6ed6301" target="_top" xlink:title="Eigen::internal::pabs\l\&lt; Packet4f \&gt;">
<polygon fill="none" stroke="black" points="387,-367 387,-397 501,-397 501,-367 387,-367"/>
<text text-anchor="start" x="395" y="-385" font-family="Helvetica,sans-Serif" font-size="10.00">Eigen::internal::pabs</text>
<text text-anchor="middle" x="444" y="-374" font-family="Helvetica,sans-Serif" font-size="10.00">&lt; Packet4f &gt;</text>
</a>
</g>
</g>
<!-- Node1712&#45;&gt;Node1717 -->
<g id="edge10" class="edge"><title>Node1712&#45;&gt;Node1717</title>
<path fill="none" stroke="midnightblue" d="M258.074,-293.464C278.284,-311.548 313.178,-340.241 348,-357 360.14,-362.843 373.835,-367.46 386.968,-371.052"/>
<polygon fill="midnightblue" stroke="midnightblue" points="260.345,-290.798 250.594,-286.653 255.631,-295.974 260.345,-290.798"/>
</g>
<!-- Node1718 -->
<g id="node10" class="node"><title>Node1718</title>
<g id="a_node10"><a xlink:href="structEigen_1_1internal_1_1gemm__pack__lhs_3_01Scalar_00_01Index_00_01DataMapper_00_01Pack1_00_02096896f571e4dfaad2de53af9b13499.html#af0f474d4d31213df020ad25af0c482d3" target="_top" xlink:title="Eigen::internal::gemm\l_pack_lhs\&lt; Scalar, Index,\l DataMapper, Pack1, Pack2,\l RowMajor, Conjugate, PanelMode\l \&gt;::operator()">
<polygon fill="none" stroke="black" points="356,-284.5 356,-347.5 532,-347.5 532,-284.5 356,-284.5"/>
<text text-anchor="start" x="364" y="-335.5" font-family="Helvetica,sans-Serif" font-size="10.00">Eigen::internal::gemm</text>
<text text-anchor="start" x="364" y="-324.5" font-family="Helvetica,sans-Serif" font-size="10.00">_pack_lhs&lt; Scalar, Index,</text>
<text text-anchor="start" x="364" y="-313.5" font-family="Helvetica,sans-Serif" font-size="10.00"> DataMapper, Pack1, Pack2,</text>
<text text-anchor="start" x="364" y="-302.5" font-family="Helvetica,sans-Serif" font-size="10.00"> RowMajor, Conjugate, PanelMode</text>
<text text-anchor="middle" x="444" y="-291.5" font-family="Helvetica,sans-Serif" font-size="10.00"> &gt;::operator()</text>
</a>
</g>
</g>
<!-- Node1712&#45;&gt;Node1718 -->
<g id="edge11" class="edge"><title>Node1712&#45;&gt;Node1718</title>
<path fill="none" stroke="midnightblue" d="M300.047,-288.468C317.475,-291.825 336.9,-295.566 355.674,-299.182"/>
<polygon fill="midnightblue" stroke="midnightblue" points="300.519,-284.995 290.037,-286.54 299.195,-291.869 300.519,-284.995"/>
</g>
<!-- Node1719 -->
<g id="node11" class="node"><title>Node1719</title>
<g id="a_node11"><a xlink:href="structEigen_1_1internal_1_1gemm__pack__rhs_3_01Scalar_00_01Index_00_01DataMapper_00_01nr_00_01Coa362601eadb4c84345b37afcaba09a6d.html#adecc1d0ef7d3a37b141ab64bd56feaf0" target="_top" xlink:title="Eigen::internal::gemm\l_pack_rhs\&lt; Scalar, Index,\l DataMapper, nr, ColMajor,\l Conjugate, PanelMode \&gt;::operator()">
<polygon fill="none" stroke="black" points="348,-213 348,-265 540,-265 540,-213 348,-213"/>
<text text-anchor="start" x="356" y="-253" font-family="Helvetica,sans-Serif" font-size="10.00">Eigen::internal::gemm</text>
<text text-anchor="start" x="356" y="-242" font-family="Helvetica,sans-Serif" font-size="10.00">_pack_rhs&lt; Scalar, Index,</text>
<text text-anchor="start" x="356" y="-231" font-family="Helvetica,sans-Serif" font-size="10.00"> DataMapper, nr, ColMajor,</text>
<text text-anchor="middle" x="444" y="-220" font-family="Helvetica,sans-Serif" font-size="10.00"> Conjugate, PanelMode &gt;::operator()</text>
</a>
</g>
</g>
<!-- Node1712&#45;&gt;Node1719 -->
<g id="edge12" class="edge"><title>Node1712&#45;&gt;Node1719</title>
<path fill="none" stroke="midnightblue" d="M301.282,-265.594C315.987,-262.835 332.056,-259.819 347.922,-256.842"/>
<polygon fill="midnightblue" stroke="midnightblue" points="300.521,-262.176 291.338,-267.46 301.812,-269.056 300.521,-262.176"/>
</g>
<!-- Node1720 -->
<g id="node12" class="node"><title>Node1720</title>
<g id="a_node12"><a xlink:href="structEigen_1_1internal_1_1inplace__transpose__selector_3_01MatrixType_00_01true_00_01true_01_4.html#ade80113166d3d27b8631ba4549269926" target="_top" xlink:title="Eigen::internal::inplace\l_transpose_selector\&lt; MatrixType,\l true, true \&gt;::run">
<polygon fill="none" stroke="black" points="355,-152.5 355,-193.5 533,-193.5 533,-152.5 355,-152.5"/>
<text text-anchor="start" x="363" y="-181.5" font-family="Helvetica,sans-Serif" font-size="10.00">Eigen::internal::inplace</text>
<text text-anchor="start" x="363" y="-170.5" font-family="Helvetica,sans-Serif" font-size="10.00">_transpose_selector&lt; MatrixType,</text>
<text text-anchor="middle" x="444" y="-159.5" font-family="Helvetica,sans-Serif" font-size="10.00"> true, true &gt;::run</text>
</a>
</g>
</g>
<!-- Node1712&#45;&gt;Node1720 -->
<g id="edge13" class="edge"><title>Node1712&#45;&gt;Node1720</title>
<path fill="none" stroke="midnightblue" d="M260.452,-260.91C281.279,-244.743 315.39,-219.994 348,-204 355.71,-200.218 363.991,-196.74 372.333,-193.59"/>
<polygon fill="midnightblue" stroke="midnightblue" points="258.075,-258.327 252.383,-267.262 262.405,-263.827 258.075,-258.327"/>
</g>
<!-- Node1721 -->
<g id="node13" class="node"><title>Node1721</title>
<g id="a_node13"><a xlink:href="packetmath_8cpp.html#a517110e4796d1bac787500a5b23f9bbe" target="_top" xlink:title="packetmath">
<polygon fill="none" stroke="black" points="407,-114.5 407,-133.5 481,-133.5 481,-114.5 407,-114.5"/>
<text text-anchor="middle" x="444" y="-121.5" font-family="Helvetica,sans-Serif" font-size="10.00">packetmath</text>
</a>
</g>
</g>
<!-- Node1712&#45;&gt;Node1721 -->
<g id="edge14" class="edge"><title>Node1712&#45;&gt;Node1721</title>
<path fill="none" stroke="midnightblue" d="M249.819,-258.445C265.675,-228.921 300.827,-171.666 348,-143 365.536,-132.344 387.934,-127.529 406.577,-125.408"/>
<polygon fill="midnightblue" stroke="midnightblue" points="246.715,-256.828 245.192,-267.313 252.921,-260.066 246.715,-256.828"/>
</g>
<!-- Node1722 -->
<g id="node14" class="node"><title>Node1722</title>
<g id="a_node14"><a xlink:href="packetmath_8cpp.html#a43e3c22d695551e0e3da70b69ce93742" target="_top" xlink:title="test_packetmath">
<polygon fill="none" stroke="black" points="576,-114.5 576,-133.5 674,-133.5 674,-114.5 576,-114.5"/>
<text text-anchor="middle" x="625" y="-121.5" font-family="Helvetica,sans-Serif" font-size="10.00">test_packetmath</text>
</a>
</g>
</g>
<!-- Node1721&#45;&gt;Node1722 -->
<g id="edge15" class="edge"><title>Node1721&#45;&gt;Node1722</title>
<path fill="none" stroke="midnightblue" d="M491.556,-124C517.504,-124 549.762,-124 575.947,-124"/>
<polygon fill="midnightblue" stroke="midnightblue" points="491.223,-120.5 481.223,-124 491.223,-127.5 491.223,-120.5"/>
</g>
</g>
</svg>
