<?xml version="1.0" encoding="UTF-8" standalone="no"?>
<!DOCTYPE svg PUBLIC "-//W3C//DTD SVG 1.1//EN"
 "http://www.w3.org/Graphics/SVG/1.1/DTD/svg11.dtd">
<!-- Generated by graphviz version 2.38.0 (20140413.2041)
 -->
<!-- Title: Eigen::internal::r1updt Pages: 1 -->
<svg width="293pt" height="214pt"
 viewBox="0.00 0.00 293.00 214.00" xmlns="http://www.w3.org/2000/svg" xmlns:xlink="http://www.w3.org/1999/xlink">
<g id="graph0" class="graph" transform="scale(1 1) rotate(0) translate(4 210)">
<title>Eigen::internal::r1updt</title>
<!-- Node5431 -->
<g id="node1" class="node"><title>Node5431</title>
<polygon fill="#bfbfbf" stroke="black" points="0,-93.5 0,-112.5 122,-112.5 122,-93.5 0,-93.5"/>
<text text-anchor="middle" x="61" y="-100.5" font-family="Helvetica,sans-Serif" font-size="10.00">Eigen::internal::r1updt</text>
</g>
<!-- Node5432 -->
<g id="node2" class="node"><title>Node5432</title>
<g id="a_node2"><a xlink:href="classEigen_1_1JacobiRotation.html#af1c132146bc93a872b799bc57d9ced50" target="_top" xlink:title="Eigen::JacobiRotation::c">
<polygon fill="none" stroke="black" points="158,-186.5 158,-205.5 285,-205.5 285,-186.5 158,-186.5"/>
<text text-anchor="middle" x="221.5" y="-193.5" font-family="Helvetica,sans-Serif" font-size="10.00">Eigen::JacobiRotation::c</text>
</a>
</g>
</g>
<!-- Node5431&#45;&gt;Node5432 -->
<g id="edge1" class="edge"><title>Node5431&#45;&gt;Node5432</title>
<path fill="none" stroke="midnightblue" d="M71.804,-112.55C88.2957,-128.129 123.209,-159.068 158,-177 162.31,-179.221 166.923,-181.23 171.618,-183.037"/>
<polygon fill="midnightblue" stroke="midnightblue" points="170.705,-186.426 181.299,-186.461 173.039,-179.827 170.705,-186.426"/>
</g>
<!-- Node5433 -->
<g id="node3" class="node"><title>Node5433</title>
<g id="a_node3"><a xlink:href="classEigen_1_1PlainObjectBase.html#a10b8b33b7587da564415561aa246f78f" target="_top" xlink:title="Eigen::PlainObjectBase\l::cols">
<polygon fill="none" stroke="black" points="158.5,-137 158.5,-167 284.5,-167 284.5,-137 158.5,-137"/>
<text text-anchor="start" x="166.5" y="-155" font-family="Helvetica,sans-Serif" font-size="10.00">Eigen::PlainObjectBase</text>
<text text-anchor="middle" x="221.5" y="-144" font-family="Helvetica,sans-Serif" font-size="10.00">::cols</text>
</a>
</g>
</g>
<!-- Node5431&#45;&gt;Node5433 -->
<g id="edge2" class="edge"><title>Node5431&#45;&gt;Node5433</title>
<path fill="none" stroke="midnightblue" d="M92.9367,-112.564C112.565,-118.632 138.588,-126.677 162.008,-133.917"/>
<polygon fill="midnightblue" stroke="midnightblue" points="161.272,-137.353 171.86,-136.963 163.34,-130.666 161.272,-137.353"/>
</g>
<!-- Node5434 -->
<g id="node4" class="node"><title>Node5434</title>
<g id="a_node4"><a xlink:href="classEigen_1_1JacobiRotation.html#af73c81e9cc139b7e0d877ce553b02ec0" target="_top" xlink:title="Eigen::JacobiRotation\l::makeGivens">
<polygon fill="none" stroke="black" points="163.5,-88 163.5,-118 279.5,-118 279.5,-88 163.5,-88"/>
<text text-anchor="start" x="171.5" y="-106" font-family="Helvetica,sans-Serif" font-size="10.00">Eigen::JacobiRotation</text>
<text text-anchor="middle" x="221.5" y="-95" font-family="Helvetica,sans-Serif" font-size="10.00">::makeGivens</text>
</a>
</g>
</g>
<!-- Node5431&#45;&gt;Node5434 -->
<g id="edge3" class="edge"><title>Node5431&#45;&gt;Node5434</title>
<path fill="none" stroke="midnightblue" d="M122.374,-103C132.479,-103 143.018,-103 153.281,-103"/>
<polygon fill="midnightblue" stroke="midnightblue" points="153.427,-106.5 163.427,-103 153.427,-99.5001 153.427,-106.5"/>
</g>
<!-- Node5435 -->
<g id="node5" class="node"><title>Node5435</title>
<g id="a_node5"><a xlink:href="classEigen_1_1PlainObjectBase.html#aba7a925ce36c08ba2a08c90086f34718" target="_top" xlink:title="Eigen::PlainObjectBase\l::rows">
<polygon fill="none" stroke="black" points="158.5,-39 158.5,-69 284.5,-69 284.5,-39 158.5,-39"/>
<text text-anchor="start" x="166.5" y="-57" font-family="Helvetica,sans-Serif" font-size="10.00">Eigen::PlainObjectBase</text>
<text text-anchor="middle" x="221.5" y="-46" font-family="Helvetica,sans-Serif" font-size="10.00">::rows</text>
</a>
</g>
</g>
<!-- Node5431&#45;&gt;Node5435 -->
<g id="edge4" class="edge"><title>Node5431&#45;&gt;Node5435</title>
<path fill="none" stroke="midnightblue" d="M92.9367,-93.436C112.565,-87.3679 138.588,-79.323 162.008,-72.0826"/>
<polygon fill="midnightblue" stroke="midnightblue" points="163.34,-75.3345 171.86,-69.037 161.272,-68.6467 163.34,-75.3345"/>
</g>
<!-- Node5436 -->
<g id="node6" class="node"><title>Node5436</title>
<g id="a_node6"><a xlink:href="classEigen_1_1JacobiRotation.html#a2c7a08e2d27875fd770d489317746969" target="_top" xlink:title="Eigen::JacobiRotation::s">
<polygon fill="none" stroke="black" points="158,-0.5 158,-19.5 285,-19.5 285,-0.5 158,-0.5"/>
<text text-anchor="middle" x="221.5" y="-7.5" font-family="Helvetica,sans-Serif" font-size="10.00">Eigen::JacobiRotation::s</text>
</a>
</g>
</g>
<!-- Node5431&#45;&gt;Node5436 -->
<g id="edge5" class="edge"><title>Node5431&#45;&gt;Node5436</title>
<path fill="none" stroke="midnightblue" d="M72.1281,-93.3962C88.807,-78.0432 123.641,-47.8843 158,-30 162.99,-27.4028 168.38,-25.0635 173.83,-22.9792"/>
<polygon fill="midnightblue" stroke="midnightblue" points="175.377,-26.1441 183.632,-19.5022 173.037,-19.5468 175.377,-26.1441"/>
</g>
</g>
</svg>
