<?xml version="1.0" encoding="UTF-8" standalone="no"?>
<!DOCTYPE svg PUBLIC "-//W3C//DTD SVG 1.1//EN"
 "http://www.w3.org/Graphics/SVG/1.1/DTD/svg11.dtd">
<!-- Generated by graphviz version 2.38.0 (20140413.2041)
 -->
<!-- Title: mpfr::hypot Pages: 1 -->
<!--zoomable 170 -->
<svg id="main" version="1.1" xmlns="http://www.w3.org/2000/svg" xmlns:xlink="http://www.w3.org/1999/xlink" xml:space="preserve" onload="init(evt)">
<style type="text/css"><![CDATA[
.edge:hover path { stroke: red; }
.edge:hover polygon { stroke: red; fill: red; }
]]></style>
<script type="text/javascript"><![CDATA[
var edges = document.getElementsByTagName('g');
if (edges && edges.length) {
  for (var i=0;i<edges.length;i++) {
    if (edges[i].id.substr(0,4)=='edge') {
      edges[i].setAttribute('class','edge');
    }
  }
}
]]></script>
        <defs>
                <circle id="rim" cx="0" cy="0" r="7"/>
                <circle id="rim2" cx="0" cy="0" r="3.5"/>
                <g id="zoomPlus">
                        <use xlink:href="#rim" fill="#404040">
                                <set attributeName="fill" to="#808080" begin="zoomplus.mouseover" end="zoomplus.mouseout"/>
                        </use>
                        <path d="M-4,0h8M0,-4v8" fill="none" stroke="white" stroke-width="1.5" pointer-events="none"/>
                </g>
                <g id="zoomMin">
                        <use xlink:href="#rim" fill="#404040">
                                <set attributeName="fill" to="#808080" begin="zoomminus.mouseover" end="zoomminus.mouseout"/>
                        </use>
                        <path d="M-4,0h8" fill="none" stroke="white" stroke-width="1.5" pointer-events="none"/>
                </g>
                <g id="dirArrow">
                        <path fill="none" stroke="white" stroke-width="1.5" d="M0,-3.0v7 M-2.5,-0.5L0,-3.0L2.5,-0.5"/>
                </g>
               <g id="resetDef">
                       <use xlink:href="#rim2" fill="#404040">
                               <set attributeName="fill" to="#808080" begin="reset.mouseover" end="reset.mouseout"/>
                       </use>
               </g>
        </defs>

<script type="text/javascript">
var viewWidth = 765;
var viewHeight = 170;
var sectionId = 'dynsection-35';
</script>
<script xlink:href="svgpan.js"/>
<svg id="graph" class="graph">
<g id="viewport">
<title>mpfr::hypot</title>
<!-- Node295 -->
<g id="node1" class="node"><title>Node295</title>
<polygon fill="#bfbfbf" stroke="black" points="0,-93.5 0,-112.5 72,-112.5 72,-93.5 0,-93.5"/>
<text text-anchor="middle" x="36" y="-100.5" font-family="Helvetica,sans-Serif" font-size="10.00">mpfr::hypot</text>
</g>
<!-- Node296 -->
<g id="node2" class="node"><title>Node296</title>
<g id="a_node2"><a xlink:href="classEigen_1_1SelfAdjointEigenSolver.html#a40b0a68841d6176b1ab98743cc82bef4" target="_top" xlink:title="Computes eigendecomposition of given matrix using a closed&#45;form algorithm. ">
<polygon fill="none" stroke="black" points="108,-88 108,-118 264,-118 264,-88 108,-88"/>
<text text-anchor="start" x="116" y="-106" font-family="Helvetica,sans-Serif" font-size="10.00">Eigen::SelfAdjointEigenSolver</text>
<text text-anchor="middle" x="186" y="-95" font-family="Helvetica,sans-Serif" font-size="10.00">::computeDirect</text>
</a>
</g>
</g>
<!-- Node295&#45;&gt;Node296 -->
<g id="edge1" class="edge"><title>Node295&#45;&gt;Node296</title>
<path fill="none" stroke="midnightblue" d="M82.1179,-103C90.3138,-103 99.0704,-103 107.886,-103"/>
<polygon fill="midnightblue" stroke="midnightblue" points="82.074,-99.5001 72.0739,-103 82.0739,-106.5 82.074,-99.5001"/>
</g>
<!-- Node297 -->
<g id="node3" class="node"><title>Node297</title>
<g id="a_node3"><a xlink:href="eig33_8cpp.html#ae66f6b31b5ad750f1fe042a706a4e3d4" target="_top" xlink:title="main">
<polygon fill="none" stroke="black" points="355.5,-142.5 355.5,-161.5 396.5,-161.5 396.5,-142.5 355.5,-142.5"/>
<text text-anchor="middle" x="376" y="-149.5" font-family="Helvetica,sans-Serif" font-size="10.00">main</text>
</a>
</g>
</g>
<!-- Node296&#45;&gt;Node297 -->
<g id="edge2" class="edge"><title>Node296&#45;&gt;Node297</title>
<path fill="none" stroke="midnightblue" d="M252.981,-120.652C268.401,-124.74 284.769,-129.049 300,-133 318.723,-137.857 340.113,-143.261 355.246,-147.061"/>
<polygon fill="midnightblue" stroke="midnightblue" points="253.57,-117.187 243.006,-118.004 251.773,-123.953 253.57,-117.187"/>
</g>
<!-- Node298 -->
<g id="node4" class="node"><title>Node298</title>
<g id="a_node4"><a xlink:href="structEigen_1_1internal_1_1direct__selfadjoint__eigenvalues_3_01SolverType_00_012_00_01false_01_4.html#addc88bfeaab72fc09c5429df3d680bd7" target="_top" xlink:title="Eigen::internal::direct\l_selfadjoint_eigenvalues\l\&lt; SolverType, 2, false \&gt;::run">
<polygon fill="none" stroke="black" points="300,-82.5 300,-123.5 452,-123.5 452,-82.5 300,-82.5"/>
<text text-anchor="start" x="308" y="-111.5" font-family="Helvetica,sans-Serif" font-size="10.00">Eigen::internal::direct</text>
<text text-anchor="start" x="308" y="-100.5" font-family="Helvetica,sans-Serif" font-size="10.00">_selfadjoint_eigenvalues</text>
<text text-anchor="middle" x="376" y="-89.5" font-family="Helvetica,sans-Serif" font-size="10.00">&lt; SolverType, 2, false &gt;::run</text>
</a>
</g>
</g>
<!-- Node296&#45;&gt;Node298 -->
<g id="edge3" class="edge"><title>Node296&#45;&gt;Node298</title>
<path fill="none" stroke="midnightblue" d="M274.091,-103C282.724,-103 291.436,-103 299.932,-103"/>
<polygon fill="midnightblue" stroke="midnightblue" points="274.009,-99.5001 264.009,-103 274.009,-106.5 274.009,-99.5001"/>
</g>
<!-- Node299 -->
<g id="node5" class="node"><title>Node299</title>
<g id="a_node5"><a xlink:href="eigensolver__selfadjoint_8cpp.html#a507481e3a562013d80e091ff8e3b206a" target="_top" xlink:title="selfadjointeigensolver\l_essential_check">
<polygon fill="none" stroke="black" points="316,-33 316,-63 436,-63 436,-33 316,-33"/>
<text text-anchor="start" x="324" y="-51" font-family="Helvetica,sans-Serif" font-size="10.00">selfadjointeigensolver</text>
<text text-anchor="middle" x="376" y="-40" font-family="Helvetica,sans-Serif" font-size="10.00">_essential_check</text>
</a>
</g>
</g>
<!-- Node296&#45;&gt;Node299 -->
<g id="edge4" class="edge"><title>Node296&#45;&gt;Node299</title>
<path fill="none" stroke="midnightblue" d="M248.241,-85.0838C272.631,-77.9485 300.383,-69.8293 323.69,-63.0108"/>
<polygon fill="midnightblue" stroke="midnightblue" points="246.987,-81.8039 238.372,-87.971 248.952,-88.5223 246.987,-81.8039"/>
</g>
<!-- Node300 -->
<g id="node6" class="node"><title>Node300</title>
<g id="a_node6"><a xlink:href="eigensolver__selfadjoint_8cpp.html#afde399457909b531495269835f350136" target="_top" xlink:title="bug_1014">
<polygon fill="none" stroke="black" points="516,-76.5 516,-95.5 580,-95.5 580,-76.5 516,-76.5"/>
<text text-anchor="middle" x="548" y="-83.5" font-family="Helvetica,sans-Serif" font-size="10.00">bug_1014</text>
</a>
</g>
</g>
<!-- Node299&#45;&gt;Node300 -->
<g id="edge5" class="edge"><title>Node299&#45;&gt;Node300</title>
<path fill="none" stroke="midnightblue" d="M446.34,-63.4995C470.543,-68.9095 496.5,-74.7117 515.992,-79.0689"/>
<polygon fill="midnightblue" stroke="midnightblue" points="446.98,-60.0564 436.458,-61.2906 445.453,-66.8878 446.98,-60.0564"/>
</g>
<!-- Node301 -->
<g id="node7" class="node"><title>Node301</title>
<g id="a_node7"><a xlink:href="eigensolver__selfadjoint_8cpp.html#a8a826ea7c4364ccc850a3b439b1d6962" target="_top" xlink:title="bug_854">
<polygon fill="none" stroke="black" points="519,-38.5 519,-57.5 577,-57.5 577,-38.5 519,-38.5"/>
<text text-anchor="middle" x="548" y="-45.5" font-family="Helvetica,sans-Serif" font-size="10.00">bug_854</text>
</a>
</g>
</g>
<!-- Node299&#45;&gt;Node301 -->
<g id="edge6" class="edge"><title>Node299&#45;&gt;Node301</title>
<path fill="none" stroke="midnightblue" d="M446.769,-48C472.03,-48 499.147,-48 518.797,-48"/>
<polygon fill="midnightblue" stroke="midnightblue" points="446.458,-44.5001 436.458,-48 446.458,-51.5001 446.458,-44.5001"/>
</g>
<!-- Node302 -->
<g id="node8" class="node"><title>Node302</title>
<g id="a_node8"><a xlink:href="eigensolver__selfadjoint_8cpp.html#abc47a768b2337f0e2cf111ccf190589f" target="_top" xlink:title="selfadjointeigensolver">
<polygon fill="none" stroke="black" points="488,-0.5 488,-19.5 608,-19.5 608,-0.5 488,-0.5"/>
<text text-anchor="middle" x="548" y="-7.5" font-family="Helvetica,sans-Serif" font-size="10.00">selfadjointeigensolver</text>
</a>
</g>
</g>
<!-- Node299&#45;&gt;Node302 -->
<g id="edge7" class="edge"><title>Node299&#45;&gt;Node302</title>
<path fill="none" stroke="midnightblue" d="M446.315,-32.5061C466.001,-28.1057 486.85,-23.4454 504.438,-19.5139"/>
<polygon fill="midnightblue" stroke="midnightblue" points="445.453,-29.1122 436.458,-34.7094 446.98,-35.9436 445.453,-29.1122"/>
</g>
<!-- Node303 -->
<g id="node9" class="node"><title>Node303</title>
<g id="a_node9"><a xlink:href="boostmultiprec_8cpp.html#af8983cadf0ba3b55cb55879f4b3d833d" target="_top" xlink:title="test_boostmultiprec">
<polygon fill="none" stroke="black" points="644,-0.5 644,-19.5 757,-19.5 757,-0.5 644,-0.5"/>
<text text-anchor="middle" x="700.5" y="-7.5" font-family="Helvetica,sans-Serif" font-size="10.00">test_boostmultiprec</text>
</a>
</g>
</g>
<!-- Node302&#45;&gt;Node303 -->
<g id="edge8" class="edge"><title>Node302&#45;&gt;Node303</title>
<path fill="none" stroke="midnightblue" d="M618.299,-10C626.766,-10 635.334,-10 643.571,-10"/>
<polygon fill="midnightblue" stroke="midnightblue" points="618.05,-6.5001 608.05,-10 618.05,-13.5001 618.05,-6.5001"/>
</g>
</g>
</svg>
        <g id="navigator" transform="translate(0 0)" fill="#404254">
                <rect fill="#f2f5e9" fill-opacity="0.5" stroke="#606060" stroke-width=".5" x="0" y="0" width="60" height="60"/>
                <use id="zoomplus" xlink:href="#zoomPlus" x="17" y="9" onmousedown="handleZoom(evt,'in')"/>
                <use id="zoomminus" xlink:href="#zoomMin" x="42" y="9" onmousedown="handleZoom(evt,'out')"/>
                <use id="reset" xlink:href="#resetDef" x="30" y="36" onmousedown="handleReset()"/>
                <g id="arrowUp" xlink:href="#dirArrow" transform="translate(30 24)" onmousedown="handlePan(0,-1)">
                  <use xlink:href="#rim" fill="#404040">
                        <set attributeName="fill" to="#808080" begin="arrowUp.mouseover" end="arrowUp.mouseout"/>
                  </use>
                  <path fill="none" stroke="white" stroke-width="1.5" d="M0,-3.0v7 M-2.5,-0.5L0,-3.0L2.5,-0.5"/>
                </g>
                <g id="arrowRight" xlink:href="#dirArrow" transform="rotate(90) translate(36 -43)" onmousedown="handlePan(1,0)">
                  <use xlink:href="#rim" fill="#404040">
                        <set attributeName="fill" to="#808080" begin="arrowRight.mouseover" end="arrowRight.mouseout"/>
                  </use>
                  <path fill="none" stroke="white" stroke-width="1.5" d="M0,-3.0v7 M-2.5,-0.5L0,-3.0L2.5,-0.5"/>
                </g>
                <g id="arrowDown" xlink:href="#dirArrow" transform="rotate(180) translate(-30 -48)" onmousedown="handlePan(0,1)">
                  <use xlink:href="#rim" fill="#404040">
                        <set attributeName="fill" to="#808080" begin="arrowDown.mouseover" end="arrowDown.mouseout"/>
                  </use>
                  <path fill="none" stroke="white" stroke-width="1.5" d="M0,-3.0v7 M-2.5,-0.5L0,-3.0L2.5,-0.5"/>
                </g>
                <g id="arrowLeft" xlink:href="#dirArrow" transform="rotate(270) translate(-36 17)" onmousedown="handlePan(-1,0)">
                  <use xlink:href="#rim" fill="#404040">
                        <set attributeName="fill" to="#808080" begin="arrowLeft.mouseover" end="arrowLeft.mouseout"/>
                  </use>
                  <path fill="none" stroke="white" stroke-width="1.5" d="M0,-3.0v7 M-2.5,-0.5L0,-3.0L2.5,-0.5"/>
                </g>
        </g>
        <svg viewBox="0 0 15 15" width="100%" height="30px" preserveAspectRatio="xMaxYMin meet">
         <g id="arrow_out" transform="scale(0.3 0.3)">
          <a xlink:href="namespacempfr_a4238bee86f75920532130abda801e7d0_icgraph_org.svg" target="_base">
           <rect id="button" ry="5" rx="5" y="6" x="6" height="38" width="38"
                fill="#f2f5e9" fill-opacity="0.5" stroke="#606060" stroke-width="1.0"/>
           <path id="arrow"
             d="M 11.500037,31.436501 C 11.940474,20.09759 22.043105,11.32322 32.158766,21.979434 L 37.068811,17.246167 C 37.068811,17.246167 37.088388,32 37.088388,32 L 22.160133,31.978069 C 22.160133,31.978069 26.997745,27.140456 26.997745,27.140456 C 18.528582,18.264221 13.291696,25.230495 11.500037,31.436501 z"
             style="fill:#404040;"/>
          </a>
         </g>
        </svg>
</svg>
