<?xml version="1.0" encoding="UTF-8" standalone="no"?>
<!DOCTYPE svg PUBLIC "-//W3C//DTD SVG 1.1//EN"
 "http://www.w3.org/Graphics/SVG/1.1/DTD/svg11.dtd">
<!-- Generated by graphviz version 2.38.0 (20140413.2041)
 -->
<!-- Title: Eigen::internal::pinsertfirst Pages: 1 -->
<svg width="461pt" height="88pt"
 viewBox="0.00 0.00 461.00 88.00" xmlns="http://www.w3.org/2000/svg" xmlns:xlink="http://www.w3.org/1999/xlink">
<g id="graph0" class="graph" transform="scale(1 1) rotate(0) translate(4 84)">
<title>Eigen::internal::pinsertfirst</title>
<!-- Node2644 -->
<g id="node1" class="node"><title>Node2644</title>
<polygon fill="#bfbfbf" stroke="black" points="0,-35.5 0,-54.5 142,-54.5 142,-35.5 0,-35.5"/>
<text text-anchor="middle" x="71" y="-42.5" font-family="Helvetica,sans-Serif" font-size="10.00">Eigen::internal::pinsertfirst</text>
</g>
<!-- Node2645 -->
<g id="node2" class="node"><title>Node2645</title>
<g id="a_node2"><a xlink:href="packetmath_8cpp.html#a517110e4796d1bac787500a5b23f9bbe" target="_top" xlink:title="packetmath">
<polygon fill="none" stroke="black" points="211.5,-60.5 211.5,-79.5 285.5,-79.5 285.5,-60.5 211.5,-60.5"/>
<text text-anchor="middle" x="248.5" y="-67.5" font-family="Helvetica,sans-Serif" font-size="10.00">packetmath</text>
</a>
</g>
</g>
<!-- Node2644&#45;&gt;Node2645 -->
<g id="edge1" class="edge"><title>Node2644&#45;&gt;Node2645</title>
<path fill="none" stroke="midnightblue" d="M148.757,-55.934C170.501,-59.0315 193.161,-62.2594 211.281,-64.8406"/>
<polygon fill="midnightblue" stroke="midnightblue" points="149.243,-52.4681 138.85,-54.5227 148.256,-59.3981 149.243,-52.4681"/>
</g>
<!-- Node2647 -->
<g id="node4" class="node"><title>Node2647</title>
<g id="a_node4"><a xlink:href="structEigen_1_1internal_1_1linspaced__op__impl_3_01Scalar_00_01Packet_00_01false_01_4.html#abfaac1602220b86936bf2a11fc7c3767" target="_top" xlink:title="Eigen::internal::linspaced\l_op_impl\&lt; Scalar, Packet,\l false \&gt;::packetOp">
<polygon fill="none" stroke="black" points="178,-0.5 178,-41.5 319,-41.5 319,-0.5 178,-0.5"/>
<text text-anchor="start" x="186" y="-29.5" font-family="Helvetica,sans-Serif" font-size="10.00">Eigen::internal::linspaced</text>
<text text-anchor="start" x="186" y="-18.5" font-family="Helvetica,sans-Serif" font-size="10.00">_op_impl&lt; Scalar, Packet,</text>
<text text-anchor="middle" x="248.5" y="-7.5" font-family="Helvetica,sans-Serif" font-size="10.00"> false &gt;::packetOp</text>
</a>
</g>
</g>
<!-- Node2644&#45;&gt;Node2647 -->
<g id="edge3" class="edge"><title>Node2644&#45;&gt;Node2647</title>
<path fill="none" stroke="midnightblue" d="M151.798,-34.0874C160.533,-32.8929 169.373,-31.684 177.97,-30.5084"/>
<polygon fill="midnightblue" stroke="midnightblue" points="151.048,-30.6574 141.614,-35.4801 151.996,-37.5928 151.048,-30.6574"/>
</g>
<!-- Node2646 -->
<g id="node3" class="node"><title>Node2646</title>
<g id="a_node3"><a xlink:href="packetmath_8cpp.html#a43e3c22d695551e0e3da70b69ce93742" target="_top" xlink:title="test_packetmath">
<polygon fill="none" stroke="black" points="355,-60.5 355,-79.5 453,-79.5 453,-60.5 355,-60.5"/>
<text text-anchor="middle" x="404" y="-67.5" font-family="Helvetica,sans-Serif" font-size="10.00">test_packetmath</text>
</a>
</g>
</g>
<!-- Node2645&#45;&gt;Node2646 -->
<g id="edge2" class="edge"><title>Node2645&#45;&gt;Node2646</title>
<path fill="none" stroke="midnightblue" d="M295.925,-70C314.602,-70 336.134,-70 354.969,-70"/>
<polygon fill="midnightblue" stroke="midnightblue" points="295.877,-66.5001 285.877,-70 295.877,-73.5001 295.877,-66.5001"/>
</g>
</g>
</svg>
