<?xml version="1.0" encoding="UTF-8" standalone="no"?>
<!DOCTYPE svg PUBLIC "-//W3C//DTD SVG 1.1//EN"
 "http://www.w3.org/Graphics/SVG/1.1/DTD/svg11.dtd">
<!-- Generated by graphviz version 2.38.0 (20140413.2041)
 -->
<!-- Title: Eigen::internal::pxor&lt; Packet2d &gt; Pages: 1 -->
<svg width="287pt" height="88pt"
 viewBox="0.00 0.00 287.00 88.00" xmlns="http://www.w3.org/2000/svg" xmlns:xlink="http://www.w3.org/1999/xlink">
<g id="graph0" class="graph" transform="scale(1 1) rotate(0) translate(4 84)">
<title>Eigen::internal::pxor&lt; Packet2d &gt;</title>
<!-- Node5333 -->
<g id="node1" class="node"><title>Node5333</title>
<polygon fill="#bfbfbf" stroke="black" points="0,-24.5 0,-54.5 112,-54.5 112,-24.5 0,-24.5"/>
<text text-anchor="start" x="8" y="-42.5" font-family="Helvetica,sans-Serif" font-size="10.00">Eigen::internal::pxor</text>
<text text-anchor="middle" x="56" y="-31.5" font-family="Helvetica,sans-Serif" font-size="10.00">&lt; Packet2d &gt;</text>
</g>
<!-- Node5334 -->
<g id="node2" class="node"><title>Node5334</title>
<g id="a_node2"><a xlink:href="namespaceEigen_1_1internal.html#a00bb122bef7ee702b6300fc47db1fadf" target="_top" xlink:title="Eigen::internal::pandnot\l\&lt; Packet4f \&gt;">
<polygon fill="none" stroke="black" points="148,-49.5 148,-79.5 279,-79.5 279,-49.5 148,-49.5"/>
<text text-anchor="start" x="156" y="-67.5" font-family="Helvetica,sans-Serif" font-size="10.00">Eigen::internal::pandnot</text>
<text text-anchor="middle" x="213.5" y="-56.5" font-family="Helvetica,sans-Serif" font-size="10.00">&lt; Packet4f &gt;</text>
</a>
</g>
</g>
<!-- Node5333&#45;&gt;Node5334 -->
<g id="edge1" class="edge"><title>Node5333&#45;&gt;Node5334</title>
<path fill="none" stroke="midnightblue" d="M112.261,-48.3845C120.543,-49.716 129.198,-51.1074 137.803,-52.4908"/>
<polygon fill="midnightblue" stroke="midnightblue" points="137.427,-55.9752 147.856,-54.107 138.538,-49.064 137.427,-55.9752"/>
</g>
<!-- Node5335 -->
<g id="node3" class="node"><title>Node5335</title>
<g id="a_node3"><a xlink:href="namespaceEigen_1_1internal.html#a571f141e28e911ac6e855018bfc00bb1" target="_top" xlink:title="Eigen::internal::pxor\l\&lt; Packet4i \&gt;">
<polygon fill="none" stroke="black" points="157.5,-0.5 157.5,-30.5 269.5,-30.5 269.5,-0.5 157.5,-0.5"/>
<text text-anchor="start" x="165.5" y="-18.5" font-family="Helvetica,sans-Serif" font-size="10.00">Eigen::internal::pxor</text>
<text text-anchor="middle" x="213.5" y="-7.5" font-family="Helvetica,sans-Serif" font-size="10.00">&lt; Packet4i &gt;</text>
</a>
</g>
</g>
<!-- Node5333&#45;&gt;Node5335 -->
<g id="edge2" class="edge"><title>Node5333&#45;&gt;Node5335</title>
<path fill="none" stroke="midnightblue" d="M112.261,-30.9709C123.604,-29.2202 135.646,-27.3617 147.301,-25.5629"/>
<polygon fill="midnightblue" stroke="midnightblue" points="148.068,-28.9861 157.417,-24.0016 147,-22.068 148.068,-28.9861"/>
</g>
</g>
</svg>
