<?xml version="1.0" encoding="UTF-8" standalone="no"?>
<!DOCTYPE svg PUBLIC "-//W3C//DTD SVG 1.1//EN"
 "http://www.w3.org/Graphics/SVG/1.1/DTD/svg11.dtd">
<!-- Generated by graphviz version 2.38.0 (20140413.2041)
 -->
<!-- Title: model_potential::g Pages: 1 -->
<svg width="409pt" height="66pt"
 viewBox="0.00 0.00 409.00 66.00" xmlns="http://www.w3.org/2000/svg" xmlns:xlink="http://www.w3.org/1999/xlink">
<g id="graph0" class="graph" transform="scale(1 1) rotate(0) translate(4 62)">
<title>model_potential::g</title>
<!-- Node0 -->
<g id="node1" class="node"><title>Node0</title>
<polygon fill="#bfbfbf" stroke="black" points="0,-19.5 0,-38.5 106,-38.5 106,-19.5 0,-19.5"/>
<text text-anchor="middle" x="53" y="-26.5" font-family="Helvetica,sans-Serif" font-size="10.00">model_potential::g</text>
</g>
<!-- Node1 -->
<g id="node2" class="node"><title>Node1</title>
<g id="a_node2"><a xlink:href="namespacemodel__potential.html#a9af0bc4c48b7d3125624d27c83073c2d" target="_top" xlink:title="Calculate the model potentials. ">
<polygon fill="none" stroke="black" points="142,-19.5 142,-38.5 249,-38.5 249,-19.5 142,-19.5"/>
<text text-anchor="middle" x="195.5" y="-26.5" font-family="Helvetica,sans-Serif" font-size="10.00">model_potential::V</text>
</a>
</g>
</g>
<!-- Node0&#45;&gt;Node1 -->
<g id="edge1" class="edge"><title>Node0&#45;&gt;Node1</title>
<path fill="none" stroke="midnightblue" d="M106.317,-29C114.526,-29 123.085,-29 131.504,-29"/>
<polygon fill="midnightblue" stroke="midnightblue" points="131.671,-32.5001 141.671,-29 131.671,-25.5001 131.671,-32.5001"/>
</g>
<!-- Node2 -->
<g id="node3" class="node"><title>Node2</title>
<g id="a_node3"><a xlink:href="ArrayCwiseUnaryOps_8h.html#a2500b5d4f377a445cb98d3f1facfa1cf" target="_top" xlink:title="exp">
<polygon fill="none" stroke="black" points="326,-38.5 326,-57.5 360,-57.5 360,-38.5 326,-38.5"/>
<text text-anchor="middle" x="343" y="-45.5" font-family="Helvetica,sans-Serif" font-size="10.00">exp</text>
</a>
</g>
</g>
<!-- Node1&#45;&gt;Node2 -->
<g id="edge2" class="edge"><title>Node1&#45;&gt;Node2</title>
<path fill="none" stroke="midnightblue" d="M249.029,-35.8594C271.756,-38.8272 297.343,-42.1685 315.913,-44.5934"/>
<polygon fill="midnightblue" stroke="midnightblue" points="315.591,-48.0811 325.96,-45.9055 316.498,-41.14 315.591,-48.0811"/>
</g>
<!-- Node3 -->
<g id="node4" class="node"><title>Node3</title>
<g id="a_node4"><a xlink:href="namespaceEigen_1_1half__impl.html#a829ad00a9c93131d5a8342b4ee29d83d" target="_top" xlink:title="Eigen::half_impl::pow">
<polygon fill="none" stroke="black" points="285,-0.5 285,-19.5 401,-19.5 401,-0.5 285,-0.5"/>
<text text-anchor="middle" x="343" y="-7.5" font-family="Helvetica,sans-Serif" font-size="10.00">Eigen::half_impl::pow</text>
</a>
</g>
</g>
<!-- Node1&#45;&gt;Node3 -->
<g id="edge3" class="edge"><title>Node1&#45;&gt;Node3</title>
<path fill="none" stroke="midnightblue" d="M249.029,-22.1406C257.337,-21.0557 266.027,-19.9209 274.616,-18.7992"/>
<polygon fill="midnightblue" stroke="midnightblue" points="275.163,-22.2577 284.625,-17.4923 274.256,-15.3167 275.163,-22.2577"/>
</g>
</g>
</svg>
