<?xml version="1.0" encoding="UTF-8" standalone="no"?>
<!DOCTYPE svg PUBLIC "-//W3C//DTD SVG 1.1//EN"
 "http://www.w3.org/Graphics/SVG/1.1/DTD/svg11.dtd">
<!-- Generated by graphviz version 2.38.0 (20140413.2041)
 -->
<!-- Title: mpfr::root Pages: 1 -->
<svg width="235pt" height="78pt"
 viewBox="0.00 0.00 235.00 77.50" xmlns="http://www.w3.org/2000/svg" xmlns:xlink="http://www.w3.org/1999/xlink">
<g id="graph0" class="graph" transform="scale(1 1) rotate(0) translate(4 73.5)">
<title>mpfr::root</title>
<!-- Node3902 -->
<g id="node1" class="node"><title>Node3902</title>
<polygon fill="#bfbfbf" stroke="black" points="0,-28 0,-47 65,-47 65,-28 0,-28"/>
<text text-anchor="middle" x="32.5" y="-35" font-family="Helvetica,sans-Serif" font-size="10.00">mpfr::root</text>
</g>
<!-- Node3903 -->
<g id="node2" class="node"><title>Node3903</title>
<g id="a_node2"><a xlink:href="classmpfr_1_1mpreal.html#af4e3b56888463376c675cac70b6ceca3" target="_top" xlink:title="mpfr::mpreal::mpfr_ptr">
<polygon fill="none" stroke="black" points="101,-50 101,-69 227,-69 227,-50 101,-50"/>
<text text-anchor="middle" x="164" y="-57" font-family="Helvetica,sans-Serif" font-size="10.00">mpfr::mpreal::mpfr_ptr</text>
</a>
</g>
</g>
<!-- Node3902&#45;&gt;Node3903 -->
<g id="edge1" class="edge"><title>Node3902&#45;&gt;Node3903</title>
<path fill="none" stroke="midnightblue" d="M65.1793,-42.8818C74.8106,-44.518 85.7765,-46.3809 96.7984,-48.2534"/>
<polygon fill="midnightblue" stroke="midnightblue" points="96.4547,-51.7451 106.9,-49.9694 97.6271,-44.844 96.4547,-51.7451"/>
</g>
<!-- Node3904 -->
<g id="node3" class="node"><title>Node3904</title>
<g id="a_node3"><a xlink:href="classmpfr_1_1mpreal.html#a566f64ca066c54923d19c11d6c3d15cd" target="_top" xlink:title="mpfr::mpreal::mpfr\l_srcptr">
<polygon fill="none" stroke="black" points="110.5,-0.5 110.5,-30.5 217.5,-30.5 217.5,-0.5 110.5,-0.5"/>
<text text-anchor="start" x="118.5" y="-18.5" font-family="Helvetica,sans-Serif" font-size="10.00">mpfr::mpreal::mpfr</text>
<text text-anchor="middle" x="164" y="-7.5" font-family="Helvetica,sans-Serif" font-size="10.00">_srcptr</text>
</a>
</g>
</g>
<!-- Node3902&#45;&gt;Node3904 -->
<g id="edge2" class="edge"><title>Node3902&#45;&gt;Node3904</title>
<path fill="none" stroke="midnightblue" d="M65.1793,-32.1182C75.8262,-30.3095 88.1038,-28.2237 100.285,-26.1542"/>
<polygon fill="midnightblue" stroke="midnightblue" points="101.185,-29.5517 110.457,-24.4262 100.012,-22.6506 101.185,-29.5517"/>
</g>
</g>
</svg>
