<?xml version="1.0" encoding="UTF-8" standalone="no"?>
<!DOCTYPE svg PUBLIC "-//W3C//DTD SVG 1.1//EN"
 "http://www.w3.org/Graphics/SVG/1.1/DTD/svg11.dtd">
<!-- Generated by graphviz version 2.38.0 (20140413.2041)
 -->
<!-- Title: Eigen::internal::pstore&lt; float &gt; Pages: 1 -->
<!--zoomable 300 -->
<svg id="main" version="1.1" xmlns="http://www.w3.org/2000/svg" xmlns:xlink="http://www.w3.org/1999/xlink" xml:space="preserve" onload="init(evt)">
<style type="text/css"><![CDATA[
.edge:hover path { stroke: red; }
.edge:hover polygon { stroke: red; fill: red; }
]]></style>
<script type="text/javascript"><![CDATA[
var edges = document.getElementsByTagName('g');
if (edges && edges.length) {
  for (var i=0;i<edges.length;i++) {
    if (edges[i].id.substr(0,4)=='edge') {
      edges[i].setAttribute('class','edge');
    }
  }
}
]]></script>
        <defs>
                <circle id="rim" cx="0" cy="0" r="7"/>
                <circle id="rim2" cx="0" cy="0" r="3.5"/>
                <g id="zoomPlus">
                        <use xlink:href="#rim" fill="#404040">
                                <set attributeName="fill" to="#808080" begin="zoomplus.mouseover" end="zoomplus.mouseout"/>
                        </use>
                        <path d="M-4,0h8M0,-4v8" fill="none" stroke="white" stroke-width="1.5" pointer-events="none"/>
                </g>
                <g id="zoomMin">
                        <use xlink:href="#rim" fill="#404040">
                                <set attributeName="fill" to="#808080" begin="zoomminus.mouseover" end="zoomminus.mouseout"/>
                        </use>
                        <path d="M-4,0h8" fill="none" stroke="white" stroke-width="1.5" pointer-events="none"/>
                </g>
                <g id="dirArrow">
                        <path fill="none" stroke="white" stroke-width="1.5" d="M0,-3.0v7 M-2.5,-0.5L0,-3.0L2.5,-0.5"/>
                </g>
               <g id="resetDef">
                       <use xlink:href="#rim2" fill="#404040">
                               <set attributeName="fill" to="#808080" begin="reset.mouseover" end="reset.mouseout"/>
                       </use>
               </g>
        </defs>

<script type="text/javascript">
var viewWidth = 793;
var viewHeight = 300;
var sectionId = 'dynsection-593';
</script>
<script xlink:href="svgpan.js"/>
<svg id="graph" class="graph">
<g id="viewport">
<title>Eigen::internal::pstore&lt; float &gt;</title>
<!-- Node4785 -->
<g id="node1" class="node"><title>Node4785</title>
<polygon fill="#bfbfbf" stroke="black" points="0,-102.121 0,-132.121 122,-132.121 122,-102.121 0,-102.121"/>
<text text-anchor="start" x="8" y="-120.121" font-family="Helvetica,sans-Serif" font-size="10.00">Eigen::internal::pstore</text>
<text text-anchor="middle" x="61" y="-109.121" font-family="Helvetica,sans-Serif" font-size="10.00">&lt; float &gt;</text>
</g>
<!-- Node4786 -->
<g id="node2" class="node"><title>Node4786</title>
<g id="a_node2"><a xlink:href="namespaceEigen_1_1internal.html#afcef5b81d59c0cde536eac077cc8e581" target="_top" xlink:title="Eigen::internal::pfloor\l\&lt; Packet2d \&gt;">
<polygon fill="none" stroke="black" points="334,-195.121 334,-225.121 452,-225.121 452,-195.121 334,-195.121"/>
<text text-anchor="start" x="342" y="-213.121" font-family="Helvetica,sans-Serif" font-size="10.00">Eigen::internal::pfloor</text>
<text text-anchor="middle" x="393" y="-202.121" font-family="Helvetica,sans-Serif" font-size="10.00">&lt; Packet2d &gt;</text>
</a>
</g>
</g>
<!-- Node4785&#45;&gt;Node4786 -->
<g id="edge1" class="edge"><title>Node4785&#45;&gt;Node4786</title>
<path fill="none" stroke="midnightblue" d="M83.9352,-139.692C102.054,-156.765 129.366,-179.09 158,-190.121 214.881,-212.033 285.13,-215.173 333.734,-213.993"/>
<polygon fill="midnightblue" stroke="midnightblue" points="85.9018,-136.724 76.2855,-132.276 81.0296,-141.75 85.9018,-136.724"/>
</g>
<!-- Node4791 -->
<g id="node7" class="node"><title>Node4791</title>
<g id="a_node7"><a xlink:href="namespaceEigen_1_1internal.html#a422d191db7a3b5d19a59688e9138dc1c" target="_top" xlink:title="Eigen::internal::ploaddup\l\&lt; Packet2d \&gt;">
<polygon fill="none" stroke="black" points="158,-151.121 158,-181.121 293,-181.121 293,-151.121 158,-151.121"/>
<text text-anchor="start" x="166" y="-169.121" font-family="Helvetica,sans-Serif" font-size="10.00">Eigen::internal::ploaddup</text>
<text text-anchor="middle" x="225.5" y="-158.121" font-family="Helvetica,sans-Serif" font-size="10.00">&lt; Packet2d &gt;</text>
</a>
</g>
</g>
<!-- Node4785&#45;&gt;Node4791 -->
<g id="edge7" class="edge"><title>Node4785&#45;&gt;Node4791</title>
<path fill="none" stroke="midnightblue" d="M122.068,-135.234C139.344,-140.443 157.993,-146.067 174.584,-151.069"/>
<polygon fill="midnightblue" stroke="midnightblue" points="122.666,-131.758 112.081,-132.222 120.645,-138.46 122.666,-131.758"/>
</g>
<!-- Node4792 -->
<g id="node8" class="node"><title>Node4792</title>
<g id="a_node8"><a xlink:href="namespaceEigen_1_1internal.html#af4d6d50f956ceffbb79f68fc11006ed4" target="_top" xlink:title="Eigen::internal::ploaddup\l\&lt; Packet4i \&gt;">
<polygon fill="none" stroke="black" points="158,-102.121 158,-132.121 293,-132.121 293,-102.121 158,-102.121"/>
<text text-anchor="start" x="166" y="-120.121" font-family="Helvetica,sans-Serif" font-size="10.00">Eigen::internal::ploaddup</text>
<text text-anchor="middle" x="225.5" y="-109.121" font-family="Helvetica,sans-Serif" font-size="10.00">&lt; Packet4i &gt;</text>
</a>
</g>
</g>
<!-- Node4785&#45;&gt;Node4792 -->
<g id="edge10" class="edge"><title>Node4785&#45;&gt;Node4792</title>
<path fill="none" stroke="midnightblue" d="M132.293,-117.121C140.779,-117.121 149.428,-117.121 157.86,-117.121"/>
<polygon fill="midnightblue" stroke="midnightblue" points="132.047,-113.621 122.047,-117.121 132.047,-120.621 132.047,-113.621"/>
</g>
<!-- Node4793 -->
<g id="node9" class="node"><title>Node4793</title>
<g id="a_node9"><a xlink:href="namespaceEigen_1_1internal.html#a98f3ee4a4735562e01d8054546b4352d" target="_top" xlink:title="Eigen::internal::pscatter\l\&lt; float, Packet4f \&gt;">
<polygon fill="none" stroke="black" points="160,-53.1209 160,-83.1209 291,-83.1209 291,-53.1209 160,-53.1209"/>
<text text-anchor="start" x="168" y="-71.1209" font-family="Helvetica,sans-Serif" font-size="10.00">Eigen::internal::pscatter</text>
<text text-anchor="middle" x="225.5" y="-60.1209" font-family="Helvetica,sans-Serif" font-size="10.00">&lt; float, Packet4f &gt;</text>
</a>
</g>
</g>
<!-- Node4785&#45;&gt;Node4793 -->
<g id="edge11" class="edge"><title>Node4785&#45;&gt;Node4793</title>
<path fill="none" stroke="midnightblue" d="M122.068,-99.008C139.344,-93.7987 157.993,-88.1752 174.584,-83.1725"/>
<polygon fill="midnightblue" stroke="midnightblue" points="120.645,-95.7814 112.081,-102.019 122.666,-102.483 120.645,-95.7814"/>
</g>
<!-- Node4795 -->
<g id="node11" class="node"><title>Node4795</title>
<g id="a_node11"><a xlink:href="structEigen_1_1internal_1_1palign__impl_3_01Offset_00_01Packet2d_01_4.html#a67e74f2cd50ad7d14d1820186da5f752" target="_top" xlink:title="Eigen::internal::palign\l_impl\&lt; Offset, Packet2d\l \&gt;::run">
<polygon fill="none" stroke="black" points="493,-57.6209 493,-98.6209 624,-98.6209 624,-57.6209 493,-57.6209"/>
<text text-anchor="start" x="501" y="-86.6209" font-family="Helvetica,sans-Serif" font-size="10.00">Eigen::internal::palign</text>
<text text-anchor="start" x="501" y="-75.6209" font-family="Helvetica,sans-Serif" font-size="10.00">_impl&lt; Offset, Packet2d</text>
<text text-anchor="middle" x="558.5" y="-64.6209" font-family="Helvetica,sans-Serif" font-size="10.00"> &gt;::run</text>
</a>
</g>
</g>
<!-- Node4785&#45;&gt;Node4795 -->
<g id="edge17" class="edge"><title>Node4785&#45;&gt;Node4795</title>
<path fill="none" stroke="midnightblue" d="M84.5661,-94.8059C102.854,-78.0168 130.088,-55.8032 158,-43.1209 228.547,-11.0662 251.885,-16.713 329,-9.12088 385.615,-3.54703 402.666,7.73587 457,-9.12088 487.523,-18.5904 517.004,-40.895 536.053,-57.5988"/>
<polygon fill="midnightblue" stroke="midnightblue" points="81.712,-92.6852 76.8226,-102.084 86.5062,-97.7857 81.712,-92.6852"/>
</g>
<!-- Node4787 -->
<g id="node3" class="node"><title>Node4787</title>
<g id="a_node3"><a xlink:href="namespaceEigen_1_1internal.html#abaadd9aa6aafdf268f71646684340302" target="_top" xlink:title="Eigen::internal::pblend">
<polygon fill="none" stroke="black" points="661,-165.621 661,-184.621 784,-184.621 784,-165.621 661,-165.621"/>
<text text-anchor="middle" x="722.5" y="-172.621" font-family="Helvetica,sans-Serif" font-size="10.00">Eigen::internal::pblend</text>
</a>
</g>
</g>
<!-- Node4786&#45;&gt;Node4787 -->
<g id="edge2" class="edge"><title>Node4786&#45;&gt;Node4787</title>
<path fill="none" stroke="midnightblue" d="M462.445,-202.806C521.032,-196.545 604.587,-187.615 660.818,-181.606"/>
<polygon fill="midnightblue" stroke="midnightblue" points="461.744,-199.361 452.173,-203.904 462.488,-206.321 461.744,-199.361"/>
</g>
<!-- Node4788 -->
<g id="node4" class="node"><title>Node4788</title>
<g id="a_node4"><a xlink:href="namespaceEigen_1_1internal.html#aeab59aec7b70a1f67d9f060b55903ceb" target="_top" xlink:title="Eigen::internal::pmax\l\&lt; Packet2d \&gt;">
<polygon fill="none" stroke="black" points="499.5,-233.121 499.5,-263.121 617.5,-263.121 617.5,-233.121 499.5,-233.121"/>
<text text-anchor="start" x="507.5" y="-251.121" font-family="Helvetica,sans-Serif" font-size="10.00">Eigen::internal::pmax</text>
<text text-anchor="middle" x="558.5" y="-240.121" font-family="Helvetica,sans-Serif" font-size="10.00">&lt; Packet2d &gt;</text>
</a>
</g>
</g>
<!-- Node4786&#45;&gt;Node4788 -->
<g id="edge3" class="edge"><title>Node4786&#45;&gt;Node4788</title>
<path fill="none" stroke="midnightblue" d="M461.944,-225.912C474.357,-228.797 487.209,-231.784 499.307,-234.596"/>
<polygon fill="midnightblue" stroke="midnightblue" points="462.637,-222.48 452.104,-223.625 461.052,-229.298 462.637,-222.48"/>
</g>
<!-- Node4788&#45;&gt;Node4787 -->
<g id="edge5" class="edge"><title>Node4788&#45;&gt;Node4787</title>
<path fill="none" stroke="midnightblue" d="M602.516,-228.737C634.09,-214.509 675.618,-195.796 700.337,-184.657"/>
<polygon fill="midnightblue" stroke="midnightblue" points="600.746,-225.696 593.067,-232.995 603.622,-232.078 600.746,-225.696"/>
</g>
<!-- Node4789 -->
<g id="node5" class="node"><title>Node4789</title>
<g id="a_node5"><a xlink:href="namespaceEigen_1_1internal.html#a2636173af6863de34e156dfbf6ed6301" target="_top" xlink:title="Eigen::internal::pabs\l\&lt; Packet4f \&gt;">
<polygon fill="none" stroke="black" points="665.5,-223.121 665.5,-253.121 779.5,-253.121 779.5,-223.121 665.5,-223.121"/>
<text text-anchor="start" x="673.5" y="-241.121" font-family="Helvetica,sans-Serif" font-size="10.00">Eigen::internal::pabs</text>
<text text-anchor="middle" x="722.5" y="-230.121" font-family="Helvetica,sans-Serif" font-size="10.00">&lt; Packet4f &gt;</text>
</a>
</g>
</g>
<!-- Node4788&#45;&gt;Node4789 -->
<g id="edge4" class="edge"><title>Node4788&#45;&gt;Node4789</title>
<path fill="none" stroke="midnightblue" d="M627.866,-243.901C640.319,-243.132 653.18,-242.338 665.234,-241.594"/>
<polygon fill="midnightblue" stroke="midnightblue" points="627.293,-240.429 617.528,-244.539 627.725,-247.416 627.293,-240.429"/>
</g>
<!-- Node4790 -->
<g id="node6" class="node"><title>Node4790</title>
<g id="a_node6"><a xlink:href="namespaceEigen_1_1internal.html#abdf0ea7e126fdf116b7e4d9200f7a90f" target="_top" xlink:title="Eigen::internal::pmadd">
<polygon fill="none" stroke="black" points="660,-272.621 660,-291.621 785,-291.621 785,-272.621 660,-272.621"/>
<text text-anchor="middle" x="722.5" y="-279.621" font-family="Helvetica,sans-Serif" font-size="10.00">Eigen::internal::pmadd</text>
</a>
</g>
</g>
<!-- Node4788&#45;&gt;Node4790 -->
<g id="edge6" class="edge"><title>Node4788&#45;&gt;Node4790</title>
<path fill="none" stroke="midnightblue" d="M627.595,-262.412C643.952,-265.845 661.03,-269.43 676.068,-272.586"/>
<polygon fill="midnightblue" stroke="midnightblue" points="628.034,-258.928 617.528,-260.3 626.596,-265.779 628.034,-258.928"/>
</g>
<!-- Node4791&#45;&gt;Node4786 -->
<g id="edge9" class="edge"><title>Node4791&#45;&gt;Node4786</title>
<path fill="none" stroke="midnightblue" d="M292.678,-183.715C306.855,-187.484 321.709,-191.433 335.481,-195.095"/>
<polygon fill="midnightblue" stroke="midnightblue" points="293.556,-180.327 282.993,-181.14 291.758,-187.092 293.556,-180.327"/>
</g>
<!-- Node4791&#45;&gt;Node4787 -->
<g id="edge8" class="edge"><title>Node4791&#45;&gt;Node4787</title>
<path fill="none" stroke="midnightblue" d="M303.188,-167.515C401.695,-169.306 570.675,-172.379 660.766,-174.017"/>
<polygon fill="midnightblue" stroke="midnightblue" points="303.063,-164.012 293.001,-167.33 302.936,-171.011 303.063,-164.012"/>
</g>
<!-- Node4794 -->
<g id="node10" class="node"><title>Node4794</title>
<g id="a_node10"><a xlink:href="namespaceEigen_1_1internal.html#ad5638aebcd54734e0ff846c96cf56224" target="_top" xlink:title="Eigen::internal::pgather\l\&lt; double, Packet2d \&gt;">
<polygon fill="none" stroke="black" points="329,-107.121 329,-137.121 457,-137.121 457,-107.121 329,-107.121"/>
<text text-anchor="start" x="337" y="-125.121" font-family="Helvetica,sans-Serif" font-size="10.00">Eigen::internal::pgather</text>
<text text-anchor="middle" x="393" y="-114.121" font-family="Helvetica,sans-Serif" font-size="10.00">&lt; double, Packet2d &gt;</text>
</a>
</g>
</g>
<!-- Node4793&#45;&gt;Node4794 -->
<g id="edge12" class="edge"><title>Node4793&#45;&gt;Node4794</title>
<path fill="none" stroke="midnightblue" d="M282.215,-86.2998C302.902,-93.0496 326.121,-100.626 345.86,-107.066"/>
<polygon fill="midnightblue" stroke="midnightblue" points="283.193,-82.9375 272.601,-83.1629 281.022,-89.5922 283.193,-82.9375"/>
</g>
<!-- Node4793&#45;&gt;Node4795 -->
<g id="edge16" class="edge"><title>Node4793&#45;&gt;Node4795</title>
<path fill="none" stroke="midnightblue" d="M301.25,-70.3792C358.897,-72.1208 437.809,-74.5049 492.775,-76.1654"/>
<polygon fill="midnightblue" stroke="midnightblue" points="301.207,-66.8764 291.106,-70.0727 300.996,-73.8732 301.207,-66.8764"/>
</g>
<!-- Node4796 -->
<g id="node12" class="node"><title>Node4796</title>
<g id="a_node12"><a xlink:href="namespaceEigen_1_1internal.html#ae274a0bcf835500d0dc6bda5665bdc0e" target="_top" xlink:title="Eigen::internal::pgather\l\&lt; int32_t, Packet4i \&gt;">
<polygon fill="none" stroke="black" points="329,-19.1209 329,-49.1209 457,-49.1209 457,-19.1209 329,-19.1209"/>
<text text-anchor="start" x="337" y="-37.1209" font-family="Helvetica,sans-Serif" font-size="10.00">Eigen::internal::pgather</text>
<text text-anchor="middle" x="393" y="-26.1209" font-family="Helvetica,sans-Serif" font-size="10.00">&lt; int32_t, Packet4i &gt;</text>
</a>
</g>
</g>
<!-- Node4793&#45;&gt;Node4796 -->
<g id="edge15" class="edge"><title>Node4793&#45;&gt;Node4796</title>
<path fill="none" stroke="midnightblue" d="M301.344,-52.745C310.544,-50.855 319.876,-48.938 328.878,-47.0885"/>
<polygon fill="midnightblue" stroke="midnightblue" points="300.526,-49.3399 291.435,-54.7808 301.935,-56.1967 300.526,-49.3399"/>
</g>
<!-- Node4794&#45;&gt;Node4787 -->
<g id="edge13" class="edge"><title>Node4794&#45;&gt;Node4787</title>
<path fill="none" stroke="midnightblue" d="M467.271,-129.748C512.6,-134.944 571.888,-142.601 624,-152.121 644.359,-155.84 666.858,-161.071 685.109,-165.605"/>
<polygon fill="midnightblue" stroke="midnightblue" points="467.565,-126.259 457.235,-128.612 466.777,-133.214 467.565,-126.259"/>
</g>
<!-- Node4794&#45;&gt;Node4795 -->
<g id="edge14" class="edge"><title>Node4794&#45;&gt;Node4795</title>
<path fill="none" stroke="midnightblue" d="M459.727,-104.433C470.672,-101.487 482.017,-98.4343 492.934,-95.4965"/>
<polygon fill="midnightblue" stroke="midnightblue" points="458.557,-101.123 449.81,-107.102 460.376,-107.883 458.557,-101.123"/>
</g>
</g>
</svg>
        <g id="navigator" transform="translate(0 0)" fill="#404254">
                <rect fill="#f2f5e9" fill-opacity="0.5" stroke="#606060" stroke-width=".5" x="0" y="0" width="60" height="60"/>
                <use id="zoomplus" xlink:href="#zoomPlus" x="17" y="9" onmousedown="handleZoom(evt,'in')"/>
                <use id="zoomminus" xlink:href="#zoomMin" x="42" y="9" onmousedown="handleZoom(evt,'out')"/>
                <use id="reset" xlink:href="#resetDef" x="30" y="36" onmousedown="handleReset()"/>
                <g id="arrowUp" xlink:href="#dirArrow" transform="translate(30 24)" onmousedown="handlePan(0,-1)">
                  <use xlink:href="#rim" fill="#404040">
                        <set attributeName="fill" to="#808080" begin="arrowUp.mouseover" end="arrowUp.mouseout"/>
                  </use>
                  <path fill="none" stroke="white" stroke-width="1.5" d="M0,-3.0v7 M-2.5,-0.5L0,-3.0L2.5,-0.5"/>
                </g>
                <g id="arrowRight" xlink:href="#dirArrow" transform="rotate(90) translate(36 -43)" onmousedown="handlePan(1,0)">
                  <use xlink:href="#rim" fill="#404040">
                        <set attributeName="fill" to="#808080" begin="arrowRight.mouseover" end="arrowRight.mouseout"/>
                  </use>
                  <path fill="none" stroke="white" stroke-width="1.5" d="M0,-3.0v7 M-2.5,-0.5L0,-3.0L2.5,-0.5"/>
                </g>
                <g id="arrowDown" xlink:href="#dirArrow" transform="rotate(180) translate(-30 -48)" onmousedown="handlePan(0,1)">
                  <use xlink:href="#rim" fill="#404040">
                        <set attributeName="fill" to="#808080" begin="arrowDown.mouseover" end="arrowDown.mouseout"/>
                  </use>
                  <path fill="none" stroke="white" stroke-width="1.5" d="M0,-3.0v7 M-2.5,-0.5L0,-3.0L2.5,-0.5"/>
                </g>
                <g id="arrowLeft" xlink:href="#dirArrow" transform="rotate(270) translate(-36 17)" onmousedown="handlePan(-1,0)">
                  <use xlink:href="#rim" fill="#404040">
                        <set attributeName="fill" to="#808080" begin="arrowLeft.mouseover" end="arrowLeft.mouseout"/>
                  </use>
                  <path fill="none" stroke="white" stroke-width="1.5" d="M0,-3.0v7 M-2.5,-0.5L0,-3.0L2.5,-0.5"/>
                </g>
        </g>
        <svg viewBox="0 0 15 15" width="100%" height="30px" preserveAspectRatio="xMaxYMin meet">
         <g id="arrow_out" transform="scale(0.3 0.3)">
          <a xlink:href="namespaceEigen_1_1internal_a9ee8e4444b597c94c387d0c22c85adb3_icgraph_org.svg" target="_base">
           <rect id="button" ry="5" rx="5" y="6" x="6" height="38" width="38"
                fill="#f2f5e9" fill-opacity="0.5" stroke="#606060" stroke-width="1.0"/>
           <path id="arrow"
             d="M 11.500037,31.436501 C 11.940474,20.09759 22.043105,11.32322 32.158766,21.979434 L 37.068811,17.246167 C 37.068811,17.246167 37.088388,32 37.088388,32 L 22.160133,31.978069 C 22.160133,31.978069 26.997745,27.140456 26.997745,27.140456 C 18.528582,18.264221 13.291696,25.230495 11.500037,31.436501 z"
             style="fill:#404040;"/>
          </a>
         </g>
        </svg>
</svg>
