<?xml version="1.0" encoding="UTF-8" standalone="no"?>
<!DOCTYPE svg PUBLIC "-//W3C//DTD SVG 1.1//EN"
 "http://www.w3.org/Graphics/SVG/1.1/DTD/svg11.dtd">
<!-- Generated by graphviz version 2.38.0 (20140413.2041)
 -->
<!-- Title: mpfr::fms Pages: 1 -->
<svg width="396pt" height="78pt"
 viewBox="0.00 0.00 396.00 77.50" xmlns="http://www.w3.org/2000/svg" xmlns:xlink="http://www.w3.org/1999/xlink">
<g id="graph0" class="graph" transform="scale(1 1) rotate(0) translate(4 73.5)">
<title>mpfr::fms</title>
<!-- Node226 -->
<g id="node1" class="node"><title>Node226</title>
<polygon fill="#bfbfbf" stroke="black" points="0,-22.5 0,-41.5 63,-41.5 63,-22.5 0,-22.5"/>
<text text-anchor="middle" x="31.5" y="-29.5" font-family="Helvetica,sans-Serif" font-size="10.00">mpfr::fms</text>
</g>
<!-- Node227 -->
<g id="node2" class="node"><title>Node227</title>
<g id="a_node2"><a xlink:href="classmpfr_1_1mpreal.html#a3a7ea3586a91489fa7509562becd304d" target="_top" xlink:title="mpfr::mpreal::get_prec">
<polygon fill="none" stroke="black" points="99,-42.5 99,-61.5 226,-61.5 226,-42.5 99,-42.5"/>
<text text-anchor="middle" x="162.5" y="-49.5" font-family="Helvetica,sans-Serif" font-size="10.00">mpfr::mpreal::get_prec</text>
</a>
</g>
</g>
<!-- Node226&#45;&gt;Node227 -->
<g id="edge1" class="edge"><title>Node226&#45;&gt;Node227</title>
<path fill="none" stroke="midnightblue" d="M63.0712,-36.7397C71.3105,-38.0171 80.5824,-39.4546 90.0565,-40.9235"/>
<polygon fill="midnightblue" stroke="midnightblue" points="89.5497,-44.3866 99.9679,-42.4601 90.6222,-37.4693 89.5497,-44.3866"/>
</g>
<!-- Node229 -->
<g id="node4" class="node"><title>Node229</title>
<g id="a_node4"><a xlink:href="classmpfr_1_1mpreal.html#a7e096c82de9a582878e55834733788bc" target="_top" xlink:title="mpfr::mpreal::set_prec">
<polygon fill="none" stroke="black" points="99.5,-3.5 99.5,-22.5 225.5,-22.5 225.5,-3.5 99.5,-3.5"/>
<text text-anchor="middle" x="162.5" y="-10.5" font-family="Helvetica,sans-Serif" font-size="10.00">mpfr::mpreal::set_prec</text>
</a>
</g>
</g>
<!-- Node226&#45;&gt;Node229 -->
<g id="edge3" class="edge"><title>Node226&#45;&gt;Node229</title>
<path fill="none" stroke="midnightblue" d="M63.0712,-27.4973C71.1143,-26.3126 80.1415,-24.983 89.3802,-23.6223"/>
<polygon fill="midnightblue" stroke="midnightblue" points="90.0684,-27.0588 99.4516,-22.1389 89.0483,-20.1335 90.0684,-27.0588"/>
</g>
<!-- Node228 -->
<g id="node3" class="node"><title>Node228</title>
<g id="a_node3"><a xlink:href="classmpfr_1_1mpreal.html#a566f64ca066c54923d19c11d6c3d15cd" target="_top" xlink:title="mpfr::mpreal::mpfr\l_srcptr">
<polygon fill="none" stroke="black" points="271.5,-39 271.5,-69 378.5,-69 378.5,-39 271.5,-39"/>
<text text-anchor="start" x="279.5" y="-57" font-family="Helvetica,sans-Serif" font-size="10.00">mpfr::mpreal::mpfr</text>
<text text-anchor="middle" x="325" y="-46" font-family="Helvetica,sans-Serif" font-size="10.00">_srcptr</text>
</a>
</g>
</g>
<!-- Node227&#45;&gt;Node228 -->
<g id="edge2" class="edge"><title>Node227&#45;&gt;Node228</title>
<path fill="none" stroke="midnightblue" d="M226.013,-52.779C237.586,-52.9232 249.677,-53.0739 261.257,-53.2182"/>
<polygon fill="midnightblue" stroke="midnightblue" points="261.233,-56.718 271.276,-53.343 261.321,-49.7186 261.233,-56.718"/>
</g>
<!-- Node230 -->
<g id="node5" class="node"><title>Node230</title>
<g id="a_node5"><a xlink:href="classmpfr_1_1mpreal.html#af4e3b56888463376c675cac70b6ceca3" target="_top" xlink:title="mpfr::mpreal::mpfr_ptr">
<polygon fill="none" stroke="black" points="262,-0.5 262,-19.5 388,-19.5 388,-0.5 262,-0.5"/>
<text text-anchor="middle" x="325" y="-7.5" font-family="Helvetica,sans-Serif" font-size="10.00">mpfr::mpreal::mpfr_ptr</text>
</a>
</g>
</g>
<!-- Node229&#45;&gt;Node230 -->
<g id="edge4" class="edge"><title>Node229&#45;&gt;Node230</title>
<path fill="none" stroke="midnightblue" d="M225.553,-11.8401C234.113,-11.6801 242.964,-11.5147 251.688,-11.3516"/>
<polygon fill="midnightblue" stroke="midnightblue" points="251.914,-14.8481 261.847,-11.1617 251.783,-7.84933 251.914,-14.8481"/>
</g>
</g>
</svg>
