<?xml version="1.0" encoding="UTF-8" standalone="no"?>
<!DOCTYPE svg PUBLIC "-//W3C//DTD SVG 1.1//EN"
 "http://www.w3.org/Graphics/SVG/1.1/DTD/svg11.dtd">
<!-- Generated by graphviz version 2.38.0 (20140413.2041)
 -->
<!-- Title: Eigen::internal::pdiv&lt; Packet4f &gt; Pages: 1 -->
<!--zoomable 586 -->
<svg id="main" version="1.1" xmlns="http://www.w3.org/2000/svg" xmlns:xlink="http://www.w3.org/1999/xlink" xml:space="preserve" onload="init(evt)">
<style type="text/css"><![CDATA[
.edge:hover path { stroke: red; }
.edge:hover polygon { stroke: red; fill: red; }
]]></style>
<script type="text/javascript"><![CDATA[
var edges = document.getElementsByTagName('g');
if (edges && edges.length) {
  for (var i=0;i<edges.length;i++) {
    if (edges[i].id.substr(0,4)=='edge') {
      edges[i].setAttribute('class','edge');
    }
  }
}
]]></script>
        <defs>
                <circle id="rim" cx="0" cy="0" r="7"/>
                <circle id="rim2" cx="0" cy="0" r="3.5"/>
                <g id="zoomPlus">
                        <use xlink:href="#rim" fill="#404040">
                                <set attributeName="fill" to="#808080" begin="zoomplus.mouseover" end="zoomplus.mouseout"/>
                        </use>
                        <path d="M-4,0h8M0,-4v8" fill="none" stroke="white" stroke-width="1.5" pointer-events="none"/>
                </g>
                <g id="zoomMin">
                        <use xlink:href="#rim" fill="#404040">
                                <set attributeName="fill" to="#808080" begin="zoomminus.mouseover" end="zoomminus.mouseout"/>
                        </use>
                        <path d="M-4,0h8" fill="none" stroke="white" stroke-width="1.5" pointer-events="none"/>
                </g>
                <g id="dirArrow">
                        <path fill="none" stroke="white" stroke-width="1.5" d="M0,-3.0v7 M-2.5,-0.5L0,-3.0L2.5,-0.5"/>
                </g>
               <g id="resetDef">
                       <use xlink:href="#rim2" fill="#404040">
                               <set attributeName="fill" to="#808080" begin="reset.mouseover" end="reset.mouseout"/>
                       </use>
               </g>
        </defs>

<script type="text/javascript">
var viewWidth = 831;
var viewHeight = 586;
var sectionId = 'dynsection-279';
</script>
<script xlink:href="svgpan.js"/>
<svg id="graph" class="graph">
<g id="viewport">
<title>Eigen::internal::pdiv&lt; Packet4f &gt;</title>
<!-- Node2270 -->
<g id="node1" class="node"><title>Node2270</title>
<polygon fill="#bfbfbf" stroke="black" points="0,-485 0,-515 110,-515 110,-485 0,-485"/>
<text text-anchor="start" x="8" y="-503" font-family="Helvetica,sans-Serif" font-size="10.00">Eigen::internal::pdiv</text>
<text text-anchor="middle" x="55" y="-492" font-family="Helvetica,sans-Serif" font-size="10.00">&lt; Packet4f &gt;</text>
</g>
<!-- Node2271 -->
<g id="node2" class="node"><title>Node2271</title>
<g id="a_node2"><a xlink:href="namespaceEigen_1_1internal.html#adb3213470976ff627f38a34e3bde917b" target="_top" xlink:title="Eigen::internal::plset\l\&lt; Packet4i \&gt;">
<polygon fill="none" stroke="black" points="146.5,-529 146.5,-559 260.5,-559 260.5,-529 146.5,-529"/>
<text text-anchor="start" x="154.5" y="-547" font-family="Helvetica,sans-Serif" font-size="10.00">Eigen::internal::plset</text>
<text text-anchor="middle" x="203.5" y="-536" font-family="Helvetica,sans-Serif" font-size="10.00">&lt; Packet4i &gt;</text>
</a>
</g>
</g>
<!-- Node2270&#45;&gt;Node2271 -->
<g id="edge1" class="edge"><title>Node2270&#45;&gt;Node2271</title>
<path fill="none" stroke="midnightblue" d="M115.614,-517.904C127.764,-521.554 140.434,-525.359 152.221,-528.899"/>
<polygon fill="midnightblue" stroke="midnightblue" points="116.591,-514.544 106.007,-515.019 114.578,-521.248 116.591,-514.544"/>
</g>
<!-- Node2272 -->
<g id="node3" class="node"><title>Node2272</title>
<g id="a_node3"><a xlink:href="namespaceEigen_1_1internal.html#a7ddaaf72ad6b225759980160fdb93eb1" target="_top" xlink:title="Eigen::internal::pmul\l\&lt; Packet2d \&gt;">
<polygon fill="none" stroke="black" points="146,-191 146,-221 261,-221 261,-191 146,-191"/>
<text text-anchor="start" x="154" y="-209" font-family="Helvetica,sans-Serif" font-size="10.00">Eigen::internal::pmul</text>
<text text-anchor="middle" x="203.5" y="-198" font-family="Helvetica,sans-Serif" font-size="10.00">&lt; Packet2d &gt;</text>
</a>
</g>
</g>
<!-- Node2270&#45;&gt;Node2272 -->
<g id="edge2" class="edge"><title>Node2270&#45;&gt;Node2272</title>
<path fill="none" stroke="midnightblue" d="M68.3025,-475.311C97.6482,-416.419 171.079,-269.056 194.906,-221.24"/>
<polygon fill="midnightblue" stroke="midnightblue" points="64.9976,-474.096 63.6702,-484.607 71.2628,-477.218 64.9976,-474.096"/>
</g>
<!-- Node2279 -->
<g id="node10" class="node"><title>Node2279</title>
<g id="a_node10"><a xlink:href="structEigen_1_1internal_1_1palign__impl_3_01Offset_00_01Packet2d_01_4.html#a67e74f2cd50ad7d14d1820186da5f752" target="_top" xlink:title="Eigen::internal::palign\l_impl\&lt; Offset, Packet2d\l \&gt;::run">
<polygon fill="none" stroke="black" points="527.5,-536.5 527.5,-577.5 658.5,-577.5 658.5,-536.5 527.5,-536.5"/>
<text text-anchor="start" x="535.5" y="-565.5" font-family="Helvetica,sans-Serif" font-size="10.00">Eigen::internal::palign</text>
<text text-anchor="start" x="535.5" y="-554.5" font-family="Helvetica,sans-Serif" font-size="10.00">_impl&lt; Offset, Packet2d</text>
<text text-anchor="middle" x="593" y="-543.5" font-family="Helvetica,sans-Serif" font-size="10.00"> &gt;::run</text>
</a>
</g>
</g>
<!-- Node2270&#45;&gt;Node2279 -->
<g id="edge21" class="edge"><title>Node2270&#45;&gt;Node2279</title>
<path fill="none" stroke="midnightblue" d="M120.389,-506.048C160.786,-509.9 213.951,-515.076 261,-520 353.59,-529.691 460.637,-541.827 527.336,-549.499"/>
<polygon fill="midnightblue" stroke="midnightblue" points="120.692,-502.561 110.405,-505.098 120.028,-509.529 120.692,-502.561"/>
</g>
<!-- Node2273 -->
<g id="node4" class="node"><title>Node2273</title>
<g id="a_node4"><a xlink:href="namespaceEigen_1_1internal.html#a375fca01f8ae80efcba6793f990c7917" target="_top" xlink:title="Eigen::internal::ptranspose">
<polygon fill="none" stroke="black" points="306.5,-245.5 306.5,-264.5 451.5,-264.5 451.5,-245.5 306.5,-245.5"/>
<text text-anchor="middle" x="379" y="-252.5" font-family="Helvetica,sans-Serif" font-size="10.00">Eigen::internal::ptranspose</text>
</a>
</g>
</g>
<!-- Node2272&#45;&gt;Node2273 -->
<g id="edge3" class="edge"><title>Node2272&#45;&gt;Node2273</title>
<path fill="none" stroke="midnightblue" d="M258.029,-224.196C270.741,-228.285 284.301,-232.458 297,-236 308.965,-239.337 322.033,-242.577 334.111,-245.407"/>
<polygon fill="midnightblue" stroke="midnightblue" points="259.093,-220.862 248.5,-221.097 256.928,-227.518 259.093,-220.862"/>
</g>
<!-- Node2274 -->
<g id="node5" class="node"><title>Node2274</title>
<g id="a_node5"><a xlink:href="structEigen_1_1internal_1_1conj__helper_3_01Packet2cf_00_01Packet2cf_00_01true_00_01true_01_4.html#a6956a6a7b0de2fd58bd9a8ab2e3c25ae" target="_top" xlink:title="Eigen::internal::conj\l_helper\&lt; Packet2cf, Packet2cf,\l true, true \&gt;::pmul">
<polygon fill="none" stroke="black" points="511,-38.5 511,-79.5 675,-79.5 675,-38.5 511,-38.5"/>
<text text-anchor="start" x="519" y="-67.5" font-family="Helvetica,sans-Serif" font-size="10.00">Eigen::internal::conj</text>
<text text-anchor="start" x="519" y="-56.5" font-family="Helvetica,sans-Serif" font-size="10.00">_helper&lt; Packet2cf, Packet2cf,</text>
<text text-anchor="middle" x="593" y="-45.5" font-family="Helvetica,sans-Serif" font-size="10.00"> true, true &gt;::pmul</text>
</a>
</g>
</g>
<!-- Node2272&#45;&gt;Node2274 -->
<g id="edge16" class="edge"><title>Node2272&#45;&gt;Node2274</title>
<path fill="none" stroke="midnightblue" d="M258.857,-187.798C271.346,-183.776 284.6,-179.633 297,-176 369.313,-154.812 397.591,-173.71 461,-133 482.262,-119.349 476.082,-103.172 497,-89 502.155,-85.5075 507.739,-82.4041 513.529,-79.6493"/>
<polygon fill="midnightblue" stroke="midnightblue" points="257.467,-184.569 249.036,-190.986 259.628,-191.227 257.467,-184.569"/>
</g>
<!-- Node2278 -->
<g id="node9" class="node"><title>Node2278</title>
<g id="a_node9"><a xlink:href="namespaceEigen_1_1internal.html#abaadd9aa6aafdf268f71646684340302" target="_top" xlink:title="Eigen::internal::pblend">
<polygon fill="none" stroke="black" points="531.5,-0.5 531.5,-19.5 654.5,-19.5 654.5,-0.5 531.5,-0.5"/>
<text text-anchor="middle" x="593" y="-7.5" font-family="Helvetica,sans-Serif" font-size="10.00">Eigen::internal::pblend</text>
</a>
</g>
</g>
<!-- Node2272&#45;&gt;Node2278 -->
<g id="edge19" class="edge"><title>Node2272&#45;&gt;Node2278</title>
<path fill="none" stroke="midnightblue" d="M226.472,-183.692C244.043,-167.167 270.112,-145.44 297,-133 364.478,-101.78 401.814,-144.998 461,-100 489.164,-78.587 468.823,-50.3964 497,-29 506.913,-21.4728 519.032,-16.7097 531.255,-13.7416"/>
<polygon fill="midnightblue" stroke="midnightblue" points="223.797,-181.409 219.024,-190.867 228.654,-186.45 223.797,-181.409"/>
</g>
<!-- Node2272&#45;&gt;Node2279 -->
<g id="edge20" class="edge"><title>Node2272&#45;&gt;Node2279</title>
<path fill="none" stroke="midnightblue" d="M225.526,-228.627C269.537,-276.058 374.452,-389.501 461,-486 477.191,-504.053 476.69,-513.75 497,-527 506.271,-533.048 516.844,-537.947 527.488,-541.894"/>
<polygon fill="midnightblue" stroke="midnightblue" points="227.884,-226.021 218.515,-221.073 222.753,-230.784 227.884,-226.021"/>
</g>
<!-- Node2286 -->
<g id="node17" class="node"><title>Node2286</title>
<g id="a_node17"><a xlink:href="structEigen_1_1internal_1_1conj__helper_3_01Packet2d_00_01Packet1cd_00_01false_00_01false_01_4.html#ac33f153d3f24652b65a83df7bfd7f837" target="_top" xlink:title="Eigen::internal::conj\l_helper\&lt; Packet2d, Packet1cd,\l false, false \&gt;::pmul">
<polygon fill="none" stroke="black" points="297,-49.5 297,-90.5 461,-90.5 461,-49.5 297,-49.5"/>
<text text-anchor="start" x="305" y="-78.5" font-family="Helvetica,sans-Serif" font-size="10.00">Eigen::internal::conj</text>
<text text-anchor="start" x="305" y="-67.5" font-family="Helvetica,sans-Serif" font-size="10.00">_helper&lt; Packet2d, Packet1cd,</text>
<text text-anchor="middle" x="379" y="-56.5" font-family="Helvetica,sans-Serif" font-size="10.00"> false, false &gt;::pmul</text>
</a>
</g>
</g>
<!-- Node2272&#45;&gt;Node2286 -->
<g id="edge17" class="edge"><title>Node2272&#45;&gt;Node2286</title>
<path fill="none" stroke="midnightblue" d="M221.325,-182.516C238.323,-160.162 266.389,-126.788 297,-105 304.613,-99.5812 313.197,-94.7576 321.857,-90.5531"/>
<polygon fill="midnightblue" stroke="midnightblue" points="218.332,-180.674 215.16,-190.783 223.944,-184.859 218.332,-180.674"/>
</g>
<!-- Node2287 -->
<g id="node18" class="node"><title>Node2287</title>
<g id="a_node18"><a xlink:href="structEigen_1_1internal_1_1conj__helper_3_01Packet1cd_00_01Packet2d_00_01false_00_01false_01_4.html#a3180e39d0a8f233420ef8fd3e5d26746" target="_top" xlink:title="Eigen::internal::conj\l_helper\&lt; Packet1cd, Packet2d,\l false, false \&gt;::pmul">
<polygon fill="none" stroke="black" points="297,-185.5 297,-226.5 461,-226.5 461,-185.5 297,-185.5"/>
<text text-anchor="start" x="305" y="-214.5" font-family="Helvetica,sans-Serif" font-size="10.00">Eigen::internal::conj</text>
<text text-anchor="start" x="305" y="-203.5" font-family="Helvetica,sans-Serif" font-size="10.00">_helper&lt; Packet1cd, Packet2d,</text>
<text text-anchor="middle" x="379" y="-192.5" font-family="Helvetica,sans-Serif" font-size="10.00"> false, false &gt;::pmul</text>
</a>
</g>
</g>
<!-- Node2272&#45;&gt;Node2287 -->
<g id="edge18" class="edge"><title>Node2272&#45;&gt;Node2287</title>
<path fill="none" stroke="midnightblue" d="M271.34,-206C279.686,-206 288.292,-206 296.826,-206"/>
<polygon fill="midnightblue" stroke="midnightblue" points="271.31,-202.5 261.31,-206 271.31,-209.5 271.31,-202.5"/>
</g>
<!-- Node2273&#45;&gt;Node2274 -->
<g id="edge4" class="edge"><title>Node2273&#45;&gt;Node2274</title>
<path fill="none" stroke="midnightblue" d="M456.883,-239.638C458.319,-238.504 459.695,-237.293 461,-236 508.795,-188.67 451.025,-138.1 497,-89 501.019,-84.7074 505.647,-81.0259 510.65,-77.8688"/>
<polygon fill="midnightblue" stroke="midnightblue" points="454.574,-236.964 448.076,-245.332 458.374,-242.842 454.574,-236.964"/>
</g>
<!-- Node2275 -->
<g id="node6" class="node"><title>Node2275</title>
<g id="a_node6"><a xlink:href="namespaceEigen_1_1internal.html#a79e630f9d4aa81b60904b7085c99c473" target="_top" xlink:title="Eigen::internal::pcplxflip">
<polygon fill="none" stroke="black" points="528.5,-158.5 528.5,-177.5 657.5,-177.5 657.5,-158.5 528.5,-158.5"/>
<text text-anchor="middle" x="593" y="-165.5" font-family="Helvetica,sans-Serif" font-size="10.00">Eigen::internal::pcplxflip</text>
</a>
</g>
</g>
<!-- Node2273&#45;&gt;Node2275 -->
<g id="edge5" class="edge"><title>Node2273&#45;&gt;Node2275</title>
<path fill="none" stroke="midnightblue" d="M451.063,-241.567C454.526,-239.92 457.863,-238.072 461,-236 483.548,-221.105 474.209,-201.521 497,-187 506.362,-181.035 517.211,-176.883 528.159,-174.005"/>
<polygon fill="midnightblue" stroke="midnightblue" points="449.544,-238.407 441.65,-245.474 452.228,-244.873 449.544,-238.407"/>
</g>
<!-- Node2276 -->
<g id="node7" class="node"><title>Node2276</title>
<g id="a_node7"><a xlink:href="namespaceEigen_1_1internal.html#afc41c0196b601e87b2123adfee80c65f" target="_top" xlink:title="Eigen::internal::pscatter\l\&lt; std::complex\&lt; double\l \&gt;, Packet1cd \&gt;">
<polygon fill="none" stroke="black" points="526.5,-98.5 526.5,-139.5 659.5,-139.5 659.5,-98.5 526.5,-98.5"/>
<text text-anchor="start" x="534.5" y="-127.5" font-family="Helvetica,sans-Serif" font-size="10.00">Eigen::internal::pscatter</text>
<text text-anchor="start" x="534.5" y="-116.5" font-family="Helvetica,sans-Serif" font-size="10.00">&lt; std::complex&lt; double</text>
<text text-anchor="middle" x="593" y="-105.5" font-family="Helvetica,sans-Serif" font-size="10.00"> &gt;, Packet1cd &gt;</text>
</a>
</g>
</g>
<!-- Node2273&#45;&gt;Node2276 -->
<g id="edge6" class="edge"><title>Node2273&#45;&gt;Node2276</title>
<path fill="none" stroke="midnightblue" d="M454.741,-240.62C456.931,-239.214 459.026,-237.678 461,-236 492.886,-208.9 466.159,-177.283 497,-149 505.286,-141.401 515.488,-135.728 526.1,-131.491"/>
<polygon fill="midnightblue" stroke="midnightblue" points="453.007,-237.578 445.884,-245.421 456.343,-243.732 453.007,-237.578"/>
</g>
<!-- Node2277 -->
<g id="node8" class="node"><title>Node2277</title>
<g id="a_node8"><a xlink:href="namespaceEigen_1_1internal.html#a03c68a7844a6c488608dd1fdb91cedfb" target="_top" xlink:title="Eigen::internal::ptranspose">
<polygon fill="none" stroke="black" points="520.5,-498.5 520.5,-517.5 665.5,-517.5 665.5,-498.5 520.5,-498.5"/>
<text text-anchor="middle" x="593" y="-505.5" font-family="Helvetica,sans-Serif" font-size="10.00">Eigen::internal::ptranspose</text>
</a>
</g>
</g>
<!-- Node2273&#45;&gt;Node2277 -->
<g id="edge7" class="edge"><title>Node2273&#45;&gt;Node2277</title>
<path fill="none" stroke="midnightblue" d="M392.049,-272.985C408.904,-298.641 439.829,-347.569 461,-392 480.78,-433.513 462.02,-459.151 497,-489 503.781,-494.786 511.826,-498.991 520.322,-502.021"/>
<polygon fill="midnightblue" stroke="midnightblue" points="394.96,-271.042 386.52,-264.637 389.124,-274.907 394.96,-271.042"/>
</g>
<!-- Node2273&#45;&gt;Node2278 -->
<g id="edge8" class="edge"><title>Node2273&#45;&gt;Node2278</title>
<path fill="none" stroke="midnightblue" d="M457.118,-239.661C458.476,-238.519 459.773,-237.3 461,-236 525.081,-168.076 431.807,-95.8572 497,-29 506.159,-19.607 518.556,-14.1741 531.368,-11.1599"/>
<polygon fill="midnightblue" stroke="midnightblue" points="455.011,-236.862 448.739,-245.402 458.967,-242.637 455.011,-236.862"/>
</g>
<!-- Node2273&#45;&gt;Node2279 -->
<g id="edge9" class="edge"><title>Node2273&#45;&gt;Node2279</title>
<path fill="none" stroke="midnightblue" d="M392.904,-273.102C410.516,-298.547 442.052,-346.843 461,-392 485.026,-449.26 454.096,-482.108 497,-527 505.246,-535.628 515.948,-541.784 527.183,-546.174"/>
<polygon fill="midnightblue" stroke="midnightblue" points="395.699,-270.992 387.095,-264.81 389.966,-275.008 395.699,-270.992"/>
</g>
<!-- Node2280 -->
<g id="node11" class="node"><title>Node2280</title>
<g id="a_node11"><a xlink:href="namespaceEigen_1_1internal.html#a2636173af6863de34e156dfbf6ed6301" target="_top" xlink:title="Eigen::internal::pabs\l\&lt; Packet4f \&gt;">
<polygon fill="none" stroke="black" points="536,-449 536,-479 650,-479 650,-449 536,-449"/>
<text text-anchor="start" x="544" y="-467" font-family="Helvetica,sans-Serif" font-size="10.00">Eigen::internal::pabs</text>
<text text-anchor="middle" x="593" y="-456" font-family="Helvetica,sans-Serif" font-size="10.00">&lt; Packet4f &gt;</text>
</a>
</g>
</g>
<!-- Node2273&#45;&gt;Node2280 -->
<g id="edge10" class="edge"><title>Node2273&#45;&gt;Node2280</title>
<path fill="none" stroke="midnightblue" d="M390.743,-273.542C416.624,-317.962 481.44,-427.634 497,-439 508.293,-447.249 522.098,-452.778 535.648,-456.484"/>
<polygon fill="midnightblue" stroke="midnightblue" points="393.628,-271.541 385.577,-264.654 387.576,-275.058 393.628,-271.541"/>
</g>
<!-- Node2281 -->
<g id="node12" class="node"><title>Node2281</title>
<g id="a_node12"><a xlink:href="structEigen_1_1internal_1_1gemm__pack__lhs_3_01Scalar_00_01Index_00_01DataMapper_00_01Pack1_00_02096896f571e4dfaad2de53af9b13499.html#af0f474d4d31213df020ad25af0c482d3" target="_top" xlink:title="Eigen::internal::gemm\l_pack_lhs\&lt; Scalar, Index,\l DataMapper, Pack1, Pack2,\l RowMajor, Conjugate, PanelMode\l \&gt;::operator()">
<polygon fill="none" stroke="black" points="505,-366.5 505,-429.5 681,-429.5 681,-366.5 505,-366.5"/>
<text text-anchor="start" x="513" y="-417.5" font-family="Helvetica,sans-Serif" font-size="10.00">Eigen::internal::gemm</text>
<text text-anchor="start" x="513" y="-406.5" font-family="Helvetica,sans-Serif" font-size="10.00">_pack_lhs&lt; Scalar, Index,</text>
<text text-anchor="start" x="513" y="-395.5" font-family="Helvetica,sans-Serif" font-size="10.00"> DataMapper, Pack1, Pack2,</text>
<text text-anchor="start" x="513" y="-384.5" font-family="Helvetica,sans-Serif" font-size="10.00"> RowMajor, Conjugate, PanelMode</text>
<text text-anchor="middle" x="593" y="-373.5" font-family="Helvetica,sans-Serif" font-size="10.00"> &gt;::operator()</text>
</a>
</g>
</g>
<!-- Node2273&#45;&gt;Node2281 -->
<g id="edge11" class="edge"><title>Node2273&#45;&gt;Node2281</title>
<path fill="none" stroke="midnightblue" d="M395.904,-271.786C417.277,-293.619 457.2,-331.924 497,-357 502.167,-360.256 507.638,-363.37 513.24,-366.323"/>
<polygon fill="midnightblue" stroke="midnightblue" points="398.37,-269.301 388.904,-264.543 393.337,-274.166 398.37,-269.301"/>
</g>
<!-- Node2282 -->
<g id="node13" class="node"><title>Node2282</title>
<g id="a_node13"><a xlink:href="structEigen_1_1internal_1_1gemm__pack__rhs_3_01Scalar_00_01Index_00_01DataMapper_00_01nr_00_01Coa362601eadb4c84345b37afcaba09a6d.html#adecc1d0ef7d3a37b141ab64bd56feaf0" target="_top" xlink:title="Eigen::internal::gemm\l_pack_rhs\&lt; Scalar, Index,\l DataMapper, nr, ColMajor,\l Conjugate, PanelMode \&gt;::operator()">
<polygon fill="none" stroke="black" points="497,-295 497,-347 689,-347 689,-295 497,-295"/>
<text text-anchor="start" x="505" y="-335" font-family="Helvetica,sans-Serif" font-size="10.00">Eigen::internal::gemm</text>
<text text-anchor="start" x="505" y="-324" font-family="Helvetica,sans-Serif" font-size="10.00">_pack_rhs&lt; Scalar, Index,</text>
<text text-anchor="start" x="505" y="-313" font-family="Helvetica,sans-Serif" font-size="10.00"> DataMapper, nr, ColMajor,</text>
<text text-anchor="middle" x="593" y="-302" font-family="Helvetica,sans-Serif" font-size="10.00"> Conjugate, PanelMode &gt;::operator()</text>
</a>
</g>
</g>
<!-- Node2273&#45;&gt;Node2282 -->
<g id="edge12" class="edge"><title>Node2273&#45;&gt;Node2282</title>
<path fill="none" stroke="midnightblue" d="M420.633,-267.65C445.511,-275.395 478.267,-285.593 508.472,-294.996"/>
<polygon fill="midnightblue" stroke="midnightblue" points="421.415,-264.228 410.827,-264.597 419.334,-270.911 421.415,-264.228"/>
</g>
<!-- Node2283 -->
<g id="node14" class="node"><title>Node2283</title>
<g id="a_node14"><a xlink:href="structEigen_1_1internal_1_1inplace__transpose__selector_3_01MatrixType_00_01true_00_01true_01_4.html#ade80113166d3d27b8631ba4549269926" target="_top" xlink:title="Eigen::internal::inplace\l_transpose_selector\&lt; MatrixType,\l true, true \&gt;::run">
<polygon fill="none" stroke="black" points="504,-234.5 504,-275.5 682,-275.5 682,-234.5 504,-234.5"/>
<text text-anchor="start" x="512" y="-263.5" font-family="Helvetica,sans-Serif" font-size="10.00">Eigen::internal::inplace</text>
<text text-anchor="start" x="512" y="-252.5" font-family="Helvetica,sans-Serif" font-size="10.00">_transpose_selector&lt; MatrixType,</text>
<text text-anchor="middle" x="593" y="-241.5" font-family="Helvetica,sans-Serif" font-size="10.00"> true, true &gt;::run</text>
</a>
</g>
</g>
<!-- Node2273&#45;&gt;Node2283 -->
<g id="edge13" class="edge"><title>Node2273&#45;&gt;Node2283</title>
<path fill="none" stroke="midnightblue" d="M462.089,-255C475.743,-255 489.954,-255 503.753,-255"/>
<polygon fill="midnightblue" stroke="midnightblue" points="461.774,-251.5 451.774,-255 461.773,-258.5 461.774,-251.5"/>
</g>
<!-- Node2284 -->
<g id="node15" class="node"><title>Node2284</title>
<g id="a_node15"><a xlink:href="packetmath_8cpp.html#a517110e4796d1bac787500a5b23f9bbe" target="_top" xlink:title="packetmath">
<polygon fill="none" stroke="black" points="556,-196.5 556,-215.5 630,-215.5 630,-196.5 556,-196.5"/>
<text text-anchor="middle" x="593" y="-203.5" font-family="Helvetica,sans-Serif" font-size="10.00">packetmath</text>
</a>
</g>
</g>
<!-- Node2273&#45;&gt;Node2284 -->
<g id="edge14" class="edge"><title>Node2273&#45;&gt;Node2284</title>
<path fill="none" stroke="midnightblue" d="M433.011,-243.097C442.363,-240.846 451.988,-238.431 461,-236 477.153,-231.643 480.777,-229.09 497,-225 516.245,-220.148 537.933,-215.732 555.722,-212.381"/>
<polygon fill="midnightblue" stroke="midnightblue" points="431.933,-239.755 423.011,-245.469 433.549,-246.566 431.933,-239.755"/>
</g>
<!-- Node2285 -->
<g id="node16" class="node"><title>Node2285</title>
<g id="a_node16"><a xlink:href="packetmath_8cpp.html#a43e3c22d695551e0e3da70b69ce93742" target="_top" xlink:title="test_packetmath">
<polygon fill="none" stroke="black" points="725,-196.5 725,-215.5 823,-215.5 823,-196.5 725,-196.5"/>
<text text-anchor="middle" x="774" y="-203.5" font-family="Helvetica,sans-Serif" font-size="10.00">test_packetmath</text>
</a>
</g>
</g>
<!-- Node2284&#45;&gt;Node2285 -->
<g id="edge15" class="edge"><title>Node2284&#45;&gt;Node2285</title>
<path fill="none" stroke="midnightblue" d="M640.556,-206C666.504,-206 698.762,-206 724.947,-206"/>
<polygon fill="midnightblue" stroke="midnightblue" points="640.223,-202.5 630.223,-206 640.223,-209.5 640.223,-202.5"/>
</g>
</g>
</svg>
        <g id="navigator" transform="translate(0 0)" fill="#404254">
                <rect fill="#f2f5e9" fill-opacity="0.5" stroke="#606060" stroke-width=".5" x="0" y="0" width="60" height="60"/>
                <use id="zoomplus" xlink:href="#zoomPlus" x="17" y="9" onmousedown="handleZoom(evt,'in')"/>
                <use id="zoomminus" xlink:href="#zoomMin" x="42" y="9" onmousedown="handleZoom(evt,'out')"/>
                <use id="reset" xlink:href="#resetDef" x="30" y="36" onmousedown="handleReset()"/>
                <g id="arrowUp" xlink:href="#dirArrow" transform="translate(30 24)" onmousedown="handlePan(0,-1)">
                  <use xlink:href="#rim" fill="#404040">
                        <set attributeName="fill" to="#808080" begin="arrowUp.mouseover" end="arrowUp.mouseout"/>
                  </use>
                  <path fill="none" stroke="white" stroke-width="1.5" d="M0,-3.0v7 M-2.5,-0.5L0,-3.0L2.5,-0.5"/>
                </g>
                <g id="arrowRight" xlink:href="#dirArrow" transform="rotate(90) translate(36 -43)" onmousedown="handlePan(1,0)">
                  <use xlink:href="#rim" fill="#404040">
                        <set attributeName="fill" to="#808080" begin="arrowRight.mouseover" end="arrowRight.mouseout"/>
                  </use>
                  <path fill="none" stroke="white" stroke-width="1.5" d="M0,-3.0v7 M-2.5,-0.5L0,-3.0L2.5,-0.5"/>
                </g>
                <g id="arrowDown" xlink:href="#dirArrow" transform="rotate(180) translate(-30 -48)" onmousedown="handlePan(0,1)">
                  <use xlink:href="#rim" fill="#404040">
                        <set attributeName="fill" to="#808080" begin="arrowDown.mouseover" end="arrowDown.mouseout"/>
                  </use>
                  <path fill="none" stroke="white" stroke-width="1.5" d="M0,-3.0v7 M-2.5,-0.5L0,-3.0L2.5,-0.5"/>
                </g>
                <g id="arrowLeft" xlink:href="#dirArrow" transform="rotate(270) translate(-36 17)" onmousedown="handlePan(-1,0)">
                  <use xlink:href="#rim" fill="#404040">
                        <set attributeName="fill" to="#808080" begin="arrowLeft.mouseover" end="arrowLeft.mouseout"/>
                  </use>
                  <path fill="none" stroke="white" stroke-width="1.5" d="M0,-3.0v7 M-2.5,-0.5L0,-3.0L2.5,-0.5"/>
                </g>
        </g>
        <svg viewBox="0 0 15 15" width="100%" height="30px" preserveAspectRatio="xMaxYMin meet">
         <g id="arrow_out" transform="scale(0.3 0.3)">
          <a xlink:href="namespaceEigen_1_1internal_a7a2a0544bbabeb6b84840a1f856a76a5_icgraph_org.svg" target="_base">
           <rect id="button" ry="5" rx="5" y="6" x="6" height="38" width="38"
                fill="#f2f5e9" fill-opacity="0.5" stroke="#606060" stroke-width="1.0"/>
           <path id="arrow"
             d="M 11.500037,31.436501 C 11.940474,20.09759 22.043105,11.32322 32.158766,21.979434 L 37.068811,17.246167 C 37.068811,17.246167 37.088388,32 37.088388,32 L 22.160133,31.978069 C 22.160133,31.978069 26.997745,27.140456 26.997745,27.140456 C 18.528582,18.264221 13.291696,25.230495 11.500037,31.436501 z"
             style="fill:#404040;"/>
          </a>
         </g>
        </svg>
</svg>
