<?xml version="1.0" encoding="UTF-8" standalone="no"?>
<!DOCTYPE svg PUBLIC "-//W3C//DTD SVG 1.1//EN"
 "http://www.w3.org/Graphics/SVG/1.1/DTD/svg11.dtd">
<!-- Generated by graphviz version 2.38.0 (20140413.2041)
 -->
<!-- Title: Eigen::internal::handmade_aligned_realloc Pages: 1 -->
<svg width="330pt" height="127pt"
 viewBox="0.00 0.00 330.00 126.50" xmlns="http://www.w3.org/2000/svg" xmlns:xlink="http://www.w3.org/1999/xlink">
<g id="graph0" class="graph" transform="scale(1 1) rotate(0) translate(4 122.5)">
<title>Eigen::internal::handmade_aligned_realloc</title>
<!-- Node869 -->
<g id="node1" class="node"><title>Node869</title>
<polygon fill="#bfbfbf" stroke="black" points="0,-39 0,-69 143,-69 143,-39 0,-39"/>
<text text-anchor="start" x="8" y="-57" font-family="Helvetica,sans-Serif" font-size="10.00">Eigen::internal::handmade</text>
<text text-anchor="middle" x="71.5" y="-46" font-family="Helvetica,sans-Serif" font-size="10.00">_aligned_realloc</text>
</g>
<!-- Node870 -->
<g id="node2" class="node"><title>Node870</title>
<g id="a_node2"><a xlink:href="namespaceEigen_1_1internal.html#aade40fb602f8649b396fd4f20494884e" target="_top" xlink:title="Eigen::internal::check\l_that_malloc_is_allowed">
<polygon fill="none" stroke="black" points="185,-88 185,-118 316,-118 316,-88 185,-88"/>
<text text-anchor="start" x="193" y="-106" font-family="Helvetica,sans-Serif" font-size="10.00">Eigen::internal::check</text>
<text text-anchor="middle" x="250.5" y="-95" font-family="Helvetica,sans-Serif" font-size="10.00">_that_malloc_is_allowed</text>
</a>
</g>
</g>
<!-- Node869&#45;&gt;Node870 -->
<g id="edge1" class="edge"><title>Node869&#45;&gt;Node870</title>
<path fill="none" stroke="midnightblue" d="M127.05,-69.1014C145.474,-74.2019 166.212,-79.9429 185.312,-85.2305"/>
<polygon fill="midnightblue" stroke="midnightblue" points="184.559,-88.6535 195.13,-87.9484 186.426,-81.9072 184.559,-88.6535"/>
</g>
<!-- Node871 -->
<g id="node3" class="node"><title>Node871</title>
<g id="a_node3"><a xlink:href="namespaceEigen_1_1internal.html#a1193f4157d44fdc9f1e91a1f2e988d19" target="_top" xlink:title="Eigen::internal::handmade\l_aligned_malloc">
<polygon fill="none" stroke="black" points="179,-39 179,-69 322,-69 322,-39 179,-39"/>
<text text-anchor="start" x="187" y="-57" font-family="Helvetica,sans-Serif" font-size="10.00">Eigen::internal::handmade</text>
<text text-anchor="middle" x="250.5" y="-46" font-family="Helvetica,sans-Serif" font-size="10.00">_aligned_malloc</text>
</a>
</g>
</g>
<!-- Node869&#45;&gt;Node871 -->
<g id="edge2" class="edge"><title>Node869&#45;&gt;Node871</title>
<path fill="none" stroke="midnightblue" d="M143.218,-54C151.57,-54 160.142,-54 168.62,-54"/>
<polygon fill="midnightblue" stroke="midnightblue" points="168.894,-57.5001 178.894,-54 168.894,-50.5001 168.894,-57.5001"/>
</g>
<!-- Node872 -->
<g id="node4" class="node"><title>Node872</title>
<g id="a_node4"><a xlink:href="namespacerelicense.html#adaab5587d2d2ddc973e89581e508c0b9" target="_top" xlink:title="relicense.update">
<polygon fill="none" stroke="black" points="202.5,-0.5 202.5,-19.5 298.5,-19.5 298.5,-0.5 202.5,-0.5"/>
<text text-anchor="middle" x="250.5" y="-7.5" font-family="Helvetica,sans-Serif" font-size="10.00">relicense.update</text>
</a>
</g>
</g>
<!-- Node869&#45;&gt;Node872 -->
<g id="edge3" class="edge"><title>Node869&#45;&gt;Node872</title>
<path fill="none" stroke="midnightblue" d="M132.918,-38.9808C155.31,-33.4144 180.378,-27.1829 201.514,-21.9287"/>
<polygon fill="midnightblue" stroke="midnightblue" points="202.374,-25.3216 211.234,-19.5124 200.685,-18.5283 202.374,-25.3216"/>
</g>
</g>
</svg>
