<?xml version="1.0" encoding="UTF-8" standalone="no"?>
<!DOCTYPE svg PUBLIC "-//W3C//DTD SVG 1.1//EN"
 "http://www.w3.org/Graphics/SVG/1.1/DTD/svg11.dtd">
<!-- Generated by graphviz version 2.38.0 (20140413.2041)
 -->
<!-- Title: Eigen::internal::lmpar2 Pages: 1 -->
<!--zoomable 78 -->
<svg id="main" version="1.1" xmlns="http://www.w3.org/2000/svg" xmlns:xlink="http://www.w3.org/1999/xlink" xml:space="preserve" onload="init(evt)">
<style type="text/css"><![CDATA[
.edge:hover path { stroke: red; }
.edge:hover polygon { stroke: red; fill: red; }
]]></style>
<script type="text/javascript"><![CDATA[
var edges = document.getElementsByTagName('g');
if (edges && edges.length) {
  for (var i=0;i<edges.length;i++) {
    if (edges[i].id.substr(0,4)=='edge') {
      edges[i].setAttribute('class','edge');
    }
  }
}
]]></script>
        <defs>
                <circle id="rim" cx="0" cy="0" r="7"/>
                <circle id="rim2" cx="0" cy="0" r="3.5"/>
                <g id="zoomPlus">
                        <use xlink:href="#rim" fill="#404040">
                                <set attributeName="fill" to="#808080" begin="zoomplus.mouseover" end="zoomplus.mouseout"/>
                        </use>
                        <path d="M-4,0h8M0,-4v8" fill="none" stroke="white" stroke-width="1.5" pointer-events="none"/>
                </g>
                <g id="zoomMin">
                        <use xlink:href="#rim" fill="#404040">
                                <set attributeName="fill" to="#808080" begin="zoomminus.mouseover" end="zoomminus.mouseout"/>
                        </use>
                        <path d="M-4,0h8" fill="none" stroke="white" stroke-width="1.5" pointer-events="none"/>
                </g>
                <g id="dirArrow">
                        <path fill="none" stroke="white" stroke-width="1.5" d="M0,-3.0v7 M-2.5,-0.5L0,-3.0L2.5,-0.5"/>
                </g>
               <g id="resetDef">
                       <use xlink:href="#rim2" fill="#404040">
                               <set attributeName="fill" to="#808080" begin="reset.mouseover" end="reset.mouseout"/>
                       </use>
               </g>
        </defs>

<script type="text/javascript">
var viewWidth = 633;
var viewHeight = 78;
var sectionId = 'dynsection-119';
</script>
<script xlink:href="svgpan.js"/>
<svg id="graph" class="graph">
<g id="viewport">
<title>Eigen::internal::lmpar2</title>
<!-- Node930 -->
<g id="node1" class="node"><title>Node930</title>
<polygon fill="#bfbfbf" stroke="black" points="0,-22.5 0,-41.5 125,-41.5 125,-22.5 0,-22.5"/>
<text text-anchor="middle" x="62.5" y="-29.5" font-family="Helvetica,sans-Serif" font-size="10.00">Eigen::internal::lmpar2</text>
</g>
<!-- Node931 -->
<g id="node2" class="node"><title>Node931</title>
<g id="a_node2"><a xlink:href="classEigen_1_1LevenbergMarquardt.html#a1347316132f0bd7bf2541788d9e12637" target="_top" xlink:title="Eigen::LevenbergMarquardt\l::minimizeOneStep">
<polygon fill="none" stroke="black" points="161,-17 161,-47 310,-47 310,-17 161,-17"/>
<text text-anchor="start" x="169" y="-35" font-family="Helvetica,sans-Serif" font-size="10.00">Eigen::LevenbergMarquardt</text>
<text text-anchor="middle" x="235.5" y="-24" font-family="Helvetica,sans-Serif" font-size="10.00">::minimizeOneStep</text>
</a>
</g>
</g>
<!-- Node930&#45;&gt;Node931 -->
<g id="edge1" class="edge"><title>Node930&#45;&gt;Node931</title>
<path fill="none" stroke="midnightblue" d="M135.409,-32C143.841,-32 152.455,-32 160.911,-32"/>
<polygon fill="midnightblue" stroke="midnightblue" points="135.235,-28.5001 125.235,-32 135.235,-35.5001 135.235,-28.5001"/>
</g>
<!-- Node932 -->
<g id="node3" class="node"><title>Node932</title>
<g id="a_node3"><a xlink:href="classEigen_1_1LevenbergMarquardt.html#a8cb0d7b10c479262e643a9d2b83ce144" target="_top" xlink:title="Eigen::LevenbergMarquardt\l::lm_param">
<polygon fill="none" stroke="black" points="346,-39 346,-69 495,-69 495,-39 346,-39"/>
<text text-anchor="start" x="354" y="-57" font-family="Helvetica,sans-Serif" font-size="10.00">Eigen::LevenbergMarquardt</text>
<text text-anchor="middle" x="420.5" y="-46" font-family="Helvetica,sans-Serif" font-size="10.00">::lm_param</text>
</a>
</g>
</g>
<!-- Node931&#45;&gt;Node932 -->
<g id="edge2" class="edge"><title>Node931&#45;&gt;Node932</title>
<path fill="none" stroke="midnightblue" d="M320.109,-42.0513C328.651,-43.0782 337.285,-44.1162 345.711,-45.1292"/>
<polygon fill="midnightblue" stroke="midnightblue" points="320.488,-38.5718 310.142,-40.8531 319.653,-45.5218 320.488,-38.5718"/>
</g>
<!-- Node933 -->
<g id="node4" class="node"><title>Node933</title>
<g id="a_node4"><a xlink:href="denseLM_8cpp.html#a6ed5f0b92b25beb947d4dfc4d5870de1" target="_top" xlink:title="test_minimizeSteps">
<polygon fill="none" stroke="black" points="364.5,-0.5 364.5,-19.5 476.5,-19.5 476.5,-0.5 364.5,-0.5"/>
<text text-anchor="middle" x="420.5" y="-7.5" font-family="Helvetica,sans-Serif" font-size="10.00">test_minimizeSteps</text>
</a>
</g>
</g>
<!-- Node931&#45;&gt;Node933 -->
<g id="edge3" class="edge"><title>Node931&#45;&gt;Node933</title>
<path fill="none" stroke="midnightblue" d="M320.392,-21.9146C335.289,-20.1238 350.456,-18.3004 364.3,-16.636"/>
<polygon fill="midnightblue" stroke="midnightblue" points="319.653,-18.4782 310.142,-23.1469 320.488,-25.4282 319.653,-18.4782"/>
</g>
<!-- Node934 -->
<g id="node5" class="node"><title>Node934</title>
<g id="a_node5"><a xlink:href="denseLM_8cpp.html#a074d14838d2f3870982feacbf1657d71" target="_top" xlink:title="test_denseLM_T">
<polygon fill="none" stroke="black" points="531,-0.5 531,-19.5 625,-19.5 625,-0.5 531,-0.5"/>
<text text-anchor="middle" x="578" y="-7.5" font-family="Helvetica,sans-Serif" font-size="10.00">test_denseLM_T</text>
</a>
</g>
</g>
<!-- Node933&#45;&gt;Node934 -->
<g id="edge4" class="edge"><title>Node933&#45;&gt;Node934</title>
<path fill="none" stroke="midnightblue" d="M486.882,-10C501.682,-10 517.095,-10 530.902,-10"/>
<polygon fill="midnightblue" stroke="midnightblue" points="486.761,-6.5001 476.761,-10 486.761,-13.5001 486.761,-6.5001"/>
</g>
</g>
</svg>
        <g id="navigator" transform="translate(0 0)" fill="#404254">
                <rect fill="#f2f5e9" fill-opacity="0.5" stroke="#606060" stroke-width=".5" x="0" y="0" width="60" height="60"/>
                <use id="zoomplus" xlink:href="#zoomPlus" x="17" y="9" onmousedown="handleZoom(evt,'in')"/>
                <use id="zoomminus" xlink:href="#zoomMin" x="42" y="9" onmousedown="handleZoom(evt,'out')"/>
                <use id="reset" xlink:href="#resetDef" x="30" y="36" onmousedown="handleReset()"/>
                <g id="arrowUp" xlink:href="#dirArrow" transform="translate(30 24)" onmousedown="handlePan(0,-1)">
                  <use xlink:href="#rim" fill="#404040">
                        <set attributeName="fill" to="#808080" begin="arrowUp.mouseover" end="arrowUp.mouseout"/>
                  </use>
                  <path fill="none" stroke="white" stroke-width="1.5" d="M0,-3.0v7 M-2.5,-0.5L0,-3.0L2.5,-0.5"/>
                </g>
                <g id="arrowRight" xlink:href="#dirArrow" transform="rotate(90) translate(36 -43)" onmousedown="handlePan(1,0)">
                  <use xlink:href="#rim" fill="#404040">
                        <set attributeName="fill" to="#808080" begin="arrowRight.mouseover" end="arrowRight.mouseout"/>
                  </use>
                  <path fill="none" stroke="white" stroke-width="1.5" d="M0,-3.0v7 M-2.5,-0.5L0,-3.0L2.5,-0.5"/>
                </g>
                <g id="arrowDown" xlink:href="#dirArrow" transform="rotate(180) translate(-30 -48)" onmousedown="handlePan(0,1)">
                  <use xlink:href="#rim" fill="#404040">
                        <set attributeName="fill" to="#808080" begin="arrowDown.mouseover" end="arrowDown.mouseout"/>
                  </use>
                  <path fill="none" stroke="white" stroke-width="1.5" d="M0,-3.0v7 M-2.5,-0.5L0,-3.0L2.5,-0.5"/>
                </g>
                <g id="arrowLeft" xlink:href="#dirArrow" transform="rotate(270) translate(-36 17)" onmousedown="handlePan(-1,0)">
                  <use xlink:href="#rim" fill="#404040">
                        <set attributeName="fill" to="#808080" begin="arrowLeft.mouseover" end="arrowLeft.mouseout"/>
                  </use>
                  <path fill="none" stroke="white" stroke-width="1.5" d="M0,-3.0v7 M-2.5,-0.5L0,-3.0L2.5,-0.5"/>
                </g>
        </g>
        <svg viewBox="0 0 15 15" width="100%" height="30px" preserveAspectRatio="xMaxYMin meet">
         <g id="arrow_out" transform="scale(0.3 0.3)">
          <a xlink:href="namespaceEigen_1_1internal_aba45e9db6efca39c2cd2ed9ea8911acf_icgraph_org.svg" target="_base">
           <rect id="button" ry="5" rx="5" y="6" x="6" height="38" width="38"
                fill="#f2f5e9" fill-opacity="0.5" stroke="#606060" stroke-width="1.0"/>
           <path id="arrow"
             d="M 11.500037,31.436501 C 11.940474,20.09759 22.043105,11.32322 32.158766,21.979434 L 37.068811,17.246167 C 37.068811,17.246167 37.088388,32 37.088388,32 L 22.160133,31.978069 C 22.160133,31.978069 26.997745,27.140456 26.997745,27.140456 C 18.528582,18.264221 13.291696,25.230495 11.500037,31.436501 z"
             style="fill:#404040;"/>
          </a>
         </g>
        </svg>
</svg>
