<?xml version="1.0" encoding="UTF-8" standalone="no"?>
<!DOCTYPE svg PUBLIC "-//W3C//DTD SVG 1.1//EN"
 "http://www.w3.org/Graphics/SVG/1.1/DTD/svg11.dtd">
<!-- Generated by graphviz version 2.38.0 (20140413.2041)
 -->
<!-- Title: Eigen::internal::preduxp Pages: 1 -->
<svg width="382pt" height="28pt"
 viewBox="0.00 0.00 382.00 28.00" xmlns="http://www.w3.org/2000/svg" xmlns:xlink="http://www.w3.org/1999/xlink">
<g id="graph0" class="graph" transform="scale(1 1) rotate(0) translate(4 24)">
<title>Eigen::internal::preduxp</title>
<!-- Node4110 -->
<g id="node1" class="node"><title>Node4110</title>
<polygon fill="#bfbfbf" stroke="black" points="0,-0.5 0,-19.5 130,-19.5 130,-0.5 0,-0.5"/>
<text text-anchor="middle" x="65" y="-7.5" font-family="Helvetica,sans-Serif" font-size="10.00">Eigen::internal::preduxp</text>
</g>
<!-- Node4111 -->
<g id="node2" class="node"><title>Node4111</title>
<g id="a_node2"><a xlink:href="packetmath_8cpp.html#a517110e4796d1bac787500a5b23f9bbe" target="_top" xlink:title="packetmath">
<polygon fill="none" stroke="black" points="166,-0.5 166,-19.5 240,-19.5 240,-0.5 166,-0.5"/>
<text text-anchor="middle" x="203" y="-7.5" font-family="Helvetica,sans-Serif" font-size="10.00">packetmath</text>
</a>
</g>
</g>
<!-- Node4110&#45;&gt;Node4111 -->
<g id="edge1" class="edge"><title>Node4110&#45;&gt;Node4111</title>
<path fill="none" stroke="midnightblue" d="M140.083,-10C148.975,-10 157.727,-10 165.725,-10"/>
<polygon fill="midnightblue" stroke="midnightblue" points="140.018,-6.5001 130.018,-10 140.018,-13.5001 140.018,-6.5001"/>
</g>
<!-- Node4112 -->
<g id="node3" class="node"><title>Node4112</title>
<g id="a_node3"><a xlink:href="packetmath_8cpp.html#a43e3c22d695551e0e3da70b69ce93742" target="_top" xlink:title="test_packetmath">
<polygon fill="none" stroke="black" points="276,-0.5 276,-19.5 374,-19.5 374,-0.5 276,-0.5"/>
<text text-anchor="middle" x="325" y="-7.5" font-family="Helvetica,sans-Serif" font-size="10.00">test_packetmath</text>
</a>
</g>
</g>
<!-- Node4111&#45;&gt;Node4112 -->
<g id="edge2" class="edge"><title>Node4111&#45;&gt;Node4112</title>
<path fill="none" stroke="midnightblue" d="M250.265,-10C258.563,-10 267.232,-10 275.589,-10"/>
<polygon fill="midnightblue" stroke="midnightblue" points="250.004,-6.5001 240.004,-10 250.004,-13.5001 250.004,-6.5001"/>
</g>
</g>
</svg>
