<?xml version="1.0" encoding="UTF-8" standalone="no"?>
<!DOCTYPE svg PUBLIC "-//W3C//DTD SVG 1.1//EN"
 "http://www.w3.org/Graphics/SVG/1.1/DTD/svg11.dtd">
<!-- Generated by graphviz version 2.38.0 (20140413.2041)
 -->
<!-- Title: Eigen::internal::pstoreu&lt; float &gt; Pages: 1 -->
<!--zoomable 220 -->
<svg id="main" version="1.1" xmlns="http://www.w3.org/2000/svg" xmlns:xlink="http://www.w3.org/1999/xlink" xml:space="preserve" onload="init(evt)">
<style type="text/css"><![CDATA[
.edge:hover path { stroke: red; }
.edge:hover polygon { stroke: red; fill: red; }
]]></style>
<script type="text/javascript"><![CDATA[
var edges = document.getElementsByTagName('g');
if (edges && edges.length) {
  for (var i=0;i<edges.length;i++) {
    if (edges[i].id.substr(0,4)=='edge') {
      edges[i].setAttribute('class','edge');
    }
  }
}
]]></script>
        <defs>
                <circle id="rim" cx="0" cy="0" r="7"/>
                <circle id="rim2" cx="0" cy="0" r="3.5"/>
                <g id="zoomPlus">
                        <use xlink:href="#rim" fill="#404040">
                                <set attributeName="fill" to="#808080" begin="zoomplus.mouseover" end="zoomplus.mouseout"/>
                        </use>
                        <path d="M-4,0h8M0,-4v8" fill="none" stroke="white" stroke-width="1.5" pointer-events="none"/>
                </g>
                <g id="zoomMin">
                        <use xlink:href="#rim" fill="#404040">
                                <set attributeName="fill" to="#808080" begin="zoomminus.mouseover" end="zoomminus.mouseout"/>
                        </use>
                        <path d="M-4,0h8" fill="none" stroke="white" stroke-width="1.5" pointer-events="none"/>
                </g>
                <g id="dirArrow">
                        <path fill="none" stroke="white" stroke-width="1.5" d="M0,-3.0v7 M-2.5,-0.5L0,-3.0L2.5,-0.5"/>
                </g>
               <g id="resetDef">
                       <use xlink:href="#rim2" fill="#404040">
                               <set attributeName="fill" to="#808080" begin="reset.mouseover" end="reset.mouseout"/>
                       </use>
               </g>
        </defs>

<script type="text/javascript">
var viewWidth = 947;
var viewHeight = 220;
var sectionId = 'dynsection-604';
</script>
<script xlink:href="svgpan.js"/>
<svg id="graph" class="graph">
<g id="viewport">
<title>Eigen::internal::pstoreu&lt; float &gt;</title>
<!-- Node4896 -->
<g id="node1" class="node"><title>Node4896</title>
<polygon fill="#bfbfbf" stroke="black" points="0,-73.5 0,-103.5 128,-103.5 128,-73.5 0,-73.5"/>
<text text-anchor="start" x="8" y="-91.5" font-family="Helvetica,sans-Serif" font-size="10.00">Eigen::internal::pstoreu</text>
<text text-anchor="middle" x="64" y="-80.5" font-family="Helvetica,sans-Serif" font-size="10.00">&lt; float &gt;</text>
</g>
<!-- Node4897 -->
<g id="node2" class="node"><title>Node4897</title>
<g id="a_node2"><a xlink:href="namespaceEigen_1_1internal.html#afcef5b81d59c0cde536eac077cc8e581" target="_top" xlink:title="Eigen::internal::pfloor\l\&lt; Packet2d \&gt;">
<polygon fill="none" stroke="black" points="506,-104.5 506,-134.5 624,-134.5 624,-104.5 506,-104.5"/>
<text text-anchor="start" x="514" y="-122.5" font-family="Helvetica,sans-Serif" font-size="10.00">Eigen::internal::pfloor</text>
<text text-anchor="middle" x="565" y="-111.5" font-family="Helvetica,sans-Serif" font-size="10.00">&lt; Packet2d &gt;</text>
</a>
</g>
</g>
<!-- Node4896&#45;&gt;Node4897 -->
<g id="edge1" class="edge"><title>Node4896&#45;&gt;Node4897</title>
<path fill="none" stroke="midnightblue" d="M96.1206,-108.982C114.924,-120.112 139.854,-132.749 164,-138.5 282.861,-166.812 427.046,-147.296 505.763,-132.277"/>
<polygon fill="midnightblue" stroke="midnightblue" points="97.7734,-105.89 87.4126,-103.676 94.1311,-111.868 97.7734,-105.89"/>
</g>
<!-- Node4902 -->
<g id="node7" class="node"><title>Node4902</title>
<g id="a_node7"><a xlink:href="namespaceEigen_1_1internal.html#a3ddf82b3b7cd925ffb814a9baca92fe5" target="_top" xlink:title="Eigen::internal::ploaddup\l\&lt; Packet4i \&gt;">
<polygon fill="none" stroke="black" points="164,-98.5 164,-128.5 299,-128.5 299,-98.5 164,-98.5"/>
<text text-anchor="start" x="172" y="-116.5" font-family="Helvetica,sans-Serif" font-size="10.00">Eigen::internal::ploaddup</text>
<text text-anchor="middle" x="231.5" y="-105.5" font-family="Helvetica,sans-Serif" font-size="10.00">&lt; Packet4i &gt;</text>
</a>
</g>
</g>
<!-- Node4896&#45;&gt;Node4902 -->
<g id="edge7" class="edge"><title>Node4896&#45;&gt;Node4902</title>
<path fill="none" stroke="midnightblue" d="M138.016,-99.5296C146.588,-100.824 155.301,-102.141 163.781,-103.422"/>
<polygon fill="midnightblue" stroke="midnightblue" points="138.451,-96.0557 128.041,-98.0227 137.406,-102.977 138.451,-96.0557"/>
</g>
<!-- Node4904 -->
<g id="node9" class="node"><title>Node4904</title>
<g id="a_node9"><a xlink:href="namespaceEigen_1_1internal.html#ac0482dd42d73ee8735906cb2a4c27ee7" target="_top" xlink:title="Eigen::internal::pstore\l\&lt; int32_t \&gt;">
<polygon fill="none" stroke="black" points="170.5,-49.5 170.5,-79.5 292.5,-79.5 292.5,-49.5 170.5,-49.5"/>
<text text-anchor="start" x="178.5" y="-67.5" font-family="Helvetica,sans-Serif" font-size="10.00">Eigen::internal::pstore</text>
<text text-anchor="middle" x="231.5" y="-56.5" font-family="Helvetica,sans-Serif" font-size="10.00">&lt; int32_t &gt;</text>
</a>
</g>
</g>
<!-- Node4896&#45;&gt;Node4904 -->
<g id="edge12" class="edge"><title>Node4896&#45;&gt;Node4904</title>
<path fill="none" stroke="midnightblue" d="M138.243,-77.8786C148.979,-76.3218 159.931,-74.7336 170.363,-73.2208"/>
<polygon fill="midnightblue" stroke="midnightblue" points="137.435,-74.4592 128.041,-79.3582 138.439,-81.3867 137.435,-74.4592"/>
</g>
<!-- Node4905 -->
<g id="node10" class="node"><title>Node4905</title>
<g id="a_node10"><a xlink:href="namespaceEigen_1_1internal.html#a3dfd013874cfa953711717da3b5b03c1" target="_top" xlink:title="Eigen::internal::pstoreu\l\&lt; double \&gt;">
<polygon fill="none" stroke="black" points="167.5,-0.5 167.5,-30.5 295.5,-30.5 295.5,-0.5 167.5,-0.5"/>
<text text-anchor="start" x="175.5" y="-18.5" font-family="Helvetica,sans-Serif" font-size="10.00">Eigen::internal::pstoreu</text>
<text text-anchor="middle" x="231.5" y="-7.5" font-family="Helvetica,sans-Serif" font-size="10.00">&lt; double &gt;</text>
</a>
</g>
</g>
<!-- Node4896&#45;&gt;Node4905 -->
<g id="edge13" class="edge"><title>Node4896&#45;&gt;Node4905</title>
<path fill="none" stroke="midnightblue" d="M103.664,-68.7336C121.802,-59.7249 143.822,-49.1628 164,-40.5 171.934,-37.094 180.501,-33.6814 188.761,-30.5205"/>
<polygon fill="midnightblue" stroke="midnightblue" points="101.941,-65.6817 94.5627,-73.2847 105.072,-71.9425 101.941,-65.6817"/>
</g>
<!-- Node4898 -->
<g id="node3" class="node"><title>Node4898</title>
<g id="a_node3"><a xlink:href="namespaceEigen_1_1internal.html#abaadd9aa6aafdf268f71646684340302" target="_top" xlink:title="Eigen::internal::pblend">
<polygon fill="none" stroke="black" points="815,-104 815,-123 938,-123 938,-104 815,-104"/>
<text text-anchor="middle" x="876.5" y="-111" font-family="Helvetica,sans-Serif" font-size="10.00">Eigen::internal::pblend</text>
</a>
</g>
</g>
<!-- Node4897&#45;&gt;Node4898 -->
<g id="edge2" class="edge"><title>Node4897&#45;&gt;Node4898</title>
<path fill="none" stroke="midnightblue" d="M634.387,-118.174C688.389,-117.127 763.031,-115.68 814.904,-114.675"/>
<polygon fill="midnightblue" stroke="midnightblue" points="634.145,-114.678 624.215,-118.371 634.281,-121.677 634.145,-114.678"/>
</g>
<!-- Node4899 -->
<g id="node4" class="node"><title>Node4899</title>
<g id="a_node4"><a xlink:href="namespaceEigen_1_1internal.html#aeab59aec7b70a1f67d9f060b55903ceb" target="_top" xlink:title="Eigen::internal::pmax\l\&lt; Packet2d \&gt;">
<polygon fill="none" stroke="black" points="660,-142.5 660,-172.5 778,-172.5 778,-142.5 660,-142.5"/>
<text text-anchor="start" x="668" y="-160.5" font-family="Helvetica,sans-Serif" font-size="10.00">Eigen::internal::pmax</text>
<text text-anchor="middle" x="719" y="-149.5" font-family="Helvetica,sans-Serif" font-size="10.00">&lt; Packet2d &gt;</text>
</a>
</g>
</g>
<!-- Node4897&#45;&gt;Node4899 -->
<g id="edge3" class="edge"><title>Node4897&#45;&gt;Node4899</title>
<path fill="none" stroke="midnightblue" d="M634.264,-136.566C642.798,-138.699 651.463,-140.866 659.824,-142.956"/>
<polygon fill="midnightblue" stroke="midnightblue" points="634.883,-133.113 624.332,-134.083 633.185,-139.904 634.883,-133.113"/>
</g>
<!-- Node4899&#45;&gt;Node4898 -->
<g id="edge5" class="edge"><title>Node4899&#45;&gt;Node4898</title>
<path fill="none" stroke="midnightblue" d="M782.817,-139.726C802.929,-134.035 824.427,-127.952 841.649,-123.078"/>
<polygon fill="midnightblue" stroke="midnightblue" points="781.749,-136.39 773.079,-142.481 783.655,-143.126 781.749,-136.39"/>
</g>
<!-- Node4900 -->
<g id="node5" class="node"><title>Node4900</title>
<g id="a_node5"><a xlink:href="namespaceEigen_1_1internal.html#a2636173af6863de34e156dfbf6ed6301" target="_top" xlink:title="Eigen::internal::pabs\l\&lt; Packet4f \&gt;">
<polygon fill="none" stroke="black" points="819.5,-142.5 819.5,-172.5 933.5,-172.5 933.5,-142.5 819.5,-142.5"/>
<text text-anchor="start" x="827.5" y="-160.5" font-family="Helvetica,sans-Serif" font-size="10.00">Eigen::internal::pabs</text>
<text text-anchor="middle" x="876.5" y="-149.5" font-family="Helvetica,sans-Serif" font-size="10.00">&lt; Packet4f &gt;</text>
</a>
</g>
</g>
<!-- Node4899&#45;&gt;Node4900 -->
<g id="edge4" class="edge"><title>Node4899&#45;&gt;Node4900</title>
<path fill="none" stroke="midnightblue" d="M788.556,-157.5C798.866,-157.5 809.396,-157.5 819.406,-157.5"/>
<polygon fill="midnightblue" stroke="midnightblue" points="788.345,-154 778.345,-157.5 788.345,-161 788.345,-154"/>
</g>
<!-- Node4901 -->
<g id="node6" class="node"><title>Node4901</title>
<g id="a_node6"><a xlink:href="namespaceEigen_1_1internal.html#abdf0ea7e126fdf116b7e4d9200f7a90f" target="_top" xlink:title="Eigen::internal::pmadd">
<polygon fill="none" stroke="black" points="814,-192 814,-211 939,-211 939,-192 814,-192"/>
<text text-anchor="middle" x="876.5" y="-199" font-family="Helvetica,sans-Serif" font-size="10.00">Eigen::internal::pmadd</text>
</a>
</g>
</g>
<!-- Node4899&#45;&gt;Node4901 -->
<g id="edge6" class="edge"><title>Node4899&#45;&gt;Node4901</title>
<path fill="none" stroke="midnightblue" d="M782.817,-175.274C802.929,-180.965 824.427,-187.048 841.649,-191.922"/>
<polygon fill="midnightblue" stroke="midnightblue" points="783.655,-171.874 773.079,-172.519 781.749,-178.61 783.655,-171.874"/>
</g>
<!-- Node4902&#45;&gt;Node4897 -->
<g id="edge8" class="edge"><title>Node4902&#45;&gt;Node4897</title>
<path fill="none" stroke="midnightblue" d="M309.351,-114.891C369.256,-115.975 451.162,-117.458 505.735,-118.445"/>
<polygon fill="midnightblue" stroke="midnightblue" points="309.247,-111.389 299.185,-114.707 309.12,-118.387 309.247,-111.389"/>
</g>
<!-- Node4903 -->
<g id="node8" class="node"><title>Node4903</title>
<g id="a_node8"><a xlink:href="namespaceEigen_1_1internal.html#a422d191db7a3b5d19a59688e9138dc1c" target="_top" xlink:title="Eigen::internal::ploaddup\l\&lt; Packet2d \&gt;">
<polygon fill="none" stroke="black" points="335,-60.5 335,-90.5 470,-90.5 470,-60.5 335,-60.5"/>
<text text-anchor="start" x="343" y="-78.5" font-family="Helvetica,sans-Serif" font-size="10.00">Eigen::internal::ploaddup</text>
<text text-anchor="middle" x="402.5" y="-67.5" font-family="Helvetica,sans-Serif" font-size="10.00">&lt; Packet2d &gt;</text>
</a>
</g>
</g>
<!-- Node4902&#45;&gt;Node4903 -->
<g id="edge9" class="edge"><title>Node4902&#45;&gt;Node4903</title>
<path fill="none" stroke="midnightblue" d="M309.271,-96.2378C317.831,-94.3131 326.497,-92.3645 334.915,-90.4717"/>
<polygon fill="midnightblue" stroke="midnightblue" points="308.282,-92.8728 299.293,-98.4814 309.818,-99.7023 308.282,-92.8728"/>
</g>
<!-- Node4903&#45;&gt;Node4897 -->
<g id="edge11" class="edge"><title>Node4903&#45;&gt;Node4897</title>
<path fill="none" stroke="midnightblue" d="M468.075,-93.2029C481.704,-96.9392 495.961,-100.847 509.189,-104.474"/>
<polygon fill="midnightblue" stroke="midnightblue" points="468.856,-89.7877 458.286,-90.5192 467.005,-96.5387 468.856,-89.7877"/>
</g>
<!-- Node4903&#45;&gt;Node4898 -->
<g id="edge10" class="edge"><title>Node4903&#45;&gt;Node4898</title>
<path fill="none" stroke="midnightblue" d="M480.359,-81.6878C573.757,-89.2071 729.417,-101.739 814.825,-108.615"/>
<polygon fill="midnightblue" stroke="midnightblue" points="480.374,-78.1777 470.125,-80.8639 479.812,-85.1552 480.374,-78.1777"/>
</g>
</g>
</svg>
        <g id="navigator" transform="translate(0 0)" fill="#404254">
                <rect fill="#f2f5e9" fill-opacity="0.5" stroke="#606060" stroke-width=".5" x="0" y="0" width="60" height="60"/>
                <use id="zoomplus" xlink:href="#zoomPlus" x="17" y="9" onmousedown="handleZoom(evt,'in')"/>
                <use id="zoomminus" xlink:href="#zoomMin" x="42" y="9" onmousedown="handleZoom(evt,'out')"/>
                <use id="reset" xlink:href="#resetDef" x="30" y="36" onmousedown="handleReset()"/>
                <g id="arrowUp" xlink:href="#dirArrow" transform="translate(30 24)" onmousedown="handlePan(0,-1)">
                  <use xlink:href="#rim" fill="#404040">
                        <set attributeName="fill" to="#808080" begin="arrowUp.mouseover" end="arrowUp.mouseout"/>
                  </use>
                  <path fill="none" stroke="white" stroke-width="1.5" d="M0,-3.0v7 M-2.5,-0.5L0,-3.0L2.5,-0.5"/>
                </g>
                <g id="arrowRight" xlink:href="#dirArrow" transform="rotate(90) translate(36 -43)" onmousedown="handlePan(1,0)">
                  <use xlink:href="#rim" fill="#404040">
                        <set attributeName="fill" to="#808080" begin="arrowRight.mouseover" end="arrowRight.mouseout"/>
                  </use>
                  <path fill="none" stroke="white" stroke-width="1.5" d="M0,-3.0v7 M-2.5,-0.5L0,-3.0L2.5,-0.5"/>
                </g>
                <g id="arrowDown" xlink:href="#dirArrow" transform="rotate(180) translate(-30 -48)" onmousedown="handlePan(0,1)">
                  <use xlink:href="#rim" fill="#404040">
                        <set attributeName="fill" to="#808080" begin="arrowDown.mouseover" end="arrowDown.mouseout"/>
                  </use>
                  <path fill="none" stroke="white" stroke-width="1.5" d="M0,-3.0v7 M-2.5,-0.5L0,-3.0L2.5,-0.5"/>
                </g>
                <g id="arrowLeft" xlink:href="#dirArrow" transform="rotate(270) translate(-36 17)" onmousedown="handlePan(-1,0)">
                  <use xlink:href="#rim" fill="#404040">
                        <set attributeName="fill" to="#808080" begin="arrowLeft.mouseover" end="arrowLeft.mouseout"/>
                  </use>
                  <path fill="none" stroke="white" stroke-width="1.5" d="M0,-3.0v7 M-2.5,-0.5L0,-3.0L2.5,-0.5"/>
                </g>
        </g>
        <svg viewBox="0 0 15 15" width="100%" height="30px" preserveAspectRatio="xMaxYMin meet">
         <g id="arrow_out" transform="scale(0.3 0.3)">
          <a xlink:href="namespaceEigen_1_1internal_aea49c19b4b3f450da1ff1a018e958eef_icgraph_org.svg" target="_base">
           <rect id="button" ry="5" rx="5" y="6" x="6" height="38" width="38"
                fill="#f2f5e9" fill-opacity="0.5" stroke="#606060" stroke-width="1.0"/>
           <path id="arrow"
             d="M 11.500037,31.436501 C 11.940474,20.09759 22.043105,11.32322 32.158766,21.979434 L 37.068811,17.246167 C 37.068811,17.246167 37.088388,32 37.088388,32 L 22.160133,31.978069 C 22.160133,31.978069 26.997745,27.140456 26.997745,27.140456 C 18.528582,18.264221 13.291696,25.230495 11.500037,31.436501 z"
             style="fill:#404040;"/>
          </a>
         </g>
        </svg>
</svg>
