<?xml version="1.0" encoding="UTF-8" standalone="no"?>
<!DOCTYPE svg PUBLIC "-//W3C//DTD SVG 1.1//EN"
 "http://www.w3.org/Graphics/SVG/1.1/DTD/svg11.dtd">
<!-- Generated by graphviz version 2.38.0 (20140413.2041)
 -->
<!-- Title: Eigen::internal::pfirst&lt; Packet2d &gt; Pages: 1 -->
<!--zoomable 331 -->
<svg id="main" version="1.1" xmlns="http://www.w3.org/2000/svg" xmlns:xlink="http://www.w3.org/1999/xlink" xml:space="preserve" onload="init(evt)">
<style type="text/css"><![CDATA[
.edge:hover path { stroke: red; }
.edge:hover polygon { stroke: red; fill: red; }
]]></style>
<script type="text/javascript"><![CDATA[
var edges = document.getElementsByTagName('g');
if (edges && edges.length) {
  for (var i=0;i<edges.length;i++) {
    if (edges[i].id.substr(0,4)=='edge') {
      edges[i].setAttribute('class','edge');
    }
  }
}
]]></script>
        <defs>
                <circle id="rim" cx="0" cy="0" r="7"/>
                <circle id="rim2" cx="0" cy="0" r="3.5"/>
                <g id="zoomPlus">
                        <use xlink:href="#rim" fill="#404040">
                                <set attributeName="fill" to="#808080" begin="zoomplus.mouseover" end="zoomplus.mouseout"/>
                        </use>
                        <path d="M-4,0h8M0,-4v8" fill="none" stroke="white" stroke-width="1.5" pointer-events="none"/>
                </g>
                <g id="zoomMin">
                        <use xlink:href="#rim" fill="#404040">
                                <set attributeName="fill" to="#808080" begin="zoomminus.mouseover" end="zoomminus.mouseout"/>
                        </use>
                        <path d="M-4,0h8" fill="none" stroke="white" stroke-width="1.5" pointer-events="none"/>
                </g>
                <g id="dirArrow">
                        <path fill="none" stroke="white" stroke-width="1.5" d="M0,-3.0v7 M-2.5,-0.5L0,-3.0L2.5,-0.5"/>
                </g>
               <g id="resetDef">
                       <use xlink:href="#rim2" fill="#404040">
                               <set attributeName="fill" to="#808080" begin="reset.mouseover" end="reset.mouseout"/>
                       </use>
               </g>
        </defs>

<script type="text/javascript">
var viewWidth = 608;
var viewHeight = 331;
var sectionId = 'dynsection-301';
</script>
<script xlink:href="svgpan.js"/>
<svg id="graph" class="graph">
<g id="viewport">
<title>Eigen::internal::pfirst&lt; Packet2d &gt;</title>
<!-- Node2457 -->
<g id="node1" class="node"><title>Node2457</title>
<polygon fill="#bfbfbf" stroke="black" points="0,-120.5 0,-150.5 115,-150.5 115,-120.5 0,-120.5"/>
<text text-anchor="start" x="8" y="-138.5" font-family="Helvetica,sans-Serif" font-size="10.00">Eigen::internal::pfirst</text>
<text text-anchor="middle" x="57.5" y="-127.5" font-family="Helvetica,sans-Serif" font-size="10.00">&lt; Packet2d &gt;</text>
</g>
<!-- Node2458 -->
<g id="node2" class="node"><title>Node2458</title>
<g id="a_node2"><a xlink:href="namespaceEigen_1_1internal.html#abaadd9aa6aafdf268f71646684340302" target="_top" xlink:title="Eigen::internal::pblend">
<polygon fill="none" stroke="black" points="476,-172 476,-191 599,-191 599,-172 476,-172"/>
<text text-anchor="middle" x="537.5" y="-179" font-family="Helvetica,sans-Serif" font-size="10.00">Eigen::internal::pblend</text>
</a>
</g>
</g>
<!-- Node2457&#45;&gt;Node2458 -->
<g id="edge1" class="edge"><title>Node2457&#45;&gt;Node2458</title>
<path fill="none" stroke="midnightblue" d="M102.786,-154.404C117.899,-160.407 135.019,-166.719 151,-171.5 274.532,-208.458 311.072,-222.64 439,-206.5 462.232,-203.569 487.857,-196.857 507.004,-191.125"/>
<polygon fill="midnightblue" stroke="midnightblue" points="103.759,-151.023 93.176,-150.524 101.138,-157.514 103.759,-151.023"/>
</g>
<!-- Node2459 -->
<g id="node3" class="node"><title>Node2459</title>
<g id="a_node3"><a xlink:href="namespaceEigen_1_1internal.html#afcef5b81d59c0cde536eac077cc8e581" target="_top" xlink:title="Eigen::internal::pfloor\l\&lt; Packet2d \&gt;">
<polygon fill="none" stroke="black" points="156,-254.5 156,-284.5 274,-284.5 274,-254.5 156,-254.5"/>
<text text-anchor="start" x="164" y="-272.5" font-family="Helvetica,sans-Serif" font-size="10.00">Eigen::internal::pfloor</text>
<text text-anchor="middle" x="215" y="-261.5" font-family="Helvetica,sans-Serif" font-size="10.00">&lt; Packet2d &gt;</text>
</a>
</g>
</g>
<!-- Node2457&#45;&gt;Node2459 -->
<g id="edge2" class="edge"><title>Node2457&#45;&gt;Node2459</title>
<path fill="none" stroke="midnightblue" d="M74.8497,-158.779C91.8196,-181.632 120.16,-216.34 151,-239.5 158.556,-245.174 167.356,-250.176 175.94,-254.388"/>
<polygon fill="midnightblue" stroke="midnightblue" points="77.6413,-156.667 68.921,-150.65 71.9855,-160.792 77.6413,-156.667"/>
</g>
<!-- Node2463 -->
<g id="node7" class="node"><title>Node2463</title>
<g id="a_node7"><a xlink:href="namespaceEigen_1_1internal.html#a09278c9f5a526f5e39c882f95238a65a" target="_top" xlink:title="Eigen::internal::predux\l\&lt; Packet2d \&gt;">
<polygon fill="none" stroke="black" points="315,-117.5 315,-147.5 439,-147.5 439,-117.5 315,-117.5"/>
<text text-anchor="start" x="323" y="-135.5" font-family="Helvetica,sans-Serif" font-size="10.00">Eigen::internal::predux</text>
<text text-anchor="middle" x="377" y="-124.5" font-family="Helvetica,sans-Serif" font-size="10.00">&lt; Packet2d &gt;</text>
</a>
</g>
</g>
<!-- Node2457&#45;&gt;Node2463 -->
<g id="edge8" class="edge"><title>Node2457&#45;&gt;Node2463</title>
<path fill="none" stroke="midnightblue" d="M125.432,-134.868C181.4,-134.339 260.571,-133.591 314.856,-133.078"/>
<polygon fill="midnightblue" stroke="midnightblue" points="125.229,-131.369 115.263,-134.964 125.295,-138.369 125.229,-131.369"/>
</g>
<!-- Node2464 -->
<g id="node8" class="node"><title>Node2464</title>
<g id="a_node8"><a xlink:href="namespaceEigen_1_1internal.html#a57f0f7472873a0e72fb6648aff40bd1e" target="_top" xlink:title="Eigen::internal::predux\l_max\&lt; Packet2d \&gt;">
<polygon fill="none" stroke="black" points="315,-68.5 315,-98.5 439,-98.5 439,-68.5 315,-68.5"/>
<text text-anchor="start" x="323" y="-86.5" font-family="Helvetica,sans-Serif" font-size="10.00">Eigen::internal::predux</text>
<text text-anchor="middle" x="377" y="-75.5" font-family="Helvetica,sans-Serif" font-size="10.00">_max&lt; Packet2d &gt;</text>
</a>
</g>
</g>
<!-- Node2457&#45;&gt;Node2464 -->
<g id="edge11" class="edge"><title>Node2457&#45;&gt;Node2464</title>
<path fill="none" stroke="midnightblue" d="M125.432,-124.538C181.4,-115.371 260.571,-102.405 314.856,-93.5141"/>
<polygon fill="midnightblue" stroke="midnightblue" points="124.565,-121.133 115.263,-126.203 125.697,-128.041 124.565,-121.133"/>
</g>
<!-- Node2465 -->
<g id="node9" class="node"><title>Node2465</title>
<g id="a_node9"><a xlink:href="namespaceEigen_1_1internal.html#a91a2407669903bcb8a10ea93751a4411" target="_top" xlink:title="Eigen::internal::predux\l_min\&lt; Packet2d \&gt;">
<polygon fill="none" stroke="black" points="315,-19.5 315,-49.5 439,-49.5 439,-19.5 315,-19.5"/>
<text text-anchor="start" x="323" y="-37.5" font-family="Helvetica,sans-Serif" font-size="10.00">Eigen::internal::predux</text>
<text text-anchor="middle" x="377" y="-26.5" font-family="Helvetica,sans-Serif" font-size="10.00">_min&lt; Packet2d &gt;</text>
</a>
</g>
</g>
<!-- Node2457&#45;&gt;Node2465 -->
<g id="edge14" class="edge"><title>Node2457&#45;&gt;Node2465</title>
<path fill="none" stroke="midnightblue" d="M99.6622,-116.196C115.51,-109.163 133.904,-101.479 151,-95.5 205.44,-76.4599 268.989,-59.716 314.638,-48.6115"/>
<polygon fill="midnightblue" stroke="midnightblue" points="97.8434,-113.176 90.1583,-120.469 100.714,-119.56 97.8434,-113.176"/>
</g>
<!-- Node2466 -->
<g id="node10" class="node"><title>Node2466</title>
<g id="a_node10"><a xlink:href="namespaceEigen_1_1internal.html#a8cc535b17cd693b49e3a29d50c8a1afb" target="_top" xlink:title="Eigen::internal::predux\l_mul\&lt; Packet2d \&gt;">
<polygon fill="none" stroke="black" points="315,-166.5 315,-196.5 439,-196.5 439,-166.5 315,-166.5"/>
<text text-anchor="start" x="323" y="-184.5" font-family="Helvetica,sans-Serif" font-size="10.00">Eigen::internal::predux</text>
<text text-anchor="middle" x="377" y="-173.5" font-family="Helvetica,sans-Serif" font-size="10.00">_mul&lt; Packet2d &gt;</text>
</a>
</g>
</g>
<!-- Node2457&#45;&gt;Node2466 -->
<g id="edge17" class="edge"><title>Node2457&#45;&gt;Node2466</title>
<path fill="none" stroke="midnightblue" d="M125.432,-145.197C181.4,-153.306 260.571,-164.776 314.856,-172.641"/>
<polygon fill="midnightblue" stroke="midnightblue" points="125.661,-141.694 115.263,-143.724 124.657,-148.622 125.661,-141.694"/>
</g>
<!-- Node2467 -->
<g id="node11" class="node"><title>Node2467</title>
<g id="a_node11"><a xlink:href="namespaceEigen_1_1internal.html#a4e9d4d78a5b2fc0d065d7b7543f54f96" target="_top" xlink:title="Eigen::internal::pstore1\l\&lt; Packet2d \&gt;">
<polygon fill="none" stroke="black" points="151,-0.5 151,-30.5 279,-30.5 279,-0.5 151,-0.5"/>
<text text-anchor="start" x="159" y="-18.5" font-family="Helvetica,sans-Serif" font-size="10.00">Eigen::internal::pstore1</text>
<text text-anchor="middle" x="215" y="-7.5" font-family="Helvetica,sans-Serif" font-size="10.00">&lt; Packet2d &gt;</text>
</a>
</g>
</g>
<!-- Node2457&#45;&gt;Node2467 -->
<g id="edge20" class="edge"><title>Node2457&#45;&gt;Node2467</title>
<path fill="none" stroke="midnightblue" d="M78.0371,-112.661C95.6602,-93.0554 123.038,-64.9626 151,-45.5 159.054,-39.8943 168.318,-34.8326 177.221,-30.5318"/>
<polygon fill="midnightblue" stroke="midnightblue" points="75.3391,-110.428 71.3323,-120.236 80.5809,-115.067 75.3391,-110.428"/>
</g>
<!-- Node2459&#45;&gt;Node2458 -->
<g id="edge3" class="edge"><title>Node2459&#45;&gt;Node2458</title>
<path fill="none" stroke="midnightblue" d="M284.537,-267.387C329.513,-264.29 389.033,-256.905 439,-239.5 472.107,-227.968 506.312,-204.432 524.082,-191.16"/>
<polygon fill="midnightblue" stroke="midnightblue" points="284.062,-263.91 274.303,-268.035 284.504,-270.896 284.062,-263.91"/>
</g>
<!-- Node2460 -->
<g id="node4" class="node"><title>Node2460</title>
<g id="a_node4"><a xlink:href="namespaceEigen_1_1internal.html#aeab59aec7b70a1f67d9f060b55903ceb" target="_top" xlink:title="Eigen::internal::pmax\l\&lt; Packet2d \&gt;">
<polygon fill="none" stroke="black" points="318,-292.5 318,-322.5 436,-322.5 436,-292.5 318,-292.5"/>
<text text-anchor="start" x="326" y="-310.5" font-family="Helvetica,sans-Serif" font-size="10.00">Eigen::internal::pmax</text>
<text text-anchor="middle" x="377" y="-299.5" font-family="Helvetica,sans-Serif" font-size="10.00">&lt; Packet2d &gt;</text>
</a>
</g>
</g>
<!-- Node2459&#45;&gt;Node2460 -->
<g id="edge4" class="edge"><title>Node2459&#45;&gt;Node2460</title>
<path fill="none" stroke="midnightblue" d="M284.002,-285.651C295.259,-288.324 306.84,-291.075 317.827,-293.684"/>
<polygon fill="midnightblue" stroke="midnightblue" points="284.754,-282.232 274.216,-283.326 283.137,-289.042 284.754,-282.232"/>
</g>
<!-- Node2460&#45;&gt;Node2458 -->
<g id="edge5" class="edge"><title>Node2460&#45;&gt;Node2458</title>
<path fill="none" stroke="midnightblue" d="M422.567,-287.683C428.264,-284.548 433.885,-281.132 439,-277.5 476.384,-250.96 512.817,-209.873 528.484,-191.258"/>
<polygon fill="midnightblue" stroke="midnightblue" points="420.854,-284.63 413.616,-292.367 424.099,-290.832 420.854,-284.63"/>
</g>
<!-- Node2461 -->
<g id="node5" class="node"><title>Node2461</title>
<g id="a_node5"><a xlink:href="namespaceEigen_1_1internal.html#abdf0ea7e126fdf116b7e4d9200f7a90f" target="_top" xlink:title="Eigen::internal::pmadd">
<polygon fill="none" stroke="black" points="475,-298 475,-317 600,-317 600,-298 475,-298"/>
<text text-anchor="middle" x="537.5" y="-305" font-family="Helvetica,sans-Serif" font-size="10.00">Eigen::internal::pmadd</text>
</a>
</g>
</g>
<!-- Node2460&#45;&gt;Node2461 -->
<g id="edge6" class="edge"><title>Node2460&#45;&gt;Node2461</title>
<path fill="none" stroke="midnightblue" d="M446.324,-307.5C455.831,-307.5 465.551,-307.5 474.924,-307.5"/>
<polygon fill="midnightblue" stroke="midnightblue" points="446.12,-304 436.12,-307.5 446.12,-311 446.12,-304"/>
</g>
<!-- Node2462 -->
<g id="node6" class="node"><title>Node2462</title>
<g id="a_node6"><a xlink:href="namespaceEigen_1_1internal.html#a2636173af6863de34e156dfbf6ed6301" target="_top" xlink:title="Eigen::internal::pabs\l\&lt; Packet4f \&gt;">
<polygon fill="none" stroke="black" points="480.5,-117.5 480.5,-147.5 594.5,-147.5 594.5,-117.5 480.5,-117.5"/>
<text text-anchor="start" x="488.5" y="-135.5" font-family="Helvetica,sans-Serif" font-size="10.00">Eigen::internal::pabs</text>
<text text-anchor="middle" x="537.5" y="-124.5" font-family="Helvetica,sans-Serif" font-size="10.00">&lt; Packet4f &gt;</text>
</a>
</g>
</g>
<!-- Node2460&#45;&gt;Node2462 -->
<g id="edge7" class="edge"><title>Node2460&#45;&gt;Node2462</title>
<path fill="none" stroke="midnightblue" d="M392.023,-283.378C413.465,-247.085 454.105,-180.735 475,-162.5 481.623,-156.72 489.556,-151.775 497.489,-147.664"/>
<polygon fill="midnightblue" stroke="midnightblue" points="388.811,-281.937 386.763,-292.332 394.846,-285.483 388.811,-281.937"/>
</g>
<!-- Node2463&#45;&gt;Node2458 -->
<g id="edge9" class="edge"><title>Node2463&#45;&gt;Node2458</title>
<path fill="none" stroke="midnightblue" d="M436.676,-150.64C460.034,-157.861 485.954,-165.874 505.527,-171.925"/>
<polygon fill="midnightblue" stroke="midnightblue" points="437.436,-147.211 426.849,-147.601 435.369,-153.899 437.436,-147.211"/>
</g>
<!-- Node2463&#45;&gt;Node2462 -->
<g id="edge10" class="edge"><title>Node2463&#45;&gt;Node2462</title>
<path fill="none" stroke="midnightblue" d="M449.519,-132.5C459.842,-132.5 470.342,-132.5 480.309,-132.5"/>
<polygon fill="midnightblue" stroke="midnightblue" points="449.28,-129 439.28,-132.5 449.28,-136 449.28,-129"/>
</g>
<!-- Node2464&#45;&gt;Node2458 -->
<g id="edge12" class="edge"><title>Node2464&#45;&gt;Node2458</title>
<path fill="none" stroke="midnightblue" d="M431.767,-103.471C434.289,-105.042 436.717,-106.717 439,-108.5 460.298,-125.134 453.563,-141.047 475,-157.5 483.001,-163.641 492.768,-168.396 502.142,-171.992"/>
<polygon fill="midnightblue" stroke="midnightblue" points="433.343,-100.342 422.904,-98.5264 429.932,-106.455 433.343,-100.342"/>
</g>
<!-- Node2464&#45;&gt;Node2462 -->
<g id="edge13" class="edge"><title>Node2464&#45;&gt;Node2462</title>
<path fill="none" stroke="midnightblue" d="M436.59,-101.613C453.44,-106.822 471.63,-112.446 487.813,-117.448"/>
<polygon fill="midnightblue" stroke="midnightblue" points="437.436,-98.2112 426.849,-98.6014 435.369,-104.899 437.436,-98.2112"/>
</g>
<!-- Node2465&#45;&gt;Node2458 -->
<g id="edge15" class="edge"><title>Node2465&#45;&gt;Node2458</title>
<path fill="none" stroke="midnightblue" d="M434.531,-55.3828C436.104,-56.6766 437.6,-58.0475 439,-59.5 471.2,-92.9107 442.519,-124.362 475,-157.5 481.178,-163.803 489.203,-168.485 497.405,-171.952"/>
<polygon fill="midnightblue" stroke="midnightblue" points="436.331,-52.3714 426.123,-49.5366 432.335,-58.1188 436.331,-52.3714"/>
</g>
<!-- Node2465&#45;&gt;Node2462 -->
<g id="edge16" class="edge"><title>Node2465&#45;&gt;Node2462</title>
<path fill="none" stroke="midnightblue" d="M428.276,-53.8934C431.958,-55.6807 435.57,-57.555 439,-59.5 468.983,-76.5011 500.312,-101.447 519.118,-117.329"/>
<polygon fill="midnightblue" stroke="midnightblue" points="429.587,-50.6441 419.04,-49.6387 426.658,-57.0019 429.587,-50.6441"/>
</g>
<!-- Node2466&#45;&gt;Node2458 -->
<g id="edge18" class="edge"><title>Node2466&#45;&gt;Node2458</title>
<path fill="none" stroke="midnightblue" d="M449.535,-181.5C458.344,-181.5 467.281,-181.5 475.905,-181.5"/>
<polygon fill="midnightblue" stroke="midnightblue" points="449.28,-178 439.28,-181.5 449.28,-185 449.28,-178"/>
</g>
<!-- Node2466&#45;&gt;Node2462 -->
<g id="edge19" class="edge"><title>Node2466&#45;&gt;Node2462</title>
<path fill="none" stroke="midnightblue" d="M436.59,-163.387C453.44,-158.178 471.63,-152.554 487.813,-147.552"/>
<polygon fill="midnightblue" stroke="midnightblue" points="435.369,-160.101 426.849,-166.399 437.436,-166.789 435.369,-160.101"/>
</g>
</g>
</svg>
        <g id="navigator" transform="translate(0 0)" fill="#404254">
                <rect fill="#f2f5e9" fill-opacity="0.5" stroke="#606060" stroke-width=".5" x="0" y="0" width="60" height="60"/>
                <use id="zoomplus" xlink:href="#zoomPlus" x="17" y="9" onmousedown="handleZoom(evt,'in')"/>
                <use id="zoomminus" xlink:href="#zoomMin" x="42" y="9" onmousedown="handleZoom(evt,'out')"/>
                <use id="reset" xlink:href="#resetDef" x="30" y="36" onmousedown="handleReset()"/>
                <g id="arrowUp" xlink:href="#dirArrow" transform="translate(30 24)" onmousedown="handlePan(0,-1)">
                  <use xlink:href="#rim" fill="#404040">
                        <set attributeName="fill" to="#808080" begin="arrowUp.mouseover" end="arrowUp.mouseout"/>
                  </use>
                  <path fill="none" stroke="white" stroke-width="1.5" d="M0,-3.0v7 M-2.5,-0.5L0,-3.0L2.5,-0.5"/>
                </g>
                <g id="arrowRight" xlink:href="#dirArrow" transform="rotate(90) translate(36 -43)" onmousedown="handlePan(1,0)">
                  <use xlink:href="#rim" fill="#404040">
                        <set attributeName="fill" to="#808080" begin="arrowRight.mouseover" end="arrowRight.mouseout"/>
                  </use>
                  <path fill="none" stroke="white" stroke-width="1.5" d="M0,-3.0v7 M-2.5,-0.5L0,-3.0L2.5,-0.5"/>
                </g>
                <g id="arrowDown" xlink:href="#dirArrow" transform="rotate(180) translate(-30 -48)" onmousedown="handlePan(0,1)">
                  <use xlink:href="#rim" fill="#404040">
                        <set attributeName="fill" to="#808080" begin="arrowDown.mouseover" end="arrowDown.mouseout"/>
                  </use>
                  <path fill="none" stroke="white" stroke-width="1.5" d="M0,-3.0v7 M-2.5,-0.5L0,-3.0L2.5,-0.5"/>
                </g>
                <g id="arrowLeft" xlink:href="#dirArrow" transform="rotate(270) translate(-36 17)" onmousedown="handlePan(-1,0)">
                  <use xlink:href="#rim" fill="#404040">
                        <set attributeName="fill" to="#808080" begin="arrowLeft.mouseover" end="arrowLeft.mouseout"/>
                  </use>
                  <path fill="none" stroke="white" stroke-width="1.5" d="M0,-3.0v7 M-2.5,-0.5L0,-3.0L2.5,-0.5"/>
                </g>
        </g>
        <svg viewBox="0 0 15 15" width="100%" height="30px" preserveAspectRatio="xMaxYMin meet">
         <g id="arrow_out" transform="scale(0.3 0.3)">
          <a xlink:href="namespaceEigen_1_1internal_af4d7bfd00624245c9481aa794165acb8_icgraph_org.svg" target="_base">
           <rect id="button" ry="5" rx="5" y="6" x="6" height="38" width="38"
                fill="#f2f5e9" fill-opacity="0.5" stroke="#606060" stroke-width="1.0"/>
           <path id="arrow"
             d="M 11.500037,31.436501 C 11.940474,20.09759 22.043105,11.32322 32.158766,21.979434 L 37.068811,17.246167 C 37.068811,17.246167 37.088388,32 37.088388,32 L 22.160133,31.978069 C 22.160133,31.978069 26.997745,27.140456 26.997745,27.140456 C 18.528582,18.264221 13.291696,25.230495 11.500037,31.436501 z"
             style="fill:#404040;"/>
          </a>
         </g>
        </svg>
</svg>
