<?xml version="1.0" encoding="UTF-8" standalone="no"?>
<!DOCTYPE svg PUBLIC "-//W3C//DTD SVG 1.1//EN"
 "http://www.w3.org/Graphics/SVG/1.1/DTD/svg11.dtd">
<!-- Generated by graphviz version 2.38.0 (20140413.2041)
 -->
<!-- Title: Eigen::internal::pstoreu&lt; double &gt; Pages: 1 -->
<svg width="453pt" height="137pt"
 viewBox="0.00 0.00 453.00 137.00" xmlns="http://www.w3.org/2000/svg" xmlns:xlink="http://www.w3.org/1999/xlink">
<g id="graph0" class="graph" transform="scale(1 1) rotate(0) translate(4 133)">
<title>Eigen::internal::pstoreu&lt; double &gt;</title>
<!-- Node4885 -->
<g id="node1" class="node"><title>Node4885</title>
<polygon fill="#bfbfbf" stroke="black" points="0,-49.5 0,-79.5 128,-79.5 128,-49.5 0,-49.5"/>
<text text-anchor="start" x="8" y="-67.5" font-family="Helvetica,sans-Serif" font-size="10.00">Eigen::internal::pstoreu</text>
<text text-anchor="middle" x="64" y="-56.5" font-family="Helvetica,sans-Serif" font-size="10.00">&lt; double &gt;</text>
</g>
<!-- Node4886 -->
<g id="node2" class="node"><title>Node4886</title>
<g id="a_node2"><a xlink:href="namespaceEigen_1_1internal.html#a5edf629e883e10447347e830b8c9f06f" target="_top" xlink:title="Eigen::internal::pgather\l\&lt; float, Packet4f \&gt;">
<polygon fill="none" stroke="black" points="164,-98.5 164,-128.5 292,-128.5 292,-98.5 164,-98.5"/>
<text text-anchor="start" x="172" y="-116.5" font-family="Helvetica,sans-Serif" font-size="10.00">Eigen::internal::pgather</text>
<text text-anchor="middle" x="228" y="-105.5" font-family="Helvetica,sans-Serif" font-size="10.00">&lt; float, Packet4f &gt;</text>
</a>
</g>
</g>
<!-- Node4885&#45;&gt;Node4886 -->
<g id="edge1" class="edge"><title>Node4885&#45;&gt;Node4886</title>
<path fill="none" stroke="midnightblue" d="M114.927,-79.6014C131.481,-84.6083 150.075,-90.2324 167.288,-95.439"/>
<polygon fill="midnightblue" stroke="midnightblue" points="166.653,-98.9033 177.238,-98.4484 168.679,-92.2031 166.653,-98.9033"/>
</g>
<!-- Node4888 -->
<g id="node4" class="node"><title>Node4888</title>
<g id="a_node4"><a xlink:href="namespaceEigen_1_1internal.html#aea49c19b4b3f450da1ff1a018e958eef" target="_top" xlink:title="Eigen::internal::pstoreu\l\&lt; float \&gt;">
<polygon fill="none" stroke="black" points="164,-49.5 164,-79.5 292,-79.5 292,-49.5 164,-49.5"/>
<text text-anchor="start" x="172" y="-67.5" font-family="Helvetica,sans-Serif" font-size="10.00">Eigen::internal::pstoreu</text>
<text text-anchor="middle" x="228" y="-56.5" font-family="Helvetica,sans-Serif" font-size="10.00">&lt; float &gt;</text>
</a>
</g>
</g>
<!-- Node4885&#45;&gt;Node4888 -->
<g id="edge3" class="edge"><title>Node4885&#45;&gt;Node4888</title>
<path fill="none" stroke="midnightblue" d="M128.097,-64.5C136.435,-64.5 145.038,-64.5 153.53,-64.5"/>
<polygon fill="midnightblue" stroke="midnightblue" points="153.808,-68.0001 163.808,-64.5 153.808,-61.0001 153.808,-68.0001"/>
</g>
<!-- Node4889 -->
<g id="node5" class="node"><title>Node4889</title>
<g id="a_node5"><a xlink:href="namespaceEigen_1_1internal.html#abe9341bd54c8f36e4add9c441481704c" target="_top" xlink:title="Eigen::internal::pstoreu\l\&lt; int \&gt;">
<polygon fill="none" stroke="black" points="164,-0.5 164,-30.5 292,-30.5 292,-0.5 164,-0.5"/>
<text text-anchor="start" x="172" y="-18.5" font-family="Helvetica,sans-Serif" font-size="10.00">Eigen::internal::pstoreu</text>
<text text-anchor="middle" x="228" y="-7.5" font-family="Helvetica,sans-Serif" font-size="10.00">&lt; int &gt;</text>
</a>
</g>
</g>
<!-- Node4885&#45;&gt;Node4889 -->
<g id="edge4" class="edge"><title>Node4885&#45;&gt;Node4889</title>
<path fill="none" stroke="midnightblue" d="M114.927,-49.3986C131.481,-44.3917 150.075,-38.7676 167.288,-33.561"/>
<polygon fill="midnightblue" stroke="midnightblue" points="168.679,-36.7969 177.238,-30.5516 166.653,-30.0967 168.679,-36.7969"/>
</g>
<!-- Node4887 -->
<g id="node3" class="node"><title>Node4887</title>
<g id="a_node3"><a xlink:href="namespaceEigen_1_1internal.html#a63e92b056e3378b0853f510fdb6757b2" target="_top" xlink:title="Eigen::internal::pload\l\&lt; Packet4f \&gt;">
<polygon fill="none" stroke="black" points="328,-98.5 328,-128.5 445,-128.5 445,-98.5 328,-98.5"/>
<text text-anchor="start" x="336" y="-116.5" font-family="Helvetica,sans-Serif" font-size="10.00">Eigen::internal::pload</text>
<text text-anchor="middle" x="386.5" y="-105.5" font-family="Helvetica,sans-Serif" font-size="10.00">&lt; Packet4f &gt;</text>
</a>
</g>
</g>
<!-- Node4886&#45;&gt;Node4887 -->
<g id="edge2" class="edge"><title>Node4886&#45;&gt;Node4887</title>
<path fill="none" stroke="midnightblue" d="M292.203,-113.5C300.587,-113.5 309.209,-113.5 317.667,-113.5"/>
<polygon fill="midnightblue" stroke="midnightblue" points="317.874,-117 327.874,-113.5 317.874,-110 317.874,-117"/>
</g>
</g>
</svg>
