<?xml version="1.0" encoding="UTF-8" standalone="no"?>
<!DOCTYPE svg PUBLIC "-//W3C//DTD SVG 1.1//EN"
 "http://www.w3.org/Graphics/SVG/1.1/DTD/svg11.dtd">
<!-- Generated by graphviz version 2.38.0 (20140413.2041)
 -->
<!-- Title: Eigen::internal::pmadd Pages: 1 -->
<!--zoomable 1233 -->
<svg id="main" version="1.1" xmlns="http://www.w3.org/2000/svg" xmlns:xlink="http://www.w3.org/1999/xlink" xml:space="preserve" onload="init(evt)">
<style type="text/css"><![CDATA[
.edge:hover path { stroke: red; }
.edge:hover polygon { stroke: red; fill: red; }
]]></style>
<script type="text/javascript"><![CDATA[
var edges = document.getElementsByTagName('g');
if (edges && edges.length) {
  for (var i=0;i<edges.length;i++) {
    if (edges[i].id.substr(0,4)=='edge') {
      edges[i].setAttribute('class','edge');
    }
  }
}
]]></script>
        <defs>
                <circle id="rim" cx="0" cy="0" r="7"/>
                <circle id="rim2" cx="0" cy="0" r="3.5"/>
                <g id="zoomPlus">
                        <use xlink:href="#rim" fill="#404040">
                                <set attributeName="fill" to="#808080" begin="zoomplus.mouseover" end="zoomplus.mouseout"/>
                        </use>
                        <path d="M-4,0h8M0,-4v8" fill="none" stroke="white" stroke-width="1.5" pointer-events="none"/>
                </g>
                <g id="zoomMin">
                        <use xlink:href="#rim" fill="#404040">
                                <set attributeName="fill" to="#808080" begin="zoomminus.mouseover" end="zoomminus.mouseout"/>
                        </use>
                        <path d="M-4,0h8" fill="none" stroke="white" stroke-width="1.5" pointer-events="none"/>
                </g>
                <g id="dirArrow">
                        <path fill="none" stroke="white" stroke-width="1.5" d="M0,-3.0v7 M-2.5,-0.5L0,-3.0L2.5,-0.5"/>
                </g>
               <g id="resetDef">
                       <use xlink:href="#rim2" fill="#404040">
                               <set attributeName="fill" to="#808080" begin="reset.mouseover" end="reset.mouseout"/>
                       </use>
               </g>
        </defs>

<script type="text/javascript">
var viewWidth = 734;
var viewHeight = 1233;
var sectionId = 'dynsection-402';
</script>
<script xlink:href="svgpan.js"/>
<svg id="graph" class="graph">
<g id="viewport">
<title>Eigen::internal::pmadd</title>
<!-- Node3248 -->
<g id="node1" class="node"><title>Node3248</title>
<polygon fill="#bfbfbf" stroke="black" points="0,-625 0,-644 125,-644 125,-625 0,-625"/>
<text text-anchor="middle" x="62.5" y="-632" font-family="Helvetica,sans-Serif" font-size="10.00">Eigen::internal::pmadd</text>
</g>
<!-- Node3249 -->
<g id="node2" class="node"><title>Node3249</title>
<g id="a_node2"><a xlink:href="classEigen_1_1internal_1_1gebp__traits.html#a52b30a1314c29a3396bbaa44add57646" target="_top" xlink:title="Eigen::internal::gebp\l_traits::acc">
<polygon fill="none" stroke="black" points="196,-1194.5 196,-1224.5 311,-1224.5 311,-1194.5 196,-1194.5"/>
<text text-anchor="start" x="204" y="-1212.5" font-family="Helvetica,sans-Serif" font-size="10.00">Eigen::internal::gebp</text>
<text text-anchor="middle" x="253.5" y="-1201.5" font-family="Helvetica,sans-Serif" font-size="10.00">_traits::acc</text>
</a>
</g>
</g>
<!-- Node3248&#45;&gt;Node3249 -->
<g id="edge1" class="edge"><title>Node3248&#45;&gt;Node3249</title>
<path fill="none" stroke="midnightblue" d="M64.2486,-654.166C68.0167,-742.79 87.7263,-1104.21 161,-1184.5 170.103,-1194.47 182.762,-1200.62 195.766,-1204.38"/>
<polygon fill="midnightblue" stroke="midnightblue" points="67.7441,-653.981 63.8418,-644.131 60.7498,-654.264 67.7441,-653.981"/>
</g>
<!-- Node3251 -->
<g id="node4" class="node"><title>Node3251</title>
<g id="a_node4"><a xlink:href="classEigen_1_1internal_1_1gebp__traits_3_01std_1_1complex_3_01RealScalar_01_4_00_01std_1_1compleab3b42d946da554331e68260d99122c5.html#a6ee150d8ddc491faf9f1fa5f0f8b2708" target="_top" xlink:title="Eigen::internal::gebp\l_traits\&lt; std::complex\l\&lt; RealScalar \&gt;, std::complex\l\&lt; RealScalar \&gt;, _ConjLhs,\l _ConjRhs \&gt;::acc">
<polygon fill="none" stroke="black" points="175.5,-1112 175.5,-1175 331.5,-1175 331.5,-1112 175.5,-1112"/>
<text text-anchor="start" x="183.5" y="-1163" font-family="Helvetica,sans-Serif" font-size="10.00">Eigen::internal::gebp</text>
<text text-anchor="start" x="183.5" y="-1152" font-family="Helvetica,sans-Serif" font-size="10.00">_traits&lt; std::complex</text>
<text text-anchor="start" x="183.5" y="-1141" font-family="Helvetica,sans-Serif" font-size="10.00">&lt; RealScalar &gt;, std::complex</text>
<text text-anchor="start" x="183.5" y="-1130" font-family="Helvetica,sans-Serif" font-size="10.00">&lt; RealScalar &gt;, _ConjLhs,</text>
<text text-anchor="middle" x="253.5" y="-1119" font-family="Helvetica,sans-Serif" font-size="10.00"> _ConjRhs &gt;::acc</text>
</a>
</g>
</g>
<!-- Node3248&#45;&gt;Node3251 -->
<g id="edge3" class="edge"><title>Node3248&#45;&gt;Node3251</title>
<path fill="none" stroke="midnightblue" d="M65.2331,-654.209C72.5842,-733.846 103.483,-1031 161,-1102.5 165.146,-1107.65 170.078,-1112.18 175.47,-1116.15"/>
<polygon fill="midnightblue" stroke="midnightblue" points="68.7046,-653.735 64.319,-644.091 61.733,-654.365 68.7046,-653.735"/>
</g>
<!-- Node3252 -->
<g id="node5" class="node"><title>Node3252</title>
<g id="a_node5"><a xlink:href="classEigen_1_1internal_1_1gebp__traits_3_01std_1_1complex_3_01RealScalar_01_4_00_01RealScalar_00_01__ConjLhs_00_01false_01_4.html#a470289c6921499aac58e31f66eb4cbb2" target="_top" xlink:title="Eigen::internal::gebp\l_traits\&lt; std::complex\l\&lt; RealScalar \&gt;, RealScalar,\l _ConjLhs, false \&gt;::madd_impl">
<polygon fill="none" stroke="black" points="173,-1040.5 173,-1092.5 334,-1092.5 334,-1040.5 173,-1040.5"/>
<text text-anchor="start" x="181" y="-1080.5" font-family="Helvetica,sans-Serif" font-size="10.00">Eigen::internal::gebp</text>
<text text-anchor="start" x="181" y="-1069.5" font-family="Helvetica,sans-Serif" font-size="10.00">_traits&lt; std::complex</text>
<text text-anchor="start" x="181" y="-1058.5" font-family="Helvetica,sans-Serif" font-size="10.00">&lt; RealScalar &gt;, RealScalar,</text>
<text text-anchor="middle" x="253.5" y="-1047.5" font-family="Helvetica,sans-Serif" font-size="10.00"> _ConjLhs, false &gt;::madd_impl</text>
</a>
</g>
</g>
<!-- Node3248&#45;&gt;Node3252 -->
<g id="edge4" class="edge"><title>Node3248&#45;&gt;Node3252</title>
<path fill="none" stroke="midnightblue" d="M65.883,-653.995C74.9975,-725.667 109.733,-973.416 161,-1031.5 164.489,-1035.45 168.475,-1038.96 172.786,-1042.08"/>
<polygon fill="midnightblue" stroke="midnightblue" points="69.3545,-653.549 64.6415,-644.06 62.4085,-654.417 69.3545,-653.549"/>
</g>
<!-- Node3253 -->
<g id="node6" class="node"><title>Node3253</title>
<g id="a_node6"><a xlink:href="classEigen_1_1internal_1_1gebp__traits_3_01RealScalar_00_01std_1_1complex_3_01RealScalar_01_4_00_01false_00_01__ConjRhs_01_4.html#a06c429f7169aab2612bf4f1d1d8ffe50" target="_top" xlink:title="Eigen::internal::gebp\l_traits\&lt; RealScalar,\l std::complex\&lt; RealScalar\l \&gt;, false, _ConjRhs \&gt;::madd_impl">
<polygon fill="none" stroke="black" points="165.5,-969.5 165.5,-1021.5 341.5,-1021.5 341.5,-969.5 165.5,-969.5"/>
<text text-anchor="start" x="173.5" y="-1009.5" font-family="Helvetica,sans-Serif" font-size="10.00">Eigen::internal::gebp</text>
<text text-anchor="start" x="173.5" y="-998.5" font-family="Helvetica,sans-Serif" font-size="10.00">_traits&lt; RealScalar,</text>
<text text-anchor="start" x="173.5" y="-987.5" font-family="Helvetica,sans-Serif" font-size="10.00"> std::complex&lt; RealScalar</text>
<text text-anchor="middle" x="253.5" y="-976.5" font-family="Helvetica,sans-Serif" font-size="10.00"> &gt;, false, _ConjRhs &gt;::madd_impl</text>
</a>
</g>
</g>
<!-- Node3248&#45;&gt;Node3253 -->
<g id="edge5" class="edge"><title>Node3248&#45;&gt;Node3253</title>
<path fill="none" stroke="midnightblue" d="M64.0644,-654.324C66.6482,-708.988 81.0329,-863.809 161,-954.5 165.95,-960.114 171.819,-964.999 178.159,-969.242"/>
<polygon fill="midnightblue" stroke="midnightblue" points="67.5582,-654.095 63.6728,-644.239 60.5635,-654.367 67.5582,-654.095"/>
</g>
<!-- Node3254 -->
<g id="node7" class="node"><title>Node3254</title>
<g id="a_node7"><a xlink:href="namespaceEigen_1_1internal.html#abaadd9aa6aafdf268f71646684340302" target="_top" xlink:title="Eigen::internal::pblend">
<polygon fill="none" stroke="black" points="416.5,-960 416.5,-979 539.5,-979 539.5,-960 416.5,-960"/>
<text text-anchor="middle" x="478" y="-967" font-family="Helvetica,sans-Serif" font-size="10.00">Eigen::internal::pblend</text>
</a>
</g>
</g>
<!-- Node3248&#45;&gt;Node3254 -->
<g id="edge6" class="edge"><title>Node3248&#45;&gt;Node3254</title>
<path fill="none" stroke="midnightblue" d="M63.6621,-654.112C65.2447,-706.679 77.3605,-851.475 161,-921.5 180.253,-937.619 330.247,-954.939 416.482,-963.705"/>
<polygon fill="midnightblue" stroke="midnightblue" points="67.1612,-654.024 63.4598,-644.096 60.1626,-654.165 67.1612,-654.024"/>
</g>
<!-- Node3255 -->
<g id="node8" class="node"><title>Node3255</title>
<g id="a_node8"><a xlink:href="namespaceEigen_1_1internal.html#a8d9b6dd22a9568380b3b54ece5eac0f0" target="_top" xlink:title="Eigen::internal::pdiv\l\&lt; Packet2d \&gt;">
<polygon fill="none" stroke="black" points="198.5,-881.5 198.5,-911.5 308.5,-911.5 308.5,-881.5 198.5,-881.5"/>
<text text-anchor="start" x="206.5" y="-899.5" font-family="Helvetica,sans-Serif" font-size="10.00">Eigen::internal::pdiv</text>
<text text-anchor="middle" x="253.5" y="-888.5" font-family="Helvetica,sans-Serif" font-size="10.00">&lt; Packet2d &gt;</text>
</a>
</g>
</g>
<!-- Node3248&#45;&gt;Node3255 -->
<g id="edge7" class="edge"><title>Node3248&#45;&gt;Node3255</title>
<path fill="none" stroke="midnightblue" d="M66.1757,-654.083C73.2596,-698.395 96.5867,-807.105 161,-866.5 171.324,-876.019 184.724,-882.522 198.07,-886.962"/>
<polygon fill="midnightblue" stroke="midnightblue" points="69.6162,-653.424 64.6787,-644.05 62.6929,-654.457 69.6162,-653.424"/>
</g>
<!-- Node3256 -->
<g id="node9" class="node"><title>Node3256</title>
<g id="a_node9"><a xlink:href="structEigen_1_1internal_1_1palign__impl_3_01Offset_00_01Packet2d_01_4.html#a67e74f2cd50ad7d14d1820186da5f752" target="_top" xlink:title="Eigen::internal::palign\l_impl\&lt; Offset, Packet2d\l \&gt;::run">
<polygon fill="none" stroke="black" points="412.5,-900 412.5,-941 543.5,-941 543.5,-900 412.5,-900"/>
<text text-anchor="start" x="420.5" y="-929" font-family="Helvetica,sans-Serif" font-size="10.00">Eigen::internal::palign</text>
<text text-anchor="start" x="420.5" y="-918" font-family="Helvetica,sans-Serif" font-size="10.00">_impl&lt; Offset, Packet2d</text>
<text text-anchor="middle" x="478" y="-907" font-family="Helvetica,sans-Serif" font-size="10.00"> &gt;::run</text>
</a>
</g>
</g>
<!-- Node3248&#45;&gt;Node3256 -->
<g id="edge37" class="edge"><title>Node3248&#45;&gt;Node3256</title>
<path fill="none" stroke="midnightblue" d="M67.6228,-654.411C76.9048,-694.03 103.296,-782.85 161,-828.5 227.282,-880.936 266.567,-843.633 346,-872.5 362.813,-878.61 365.419,-883.786 382,-890.5 391.699,-894.428 402.119,-898.174 412.379,-901.606"/>
<polygon fill="midnightblue" stroke="midnightblue" points="70.987,-653.415 65.4034,-644.411 64.1532,-654.931 70.987,-653.415"/>
</g>
<!-- Node3257 -->
<g id="node10" class="node"><title>Node3257</title>
<g id="a_node10"><a xlink:href="namespaceEigen_1_1internal.html#a993556e0ac60c0f7f7d08d574f41b8a0" target="_top" xlink:title="Eigen::internal::pdiv\l\&lt; Packet8d \&gt;">
<polygon fill="none" stroke="black" points="198.5,-717.5 198.5,-747.5 308.5,-747.5 308.5,-717.5 198.5,-717.5"/>
<text text-anchor="start" x="206.5" y="-735.5" font-family="Helvetica,sans-Serif" font-size="10.00">Eigen::internal::pdiv</text>
<text text-anchor="middle" x="253.5" y="-724.5" font-family="Helvetica,sans-Serif" font-size="10.00">&lt; Packet8d &gt;</text>
</a>
</g>
</g>
<!-- Node3248&#45;&gt;Node3257 -->
<g id="edge10" class="edge"><title>Node3248&#45;&gt;Node3257</title>
<path fill="none" stroke="midnightblue" d="M80.7542,-651.005C99.2142,-667.797 130.04,-693.435 161,-708.5 172.666,-714.177 185.846,-718.635 198.494,-722.087"/>
<polygon fill="midnightblue" stroke="midnightblue" points="83.1229,-648.428 73.4109,-644.194 78.3625,-653.56 83.1229,-648.428"/>
</g>
<!-- Node3258 -->
<g id="node11" class="node"><title>Node3258</title>
<g id="a_node11"><a xlink:href="namespaceEigen_1_1internal.html#a6906c3e9018564d1d537e7b523eada6f" target="_top" xlink:title="Eigen::internal::pdiv\l\&lt; Packet8i \&gt;">
<polygon fill="none" stroke="black" points="198.5,-668.5 198.5,-698.5 308.5,-698.5 308.5,-668.5 198.5,-668.5"/>
<text text-anchor="start" x="206.5" y="-686.5" font-family="Helvetica,sans-Serif" font-size="10.00">Eigen::internal::pdiv</text>
<text text-anchor="middle" x="253.5" y="-675.5" font-family="Helvetica,sans-Serif" font-size="10.00">&lt; Packet8i &gt;</text>
</a>
</g>
</g>
<!-- Node3248&#45;&gt;Node3258 -->
<g id="edge11" class="edge"><title>Node3248&#45;&gt;Node3258</title>
<path fill="none" stroke="midnightblue" d="M110.234,-646.616C136.865,-653.521 170.363,-662.205 198.163,-669.413"/>
<polygon fill="midnightblue" stroke="midnightblue" points="110.948,-643.186 100.39,-644.064 109.191,-649.962 110.948,-643.186"/>
</g>
<!-- Node3259 -->
<g id="node12" class="node"><title>Node3259</title>
<g id="a_node12"><a xlink:href="namespaceEigen_1_1internal.html#ae5458479b96b74a336076e12227c4f81" target="_top" xlink:title="Eigen::internal::pexp\l\&lt; Packet2d \&gt;">
<polygon fill="none" stroke="black" points="196.5,-619.5 196.5,-649.5 310.5,-649.5 310.5,-619.5 196.5,-619.5"/>
<text text-anchor="start" x="204.5" y="-637.5" font-family="Helvetica,sans-Serif" font-size="10.00">Eigen::internal::pexp</text>
<text text-anchor="middle" x="253.5" y="-626.5" font-family="Helvetica,sans-Serif" font-size="10.00">&lt; Packet2d &gt;</text>
</a>
</g>
</g>
<!-- Node3248&#45;&gt;Node3259 -->
<g id="edge12" class="edge"><title>Node3248&#45;&gt;Node3259</title>
<path fill="none" stroke="midnightblue" d="M135.239,-634.5C155.483,-634.5 177.209,-634.5 196.392,-634.5"/>
<polygon fill="midnightblue" stroke="midnightblue" points="135.124,-631 125.124,-634.5 135.124,-638 135.124,-631"/>
</g>
<!-- Node3260 -->
<g id="node13" class="node"><title>Node3260</title>
<g id="a_node13"><a xlink:href="namespaceEigen_1_1internal.html#a98b3641bf0b5b095f1879b167959c505" target="_top" xlink:title="Eigen::internal::prsqrt\l\&lt; Packet4f \&gt;">
<polygon fill="none" stroke="black" points="418.5,-352.5 418.5,-382.5 537.5,-382.5 537.5,-352.5 418.5,-352.5"/>
<text text-anchor="start" x="426.5" y="-370.5" font-family="Helvetica,sans-Serif" font-size="10.00">Eigen::internal::prsqrt</text>
<text text-anchor="middle" x="478" y="-359.5" font-family="Helvetica,sans-Serif" font-size="10.00">&lt; Packet4f &gt;</text>
</a>
</g>
</g>
<!-- Node3248&#45;&gt;Node3260 -->
<g id="edge23" class="edge"><title>Node3248&#45;&gt;Node3260</title>
<path fill="none" stroke="midnightblue" d="M111.043,-622.458C126.904,-618.531 144.689,-614.226 161,-610.5 242.92,-591.788 286.859,-631.193 346,-571.5 403.113,-513.853 326.332,-451.544 382,-392.5 391.593,-382.325 404.788,-376.103 418.293,-372.346"/>
<polygon fill="midnightblue" stroke="midnightblue" points="109.791,-619.163 100.933,-624.974 111.482,-625.955 109.791,-619.163"/>
</g>
<!-- Node3262 -->
<g id="node15" class="node"><title>Node3262</title>
<g id="a_node15"><a xlink:href="namespaceEigen_1_1internal.html#aa287cf9beefe00a71e537d61ca5e374d" target="_top" xlink:title="Eigen::internal::pexp\l\&lt; Packet4d \&gt;">
<polygon fill="none" stroke="black" points="196.5,-531.5 196.5,-561.5 310.5,-561.5 310.5,-531.5 196.5,-531.5"/>
<text text-anchor="start" x="204.5" y="-549.5" font-family="Helvetica,sans-Serif" font-size="10.00">Eigen::internal::pexp</text>
<text text-anchor="middle" x="253.5" y="-538.5" font-family="Helvetica,sans-Serif" font-size="10.00">&lt; Packet4d &gt;</text>
</a>
</g>
</g>
<!-- Node3248&#45;&gt;Node3262 -->
<g id="edge16" class="edge"><title>Node3248&#45;&gt;Node3262</title>
<path fill="none" stroke="midnightblue" d="M85.8913,-619.246C105.173,-606.589 134.068,-588.745 161,-576.5 173.327,-570.895 187.013,-565.834 199.965,-561.533"/>
<polygon fill="midnightblue" stroke="midnightblue" points="83.8886,-616.374 77.4995,-624.826 87.7646,-622.203 83.8886,-616.374"/>
</g>
<!-- Node3263 -->
<g id="node16" class="node"><title>Node3263</title>
<g id="a_node16"><a xlink:href="namespaceEigen_1_1internal.html#ae50022746c5ddd3c92ba6eae17b22b0c" target="_top" xlink:title="Eigen::internal::pexp\l\&lt; Packet4f \&gt;">
<polygon fill="none" stroke="black" points="196.5,-482.5 196.5,-512.5 310.5,-512.5 310.5,-482.5 196.5,-482.5"/>
<text text-anchor="start" x="204.5" y="-500.5" font-family="Helvetica,sans-Serif" font-size="10.00">Eigen::internal::pexp</text>
<text text-anchor="middle" x="253.5" y="-489.5" font-family="Helvetica,sans-Serif" font-size="10.00">&lt; Packet4f &gt;</text>
</a>
</g>
</g>
<!-- Node3248&#45;&gt;Node3263 -->
<g id="edge17" class="edge"><title>Node3248&#45;&gt;Node3263</title>
<path fill="none" stroke="midnightblue" d="M74.4906,-616.162C90.4154,-591.187 122.279,-546.809 161,-522.5 171.6,-515.846 183.97,-510.939 196.126,-507.329"/>
<polygon fill="midnightblue" stroke="midnightblue" points="71.4896,-614.361 69.1867,-624.702 77.436,-618.054 71.4896,-614.361"/>
</g>
<!-- Node3264 -->
<g id="node17" class="node"><title>Node3264</title>
<g id="a_node17"><a xlink:href="namespaceEigen_1_1internal.html#a68c30f158b76175b68094310be8c9a7d" target="_top" xlink:title="Eigen::internal::pinsertlast">
<polygon fill="none" stroke="black" points="183,-444 183,-463 324,-463 324,-444 183,-444"/>
<text text-anchor="middle" x="253.5" y="-451" font-family="Helvetica,sans-Serif" font-size="10.00">Eigen::internal::pinsertlast</text>
</a>
</g>
</g>
<!-- Node3248&#45;&gt;Node3264 -->
<g id="edge18" class="edge"><title>Node3248&#45;&gt;Node3264</title>
<path fill="none" stroke="midnightblue" d="M69.6238,-614.839C81.4079,-580.425 110.63,-509.515 161,-473.5 167.614,-468.771 175.134,-465.127 182.955,-462.323"/>
<polygon fill="midnightblue" stroke="midnightblue" points="66.2002,-614.046 66.4058,-624.639 72.8509,-616.23 66.2002,-614.046"/>
</g>
<!-- Node3265 -->
<g id="node18" class="node"><title>Node3265</title>
<g id="a_node18"><a xlink:href="namespaceEigen_1_1internal.html#adbf8c141f9a7f80e7c6800ffd1b459f9" target="_top" xlink:title="Eigen::internal::plog\l\&lt; Packet4f \&gt;">
<polygon fill="none" stroke="black" points="198,-394.5 198,-424.5 309,-424.5 309,-394.5 198,-394.5"/>
<text text-anchor="start" x="206" y="-412.5" font-family="Helvetica,sans-Serif" font-size="10.00">Eigen::internal::plog</text>
<text text-anchor="middle" x="253.5" y="-401.5" font-family="Helvetica,sans-Serif" font-size="10.00">&lt; Packet4f &gt;</text>
</a>
</g>
</g>
<!-- Node3248&#45;&gt;Node3265 -->
<g id="edge19" class="edge"><title>Node3248&#45;&gt;Node3265</title>
<path fill="none" stroke="midnightblue" d="M67.3774,-614.973C76.3805,-574.87 102.546,-482.937 161,-434.5 171.398,-425.884 184.522,-420.223 197.56,-416.507"/>
<polygon fill="midnightblue" stroke="midnightblue" points="63.9379,-614.321 65.2807,-624.831 70.7847,-615.778 63.9379,-614.321"/>
</g>
<!-- Node3266 -->
<g id="node19" class="node"><title>Node3266</title>
<g id="a_node19"><a xlink:href="namespaceEigen_1_1internal.html#adb3213470976ff627f38a34e3bde917b" target="_top" xlink:title="Eigen::internal::plset\l\&lt; Packet4i \&gt;">
<polygon fill="none" stroke="black" points="196.5,-345.5 196.5,-375.5 310.5,-375.5 310.5,-345.5 196.5,-345.5"/>
<text text-anchor="start" x="204.5" y="-363.5" font-family="Helvetica,sans-Serif" font-size="10.00">Eigen::internal::plset</text>
<text text-anchor="middle" x="253.5" y="-352.5" font-family="Helvetica,sans-Serif" font-size="10.00">&lt; Packet4i &gt;</text>
</a>
</g>
</g>
<!-- Node3248&#45;&gt;Node3266 -->
<g id="edge20" class="edge"><title>Node3248&#45;&gt;Node3266</title>
<path fill="none" stroke="midnightblue" d="M65.3114,-614.85C70.7134,-567.897 90.9836,-448.43 161,-385.5 170.798,-376.693 183.408,-370.95 196.115,-367.214"/>
<polygon fill="midnightblue" stroke="midnightblue" points="61.8182,-614.602 64.2588,-624.912 68.7802,-615.331 61.8182,-614.602"/>
</g>
<!-- Node3267 -->
<g id="node20" class="node"><title>Node3267</title>
<g id="a_node20"><a xlink:href="structEigen_1_1internal_1_1conj__helper_3_01Scalar_00_01Scalar_00_01false_00_01false_01_4.html#a749c17e88cf10d2475791f45277cc803" target="_top" xlink:title="Eigen::internal::conj\l_helper\&lt; Scalar, Scalar,\l false, false \&gt;::pmadd">
<polygon fill="none" stroke="black" points="187.5,-285 187.5,-326 319.5,-326 319.5,-285 187.5,-285"/>
<text text-anchor="start" x="195.5" y="-314" font-family="Helvetica,sans-Serif" font-size="10.00">Eigen::internal::conj</text>
<text text-anchor="start" x="195.5" y="-303" font-family="Helvetica,sans-Serif" font-size="10.00">_helper&lt; Scalar, Scalar,</text>
<text text-anchor="middle" x="253.5" y="-292" font-family="Helvetica,sans-Serif" font-size="10.00"> false, false &gt;::pmadd</text>
</a>
</g>
</g>
<!-- Node3248&#45;&gt;Node3267 -->
<g id="edge21" class="edge"><title>Node3248&#45;&gt;Node3267</title>
<path fill="none" stroke="midnightblue" d="M64.1258,-614.95C66.8693,-562.407 81.6298,-416.705 161,-336.5 168.315,-329.109 177.453,-323.479 187.103,-319.192"/>
<polygon fill="midnightblue" stroke="midnightblue" points="60.6288,-614.808 63.6952,-624.949 67.6223,-615.109 60.6288,-614.808"/>
</g>
<!-- Node3268 -->
<g id="node21" class="node"><title>Node3268</title>
<g id="a_node21"><a xlink:href="structEigen_1_1internal_1_1conj__helper_3_01Packet2cf_00_01Packet2cf_00_01true_00_01true_01_4.html#a6956a6a7b0de2fd58bd9a8ab2e3c25ae" target="_top" xlink:title="Eigen::internal::conj\l_helper\&lt; Packet2cf, Packet2cf,\l true, true \&gt;::pmul">
<polygon fill="none" stroke="black" points="396,-840 396,-881 560,-881 560,-840 396,-840"/>
<text text-anchor="start" x="404" y="-869" font-family="Helvetica,sans-Serif" font-size="10.00">Eigen::internal::conj</text>
<text text-anchor="start" x="404" y="-858" font-family="Helvetica,sans-Serif" font-size="10.00">_helper&lt; Packet2cf, Packet2cf,</text>
<text text-anchor="middle" x="478" y="-847" font-family="Helvetica,sans-Serif" font-size="10.00"> true, true &gt;::pmul</text>
</a>
</g>
</g>
<!-- Node3248&#45;&gt;Node3268 -->
<g id="edge22" class="edge"><title>Node3248&#45;&gt;Node3268</title>
<path fill="none" stroke="midnightblue" d="M69.579,-654.224C81.2931,-688.736 110.409,-759.796 161,-795.5 170.667,-802.322 305.285,-828.465 395.667,-845.445"/>
<polygon fill="midnightblue" stroke="midnightblue" points="72.8034,-652.821 66.3821,-644.394 66.1466,-654.986 72.8034,-652.821"/>
</g>
<!-- Node3269 -->
<g id="node22" class="node"><title>Node3269</title>
<g id="a_node22"><a xlink:href="namespaceEigen_1_1internal.html#a375fca01f8ae80efcba6793f990c7917" target="_top" xlink:title="Eigen::internal::ptranspose">
<polygon fill="none" stroke="black" points="181,-767 181,-786 326,-786 326,-767 181,-767"/>
<text text-anchor="middle" x="253.5" y="-774" font-family="Helvetica,sans-Serif" font-size="10.00">Eigen::internal::ptranspose</text>
</a>
</g>
</g>
<!-- Node3248&#45;&gt;Node3269 -->
<g id="edge24" class="edge"><title>Node3248&#45;&gt;Node3269</title>
<path fill="none" stroke="midnightblue" d="M72.7251,-653.006C87.425,-680.457 118.861,-731.511 161,-757.5 167.214,-761.332 174.071,-764.405 181.152,-766.866"/>
<polygon fill="midnightblue" stroke="midnightblue" points="75.7906,-651.315 68.0777,-644.051 69.5774,-654.539 75.7906,-651.315"/>
</g>
<!-- Node3279 -->
<g id="node32" class="node"><title>Node3279</title>
<g id="a_node32"><a xlink:href="structEigen_1_1internal_1_1etor__product__packet__impl_3_01RowMajor_00_01UnrollingIndex_00_01Lhs32cc317b1e0e9479bae14a91a403ddfd.html#ac5a3f6666366c7d2a9c947c5bb3e93a5" target="_top" xlink:title="Eigen::internal::etor\l_product_packet_impl\l\&lt; RowMajor, UnrollingIndex,\l Lhs, Rhs, Packet, LoadMode \&gt;::run">
<polygon fill="none" stroke="black" points="161,-213.5 161,-265.5 346,-265.5 346,-213.5 161,-213.5"/>
<text text-anchor="start" x="169" y="-253.5" font-family="Helvetica,sans-Serif" font-size="10.00">Eigen::internal::etor</text>
<text text-anchor="start" x="169" y="-242.5" font-family="Helvetica,sans-Serif" font-size="10.00">_product_packet_impl</text>
<text text-anchor="start" x="169" y="-231.5" font-family="Helvetica,sans-Serif" font-size="10.00">&lt; RowMajor, UnrollingIndex,</text>
<text text-anchor="middle" x="253.5" y="-220.5" font-family="Helvetica,sans-Serif" font-size="10.00"> Lhs, Rhs, Packet, LoadMode &gt;::run</text>
</a>
</g>
</g>
<!-- Node3248&#45;&gt;Node3279 -->
<g id="edge38" class="edge"><title>Node3248&#45;&gt;Node3279</title>
<path fill="none" stroke="midnightblue" d="M63.0493,-614.477C62.8,-554.958 70.0928,-376.965 161,-275.5 164.303,-271.813 168.033,-268.499 172.049,-265.522"/>
<polygon fill="midnightblue" stroke="midnightblue" points="59.5528,-614.788 63.1772,-624.743 66.5522,-614.7 59.5528,-614.788"/>
</g>
<!-- Node3280 -->
<g id="node33" class="node"><title>Node3280</title>
<g id="a_node33"><a xlink:href="structEigen_1_1internal_1_1etor__product__packet__impl_3_01ColMajor_00_01UnrollingIndex_00_01Lhsa3416a1b50d5bded0d967269d49f0642.html#a7972565ab3f7dc58aedc2f19e1e60f87" target="_top" xlink:title="Eigen::internal::etor\l_product_packet_impl\l\&lt; ColMajor, UnrollingIndex,\l Lhs, Rhs, Packet, LoadMode \&gt;::run">
<polygon fill="none" stroke="black" points="161,-142.5 161,-194.5 346,-194.5 346,-142.5 161,-142.5"/>
<text text-anchor="start" x="169" y="-182.5" font-family="Helvetica,sans-Serif" font-size="10.00">Eigen::internal::etor</text>
<text text-anchor="start" x="169" y="-171.5" font-family="Helvetica,sans-Serif" font-size="10.00">_product_packet_impl</text>
<text text-anchor="start" x="169" y="-160.5" font-family="Helvetica,sans-Serif" font-size="10.00">&lt; ColMajor, UnrollingIndex,</text>
<text text-anchor="middle" x="253.5" y="-149.5" font-family="Helvetica,sans-Serif" font-size="10.00"> Lhs, Rhs, Packet, LoadMode &gt;::run</text>
</a>
</g>
</g>
<!-- Node3248&#45;&gt;Node3280 -->
<g id="edge39" class="edge"><title>Node3248&#45;&gt;Node3280</title>
<path fill="none" stroke="midnightblue" d="M65.5188,-614.884C73.6494,-539.344 106.218,-268.304 161,-204.5 164.114,-200.874 167.641,-197.61 171.454,-194.672"/>
<polygon fill="midnightblue" stroke="midnightblue" points="62.0288,-614.606 64.4601,-624.918 68.9902,-615.34 62.0288,-614.606"/>
</g>
<!-- Node3281 -->
<g id="node34" class="node"><title>Node3281</title>
<g id="a_node34"><a xlink:href="structEigen_1_1internal_1_1etor__product__packet__impl_3_01RowMajor_00_01Dynamic_00_01Lhs_00_01Rbacb86d3458fc927cbfdbfd1fca5d105.html#aaa718357e8131925569cc9cd0363ef63" target="_top" xlink:title="Eigen::internal::etor\l_product_packet_impl\l\&lt; RowMajor, Dynamic, Lhs,\l Rhs, Packet, LoadMode \&gt;::run">
<polygon fill="none" stroke="black" points="172,-71.5 172,-123.5 335,-123.5 335,-71.5 172,-71.5"/>
<text text-anchor="start" x="180" y="-111.5" font-family="Helvetica,sans-Serif" font-size="10.00">Eigen::internal::etor</text>
<text text-anchor="start" x="180" y="-100.5" font-family="Helvetica,sans-Serif" font-size="10.00">_product_packet_impl</text>
<text text-anchor="start" x="180" y="-89.5" font-family="Helvetica,sans-Serif" font-size="10.00">&lt; RowMajor, Dynamic, Lhs,</text>
<text text-anchor="middle" x="253.5" y="-78.5" font-family="Helvetica,sans-Serif" font-size="10.00"> Rhs, Packet, LoadMode &gt;::run</text>
</a>
</g>
</g>
<!-- Node3248&#45;&gt;Node3281 -->
<g id="edge40" class="edge"><title>Node3248&#45;&gt;Node3281</title>
<path fill="none" stroke="midnightblue" d="M64.8057,-614.883C70.7139,-531.604 97.464,-208.14 161,-132.5 164.172,-128.723 167.8,-125.353 171.74,-122.346"/>
<polygon fill="midnightblue" stroke="midnightblue" points="61.3051,-614.773 64.1087,-624.99 68.2885,-615.254 61.3051,-614.773"/>
</g>
<!-- Node3282 -->
<g id="node35" class="node"><title>Node3282</title>
<g id="a_node35"><a xlink:href="structEigen_1_1internal_1_1etor__product__packet__impl_3_01ColMajor_00_01Dynamic_00_01Lhs_00_01Rf721f6e5e83f71b7a32008b669f00304.html#ae9cb59070b643196c487aa384b2132d5" target="_top" xlink:title="Eigen::internal::etor\l_product_packet_impl\l\&lt; ColMajor, Dynamic, Lhs,\l Rhs, Packet, LoadMode \&gt;::run">
<polygon fill="none" stroke="black" points="172,-0.5 172,-52.5 335,-52.5 335,-0.5 172,-0.5"/>
<text text-anchor="start" x="180" y="-40.5" font-family="Helvetica,sans-Serif" font-size="10.00">Eigen::internal::etor</text>
<text text-anchor="start" x="180" y="-29.5" font-family="Helvetica,sans-Serif" font-size="10.00">_product_packet_impl</text>
<text text-anchor="start" x="180" y="-18.5" font-family="Helvetica,sans-Serif" font-size="10.00">&lt; ColMajor, Dynamic, Lhs,</text>
<text text-anchor="middle" x="253.5" y="-7.5" font-family="Helvetica,sans-Serif" font-size="10.00"> Rhs, Packet, LoadMode &gt;::run</text>
</a>
</g>
</g>
<!-- Node3248&#45;&gt;Node3282 -->
<g id="edge41" class="edge"><title>Node3248&#45;&gt;Node3282</title>
<path fill="none" stroke="midnightblue" d="M64.2941,-614.771C68.3107,-524.226 89.1128,-149.135 161,-61.5 164.128,-57.6866 167.722,-54.288 171.635,-51.2592"/>
<polygon fill="midnightblue" stroke="midnightblue" points="60.7877,-614.85 63.8598,-624.99 67.7814,-615.147 60.7877,-614.85"/>
</g>
<!-- Node3250 -->
<g id="node3" class="node"><title>Node3250</title>
<g id="a_node3"><a xlink:href="structEigen_1_1internal_1_1gebp__kernel.html#afd8f51fe544ebb1106bbae9698f8a1de" target="_top" xlink:title="Eigen::internal::gebp\l_kernel::operator()">
<polygon fill="none" stroke="black" points="420.5,-1194.5 420.5,-1224.5 535.5,-1224.5 535.5,-1194.5 420.5,-1194.5"/>
<text text-anchor="start" x="428.5" y="-1212.5" font-family="Helvetica,sans-Serif" font-size="10.00">Eigen::internal::gebp</text>
<text text-anchor="middle" x="478" y="-1201.5" font-family="Helvetica,sans-Serif" font-size="10.00">_kernel::operator()</text>
</a>
</g>
</g>
<!-- Node3249&#45;&gt;Node3250 -->
<g id="edge2" class="edge"><title>Node3249&#45;&gt;Node3250</title>
<path fill="none" stroke="midnightblue" d="M321.263,-1209.5C352.861,-1209.5 390.192,-1209.5 420.382,-1209.5"/>
<polygon fill="midnightblue" stroke="midnightblue" points="321.222,-1206 311.222,-1209.5 321.222,-1213 321.222,-1206"/>
</g>
<!-- Node3255&#45;&gt;Node3254 -->
<g id="edge8" class="edge"><title>Node3255&#45;&gt;Node3254</title>
<path fill="none" stroke="midnightblue" d="M318.144,-914.883C327.65,-918.337 337.204,-922.225 346,-926.5 363.295,-934.906 364.234,-943.141 382,-950.5 392.8,-954.973 404.738,-958.418 416.399,-961.063"/>
<polygon fill="midnightblue" stroke="midnightblue" points="319.278,-911.572 308.683,-911.575 316.968,-918.179 319.278,-911.572"/>
</g>
<!-- Node3255&#45;&gt;Node3256 -->
<g id="edge9" class="edge"><title>Node3255&#45;&gt;Node3256</title>
<path fill="none" stroke="midnightblue" d="M318.793,-903.435C348.164,-906.603 382.882,-910.348 412.301,-913.521"/>
<polygon fill="midnightblue" stroke="midnightblue" points="318.963,-899.933 308.645,-902.34 318.212,-906.893 318.963,-899.933"/>
</g>
<!-- Node3259&#45;&gt;Node3260 -->
<g id="edge13" class="edge"><title>Node3259&#45;&gt;Node3260</title>
<path fill="none" stroke="midnightblue" d="M320.429,-622.642C330.123,-618.33 339.137,-612.467 346,-604.5 408.375,-532.09 317.498,-463.022 382,-392.5 391.438,-382.181 404.577,-375.907 418.078,-372.146"/>
<polygon fill="midnightblue" stroke="midnightblue" points="319.026,-619.432 310.975,-626.319 321.564,-625.956 319.026,-619.432"/>
</g>
<!-- Node3261 -->
<g id="node14" class="node"><title>Node3261</title>
<g id="a_node14"><a xlink:href="namespaceEigen_1_1internal.html#af266de4f31500421cd72cb689d58949c" target="_top" xlink:title="Eigen::internal::psqrt\l\&lt; Packet2d \&gt;">
<polygon fill="none" stroke="black" points="610,-352.5 610,-382.5 726,-382.5 726,-352.5 610,-352.5"/>
<text text-anchor="start" x="618" y="-370.5" font-family="Helvetica,sans-Serif" font-size="10.00">Eigen::internal::psqrt</text>
<text text-anchor="middle" x="668" y="-359.5" font-family="Helvetica,sans-Serif" font-size="10.00">&lt; Packet2d &gt;</text>
</a>
</g>
</g>
<!-- Node3260&#45;&gt;Node3261 -->
<g id="edge14" class="edge"><title>Node3260&#45;&gt;Node3261</title>
<path fill="none" stroke="midnightblue" d="M547.847,-360.97C568.17,-360.607 590.186,-360.694 609.7,-361.23"/>
<polygon fill="midnightblue" stroke="midnightblue" points="547.632,-357.473 537.711,-361.192 547.785,-364.472 547.632,-357.473"/>
</g>
<!-- Node3261&#45;&gt;Node3260 -->
<g id="edge15" class="edge"><title>Node3261&#45;&gt;Node3260</title>
<path fill="none" stroke="midnightblue" d="M599.615,-374.004C579.376,-374.388 557.342,-374.323 537.711,-373.808"/>
<polygon fill="midnightblue" stroke="midnightblue" points="599.783,-377.501 609.7,-373.77 599.621,-370.503 599.783,-377.501"/>
</g>
<!-- Node3269&#45;&gt;Node3254 -->
<g id="edge29" class="edge"><title>Node3269&#45;&gt;Node3254</title>
<path fill="none" stroke="midnightblue" d="M273.426,-792.856C293.395,-810.85 324.843,-841.369 346,-872.5 367.461,-904.079 352.023,-926.853 382,-950.5 391.772,-958.209 403.833,-963.048 416.042,-966.033"/>
<polygon fill="midnightblue" stroke="midnightblue" points="275.686,-790.182 265.883,-786.163 271.04,-795.418 275.686,-790.182"/>
</g>
<!-- Node3269&#45;&gt;Node3256 -->
<g id="edge30" class="edge"><title>Node3269&#45;&gt;Node3256</title>
<path fill="none" stroke="midnightblue" d="M281.69,-791.285C300.991,-802.604 326.781,-819.473 346,-838.5 365.975,-858.276 359.38,-873.814 382,-890.5 391.047,-897.174 401.624,-902.393 412.372,-906.465"/>
<polygon fill="midnightblue" stroke="midnightblue" points="283.21,-788.122 272.793,-786.188 279.731,-794.196 283.21,-788.122"/>
</g>
<!-- Node3269&#45;&gt;Node3268 -->
<g id="edge25" class="edge"><title>Node3269&#45;&gt;Node3268</title>
<path fill="none" stroke="midnightblue" d="M316.469,-788.792C326.623,-791.916 336.817,-795.77 346,-800.5 364.516,-810.037 363.725,-820.509 382,-830.5 388.374,-833.985 395.213,-837.133 402.194,-839.963"/>
<polygon fill="midnightblue" stroke="midnightblue" points="317.357,-785.406 306.78,-786.016 315.429,-792.135 317.357,-785.406"/>
</g>
<!-- Node3270 -->
<g id="node23" class="node"><title>Node3270</title>
<g id="a_node23"><a xlink:href="namespaceEigen_1_1internal.html#a79e630f9d4aa81b60904b7085c99c473" target="_top" xlink:title="Eigen::internal::pcplxflip">
<polygon fill="none" stroke="black" points="413.5,-402 413.5,-421 542.5,-421 542.5,-402 413.5,-402"/>
<text text-anchor="middle" x="478" y="-409" font-family="Helvetica,sans-Serif" font-size="10.00">Eigen::internal::pcplxflip</text>
</a>
</g>
</g>
<!-- Node3269&#45;&gt;Node3270 -->
<g id="edge26" class="edge"><title>Node3269&#45;&gt;Node3270</title>
<path fill="none" stroke="midnightblue" d="M335.316,-766.364C339.236,-763.899 342.845,-760.97 346,-757.5 444.357,-649.316 283.247,-538.322 382,-430.5 390.293,-421.445 401.581,-416.01 413.482,-412.866"/>
<polygon fill="midnightblue" stroke="midnightblue" points="333.553,-763.336 326.291,-771.051 336.779,-769.548 333.553,-763.336"/>
</g>
<!-- Node3271 -->
<g id="node24" class="node"><title>Node3271</title>
<g id="a_node24"><a xlink:href="namespaceEigen_1_1internal.html#afc41c0196b601e87b2123adfee80c65f" target="_top" xlink:title="Eigen::internal::pscatter\l\&lt; std::complex\&lt; double\l \&gt;, Packet1cd \&gt;">
<polygon fill="none" stroke="black" points="411.5,-780 411.5,-821 544.5,-821 544.5,-780 411.5,-780"/>
<text text-anchor="start" x="419.5" y="-809" font-family="Helvetica,sans-Serif" font-size="10.00">Eigen::internal::pscatter</text>
<text text-anchor="start" x="419.5" y="-798" font-family="Helvetica,sans-Serif" font-size="10.00">&lt; std::complex&lt; double</text>
<text text-anchor="middle" x="478" y="-787" font-family="Helvetica,sans-Serif" font-size="10.00"> &gt;, Packet1cd &gt;</text>
</a>
</g>
</g>
<!-- Node3269&#45;&gt;Node3271 -->
<g id="edge27" class="edge"><title>Node3269&#45;&gt;Node3271</title>
<path fill="none" stroke="midnightblue" d="M336.195,-785.312C360.879,-787.975 387.657,-790.863 411.167,-793.399"/>
<polygon fill="midnightblue" stroke="midnightblue" points="336.443,-781.819 326.125,-784.226 335.692,-788.778 336.443,-781.819"/>
</g>
<!-- Node3272 -->
<g id="node25" class="node"><title>Node3272</title>
<g id="a_node25"><a xlink:href="namespaceEigen_1_1internal.html#a03c68a7844a6c488608dd1fdb91cedfb" target="_top" xlink:title="Eigen::internal::ptranspose">
<polygon fill="none" stroke="black" points="405.5,-742 405.5,-761 550.5,-761 550.5,-742 405.5,-742"/>
<text text-anchor="middle" x="478" y="-749" font-family="Helvetica,sans-Serif" font-size="10.00">Eigen::internal::ptranspose</text>
</a>
</g>
</g>
<!-- Node3269&#45;&gt;Node3272 -->
<g id="edge28" class="edge"><title>Node3269&#45;&gt;Node3272</title>
<path fill="none" stroke="midnightblue" d="M336.349,-767.303C358.9,-764.77 383.187,-762.041 405.128,-759.576"/>
<polygon fill="midnightblue" stroke="midnightblue" points="335.672,-763.857 326.125,-768.452 336.453,-770.814 335.672,-763.857"/>
</g>
<!-- Node3273 -->
<g id="node26" class="node"><title>Node3273</title>
<g id="a_node26"><a xlink:href="namespaceEigen_1_1internal.html#a2636173af6863de34e156dfbf6ed6301" target="_top" xlink:title="Eigen::internal::pabs\l\&lt; Packet4f \&gt;">
<polygon fill="none" stroke="black" points="421,-692.5 421,-722.5 535,-722.5 535,-692.5 421,-692.5"/>
<text text-anchor="start" x="429" y="-710.5" font-family="Helvetica,sans-Serif" font-size="10.00">Eigen::internal::pabs</text>
<text text-anchor="middle" x="478" y="-699.5" font-family="Helvetica,sans-Serif" font-size="10.00">&lt; Packet4f &gt;</text>
</a>
</g>
</g>
<!-- Node3269&#45;&gt;Node3273 -->
<g id="edge31" class="edge"><title>Node3269&#45;&gt;Node3273</title>
<path fill="none" stroke="midnightblue" d="M327.564,-764.128C333.902,-762.218 340.131,-760.022 346,-757.5 363.897,-749.809 364.311,-740.659 382,-732.5 394.08,-726.928 407.617,-722.431 420.604,-718.871"/>
<polygon fill="midnightblue" stroke="midnightblue" points="326.253,-760.859 317.549,-766.901 328.121,-767.606 326.253,-760.859"/>
</g>
<!-- Node3274 -->
<g id="node27" class="node"><title>Node3274</title>
<g id="a_node27"><a xlink:href="structEigen_1_1internal_1_1gemm__pack__lhs_3_01Scalar_00_01Index_00_01DataMapper_00_01Pack1_00_02096896f571e4dfaad2de53af9b13499.html#af0f474d4d31213df020ad25af0c482d3" target="_top" xlink:title="Eigen::internal::gemm\l_pack_lhs\&lt; Scalar, Index,\l DataMapper, Pack1, Pack2,\l RowMajor, Conjugate, PanelMode\l \&gt;::operator()">
<polygon fill="none" stroke="black" points="390,-610 390,-673 566,-673 566,-610 390,-610"/>
<text text-anchor="start" x="398" y="-661" font-family="Helvetica,sans-Serif" font-size="10.00">Eigen::internal::gemm</text>
<text text-anchor="start" x="398" y="-650" font-family="Helvetica,sans-Serif" font-size="10.00">_pack_lhs&lt; Scalar, Index,</text>
<text text-anchor="start" x="398" y="-639" font-family="Helvetica,sans-Serif" font-size="10.00"> DataMapper, Pack1, Pack2,</text>
<text text-anchor="start" x="398" y="-628" font-family="Helvetica,sans-Serif" font-size="10.00"> RowMajor, Conjugate, PanelMode</text>
<text text-anchor="middle" x="478" y="-617" font-family="Helvetica,sans-Serif" font-size="10.00"> &gt;::operator()</text>
</a>
</g>
</g>
<!-- Node3269&#45;&gt;Node3274 -->
<g id="edge32" class="edge"><title>Node3269&#45;&gt;Node3274</title>
<path fill="none" stroke="midnightblue" d="M335.666,-764.129C339.308,-762.204 342.779,-760.007 346,-757.5 374.862,-735.036 355.67,-708.886 382,-683.5 385.895,-679.745 390.181,-676.293 394.714,-673.126"/>
<polygon fill="midnightblue" stroke="midnightblue" points="333.97,-761.055 326.309,-768.374 336.862,-767.43 333.97,-761.055"/>
</g>
<!-- Node3275 -->
<g id="node28" class="node"><title>Node3275</title>
<g id="a_node28"><a xlink:href="structEigen_1_1internal_1_1gemm__pack__rhs_3_01Scalar_00_01Index_00_01DataMapper_00_01nr_00_01Coa362601eadb4c84345b37afcaba09a6d.html#adecc1d0ef7d3a37b141ab64bd56feaf0" target="_top" xlink:title="Eigen::internal::gemm\l_pack_rhs\&lt; Scalar, Index,\l DataMapper, nr, ColMajor,\l Conjugate, PanelMode \&gt;::operator()">
<polygon fill="none" stroke="black" points="382,-538.5 382,-590.5 574,-590.5 574,-538.5 382,-538.5"/>
<text text-anchor="start" x="390" y="-578.5" font-family="Helvetica,sans-Serif" font-size="10.00">Eigen::internal::gemm</text>
<text text-anchor="start" x="390" y="-567.5" font-family="Helvetica,sans-Serif" font-size="10.00">_pack_rhs&lt; Scalar, Index,</text>
<text text-anchor="start" x="390" y="-556.5" font-family="Helvetica,sans-Serif" font-size="10.00"> DataMapper, nr, ColMajor,</text>
<text text-anchor="middle" x="478" y="-545.5" font-family="Helvetica,sans-Serif" font-size="10.00"> Conjugate, PanelMode &gt;::operator()</text>
</a>
</g>
</g>
<!-- Node3269&#45;&gt;Node3275 -->
<g id="edge33" class="edge"><title>Node3269&#45;&gt;Node3275</title>
<path fill="none" stroke="midnightblue" d="M335.096,-765.778C339.04,-763.453 342.717,-760.716 346,-757.5 397.141,-707.405 334.958,-654.463 382,-600.5 385.129,-596.91 388.655,-593.677 392.459,-590.766"/>
<polygon fill="midnightblue" stroke="midnightblue" points="333.499,-762.663 326.087,-770.234 336.602,-768.937 333.499,-762.663"/>
</g>
<!-- Node3276 -->
<g id="node29" class="node"><title>Node3276</title>
<g id="a_node29"><a xlink:href="structEigen_1_1internal_1_1inplace__transpose__selector_3_01MatrixType_00_01true_00_01true_01_4.html#ade80113166d3d27b8631ba4549269926" target="_top" xlink:title="Eigen::internal::inplace\l_transpose_selector\&lt; MatrixType,\l true, true \&gt;::run">
<polygon fill="none" stroke="black" points="389,-478 389,-519 567,-519 567,-478 389,-478"/>
<text text-anchor="start" x="397" y="-507" font-family="Helvetica,sans-Serif" font-size="10.00">Eigen::internal::inplace</text>
<text text-anchor="start" x="397" y="-496" font-family="Helvetica,sans-Serif" font-size="10.00">_transpose_selector&lt; MatrixType,</text>
<text text-anchor="middle" x="478" y="-485" font-family="Helvetica,sans-Serif" font-size="10.00"> true, true &gt;::run</text>
</a>
</g>
</g>
<!-- Node3269&#45;&gt;Node3276 -->
<g id="edge34" class="edge"><title>Node3269&#45;&gt;Node3276</title>
<path fill="none" stroke="midnightblue" d="M335.126,-766.187C339.093,-763.766 342.765,-760.895 346,-757.5 416.774,-683.234 315.442,-607.567 382,-529.5 385.377,-525.539 389.267,-522.081 393.503,-519.062"/>
<polygon fill="midnightblue" stroke="midnightblue" points="333.36,-763.158 326.021,-770.799 336.523,-769.402 333.36,-763.158"/>
</g>
<!-- Node3277 -->
<g id="node30" class="node"><title>Node3277</title>
<g id="a_node30"><a xlink:href="packetmath_8cpp.html#a517110e4796d1bac787500a5b23f9bbe" target="_top" xlink:title="packetmath">
<polygon fill="none" stroke="black" points="441,-440 441,-459 515,-459 515,-440 441,-440"/>
<text text-anchor="middle" x="478" y="-447" font-family="Helvetica,sans-Serif" font-size="10.00">packetmath</text>
</a>
</g>
</g>
<!-- Node3269&#45;&gt;Node3277 -->
<g id="edge35" class="edge"><title>Node3269&#45;&gt;Node3277</title>
<path fill="none" stroke="midnightblue" d="M335.257,-766.311C339.192,-763.859 342.82,-760.947 346,-757.5 433.754,-662.352 293.897,-563.325 382,-468.5 396.769,-452.605 420.776,-447.904 440.961,-447.153"/>
<polygon fill="midnightblue" stroke="midnightblue" points="333.493,-763.282 326.208,-770.975 336.701,-769.504 333.493,-763.282"/>
</g>
<!-- Node3278 -->
<g id="node31" class="node"><title>Node3278</title>
<g id="a_node31"><a xlink:href="packetmath_8cpp.html#a43e3c22d695551e0e3da70b69ce93742" target="_top" xlink:title="test_packetmath">
<polygon fill="none" stroke="black" points="619,-440 619,-459 717,-459 717,-440 619,-440"/>
<text text-anchor="middle" x="668" y="-447" font-family="Helvetica,sans-Serif" font-size="10.00">test_packetmath</text>
</a>
</g>
</g>
<!-- Node3277&#45;&gt;Node3278 -->
<g id="edge36" class="edge"><title>Node3277&#45;&gt;Node3278</title>
<path fill="none" stroke="midnightblue" d="M525.326,-449.5C553.727,-449.5 590.024,-449.5 618.768,-449.5"/>
<polygon fill="midnightblue" stroke="midnightblue" points="525.248,-446 515.248,-449.5 525.248,-453 525.248,-446"/>
</g>
</g>
</svg>
        <g id="navigator" transform="translate(0 0)" fill="#404254">
                <rect fill="#f2f5e9" fill-opacity="0.5" stroke="#606060" stroke-width=".5" x="0" y="0" width="60" height="60"/>
                <use id="zoomplus" xlink:href="#zoomPlus" x="17" y="9" onmousedown="handleZoom(evt,'in')"/>
                <use id="zoomminus" xlink:href="#zoomMin" x="42" y="9" onmousedown="handleZoom(evt,'out')"/>
                <use id="reset" xlink:href="#resetDef" x="30" y="36" onmousedown="handleReset()"/>
                <g id="arrowUp" xlink:href="#dirArrow" transform="translate(30 24)" onmousedown="handlePan(0,-1)">
                  <use xlink:href="#rim" fill="#404040">
                        <set attributeName="fill" to="#808080" begin="arrowUp.mouseover" end="arrowUp.mouseout"/>
                  </use>
                  <path fill="none" stroke="white" stroke-width="1.5" d="M0,-3.0v7 M-2.5,-0.5L0,-3.0L2.5,-0.5"/>
                </g>
                <g id="arrowRight" xlink:href="#dirArrow" transform="rotate(90) translate(36 -43)" onmousedown="handlePan(1,0)">
                  <use xlink:href="#rim" fill="#404040">
                        <set attributeName="fill" to="#808080" begin="arrowRight.mouseover" end="arrowRight.mouseout"/>
                  </use>
                  <path fill="none" stroke="white" stroke-width="1.5" d="M0,-3.0v7 M-2.5,-0.5L0,-3.0L2.5,-0.5"/>
                </g>
                <g id="arrowDown" xlink:href="#dirArrow" transform="rotate(180) translate(-30 -48)" onmousedown="handlePan(0,1)">
                  <use xlink:href="#rim" fill="#404040">
                        <set attributeName="fill" to="#808080" begin="arrowDown.mouseover" end="arrowDown.mouseout"/>
                  </use>
                  <path fill="none" stroke="white" stroke-width="1.5" d="M0,-3.0v7 M-2.5,-0.5L0,-3.0L2.5,-0.5"/>
                </g>
                <g id="arrowLeft" xlink:href="#dirArrow" transform="rotate(270) translate(-36 17)" onmousedown="handlePan(-1,0)">
                  <use xlink:href="#rim" fill="#404040">
                        <set attributeName="fill" to="#808080" begin="arrowLeft.mouseover" end="arrowLeft.mouseout"/>
                  </use>
                  <path fill="none" stroke="white" stroke-width="1.5" d="M0,-3.0v7 M-2.5,-0.5L0,-3.0L2.5,-0.5"/>
                </g>
        </g>
        <svg viewBox="0 0 15 15" width="100%" height="30px" preserveAspectRatio="xMaxYMin meet">
         <g id="arrow_out" transform="scale(0.3 0.3)">
          <a xlink:href="namespaceEigen_1_1internal_a74b4d1fb91602aebe1ae5742e8c2d566_icgraph_org.svg" target="_base">
           <rect id="button" ry="5" rx="5" y="6" x="6" height="38" width="38"
                fill="#f2f5e9" fill-opacity="0.5" stroke="#606060" stroke-width="1.0"/>
           <path id="arrow"
             d="M 11.500037,31.436501 C 11.940474,20.09759 22.043105,11.32322 32.158766,21.979434 L 37.068811,17.246167 C 37.068811,17.246167 37.088388,32 37.088388,32 L 22.160133,31.978069 C 22.160133,31.978069 26.997745,27.140456 26.997745,27.140456 C 18.528582,18.264221 13.291696,25.230495 11.500037,31.436501 z"
             style="fill:#404040;"/>
          </a>
         </g>
        </svg>
</svg>
