<?xml version="1.0" encoding="UTF-8" standalone="no"?>
<!DOCTYPE svg PUBLIC "-//W3C//DTD SVG 1.1//EN"
 "http://www.w3.org/Graphics/SVG/1.1/DTD/svg11.dtd">
<!-- Generated by graphviz version 2.38.0 (20140413.2041)
 -->
<!-- Title: Eigen::internal::call_dense_assignment_loop Pages: 1 -->
<svg width="374pt" height="100pt"
 viewBox="0.00 0.00 374.00 99.50" xmlns="http://www.w3.org/2000/svg" xmlns:xlink="http://www.w3.org/1999/xlink">
<g id="graph0" class="graph" transform="scale(1 1) rotate(0) translate(4 95.5)">
<title>Eigen::internal::call_dense_assignment_loop</title>
<!-- Node476 -->
<g id="node1" class="node"><title>Node476</title>
<polygon fill="#bfbfbf" stroke="black" points="0,-33 0,-63 138,-63 138,-33 0,-33"/>
<text text-anchor="start" x="8" y="-51" font-family="Helvetica,sans-Serif" font-size="10.00">Eigen::internal::call</text>
<text text-anchor="middle" x="69" y="-40" font-family="Helvetica,sans-Serif" font-size="10.00">_dense_assignment_loop</text>
</g>
<!-- Node477 -->
<g id="node2" class="node"><title>Node477</title>
<g id="a_node2"><a xlink:href="namespaceEigen_1_1internal.html#ac2c8860de31cf24c929f08fb6629eea2" target="_top" xlink:title="Eigen::internal::call\l_dense_assignment_loop">
<polygon fill="none" stroke="black" points="201,-61 201,-91 339,-91 339,-61 201,-61"/>
<text text-anchor="start" x="209" y="-79" font-family="Helvetica,sans-Serif" font-size="10.00">Eigen::internal::call</text>
<text text-anchor="middle" x="270" y="-68" font-family="Helvetica,sans-Serif" font-size="10.00">_dense_assignment_loop</text>
</a>
</g>
</g>
<!-- Node476&#45;&gt;Node477 -->
<g id="edge1" class="edge"><title>Node476&#45;&gt;Node477</title>
<path fill="none" stroke="midnightblue" d="M148.312,-59.0188C165.684,-61.463 183.958,-64.0343 200.883,-66.4157"/>
<polygon fill="midnightblue" stroke="midnightblue" points="148.596,-55.5244 138.206,-57.5968 147.621,-62.4561 148.596,-55.5244"/>
</g>
<!-- Node478 -->
<g id="node3" class="node"><title>Node478</title>
<g id="a_node3"><a xlink:href="structEigen_1_1internal_1_1Assignment_3_01DstXprType_00_01SrcXprType_00_01Functor_00_01Dense2Dense_00_01Weak_01_4.html#a23b7a4281a249055ccd7f123144a3a84" target="_top" xlink:title="Eigen::internal::Assignment\l\&lt; DstXprType, SrcXprType,\l Functor, Dense2Dense, Weak \&gt;::run">
<polygon fill="none" stroke="black" points="174,-0.5 174,-41.5 366,-41.5 366,-0.5 174,-0.5"/>
<text text-anchor="start" x="182" y="-29.5" font-family="Helvetica,sans-Serif" font-size="10.00">Eigen::internal::Assignment</text>
<text text-anchor="start" x="182" y="-18.5" font-family="Helvetica,sans-Serif" font-size="10.00">&lt; DstXprType, SrcXprType,</text>
<text text-anchor="middle" x="270" y="-7.5" font-family="Helvetica,sans-Serif" font-size="10.00"> Functor, Dense2Dense, Weak &gt;::run</text>
</a>
</g>
</g>
<!-- Node476&#45;&gt;Node478 -->
<g id="edge2" class="edge"><title>Node476&#45;&gt;Node478</title>
<path fill="none" stroke="midnightblue" d="M148.296,-37.3769C156.668,-36.2411 165.249,-35.0768 173.788,-33.9182"/>
<polygon fill="midnightblue" stroke="midnightblue" points="147.645,-33.9331 138.206,-38.7459 148.586,-40.8696 147.645,-33.9331"/>
</g>
</g>
</svg>
