<?xml version="1.0" encoding="UTF-8" standalone="no"?>
<!DOCTYPE svg PUBLIC "-//W3C//DTD SVG 1.1//EN"
 "http://www.w3.org/Graphics/SVG/1.1/DTD/svg11.dtd">
<!-- Generated by graphviz version 2.38.0 (20140413.2041)
 -->
<!-- Title: mpfr::machine_epsilon Pages: 1 -->
<svg width="483pt" height="421pt"
 viewBox="0.00 0.00 483.00 421.00" xmlns="http://www.w3.org/2000/svg" xmlns:xlink="http://www.w3.org/1999/xlink">
<g id="graph0" class="graph" transform="scale(1 1) rotate(0) translate(4 417)">
<title>mpfr::machine_epsilon</title>
<!-- Node579 -->
<g id="node1" class="node"><title>Node579</title>
<polygon fill="#bfbfbf" stroke="black" points="0,-306 0,-325 125,-325 125,-306 0,-306"/>
<text text-anchor="middle" x="62.5" y="-313" font-family="Helvetica,sans-Serif" font-size="10.00">mpfr::machine_epsilon</text>
</g>
<!-- Node580 -->
<g id="node2" class="node"><title>Node580</title>
<g id="a_node2"><a xlink:href="classstd_1_1numeric__limits_3_01mpfr_1_1mpreal_01_4.html#ac2f7a8222ef4b03518ad0a3e247b0ff6" target="_top" xlink:title="std::numeric_limits\l\&lt; mpfr::mpreal \&gt;::epsilon">
<polygon fill="none" stroke="black" points="161,-382.5 161,-412.5 302,-412.5 302,-382.5 161,-382.5"/>
<text text-anchor="start" x="169" y="-400.5" font-family="Helvetica,sans-Serif" font-size="10.00">std::numeric_limits</text>
<text text-anchor="middle" x="231.5" y="-389.5" font-family="Helvetica,sans-Serif" font-size="10.00">&lt; mpfr::mpreal &gt;::epsilon</text>
</a>
</g>
</g>
<!-- Node579&#45;&gt;Node580 -->
<g id="edge1" class="edge"><title>Node579&#45;&gt;Node580</title>
<path fill="none" stroke="midnightblue" d="M86.3537,-330.481C105.712,-342.77 134.471,-360.102 161,-372.5 168.551,-376.029 176.748,-379.377 184.776,-382.41"/>
<polygon fill="midnightblue" stroke="midnightblue" points="88.2162,-327.517 77.91,-325.061 84.4349,-333.408 88.2162,-327.517"/>
</g>
<!-- Node581 -->
<g id="node3" class="node"><title>Node581</title>
<g id="a_node3"><a xlink:href="namespacempfr.html#a2b277f6e7a98e7b5da7fad3a38a211ec" target="_top" xlink:title="mpfr::isEqualFuzzy">
<polygon fill="none" stroke="black" points="179,-344 179,-363 284,-363 284,-344 179,-344"/>
<text text-anchor="middle" x="231.5" y="-351" font-family="Helvetica,sans-Serif" font-size="10.00">mpfr::isEqualFuzzy</text>
</a>
</g>
</g>
<!-- Node579&#45;&gt;Node581 -->
<g id="edge2" class="edge"><title>Node579&#45;&gt;Node581</title>
<path fill="none" stroke="midnightblue" d="M115.465,-327.324C139.009,-332.682 166.474,-338.931 188.662,-343.98"/>
<polygon fill="midnightblue" stroke="midnightblue" points="116.168,-323.895 105.641,-325.089 114.615,-330.721 116.168,-323.895"/>
</g>
<!-- Node582 -->
<g id="node4" class="node"><title>Node582</title>
<g id="a_node4"><a xlink:href="namespacempfr.html#a63ac5362ad5af999b1bc94649e772dde" target="_top" xlink:title="mpfr::isEqualUlps">
<polygon fill="none" stroke="black" points="181.5,-306 181.5,-325 281.5,-325 281.5,-306 181.5,-306"/>
<text text-anchor="middle" x="231.5" y="-313" font-family="Helvetica,sans-Serif" font-size="10.00">mpfr::isEqualUlps</text>
</a>
</g>
</g>
<!-- Node579&#45;&gt;Node582 -->
<g id="edge3" class="edge"><title>Node579&#45;&gt;Node582</title>
<path fill="none" stroke="midnightblue" d="M135.303,-315.5C150.817,-315.5 166.88,-315.5 181.293,-315.5"/>
<polygon fill="midnightblue" stroke="midnightblue" points="135.21,-312 125.21,-315.5 135.21,-319 135.21,-312"/>
</g>
<!-- Node583 -->
<g id="node5" class="node"><title>Node583</title>
<g id="a_node5"><a xlink:href="namespacempfr.html#ab6cfe9d750c1cdf9f8d65c93bc75fa57" target="_top" xlink:title="mpfr::operator/">
<polygon fill="none" stroke="black" points="362,-306 362,-325 451,-325 451,-306 362,-306"/>
<text text-anchor="middle" x="406.5" y="-313" font-family="Helvetica,sans-Serif" font-size="10.00">mpfr::operator/</text>
</a>
</g>
</g>
<!-- Node579&#45;&gt;Node583 -->
<g id="edge13" class="edge"><title>Node579&#45;&gt;Node583</title>
<path fill="none" stroke="midnightblue" d="M112.893,-303.962C128.22,-300.899 145.229,-298.022 161,-296.5 223.377,-290.479 239.591,-290.819 302,-296.5 322.377,-298.355 344.735,-302.223 363.44,-305.989"/>
<polygon fill="midnightblue" stroke="midnightblue" points="112.177,-300.536 103.094,-305.99 113.595,-307.391 112.177,-300.536"/>
</g>
<!-- Node584 -->
<g id="node6" class="node"><title>Node584</title>
<g id="a_node6"><a xlink:href="namespacempfr.html#ac5d52f3ecbedf807efc1815b836d587e" target="_top" xlink:title="mpfr::maxval">
<polygon fill="none" stroke="black" points="191.5,-177 191.5,-196 271.5,-196 271.5,-177 191.5,-177"/>
<text text-anchor="middle" x="231.5" y="-184" font-family="Helvetica,sans-Serif" font-size="10.00">mpfr::maxval</text>
</a>
</g>
</g>
<!-- Node579&#45;&gt;Node584 -->
<g id="edge5" class="edge"><title>Node579&#45;&gt;Node584</title>
<path fill="none" stroke="midnightblue" d="M84.152,-299.547C119.157,-272.507 189.131,-218.456 217.802,-196.308"/>
<polygon fill="midnightblue" stroke="midnightblue" points="81.8264,-296.921 76.0521,-305.804 86.1057,-302.461 81.8264,-296.921"/>
</g>
<!-- Node582&#45;&gt;Node583 -->
<g id="edge4" class="edge"><title>Node582&#45;&gt;Node583</title>
<path fill="none" stroke="midnightblue" d="M291.624,-315.5C314.659,-315.5 340.582,-315.5 361.869,-315.5"/>
<polygon fill="midnightblue" stroke="midnightblue" points="291.612,-312 281.612,-315.5 291.612,-319 291.612,-312"/>
</g>
<!-- Node584&#45;&gt;Node583 -->
<g id="edge7" class="edge"><title>Node584&#45;&gt;Node583</title>
<path fill="none" stroke="midnightblue" d="M248.104,-203.74C274.767,-233.05 327.266,-290.061 338,-296.5 345.308,-300.884 353.666,-304.291 361.954,-306.927"/>
<polygon fill="midnightblue" stroke="midnightblue" points="250.638,-201.324 241.325,-196.273 245.455,-206.03 250.638,-201.324"/>
</g>
<!-- Node585 -->
<g id="node7" class="node"><title>Node585</title>
<g id="a_node7"><a xlink:href="classEigen_1_1EigenSolver.html#a99e6120839b1f65c4e1f1ba61efa264e" target="_top" xlink:title="Eigen::EigenSolver\l\&lt; CompanionMatrixType\l \&gt;::compute">
<polygon fill="none" stroke="black" points="340,-246 340,-287 473,-287 473,-246 340,-246"/>
<text text-anchor="start" x="348" y="-275" font-family="Helvetica,sans-Serif" font-size="10.00">Eigen::EigenSolver</text>
<text text-anchor="start" x="348" y="-264" font-family="Helvetica,sans-Serif" font-size="10.00">&lt; CompanionMatrixType</text>
<text text-anchor="middle" x="406.5" y="-253" font-family="Helvetica,sans-Serif" font-size="10.00"> &gt;::compute</text>
</a>
</g>
</g>
<!-- Node584&#45;&gt;Node585 -->
<g id="edge6" class="edge"><title>Node584&#45;&gt;Node585</title>
<path fill="none" stroke="midnightblue" d="M261.36,-200.41C282.514,-210.549 311.963,-224.546 338,-236.5 344.76,-239.603 351.921,-242.84 358.955,-245.991"/>
<polygon fill="midnightblue" stroke="midnightblue" points="262.796,-197.217 252.266,-196.044 259.766,-203.527 262.796,-197.217"/>
</g>
<!-- Node586 -->
<g id="node8" class="node"><title>Node586</title>
<g id="a_node8"><a xlink:href="classstd_1_1numeric__limits_3_01mpfr_1_1mpreal_01_4.html#af3b5798dea70eba7566b8558177c5cb7" target="_top" xlink:title="std::numeric_limits\l\&lt; mpfr::mpreal \&gt;::max">
<polygon fill="none" stroke="black" points="342.5,-196.5 342.5,-226.5 470.5,-226.5 470.5,-196.5 342.5,-196.5"/>
<text text-anchor="start" x="350.5" y="-214.5" font-family="Helvetica,sans-Serif" font-size="10.00">std::numeric_limits</text>
<text text-anchor="middle" x="406.5" y="-203.5" font-family="Helvetica,sans-Serif" font-size="10.00">&lt; mpfr::mpreal &gt;::max</text>
</a>
</g>
</g>
<!-- Node584&#45;&gt;Node586 -->
<g id="edge8" class="edge"><title>Node584&#45;&gt;Node586</title>
<path fill="none" stroke="midnightblue" d="M281.88,-193.636C300.691,-196.354 322.392,-199.49 342.311,-202.369"/>
<polygon fill="midnightblue" stroke="midnightblue" points="282.154,-190.139 271.756,-192.173 281.153,-197.067 282.154,-190.139"/>
</g>
<!-- Node587 -->
<g id="node9" class="node"><title>Node587</title>
<g id="a_node9"><a xlink:href="classstd_1_1numeric__limits_3_01mpfr_1_1mpreal_01_4.html#afe87477420320b20ef726e383e06a950" target="_top" xlink:title="std::numeric_limits\l\&lt; mpfr::mpreal \&gt;::lowest">
<polygon fill="none" stroke="black" points="338,-147.5 338,-177.5 475,-177.5 475,-147.5 338,-147.5"/>
<text text-anchor="start" x="346" y="-165.5" font-family="Helvetica,sans-Serif" font-size="10.00">std::numeric_limits</text>
<text text-anchor="middle" x="406.5" y="-154.5" font-family="Helvetica,sans-Serif" font-size="10.00">&lt; mpfr::mpreal &gt;::lowest</text>
</a>
</g>
</g>
<!-- Node584&#45;&gt;Node587 -->
<g id="edge9" class="edge"><title>Node584&#45;&gt;Node587</title>
<path fill="none" stroke="midnightblue" d="M281.72,-179.672C299.182,-177.249 319.151,-174.479 337.878,-171.881"/>
<polygon fill="midnightblue" stroke="midnightblue" points="281.181,-176.213 271.756,-181.054 282.142,-183.147 281.181,-176.213"/>
</g>
<!-- Node588 -->
<g id="node10" class="node"><title>Node588</title>
<g id="a_node10"><a xlink:href="classSystemBase.html#a36f4a02104e9f68e60732267bc6eafbc" target="_top" xlink:title="SystemBase\&lt; StateTwo\l \&gt;::getMainStates">
<polygon fill="none" stroke="black" points="341,-98.5 341,-128.5 472,-128.5 472,-98.5 341,-98.5"/>
<text text-anchor="start" x="349" y="-116.5" font-family="Helvetica,sans-Serif" font-size="10.00">SystemBase&lt; StateTwo</text>
<text text-anchor="middle" x="406.5" y="-105.5" font-family="Helvetica,sans-Serif" font-size="10.00"> &gt;::getMainStates</text>
</a>
</g>
</g>
<!-- Node584&#45;&gt;Node588 -->
<g id="edge10" class="edge"><title>Node584&#45;&gt;Node588</title>
<path fill="none" stroke="midnightblue" d="M261.592,-172.579C282.641,-162.674 311.863,-149.27 338,-138.5 346.204,-135.12 355.049,-131.692 363.549,-128.502"/>
<polygon fill="midnightblue" stroke="midnightblue" points="260.08,-169.422 252.536,-176.861 263.072,-175.75 260.08,-169.422"/>
</g>
<!-- Node589 -->
<g id="node11" class="node"><title>Node589</title>
<g id="a_node11"><a xlink:href="classSystemBase.html#a4ffed53296033614e4701f01363e6b3f" target="_top" xlink:title="SystemBase\&lt; StateTwo\l \&gt;::getConnections">
<polygon fill="none" stroke="black" points="341,-49.5 341,-79.5 472,-79.5 472,-49.5 341,-49.5"/>
<text text-anchor="start" x="349" y="-67.5" font-family="Helvetica,sans-Serif" font-size="10.00">SystemBase&lt; StateTwo</text>
<text text-anchor="middle" x="406.5" y="-56.5" font-family="Helvetica,sans-Serif" font-size="10.00"> &gt;::getConnections</text>
</a>
</g>
</g>
<!-- Node584&#45;&gt;Node589 -->
<g id="edge11" class="edge"><title>Node584&#45;&gt;Node589</title>
<path fill="none" stroke="midnightblue" d="M247.282,-169.292C266.359,-148.007 301.464,-111.854 338,-89.5 344.076,-85.7825 350.793,-82.481 357.564,-79.5946"/>
<polygon fill="midnightblue" stroke="midnightblue" points="244.55,-167.098 240.566,-176.915 249.803,-171.725 244.55,-167.098"/>
</g>
<!-- Node590 -->
<g id="node12" class="node"><title>Node590</title>
<g id="a_node12"><a xlink:href="classSystemBase.html#af68a98c6f66a1ef06fa78fbe9c209ba7" target="_top" xlink:title="SystemBase\&lt; StateTwo\l \&gt;::getVectorindex">
<polygon fill="none" stroke="black" points="341,-0.5 341,-30.5 472,-30.5 472,-0.5 341,-0.5"/>
<text text-anchor="start" x="349" y="-18.5" font-family="Helvetica,sans-Serif" font-size="10.00">SystemBase&lt; StateTwo</text>
<text text-anchor="middle" x="406.5" y="-7.5" font-family="Helvetica,sans-Serif" font-size="10.00"> &gt;::getVectorindex</text>
</a>
</g>
</g>
<!-- Node584&#45;&gt;Node590 -->
<g id="edge12" class="edge"><title>Node584&#45;&gt;Node590</title>
<path fill="none" stroke="midnightblue" d="M241.383,-167.405C256.781,-136.294 291.314,-74.6207 338,-39.5 342.572,-36.0606 347.68,-33.0823 352.985,-30.5105"/>
<polygon fill="midnightblue" stroke="midnightblue" points="238.091,-166.173 236.905,-176.701 244.398,-169.211 238.091,-166.173"/>
</g>
</g>
</svg>
