<?xml version="1.0" encoding="UTF-8" standalone="no"?>
<!DOCTYPE svg PUBLIC "-//W3C//DTD SVG 1.1//EN"
 "http://www.w3.org/Graphics/SVG/1.1/DTD/svg11.dtd">
<!-- Generated by graphviz version 2.38.0 (20140413.2041)
 -->
<!-- Title: Eigen::internal::pinsertlast Pages: 1 -->
<svg width="951pt" height="112pt"
 viewBox="0.00 0.00 951.00 112.00" xmlns="http://www.w3.org/2000/svg" xmlns:xlink="http://www.w3.org/1999/xlink">
<g id="graph0" class="graph" transform="scale(1 1) rotate(0) translate(4 108)">
<title>Eigen::internal::pinsertlast</title>
<!-- Node2694 -->
<g id="node1" class="node"><title>Node2694</title>
<polygon fill="#bfbfbf" stroke="black" points="0,-54 0,-73 141,-73 141,-54 0,-54"/>
<text text-anchor="middle" x="70.5" y="-61" font-family="Helvetica,sans-Serif" font-size="10.00">Eigen::internal::pinsertlast</text>
</g>
<!-- Node2695 -->
<g id="node2" class="node"><title>Node2695</title>
<g id="a_node2"><a xlink:href="namespaceEigen_1_1internal.html#ae465ba2b58c9d3b3e9b48f3fd272aab1" target="_top" xlink:title="Eigen::internal::pset1\l\&lt; Packet1cd \&gt;">
<polygon fill="none" stroke="black" points="177,-48.5 177,-78.5 295,-78.5 295,-48.5 177,-48.5"/>
<text text-anchor="start" x="185" y="-66.5" font-family="Helvetica,sans-Serif" font-size="10.00">Eigen::internal::pset1</text>
<text text-anchor="middle" x="236" y="-55.5" font-family="Helvetica,sans-Serif" font-size="10.00">&lt; Packet1cd &gt;</text>
</a>
</g>
</g>
<!-- Node2694&#45;&gt;Node2695 -->
<g id="edge1" class="edge"><title>Node2694&#45;&gt;Node2695</title>
<path fill="none" stroke="midnightblue" d="M141.313,-63.5C149.767,-63.5 158.394,-63.5 166.824,-63.5"/>
<polygon fill="midnightblue" stroke="midnightblue" points="166.983,-67.0001 176.983,-63.5 166.983,-60.0001 166.983,-67.0001"/>
</g>
<!-- Node2696 -->
<g id="node3" class="node"><title>Node2696</title>
<g id="a_node3"><a xlink:href="namespaceEigen_1_1internal.html#a64d8915097b2e3aca83d8ef2d6ec1c70" target="_top" xlink:title="Eigen::internal::ploadu\l\&lt; Packet1cd \&gt;">
<polygon fill="none" stroke="black" points="331,-48.5 331,-78.5 454,-78.5 454,-48.5 331,-48.5"/>
<text text-anchor="start" x="339" y="-66.5" font-family="Helvetica,sans-Serif" font-size="10.00">Eigen::internal::ploadu</text>
<text text-anchor="middle" x="392.5" y="-55.5" font-family="Helvetica,sans-Serif" font-size="10.00">&lt; Packet1cd &gt;</text>
</a>
</g>
</g>
<!-- Node2695&#45;&gt;Node2696 -->
<g id="edge2" class="edge"><title>Node2695&#45;&gt;Node2696</title>
<path fill="none" stroke="midnightblue" d="M295.41,-63.5C303.672,-63.5 312.24,-63.5 320.705,-63.5"/>
<polygon fill="midnightblue" stroke="midnightblue" points="320.95,-67.0001 330.95,-63.5 320.95,-60.0001 320.95,-67.0001"/>
</g>
<!-- Node2697 -->
<g id="node4" class="node"><title>Node2697</title>
<g id="a_node4"><a xlink:href="namespaceEigen_1_1internal.html#aad2aa0e94b436c07af15649aa08c5b10" target="_top" xlink:title="Eigen::internal::ploadu\l\&lt; Packet2d \&gt;">
<polygon fill="none" stroke="black" points="490,-48.5 490,-78.5 613,-78.5 613,-48.5 490,-48.5"/>
<text text-anchor="start" x="498" y="-66.5" font-family="Helvetica,sans-Serif" font-size="10.00">Eigen::internal::ploadu</text>
<text text-anchor="middle" x="551.5" y="-55.5" font-family="Helvetica,sans-Serif" font-size="10.00">&lt; Packet2d &gt;</text>
</a>
</g>
</g>
<!-- Node2696&#45;&gt;Node2697 -->
<g id="edge3" class="edge"><title>Node2696&#45;&gt;Node2697</title>
<path fill="none" stroke="midnightblue" d="M454.2,-63.5C462.635,-63.5 471.359,-63.5 479.955,-63.5"/>
<polygon fill="midnightblue" stroke="midnightblue" points="479.961,-67.0001 489.961,-63.5 479.961,-60.0001 479.961,-67.0001"/>
</g>
<!-- Node2698 -->
<g id="node5" class="node"><title>Node2698</title>
<g id="a_node5"><a xlink:href="namespaceEigen_1_1internal.html#a8ca7358422bc5068a529fb12256f17c0" target="_top" xlink:title="Eigen::internal::ploadu\l\&lt; Packet4i \&gt;">
<polygon fill="none" stroke="black" points="655,-73.5 655,-103.5 778,-103.5 778,-73.5 655,-73.5"/>
<text text-anchor="start" x="663" y="-91.5" font-family="Helvetica,sans-Serif" font-size="10.00">Eigen::internal::ploadu</text>
<text text-anchor="middle" x="716.5" y="-80.5" font-family="Helvetica,sans-Serif" font-size="10.00">&lt; Packet4i &gt;</text>
</a>
</g>
</g>
<!-- Node2697&#45;&gt;Node2698 -->
<g id="edge4" class="edge"><title>Node2697&#45;&gt;Node2698</title>
<path fill="none" stroke="midnightblue" d="M613.195,-72.8091C623.484,-74.3871 634.247,-76.0379 644.767,-77.6513"/>
<polygon fill="midnightblue" stroke="midnightblue" points="644.339,-81.1266 654.754,-79.1831 645.4,-74.2075 644.339,-81.1266"/>
</g>
<!-- Node2699 -->
<g id="node6" class="node"><title>Node2699</title>
<g id="a_node6"><a xlink:href="namespaceEigen_1_1internal.html#a4f98fd07c1d5009e6b536dd757688074" target="_top" xlink:title="Eigen::internal::ploaddup\l\&lt; Packet4f \&gt;">
<polygon fill="none" stroke="black" points="649,-24.5 649,-54.5 784,-54.5 784,-24.5 649,-24.5"/>
<text text-anchor="start" x="657" y="-42.5" font-family="Helvetica,sans-Serif" font-size="10.00">Eigen::internal::ploaddup</text>
<text text-anchor="middle" x="716.5" y="-31.5" font-family="Helvetica,sans-Serif" font-size="10.00">&lt; Packet4f &gt;</text>
</a>
</g>
</g>
<!-- Node2697&#45;&gt;Node2699 -->
<g id="edge5" class="edge"><title>Node2697&#45;&gt;Node2699</title>
<path fill="none" stroke="midnightblue" d="M613.195,-54.5633C621.522,-53.3372 630.16,-52.0654 638.728,-50.8038"/>
<polygon fill="midnightblue" stroke="midnightblue" points="639.348,-54.2504 648.731,-49.331 638.328,-47.3251 639.348,-54.2504"/>
</g>
<!-- Node2700 -->
<g id="node7" class="node"><title>Node2700</title>
<g id="a_node7"><a xlink:href="namespaceEigen_1_1internal.html#a63e92b056e3378b0853f510fdb6757b2" target="_top" xlink:title="Eigen::internal::pload\l\&lt; Packet4f \&gt;">
<polygon fill="none" stroke="black" points="823,-49.5 823,-79.5 940,-79.5 940,-49.5 823,-49.5"/>
<text text-anchor="start" x="831" y="-67.5" font-family="Helvetica,sans-Serif" font-size="10.00">Eigen::internal::pload</text>
<text text-anchor="middle" x="881.5" y="-56.5" font-family="Helvetica,sans-Serif" font-size="10.00">&lt; Packet4f &gt;</text>
</a>
</g>
</g>
<!-- Node2699&#45;&gt;Node2700 -->
<g id="edge6" class="edge"><title>Node2699&#45;&gt;Node2700</title>
<path fill="none" stroke="midnightblue" d="M784.269,-49.7406C793.695,-51.1864 803.394,-52.6739 812.837,-54.1222"/>
<polygon fill="midnightblue" stroke="midnightblue" points="812.544,-57.6181 822.959,-55.6747 813.605,-50.699 812.544,-57.6181"/>
</g>
<!-- Node2701 -->
<g id="node8" class="node"><title>Node2701</title>
<g id="a_node8"><a xlink:href="namespaceEigen_1_1internal.html#ac7c8e9806e423b61bb6ec916769bd133" target="_top" xlink:title="Eigen::internal::ploadu\l\&lt; Packet4f \&gt;">
<polygon fill="none" stroke="black" points="820,-0.5 820,-30.5 943,-30.5 943,-0.5 820,-0.5"/>
<text text-anchor="start" x="828" y="-18.5" font-family="Helvetica,sans-Serif" font-size="10.00">Eigen::internal::ploadu</text>
<text text-anchor="middle" x="881.5" y="-7.5" font-family="Helvetica,sans-Serif" font-size="10.00">&lt; Packet4f &gt;</text>
</a>
</g>
</g>
<!-- Node2699&#45;&gt;Node2701 -->
<g id="edge7" class="edge"><title>Node2699&#45;&gt;Node2701</title>
<path fill="none" stroke="midnightblue" d="M784.269,-29.669C792.736,-28.4223 801.424,-27.1432 809.948,-25.888"/>
<polygon fill="midnightblue" stroke="midnightblue" points="810.474,-29.3484 819.857,-24.429 809.454,-22.4231 810.474,-29.3484"/>
</g>
</g>
</svg>
