<?xml version="1.0" encoding="UTF-8" standalone="no"?>
<!DOCTYPE svg PUBLIC "-//W3C//DTD SVG 1.1//EN"
 "http://www.w3.org/Graphics/SVG/1.1/DTD/svg11.dtd">
<!-- Generated by graphviz version 2.38.0 (20140413.2041)
 -->
<!-- Title: Eigen::internal::pxor&lt; Packet2d &gt; Pages: 1 -->
<svg width="281pt" height="66pt"
 viewBox="0.00 0.00 281.00 66.00" xmlns="http://www.w3.org/2000/svg" xmlns:xlink="http://www.w3.org/1999/xlink">
<g id="graph0" class="graph" transform="scale(1 1) rotate(0) translate(4 62)">
<title>Eigen::internal::pxor&lt; Packet2d &gt;</title>
<!-- Node5336 -->
<g id="node1" class="node"><title>Node5336</title>
<polygon fill="#bfbfbf" stroke="black" points="0,-14 0,-44 112,-44 112,-14 0,-14"/>
<text text-anchor="start" x="8" y="-32" font-family="Helvetica,sans-Serif" font-size="10.00">Eigen::internal::pxor</text>
<text text-anchor="middle" x="56" y="-21" font-family="Helvetica,sans-Serif" font-size="10.00">&lt; Packet2d &gt;</text>
</g>
<!-- Node5337 -->
<g id="node2" class="node"><title>Node5337</title>
<g id="a_node2"><a xlink:href="namespaceEigen_1_1internal.html#abaadd9aa6aafdf268f71646684340302" target="_top" xlink:title="Eigen::internal::pblend">
<polygon fill="none" stroke="black" points="149,-38.5 149,-57.5 272,-57.5 272,-38.5 149,-38.5"/>
<text text-anchor="middle" x="210.5" y="-45.5" font-family="Helvetica,sans-Serif" font-size="10.00">Eigen::internal::pblend</text>
</a>
</g>
</g>
<!-- Node5336&#45;&gt;Node5337 -->
<g id="edge1" class="edge"><title>Node5336&#45;&gt;Node5337</title>
<path fill="none" stroke="midnightblue" d="M121.996,-37.0979C130.903,-38.2076 140.019,-39.3434 148.845,-40.4429"/>
<polygon fill="midnightblue" stroke="midnightblue" points="122.412,-33.6227 112.056,-35.8594 121.547,-40.569 122.412,-33.6227"/>
</g>
<!-- Node5338 -->
<g id="node3" class="node"><title>Node5338</title>
<g id="a_node3"><a xlink:href="namespaceEigen_1_1internal.html#abdf0ea7e126fdf116b7e4d9200f7a90f" target="_top" xlink:title="Eigen::internal::pmadd">
<polygon fill="none" stroke="black" points="148,-0.5 148,-19.5 273,-19.5 273,-0.5 148,-0.5"/>
<text text-anchor="middle" x="210.5" y="-7.5" font-family="Helvetica,sans-Serif" font-size="10.00">Eigen::internal::pmadd</text>
</a>
</g>
</g>
<!-- Node5336&#45;&gt;Node5338 -->
<g id="edge2" class="edge"><title>Node5336&#45;&gt;Node5338</title>
<path fill="none" stroke="midnightblue" d="M121.988,-20.9031C130.547,-19.8367 139.3,-18.7462 147.802,-17.6869"/>
<polygon fill="midnightblue" stroke="midnightblue" points="121.547,-17.431 112.056,-22.1406 122.412,-24.3773 121.547,-17.431"/>
</g>
</g>
</svg>
