<?xml version="1.0" encoding="UTF-8" standalone="no"?>
<!DOCTYPE svg PUBLIC "-//W3C//DTD SVG 1.1//EN"
 "http://www.w3.org/Graphics/SVG/1.1/DTD/svg11.dtd">
<!-- Generated by graphviz version 2.38.0 (20140413.2041)
 -->
<!-- Title: Eigen::test_isUnitary Pages: 1 -->
<!--zoomable 137 -->
<svg id="main" version="1.1" xmlns="http://www.w3.org/2000/svg" xmlns:xlink="http://www.w3.org/1999/xlink" xml:space="preserve" onload="init(evt)">
<style type="text/css"><![CDATA[
.edge:hover path { stroke: red; }
.edge:hover polygon { stroke: red; fill: red; }
]]></style>
<script type="text/javascript"><![CDATA[
var edges = document.getElementsByTagName('g');
if (edges && edges.length) {
  for (var i=0;i<edges.length;i++) {
    if (edges[i].id.substr(0,4)=='edge') {
      edges[i].setAttribute('class','edge');
    }
  }
}
]]></script>
        <defs>
                <circle id="rim" cx="0" cy="0" r="7"/>
                <circle id="rim2" cx="0" cy="0" r="3.5"/>
                <g id="zoomPlus">
                        <use xlink:href="#rim" fill="#404040">
                                <set attributeName="fill" to="#808080" begin="zoomplus.mouseover" end="zoomplus.mouseout"/>
                        </use>
                        <path d="M-4,0h8M0,-4v8" fill="none" stroke="white" stroke-width="1.5" pointer-events="none"/>
                </g>
                <g id="zoomMin">
                        <use xlink:href="#rim" fill="#404040">
                                <set attributeName="fill" to="#808080" begin="zoomminus.mouseover" end="zoomminus.mouseout"/>
                        </use>
                        <path d="M-4,0h8" fill="none" stroke="white" stroke-width="1.5" pointer-events="none"/>
                </g>
                <g id="dirArrow">
                        <path fill="none" stroke="white" stroke-width="1.5" d="M0,-3.0v7 M-2.5,-0.5L0,-3.0L2.5,-0.5"/>
                </g>
               <g id="resetDef">
                       <use xlink:href="#rim2" fill="#404040">
                               <set attributeName="fill" to="#808080" begin="reset.mouseover" end="reset.mouseout"/>
                       </use>
               </g>
        </defs>

<script type="text/javascript">
var viewWidth = 853;
var viewHeight = 137;
var sectionId = 'dynsection-126';
</script>
<script xlink:href="svgpan.js"/>
<svg id="graph" class="graph">
<g id="viewport">
<title>Eigen::test_isUnitary</title>
<!-- Node738 -->
<g id="node1" class="node"><title>Node738</title>
<polygon fill="#bfbfbf" stroke="black" points="0,-55 0,-74 115,-74 115,-55 0,-55"/>
<text text-anchor="middle" x="57.5" y="-62" font-family="Helvetica,sans-Serif" font-size="10.00">Eigen::test_isUnitary</text>
</g>
<!-- Node739 -->
<g id="node2" class="node"><title>Node739</title>
<g id="a_node2"><a xlink:href="classEigen_1_1MatrixBase.html#a8a7ee34ce202cac3eeea9cf20c9e4833" target="_top" xlink:title="Eigen::MatrixBase::\lisUnitary">
<polygon fill="none" stroke="black" points="155,-93.5 155,-123.5 263,-123.5 263,-93.5 155,-93.5"/>
<text text-anchor="start" x="163" y="-111.5" font-family="Helvetica,sans-Serif" font-size="10.00">Eigen::MatrixBase::</text>
<text text-anchor="middle" x="209" y="-100.5" font-family="Helvetica,sans-Serif" font-size="10.00">isUnitary</text>
</a>
</g>
</g>
<!-- Node738&#45;&gt;Node739 -->
<g id="edge1" class="edge"><title>Node738&#45;&gt;Node739</title>
<path fill="none" stroke="midnightblue" d="M90.9393,-74.0473C107.396,-78.8906 127.931,-84.9346 147.187,-90.602"/>
<polygon fill="midnightblue" stroke="midnightblue" points="146.231,-93.9688 156.812,-93.4346 148.207,-87.2536 146.231,-93.9688"/>
</g>
<!-- Node740 -->
<g id="node3" class="node"><title>Node740</title>
<g id="a_node3"><a xlink:href="namespaceEigen.html#a093442939f1f6fa45fd216dbdd93c286" target="_top" xlink:title="Eigen::test_is_equal">
<polygon fill="none" stroke="black" points="153,-55 153,-74 265,-74 265,-55 153,-55"/>
<text text-anchor="middle" x="209" y="-62" font-family="Helvetica,sans-Serif" font-size="10.00">Eigen::test_is_equal</text>
</a>
</g>
</g>
<!-- Node738&#45;&gt;Node740 -->
<g id="edge2" class="edge"><title>Node738&#45;&gt;Node740</title>
<path fill="none" stroke="midnightblue" d="M115.02,-64.5C124.031,-64.5 133.419,-64.5 142.615,-64.5"/>
<polygon fill="midnightblue" stroke="midnightblue" points="142.886,-68.0001 152.886,-64.5 142.886,-61.0001 142.886,-68.0001"/>
</g>
<!-- Node747 -->
<g id="node10" class="node"><title>Node747</title>
<g id="a_node10"><a xlink:href="namespaceEigen.html#a05647e12e350713e2a7bfb4d06c10eed" target="_top" xlink:title="Eigen::test_precision">
<polygon fill="none" stroke="black" points="151,-17 151,-36 267,-36 267,-17 151,-17"/>
<text text-anchor="middle" x="209" y="-24" font-family="Helvetica,sans-Serif" font-size="10.00">Eigen::test_precision</text>
</a>
</g>
</g>
<!-- Node738&#45;&gt;Node747 -->
<g id="edge9" class="edge"><title>Node738&#45;&gt;Node747</title>
<path fill="none" stroke="midnightblue" d="M96.2252,-54.911C115.776,-49.9417 139.847,-43.8233 160.637,-38.5387"/>
<polygon fill="midnightblue" stroke="midnightblue" points="161.717,-41.8757 170.546,-36.0201 159.992,-35.0915 161.717,-41.8757"/>
</g>
<!-- Node741 -->
<g id="node4" class="node"><title>Node741</title>
<g id="a_node4"><a xlink:href="namespaceEigen.html#a0d9a7ddcee5c7c8defaba3628455efb2" target="_top" xlink:title="Eigen::createRandomPIMatrix\lOfRank">
<polygon fill="none" stroke="black" points="303,-49.5 303,-79.5 460,-79.5 460,-49.5 303,-49.5"/>
<text text-anchor="start" x="311" y="-67.5" font-family="Helvetica,sans-Serif" font-size="10.00">Eigen::createRandomPIMatrix</text>
<text text-anchor="middle" x="381.5" y="-56.5" font-family="Helvetica,sans-Serif" font-size="10.00">OfRank</text>
</a>
</g>
</g>
<!-- Node740&#45;&gt;Node741 -->
<g id="edge3" class="edge"><title>Node740&#45;&gt;Node741</title>
<path fill="none" stroke="midnightblue" d="M265.356,-64.5C274.14,-64.5 283.408,-64.5 292.716,-64.5"/>
<polygon fill="midnightblue" stroke="midnightblue" points="292.811,-68.0001 302.811,-64.5 292.811,-61.0001 292.811,-68.0001"/>
</g>
<!-- Node742 -->
<g id="node5" class="node"><title>Node742</title>
<g id="a_node5"><a xlink:href="classEigen_1_1HouseholderQR.html#affd506c10ef2d25f56e7b1f9f25ff885" target="_top" xlink:title="Eigen::HouseholderQR\l::householderQ">
<polygon fill="none" stroke="black" points="507.5,-98.5 507.5,-128.5 630.5,-128.5 630.5,-98.5 507.5,-98.5"/>
<text text-anchor="start" x="515.5" y="-116.5" font-family="Helvetica,sans-Serif" font-size="10.00">Eigen::HouseholderQR</text>
<text text-anchor="middle" x="569" y="-105.5" font-family="Helvetica,sans-Serif" font-size="10.00">::householderQ</text>
</a>
</g>
</g>
<!-- Node741&#45;&gt;Node742 -->
<g id="edge4" class="edge"><title>Node741&#45;&gt;Node742</title>
<path fill="none" stroke="midnightblue" d="M439.417,-79.5346C459.003,-84.7083 481.108,-90.5475 501.396,-95.9066"/>
<polygon fill="midnightblue" stroke="midnightblue" points="500.629,-99.3238 511.191,-98.4938 502.416,-92.5559 500.629,-99.3238"/>
</g>
<!-- Node743 -->
<g id="node6" class="node"><title>Node743</title>
<g id="a_node6"><a xlink:href="namespaceEigen.html#a9489ae63302dfd33d4560c5377ead43f" target="_top" xlink:title="Eigen::randomPermutation\lVector">
<polygon fill="none" stroke="black" points="496,-49.5 496,-79.5 642,-79.5 642,-49.5 496,-49.5"/>
<text text-anchor="start" x="504" y="-67.5" font-family="Helvetica,sans-Serif" font-size="10.00">Eigen::randomPermutation</text>
<text text-anchor="middle" x="569" y="-56.5" font-family="Helvetica,sans-Serif" font-size="10.00">Vector</text>
</a>
</g>
</g>
<!-- Node741&#45;&gt;Node743 -->
<g id="edge5" class="edge"><title>Node741&#45;&gt;Node743</title>
<path fill="none" stroke="midnightblue" d="M460.094,-64.5C468.493,-64.5 477.063,-64.5 485.518,-64.5"/>
<polygon fill="midnightblue" stroke="midnightblue" points="485.754,-68.0001 495.754,-64.5 485.754,-61.0001 485.754,-68.0001"/>
</g>
<!-- Node746 -->
<g id="node9" class="node"><title>Node746</title>
<g id="a_node9"><a xlink:href="classEigen_1_1PlainObjectBase.html#ac21ad5f989f320e46958b75ac8d9a1da" target="_top" xlink:title="Eigen::PlainObjectBase\l::setZero">
<polygon fill="none" stroke="black" points="506,-0.5 506,-30.5 632,-30.5 632,-0.5 506,-0.5"/>
<text text-anchor="start" x="514" y="-18.5" font-family="Helvetica,sans-Serif" font-size="10.00">Eigen::PlainObjectBase</text>
<text text-anchor="middle" x="569" y="-7.5" font-family="Helvetica,sans-Serif" font-size="10.00">::setZero</text>
</a>
</g>
</g>
<!-- Node741&#45;&gt;Node746 -->
<g id="edge8" class="edge"><title>Node741&#45;&gt;Node746</title>
<path fill="none" stroke="midnightblue" d="M439.417,-49.4654C459.003,-44.2917 481.108,-38.4525 501.396,-33.0934"/>
<polygon fill="midnightblue" stroke="midnightblue" points="502.416,-36.4441 511.191,-30.5062 500.629,-29.6762 502.416,-36.4441"/>
</g>
<!-- Node744 -->
<g id="node7" class="node"><title>Node744</title>
<g id="a_node7"><a xlink:href="namespacestd.html#ad33a269e67f055aaa18f57f76b015387" target="_top" xlink:title="std::swap">
<polygon fill="none" stroke="black" points="678,-55 678,-74 740,-74 740,-55 678,-55"/>
<text text-anchor="middle" x="709" y="-62" font-family="Helvetica,sans-Serif" font-size="10.00">std::swap</text>
</a>
</g>
</g>
<!-- Node743&#45;&gt;Node744 -->
<g id="edge6" class="edge"><title>Node743&#45;&gt;Node744</title>
<path fill="none" stroke="midnightblue" d="M642.233,-64.5C650.939,-64.5 659.576,-64.5 667.589,-64.5"/>
<polygon fill="midnightblue" stroke="midnightblue" points="667.715,-68.0001 677.715,-64.5 667.715,-61.0001 667.715,-68.0001"/>
</g>
<!-- Node745 -->
<g id="node8" class="node"><title>Node745</title>
<g id="a_node8"><a xlink:href="namespacempfr.html#aa617cb4d22ad8120d69f10b306b97f19" target="_top" xlink:title="mpfr::swap">
<polygon fill="none" stroke="black" points="776,-55 776,-74 845,-74 845,-55 776,-55"/>
<text text-anchor="middle" x="810.5" y="-62" font-family="Helvetica,sans-Serif" font-size="10.00">mpfr::swap</text>
</a>
</g>
</g>
<!-- Node744&#45;&gt;Node745 -->
<g id="edge7" class="edge"><title>Node744&#45;&gt;Node745</title>
<path fill="none" stroke="midnightblue" d="M740.123,-64.5C748.093,-64.5 756.864,-64.5 765.409,-64.5"/>
<polygon fill="midnightblue" stroke="midnightblue" points="765.651,-68.0001 775.651,-64.5 765.651,-61.0001 765.651,-68.0001"/>
</g>
</g>
</svg>
        <g id="navigator" transform="translate(0 0)" fill="#404254">
                <rect fill="#f2f5e9" fill-opacity="0.5" stroke="#606060" stroke-width=".5" x="0" y="0" width="60" height="60"/>
                <use id="zoomplus" xlink:href="#zoomPlus" x="17" y="9" onmousedown="handleZoom(evt,'in')"/>
                <use id="zoomminus" xlink:href="#zoomMin" x="42" y="9" onmousedown="handleZoom(evt,'out')"/>
                <use id="reset" xlink:href="#resetDef" x="30" y="36" onmousedown="handleReset()"/>
                <g id="arrowUp" xlink:href="#dirArrow" transform="translate(30 24)" onmousedown="handlePan(0,-1)">
                  <use xlink:href="#rim" fill="#404040">
                        <set attributeName="fill" to="#808080" begin="arrowUp.mouseover" end="arrowUp.mouseout"/>
                  </use>
                  <path fill="none" stroke="white" stroke-width="1.5" d="M0,-3.0v7 M-2.5,-0.5L0,-3.0L2.5,-0.5"/>
                </g>
                <g id="arrowRight" xlink:href="#dirArrow" transform="rotate(90) translate(36 -43)" onmousedown="handlePan(1,0)">
                  <use xlink:href="#rim" fill="#404040">
                        <set attributeName="fill" to="#808080" begin="arrowRight.mouseover" end="arrowRight.mouseout"/>
                  </use>
                  <path fill="none" stroke="white" stroke-width="1.5" d="M0,-3.0v7 M-2.5,-0.5L0,-3.0L2.5,-0.5"/>
                </g>
                <g id="arrowDown" xlink:href="#dirArrow" transform="rotate(180) translate(-30 -48)" onmousedown="handlePan(0,1)">
                  <use xlink:href="#rim" fill="#404040">
                        <set attributeName="fill" to="#808080" begin="arrowDown.mouseover" end="arrowDown.mouseout"/>
                  </use>
                  <path fill="none" stroke="white" stroke-width="1.5" d="M0,-3.0v7 M-2.5,-0.5L0,-3.0L2.5,-0.5"/>
                </g>
                <g id="arrowLeft" xlink:href="#dirArrow" transform="rotate(270) translate(-36 17)" onmousedown="handlePan(-1,0)">
                  <use xlink:href="#rim" fill="#404040">
                        <set attributeName="fill" to="#808080" begin="arrowLeft.mouseover" end="arrowLeft.mouseout"/>
                  </use>
                  <path fill="none" stroke="white" stroke-width="1.5" d="M0,-3.0v7 M-2.5,-0.5L0,-3.0L2.5,-0.5"/>
                </g>
        </g>
        <svg viewBox="0 0 15 15" width="100%" height="30px" preserveAspectRatio="xMaxYMin meet">
         <g id="arrow_out" transform="scale(0.3 0.3)">
          <a xlink:href="namespaceEigen_aa1ba6c19dbe321546997e690a9778406_cgraph_org.svg" target="_base">
           <rect id="button" ry="5" rx="5" y="6" x="6" height="38" width="38"
                fill="#f2f5e9" fill-opacity="0.5" stroke="#606060" stroke-width="1.0"/>
           <path id="arrow"
             d="M 11.500037,31.436501 C 11.940474,20.09759 22.043105,11.32322 32.158766,21.979434 L 37.068811,17.246167 C 37.068811,17.246167 37.088388,32 37.088388,32 L 22.160133,31.978069 C 22.160133,31.978069 26.997745,27.140456 26.997745,27.140456 C 18.528582,18.264221 13.291696,25.230495 11.500037,31.436501 z"
             style="fill:#404040;"/>
          </a>
         </g>
        </svg>
</svg>
