<?xml version="1.0" encoding="UTF-8" standalone="no"?>
<!DOCTYPE svg PUBLIC "-//W3C//DTD SVG 1.1//EN"
 "http://www.w3.org/Graphics/SVG/1.1/DTD/svg11.dtd">
<!-- Generated by graphviz version 2.38.0 (20140413.2041)
 -->
<!-- Title: Eigen::internal::matrix_sqrt_quasi_triangular_diagonal Pages: 1 -->
<svg width="391pt" height="96pt"
 viewBox="0.00 0.00 391.00 96.00" xmlns="http://www.w3.org/2000/svg" xmlns:xlink="http://www.w3.org/1999/xlink">
<g id="graph0" class="graph" transform="scale(1 1) rotate(0) translate(4 92)">
<title>Eigen::internal::matrix_sqrt_quasi_triangular_diagonal</title>
<!-- Node1164 -->
<g id="node1" class="node"><title>Node1164</title>
<polygon fill="#bfbfbf" stroke="black" points="0,-13.5 0,-54.5 122,-54.5 122,-13.5 0,-13.5"/>
<text text-anchor="start" x="8" y="-42.5" font-family="Helvetica,sans-Serif" font-size="10.00">Eigen::internal::matrix</text>
<text text-anchor="start" x="8" y="-31.5" font-family="Helvetica,sans-Serif" font-size="10.00">_sqrt_quasi_triangular</text>
<text text-anchor="middle" x="61" y="-20.5" font-family="Helvetica,sans-Serif" font-size="10.00">_diagonal</text>
</g>
<!-- Node1165 -->
<g id="node2" class="node"><title>Node1165</title>
<g id="a_node2"><a xlink:href="namespaceEigen_1_1internal.html#a7a96ef1b033a05cde18ea4d933ec62ca" target="_top" xlink:title="Eigen::internal::matrix\l_sqrt_quasi_triangular\l_2x2_diagonal_block">
<polygon fill="none" stroke="black" points="158,-38.5 158,-79.5 280,-79.5 280,-38.5 158,-38.5"/>
<text text-anchor="start" x="166" y="-67.5" font-family="Helvetica,sans-Serif" font-size="10.00">Eigen::internal::matrix</text>
<text text-anchor="start" x="166" y="-56.5" font-family="Helvetica,sans-Serif" font-size="10.00">_sqrt_quasi_triangular</text>
<text text-anchor="middle" x="219" y="-45.5" font-family="Helvetica,sans-Serif" font-size="10.00">_2x2_diagonal_block</text>
</a>
</g>
</g>
<!-- Node1164&#45;&gt;Node1165 -->
<g id="edge1" class="edge"><title>Node1164&#45;&gt;Node1165</title>
<path fill="none" stroke="midnightblue" d="M122.314,-43.6657C130.695,-45.0088 139.363,-46.398 147.904,-47.7667"/>
<polygon fill="midnightblue" stroke="midnightblue" points="147.419,-51.2335 157.847,-49.3601 148.527,-44.3217 147.419,-51.2335"/>
</g>
<!-- Node1168 -->
<g id="node5" class="node"><title>Node1168</title>
<g id="a_node5"><a xlink:href="ArrayCwiseUnaryOps_8h.html#a656b9217a2fcb6de59dc8d1eb3079cc7" target="_top" xlink:title="sqrt">
<polygon fill="none" stroke="black" points="201.5,-0.5 201.5,-19.5 236.5,-19.5 236.5,-0.5 201.5,-0.5"/>
<text text-anchor="middle" x="219" y="-7.5" font-family="Helvetica,sans-Serif" font-size="10.00">sqrt</text>
</a>
</g>
</g>
<!-- Node1164&#45;&gt;Node1168 -->
<g id="edge4" class="edge"><title>Node1164&#45;&gt;Node1168</title>
<path fill="none" stroke="midnightblue" d="M122.314,-24.721C146.22,-21.0431 172.466,-17.0052 191.414,-14.0902"/>
<polygon fill="midnightblue" stroke="midnightblue" points="192.039,-17.5352 201.391,-12.5553 190.975,-10.6166 192.039,-17.5352"/>
</g>
<!-- Node1166 -->
<g id="node3" class="node"><title>Node1166</title>
<g id="a_node3"><a xlink:href="Tutorial__commainit__01b_8cpp.html#a379f624db323dcf7558d0941192f3f91" target="_top" xlink:title="block">
<polygon fill="none" stroke="black" points="329,-68.5 329,-87.5 370,-87.5 370,-68.5 329,-68.5"/>
<text text-anchor="middle" x="349.5" y="-75.5" font-family="Helvetica,sans-Serif" font-size="10.00">block</text>
</a>
</g>
</g>
<!-- Node1165&#45;&gt;Node1166 -->
<g id="edge2" class="edge"><title>Node1165&#45;&gt;Node1166</title>
<path fill="none" stroke="midnightblue" d="M280.111,-67.8881C293.614,-69.8846 307.362,-71.9173 318.955,-73.6315"/>
<polygon fill="midnightblue" stroke="midnightblue" points="318.524,-77.1057 328.928,-75.1061 319.547,-70.1809 318.524,-77.1057"/>
</g>
<!-- Node1167 -->
<g id="node4" class="node"><title>Node1167</title>
<g id="a_node4"><a xlink:href="namespaceEigen.html#a32bc447a8f5140365c7ef5ac58ec774c" target="_top" xlink:title="Eigen::real">
<polygon fill="none" stroke="black" points="316,-30.5 316,-49.5 383,-49.5 383,-30.5 316,-30.5"/>
<text text-anchor="middle" x="349.5" y="-37.5" font-family="Helvetica,sans-Serif" font-size="10.00">Eigen::real</text>
</a>
</g>
</g>
<!-- Node1165&#45;&gt;Node1167 -->
<g id="edge3" class="edge"><title>Node1165&#45;&gt;Node1167</title>
<path fill="none" stroke="midnightblue" d="M280.111,-50.1119C288.746,-48.8352 297.48,-47.5438 305.688,-46.3302"/>
<polygon fill="midnightblue" stroke="midnightblue" points="306.374,-49.7669 315.755,-44.8417 305.35,-42.8422 306.374,-49.7669"/>
</g>
</g>
</svg>
