<?xml version="1.0" encoding="UTF-8" standalone="no"?>
<!DOCTYPE svg PUBLIC "-//W3C//DTD SVG 1.1//EN"
 "http://www.w3.org/Graphics/SVG/1.1/DTD/svg11.dtd">
<!-- Generated by graphviz version 2.38.0 (20140413.2041)
 -->
<!-- Title: Eigen::internal::pset1&lt; Packet8f &gt; Pages: 1 -->
<svg width="304pt" height="165pt"
 viewBox="0.00 0.00 304.00 165.00" xmlns="http://www.w3.org/2000/svg" xmlns:xlink="http://www.w3.org/1999/xlink">
<g id="graph0" class="graph" transform="scale(1 1) rotate(0) translate(4 161)">
<title>Eigen::internal::pset1&lt; Packet8f &gt;</title>
<!-- Node4586 -->
<g id="node1" class="node"><title>Node4586</title>
<polygon fill="#bfbfbf" stroke="black" points="0,-63.5 0,-93.5 118,-93.5 118,-63.5 0,-63.5"/>
<text text-anchor="start" x="8" y="-81.5" font-family="Helvetica,sans-Serif" font-size="10.00">Eigen::internal::pset1</text>
<text text-anchor="middle" x="59" y="-70.5" font-family="Helvetica,sans-Serif" font-size="10.00">&lt; Packet8f &gt;</text>
</g>
<!-- Node4587 -->
<g id="node2" class="node"><title>Node4587</title>
<g id="a_node2"><a xlink:href="namespaceEigen_1_1internal.html#aa287cf9beefe00a71e537d61ca5e374d" target="_top" xlink:title="Eigen::internal::pexp\l\&lt; Packet4d \&gt;">
<polygon fill="none" stroke="black" points="168,-126.5 168,-156.5 282,-156.5 282,-126.5 168,-126.5"/>
<text text-anchor="start" x="176" y="-144.5" font-family="Helvetica,sans-Serif" font-size="10.00">Eigen::internal::pexp</text>
<text text-anchor="middle" x="225" y="-133.5" font-family="Helvetica,sans-Serif" font-size="10.00">&lt; Packet4d &gt;</text>
</a>
</g>
</g>
<!-- Node4586&#45;&gt;Node4587 -->
<g id="edge1" class="edge"><title>Node4586&#45;&gt;Node4587</title>
<path fill="none" stroke="midnightblue" d="M106.153,-97.5978C121.341,-103.764 138.345,-110.543 154,-116.5 162.684,-119.804 172.02,-123.228 180.955,-126.441"/>
<polygon fill="midnightblue" stroke="midnightblue" points="107.049,-94.1833 96.4675,-93.6487 104.406,-100.665 107.049,-94.1833"/>
</g>
<!-- Node4588 -->
<g id="node3" class="node"><title>Node4588</title>
<g id="a_node3"><a xlink:href="namespaceEigen_1_1internal.html#a10dcda242af14e8a56d3ba1163d1d2e6" target="_top" xlink:title="Eigen::internal::pinsertfirst">
<polygon fill="none" stroke="black" points="154,-88 154,-107 296,-107 296,-88 154,-88"/>
<text text-anchor="middle" x="225" y="-95" font-family="Helvetica,sans-Serif" font-size="10.00">Eigen::internal::pinsertfirst</text>
</a>
</g>
</g>
<!-- Node4586&#45;&gt;Node4588 -->
<g id="edge2" class="edge"><title>Node4586&#45;&gt;Node4588</title>
<path fill="none" stroke="midnightblue" d="M128.408,-86.4254C136.81,-87.3987 145.407,-88.3947 153.834,-89.371"/>
<polygon fill="midnightblue" stroke="midnightblue" points="128.618,-82.9264 118.282,-85.2522 127.813,-89.8799 128.618,-82.9264"/>
</g>
<!-- Node4589 -->
<g id="node4" class="node"><title>Node4589</title>
<g id="a_node4"><a xlink:href="namespaceEigen_1_1internal.html#a664c45bfc9e2f141d98d7ea96ca2425e" target="_top" xlink:title="Eigen::internal::pinsertlast">
<polygon fill="none" stroke="black" points="154.5,-50 154.5,-69 295.5,-69 295.5,-50 154.5,-50"/>
<text text-anchor="middle" x="225" y="-57" font-family="Helvetica,sans-Serif" font-size="10.00">Eigen::internal::pinsertlast</text>
</a>
</g>
</g>
<!-- Node4586&#45;&gt;Node4589 -->
<g id="edge3" class="edge"><title>Node4586&#45;&gt;Node4589</title>
<path fill="none" stroke="midnightblue" d="M128.291,-70.5883C136.919,-69.5887 145.755,-68.565 154.403,-67.5631"/>
<polygon fill="midnightblue" stroke="midnightblue" points="127.813,-67.1201 118.282,-71.7478 128.618,-74.0736 127.813,-67.1201"/>
</g>
<!-- Node4590 -->
<g id="node5" class="node"><title>Node4590</title>
<g id="a_node5"><a xlink:href="namespaceEigen_1_1internal.html#a2ba31b602d511fce22f1049164c053d3" target="_top" xlink:title="Eigen::internal::pstore1\l\&lt; Packet8f \&gt;">
<polygon fill="none" stroke="black" points="161,-0.5 161,-30.5 289,-30.5 289,-0.5 161,-0.5"/>
<text text-anchor="start" x="169" y="-18.5" font-family="Helvetica,sans-Serif" font-size="10.00">Eigen::internal::pstore1</text>
<text text-anchor="middle" x="225" y="-7.5" font-family="Helvetica,sans-Serif" font-size="10.00">&lt; Packet8f &gt;</text>
</a>
</g>
</g>
<!-- Node4586&#45;&gt;Node4590 -->
<g id="edge4" class="edge"><title>Node4586&#45;&gt;Node4590</title>
<path fill="none" stroke="midnightblue" d="M106.153,-59.4022C121.341,-53.2356 138.345,-46.4569 154,-40.5 162.684,-37.1957 172.02,-33.7725 180.955,-30.5587"/>
<polygon fill="midnightblue" stroke="midnightblue" points="104.406,-56.3348 96.4675,-63.3513 107.049,-62.8167 104.406,-56.3348"/>
</g>
</g>
</svg>
