<?xml version="1.0" encoding="UTF-8" standalone="no"?>
<!DOCTYPE svg PUBLIC "-//W3C//DTD SVG 1.1//EN"
 "http://www.w3.org/Graphics/SVG/1.1/DTD/svg11.dtd">
<!-- Generated by graphviz version 2.38.0 (20140413.2041)
 -->
<!-- Title: Eigen::test_relative_error Pages: 1 -->
<svg width="813pt" height="261pt"
 viewBox="0.00 0.00 813.00 261.00" xmlns="http://www.w3.org/2000/svg" xmlns:xlink="http://www.w3.org/1999/xlink">
<g id="graph0" class="graph" transform="scale(1 1) rotate(0) translate(4 257)">
<title>Eigen::test_relative_error</title>
<!-- Node854 -->
<g id="node1" class="node"><title>Node854</title>
<polygon fill="#bfbfbf" stroke="black" points="0,-52 0,-82 108,-82 108,-52 0,-52"/>
<text text-anchor="start" x="8" y="-70" font-family="Helvetica,sans-Serif" font-size="10.00">Eigen::test_relative</text>
<text text-anchor="middle" x="54" y="-59" font-family="Helvetica,sans-Serif" font-size="10.00">_error</text>
</g>
<!-- Node855 -->
<g id="node2" class="node"><title>Node855</title>
<g id="a_node2"><a xlink:href="namespaceEigen.html#acd07ce1f29a08bc8835ad2652ad89175" target="_top" xlink:title="Eigen::test_relative\l_error">
<polygon fill="none" stroke="black" points="144,-52 144,-82 252,-82 252,-52 144,-52"/>
<text text-anchor="start" x="152" y="-70" font-family="Helvetica,sans-Serif" font-size="10.00">Eigen::test_relative</text>
<text text-anchor="middle" x="198" y="-59" font-family="Helvetica,sans-Serif" font-size="10.00">_error</text>
</a>
</g>
</g>
<!-- Node854&#45;&gt;Node855 -->
<g id="edge1" class="edge"><title>Node854&#45;&gt;Node855</title>
<path fill="none" stroke="midnightblue" d="M108.28,-67C116.56,-67 125.184,-67 133.661,-67"/>
<polygon fill="midnightblue" stroke="midnightblue" points="133.894,-70.5001 143.894,-67 133.894,-63.5001 133.894,-70.5001"/>
</g>
<!-- Node856 -->
<g id="node3" class="node"><title>Node856</title>
<g id="a_node3"><a xlink:href="MatrixCwiseUnaryOps_8h.html#a426713f88e0c1c0d6626fbadced4e9d7" target="_top" xlink:title="cwiseAbs2">
<polygon fill="none" stroke="black" points="325,-133.5 325,-152.5 391,-152.5 391,-133.5 325,-133.5"/>
<text text-anchor="middle" x="358" y="-140.5" font-family="Helvetica,sans-Serif" font-size="10.00">cwiseAbs2</text>
</a>
</g>
</g>
<!-- Node855&#45;&gt;Node856 -->
<g id="edge2" class="edge"><title>Node855&#45;&gt;Node856</title>
<path fill="none" stroke="midnightblue" d="M230.216,-82.0152C258.534,-95.6364 299.972,-115.569 327.684,-128.898"/>
<polygon fill="midnightblue" stroke="midnightblue" points="326.34,-132.136 336.869,-133.317 329.374,-125.828 326.34,-132.136"/>
</g>
<!-- Node866 -->
<g id="node13" class="node"><title>Node866</title>
<g id="a_node13"><a xlink:href="structEigen_1_1EigenBase.html#a324b16961a11d2ecfd2d1b7dd7946545" target="_top" xlink:title="Eigen::EigenBase::derived">
<polygon fill="none" stroke="black" points="288,-38.5 288,-57.5 428,-57.5 428,-38.5 288,-38.5"/>
<text text-anchor="middle" x="358" y="-45.5" font-family="Helvetica,sans-Serif" font-size="10.00">Eigen::EigenBase::derived</text>
</a>
</g>
</g>
<!-- Node855&#45;&gt;Node866 -->
<g id="edge12" class="edge"><title>Node855&#45;&gt;Node866</title>
<path fill="none" stroke="midnightblue" d="M252.051,-60.6204C260.299,-59.6286 268.971,-58.5857 277.649,-57.5422"/>
<polygon fill="midnightblue" stroke="midnightblue" points="278.303,-60.9888 287.814,-56.3199 277.467,-54.0389 278.303,-60.9888"/>
</g>
<!-- Node867 -->
<g id="node14" class="node"><title>Node867</title>
<g id="a_node14"><a xlink:href="ArrayCwiseUnaryOps_8h.html#a656b9217a2fcb6de59dc8d1eb3079cc7" target="_top" xlink:title="sqrt">
<polygon fill="none" stroke="black" points="340.5,-0.5 340.5,-19.5 375.5,-19.5 375.5,-0.5 340.5,-0.5"/>
<text text-anchor="middle" x="358" y="-7.5" font-family="Helvetica,sans-Serif" font-size="10.00">sqrt</text>
</a>
</g>
</g>
<!-- Node855&#45;&gt;Node867 -->
<g id="edge13" class="edge"><title>Node855&#45;&gt;Node867</title>
<path fill="none" stroke="midnightblue" d="M231.552,-51.8512C248.222,-44.4148 268.967,-35.6496 288,-29 301.883,-24.1495 317.678,-19.7228 330.65,-16.3648"/>
<polygon fill="midnightblue" stroke="midnightblue" points="331.518,-19.7554 340.357,-13.9132 329.804,-12.9685 331.518,-19.7554"/>
</g>
<!-- Node868 -->
<g id="node15" class="node"><title>Node868</title>
<g id="a_node15"><a xlink:href="namespacempfr.html#ae94ad8b45bc3c448549d7c094e7f24fd" target="_top" xlink:title="mpfr::sum">
<polygon fill="none" stroke="black" points="464,-66.5 464,-85.5 530,-85.5 530,-66.5 464,-66.5"/>
<text text-anchor="middle" x="497" y="-73.5" font-family="Helvetica,sans-Serif" font-size="10.00">mpfr::sum</text>
</a>
</g>
</g>
<!-- Node855&#45;&gt;Node868 -->
<g id="edge14" class="edge"><title>Node855&#45;&gt;Node868</title>
<path fill="none" stroke="midnightblue" d="M252.098,-68.609C309.818,-70.3581 400.885,-73.1177 453.886,-74.7238"/>
<polygon fill="midnightblue" stroke="midnightblue" points="453.856,-78.2244 463.958,-75.029 454.069,-71.2276 453.856,-78.2244"/>
</g>
<!-- Node857 -->
<g id="node4" class="node"><title>Node857</title>
<g id="a_node4"><a xlink:href="MatrixCwiseUnaryOps_8h.html#a0e379b45253546d07dcea81d8588297e" target="_top" xlink:title="cwiseSqrt">
<polygon fill="none" stroke="black" points="466,-180.5 466,-199.5 528,-199.5 528,-180.5 466,-180.5"/>
<text text-anchor="middle" x="497" y="-187.5" font-family="Helvetica,sans-Serif" font-size="10.00">cwiseSqrt</text>
</a>
</g>
</g>
<!-- Node856&#45;&gt;Node857 -->
<g id="edge3" class="edge"><title>Node856&#45;&gt;Node857</title>
<path fill="none" stroke="midnightblue" d="M386.724,-152.511C407.293,-159.568 435.573,-169.27 458.211,-177.036"/>
<polygon fill="midnightblue" stroke="midnightblue" points="457.252,-180.407 467.847,-180.342 459.524,-173.786 457.252,-180.407"/>
</g>
<!-- Node862 -->
<g id="node9" class="node"><title>Node862</title>
<g id="a_node9"><a xlink:href="namespacempfr.html#ad838087b4c59a17f714c4da9984aea66" target="_top" xlink:title="mpfr::root">
<polygon fill="none" stroke="black" points="464.5,-142.5 464.5,-161.5 529.5,-161.5 529.5,-142.5 464.5,-142.5"/>
<text text-anchor="middle" x="497" y="-149.5" font-family="Helvetica,sans-Serif" font-size="10.00">mpfr::root</text>
</a>
</g>
</g>
<!-- Node856&#45;&gt;Node862 -->
<g id="edge8" class="edge"><title>Node856&#45;&gt;Node862</title>
<path fill="none" stroke="midnightblue" d="M391.12,-145.11C409.843,-146.34 433.674,-147.906 453.887,-149.233"/>
<polygon fill="midnightblue" stroke="midnightblue" points="453.873,-152.74 464.081,-149.903 454.332,-145.755 453.873,-152.74"/>
</g>
<!-- Node865 -->
<g id="node12" class="node"><title>Node865</title>
<g id="a_node12"><a xlink:href="ArrayCwiseUnaryOps_8h.html#aa1e484838873e960b8c8ba7e066ba837" target="_top" xlink:title="square">
<polygon fill="none" stroke="black" points="472,-104.5 472,-123.5 522,-123.5 522,-104.5 472,-104.5"/>
<text text-anchor="middle" x="497" y="-111.5" font-family="Helvetica,sans-Serif" font-size="10.00">square</text>
</a>
</g>
</g>
<!-- Node856&#45;&gt;Node865 -->
<g id="edge11" class="edge"><title>Node856&#45;&gt;Node865</title>
<path fill="none" stroke="midnightblue" d="M391.12,-136.201C412.326,-131.712 440.084,-125.836 461.716,-121.257"/>
<polygon fill="midnightblue" stroke="midnightblue" points="462.73,-124.62 471.788,-119.125 461.28,-117.772 462.73,-124.62"/>
</g>
<!-- Node858 -->
<g id="node5" class="node"><title>Node858</title>
<g id="a_node5"><a xlink:href="MatrixCwiseUnaryOps_8h.html#a92d50e5a414332785a7e6b6ff406198c" target="_top" xlink:title="cwiseSign">
<polygon fill="none" stroke="black" points="597.5,-214.5 597.5,-233.5 660.5,-233.5 660.5,-214.5 597.5,-214.5"/>
<text text-anchor="middle" x="629" y="-221.5" font-family="Helvetica,sans-Serif" font-size="10.00">cwiseSign</text>
</a>
</g>
</g>
<!-- Node857&#45;&gt;Node858 -->
<g id="edge4" class="edge"><title>Node857&#45;&gt;Node858</title>
<path fill="none" stroke="midnightblue" d="M528.151,-197.886C545.78,-202.496 568.265,-208.377 587.432,-213.39"/>
<polygon fill="midnightblue" stroke="midnightblue" points="586.549,-216.777 597.109,-215.921 588.32,-210.004 586.549,-216.777"/>
</g>
<!-- Node861 -->
<g id="node8" class="node"><title>Node861</title>
<g id="a_node8"><a xlink:href="ArrayCwiseUnaryOps_8h.html#a281eccb624a3ff6dacbe305828e43a82" target="_top" xlink:title="sign">
<polygon fill="none" stroke="black" points="611,-176.5 611,-195.5 647,-195.5 647,-176.5 611,-176.5"/>
<text text-anchor="middle" x="629" y="-183.5" font-family="Helvetica,sans-Serif" font-size="10.00">sign</text>
</a>
</g>
</g>
<!-- Node857&#45;&gt;Node861 -->
<g id="edge7" class="edge"><title>Node857&#45;&gt;Node861</title>
<path fill="none" stroke="midnightblue" d="M528.151,-189.072C549.996,-188.4 579.296,-187.499 600.501,-186.846"/>
<polygon fill="midnightblue" stroke="midnightblue" points="600.883,-190.336 610.771,-186.53 600.668,-183.339 600.883,-190.336"/>
</g>
<!-- Node859 -->
<g id="node6" class="node"><title>Node859</title>
<g id="a_node6"><a xlink:href="MatrixCwiseUnaryOps_8h.html#a71265e72c85a2d90d349543171b150cb" target="_top" xlink:title="cwiseInverse">
<polygon fill="none" stroke="black" points="728,-233.5 728,-252.5 805,-252.5 805,-233.5 728,-233.5"/>
<text text-anchor="middle" x="766.5" y="-240.5" font-family="Helvetica,sans-Serif" font-size="10.00">cwiseInverse</text>
</a>
</g>
</g>
<!-- Node858&#45;&gt;Node859 -->
<g id="edge5" class="edge"><title>Node858&#45;&gt;Node859</title>
<path fill="none" stroke="midnightblue" d="M660.747,-228.311C677.559,-230.669 698.755,-233.641 717.676,-236.294"/>
<polygon fill="midnightblue" stroke="midnightblue" points="717.229,-239.765 727.618,-237.688 718.201,-232.833 717.229,-239.765"/>
</g>
<!-- Node860 -->
<g id="node7" class="node"><title>Node860</title>
<g id="a_node7"><a xlink:href="ArrayCwiseUnaryOps_8h.html#ab3df1b08b9c073db2a7e61a9b06bb295" target="_top" xlink:title="inverse">
<polygon fill="none" stroke="black" points="741,-195.5 741,-214.5 792,-214.5 792,-195.5 741,-195.5"/>
<text text-anchor="middle" x="766.5" y="-202.5" font-family="Helvetica,sans-Serif" font-size="10.00">inverse</text>
</a>
</g>
</g>
<!-- Node858&#45;&gt;Node860 -->
<g id="edge6" class="edge"><title>Node858&#45;&gt;Node860</title>
<path fill="none" stroke="midnightblue" d="M660.747,-219.689C681.549,-216.772 709.064,-212.914 730.674,-209.883"/>
<polygon fill="midnightblue" stroke="midnightblue" points="731.336,-213.325 740.753,-208.47 730.364,-206.393 731.336,-213.325"/>
</g>
<!-- Node863 -->
<g id="node10" class="node"><title>Node863</title>
<g id="a_node10"><a xlink:href="classmpfr_1_1mpreal.html#a566f64ca066c54923d19c11d6c3d15cd" target="_top" xlink:title="mpfr::mpreal::mpfr\l_srcptr">
<polygon fill="none" stroke="black" points="575.5,-77 575.5,-107 682.5,-107 682.5,-77 575.5,-77"/>
<text text-anchor="start" x="583.5" y="-95" font-family="Helvetica,sans-Serif" font-size="10.00">mpfr::mpreal::mpfr</text>
<text text-anchor="middle" x="629" y="-84" font-family="Helvetica,sans-Serif" font-size="10.00">_srcptr</text>
</a>
</g>
</g>
<!-- Node862&#45;&gt;Node863 -->
<g id="edge9" class="edge"><title>Node862&#45;&gt;Node863</title>
<path fill="none" stroke="midnightblue" d="M518.599,-142.493C536.641,-134.166 563.425,-121.804 585.975,-111.396"/>
<polygon fill="midnightblue" stroke="midnightblue" points="587.729,-114.441 595.342,-107.073 584.796,-108.086 587.729,-114.441"/>
</g>
<!-- Node864 -->
<g id="node11" class="node"><title>Node864</title>
<g id="a_node11"><a xlink:href="classmpfr_1_1mpreal.html#af4e3b56888463376c675cac70b6ceca3" target="_top" xlink:title="mpfr::mpreal::mpfr_ptr">
<polygon fill="none" stroke="black" points="566,-134.5 566,-153.5 692,-153.5 692,-134.5 566,-134.5"/>
<text text-anchor="middle" x="629" y="-141.5" font-family="Helvetica,sans-Serif" font-size="10.00">mpfr::mpreal::mpfr_ptr</text>
</a>
</g>
</g>
<!-- Node862&#45;&gt;Node864 -->
<g id="edge10" class="edge"><title>Node862&#45;&gt;Node864</title>
<path fill="none" stroke="midnightblue" d="M529.802,-150.043C537.721,-149.556 546.539,-149.013 555.55,-148.458"/>
<polygon fill="midnightblue" stroke="midnightblue" points="556.003,-151.937 565.769,-147.83 555.573,-144.951 556.003,-151.937"/>
</g>
<!-- Node868&#45;&gt;Node863 -->
<g id="edge15" class="edge"><title>Node868&#45;&gt;Node863</title>
<path fill="none" stroke="midnightblue" d="M530.135,-79.9551C540.826,-81.2709 553.126,-82.7848 565.318,-84.2853"/>
<polygon fill="midnightblue" stroke="midnightblue" points="565.143,-87.7901 575.496,-85.5379 565.998,-80.8425 565.143,-87.7901"/>
</g>
<!-- Node868&#45;&gt;Node864 -->
<g id="edge16" class="edge"><title>Node868&#45;&gt;Node864</title>
<path fill="none" stroke="midnightblue" d="M514.303,-85.6258C519.343,-88.6163 524.908,-91.9328 530,-95 546.062,-104.676 549.365,-108.347 566,-117 575.122,-121.745 585.258,-126.403 594.648,-130.479"/>
<polygon fill="midnightblue" stroke="midnightblue" points="593.517,-133.801 604.089,-134.494 596.257,-127.359 593.517,-133.801"/>
</g>
</g>
</svg>
