<?xml version="1.0" encoding="UTF-8" standalone="no"?>
<!DOCTYPE svg PUBLIC "-//W3C//DTD SVG 1.1//EN"
 "http://www.w3.org/Graphics/SVG/1.1/DTD/svg11.dtd">
<!-- Generated by graphviz version 2.38.0 (20140413.2041)
 -->
<!-- Title: Eigen::umfpack_get_determinant Pages: 1 -->
<svg width="509pt" height="39pt"
 viewBox="0.00 0.00 509.00 39.00" xmlns="http://www.w3.org/2000/svg" xmlns:xlink="http://www.w3.org/1999/xlink">
<g id="graph0" class="graph" transform="scale(1 1) rotate(0) translate(4 35)">
<title>Eigen::umfpack_get_determinant</title>
<!-- Node1037 -->
<g id="node1" class="node"><title>Node1037</title>
<polygon fill="#bfbfbf" stroke="black" points="0,-0.5 0,-30.5 111,-30.5 111,-0.5 0,-0.5"/>
<text text-anchor="start" x="8" y="-18.5" font-family="Helvetica,sans-Serif" font-size="10.00">Eigen::umfpack_get</text>
<text text-anchor="middle" x="55.5" y="-7.5" font-family="Helvetica,sans-Serif" font-size="10.00">_determinant</text>
</g>
<!-- Node1038 -->
<g id="node2" class="node"><title>Node1038</title>
<g id="a_node2"><a xlink:href="classEigen_1_1UmfPackLU.html#a4a1635ee0ee23302df3c9ba24bc92f00" target="_top" xlink:title="Eigen::UmfPackLU::determinant">
<polygon fill="none" stroke="black" points="147,-6 147,-25 315,-25 315,-6 147,-6"/>
<text text-anchor="middle" x="231" y="-13" font-family="Helvetica,sans-Serif" font-size="10.00">Eigen::UmfPackLU::determinant</text>
</a>
</g>
</g>
<!-- Node1037&#45;&gt;Node1038 -->
<g id="edge1" class="edge"><title>Node1037&#45;&gt;Node1038</title>
<path fill="none" stroke="midnightblue" d="M121.399,-15.5C129.735,-15.5 138.359,-15.5 146.934,-15.5"/>
<polygon fill="midnightblue" stroke="midnightblue" points="121.397,-12.0001 111.396,-15.5 121.396,-19.0001 121.397,-12.0001"/>
</g>
<!-- Node1039 -->
<g id="node3" class="node"><title>Node1039</title>
<g id="a_node3"><a xlink:href="classEigen_1_1UmfPackLU.html#a82497bbf75d995a6d4ae7e9191f79525" target="_top" xlink:title="Eigen::UmfPackLU::umfpack\lReportStatus">
<polygon fill="none" stroke="black" points="351,-0.5 351,-30.5 501,-30.5 501,-0.5 351,-0.5"/>
<text text-anchor="start" x="359" y="-18.5" font-family="Helvetica,sans-Serif" font-size="10.00">Eigen::UmfPackLU::umfpack</text>
<text text-anchor="middle" x="426" y="-7.5" font-family="Helvetica,sans-Serif" font-size="10.00">ReportStatus</text>
</a>
</g>
</g>
<!-- Node1038&#45;&gt;Node1039 -->
<g id="edge2" class="edge"><title>Node1038&#45;&gt;Node1039</title>
<path fill="none" stroke="midnightblue" d="M325.283,-15.5C333.857,-15.5 342.465,-15.5 350.836,-15.5"/>
<polygon fill="midnightblue" stroke="midnightblue" points="325.25,-12.0001 315.25,-15.5 325.25,-19.0001 325.25,-12.0001"/>
</g>
</g>
</svg>
