<?xml version="1.0" encoding="UTF-8" standalone="no"?>
<!DOCTYPE svg PUBLIC "-//W3C//DTD SVG 1.1//EN"
 "http://www.w3.org/Graphics/SVG/1.1/DTD/svg11.dtd">
<!-- Generated by graphviz version 2.38.0 (20140413.2041)
 -->
<!-- Title: Eigen::internal::pand&lt; Packet2d &gt; Pages: 1 -->
<svg width="284pt" height="66pt"
 viewBox="0.00 0.00 284.00 66.00" xmlns="http://www.w3.org/2000/svg" xmlns:xlink="http://www.w3.org/1999/xlink">
<g id="graph0" class="graph" transform="scale(1 1) rotate(0) translate(4 62)">
<title>Eigen::internal::pand&lt; Packet2d &gt;</title>
<!-- Node1659 -->
<g id="node1" class="node"><title>Node1659</title>
<polygon fill="#bfbfbf" stroke="black" points="0,-14 0,-44 115,-44 115,-14 0,-14"/>
<text text-anchor="start" x="8" y="-32" font-family="Helvetica,sans-Serif" font-size="10.00">Eigen::internal::pand</text>
<text text-anchor="middle" x="57.5" y="-21" font-family="Helvetica,sans-Serif" font-size="10.00">&lt; Packet2d &gt;</text>
</g>
<!-- Node1660 -->
<g id="node2" class="node"><title>Node1660</title>
<g id="a_node2"><a xlink:href="namespaceEigen_1_1internal.html#abaadd9aa6aafdf268f71646684340302" target="_top" xlink:title="Eigen::internal::pblend">
<polygon fill="none" stroke="black" points="152,-38.5 152,-57.5 275,-57.5 275,-38.5 152,-38.5"/>
<text text-anchor="middle" x="213.5" y="-45.5" font-family="Helvetica,sans-Serif" font-size="10.00">Eigen::internal::pblend</text>
</a>
</g>
</g>
<!-- Node1659&#45;&gt;Node1660 -->
<g id="edge1" class="edge"><title>Node1659&#45;&gt;Node1660</title>
<path fill="none" stroke="midnightblue" d="M125.591,-37.2775C134.359,-38.3592 143.301,-39.4624 151.952,-40.5298"/>
<polygon fill="midnightblue" stroke="midnightblue" points="125.76,-33.7718 115.406,-36.0209 124.903,-40.7191 125.76,-33.7718"/>
</g>
<!-- Node1661 -->
<g id="node3" class="node"><title>Node1661</title>
<g id="a_node3"><a xlink:href="namespaceEigen_1_1internal.html#abdf0ea7e126fdf116b7e4d9200f7a90f" target="_top" xlink:title="Eigen::internal::pmadd">
<polygon fill="none" stroke="black" points="151,-0.5 151,-19.5 276,-19.5 276,-0.5 151,-0.5"/>
<text text-anchor="middle" x="213.5" y="-7.5" font-family="Helvetica,sans-Serif" font-size="10.00">Eigen::internal::pmadd</text>
</a>
</g>
</g>
<!-- Node1659&#45;&gt;Node1661 -->
<g id="edge2" class="edge"><title>Node1659&#45;&gt;Node1661</title>
<path fill="none" stroke="midnightblue" d="M125.572,-20.7248C133.995,-19.6857 142.579,-18.6266 150.911,-17.5986"/>
<polygon fill="midnightblue" stroke="midnightblue" points="124.903,-17.2809 115.406,-21.9791 125.76,-24.2282 124.903,-17.2809"/>
</g>
</g>
</svg>
