<?xml version="1.0" encoding="UTF-8" standalone="no"?>
<!DOCTYPE svg PUBLIC "-//W3C//DTD SVG 1.1//EN"
 "http://www.w3.org/Graphics/SVG/1.1/DTD/svg11.dtd">
<!-- Generated by graphviz version 2.38.0 (20140413.2041)
 -->
<!-- Title: Eigen::createRandomPIMatrixOfRank Pages: 1 -->
<!--zoomable 389 -->
<svg id="main" version="1.1" xmlns="http://www.w3.org/2000/svg" xmlns:xlink="http://www.w3.org/1999/xlink" xml:space="preserve" onload="init(evt)">
<style type="text/css"><![CDATA[
.edge:hover path { stroke: red; }
.edge:hover polygon { stroke: red; fill: red; }
]]></style>
<script type="text/javascript"><![CDATA[
var edges = document.getElementsByTagName('g');
if (edges && edges.length) {
  for (var i=0;i<edges.length;i++) {
    if (edges[i].id.substr(0,4)=='edge') {
      edges[i].setAttribute('class','edge');
    }
  }
}
]]></script>
        <defs>
                <circle id="rim" cx="0" cy="0" r="7"/>
                <circle id="rim2" cx="0" cy="0" r="3.5"/>
                <g id="zoomPlus">
                        <use xlink:href="#rim" fill="#404040">
                                <set attributeName="fill" to="#808080" begin="zoomplus.mouseover" end="zoomplus.mouseout"/>
                        </use>
                        <path d="M-4,0h8M0,-4v8" fill="none" stroke="white" stroke-width="1.5" pointer-events="none"/>
                </g>
                <g id="zoomMin">
                        <use xlink:href="#rim" fill="#404040">
                                <set attributeName="fill" to="#808080" begin="zoomminus.mouseover" end="zoomminus.mouseout"/>
                        </use>
                        <path d="M-4,0h8" fill="none" stroke="white" stroke-width="1.5" pointer-events="none"/>
                </g>
                <g id="dirArrow">
                        <path fill="none" stroke="white" stroke-width="1.5" d="M0,-3.0v7 M-2.5,-0.5L0,-3.0L2.5,-0.5"/>
                </g>
               <g id="resetDef">
                       <use xlink:href="#rim2" fill="#404040">
                               <set attributeName="fill" to="#808080" begin="reset.mouseover" end="reset.mouseout"/>
                       </use>
               </g>
        </defs>

<script type="text/javascript">
var viewWidth = 618;
var viewHeight = 389;
var sectionId = 'dynsection-23';
</script>
<script xlink:href="svgpan.js"/>
<svg id="graph" class="graph">
<g id="viewport">
<title>Eigen::createRandomPIMatrixOfRank</title>
<!-- Node163 -->
<g id="node1" class="node"><title>Node163</title>
<polygon fill="#bfbfbf" stroke="black" points="0,-223 0,-253 157,-253 157,-223 0,-223"/>
<text text-anchor="start" x="8" y="-241" font-family="Helvetica,sans-Serif" font-size="10.00">Eigen::createRandomPIMatrix</text>
<text text-anchor="middle" x="78.5" y="-230" font-family="Helvetica,sans-Serif" font-size="10.00">OfRank</text>
</g>
<!-- Node164 -->
<g id="node2" class="node"><title>Node164</title>
<g id="a_node2"><a xlink:href="qr__colpivoting_8cpp.html#ab01bcdcb9896ed2aeb4fce98119a012d" target="_top" xlink:title="cod">
<polygon fill="none" stroke="black" points="232,-361.5 232,-380.5 266,-380.5 266,-361.5 232,-361.5"/>
<text text-anchor="middle" x="249" y="-368.5" font-family="Helvetica,sans-Serif" font-size="10.00">cod</text>
</a>
</g>
</g>
<!-- Node163&#45;&gt;Node164 -->
<g id="edge1" class="edge"><title>Node163&#45;&gt;Node164</title>
<path fill="none" stroke="midnightblue" d="M98.6864,-260.692C119.843,-284.617 155.838,-322.208 193,-347 205.133,-355.094 220.445,-361.513 231.83,-365.668"/>
<polygon fill="midnightblue" stroke="midnightblue" points="101.311,-258.376 92.0999,-253.141 96.0353,-262.978 101.311,-258.376"/>
</g>
<!-- Node166 -->
<g id="node4" class="node"><title>Node166</title>
<g id="a_node4"><a xlink:href="qr__colpivoting_8cpp.html#ad8fd13db943a2d9cc9efbd4a20365bf5" target="_top" xlink:title="cod_fixedsize">
<polygon fill="none" stroke="black" points="361,-323.5 361,-342.5 441,-342.5 441,-323.5 361,-323.5"/>
<text text-anchor="middle" x="401" y="-330.5" font-family="Helvetica,sans-Serif" font-size="10.00">cod_fixedsize</text>
</a>
</g>
</g>
<!-- Node163&#45;&gt;Node166 -->
<g id="edge4" class="edge"><title>Node163&#45;&gt;Node166</title>
<path fill="none" stroke="midnightblue" d="M103.815,-259.604C125.548,-277.538 159.11,-301.982 193,-314 248.782,-333.781 318.046,-336.015 360.625,-335.066"/>
<polygon fill="midnightblue" stroke="midnightblue" points="105.99,-256.86 96.0885,-253.089 101.477,-262.211 105.99,-256.86"/>
</g>
<!-- Node167 -->
<g id="node5" class="node"><title>Node167</title>
<g id="a_node5"><a xlink:href="inverse_8cpp.html#a0685e8ea74c2e85ea8ad3253f567107f" target="_top" xlink:title="inverse">
<polygon fill="none" stroke="black" points="223.5,-285.5 223.5,-304.5 274.5,-304.5 274.5,-285.5 223.5,-285.5"/>
<text text-anchor="middle" x="249" y="-292.5" font-family="Helvetica,sans-Serif" font-size="10.00">inverse</text>
</a>
</g>
</g>
<!-- Node163&#45;&gt;Node167 -->
<g id="edge5" class="edge"><title>Node163&#45;&gt;Node167</title>
<path fill="none" stroke="midnightblue" d="M133.779,-256.361C163.953,-266.569 200.025,-278.771 223.444,-286.693"/>
<polygon fill="midnightblue" stroke="midnightblue" points="134.807,-253.014 124.213,-253.125 132.564,-259.645 134.807,-253.014"/>
</g>
<!-- Node168 -->
<g id="node6" class="node"><title>Node168</title>
<g id="a_node6"><a xlink:href="test_2lu_8cpp.html#af8b90dd33431d04306d5c675952d4591" target="_top" xlink:title="lu_non_invertible">
<polygon fill="none" stroke="black" points="200.5,-247.5 200.5,-266.5 297.5,-266.5 297.5,-247.5 200.5,-247.5"/>
<text text-anchor="middle" x="249" y="-254.5" font-family="Helvetica,sans-Serif" font-size="10.00">lu_non_invertible</text>
</a>
</g>
</g>
<!-- Node163&#45;&gt;Node168 -->
<g id="edge6" class="edge"><title>Node163&#45;&gt;Node168</title>
<path fill="none" stroke="midnightblue" d="M167.321,-247.903C178.679,-249.183 189.951,-250.454 200.308,-251.622"/>
<polygon fill="midnightblue" stroke="midnightblue" points="167.667,-244.42 157.338,-246.777 166.883,-251.376 167.667,-244.42"/>
</g>
<!-- Node169 -->
<g id="node7" class="node"><title>Node169</title>
<g id="a_node7"><a xlink:href="qr__colpivoting_8cpp.html#a234047f1d6b0303293c8918968a9670e" target="_top" xlink:title="qr">
<polygon fill="none" stroke="black" points="234.5,-171.5 234.5,-190.5 263.5,-190.5 263.5,-171.5 234.5,-171.5"/>
<text text-anchor="middle" x="249" y="-178.5" font-family="Helvetica,sans-Serif" font-size="10.00">qr</text>
</a>
</g>
</g>
<!-- Node163&#45;&gt;Node169 -->
<g id="edge7" class="edge"><title>Node163&#45;&gt;Node169</title>
<path fill="none" stroke="midnightblue" d="M133.925,-219.589C169.202,-207.656 212.488,-193.013 234.198,-185.669"/>
<polygon fill="midnightblue" stroke="midnightblue" points="132.564,-216.355 124.213,-222.875 134.807,-222.986 132.564,-216.355"/>
</g>
<!-- Node170 -->
<g id="node8" class="node"><title>Node170</title>
<g id="a_node8"><a xlink:href="qr__colpivoting_8cpp.html#ad5c305e7d9c3fd6abc3950b0edb0cc0c" target="_top" xlink:title="qr_fixedsize">
<polygon fill="none" stroke="black" points="364.5,-266.5 364.5,-285.5 437.5,-285.5 437.5,-266.5 364.5,-266.5"/>
<text text-anchor="middle" x="401" y="-273.5" font-family="Helvetica,sans-Serif" font-size="10.00">qr_fixedsize</text>
</a>
</g>
</g>
<!-- Node163&#45;&gt;Node170 -->
<g id="edge12" class="edge"><title>Node163&#45;&gt;Node170</title>
<path fill="none" stroke="midnightblue" d="M167.054,-228.279C209.318,-226.035 260.409,-226.955 305,-238 322.561,-242.35 324.327,-249.978 341,-257 349.232,-260.467 358.327,-263.682 366.862,-266.446"/>
<polygon fill="midnightblue" stroke="midnightblue" points="166.841,-224.786 157.068,-228.876 167.259,-231.773 166.841,-224.786"/>
</g>
<!-- Node174 -->
<g id="node12" class="node"><title>Node174</title>
<g id="a_node12"><a xlink:href="svd__fill_8h.html#a19396409f47b0f885449f3d0005fa11d" target="_top" xlink:title="svd_fill_random">
<polygon fill="none" stroke="black" points="203.5,-95.5 203.5,-114.5 294.5,-114.5 294.5,-95.5 203.5,-95.5"/>
<text text-anchor="middle" x="249" y="-102.5" font-family="Helvetica,sans-Serif" font-size="10.00">svd_fill_random</text>
</a>
</g>
</g>
<!-- Node163&#45;&gt;Node174 -->
<g id="edge13" class="edge"><title>Node163&#45;&gt;Node174</title>
<path fill="none" stroke="midnightblue" d="M106.728,-216.509C143.759,-187.279 208.486,-136.189 235.55,-114.827"/>
<polygon fill="midnightblue" stroke="midnightblue" points="104.51,-213.8 98.8291,-222.743 108.847,-219.295 104.51,-213.8"/>
</g>
<!-- Node179 -->
<g id="node17" class="node"><title>Node179</title>
<g id="a_node17"><a xlink:href="namespaceEigen.html#a093442939f1f6fa45fd216dbdd93c286" target="_top" xlink:title="Eigen::test_is_equal">
<polygon fill="none" stroke="black" points="193,-19.5 193,-38.5 305,-38.5 305,-19.5 193,-19.5"/>
<text text-anchor="middle" x="249" y="-26.5" font-family="Helvetica,sans-Serif" font-size="10.00">Eigen::test_is_equal</text>
</a>
</g>
</g>
<!-- Node163&#45;&gt;Node179 -->
<g id="edge21" class="edge"><title>Node163&#45;&gt;Node179</title>
<path fill="none" stroke="midnightblue" d="M95.6106,-214.561C116.863,-184.092 155.922,-129.624 193,-86 207.784,-68.6065 226.521,-49.8033 237.868,-38.7321"/>
<polygon fill="midnightblue" stroke="midnightblue" points="92.6847,-212.638 89.8567,-222.849 98.4348,-216.63 92.6847,-212.638"/>
</g>
<!-- Node165 -->
<g id="node3" class="node"><title>Node165</title>
<g id="a_node3"><a xlink:href="dense__solvers_8cpp.html#a578ba2d5aea4aaa8751e7311d8384181" target="_top" xlink:title="bench">
<polygon fill="none" stroke="black" points="530.5,-237.5 530.5,-256.5 576.5,-256.5 576.5,-237.5 530.5,-237.5"/>
<text text-anchor="middle" x="553.5" y="-244.5" font-family="Helvetica,sans-Serif" font-size="10.00">bench</text>
</a>
</g>
</g>
<!-- Node164&#45;&gt;Node165 -->
<g id="edge2" class="edge"><title>Node164&#45;&gt;Node165</title>
<path fill="none" stroke="midnightblue" d="M276.343,-374.633C318.043,-379.118 400.704,-382.773 461,-352 504.074,-330.017 535.692,-278.296 547.464,-256.719"/>
<polygon fill="midnightblue" stroke="midnightblue" points="276.531,-371.131 266.19,-373.435 275.711,-378.083 276.531,-371.131"/>
</g>
<!-- Node164&#45;&gt;Node166 -->
<g id="edge3" class="edge"><title>Node164&#45;&gt;Node166</title>
<path fill="none" stroke="midnightblue" d="M275.793,-364.466C299.644,-358.424 335.378,-349.371 362.403,-342.525"/>
<polygon fill="midnightblue" stroke="midnightblue" points="274.887,-361.085 266.053,-366.933 276.606,-367.87 274.887,-361.085"/>
</g>
<!-- Node169&#45;&gt;Node170 -->
<g id="edge8" class="edge"><title>Node169&#45;&gt;Node170</title>
<path fill="none" stroke="midnightblue" d="M273.527,-187.997C283.918,-191.871 295.828,-197.455 305,-205 326.708,-222.857 318.427,-240.249 341,-257 347.913,-262.13 356.268,-265.909 364.487,-268.681"/>
<polygon fill="midnightblue" stroke="midnightblue" points="274.396,-184.595 263.801,-184.684 272.139,-191.221 274.396,-184.595"/>
</g>
<!-- Node171 -->
<g id="node9" class="node"><title>Node171</title>
<g id="a_node9"><a xlink:href="qr__colpivoting_8cpp.html#a9bfcf72d1c319774f027d3446dc121dd" target="_top" xlink:title="qr_invertible">
<polygon fill="none" stroke="black" points="363.5,-228.5 363.5,-247.5 438.5,-247.5 438.5,-228.5 363.5,-228.5"/>
<text text-anchor="middle" x="401" y="-235.5" font-family="Helvetica,sans-Serif" font-size="10.00">qr_invertible</text>
</a>
</g>
</g>
<!-- Node169&#45;&gt;Node171 -->
<g id="edge9" class="edge"><title>Node169&#45;&gt;Node171</title>
<path fill="none" stroke="midnightblue" d="M272.988,-191.23C291.26,-199.207 317.555,-210.347 341,-219 349.884,-222.279 359.632,-225.549 368.6,-228.428"/>
<polygon fill="midnightblue" stroke="midnightblue" points="274.295,-187.981 263.732,-187.159 271.477,-194.389 274.295,-187.981"/>
</g>
<!-- Node172 -->
<g id="node10" class="node"><title>Node172</title>
<g id="a_node10"><a xlink:href="qr__colpivoting_8cpp.html#ab3860b0a2f15587340091be81254d208" target="_top" xlink:title="qr_kahan_matrix">
<polygon fill="none" stroke="black" points="352.5,-190.5 352.5,-209.5 449.5,-209.5 449.5,-190.5 352.5,-190.5"/>
<text text-anchor="middle" x="401" y="-197.5" font-family="Helvetica,sans-Serif" font-size="10.00">qr_kahan_matrix</text>
</a>
</g>
</g>
<!-- Node169&#45;&gt;Node172 -->
<g id="edge10" class="edge"><title>Node169&#45;&gt;Node172</title>
<path fill="none" stroke="midnightblue" d="M273.559,-183.984C294.629,-186.653 326.153,-190.646 352.452,-193.977"/>
<polygon fill="midnightblue" stroke="midnightblue" points="273.937,-180.504 263.576,-182.72 273.057,-187.449 273.937,-180.504"/>
</g>
<!-- Node173 -->
<g id="node11" class="node"><title>Node173</title>
<g id="a_node11"><a xlink:href="qr__colpivoting_8cpp.html#a6693811f52bc269d1ec52b3ec57d8da2" target="_top" xlink:title="qr_verify_assert">
<polygon fill="none" stroke="black" points="355,-152.5 355,-171.5 447,-171.5 447,-152.5 355,-152.5"/>
<text text-anchor="middle" x="401" y="-159.5" font-family="Helvetica,sans-Serif" font-size="10.00">qr_verify_assert</text>
</a>
</g>
</g>
<!-- Node169&#45;&gt;Node173 -->
<g id="edge11" class="edge"><title>Node169&#45;&gt;Node173</title>
<path fill="none" stroke="midnightblue" d="M273.541,-178.018C295.239,-175.27 328.033,-171.116 354.788,-167.727"/>
<polygon fill="midnightblue" stroke="midnightblue" points="273.057,-174.551 263.576,-179.28 273.937,-181.496 273.057,-174.551"/>
</g>
<!-- Node175 -->
<g id="node13" class="node"><title>Node175</title>
<g id="a_node13"><a xlink:href="bdcsvd_8cpp.html#a55d9069ac4c9bf0feb5f2e1d3760f118" target="_top" xlink:title="bdcsvd">
<polygon fill="none" stroke="black" points="376,-114.5 376,-133.5 426,-133.5 426,-114.5 376,-114.5"/>
<text text-anchor="middle" x="401" y="-121.5" font-family="Helvetica,sans-Serif" font-size="10.00">bdcsvd</text>
</a>
</g>
</g>
<!-- Node174&#45;&gt;Node175 -->
<g id="edge14" class="edge"><title>Node174&#45;&gt;Node175</title>
<path fill="none" stroke="midnightblue" d="M304.828,-111.945C329.212,-115.034 356.67,-118.512 375.804,-120.935"/>
<polygon fill="midnightblue" stroke="midnightblue" points="304.959,-108.434 294.599,-110.649 304.08,-115.378 304.959,-108.434"/>
</g>
<!-- Node177 -->
<g id="node15" class="node"><title>Node177</title>
<g id="a_node15"><a xlink:href="jacobisvd_8cpp.html#a2d5810666a5ef33f431b89cce0a56958" target="_top" xlink:title="jacobisvd">
<polygon fill="none" stroke="black" points="370.5,-76.5 370.5,-95.5 431.5,-95.5 431.5,-76.5 370.5,-76.5"/>
<text text-anchor="middle" x="401" y="-83.5" font-family="Helvetica,sans-Serif" font-size="10.00">jacobisvd</text>
</a>
</g>
</g>
<!-- Node174&#45;&gt;Node177 -->
<g id="edge17" class="edge"><title>Node174&#45;&gt;Node177</title>
<path fill="none" stroke="midnightblue" d="M304.544,-98.0911C326.649,-95.2912 351.321,-92.166 370.044,-89.7945"/>
<polygon fill="midnightblue" stroke="midnightblue" points="304.08,-94.6218 294.599,-99.3508 304.959,-101.566 304.08,-94.6218"/>
</g>
<!-- Node178 -->
<g id="node16" class="node"><title>Node178</title>
<g id="a_node16"><a xlink:href="eigensolver__selfadjoint_8cpp.html#abc47a768b2337f0e2cf111ccf190589f" target="_top" xlink:title="selfadjointeigensolver">
<polygon fill="none" stroke="black" points="341,-38.5 341,-57.5 461,-57.5 461,-38.5 341,-38.5"/>
<text text-anchor="middle" x="401" y="-45.5" font-family="Helvetica,sans-Serif" font-size="10.00">selfadjointeigensolver</text>
</a>
</g>
</g>
<!-- Node174&#45;&gt;Node178 -->
<g id="edge19" class="edge"><title>Node174&#45;&gt;Node178</title>
<path fill="none" stroke="midnightblue" d="M280.676,-91.4339C298.202,-83.8745 320.672,-74.5025 341,-67 349.884,-63.7212 359.632,-60.4515 368.6,-57.572"/>
<polygon fill="midnightblue" stroke="midnightblue" points="279.27,-88.2285 271.493,-95.4236 282.06,-94.6487 279.27,-88.2285"/>
</g>
<!-- Node175&#45;&gt;Node165 -->
<g id="edge15" class="edge"><title>Node175&#45;&gt;Node165</title>
<path fill="none" stroke="midnightblue" d="M436.067,-131.555C444.623,-134.35 453.497,-138.08 461,-143 500.819,-169.111 533.779,-217.045 546.67,-237.425"/>
<polygon fill="midnightblue" stroke="midnightblue" points="436.851,-128.138 426.27,-128.691 434.886,-134.857 436.851,-128.138"/>
</g>
<!-- Node176 -->
<g id="node14" class="node"><title>Node176</title>
<g id="a_node14"><a xlink:href="boostmultiprec_8cpp.html#af8983cadf0ba3b55cb55879f4b3d833d" target="_top" xlink:title="test_boostmultiprec">
<polygon fill="none" stroke="black" points="497,-76.5 497,-95.5 610,-95.5 610,-76.5 497,-76.5"/>
<text text-anchor="middle" x="553.5" y="-83.5" font-family="Helvetica,sans-Serif" font-size="10.00">test_boostmultiprec</text>
</a>
</g>
</g>
<!-- Node175&#45;&gt;Node176 -->
<g id="edge16" class="edge"><title>Node175&#45;&gt;Node176</title>
<path fill="none" stroke="midnightblue" d="M436.037,-115.406C459.491,-109.484 490.668,-101.612 514.862,-95.5032"/>
<polygon fill="midnightblue" stroke="midnightblue" points="435.019,-112.053 426.18,-117.895 436.733,-118.84 435.019,-112.053"/>
</g>
<!-- Node177&#45;&gt;Node176 -->
<g id="edge18" class="edge"><title>Node177&#45;&gt;Node176</title>
<path fill="none" stroke="midnightblue" d="M441.803,-86C458.682,-86 478.645,-86 496.939,-86"/>
<polygon fill="midnightblue" stroke="midnightblue" points="441.734,-82.5001 431.734,-86 441.734,-89.5001 441.734,-82.5001"/>
</g>
<!-- Node178&#45;&gt;Node176 -->
<g id="edge20" class="edge"><title>Node178&#45;&gt;Node176</title>
<path fill="none" stroke="midnightblue" d="M449.685,-60.04C470.71,-65.3488 495.067,-71.4988 514.796,-76.4799"/>
<polygon fill="midnightblue" stroke="midnightblue" points="450.53,-56.6437 439.978,-57.589 448.816,-63.4307 450.53,-56.6437"/>
</g>
<!-- Node180 -->
<g id="node18" class="node"><title>Node180</title>
<g id="a_node18"><a xlink:href="namespaceEigen.html#aa1ba6c19dbe321546997e690a9778406" target="_top" xlink:title="Eigen::test_isUnitary">
<polygon fill="none" stroke="black" points="343.5,-0.5 343.5,-19.5 458.5,-19.5 458.5,-0.5 343.5,-0.5"/>
<text text-anchor="middle" x="401" y="-7.5" font-family="Helvetica,sans-Serif" font-size="10.00">Eigen::test_isUnitary</text>
</a>
</g>
</g>
<!-- Node179&#45;&gt;Node180 -->
<g id="edge22" class="edge"><title>Node179&#45;&gt;Node180</title>
<path fill="none" stroke="midnightblue" d="M315.138,-20.7491C324.583,-19.5529 334.239,-18.3297 343.495,-17.1573"/>
<polygon fill="midnightblue" stroke="midnightblue" points="314.484,-17.304 305.003,-22.033 315.363,-24.2485 314.484,-17.304"/>
</g>
</g>
</svg>
        <g id="navigator" transform="translate(0 0)" fill="#404254">
                <rect fill="#f2f5e9" fill-opacity="0.5" stroke="#606060" stroke-width=".5" x="0" y="0" width="60" height="60"/>
                <use id="zoomplus" xlink:href="#zoomPlus" x="17" y="9" onmousedown="handleZoom(evt,'in')"/>
                <use id="zoomminus" xlink:href="#zoomMin" x="42" y="9" onmousedown="handleZoom(evt,'out')"/>
                <use id="reset" xlink:href="#resetDef" x="30" y="36" onmousedown="handleReset()"/>
                <g id="arrowUp" xlink:href="#dirArrow" transform="translate(30 24)" onmousedown="handlePan(0,-1)">
                  <use xlink:href="#rim" fill="#404040">
                        <set attributeName="fill" to="#808080" begin="arrowUp.mouseover" end="arrowUp.mouseout"/>
                  </use>
                  <path fill="none" stroke="white" stroke-width="1.5" d="M0,-3.0v7 M-2.5,-0.5L0,-3.0L2.5,-0.5"/>
                </g>
                <g id="arrowRight" xlink:href="#dirArrow" transform="rotate(90) translate(36 -43)" onmousedown="handlePan(1,0)">
                  <use xlink:href="#rim" fill="#404040">
                        <set attributeName="fill" to="#808080" begin="arrowRight.mouseover" end="arrowRight.mouseout"/>
                  </use>
                  <path fill="none" stroke="white" stroke-width="1.5" d="M0,-3.0v7 M-2.5,-0.5L0,-3.0L2.5,-0.5"/>
                </g>
                <g id="arrowDown" xlink:href="#dirArrow" transform="rotate(180) translate(-30 -48)" onmousedown="handlePan(0,1)">
                  <use xlink:href="#rim" fill="#404040">
                        <set attributeName="fill" to="#808080" begin="arrowDown.mouseover" end="arrowDown.mouseout"/>
                  </use>
                  <path fill="none" stroke="white" stroke-width="1.5" d="M0,-3.0v7 M-2.5,-0.5L0,-3.0L2.5,-0.5"/>
                </g>
                <g id="arrowLeft" xlink:href="#dirArrow" transform="rotate(270) translate(-36 17)" onmousedown="handlePan(-1,0)">
                  <use xlink:href="#rim" fill="#404040">
                        <set attributeName="fill" to="#808080" begin="arrowLeft.mouseover" end="arrowLeft.mouseout"/>
                  </use>
                  <path fill="none" stroke="white" stroke-width="1.5" d="M0,-3.0v7 M-2.5,-0.5L0,-3.0L2.5,-0.5"/>
                </g>
        </g>
        <svg viewBox="0 0 15 15" width="100%" height="30px" preserveAspectRatio="xMaxYMin meet">
         <g id="arrow_out" transform="scale(0.3 0.3)">
          <a xlink:href="namespaceEigen_a0d9a7ddcee5c7c8defaba3628455efb2_icgraph_org.svg" target="_base">
           <rect id="button" ry="5" rx="5" y="6" x="6" height="38" width="38"
                fill="#f2f5e9" fill-opacity="0.5" stroke="#606060" stroke-width="1.0"/>
           <path id="arrow"
             d="M 11.500037,31.436501 C 11.940474,20.09759 22.043105,11.32322 32.158766,21.979434 L 37.068811,17.246167 C 37.068811,17.246167 37.088388,32 37.088388,32 L 22.160133,31.978069 C 22.160133,31.978069 26.997745,27.140456 26.997745,27.140456 C 18.528582,18.264221 13.291696,25.230495 11.500037,31.436501 z"
             style="fill:#404040;"/>
          </a>
         </g>
        </svg>
</svg>
