<?xml version="1.0" encoding="UTF-8" standalone="no"?>
<!DOCTYPE svg PUBLIC "-//W3C//DTD SVG 1.1//EN"
 "http://www.w3.org/Graphics/SVG/1.1/DTD/svg11.dtd">
<!-- Generated by graphviz version 2.38.0 (20140413.2041)
 -->
<!-- Title: Eigen::test_relative_error Pages: 1 -->
<!--zoomable 261 -->
<svg id="main" version="1.1" xmlns="http://www.w3.org/2000/svg" xmlns:xlink="http://www.w3.org/1999/xlink" xml:space="preserve" onload="init(evt)">
<style type="text/css"><![CDATA[
.edge:hover path { stroke: red; }
.edge:hover polygon { stroke: red; fill: red; }
]]></style>
<script type="text/javascript"><![CDATA[
var edges = document.getElementsByTagName('g');
if (edges && edges.length) {
  for (var i=0;i<edges.length;i++) {
    if (edges[i].id.substr(0,4)=='edge') {
      edges[i].setAttribute('class','edge');
    }
  }
}
]]></script>
        <defs>
                <circle id="rim" cx="0" cy="0" r="7"/>
                <circle id="rim2" cx="0" cy="0" r="3.5"/>
                <g id="zoomPlus">
                        <use xlink:href="#rim" fill="#404040">
                                <set attributeName="fill" to="#808080" begin="zoomplus.mouseover" end="zoomplus.mouseout"/>
                        </use>
                        <path d="M-4,0h8M0,-4v8" fill="none" stroke="white" stroke-width="1.5" pointer-events="none"/>
                </g>
                <g id="zoomMin">
                        <use xlink:href="#rim" fill="#404040">
                                <set attributeName="fill" to="#808080" begin="zoomminus.mouseover" end="zoomminus.mouseout"/>
                        </use>
                        <path d="M-4,0h8" fill="none" stroke="white" stroke-width="1.5" pointer-events="none"/>
                </g>
                <g id="dirArrow">
                        <path fill="none" stroke="white" stroke-width="1.5" d="M0,-3.0v7 M-2.5,-0.5L0,-3.0L2.5,-0.5"/>
                </g>
               <g id="resetDef">
                       <use xlink:href="#rim2" fill="#404040">
                               <set attributeName="fill" to="#808080" begin="reset.mouseover" end="reset.mouseout"/>
                       </use>
               </g>
        </defs>

<script type="text/javascript">
var viewWidth = 837;
var viewHeight = 261;
var sectionId = 'dynsection-145';
</script>
<script xlink:href="svgpan.js"/>
<svg id="graph" class="graph">
<g id="viewport">
<title>Eigen::test_relative_error</title>
<!-- Node887 -->
<g id="node1" class="node"><title>Node887</title>
<polygon fill="#bfbfbf" stroke="black" points="0,-76 0,-106 108,-106 108,-76 0,-76"/>
<text text-anchor="start" x="8" y="-94" font-family="Helvetica,sans-Serif" font-size="10.00">Eigen::test_relative</text>
<text text-anchor="middle" x="54" y="-83" font-family="Helvetica,sans-Serif" font-size="10.00">_error</text>
</g>
<!-- Node888 -->
<g id="node2" class="node"><title>Node888</title>
<g id="a_node2"><a xlink:href="classEigen_1_1ParametrizedLine.html#a587330ad5af9902fdbc8d32a89810e37" target="_top" xlink:title="Eigen::ParametrizedLine\l::origin">
<polygon fill="none" stroke="black" points="144,-101 144,-131 276,-131 276,-101 144,-101"/>
<text text-anchor="start" x="152" y="-119" font-family="Helvetica,sans-Serif" font-size="10.00">Eigen::ParametrizedLine</text>
<text text-anchor="middle" x="210" y="-108" font-family="Helvetica,sans-Serif" font-size="10.00">::origin</text>
</a>
</g>
</g>
<!-- Node887&#45;&gt;Node888 -->
<g id="edge1" class="edge"><title>Node887&#45;&gt;Node888</title>
<path fill="none" stroke="midnightblue" d="M108.43,-99.6736C116.672,-101.012 125.312,-102.414 133.921,-103.812"/>
<polygon fill="midnightblue" stroke="midnightblue" points="133.555,-107.298 143.987,-105.446 134.677,-100.389 133.555,-107.298"/>
</g>
<!-- Node889 -->
<g id="node3" class="node"><title>Node889</title>
<g id="a_node3"><a xlink:href="namespaceEigen.html#acd07ce1f29a08bc8835ad2652ad89175" target="_top" xlink:title="Eigen::test_relative\l_error">
<polygon fill="none" stroke="black" points="156,-52 156,-82 264,-82 264,-52 156,-52"/>
<text text-anchor="start" x="164" y="-70" font-family="Helvetica,sans-Serif" font-size="10.00">Eigen::test_relative</text>
<text text-anchor="middle" x="210" y="-59" font-family="Helvetica,sans-Serif" font-size="10.00">_error</text>
</a>
</g>
</g>
<!-- Node887&#45;&gt;Node889 -->
<g id="edge2" class="edge"><title>Node887&#45;&gt;Node889</title>
<path fill="none" stroke="midnightblue" d="M108.43,-82.6733C120.442,-80.8012 133.302,-78.797 145.676,-76.8687"/>
<polygon fill="midnightblue" stroke="midnightblue" points="146.584,-80.2696 155.925,-75.2714 145.506,-73.3531 146.584,-80.2696"/>
</g>
<!-- Node890 -->
<g id="node4" class="node"><title>Node890</title>
<g id="a_node4"><a xlink:href="MatrixCwiseUnaryOps_8h.html#a426713f88e0c1c0d6626fbadced4e9d7" target="_top" xlink:title="cwiseAbs2">
<polygon fill="none" stroke="black" points="349,-133.5 349,-152.5 415,-152.5 415,-133.5 349,-133.5"/>
<text text-anchor="middle" x="382" y="-140.5" font-family="Helvetica,sans-Serif" font-size="10.00">cwiseAbs2</text>
</a>
</g>
</g>
<!-- Node889&#45;&gt;Node890 -->
<g id="edge3" class="edge"><title>Node889&#45;&gt;Node890</title>
<path fill="none" stroke="midnightblue" d="M251.784,-82.076C259.859,-85.2323 268.237,-88.629 276,-92 302.759,-103.62 332.625,-118.298 353.643,-128.92"/>
<polygon fill="midnightblue" stroke="midnightblue" points="352.133,-132.079 362.634,-133.49 355.305,-125.839 352.133,-132.079"/>
</g>
<!-- Node900 -->
<g id="node14" class="node"><title>Node900</title>
<g id="a_node14"><a xlink:href="structEigen_1_1EigenBase.html#a324b16961a11d2ecfd2d1b7dd7946545" target="_top" xlink:title="Eigen::EigenBase::derived">
<polygon fill="none" stroke="black" points="312,-38.5 312,-57.5 452,-57.5 452,-38.5 312,-38.5"/>
<text text-anchor="middle" x="382" y="-45.5" font-family="Helvetica,sans-Serif" font-size="10.00">Eigen::EigenBase::derived</text>
</a>
</g>
</g>
<!-- Node889&#45;&gt;Node900 -->
<g id="edge13" class="edge"><title>Node889&#45;&gt;Node900</title>
<path fill="none" stroke="midnightblue" d="M264.323,-61.0404C276.232,-59.7094 289.109,-58.2701 301.813,-56.8503"/>
<polygon fill="midnightblue" stroke="midnightblue" points="302.392,-60.3075 311.942,-55.7183 301.615,-53.3508 302.392,-60.3075"/>
</g>
<!-- Node901 -->
<g id="node15" class="node"><title>Node901</title>
<g id="a_node15"><a xlink:href="ArrayCwiseUnaryOps_8h.html#a656b9217a2fcb6de59dc8d1eb3079cc7" target="_top" xlink:title="sqrt">
<polygon fill="none" stroke="black" points="364.5,-0.5 364.5,-19.5 399.5,-19.5 399.5,-0.5 364.5,-0.5"/>
<text text-anchor="middle" x="382" y="-7.5" font-family="Helvetica,sans-Serif" font-size="10.00">sqrt</text>
</a>
</g>
</g>
<!-- Node889&#45;&gt;Node901 -->
<g id="edge14" class="edge"><title>Node889&#45;&gt;Node901</title>
<path fill="none" stroke="midnightblue" d="M248.601,-51.9207C267.483,-44.5875 290.798,-35.8919 312,-29 325.986,-24.4539 341.789,-20.05 354.739,-16.6287"/>
<polygon fill="midnightblue" stroke="midnightblue" points="355.626,-20.0146 364.424,-14.1115 353.865,-13.2396 355.626,-20.0146"/>
</g>
<!-- Node902 -->
<g id="node16" class="node"><title>Node902</title>
<g id="a_node16"><a xlink:href="namespacempfr.html#ae94ad8b45bc3c448549d7c094e7f24fd" target="_top" xlink:title="mpfr::sum">
<polygon fill="none" stroke="black" points="488,-66.5 488,-85.5 554,-85.5 554,-66.5 488,-66.5"/>
<text text-anchor="middle" x="521" y="-73.5" font-family="Helvetica,sans-Serif" font-size="10.00">mpfr::sum</text>
</a>
</g>
</g>
<!-- Node889&#45;&gt;Node902 -->
<g id="edge15" class="edge"><title>Node889&#45;&gt;Node902</title>
<path fill="none" stroke="midnightblue" d="M264.119,-68.5472C324.585,-70.3083 422.142,-73.1498 477.696,-74.7679"/>
<polygon fill="midnightblue" stroke="midnightblue" points="477.795,-78.2721 487.893,-75.0649 477.999,-71.2751 477.795,-78.2721"/>
</g>
<!-- Node891 -->
<g id="node5" class="node"><title>Node891</title>
<g id="a_node5"><a xlink:href="MatrixCwiseUnaryOps_8h.html#a0e379b45253546d07dcea81d8588297e" target="_top" xlink:title="cwiseSqrt">
<polygon fill="none" stroke="black" points="490,-180.5 490,-199.5 552,-199.5 552,-180.5 490,-180.5"/>
<text text-anchor="middle" x="521" y="-187.5" font-family="Helvetica,sans-Serif" font-size="10.00">cwiseSqrt</text>
</a>
</g>
</g>
<!-- Node890&#45;&gt;Node891 -->
<g id="edge4" class="edge"><title>Node890&#45;&gt;Node891</title>
<path fill="none" stroke="midnightblue" d="M410.724,-152.511C431.293,-159.568 459.573,-169.27 482.211,-177.036"/>
<polygon fill="midnightblue" stroke="midnightblue" points="481.252,-180.407 491.847,-180.342 483.524,-173.786 481.252,-180.407"/>
</g>
<!-- Node896 -->
<g id="node10" class="node"><title>Node896</title>
<g id="a_node10"><a xlink:href="namespacempfr.html#ad838087b4c59a17f714c4da9984aea66" target="_top" xlink:title="mpfr::root">
<polygon fill="none" stroke="black" points="488.5,-142.5 488.5,-161.5 553.5,-161.5 553.5,-142.5 488.5,-142.5"/>
<text text-anchor="middle" x="521" y="-149.5" font-family="Helvetica,sans-Serif" font-size="10.00">mpfr::root</text>
</a>
</g>
</g>
<!-- Node890&#45;&gt;Node896 -->
<g id="edge9" class="edge"><title>Node890&#45;&gt;Node896</title>
<path fill="none" stroke="midnightblue" d="M415.12,-145.11C433.843,-146.34 457.674,-147.906 477.887,-149.233"/>
<polygon fill="midnightblue" stroke="midnightblue" points="477.873,-152.74 488.081,-149.903 478.332,-145.755 477.873,-152.74"/>
</g>
<!-- Node899 -->
<g id="node13" class="node"><title>Node899</title>
<g id="a_node13"><a xlink:href="ArrayCwiseUnaryOps_8h.html#aa1e484838873e960b8c8ba7e066ba837" target="_top" xlink:title="square">
<polygon fill="none" stroke="black" points="496,-104.5 496,-123.5 546,-123.5 546,-104.5 496,-104.5"/>
<text text-anchor="middle" x="521" y="-111.5" font-family="Helvetica,sans-Serif" font-size="10.00">square</text>
</a>
</g>
</g>
<!-- Node890&#45;&gt;Node899 -->
<g id="edge12" class="edge"><title>Node890&#45;&gt;Node899</title>
<path fill="none" stroke="midnightblue" d="M415.12,-136.201C436.326,-131.712 464.084,-125.836 485.716,-121.257"/>
<polygon fill="midnightblue" stroke="midnightblue" points="486.73,-124.62 495.788,-119.125 485.28,-117.772 486.73,-124.62"/>
</g>
<!-- Node892 -->
<g id="node6" class="node"><title>Node892</title>
<g id="a_node6"><a xlink:href="MatrixCwiseUnaryOps_8h.html#a92d50e5a414332785a7e6b6ff406198c" target="_top" xlink:title="cwiseSign">
<polygon fill="none" stroke="black" points="621.5,-214.5 621.5,-233.5 684.5,-233.5 684.5,-214.5 621.5,-214.5"/>
<text text-anchor="middle" x="653" y="-221.5" font-family="Helvetica,sans-Serif" font-size="10.00">cwiseSign</text>
</a>
</g>
</g>
<!-- Node891&#45;&gt;Node892 -->
<g id="edge5" class="edge"><title>Node891&#45;&gt;Node892</title>
<path fill="none" stroke="midnightblue" d="M552.151,-197.886C569.78,-202.496 592.265,-208.377 611.432,-213.39"/>
<polygon fill="midnightblue" stroke="midnightblue" points="610.549,-216.777 621.109,-215.921 612.32,-210.004 610.549,-216.777"/>
</g>
<!-- Node895 -->
<g id="node9" class="node"><title>Node895</title>
<g id="a_node9"><a xlink:href="ArrayCwiseUnaryOps_8h.html#a281eccb624a3ff6dacbe305828e43a82" target="_top" xlink:title="sign">
<polygon fill="none" stroke="black" points="635,-176.5 635,-195.5 671,-195.5 671,-176.5 635,-176.5"/>
<text text-anchor="middle" x="653" y="-183.5" font-family="Helvetica,sans-Serif" font-size="10.00">sign</text>
</a>
</g>
</g>
<!-- Node891&#45;&gt;Node895 -->
<g id="edge8" class="edge"><title>Node891&#45;&gt;Node895</title>
<path fill="none" stroke="midnightblue" d="M552.151,-189.072C573.996,-188.4 603.296,-187.499 624.501,-186.846"/>
<polygon fill="midnightblue" stroke="midnightblue" points="624.883,-190.336 634.771,-186.53 624.668,-183.339 624.883,-190.336"/>
</g>
<!-- Node893 -->
<g id="node7" class="node"><title>Node893</title>
<g id="a_node7"><a xlink:href="MatrixCwiseUnaryOps_8h.html#a71265e72c85a2d90d349543171b150cb" target="_top" xlink:title="cwiseInverse">
<polygon fill="none" stroke="black" points="752,-233.5 752,-252.5 829,-252.5 829,-233.5 752,-233.5"/>
<text text-anchor="middle" x="790.5" y="-240.5" font-family="Helvetica,sans-Serif" font-size="10.00">cwiseInverse</text>
</a>
</g>
</g>
<!-- Node892&#45;&gt;Node893 -->
<g id="edge6" class="edge"><title>Node892&#45;&gt;Node893</title>
<path fill="none" stroke="midnightblue" d="M684.747,-228.311C701.559,-230.669 722.755,-233.641 741.676,-236.294"/>
<polygon fill="midnightblue" stroke="midnightblue" points="741.229,-239.765 751.618,-237.688 742.201,-232.833 741.229,-239.765"/>
</g>
<!-- Node894 -->
<g id="node8" class="node"><title>Node894</title>
<g id="a_node8"><a xlink:href="ArrayCwiseUnaryOps_8h.html#ab3df1b08b9c073db2a7e61a9b06bb295" target="_top" xlink:title="inverse">
<polygon fill="none" stroke="black" points="765,-195.5 765,-214.5 816,-214.5 816,-195.5 765,-195.5"/>
<text text-anchor="middle" x="790.5" y="-202.5" font-family="Helvetica,sans-Serif" font-size="10.00">inverse</text>
</a>
</g>
</g>
<!-- Node892&#45;&gt;Node894 -->
<g id="edge7" class="edge"><title>Node892&#45;&gt;Node894</title>
<path fill="none" stroke="midnightblue" d="M684.747,-219.689C705.549,-216.772 733.064,-212.914 754.674,-209.883"/>
<polygon fill="midnightblue" stroke="midnightblue" points="755.336,-213.325 764.753,-208.47 754.364,-206.393 755.336,-213.325"/>
</g>
<!-- Node897 -->
<g id="node11" class="node"><title>Node897</title>
<g id="a_node11"><a xlink:href="classmpfr_1_1mpreal.html#a566f64ca066c54923d19c11d6c3d15cd" target="_top" xlink:title="mpfr::mpreal::mpfr\l_srcptr">
<polygon fill="none" stroke="black" points="599.5,-77 599.5,-107 706.5,-107 706.5,-77 599.5,-77"/>
<text text-anchor="start" x="607.5" y="-95" font-family="Helvetica,sans-Serif" font-size="10.00">mpfr::mpreal::mpfr</text>
<text text-anchor="middle" x="653" y="-84" font-family="Helvetica,sans-Serif" font-size="10.00">_srcptr</text>
</a>
</g>
</g>
<!-- Node896&#45;&gt;Node897 -->
<g id="edge10" class="edge"><title>Node896&#45;&gt;Node897</title>
<path fill="none" stroke="midnightblue" d="M542.599,-142.493C560.641,-134.166 587.425,-121.804 609.975,-111.396"/>
<polygon fill="midnightblue" stroke="midnightblue" points="611.729,-114.441 619.342,-107.073 608.796,-108.086 611.729,-114.441"/>
</g>
<!-- Node898 -->
<g id="node12" class="node"><title>Node898</title>
<g id="a_node12"><a xlink:href="classmpfr_1_1mpreal.html#af4e3b56888463376c675cac70b6ceca3" target="_top" xlink:title="mpfr::mpreal::mpfr_ptr">
<polygon fill="none" stroke="black" points="590,-134.5 590,-153.5 716,-153.5 716,-134.5 590,-134.5"/>
<text text-anchor="middle" x="653" y="-141.5" font-family="Helvetica,sans-Serif" font-size="10.00">mpfr::mpreal::mpfr_ptr</text>
</a>
</g>
</g>
<!-- Node896&#45;&gt;Node898 -->
<g id="edge11" class="edge"><title>Node896&#45;&gt;Node898</title>
<path fill="none" stroke="midnightblue" d="M553.802,-150.043C561.721,-149.556 570.539,-149.013 579.55,-148.458"/>
<polygon fill="midnightblue" stroke="midnightblue" points="580.003,-151.937 589.769,-147.83 579.573,-144.951 580.003,-151.937"/>
</g>
<!-- Node902&#45;&gt;Node897 -->
<g id="edge16" class="edge"><title>Node902&#45;&gt;Node897</title>
<path fill="none" stroke="midnightblue" d="M554.135,-79.9551C564.826,-81.2709 577.126,-82.7848 589.318,-84.2853"/>
<polygon fill="midnightblue" stroke="midnightblue" points="589.143,-87.7901 599.496,-85.5379 589.998,-80.8425 589.143,-87.7901"/>
</g>
<!-- Node902&#45;&gt;Node898 -->
<g id="edge17" class="edge"><title>Node902&#45;&gt;Node898</title>
<path fill="none" stroke="midnightblue" d="M538.303,-85.6258C543.343,-88.6163 548.908,-91.9328 554,-95 570.062,-104.676 573.365,-108.347 590,-117 599.122,-121.745 609.258,-126.403 618.648,-130.479"/>
<polygon fill="midnightblue" stroke="midnightblue" points="617.517,-133.801 628.089,-134.494 620.257,-127.359 617.517,-133.801"/>
</g>
</g>
</svg>
        <g id="navigator" transform="translate(0 0)" fill="#404254">
                <rect fill="#f2f5e9" fill-opacity="0.5" stroke="#606060" stroke-width=".5" x="0" y="0" width="60" height="60"/>
                <use id="zoomplus" xlink:href="#zoomPlus" x="17" y="9" onmousedown="handleZoom(evt,'in')"/>
                <use id="zoomminus" xlink:href="#zoomMin" x="42" y="9" onmousedown="handleZoom(evt,'out')"/>
                <use id="reset" xlink:href="#resetDef" x="30" y="36" onmousedown="handleReset()"/>
                <g id="arrowUp" xlink:href="#dirArrow" transform="translate(30 24)" onmousedown="handlePan(0,-1)">
                  <use xlink:href="#rim" fill="#404040">
                        <set attributeName="fill" to="#808080" begin="arrowUp.mouseover" end="arrowUp.mouseout"/>
                  </use>
                  <path fill="none" stroke="white" stroke-width="1.5" d="M0,-3.0v7 M-2.5,-0.5L0,-3.0L2.5,-0.5"/>
                </g>
                <g id="arrowRight" xlink:href="#dirArrow" transform="rotate(90) translate(36 -43)" onmousedown="handlePan(1,0)">
                  <use xlink:href="#rim" fill="#404040">
                        <set attributeName="fill" to="#808080" begin="arrowRight.mouseover" end="arrowRight.mouseout"/>
                  </use>
                  <path fill="none" stroke="white" stroke-width="1.5" d="M0,-3.0v7 M-2.5,-0.5L0,-3.0L2.5,-0.5"/>
                </g>
                <g id="arrowDown" xlink:href="#dirArrow" transform="rotate(180) translate(-30 -48)" onmousedown="handlePan(0,1)">
                  <use xlink:href="#rim" fill="#404040">
                        <set attributeName="fill" to="#808080" begin="arrowDown.mouseover" end="arrowDown.mouseout"/>
                  </use>
                  <path fill="none" stroke="white" stroke-width="1.5" d="M0,-3.0v7 M-2.5,-0.5L0,-3.0L2.5,-0.5"/>
                </g>
                <g id="arrowLeft" xlink:href="#dirArrow" transform="rotate(270) translate(-36 17)" onmousedown="handlePan(-1,0)">
                  <use xlink:href="#rim" fill="#404040">
                        <set attributeName="fill" to="#808080" begin="arrowLeft.mouseover" end="arrowLeft.mouseout"/>
                  </use>
                  <path fill="none" stroke="white" stroke-width="1.5" d="M0,-3.0v7 M-2.5,-0.5L0,-3.0L2.5,-0.5"/>
                </g>
        </g>
        <svg viewBox="0 0 15 15" width="100%" height="30px" preserveAspectRatio="xMaxYMin meet">
         <g id="arrow_out" transform="scale(0.3 0.3)">
          <a xlink:href="namespaceEigen_a0e5fc6174700be721bb9c27ce3f8815e_cgraph_org.svg" target="_base">
           <rect id="button" ry="5" rx="5" y="6" x="6" height="38" width="38"
                fill="#f2f5e9" fill-opacity="0.5" stroke="#606060" stroke-width="1.0"/>
           <path id="arrow"
             d="M 11.500037,31.436501 C 11.940474,20.09759 22.043105,11.32322 32.158766,21.979434 L 37.068811,17.246167 C 37.068811,17.246167 37.088388,32 37.088388,32 L 22.160133,31.978069 C 22.160133,31.978069 26.997745,27.140456 26.997745,27.140456 C 18.528582,18.264221 13.291696,25.230495 11.500037,31.436501 z"
             style="fill:#404040;"/>
          </a>
         </g>
        </svg>
</svg>
