<?xml version="1.0" encoding="UTF-8" standalone="no"?>
<!DOCTYPE svg PUBLIC "-//W3C//DTD SVG 1.1//EN"
 "http://www.w3.org/Graphics/SVG/1.1/DTD/svg11.dtd">
<!-- Generated by graphviz version 2.38.0 (20140413.2041)
 -->
<!-- Title: Eigen::internal::rwupdt Pages: 1 -->
<svg width="293pt" height="88pt"
 viewBox="0.00 0.00 293.00 88.00" xmlns="http://www.w3.org/2000/svg" xmlns:xlink="http://www.w3.org/1999/xlink">
<g id="graph0" class="graph" transform="scale(1 1) rotate(0) translate(4 84)">
<title>Eigen::internal::rwupdt</title>
<!-- Node5532 -->
<g id="node1" class="node"><title>Node5532</title>
<polygon fill="#bfbfbf" stroke="black" points="0,-30 0,-49 123,-49 123,-30 0,-30"/>
<text text-anchor="middle" x="61.5" y="-37" font-family="Helvetica,sans-Serif" font-size="10.00">Eigen::internal::rwupdt</text>
</g>
<!-- Node5533 -->
<g id="node2" class="node"><title>Node5533</title>
<g id="a_node2"><a xlink:href="classEigen_1_1PlainObjectBase.html#a10b8b33b7587da564415561aa246f78f" target="_top" xlink:title="Eigen::PlainObjectBase\l::cols">
<polygon fill="none" stroke="black" points="159,-49.5 159,-79.5 285,-79.5 285,-49.5 159,-49.5"/>
<text text-anchor="start" x="167" y="-67.5" font-family="Helvetica,sans-Serif" font-size="10.00">Eigen::PlainObjectBase</text>
<text text-anchor="middle" x="222" y="-56.5" font-family="Helvetica,sans-Serif" font-size="10.00">::cols</text>
</a>
</g>
</g>
<!-- Node5532&#45;&gt;Node5533 -->
<g id="edge1" class="edge"><title>Node5532&#45;&gt;Node5533</title>
<path fill="none" stroke="midnightblue" d="M122.874,-49.0227C131.363,-50.3617 140.158,-51.749 148.84,-53.1182"/>
<polygon fill="midnightblue" stroke="midnightblue" points="148.529,-56.6125 158.953,-54.7134 149.62,-49.698 148.529,-56.6125"/>
</g>
<!-- Node5534 -->
<g id="node3" class="node"><title>Node5534</title>
<g id="a_node3"><a xlink:href="classEigen_1_1PlainObjectBase.html#aba7a925ce36c08ba2a08c90086f34718" target="_top" xlink:title="Eigen::PlainObjectBase\l::rows">
<polygon fill="none" stroke="black" points="159,-0.5 159,-30.5 285,-30.5 285,-0.5 159,-0.5"/>
<text text-anchor="start" x="167" y="-18.5" font-family="Helvetica,sans-Serif" font-size="10.00">Eigen::PlainObjectBase</text>
<text text-anchor="middle" x="222" y="-7.5" font-family="Helvetica,sans-Serif" font-size="10.00">::rows</text>
</a>
</g>
</g>
<!-- Node5532&#45;&gt;Node5534 -->
<g id="edge2" class="edge"><title>Node5532&#45;&gt;Node5534</title>
<path fill="none" stroke="midnightblue" d="M123.327,-30.2896C131.672,-29.026 140.306,-27.7186 148.83,-26.4279"/>
<polygon fill="midnightblue" stroke="midnightblue" points="149.399,-29.8819 158.762,-24.9241 148.35,-22.9607 149.399,-29.8819"/>
</g>
</g>
</svg>
