<?xml version="1.0" encoding="UTF-8" standalone="no"?>
<!DOCTYPE svg PUBLIC "-//W3C//DTD SVG 1.1//EN"
 "http://www.w3.org/Graphics/SVG/1.1/DTD/svg11.dtd">
<!-- Generated by graphviz version 2.38.0 (20140413.2041)
 -->
<!-- Title: Eigen::numext::sqrt Pages: 1 -->
<!--zoomable 499 -->
<svg id="main" version="1.1" xmlns="http://www.w3.org/2000/svg" xmlns:xlink="http://www.w3.org/1999/xlink" xml:space="preserve" onload="init(evt)">
<style type="text/css"><![CDATA[
.edge:hover path { stroke: red; }
.edge:hover polygon { stroke: red; fill: red; }
]]></style>
<script type="text/javascript"><![CDATA[
var edges = document.getElementsByTagName('g');
if (edges && edges.length) {
  for (var i=0;i<edges.length;i++) {
    if (edges[i].id.substr(0,4)=='edge') {
      edges[i].setAttribute('class','edge');
    }
  }
}
]]></script>
        <defs>
                <circle id="rim" cx="0" cy="0" r="7"/>
                <circle id="rim2" cx="0" cy="0" r="3.5"/>
                <g id="zoomPlus">
                        <use xlink:href="#rim" fill="#404040">
                                <set attributeName="fill" to="#808080" begin="zoomplus.mouseover" end="zoomplus.mouseout"/>
                        </use>
                        <path d="M-4,0h8M0,-4v8" fill="none" stroke="white" stroke-width="1.5" pointer-events="none"/>
                </g>
                <g id="zoomMin">
                        <use xlink:href="#rim" fill="#404040">
                                <set attributeName="fill" to="#808080" begin="zoomminus.mouseover" end="zoomminus.mouseout"/>
                        </use>
                        <path d="M-4,0h8" fill="none" stroke="white" stroke-width="1.5" pointer-events="none"/>
                </g>
                <g id="dirArrow">
                        <path fill="none" stroke="white" stroke-width="1.5" d="M0,-3.0v7 M-2.5,-0.5L0,-3.0L2.5,-0.5"/>
                </g>
               <g id="resetDef">
                       <use xlink:href="#rim2" fill="#404040">
                               <set attributeName="fill" to="#808080" begin="reset.mouseover" end="reset.mouseout"/>
                       </use>
               </g>
        </defs>

<script type="text/javascript">
var viewWidth = 351;
var viewHeight = 499;
var sectionId = 'dynsection-6';
</script>
<script xlink:href="svgpan.js"/>
<svg id="graph" class="graph">
<g id="viewport">
<title>Eigen::numext::sqrt</title>
<!-- Node35 -->
<g id="node1" class="node"><title>Node35</title>
<polygon fill="#bfbfbf" stroke="black" points="0,-225 0,-244 110,-244 110,-225 0,-225"/>
<text text-anchor="middle" x="55" y="-232" font-family="Helvetica,sans-Serif" font-size="10.00">Eigen::numext::sqrt</text>
</g>
<!-- Node36 -->
<g id="node2" class="node"><title>Node36</title>
<g id="a_node2"><a xlink:href="classEigen_1_1ColPivHouseholderQR.html#a7bc043db5ef8072bc9be198404123a56" target="_top" xlink:title="Eigen::ColPivHouseholder\lQR\&lt; TransposeTypeWithSameStorage\lOrder \&gt;::computeInPlace">
<polygon fill="none" stroke="black" points="146,-449 146,-490 343,-490 343,-449 146,-449"/>
<text text-anchor="start" x="154" y="-478" font-family="Helvetica,sans-Serif" font-size="10.00">Eigen::ColPivHouseholder</text>
<text text-anchor="start" x="154" y="-467" font-family="Helvetica,sans-Serif" font-size="10.00">QR&lt; TransposeTypeWithSameStorage</text>
<text text-anchor="middle" x="244.5" y="-456" font-family="Helvetica,sans-Serif" font-size="10.00">Order &gt;::computeInPlace</text>
</a>
</g>
</g>
<!-- Node35&#45;&gt;Node36 -->
<g id="edge1" class="edge"><title>Node35&#45;&gt;Node36</title>
<path fill="none" stroke="midnightblue" d="M59.0811,-254.326C66.4603,-295.078 88.9666,-388.685 146,-439.5 149.967,-443.034 154.343,-446.152 158.978,-448.903"/>
<polygon fill="midnightblue" stroke="midnightblue" points="62.5059,-253.588 57.3847,-244.313 55.6043,-254.757 62.5059,-253.588"/>
</g>
<!-- Node37 -->
<g id="node3" class="node"><title>Node37</title>
<g id="a_node3"><a xlink:href="classEigen_1_1MatrixBase.html#a196c4ec3c8ffdf5bda45d0f617154975" target="_top" xlink:title="Eigen::MatrixBase\&lt;\l Solve\&lt; Decomposition,\l RhsType \&gt; \&gt;::norm">
<polygon fill="none" stroke="black" points="178.5,-389 178.5,-430 310.5,-430 310.5,-389 178.5,-389"/>
<text text-anchor="start" x="186.5" y="-418" font-family="Helvetica,sans-Serif" font-size="10.00">Eigen::MatrixBase&lt;</text>
<text text-anchor="start" x="186.5" y="-407" font-family="Helvetica,sans-Serif" font-size="10.00"> Solve&lt; Decomposition,</text>
<text text-anchor="middle" x="244.5" y="-396" font-family="Helvetica,sans-Serif" font-size="10.00"> RhsType &gt; &gt;::norm</text>
</a>
</g>
</g>
<!-- Node35&#45;&gt;Node37 -->
<g id="edge2" class="edge"><title>Node35&#45;&gt;Node37</title>
<path fill="none" stroke="midnightblue" d="M62.8794,-253.965C74.8723,-285.099 102.555,-345.997 146,-379.5 155.537,-386.854 166.886,-392.418 178.413,-396.624"/>
<polygon fill="midnightblue" stroke="midnightblue" points="66.0495,-252.447 59.2916,-244.287 59.486,-254.88 66.0495,-252.447"/>
</g>
<!-- Node38 -->
<g id="node4" class="node"><title>Node38</title>
<g id="a_node4"><a xlink:href="classEigen_1_1MatrixBase.html#ad16303c47ba36f7a41ea264cb26bceb6" target="_top" xlink:title="Eigen::MatrixBase\&lt;\l Solve\&lt; Decomposition,\l RhsType \&gt; \&gt;::normalize">
<polygon fill="none" stroke="black" points="177.5,-329 177.5,-370 311.5,-370 311.5,-329 177.5,-329"/>
<text text-anchor="start" x="185.5" y="-358" font-family="Helvetica,sans-Serif" font-size="10.00">Eigen::MatrixBase&lt;</text>
<text text-anchor="start" x="185.5" y="-347" font-family="Helvetica,sans-Serif" font-size="10.00"> Solve&lt; Decomposition,</text>
<text text-anchor="middle" x="244.5" y="-336" font-family="Helvetica,sans-Serif" font-size="10.00"> RhsType &gt; &gt;::normalize</text>
</a>
</g>
</g>
<!-- Node35&#45;&gt;Node38 -->
<g id="edge3" class="edge"><title>Node35&#45;&gt;Node38</title>
<path fill="none" stroke="midnightblue" d="M70.0085,-251.838C86.3534,-270.99 115.105,-301.495 146,-319.5 155.64,-325.118 166.44,-329.788 177.245,-333.636"/>
<polygon fill="midnightblue" stroke="midnightblue" points="72.6949,-249.595 63.6007,-244.159 67.3203,-254.08 72.6949,-249.595"/>
</g>
<!-- Node39 -->
<g id="node5" class="node"><title>Node39</title>
<g id="a_node5"><a xlink:href="classEigen_1_1MatrixBase.html#a5cf2fd4c57e59604fd4116158fd34308" target="_top" xlink:title="Eigen::MatrixBase\&lt;\l Solve\&lt; Decomposition,\l RhsType \&gt; \&gt;::normalized">
<polygon fill="none" stroke="black" points="174.5,-269 174.5,-310 314.5,-310 314.5,-269 174.5,-269"/>
<text text-anchor="start" x="182.5" y="-298" font-family="Helvetica,sans-Serif" font-size="10.00">Eigen::MatrixBase&lt;</text>
<text text-anchor="start" x="182.5" y="-287" font-family="Helvetica,sans-Serif" font-size="10.00"> Solve&lt; Decomposition,</text>
<text text-anchor="middle" x="244.5" y="-276" font-family="Helvetica,sans-Serif" font-size="10.00"> RhsType &gt; &gt;::normalized</text>
</a>
</g>
</g>
<!-- Node35&#45;&gt;Node39 -->
<g id="edge4" class="edge"><title>Node35&#45;&gt;Node39</title>
<path fill="none" stroke="midnightblue" d="M98.521,-246.973C120.909,-253.54 148.922,-261.757 174.339,-269.213"/>
<polygon fill="midnightblue" stroke="midnightblue" points="99.2409,-243.537 88.66,-244.08 97.2705,-250.254 99.2409,-243.537"/>
</g>
<!-- Node40 -->
<g id="node6" class="node"><title>Node40</title>
<g id="a_node6"><a xlink:href="structEigen_1_1internal_1_1scalar__sqrt__op.html#a6292a98edf3322b52f80a4c376773a92" target="_top" xlink:title="Eigen::internal::scalar\l_sqrt_op::operator()">
<polygon fill="none" stroke="black" points="185,-219.5 185,-249.5 304,-249.5 304,-219.5 185,-219.5"/>
<text text-anchor="start" x="193" y="-237.5" font-family="Helvetica,sans-Serif" font-size="10.00">Eigen::internal::scalar</text>
<text text-anchor="middle" x="244.5" y="-226.5" font-family="Helvetica,sans-Serif" font-size="10.00">_sqrt_op::operator()</text>
</a>
</g>
</g>
<!-- Node35&#45;&gt;Node40 -->
<g id="edge5" class="edge"><title>Node35&#45;&gt;Node40</title>
<path fill="none" stroke="midnightblue" d="M120.305,-234.5C141.222,-234.5 164.316,-234.5 184.801,-234.5"/>
<polygon fill="midnightblue" stroke="midnightblue" points="120.233,-231 110.233,-234.5 120.233,-238 120.233,-231"/>
</g>
<!-- Node41 -->
<g id="node7" class="node"><title>Node41</title>
<g id="a_node7"><a xlink:href="structEigen_1_1internal_1_1scalar__rsqrt__op.html#a9bcf69ff147f7f02a535c4ca8e09c39b" target="_top" xlink:title="Eigen::internal::scalar\l_rsqrt_op::operator()">
<polygon fill="none" stroke="black" points="185,-170.5 185,-200.5 304,-200.5 304,-170.5 185,-170.5"/>
<text text-anchor="start" x="193" y="-188.5" font-family="Helvetica,sans-Serif" font-size="10.00">Eigen::internal::scalar</text>
<text text-anchor="middle" x="244.5" y="-177.5" font-family="Helvetica,sans-Serif" font-size="10.00">_rsqrt_op::operator()</text>
</a>
</g>
</g>
<!-- Node35&#45;&gt;Node41 -->
<g id="edge6" class="edge"><title>Node35&#45;&gt;Node41</title>
<path fill="none" stroke="midnightblue" d="M101.514,-222.272C115.751,-218.471 131.522,-214.286 146,-210.5 158.595,-207.206 172.117,-203.712 184.959,-200.413"/>
<polygon fill="midnightblue" stroke="midnightblue" points="100.215,-218.996 91.4582,-224.96 102.023,-225.759 100.215,-218.996"/>
</g>
<!-- Node42 -->
<g id="node8" class="node"><title>Node42</title>
<g id="a_node8"><a xlink:href="classEigen_1_1MatrixBase.html#a0b1443fa322615379557ade3399a3c3c" target="_top" xlink:title="Eigen::MatrixBase\&lt;\l Solve\&lt; Decomposition,\l RhsType \&gt; \&gt;::stableNormalize">
<polygon fill="none" stroke="black" points="162.5,-110 162.5,-151 326.5,-151 326.5,-110 162.5,-110"/>
<text text-anchor="start" x="170.5" y="-139" font-family="Helvetica,sans-Serif" font-size="10.00">Eigen::MatrixBase&lt;</text>
<text text-anchor="start" x="170.5" y="-128" font-family="Helvetica,sans-Serif" font-size="10.00"> Solve&lt; Decomposition,</text>
<text text-anchor="middle" x="244.5" y="-117" font-family="Helvetica,sans-Serif" font-size="10.00"> RhsType &gt; &gt;::stableNormalize</text>
</a>
</g>
</g>
<!-- Node35&#45;&gt;Node42 -->
<g id="edge7" class="edge"><title>Node35&#45;&gt;Node42</title>
<path fill="none" stroke="midnightblue" d="M73.129,-217.27C90.2533,-200.899 118.001,-176.603 146,-161.5 153.191,-157.621 160.946,-154.135 168.83,-151.027"/>
<polygon fill="midnightblue" stroke="midnightblue" points="70.3347,-215.107 65.6213,-224.595 75.2232,-220.117 70.3347,-215.107"/>
</g>
<!-- Node43 -->
<g id="node9" class="node"><title>Node43</title>
<g id="a_node9"><a xlink:href="classEigen_1_1MatrixBase.html#a399dca938633b9f8df5ec4beefeccec0" target="_top" xlink:title="Eigen::MatrixBase\&lt;\l Solve\&lt; Decomposition,\l RhsType \&gt; \&gt;::stableNormalized">
<polygon fill="none" stroke="black" points="159.5,-50 159.5,-91 329.5,-91 329.5,-50 159.5,-50"/>
<text text-anchor="start" x="167.5" y="-79" font-family="Helvetica,sans-Serif" font-size="10.00">Eigen::MatrixBase&lt;</text>
<text text-anchor="start" x="167.5" y="-68" font-family="Helvetica,sans-Serif" font-size="10.00"> Solve&lt; Decomposition,</text>
<text text-anchor="middle" x="244.5" y="-57" font-family="Helvetica,sans-Serif" font-size="10.00"> RhsType &gt; &gt;::stableNormalized</text>
</a>
</g>
</g>
<!-- Node35&#45;&gt;Node43 -->
<g id="edge8" class="edge"><title>Node35&#45;&gt;Node43</title>
<path fill="none" stroke="midnightblue" d="M63.8273,-215.285C76.662,-186.161 104.927,-131.012 146,-100.5 150.691,-97.0148 155.794,-93.9296 161.123,-91.1992"/>
<polygon fill="midnightblue" stroke="midnightblue" points="60.4974,-214.171 59.8018,-224.743 66.9384,-216.913 60.4974,-214.171"/>
</g>
<!-- Node44 -->
<g id="node10" class="node"><title>Node44</title>
<g id="a_node10"><a xlink:href="namespaceEigen.html#a9b0a1aa31d8a187c3c0066529f8b155c" target="_top" xlink:title="Eigen::test_relative\l_error">
<polygon fill="none" stroke="black" points="190.5,-0.5 190.5,-30.5 298.5,-30.5 298.5,-0.5 190.5,-0.5"/>
<text text-anchor="start" x="198.5" y="-18.5" font-family="Helvetica,sans-Serif" font-size="10.00">Eigen::test_relative</text>
<text text-anchor="middle" x="244.5" y="-7.5" font-family="Helvetica,sans-Serif" font-size="10.00">_error</text>
</a>
</g>
</g>
<!-- Node35&#45;&gt;Node44 -->
<g id="edge9" class="edge"><title>Node35&#45;&gt;Node44</title>
<path fill="none" stroke="midnightblue" d="M59.3898,-214.706C67.2066,-175.297 90.2784,-86.8382 146,-40.5 158.495,-30.1088 174.779,-23.9682 190.45,-20.3611"/>
<polygon fill="midnightblue" stroke="midnightblue" points="55.9279,-214.179 57.5395,-224.65 62.8098,-215.459 55.9279,-214.179"/>
</g>
</g>
</svg>
        <g id="navigator" transform="translate(0 0)" fill="#404254">
                <rect fill="#f2f5e9" fill-opacity="0.5" stroke="#606060" stroke-width=".5" x="0" y="0" width="60" height="60"/>
                <use id="zoomplus" xlink:href="#zoomPlus" x="17" y="9" onmousedown="handleZoom(evt,'in')"/>
                <use id="zoomminus" xlink:href="#zoomMin" x="42" y="9" onmousedown="handleZoom(evt,'out')"/>
                <use id="reset" xlink:href="#resetDef" x="30" y="36" onmousedown="handleReset()"/>
                <g id="arrowUp" xlink:href="#dirArrow" transform="translate(30 24)" onmousedown="handlePan(0,-1)">
                  <use xlink:href="#rim" fill="#404040">
                        <set attributeName="fill" to="#808080" begin="arrowUp.mouseover" end="arrowUp.mouseout"/>
                  </use>
                  <path fill="none" stroke="white" stroke-width="1.5" d="M0,-3.0v7 M-2.5,-0.5L0,-3.0L2.5,-0.5"/>
                </g>
                <g id="arrowRight" xlink:href="#dirArrow" transform="rotate(90) translate(36 -43)" onmousedown="handlePan(1,0)">
                  <use xlink:href="#rim" fill="#404040">
                        <set attributeName="fill" to="#808080" begin="arrowRight.mouseover" end="arrowRight.mouseout"/>
                  </use>
                  <path fill="none" stroke="white" stroke-width="1.5" d="M0,-3.0v7 M-2.5,-0.5L0,-3.0L2.5,-0.5"/>
                </g>
                <g id="arrowDown" xlink:href="#dirArrow" transform="rotate(180) translate(-30 -48)" onmousedown="handlePan(0,1)">
                  <use xlink:href="#rim" fill="#404040">
                        <set attributeName="fill" to="#808080" begin="arrowDown.mouseover" end="arrowDown.mouseout"/>
                  </use>
                  <path fill="none" stroke="white" stroke-width="1.5" d="M0,-3.0v7 M-2.5,-0.5L0,-3.0L2.5,-0.5"/>
                </g>
                <g id="arrowLeft" xlink:href="#dirArrow" transform="rotate(270) translate(-36 17)" onmousedown="handlePan(-1,0)">
                  <use xlink:href="#rim" fill="#404040">
                        <set attributeName="fill" to="#808080" begin="arrowLeft.mouseover" end="arrowLeft.mouseout"/>
                  </use>
                  <path fill="none" stroke="white" stroke-width="1.5" d="M0,-3.0v7 M-2.5,-0.5L0,-3.0L2.5,-0.5"/>
                </g>
        </g>
        <svg viewBox="0 0 15 15" width="100%" height="30px" preserveAspectRatio="xMaxYMin meet">
         <g id="arrow_out" transform="scale(0.3 0.3)">
          <a xlink:href="namespaceEigen_1_1numext_a982549ff7a7aa1a72c691bca5ea32ae4_icgraph_org.svg" target="_base">
           <rect id="button" ry="5" rx="5" y="6" x="6" height="38" width="38"
                fill="#f2f5e9" fill-opacity="0.5" stroke="#606060" stroke-width="1.0"/>
           <path id="arrow"
             d="M 11.500037,31.436501 C 11.940474,20.09759 22.043105,11.32322 32.158766,21.979434 L 37.068811,17.246167 C 37.068811,17.246167 37.088388,32 37.088388,32 L 22.160133,31.978069 C 22.160133,31.978069 26.997745,27.140456 26.997745,27.140456 C 18.528582,18.264221 13.291696,25.230495 11.500037,31.436501 z"
             style="fill:#404040;"/>
          </a>
         </g>
        </svg>
</svg>
