<?xml version="1.0" encoding="UTF-8" standalone="no"?>
<!DOCTYPE svg PUBLIC "-//W3C//DTD SVG 1.1//EN"
 "http://www.w3.org/Graphics/SVG/1.1/DTD/svg11.dtd">
<!-- Generated by graphviz version 2.38.0 (20140413.2041)
 -->
<!-- Title: Eigen::operator* Pages: 1 -->
<svg width="279pt" height="78pt"
 viewBox="0.00 0.00 279.00 77.50" xmlns="http://www.w3.org/2000/svg" xmlns:xlink="http://www.w3.org/1999/xlink">
<g id="graph0" class="graph" transform="scale(1 1) rotate(0) translate(4 73.5)">
<title>Eigen::operator*</title>
<!-- Node433 -->
<g id="node1" class="node"><title>Node433</title>
<polygon fill="#bfbfbf" stroke="black" points="0,-28 0,-47 95,-47 95,-28 0,-28"/>
<text text-anchor="middle" x="47.5" y="-35" font-family="Helvetica,sans-Serif" font-size="10.00">Eigen::operator*</text>
</g>
<!-- Node434 -->
<g id="node2" class="node"><title>Node434</title>
<g id="a_node2"><a xlink:href="structEigen_1_1EigenBase.html#a324b16961a11d2ecfd2d1b7dd7946545" target="_top" xlink:title="Eigen::EigenBase::derived">
<polygon fill="none" stroke="black" points="131,-50 131,-69 271,-69 271,-50 131,-50"/>
<text text-anchor="middle" x="201" y="-57" font-family="Helvetica,sans-Serif" font-size="10.00">Eigen::EigenBase::derived</text>
</a>
</g>
</g>
<!-- Node433&#45;&gt;Node434 -->
<g id="edge1" class="edge"><title>Node433&#45;&gt;Node434</title>
<path fill="none" stroke="midnightblue" d="M95.1912,-44.2802C104.516,-45.6343 114.533,-47.0889 124.543,-48.5425"/>
<polygon fill="midnightblue" stroke="midnightblue" points="124.126,-52.0186 134.525,-49.992 125.132,-45.0912 124.126,-52.0186"/>
</g>
<!-- Node435 -->
<g id="node3" class="node"><title>Node435</title>
<g id="a_node3"><a xlink:href="classEigen_1_1SparseMatrixBase.html#aa75a5f413b9c78b4ff906091cc9706a5" target="_top" xlink:title="Eigen::SparseMatrixBase\l::derived">
<polygon fill="none" stroke="black" points="133,-0.5 133,-30.5 269,-30.5 269,-0.5 133,-0.5"/>
<text text-anchor="start" x="141" y="-18.5" font-family="Helvetica,sans-Serif" font-size="10.00">Eigen::SparseMatrixBase</text>
<text text-anchor="middle" x="201" y="-7.5" font-family="Helvetica,sans-Serif" font-size="10.00">::derived</text>
</a>
</g>
</g>
<!-- Node433&#45;&gt;Node435 -->
<g id="edge2" class="edge"><title>Node433&#45;&gt;Node435</title>
<path fill="none" stroke="midnightblue" d="M95.1912,-30.7198C103.938,-29.4495 113.295,-28.0908 122.683,-26.7275"/>
<polygon fill="midnightblue" stroke="midnightblue" points="123.463,-30.1511 132.856,-25.2502 122.457,-23.2237 123.463,-30.1511"/>
</g>
</g>
</svg>
