<?xml version="1.0" encoding="UTF-8" standalone="no"?>
<!DOCTYPE svg PUBLIC "-//W3C//DTD SVG 1.1//EN"
 "http://www.w3.org/Graphics/SVG/1.1/DTD/svg11.dtd">
<!-- Generated by graphviz version 2.38.0 (20140413.2041)
 -->
<!-- Title: Eigen::internal::coletree Pages: 1 -->
<svg width="690pt" height="140pt"
 viewBox="0.00 0.00 690.00 140.00" xmlns="http://www.w3.org/2000/svg" xmlns:xlink="http://www.w3.org/1999/xlink">
<g id="graph0" class="graph" transform="scale(1 1) rotate(0) translate(4 136)">
<title>Eigen::internal::coletree</title>
<!-- Node549 -->
<g id="node1" class="node"><title>Node549</title>
<polygon fill="#bfbfbf" stroke="black" points="0,-44.5 0,-63.5 130,-63.5 130,-44.5 0,-44.5"/>
<text text-anchor="middle" x="65" y="-51.5" font-family="Helvetica,sans-Serif" font-size="10.00">Eigen::internal::coletree</text>
</g>
<!-- Node550 -->
<g id="node2" class="node"><title>Node550</title>
<g id="a_node2"><a xlink:href="classEigen_1_1SparseLU.html#aa907ff958c4f4855145091d2686f3a8a" target="_top" xlink:title="Eigen::SparseLU::analyze\lPattern">
<polygon fill="none" stroke="black" points="169,-88 169,-118 306,-118 306,-88 169,-88"/>
<text text-anchor="start" x="177" y="-106" font-family="Helvetica,sans-Serif" font-size="10.00">Eigen::SparseLU::analyze</text>
<text text-anchor="middle" x="237.5" y="-95" font-family="Helvetica,sans-Serif" font-size="10.00">Pattern</text>
</a>
</g>
</g>
<!-- Node549&#45;&gt;Node550 -->
<g id="edge1" class="edge"><title>Node549&#45;&gt;Node550</title>
<path fill="none" stroke="midnightblue" d="M109.028,-66.3657C131.856,-72.9265 160.089,-81.0403 184.178,-87.963"/>
<polygon fill="midnightblue" stroke="midnightblue" points="109.857,-62.9623 99.2789,-63.564 107.923,-69.69 109.857,-62.9623"/>
</g>
<!-- Node554 -->
<g id="node6" class="node"><title>Node554</title>
<g id="a_node6"><a xlink:href="classEigen_1_1SparseQR.html#a4b425ddb1358c914d764cde48853a4f6" target="_top" xlink:title="Preprocessing step of a QR factorization. ">
<polygon fill="none" stroke="black" points="168,-39 168,-69 307,-69 307,-39 168,-39"/>
<text text-anchor="start" x="176" y="-57" font-family="Helvetica,sans-Serif" font-size="10.00">Eigen::SparseQR::analyze</text>
<text text-anchor="middle" x="237.5" y="-46" font-family="Helvetica,sans-Serif" font-size="10.00">Pattern</text>
</a>
</g>
</g>
<!-- Node549&#45;&gt;Node554 -->
<g id="edge5" class="edge"><title>Node549&#45;&gt;Node554</title>
<path fill="none" stroke="midnightblue" d="M140.63,-54C149.72,-54 158.973,-54 167.969,-54"/>
<polygon fill="midnightblue" stroke="midnightblue" points="140.459,-50.5001 130.459,-54 140.459,-57.5001 140.459,-50.5001"/>
</g>
<!-- Node555 -->
<g id="node7" class="node"><title>Node555</title>
<g id="a_node7"><a xlink:href="classEigen_1_1SparseQR.html#a55a34bacf05bd30a1dacbccad9f03c6d" target="_top" xlink:title="Performs the numerical QR factorization of the input matrix. ">
<polygon fill="none" stroke="black" points="166,-0.5 166,-19.5 309,-19.5 309,-0.5 166,-0.5"/>
<text text-anchor="middle" x="237.5" y="-7.5" font-family="Helvetica,sans-Serif" font-size="10.00">Eigen::SparseQR::factorize</text>
</a>
</g>
</g>
<!-- Node549&#45;&gt;Node555 -->
<g id="edge6" class="edge"><title>Node549&#45;&gt;Node555</title>
<path fill="none" stroke="midnightblue" d="M112.739,-41.9383C140.084,-34.8815 174.122,-26.0976 199.576,-19.5287"/>
<polygon fill="midnightblue" stroke="midnightblue" points="111.804,-38.5648 102.996,-44.4527 113.553,-45.3428 111.804,-38.5648"/>
</g>
<!-- Node551 -->
<g id="node3" class="node"><title>Node551</title>
<g id="a_node3"><a xlink:href="classEigen_1_1SparseLU.html#a96a8dcb02015ab9be5777d4ba9173266" target="_top" xlink:title="Eigen::SparseLU::compute">
<polygon fill="none" stroke="black" points="351,-112.5 351,-131.5 494,-131.5 494,-112.5 351,-112.5"/>
<text text-anchor="middle" x="422.5" y="-119.5" font-family="Helvetica,sans-Serif" font-size="10.00">Eigen::SparseLU::compute</text>
</a>
</g>
</g>
<!-- Node550&#45;&gt;Node551 -->
<g id="edge2" class="edge"><title>Node550&#45;&gt;Node551</title>
<path fill="none" stroke="midnightblue" d="M316.133,-111.06C327.634,-112.254 339.434,-113.479 350.783,-114.658"/>
<polygon fill="midnightblue" stroke="midnightblue" points="316.431,-107.572 306.123,-110.021 315.708,-114.535 316.431,-107.572"/>
</g>
<!-- Node553 -->
<g id="node5" class="node"><title>Node553</title>
<g id="a_node5"><a xlink:href="classEigen_1_1SparseLU.html#a9f8d0e64ae5bb5568ca091a0dbc8c9dd" target="_top" xlink:title="Eigen::SparseLU::~SparseLU">
<polygon fill="none" stroke="black" points="345,-74.5 345,-93.5 500,-93.5 500,-74.5 345,-74.5"/>
<text text-anchor="middle" x="422.5" y="-81.5" font-family="Helvetica,sans-Serif" font-size="10.00">Eigen::SparseLU::~SparseLU</text>
</a>
</g>
</g>
<!-- Node550&#45;&gt;Node553 -->
<g id="edge4" class="edge"><title>Node550&#45;&gt;Node553</title>
<path fill="none" stroke="midnightblue" d="M316.301,-94.9223C325.773,-93.9389 335.444,-92.9347 344.898,-91.9532"/>
<polygon fill="midnightblue" stroke="midnightblue" points="315.708,-91.465 306.123,-95.9791 316.431,-98.4276 315.708,-91.465"/>
</g>
<!-- Node552 -->
<g id="node4" class="node"><title>Node552</title>
<g id="a_node4"><a xlink:href="classEigen_1_1SparseLU.html#ac1678e57af46b42561cea4f149861164" target="_top" xlink:title="Eigen::SparseLU::SparseLU">
<polygon fill="none" stroke="black" points="536,-112.5 536,-131.5 682,-131.5 682,-112.5 536,-112.5"/>
<text text-anchor="middle" x="609" y="-119.5" font-family="Helvetica,sans-Serif" font-size="10.00">Eigen::SparseLU::SparseLU</text>
</a>
</g>
</g>
<!-- Node551&#45;&gt;Node552 -->
<g id="edge3" class="edge"><title>Node551&#45;&gt;Node552</title>
<path fill="none" stroke="midnightblue" d="M504.121,-122C514.719,-122 525.526,-122 535.969,-122"/>
<polygon fill="midnightblue" stroke="midnightblue" points="504.041,-118.5 494.041,-122 504.041,-125.5 504.041,-118.5"/>
</g>
</g>
</svg>
