<?xml version="1.0" encoding="UTF-8" standalone="no"?>
<!DOCTYPE svg PUBLIC "-//W3C//DTD SVG 1.1//EN"
 "http://www.w3.org/Graphics/SVG/1.1/DTD/svg11.dtd">
<!-- Generated by graphviz version 2.38.0 (20140413.2041)
 -->
<!-- Title: Eigen::internal::ploaddup&lt; Packet2d &gt; Pages: 1 -->
<!--zoomable 308 -->
<svg id="main" version="1.1" xmlns="http://www.w3.org/2000/svg" xmlns:xlink="http://www.w3.org/1999/xlink" xml:space="preserve" onload="init(evt)">
<style type="text/css"><![CDATA[
.edge:hover path { stroke: red; }
.edge:hover polygon { stroke: red; fill: red; }
]]></style>
<script type="text/javascript"><![CDATA[
var edges = document.getElementsByTagName('g');
if (edges && edges.length) {
  for (var i=0;i<edges.length;i++) {
    if (edges[i].id.substr(0,4)=='edge') {
      edges[i].setAttribute('class','edge');
    }
  }
}
]]></script>
        <defs>
                <circle id="rim" cx="0" cy="0" r="7"/>
                <circle id="rim2" cx="0" cy="0" r="3.5"/>
                <g id="zoomPlus">
                        <use xlink:href="#rim" fill="#404040">
                                <set attributeName="fill" to="#808080" begin="zoomplus.mouseover" end="zoomplus.mouseout"/>
                        </use>
                        <path d="M-4,0h8M0,-4v8" fill="none" stroke="white" stroke-width="1.5" pointer-events="none"/>
                </g>
                <g id="zoomMin">
                        <use xlink:href="#rim" fill="#404040">
                                <set attributeName="fill" to="#808080" begin="zoomminus.mouseover" end="zoomminus.mouseout"/>
                        </use>
                        <path d="M-4,0h8" fill="none" stroke="white" stroke-width="1.5" pointer-events="none"/>
                </g>
                <g id="dirArrow">
                        <path fill="none" stroke="white" stroke-width="1.5" d="M0,-3.0v7 M-2.5,-0.5L0,-3.0L2.5,-0.5"/>
                </g>
               <g id="resetDef">
                       <use xlink:href="#rim2" fill="#404040">
                               <set attributeName="fill" to="#808080" begin="reset.mouseover" end="reset.mouseout"/>
                       </use>
               </g>
        </defs>

<script type="text/javascript">
var viewWidth = 632;
var viewHeight = 308;
var sectionId = 'dynsection-367';
</script>
<script xlink:href="svgpan.js"/>
<svg id="graph" class="graph">
<g id="viewport">
<title>Eigen::internal::ploaddup&lt; Packet2d &gt;</title>
<!-- Node2916 -->
<g id="node1" class="node"><title>Node2916</title>
<polygon fill="#bfbfbf" stroke="black" points="0,-49.5 0,-79.5 135,-79.5 135,-49.5 0,-49.5"/>
<text text-anchor="start" x="8" y="-67.5" font-family="Helvetica,sans-Serif" font-size="10.00">Eigen::internal::ploaddup</text>
<text text-anchor="middle" x="67.5" y="-56.5" font-family="Helvetica,sans-Serif" font-size="10.00">&lt; Packet2d &gt;</text>
</g>
<!-- Node2917 -->
<g id="node2" class="node"><title>Node2917</title>
<g id="a_node2"><a xlink:href="namespaceEigen_1_1internal.html#a3ddf82b3b7cd925ffb814a9baca92fe5" target="_top" xlink:title="Eigen::internal::ploaddup\l\&lt; Packet4i \&gt;">
<polygon fill="none" stroke="black" points="171,-171.5 171,-201.5 306,-201.5 306,-171.5 171,-171.5"/>
<text text-anchor="start" x="179" y="-189.5" font-family="Helvetica,sans-Serif" font-size="10.00">Eigen::internal::ploaddup</text>
<text text-anchor="middle" x="238.5" y="-178.5" font-family="Helvetica,sans-Serif" font-size="10.00">&lt; Packet4i &gt;</text>
</a>
</g>
</g>
<!-- Node2916&#45;&gt;Node2917 -->
<g id="edge1" class="edge"><title>Node2916&#45;&gt;Node2917</title>
<path fill="none" stroke="midnightblue" d="M89.5623,-79.7047C119.58,-101.374 174.768,-141.215 208.592,-165.632"/>
<polygon fill="midnightblue" stroke="midnightblue" points="206.546,-168.472 216.703,-171.487 210.644,-162.796 206.546,-168.472"/>
</g>
<!-- Node2922 -->
<g id="node7" class="node"><title>Node2922</title>
<g id="a_node7"><a xlink:href="namespaceEigen_1_1internal.html#a6024368181b050eb03ef7eea98f084ea" target="_top" xlink:title="Eigen::internal::pset1\l\&lt; Packet2d \&gt;">
<polygon fill="none" stroke="black" points="179.5,-49.5 179.5,-79.5 297.5,-79.5 297.5,-49.5 179.5,-49.5"/>
<text text-anchor="start" x="187.5" y="-67.5" font-family="Helvetica,sans-Serif" font-size="10.00">Eigen::internal::pset1</text>
<text text-anchor="middle" x="238.5" y="-56.5" font-family="Helvetica,sans-Serif" font-size="10.00">&lt; Packet2d &gt;</text>
</a>
</g>
</g>
<!-- Node2916&#45;&gt;Node2922 -->
<g id="edge6" class="edge"><title>Node2916&#45;&gt;Node2922</title>
<path fill="none" stroke="midnightblue" d="M135.293,-64.5C146.454,-64.5 158.047,-64.5 169.243,-64.5"/>
<polygon fill="midnightblue" stroke="midnightblue" points="169.392,-68.0001 179.392,-64.5 169.391,-61.0001 169.392,-68.0001"/>
</g>
<!-- Node2926 -->
<g id="node11" class="node"><title>Node2926</title>
<g id="a_node11"><a xlink:href="namespaceEigen_1_1internal.html#a9ee8e4444b597c94c387d0c22c85adb3" target="_top" xlink:title="Eigen::internal::pstore\l\&lt; float \&gt;">
<polygon fill="none" stroke="black" points="177.5,-0.5 177.5,-30.5 299.5,-30.5 299.5,-0.5 177.5,-0.5"/>
<text text-anchor="start" x="185.5" y="-18.5" font-family="Helvetica,sans-Serif" font-size="10.00">Eigen::internal::pstore</text>
<text text-anchor="middle" x="238.5" y="-7.5" font-family="Helvetica,sans-Serif" font-size="10.00">&lt; float &gt;</text>
</a>
</g>
</g>
<!-- Node2916&#45;&gt;Node2926 -->
<g id="edge11" class="edge"><title>Node2916&#45;&gt;Node2926</title>
<path fill="none" stroke="midnightblue" d="M120.585,-49.3986C138.095,-44.3215 157.795,-38.6098 175.962,-33.3423"/>
<polygon fill="midnightblue" stroke="midnightblue" points="176.958,-36.6979 185.587,-30.5516 175.008,-29.9748 176.958,-36.6979"/>
</g>
<!-- Node2918 -->
<g id="node3" class="node"><title>Node2918</title>
<g id="a_node3"><a xlink:href="namespaceEigen_1_1internal.html#ae1c0b08faef0da90bb6fa78856bcf726" target="_top" xlink:title="Eigen::internal::pload\l\&lt; Packet4i \&gt;">
<polygon fill="none" stroke="black" points="347.5,-269.5 347.5,-299.5 464.5,-299.5 464.5,-269.5 347.5,-269.5"/>
<text text-anchor="start" x="355.5" y="-287.5" font-family="Helvetica,sans-Serif" font-size="10.00">Eigen::internal::pload</text>
<text text-anchor="middle" x="406" y="-276.5" font-family="Helvetica,sans-Serif" font-size="10.00">&lt; Packet4i &gt;</text>
</a>
</g>
</g>
<!-- Node2917&#45;&gt;Node2918 -->
<g id="edge2" class="edge"><title>Node2917&#45;&gt;Node2918</title>
<path fill="none" stroke="midnightblue" d="M257.424,-201.682C277.164,-217.849 310.32,-243.413 342,-260.5 345.081,-262.162 348.301,-263.763 351.587,-265.294"/>
<polygon fill="midnightblue" stroke="midnightblue" points="350.396,-268.594 360.959,-269.421 353.217,-262.188 350.396,-268.594"/>
</g>
<!-- Node2919 -->
<g id="node4" class="node"><title>Node2919</title>
<g id="a_node4"><a xlink:href="namespaceEigen_1_1internal.html#a8ca7358422bc5068a529fb12256f17c0" target="_top" xlink:title="Eigen::internal::ploadu\l\&lt; Packet4i \&gt;">
<polygon fill="none" stroke="black" points="344.5,-220.5 344.5,-250.5 467.5,-250.5 467.5,-220.5 344.5,-220.5"/>
<text text-anchor="start" x="352.5" y="-238.5" font-family="Helvetica,sans-Serif" font-size="10.00">Eigen::internal::ploadu</text>
<text text-anchor="middle" x="406" y="-227.5" font-family="Helvetica,sans-Serif" font-size="10.00">&lt; Packet4i &gt;</text>
</a>
</g>
</g>
<!-- Node2917&#45;&gt;Node2919 -->
<g id="edge3" class="edge"><title>Node2917&#45;&gt;Node2919</title>
<path fill="none" stroke="midnightblue" d="M290.506,-201.601C307.575,-206.655 326.768,-212.338 344.491,-217.585"/>
<polygon fill="midnightblue" stroke="midnightblue" points="343.58,-220.965 354.163,-220.448 345.568,-214.253 343.58,-220.965"/>
</g>
<!-- Node2920 -->
<g id="node5" class="node"><title>Node2920</title>
<g id="a_node5"><a xlink:href="namespaceEigen_1_1internal.html#aea49c19b4b3f450da1ff1a018e958eef" target="_top" xlink:title="Eigen::internal::pstoreu\l\&lt; float \&gt;">
<polygon fill="none" stroke="black" points="342,-171.5 342,-201.5 470,-201.5 470,-171.5 342,-171.5"/>
<text text-anchor="start" x="350" y="-189.5" font-family="Helvetica,sans-Serif" font-size="10.00">Eigen::internal::pstoreu</text>
<text text-anchor="middle" x="406" y="-178.5" font-family="Helvetica,sans-Serif" font-size="10.00">&lt; float &gt;</text>
</a>
</g>
</g>
<!-- Node2917&#45;&gt;Node2920 -->
<g id="edge4" class="edge"><title>Node2917&#45;&gt;Node2920</title>
<path fill="none" stroke="midnightblue" d="M306.338,-186.5C314.693,-186.5 323.273,-186.5 331.72,-186.5"/>
<polygon fill="midnightblue" stroke="midnightblue" points="331.933,-190 341.933,-186.5 331.933,-183 331.933,-190"/>
</g>
<!-- Node2921 -->
<g id="node6" class="node"><title>Node2921</title>
<g id="a_node6"><a xlink:href="namespaceEigen_1_1internal.html#abe9341bd54c8f36e4add9c441481704c" target="_top" xlink:title="Eigen::internal::pstoreu\l\&lt; int \&gt;">
<polygon fill="none" stroke="black" points="342,-122.5 342,-152.5 470,-152.5 470,-122.5 342,-122.5"/>
<text text-anchor="start" x="350" y="-140.5" font-family="Helvetica,sans-Serif" font-size="10.00">Eigen::internal::pstoreu</text>
<text text-anchor="middle" x="406" y="-129.5" font-family="Helvetica,sans-Serif" font-size="10.00">&lt; int &gt;</text>
</a>
</g>
</g>
<!-- Node2917&#45;&gt;Node2921 -->
<g id="edge5" class="edge"><title>Node2917&#45;&gt;Node2921</title>
<path fill="none" stroke="midnightblue" d="M290.506,-171.399C307.575,-166.345 326.768,-160.662 344.491,-155.415"/>
<polygon fill="midnightblue" stroke="midnightblue" points="345.568,-158.747 354.163,-152.552 343.58,-152.035 345.568,-158.747"/>
</g>
<!-- Node2923 -->
<g id="node8" class="node"><title>Node2923</title>
<g id="a_node8"><a xlink:href="namespaceEigen_1_1internal.html#a2531efc4e18dcd18aa6c28ea26b5fd4c" target="_top" xlink:title="Eigen::internal::pset1\l\&lt; Packet4i \&gt;">
<polygon fill="none" stroke="black" points="347,-73.5 347,-103.5 465,-103.5 465,-73.5 347,-73.5"/>
<text text-anchor="start" x="355" y="-91.5" font-family="Helvetica,sans-Serif" font-size="10.00">Eigen::internal::pset1</text>
<text text-anchor="middle" x="406" y="-80.5" font-family="Helvetica,sans-Serif" font-size="10.00">&lt; Packet4i &gt;</text>
</a>
</g>
</g>
<!-- Node2922&#45;&gt;Node2923 -->
<g id="edge7" class="edge"><title>Node2922&#45;&gt;Node2923</title>
<path fill="none" stroke="midnightblue" d="M297.849,-72.9615C310.406,-74.7825 323.786,-76.7228 336.684,-78.5931"/>
<polygon fill="midnightblue" stroke="midnightblue" points="336.5,-82.103 346.899,-80.0745 337.505,-75.1755 336.5,-82.103"/>
</g>
<!-- Node2924 -->
<g id="node9" class="node"><title>Node2924</title>
<g id="a_node9"><a xlink:href="namespaceEigen_1_1internal.html#ae62a34e75a1b533d4baaea4a1719bd45" target="_top" xlink:title="Eigen::internal::plset\l\&lt; Packet4f \&gt;">
<polygon fill="none" stroke="black" points="349,-24.5 349,-54.5 463,-54.5 463,-24.5 349,-24.5"/>
<text text-anchor="start" x="357" y="-42.5" font-family="Helvetica,sans-Serif" font-size="10.00">Eigen::internal::plset</text>
<text text-anchor="middle" x="406" y="-31.5" font-family="Helvetica,sans-Serif" font-size="10.00">&lt; Packet4f &gt;</text>
</a>
</g>
</g>
<!-- Node2922&#45;&gt;Node2924 -->
<g id="edge8" class="edge"><title>Node2922&#45;&gt;Node2924</title>
<path fill="none" stroke="midnightblue" d="M297.849,-55.6859C311.05,-53.6919 325.16,-51.5604 338.663,-49.5207"/>
<polygon fill="midnightblue" stroke="midnightblue" points="339.48,-52.9371 348.845,-47.9827 338.434,-46.0156 339.48,-52.9371"/>
</g>
<!-- Node2925 -->
<g id="node10" class="node"><title>Node2925</title>
<g id="a_node10"><a xlink:href="namespaceEigen_1_1internal.html#a923941269228f9ceaf233636da958609" target="_top" xlink:title="Eigen::internal::pset1\l\&lt; Packet4f \&gt;">
<polygon fill="none" stroke="black" points="506,-2.5 506,-32.5 624,-32.5 624,-2.5 506,-2.5"/>
<text text-anchor="start" x="514" y="-20.5" font-family="Helvetica,sans-Serif" font-size="10.00">Eigen::internal::pset1</text>
<text text-anchor="middle" x="565" y="-9.5" font-family="Helvetica,sans-Serif" font-size="10.00">&lt; Packet4f &gt;</text>
</a>
</g>
</g>
<!-- Node2922&#45;&gt;Node2925 -->
<g id="edge10" class="edge"><title>Node2922&#45;&gt;Node2925</title>
<path fill="none" stroke="midnightblue" d="M284.168,-49.454C291.598,-46.4586 299.12,-43.1109 306,-39.5 323.249,-30.4479 323.411,-20.3216 342,-14.5 391.652,1.04959 450.666,-0.633089 495.363,-5.69862"/>
<polygon fill="midnightblue" stroke="midnightblue" points="495.187,-9.20291 505.536,-6.93739 496.033,-2.25423 495.187,-9.20291"/>
</g>
<!-- Node2924&#45;&gt;Node2925 -->
<g id="edge9" class="edge"><title>Node2924&#45;&gt;Node2925</title>
<path fill="none" stroke="midnightblue" d="M463.237,-31.6196C473.706,-30.1527 484.75,-28.6051 495.537,-27.0935"/>
<polygon fill="midnightblue" stroke="midnightblue" points="496.356,-30.5131 505.773,-25.6591 495.384,-23.5808 496.356,-30.5131"/>
</g>
</g>
</svg>
        <g id="navigator" transform="translate(0 0)" fill="#404254">
                <rect fill="#f2f5e9" fill-opacity="0.5" stroke="#606060" stroke-width=".5" x="0" y="0" width="60" height="60"/>
                <use id="zoomplus" xlink:href="#zoomPlus" x="17" y="9" onmousedown="handleZoom(evt,'in')"/>
                <use id="zoomminus" xlink:href="#zoomMin" x="42" y="9" onmousedown="handleZoom(evt,'out')"/>
                <use id="reset" xlink:href="#resetDef" x="30" y="36" onmousedown="handleReset()"/>
                <g id="arrowUp" xlink:href="#dirArrow" transform="translate(30 24)" onmousedown="handlePan(0,-1)">
                  <use xlink:href="#rim" fill="#404040">
                        <set attributeName="fill" to="#808080" begin="arrowUp.mouseover" end="arrowUp.mouseout"/>
                  </use>
                  <path fill="none" stroke="white" stroke-width="1.5" d="M0,-3.0v7 M-2.5,-0.5L0,-3.0L2.5,-0.5"/>
                </g>
                <g id="arrowRight" xlink:href="#dirArrow" transform="rotate(90) translate(36 -43)" onmousedown="handlePan(1,0)">
                  <use xlink:href="#rim" fill="#404040">
                        <set attributeName="fill" to="#808080" begin="arrowRight.mouseover" end="arrowRight.mouseout"/>
                  </use>
                  <path fill="none" stroke="white" stroke-width="1.5" d="M0,-3.0v7 M-2.5,-0.5L0,-3.0L2.5,-0.5"/>
                </g>
                <g id="arrowDown" xlink:href="#dirArrow" transform="rotate(180) translate(-30 -48)" onmousedown="handlePan(0,1)">
                  <use xlink:href="#rim" fill="#404040">
                        <set attributeName="fill" to="#808080" begin="arrowDown.mouseover" end="arrowDown.mouseout"/>
                  </use>
                  <path fill="none" stroke="white" stroke-width="1.5" d="M0,-3.0v7 M-2.5,-0.5L0,-3.0L2.5,-0.5"/>
                </g>
                <g id="arrowLeft" xlink:href="#dirArrow" transform="rotate(270) translate(-36 17)" onmousedown="handlePan(-1,0)">
                  <use xlink:href="#rim" fill="#404040">
                        <set attributeName="fill" to="#808080" begin="arrowLeft.mouseover" end="arrowLeft.mouseout"/>
                  </use>
                  <path fill="none" stroke="white" stroke-width="1.5" d="M0,-3.0v7 M-2.5,-0.5L0,-3.0L2.5,-0.5"/>
                </g>
        </g>
        <svg viewBox="0 0 15 15" width="100%" height="30px" preserveAspectRatio="xMaxYMin meet">
         <g id="arrow_out" transform="scale(0.3 0.3)">
          <a xlink:href="namespaceEigen_1_1internal_a422d191db7a3b5d19a59688e9138dc1c_cgraph_org.svg" target="_base">
           <rect id="button" ry="5" rx="5" y="6" x="6" height="38" width="38"
                fill="#f2f5e9" fill-opacity="0.5" stroke="#606060" stroke-width="1.0"/>
           <path id="arrow"
             d="M 11.500037,31.436501 C 11.940474,20.09759 22.043105,11.32322 32.158766,21.979434 L 37.068811,17.246167 C 37.068811,17.246167 37.088388,32 37.088388,32 L 22.160133,31.978069 C 22.160133,31.978069 26.997745,27.140456 26.997745,27.140456 C 18.528582,18.264221 13.291696,25.230495 11.500037,31.436501 z"
             style="fill:#404040;"/>
          </a>
         </g>
        </svg>
</svg>
