<?xml version="1.0" encoding="UTF-8" standalone="no"?>
<!DOCTYPE svg PUBLIC "-//W3C//DTD SVG 1.1//EN"
 "http://www.w3.org/Graphics/SVG/1.1/DTD/svg11.dtd">
<!-- Generated by graphviz version 2.38.0 (20140413.2041)
 -->
<!-- Title: Eigen::setNbThreads Pages: 1 -->
<svg width="219pt" height="66pt"
 viewBox="0.00 0.00 219.00 66.00" xmlns="http://www.w3.org/2000/svg" xmlns:xlink="http://www.w3.org/1999/xlink">
<g id="graph0" class="graph" transform="scale(1 1) rotate(0) translate(4 62)">
<title>Eigen::setNbThreads</title>
<!-- Node598 -->
<g id="node1" class="node"><title>Node598</title>
<polygon fill="#bfbfbf" stroke="black" points="0,-19.5 0,-38.5 116,-38.5 116,-19.5 0,-19.5"/>
<text text-anchor="middle" x="58" y="-26.5" font-family="Helvetica,sans-Serif" font-size="10.00">Eigen::setNbThreads</text>
</g>
<!-- Node599 -->
<g id="node2" class="node"><title>Node599</title>
<g id="a_node2"><a xlink:href="Interface_8h.html#a1631bc99f1971bffda69d81d8ebb8fd0" target="_top" xlink:title="compute">
<polygon fill="none" stroke="black" points="152,-38.5 152,-57.5 211,-57.5 211,-38.5 152,-38.5"/>
<text text-anchor="middle" x="181.5" y="-45.5" font-family="Helvetica,sans-Serif" font-size="10.00">compute</text>
</a>
</g>
</g>
<!-- Node598&#45;&gt;Node599 -->
<g id="edge1" class="edge"><title>Node598&#45;&gt;Node599</title>
<path fill="none" stroke="midnightblue" d="M126.103,-39.4934C135.203,-40.9165 144.11,-42.3094 151.997,-43.5427"/>
<polygon fill="midnightblue" stroke="midnightblue" points="126.613,-36.0308 116.192,-37.9436 125.531,-42.9467 126.613,-36.0308"/>
</g>
<!-- Node600 -->
<g id="node3" class="node"><title>Node600</title>
<g id="a_node3"><a xlink:href="bench__gemm_8cpp.html#a3c04138a5bfe5d72780bb7e82a18e627" target="_top" xlink:title="main">
<polygon fill="none" stroke="black" points="161,-0.5 161,-19.5 202,-19.5 202,-0.5 161,-0.5"/>
<text text-anchor="middle" x="181.5" y="-7.5" font-family="Helvetica,sans-Serif" font-size="10.00">main</text>
</a>
</g>
</g>
<!-- Node598&#45;&gt;Node600 -->
<g id="edge2" class="edge"><title>Node598&#45;&gt;Node600</title>
<path fill="none" stroke="midnightblue" d="M126.321,-18.4724C138.902,-16.5051 151.102,-14.5972 160.73,-13.0917"/>
<polygon fill="midnightblue" stroke="midnightblue" points="125.531,-15.0533 116.192,-20.0564 126.613,-21.9692 125.531,-15.0533"/>
</g>
</g>
</svg>
