<?xml version="1.0" encoding="UTF-8" standalone="no"?>
<!DOCTYPE svg PUBLIC "-//W3C//DTD SVG 1.1//EN"
 "http://www.w3.org/Graphics/SVG/1.1/DTD/svg11.dtd">
<!-- Generated by graphviz version 2.38.0 (20140413.2041)
 -->
<!-- Title: Eigen::internal::pload&lt; Packet1cd &gt; Pages: 1 -->
<svg width="668pt" height="586pt"
 viewBox="0.00 0.00 668.00 586.00" xmlns="http://www.w3.org/2000/svg" xmlns:xlink="http://www.w3.org/1999/xlink">
<g id="graph0" class="graph" transform="scale(1 1) rotate(0) translate(4 582)">
<title>Eigen::internal::pload&lt; Packet1cd &gt;</title>
<!-- Node2752 -->
<g id="node1" class="node"><title>Node2752</title>
<polygon fill="#bfbfbf" stroke="black" points="0,-468 0,-498 117,-498 117,-468 0,-468"/>
<text text-anchor="start" x="8" y="-486" font-family="Helvetica,sans-Serif" font-size="10.00">Eigen::internal::pload</text>
<text text-anchor="middle" x="58.5" y="-475" font-family="Helvetica,sans-Serif" font-size="10.00">&lt; Packet1cd &gt;</text>
</g>
<!-- Node2753 -->
<g id="node2" class="node"><title>Node2753</title>
<g id="a_node2"><a xlink:href="namespaceEigen_1_1internal.html#a27be9d816b0e77a8d22c2a3d67c57456" target="_top" xlink:title="Eigen::internal::pgather\l\&lt; std::complex\&lt; double\l \&gt;, Packet1cd \&gt;">
<polygon fill="none" stroke="black" points="159,-511.5 159,-552.5 292,-552.5 292,-511.5 159,-511.5"/>
<text text-anchor="start" x="167" y="-540.5" font-family="Helvetica,sans-Serif" font-size="10.00">Eigen::internal::pgather</text>
<text text-anchor="start" x="167" y="-529.5" font-family="Helvetica,sans-Serif" font-size="10.00">&lt; std::complex&lt; double</text>
<text text-anchor="middle" x="225.5" y="-518.5" font-family="Helvetica,sans-Serif" font-size="10.00"> &gt;, Packet1cd &gt;</text>
</a>
</g>
</g>
<!-- Node2752&#45;&gt;Node2753 -->
<g id="edge1" class="edge"><title>Node2752&#45;&gt;Node2753</title>
<path fill="none" stroke="midnightblue" d="M120.264,-501.045C132.849,-504.782 146.16,-508.735 158.908,-512.521"/>
<polygon fill="midnightblue" stroke="midnightblue" points="120.934,-497.593 110.352,-498.101 118.942,-504.304 120.934,-497.593"/>
</g>
<!-- Node2754 -->
<g id="node3" class="node"><title>Node2754</title>
<g id="a_node3"><a xlink:href="structEigen_1_1internal_1_1conj__helper_3_01Packet2cf_00_01Packet2cf_00_01true_00_01true_01_4.html#a6956a6a7b0de2fd58bd9a8ab2e3c25ae" target="_top" xlink:title="Eigen::internal::conj\l_helper\&lt; Packet2cf, Packet2cf,\l true, true \&gt;::pmul">
<polygon fill="none" stroke="black" points="348,-536.5 348,-577.5 512,-577.5 512,-536.5 348,-536.5"/>
<text text-anchor="start" x="356" y="-565.5" font-family="Helvetica,sans-Serif" font-size="10.00">Eigen::internal::conj</text>
<text text-anchor="start" x="356" y="-554.5" font-family="Helvetica,sans-Serif" font-size="10.00">_helper&lt; Packet2cf, Packet2cf,</text>
<text text-anchor="middle" x="430" y="-543.5" font-family="Helvetica,sans-Serif" font-size="10.00"> true, true &gt;::pmul</text>
</a>
</g>
</g>
<!-- Node2752&#45;&gt;Node2754 -->
<g id="edge2" class="edge"><title>Node2752&#45;&gt;Node2754</title>
<path fill="none" stroke="midnightblue" d="M127.286,-479.125C176.124,-478.529 242.859,-482.293 298,-502 316.343,-508.556 316.514,-518.414 334,-527 340.986,-530.43 348.452,-533.582 356.013,-536.446"/>
<polygon fill="midnightblue" stroke="midnightblue" points="127.079,-475.628 117.146,-479.314 127.21,-482.627 127.079,-475.628"/>
</g>
<!-- Node2755 -->
<g id="node4" class="node"><title>Node2755</title>
<g id="a_node4"><a xlink:href="namespaceEigen_1_1internal.html#a375fca01f8ae80efcba6793f990c7917" target="_top" xlink:title="Eigen::internal::ptranspose">
<polygon fill="none" stroke="black" points="153,-337.5 153,-356.5 298,-356.5 298,-337.5 153,-337.5"/>
<text text-anchor="middle" x="225.5" y="-344.5" font-family="Helvetica,sans-Serif" font-size="10.00">Eigen::internal::ptranspose</text>
</a>
</g>
</g>
<!-- Node2752&#45;&gt;Node2755 -->
<g id="edge3" class="edge"><title>Node2752&#45;&gt;Node2755</title>
<path fill="none" stroke="midnightblue" d="M85.5125,-461.559C121.803,-431.647 186.148,-378.611 212.619,-356.793"/>
<polygon fill="midnightblue" stroke="midnightblue" points="83.2788,-458.865 77.7883,-467.926 87.7311,-464.266 83.2788,-458.865"/>
</g>
<!-- Node2755&#45;&gt;Node2754 -->
<g id="edge4" class="edge"><title>Node2755&#45;&gt;Node2754</title>
<path fill="none" stroke="midnightblue" d="M237.36,-365.576C263.936,-410.982 330.351,-524.114 334,-527 338.477,-530.541 343.378,-533.667 348.52,-536.427"/>
<polygon fill="midnightblue" stroke="midnightblue" points="240.265,-363.609 232.194,-356.745 234.223,-367.144 240.265,-363.609"/>
</g>
<!-- Node2756 -->
<g id="node5" class="node"><title>Node2756</title>
<g id="a_node5"><a xlink:href="namespaceEigen_1_1internal.html#a79e630f9d4aa81b60904b7085c99c473" target="_top" xlink:title="Eigen::internal::pcplxflip">
<polygon fill="none" stroke="black" points="365.5,-498.5 365.5,-517.5 494.5,-517.5 494.5,-498.5 365.5,-498.5"/>
<text text-anchor="middle" x="430" y="-505.5" font-family="Helvetica,sans-Serif" font-size="10.00">Eigen::internal::pcplxflip</text>
</a>
</g>
</g>
<!-- Node2755&#45;&gt;Node2756 -->
<g id="edge5" class="edge"><title>Node2755&#45;&gt;Node2756</title>
<path fill="none" stroke="midnightblue" d="M235.073,-365.754C250.279,-396.754 285.046,-458.302 334,-489 343.405,-494.898 354.275,-499.017 365.229,-501.883"/>
<polygon fill="midnightblue" stroke="midnightblue" points="238.129,-364.029 230.674,-356.501 231.807,-367.035 238.129,-364.029"/>
</g>
<!-- Node2757 -->
<g id="node6" class="node"><title>Node2757</title>
<g id="a_node6"><a xlink:href="namespaceEigen_1_1internal.html#afc41c0196b601e87b2123adfee80c65f" target="_top" xlink:title="Eigen::internal::pscatter\l\&lt; std::complex\&lt; double\l \&gt;, Packet1cd \&gt;">
<polygon fill="none" stroke="black" points="363.5,-438.5 363.5,-479.5 496.5,-479.5 496.5,-438.5 363.5,-438.5"/>
<text text-anchor="start" x="371.5" y="-467.5" font-family="Helvetica,sans-Serif" font-size="10.00">Eigen::internal::pscatter</text>
<text text-anchor="start" x="371.5" y="-456.5" font-family="Helvetica,sans-Serif" font-size="10.00">&lt; std::complex&lt; double</text>
<text text-anchor="middle" x="430" y="-445.5" font-family="Helvetica,sans-Serif" font-size="10.00"> &gt;, Packet1cd &gt;</text>
</a>
</g>
</g>
<!-- Node2755&#45;&gt;Node2757 -->
<g id="edge6" class="edge"><title>Node2755&#45;&gt;Node2757</title>
<path fill="none" stroke="midnightblue" d="M244.153,-363.585C264.435,-381.86 299.392,-411.037 334,-429 343.211,-433.781 353.322,-437.968 363.407,-441.578"/>
<polygon fill="midnightblue" stroke="midnightblue" points="246.383,-360.882 236.645,-356.71 241.656,-366.045 246.383,-360.882"/>
</g>
<!-- Node2758 -->
<g id="node7" class="node"><title>Node2758</title>
<g id="a_node7"><a xlink:href="namespaceEigen_1_1internal.html#a03c68a7844a6c488608dd1fdb91cedfb" target="_top" xlink:title="Eigen::internal::ptranspose">
<polygon fill="none" stroke="black" points="357.5,-400.5 357.5,-419.5 502.5,-419.5 502.5,-400.5 357.5,-400.5"/>
<text text-anchor="middle" x="430" y="-407.5" font-family="Helvetica,sans-Serif" font-size="10.00">Eigen::internal::ptranspose</text>
</a>
</g>
</g>
<!-- Node2755&#45;&gt;Node2758 -->
<g id="edge7" class="edge"><title>Node2755&#45;&gt;Node2758</title>
<path fill="none" stroke="midnightblue" d="M255.844,-360.794C277.149,-370.367 306.877,-382.819 334,-391 346.158,-394.667 359.407,-397.824 372.047,-400.452"/>
<polygon fill="midnightblue" stroke="midnightblue" points="257.238,-357.584 246.687,-356.625 254.337,-363.954 257.238,-357.584"/>
</g>
<!-- Node2759 -->
<g id="node8" class="node"><title>Node2759</title>
<g id="a_node8"><a xlink:href="namespaceEigen_1_1internal.html#abaadd9aa6aafdf268f71646684340302" target="_top" xlink:title="Eigen::internal::pblend">
<polygon fill="none" stroke="black" points="368.5,-362.5 368.5,-381.5 491.5,-381.5 491.5,-362.5 368.5,-362.5"/>
<text text-anchor="middle" x="430" y="-369.5" font-family="Helvetica,sans-Serif" font-size="10.00">Eigen::internal::pblend</text>
</a>
</g>
</g>
<!-- Node2755&#45;&gt;Node2759 -->
<g id="edge8" class="edge"><title>Node2755&#45;&gt;Node2759</title>
<path fill="none" stroke="midnightblue" d="M308.268,-357.095C328.384,-359.578 349.567,-362.193 368.476,-364.528"/>
<polygon fill="midnightblue" stroke="midnightblue" points="308.532,-353.601 298.179,-355.849 307.675,-360.548 308.532,-353.601"/>
</g>
<!-- Node2760 -->
<g id="node9" class="node"><title>Node2760</title>
<g id="a_node9"><a xlink:href="structEigen_1_1internal_1_1palign__impl_3_01Offset_00_01Packet2d_01_4.html#a67e74f2cd50ad7d14d1820186da5f752" target="_top" xlink:title="Eigen::internal::palign\l_impl\&lt; Offset, Packet2d\l \&gt;::run">
<polygon fill="none" stroke="black" points="364.5,-302.5 364.5,-343.5 495.5,-343.5 495.5,-302.5 364.5,-302.5"/>
<text text-anchor="start" x="372.5" y="-331.5" font-family="Helvetica,sans-Serif" font-size="10.00">Eigen::internal::palign</text>
<text text-anchor="start" x="372.5" y="-320.5" font-family="Helvetica,sans-Serif" font-size="10.00">_impl&lt; Offset, Packet2d</text>
<text text-anchor="middle" x="430" y="-309.5" font-family="Helvetica,sans-Serif" font-size="10.00"> &gt;::run</text>
</a>
</g>
</g>
<!-- Node2755&#45;&gt;Node2760 -->
<g id="edge9" class="edge"><title>Node2755&#45;&gt;Node2760</title>
<path fill="none" stroke="midnightblue" d="M308.127,-337.326C326.772,-335.116 346.341,-332.797 364.171,-330.683"/>
<polygon fill="midnightblue" stroke="midnightblue" points="307.697,-333.852 298.179,-338.505 308.521,-340.803 307.697,-333.852"/>
</g>
<!-- Node2761 -->
<g id="node10" class="node"><title>Node2761</title>
<g id="a_node10"><a xlink:href="namespaceEigen_1_1internal.html#a2636173af6863de34e156dfbf6ed6301" target="_top" xlink:title="Eigen::internal::pabs\l\&lt; Packet4f \&gt;">
<polygon fill="none" stroke="black" points="373,-253 373,-283 487,-283 487,-253 373,-253"/>
<text text-anchor="start" x="381" y="-271" font-family="Helvetica,sans-Serif" font-size="10.00">Eigen::internal::pabs</text>
<text text-anchor="middle" x="430" y="-260" font-family="Helvetica,sans-Serif" font-size="10.00">&lt; Packet4f &gt;</text>
</a>
</g>
</g>
<!-- Node2755&#45;&gt;Node2761 -->
<g id="edge10" class="edge"><title>Node2755&#45;&gt;Node2761</title>
<path fill="none" stroke="midnightblue" d="M251.53,-332.549C272.898,-320.675 304.729,-304.065 334,-293 346.363,-288.326 359.948,-284.191 372.881,-280.697"/>
<polygon fill="midnightblue" stroke="midnightblue" points="249.772,-329.522 242.773,-337.476 253.205,-335.623 249.772,-329.522"/>
</g>
<!-- Node2762 -->
<g id="node11" class="node"><title>Node2762</title>
<g id="a_node11"><a xlink:href="structEigen_1_1internal_1_1gemm__pack__lhs_3_01Scalar_00_01Index_00_01DataMapper_00_01Pack1_00_02096896f571e4dfaad2de53af9b13499.html#af0f474d4d31213df020ad25af0c482d3" target="_top" xlink:title="Eigen::internal::gemm\l_pack_lhs\&lt; Scalar, Index,\l DataMapper, Pack1, Pack2,\l RowMajor, Conjugate, PanelMode\l \&gt;::operator()">
<polygon fill="none" stroke="black" points="342,-170.5 342,-233.5 518,-233.5 518,-170.5 342,-170.5"/>
<text text-anchor="start" x="350" y="-221.5" font-family="Helvetica,sans-Serif" font-size="10.00">Eigen::internal::gemm</text>
<text text-anchor="start" x="350" y="-210.5" font-family="Helvetica,sans-Serif" font-size="10.00">_pack_lhs&lt; Scalar, Index,</text>
<text text-anchor="start" x="350" y="-199.5" font-family="Helvetica,sans-Serif" font-size="10.00"> DataMapper, Pack1, Pack2,</text>
<text text-anchor="start" x="350" y="-188.5" font-family="Helvetica,sans-Serif" font-size="10.00"> RowMajor, Conjugate, PanelMode</text>
<text text-anchor="middle" x="430" y="-177.5" font-family="Helvetica,sans-Serif" font-size="10.00"> &gt;::operator()</text>
</a>
</g>
</g>
<!-- Node2755&#45;&gt;Node2762 -->
<g id="edge11" class="edge"><title>Node2755&#45;&gt;Node2762</title>
<path fill="none" stroke="midnightblue" d="M241.089,-329.692C260.484,-307.527 296.676,-268.998 334,-244 339.394,-240.387 345.149,-236.96 351.058,-233.738"/>
<polygon fill="midnightblue" stroke="midnightblue" points="238.389,-327.464 234.511,-337.324 243.691,-332.035 238.389,-327.464"/>
</g>
<!-- Node2763 -->
<g id="node12" class="node"><title>Node2763</title>
<g id="a_node12"><a xlink:href="structEigen_1_1internal_1_1gemm__pack__rhs_3_01Scalar_00_01Index_00_01DataMapper_00_01nr_00_01Coa362601eadb4c84345b37afcaba09a6d.html#adecc1d0ef7d3a37b141ab64bd56feaf0" target="_top" xlink:title="Eigen::internal::gemm\l_pack_rhs\&lt; Scalar, Index,\l DataMapper, nr, ColMajor,\l Conjugate, PanelMode \&gt;::operator()">
<polygon fill="none" stroke="black" points="334,-99 334,-151 526,-151 526,-99 334,-99"/>
<text text-anchor="start" x="342" y="-139" font-family="Helvetica,sans-Serif" font-size="10.00">Eigen::internal::gemm</text>
<text text-anchor="start" x="342" y="-128" font-family="Helvetica,sans-Serif" font-size="10.00">_pack_rhs&lt; Scalar, Index,</text>
<text text-anchor="start" x="342" y="-117" font-family="Helvetica,sans-Serif" font-size="10.00"> DataMapper, nr, ColMajor,</text>
<text text-anchor="middle" x="430" y="-106" font-family="Helvetica,sans-Serif" font-size="10.00"> Conjugate, PanelMode &gt;::operator()</text>
</a>
</g>
</g>
<!-- Node2755&#45;&gt;Node2763 -->
<g id="edge12" class="edge"><title>Node2755&#45;&gt;Node2763</title>
<path fill="none" stroke="midnightblue" d="M232.688,-327.722C245.608,-290.398 278.907,-207.828 334,-161 338.3,-157.345 343.01,-154.041 347.96,-151.057"/>
<polygon fill="midnightblue" stroke="midnightblue" points="229.312,-326.781 229.457,-337.375 235.95,-329.003 229.312,-326.781"/>
</g>
<!-- Node2764 -->
<g id="node13" class="node"><title>Node2764</title>
<g id="a_node13"><a xlink:href="structEigen_1_1internal_1_1inplace__transpose__selector_3_01MatrixType_00_01true_00_01true_01_4.html#ade80113166d3d27b8631ba4549269926" target="_top" xlink:title="Eigen::internal::inplace\l_transpose_selector\&lt; MatrixType,\l true, true \&gt;::run">
<polygon fill="none" stroke="black" points="341,-38.5 341,-79.5 519,-79.5 519,-38.5 341,-38.5"/>
<text text-anchor="start" x="349" y="-67.5" font-family="Helvetica,sans-Serif" font-size="10.00">Eigen::internal::inplace</text>
<text text-anchor="start" x="349" y="-56.5" font-family="Helvetica,sans-Serif" font-size="10.00">_transpose_selector&lt; MatrixType,</text>
<text text-anchor="middle" x="430" y="-45.5" font-family="Helvetica,sans-Serif" font-size="10.00"> true, true &gt;::run</text>
</a>
</g>
</g>
<!-- Node2755&#45;&gt;Node2764 -->
<g id="edge13" class="edge"><title>Node2755&#45;&gt;Node2764</title>
<path fill="none" stroke="midnightblue" d="M229.062,-327.547C236.355,-279.975 261.592,-156.785 334,-90 338.208,-86.1184 342.91,-82.7224 347.909,-79.7513"/>
<polygon fill="midnightblue" stroke="midnightblue" points="225.596,-327.066 227.64,-337.462 232.525,-328.061 225.596,-327.066"/>
</g>
<!-- Node2765 -->
<g id="node14" class="node"><title>Node2765</title>
<g id="a_node14"><a xlink:href="packetmath_8cpp.html#a517110e4796d1bac787500a5b23f9bbe" target="_top" xlink:title="packetmath">
<polygon fill="none" stroke="black" points="393,-0.5 393,-19.5 467,-19.5 467,-0.5 393,-0.5"/>
<text text-anchor="middle" x="430" y="-7.5" font-family="Helvetica,sans-Serif" font-size="10.00">packetmath</text>
</a>
</g>
</g>
<!-- Node2755&#45;&gt;Node2765 -->
<g id="edge14" class="edge"><title>Node2755&#45;&gt;Node2765</title>
<path fill="none" stroke="midnightblue" d="M226.774,-327.364C228.685,-271.348 242.272,-109.63 334,-29 349.917,-15.0083 373.18,-10.1869 392.701,-8.89834"/>
<polygon fill="midnightblue" stroke="midnightblue" points="223.274,-327.291 226.523,-337.376 230.272,-327.467 223.274,-327.291"/>
</g>
<!-- Node2766 -->
<g id="node15" class="node"><title>Node2766</title>
<g id="a_node15"><a xlink:href="packetmath_8cpp.html#a43e3c22d695551e0e3da70b69ce93742" target="_top" xlink:title="test_packetmath">
<polygon fill="none" stroke="black" points="562,-0.5 562,-19.5 660,-19.5 660,-0.5 562,-0.5"/>
<text text-anchor="middle" x="611" y="-7.5" font-family="Helvetica,sans-Serif" font-size="10.00">test_packetmath</text>
</a>
</g>
</g>
<!-- Node2765&#45;&gt;Node2766 -->
<g id="edge15" class="edge"><title>Node2765&#45;&gt;Node2766</title>
<path fill="none" stroke="midnightblue" d="M477.556,-10C503.504,-10 535.762,-10 561.947,-10"/>
<polygon fill="midnightblue" stroke="midnightblue" points="477.223,-6.5001 467.223,-10 477.223,-13.5001 477.223,-6.5001"/>
</g>
</g>
</svg>
