<?xml version="1.0" encoding="UTF-8" standalone="no"?>
<!DOCTYPE svg PUBLIC "-//W3C//DTD SVG 1.1//EN"
 "http://www.w3.org/Graphics/SVG/1.1/DTD/svg11.dtd">
<!-- Generated by graphviz version 2.38.0 (20140413.2041)
 -->
<!-- Title: Eigen::internal::prsqrt&lt; Packet4f &gt; Pages: 1 -->
<svg width="751pt" height="448pt"
 viewBox="0.00 0.00 751.00 447.50" xmlns="http://www.w3.org/2000/svg" xmlns:xlink="http://www.w3.org/1999/xlink">
<g id="graph0" class="graph" transform="scale(1 1) rotate(0) translate(4 443.5)">
<title>Eigen::internal::prsqrt&lt; Packet4f &gt;</title>
<!-- Node4318 -->
<g id="node1" class="node"><title>Node4318</title>
<polygon fill="#bfbfbf" stroke="black" points="0,-199.5 0,-229.5 119,-229.5 119,-199.5 0,-199.5"/>
<text text-anchor="start" x="8" y="-217.5" font-family="Helvetica,sans-Serif" font-size="10.00">Eigen::internal::prsqrt</text>
<text text-anchor="middle" x="59.5" y="-206.5" font-family="Helvetica,sans-Serif" font-size="10.00">&lt; Packet4f &gt;</text>
</g>
<!-- Node4319 -->
<g id="node2" class="node"><title>Node4319</title>
<g id="a_node2"><a xlink:href="namespaceEigen_1_1internal.html#a462e918f3381d435028a0decd5485844" target="_top" xlink:title="Eigen::internal::pdiv">
<polygon fill="none" stroke="black" points="317.5,-420 317.5,-439 427.5,-439 427.5,-420 317.5,-420"/>
<text text-anchor="middle" x="372.5" y="-427" font-family="Helvetica,sans-Serif" font-size="10.00">Eigen::internal::pdiv</text>
</a>
</g>
</g>
<!-- Node4318&#45;&gt;Node4319 -->
<g id="edge1" class="edge"><title>Node4318&#45;&gt;Node4319</title>
<path fill="none" stroke="midnightblue" d="M63.9414,-229.606C72.6326,-264.068 98.8873,-348.658 155,-389.5 198.814,-421.391 260.502,-430.227 306.827,-431.763"/>
<polygon fill="midnightblue" stroke="midnightblue" points="306.984,-435.267 317.06,-431.993 307.141,-428.269 306.984,-435.267"/>
</g>
<!-- Node4320 -->
<g id="node3" class="node"><title>Node4320</title>
<g id="a_node3"><a xlink:href="namespaceEigen_1_1internal.html#ae5458479b96b74a336076e12227c4f81" target="_top" xlink:title="Eigen::internal::pexp\l\&lt; Packet2d \&gt;">
<polygon fill="none" stroke="black" points="157.5,-300.5 157.5,-330.5 271.5,-330.5 271.5,-300.5 157.5,-300.5"/>
<text text-anchor="start" x="165.5" y="-318.5" font-family="Helvetica,sans-Serif" font-size="10.00">Eigen::internal::pexp</text>
<text text-anchor="middle" x="214.5" y="-307.5" font-family="Helvetica,sans-Serif" font-size="10.00">&lt; Packet2d &gt;</text>
</a>
</g>
</g>
<!-- Node4318&#45;&gt;Node4320 -->
<g id="edge2" class="edge"><title>Node4318&#45;&gt;Node4320</title>
<path fill="none" stroke="midnightblue" d="M78.658,-229.618C97.2105,-244.704 127.166,-268.084 155,-285.5 160.524,-288.957 166.494,-292.363 172.436,-295.571"/>
<polygon fill="midnightblue" stroke="midnightblue" points="171.202,-298.876 181.683,-300.426 174.456,-292.678 171.202,-298.876"/>
</g>
<!-- Node4321 -->
<g id="node4" class="node"><title>Node4321</title>
<g id="a_node4"><a xlink:href="namespaceEigen_1_1internal.html#a74b4d1fb91602aebe1ae5742e8c2d566" target="_top" xlink:title="Eigen::internal::pmadd">
<polygon fill="none" stroke="black" points="310,-371 310,-390 435,-390 435,-371 310,-371"/>
<text text-anchor="middle" x="372.5" y="-378" font-family="Helvetica,sans-Serif" font-size="10.00">Eigen::internal::pmadd</text>
</a>
</g>
</g>
<!-- Node4318&#45;&gt;Node4321 -->
<g id="edge11" class="edge"><title>Node4318&#45;&gt;Node4321</title>
<path fill="none" stroke="midnightblue" d="M65.2523,-229.872C75.7481,-260.917 104.103,-330.749 155,-361.5 197.993,-387.476 254.821,-391.574 299.466,-389.523"/>
<polygon fill="midnightblue" stroke="midnightblue" points="299.882,-393.005 309.665,-388.939 299.482,-386.016 299.882,-393.005"/>
</g>
<!-- Node4322 -->
<g id="node5" class="node"><title>Node4322</title>
<g id="a_node5"><a xlink:href="namespaceEigen_1_1internal.html#a5b48179611579b41066884b064345c60" target="_top" xlink:title="Eigen::internal::pmax">
<polygon fill="none" stroke="black" points="313.5,-311 313.5,-330 431.5,-330 431.5,-311 313.5,-311"/>
<text text-anchor="middle" x="372.5" y="-318" font-family="Helvetica,sans-Serif" font-size="10.00">Eigen::internal::pmax</text>
</a>
</g>
</g>
<!-- Node4318&#45;&gt;Node4322 -->
<g id="edge12" class="edge"><title>Node4318&#45;&gt;Node4322</title>
<path fill="none" stroke="midnightblue" d="M66.4611,-229.785C78.365,-257.886 108.043,-317.021 155,-340.5 214.668,-370.334 295.136,-349.443 339.246,-333.646"/>
<polygon fill="midnightblue" stroke="midnightblue" points="340.709,-336.836 348.865,-330.073 338.272,-330.274 340.709,-336.836"/>
</g>
<!-- Node4323 -->
<g id="node6" class="node"><title>Node4323</title>
<g id="a_node6"><a xlink:href="namespaceEigen_1_1internal.html#a7963a08a4667f2c17320ca8c82b8571d" target="_top" xlink:title="Eigen::internal::pmin">
<polygon fill="none" stroke="black" points="315,-272 315,-291 430,-291 430,-272 315,-272"/>
<text text-anchor="middle" x="372.5" y="-279" font-family="Helvetica,sans-Serif" font-size="10.00">Eigen::internal::pmin</text>
</a>
</g>
</g>
<!-- Node4318&#45;&gt;Node4323 -->
<g id="edge13" class="edge"><title>Node4318&#45;&gt;Node4323</title>
<path fill="none" stroke="midnightblue" d="M109.802,-229.55C124.289,-233.71 140.216,-238.031 155,-241.5 204.781,-253.182 261.654,-263.578 304.614,-270.841"/>
<polygon fill="midnightblue" stroke="midnightblue" points="304.226,-274.325 314.667,-272.527 305.383,-267.421 304.226,-274.325"/>
</g>
<!-- Node4324 -->
<g id="node7" class="node"><title>Node4324</title>
<g id="a_node7"><a xlink:href="namespaceEigen_1_1internal.html#a776f5f4b514ecaed2a98db928b8f745f" target="_top" xlink:title="Eigen::internal::pmul">
<polygon fill="none" stroke="black" points="315,-231 315,-250 430,-250 430,-231 315,-231"/>
<text text-anchor="middle" x="372.5" y="-238" font-family="Helvetica,sans-Serif" font-size="10.00">Eigen::internal::pmul</text>
</a>
</g>
</g>
<!-- Node4318&#45;&gt;Node4324 -->
<g id="edge14" class="edge"><title>Node4318&#45;&gt;Node4324</title>
<path fill="none" stroke="midnightblue" d="M119.362,-219.421C172.246,-223.842 249.836,-230.329 304.956,-234.937"/>
<polygon fill="midnightblue" stroke="midnightblue" points="304.718,-238.429 314.975,-235.774 305.302,-231.453 304.718,-238.429"/>
</g>
<!-- Node4325 -->
<g id="node8" class="node"><title>Node4325</title>
<g id="a_node8"><a xlink:href="namespaceEigen_1_1internal.html#acfb1e7fe49c73d1885dea028b1745e6a" target="_top" xlink:title="Eigen::internal::psub">
<polygon fill="none" stroke="black" points="315.5,-189 315.5,-208 429.5,-208 429.5,-189 315.5,-189"/>
<text text-anchor="middle" x="372.5" y="-196" font-family="Helvetica,sans-Serif" font-size="10.00">Eigen::internal::psub</text>
</a>
</g>
</g>
<!-- Node4318&#45;&gt;Node4325 -->
<g id="edge24" class="edge"><title>Node4318&#45;&gt;Node4325</title>
<path fill="none" stroke="midnightblue" d="M119.362,-211.472C172.412,-208.742 250.322,-204.734 305.473,-201.897"/>
<polygon fill="midnightblue" stroke="midnightblue" points="305.688,-205.391 315.495,-201.381 305.329,-198.4 305.688,-205.391"/>
</g>
<!-- Node4326 -->
<g id="node9" class="node"><title>Node4326</title>
<g id="a_node9"><a xlink:href="namespaceEigen_1_1internal.html#af761ddfbce019c99cf4a481d0d007946" target="_top" xlink:title="Eigen::internal::pfloor">
<polygon fill="none" stroke="black" points="155.5,-148 155.5,-167 273.5,-167 273.5,-148 155.5,-148"/>
<text text-anchor="middle" x="214.5" y="-155" font-family="Helvetica,sans-Serif" font-size="10.00">Eigen::internal::pfloor</text>
</a>
</g>
</g>
<!-- Node4318&#45;&gt;Node4326 -->
<g id="edge9" class="edge"><title>Node4318&#45;&gt;Node4326</title>
<path fill="none" stroke="midnightblue" d="M101.1,-199.375C125.113,-190.428 155.23,-179.208 178.244,-170.635"/>
<polygon fill="midnightblue" stroke="midnightblue" points="179.485,-173.907 187.634,-167.137 177.041,-167.348 179.485,-173.907"/>
</g>
<!-- Node4328 -->
<g id="node11" class="node"><title>Node4328</title>
<g id="a_node11"><a xlink:href="namespaceEigen_1_1internal.html#af30b2121ee9aa563c033f6332fb4243e" target="_top" xlink:title="Eigen::internal::prsqrt\l\&lt; Packet2d \&gt;">
<polygon fill="none" stroke="black" points="155,-98.5 155,-128.5 274,-128.5 274,-98.5 155,-98.5"/>
<text text-anchor="start" x="163" y="-116.5" font-family="Helvetica,sans-Serif" font-size="10.00">Eigen::internal::prsqrt</text>
<text text-anchor="middle" x="214.5" y="-105.5" font-family="Helvetica,sans-Serif" font-size="10.00">&lt; Packet2d &gt;</text>
</a>
</g>
</g>
<!-- Node4318&#45;&gt;Node4328 -->
<g id="edge15" class="edge"><title>Node4318&#45;&gt;Node4328</title>
<path fill="none" stroke="midnightblue" d="M76.5426,-199.295C94.5674,-182.782 125.215,-156.378 155,-138.5 158.169,-136.598 161.51,-134.765 164.923,-133.017"/>
<polygon fill="midnightblue" stroke="midnightblue" points="166.581,-136.103 174.058,-128.597 163.532,-129.802 166.581,-136.103"/>
</g>
<!-- Node4333 -->
<g id="node16" class="node"><title>Node4333</title>
<g id="a_node16"><a xlink:href="namespaceEigen_1_1internal.html#af266de4f31500421cd72cb689d58949c" target="_top" xlink:title="Eigen::internal::psqrt\l\&lt; Packet2d \&gt;">
<polygon fill="none" stroke="black" points="156.5,-49.5 156.5,-79.5 272.5,-79.5 272.5,-49.5 156.5,-49.5"/>
<text text-anchor="start" x="164.5" y="-67.5" font-family="Helvetica,sans-Serif" font-size="10.00">Eigen::internal::psqrt</text>
<text text-anchor="middle" x="214.5" y="-56.5" font-family="Helvetica,sans-Serif" font-size="10.00">&lt; Packet2d &gt;</text>
</a>
</g>
</g>
<!-- Node4318&#45;&gt;Node4333 -->
<g id="edge21" class="edge"><title>Node4318&#45;&gt;Node4333</title>
<path fill="none" stroke="midnightblue" d="M65.9346,-199.276C77.805,-173.142 108.151,-120.864 148.414,-86.0025"/>
<polygon fill="midnightblue" stroke="midnightblue" points="150.827,-88.5499 156.321,-79.4908 146.377,-83.1466 150.827,-88.5499"/>
</g>
<!-- Node4334 -->
<g id="node17" class="node"><title>Node4334</title>
<g id="a_node17"><a xlink:href="namespaceEigen_1_1internal.html#ae26c604a968200dae48cbffe1971f81a" target="_top" xlink:title="Eigen::internal::psqrt\l\&lt; Packet4f \&gt;">
<polygon fill="none" stroke="black" points="156.5,-0.5 156.5,-30.5 272.5,-30.5 272.5,-0.5 156.5,-0.5"/>
<text text-anchor="start" x="164.5" y="-18.5" font-family="Helvetica,sans-Serif" font-size="10.00">Eigen::internal::psqrt</text>
<text text-anchor="middle" x="214.5" y="-7.5" font-family="Helvetica,sans-Serif" font-size="10.00">&lt; Packet4f &gt;</text>
</a>
</g>
</g>
<!-- Node4318&#45;&gt;Node4334 -->
<g id="edge23" class="edge"><title>Node4318&#45;&gt;Node4334</title>
<path fill="none" stroke="midnightblue" d="M64.9453,-199.312C75.3716,-166.15 104.416,-86.5541 155,-40.5 156.692,-38.9594 158.493,-37.5045 160.375,-36.1314"/>
<polygon fill="midnightblue" stroke="midnightblue" points="162.486,-38.9375 169.053,-30.6235 158.734,-33.0275 162.486,-38.9375"/>
</g>
<!-- Node4320&#45;&gt;Node4319 -->
<g id="edge3" class="edge"><title>Node4320&#45;&gt;Node4319</title>
<path fill="none" stroke="midnightblue" d="M229.832,-330.538C247.498,-348.504 278.997,-378.731 310,-399.5 318.957,-405.5 329.292,-411.016 338.902,-415.637"/>
<polygon fill="midnightblue" stroke="midnightblue" points="337.649,-418.914 348.193,-419.945 340.593,-412.564 337.649,-418.914"/>
</g>
<!-- Node4320&#45;&gt;Node4321 -->
<g id="edge4" class="edge"><title>Node4320&#45;&gt;Node4321</title>
<path fill="none" stroke="midnightblue" d="M251.682,-330.576C278.179,-341.616 313.818,-356.466 339.326,-367.094"/>
<polygon fill="midnightblue" stroke="midnightblue" points="337.989,-370.329 348.565,-370.944 340.681,-363.867 337.989,-370.329"/>
</g>
<!-- Node4320&#45;&gt;Node4322 -->
<g id="edge5" class="edge"><title>Node4320&#45;&gt;Node4322</title>
<path fill="none" stroke="midnightblue" d="M271.82,-317.305C282.071,-317.634 292.865,-317.98 303.413,-318.318"/>
<polygon fill="midnightblue" stroke="midnightblue" points="303.318,-321.816 313.425,-318.639 303.543,-314.82 303.318,-321.816"/>
</g>
<!-- Node4320&#45;&gt;Node4323 -->
<g id="edge6" class="edge"><title>Node4320&#45;&gt;Node4323</title>
<path fill="none" stroke="midnightblue" d="M271.82,-303.225C286.711,-299.98 302.747,-296.485 317.512,-293.267"/>
<polygon fill="midnightblue" stroke="midnightblue" points="318.475,-296.639 327.5,-291.09 316.984,-289.8 318.475,-296.639"/>
</g>
<!-- Node4320&#45;&gt;Node4324 -->
<g id="edge7" class="edge"><title>Node4320&#45;&gt;Node4324</title>
<path fill="none" stroke="midnightblue" d="M239.782,-300.389C258.53,-289.092 285.349,-273.726 310,-262.5 317.032,-259.298 324.678,-256.241 332.112,-253.48"/>
<polygon fill="midnightblue" stroke="midnightblue" points="333.47,-256.712 341.695,-250.033 331.1,-250.125 333.47,-256.712"/>
</g>
<!-- Node4320&#45;&gt;Node4325 -->
<g id="edge8" class="edge"><title>Node4320&#45;&gt;Node4325</title>
<path fill="none" stroke="midnightblue" d="M227.094,-300.488C243.547,-280.084 275.524,-243.614 310,-221.5 315.738,-217.82 322.15,-214.604 328.61,-211.836"/>
<polygon fill="midnightblue" stroke="midnightblue" points="330.027,-215.039 338.033,-208.1 327.447,-208.532 330.027,-215.039"/>
</g>
<!-- Node4327 -->
<g id="node10" class="node"><title>Node4327</title>
<g id="a_node10"><a xlink:href="ArrayCwiseUnaryOps_8h.html#a3230e10964844c34fb73eaccc84dc8a7" target="_top" xlink:title="floor">
<polygon fill="none" stroke="black" points="353.5,-148 353.5,-167 391.5,-167 391.5,-148 353.5,-148"/>
<text text-anchor="middle" x="372.5" y="-155" font-family="Helvetica,sans-Serif" font-size="10.00">floor</text>
</a>
</g>
</g>
<!-- Node4326&#45;&gt;Node4327 -->
<g id="edge10" class="edge"><title>Node4326&#45;&gt;Node4327</title>
<path fill="none" stroke="midnightblue" d="M273.589,-157.5C297.306,-157.5 323.656,-157.5 343.041,-157.5"/>
<polygon fill="midnightblue" stroke="midnightblue" points="343.304,-161 353.304,-157.5 343.304,-154 343.304,-161"/>
</g>
<!-- Node4329 -->
<g id="node12" class="node"><title>Node4329</title>
<g id="a_node12"><a xlink:href="namespaceEigen_1_1internal.html#a6024368181b050eb03ef7eea98f084ea" target="_top" xlink:title="Eigen::internal::pset1\l\&lt; Packet2d \&gt;">
<polygon fill="none" stroke="black" points="313.5,-98.5 313.5,-128.5 431.5,-128.5 431.5,-98.5 313.5,-98.5"/>
<text text-anchor="start" x="321.5" y="-116.5" font-family="Helvetica,sans-Serif" font-size="10.00">Eigen::internal::pset1</text>
<text text-anchor="middle" x="372.5" y="-105.5" font-family="Helvetica,sans-Serif" font-size="10.00">&lt; Packet2d &gt;</text>
</a>
</g>
</g>
<!-- Node4328&#45;&gt;Node4329 -->
<g id="edge16" class="edge"><title>Node4328&#45;&gt;Node4329</title>
<path fill="none" stroke="midnightblue" d="M274.032,-113.5C283.593,-113.5 293.571,-113.5 303.34,-113.5"/>
<polygon fill="midnightblue" stroke="midnightblue" points="303.417,-117 313.417,-113.5 303.417,-110 303.417,-117"/>
</g>
<!-- Node4330 -->
<g id="node13" class="node"><title>Node4330</title>
<g id="a_node13"><a xlink:href="namespaceEigen_1_1internal.html#a2531efc4e18dcd18aa6c28ea26b5fd4c" target="_top" xlink:title="Eigen::internal::pset1\l\&lt; Packet4i \&gt;">
<polygon fill="none" stroke="black" points="471,-147.5 471,-177.5 589,-177.5 589,-147.5 471,-147.5"/>
<text text-anchor="start" x="479" y="-165.5" font-family="Helvetica,sans-Serif" font-size="10.00">Eigen::internal::pset1</text>
<text text-anchor="middle" x="530" y="-154.5" font-family="Helvetica,sans-Serif" font-size="10.00">&lt; Packet4i &gt;</text>
</a>
</g>
</g>
<!-- Node4329&#45;&gt;Node4330 -->
<g id="edge17" class="edge"><title>Node4329&#45;&gt;Node4330</title>
<path fill="none" stroke="midnightblue" d="M421.424,-128.601C437.313,-133.608 455.161,-139.232 471.684,-144.439"/>
<polygon fill="midnightblue" stroke="midnightblue" points="470.645,-147.781 481.234,-147.448 472.749,-141.105 470.645,-147.781"/>
</g>
<!-- Node4331 -->
<g id="node14" class="node"><title>Node4331</title>
<g id="a_node14"><a xlink:href="namespaceEigen_1_1internal.html#ae62a34e75a1b533d4baaea4a1719bd45" target="_top" xlink:title="Eigen::internal::plset\l\&lt; Packet4f \&gt;">
<polygon fill="none" stroke="black" points="473,-98.5 473,-128.5 587,-128.5 587,-98.5 473,-98.5"/>
<text text-anchor="start" x="481" y="-116.5" font-family="Helvetica,sans-Serif" font-size="10.00">Eigen::internal::plset</text>
<text text-anchor="middle" x="530" y="-105.5" font-family="Helvetica,sans-Serif" font-size="10.00">&lt; Packet4f &gt;</text>
</a>
</g>
</g>
<!-- Node4329&#45;&gt;Node4331 -->
<g id="edge18" class="edge"><title>Node4329&#45;&gt;Node4331</title>
<path fill="none" stroke="midnightblue" d="M431.845,-113.5C441.928,-113.5 452.476,-113.5 462.75,-113.5"/>
<polygon fill="midnightblue" stroke="midnightblue" points="462.906,-117 472.906,-113.5 462.906,-110 462.906,-117"/>
</g>
<!-- Node4332 -->
<g id="node15" class="node"><title>Node4332</title>
<g id="a_node15"><a xlink:href="namespaceEigen_1_1internal.html#a923941269228f9ceaf233636da958609" target="_top" xlink:title="Eigen::internal::pset1\l\&lt; Packet4f \&gt;">
<polygon fill="none" stroke="black" points="625,-76.5 625,-106.5 743,-106.5 743,-76.5 625,-76.5"/>
<text text-anchor="start" x="633" y="-94.5" font-family="Helvetica,sans-Serif" font-size="10.00">Eigen::internal::pset1</text>
<text text-anchor="middle" x="684" y="-83.5" font-family="Helvetica,sans-Serif" font-size="10.00">&lt; Packet4f &gt;</text>
</a>
</g>
</g>
<!-- Node4329&#45;&gt;Node4332 -->
<g id="edge20" class="edge"><title>Node4329&#45;&gt;Node4332</title>
<path fill="none" stroke="midnightblue" d="M424.682,-98.4441C439.491,-94.7598 455.771,-91.3468 471,-89.5 518.765,-83.7077 573.027,-84.3523 614.697,-86.3704"/>
<polygon fill="midnightblue" stroke="midnightblue" points="614.568,-89.8684 624.737,-86.8948 614.933,-82.8779 614.568,-89.8684"/>
</g>
<!-- Node4331&#45;&gt;Node4332 -->
<g id="edge19" class="edge"><title>Node4331&#45;&gt;Node4332</title>
<path fill="none" stroke="midnightblue" d="M587.167,-105.371C596.173,-104.067 605.577,-102.706 614.826,-101.367"/>
<polygon fill="midnightblue" stroke="midnightblue" points="615.378,-104.824 624.774,-99.9275 614.375,-97.8961 615.378,-104.824"/>
</g>
<!-- Node4333&#45;&gt;Node4318 -->
<g id="edge22" class="edge"><title>Node4333&#45;&gt;Node4318</title>
<path fill="none" stroke="midnightblue" d="M189.779,-79.5817C178.498,-84.5329 165.267,-90.4717 155,-98.5 121.644,-124.584 93.9153,-165.158 77.302,-190.937"/>
<polygon fill="midnightblue" stroke="midnightblue" points="74.3354,-189.08 71.8982,-199.39 80.2333,-192.85 74.3354,-189.08"/>
</g>
</g>
</svg>
