<?xml version="1.0" encoding="UTF-8" standalone="no"?>
<!DOCTYPE svg PUBLIC "-//W3C//DTD SVG 1.1//EN"
 "http://www.w3.org/Graphics/SVG/1.1/DTD/svg11.dtd">
<!-- Generated by graphviz version 2.38.0 (20140413.2041)
 -->
<!-- Title: Eigen::internal::pmul&lt; Packet2cf &gt; Pages: 1 -->
<svg width="452pt" height="67pt"
 viewBox="0.00 0.00 452.00 66.50" xmlns="http://www.w3.org/2000/svg" xmlns:xlink="http://www.w3.org/1999/xlink">
<g id="graph0" class="graph" transform="scale(1 1) rotate(0) translate(4 62.5)">
<title>Eigen::internal::pmul&lt; Packet2cf &gt;</title>
<!-- Node3603 -->
<g id="node1" class="node"><title>Node3603</title>
<polygon fill="#bfbfbf" stroke="black" points="0,-6 0,-36 115,-36 115,-6 0,-6"/>
<text text-anchor="start" x="8" y="-24" font-family="Helvetica,sans-Serif" font-size="10.00">Eigen::internal::pmul</text>
<text text-anchor="middle" x="57.5" y="-13" font-family="Helvetica,sans-Serif" font-size="10.00">&lt; Packet2cf &gt;</text>
</g>
<!-- Node3604 -->
<g id="node2" class="node"><title>Node3604</title>
<g id="a_node2"><a xlink:href="namespaceEigen_1_1internal.html#a0a0f0317480807aaea520f2445ee72d9" target="_top" xlink:title="Eigen::internal::predux\l_mul\&lt; Packet2cf \&gt;">
<polygon fill="none" stroke="black" points="151,-28 151,-58 275,-58 275,-28 151,-28"/>
<text text-anchor="start" x="159" y="-46" font-family="Helvetica,sans-Serif" font-size="10.00">Eigen::internal::predux</text>
<text text-anchor="middle" x="213" y="-35" font-family="Helvetica,sans-Serif" font-size="10.00">_mul&lt; Packet2cf &gt;</text>
</a>
</g>
</g>
<!-- Node3603&#45;&gt;Node3604 -->
<g id="edge1" class="edge"><title>Node3603&#45;&gt;Node3604</title>
<path fill="none" stroke="midnightblue" d="M125.152,-30.5527C133.699,-31.7778 142.417,-33.0272 150.871,-34.2388"/>
<polygon fill="midnightblue" stroke="midnightblue" points="125.617,-27.0837 115.222,-29.1295 124.624,-34.0129 125.617,-27.0837"/>
</g>
<!-- Node3605 -->
<g id="node3" class="node"><title>Node3605</title>
<g id="a_node3"><a xlink:href="namespaceEigen_1_1internal.html#afc41c0196b601e87b2123adfee80c65f" target="_top" xlink:title="Eigen::internal::pscatter\l\&lt; std::complex\&lt; double\l \&gt;, Packet1cd \&gt;">
<polygon fill="none" stroke="black" points="311,-0.5 311,-41.5 444,-41.5 444,-0.5 311,-0.5"/>
<text text-anchor="start" x="319" y="-29.5" font-family="Helvetica,sans-Serif" font-size="10.00">Eigen::internal::pscatter</text>
<text text-anchor="start" x="319" y="-18.5" font-family="Helvetica,sans-Serif" font-size="10.00">&lt; std::complex&lt; double</text>
<text text-anchor="middle" x="377.5" y="-7.5" font-family="Helvetica,sans-Serif" font-size="10.00"> &gt;, Packet1cd &gt;</text>
</a>
</g>
</g>
<!-- Node3603&#45;&gt;Node3605 -->
<g id="edge3" class="edge"><title>Node3603&#45;&gt;Node3605</title>
<path fill="none" stroke="midnightblue" d="M125.315,-19.3837C133.957,-19.2251 142.688,-19.0898 151,-19 206.108,-18.4043 219.892,-18.4571 275,-19 286.632,-19.1146 299.013,-19.303 310.983,-19.5196"/>
<polygon fill="midnightblue" stroke="midnightblue" points="125.172,-15.8857 115.242,-19.5794 125.308,-22.8844 125.172,-15.8857"/>
</g>
<!-- Node3604&#45;&gt;Node3605 -->
<g id="edge2" class="edge"><title>Node3604&#45;&gt;Node3605</title>
<path fill="none" stroke="midnightblue" d="M285.608,-33.3054C294.025,-32.1658 302.583,-31.0073 310.912,-29.8796"/>
<polygon fill="midnightblue" stroke="midnightblue" points="284.874,-29.8727 275.434,-34.6827 285.813,-36.8094 284.874,-29.8727"/>
</g>
</g>
</svg>
