<?xml version="1.0" encoding="UTF-8" standalone="no"?>
<!DOCTYPE svg PUBLIC "-//W3C//DTD SVG 1.1//EN"
 "http://www.w3.org/Graphics/SVG/1.1/DTD/svg11.dtd">
<!-- Generated by graphviz version 2.38.0 (20140413.2041)
 -->
<!-- Title: Eigen::internal::pload&lt; Packet2d &gt; Pages: 1 -->
<svg width="828pt" height="624pt"
 viewBox="0.00 0.00 828.00 624.00" xmlns="http://www.w3.org/2000/svg" xmlns:xlink="http://www.w3.org/1999/xlink">
<g id="graph0" class="graph" transform="scale(1 1) rotate(0) translate(4 620)">
<title>Eigen::internal::pload&lt; Packet2d &gt;</title>
<!-- Node2778 -->
<g id="node1" class="node"><title>Node2778</title>
<polygon fill="#bfbfbf" stroke="black" points="0,-413 0,-443 117,-443 117,-413 0,-413"/>
<text text-anchor="start" x="8" y="-431" font-family="Helvetica,sans-Serif" font-size="10.00">Eigen::internal::pload</text>
<text text-anchor="middle" x="58.5" y="-420" font-family="Helvetica,sans-Serif" font-size="10.00">&lt; Packet2d &gt;</text>
</g>
<!-- Node2779 -->
<g id="node2" class="node"><title>Node2779</title>
<g id="a_node2"><a xlink:href="namespaceEigen_1_1internal.html#abaadd9aa6aafdf268f71646684340302" target="_top" xlink:title="Eigen::internal::pblend">
<polygon fill="none" stroke="black" points="528.5,-558.5 528.5,-577.5 651.5,-577.5 651.5,-558.5 528.5,-558.5"/>
<text text-anchor="middle" x="590" y="-565.5" font-family="Helvetica,sans-Serif" font-size="10.00">Eigen::internal::pblend</text>
</a>
</g>
</g>
<!-- Node2778&#45;&gt;Node2779 -->
<g id="edge1" class="edge"><title>Node2778&#45;&gt;Node2779</title>
<path fill="none" stroke="midnightblue" d="M71.1597,-452.368C85.9842,-480.452 114.371,-525.605 153,-548 215.031,-583.962 423.623,-577.684 528.183,-571.965"/>
<polygon fill="midnightblue" stroke="midnightblue" points="74.1501,-450.528 66.4871,-443.212 67.9151,-453.71 74.1501,-450.528"/>
</g>
<!-- Node2780 -->
<g id="node3" class="node"><title>Node2780</title>
<g id="a_node3"><a xlink:href="namespaceEigen_1_1internal.html#aa7c05c9c964fec8b1867c3ec9cb64806" target="_top" xlink:title="Eigen::internal::pbroadcast4\l\&lt; Packet2d \&gt;">
<polygon fill="none" stroke="black" points="307,-457 307,-487 458,-487 458,-457 307,-457"/>
<text text-anchor="start" x="315" y="-475" font-family="Helvetica,sans-Serif" font-size="10.00">Eigen::internal::pbroadcast4</text>
<text text-anchor="middle" x="382.5" y="-464" font-family="Helvetica,sans-Serif" font-size="10.00">&lt; Packet2d &gt;</text>
</a>
</g>
</g>
<!-- Node2778&#45;&gt;Node2780 -->
<g id="edge2" class="edge"><title>Node2778&#45;&gt;Node2780</title>
<path fill="none" stroke="midnightblue" d="M127.383,-438.312C136.002,-439.578 144.705,-440.835 153,-442 204.31,-449.209 262.18,-456.801 306.844,-462.544"/>
<polygon fill="midnightblue" stroke="midnightblue" points="127.737,-434.826 117.333,-436.826 126.714,-441.751 127.737,-434.826"/>
</g>
<!-- Node2781 -->
<g id="node4" class="node"><title>Node2781</title>
<g id="a_node4"><a xlink:href="structEigen_1_1internal_1_1palign__impl_3_01Offset_00_01Packet2d_01_4.html#a67e74f2cd50ad7d14d1820186da5f752" target="_top" xlink:title="Eigen::internal::palign\l_impl\&lt; Offset, Packet2d\l \&gt;::run">
<polygon fill="none" stroke="black" points="524.5,-448.5 524.5,-489.5 655.5,-489.5 655.5,-448.5 524.5,-448.5"/>
<text text-anchor="start" x="532.5" y="-477.5" font-family="Helvetica,sans-Serif" font-size="10.00">Eigen::internal::palign</text>
<text text-anchor="start" x="532.5" y="-466.5" font-family="Helvetica,sans-Serif" font-size="10.00">_impl&lt; Offset, Packet2d</text>
<text text-anchor="middle" x="590" y="-455.5" font-family="Helvetica,sans-Serif" font-size="10.00"> &gt;::run</text>
</a>
</g>
</g>
<!-- Node2778&#45;&gt;Node2781 -->
<g id="edge29" class="edge"><title>Node2778&#45;&gt;Node2781</title>
<path fill="none" stroke="midnightblue" d="M127.437,-428.787C206.906,-430.275 342.333,-434.574 458,-447 479.668,-449.328 503.19,-452.935 524.244,-456.559"/>
<polygon fill="midnightblue" stroke="midnightblue" points="127.139,-425.281 117.078,-428.603 127.014,-432.28 127.139,-425.281"/>
</g>
<!-- Node2782 -->
<g id="node5" class="node"><title>Node2782</title>
<g id="a_node5"><a xlink:href="namespaceEigen_1_1internal.html#afcef5b81d59c0cde536eac077cc8e581" target="_top" xlink:title="Eigen::internal::pfloor\l\&lt; Packet2d \&gt;">
<polygon fill="none" stroke="black" points="153,-509 153,-539 271,-539 271,-509 153,-509"/>
<text text-anchor="start" x="161" y="-527" font-family="Helvetica,sans-Serif" font-size="10.00">Eigen::internal::pfloor</text>
<text text-anchor="middle" x="212" y="-516" font-family="Helvetica,sans-Serif" font-size="10.00">&lt; Packet2d &gt;</text>
</a>
</g>
</g>
<!-- Node2778&#45;&gt;Node2782 -->
<g id="edge5" class="edge"><title>Node2778&#45;&gt;Node2782</title>
<path fill="none" stroke="midnightblue" d="M92.3126,-448.792C120.859,-466.881 161.553,-492.667 187.107,-508.86"/>
<polygon fill="midnightblue" stroke="midnightblue" points="93.826,-445.608 83.5056,-443.211 90.0792,-451.52 93.826,-445.608"/>
</g>
<!-- Node2786 -->
<g id="node9" class="node"><title>Node2786</title>
<g id="a_node9"><a xlink:href="namespaceEigen_1_1internal.html#ab29b09cdaffff04900c437c6c0953aa0" target="_top" xlink:title="Eigen::internal::pload\l\&lt; Packet1cd \&gt;">
<polygon fill="none" stroke="black" points="153.5,-189 153.5,-219 270.5,-219 270.5,-189 153.5,-189"/>
<text text-anchor="start" x="161.5" y="-207" font-family="Helvetica,sans-Serif" font-size="10.00">Eigen::internal::pload</text>
<text text-anchor="middle" x="212" y="-196" font-family="Helvetica,sans-Serif" font-size="10.00">&lt; Packet1cd &gt;</text>
</a>
</g>
</g>
<!-- Node2778&#45;&gt;Node2786 -->
<g id="edge11" class="edge"><title>Node2778&#45;&gt;Node2786</title>
<path fill="none" stroke="midnightblue" d="M66.1893,-403.341C77.972,-363.823 105.759,-285.713 153,-236 159.338,-229.331 167.378,-223.705 175.439,-219.121"/>
<polygon fill="midnightblue" stroke="midnightblue" points="62.8226,-402.384 63.4114,-412.963 69.5479,-404.326 62.8226,-402.384"/>
</g>
<!-- Node2788 -->
<g id="node11" class="node"><title>Node2788</title>
<g id="a_node11"><a xlink:href="structEigen_1_1internal_1_1conj__helper_3_01Packet2cf_00_01Packet2cf_00_01true_00_01true_01_4.html#a6956a6a7b0de2fd58bd9a8ab2e3c25ae" target="_top" xlink:title="Eigen::internal::conj\l_helper\&lt; Packet2cf, Packet2cf,\l true, true \&gt;::pmul">
<polygon fill="none" stroke="black" points="508,-0.5 508,-41.5 672,-41.5 672,-0.5 508,-0.5"/>
<text text-anchor="start" x="516" y="-29.5" font-family="Helvetica,sans-Serif" font-size="10.00">Eigen::internal::conj</text>
<text text-anchor="start" x="516" y="-18.5" font-family="Helvetica,sans-Serif" font-size="10.00">_helper&lt; Packet2cf, Packet2cf,</text>
<text text-anchor="middle" x="590" y="-7.5" font-family="Helvetica,sans-Serif" font-size="10.00"> true, true &gt;::pmul</text>
</a>
</g>
</g>
<!-- Node2778&#45;&gt;Node2788 -->
<g id="edge27" class="edge"><title>Node2778&#45;&gt;Node2788</title>
<path fill="none" stroke="midnightblue" d="M77.7414,-405.122C95.2539,-384.356 123.357,-354.008 153,-334 214.577,-292.437 236.55,-292.579 307,-269 372.626,-247.036 410.283,-281.122 458,-231 514.254,-171.911 439.524,-111.732 494,-51 498.042,-46.4937 502.755,-42.6589 507.879,-39.3961"/>
<polygon fill="midnightblue" stroke="midnightblue" points="75.033,-402.905 71.3484,-412.838 80.4234,-407.371 75.033,-402.905"/>
</g>
<!-- Node2789 -->
<g id="node12" class="node"><title>Node2789</title>
<g id="a_node12"><a xlink:href="namespaceEigen_1_1internal.html#a375fca01f8ae80efcba6793f990c7917" target="_top" xlink:title="Eigen::internal::ptranspose">
<polygon fill="none" stroke="black" points="310,-278.5 310,-297.5 455,-297.5 455,-278.5 310,-278.5"/>
<text text-anchor="middle" x="382.5" y="-285.5" font-family="Helvetica,sans-Serif" font-size="10.00">Eigen::internal::ptranspose</text>
</a>
</g>
</g>
<!-- Node2778&#45;&gt;Node2789 -->
<g id="edge28" class="edge"><title>Node2778&#45;&gt;Node2789</title>
<path fill="none" stroke="midnightblue" d="M103.68,-408.791C173.495,-378.437 306.792,-320.482 359.379,-297.618"/>
<polygon fill="midnightblue" stroke="midnightblue" points="102.041,-405.687 94.2656,-412.885 104.832,-412.107 102.041,-405.687"/>
</g>
<!-- Node2780&#45;&gt;Node2779 -->
<g id="edge3" class="edge"><title>Node2780&#45;&gt;Node2779</title>
<path fill="none" stroke="midnightblue" d="M446.348,-491.587C450.441,-493.82 454.37,-496.284 458,-499 479.636,-515.191 471.283,-533.364 494,-548 504.201,-554.572 516.179,-559.03 528.127,-562.042"/>
<polygon fill="midnightblue" stroke="midnightblue" points="447.7,-488.351 437.183,-487.064 444.601,-494.628 447.7,-488.351"/>
</g>
<!-- Node2780&#45;&gt;Node2781 -->
<g id="edge4" class="edge"><title>Node2780&#45;&gt;Node2781</title>
<path fill="none" stroke="midnightblue" d="M468.295,-470.762C487.061,-470.488 506.652,-470.202 524.458,-469.942"/>
<polygon fill="midnightblue" stroke="midnightblue" points="468.219,-467.263 458.272,-470.908 468.322,-474.262 468.219,-467.263"/>
</g>
<!-- Node2782&#45;&gt;Node2779 -->
<g id="edge6" class="edge"><title>Node2782&#45;&gt;Node2779</title>
<path fill="none" stroke="midnightblue" d="M274.585,-541.4C285.322,-543.951 296.434,-546.291 307,-548 382.705,-560.248 471.05,-564.995 528.403,-566.835"/>
<polygon fill="midnightblue" stroke="midnightblue" points="275.404,-537.997 264.857,-539.009 273.733,-544.794 275.404,-537.997"/>
</g>
<!-- Node2783 -->
<g id="node6" class="node"><title>Node2783</title>
<g id="a_node6"><a xlink:href="namespaceEigen_1_1internal.html#aeab59aec7b70a1f67d9f060b55903ceb" target="_top" xlink:title="Eigen::internal::pmax\l\&lt; Packet2d \&gt;">
<polygon fill="none" stroke="black" points="323.5,-509 323.5,-539 441.5,-539 441.5,-509 323.5,-509"/>
<text text-anchor="start" x="331.5" y="-527" font-family="Helvetica,sans-Serif" font-size="10.00">Eigen::internal::pmax</text>
<text text-anchor="middle" x="382.5" y="-516" font-family="Helvetica,sans-Serif" font-size="10.00">&lt; Packet2d &gt;</text>
</a>
</g>
</g>
<!-- Node2782&#45;&gt;Node2783 -->
<g id="edge7" class="edge"><title>Node2782&#45;&gt;Node2783</title>
<path fill="none" stroke="midnightblue" d="M281.469,-524C295.391,-524 309.909,-524 323.428,-524"/>
<polygon fill="midnightblue" stroke="midnightblue" points="281.46,-520.5 271.46,-524 281.46,-527.5 281.46,-520.5"/>
</g>
<!-- Node2783&#45;&gt;Node2779 -->
<g id="edge8" class="edge"><title>Node2783&#45;&gt;Node2779</title>
<path fill="none" stroke="midnightblue" d="M451.735,-538.892C465.713,-541.922 480.329,-545.076 494,-548 510.152,-551.454 527.86,-555.195 543.565,-558.496"/>
<polygon fill="midnightblue" stroke="midnightblue" points="452.208,-535.413 441.693,-536.712 450.723,-542.254 452.208,-535.413"/>
</g>
<!-- Node2784 -->
<g id="node7" class="node"><title>Node2784</title>
<g id="a_node7"><a xlink:href="namespaceEigen_1_1internal.html#abdf0ea7e126fdf116b7e4d9200f7a90f" target="_top" xlink:title="Eigen::internal::pmadd">
<polygon fill="none" stroke="black" points="527.5,-596.5 527.5,-615.5 652.5,-615.5 652.5,-596.5 527.5,-596.5"/>
<text text-anchor="middle" x="590" y="-603.5" font-family="Helvetica,sans-Serif" font-size="10.00">Eigen::internal::pmadd</text>
</a>
</g>
</g>
<!-- Node2783&#45;&gt;Node2784 -->
<g id="edge9" class="edge"><title>Node2783&#45;&gt;Node2784</title>
<path fill="none" stroke="midnightblue" d="M413.691,-544.753C435.2,-558.635 465.276,-576.261 494,-587 504.556,-590.946 516.093,-594.129 527.376,-596.676"/>
<polygon fill="midnightblue" stroke="midnightblue" points="415.595,-541.817 405.314,-539.257 411.754,-547.669 415.595,-541.817"/>
</g>
<!-- Node2785 -->
<g id="node8" class="node"><title>Node2785</title>
<g id="a_node8"><a xlink:href="namespaceEigen_1_1internal.html#a2636173af6863de34e156dfbf6ed6301" target="_top" xlink:title="Eigen::internal::pabs\l\&lt; Packet4f \&gt;">
<polygon fill="none" stroke="black" points="533,-509 533,-539 647,-539 647,-509 533,-509"/>
<text text-anchor="start" x="541" y="-527" font-family="Helvetica,sans-Serif" font-size="10.00">Eigen::internal::pabs</text>
<text text-anchor="middle" x="590" y="-516" font-family="Helvetica,sans-Serif" font-size="10.00">&lt; Packet4f &gt;</text>
</a>
</g>
</g>
<!-- Node2783&#45;&gt;Node2785 -->
<g id="edge10" class="edge"><title>Node2783&#45;&gt;Node2785</title>
<path fill="none" stroke="midnightblue" d="M451.838,-524C478.135,-524 507.831,-524 532.851,-524"/>
<polygon fill="midnightblue" stroke="midnightblue" points="451.564,-520.5 441.564,-524 451.564,-527.5 451.564,-520.5"/>
</g>
<!-- Node2787 -->
<g id="node10" class="node"><title>Node2787</title>
<g id="a_node10"><a xlink:href="namespaceEigen_1_1internal.html#a27be9d816b0e77a8d22c2a3d67c57456" target="_top" xlink:title="Eigen::internal::pgather\l\&lt; std::complex\&lt; double\l \&gt;, Packet1cd \&gt;">
<polygon fill="none" stroke="black" points="316,-180.5 316,-221.5 449,-221.5 449,-180.5 316,-180.5"/>
<text text-anchor="start" x="324" y="-209.5" font-family="Helvetica,sans-Serif" font-size="10.00">Eigen::internal::pgather</text>
<text text-anchor="start" x="324" y="-198.5" font-family="Helvetica,sans-Serif" font-size="10.00">&lt; std::complex&lt; double</text>
<text text-anchor="middle" x="382.5" y="-187.5" font-family="Helvetica,sans-Serif" font-size="10.00"> &gt;, Packet1cd &gt;</text>
</a>
</g>
</g>
<!-- Node2786&#45;&gt;Node2787 -->
<g id="edge12" class="edge"><title>Node2786&#45;&gt;Node2787</title>
<path fill="none" stroke="midnightblue" d="M280.592,-202.797C292.211,-202.59 304.272,-202.375 315.84,-202.169"/>
<polygon fill="midnightblue" stroke="midnightblue" points="280.453,-199.298 270.517,-202.976 280.578,-206.297 280.453,-199.298"/>
</g>
<!-- Node2786&#45;&gt;Node2788 -->
<g id="edge13" class="edge"><title>Node2786&#45;&gt;Node2788</title>
<path fill="none" stroke="midnightblue" d="M245.689,-183.486C297.049,-151.886 400.455,-90.7971 494,-51 501.878,-47.6484 510.262,-44.4712 518.66,-41.5264"/>
<polygon fill="midnightblue" stroke="midnightblue" points="243.68,-180.613 237.014,-188.848 247.36,-186.567 243.68,-180.613"/>
</g>
<!-- Node2786&#45;&gt;Node2789 -->
<g id="edge14" class="edge"><title>Node2786&#45;&gt;Node2789</title>
<path fill="none" stroke="midnightblue" d="M252.442,-223.662C286.91,-240.845 335.489,-265.063 362.135,-278.346"/>
<polygon fill="midnightblue" stroke="midnightblue" points="253.636,-220.347 243.124,-219.018 250.512,-226.611 253.636,-220.347"/>
</g>
<!-- Node2789&#45;&gt;Node2779 -->
<g id="edge19" class="edge"><title>Node2789&#45;&gt;Node2779</title>
<path fill="none" stroke="midnightblue" d="M392.95,-306.645C407.706,-336.083 436.732,-395.302 458,-447 476.131,-491.071 458.108,-516.651 494,-548 503.648,-556.427 515.94,-561.613 528.456,-564.739"/>
<polygon fill="midnightblue" stroke="midnightblue" points="395.986,-304.892 388.361,-297.536 389.734,-308.041 395.986,-304.892"/>
</g>
<!-- Node2789&#45;&gt;Node2781 -->
<g id="edge20" class="edge"><title>Node2789&#45;&gt;Node2781</title>
<path fill="none" stroke="midnightblue" d="M392.324,-306.924C408.168,-338.864 444.465,-403.452 494,-439 502.993,-445.454 513.427,-450.556 524.02,-454.578"/>
<polygon fill="midnightblue" stroke="midnightblue" points="395.408,-305.263 387.908,-297.78 389.105,-308.307 395.408,-305.263"/>
</g>
<!-- Node2789&#45;&gt;Node2785 -->
<g id="edge21" class="edge"><title>Node2789&#45;&gt;Node2785</title>
<path fill="none" stroke="midnightblue" d="M392.326,-306.915C415.471,-356.2 477.282,-485.677 494,-499 505.07,-507.822 518.948,-513.551 532.65,-517.266"/>
<polygon fill="midnightblue" stroke="midnightblue" points="395.415,-305.258 388.004,-297.686 389.075,-308.227 395.415,-305.258"/>
</g>
<!-- Node2789&#45;&gt;Node2788 -->
<g id="edge15" class="edge"><title>Node2789&#45;&gt;Node2788</title>
<path fill="none" stroke="midnightblue" d="M446.828,-273.535C450.979,-270.871 454.78,-267.722 458,-264 520.821,-191.396 430.97,-123.422 494,-51 497.974,-46.4337 502.637,-42.5552 507.727,-39.2618"/>
<polygon fill="midnightblue" stroke="midnightblue" points="445.031,-270.527 437.885,-278.349 448.349,-276.69 445.031,-270.527"/>
</g>
<!-- Node2790 -->
<g id="node13" class="node"><title>Node2790</title>
<g id="a_node13"><a xlink:href="namespaceEigen_1_1internal.html#a79e630f9d4aa81b60904b7085c99c473" target="_top" xlink:title="Eigen::internal::pcplxflip">
<polygon fill="none" stroke="black" points="525.5,-158.5 525.5,-177.5 654.5,-177.5 654.5,-158.5 525.5,-158.5"/>
<text text-anchor="middle" x="590" y="-165.5" font-family="Helvetica,sans-Serif" font-size="10.00">Eigen::internal::pcplxflip</text>
</a>
</g>
</g>
<!-- Node2789&#45;&gt;Node2790 -->
<g id="edge16" class="edge"><title>Node2789&#45;&gt;Node2790</title>
<path fill="none" stroke="midnightblue" d="M442.613,-274.176C448.173,-271.384 453.429,-268.03 458,-264 486.338,-239.017 464.282,-210.324 494,-187 502.997,-179.939 513.918,-175.288 525.105,-172.266"/>
<polygon fill="midnightblue" stroke="midnightblue" points="440.796,-271.151 433.036,-278.364 443.6,-277.564 440.796,-271.151"/>
</g>
<!-- Node2791 -->
<g id="node14" class="node"><title>Node2791</title>
<g id="a_node14"><a xlink:href="namespaceEigen_1_1internal.html#afc41c0196b601e87b2123adfee80c65f" target="_top" xlink:title="Eigen::internal::pscatter\l\&lt; std::complex\&lt; double\l \&gt;, Packet1cd \&gt;">
<polygon fill="none" stroke="black" points="523.5,-98.5 523.5,-139.5 656.5,-139.5 656.5,-98.5 523.5,-98.5"/>
<text text-anchor="start" x="531.5" y="-127.5" font-family="Helvetica,sans-Serif" font-size="10.00">Eigen::internal::pscatter</text>
<text text-anchor="start" x="531.5" y="-116.5" font-family="Helvetica,sans-Serif" font-size="10.00">&lt; std::complex&lt; double</text>
<text text-anchor="middle" x="590" y="-105.5" font-family="Helvetica,sans-Serif" font-size="10.00"> &gt;, Packet1cd &gt;</text>
</a>
</g>
</g>
<!-- Node2789&#45;&gt;Node2791 -->
<g id="edge17" class="edge"><title>Node2789&#45;&gt;Node2791</title>
<path fill="none" stroke="midnightblue" d="M444.488,-274.071C449.443,-271.3 454.053,-267.98 458,-264 495.714,-225.973 456.177,-186.918 494,-149 502.184,-140.796 512.591,-134.831 523.498,-130.495"/>
<polygon fill="midnightblue" stroke="midnightblue" points="442.771,-271.012 435.261,-278.486 445.793,-277.326 442.771,-271.012"/>
</g>
<!-- Node2792 -->
<g id="node15" class="node"><title>Node2792</title>
<g id="a_node15"><a xlink:href="namespaceEigen_1_1internal.html#a03c68a7844a6c488608dd1fdb91cedfb" target="_top" xlink:title="Eigen::internal::ptranspose">
<polygon fill="none" stroke="black" points="517.5,-60.5 517.5,-79.5 662.5,-79.5 662.5,-60.5 517.5,-60.5"/>
<text text-anchor="middle" x="590" y="-67.5" font-family="Helvetica,sans-Serif" font-size="10.00">Eigen::internal::ptranspose</text>
</a>
</g>
</g>
<!-- Node2789&#45;&gt;Node2792 -->
<g id="edge18" class="edge"><title>Node2789&#45;&gt;Node2792</title>
<path fill="none" stroke="midnightblue" d="M446.477,-273.537C450.741,-270.874 454.66,-267.724 458,-264 511.014,-204.882 437.697,-144.995 494,-89 500.559,-82.4767 508.685,-77.8793 517.402,-74.6815"/>
<polygon fill="midnightblue" stroke="midnightblue" points="444.543,-270.599 437.317,-278.348 447.797,-276.796 444.543,-270.599"/>
</g>
<!-- Node2793 -->
<g id="node16" class="node"><title>Node2793</title>
<g id="a_node16"><a xlink:href="structEigen_1_1internal_1_1gemm__pack__lhs_3_01Scalar_00_01Index_00_01DataMapper_00_01Pack1_00_02096896f571e4dfaad2de53af9b13499.html#af0f474d4d31213df020ad25af0c482d3" target="_top" xlink:title="Eigen::internal::gemm\l_pack_lhs\&lt; Scalar, Index,\l DataMapper, Pack1, Pack2,\l RowMajor, Conjugate, PanelMode\l \&gt;::operator()">
<polygon fill="none" stroke="black" points="502,-366.5 502,-429.5 678,-429.5 678,-366.5 502,-366.5"/>
<text text-anchor="start" x="510" y="-417.5" font-family="Helvetica,sans-Serif" font-size="10.00">Eigen::internal::gemm</text>
<text text-anchor="start" x="510" y="-406.5" font-family="Helvetica,sans-Serif" font-size="10.00">_pack_lhs&lt; Scalar, Index,</text>
<text text-anchor="start" x="510" y="-395.5" font-family="Helvetica,sans-Serif" font-size="10.00"> DataMapper, Pack1, Pack2,</text>
<text text-anchor="start" x="510" y="-384.5" font-family="Helvetica,sans-Serif" font-size="10.00"> RowMajor, Conjugate, PanelMode</text>
<text text-anchor="middle" x="590" y="-373.5" font-family="Helvetica,sans-Serif" font-size="10.00"> &gt;::operator()</text>
</a>
</g>
</g>
<!-- Node2789&#45;&gt;Node2793 -->
<g id="edge22" class="edge"><title>Node2789&#45;&gt;Node2793</title>
<path fill="none" stroke="midnightblue" d="M406.408,-303.364C428.393,-317.802 462.771,-339.584 494,-356 500.704,-359.524 507.765,-363.022 514.886,-366.408"/>
<polygon fill="midnightblue" stroke="midnightblue" points="408.062,-300.261 397.79,-297.663 404.2,-306.1 408.062,-300.261"/>
</g>
<!-- Node2794 -->
<g id="node17" class="node"><title>Node2794</title>
<g id="a_node17"><a xlink:href="structEigen_1_1internal_1_1gemm__pack__rhs_3_01Scalar_00_01Index_00_01DataMapper_00_01nr_00_01Coa362601eadb4c84345b37afcaba09a6d.html#adecc1d0ef7d3a37b141ab64bd56feaf0" target="_top" xlink:title="Eigen::internal::gemm\l_pack_rhs\&lt; Scalar, Index,\l DataMapper, nr, ColMajor,\l Conjugate, PanelMode \&gt;::operator()">
<polygon fill="none" stroke="black" points="494,-295 494,-347 686,-347 686,-295 494,-295"/>
<text text-anchor="start" x="502" y="-335" font-family="Helvetica,sans-Serif" font-size="10.00">Eigen::internal::gemm</text>
<text text-anchor="start" x="502" y="-324" font-family="Helvetica,sans-Serif" font-size="10.00">_pack_rhs&lt; Scalar, Index,</text>
<text text-anchor="start" x="502" y="-313" font-family="Helvetica,sans-Serif" font-size="10.00"> DataMapper, nr, ColMajor,</text>
<text text-anchor="middle" x="590" y="-302" font-family="Helvetica,sans-Serif" font-size="10.00"> Conjugate, PanelMode &gt;::operator()</text>
</a>
</g>
</g>
<!-- Node2789&#45;&gt;Node2794 -->
<g id="edge23" class="edge"><title>Node2789&#45;&gt;Node2794</title>
<path fill="none" stroke="midnightblue" d="M452.615,-299.099C465.865,-301.227 479.954,-303.489 493.856,-305.721"/>
<polygon fill="midnightblue" stroke="midnightblue" points="453.092,-295.631 442.663,-297.501 451.982,-302.542 453.092,-295.631"/>
</g>
<!-- Node2795 -->
<g id="node18" class="node"><title>Node2795</title>
<g id="a_node18"><a xlink:href="structEigen_1_1internal_1_1inplace__transpose__selector_3_01MatrixType_00_01true_00_01true_01_4.html#ade80113166d3d27b8631ba4549269926" target="_top" xlink:title="Eigen::internal::inplace\l_transpose_selector\&lt; MatrixType,\l true, true \&gt;::run">
<polygon fill="none" stroke="black" points="501,-234.5 501,-275.5 679,-275.5 679,-234.5 501,-234.5"/>
<text text-anchor="start" x="509" y="-263.5" font-family="Helvetica,sans-Serif" font-size="10.00">Eigen::internal::inplace</text>
<text text-anchor="start" x="509" y="-252.5" font-family="Helvetica,sans-Serif" font-size="10.00">_transpose_selector&lt; MatrixType,</text>
<text text-anchor="middle" x="590" y="-241.5" font-family="Helvetica,sans-Serif" font-size="10.00"> true, true &gt;::run</text>
</a>
</g>
</g>
<!-- Node2789&#45;&gt;Node2795 -->
<g id="edge24" class="edge"><title>Node2789&#45;&gt;Node2795</title>
<path fill="none" stroke="midnightblue" d="M452.641,-276.897C468.101,-274.414 484.701,-271.749 500.814,-269.161"/>
<polygon fill="midnightblue" stroke="midnightblue" points="451.982,-273.458 442.663,-278.499 453.092,-280.369 451.982,-273.458"/>
</g>
<!-- Node2796 -->
<g id="node19" class="node"><title>Node2796</title>
<g id="a_node19"><a xlink:href="packetmath_8cpp.html#a517110e4796d1bac787500a5b23f9bbe" target="_top" xlink:title="packetmath">
<polygon fill="none" stroke="black" points="553,-196.5 553,-215.5 627,-215.5 627,-196.5 553,-196.5"/>
<text text-anchor="middle" x="590" y="-203.5" font-family="Helvetica,sans-Serif" font-size="10.00">packetmath</text>
</a>
</g>
</g>
<!-- Node2789&#45;&gt;Node2796 -->
<g id="edge25" class="edge"><title>Node2789&#45;&gt;Node2796</title>
<path fill="none" stroke="midnightblue" d="M435.669,-275.014C443.459,-272.006 451.162,-268.369 458,-264 477.879,-251.3 473.429,-236.544 494,-225 511.895,-214.958 534.309,-210.172 552.871,-207.913"/>
<polygon fill="midnightblue" stroke="midnightblue" points="434.431,-271.739 426.174,-278.378 436.769,-278.337 434.431,-271.739"/>
</g>
<!-- Node2797 -->
<g id="node20" class="node"><title>Node2797</title>
<g id="a_node20"><a xlink:href="packetmath_8cpp.html#a43e3c22d695551e0e3da70b69ce93742" target="_top" xlink:title="test_packetmath">
<polygon fill="none" stroke="black" points="722,-196.5 722,-215.5 820,-215.5 820,-196.5 722,-196.5"/>
<text text-anchor="middle" x="771" y="-203.5" font-family="Helvetica,sans-Serif" font-size="10.00">test_packetmath</text>
</a>
</g>
</g>
<!-- Node2796&#45;&gt;Node2797 -->
<g id="edge26" class="edge"><title>Node2796&#45;&gt;Node2797</title>
<path fill="none" stroke="midnightblue" d="M637.556,-206C663.504,-206 695.762,-206 721.947,-206"/>
<polygon fill="midnightblue" stroke="midnightblue" points="637.223,-202.5 627.223,-206 637.223,-209.5 637.223,-202.5"/>
</g>
</g>
</svg>
