<?xml version="1.0" encoding="UTF-8" standalone="no"?>
<!DOCTYPE svg PUBLIC "-//W3C//DTD SVG 1.1//EN"
 "http://www.w3.org/Graphics/SVG/1.1/DTD/svg11.dtd">
<!-- Generated by graphviz version 2.38.0 (20140413.2041)
 -->
<!-- Title: Eigen::internal::householder_qr_inplace_unblocked Pages: 1 -->
<svg width="320pt" height="137pt"
 viewBox="0.00 0.00 320.00 137.00" xmlns="http://www.w3.org/2000/svg" xmlns:xlink="http://www.w3.org/1999/xlink">
<g id="graph0" class="graph" transform="scale(1 1) rotate(0) translate(4 133)">
<title>Eigen::internal::householder_qr_inplace_unblocked</title>
<!-- Node876 -->
<g id="node1" class="node"><title>Node876</title>
<polygon fill="#bfbfbf" stroke="black" points="0,-49.5 0,-79.5 150,-79.5 150,-49.5 0,-49.5"/>
<text text-anchor="start" x="8" y="-67.5" font-family="Helvetica,sans-Serif" font-size="10.00">Eigen::internal::householder</text>
<text text-anchor="middle" x="75" y="-56.5" font-family="Helvetica,sans-Serif" font-size="10.00">_qr_inplace_unblocked</text>
</g>
<!-- Node877 -->
<g id="node2" class="node"><title>Node877</title>
<g id="a_node2"><a xlink:href="classEigen_1_1HouseholderQR.html#a2cd92da5485f0c4b79f39d7503e5c3f7" target="_top" xlink:title="Eigen::HouseholderQR\l::cols">
<polygon fill="none" stroke="black" points="187.5,-98.5 187.5,-128.5 310.5,-128.5 310.5,-98.5 187.5,-98.5"/>
<text text-anchor="start" x="195.5" y="-116.5" font-family="Helvetica,sans-Serif" font-size="10.00">Eigen::HouseholderQR</text>
<text text-anchor="middle" x="249" y="-105.5" font-family="Helvetica,sans-Serif" font-size="10.00">::cols</text>
</a>
</g>
</g>
<!-- Node876&#45;&gt;Node877 -->
<g id="edge1" class="edge"><title>Node876&#45;&gt;Node877</title>
<path fill="none" stroke="midnightblue" d="M129.009,-79.6014C146.831,-84.6785 166.88,-90.3902 185.37,-95.6577"/>
<polygon fill="midnightblue" stroke="midnightblue" points="184.59,-99.0746 195.166,-98.4484 186.508,-92.3425 184.59,-99.0746"/>
</g>
<!-- Node878 -->
<g id="node3" class="node"><title>Node878</title>
<g id="a_node3"><a xlink:href="classEigen_1_1PlainObjectBase.html#a99d9054ee2d5a40c6e00ded0265e9cea" target="_top" xlink:title="Eigen::PlainObjectBase\l::resize">
<polygon fill="none" stroke="black" points="186,-49.5 186,-79.5 312,-79.5 312,-49.5 186,-49.5"/>
<text text-anchor="start" x="194" y="-67.5" font-family="Helvetica,sans-Serif" font-size="10.00">Eigen::PlainObjectBase</text>
<text text-anchor="middle" x="249" y="-56.5" font-family="Helvetica,sans-Serif" font-size="10.00">::resize</text>
</a>
</g>
</g>
<!-- Node876&#45;&gt;Node878 -->
<g id="edge2" class="edge"><title>Node876&#45;&gt;Node878</title>
<path fill="none" stroke="midnightblue" d="M150.191,-64.5C158.659,-64.5 167.283,-64.5 175.725,-64.5"/>
<polygon fill="midnightblue" stroke="midnightblue" points="175.91,-68.0001 185.91,-64.5 175.91,-61.0001 175.91,-68.0001"/>
</g>
<!-- Node879 -->
<g id="node4" class="node"><title>Node879</title>
<g id="a_node4"><a xlink:href="classEigen_1_1HouseholderQR.html#aa5d8f6ec5fbedfdf0ec0d02459981e69" target="_top" xlink:title="Eigen::HouseholderQR\l::rows">
<polygon fill="none" stroke="black" points="187.5,-0.5 187.5,-30.5 310.5,-30.5 310.5,-0.5 187.5,-0.5"/>
<text text-anchor="start" x="195.5" y="-18.5" font-family="Helvetica,sans-Serif" font-size="10.00">Eigen::HouseholderQR</text>
<text text-anchor="middle" x="249" y="-7.5" font-family="Helvetica,sans-Serif" font-size="10.00">::rows</text>
</a>
</g>
</g>
<!-- Node876&#45;&gt;Node879 -->
<g id="edge3" class="edge"><title>Node876&#45;&gt;Node879</title>
<path fill="none" stroke="midnightblue" d="M129.009,-49.3986C146.831,-44.3215 166.88,-38.6098 185.37,-33.3423"/>
<polygon fill="midnightblue" stroke="midnightblue" points="186.508,-36.6575 195.166,-30.5516 184.59,-29.9254 186.508,-36.6575"/>
</g>
</g>
</svg>
