<?xml version="1.0" encoding="UTF-8" standalone="no"?>
<!DOCTYPE svg PUBLIC "-//W3C//DTD SVG 1.1//EN"
 "http://www.w3.org/Graphics/SVG/1.1/DTD/svg11.dtd">
<!-- Generated by graphviz version 2.38.0 (20140413.2041)
 -->
<!-- Title: Eigen::internal::pmin Pages: 1 -->
<svg width="602pt" height="415pt"
 viewBox="0.00 0.00 602.00 414.50" xmlns="http://www.w3.org/2000/svg" xmlns:xlink="http://www.w3.org/1999/xlink">
<g id="graph0" class="graph" transform="scale(1 1) rotate(0) translate(4 410.5)">
<title>Eigen::internal::pmin</title>
<!-- Node3432 -->
<g id="node1" class="node"><title>Node3432</title>
<polygon fill="#bfbfbf" stroke="black" points="0,-181.5 0,-200.5 115,-200.5 115,-181.5 0,-181.5"/>
<text text-anchor="middle" x="57.5" y="-188.5" font-family="Helvetica,sans-Serif" font-size="10.00">Eigen::internal::pmin</text>
</g>
<!-- Node3433 -->
<g id="node2" class="node"><title>Node3433</title>
<g id="a_node2"><a xlink:href="namespaceEigen_1_1internal.html#ab589c1da1f207b3493c463c5f006c8cc" target="_top" xlink:title="Eigen::internal::generic\l_fast_tanh_float">
<polygon fill="none" stroke="black" points="156,-352 156,-382 282,-382 282,-352 156,-352"/>
<text text-anchor="start" x="164" y="-370" font-family="Helvetica,sans-Serif" font-size="10.00">Eigen::internal::generic</text>
<text text-anchor="middle" x="219" y="-359" font-family="Helvetica,sans-Serif" font-size="10.00">_fast_tanh_float</text>
</a>
</g>
</g>
<!-- Node3432&#45;&gt;Node3433 -->
<g id="edge1" class="edge"><title>Node3432&#45;&gt;Node3433</title>
<path fill="none" stroke="midnightblue" d="M65.392,-210.092C77.7642,-241.808 106.66,-305.468 151,-342 155.695,-345.868 161.048,-349.172 166.634,-351.985"/>
<polygon fill="midnightblue" stroke="midnightblue" points="68.6338,-208.769 61.8313,-200.646 62.0837,-211.238 68.6338,-208.769"/>
</g>
<!-- Node3436 -->
<g id="node5" class="node"><title>Node3436</title>
<g id="a_node5"><a xlink:href="packetmath_8cpp.html#a2e7812b6bea12cb346cb983e87679233" target="_top" xlink:title="packetmath_notcomplex">
<polygon fill="none" stroke="black" points="151,-313.5 151,-332.5 287,-332.5 287,-313.5 151,-313.5"/>
<text text-anchor="middle" x="219" y="-320.5" font-family="Helvetica,sans-Serif" font-size="10.00">packetmath_notcomplex</text>
</a>
</g>
</g>
<!-- Node3432&#45;&gt;Node3436 -->
<g id="edge4" class="edge"><title>Node3432&#45;&gt;Node3436</title>
<path fill="none" stroke="midnightblue" d="M68.6583,-209.42C83.4731,-234.565 113.384,-279.324 151,-304 156.864,-307.846 163.509,-310.925 170.282,-313.387"/>
<polygon fill="midnightblue" stroke="midnightblue" points="71.5788,-207.476 63.574,-200.536 65.5034,-210.953 71.5788,-207.476"/>
</g>
<!-- Node3437 -->
<g id="node6" class="node"><title>Node3437</title>
<g id="a_node6"><a xlink:href="structEigen_1_1internal_1_1scalar__min__op.html#ae61166cacdf6033c2a352fccb0d09395" target="_top" xlink:title="Eigen::internal::scalar\l_min_op::packetOp">
<polygon fill="none" stroke="black" points="159.5,-264 159.5,-294 278.5,-294 278.5,-264 159.5,-264"/>
<text text-anchor="start" x="167.5" y="-282" font-family="Helvetica,sans-Serif" font-size="10.00">Eigen::internal::scalar</text>
<text text-anchor="middle" x="219" y="-271" font-family="Helvetica,sans-Serif" font-size="10.00">_min_op::packetOp</text>
</a>
</g>
</g>
<!-- Node3432&#45;&gt;Node3437 -->
<g id="edge5" class="edge"><title>Node3432&#45;&gt;Node3437</title>
<path fill="none" stroke="midnightblue" d="M78.5616,-206.762C96.7255,-220.511 124.603,-240.34 151,-254 157.947,-257.595 165.532,-260.934 173.021,-263.926"/>
<polygon fill="midnightblue" stroke="midnightblue" points="80.538,-203.867 70.4741,-200.555 76.2759,-209.42 80.538,-203.867"/>
</g>
<!-- Node3438 -->
<g id="node7" class="node"><title>Node3438</title>
<g id="a_node7"><a xlink:href="namespaceEigen_1_1internal.html#abaadd9aa6aafdf268f71646684340302" target="_top" xlink:title="Eigen::internal::pblend">
<polygon fill="none" stroke="black" points="157.5,-225.5 157.5,-244.5 280.5,-244.5 280.5,-225.5 157.5,-225.5"/>
<text text-anchor="middle" x="219" y="-232.5" font-family="Helvetica,sans-Serif" font-size="10.00">Eigen::internal::pblend</text>
</a>
</g>
</g>
<!-- Node3432&#45;&gt;Node3438 -->
<g id="edge6" class="edge"><title>Node3432&#45;&gt;Node3438</title>
<path fill="none" stroke="midnightblue" d="M102.898,-203.248C128.363,-210.272 159.855,-218.96 183.458,-225.471"/>
<polygon fill="midnightblue" stroke="midnightblue" points="103.68,-199.833 93.1091,-200.547 101.818,-206.581 103.68,-199.833"/>
</g>
<!-- Node3439 -->
<g id="node8" class="node"><title>Node3439</title>
<g id="a_node8"><a xlink:href="namespaceEigen_1_1internal.html#ae5458479b96b74a336076e12227c4f81" target="_top" xlink:title="Eigen::internal::pexp\l\&lt; Packet2d \&gt;">
<polygon fill="none" stroke="black" points="162,-176 162,-206 276,-206 276,-176 162,-176"/>
<text text-anchor="start" x="170" y="-194" font-family="Helvetica,sans-Serif" font-size="10.00">Eigen::internal::pexp</text>
<text text-anchor="middle" x="219" y="-183" font-family="Helvetica,sans-Serif" font-size="10.00">&lt; Packet2d &gt;</text>
</a>
</g>
</g>
<!-- Node3432&#45;&gt;Node3439 -->
<g id="edge7" class="edge"><title>Node3432&#45;&gt;Node3439</title>
<path fill="none" stroke="midnightblue" d="M125.262,-191C137.407,-191 149.965,-191 161.768,-191"/>
<polygon fill="midnightblue" stroke="midnightblue" points="125.183,-187.5 115.183,-191 125.183,-194.5 125.183,-187.5"/>
</g>
<!-- Node3440 -->
<g id="node9" class="node"><title>Node3440</title>
<g id="a_node9"><a xlink:href="namespaceEigen_1_1internal.html#a98b3641bf0b5b095f1879b167959c505" target="_top" xlink:title="Eigen::internal::prsqrt\l\&lt; Packet4f \&gt;">
<polygon fill="none" stroke="black" points="323,-154 323,-184 442,-184 442,-154 323,-154"/>
<text text-anchor="start" x="331" y="-172" font-family="Helvetica,sans-Serif" font-size="10.00">Eigen::internal::prsqrt</text>
<text text-anchor="middle" x="382.5" y="-161" font-family="Helvetica,sans-Serif" font-size="10.00">&lt; Packet4f &gt;</text>
</a>
</g>
</g>
<!-- Node3432&#45;&gt;Node3440 -->
<g id="edge14" class="edge"><title>Node3432&#45;&gt;Node3440</title>
<path fill="none" stroke="midnightblue" d="M97.4608,-178.546C113.813,-173.936 133.146,-169.278 151,-167 209.156,-159.578 276.237,-161.306 322.982,-164.142"/>
<polygon fill="midnightblue" stroke="midnightblue" points="96.3255,-175.232 87.7041,-181.39 98.284,-181.952 96.3255,-175.232"/>
</g>
<!-- Node3442 -->
<g id="node11" class="node"><title>Node3442</title>
<g id="a_node11"><a xlink:href="namespaceEigen_1_1internal.html#aa287cf9beefe00a71e537d61ca5e374d" target="_top" xlink:title="Eigen::internal::pexp\l\&lt; Packet4d \&gt;">
<polygon fill="none" stroke="black" points="162,-88 162,-118 276,-118 276,-88 162,-88"/>
<text text-anchor="start" x="170" y="-106" font-family="Helvetica,sans-Serif" font-size="10.00">Eigen::internal::pexp</text>
<text text-anchor="middle" x="219" y="-95" font-family="Helvetica,sans-Serif" font-size="10.00">&lt; Packet4d &gt;</text>
</a>
</g>
</g>
<!-- Node3432&#45;&gt;Node3442 -->
<g id="edge11" class="edge"><title>Node3432&#45;&gt;Node3442</title>
<path fill="none" stroke="midnightblue" d="M80.856,-175.751C99.2735,-163.492 126.286,-146.199 151,-133 160.781,-127.777 171.651,-122.639 181.742,-118.131"/>
<polygon fill="midnightblue" stroke="midnightblue" points="78.9049,-172.845 72.5529,-181.325 82.8064,-178.657 78.9049,-172.845"/>
</g>
<!-- Node3443 -->
<g id="node12" class="node"><title>Node3443</title>
<g id="a_node12"><a xlink:href="namespaceEigen_1_1internal.html#ae50022746c5ddd3c92ba6eae17b22b0c" target="_top" xlink:title="Eigen::internal::pexp\l\&lt; Packet4f \&gt;">
<polygon fill="none" stroke="black" points="162,-39 162,-69 276,-69 276,-39 162,-39"/>
<text text-anchor="start" x="170" y="-57" font-family="Helvetica,sans-Serif" font-size="10.00">Eigen::internal::pexp</text>
<text text-anchor="middle" x="219" y="-46" font-family="Helvetica,sans-Serif" font-size="10.00">&lt; Packet4f &gt;</text>
</a>
</g>
</g>
<!-- Node3432&#45;&gt;Node3443 -->
<g id="edge12" class="edge"><title>Node3432&#45;&gt;Node3443</title>
<path fill="none" stroke="midnightblue" d="M69.2152,-172.801C84.4898,-148.305 114.73,-104.828 151,-79 156.36,-75.1832 162.372,-71.8752 168.537,-69.0289"/>
<polygon fill="midnightblue" stroke="midnightblue" points="66.1508,-171.104 63.9444,-181.467 72.1314,-174.742 66.1508,-171.104"/>
</g>
<!-- Node3444 -->
<g id="node13" class="node"><title>Node3444</title>
<g id="a_node13"><a xlink:href="namespaceEigen_1_1internal.html#abdf0ea7e126fdf116b7e4d9200f7a90f" target="_top" xlink:title="Eigen::internal::pmadd">
<polygon fill="none" stroke="black" points="156.5,-0.5 156.5,-19.5 281.5,-19.5 281.5,-0.5 156.5,-0.5"/>
<text text-anchor="middle" x="219" y="-7.5" font-family="Helvetica,sans-Serif" font-size="10.00">Eigen::internal::pmadd</text>
</a>
</g>
</g>
<!-- Node3432&#45;&gt;Node3444 -->
<g id="edge13" class="edge"><title>Node3432&#45;&gt;Node3444</title>
<path fill="none" stroke="midnightblue" d="M64.2886,-171.724C75.4352,-137.914 103.109,-67.9186 151,-30 156.52,-25.6295 162.978,-22.2127 169.665,-19.542"/>
<polygon fill="midnightblue" stroke="midnightblue" points="60.9248,-170.754 61.2456,-181.344 67.5988,-172.865 60.9248,-170.754"/>
</g>
<!-- Node3434 -->
<g id="node3" class="node"><title>Node3434</title>
<g id="a_node3"><a xlink:href="namespaceEigen_1_1internal.html#a74c125271290cd7011e9e673e34c819a" target="_top" xlink:title="Eigen::internal::ptanh\l\&lt; Packet4f \&gt;">
<polygon fill="none" stroke="black" points="323,-376 323,-406 442,-406 442,-376 323,-376"/>
<text text-anchor="start" x="331" y="-394" font-family="Helvetica,sans-Serif" font-size="10.00">Eigen::internal::ptanh</text>
<text text-anchor="middle" x="382.5" y="-383" font-family="Helvetica,sans-Serif" font-size="10.00">&lt; Packet4f &gt;</text>
</a>
</g>
</g>
<!-- Node3433&#45;&gt;Node3434 -->
<g id="edge2" class="edge"><title>Node3433&#45;&gt;Node3434</title>
<path fill="none" stroke="midnightblue" d="M292.533,-377.779C302.709,-379.291 313.06,-380.829 322.933,-382.296"/>
<polygon fill="midnightblue" stroke="midnightblue" points="292.846,-374.287 282.44,-376.279 291.817,-381.211 292.846,-374.287"/>
</g>
<!-- Node3435 -->
<g id="node4" class="node"><title>Node3435</title>
<g id="a_node4"><a xlink:href="namespaceEigen_1_1internal.html#a8c1fea674ea6c3cc4c439f306e00dafb" target="_top" xlink:title="Eigen::internal::ptanh\l\&lt; Packet8f \&gt;">
<polygon fill="none" stroke="black" points="323,-327 323,-357 442,-357 442,-327 323,-327"/>
<text text-anchor="start" x="331" y="-345" font-family="Helvetica,sans-Serif" font-size="10.00">Eigen::internal::ptanh</text>
<text text-anchor="middle" x="382.5" y="-334" font-family="Helvetica,sans-Serif" font-size="10.00">&lt; Packet8f &gt;</text>
</a>
</g>
</g>
<!-- Node3433&#45;&gt;Node3435 -->
<g id="edge3" class="edge"><title>Node3433&#45;&gt;Node3435</title>
<path fill="none" stroke="midnightblue" d="M292.533,-355.772C302.709,-354.197 313.06,-352.594 322.933,-351.066"/>
<polygon fill="midnightblue" stroke="midnightblue" points="291.787,-352.346 282.44,-357.334 292.858,-359.263 291.787,-352.346"/>
</g>
<!-- Node3439&#45;&gt;Node3440 -->
<g id="edge8" class="edge"><title>Node3439&#45;&gt;Node3440</title>
<path fill="none" stroke="midnightblue" d="M286.115,-181.994C298.277,-180.337 310.897,-178.618 322.822,-176.993"/>
<polygon fill="midnightblue" stroke="midnightblue" points="285.468,-178.549 276.032,-183.367 286.413,-185.485 285.468,-178.549"/>
</g>
<!-- Node3441 -->
<g id="node10" class="node"><title>Node3441</title>
<g id="a_node10"><a xlink:href="namespaceEigen_1_1internal.html#af266de4f31500421cd72cb689d58949c" target="_top" xlink:title="Eigen::internal::psqrt\l\&lt; Packet2d \&gt;">
<polygon fill="none" stroke="black" points="478,-154 478,-184 594,-184 594,-154 478,-154"/>
<text text-anchor="start" x="486" y="-172" font-family="Helvetica,sans-Serif" font-size="10.00">Eigen::internal::psqrt</text>
<text text-anchor="middle" x="536" y="-161" font-family="Helvetica,sans-Serif" font-size="10.00">&lt; Packet2d &gt;</text>
</a>
</g>
</g>
<!-- Node3440&#45;&gt;Node3441 -->
<g id="edge9" class="edge"><title>Node3440&#45;&gt;Node3441</title>
<path fill="none" stroke="midnightblue" d="M452.298,-162.275C460.75,-162.214 469.319,-162.265 477.579,-162.429"/>
<polygon fill="midnightblue" stroke="midnightblue" points="452.028,-158.778 442.074,-162.407 452.118,-165.778 452.028,-158.778"/>
</g>
<!-- Node3441&#45;&gt;Node3440 -->
<g id="edge10" class="edge"><title>Node3441&#45;&gt;Node3440</title>
<path fill="none" stroke="midnightblue" d="M467.379,-175.715C458.938,-175.788 450.361,-175.747 442.074,-175.593"/>
<polygon fill="midnightblue" stroke="midnightblue" points="467.63,-179.212 477.579,-175.571 467.531,-172.213 467.63,-179.212"/>
</g>
</g>
</svg>
