<?xml version="1.0" encoding="UTF-8" standalone="no"?>
<!DOCTYPE svg PUBLIC "-//W3C//DTD SVG 1.1//EN"
 "http://www.w3.org/Graphics/SVG/1.1/DTD/svg11.dtd">
<!-- Generated by graphviz version 2.38.0 (20140413.2041)
 -->
<!-- Title: Eigen::internal::pmul&lt; Packet2d &gt; Pages: 1 -->
<svg width="274pt" height="88pt"
 viewBox="0.00 0.00 274.00 88.00" xmlns="http://www.w3.org/2000/svg" xmlns:xlink="http://www.w3.org/1999/xlink">
<g id="graph0" class="graph" transform="scale(1 1) rotate(0) translate(4 84)">
<title>Eigen::internal::pmul&lt; Packet2d &gt;</title>
<!-- Node3606 -->
<g id="node1" class="node"><title>Node3606</title>
<polygon fill="#bfbfbf" stroke="black" points="0,-24.5 0,-54.5 115,-54.5 115,-24.5 0,-24.5"/>
<text text-anchor="start" x="8" y="-42.5" font-family="Helvetica,sans-Serif" font-size="10.00">Eigen::internal::pmul</text>
<text text-anchor="middle" x="57.5" y="-31.5" font-family="Helvetica,sans-Serif" font-size="10.00">&lt; Packet2d &gt;</text>
</g>
<!-- Node3607 -->
<g id="node2" class="node"><title>Node3607</title>
<g id="a_node2"><a xlink:href="namespaceEigen_1_1internal.html#a7a2a0544bbabeb6b84840a1f856a76a5" target="_top" xlink:title="Eigen::internal::pdiv\l\&lt; Packet4f \&gt;">
<polygon fill="none" stroke="black" points="153.5,-49.5 153.5,-79.5 263.5,-79.5 263.5,-49.5 153.5,-49.5"/>
<text text-anchor="start" x="161.5" y="-67.5" font-family="Helvetica,sans-Serif" font-size="10.00">Eigen::internal::pdiv</text>
<text text-anchor="middle" x="208.5" y="-56.5" font-family="Helvetica,sans-Serif" font-size="10.00">&lt; Packet4f &gt;</text>
</a>
</g>
</g>
<!-- Node3606&#45;&gt;Node3607 -->
<g id="edge1" class="edge"><title>Node3606&#45;&gt;Node3607</title>
<path fill="none" stroke="midnightblue" d="M115.256,-49.0227C124.436,-50.563 133.998,-52.1674 143.338,-53.7346"/>
<polygon fill="midnightblue" stroke="midnightblue" points="142.917,-57.2128 153.359,-55.4159 144.076,-50.3093 142.917,-57.2128"/>
</g>
<!-- Node3608 -->
<g id="node3" class="node"><title>Node3608</title>
<g id="a_node3"><a xlink:href="namespaceEigen_1_1internal.html#ac857e3cd556f2e2f05896b08cf703569" target="_top" xlink:title="Eigen::internal::pmul\l\&lt; Packet4i \&gt;">
<polygon fill="none" stroke="black" points="151,-0.5 151,-30.5 266,-30.5 266,-0.5 151,-0.5"/>
<text text-anchor="start" x="159" y="-18.5" font-family="Helvetica,sans-Serif" font-size="10.00">Eigen::internal::pmul</text>
<text text-anchor="middle" x="208.5" y="-7.5" font-family="Helvetica,sans-Serif" font-size="10.00">&lt; Packet4i &gt;</text>
</a>
</g>
</g>
<!-- Node3606&#45;&gt;Node3608 -->
<g id="edge2" class="edge"><title>Node3606&#45;&gt;Node3608</title>
<path fill="none" stroke="midnightblue" d="M115.256,-30.3582C123.649,-29.0062 132.362,-27.6028 140.933,-26.2222"/>
<polygon fill="midnightblue" stroke="midnightblue" points="141.586,-29.6622 150.902,-24.6164 140.473,-22.7513 141.586,-29.6622"/>
</g>
</g>
</svg>
