<?xml version="1.0" encoding="UTF-8" standalone="no"?>
<!DOCTYPE svg PUBLIC "-//W3C//DTD SVG 1.1//EN"
 "http://www.w3.org/Graphics/SVG/1.1/DTD/svg11.dtd">
<!-- Generated by graphviz version 2.38.0 (20140413.2041)
 -->
<!-- Title: Eigen::half_impl::operator*= Pages: 1 -->
<svg width="327pt" height="88pt"
 viewBox="0.00 0.00 327.00 88.00" xmlns="http://www.w3.org/2000/svg" xmlns:xlink="http://www.w3.org/1999/xlink">
<g id="graph0" class="graph" transform="scale(1 1) rotate(0) translate(4 84)">
<title>Eigen::half_impl::operator*=</title>
<!-- Node49 -->
<g id="node1" class="node"><title>Node49</title>
<polygon fill="#bfbfbf" stroke="black" points="0,-24.5 0,-43.5 152,-43.5 152,-24.5 0,-24.5"/>
<text text-anchor="middle" x="76" y="-31.5" font-family="Helvetica,sans-Serif" font-size="10.00">Eigen::half_impl::operator*=</text>
</g>
<!-- Node50 -->
<g id="node2" class="node"><title>Node50</title>
<g id="a_node2"><a xlink:href="classEigen_1_1QuaternionBase.html#aa95c422b3d12869ed6aa46e4dd5a430a" target="_top" xlink:title="Eigen::QuaternionBase\l\&lt; Quaternion\&lt; _Scalar,\l _Options \&gt; \&gt;::dot">
<polygon fill="none" stroke="black" points="188,-38.5 188,-79.5 319,-79.5 319,-38.5 188,-38.5"/>
<text text-anchor="start" x="196" y="-67.5" font-family="Helvetica,sans-Serif" font-size="10.00">Eigen::QuaternionBase</text>
<text text-anchor="start" x="196" y="-56.5" font-family="Helvetica,sans-Serif" font-size="10.00">&lt; Quaternion&lt; _Scalar,</text>
<text text-anchor="middle" x="253.5" y="-45.5" font-family="Helvetica,sans-Serif" font-size="10.00"> _Options &gt; &gt;::dot</text>
</a>
</g>
</g>
<!-- Node49&#45;&gt;Node50 -->
<g id="edge1" class="edge"><title>Node49&#45;&gt;Node50</title>
<path fill="none" stroke="midnightblue" d="M153.763,-44.935C165.14,-46.5556 176.768,-48.2119 187.864,-49.7926"/>
<polygon fill="midnightblue" stroke="midnightblue" points="154.243,-41.4681 143.85,-43.5227 153.256,-48.3981 154.243,-41.4681"/>
</g>
<!-- Node51 -->
<g id="node3" class="node"><title>Node51</title>
<g id="a_node3"><a xlink:href="structEigen_1_1half.html#a1bdc641b2ae9ee7cd8289b116a7c96b3" target="_top" xlink:title="Eigen::half::operator=">
<polygon fill="none" stroke="black" points="192.5,-0.5 192.5,-19.5 314.5,-19.5 314.5,-0.5 192.5,-0.5"/>
<text text-anchor="middle" x="253.5" y="-7.5" font-family="Helvetica,sans-Serif" font-size="10.00">Eigen::half::operator=</text>
</a>
</g>
</g>
<!-- Node49&#45;&gt;Node51 -->
<g id="edge2" class="edge"><title>Node49&#45;&gt;Node51</title>
<path fill="none" stroke="midnightblue" d="M156.625,-23.1111C168.624,-21.4703 180.827,-19.8015 192.326,-18.2289"/>
<polygon fill="midnightblue" stroke="midnightblue" points="156.048,-19.6574 146.614,-24.4801 156.996,-26.5928 156.048,-19.6574"/>
</g>
</g>
</svg>
