<?xml version="1.0" encoding="UTF-8" standalone="no"?>
<!DOCTYPE svg PUBLIC "-//W3C//DTD SVG 1.1//EN"
 "http://www.w3.org/Graphics/SVG/1.1/DTD/svg11.dtd">
<!-- Generated by graphviz version 2.38.0 (20140413.2041)
 -->
<!-- Title: test_nesting_ops Pages: 1 -->
<svg width="487pt" height="104pt"
 viewBox="0.00 0.00 487.00 104.00" xmlns="http://www.w3.org/2000/svg" xmlns:xlink="http://www.w3.org/1999/xlink">
<g id="graph0" class="graph" transform="scale(1 1) rotate(0) translate(4 100)">
<title>test_nesting_ops</title>
<!-- Node10 -->
<g id="node1" class="node"><title>Node10</title>
<polygon fill="#bfbfbf" stroke="black" points="0,-57.5 0,-76.5 98,-76.5 98,-57.5 0,-57.5"/>
<text text-anchor="middle" x="49" y="-64.5" font-family="Helvetica,sans-Serif" font-size="10.00">test_nesting_ops</text>
</g>
<!-- Node11 -->
<g id="node2" class="node"><title>Node11</title>
<g id="a_node2"><a xlink:href="nesting__ops_8cpp.html#ae632284ed31d019b21b67cd2f078b560" target="_top" xlink:title="run_nesting_ops_1">
<polygon fill="none" stroke="black" points="134,-76.5 134,-95.5 241,-95.5 241,-76.5 134,-76.5"/>
<text text-anchor="middle" x="187.5" y="-83.5" font-family="Helvetica,sans-Serif" font-size="10.00">run_nesting_ops_1</text>
</a>
</g>
</g>
<!-- Node10&#45;&gt;Node11 -->
<g id="edge1" class="edge"><title>Node10&#45;&gt;Node11</title>
<path fill="none" stroke="midnightblue" d="M98.1248,-73.6987C106.4,-74.8506 115.109,-76.0628 123.702,-77.2588"/>
<polygon fill="midnightblue" stroke="midnightblue" points="123.316,-80.7388 133.703,-78.6509 124.281,-73.8056 123.316,-80.7388"/>
</g>
<!-- Node14 -->
<g id="node5" class="node"><title>Node14</title>
<g id="a_node5"><a xlink:href="nesting__ops_8cpp.html#a71cbc6fbce720c3b70305f9bead325e5" target="_top" xlink:title="run_nesting_ops_2">
<polygon fill="none" stroke="black" points="134,-38.5 134,-57.5 241,-57.5 241,-38.5 134,-38.5"/>
<text text-anchor="middle" x="187.5" y="-45.5" font-family="Helvetica,sans-Serif" font-size="10.00">run_nesting_ops_2</text>
</a>
</g>
</g>
<!-- Node10&#45;&gt;Node14 -->
<g id="edge4" class="edge"><title>Node10&#45;&gt;Node14</title>
<path fill="none" stroke="midnightblue" d="M98.1248,-60.3013C106.4,-59.1494 115.109,-57.9372 123.702,-56.7412"/>
<polygon fill="midnightblue" stroke="midnightblue" points="124.281,-60.1944 133.703,-55.3491 123.316,-53.2612 124.281,-60.1944"/>
</g>
<!-- Node12 -->
<g id="node3" class="node"><title>Node12</title>
<g id="a_node3"><a xlink:href="diagonal_8cpp.html#a92340af6dbaaba622e275be130b27f4b" target="_top" xlink:title="diagonal">
<polygon fill="none" stroke="black" points="315.5,-76.5 315.5,-95.5 372.5,-95.5 372.5,-76.5 315.5,-76.5"/>
<text text-anchor="middle" x="344" y="-83.5" font-family="Helvetica,sans-Serif" font-size="10.00">diagonal</text>
</a>
</g>
</g>
<!-- Node11&#45;&gt;Node12 -->
<g id="edge2" class="edge"><title>Node11&#45;&gt;Node12</title>
<path fill="none" stroke="midnightblue" d="M241.238,-86C262.185,-86 285.815,-86 305.028,-86"/>
<polygon fill="midnightblue" stroke="midnightblue" points="305.203,-89.5001 315.203,-86 305.203,-82.5001 305.203,-89.5001"/>
</g>
<!-- Node13 -->
<g id="node4" class="node"><title>Node13</title>
<g id="a_node4"><a xlink:href="Tutorial__Map__using_8cpp.html#ab3a01b595d22393ace0d30d5fa299f76" target="_top" xlink:title="m2">
<polygon fill="none" stroke="black" points="447,-57.5 447,-76.5 479,-76.5 479,-57.5 447,-57.5"/>
<text text-anchor="middle" x="463" y="-64.5" font-family="Helvetica,sans-Serif" font-size="10.00">m2</text>
</a>
</g>
</g>
<!-- Node12&#45;&gt;Node13 -->
<g id="edge3" class="edge"><title>Node12&#45;&gt;Node13</title>
<path fill="none" stroke="midnightblue" d="M372.727,-81.4973C392.25,-78.3269 418.165,-74.1185 437.042,-71.0529"/>
<polygon fill="midnightblue" stroke="midnightblue" points="437.671,-74.4967 446.981,-69.439 436.549,-67.5872 437.671,-74.4967"/>
</g>
<!-- Node14&#45;&gt;Node13 -->
<g id="edge5" class="edge"><title>Node14&#45;&gt;Node13</title>
<path fill="none" stroke="midnightblue" d="M241.234,-51.6634C299.904,-55.7392 392.262,-62.1553 436.596,-65.2352"/>
<polygon fill="midnightblue" stroke="midnightblue" points="436.565,-68.7414 446.783,-65.9429 437.05,-61.7582 436.565,-68.7414"/>
</g>
<!-- Node15 -->
<g id="node6" class="node"><title>Node15</title>
<g id="a_node6"><a xlink:href="lapack_2cholesky_8cpp.html#accba35e157cff07f839ca4634f76c472" target="_top" xlink:title="triangularView\&lt; Lower \&gt;">
<polygon fill="none" stroke="black" points="277,-0.5 277,-19.5 411,-19.5 411,-0.5 277,-0.5"/>
<text text-anchor="middle" x="344" y="-7.5" font-family="Helvetica,sans-Serif" font-size="10.00">triangularView&lt; Lower &gt;</text>
</a>
</g>
</g>
<!-- Node14&#45;&gt;Node15 -->
<g id="edge6" class="edge"><title>Node14&#45;&gt;Node15</title>
<path fill="none" stroke="midnightblue" d="M227.487,-38.411C247.783,-33.4191 272.793,-27.2676 294.346,-21.9666"/>
<polygon fill="midnightblue" stroke="midnightblue" points="295.419,-25.3072 304.293,-19.5201 293.747,-18.5098 295.419,-25.3072"/>
</g>
</g>
</svg>
