<?xml version="1.0" encoding="UTF-8" standalone="no"?>
<!DOCTYPE svg PUBLIC "-//W3C//DTD SVG 1.1//EN"
 "http://www.w3.org/Graphics/SVG/1.1/DTD/svg11.dtd">
<!-- Generated by graphviz version 2.38.0 (20140413.2041)
 -->
<!-- Title: testHybrd Pages: 1 -->
<svg width="266pt" height="88pt"
 viewBox="0.00 0.00 266.00 88.00" xmlns="http://www.w3.org/2000/svg" xmlns:xlink="http://www.w3.org/1999/xlink">
<g id="graph0" class="graph" transform="scale(1 1) rotate(0) translate(4 84)">
<title>testHybrd</title>
<!-- Node64 -->
<g id="node1" class="node"><title>Node64</title>
<polygon fill="#bfbfbf" stroke="black" points="0,-30 0,-49 64,-49 64,-30 0,-30"/>
<text text-anchor="middle" x="32" y="-37" font-family="Helvetica,sans-Serif" font-size="10.00">testHybrd</text>
</g>
<!-- Node65 -->
<g id="node2" class="node"><title>Node65</title>
<g id="a_node2"><a xlink:href="classEigen_1_1PlainObjectBase.html#ac8dea1df3d92b752cc683ff42abf6f9b" target="_top" xlink:title="Eigen::PlainObjectBase\l::setConstant">
<polygon fill="none" stroke="black" points="116,-49.5 116,-79.5 242,-79.5 242,-49.5 116,-49.5"/>
<text text-anchor="start" x="124" y="-67.5" font-family="Helvetica,sans-Serif" font-size="10.00">Eigen::PlainObjectBase</text>
<text text-anchor="middle" x="179" y="-56.5" font-family="Helvetica,sans-Serif" font-size="10.00">::setConstant</text>
</a>
</g>
</g>
<!-- Node64&#45;&gt;Node65 -->
<g id="edge1" class="edge"><title>Node64&#45;&gt;Node65</title>
<path fill="none" stroke="midnightblue" d="M64.1061,-44.8631C76.4115,-46.9847 91.1094,-49.5189 105.791,-52.0502"/>
<polygon fill="midnightblue" stroke="midnightblue" points="105.474,-55.5471 115.924,-53.7972 106.664,-48.6489 105.474,-55.5471"/>
</g>
<!-- Node66 -->
<g id="node3" class="node"><title>Node66</title>
<g id="a_node3"><a xlink:href="classEigen_1_1HybridNonLinearSolver.html#a019c209d3c67020247583dce00a5e760" target="_top" xlink:title="Eigen::HybridNonLinearSolver\l::solveNumericalDiff">
<polygon fill="none" stroke="black" points="100,-0.5 100,-30.5 258,-30.5 258,-0.5 100,-0.5"/>
<text text-anchor="start" x="108" y="-18.5" font-family="Helvetica,sans-Serif" font-size="10.00">Eigen::HybridNonLinearSolver</text>
<text text-anchor="middle" x="179" y="-7.5" font-family="Helvetica,sans-Serif" font-size="10.00">::solveNumericalDiff</text>
</a>
</g>
</g>
<!-- Node64&#45;&gt;Node66 -->
<g id="edge2" class="edge"><title>Node64&#45;&gt;Node66</title>
<path fill="none" stroke="midnightblue" d="M64.1061,-34.3514C71.9283,-33.0567 80.7172,-31.602 89.8543,-30.0896"/>
<polygon fill="midnightblue" stroke="midnightblue" points="90.5822,-33.5169 99.8764,-28.4308 89.439,-26.6108 90.5822,-33.5169"/>
</g>
</g>
</svg>
