<?xml version="1.0" encoding="UTF-8" standalone="no"?>
<!DOCTYPE svg PUBLIC "-//W3C//DTD SVG 1.1//EN"
 "http://www.w3.org/Graphics/SVG/1.1/DTD/svg11.dtd">
<!-- Generated by graphviz version 2.38.0 (20140413.2041)
 -->
<!-- Title: testNistRat43 Pages: 1 -->
<svg width="346pt" height="88pt"
 viewBox="0.00 0.00 346.00 88.00" xmlns="http://www.w3.org/2000/svg" xmlns:xlink="http://www.w3.org/1999/xlink">
<g id="graph0" class="graph" transform="scale(1 1) rotate(0) translate(4 84)">
<title>testNistRat43</title>
<!-- Node173 -->
<g id="node1" class="node"><title>Node173</title>
<polygon fill="#bfbfbf" stroke="black" points="0,-30 0,-49 82,-49 82,-30 0,-30"/>
<text text-anchor="middle" x="41" y="-37" font-family="Helvetica,sans-Serif" font-size="10.00">testNistRat43</text>
</g>
<!-- Node174 -->
<g id="node2" class="node"><title>Node174</title>
<g id="a_node2"><a xlink:href="classEigen_1_1LevenbergMarquardt.html#a5c1ef387601af15f7d2474165bb82865" target="_top" xlink:title="Eigen::LevenbergMarquardt\l::minimize">
<polygon fill="none" stroke="black" points="118,-49.5 118,-79.5 267,-79.5 267,-49.5 118,-49.5"/>
<text text-anchor="start" x="126" y="-67.5" font-family="Helvetica,sans-Serif" font-size="10.00">Eigen::LevenbergMarquardt</text>
<text text-anchor="middle" x="192.5" y="-56.5" font-family="Helvetica,sans-Serif" font-size="10.00">::minimize</text>
</a>
</g>
</g>
<!-- Node173&#45;&gt;Node174 -->
<g id="edge1" class="edge"><title>Node173&#45;&gt;Node174</title>
<path fill="none" stroke="midnightblue" d="M82.0633,-46.1995C90.107,-47.5446 98.8392,-49.0049 107.745,-50.4941"/>
<polygon fill="midnightblue" stroke="midnightblue" points="107.405,-53.9857 117.845,-52.1831 108.559,-47.0816 107.405,-53.9857"/>
</g>
<!-- Node175 -->
<g id="node3" class="node"><title>Node175</title>
<g id="a_node3"><a xlink:href="classEigen_1_1LevenbergMarquardt.html#a16172a2048058ea0a908213a7b0f8971" target="_top" xlink:title="Eigen::LevenbergMarquardt\l::resetParameters">
<polygon fill="none" stroke="black" points="118,-0.5 118,-30.5 267,-30.5 267,-0.5 118,-0.5"/>
<text text-anchor="start" x="126" y="-18.5" font-family="Helvetica,sans-Serif" font-size="10.00">Eigen::LevenbergMarquardt</text>
<text text-anchor="middle" x="192.5" y="-7.5" font-family="Helvetica,sans-Serif" font-size="10.00">::resetParameters</text>
</a>
</g>
</g>
<!-- Node173&#45;&gt;Node175 -->
<g id="edge2" class="edge"><title>Node173&#45;&gt;Node175</title>
<path fill="none" stroke="midnightblue" d="M82.0633,-33.0684C90.107,-31.7771 98.8392,-30.3753 107.745,-28.9457"/>
<polygon fill="midnightblue" stroke="midnightblue" points="108.526,-32.3651 117.845,-27.3242 107.417,-25.4536 108.526,-32.3651"/>
</g>
<!-- Node176 -->
<g id="node4" class="node"><title>Node176</title>
<g id="a_node4"><a xlink:href="ArrayCwiseUnaryOps_8h.html#a656b9217a2fcb6de59dc8d1eb3079cc7" target="_top" xlink:title="sqrt">
<polygon fill="none" stroke="black" points="303,-6 303,-25 338,-25 338,-6 303,-6"/>
<text text-anchor="middle" x="320.5" y="-13" font-family="Helvetica,sans-Serif" font-size="10.00">sqrt</text>
</a>
</g>
</g>
<!-- Node175&#45;&gt;Node176 -->
<g id="edge3" class="edge"><title>Node175&#45;&gt;Node176</title>
<path fill="none" stroke="midnightblue" d="M267.159,-15.5C276.237,-15.5 285.011,-15.5 292.697,-15.5"/>
<polygon fill="midnightblue" stroke="midnightblue" points="292.756,-19.0001 302.756,-15.5 292.756,-12.0001 292.756,-19.0001"/>
</g>
</g>
</svg>
