<?xml version="1.0" encoding="UTF-8" standalone="no"?>
<!DOCTYPE svg PUBLIC "-//W3C//DTD SVG 1.1//EN"
 "http://www.w3.org/Graphics/SVG/1.1/DTD/svg11.dtd">
<!-- Generated by graphviz version 2.38.0 (20140413.2041)
 -->
<!-- Title: testLmdif Pages: 1 -->
<svg width="417pt" height="149pt"
 viewBox="0.00 0.00 417.00 148.50" xmlns="http://www.w3.org/2000/svg" xmlns:xlink="http://www.w3.org/1999/xlink">
<g id="graph0" class="graph" transform="scale(1 1) rotate(0) translate(4 144.5)">
<title>testLmdif</title>
<!-- Node94 -->
<g id="node1" class="node"><title>Node94</title>
<polygon fill="#bfbfbf" stroke="black" points="0,-55 0,-74 62,-74 62,-55 0,-55"/>
<text text-anchor="middle" x="31" y="-62" font-family="Helvetica,sans-Serif" font-size="10.00">testLmdif</text>
</g>
<!-- Node95 -->
<g id="node2" class="node"><title>Node95</title>
<g id="a_node2"><a xlink:href="namespaceEigen_1_1internal.html#ab02b12e1b86ddb7b50855f9ecf000410" target="_top" xlink:title="Eigen::internal::covar">
<polygon fill="none" stroke="black" points="114,-99 114,-118 231,-118 231,-99 114,-99"/>
<text text-anchor="middle" x="172.5" y="-106" font-family="Helvetica,sans-Serif" font-size="10.00">Eigen::internal::covar</text>
</a>
</g>
</g>
<!-- Node94&#45;&gt;Node95 -->
<g id="edge1" class="edge"><title>Node94&#45;&gt;Node95</title>
<path fill="none" stroke="midnightblue" d="M55.3016,-74.038C67.8389,-78.9885 83.6361,-84.938 98,-89.5 105.507,-91.8844 113.516,-94.191 121.381,-96.3263"/>
<polygon fill="midnightblue" stroke="midnightblue" points="120.657,-99.7551 131.22,-98.9322 122.45,-92.9884 120.657,-99.7551"/>
</g>
<!-- Node98 -->
<g id="node5" class="node"><title>Node98</title>
<g id="a_node5"><a xlink:href="classEigen_1_1PermutationMatrix.html#a2f1ab379207fcd1ceb33941e25cf50c2" target="_top" xlink:title="Eigen::PermutationMatrix\l::indices">
<polygon fill="none" stroke="black" points="104,-49.5 104,-79.5 241,-79.5 241,-49.5 104,-49.5"/>
<text text-anchor="start" x="112" y="-67.5" font-family="Helvetica,sans-Serif" font-size="10.00">Eigen::PermutationMatrix</text>
<text text-anchor="middle" x="172.5" y="-56.5" font-family="Helvetica,sans-Serif" font-size="10.00">::indices</text>
</a>
</g>
</g>
<!-- Node94&#45;&gt;Node98 -->
<g id="edge4" class="edge"><title>Node94&#45;&gt;Node98</title>
<path fill="none" stroke="midnightblue" d="M62.2694,-64.5C71.6562,-64.5 82.4655,-64.5 93.555,-64.5"/>
<polygon fill="midnightblue" stroke="midnightblue" points="93.7853,-68.0001 103.785,-64.5 93.7852,-61.0001 93.7853,-68.0001"/>
</g>
<!-- Node99 -->
<g id="node6" class="node"><title>Node99</title>
<g id="a_node6"><a xlink:href="classEigen_1_1LevenbergMarquardt.html#a5c1ef387601af15f7d2474165bb82865" target="_top" xlink:title="Eigen::LevenbergMarquardt\l::minimize">
<polygon fill="none" stroke="black" points="98,-0.5 98,-30.5 247,-30.5 247,-0.5 98,-0.5"/>
<text text-anchor="start" x="106" y="-18.5" font-family="Helvetica,sans-Serif" font-size="10.00">Eigen::LevenbergMarquardt</text>
<text text-anchor="middle" x="172.5" y="-7.5" font-family="Helvetica,sans-Serif" font-size="10.00">::minimize</text>
</a>
</g>
</g>
<!-- Node94&#45;&gt;Node99 -->
<g id="edge5" class="edge"><title>Node94&#45;&gt;Node99</title>
<path fill="none" stroke="midnightblue" d="M57.9729,-54.9133C70.1116,-50.4694 84.7735,-45.1536 98,-40.5 104.236,-38.3059 110.78,-36.0349 117.286,-33.7969"/>
<polygon fill="midnightblue" stroke="midnightblue" points="118.424,-37.1069 126.75,-30.5546 116.155,-30.4848 118.424,-37.1069"/>
</g>
<!-- Node96 -->
<g id="node3" class="node"><title>Node96</title>
<g id="a_node3"><a xlink:href="ArrayCwiseUnaryOps_8h.html#a35560f7dbf19244fda7e463d14157c43" target="_top" xlink:title="abs">
<polygon fill="none" stroke="black" points="329,-121 329,-140 363,-140 363,-121 329,-121"/>
<text text-anchor="middle" x="346" y="-128" font-family="Helvetica,sans-Serif" font-size="10.00">abs</text>
</a>
</g>
</g>
<!-- Node95&#45;&gt;Node96 -->
<g id="edge2" class="edge"><title>Node95&#45;&gt;Node96</title>
<path fill="none" stroke="midnightblue" d="M231.084,-115.887C260.822,-119.702 295.644,-124.169 318.887,-127.15"/>
<polygon fill="midnightblue" stroke="midnightblue" points="318.628,-130.646 328.992,-128.447 319.519,-123.702 318.628,-130.646"/>
</g>
<!-- Node97 -->
<g id="node4" class="node"><title>Node97</title>
<g id="a_node4"><a xlink:href="classEigen_1_1PlainObjectBase.html#a10b8b33b7587da564415561aa246f78f" target="_top" xlink:title="Eigen::PlainObjectBase\l::cols">
<polygon fill="none" stroke="black" points="283,-71.5 283,-101.5 409,-101.5 409,-71.5 283,-71.5"/>
<text text-anchor="start" x="291" y="-89.5" font-family="Helvetica,sans-Serif" font-size="10.00">Eigen::PlainObjectBase</text>
<text text-anchor="middle" x="346" y="-78.5" font-family="Helvetica,sans-Serif" font-size="10.00">::cols</text>
</a>
</g>
</g>
<!-- Node95&#45;&gt;Node97 -->
<g id="edge3" class="edge"><title>Node95&#45;&gt;Node97</title>
<path fill="none" stroke="midnightblue" d="M231.084,-101.113C244.474,-99.3955 258.895,-97.5456 272.825,-95.7586"/>
<polygon fill="midnightblue" stroke="midnightblue" points="273.387,-99.2153 282.86,-94.4713 272.496,-92.2722 273.387,-99.2153"/>
</g>
</g>
</svg>
