<?xml version="1.0" encoding="UTF-8" standalone="no"?>
<!DOCTYPE svg PUBLIC "-//W3C//DTD SVG 1.1//EN"
 "http://www.w3.org/Graphics/SVG/1.1/DTD/svg11.dtd">
<!-- Generated by graphviz version 2.38.0 (20140413.2041)
 -->
<!-- Title: testMatrixType Pages: 1 -->
<svg width="287pt" height="104pt"
 viewBox="0.00 0.00 287.00 104.00" xmlns="http://www.w3.org/2000/svg" xmlns:xlink="http://www.w3.org/1999/xlink">
<g id="graph0" class="graph" transform="scale(1 1) rotate(0) translate(4 100)">
<title>testMatrixType</title>
<!-- Node15 -->
<g id="node1" class="node"><title>Node15</title>
<polygon fill="#bfbfbf" stroke="black" points="0,-38.5 0,-57.5 86,-57.5 86,-38.5 0,-38.5"/>
<text text-anchor="middle" x="43" y="-45.5" font-family="Helvetica,sans-Serif" font-size="10.00">testMatrixType</text>
</g>
<!-- Node16 -->
<g id="node2" class="node"><title>Node16</title>
<g id="a_node2"><a xlink:href="ArrayCwiseUnaryOps_8h.html#a35560f7dbf19244fda7e463d14157c43" target="_top" xlink:title="abs">
<polygon fill="none" stroke="black" points="146.5,-76.5 146.5,-95.5 180.5,-95.5 180.5,-76.5 146.5,-76.5"/>
<text text-anchor="middle" x="163.5" y="-83.5" font-family="Helvetica,sans-Serif" font-size="10.00">abs</text>
</a>
</g>
</g>
<!-- Node15&#45;&gt;Node16 -->
<g id="edge1" class="edge"><title>Node15&#45;&gt;Node16</title>
<path fill="none" stroke="midnightblue" d="M73.9026,-57.589C93.3404,-63.8222 118.416,-71.8633 136.926,-77.7992"/>
<polygon fill="midnightblue" stroke="midnightblue" points="135.866,-81.1346 146.457,-80.8554 138.003,-74.4689 135.866,-81.1346"/>
</g>
<!-- Node17 -->
<g id="node3" class="node"><title>Node17</title>
<g id="a_node3"><a xlink:href="Cwise__array__power__array_8cpp.html#aa9e3025f5efca2c2a39d785652f2d710" target="_top" xlink:title="e">
<polygon fill="none" stroke="black" points="149,-38.5 149,-57.5 178,-57.5 178,-38.5 149,-38.5"/>
<text text-anchor="middle" x="163.5" y="-45.5" font-family="Helvetica,sans-Serif" font-size="10.00">e</text>
</a>
</g>
</g>
<!-- Node15&#45;&gt;Node17 -->
<g id="edge2" class="edge"><title>Node15&#45;&gt;Node17</title>
<path fill="none" stroke="midnightblue" d="M86.1123,-48C103.778,-48 123.667,-48 138.721,-48"/>
<polygon fill="midnightblue" stroke="midnightblue" points="138.727,-51.5001 148.727,-48 138.727,-44.5001 138.727,-51.5001"/>
</g>
<!-- Node18 -->
<g id="node4" class="node"><title>Node18</title>
<g id="a_node4"><a xlink:href="nullary_8cpp.html#a44c50210a95f743ebe6ba9208d96c79b" target="_top" xlink:title="equalsIdentity">
<polygon fill="none" stroke="black" points="122,-0.5 122,-19.5 205,-19.5 205,-0.5 122,-0.5"/>
<text text-anchor="middle" x="163.5" y="-7.5" font-family="Helvetica,sans-Serif" font-size="10.00">equalsIdentity</text>
</a>
</g>
</g>
<!-- Node15&#45;&gt;Node18 -->
<g id="edge3" class="edge"><title>Node15&#45;&gt;Node18</title>
<path fill="none" stroke="midnightblue" d="M73.9026,-38.411C88.7787,-33.6406 106.957,-27.8112 122.967,-22.6771"/>
<polygon fill="midnightblue" stroke="midnightblue" points="124.153,-25.9724 132.607,-19.5859 122.016,-19.3068 124.153,-25.9724"/>
</g>
<!-- Node19 -->
<g id="node5" class="node"><title>Node19</title>
<g id="a_node5"><a xlink:href="svd__common_8h.html#a4a86f5596ff1afa9113ff6cc07a60453" target="_top" xlink:title="zero">
<polygon fill="none" stroke="black" points="241,-0.5 241,-19.5 279,-19.5 279,-0.5 241,-0.5"/>
<text text-anchor="middle" x="260" y="-7.5" font-family="Helvetica,sans-Serif" font-size="10.00">zero</text>
</a>
</g>
</g>
<!-- Node18&#45;&gt;Node19 -->
<g id="edge4" class="edge"><title>Node18&#45;&gt;Node19</title>
<path fill="none" stroke="midnightblue" d="M205.125,-10C213.654,-10 222.477,-10 230.453,-10"/>
<polygon fill="midnightblue" stroke="midnightblue" points="230.695,-13.5001 240.695,-10 230.695,-6.5001 230.695,-13.5001"/>
</g>
</g>
</svg>
