<?xml version="1.0" encoding="UTF-8" standalone="no"?>
<!DOCTYPE svg PUBLIC "-//W3C//DTD SVG 1.1//EN"
 "http://www.w3.org/Graphics/SVG/1.1/DTD/svg11.dtd">
<!-- Generated by graphviz version 2.38.0 (20140413.2041)
 -->
<!-- Title: printInfoLog Pages: 1 -->
<svg width="345pt" height="28pt"
 viewBox="0.00 0.00 345.00 28.00" xmlns="http://www.w3.org/2000/svg" xmlns:xlink="http://www.w3.org/1999/xlink">
<g id="graph0" class="graph" transform="scale(1 1) rotate(0) translate(4 24)">
<title>printInfoLog</title>
<!-- Node5 -->
<g id="node1" class="node"><title>Node5</title>
<polygon fill="#bfbfbf" stroke="black" points="0,-0.5 0,-19.5 73,-19.5 73,-0.5 0,-0.5"/>
<text text-anchor="middle" x="36.5" y="-7.5" font-family="Helvetica,sans-Serif" font-size="10.00">printInfoLog</text>
</g>
<!-- Node6 -->
<g id="node2" class="node"><title>Node6</title>
<g id="a_node2"><a xlink:href="openglsupport_8cpp.html#ae5b9976017c053fce7610cdda0eb8e56" target="_top" xlink:title="createShader">
<polygon fill="none" stroke="black" points="109,-0.5 109,-19.5 191,-19.5 191,-0.5 109,-0.5"/>
<text text-anchor="middle" x="150" y="-7.5" font-family="Helvetica,sans-Serif" font-size="10.00">createShader</text>
</a>
</g>
</g>
<!-- Node5&#45;&gt;Node6 -->
<g id="edge1" class="edge"><title>Node5&#45;&gt;Node6</title>
<path fill="none" stroke="midnightblue" d="M83.1916,-10C91.6513,-10 100.431,-10 108.715,-10"/>
<polygon fill="midnightblue" stroke="midnightblue" points="83.0859,-6.5001 73.0859,-10 83.0858,-13.5001 83.0859,-6.5001"/>
</g>
<!-- Node7 -->
<g id="node3" class="node"><title>Node7</title>
<g id="a_node3"><a xlink:href="openglsupport_8cpp.html#ad1b3d039088c04b22817ca7c0b5d5f8e" target="_top" xlink:title="test_openglsupport">
<polygon fill="none" stroke="black" points="227,-0.5 227,-19.5 337,-19.5 337,-0.5 227,-0.5"/>
<text text-anchor="middle" x="282" y="-7.5" font-family="Helvetica,sans-Serif" font-size="10.00">test_openglsupport</text>
</a>
</g>
</g>
<!-- Node6&#45;&gt;Node7 -->
<g id="edge2" class="edge"><title>Node6&#45;&gt;Node7</title>
<path fill="none" stroke="midnightblue" d="M201.157,-10C209.608,-10 218.412,-10 226.957,-10"/>
<polygon fill="midnightblue" stroke="midnightblue" points="201.065,-6.5001 191.065,-10 201.065,-13.5001 201.065,-6.5001"/>
</g>
</g>
</svg>
