<?xml version="1.0" encoding="UTF-8" standalone="no"?>
<!DOCTYPE svg PUBLIC "-//W3C//DTD SVG 1.1//EN"
 "http://www.w3.org/Graphics/SVG/1.1/DTD/svg11.dtd">
<!-- Generated by graphviz version 2.38.0 (20140413.2041)
 -->
<!-- Title: /travis/libpairinteraction/eigen/test/pardiso_support.cpp Pages: 1 -->
<!--zoomable 274 -->
<svg id="main" version="1.1" xmlns="http://www.w3.org/2000/svg" xmlns:xlink="http://www.w3.org/1999/xlink" xml:space="preserve" onload="init(evt)">
<style type="text/css"><![CDATA[
.edge:hover path { stroke: red; }
.edge:hover polygon { stroke: red; fill: red; }
]]></style>
<script type="text/javascript"><![CDATA[
var edges = document.getElementsByTagName('g');
if (edges && edges.length) {
  for (var i=0;i<edges.length;i++) {
    if (edges[i].id.substr(0,4)=='edge') {
      edges[i].setAttribute('class','edge');
    }
  }
}
]]></script>
        <defs>
                <circle id="rim" cx="0" cy="0" r="7"/>
                <circle id="rim2" cx="0" cy="0" r="3.5"/>
                <g id="zoomPlus">
                        <use xlink:href="#rim" fill="#404040">
                                <set attributeName="fill" to="#808080" begin="zoomplus.mouseover" end="zoomplus.mouseout"/>
                        </use>
                        <path d="M-4,0h8M0,-4v8" fill="none" stroke="white" stroke-width="1.5" pointer-events="none"/>
                </g>
                <g id="zoomMin">
                        <use xlink:href="#rim" fill="#404040">
                                <set attributeName="fill" to="#808080" begin="zoomminus.mouseover" end="zoomminus.mouseout"/>
                        </use>
                        <path d="M-4,0h8" fill="none" stroke="white" stroke-width="1.5" pointer-events="none"/>
                </g>
                <g id="dirArrow">
                        <path fill="none" stroke="white" stroke-width="1.5" d="M0,-3.0v7 M-2.5,-0.5L0,-3.0L2.5,-0.5"/>
                </g>
               <g id="resetDef">
                       <use xlink:href="#rim2" fill="#404040">
                               <set attributeName="fill" to="#808080" begin="reset.mouseover" end="reset.mouseout"/>
                       </use>
               </g>
        </defs>

<script type="text/javascript">
var viewWidth = 1399;
var viewHeight = 274;
var sectionId = 'dynsection-0';
</script>
<script xlink:href="svgpan.js"/>
<svg id="graph" class="graph">
<g id="viewport">
<title>/travis/libpairinteraction/eigen/test/pardiso_support.cpp</title>
<!-- Node0 -->
<g id="node1" class="node"><title>Node0</title>
<polygon fill="#bfbfbf" stroke="black" points="1185.5,-235.5 1185.5,-265.5 1353.5,-265.5 1353.5,-235.5 1185.5,-235.5"/>
<text text-anchor="start" x="1193.5" y="-253.5" font-family="Helvetica,sans-Serif" font-size="10.00">/travis/libpairinteraction</text>
<text text-anchor="middle" x="1269.5" y="-242.5" font-family="Helvetica,sans-Serif" font-size="10.00">/eigen/test/pardiso_support.cpp</text>
</g>
<!-- Node1 -->
<g id="node2" class="node"><title>Node1</title>
<g id="a_node2"><a xlink:href="sparse__solver_8h.html" target="_top" xlink:title="sparse_solver.h">
<polygon fill="none" stroke="black" points="1163,-179.5 1163,-198.5 1254,-198.5 1254,-179.5 1163,-179.5"/>
<text text-anchor="middle" x="1208.5" y="-186.5" font-family="Helvetica,sans-Serif" font-size="10.00">sparse_solver.h</text>
</a>
</g>
</g>
<!-- Node0&#45;&gt;Node1 -->
<g id="edge1" class="edge"><title>Node0&#45;&gt;Node1</title>
<path fill="none" stroke="midnightblue" d="M1255.04,-235.399C1245.91,-226.486 1234.08,-214.952 1224.64,-205.741"/>
<polygon fill="midnightblue" stroke="midnightblue" points="1226.98,-203.135 1217.38,-198.658 1222.09,-208.146 1226.98,-203.135"/>
</g>
<!-- Node27 -->
<g id="node28" class="node"><title>Node27</title>
<polygon fill="none" stroke="#bfbfbf" points="1272,-179.5 1272,-198.5 1391,-198.5 1391,-179.5 1272,-179.5"/>
<text text-anchor="middle" x="1331.5" y="-186.5" font-family="Helvetica,sans-Serif" font-size="10.00">Eigen/PardisoSupport</text>
</g>
<!-- Node0&#45;&gt;Node27 -->
<g id="edge28" class="edge"><title>Node0&#45;&gt;Node27</title>
<path fill="none" stroke="midnightblue" d="M1284.19,-235.399C1293.48,-226.486 1305.5,-214.952 1315.1,-205.741"/>
<polygon fill="midnightblue" stroke="midnightblue" points="1317.69,-208.107 1322.48,-198.658 1312.84,-203.057 1317.69,-208.107"/>
</g>
<!-- Node2 -->
<g id="node3" class="node"><title>Node2</title>
<g id="a_node3"><a xlink:href="sparse_8h.html" target="_top" xlink:title="sparse.h">
<polygon fill="none" stroke="black" points="880.5,-123.5 880.5,-142.5 938.5,-142.5 938.5,-123.5 880.5,-123.5"/>
<text text-anchor="middle" x="909.5" y="-130.5" font-family="Helvetica,sans-Serif" font-size="10.00">sparse.h</text>
</a>
</g>
</g>
<!-- Node1&#45;&gt;Node2 -->
<g id="edge2" class="edge"><title>Node1&#45;&gt;Node2</title>
<path fill="none" stroke="midnightblue" d="M1162.76,-179.74C1104.21,-169.165 1003.75,-151.021 948.591,-141.06"/>
<polygon fill="midnightblue" stroke="midnightblue" points="948.977,-137.573 938.514,-139.24 947.733,-144.462 948.977,-137.573"/>
</g>
<!-- Node10 -->
<g id="node11" class="node"><title>Node10</title>
<polygon fill="none" stroke="#bfbfbf" points="1207.5,-0.5 1207.5,-19.5 1263.5,-19.5 1263.5,-0.5 1207.5,-0.5"/>
<text text-anchor="middle" x="1235.5" y="-7.5" font-family="Helvetica,sans-Serif" font-size="10.00">sstream</text>
</g>
<!-- Node1&#45;&gt;Node10 -->
<g id="edge27" class="edge"><title>Node1&#45;&gt;Node10</title>
<path fill="none" stroke="midnightblue" d="M1209.8,-179.463C1213.93,-152.428 1226.77,-68.2392 1232.59,-30.109"/>
<polygon fill="midnightblue" stroke="midnightblue" points="1236.1,-30.2818 1234.15,-19.8684 1229.18,-29.2262 1236.1,-30.2818"/>
</g>
<!-- Node26 -->
<g id="node27" class="node"><title>Node26</title>
<polygon fill="none" stroke="#bfbfbf" points="1236.5,-123.5 1236.5,-142.5 1338.5,-142.5 1338.5,-123.5 1236.5,-123.5"/>
<text text-anchor="middle" x="1287.5" y="-130.5" font-family="Helvetica,sans-Serif" font-size="10.00">Eigen/SparseCore</text>
</g>
<!-- Node1&#45;&gt;Node26 -->
<g id="edge26" class="edge"><title>Node1&#45;&gt;Node26</title>
<path fill="none" stroke="midnightblue" d="M1221.19,-179.324C1233.4,-170.979 1252.08,-158.212 1266.5,-148.352"/>
<polygon fill="midnightblue" stroke="midnightblue" points="1268.56,-151.187 1274.84,-142.655 1264.61,-145.408 1268.56,-151.187"/>
</g>
<!-- Node3 -->
<g id="node4" class="node"><title>Node3</title>
<g id="a_node4"><a xlink:href="main_8h.html" target="_top" xlink:title="main.h">
<polygon fill="none" stroke="black" points="609.5,-62 609.5,-81 659.5,-81 659.5,-62 609.5,-62"/>
<text text-anchor="middle" x="634.5" y="-69" font-family="Helvetica,sans-Serif" font-size="10.00">main.h</text>
</a>
</g>
</g>
<!-- Node2&#45;&gt;Node3 -->
<g id="edge3" class="edge"><title>Node2&#45;&gt;Node3</title>
<path fill="none" stroke="midnightblue" d="M880.331,-125.689C829.425,-114.675 724.569,-91.9876 669.708,-80.1178"/>
<polygon fill="midnightblue" stroke="midnightblue" points="670.266,-76.6575 659.752,-77.9636 668.786,-83.4992 670.266,-76.6575"/>
</g>
<!-- Node22 -->
<g id="node23" class="node"><title>Node22</title>
<polygon fill="none" stroke="#bfbfbf" points="730,-62 730,-81 819,-81 819,-62 730,-62"/>
<text text-anchor="middle" x="774.5" y="-69" font-family="Helvetica,sans-Serif" font-size="10.00">Eigen/Cholesky</text>
</g>
<!-- Node2&#45;&gt;Node22 -->
<g id="edge22" class="edge"><title>Node2&#45;&gt;Node22</title>
<path fill="none" stroke="midnightblue" d="M890.158,-123.475C867.401,-113.445 829.408,-96.7002 803.212,-85.1546"/>
<polygon fill="midnightblue" stroke="midnightblue" points="804.369,-81.8395 793.806,-81.0091 801.545,-88.2449 804.369,-81.8395"/>
</g>
<!-- Node23 -->
<g id="node24" class="node"><title>Node23</title>
<polygon fill="none" stroke="#bfbfbf" points="836.5,-62 836.5,-81 894.5,-81 894.5,-62 836.5,-62"/>
<text text-anchor="middle" x="865.5" y="-69" font-family="Helvetica,sans-Serif" font-size="10.00">Eigen/LU</text>
</g>
<!-- Node2&#45;&gt;Node23 -->
<g id="edge23" class="edge"><title>Node2&#45;&gt;Node23</title>
<path fill="none" stroke="midnightblue" d="M903.196,-123.475C896.596,-114.55 886.063,-100.307 877.807,-89.1425"/>
<polygon fill="midnightblue" stroke="midnightblue" points="880.552,-86.9684 871.792,-81.0091 874.924,-91.1305 880.552,-86.9684"/>
</g>
<!-- Node24 -->
<g id="node25" class="node"><title>Node24</title>
<polygon fill="none" stroke="#bfbfbf" points="912.5,-62 912.5,-81 992.5,-81 992.5,-62 912.5,-62"/>
<text text-anchor="middle" x="952.5" y="-69" font-family="Helvetica,sans-Serif" font-size="10.00">Eigen/Sparse</text>
</g>
<!-- Node2&#45;&gt;Node24 -->
<g id="edge24" class="edge"><title>Node2&#45;&gt;Node24</title>
<path fill="none" stroke="midnightblue" d="M915.661,-123.475C922.111,-114.55 932.404,-100.307 940.473,-89.1425"/>
<polygon fill="midnightblue" stroke="midnightblue" points="943.33,-91.1642 946.351,-81.0091 937.656,-87.064 943.33,-91.1642"/>
</g>
<!-- Node25 -->
<g id="node26" class="node"><title>Node25</title>
<polygon fill="none" stroke="#bfbfbf" points="1011,-56.5 1011,-86.5 1154,-86.5 1154,-56.5 1011,-56.5"/>
<text text-anchor="start" x="1019" y="-74.5" font-family="Helvetica,sans-Serif" font-size="10.00">unsupported/Eigen/Sparse</text>
<text text-anchor="middle" x="1082.5" y="-63.5" font-family="Helvetica,sans-Serif" font-size="10.00">Extra</text>
</g>
<!-- Node2&#45;&gt;Node25 -->
<g id="edge25" class="edge"><title>Node2&#45;&gt;Node25</title>
<path fill="none" stroke="midnightblue" d="M934.287,-123.475C959.688,-114.739 999.904,-100.907 1032.04,-89.855"/>
<polygon fill="midnightblue" stroke="midnightblue" points="1033.41,-93.0851 1041.73,-86.523 1031.13,-86.4656 1033.41,-93.0851"/>
</g>
<!-- Node4 -->
<g id="node5" class="node"><title>Node4</title>
<polygon fill="none" stroke="#bfbfbf" points="0,-0.5 0,-19.5 47,-19.5 47,-0.5 0,-0.5"/>
<text text-anchor="middle" x="23.5" y="-7.5" font-family="Helvetica,sans-Serif" font-size="10.00">cstdlib</text>
</g>
<!-- Node3&#45;&gt;Node4 -->
<g id="edge4" class="edge"><title>Node3&#45;&gt;Node4</title>
<path fill="none" stroke="midnightblue" d="M609.447,-69.9858C529.801,-68.0015 275.288,-58.9706 57.1799,-20.0022"/>
<polygon fill="midnightblue" stroke="midnightblue" points="57.6139,-16.5239 47.1499,-18.1841 56.3653,-23.4116 57.6139,-16.5239"/>
</g>
<!-- Node5 -->
<g id="node6" class="node"><title>Node5</title>
<polygon fill="none" stroke="#bfbfbf" points="65,-0.5 65,-19.5 112,-19.5 112,-0.5 65,-0.5"/>
<text text-anchor="middle" x="88.5" y="-7.5" font-family="Helvetica,sans-Serif" font-size="10.00">cerrno</text>
</g>
<!-- Node3&#45;&gt;Node5 -->
<g id="edge5" class="edge"><title>Node3&#45;&gt;Node5</title>
<path fill="none" stroke="midnightblue" d="M609.468,-69.5274C536.023,-66.3607 314.725,-54.5842 122.198,-19.806"/>
<polygon fill="midnightblue" stroke="midnightblue" points="122.65,-16.3306 112.183,-17.971 121.389,-23.216 122.65,-16.3306"/>
</g>
<!-- Node6 -->
<g id="node7" class="node"><title>Node6</title>
<polygon fill="none" stroke="#bfbfbf" points="130.5,-0.5 130.5,-19.5 174.5,-19.5 174.5,-0.5 130.5,-0.5"/>
<text text-anchor="middle" x="152.5" y="-7.5" font-family="Helvetica,sans-Serif" font-size="10.00">ctime</text>
</g>
<!-- Node3&#45;&gt;Node6 -->
<g id="edge6" class="edge"><title>Node3&#45;&gt;Node6</title>
<path fill="none" stroke="midnightblue" d="M609.334,-69.1952C541.891,-65.3802 351.458,-52.5197 184.676,-19.9217"/>
<polygon fill="midnightblue" stroke="midnightblue" points="185.228,-16.4632 174.738,-17.9501 183.866,-23.3293 185.228,-16.4632"/>
</g>
<!-- Node7 -->
<g id="node8" class="node"><title>Node7</title>
<polygon fill="none" stroke="#bfbfbf" points="193,-0.5 193,-19.5 252,-19.5 252,-0.5 193,-0.5"/>
<text text-anchor="middle" x="222.5" y="-7.5" font-family="Helvetica,sans-Serif" font-size="10.00">iostream</text>
</g>
<!-- Node3&#45;&gt;Node7 -->
<g id="edge7" class="edge"><title>Node3&#45;&gt;Node7</title>
<path fill="none" stroke="midnightblue" d="M609.493,-67.9209C550.767,-61.6933 399.313,-44.6403 262.494,-20.0255"/>
<polygon fill="midnightblue" stroke="midnightblue" points="262.717,-16.5086 252.252,-18.1634 261.464,-23.3957 262.717,-16.5086"/>
</g>
<!-- Node8 -->
<g id="node9" class="node"><title>Node8</title>
<polygon fill="none" stroke="#bfbfbf" points="270.5,-0.5 270.5,-19.5 324.5,-19.5 324.5,-0.5 270.5,-0.5"/>
<text text-anchor="middle" x="297.5" y="-7.5" font-family="Helvetica,sans-Serif" font-size="10.00">fstream</text>
</g>
<!-- Node3&#45;&gt;Node8 -->
<g id="edge8" class="edge"><title>Node3&#45;&gt;Node8</title>
<path fill="none" stroke="midnightblue" d="M609.402,-66.9723C559.166,-59.7659 442.516,-42.3031 334.649,-20.104"/>
<polygon fill="midnightblue" stroke="midnightblue" points="335.077,-16.6184 324.574,-18.0113 333.653,-23.4721 335.077,-16.6184"/>
</g>
<!-- Node9 -->
<g id="node10" class="node"><title>Node9</title>
<polygon fill="none" stroke="#bfbfbf" points="342.5,-0.5 342.5,-19.5 386.5,-19.5 386.5,-0.5 342.5,-0.5"/>
<text text-anchor="middle" x="364.5" y="-7.5" font-family="Helvetica,sans-Serif" font-size="10.00">string</text>
</g>
<!-- Node3&#45;&gt;Node9 -->
<g id="edge9" class="edge"><title>Node3&#45;&gt;Node9</title>
<path fill="none" stroke="midnightblue" d="M609.24,-65.8035C567.148,-57.8403 479.826,-40.738 396.654,-20.1497"/>
<polygon fill="midnightblue" stroke="midnightblue" points="397.347,-16.7154 386.797,-17.6881 395.651,-23.5068 397.347,-16.7154"/>
</g>
<!-- Node3&#45;&gt;Node10 -->
<g id="edge10" class="edge"><title>Node3&#45;&gt;Node10</title>
<path fill="none" stroke="midnightblue" d="M659.624,-65.6389C676.727,-62.484 699.909,-58.5076 720.5,-56 931.544,-30.2995 987.411,-52.5996 1197.5,-20 1197.6,-19.9844 1197.7,-19.9687 1197.8,-19.9528"/>
<polygon fill="midnightblue" stroke="midnightblue" points="1198.18,-23.4425 1207.38,-18.1812 1196.91,-16.5593 1198.18,-23.4425"/>
</g>
<!-- Node11 -->
<g id="node12" class="node"><title>Node11</title>
<polygon fill="none" stroke="#bfbfbf" points="405,-0.5 405,-19.5 452,-19.5 452,-0.5 405,-0.5"/>
<text text-anchor="middle" x="428.5" y="-7.5" font-family="Helvetica,sans-Serif" font-size="10.00">vector</text>
</g>
<!-- Node3&#45;&gt;Node11 -->
<g id="edge11" class="edge"><title>Node3&#45;&gt;Node11</title>
<path fill="none" stroke="midnightblue" d="M609.24,-63.2041C572.198,-52.505 503.084,-32.5425 461.89,-20.6443"/>
<polygon fill="midnightblue" stroke="midnightblue" points="462.634,-17.2161 452.056,-17.8037 460.692,-23.9412 462.634,-17.2161"/>
</g>
<!-- Node12 -->
<g id="node13" class="node"><title>Node12</title>
<polygon fill="none" stroke="#bfbfbf" points="470,-0.5 470,-19.5 525,-19.5 525,-0.5 470,-0.5"/>
<text text-anchor="middle" x="497.5" y="-7.5" font-family="Helvetica,sans-Serif" font-size="10.00">typeinfo</text>
</g>
<!-- Node3&#45;&gt;Node12 -->
<g id="edge12" class="edge"><title>Node3&#45;&gt;Node12</title>
<path fill="none" stroke="midnightblue" d="M614.871,-61.9751C591.676,-51.9013 552.881,-35.0525 526.287,-23.5023"/>
<polygon fill="midnightblue" stroke="midnightblue" points="527.659,-20.2824 517.092,-19.5091 524.87,-26.703 527.659,-20.2824"/>
</g>
<!-- Node13 -->
<g id="node14" class="node"><title>Node13</title>
<polygon fill="none" stroke="#bfbfbf" points="543.5,-0.5 543.5,-19.5 585.5,-19.5 585.5,-0.5 543.5,-0.5"/>
<text text-anchor="middle" x="564.5" y="-7.5" font-family="Helvetica,sans-Serif" font-size="10.00">limits</text>
</g>
<!-- Node3&#45;&gt;Node13 -->
<g id="edge13" class="edge"><title>Node3&#45;&gt;Node13</title>
<path fill="none" stroke="midnightblue" d="M624.471,-61.9751C613.451,-52.6082 595.54,-37.3839 582.157,-26.0081"/>
<polygon fill="midnightblue" stroke="midnightblue" points="584.397,-23.3188 574.511,-19.5091 579.863,-28.6524 584.397,-23.3188"/>
</g>
<!-- Node14 -->
<g id="node15" class="node"><title>Node14</title>
<polygon fill="none" stroke="#bfbfbf" points="603.5,-0.5 603.5,-19.5 665.5,-19.5 665.5,-0.5 603.5,-0.5"/>
<text text-anchor="middle" x="634.5" y="-7.5" font-family="Helvetica,sans-Serif" font-size="10.00">algorithm</text>
</g>
<!-- Node3&#45;&gt;Node14 -->
<g id="edge14" class="edge"><title>Node3&#45;&gt;Node14</title>
<path fill="none" stroke="midnightblue" d="M634.5,-61.9751C634.5,-53.5803 634.5,-40.4806 634.5,-29.6631"/>
<polygon fill="midnightblue" stroke="midnightblue" points="638,-29.5091 634.5,-19.5091 631,-29.5091 638,-29.5091"/>
</g>
<!-- Node15 -->
<g id="node16" class="node"><title>Node15</title>
<polygon fill="none" stroke="#bfbfbf" points="684,-0.5 684,-19.5 741,-19.5 741,-0.5 684,-0.5"/>
<text text-anchor="middle" x="712.5" y="-7.5" font-family="Helvetica,sans-Serif" font-size="10.00">complex</text>
</g>
<!-- Node3&#45;&gt;Node15 -->
<g id="edge15" class="edge"><title>Node3&#45;&gt;Node15</title>
<path fill="none" stroke="midnightblue" d="M645.675,-61.9751C658.071,-52.5199 678.29,-37.0961 693.246,-25.6871"/>
<polygon fill="midnightblue" stroke="midnightblue" points="695.517,-28.357 701.345,-19.5091 691.272,-22.7914 695.517,-28.357"/>
</g>
<!-- Node16 -->
<g id="node17" class="node"><title>Node16</title>
<polygon fill="none" stroke="#bfbfbf" points="759,-0.5 759,-19.5 806,-19.5 806,-0.5 759,-0.5"/>
<text text-anchor="middle" x="782.5" y="-7.5" font-family="Helvetica,sans-Serif" font-size="10.00">deque</text>
</g>
<!-- Node3&#45;&gt;Node16 -->
<g id="edge16" class="edge"><title>Node3&#45;&gt;Node16</title>
<path fill="none" stroke="midnightblue" d="M655.705,-61.9751C680.872,-51.8571 723.04,-34.9046 751.779,-23.3507"/>
<polygon fill="midnightblue" stroke="midnightblue" points="753.362,-26.4867 761.335,-19.5091 750.751,-19.9919 753.362,-26.4867"/>
</g>
<!-- Node17 -->
<g id="node18" class="node"><title>Node17</title>
<polygon fill="none" stroke="#bfbfbf" points="824,-0.5 824,-19.5 871,-19.5 871,-0.5 824,-0.5"/>
<text text-anchor="middle" x="847.5" y="-7.5" font-family="Helvetica,sans-Serif" font-size="10.00">queue</text>
</g>
<!-- Node3&#45;&gt;Node17 -->
<g id="edge17" class="edge"><title>Node3&#45;&gt;Node17</title>
<path fill="none" stroke="midnightblue" d="M659.77,-63.4409C698.232,-52.697 771.492,-32.2323 814.235,-20.2923"/>
<polygon fill="midnightblue" stroke="midnightblue" points="815.203,-23.6559 823.893,-17.5944 813.32,-16.914 815.203,-23.6559"/>
</g>
<!-- Node18 -->
<g id="node19" class="node"><title>Node18</title>
<polygon fill="none" stroke="#bfbfbf" points="889.5,-0.5 889.5,-19.5 941.5,-19.5 941.5,-0.5 889.5,-0.5"/>
<text text-anchor="middle" x="915.5" y="-7.5" font-family="Helvetica,sans-Serif" font-size="10.00">cassert</text>
</g>
<!-- Node3&#45;&gt;Node18 -->
<g id="edge18" class="edge"><title>Node3&#45;&gt;Node18</title>
<path fill="none" stroke="midnightblue" d="M659.616,-65.6821C702.421,-57.3939 792.462,-39.6264 879.176,-19.9915"/>
<polygon fill="midnightblue" stroke="midnightblue" points="880.211,-23.3456 889.184,-17.7134 878.657,-16.5202 880.211,-23.3456"/>
</g>
<!-- Node19 -->
<g id="node20" class="node"><title>Node19</title>
<polygon fill="none" stroke="#bfbfbf" points="959.5,-0.5 959.5,-19.5 989.5,-19.5 989.5,-0.5 959.5,-0.5"/>
<text text-anchor="middle" x="974.5" y="-7.5" font-family="Helvetica,sans-Serif" font-size="10.00">list</text>
</g>
<!-- Node3&#45;&gt;Node19 -->
<g id="edge19" class="edge"><title>Node3&#45;&gt;Node19</title>
<path fill="none" stroke="midnightblue" d="M659.7,-66.1709C676.835,-63.247 700.025,-59.3283 720.5,-56 819.535,-39.9012 848.68,-45.9045 949.736,-19.7345"/>
<polygon fill="midnightblue" stroke="midnightblue" points="950.635,-23.1172 959.415,-17.1878 948.854,-16.3476 950.635,-23.1172"/>
</g>
<!-- Node20 -->
<g id="node21" class="node"><title>Node20</title>
<polygon fill="none" stroke="#bfbfbf" points="1007.5,-0.5 1007.5,-19.5 1111.5,-19.5 1111.5,-0.5 1007.5,-0.5"/>
<text text-anchor="middle" x="1059.5" y="-7.5" font-family="Helvetica,sans-Serif" font-size="10.00">split_test_helper.h</text>
</g>
<!-- Node3&#45;&gt;Node20 -->
<g id="edge20" class="edge"><title>Node3&#45;&gt;Node20</title>
<path fill="none" stroke="midnightblue" d="M659.672,-65.995C676.796,-62.9947 699.983,-59.0569 720.5,-56 840.478,-38.1239 873.373,-37.1343 997.017,-20.1819"/>
<polygon fill="midnightblue" stroke="midnightblue" points="997.837,-23.602 1007.27,-18.7688 996.881,-16.6676 997.837,-23.602"/>
</g>
<!-- Node21 -->
<g id="node22" class="node"><title>Node21</title>
<polygon fill="none" stroke="#bfbfbf" points="1130,-0.5 1130,-19.5 1189,-19.5 1189,-0.5 1130,-0.5"/>
<text text-anchor="middle" x="1159.5" y="-7.5" font-family="Helvetica,sans-Serif" font-size="10.00">Eigen/QR</text>
</g>
<!-- Node3&#45;&gt;Node21 -->
<g id="edge21" class="edge"><title>Node3&#45;&gt;Node21</title>
<path fill="none" stroke="midnightblue" d="M659.636,-65.7352C676.744,-62.622 699.927,-58.6561 720.5,-56 894.329,-33.5576 942.505,-47.6051 1119.85,-19.8758"/>
<polygon fill="midnightblue" stroke="midnightblue" points="1120.44,-23.3255 1129.77,-18.3023 1119.35,-16.4119 1120.44,-23.3255"/>
</g>
</g>
</svg>
        <g id="navigator" transform="translate(0 0)" fill="#404254">
                <rect fill="#f2f5e9" fill-opacity="0.5" stroke="#606060" stroke-width=".5" x="0" y="0" width="60" height="60"/>
                <use id="zoomplus" xlink:href="#zoomPlus" x="17" y="9" onmousedown="handleZoom(evt,'in')"/>
                <use id="zoomminus" xlink:href="#zoomMin" x="42" y="9" onmousedown="handleZoom(evt,'out')"/>
                <use id="reset" xlink:href="#resetDef" x="30" y="36" onmousedown="handleReset()"/>
                <g id="arrowUp" xlink:href="#dirArrow" transform="translate(30 24)" onmousedown="handlePan(0,-1)">
                  <use xlink:href="#rim" fill="#404040">
                        <set attributeName="fill" to="#808080" begin="arrowUp.mouseover" end="arrowUp.mouseout"/>
                  </use>
                  <path fill="none" stroke="white" stroke-width="1.5" d="M0,-3.0v7 M-2.5,-0.5L0,-3.0L2.5,-0.5"/>
                </g>
                <g id="arrowRight" xlink:href="#dirArrow" transform="rotate(90) translate(36 -43)" onmousedown="handlePan(1,0)">
                  <use xlink:href="#rim" fill="#404040">
                        <set attributeName="fill" to="#808080" begin="arrowRight.mouseover" end="arrowRight.mouseout"/>
                  </use>
                  <path fill="none" stroke="white" stroke-width="1.5" d="M0,-3.0v7 M-2.5,-0.5L0,-3.0L2.5,-0.5"/>
                </g>
                <g id="arrowDown" xlink:href="#dirArrow" transform="rotate(180) translate(-30 -48)" onmousedown="handlePan(0,1)">
                  <use xlink:href="#rim" fill="#404040">
                        <set attributeName="fill" to="#808080" begin="arrowDown.mouseover" end="arrowDown.mouseout"/>
                  </use>
                  <path fill="none" stroke="white" stroke-width="1.5" d="M0,-3.0v7 M-2.5,-0.5L0,-3.0L2.5,-0.5"/>
                </g>
                <g id="arrowLeft" xlink:href="#dirArrow" transform="rotate(270) translate(-36 17)" onmousedown="handlePan(-1,0)">
                  <use xlink:href="#rim" fill="#404040">
                        <set attributeName="fill" to="#808080" begin="arrowLeft.mouseover" end="arrowLeft.mouseout"/>
                  </use>
                  <path fill="none" stroke="white" stroke-width="1.5" d="M0,-3.0v7 M-2.5,-0.5L0,-3.0L2.5,-0.5"/>
                </g>
        </g>
        <svg viewBox="0 0 15 15" width="100%" height="30px" preserveAspectRatio="xMaxYMin meet">
         <g id="arrow_out" transform="scale(0.3 0.3)">
          <a xlink:href="pardiso__support_8cpp__incl_org.svg" target="_base">
           <rect id="button" ry="5" rx="5" y="6" x="6" height="38" width="38"
                fill="#f2f5e9" fill-opacity="0.5" stroke="#606060" stroke-width="1.0"/>
           <path id="arrow"
             d="M 11.500037,31.436501 C 11.940474,20.09759 22.043105,11.32322 32.158766,21.979434 L 37.068811,17.246167 C 37.068811,17.246167 37.088388,32 37.088388,32 L 22.160133,31.978069 C 22.160133,31.978069 26.997745,27.140456 26.997745,27.140456 C 18.528582,18.264221 13.291696,25.230495 11.500037,31.436501 z"
             style="fill:#404040;"/>
          </a>
         </g>
        </svg>
</svg>
