<?xml version="1.0" encoding="UTF-8" standalone="no"?>
<!DOCTYPE svg PUBLIC "-//W3C//DTD SVG 1.1//EN"
 "http://www.w3.org/Graphics/SVG/1.1/DTD/svg11.dtd">
<!-- Generated by graphviz version 2.38.0 (20140413.2041)
 -->
<!-- Title: test_pardiso_support Pages: 1 -->
<svg width="427pt" height="78pt"
 viewBox="0.00 0.00 427.00 77.50" xmlns="http://www.w3.org/2000/svg" xmlns:xlink="http://www.w3.org/1999/xlink">
<g id="graph0" class="graph" transform="scale(1 1) rotate(0) translate(4 73.5)">
<title>test_pardiso_support</title>
<!-- Node0 -->
<g id="node1" class="node"><title>Node0</title>
<polygon fill="#bfbfbf" stroke="black" points="0,-28 0,-47 118,-47 118,-28 0,-28"/>
<text text-anchor="middle" x="59" y="-35" font-family="Helvetica,sans-Serif" font-size="10.00">test_pardiso_support</text>
</g>
<!-- Node1 -->
<g id="node2" class="node"><title>Node1</title>
<g id="a_node2"><a xlink:href="pardiso__support_8cpp.html#a75b580661d90e79c3c37bf803e323253" target="_top" xlink:title="test_pardiso_T">
<polygon fill="none" stroke="black" points="154,-28 154,-47 240,-47 240,-28 154,-28"/>
<text text-anchor="middle" x="197" y="-35" font-family="Helvetica,sans-Serif" font-size="10.00">test_pardiso_T</text>
</a>
</g>
</g>
<!-- Node0&#45;&gt;Node1 -->
<g id="edge1" class="edge"><title>Node0&#45;&gt;Node1</title>
<path fill="none" stroke="midnightblue" d="M118.071,-37.5C126.591,-37.5 135.324,-37.5 143.718,-37.5"/>
<polygon fill="midnightblue" stroke="midnightblue" points="143.754,-41.0001 153.753,-37.5 143.753,-34.0001 143.754,-41.0001"/>
</g>
<!-- Node2 -->
<g id="node3" class="node"><title>Node2</title>
<g id="a_node3"><a xlink:href="sparse__solver_8h.html#a252bcfc3086db37e21b69ed1d125a107" target="_top" xlink:title="check_sparse_spd_solving">
<polygon fill="none" stroke="black" points="276,-50 276,-69 419,-69 419,-50 276,-50"/>
<text text-anchor="middle" x="347.5" y="-57" font-family="Helvetica,sans-Serif" font-size="10.00">check_sparse_spd_solving</text>
</a>
</g>
</g>
<!-- Node1&#45;&gt;Node2 -->
<g id="edge2" class="edge"><title>Node1&#45;&gt;Node2</title>
<path fill="none" stroke="midnightblue" d="M240.157,-43.7455C250.202,-45.2336 261.216,-46.8654 272.232,-48.4973"/>
<polygon fill="midnightblue" stroke="midnightblue" points="271.915,-51.9886 282.32,-49.9919 272.941,-45.0641 271.915,-51.9886"/>
</g>
<!-- Node3 -->
<g id="node4" class="node"><title>Node3</title>
<g id="a_node4"><a xlink:href="sparse__solver_8h.html#a12301f6419eb573c0fca674bc589b4f6" target="_top" xlink:title="check_sparse_square\l_solving">
<polygon fill="none" stroke="black" points="287.5,-0.5 287.5,-30.5 407.5,-30.5 407.5,-0.5 287.5,-0.5"/>
<text text-anchor="start" x="295.5" y="-18.5" font-family="Helvetica,sans-Serif" font-size="10.00">check_sparse_square</text>
<text text-anchor="middle" x="347.5" y="-7.5" font-family="Helvetica,sans-Serif" font-size="10.00">_solving</text>
</a>
</g>
</g>
<!-- Node1&#45;&gt;Node3 -->
<g id="edge3" class="edge"><title>Node1&#45;&gt;Node3</title>
<path fill="none" stroke="midnightblue" d="M240.157,-31.2545C251.727,-29.5405 264.584,-27.6357 277.247,-25.7597"/>
<polygon fill="midnightblue" stroke="midnightblue" points="277.953,-29.1934 287.332,-24.2656 276.927,-22.269 277.953,-29.1934"/>
</g>
</g>
</svg>
