<?xml version="1.0" encoding="UTF-8" standalone="no"?>
<!DOCTYPE svg PUBLIC "-//W3C//DTD SVG 1.1//EN"
 "http://www.w3.org/Graphics/SVG/1.1/DTD/svg11.dtd">
<!-- Generated by graphviz version 2.38.0 (20140413.2041)
 -->
<!-- Title: /travis/libpairinteraction/eigen/unsupported/test/polynomialutils.cpp Pages: 1 -->
<svg width="1270pt" height="162pt"
 viewBox="0.00 0.00 1270.00 162.00" xmlns="http://www.w3.org/2000/svg" xmlns:xlink="http://www.w3.org/1999/xlink">
<g id="graph0" class="graph" transform="scale(1 1) rotate(0) translate(4 158)">
<title>/travis/libpairinteraction/eigen/unsupported/test/polynomialutils.cpp</title>
<!-- Node0 -->
<g id="node1" class="node"><title>Node0</title>
<polygon fill="#bfbfbf" stroke="black" points="505,-112.5 505,-153.5 636,-153.5 636,-112.5 505,-112.5"/>
<text text-anchor="start" x="513" y="-141.5" font-family="Helvetica,sans-Serif" font-size="10.00">/travis/libpairinteraction</text>
<text text-anchor="start" x="513" y="-130.5" font-family="Helvetica,sans-Serif" font-size="10.00">/eigen/unsupported/test</text>
<text text-anchor="middle" x="570.5" y="-119.5" font-family="Helvetica,sans-Serif" font-size="10.00">/polynomialutils.cpp</text>
</g>
<!-- Node1 -->
<g id="node2" class="node"><title>Node1</title>
<g id="a_node2"><a xlink:href="main_8h.html" target="_top" xlink:title="main.h">
<polygon fill="none" stroke="black" points="545.5,-56.5 545.5,-75.5 595.5,-75.5 595.5,-56.5 545.5,-56.5"/>
<text text-anchor="middle" x="570.5" y="-63.5" font-family="Helvetica,sans-Serif" font-size="10.00">main.h</text>
</a>
</g>
</g>
<!-- Node0&#45;&gt;Node1 -->
<g id="edge1" class="edge"><title>Node0&#45;&gt;Node1</title>
<path fill="none" stroke="midnightblue" d="M570.5,-112.498C570.5,-104.065 570.5,-94.2351 570.5,-85.874"/>
<polygon fill="midnightblue" stroke="midnightblue" points="574,-85.6525 570.5,-75.6525 567,-85.6525 574,-85.6525"/>
</g>
<!-- Node5 -->
<g id="node6" class="node"><title>Node5</title>
<polygon fill="none" stroke="#bfbfbf" points="0,-0.5 0,-19.5 59,-19.5 59,-0.5 0,-0.5"/>
<text text-anchor="middle" x="29.5" y="-7.5" font-family="Helvetica,sans-Serif" font-size="10.00">iostream</text>
</g>
<!-- Node0&#45;&gt;Node5 -->
<g id="edge21" class="edge"><title>Node0&#45;&gt;Node5</title>
<path fill="none" stroke="midnightblue" d="M504.924,-117.694C410.82,-97.0984 231.765,-57.667 69.5291,-20.4473"/>
<polygon fill="midnightblue" stroke="midnightblue" points="69.8916,-16.9395 59.3619,-18.1126 68.3249,-23.762 69.8916,-16.9395"/>
</g>
<!-- Node20 -->
<g id="node21" class="node"><title>Node20</title>
<polygon fill="none" stroke="#bfbfbf" points="613,-56.5 613,-75.5 780,-75.5 780,-56.5 613,-56.5"/>
<text text-anchor="middle" x="696.5" y="-63.5" font-family="Helvetica,sans-Serif" font-size="10.00">unsupported/Eigen/Polynomials</text>
</g>
<!-- Node0&#45;&gt;Node20 -->
<g id="edge20" class="edge"><title>Node0&#45;&gt;Node20</title>
<path fill="none" stroke="midnightblue" d="M608.304,-112.498C628.365,-102.149 652.507,-89.6946 670.458,-80.4346"/>
<polygon fill="midnightblue" stroke="midnightblue" points="672.445,-83.3477 679.727,-75.6525 669.236,-77.1267 672.445,-83.3477"/>
</g>
<!-- Node2 -->
<g id="node3" class="node"><title>Node2</title>
<polygon fill="none" stroke="#bfbfbf" points="77,-0.5 77,-19.5 124,-19.5 124,-0.5 77,-0.5"/>
<text text-anchor="middle" x="100.5" y="-7.5" font-family="Helvetica,sans-Serif" font-size="10.00">cstdlib</text>
</g>
<!-- Node1&#45;&gt;Node2 -->
<g id="edge2" class="edge"><title>Node1&#45;&gt;Node2</title>
<path fill="none" stroke="midnightblue" d="M545.169,-63.8429C479.099,-60.5193 296.042,-49.354 134.315,-19.8363"/>
<polygon fill="midnightblue" stroke="midnightblue" points="134.656,-16.34 124.186,-17.958 133.38,-23.2227 134.656,-16.34"/>
</g>
<!-- Node3 -->
<g id="node4" class="node"><title>Node3</title>
<polygon fill="none" stroke="#bfbfbf" points="142,-0.5 142,-19.5 189,-19.5 189,-0.5 142,-0.5"/>
<text text-anchor="middle" x="165.5" y="-7.5" font-family="Helvetica,sans-Serif" font-size="10.00">cerrno</text>
</g>
<!-- Node1&#45;&gt;Node3 -->
<g id="edge3" class="edge"><title>Node1&#45;&gt;Node3</title>
<path fill="none" stroke="midnightblue" d="M545.489,-63.2414C486.767,-58.8449 335.414,-45.9586 199.378,-19.8887"/>
<polygon fill="midnightblue" stroke="midnightblue" points="199.68,-16.3819 189.195,-17.9067 198.342,-23.2529 199.68,-16.3819"/>
</g>
<!-- Node4 -->
<g id="node5" class="node"><title>Node4</title>
<polygon fill="none" stroke="#bfbfbf" points="207.5,-0.5 207.5,-19.5 251.5,-19.5 251.5,-0.5 207.5,-0.5"/>
<text text-anchor="middle" x="229.5" y="-7.5" font-family="Helvetica,sans-Serif" font-size="10.00">ctime</text>
</g>
<!-- Node1&#45;&gt;Node4 -->
<g id="edge4" class="edge"><title>Node1&#45;&gt;Node4</title>
<path fill="none" stroke="midnightblue" d="M545.377,-62.5459C493.892,-57.2637 372.592,-43.522 261.761,-20.0164"/>
<polygon fill="midnightblue" stroke="midnightblue" points="262.27,-16.5457 251.757,-17.8614 260.795,-23.3887 262.27,-16.5457"/>
</g>
<!-- Node1&#45;&gt;Node5 -->
<g id="edge5" class="edge"><title>Node1&#45;&gt;Node5</title>
<path fill="none" stroke="midnightblue" d="M545.482,-64.0315C473.111,-60.9629 257.228,-49.9279 69.3468,-20.1008"/>
<polygon fill="midnightblue" stroke="midnightblue" points="69.7188,-16.6157 59.2896,-18.4816 68.6061,-23.5267 69.7188,-16.6157"/>
</g>
<!-- Node6 -->
<g id="node7" class="node"><title>Node6</title>
<polygon fill="none" stroke="#bfbfbf" points="269.5,-0.5 269.5,-19.5 323.5,-19.5 323.5,-0.5 269.5,-0.5"/>
<text text-anchor="middle" x="296.5" y="-7.5" font-family="Helvetica,sans-Serif" font-size="10.00">fstream</text>
</g>
<!-- Node1&#45;&gt;Node6 -->
<g id="edge6" class="edge"><title>Node1&#45;&gt;Node6</title>
<path fill="none" stroke="midnightblue" d="M545.389,-60.7469C503.536,-53.552 416.67,-38.1689 333.452,-20.1084"/>
<polygon fill="midnightblue" stroke="midnightblue" points="334.104,-16.6684 323.587,-17.9509 332.608,-23.5068 334.104,-16.6684"/>
</g>
<!-- Node7 -->
<g id="node8" class="node"><title>Node7</title>
<polygon fill="none" stroke="#bfbfbf" points="341.5,-0.5 341.5,-19.5 385.5,-19.5 385.5,-0.5 341.5,-0.5"/>
<text text-anchor="middle" x="363.5" y="-7.5" font-family="Helvetica,sans-Serif" font-size="10.00">string</text>
</g>
<!-- Node1&#45;&gt;Node7 -->
<g id="edge7" class="edge"><title>Node1&#45;&gt;Node7</title>
<path fill="none" stroke="midnightblue" d="M545.368,-58.8447C512.96,-50.849 454.625,-36.2598 395.674,-20.2596"/>
<polygon fill="midnightblue" stroke="midnightblue" points="396.395,-16.8286 385.827,-17.5751 394.554,-23.5822 396.395,-16.8286"/>
</g>
<!-- Node8 -->
<g id="node9" class="node"><title>Node8</title>
<polygon fill="none" stroke="#bfbfbf" points="403.5,-0.5 403.5,-19.5 459.5,-19.5 459.5,-0.5 403.5,-0.5"/>
<text text-anchor="middle" x="431.5" y="-7.5" font-family="Helvetica,sans-Serif" font-size="10.00">sstream</text>
</g>
<!-- Node1&#45;&gt;Node8 -->
<g id="edge8" class="edge"><title>Node1&#45;&gt;Node8</title>
<path fill="none" stroke="midnightblue" d="M548.475,-56.4435C525.396,-47.4776 488.938,-33.314 462.859,-23.1827"/>
<polygon fill="midnightblue" stroke="midnightblue" points="464.011,-19.8753 453.422,-19.5164 461.476,-26.4002 464.011,-19.8753"/>
</g>
<!-- Node9 -->
<g id="node10" class="node"><title>Node9</title>
<polygon fill="none" stroke="#bfbfbf" points="478,-0.5 478,-19.5 525,-19.5 525,-0.5 478,-0.5"/>
<text text-anchor="middle" x="501.5" y="-7.5" font-family="Helvetica,sans-Serif" font-size="10.00">vector</text>
</g>
<!-- Node1&#45;&gt;Node9 -->
<g id="edge9" class="edge"><title>Node1&#45;&gt;Node9</title>
<path fill="none" stroke="midnightblue" d="M559.414,-56.324C549.014,-48.1849 533.239,-35.8395 520.778,-26.0874"/>
<polygon fill="midnightblue" stroke="midnightblue" points="522.82,-23.2407 512.788,-19.8339 518.506,-28.7533 522.82,-23.2407"/>
</g>
<!-- Node10 -->
<g id="node11" class="node"><title>Node10</title>
<polygon fill="none" stroke="#bfbfbf" points="543,-0.5 543,-19.5 598,-19.5 598,-0.5 543,-0.5"/>
<text text-anchor="middle" x="570.5" y="-7.5" font-family="Helvetica,sans-Serif" font-size="10.00">typeinfo</text>
</g>
<!-- Node1&#45;&gt;Node10 -->
<g id="edge10" class="edge"><title>Node1&#45;&gt;Node10</title>
<path fill="none" stroke="midnightblue" d="M570.5,-56.083C570.5,-49.0059 570.5,-38.8611 570.5,-29.9865"/>
<polygon fill="midnightblue" stroke="midnightblue" points="574,-29.751 570.5,-19.7511 567,-29.7511 574,-29.751"/>
</g>
<!-- Node11 -->
<g id="node12" class="node"><title>Node11</title>
<polygon fill="none" stroke="#bfbfbf" points="616.5,-0.5 616.5,-19.5 658.5,-19.5 658.5,-0.5 616.5,-0.5"/>
<text text-anchor="middle" x="637.5" y="-7.5" font-family="Helvetica,sans-Serif" font-size="10.00">limits</text>
</g>
<!-- Node1&#45;&gt;Node11 -->
<g id="edge11" class="edge"><title>Node1&#45;&gt;Node11</title>
<path fill="none" stroke="midnightblue" d="M581.265,-56.324C591.266,-48.2631 606.387,-36.0765 618.43,-26.3695"/>
<polygon fill="midnightblue" stroke="midnightblue" points="620.95,-28.8343 626.539,-19.8339 616.557,-23.3841 620.95,-28.8343"/>
</g>
<!-- Node12 -->
<g id="node13" class="node"><title>Node12</title>
<polygon fill="none" stroke="#bfbfbf" points="676.5,-0.5 676.5,-19.5 738.5,-19.5 738.5,-0.5 676.5,-0.5"/>
<text text-anchor="middle" x="707.5" y="-7.5" font-family="Helvetica,sans-Serif" font-size="10.00">algorithm</text>
</g>
<!-- Node1&#45;&gt;Node12 -->
<g id="edge12" class="edge"><title>Node1&#45;&gt;Node12</title>
<path fill="none" stroke="midnightblue" d="M592.208,-56.4435C614.855,-47.5171 650.572,-33.4387 676.252,-23.3168"/>
<polygon fill="midnightblue" stroke="midnightblue" points="677.874,-26.4397 685.894,-19.5164 675.307,-19.9273 677.874,-26.4397"/>
</g>
<!-- Node13 -->
<g id="node14" class="node"><title>Node13</title>
<polygon fill="none" stroke="#bfbfbf" points="757,-0.5 757,-19.5 814,-19.5 814,-0.5 757,-0.5"/>
<text text-anchor="middle" x="785.5" y="-7.5" font-family="Helvetica,sans-Serif" font-size="10.00">complex</text>
</g>
<!-- Node1&#45;&gt;Node13 -->
<g id="edge13" class="edge"><title>Node1&#45;&gt;Node13</title>
<path fill="none" stroke="midnightblue" d="M595.74,-58.2735C598.691,-57.5004 601.661,-56.7286 604.5,-56 653.666,-43.3816 710.489,-29.3432 747.155,-20.3554"/>
<polygon fill="midnightblue" stroke="midnightblue" points="748.058,-23.7377 756.939,-17.9597 746.393,-16.9385 748.058,-23.7377"/>
</g>
<!-- Node14 -->
<g id="node15" class="node"><title>Node14</title>
<polygon fill="none" stroke="#bfbfbf" points="832,-0.5 832,-19.5 879,-19.5 879,-0.5 832,-0.5"/>
<text text-anchor="middle" x="855.5" y="-7.5" font-family="Helvetica,sans-Serif" font-size="10.00">deque</text>
</g>
<!-- Node1&#45;&gt;Node14 -->
<g id="edge14" class="edge"><title>Node1&#45;&gt;Node14</title>
<path fill="none" stroke="midnightblue" d="M595.686,-58.0454C598.647,-57.3132 601.634,-56.6134 604.5,-56 697.847,-36.021 725.442,-41.0252 821.935,-20.153"/>
<polygon fill="midnightblue" stroke="midnightblue" points="822.795,-23.5477 831.809,-17.98 821.29,-16.7113 822.795,-23.5477"/>
</g>
<!-- Node15 -->
<g id="node16" class="node"><title>Node15</title>
<polygon fill="none" stroke="#bfbfbf" points="897,-0.5 897,-19.5 944,-19.5 944,-0.5 897,-0.5"/>
<text text-anchor="middle" x="920.5" y="-7.5" font-family="Helvetica,sans-Serif" font-size="10.00">queue</text>
</g>
<!-- Node1&#45;&gt;Node15 -->
<g id="edge15" class="edge"><title>Node1&#45;&gt;Node15</title>
<path fill="none" stroke="midnightblue" d="M595.665,-57.9407C598.63,-57.2273 601.623,-56.5605 604.5,-56 726.213,-32.2854 762.001,-44.6256 886.885,-20.0741"/>
<polygon fill="midnightblue" stroke="midnightblue" points="887.714,-23.4776 896.83,-18.0788 886.337,-16.6144 887.714,-23.4776"/>
</g>
<!-- Node16 -->
<g id="node17" class="node"><title>Node16</title>
<polygon fill="none" stroke="#bfbfbf" points="962.5,-0.5 962.5,-19.5 1014.5,-19.5 1014.5,-0.5 962.5,-0.5"/>
<text text-anchor="middle" x="988.5" y="-7.5" font-family="Helvetica,sans-Serif" font-size="10.00">cassert</text>
</g>
<!-- Node1&#45;&gt;Node16 -->
<g id="edge16" class="edge"><title>Node1&#45;&gt;Node16</title>
<path fill="none" stroke="midnightblue" d="M595.652,-57.8742C598.62,-57.1727 601.617,-56.527 604.5,-56 754.597,-28.5659 798.148,-46.676 951.928,-20.0265"/>
<polygon fill="midnightblue" stroke="midnightblue" points="952.982,-23.3944 962.219,-18.2054 951.762,-16.5015 952.982,-23.3944"/>
</g>
<!-- Node17 -->
<g id="node18" class="node"><title>Node17</title>
<polygon fill="none" stroke="#bfbfbf" points="1032.5,-0.5 1032.5,-19.5 1062.5,-19.5 1062.5,-0.5 1032.5,-0.5"/>
<text text-anchor="middle" x="1047.5" y="-7.5" font-family="Helvetica,sans-Serif" font-size="10.00">list</text>
</g>
<!-- Node1&#45;&gt;Node17 -->
<g id="edge17" class="edge"><title>Node1&#45;&gt;Node17</title>
<path fill="none" stroke="midnightblue" d="M595.644,-57.8254C598.612,-57.1327 601.612,-56.5023 604.5,-56 785.406,-24.529 839.3,-59.9098 1022.5,-19.591"/>
<polygon fill="midnightblue" stroke="midnightblue" points="1023.47,-22.9604 1032.46,-17.3532 1021.93,-16.1307 1023.47,-22.9604"/>
</g>
<!-- Node18 -->
<g id="node19" class="node"><title>Node18</title>
<polygon fill="none" stroke="#bfbfbf" points="1080.5,-0.5 1080.5,-19.5 1184.5,-19.5 1184.5,-0.5 1080.5,-0.5"/>
<text text-anchor="middle" x="1132.5" y="-7.5" font-family="Helvetica,sans-Serif" font-size="10.00">split_test_helper.h</text>
</g>
<!-- Node1&#45;&gt;Node18 -->
<g id="edge18" class="edge"><title>Node1&#45;&gt;Node18</title>
<path fill="none" stroke="midnightblue" d="M595.639,-57.8003C598.609,-57.1121 601.61,-56.4897 604.5,-56 806.539,-21.765 862.874,-42.5333 1070.3,-20.051"/>
<polygon fill="midnightblue" stroke="midnightblue" points="1070.73,-23.5241 1080.29,-18.9473 1069.96,-16.5664 1070.73,-23.5241"/>
</g>
<!-- Node19 -->
<g id="node20" class="node"><title>Node19</title>
<polygon fill="none" stroke="#bfbfbf" points="1203,-0.5 1203,-19.5 1262,-19.5 1262,-0.5 1203,-0.5"/>
<text text-anchor="middle" x="1232.5" y="-7.5" font-family="Helvetica,sans-Serif" font-size="10.00">Eigen/QR</text>
</g>
<!-- Node1&#45;&gt;Node19 -->
<g id="edge19" class="edge"><title>Node1&#45;&gt;Node19</title>
<path fill="none" stroke="midnightblue" d="M595.632,-57.7548C598.603,-57.0748 601.606,-56.4667 604.5,-56 860.133,-14.7702 932.124,-56.528 1192.64,-19.8459"/>
<polygon fill="midnightblue" stroke="midnightblue" points="1193.38,-23.2754 1202.79,-18.3916 1192.39,-16.3462 1193.38,-23.2754"/>
</g>
</g>
</svg>
