<?xml version="1.0" encoding="UTF-8" standalone="no"?>
<!DOCTYPE svg PUBLIC "-//W3C//DTD SVG 1.1//EN"
 "http://www.w3.org/Graphics/SVG/1.1/DTD/svg11.dtd">
<!-- Generated by graphviz version 2.38.0 (20140413.2041)
 -->
<!-- Title: areNotApprox Pages: 1 -->
<!--zoomable 217 -->
<svg id="main" version="1.1" xmlns="http://www.w3.org/2000/svg" xmlns:xlink="http://www.w3.org/1999/xlink" xml:space="preserve" onload="init(evt)">
<style type="text/css"><![CDATA[
.edge:hover path { stroke: red; }
.edge:hover polygon { stroke: red; fill: red; }
]]></style>
<script type="text/javascript"><![CDATA[
var edges = document.getElementsByTagName('g');
if (edges && edges.length) {
  for (var i=0;i<edges.length;i++) {
    if (edges[i].id.substr(0,4)=='edge') {
      edges[i].setAttribute('class','edge');
    }
  }
}
]]></script>
        <defs>
                <circle id="rim" cx="0" cy="0" r="7"/>
                <circle id="rim2" cx="0" cy="0" r="3.5"/>
                <g id="zoomPlus">
                        <use xlink:href="#rim" fill="#404040">
                                <set attributeName="fill" to="#808080" begin="zoomplus.mouseover" end="zoomplus.mouseout"/>
                        </use>
                        <path d="M-4,0h8M0,-4v8" fill="none" stroke="white" stroke-width="1.5" pointer-events="none"/>
                </g>
                <g id="zoomMin">
                        <use xlink:href="#rim" fill="#404040">
                                <set attributeName="fill" to="#808080" begin="zoomminus.mouseover" end="zoomminus.mouseout"/>
                        </use>
                        <path d="M-4,0h8" fill="none" stroke="white" stroke-width="1.5" pointer-events="none"/>
                </g>
                <g id="dirArrow">
                        <path fill="none" stroke="white" stroke-width="1.5" d="M0,-3.0v7 M-2.5,-0.5L0,-3.0L2.5,-0.5"/>
                </g>
               <g id="resetDef">
                       <use xlink:href="#rim2" fill="#404040">
                               <set attributeName="fill" to="#808080" begin="reset.mouseover" end="reset.mouseout"/>
                       </use>
               </g>
        </defs>

<script type="text/javascript">
var viewWidth = 611;
var viewHeight = 217;
var sectionId = 'dynsection-2';
</script>
<script xlink:href="svgpan.js"/>
<svg id="graph" class="graph">
<g id="viewport">
<title>areNotApprox</title>
<!-- Node0 -->
<g id="node1" class="node"><title>Node0</title>
<polygon fill="#bfbfbf" stroke="black" points="0,-44.5 0,-63.5 83,-63.5 83,-44.5 0,-44.5"/>
<text text-anchor="middle" x="41.5" y="-51.5" font-family="Helvetica,sans-Serif" font-size="10.00">areNotApprox</text>
</g>
<!-- Node1 -->
<g id="node2" class="node"><title>Node1</title>
<g id="a_node2"><a xlink:href="MatrixCwiseUnaryOps_8h.html#a426713f88e0c1c0d6626fbadced4e9d7" target="_top" xlink:title="cwiseAbs2">
<polygon fill="none" stroke="black" points="140,-88.5 140,-107.5 206,-107.5 206,-88.5 140,-88.5"/>
<text text-anchor="middle" x="173" y="-95.5" font-family="Helvetica,sans-Serif" font-size="10.00">cwiseAbs2</text>
</a>
</g>
</g>
<!-- Node0&#45;&gt;Node1 -->
<g id="edge1" class="edge"><title>Node0&#45;&gt;Node1</title>
<path fill="none" stroke="midnightblue" d="M70.5996,-63.5473C89.2665,-69.8898 113.993,-78.2911 134.355,-85.2096"/>
<polygon fill="midnightblue" stroke="midnightblue" points="133.361,-88.5681 143.955,-88.4713 135.613,-81.9402 133.361,-88.5681"/>
</g>
<!-- Node11 -->
<g id="node12" class="node"><title>Node11</title>
<g id="a_node12"><a xlink:href="classEigen_1_1MatrixBase.html#a60808fcf09547e14952957bbdf75d3c6" target="_top" xlink:title="Eigen::MatrixBase::\lcwiseAbs2">
<polygon fill="none" stroke="black" points="119,-39 119,-69 227,-69 227,-39 119,-39"/>
<text text-anchor="start" x="127" y="-57" font-family="Helvetica,sans-Serif" font-size="10.00">Eigen::MatrixBase::</text>
<text text-anchor="middle" x="173" y="-46" font-family="Helvetica,sans-Serif" font-size="10.00">cwiseAbs2</text>
</a>
</g>
</g>
<!-- Node0&#45;&gt;Node11 -->
<g id="edge11" class="edge"><title>Node0&#45;&gt;Node11</title>
<path fill="none" stroke="midnightblue" d="M83.1193,-54C91.223,-54 99.9152,-54 108.576,-54"/>
<polygon fill="midnightblue" stroke="midnightblue" points="108.691,-57.5001 118.691,-54 108.691,-50.5001 108.691,-57.5001"/>
</g>
<!-- Node12 -->
<g id="node13" class="node"><title>Node12</title>
<g id="a_node13"><a xlink:href="Tutorial__Map__using_8cpp.html#ab3a01b595d22393ace0d30d5fa299f76" target="_top" xlink:title="m2">
<polygon fill="none" stroke="black" points="157,-0.5 157,-19.5 189,-19.5 189,-0.5 157,-0.5"/>
<text text-anchor="middle" x="173" y="-7.5" font-family="Helvetica,sans-Serif" font-size="10.00">m2</text>
</a>
</g>
</g>
<!-- Node0&#45;&gt;Node12 -->
<g id="edge12" class="edge"><title>Node0&#45;&gt;Node12</title>
<path fill="none" stroke="midnightblue" d="M70.5996,-44.4527C93.4613,-36.685 125.412,-25.8291 147.303,-18.3911"/>
<polygon fill="midnightblue" stroke="midnightblue" points="148.529,-21.6713 156.871,-15.1402 146.277,-15.0434 148.529,-21.6713"/>
</g>
<!-- Node2 -->
<g id="node3" class="node"><title>Node2</title>
<g id="a_node3"><a xlink:href="MatrixCwiseUnaryOps_8h.html#a0e379b45253546d07dcea81d8588297e" target="_top" xlink:title="cwiseSqrt">
<polygon fill="none" stroke="black" points="264.5,-132.5 264.5,-151.5 326.5,-151.5 326.5,-132.5 264.5,-132.5"/>
<text text-anchor="middle" x="295.5" y="-139.5" font-family="Helvetica,sans-Serif" font-size="10.00">cwiseSqrt</text>
</a>
</g>
</g>
<!-- Node1&#45;&gt;Node2 -->
<g id="edge2" class="edge"><title>Node1&#45;&gt;Node2</title>
<path fill="none" stroke="midnightblue" d="M200.147,-107.547C217.358,-113.832 240.107,-122.138 258.954,-129.021"/>
<polygon fill="midnightblue" stroke="midnightblue" points="257.81,-132.329 268.404,-132.471 260.211,-125.754 257.81,-132.329"/>
</g>
<!-- Node7 -->
<g id="node8" class="node"><title>Node7</title>
<g id="a_node8"><a xlink:href="namespacempfr.html#ad838087b4c59a17f714c4da9984aea66" target="_top" xlink:title="mpfr::root">
<polygon fill="none" stroke="black" points="263,-88.5 263,-107.5 328,-107.5 328,-88.5 263,-88.5"/>
<text text-anchor="middle" x="295.5" y="-95.5" font-family="Helvetica,sans-Serif" font-size="10.00">mpfr::root</text>
</a>
</g>
</g>
<!-- Node1&#45;&gt;Node7 -->
<g id="edge7" class="edge"><title>Node1&#45;&gt;Node7</title>
<path fill="none" stroke="midnightblue" d="M206.292,-98C220.566,-98 237.53,-98 252.75,-98"/>
<polygon fill="midnightblue" stroke="midnightblue" points="252.953,-101.5 262.953,-98 252.953,-94.5001 252.953,-101.5"/>
</g>
<!-- Node10 -->
<g id="node11" class="node"><title>Node10</title>
<g id="a_node11"><a xlink:href="ArrayCwiseUnaryOps_8h.html#aa1e484838873e960b8c8ba7e066ba837" target="_top" xlink:title="square">
<polygon fill="none" stroke="black" points="270.5,-50.5 270.5,-69.5 320.5,-69.5 320.5,-50.5 270.5,-50.5"/>
<text text-anchor="middle" x="295.5" y="-57.5" font-family="Helvetica,sans-Serif" font-size="10.00">square</text>
</a>
</g>
</g>
<!-- Node1&#45;&gt;Node10 -->
<g id="edge10" class="edge"><title>Node1&#45;&gt;Node10</title>
<path fill="none" stroke="midnightblue" d="M204.407,-88.411C221.426,-83.0442 242.694,-76.3371 260.292,-70.7876"/>
<polygon fill="midnightblue" stroke="midnightblue" points="261.685,-74.0183 270.169,-67.6727 259.58,-67.3423 261.685,-74.0183"/>
</g>
<!-- Node3 -->
<g id="node4" class="node"><title>Node3</title>
<g id="a_node4"><a xlink:href="MatrixCwiseUnaryOps_8h.html#a92d50e5a414332785a7e6b6ff406198c" target="_top" xlink:title="cwiseSign">
<polygon fill="none" stroke="black" points="395.5,-170.5 395.5,-189.5 458.5,-189.5 458.5,-170.5 395.5,-170.5"/>
<text text-anchor="middle" x="427" y="-177.5" font-family="Helvetica,sans-Serif" font-size="10.00">cwiseSign</text>
</a>
</g>
</g>
<!-- Node2&#45;&gt;Node3 -->
<g id="edge3" class="edge"><title>Node2&#45;&gt;Node3</title>
<path fill="none" stroke="midnightblue" d="M326.535,-150.813C344.096,-155.967 366.494,-162.539 385.588,-168.142"/>
<polygon fill="midnightblue" stroke="midnightblue" points="384.647,-171.513 395.228,-170.97 386.618,-164.796 384.647,-171.513"/>
</g>
<!-- Node6 -->
<g id="node7" class="node"><title>Node6</title>
<g id="a_node7"><a xlink:href="ArrayCwiseUnaryOps_8h.html#a281eccb624a3ff6dacbe305828e43a82" target="_top" xlink:title="sign">
<polygon fill="none" stroke="black" points="409,-132.5 409,-151.5 445,-151.5 445,-132.5 409,-132.5"/>
<text text-anchor="middle" x="427" y="-139.5" font-family="Helvetica,sans-Serif" font-size="10.00">sign</text>
</a>
</g>
</g>
<!-- Node2&#45;&gt;Node6 -->
<g id="edge6" class="edge"><title>Node2&#45;&gt;Node6</title>
<path fill="none" stroke="midnightblue" d="M326.535,-142C348.296,-142 377.483,-142 398.607,-142"/>
<polygon fill="midnightblue" stroke="midnightblue" points="398.837,-145.5 408.837,-142 398.837,-138.5 398.837,-145.5"/>
</g>
<!-- Node4 -->
<g id="node5" class="node"><title>Node4</title>
<g id="a_node5"><a xlink:href="MatrixCwiseUnaryOps_8h.html#a71265e72c85a2d90d349543171b150cb" target="_top" xlink:title="cwiseInverse">
<polygon fill="none" stroke="black" points="526,-189.5 526,-208.5 603,-208.5 603,-189.5 526,-189.5"/>
<text text-anchor="middle" x="564.5" y="-196.5" font-family="Helvetica,sans-Serif" font-size="10.00">cwiseInverse</text>
</a>
</g>
</g>
<!-- Node3&#45;&gt;Node4 -->
<g id="edge4" class="edge"><title>Node3&#45;&gt;Node4</title>
<path fill="none" stroke="midnightblue" d="M458.747,-184.311C475.559,-186.669 496.755,-189.641 515.676,-192.294"/>
<polygon fill="midnightblue" stroke="midnightblue" points="515.229,-195.765 525.618,-193.688 516.201,-188.833 515.229,-195.765"/>
</g>
<!-- Node5 -->
<g id="node6" class="node"><title>Node5</title>
<g id="a_node6"><a xlink:href="ArrayCwiseUnaryOps_8h.html#ab3df1b08b9c073db2a7e61a9b06bb295" target="_top" xlink:title="inverse">
<polygon fill="none" stroke="black" points="539,-151.5 539,-170.5 590,-170.5 590,-151.5 539,-151.5"/>
<text text-anchor="middle" x="564.5" y="-158.5" font-family="Helvetica,sans-Serif" font-size="10.00">inverse</text>
</a>
</g>
</g>
<!-- Node3&#45;&gt;Node5 -->
<g id="edge5" class="edge"><title>Node3&#45;&gt;Node5</title>
<path fill="none" stroke="midnightblue" d="M458.747,-175.689C479.549,-172.772 507.064,-168.914 528.674,-165.883"/>
<polygon fill="midnightblue" stroke="midnightblue" points="529.336,-169.325 538.753,-164.47 528.364,-162.393 529.336,-169.325"/>
</g>
<!-- Node8 -->
<g id="node9" class="node"><title>Node8</title>
<g id="a_node9"><a xlink:href="classmpfr_1_1mpreal.html#a566f64ca066c54923d19c11d6c3d15cd" target="_top" xlink:title="mpfr::mpreal::mpfr\l_srcptr">
<polygon fill="none" stroke="black" points="373.5,-83 373.5,-113 480.5,-113 480.5,-83 373.5,-83"/>
<text text-anchor="start" x="381.5" y="-101" font-family="Helvetica,sans-Serif" font-size="10.00">mpfr::mpreal::mpfr</text>
<text text-anchor="middle" x="427" y="-90" font-family="Helvetica,sans-Serif" font-size="10.00">_srcptr</text>
</a>
</g>
</g>
<!-- Node7&#45;&gt;Node8 -->
<g id="edge8" class="edge"><title>Node7&#45;&gt;Node8</title>
<path fill="none" stroke="midnightblue" d="M328.179,-98C338.826,-98 351.104,-98 363.285,-98"/>
<polygon fill="midnightblue" stroke="midnightblue" points="363.457,-101.5 373.457,-98 363.457,-94.5001 363.457,-101.5"/>
</g>
<!-- Node9 -->
<g id="node10" class="node"><title>Node9</title>
<g id="a_node10"><a xlink:href="classmpfr_1_1mpreal.html#af4e3b56888463376c675cac70b6ceca3" target="_top" xlink:title="mpfr::mpreal::mpfr_ptr">
<polygon fill="none" stroke="black" points="364,-44.5 364,-63.5 490,-63.5 490,-44.5 364,-44.5"/>
<text text-anchor="middle" x="427" y="-51.5" font-family="Helvetica,sans-Serif" font-size="10.00">mpfr::mpreal::mpfr_ptr</text>
</a>
</g>
</g>
<!-- Node7&#45;&gt;Node9 -->
<g id="edge9" class="edge"><title>Node7&#45;&gt;Node9</title>
<path fill="none" stroke="midnightblue" d="M322.723,-88.4732C335.196,-83.9938 350.336,-78.6318 364,-74 371.07,-71.6035 378.615,-69.1134 385.921,-66.7372"/>
<polygon fill="midnightblue" stroke="midnightblue" points="387.229,-69.9928 395.667,-63.587 385.076,-63.3321 387.229,-69.9928"/>
</g>
</g>
</svg>
        <g id="navigator" transform="translate(0 0)" fill="#404254">
                <rect fill="#f2f5e9" fill-opacity="0.5" stroke="#606060" stroke-width=".5" x="0" y="0" width="60" height="60"/>
                <use id="zoomplus" xlink:href="#zoomPlus" x="17" y="9" onmousedown="handleZoom(evt,'in')"/>
                <use id="zoomminus" xlink:href="#zoomMin" x="42" y="9" onmousedown="handleZoom(evt,'out')"/>
                <use id="reset" xlink:href="#resetDef" x="30" y="36" onmousedown="handleReset()"/>
                <g id="arrowUp" xlink:href="#dirArrow" transform="translate(30 24)" onmousedown="handlePan(0,-1)">
                  <use xlink:href="#rim" fill="#404040">
                        <set attributeName="fill" to="#808080" begin="arrowUp.mouseover" end="arrowUp.mouseout"/>
                  </use>
                  <path fill="none" stroke="white" stroke-width="1.5" d="M0,-3.0v7 M-2.5,-0.5L0,-3.0L2.5,-0.5"/>
                </g>
                <g id="arrowRight" xlink:href="#dirArrow" transform="rotate(90) translate(36 -43)" onmousedown="handlePan(1,0)">
                  <use xlink:href="#rim" fill="#404040">
                        <set attributeName="fill" to="#808080" begin="arrowRight.mouseover" end="arrowRight.mouseout"/>
                  </use>
                  <path fill="none" stroke="white" stroke-width="1.5" d="M0,-3.0v7 M-2.5,-0.5L0,-3.0L2.5,-0.5"/>
                </g>
                <g id="arrowDown" xlink:href="#dirArrow" transform="rotate(180) translate(-30 -48)" onmousedown="handlePan(0,1)">
                  <use xlink:href="#rim" fill="#404040">
                        <set attributeName="fill" to="#808080" begin="arrowDown.mouseover" end="arrowDown.mouseout"/>
                  </use>
                  <path fill="none" stroke="white" stroke-width="1.5" d="M0,-3.0v7 M-2.5,-0.5L0,-3.0L2.5,-0.5"/>
                </g>
                <g id="arrowLeft" xlink:href="#dirArrow" transform="rotate(270) translate(-36 17)" onmousedown="handlePan(-1,0)">
                  <use xlink:href="#rim" fill="#404040">
                        <set attributeName="fill" to="#808080" begin="arrowLeft.mouseover" end="arrowLeft.mouseout"/>
                  </use>
                  <path fill="none" stroke="white" stroke-width="1.5" d="M0,-3.0v7 M-2.5,-0.5L0,-3.0L2.5,-0.5"/>
                </g>
        </g>
        <svg viewBox="0 0 15 15" width="100%" height="30px" preserveAspectRatio="xMaxYMin meet">
         <g id="arrow_out" transform="scale(0.3 0.3)">
          <a xlink:href="product_8h_a7c4353129827919cf2baa4639f0145c4_cgraph_org.svg" target="_base">
           <rect id="button" ry="5" rx="5" y="6" x="6" height="38" width="38"
                fill="#f2f5e9" fill-opacity="0.5" stroke="#606060" stroke-width="1.0"/>
           <path id="arrow"
             d="M 11.500037,31.436501 C 11.940474,20.09759 22.043105,11.32322 32.158766,21.979434 L 37.068811,17.246167 C 37.068811,17.246167 37.088388,32 37.088388,32 L 22.160133,31.978069 C 22.160133,31.978069 26.997745,27.140456 26.997745,27.140456 C 18.528582,18.264221 13.291696,25.230495 11.500037,31.436501 z"
             style="fill:#404040;"/>
          </a>
         </g>
        </svg>
</svg>
