<?xml version="1.0" encoding="UTF-8" standalone="no"?>
<!DOCTYPE svg PUBLIC "-//W3C//DTD SVG 1.1//EN"
 "http://www.w3.org/Graphics/SVG/1.1/DTD/svg11.dtd">
<!-- Generated by graphviz version 2.38.0 (20140413.2041)
 -->
<!-- Title: qr_fixedsize Pages: 1 -->
<svg width="399pt" height="176pt"
 viewBox="0.00 0.00 399.00 176.07" xmlns="http://www.w3.org/2000/svg" xmlns:xlink="http://www.w3.org/1999/xlink">
<g id="graph0" class="graph" transform="scale(1 1) rotate(0) translate(4 172.068)">
<title>qr_fixedsize</title>
<!-- Node7 -->
<g id="node1" class="node"><title>Node7</title>
<polygon fill="#bfbfbf" stroke="black" points="0,-88 0,-107 73,-107 73,-88 0,-88"/>
<text text-anchor="middle" x="36.5" y="-95" font-family="Helvetica,sans-Serif" font-size="10.00">qr_fixedsize</text>
</g>
<!-- Node8 -->
<g id="node2" class="node"><title>Node8</title>
<g id="a_node2"><a xlink:href="classEigen_1_1HouseholderQR.html#affd506c10ef2d25f56e7b1f9f25ff885" target="_top" xlink:title="Eigen::HouseholderQR\l::householderQ">
<polygon fill="none" stroke="black" points="268,-135.5 268,-165.5 391,-165.5 391,-135.5 268,-135.5"/>
<text text-anchor="start" x="276" y="-153.5" font-family="Helvetica,sans-Serif" font-size="10.00">Eigen::HouseholderQR</text>
<text text-anchor="middle" x="329.5" y="-142.5" font-family="Helvetica,sans-Serif" font-size="10.00">::householderQ</text>
</a>
</g>
</g>
<!-- Node7&#45;&gt;Node8 -->
<g id="edge1" class="edge"><title>Node7&#45;&gt;Node8</title>
<path fill="none" stroke="midnightblue" d="M45.5317,-107.093C57.6367,-120.718 82.0278,-145.065 109,-154.5 156.561,-171.138 213.537,-169.525 257.52,-164.074"/>
<polygon fill="midnightblue" stroke="midnightblue" points="258.101,-167.528 267.551,-162.737 257.176,-160.589 258.101,-167.528"/>
</g>
<!-- Node9 -->
<g id="node3" class="node"><title>Node9</title>
<g id="a_node3"><a xlink:href="Tutorial__Map__using_8cpp.html#ab3a01b595d22393ace0d30d5fa299f76" target="_top" xlink:title="m2">
<polygon fill="none" stroke="black" points="154.5,-126 154.5,-145 186.5,-145 186.5,-126 154.5,-126"/>
<text text-anchor="middle" x="170.5" y="-133" font-family="Helvetica,sans-Serif" font-size="10.00">m2</text>
</a>
</g>
</g>
<!-- Node7&#45;&gt;Node9 -->
<g id="edge2" class="edge"><title>Node7&#45;&gt;Node9</title>
<path fill="none" stroke="midnightblue" d="M70.8092,-107.089C93.8075,-113.71 123.891,-122.37 144.77,-128.381"/>
<polygon fill="midnightblue" stroke="midnightblue" points="143.908,-131.775 154.486,-131.178 145.845,-125.048 143.908,-131.775"/>
</g>
<!-- Node10 -->
<g id="node4" class="node"><title>Node10</title>
<g id="a_node4"><a xlink:href="classEigen_1_1HouseholderQR.html#ae837f2fb30099212c53b3042c7d699c9" target="_top" xlink:title="Eigen::HouseholderQR\l::matrixQR">
<polygon fill="none" stroke="black" points="268,-63.5 268,-93.5 391,-93.5 391,-63.5 268,-63.5"/>
<text text-anchor="start" x="276" y="-81.5" font-family="Helvetica,sans-Serif" font-size="10.00">Eigen::HouseholderQR</text>
<text text-anchor="middle" x="329.5" y="-70.5" font-family="Helvetica,sans-Serif" font-size="10.00">::matrixQR</text>
</a>
</g>
</g>
<!-- Node7&#45;&gt;Node10 -->
<g id="edge3" class="edge"><title>Node7&#45;&gt;Node10</title>
<path fill="none" stroke="midnightblue" d="M66.3784,-87.9963C79.2673,-84.2325 94.7359,-80.3629 109,-78.5 158.325,-72.0581 214.418,-72.1857 257.553,-73.8581"/>
<polygon fill="midnightblue" stroke="midnightblue" points="257.528,-77.3601 267.667,-74.2875 257.825,-70.3664 257.528,-77.3601"/>
</g>
<!-- Node11 -->
<g id="node5" class="node"><title>Node11</title>
<g id="a_node5"><a xlink:href="qr_8cpp.html#a1f7ecb677226c5e3b96a2c8bd67c0324" target="_top" xlink:title="qr">
<polygon fill="none" stroke="black" points="156,-88 156,-107 185,-107 185,-88 156,-88"/>
<text text-anchor="middle" x="170.5" y="-95" font-family="Helvetica,sans-Serif" font-size="10.00">qr</text>
</a>
</g>
</g>
<!-- Node7&#45;&gt;Node11 -->
<g id="edge4" class="edge"><title>Node7&#45;&gt;Node11</title>
<path fill="none" stroke="midnightblue" d="M73.2211,-97.5C96.1554,-97.5 125.317,-97.5 145.506,-97.5"/>
<polygon fill="midnightblue" stroke="midnightblue" points="145.703,-101 155.703,-97.5 145.703,-94.0001 145.703,-101"/>
</g>
<!-- Node12 -->
<g id="node6" class="node"><title>Node12</title>
<g id="a_node6"><a xlink:href="classEigen_1_1HouseholderQR.html#a3e8e56769bbaaed0616ad98c4ff99c7b" target="_top" xlink:title="Eigen::HouseholderQR\l::solve">
<polygon fill="none" stroke="black" points="109,-0.5 109,-30.5 232,-30.5 232,-0.5 109,-0.5"/>
<text text-anchor="start" x="117" y="-18.5" font-family="Helvetica,sans-Serif" font-size="10.00">Eigen::HouseholderQR</text>
<text text-anchor="middle" x="170.5" y="-7.5" font-family="Helvetica,sans-Serif" font-size="10.00">::solve</text>
</a>
</g>
</g>
<!-- Node7&#45;&gt;Node12 -->
<g id="edge7" class="edge"><title>Node7&#45;&gt;Node12</title>
<path fill="none" stroke="midnightblue" d="M49.4669,-87.83C63.3283,-76.8617 87.0751,-58.7789 109,-45.5 114.862,-41.9498 121.201,-38.4568 127.494,-35.18"/>
<polygon fill="midnightblue" stroke="midnightblue" points="129.284,-38.1966 136.619,-30.5522 126.118,-31.9535 129.284,-38.1966"/>
</g>
<!-- Node11&#45;&gt;Node8 -->
<g id="edge5" class="edge"><title>Node11&#45;&gt;Node8</title>
<path fill="none" stroke="midnightblue" d="M185.481,-101.741C197.772,-105.505 216.123,-111.212 232,-116.5 246.651,-121.38 262.481,-126.867 276.998,-131.985"/>
<polygon fill="midnightblue" stroke="midnightblue" points="276.214,-135.42 286.808,-135.458 278.55,-128.822 276.214,-135.42"/>
</g>
<!-- Node11&#45;&gt;Node10 -->
<g id="edge6" class="edge"><title>Node11&#45;&gt;Node10</title>
<path fill="none" stroke="midnightblue" d="M185.158,-95.8471C201.57,-93.861 230.34,-90.3792 257.82,-87.0536"/>
<polygon fill="midnightblue" stroke="midnightblue" points="258.353,-90.5147 267.86,-85.8386 257.512,-83.5654 258.353,-90.5147"/>
</g>
</g>
</svg>
