<?xml version="1.0" encoding="UTF-8" standalone="no"?>
<!DOCTYPE svg PUBLIC "-//W3C//DTD SVG 1.1//EN"
 "http://www.w3.org/Graphics/SVG/1.1/DTD/svg11.dtd">
<!-- Generated by graphviz version 2.38.0 (20140413.2041)
 -->
<!-- Title: /travis/libpairinteraction/eigen/test/qr_colpivoting.cpp Pages: 1 -->
<!--zoomable 151 -->
<svg id="main" version="1.1" xmlns="http://www.w3.org/2000/svg" xmlns:xlink="http://www.w3.org/1999/xlink" xml:space="preserve" onload="init(evt)">
<style type="text/css"><![CDATA[
.edge:hover path { stroke: red; }
.edge:hover polygon { stroke: red; fill: red; }
]]></style>
<script type="text/javascript"><![CDATA[
var edges = document.getElementsByTagName('g');
if (edges && edges.length) {
  for (var i=0;i<edges.length;i++) {
    if (edges[i].id.substr(0,4)=='edge') {
      edges[i].setAttribute('class','edge');
    }
  }
}
]]></script>
        <defs>
                <circle id="rim" cx="0" cy="0" r="7"/>
                <circle id="rim2" cx="0" cy="0" r="3.5"/>
                <g id="zoomPlus">
                        <use xlink:href="#rim" fill="#404040">
                                <set attributeName="fill" to="#808080" begin="zoomplus.mouseover" end="zoomplus.mouseout"/>
                        </use>
                        <path d="M-4,0h8M0,-4v8" fill="none" stroke="white" stroke-width="1.5" pointer-events="none"/>
                </g>
                <g id="zoomMin">
                        <use xlink:href="#rim" fill="#404040">
                                <set attributeName="fill" to="#808080" begin="zoomminus.mouseover" end="zoomminus.mouseout"/>
                        </use>
                        <path d="M-4,0h8" fill="none" stroke="white" stroke-width="1.5" pointer-events="none"/>
                </g>
                <g id="dirArrow">
                        <path fill="none" stroke="white" stroke-width="1.5" d="M0,-3.0v7 M-2.5,-0.5L0,-3.0L2.5,-0.5"/>
                </g>
               <g id="resetDef">
                       <use xlink:href="#rim2" fill="#404040">
                               <set attributeName="fill" to="#808080" begin="reset.mouseover" end="reset.mouseout"/>
                       </use>
               </g>
        </defs>

<script type="text/javascript">
var viewWidth = 1271;
var viewHeight = 151;
var sectionId = 'dynsection-0';
</script>
<script xlink:href="svgpan.js"/>
<svg id="graph" class="graph">
<g id="viewport">
<title>/travis/libpairinteraction/eigen/test/qr_colpivoting.cpp</title>
<!-- Node0 -->
<g id="node1" class="node"><title>Node0</title>
<polygon fill="#bfbfbf" stroke="black" points="884,-112.5 884,-142.5 1041,-142.5 1041,-112.5 884,-112.5"/>
<text text-anchor="start" x="892" y="-130.5" font-family="Helvetica,sans-Serif" font-size="10.00">/travis/libpairinteraction</text>
<text text-anchor="middle" x="962.5" y="-119.5" font-family="Helvetica,sans-Serif" font-size="10.00">/eigen/test/qr_colpivoting.cpp</text>
</g>
<!-- Node1 -->
<g id="node2" class="node"><title>Node1</title>
<g id="a_node2"><a xlink:href="main_8h.html" target="_top" xlink:title="main.h">
<polygon fill="none" stroke="black" points="613.5,-56.5 613.5,-75.5 663.5,-75.5 663.5,-56.5 613.5,-56.5"/>
<text text-anchor="middle" x="638.5" y="-63.5" font-family="Helvetica,sans-Serif" font-size="10.00">main.h</text>
</a>
</g>
</g>
<!-- Node0&#45;&gt;Node1 -->
<g id="edge1" class="edge"><title>Node0&#45;&gt;Node1</title>
<path fill="none" stroke="midnightblue" d="M886.127,-112.475C819.056,-100.158 724.506,-82.7943 673.841,-73.4901"/>
<polygon fill="midnightblue" stroke="midnightblue" points="674.189,-69.9956 663.721,-71.6317 672.925,-76.8804 674.189,-69.9956"/>
</g>
<!-- Node19 -->
<g id="node20" class="node"><title>Node19</title>
<polygon fill="none" stroke="#bfbfbf" points="1204,-0.5 1204,-19.5 1263,-19.5 1263,-0.5 1204,-0.5"/>
<text text-anchor="middle" x="1233.5" y="-7.5" font-family="Helvetica,sans-Serif" font-size="10.00">Eigen/QR</text>
</g>
<!-- Node0&#45;&gt;Node19 -->
<g id="edge20" class="edge"><title>Node0&#45;&gt;Node19</title>
<path fill="none" stroke="midnightblue" d="M962.326,-112.296C962.949,-96.1753 966.591,-70.2741 982.5,-56 1051.27,5.70598 1097.63,-35.7817 1193.66,-19.9048"/>
<polygon fill="midnightblue" stroke="midnightblue" points="1194.52,-23.3043 1203.73,-18.0595 1193.26,-16.4189 1194.52,-23.3043"/>
</g>
<!-- Node20 -->
<g id="node21" class="node"><title>Node20</title>
<polygon fill="none" stroke="#bfbfbf" points="991,-56.5 991,-75.5 1058,-75.5 1058,-56.5 991,-56.5"/>
<text text-anchor="middle" x="1024.5" y="-63.5" font-family="Helvetica,sans-Serif" font-size="10.00">Eigen/SVD</text>
</g>
<!-- Node0&#45;&gt;Node20 -->
<g id="edge21" class="edge"><title>Node0&#45;&gt;Node20</title>
<path fill="none" stroke="midnightblue" d="M977.193,-112.399C986.481,-103.486 998.499,-91.9523 1008.1,-82.7408"/>
<polygon fill="midnightblue" stroke="midnightblue" points="1010.69,-85.1072 1015.48,-75.6578 1005.84,-80.0566 1010.69,-85.1072"/>
</g>
<!-- Node2 -->
<g id="node3" class="node"><title>Node2</title>
<polygon fill="none" stroke="#bfbfbf" points="0,-0.5 0,-19.5 47,-19.5 47,-0.5 0,-0.5"/>
<text text-anchor="middle" x="23.5" y="-7.5" font-family="Helvetica,sans-Serif" font-size="10.00">cstdlib</text>
</g>
<!-- Node1&#45;&gt;Node2 -->
<g id="edge2" class="edge"><title>Node1&#45;&gt;Node2</title>
<path fill="none" stroke="midnightblue" d="M613.276,-64.8218C533.083,-63.8853 276.823,-58.0447 57.2428,-19.9886"/>
<polygon fill="midnightblue" stroke="midnightblue" points="57.6005,-16.4979 47.1451,-18.211 56.3868,-23.3918 57.6005,-16.4979"/>
</g>
<!-- Node3 -->
<g id="node4" class="node"><title>Node3</title>
<polygon fill="none" stroke="#bfbfbf" points="65,-0.5 65,-19.5 112,-19.5 112,-0.5 65,-0.5"/>
<text text-anchor="middle" x="88.5" y="-7.5" font-family="Helvetica,sans-Serif" font-size="10.00">cerrno</text>
</g>
<!-- Node1&#45;&gt;Node3 -->
<g id="edge3" class="edge"><title>Node1&#45;&gt;Node3</title>
<path fill="none" stroke="midnightblue" d="M613.273,-64.4048C539.254,-62.3225 316.227,-53.6502 122.267,-19.7927"/>
<polygon fill="midnightblue" stroke="midnightblue" points="122.635,-16.3034 112.177,-18.0037 121.413,-23.1959 122.635,-16.3034"/>
</g>
<!-- Node4 -->
<g id="node5" class="node"><title>Node4</title>
<polygon fill="none" stroke="#bfbfbf" points="130.5,-0.5 130.5,-19.5 174.5,-19.5 174.5,-0.5 130.5,-0.5"/>
<text text-anchor="middle" x="152.5" y="-7.5" font-family="Helvetica,sans-Serif" font-size="10.00">ctime</text>
</g>
<!-- Node1&#45;&gt;Node4 -->
<g id="edge4" class="edge"><title>Node1&#45;&gt;Node4</title>
<path fill="none" stroke="midnightblue" d="M613.36,-64.1358C545.538,-61.4636 353.138,-51.631 184.764,-19.9073"/>
<polygon fill="midnightblue" stroke="midnightblue" points="185.211,-16.4295 174.731,-17.9853 183.894,-23.3044 185.211,-16.4295"/>
</g>
<!-- Node5 -->
<g id="node6" class="node"><title>Node5</title>
<polygon fill="none" stroke="#bfbfbf" points="193,-0.5 193,-19.5 252,-19.5 252,-0.5 193,-0.5"/>
<text text-anchor="middle" x="222.5" y="-7.5" font-family="Helvetica,sans-Serif" font-size="10.00">iostream</text>
</g>
<!-- Node1&#45;&gt;Node5 -->
<g id="edge5" class="edge"><title>Node1&#45;&gt;Node5</title>
<path fill="none" stroke="midnightblue" d="M613.215,-62.9325C553.777,-57.8709 400.408,-43.6391 262.169,-19.9353"/>
<polygon fill="midnightblue" stroke="midnightblue" points="262.694,-16.4743 252.243,-18.2122 261.497,-23.3711 262.694,-16.4743"/>
</g>
<!-- Node6 -->
<g id="node7" class="node"><title>Node6</title>
<polygon fill="none" stroke="#bfbfbf" points="270.5,-0.5 270.5,-19.5 324.5,-19.5 324.5,-0.5 270.5,-0.5"/>
<text text-anchor="middle" x="297.5" y="-7.5" font-family="Helvetica,sans-Serif" font-size="10.00">fstream</text>
</g>
<!-- Node1&#45;&gt;Node6 -->
<g id="edge6" class="edge"><title>Node1&#45;&gt;Node6</title>
<path fill="none" stroke="midnightblue" d="M613.45,-62.1522C562.688,-56.2009 443.9,-41.359 334.445,-20.019"/>
<polygon fill="midnightblue" stroke="midnightblue" points="335.051,-16.5711 324.562,-18.0692 333.696,-23.4387 335.051,-16.5711"/>
</g>
<!-- Node7 -->
<g id="node8" class="node"><title>Node7</title>
<polygon fill="none" stroke="#bfbfbf" points="342.5,-0.5 342.5,-19.5 386.5,-19.5 386.5,-0.5 342.5,-0.5"/>
<text text-anchor="middle" x="364.5" y="-7.5" font-family="Helvetica,sans-Serif" font-size="10.00">string</text>
</g>
<!-- Node1&#45;&gt;Node7 -->
<g id="edge7" class="edge"><title>Node1&#45;&gt;Node7</title>
<path fill="none" stroke="midnightblue" d="M613.492,-61.2111C570.891,-54.577 481.372,-39.8569 396.562,-20.0665"/>
<polygon fill="midnightblue" stroke="midnightblue" points="397.317,-16.6486 386.781,-17.7559 395.708,-23.4611 397.317,-16.6486"/>
</g>
<!-- Node8 -->
<g id="node9" class="node"><title>Node8</title>
<polygon fill="none" stroke="#bfbfbf" points="404.5,-0.5 404.5,-19.5 460.5,-19.5 460.5,-0.5 404.5,-0.5"/>
<text text-anchor="middle" x="432.5" y="-7.5" font-family="Helvetica,sans-Serif" font-size="10.00">sstream</text>
</g>
<!-- Node1&#45;&gt;Node8 -->
<g id="edge8" class="edge"><title>Node1&#45;&gt;Node8</title>
<path fill="none" stroke="midnightblue" d="M613.24,-58.3785C577.509,-49.0121 511.936,-31.8231 470.367,-20.9262"/>
<polygon fill="midnightblue" stroke="midnightblue" points="471.165,-17.5172 460.604,-18.367 469.39,-24.2884 471.165,-17.5172"/>
</g>
<!-- Node9 -->
<g id="node10" class="node"><title>Node9</title>
<polygon fill="none" stroke="#bfbfbf" points="479,-0.5 479,-19.5 526,-19.5 526,-0.5 479,-0.5"/>
<text text-anchor="middle" x="502.5" y="-7.5" font-family="Helvetica,sans-Serif" font-size="10.00">vector</text>
</g>
<!-- Node1&#45;&gt;Node9 -->
<g id="edge9" class="edge"><title>Node1&#45;&gt;Node9</title>
<path fill="none" stroke="midnightblue" d="M616.95,-56.4435C594.469,-47.5171 559.012,-33.4387 533.52,-23.3168"/>
<polygon fill="midnightblue" stroke="midnightblue" points="534.535,-19.9539 523.949,-19.5164 531.951,-26.4598 534.535,-19.9539"/>
</g>
<!-- Node10 -->
<g id="node11" class="node"><title>Node10</title>
<polygon fill="none" stroke="#bfbfbf" points="544,-0.5 544,-19.5 599,-19.5 599,-0.5 544,-0.5"/>
<text text-anchor="middle" x="571.5" y="-7.5" font-family="Helvetica,sans-Serif" font-size="10.00">typeinfo</text>
</g>
<!-- Node1&#45;&gt;Node10 -->
<g id="edge10" class="edge"><title>Node1&#45;&gt;Node10</title>
<path fill="none" stroke="midnightblue" d="M627.735,-56.324C617.734,-48.2631 602.613,-36.0765 590.57,-26.3695"/>
<polygon fill="midnightblue" stroke="midnightblue" points="592.443,-23.3841 582.461,-19.8339 588.05,-28.8343 592.443,-23.3841"/>
</g>
<!-- Node11 -->
<g id="node12" class="node"><title>Node11</title>
<polygon fill="none" stroke="#bfbfbf" points="617.5,-0.5 617.5,-19.5 659.5,-19.5 659.5,-0.5 617.5,-0.5"/>
<text text-anchor="middle" x="638.5" y="-7.5" font-family="Helvetica,sans-Serif" font-size="10.00">limits</text>
</g>
<!-- Node1&#45;&gt;Node11 -->
<g id="edge11" class="edge"><title>Node1&#45;&gt;Node11</title>
<path fill="none" stroke="midnightblue" d="M638.5,-56.083C638.5,-49.0059 638.5,-38.8611 638.5,-29.9865"/>
<polygon fill="midnightblue" stroke="midnightblue" points="642,-29.751 638.5,-19.7511 635,-29.7511 642,-29.751"/>
</g>
<!-- Node12 -->
<g id="node13" class="node"><title>Node12</title>
<polygon fill="none" stroke="#bfbfbf" points="677.5,-0.5 677.5,-19.5 739.5,-19.5 739.5,-0.5 677.5,-0.5"/>
<text text-anchor="middle" x="708.5" y="-7.5" font-family="Helvetica,sans-Serif" font-size="10.00">algorithm</text>
</g>
<!-- Node1&#45;&gt;Node12 -->
<g id="edge12" class="edge"><title>Node1&#45;&gt;Node12</title>
<path fill="none" stroke="midnightblue" d="M649.747,-56.324C660.297,-48.1849 676.301,-35.8395 688.942,-26.0874"/>
<polygon fill="midnightblue" stroke="midnightblue" points="691.269,-28.7132 697.049,-19.8339 686.993,-23.1707 691.269,-28.7132"/>
</g>
<!-- Node13 -->
<g id="node14" class="node"><title>Node13</title>
<polygon fill="none" stroke="#bfbfbf" points="758,-0.5 758,-19.5 815,-19.5 815,-0.5 758,-0.5"/>
<text text-anchor="middle" x="786.5" y="-7.5" font-family="Helvetica,sans-Serif" font-size="10.00">complex</text>
</g>
<!-- Node1&#45;&gt;Node13 -->
<g id="edge13" class="edge"><title>Node1&#45;&gt;Node13</title>
<path fill="none" stroke="midnightblue" d="M661.951,-56.4435C686.633,-47.4381 725.685,-33.1891 753.477,-23.049"/>
<polygon fill="midnightblue" stroke="midnightblue" points="754.964,-26.2321 763.159,-19.5164 752.565,-19.6561 754.964,-26.2321"/>
</g>
<!-- Node14 -->
<g id="node15" class="node"><title>Node14</title>
<polygon fill="none" stroke="#bfbfbf" points="833,-0.5 833,-19.5 880,-19.5 880,-0.5 833,-0.5"/>
<text text-anchor="middle" x="856.5" y="-7.5" font-family="Helvetica,sans-Serif" font-size="10.00">deque</text>
</g>
<!-- Node1&#45;&gt;Node14 -->
<g id="edge14" class="edge"><title>Node1&#45;&gt;Node14</title>
<path fill="none" stroke="midnightblue" d="M663.69,-59.1057C697.602,-51.1204 760.042,-36.2409 823.027,-20.0678"/>
<polygon fill="midnightblue" stroke="midnightblue" points="823.918,-23.4527 832.728,-17.5676 822.171,-16.6742 823.918,-23.4527"/>
</g>
<!-- Node15 -->
<g id="node16" class="node"><title>Node15</title>
<polygon fill="none" stroke="#bfbfbf" points="898,-0.5 898,-19.5 945,-19.5 945,-0.5 898,-0.5"/>
<text text-anchor="middle" x="921.5" y="-7.5" font-family="Helvetica,sans-Serif" font-size="10.00">queue</text>
</g>
<!-- Node1&#45;&gt;Node15 -->
<g id="edge15" class="edge"><title>Node1&#45;&gt;Node15</title>
<path fill="none" stroke="midnightblue" d="M663.843,-61.1958C707.526,-54.4765 799.983,-39.5456 887.904,-19.9624"/>
<polygon fill="midnightblue" stroke="midnightblue" points="888.783,-23.3522 897.77,-17.7406 887.245,-16.5232 888.783,-23.3522"/>
</g>
<!-- Node16 -->
<g id="node17" class="node"><title>Node16</title>
<polygon fill="none" stroke="#bfbfbf" points="963.5,-0.5 963.5,-19.5 1015.5,-19.5 1015.5,-0.5 963.5,-0.5"/>
<text text-anchor="middle" x="989.5" y="-7.5" font-family="Helvetica,sans-Serif" font-size="10.00">cassert</text>
</g>
<!-- Node1&#45;&gt;Node16 -->
<g id="edge16" class="edge"><title>Node1&#45;&gt;Node16</title>
<path fill="none" stroke="midnightblue" d="M663.556,-62.31C715.566,-56.5373 839.165,-41.838 953.273,-19.843"/>
<polygon fill="midnightblue" stroke="midnightblue" points="954.08,-23.2517 963.224,-17.9013 952.739,-16.3813 954.08,-23.2517"/>
</g>
<!-- Node17 -->
<g id="node18" class="node"><title>Node17</title>
<polygon fill="none" stroke="#bfbfbf" points="1033.5,-0.5 1033.5,-19.5 1063.5,-19.5 1063.5,-0.5 1033.5,-0.5"/>
<text text-anchor="middle" x="1048.5" y="-7.5" font-family="Helvetica,sans-Serif" font-size="10.00">list</text>
</g>
<!-- Node1&#45;&gt;Node17 -->
<g id="edge17" class="edge"><title>Node1&#45;&gt;Node17</title>
<path fill="none" stroke="midnightblue" d="M663.707,-64.1727C724.396,-61.7382 883.367,-52.7271 1023.39,-19.7005"/>
<polygon fill="midnightblue" stroke="midnightblue" points="1024.54,-23.025 1033.44,-17.2809 1022.9,-16.2195 1024.54,-23.025"/>
</g>
<!-- Node18 -->
<g id="node19" class="node"><title>Node18</title>
<polygon fill="none" stroke="#bfbfbf" points="1081.5,-0.5 1081.5,-19.5 1185.5,-19.5 1185.5,-0.5 1081.5,-0.5"/>
<text text-anchor="middle" x="1133.5" y="-7.5" font-family="Helvetica,sans-Serif" font-size="10.00">split_test_helper.h</text>
</g>
<!-- Node1&#45;&gt;Node18 -->
<g id="edge18" class="edge"><title>Node1&#45;&gt;Node18</title>
<path fill="none" stroke="midnightblue" d="M663.981,-62.7454C729.62,-56.8555 910.062,-40.1443 1071.18,-20.1186"/>
<polygon fill="midnightblue" stroke="midnightblue" points="1071.79,-23.5702 1081.28,-18.8564 1070.92,-16.6243 1071.79,-23.5702"/>
</g>
<!-- Node1&#45;&gt;Node19 -->
<g id="edge19" class="edge"><title>Node1&#45;&gt;Node19</title>
<path fill="none" stroke="midnightblue" d="M663.59,-64.2741C741.058,-61.7588 983.401,-51.8387 1193.78,-19.8693"/>
<polygon fill="midnightblue" stroke="midnightblue" points="1194.43,-23.3117 1203.78,-18.3303 1193.36,-16.3933 1194.43,-23.3117"/>
</g>
</g>
</svg>
        <g id="navigator" transform="translate(0 0)" fill="#404254">
                <rect fill="#f2f5e9" fill-opacity="0.5" stroke="#606060" stroke-width=".5" x="0" y="0" width="60" height="60"/>
                <use id="zoomplus" xlink:href="#zoomPlus" x="17" y="9" onmousedown="handleZoom(evt,'in')"/>
                <use id="zoomminus" xlink:href="#zoomMin" x="42" y="9" onmousedown="handleZoom(evt,'out')"/>
                <use id="reset" xlink:href="#resetDef" x="30" y="36" onmousedown="handleReset()"/>
                <g id="arrowUp" xlink:href="#dirArrow" transform="translate(30 24)" onmousedown="handlePan(0,-1)">
                  <use xlink:href="#rim" fill="#404040">
                        <set attributeName="fill" to="#808080" begin="arrowUp.mouseover" end="arrowUp.mouseout"/>
                  </use>
                  <path fill="none" stroke="white" stroke-width="1.5" d="M0,-3.0v7 M-2.5,-0.5L0,-3.0L2.5,-0.5"/>
                </g>
                <g id="arrowRight" xlink:href="#dirArrow" transform="rotate(90) translate(36 -43)" onmousedown="handlePan(1,0)">
                  <use xlink:href="#rim" fill="#404040">
                        <set attributeName="fill" to="#808080" begin="arrowRight.mouseover" end="arrowRight.mouseout"/>
                  </use>
                  <path fill="none" stroke="white" stroke-width="1.5" d="M0,-3.0v7 M-2.5,-0.5L0,-3.0L2.5,-0.5"/>
                </g>
                <g id="arrowDown" xlink:href="#dirArrow" transform="rotate(180) translate(-30 -48)" onmousedown="handlePan(0,1)">
                  <use xlink:href="#rim" fill="#404040">
                        <set attributeName="fill" to="#808080" begin="arrowDown.mouseover" end="arrowDown.mouseout"/>
                  </use>
                  <path fill="none" stroke="white" stroke-width="1.5" d="M0,-3.0v7 M-2.5,-0.5L0,-3.0L2.5,-0.5"/>
                </g>
                <g id="arrowLeft" xlink:href="#dirArrow" transform="rotate(270) translate(-36 17)" onmousedown="handlePan(-1,0)">
                  <use xlink:href="#rim" fill="#404040">
                        <set attributeName="fill" to="#808080" begin="arrowLeft.mouseover" end="arrowLeft.mouseout"/>
                  </use>
                  <path fill="none" stroke="white" stroke-width="1.5" d="M0,-3.0v7 M-2.5,-0.5L0,-3.0L2.5,-0.5"/>
                </g>
        </g>
        <svg viewBox="0 0 15 15" width="100%" height="30px" preserveAspectRatio="xMaxYMin meet">
         <g id="arrow_out" transform="scale(0.3 0.3)">
          <a xlink:href="qr__colpivoting_8cpp__incl_org.svg" target="_base">
           <rect id="button" ry="5" rx="5" y="6" x="6" height="38" width="38"
                fill="#f2f5e9" fill-opacity="0.5" stroke="#606060" stroke-width="1.0"/>
           <path id="arrow"
             d="M 11.500037,31.436501 C 11.940474,20.09759 22.043105,11.32322 32.158766,21.979434 L 37.068811,17.246167 C 37.068811,17.246167 37.088388,32 37.088388,32 L 22.160133,31.978069 C 22.160133,31.978069 26.997745,27.140456 26.997745,27.140456 C 18.528582,18.264221 13.291696,25.230495 11.500037,31.436501 z"
             style="fill:#404040;"/>
          </a>
         </g>
        </svg>
</svg>
