<?xml version="1.0" encoding="UTF-8" standalone="no"?>
<!DOCTYPE svg PUBLIC "-//W3C//DTD SVG 1.1//EN"
 "http://www.w3.org/Graphics/SVG/1.1/DTD/svg11.dtd">
<!-- Generated by graphviz version 2.38.0 (20140413.2041)
 -->
<!-- Title: sblat3 Pages: 1 -->
<!--zoomable 723 -->
<svg id="main" version="1.1" xmlns="http://www.w3.org/2000/svg" xmlns:xlink="http://www.w3.org/1999/xlink" xml:space="preserve" onload="init(evt)">
<style type="text/css"><![CDATA[
.edge:hover path { stroke: red; }
.edge:hover polygon { stroke: red; fill: red; }
]]></style>
<script type="text/javascript"><![CDATA[
var edges = document.getElementsByTagName('g');
if (edges && edges.length) {
  for (var i=0;i<edges.length;i++) {
    if (edges[i].id.substr(0,4)=='edge') {
      edges[i].setAttribute('class','edge');
    }
  }
}
]]></script>
        <defs>
                <circle id="rim" cx="0" cy="0" r="7"/>
                <circle id="rim2" cx="0" cy="0" r="3.5"/>
                <g id="zoomPlus">
                        <use xlink:href="#rim" fill="#404040">
                                <set attributeName="fill" to="#808080" begin="zoomplus.mouseover" end="zoomplus.mouseout"/>
                        </use>
                        <path d="M-4,0h8M0,-4v8" fill="none" stroke="white" stroke-width="1.5" pointer-events="none"/>
                </g>
                <g id="zoomMin">
                        <use xlink:href="#rim" fill="#404040">
                                <set attributeName="fill" to="#808080" begin="zoomminus.mouseover" end="zoomminus.mouseout"/>
                        </use>
                        <path d="M-4,0h8" fill="none" stroke="white" stroke-width="1.5" pointer-events="none"/>
                </g>
                <g id="dirArrow">
                        <path fill="none" stroke="white" stroke-width="1.5" d="M0,-3.0v7 M-2.5,-0.5L0,-3.0L2.5,-0.5"/>
                </g>
               <g id="resetDef">
                       <use xlink:href="#rim2" fill="#404040">
                               <set attributeName="fill" to="#808080" begin="reset.mouseover" end="reset.mouseout"/>
                       </use>
               </g>
        </defs>

<script type="text/javascript">
var viewWidth = 299;
var viewHeight = 723;
var sectionId = 'dynsection-3';
</script>
<script xlink:href="svgpan.js"/>
<svg id="graph" class="graph">
<g id="viewport">
<title>sblat3</title>
<!-- Node11 -->
<g id="node1" class="node"><title>Node11</title>
<polygon fill="#bfbfbf" stroke="black" points="0,-513.5 0,-532.5 46,-532.5 46,-513.5 0,-513.5"/>
<text text-anchor="middle" x="23" y="-520.5" font-family="Helvetica,sans-Serif" font-size="10.00">sblat3</text>
</g>
<!-- Node12 -->
<g id="node2" class="node"><title>Node12</title>
<g id="a_node2"><a xlink:href="sblat2_8f.html#a72963c988f0815b2696fd1b0e4acf880" target="_top" xlink:title="schk1">
<polygon fill="none" stroke="black" points="86.5,-570.5 86.5,-589.5 130.5,-589.5 130.5,-570.5 86.5,-570.5"/>
<text text-anchor="middle" x="108.5" y="-577.5" font-family="Helvetica,sans-Serif" font-size="10.00">schk1</text>
</a>
</g>
</g>
<!-- Node11&#45;&gt;Node12 -->
<g id="edge1" class="edge"><title>Node11&#45;&gt;Node12</title>
<path fill="none" stroke="midnightblue" d="M38.1646,-532.669C50.9572,-541.402 70.0041,-554.404 84.8996,-564.572"/>
<polygon fill="midnightblue" stroke="midnightblue" points="83.3121,-567.726 93.5446,-570.474 87.2587,-561.945 83.3121,-567.726"/>
</g>
<!-- Node18 -->
<g id="node8" class="node"><title>Node18</title>
<g id="a_node8"><a xlink:href="sblat2_8f.html#af487c92bebaacfb6bd68589513c37b1a" target="_top" xlink:title="schk2">
<polygon fill="none" stroke="black" points="86.5,-513.5 86.5,-532.5 130.5,-532.5 130.5,-513.5 86.5,-513.5"/>
<text text-anchor="middle" x="108.5" y="-520.5" font-family="Helvetica,sans-Serif" font-size="10.00">schk2</text>
</a>
</g>
</g>
<!-- Node11&#45;&gt;Node18 -->
<g id="edge7" class="edge"><title>Node11&#45;&gt;Node18</title>
<path fill="none" stroke="midnightblue" d="M46.3765,-523C55.5293,-523 66.2784,-523 76.1889,-523"/>
<polygon fill="midnightblue" stroke="midnightblue" points="76.4985,-526.5 86.4985,-523 76.4985,-519.5 76.4985,-526.5"/>
</g>
<!-- Node22 -->
<g id="node12" class="node"><title>Node22</title>
<g id="a_node12"><a xlink:href="sblat2_8f.html#a6d51cc50b2f3e06e07ab721e1d8ba7e1" target="_top" xlink:title="schk3">
<polygon fill="none" stroke="black" points="86.5,-152.5 86.5,-171.5 130.5,-171.5 130.5,-152.5 86.5,-152.5"/>
<text text-anchor="middle" x="108.5" y="-159.5" font-family="Helvetica,sans-Serif" font-size="10.00">schk3</text>
</a>
</g>
</g>
<!-- Node11&#45;&gt;Node22 -->
<g id="edge13" class="edge"><title>Node11&#45;&gt;Node22</title>
<path fill="none" stroke="midnightblue" d="M26.2334,-513.344C37.4377,-464.904 87.5913,-248.072 102.989,-181.501"/>
<polygon fill="midnightblue" stroke="midnightblue" points="106.455,-182.05 105.298,-171.518 99.6349,-180.472 106.455,-182.05"/>
</g>
<!-- Node29 -->
<g id="node19" class="node"><title>Node29</title>
<g id="a_node19"><a xlink:href="sblat2_8f.html#a5cf796f321f488cf07ad670b6a4a3044" target="_top" xlink:title="schk4">
<polygon fill="none" stroke="black" points="86.5,-627.5 86.5,-646.5 130.5,-646.5 130.5,-627.5 86.5,-627.5"/>
<text text-anchor="middle" x="108.5" y="-634.5" font-family="Helvetica,sans-Serif" font-size="10.00">schk4</text>
</a>
</g>
</g>
<!-- Node11&#45;&gt;Node29 -->
<g id="edge22" class="edge"><title>Node11&#45;&gt;Node29</title>
<path fill="none" stroke="midnightblue" d="M31.1192,-532.72C45.1076,-551.818 76.3703,-594.5 94.2608,-618.925"/>
<polygon fill="midnightblue" stroke="midnightblue" points="91.6662,-621.306 100.399,-627.305 97.3134,-617.169 91.6662,-621.306"/>
</g>
<!-- Node31 -->
<g id="node21" class="node"><title>Node31</title>
<g id="a_node21"><a xlink:href="sblat2_8f.html#a431e8080232dbe8ab951e5a396f22b02" target="_top" xlink:title="schk5">
<polygon fill="none" stroke="black" points="86.5,-475.5 86.5,-494.5 130.5,-494.5 130.5,-475.5 86.5,-475.5"/>
<text text-anchor="middle" x="108.5" y="-482.5" font-family="Helvetica,sans-Serif" font-size="10.00">schk5</text>
</a>
</g>
</g>
<!-- Node11&#45;&gt;Node31 -->
<g id="edge26" class="edge"><title>Node11&#45;&gt;Node31</title>
<path fill="none" stroke="midnightblue" d="M45.0706,-513.411C54.7618,-509.001 66.4419,-503.685 77.0649,-498.851"/>
<polygon fill="midnightblue" stroke="midnightblue" points="78.7841,-501.914 86.4362,-494.586 75.8846,-495.542 78.7841,-501.914"/>
</g>
<!-- Node34 -->
<g id="node24" class="node"><title>Node34</title>
<g id="a_node24"><a xlink:href="sblat2_8f.html#a1e23a9d74d4acf6f0a0c0944d653b213" target="_top" xlink:title="schke">
<polygon fill="none" stroke="black" points="86.5,-323.5 86.5,-342.5 130.5,-342.5 130.5,-323.5 86.5,-323.5"/>
<text text-anchor="middle" x="108.5" y="-330.5" font-family="Helvetica,sans-Serif" font-size="10.00">schke</text>
</a>
</g>
</g>
<!-- Node11&#45;&gt;Node34 -->
<g id="edge31" class="edge"><title>Node11&#45;&gt;Node34</title>
<path fill="none" stroke="midnightblue" d="M28.2556,-513.317C41.4017,-483.403 81.5354,-392.081 99.1091,-352.093"/>
<polygon fill="midnightblue" stroke="midnightblue" points="102.334,-353.455 103.153,-342.892 95.9252,-350.638 102.334,-353.455"/>
</g>
<!-- Node38 -->
<g id="node28" class="node"><title>Node38</title>
<g id="a_node28"><a xlink:href="sblat3_8f.html#a8b530541d1d90ba10621058fbabcf4e4" target="_top" xlink:title="smmch">
<polygon fill="none" stroke="black" points="82,-693.5 82,-712.5 135,-712.5 135,-693.5 82,-693.5"/>
<text text-anchor="middle" x="108.5" y="-700.5" font-family="Helvetica,sans-Serif" font-size="10.00">smmch</text>
</a>
</g>
</g>
<!-- Node11&#45;&gt;Node38 -->
<g id="edge49" class="edge"><title>Node11&#45;&gt;Node38</title>
<path fill="none" stroke="midnightblue" d="M27.939,-532.809C36.9297,-555.016 59.8973,-610.727 82,-656 86.6754,-665.577 92.2853,-676.015 97.0515,-684.618"/>
<polygon fill="midnightblue" stroke="midnightblue" points="94.0354,-686.395 101.979,-693.405 100.141,-682.971 94.0354,-686.395"/>
</g>
<!-- Node13 -->
<g id="node3" class="node"><title>Node13</title>
<g id="a_node3"><a xlink:href="bench_2btl_2libs_2BLAS_2blas_8h.html#a236970a9e7c17bb53eb835fa8caa0c8d" target="_top" xlink:title="sgbmv">
<polygon fill="none" stroke="black" points="171,-532.5 171,-551.5 220,-551.5 220,-532.5 171,-532.5"/>
<text text-anchor="middle" x="195.5" y="-539.5" font-family="Helvetica,sans-Serif" font-size="10.00">sgbmv</text>
</a>
</g>
</g>
<!-- Node12&#45;&gt;Node13 -->
<g id="edge2" class="edge"><title>Node12&#45;&gt;Node13</title>
<path fill="none" stroke="midnightblue" d="M130.511,-570.607C140.55,-566.119 152.758,-560.661 163.81,-555.72"/>
<polygon fill="midnightblue" stroke="midnightblue" points="165.439,-558.826 173.14,-551.549 162.582,-552.435 165.439,-558.826"/>
</g>
<!-- Node14 -->
<g id="node4" class="node"><title>Node14</title>
<g id="a_node4"><a xlink:href="bench_2btl_2libs_2BLAS_2blas_8h.html#a6df264cbf6ad22e80e1c456cf572fb78" target="_top" xlink:title="sgemv">
<polygon fill="none" stroke="black" points="171,-570.5 171,-589.5 220,-589.5 220,-570.5 171,-570.5"/>
<text text-anchor="middle" x="195.5" y="-577.5" font-family="Helvetica,sans-Serif" font-size="10.00">sgemv</text>
</a>
</g>
</g>
<!-- Node12&#45;&gt;Node14 -->
<g id="edge3" class="edge"><title>Node12&#45;&gt;Node14</title>
<path fill="none" stroke="midnightblue" d="M130.511,-580C139.56,-580 150.373,-580 160.511,-580"/>
<polygon fill="midnightblue" stroke="midnightblue" points="160.731,-583.5 170.731,-580 160.731,-576.5 160.731,-583.5"/>
</g>
<!-- Node15 -->
<g id="node5" class="node"><title>Node15</title>
<g id="a_node5"><a xlink:href="sblat2_8f.html#ab3dd038d965d574dd3a32935efd13747" target="_top" xlink:title="smake">
<polygon fill="none" stroke="black" points="171,-608.5 171,-627.5 220,-627.5 220,-608.5 171,-608.5"/>
<text text-anchor="middle" x="195.5" y="-615.5" font-family="Helvetica,sans-Serif" font-size="10.00">smake</text>
</a>
</g>
</g>
<!-- Node12&#45;&gt;Node15 -->
<g id="edge4" class="edge"><title>Node12&#45;&gt;Node15</title>
<path fill="none" stroke="midnightblue" d="M130.511,-589.393C140.55,-593.881 152.758,-599.339 163.81,-604.28"/>
<polygon fill="midnightblue" stroke="midnightblue" points="162.582,-607.565 173.14,-608.451 165.439,-601.174 162.582,-607.565"/>
</g>
<!-- Node16 -->
<g id="node6" class="node"><title>Node16</title>
<g id="a_node6"><a xlink:href="sblat2_8f.html#a32d78fc1870b445eb93c08d4faa9e1f5" target="_top" xlink:title="smvch">
<polygon fill="none" stroke="black" points="171.5,-646.5 171.5,-665.5 219.5,-665.5 219.5,-646.5 171.5,-646.5"/>
<text text-anchor="middle" x="195.5" y="-653.5" font-family="Helvetica,sans-Serif" font-size="10.00">smvch</text>
</a>
</g>
</g>
<!-- Node12&#45;&gt;Node16 -->
<g id="edge5" class="edge"><title>Node12&#45;&gt;Node16</title>
<path fill="none" stroke="midnightblue" d="M119.751,-589.9C131.803,-601.445 152.511,-620.99 171,-637 172.14,-637.987 173.321,-638.993 174.518,-639.999"/>
<polygon fill="midnightblue" stroke="midnightblue" points="172.468,-642.844 182.416,-646.488 176.911,-637.436 172.468,-642.844"/>
</g>
<!-- Node17 -->
<g id="node7" class="node"><title>Node17</title>
<g id="a_node7"><a xlink:href="ArrayCwiseUnaryOps_8h.html#a656b9217a2fcb6de59dc8d1eb3079cc7" target="_top" xlink:title="sqrt">
<polygon fill="none" stroke="black" points="256,-684.5 256,-703.5 291,-703.5 291,-684.5 256,-684.5"/>
<text text-anchor="middle" x="273.5" y="-691.5" font-family="Helvetica,sans-Serif" font-size="10.00">sqrt</text>
</a>
</g>
</g>
<!-- Node16&#45;&gt;Node17 -->
<g id="edge6" class="edge"><title>Node16&#45;&gt;Node17</title>
<path fill="none" stroke="midnightblue" d="M215.678,-665.589C225.075,-670.288 236.527,-676.014 246.681,-681.091"/>
<polygon fill="midnightblue" stroke="midnightblue" points="245.4,-684.363 255.91,-685.705 248.531,-678.102 245.4,-684.363"/>
</g>
<!-- Node18&#45;&gt;Node15 -->
<g id="edge8" class="edge"><title>Node18&#45;&gt;Node15</title>
<path fill="none" stroke="midnightblue" d="M116.291,-532.658C127.045,-547.64 149.032,-577.041 171,-599 171.918,-599.918 172.879,-600.836 173.865,-601.746"/>
<polygon fill="midnightblue" stroke="midnightblue" points="171.769,-604.56 181.64,-608.409 176.324,-599.244 171.769,-604.56"/>
</g>
<!-- Node18&#45;&gt;Node16 -->
<g id="edge9" class="edge"><title>Node18&#45;&gt;Node16</title>
<path fill="none" stroke="midnightblue" d="M116.626,-532.744C121.986,-540.273 129.348,-551.053 135,-561 153.464,-593.496 147.889,-607.626 171,-637 171.681,-637.866 172.409,-638.718 173.171,-639.552"/>
<polygon fill="midnightblue" stroke="midnightblue" points="170.916,-642.234 180.62,-646.485 175.685,-637.11 170.916,-642.234"/>
</g>
<!-- Node19 -->
<g id="node9" class="node"><title>Node19</title>
<g id="a_node9"><a xlink:href="bench_2btl_2libs_2BLAS_2blas_8h.html#a8d0b69549632a625a7773e8279aeb44f" target="_top" xlink:title="ssbmv">
<polygon fill="none" stroke="black" points="171.5,-418.5 171.5,-437.5 219.5,-437.5 219.5,-418.5 171.5,-418.5"/>
<text text-anchor="middle" x="195.5" y="-425.5" font-family="Helvetica,sans-Serif" font-size="10.00">ssbmv</text>
</a>
</g>
</g>
<!-- Node18&#45;&gt;Node19 -->
<g id="edge10" class="edge"><title>Node18&#45;&gt;Node19</title>
<path fill="none" stroke="midnightblue" d="M124.299,-513.403C128.021,-510.619 131.849,-507.403 135,-504 155.355,-482.013 151.083,-469.385 171,-447 171.732,-446.177 172.503,-445.361 173.3,-444.557"/>
<polygon fill="midnightblue" stroke="midnightblue" points="175.787,-447.028 180.897,-437.747 171.115,-441.815 175.787,-447.028"/>
</g>
<!-- Node20 -->
<g id="node10" class="node"><title>Node20</title>
<g id="a_node10"><a xlink:href="bench_2btl_2libs_2BLAS_2blas_8h.html#a4e298686bdc17a46eb8cb46325106d7d" target="_top" xlink:title="sspmv">
<polygon fill="none" stroke="black" points="171.5,-494.5 171.5,-513.5 219.5,-513.5 219.5,-494.5 171.5,-494.5"/>
<text text-anchor="middle" x="195.5" y="-501.5" font-family="Helvetica,sans-Serif" font-size="10.00">sspmv</text>
</a>
</g>
</g>
<!-- Node18&#45;&gt;Node20 -->
<g id="edge11" class="edge"><title>Node18&#45;&gt;Node20</title>
<path fill="none" stroke="midnightblue" d="M130.511,-518.303C139.803,-516.226 150.954,-513.734 161.326,-511.415"/>
<polygon fill="midnightblue" stroke="midnightblue" points="162.344,-514.774 171.34,-509.177 160.817,-507.943 162.344,-514.774"/>
</g>
<!-- Node21 -->
<g id="node11" class="node"><title>Node21</title>
<g id="a_node11"><a xlink:href="bench_2btl_2libs_2BLAS_2blas_8h.html#ae25b5db26a06b035d69d0dc507792478" target="_top" xlink:title="ssymv">
<polygon fill="none" stroke="black" points="172,-456.5 172,-475.5 219,-475.5 219,-456.5 172,-456.5"/>
<text text-anchor="middle" x="195.5" y="-463.5" font-family="Helvetica,sans-Serif" font-size="10.00">ssymv</text>
</a>
</g>
</g>
<!-- Node18&#45;&gt;Node21 -->
<g id="edge12" class="edge"><title>Node18&#45;&gt;Node21</title>
<path fill="none" stroke="midnightblue" d="M123.919,-513.331C137.064,-504.516 156.697,-491.35 171.922,-481.141"/>
<polygon fill="midnightblue" stroke="midnightblue" points="173.938,-484.003 180.294,-475.526 170.039,-478.189 173.938,-484.003"/>
</g>
<!-- Node22&#45;&gt;Node15 -->
<g id="edge14" class="edge"><title>Node22&#45;&gt;Node15</title>
<path fill="none" stroke="midnightblue" d="M111.246,-171.582C115.583,-195.539 127.062,-259.995 135,-314 153.566,-440.316 108.866,-487.466 171,-599 171.303,-599.544 171.629,-600.079 171.974,-600.604"/>
<polygon fill="midnightblue" stroke="midnightblue" points="169.55,-603.141 178.862,-608.196 174.735,-598.438 169.55,-603.141"/>
</g>
<!-- Node22&#45;&gt;Node16 -->
<g id="edge15" class="edge"><title>Node22&#45;&gt;Node16</title>
<path fill="none" stroke="midnightblue" d="M111.295,-171.575C115.743,-195.516 127.458,-259.938 135,-314 144.978,-385.53 136.315,-573.652 171,-637 171.299,-637.546 171.621,-638.083 171.963,-638.61"/>
<polygon fill="midnightblue" stroke="midnightblue" points="169.527,-641.135 178.824,-646.217 174.726,-636.447 169.527,-641.135"/>
</g>
<!-- Node23 -->
<g id="node13" class="node"><title>Node23</title>
<g id="a_node13"><a xlink:href="bench_2btl_2libs_2BLAS_2blas_8h.html#af16217ad67e122b872e95f1df67c3ef1" target="_top" xlink:title="stbmv">
<polygon fill="none" stroke="black" points="172,-76.5 172,-95.5 219,-95.5 219,-76.5 172,-76.5"/>
<text text-anchor="middle" x="195.5" y="-83.5" font-family="Helvetica,sans-Serif" font-size="10.00">stbmv</text>
</a>
</g>
</g>
<!-- Node22&#45;&gt;Node23 -->
<g id="edge16" class="edge"><title>Node22&#45;&gt;Node23</title>
<path fill="none" stroke="midnightblue" d="M119.751,-152.1C131.803,-140.555 152.511,-121.01 171,-105 172.14,-104.013 173.321,-103.007 174.518,-102.001"/>
<polygon fill="midnightblue" stroke="midnightblue" points="176.911,-104.564 182.416,-95.5119 172.468,-99.1557 176.911,-104.564"/>
</g>
<!-- Node24 -->
<g id="node14" class="node"><title>Node24</title>
<g id="a_node14"><a xlink:href="bench_2btl_2libs_2BLAS_2blas_8h.html#aaddc6212105d85eec54e387d04ff8e43" target="_top" xlink:title="stbsv">
<polygon fill="none" stroke="black" points="174.5,-38.5 174.5,-57.5 216.5,-57.5 216.5,-38.5 174.5,-38.5"/>
<text text-anchor="middle" x="195.5" y="-45.5" font-family="Helvetica,sans-Serif" font-size="10.00">stbsv</text>
</a>
</g>
</g>
<!-- Node22&#45;&gt;Node24 -->
<g id="edge17" class="edge"><title>Node22&#45;&gt;Node24</title>
<path fill="none" stroke="midnightblue" d="M114.378,-152.414C123.79,-134.459 145.768,-95.0421 171,-67 171.737,-66.181 172.511,-65.3685 173.311,-64.5669"/>
<polygon fill="midnightblue" stroke="midnightblue" points="175.796,-67.0409 180.922,-57.7689 171.133,-61.8203 175.796,-67.0409"/>
</g>
<!-- Node25 -->
<g id="node15" class="node"><title>Node25</title>
<g id="a_node15"><a xlink:href="bench_2btl_2libs_2BLAS_2blas_8h.html#a12d2aff3c08b13fdce84d2591d4a12c3" target="_top" xlink:title="stpmv">
<polygon fill="none" stroke="black" points="172,-0.5 172,-19.5 219,-19.5 219,-0.5 172,-0.5"/>
<text text-anchor="middle" x="195.5" y="-7.5" font-family="Helvetica,sans-Serif" font-size="10.00">stpmv</text>
</a>
</g>
</g>
<!-- Node22&#45;&gt;Node25 -->
<g id="edge18" class="edge"><title>Node22&#45;&gt;Node25</title>
<path fill="none" stroke="midnightblue" d="M112.235,-152.496C119.185,-129.496 139.256,-69.7331 171,-29 171.564,-28.2758 172.161,-27.5618 172.784,-26.8601"/>
<polygon fill="midnightblue" stroke="midnightblue" points="175.271,-29.3248 180.109,-19.8989 170.449,-24.2507 175.271,-29.3248"/>
</g>
<!-- Node26 -->
<g id="node16" class="node"><title>Node26</title>
<g id="a_node16"><a xlink:href="bench_2btl_2libs_2BLAS_2blas_8h.html#aed4247e0c71c8b19f88ea5acf83ab8ef" target="_top" xlink:title="stpsv">
<polygon fill="none" stroke="black" points="174.5,-190.5 174.5,-209.5 216.5,-209.5 216.5,-190.5 174.5,-190.5"/>
<text text-anchor="middle" x="195.5" y="-197.5" font-family="Helvetica,sans-Serif" font-size="10.00">stpsv</text>
</a>
</g>
</g>
<!-- Node22&#45;&gt;Node26 -->
<g id="edge19" class="edge"><title>Node22&#45;&gt;Node26</title>
<path fill="none" stroke="midnightblue" d="M130.511,-171.393C140.958,-176.064 153.756,-181.785 165.153,-186.88"/>
<polygon fill="midnightblue" stroke="midnightblue" points="163.758,-190.09 174.316,-190.976 166.615,-183.7 163.758,-190.09"/>
</g>
<!-- Node27 -->
<g id="node17" class="node"><title>Node27</title>
<g id="a_node17"><a xlink:href="bench_2btl_2libs_2BLAS_2blas_8h.html#a8c34a24bd508795219d1f7b2c82336bd" target="_top" xlink:title="strmv">
<polygon fill="none" stroke="black" points="173.5,-152.5 173.5,-171.5 217.5,-171.5 217.5,-152.5 173.5,-152.5"/>
<text text-anchor="middle" x="195.5" y="-159.5" font-family="Helvetica,sans-Serif" font-size="10.00">strmv</text>
</a>
</g>
</g>
<!-- Node22&#45;&gt;Node27 -->
<g id="edge20" class="edge"><title>Node22&#45;&gt;Node27</title>
<path fill="none" stroke="midnightblue" d="M130.511,-162C140.421,-162 152.447,-162 163.385,-162"/>
<polygon fill="midnightblue" stroke="midnightblue" points="163.436,-165.5 173.436,-162 163.436,-158.5 163.436,-165.5"/>
</g>
<!-- Node28 -->
<g id="node18" class="node"><title>Node28</title>
<g id="a_node18"><a xlink:href="bench_2btl_2libs_2BLAS_2blas_8h.html#a404514769de88c9a62733dd5db132d97" target="_top" xlink:title="strsv">
<polygon fill="none" stroke="black" points="175.5,-114.5 175.5,-133.5 215.5,-133.5 215.5,-114.5 175.5,-114.5"/>
<text text-anchor="middle" x="195.5" y="-121.5" font-family="Helvetica,sans-Serif" font-size="10.00">strsv</text>
</a>
</g>
</g>
<!-- Node22&#45;&gt;Node28 -->
<g id="edge21" class="edge"><title>Node22&#45;&gt;Node28</title>
<path fill="none" stroke="midnightblue" d="M130.511,-152.607C141.265,-147.799 154.511,-141.878 166.155,-136.672"/>
<polygon fill="midnightblue" stroke="midnightblue" points="167.77,-139.784 175.471,-132.507 164.913,-133.393 167.77,-139.784"/>
</g>
<!-- Node29&#45;&gt;Node15 -->
<g id="edge24" class="edge"><title>Node29&#45;&gt;Node15</title>
<path fill="none" stroke="midnightblue" d="M130.511,-632.303C139.655,-630.259 150.601,-627.813 160.831,-625.526"/>
<polygon fill="midnightblue" stroke="midnightblue" points="161.735,-628.91 170.731,-623.313 160.208,-622.079 161.735,-628.91"/>
</g>
<!-- Node29&#45;&gt;Node16 -->
<g id="edge25" class="edge"><title>Node29&#45;&gt;Node16</title>
<path fill="none" stroke="midnightblue" d="M130.511,-641.697C139.803,-643.774 150.954,-646.266 161.326,-648.585"/>
<polygon fill="midnightblue" stroke="midnightblue" points="160.817,-652.057 171.34,-650.823 162.344,-645.226 160.817,-652.057"/>
</g>
<!-- Node30 -->
<g id="node20" class="node"><title>Node30</title>
<g id="a_node20"><a xlink:href="bench_2btl_2libs_2BLAS_2blas_8h.html#a4a5e76f07c2d95112cc12a5b1dc01631" target="_top" xlink:title="sger">
<polygon fill="none" stroke="black" points="176.5,-684.5 176.5,-703.5 214.5,-703.5 214.5,-684.5 176.5,-684.5"/>
<text text-anchor="middle" x="195.5" y="-691.5" font-family="Helvetica,sans-Serif" font-size="10.00">sger</text>
</a>
</g>
</g>
<!-- Node29&#45;&gt;Node30 -->
<g id="edge23" class="edge"><title>Node29&#45;&gt;Node30</title>
<path fill="none" stroke="midnightblue" d="M123.919,-646.669C137.064,-655.484 156.697,-668.65 171.922,-678.859"/>
<polygon fill="midnightblue" stroke="midnightblue" points="170.039,-681.811 180.294,-684.474 173.938,-675.997 170.039,-681.811"/>
</g>
<!-- Node31&#45;&gt;Node15 -->
<g id="edge27" class="edge"><title>Node31&#45;&gt;Node15</title>
<path fill="none" stroke="midnightblue" d="M125.314,-494.594C128.852,-497.297 132.34,-500.474 135,-504 162.193,-540.045 144.525,-562.424 171,-599 171.538,-599.744 172.113,-600.475 172.716,-601.191"/>
<polygon fill="midnightblue" stroke="midnightblue" points="170.335,-603.757 179.94,-608.228 175.219,-598.743 170.335,-603.757"/>
</g>
<!-- Node31&#45;&gt;Node16 -->
<g id="edge28" class="edge"><title>Node31&#45;&gt;Node16</title>
<path fill="none" stroke="midnightblue" d="M125.828,-494.619C129.264,-497.285 132.578,-500.44 135,-504 169.446,-554.632 137.562,-585.697 171,-637 171.501,-637.769 172.044,-638.522 172.62,-639.257"/>
<polygon fill="midnightblue" stroke="midnightblue" points="170.172,-641.759 179.7,-646.393 175.141,-636.829 170.172,-641.759"/>
</g>
<!-- Node32 -->
<g id="node22" class="node"><title>Node32</title>
<g id="a_node22"><a xlink:href="bench_2btl_2libs_2BLAS_2blas_8h.html#a7801664637671b70387a0a917e1ec24a" target="_top" xlink:title="sspr">
<polygon fill="none" stroke="black" points="177,-380.5 177,-399.5 214,-399.5 214,-380.5 177,-380.5"/>
<text text-anchor="middle" x="195.5" y="-387.5" font-family="Helvetica,sans-Serif" font-size="10.00">sspr</text>
</a>
</g>
</g>
<!-- Node31&#45;&gt;Node32 -->
<g id="edge29" class="edge"><title>Node31&#45;&gt;Node32</title>
<path fill="none" stroke="midnightblue" d="M116.291,-475.342C127.045,-460.36 149.032,-430.959 171,-409 171.918,-408.082 172.879,-407.164 173.865,-406.254"/>
<polygon fill="midnightblue" stroke="midnightblue" points="176.324,-408.756 181.64,-399.591 171.769,-403.44 176.324,-408.756"/>
</g>
<!-- Node33 -->
<g id="node23" class="node"><title>Node33</title>
<g id="a_node23"><a xlink:href="bench_2btl_2libs_2BLAS_2blas_8h.html#a84af4a997fb98befbb79bde451291e93" target="_top" xlink:title="ssyr">
<polygon fill="none" stroke="black" points="177.5,-342.5 177.5,-361.5 213.5,-361.5 213.5,-342.5 177.5,-342.5"/>
<text text-anchor="middle" x="195.5" y="-349.5" font-family="Helvetica,sans-Serif" font-size="10.00">ssyr</text>
</a>
</g>
</g>
<!-- Node31&#45;&gt;Node33 -->
<g id="edge30" class="edge"><title>Node31&#45;&gt;Node33</title>
<path fill="none" stroke="midnightblue" d="M113.161,-475.372C121.324,-454.72 142.561,-405.261 171,-371 171.704,-370.152 172.45,-369.316 173.227,-368.494"/>
<polygon fill="midnightblue" stroke="midnightblue" points="175.731,-370.948 180.742,-361.613 171.003,-365.785 175.731,-370.948"/>
</g>
<!-- Node34&#45;&gt;Node13 -->
<g id="edge33" class="edge"><title>Node34&#45;&gt;Node13</title>
<path fill="none" stroke="midnightblue" d="M110.637,-342.54C114.516,-371.874 129.378,-462.417 171,-523 171.52,-523.757 172.079,-524.499 172.668,-525.225"/>
<polygon fill="midnightblue" stroke="midnightblue" points="170.254,-527.76 179.821,-532.312 175.181,-522.787 170.254,-527.76"/>
</g>
<!-- Node34&#45;&gt;Node14 -->
<g id="edge34" class="edge"><title>Node34&#45;&gt;Node14</title>
<path fill="none" stroke="midnightblue" d="M111.297,-342.752C118.534,-381.345 146.336,-523.122 171,-561 171.501,-561.769 172.043,-562.522 172.619,-563.258"/>
<polygon fill="midnightblue" stroke="midnightblue" points="170.171,-565.759 179.698,-570.394 175.14,-560.83 170.171,-565.759"/>
</g>
<!-- Node34&#45;&gt;Node19 -->
<g id="edge36" class="edge"><title>Node34&#45;&gt;Node19</title>
<path fill="none" stroke="midnightblue" d="M116.291,-342.658C127.045,-357.64 149.032,-387.041 171,-409 171.918,-409.918 172.879,-410.836 173.865,-411.746"/>
<polygon fill="midnightblue" stroke="midnightblue" points="171.769,-414.56 181.64,-418.409 176.324,-409.244 171.769,-414.56"/>
</g>
<!-- Node34&#45;&gt;Node20 -->
<g id="edge37" class="edge"><title>Node34&#45;&gt;Node20</title>
<path fill="none" stroke="midnightblue" d="M111.626,-342.738C117.54,-368.171 136.088,-437.882 171,-485 171.547,-485.738 172.128,-486.463 172.738,-487.175"/>
<polygon fill="midnightblue" stroke="midnightblue" points="170.371,-489.755 179.994,-494.189 175.236,-484.722 170.371,-489.755"/>
</g>
<!-- Node34&#45;&gt;Node21 -->
<g id="edge40" class="edge"><title>Node34&#45;&gt;Node21</title>
<path fill="none" stroke="midnightblue" d="M113.161,-342.628C121.324,-363.28 142.561,-412.739 171,-447 171.704,-447.848 172.45,-448.684 173.227,-449.506"/>
<polygon fill="midnightblue" stroke="midnightblue" points="171.003,-452.215 180.742,-456.387 175.731,-447.052 171.003,-452.215"/>
</g>
<!-- Node34&#45;&gt;Node23 -->
<g id="edge43" class="edge"><title>Node34&#45;&gt;Node23</title>
<path fill="none" stroke="midnightblue" d="M109.996,-323.476C112.117,-290.507 122.679,-179.21 171,-105 171.501,-104.231 172.043,-103.478 172.619,-102.742"/>
<polygon fill="midnightblue" stroke="midnightblue" points="175.14,-105.17 179.698,-95.6058 170.171,-100.241 175.14,-105.17"/>
</g>
<!-- Node34&#45;&gt;Node24 -->
<g id="edge44" class="edge"><title>Node34&#45;&gt;Node24</title>
<path fill="none" stroke="midnightblue" d="M110.864,-323.398C116.991,-281.15 142.907,-111.904 171,-67 171.487,-66.2216 172.017,-65.4609 172.582,-64.719"/>
<polygon fill="midnightblue" stroke="midnightblue" points="175.11,-67.1407 179.607,-57.5478 170.109,-62.2424 175.11,-67.1407"/>
</g>
<!-- Node34&#45;&gt;Node25 -->
<g id="edge45" class="edge"><title>Node34&#45;&gt;Node25</title>
<path fill="none" stroke="midnightblue" d="M111.079,-323.186C119.054,-273.946 155.152,-55.1272 171,-29 171.476,-28.215 171.997,-27.4485 172.554,-26.7017"/>
<polygon fill="midnightblue" stroke="midnightblue" points="175.086,-29.119 179.537,-19.5047 170.062,-24.2446 175.086,-29.119"/>
</g>
<!-- Node34&#45;&gt;Node26 -->
<g id="edge46" class="edge"><title>Node34&#45;&gt;Node26</title>
<path fill="none" stroke="midnightblue" d="M113.161,-323.372C121.324,-302.72 142.561,-253.261 171,-219 171.704,-218.152 172.45,-217.316 173.227,-216.494"/>
<polygon fill="midnightblue" stroke="midnightblue" points="175.731,-218.948 180.742,-209.613 171.003,-213.785 175.731,-218.948"/>
</g>
<!-- Node34&#45;&gt;Node27 -->
<g id="edge47" class="edge"><title>Node34&#45;&gt;Node27</title>
<path fill="none" stroke="midnightblue" d="M111.626,-323.262C117.54,-297.829 136.088,-228.118 171,-181 171.547,-180.262 172.128,-179.537 172.738,-178.825"/>
<polygon fill="midnightblue" stroke="midnightblue" points="175.236,-181.278 179.994,-171.811 170.371,-176.245 175.236,-181.278"/>
</g>
<!-- Node34&#45;&gt;Node28 -->
<g id="edge48" class="edge"><title>Node34&#45;&gt;Node28</title>
<path fill="none" stroke="midnightblue" d="M110.637,-323.46C114.516,-294.126 129.378,-203.583 171,-143 171.52,-142.243 172.079,-141.501 172.668,-140.775"/>
<polygon fill="midnightblue" stroke="midnightblue" points="175.181,-143.213 179.821,-133.688 170.254,-138.24 175.181,-143.213"/>
</g>
<!-- Node34&#45;&gt;Node30 -->
<g id="edge35" class="edge"><title>Node34&#45;&gt;Node30</title>
<path fill="none" stroke="midnightblue" d="M111.418,-342.667C115.753,-364.584 126.582,-419.738 135,-466 151.875,-558.734 123.291,-593.709 171,-675 171.315,-675.537 171.652,-676.066 172.007,-676.585"/>
<polygon fill="midnightblue" stroke="midnightblue" points="169.621,-679.159 178.977,-684.13 174.763,-674.409 169.621,-679.159"/>
</g>
<!-- Node34&#45;&gt;Node32 -->
<g id="edge38" class="edge"><title>Node34&#45;&gt;Node32</title>
<path fill="none" stroke="midnightblue" d="M123.919,-342.669C137.064,-351.484 156.697,-364.65 171.922,-374.859"/>
<polygon fill="midnightblue" stroke="midnightblue" points="170.039,-377.811 180.294,-380.474 173.938,-371.997 170.039,-377.811"/>
</g>
<!-- Node34&#45;&gt;Node33 -->
<g id="edge41" class="edge"><title>Node34&#45;&gt;Node33</title>
<path fill="none" stroke="midnightblue" d="M130.511,-337.697C141.69,-340.195 155.561,-343.296 167.528,-345.971"/>
<polygon fill="midnightblue" stroke="midnightblue" points="166.915,-349.42 177.438,-348.186 168.442,-342.589 166.915,-349.42"/>
</g>
<!-- Node35 -->
<g id="node25" class="node"><title>Node35</title>
<g id="a_node25"><a xlink:href="cblat2_8f.html#af0279384c87f94223fdf27a4d97f4f7d" target="_top" xlink:title="chkxer">
<polygon fill="none" stroke="black" points="171.5,-228.5 171.5,-247.5 219.5,-247.5 219.5,-228.5 171.5,-228.5"/>
<text text-anchor="middle" x="195.5" y="-235.5" font-family="Helvetica,sans-Serif" font-size="10.00">chkxer</text>
</a>
</g>
</g>
<!-- Node34&#45;&gt;Node35 -->
<g id="edge32" class="edge"><title>Node34&#45;&gt;Node35</title>
<path fill="none" stroke="midnightblue" d="M116.291,-323.342C127.045,-308.36 149.032,-278.959 171,-257 171.918,-256.082 172.879,-255.164 173.865,-254.254"/>
<polygon fill="midnightblue" stroke="midnightblue" points="176.324,-256.756 181.64,-247.591 171.769,-251.44 176.324,-256.756"/>
</g>
<!-- Node36 -->
<g id="node26" class="node"><title>Node36</title>
<g id="a_node26"><a xlink:href="bench_2btl_2libs_2BLAS_2blas_8h.html#aa9ed7e7dabbbd9b9db055fc83389c9a6" target="_top" xlink:title="sspr2">
<polygon fill="none" stroke="black" points="174,-304.5 174,-323.5 217,-323.5 217,-304.5 174,-304.5"/>
<text text-anchor="middle" x="195.5" y="-311.5" font-family="Helvetica,sans-Serif" font-size="10.00">sspr2</text>
</a>
</g>
</g>
<!-- Node34&#45;&gt;Node36 -->
<g id="edge39" class="edge"><title>Node34&#45;&gt;Node36</title>
<path fill="none" stroke="midnightblue" d="M130.511,-328.303C140.496,-326.072 152.627,-323.36 163.632,-320.9"/>
<polygon fill="midnightblue" stroke="midnightblue" points="164.735,-324.24 173.73,-318.643 163.208,-317.408 164.735,-324.24"/>
</g>
<!-- Node37 -->
<g id="node27" class="node"><title>Node37</title>
<g id="a_node27"><a xlink:href="bench_2btl_2libs_2BLAS_2blas_8h.html#ae42328431260f7157725e30f35e953dd" target="_top" xlink:title="ssyr2">
<polygon fill="none" stroke="black" points="174.5,-266.5 174.5,-285.5 216.5,-285.5 216.5,-266.5 174.5,-266.5"/>
<text text-anchor="middle" x="195.5" y="-273.5" font-family="Helvetica,sans-Serif" font-size="10.00">ssyr2</text>
</a>
</g>
</g>
<!-- Node34&#45;&gt;Node37 -->
<g id="edge42" class="edge"><title>Node34&#45;&gt;Node37</title>
<path fill="none" stroke="midnightblue" d="M123.919,-323.331C137.064,-314.516 156.697,-301.35 171.922,-291.141"/>
<polygon fill="midnightblue" stroke="midnightblue" points="173.938,-294.003 180.294,-285.526 170.039,-288.189 173.938,-294.003"/>
</g>
<!-- Node38&#45;&gt;Node17 -->
<g id="edge50" class="edge"><title>Node38&#45;&gt;Node17</title>
<path fill="none" stroke="midnightblue" d="M135.114,-709.114C157.613,-713.584 191.161,-718.058 220,-713 228.824,-711.452 238.119,-708.546 246.396,-705.463"/>
<polygon fill="midnightblue" stroke="midnightblue" points="247.883,-708.639 255.885,-701.695 245.299,-702.133 247.883,-708.639"/>
</g>
</g>
</svg>
        <g id="navigator" transform="translate(0 0)" fill="#404254">
                <rect fill="#f2f5e9" fill-opacity="0.5" stroke="#606060" stroke-width=".5" x="0" y="0" width="60" height="60"/>
                <use id="zoomplus" xlink:href="#zoomPlus" x="17" y="9" onmousedown="handleZoom(evt,'in')"/>
                <use id="zoomminus" xlink:href="#zoomMin" x="42" y="9" onmousedown="handleZoom(evt,'out')"/>
                <use id="reset" xlink:href="#resetDef" x="30" y="36" onmousedown="handleReset()"/>
                <g id="arrowUp" xlink:href="#dirArrow" transform="translate(30 24)" onmousedown="handlePan(0,-1)">
                  <use xlink:href="#rim" fill="#404040">
                        <set attributeName="fill" to="#808080" begin="arrowUp.mouseover" end="arrowUp.mouseout"/>
                  </use>
                  <path fill="none" stroke="white" stroke-width="1.5" d="M0,-3.0v7 M-2.5,-0.5L0,-3.0L2.5,-0.5"/>
                </g>
                <g id="arrowRight" xlink:href="#dirArrow" transform="rotate(90) translate(36 -43)" onmousedown="handlePan(1,0)">
                  <use xlink:href="#rim" fill="#404040">
                        <set attributeName="fill" to="#808080" begin="arrowRight.mouseover" end="arrowRight.mouseout"/>
                  </use>
                  <path fill="none" stroke="white" stroke-width="1.5" d="M0,-3.0v7 M-2.5,-0.5L0,-3.0L2.5,-0.5"/>
                </g>
                <g id="arrowDown" xlink:href="#dirArrow" transform="rotate(180) translate(-30 -48)" onmousedown="handlePan(0,1)">
                  <use xlink:href="#rim" fill="#404040">
                        <set attributeName="fill" to="#808080" begin="arrowDown.mouseover" end="arrowDown.mouseout"/>
                  </use>
                  <path fill="none" stroke="white" stroke-width="1.5" d="M0,-3.0v7 M-2.5,-0.5L0,-3.0L2.5,-0.5"/>
                </g>
                <g id="arrowLeft" xlink:href="#dirArrow" transform="rotate(270) translate(-36 17)" onmousedown="handlePan(-1,0)">
                  <use xlink:href="#rim" fill="#404040">
                        <set attributeName="fill" to="#808080" begin="arrowLeft.mouseover" end="arrowLeft.mouseout"/>
                  </use>
                  <path fill="none" stroke="white" stroke-width="1.5" d="M0,-3.0v7 M-2.5,-0.5L0,-3.0L2.5,-0.5"/>
                </g>
        </g>
        <svg viewBox="0 0 15 15" width="100%" height="30px" preserveAspectRatio="xMaxYMin meet">
         <g id="arrow_out" transform="scale(0.3 0.3)">
          <a xlink:href="sblat3_8f_aeec1d20ed538f1a0d9a200b8c8747fd2_cgraph_org.svg" target="_base">
           <rect id="button" ry="5" rx="5" y="6" x="6" height="38" width="38"
                fill="#f2f5e9" fill-opacity="0.5" stroke="#606060" stroke-width="1.0"/>
           <path id="arrow"
             d="M 11.500037,31.436501 C 11.940474,20.09759 22.043105,11.32322 32.158766,21.979434 L 37.068811,17.246167 C 37.068811,17.246167 37.088388,32 37.088388,32 L 22.160133,31.978069 C 22.160133,31.978069 26.997745,27.140456 26.997745,27.140456 C 18.528582,18.264221 13.291696,25.230495 11.500037,31.436501 z"
             style="fill:#404040;"/>
          </a>
         </g>
        </svg>
</svg>
