<?xml version="1.0" encoding="UTF-8" standalone="no"?>
<!DOCTYPE svg PUBLIC "-//W3C//DTD SVG 1.1//EN"
 "http://www.w3.org/Graphics/SVG/1.1/DTD/svg11.dtd">
<!-- Generated by graphviz version 2.38.0 (20140413.2041)
 -->
<!-- Title: schk2 Pages: 1 -->
<svg width="212pt" height="104pt"
 viewBox="0.00 0.00 212.00 104.00" xmlns="http://www.w3.org/2000/svg" xmlns:xlink="http://www.w3.org/1999/xlink">
<g id="graph0" class="graph" transform="scale(1 1) rotate(0) translate(4 100)">
<title>schk2</title>
<!-- Node46 -->
<g id="node1" class="node"><title>Node46</title>
<polygon fill="#bfbfbf" stroke="black" points="0,-38.5 0,-57.5 44,-57.5 44,-38.5 0,-38.5"/>
<text text-anchor="middle" x="22" y="-45.5" font-family="Helvetica,sans-Serif" font-size="10.00">schk2</text>
</g>
<!-- Node47 -->
<g id="node2" class="node"><title>Node47</title>
<g id="a_node2"><a xlink:href="sblat2_8f.html#ab3dd038d965d574dd3a32935efd13747" target="_top" xlink:title="smake">
<polygon fill="none" stroke="black" points="82,-76.5 82,-95.5 131,-95.5 131,-76.5 82,-76.5"/>
<text text-anchor="middle" x="106.5" y="-83.5" font-family="Helvetica,sans-Serif" font-size="10.00">smake</text>
</a>
</g>
</g>
<!-- Node46&#45;&gt;Node47 -->
<g id="edge1" class="edge"><title>Node46&#45;&gt;Node47</title>
<path fill="none" stroke="midnightblue" d="M43.8182,-57.589C53.3934,-61.9994 64.9337,-67.3149 75.4294,-72.1493"/>
<polygon fill="midnightblue" stroke="midnightblue" points="74.1413,-75.4094 84.6884,-76.4141 77.0699,-69.0514 74.1413,-75.4094"/>
</g>
<!-- Node48 -->
<g id="node3" class="node"><title>Node48</title>
<g id="a_node3"><a xlink:href="sblat3_8f.html#a8b530541d1d90ba10621058fbabcf4e4" target="_top" xlink:title="smmch">
<polygon fill="none" stroke="black" points="80,-38.5 80,-57.5 133,-57.5 133,-38.5 80,-38.5"/>
<text text-anchor="middle" x="106.5" y="-45.5" font-family="Helvetica,sans-Serif" font-size="10.00">smmch</text>
</a>
</g>
</g>
<!-- Node46&#45;&gt;Node48 -->
<g id="edge2" class="edge"><title>Node46&#45;&gt;Node48</title>
<path fill="none" stroke="midnightblue" d="M44.2458,-48C52.0696,-48 61.1602,-48 69.9052,-48"/>
<polygon fill="midnightblue" stroke="midnightblue" points="69.9157,-51.5001 79.9157,-48 69.9156,-44.5001 69.9157,-51.5001"/>
</g>
<!-- Node50 -->
<g id="node5" class="node"><title>Node50</title>
<g id="a_node5"><a xlink:href="bench_2btl_2libs_2BLAS_2blas_8h.html#a0e45e1b6b3331796a326ab4e6740975d" target="_top" xlink:title="ssymm">
<polygon fill="none" stroke="black" points="80.5,-0.5 80.5,-19.5 132.5,-19.5 132.5,-0.5 80.5,-0.5"/>
<text text-anchor="middle" x="106.5" y="-7.5" font-family="Helvetica,sans-Serif" font-size="10.00">ssymm</text>
</a>
</g>
</g>
<!-- Node46&#45;&gt;Node50 -->
<g id="edge4" class="edge"><title>Node46&#45;&gt;Node50</title>
<path fill="none" stroke="midnightblue" d="M43.8182,-38.411C53.3934,-34.0006 64.9337,-28.6851 75.4294,-23.8507"/>
<polygon fill="midnightblue" stroke="midnightblue" points="77.0699,-26.9486 84.6884,-19.5859 74.1413,-20.5906 77.0699,-26.9486"/>
</g>
<!-- Node49 -->
<g id="node4" class="node"><title>Node49</title>
<g id="a_node4"><a xlink:href="ArrayCwiseUnaryOps_8h.html#a656b9217a2fcb6de59dc8d1eb3079cc7" target="_top" xlink:title="sqrt">
<polygon fill="none" stroke="black" points="169,-38.5 169,-57.5 204,-57.5 204,-38.5 169,-38.5"/>
<text text-anchor="middle" x="186.5" y="-45.5" font-family="Helvetica,sans-Serif" font-size="10.00">sqrt</text>
</a>
</g>
</g>
<!-- Node48&#45;&gt;Node49 -->
<g id="edge3" class="edge"><title>Node48&#45;&gt;Node49</title>
<path fill="none" stroke="midnightblue" d="M133.04,-48C141.196,-48 150.247,-48 158.502,-48"/>
<polygon fill="midnightblue" stroke="midnightblue" points="158.755,-51.5001 168.755,-48 158.755,-44.5001 158.755,-51.5001"/>
</g>
</g>
</svg>
