<?xml version="1.0" encoding="UTF-8" standalone="no"?>
<!DOCTYPE svg PUBLIC "-//W3C//DTD SVG 1.1//EN"
 "http://www.w3.org/Graphics/SVG/1.1/DTD/svg11.dtd">
<!-- Generated by graphviz version 2.38.0 (20140413.2041)
 -->
<!-- Title: schke Pages: 1 -->
<svg width="141pt" height="256pt"
 viewBox="0.00 0.00 141.00 256.00" xmlns="http://www.w3.org/2000/svg" xmlns:xlink="http://www.w3.org/1999/xlink">
<g id="graph0" class="graph" transform="scale(1 1) rotate(0) translate(4 252)">
<title>schke</title>
<!-- Node71 -->
<g id="node1" class="node"><title>Node71</title>
<polygon fill="#bfbfbf" stroke="black" points="0,-114.5 0,-133.5 44,-133.5 44,-114.5 0,-114.5"/>
<text text-anchor="middle" x="22" y="-121.5" font-family="Helvetica,sans-Serif" font-size="10.00">schke</text>
</g>
<!-- Node72 -->
<g id="node2" class="node"><title>Node72</title>
<g id="a_node2"><a xlink:href="cblat2_8f.html#af0279384c87f94223fdf27a4d97f4f7d" target="_top" xlink:title="chkxer">
<polygon fill="none" stroke="black" points="82.5,-228.5 82.5,-247.5 130.5,-247.5 130.5,-228.5 82.5,-228.5"/>
<text text-anchor="middle" x="106.5" y="-235.5" font-family="Helvetica,sans-Serif" font-size="10.00">chkxer</text>
</a>
</g>
</g>
<!-- Node71&#45;&gt;Node72 -->
<g id="edge1" class="edge"><title>Node71&#45;&gt;Node72</title>
<path fill="none" stroke="midnightblue" d="M27.2607,-133.709C35.5494,-151.87 55.2239,-191.615 80,-219 80.8751,-219.967 81.8058,-220.918 82.7745,-221.846"/>
<polygon fill="midnightblue" stroke="midnightblue" points="80.7376,-224.706 90.6483,-228.452 85.2365,-219.343 80.7376,-224.706"/>
</g>
<!-- Node73 -->
<g id="node3" class="node"><title>Node73</title>
<g id="a_node3"><a xlink:href="bench_2btl_2libs_2BLAS_2blas_8h.html#a3c93b4a538e9b2bba5097a0d2f76c095" target="_top" xlink:title="sgemm">
<polygon fill="none" stroke="black" points="80,-190.5 80,-209.5 133,-209.5 133,-190.5 80,-190.5"/>
<text text-anchor="middle" x="106.5" y="-197.5" font-family="Helvetica,sans-Serif" font-size="10.00">sgemm</text>
</a>
</g>
</g>
<!-- Node71&#45;&gt;Node73 -->
<g id="edge2" class="edge"><title>Node71&#45;&gt;Node73</title>
<path fill="none" stroke="midnightblue" d="M31.8828,-133.708C42.772,-145.41 62.0024,-165.44 80,-181 81.2921,-182.117 82.6443,-183.242 84.0232,-184.356"/>
<polygon fill="midnightblue" stroke="midnightblue" points="81.9245,-187.157 91.9805,-190.493 86.1997,-181.614 81.9245,-187.157"/>
</g>
<!-- Node74 -->
<g id="node4" class="node"><title>Node74</title>
<g id="a_node4"><a xlink:href="bench_2btl_2libs_2BLAS_2blas_8h.html#a0e45e1b6b3331796a326ab4e6740975d" target="_top" xlink:title="ssymm">
<polygon fill="none" stroke="black" points="80.5,-152.5 80.5,-171.5 132.5,-171.5 132.5,-152.5 80.5,-152.5"/>
<text text-anchor="middle" x="106.5" y="-159.5" font-family="Helvetica,sans-Serif" font-size="10.00">ssymm</text>
</a>
</g>
</g>
<!-- Node71&#45;&gt;Node74 -->
<g id="edge3" class="edge"><title>Node71&#45;&gt;Node74</title>
<path fill="none" stroke="midnightblue" d="M43.8182,-133.589C53.3934,-137.999 64.9337,-143.315 75.4294,-148.149"/>
<polygon fill="midnightblue" stroke="midnightblue" points="74.1413,-151.409 84.6884,-152.414 77.0699,-145.051 74.1413,-151.409"/>
</g>
<!-- Node75 -->
<g id="node5" class="node"><title>Node75</title>
<g id="a_node5"><a xlink:href="bench_2btl_2libs_2BLAS_2blas_8h.html#af0beadea43d84d50129486afaf054ba0" target="_top" xlink:title="ssyr2k">
<polygon fill="none" stroke="black" points="83,-114.5 83,-133.5 130,-133.5 130,-114.5 83,-114.5"/>
<text text-anchor="middle" x="106.5" y="-121.5" font-family="Helvetica,sans-Serif" font-size="10.00">ssyr2k</text>
</a>
</g>
</g>
<!-- Node71&#45;&gt;Node75 -->
<g id="edge4" class="edge"><title>Node71&#45;&gt;Node75</title>
<path fill="none" stroke="midnightblue" d="M44.2458,-124C52.9409,-124 63.2007,-124 72.8118,-124"/>
<polygon fill="midnightblue" stroke="midnightblue" points="72.8815,-127.5 82.8815,-124 72.8815,-120.5 72.8815,-127.5"/>
</g>
<!-- Node76 -->
<g id="node6" class="node"><title>Node76</title>
<g id="a_node6"><a xlink:href="bench_2btl_2libs_2BLAS_2blas_8h.html#a4e70dedcbc88cc809253e0760ae7cd35" target="_top" xlink:title="ssyrk">
<polygon fill="none" stroke="black" points="86,-76.5 86,-95.5 127,-95.5 127,-76.5 86,-76.5"/>
<text text-anchor="middle" x="106.5" y="-83.5" font-family="Helvetica,sans-Serif" font-size="10.00">ssyrk</text>
</a>
</g>
</g>
<!-- Node71&#45;&gt;Node76 -->
<g id="edge5" class="edge"><title>Node71&#45;&gt;Node76</title>
<path fill="none" stroke="midnightblue" d="M43.8182,-114.411C53.7865,-109.82 65.8844,-104.247 76.7165,-99.2579"/>
<polygon fill="midnightblue" stroke="midnightblue" points="78.2058,-102.425 85.8244,-95.0627 75.2773,-96.0674 78.2058,-102.425"/>
</g>
<!-- Node77 -->
<g id="node7" class="node"><title>Node77</title>
<g id="a_node7"><a xlink:href="bench_2btl_2libs_2BLAS_2blas_8h.html#a861ee9266ab9e1ef93e7ec99ba57d2fd" target="_top" xlink:title="strmm">
<polygon fill="none" stroke="black" points="82,-38.5 82,-57.5 131,-57.5 131,-38.5 82,-38.5"/>
<text text-anchor="middle" x="106.5" y="-45.5" font-family="Helvetica,sans-Serif" font-size="10.00">strmm</text>
</a>
</g>
</g>
<!-- Node71&#45;&gt;Node77 -->
<g id="edge6" class="edge"><title>Node71&#45;&gt;Node77</title>
<path fill="none" stroke="midnightblue" d="M31.8828,-114.292C42.772,-102.59 62.0024,-82.5598 80,-67 81.2921,-65.8829 82.6443,-64.7584 84.0232,-63.6444"/>
<polygon fill="midnightblue" stroke="midnightblue" points="86.1997,-66.3859 91.9805,-57.507 81.9245,-60.843 86.1997,-66.3859"/>
</g>
<!-- Node78 -->
<g id="node8" class="node"><title>Node78</title>
<g id="a_node8"><a xlink:href="bench_2btl_2libs_2BLAS_2blas_8h.html#a07c1d4736f59c1876cd6d9f89763a90c" target="_top" xlink:title="strsm">
<polygon fill="none" stroke="black" points="84.5,-0.5 84.5,-19.5 128.5,-19.5 128.5,-0.5 84.5,-0.5"/>
<text text-anchor="middle" x="106.5" y="-7.5" font-family="Helvetica,sans-Serif" font-size="10.00">strsm</text>
</a>
</g>
</g>
<!-- Node71&#45;&gt;Node78 -->
<g id="edge7" class="edge"><title>Node71&#45;&gt;Node78</title>
<path fill="none" stroke="midnightblue" d="M27.2607,-114.291C35.5494,-96.1298 55.2239,-56.3847 80,-29 80.8751,-28.0328 81.8058,-27.0823 82.7745,-26.1537"/>
<polygon fill="midnightblue" stroke="midnightblue" points="85.2365,-28.6568 90.6483,-19.5483 80.7376,-23.2939 85.2365,-28.6568"/>
</g>
</g>
</svg>
