<?xml version="1.0" encoding="UTF-8" standalone="no"?>
<!DOCTYPE svg PUBLIC "-//W3C//DTD SVG 1.1//EN"
 "http://www.w3.org/Graphics/SVG/1.1/DTD/svg11.dtd">
<!-- Generated by graphviz version 2.38.0 (20140413.2041)
 -->
<!-- Title: test_simplicial_cholesky_T Pages: 1 -->
<svg width="688pt" height="97pt"
 viewBox="0.00 0.00 688.00 96.50" xmlns="http://www.w3.org/2000/svg" xmlns:xlink="http://www.w3.org/1999/xlink">
<g id="graph0" class="graph" transform="scale(1 1) rotate(0) translate(4 92.5)">
<title>test_simplicial_cholesky_T</title>
<!-- Node8 -->
<g id="node1" class="node"><title>Node8</title>
<polygon fill="#bfbfbf" stroke="black" points="0,-19.5 0,-38.5 141,-38.5 141,-19.5 0,-19.5"/>
<text text-anchor="middle" x="70.5" y="-26.5" font-family="Helvetica,sans-Serif" font-size="10.00">test_simplicial_cholesky_T</text>
</g>
<!-- Node9 -->
<g id="node2" class="node"><title>Node9</title>
<g id="a_node2"><a xlink:href="sparse__solver_8h.html#a4ab206481ed9b282ac77a44ad3bf7293" target="_top" xlink:title="check_sparse_spd_determinant">
<polygon fill="none" stroke="black" points="177,-38.5 177,-57.5 346,-57.5 346,-38.5 177,-38.5"/>
<text text-anchor="middle" x="261.5" y="-45.5" font-family="Helvetica,sans-Serif" font-size="10.00">check_sparse_spd_determinant</text>
</a>
</g>
</g>
<!-- Node8&#45;&gt;Node9 -->
<g id="edge1" class="edge"><title>Node8&#45;&gt;Node9</title>
<path fill="none" stroke="midnightblue" d="M141.071,-35.994C149.469,-36.8381 158.149,-37.7107 166.82,-38.5824"/>
<polygon fill="midnightblue" stroke="midnightblue" points="166.677,-42.0856 176.977,-39.6035 167.377,-35.1207 166.677,-42.0856"/>
</g>
<!-- Node13 -->
<g id="node6" class="node"><title>Node13</title>
<g id="a_node6"><a xlink:href="sparse__solver_8h.html#a252bcfc3086db37e21b69ed1d125a107" target="_top" xlink:title="check_sparse_spd_solving">
<polygon fill="none" stroke="black" points="190,-0.5 190,-19.5 333,-19.5 333,-0.5 190,-0.5"/>
<text text-anchor="middle" x="261.5" y="-7.5" font-family="Helvetica,sans-Serif" font-size="10.00">check_sparse_spd_solving</text>
</a>
</g>
</g>
<!-- Node8&#45;&gt;Node13 -->
<g id="edge5" class="edge"><title>Node8&#45;&gt;Node13</title>
<path fill="none" stroke="midnightblue" d="M141.071,-22.006C153.612,-20.7453 166.784,-19.4212 179.614,-18.1314"/>
<polygon fill="midnightblue" stroke="midnightblue" points="180.211,-21.5891 189.811,-17.1063 179.511,-14.6242 180.211,-21.5891"/>
</g>
<!-- Node10 -->
<g id="node3" class="node"><title>Node10</title>
<g id="a_node3"><a xlink:href="sparse__solver_8h.html#a0738bf32820ffdebd9d56c39df80c6a8" target="_top" xlink:title="generate_sparse_spd\l_problem">
<polygon fill="none" stroke="black" points="382,-33 382,-63 502,-63 502,-33 382,-33"/>
<text text-anchor="start" x="390" y="-51" font-family="Helvetica,sans-Serif" font-size="10.00">generate_sparse_spd</text>
<text text-anchor="middle" x="442" y="-40" font-family="Helvetica,sans-Serif" font-size="10.00">_problem</text>
</a>
</g>
</g>
<!-- Node9&#45;&gt;Node10 -->
<g id="edge2" class="edge"><title>Node9&#45;&gt;Node10</title>
<path fill="none" stroke="midnightblue" d="M346.001,-48C354.645,-48 363.361,-48 371.824,-48"/>
<polygon fill="midnightblue" stroke="midnightblue" points="371.998,-51.5001 381.998,-48 371.998,-44.5001 371.998,-51.5001"/>
</g>
<!-- Node11 -->
<g id="node4" class="node"><title>Node11</title>
<g id="a_node4"><a xlink:href="classEigen_1_1IterativeSolverBase.html#ae778dd098bd5e6655625b20b1e9f15da" target="_top" xlink:title="Eigen::IterativeSolverBase\l::iterations">
<polygon fill="none" stroke="black" points="538,-58 538,-88 680,-88 680,-58 538,-58"/>
<text text-anchor="start" x="546" y="-76" font-family="Helvetica,sans-Serif" font-size="10.00">Eigen::IterativeSolverBase</text>
<text text-anchor="middle" x="609" y="-65" font-family="Helvetica,sans-Serif" font-size="10.00">::iterations</text>
</a>
</g>
</g>
<!-- Node10&#45;&gt;Node11 -->
<g id="edge3" class="edge"><title>Node10&#45;&gt;Node11</title>
<path fill="none" stroke="midnightblue" d="M502.103,-56.955C510.411,-58.2137 519.064,-59.5248 527.685,-60.831"/>
<polygon fill="midnightblue" stroke="midnightblue" points="527.357,-64.3212 537.768,-62.3588 528.405,-57.4002 527.357,-64.3212"/>
</g>
<!-- Node12 -->
<g id="node5" class="node"><title>Node12</title>
<g id="a_node5"><a xlink:href="classEigen_1_1IterativeSolverBase.html#a117c241af3fb1141ad0916a3cf3157ec" target="_top" xlink:title="Eigen::IterativeSolverBase\l::error">
<polygon fill="none" stroke="black" points="538,-9 538,-39 680,-39 680,-9 538,-9"/>
<text text-anchor="start" x="546" y="-27" font-family="Helvetica,sans-Serif" font-size="10.00">Eigen::IterativeSolverBase</text>
<text text-anchor="middle" x="609" y="-16" font-family="Helvetica,sans-Serif" font-size="10.00">::error</text>
</a>
</g>
</g>
<!-- Node10&#45;&gt;Node12 -->
<g id="edge4" class="edge"><title>Node10&#45;&gt;Node12</title>
<path fill="none" stroke="midnightblue" d="M502.103,-39.4032C510.411,-38.1948 519.064,-36.9362 527.685,-35.6822"/>
<polygon fill="midnightblue" stroke="midnightblue" points="528.376,-39.1186 537.768,-34.2155 527.368,-32.1915 528.376,-39.1186"/>
</g>
</g>
</svg>
