<?xml version="1.0" encoding="UTF-8" standalone="no"?>
<!DOCTYPE svg PUBLIC "-//W3C//DTD SVG 1.1//EN"
 "http://www.w3.org/Graphics/SVG/1.1/DTD/svg11.dtd">
<!-- Generated by graphviz version 2.38.0 (20140413.2041)
 -->
<!-- Title: initSparse Pages: 1 -->
<svg width="413pt" height="493pt"
 viewBox="0.00 0.00 413.00 493.00" xmlns="http://www.w3.org/2000/svg" xmlns:xlink="http://www.w3.org/1999/xlink">
<g id="graph0" class="graph" transform="scale(1 1) rotate(0) translate(4 489)">
<title>initSparse</title>
<!-- Node0 -->
<g id="node1" class="node"><title>Node0</title>
<polygon fill="#bfbfbf" stroke="black" points="0,-235.5 0,-254.5 65,-254.5 65,-235.5 0,-235.5"/>
<text text-anchor="middle" x="32.5" y="-242.5" font-family="Helvetica,sans-Serif" font-size="10.00">initSparse</text>
</g>
<!-- Node1 -->
<g id="node2" class="node"><title>Node1</title>
<g id="a_node2"><a xlink:href="namespacempfr.html#a5a122ccaca307a0719f9c9595c1a83bc" target="_top" xlink:title="mpfr::ai">
<polygon fill="none" stroke="black" points="149.5,-465.5 149.5,-484.5 202.5,-484.5 202.5,-465.5 149.5,-465.5"/>
<text text-anchor="middle" x="176" y="-472.5" font-family="Helvetica,sans-Serif" font-size="10.00">mpfr::ai</text>
</a>
</g>
</g>
<!-- Node0&#45;&gt;Node1 -->
<g id="edge1" class="edge"><title>Node0&#45;&gt;Node1</title>
<path fill="none" stroke="midnightblue" d="M33.5028,-254.669C34.0615,-287.972 40.5701,-398.994 101,-456 111.303,-465.719 125.885,-470.636 139.385,-473.066"/>
<polygon fill="midnightblue" stroke="midnightblue" points="139.018,-476.548 149.408,-474.477 139.994,-469.617 139.018,-476.548"/>
</g>
<!-- Node2 -->
<g id="node3" class="node"><title>Node2</title>
<g id="a_node3"><a xlink:href="classEigen_1_1PlainObjectBase.html#a10b8b33b7587da564415561aa246f78f" target="_top" xlink:title="Eigen::PlainObjectBase\l\&lt; Matrix\&lt; _Scalar, _Rows,\l _Cols, _Options, _MaxRows,\l _MaxCols \&gt; \&gt;::cols">
<polygon fill="none" stroke="black" points="101,-394 101,-446 251,-446 251,-394 101,-394"/>
<text text-anchor="start" x="109" y="-434" font-family="Helvetica,sans-Serif" font-size="10.00">Eigen::PlainObjectBase</text>
<text text-anchor="start" x="109" y="-423" font-family="Helvetica,sans-Serif" font-size="10.00">&lt; Matrix&lt; _Scalar, _Rows,</text>
<text text-anchor="start" x="109" y="-412" font-family="Helvetica,sans-Serif" font-size="10.00"> _Cols, _Options, _MaxRows,</text>
<text text-anchor="middle" x="176" y="-401" font-family="Helvetica,sans-Serif" font-size="10.00"> _MaxCols &gt; &gt;::cols</text>
</a>
</g>
</g>
<!-- Node0&#45;&gt;Node2 -->
<g id="edge2" class="edge"><title>Node0&#45;&gt;Node2</title>
<path fill="none" stroke="midnightblue" d="M35.795,-254.816C42.0731,-279.699 61.7403,-346.032 101,-385 101.807,-385.801 102.636,-386.586 103.484,-387.355"/>
<polygon fill="midnightblue" stroke="midnightblue" points="101.603,-390.334 111.593,-393.862 105.984,-384.874 101.603,-390.334"/>
</g>
<!-- Node4 -->
<g id="node5" class="node"><title>Node4</title>
<g id="a_node5"><a xlink:href="classEigen_1_1SparseMatrix.html#a0f42824d4a06ee1d1f6afbc4551c5896" target="_top" xlink:title="Eigen::SparseMatrix\l::innerSize">
<polygon fill="none" stroke="black" points="120,-345 120,-375 232,-375 232,-345 120,-345"/>
<text text-anchor="start" x="128" y="-363" font-family="Helvetica,sans-Serif" font-size="10.00">Eigen::SparseMatrix</text>
<text text-anchor="middle" x="176" y="-352" font-family="Helvetica,sans-Serif" font-size="10.00">::innerSize</text>
</a>
</g>
</g>
<!-- Node0&#45;&gt;Node4 -->
<g id="edge4" class="edge"><title>Node0&#45;&gt;Node4</title>
<path fill="none" stroke="midnightblue" d="M38.0069,-254.509C47.2258,-272.954 70.0109,-313.731 101,-336 104.03,-338.177 107.268,-340.164 110.633,-341.976"/>
<polygon fill="midnightblue" stroke="midnightblue" points="109.255,-345.197 119.784,-346.376 112.288,-338.889 109.255,-345.197"/>
</g>
<!-- Node5 -->
<g id="node6" class="node"><title>Node5</title>
<g id="a_node6"><a xlink:href="classEigen_1_1SparseMatrix.html#adcdc8e0393507f9de5559c8c28589c9b" target="_top" xlink:title="Eigen::SparseMatrix\l::insertByOuterInner">
<polygon fill="none" stroke="black" points="119.5,-296 119.5,-326 232.5,-326 232.5,-296 119.5,-296"/>
<text text-anchor="start" x="127.5" y="-314" font-family="Helvetica,sans-Serif" font-size="10.00">Eigen::SparseMatrix</text>
<text text-anchor="middle" x="176" y="-303" font-family="Helvetica,sans-Serif" font-size="10.00">::insertByOuterInner</text>
</a>
</g>
</g>
<!-- Node0&#45;&gt;Node5 -->
<g id="edge5" class="edge"><title>Node0&#45;&gt;Node5</title>
<path fill="none" stroke="midnightblue" d="M47.2214,-254.575C60.5192,-263.551 81.4857,-276.912 101,-286 105.719,-288.198 110.687,-290.299 115.723,-292.282"/>
<polygon fill="midnightblue" stroke="midnightblue" points="114.853,-295.694 125.444,-295.947 117.322,-289.144 114.853,-295.694"/>
</g>
<!-- Node6 -->
<g id="node7" class="node"><title>Node6</title>
<g id="a_node7"><a xlink:href="level1__impl_8h.html#a4e8e1c1bb9d4e05fc671fc133ec9dc9b" target="_top" xlink:title="int">
<polygon fill="none" stroke="black" points="161.5,-257.5 161.5,-276.5 190.5,-276.5 190.5,-257.5 161.5,-257.5"/>
<text text-anchor="middle" x="176" y="-264.5" font-family="Helvetica,sans-Serif" font-size="10.00">int</text>
</a>
</g>
</g>
<!-- Node0&#45;&gt;Node6 -->
<g id="edge6" class="edge"><title>Node0&#45;&gt;Node6</title>
<path fill="none" stroke="midnightblue" d="M65.2554,-249.937C91.2819,-253.984 127.547,-259.622 151.146,-263.291"/>
<polygon fill="midnightblue" stroke="midnightblue" points="150.896,-266.794 161.315,-264.872 151.971,-259.877 150.896,-266.794"/>
</g>
<!-- Node7 -->
<g id="node8" class="node"><title>Node7</title>
<g id="a_node8"><a xlink:href="classEigen_1_1SparseMatrix.html#a4e5f706cfae14d2eaec1ea1e234905f1" target="_top" xlink:title="Eigen::SparseMatrix\l::outerSize">
<polygon fill="none" stroke="black" points="120,-208 120,-238 232,-238 232,-208 120,-208"/>
<text text-anchor="start" x="128" y="-226" font-family="Helvetica,sans-Serif" font-size="10.00">Eigen::SparseMatrix</text>
<text text-anchor="middle" x="176" y="-215" font-family="Helvetica,sans-Serif" font-size="10.00">::outerSize</text>
</a>
</g>
</g>
<!-- Node0&#45;&gt;Node7 -->
<g id="edge7" class="edge"><title>Node0&#45;&gt;Node7</title>
<path fill="none" stroke="midnightblue" d="M65.2554,-240.063C78.423,-238.016 94.2114,-235.561 109.654,-233.16"/>
<polygon fill="midnightblue" stroke="midnightblue" points="110.378,-236.589 119.722,-231.595 109.303,-229.672 110.378,-236.589"/>
</g>
<!-- Node8 -->
<g id="node9" class="node"><title>Node8</title>
<g id="a_node9"><a xlink:href="classEigen_1_1SparseMatrix.html#a1518e58ac49bed0e2385b722a034f7d3" target="_top" xlink:title="Eigen::SparseMatrix\l::reserve">
<polygon fill="none" stroke="black" points="120,-159 120,-189 232,-189 232,-159 120,-159"/>
<text text-anchor="start" x="128" y="-177" font-family="Helvetica,sans-Serif" font-size="10.00">Eigen::SparseMatrix</text>
<text text-anchor="middle" x="176" y="-166" font-family="Helvetica,sans-Serif" font-size="10.00">::reserve</text>
</a>
</g>
</g>
<!-- Node0&#45;&gt;Node8 -->
<g id="edge8" class="edge"><title>Node0&#45;&gt;Node8</title>
<path fill="none" stroke="midnightblue" d="M45.3208,-235.464C58.3343,-225.329 80.181,-209.367 101,-199 105.512,-196.753 110.274,-194.632 115.119,-192.647"/>
<polygon fill="midnightblue" stroke="midnightblue" points="116.441,-195.888 124.491,-189 113.903,-189.364 116.441,-195.888"/>
</g>
<!-- Node9 -->
<g id="node10" class="node"><title>Node9</title>
<g id="a_node10"><a xlink:href="classEigen_1_1PlainObjectBase.html#aba7a925ce36c08ba2a08c90086f34718" target="_top" xlink:title="Eigen::PlainObjectBase\l\&lt; Matrix\&lt; _Scalar, _Rows,\l _Cols, _Options, _MaxRows,\l _MaxCols \&gt; \&gt;::rows">
<polygon fill="none" stroke="black" points="101,-88 101,-140 251,-140 251,-88 101,-88"/>
<text text-anchor="start" x="109" y="-128" font-family="Helvetica,sans-Serif" font-size="10.00">Eigen::PlainObjectBase</text>
<text text-anchor="start" x="109" y="-117" font-family="Helvetica,sans-Serif" font-size="10.00">&lt; Matrix&lt; _Scalar, _Rows,</text>
<text text-anchor="start" x="109" y="-106" font-family="Helvetica,sans-Serif" font-size="10.00"> _Cols, _Options, _MaxRows,</text>
<text text-anchor="middle" x="176" y="-95" font-family="Helvetica,sans-Serif" font-size="10.00"> _MaxCols &gt; &gt;::rows</text>
</a>
</g>
</g>
<!-- Node0&#45;&gt;Node9 -->
<g id="edge9" class="edge"><title>Node0&#45;&gt;Node9</title>
<path fill="none" stroke="midnightblue" d="M38.1903,-235.447C47.7305,-216.847 71.053,-175.373 101,-150 102.553,-148.684 104.163,-147.403 105.818,-146.157"/>
<polygon fill="midnightblue" stroke="midnightblue" points="108.176,-148.782 114.419,-140.221 104.2,-143.021 108.176,-148.782"/>
</g>
<!-- Node11 -->
<g id="node12" class="node"><title>Node11</title>
<g id="a_node12"><a xlink:href="classEigen_1_1SparseMatrix.html#ad3c7416090f913e8685523cb3ab7c2f7" target="_top" xlink:title="Eigen::SparseMatrix\l::setZero">
<polygon fill="none" stroke="black" points="120,-39 120,-69 232,-69 232,-39 120,-39"/>
<text text-anchor="start" x="128" y="-57" font-family="Helvetica,sans-Serif" font-size="10.00">Eigen::SparseMatrix</text>
<text text-anchor="middle" x="176" y="-46" font-family="Helvetica,sans-Serif" font-size="10.00">::setZero</text>
</a>
</g>
</g>
<!-- Node0&#45;&gt;Node11 -->
<g id="edge11" class="edge"><title>Node0&#45;&gt;Node11</title>
<path fill="none" stroke="midnightblue" d="M34.6471,-235.185C38.4824,-206.797 53.4286,-123.781 101,-79 103.97,-76.2043 107.263,-73.7204 110.764,-71.5137"/>
<polygon fill="midnightblue" stroke="midnightblue" points="112.715,-74.4363 119.823,-66.5795 109.367,-68.289 112.715,-74.4363"/>
</g>
<!-- Node12 -->
<g id="node13" class="node"><title>Node12</title>
<g id="a_node13"><a xlink:href="namespacestd.html#ad33a269e67f055aaa18f57f76b015387" target="_top" xlink:title="std::swap">
<polygon fill="none" stroke="black" points="145,-0.5 145,-19.5 207,-19.5 207,-0.5 145,-0.5"/>
<text text-anchor="middle" x="176" y="-7.5" font-family="Helvetica,sans-Serif" font-size="10.00">std::swap</text>
</a>
</g>
</g>
<!-- Node0&#45;&gt;Node12 -->
<g id="edge12" class="edge"><title>Node0&#45;&gt;Node12</title>
<path fill="none" stroke="midnightblue" d="M33.422,-235.108C33.7164,-201.036 39.466,-87.4405 101,-29 110.092,-20.3654 122.559,-15.5169 134.67,-12.8358"/>
<polygon fill="midnightblue" stroke="midnightblue" points="135.443,-16.2533 144.677,-11.0579 134.219,-9.36119 135.443,-16.2533"/>
</g>
<!-- Node3 -->
<g id="node4" class="node"><title>Node3</title>
<g id="a_node4"><a xlink:href="classEigen_1_1DenseStorage.html#aef23781f9dc545e8b3f6b75d6c05d777" target="_top" xlink:title="Eigen::DenseStorage\l::cols">
<polygon fill="none" stroke="black" points="287,-405 287,-435 405,-435 405,-405 287,-405"/>
<text text-anchor="start" x="295" y="-423" font-family="Helvetica,sans-Serif" font-size="10.00">Eigen::DenseStorage</text>
<text text-anchor="middle" x="346" y="-412" font-family="Helvetica,sans-Serif" font-size="10.00">::cols</text>
</a>
</g>
</g>
<!-- Node2&#45;&gt;Node3 -->
<g id="edge3" class="edge"><title>Node2&#45;&gt;Node3</title>
<path fill="none" stroke="midnightblue" d="M251.176,-420C259.675,-420 268.31,-420 276.726,-420"/>
<polygon fill="midnightblue" stroke="midnightblue" points="276.86,-423.5 286.86,-420 276.86,-416.5 276.86,-423.5"/>
</g>
<!-- Node10 -->
<g id="node11" class="node"><title>Node10</title>
<g id="a_node11"><a xlink:href="classEigen_1_1DenseStorage.html#a14b68f709f5fb46eeebb203266cc29b2" target="_top" xlink:title="Eigen::DenseStorage\l::rows">
<polygon fill="none" stroke="black" points="287,-99 287,-129 405,-129 405,-99 287,-99"/>
<text text-anchor="start" x="295" y="-117" font-family="Helvetica,sans-Serif" font-size="10.00">Eigen::DenseStorage</text>
<text text-anchor="middle" x="346" y="-106" font-family="Helvetica,sans-Serif" font-size="10.00">::rows</text>
</a>
</g>
</g>
<!-- Node9&#45;&gt;Node10 -->
<g id="edge10" class="edge"><title>Node9&#45;&gt;Node10</title>
<path fill="none" stroke="midnightblue" d="M251.176,-114C259.675,-114 268.31,-114 276.726,-114"/>
<polygon fill="midnightblue" stroke="midnightblue" points="276.86,-117.5 286.86,-114 276.86,-110.5 276.86,-117.5"/>
</g>
<!-- Node13 -->
<g id="node14" class="node"><title>Node13</title>
<g id="a_node14"><a xlink:href="namespacempfr.html#aa617cb4d22ad8120d69f10b306b97f19" target="_top" xlink:title="mpfr::swap">
<polygon fill="none" stroke="black" points="311.5,-0.5 311.5,-19.5 380.5,-19.5 380.5,-0.5 311.5,-0.5"/>
<text text-anchor="middle" x="346" y="-7.5" font-family="Helvetica,sans-Serif" font-size="10.00">mpfr::swap</text>
</a>
</g>
</g>
<!-- Node12&#45;&gt;Node13 -->
<g id="edge13" class="edge"><title>Node12&#45;&gt;Node13</title>
<path fill="none" stroke="midnightblue" d="M207.035,-10C233.292,-10 271.747,-10 301.393,-10"/>
<polygon fill="midnightblue" stroke="midnightblue" points="301.477,-13.5001 311.477,-10 301.477,-6.5001 301.477,-13.5001"/>
</g>
</g>
</svg>
