<?xml version="1.0" encoding="UTF-8" standalone="no"?>
<!DOCTYPE svg PUBLIC "-//W3C//DTD SVG 1.1//EN"
 "http://www.w3.org/Graphics/SVG/1.1/DTD/svg11.dtd">
<!-- Generated by graphviz version 2.38.0 (20140413.2041)
 -->
<!-- Title: /travis/libpairinteraction/eigen/bench/sparse_randomsetter.cpp Pages: 1 -->
<svg width="1592pt" height="218pt"
 viewBox="0.00 0.00 1592.00 218.00" xmlns="http://www.w3.org/2000/svg" xmlns:xlink="http://www.w3.org/1999/xlink">
<g id="graph0" class="graph" transform="scale(1 1) rotate(0) translate(4 214)">
<title>/travis/libpairinteraction/eigen/bench/sparse_randomsetter.cpp</title>
<!-- Node0 -->
<g id="node1" class="node"><title>Node0</title>
<polygon fill="#bfbfbf" stroke="black" points="329,-179.5 329,-209.5 533,-209.5 533,-179.5 329,-179.5"/>
<text text-anchor="start" x="337" y="-197.5" font-family="Helvetica,sans-Serif" font-size="10.00">/travis/libpairinteraction</text>
<text text-anchor="middle" x="431" y="-186.5" font-family="Helvetica,sans-Serif" font-size="10.00">/eigen/bench/sparse_randomsetter.cpp</text>
</g>
<!-- Node1 -->
<g id="node2" class="node"><title>Node1</title>
<polygon fill="none" stroke="#bfbfbf" points="203,-123.5 203,-142.5 241,-142.5 241,-123.5 203,-123.5"/>
<text text-anchor="middle" x="222" y="-130.5" font-family="Helvetica,sans-Serif" font-size="10.00">map</text>
</g>
<!-- Node0&#45;&gt;Node1 -->
<g id="edge1" class="edge"><title>Node0&#45;&gt;Node1</title>
<path fill="none" stroke="midnightblue" d="M378.569,-179.451C344.612,-170.22 299.224,-157.633 250.941,-143.205"/>
<polygon fill="midnightblue" stroke="midnightblue" points="251.833,-139.819 241.249,-140.296 249.82,-146.523 251.833,-139.819"/>
</g>
<!-- Node2 -->
<g id="node3" class="node"><title>Node2</title>
<polygon fill="none" stroke="#bfbfbf" points="259.5,-123.5 259.5,-142.5 344.5,-142.5 344.5,-123.5 259.5,-123.5"/>
<text text-anchor="middle" x="302" y="-130.5" font-family="Helvetica,sans-Serif" font-size="10.00">ext/hash_map</text>
</g>
<!-- Node0&#45;&gt;Node2 -->
<g id="edge2" class="edge"><title>Node0&#45;&gt;Node2</title>
<path fill="none" stroke="midnightblue" d="M400.429,-179.399C379.075,-169.55 350.785,-156.501 330.015,-146.922"/>
<polygon fill="midnightblue" stroke="midnightblue" points="331.317,-143.668 320.771,-142.658 328.385,-150.024 331.317,-143.668"/>
</g>
<!-- Node3 -->
<g id="node4" class="node"><title>Node3</title>
<polygon fill="none" stroke="#bfbfbf" points="362.5,-123.5 362.5,-142.5 499.5,-142.5 499.5,-123.5 362.5,-123.5"/>
<text text-anchor="middle" x="431" y="-130.5" font-family="Helvetica,sans-Serif" font-size="10.00">google/dense_hash_map</text>
</g>
<!-- Node0&#45;&gt;Node3 -->
<g id="edge3" class="edge"><title>Node0&#45;&gt;Node3</title>
<path fill="none" stroke="midnightblue" d="M431,-179.399C431,-171.466 431,-161.458 431,-152.858"/>
<polygon fill="midnightblue" stroke="midnightblue" points="434.5,-152.658 431,-142.658 427.5,-152.658 434.5,-152.658"/>
</g>
<!-- Node4 -->
<g id="node5" class="node"><title>Node4</title>
<polygon fill="none" stroke="#bfbfbf" points="518,-123.5 518,-142.5 658,-142.5 658,-123.5 518,-123.5"/>
<text text-anchor="middle" x="588" y="-130.5" font-family="Helvetica,sans-Serif" font-size="10.00">google/sparse_hash_map</text>
</g>
<!-- Node0&#45;&gt;Node4 -->
<g id="edge4" class="edge"><title>Node0&#45;&gt;Node4</title>
<path fill="none" stroke="midnightblue" d="M468.207,-179.399C494.784,-169.327 530.189,-155.909 555.605,-146.277"/>
<polygon fill="midnightblue" stroke="midnightblue" points="557.044,-149.475 565.155,-142.658 554.564,-142.929 557.044,-149.475"/>
</g>
<!-- Node5 -->
<g id="node6" class="node"><title>Node5</title>
<g id="a_node6"><a xlink:href="BenchSparseUtil_8h.html" target="_top" xlink:title="BenchSparseUtil.h">
<polygon fill="none" stroke="black" points="676.5,-123.5 676.5,-142.5 781.5,-142.5 781.5,-123.5 676.5,-123.5"/>
<text text-anchor="middle" x="729" y="-130.5" font-family="Helvetica,sans-Serif" font-size="10.00">BenchSparseUtil.h</text>
</a>
</g>
</g>
<!-- Node0&#45;&gt;Node5 -->
<g id="edge5" class="edge"><title>Node0&#45;&gt;Node5</title>
<path fill="none" stroke="midnightblue" d="M501.244,-179.475C554.901,-168.761 627.678,-154.23 676.384,-144.506"/>
<polygon fill="midnightblue" stroke="midnightblue" points="677.276,-147.897 686.397,-142.506 675.905,-141.032 677.276,-147.897"/>
</g>
<!-- Node6 -->
<g id="node7" class="node"><title>Node6</title>
<polygon fill="none" stroke="#bfbfbf" points="0,-62 0,-81 80,-81 80,-62 0,-62"/>
<text text-anchor="middle" x="40" y="-69" font-family="Helvetica,sans-Serif" font-size="10.00">Eigen/Sparse</text>
</g>
<!-- Node5&#45;&gt;Node6 -->
<g id="edge6" class="edge"><title>Node5&#45;&gt;Node6</title>
<path fill="none" stroke="midnightblue" d="M676.271,-124.046C673.138,-123.666 670.029,-123.314 667,-123 410.982,-96.4902 342.457,-131.802 89,-87 84.2797,-86.1656 79.3692,-85.0375 74.5591,-83.7769"/>
<polygon fill="midnightblue" stroke="midnightblue" points="75.4944,-80.4042 64.9195,-81.0547 73.5919,-87.1407 75.4944,-80.4042"/>
</g>
<!-- Node7 -->
<g id="node8" class="node"><title>Node7</title>
<g id="a_node8"><a xlink:href="BenchTimer_8h.html" target="_top" xlink:title="bench/BenchTimer.h">
<polygon fill="none" stroke="black" points="98,-62 98,-81 212,-81 212,-62 98,-62"/>
<text text-anchor="middle" x="155" y="-69" font-family="Helvetica,sans-Serif" font-size="10.00">bench/BenchTimer.h</text>
</a>
</g>
</g>
<!-- Node5&#45;&gt;Node7 -->
<g id="edge7" class="edge"><title>Node5&#45;&gt;Node7</title>
<path fill="none" stroke="midnightblue" d="M676.264,-124.112C673.132,-123.716 670.026,-123.341 667,-123 469.387,-100.705 417.681,-116.404 221,-87 214.14,-85.9744 206.928,-84.6491 199.893,-83.2172"/>
<polygon fill="midnightblue" stroke="midnightblue" points="200.283,-79.722 189.774,-81.0656 198.827,-86.5689 200.283,-79.722"/>
</g>
<!-- Node10 -->
<g id="node11" class="node"><title>Node10</title>
<polygon fill="none" stroke="#bfbfbf" points="230,-62 230,-81 262,-81 262,-62 230,-62"/>
<text text-anchor="middle" x="246" y="-69" font-family="Helvetica,sans-Serif" font-size="10.00">set</text>
</g>
<!-- Node5&#45;&gt;Node10 -->
<g id="edge10" class="edge"><title>Node5&#45;&gt;Node10</title>
<path fill="none" stroke="midnightblue" d="M676.26,-124.148C673.129,-123.743 670.025,-123.357 667,-123 491.491,-102.299 439.403,-140.596 271,-87 269.763,-86.6063 268.52,-86.144 267.286,-85.6311"/>
<polygon fill="midnightblue" stroke="midnightblue" points="268.717,-82.4318 258.219,-81.0044 265.535,-88.667 268.717,-82.4318"/>
</g>
<!-- Node11 -->
<g id="node12" class="node"><title>Node11</title>
<polygon fill="none" stroke="#bfbfbf" points="280,-62 280,-81 360,-81 360,-62 280,-62"/>
<text text-anchor="middle" x="320" y="-69" font-family="Helvetica,sans-Serif" font-size="10.00">gmm/gmm.h</text>
</g>
<!-- Node5&#45;&gt;Node11 -->
<g id="edge11" class="edge"><title>Node5&#45;&gt;Node11</title>
<path fill="none" stroke="midnightblue" d="M676.247,-124.255C673.119,-123.823 670.019,-123.401 667,-123 534.756,-105.416 499.642,-114.022 369,-87 364.748,-86.1206 360.332,-85.0475 355.968,-83.887"/>
<polygon fill="midnightblue" stroke="midnightblue" points="356.562,-80.4178 345.987,-81.0703 354.661,-87.1547 356.562,-80.4178"/>
</g>
<!-- Node12 -->
<g id="node13" class="node"><title>Node12</title>
<polygon fill="none" stroke="#bfbfbf" points="378,-62 378,-81 522,-81 522,-62 378,-62"/>
<text text-anchor="middle" x="450" y="-69" font-family="Helvetica,sans-Serif" font-size="10.00">boost/numeric/mtl/mtl.hpp</text>
</g>
<!-- Node5&#45;&gt;Node12 -->
<g id="edge12" class="edge"><title>Node5&#45;&gt;Node12</title>
<path fill="none" stroke="midnightblue" d="M689.026,-123.475C639.2,-112.849 554.026,-94.6847 499.95,-83.1524"/>
<polygon fill="midnightblue" stroke="midnightblue" points="500.41,-79.6719 489.9,-81.0091 498.95,-86.5179 500.41,-79.6719"/>
</g>
<!-- Node13 -->
<g id="node14" class="node"><title>Node13</title>
<polygon fill="none" stroke="#bfbfbf" points="540,-56.5 540,-86.5 654,-86.5 654,-56.5 540,-56.5"/>
<text text-anchor="start" x="548" y="-74.5" font-family="Helvetica,sans-Serif" font-size="10.00">boost/numeric/ublas</text>
<text text-anchor="middle" x="597" y="-63.5" font-family="Helvetica,sans-Serif" font-size="10.00">/vector.hpp</text>
</g>
<!-- Node5&#45;&gt;Node13 -->
<g id="edge13" class="edge"><title>Node5&#45;&gt;Node13</title>
<path fill="none" stroke="midnightblue" d="M710.088,-123.475C691.208,-114.965 661.601,-101.619 637.416,-90.718"/>
<polygon fill="midnightblue" stroke="midnightblue" points="638.665,-87.4416 628.11,-86.523 635.788,-93.8232 638.665,-87.4416"/>
</g>
<!-- Node14 -->
<g id="node15" class="node"><title>Node14</title>
<polygon fill="none" stroke="#bfbfbf" points="672,-56.5 672,-86.5 786,-86.5 786,-56.5 672,-56.5"/>
<text text-anchor="start" x="680" y="-74.5" font-family="Helvetica,sans-Serif" font-size="10.00">boost/numeric/ublas</text>
<text text-anchor="middle" x="729" y="-63.5" font-family="Helvetica,sans-Serif" font-size="10.00">/matrix.hpp</text>
</g>
<!-- Node5&#45;&gt;Node14 -->
<g id="edge14" class="edge"><title>Node5&#45;&gt;Node14</title>
<path fill="none" stroke="midnightblue" d="M729,-123.475C729,-116.471 729,-106.192 729,-96.6956"/>
<polygon fill="midnightblue" stroke="midnightblue" points="732.5,-96.5229 729,-86.523 725.5,-96.523 732.5,-96.5229"/>
</g>
<!-- Node15 -->
<g id="node16" class="node"><title>Node15</title>
<polygon fill="none" stroke="#bfbfbf" points="804,-56.5 804,-86.5 918,-86.5 918,-56.5 804,-56.5"/>
<text text-anchor="start" x="812" y="-74.5" font-family="Helvetica,sans-Serif" font-size="10.00">boost/numeric/ublas</text>
<text text-anchor="middle" x="861" y="-63.5" font-family="Helvetica,sans-Serif" font-size="10.00">/io.hpp</text>
</g>
<!-- Node5&#45;&gt;Node15 -->
<g id="edge15" class="edge"><title>Node5&#45;&gt;Node15</title>
<path fill="none" stroke="midnightblue" d="M747.912,-123.475C766.792,-114.965 796.399,-101.619 820.584,-90.718"/>
<polygon fill="midnightblue" stroke="midnightblue" points="822.212,-93.8232 829.89,-86.523 819.335,-87.4416 822.212,-93.8232"/>
</g>
<!-- Node16 -->
<g id="node17" class="node"><title>Node16</title>
<polygon fill="none" stroke="#bfbfbf" points="936,-56.5 936,-86.5 1050,-86.5 1050,-56.5 936,-56.5"/>
<text text-anchor="start" x="944" y="-74.5" font-family="Helvetica,sans-Serif" font-size="10.00">boost/numeric/ublas</text>
<text text-anchor="middle" x="993" y="-63.5" font-family="Helvetica,sans-Serif" font-size="10.00">/triangular.hpp</text>
</g>
<!-- Node5&#45;&gt;Node16 -->
<g id="edge16" class="edge"><title>Node5&#45;&gt;Node16</title>
<path fill="none" stroke="midnightblue" d="M766.825,-123.475C808.261,-114.136 875.53,-98.9753 925.955,-87.6106"/>
<polygon fill="midnightblue" stroke="midnightblue" points="926.817,-91.0042 935.802,-85.3911 925.277,-84.1755 926.817,-91.0042"/>
</g>
<!-- Node17 -->
<g id="node18" class="node"><title>Node17</title>
<polygon fill="none" stroke="#bfbfbf" points="1068,-56.5 1068,-86.5 1182,-86.5 1182,-56.5 1068,-56.5"/>
<text text-anchor="start" x="1076" y="-74.5" font-family="Helvetica,sans-Serif" font-size="10.00">boost/numeric/ublas</text>
<text text-anchor="middle" x="1125" y="-63.5" font-family="Helvetica,sans-Serif" font-size="10.00">/vector_sparse.hpp</text>
</g>
<!-- Node5&#45;&gt;Node17 -->
<g id="edge17" class="edge"><title>Node5&#45;&gt;Node17</title>
<path fill="none" stroke="midnightblue" d="M781.5,-126.167C844.739,-118.846 954.386,-105.213 1057.83,-87.1231"/>
<polygon fill="midnightblue" stroke="midnightblue" points="1058.58,-90.5447 1067.82,-85.3585 1057.36,-83.6514 1058.58,-90.5447"/>
</g>
<!-- Node18 -->
<g id="node19" class="node"><title>Node18</title>
<polygon fill="none" stroke="#bfbfbf" points="1200,-56.5 1200,-86.5 1314,-86.5 1314,-56.5 1200,-56.5"/>
<text text-anchor="start" x="1208" y="-74.5" font-family="Helvetica,sans-Serif" font-size="10.00">boost/numeric/ublas</text>
<text text-anchor="middle" x="1257" y="-63.5" font-family="Helvetica,sans-Serif" font-size="10.00">/matrix_sparse.hpp</text>
</g>
<!-- Node5&#45;&gt;Node18 -->
<g id="edge18" class="edge"><title>Node5&#45;&gt;Node18</title>
<path fill="none" stroke="midnightblue" d="M781.568,-128.926C865.722,-123.558 1036.02,-110.856 1189.74,-87.0767"/>
<polygon fill="midnightblue" stroke="midnightblue" points="1190.5,-90.5 1199.84,-85.4943 1189.42,-83.5843 1190.5,-90.5"/>
</g>
<!-- Node19 -->
<g id="node20" class="node"><title>Node19</title>
<polygon fill="none" stroke="#bfbfbf" points="1332.5,-56.5 1332.5,-86.5 1451.5,-86.5 1451.5,-56.5 1332.5,-56.5"/>
<text text-anchor="start" x="1340.5" y="-74.5" font-family="Helvetica,sans-Serif" font-size="10.00">boost/numeric/ublas</text>
<text text-anchor="middle" x="1392" y="-63.5" font-family="Helvetica,sans-Serif" font-size="10.00">/vector_of_vector.hpp</text>
</g>
<!-- Node5&#45;&gt;Node19 -->
<g id="edge19" class="edge"><title>Node5&#45;&gt;Node19</title>
<path fill="none" stroke="midnightblue" d="M781.694,-130.335C883.989,-126.597 1116.71,-115.631 1322.17,-86.9808"/>
<polygon fill="midnightblue" stroke="midnightblue" points="1322.83,-90.4225 1332.25,-85.5589 1321.85,-83.4912 1322.83,-90.4225"/>
</g>
<!-- Node20 -->
<g id="node21" class="node"><title>Node20</title>
<polygon fill="none" stroke="#bfbfbf" points="1470,-56.5 1470,-86.5 1584,-86.5 1584,-56.5 1470,-56.5"/>
<text text-anchor="start" x="1478" y="-74.5" font-family="Helvetica,sans-Serif" font-size="10.00">boost/numeric/ublas</text>
<text text-anchor="middle" x="1527" y="-63.5" font-family="Helvetica,sans-Serif" font-size="10.00">/operation.hpp</text>
</g>
<!-- Node5&#45;&gt;Node20 -->
<g id="edge20" class="edge"><title>Node5&#45;&gt;Node20</title>
<path fill="none" stroke="midnightblue" d="M781.647,-131.553C900.829,-129.942 1200.44,-122.519 1459.87,-87.0047"/>
<polygon fill="midnightblue" stroke="midnightblue" points="1460.44,-90.4603 1469.86,-85.6208 1459.47,-83.5266 1460.44,-90.4603"/>
</g>
<!-- Node8 -->
<g id="node9" class="node"><title>Node8</title>
<polygon fill="none" stroke="#bfbfbf" points="87.5,-0.5 87.5,-19.5 142.5,-19.5 142.5,-0.5 87.5,-0.5"/>
<text text-anchor="middle" x="115" y="-7.5" font-family="Helvetica,sans-Serif" font-size="10.00">unistd.h</text>
</g>
<!-- Node7&#45;&gt;Node8 -->
<g id="edge8" class="edge"><title>Node7&#45;&gt;Node8</title>
<path fill="none" stroke="midnightblue" d="M149.269,-61.9751C143.328,-53.1384 133.883,-39.0886 126.412,-27.975"/>
<polygon fill="midnightblue" stroke="midnightblue" points="129.204,-25.8554 120.72,-19.5091 123.395,-29.7608 129.204,-25.8554"/>
</g>
<!-- Node9 -->
<g id="node10" class="node"><title>Node9</title>
<polygon fill="none" stroke="#bfbfbf" points="161,-0.5 161,-19.5 229,-19.5 229,-0.5 161,-0.5"/>
<text text-anchor="middle" x="195" y="-7.5" font-family="Helvetica,sans-Serif" font-size="10.00">Eigen/Core</text>
</g>
<!-- Node7&#45;&gt;Node9 -->
<g id="edge9" class="edge"><title>Node7&#45;&gt;Node9</title>
<path fill="none" stroke="midnightblue" d="M160.731,-61.9751C166.672,-53.1384 176.117,-39.0886 183.588,-27.975"/>
<polygon fill="midnightblue" stroke="midnightblue" points="186.605,-29.7608 189.28,-19.5091 180.796,-25.8554 186.605,-29.7608"/>
</g>
</g>
</svg>
