<?xml version="1.0" encoding="UTF-8" standalone="no"?>
<!DOCTYPE svg PUBLIC "-//W3C//DTD SVG 1.1//EN"
 "http://www.w3.org/Graphics/SVG/1.1/DTD/svg11.dtd">
<!-- Generated by graphviz version 2.38.0 (20140413.2041)
 -->
<!-- Title: check_sparse_leastsquare_solving Pages: 1 -->
<svg width="352pt" height="39pt"
 viewBox="0.00 0.00 352.00 39.00" xmlns="http://www.w3.org/2000/svg" xmlns:xlink="http://www.w3.org/1999/xlink">
<g id="graph0" class="graph" transform="scale(1 1) rotate(0) translate(4 35)">
<title>check_sparse_leastsquare_solving</title>
<!-- Node6 -->
<g id="node1" class="node"><title>Node6</title>
<polygon fill="#bfbfbf" stroke="black" points="0,-0.5 0,-30.5 143,-30.5 143,-0.5 0,-0.5"/>
<text text-anchor="start" x="8" y="-18.5" font-family="Helvetica,sans-Serif" font-size="10.00">check_sparse_leastsquare</text>
<text text-anchor="middle" x="71.5" y="-7.5" font-family="Helvetica,sans-Serif" font-size="10.00">_solving</text>
</g>
<!-- Node7 -->
<g id="node2" class="node"><title>Node7</title>
<g id="a_node2"><a xlink:href="lscg_8cpp.html#ae86b5d0fecebb22c09f4d9090181fcbb" target="_top" xlink:title="test_lscg_T">
<polygon fill="none" stroke="black" points="179,-6 179,-25 249,-25 249,-6 179,-6"/>
<text text-anchor="middle" x="214" y="-13" font-family="Helvetica,sans-Serif" font-size="10.00">test_lscg_T</text>
</a>
</g>
</g>
<!-- Node6&#45;&gt;Node7 -->
<g id="edge1" class="edge"><title>Node6&#45;&gt;Node7</title>
<path fill="none" stroke="midnightblue" d="M153.328,-15.5C162.273,-15.5 170.983,-15.5 178.861,-15.5"/>
<polygon fill="midnightblue" stroke="midnightblue" points="153.162,-12.0001 143.162,-15.5 153.162,-19.0001 153.162,-12.0001"/>
</g>
<!-- Node8 -->
<g id="node3" class="node"><title>Node8</title>
<g id="a_node3"><a xlink:href="lscg_8cpp.html#a31134dc06f086dd9a7ba79cf4b654735" target="_top" xlink:title="test_lscg">
<polygon fill="none" stroke="black" points="285,-6 285,-25 344,-25 344,-6 285,-6"/>
<text text-anchor="middle" x="314.5" y="-13" font-family="Helvetica,sans-Serif" font-size="10.00">test_lscg</text>
</a>
</g>
</g>
<!-- Node7&#45;&gt;Node8 -->
<g id="edge2" class="edge"><title>Node7&#45;&gt;Node8</title>
<path fill="none" stroke="midnightblue" d="M259.25,-15.5C267.972,-15.5 276.905,-15.5 284.94,-15.5"/>
<polygon fill="midnightblue" stroke="midnightblue" points="259.174,-12.0001 249.174,-15.5 259.174,-19.0001 259.174,-12.0001"/>
</g>
</g>
</svg>
