<?xml version="1.0" encoding="UTF-8" standalone="no"?>
<!DOCTYPE svg PUBLIC "-//W3C//DTD SVG 1.1//EN"
 "http://www.w3.org/Graphics/SVG/1.1/DTD/svg11.dtd">
<!-- Generated by graphviz version 2.38.0 (20140413.2041)
 -->
<!-- Title: check_sparse_solving Pages: 1 -->
<svg width="731pt" height="107pt"
 viewBox="0.00 0.00 731.00 107.00" xmlns="http://www.w3.org/2000/svg" xmlns:xlink="http://www.w3.org/1999/xlink">
<g id="graph0" class="graph" transform="scale(1 1) rotate(0) translate(4 103)">
<title>check_sparse_solving</title>
<!-- Node9 -->
<g id="node1" class="node"><title>Node9</title>
<polygon fill="#bfbfbf" stroke="black" points="0,-60.5 0,-79.5 120,-79.5 120,-60.5 0,-60.5"/>
<text text-anchor="middle" x="60" y="-67.5" font-family="Helvetica,sans-Serif" font-size="10.00">check_sparse_solving</text>
</g>
<!-- Node10 -->
<g id="node2" class="node"><title>Node10</title>
<g id="a_node2"><a xlink:href="sparse__permutations_8cpp.html#ad87822100feba90851ac71ba08fce30b" target="_top" xlink:title="eval">
<polygon fill="none" stroke="black" points="187.5,-79.5 187.5,-98.5 223.5,-98.5 223.5,-79.5 187.5,-79.5"/>
<text text-anchor="middle" x="205.5" y="-86.5" font-family="Helvetica,sans-Serif" font-size="10.00">eval</text>
</a>
</g>
</g>
<!-- Node9&#45;&gt;Node10 -->
<g id="edge1" class="edge"><title>Node9&#45;&gt;Node10</title>
<path fill="none" stroke="midnightblue" d="M120.195,-77.8377C139.892,-80.4457 160.892,-83.2261 177.005,-85.3596"/>
<polygon fill="midnightblue" stroke="midnightblue" points="176.931,-88.8802 187.304,-86.7232 177.85,-81.9408 176.931,-88.8802"/>
</g>
<!-- Node11 -->
<g id="node3" class="node"><title>Node11</title>
<g id="a_node3"><a xlink:href="sparse__solver_8h.html#a61fc17617f5be6e4bac3faa50cd3790c" target="_top" xlink:title="solve_with_guess">
<polygon fill="none" stroke="black" points="156,-41.5 156,-60.5 255,-60.5 255,-41.5 156,-41.5"/>
<text text-anchor="middle" x="205.5" y="-48.5" font-family="Helvetica,sans-Serif" font-size="10.00">solve_with_guess</text>
</a>
</g>
</g>
<!-- Node9&#45;&gt;Node11 -->
<g id="edge2" class="edge"><title>Node9&#45;&gt;Node11</title>
<path fill="none" stroke="midnightblue" d="M120.195,-62.1623C128.648,-61.0431 137.341,-59.8922 145.784,-58.7742"/>
<polygon fill="midnightblue" stroke="midnightblue" points="146.473,-62.2137 155.927,-57.4313 145.554,-55.2742 146.473,-62.2137"/>
</g>
<!-- Node12 -->
<g id="node4" class="node"><title>Node12</title>
<g id="a_node4"><a xlink:href="classEigen_1_1SparseSolverBase.html#ad213fb2c2199ca597b96f1f79653637f" target="_top" xlink:title="Eigen::SparseSolverBase\l::derived">
<polygon fill="none" stroke="black" points="291,-58 291,-88 428,-88 428,-58 291,-58"/>
<text text-anchor="start" x="299" y="-76" font-family="Helvetica,sans-Serif" font-size="10.00">Eigen::SparseSolverBase</text>
<text text-anchor="middle" x="359.5" y="-65" font-family="Helvetica,sans-Serif" font-size="10.00">::derived</text>
</a>
</g>
</g>
<!-- Node11&#45;&gt;Node12 -->
<g id="edge3" class="edge"><title>Node11&#45;&gt;Node12</title>
<path fill="none" stroke="midnightblue" d="M255.012,-58.0214C263.281,-59.2183 272.052,-60.4878 280.853,-61.7616"/>
<polygon fill="midnightblue" stroke="midnightblue" points="280.378,-65.2293 290.777,-63.1979 281.381,-58.3015 280.378,-65.2293"/>
</g>
<!-- Node13 -->
<g id="node5" class="node"><title>Node13</title>
<g id="a_node5"><a xlink:href="namespacemodel__potential.html#a019305fe72ae4cbefbb599bb897d9be0" target="_top" xlink:title="Helper function for Numerov&#39;s method.s. ">
<polygon fill="none" stroke="black" points="306.5,-19.5 306.5,-38.5 412.5,-38.5 412.5,-19.5 306.5,-19.5"/>
<text text-anchor="middle" x="359.5" y="-26.5" font-family="Helvetica,sans-Serif" font-size="10.00">model_potential::g</text>
</a>
</g>
</g>
<!-- Node11&#45;&gt;Node13 -->
<g id="edge4" class="edge"><title>Node11&#45;&gt;Node13</title>
<path fill="none" stroke="midnightblue" d="M255.012,-43.9786C268.155,-42.0762 282.567,-39.9903 296.349,-37.9955"/>
<polygon fill="midnightblue" stroke="midnightblue" points="296.851,-41.4594 306.247,-36.563 295.848,-34.5316 296.851,-41.4594"/>
</g>
<!-- Node14 -->
<g id="node6" class="node"><title>Node14</title>
<g id="a_node6"><a xlink:href="namespacemodel__potential.html#a9af0bc4c48b7d3125624d27c83073c2d" target="_top" xlink:title="Calculate the model potentials. ">
<polygon fill="none" stroke="black" points="464,-19.5 464,-38.5 571,-38.5 571,-19.5 464,-19.5"/>
<text text-anchor="middle" x="517.5" y="-26.5" font-family="Helvetica,sans-Serif" font-size="10.00">model_potential::V</text>
</a>
</g>
</g>
<!-- Node13&#45;&gt;Node14 -->
<g id="edge5" class="edge"><title>Node13&#45;&gt;Node14</title>
<path fill="none" stroke="midnightblue" d="M412.88,-29C425.999,-29 440.207,-29 453.773,-29"/>
<polygon fill="midnightblue" stroke="midnightblue" points="453.993,-32.5001 463.993,-29 453.993,-25.5001 453.993,-32.5001"/>
</g>
<!-- Node15 -->
<g id="node7" class="node"><title>Node15</title>
<g id="a_node7"><a xlink:href="ArrayCwiseUnaryOps_8h.html#a2500b5d4f377a445cb98d3f1facfa1cf" target="_top" xlink:title="exp">
<polygon fill="none" stroke="black" points="648,-38.5 648,-57.5 682,-57.5 682,-38.5 648,-38.5"/>
<text text-anchor="middle" x="665" y="-45.5" font-family="Helvetica,sans-Serif" font-size="10.00">exp</text>
</a>
</g>
</g>
<!-- Node14&#45;&gt;Node15 -->
<g id="edge6" class="edge"><title>Node14&#45;&gt;Node15</title>
<path fill="none" stroke="midnightblue" d="M571.029,-35.8594C593.756,-38.8272 619.343,-42.1685 637.913,-44.5934"/>
<polygon fill="midnightblue" stroke="midnightblue" points="637.591,-48.0811 647.96,-45.9055 638.498,-41.14 637.591,-48.0811"/>
</g>
<!-- Node16 -->
<g id="node8" class="node"><title>Node16</title>
<g id="a_node8"><a xlink:href="namespaceEigen_1_1half__impl.html#a829ad00a9c93131d5a8342b4ee29d83d" target="_top" xlink:title="Eigen::half_impl::pow">
<polygon fill="none" stroke="black" points="607,-0.5 607,-19.5 723,-19.5 723,-0.5 607,-0.5"/>
<text text-anchor="middle" x="665" y="-7.5" font-family="Helvetica,sans-Serif" font-size="10.00">Eigen::half_impl::pow</text>
</a>
</g>
</g>
<!-- Node14&#45;&gt;Node16 -->
<g id="edge7" class="edge"><title>Node14&#45;&gt;Node16</title>
<path fill="none" stroke="midnightblue" d="M571.029,-22.1406C579.337,-21.0557 588.027,-19.9209 596.616,-18.7992"/>
<polygon fill="midnightblue" stroke="midnightblue" points="597.163,-22.2577 606.625,-17.4923 596.256,-15.3167 597.163,-22.2577"/>
</g>
</g>
</svg>
