<?xml version="1.0" encoding="UTF-8" standalone="no"?>
<!DOCTYPE svg PUBLIC "-//W3C//DTD SVG 1.1//EN"
 "http://www.w3.org/Graphics/SVG/1.1/DTD/svg11.dtd">
<!-- Generated by graphviz version 2.38.0 (20140413.2041)
 -->
<!-- Title: test_precision&lt; float &gt; Pages: 1 -->
<svg width="389pt" height="28pt"
 viewBox="0.00 0.00 389.00 28.00" xmlns="http://www.w3.org/2000/svg" xmlns:xlink="http://www.w3.org/1999/xlink">
<g id="graph0" class="graph" transform="scale(1 1) rotate(0) translate(4 24)">
<title>test_precision&lt; float &gt;</title>
<!-- Node53 -->
<g id="node1" class="node"><title>Node53</title>
<polygon fill="#bfbfbf" stroke="black" points="0,-0.5 0,-19.5 127,-19.5 127,-0.5 0,-0.5"/>
<text text-anchor="middle" x="63.5" y="-7.5" font-family="Helvetica,sans-Serif" font-size="10.00">test_precision&lt; float &gt;</text>
</g>
<!-- Node54 -->
<g id="node2" class="node"><title>Node54</title>
<g id="a_node2"><a xlink:href="FFTW_8cpp.html#a76c6d3b33bc617e0346ecfc7ad46ea75" target="_top" xlink:title="test_return_by_value">
<polygon fill="none" stroke="black" points="163,-0.5 163,-19.5 280,-19.5 280,-0.5 163,-0.5"/>
<text text-anchor="middle" x="221.5" y="-7.5" font-family="Helvetica,sans-Serif" font-size="10.00">test_return_by_value</text>
</a>
</g>
</g>
<!-- Node53&#45;&gt;Node54 -->
<g id="edge1" class="edge"><title>Node53&#45;&gt;Node54</title>
<path fill="none" stroke="midnightblue" d="M137.157,-10C145.822,-10 154.575,-10 162.986,-10"/>
<polygon fill="midnightblue" stroke="midnightblue" points="137.052,-6.5001 127.052,-10 137.052,-13.5001 137.052,-6.5001"/>
</g>
<!-- Node55 -->
<g id="node3" class="node"><title>Node55</title>
<g id="a_node3"><a xlink:href="FFTW_8cpp.html#aa8ab13df64d91e3edab0aaa9ea75bbba" target="_top" xlink:title="test_FFTW">
<polygon fill="none" stroke="black" points="316,-0.5 316,-19.5 381,-19.5 381,-0.5 316,-0.5"/>
<text text-anchor="middle" x="348.5" y="-7.5" font-family="Helvetica,sans-Serif" font-size="10.00">test_FFTW</text>
</a>
</g>
</g>
<!-- Node54&#45;&gt;Node55 -->
<g id="edge2" class="edge"><title>Node54&#45;&gt;Node55</title>
<path fill="none" stroke="midnightblue" d="M290.335,-10C299.252,-10 308.024,-10 315.917,-10"/>
<polygon fill="midnightblue" stroke="midnightblue" points="290.243,-6.5001 280.243,-10 290.243,-13.5001 290.243,-6.5001"/>
</g>
</g>
</svg>
