<?xml version="1.0" encoding="UTF-8" standalone="no"?>
<!DOCTYPE svg PUBLIC "-//W3C//DTD SVG 1.1//EN"
 "http://www.w3.org/Graphics/SVG/1.1/DTD/svg11.dtd">
<!-- Generated by graphviz version 2.38.0 (20140413.2041)
 -->
<!-- Title: test_splines Pages: 1 -->
<svg width="1056pt" height="384pt"
 viewBox="0.00 0.00 1056.00 384.00" xmlns="http://www.w3.org/2000/svg" xmlns:xlink="http://www.w3.org/1999/xlink">
<g id="graph0" class="graph" transform="scale(1 1) rotate(0) translate(4 380)">
<title>test_splines</title>
<!-- Node44 -->
<g id="node1" class="node"><title>Node44</title>
<polygon fill="#bfbfbf" stroke="black" points="0,-104.5 0,-123.5 74,-123.5 74,-104.5 0,-104.5"/>
<text text-anchor="middle" x="37" y="-111.5" font-family="Helvetica,sans-Serif" font-size="10.00">test_splines</text>
</g>
<!-- Node45 -->
<g id="node2" class="node"><title>Node45</title>
<g id="a_node2"><a xlink:href="splines_8cpp.html#a77f0fc9d98ed14abf8a32e543f74e152" target="_top" xlink:title="check_global_interpolation2d">
<polygon fill="none" stroke="black" points="110,-142.5 110,-161.5 265,-161.5 265,-142.5 110,-142.5"/>
<text text-anchor="middle" x="187.5" y="-149.5" font-family="Helvetica,sans-Serif" font-size="10.00">check_global_interpolation2d</text>
</a>
</g>
</g>
<!-- Node44&#45;&gt;Node45 -->
<g id="edge1" class="edge"><title>Node44&#45;&gt;Node45</title>
<path fill="none" stroke="midnightblue" d="M73.8637,-123.574C85.3932,-126.622 98.2277,-129.985 110,-133 118.957,-135.294 128.514,-137.7 137.731,-140"/>
<polygon fill="midnightblue" stroke="midnightblue" points="137.006,-143.426 147.555,-142.444 138.695,-136.633 137.006,-143.426"/>
</g>
<!-- Node50 -->
<g id="node7" class="node"><title>Node50</title>
<g id="a_node7"><a xlink:href="splines_8cpp.html#a6cf977c6acde0519c1f7f5e7f428d0aa" target="_top" xlink:title="check_global_interpolation\l_with_derivatives2d">
<polygon fill="none" stroke="black" points="116,-291 116,-321 259,-321 259,-291 116,-291"/>
<text text-anchor="start" x="124" y="-309" font-family="Helvetica,sans-Serif" font-size="10.00">check_global_interpolation</text>
<text text-anchor="middle" x="187.5" y="-298" font-family="Helvetica,sans-Serif" font-size="10.00">_with_derivatives2d</text>
</a>
</g>
</g>
<!-- Node44&#45;&gt;Node50 -->
<g id="edge8" class="edge"><title>Node44&#45;&gt;Node50</title>
<path fill="none" stroke="midnightblue" d="M45.3641,-123.521C67.8124,-152.545 135.839,-240.498 168.552,-282.795"/>
<polygon fill="midnightblue" stroke="midnightblue" points="165.898,-285.084 174.784,-290.853 171.435,-280.801 165.898,-285.084"/>
</g>
<!-- Node58 -->
<g id="node15" class="node"><title>Node58</title>
<g id="a_node15"><a xlink:href="splines_8cpp.html#a0a4b6b0dbc4279a75342800becbcc7f7" target="_top" xlink:title="eval_closed_spline2d">
<polygon fill="none" stroke="black" points="129,-104.5 129,-123.5 246,-123.5 246,-104.5 129,-104.5"/>
<text text-anchor="middle" x="187.5" y="-111.5" font-family="Helvetica,sans-Serif" font-size="10.00">eval_closed_spline2d</text>
</a>
</g>
</g>
<!-- Node44&#45;&gt;Node58 -->
<g id="edge20" class="edge"><title>Node44&#45;&gt;Node58</title>
<path fill="none" stroke="midnightblue" d="M74.3272,-114C87.7806,-114 103.505,-114 118.85,-114"/>
<polygon fill="midnightblue" stroke="midnightblue" points="118.851,-117.5 128.851,-114 118.851,-110.5 118.851,-117.5"/>
</g>
<!-- Node60 -->
<g id="node17" class="node"><title>Node60</title>
<g id="a_node17"><a xlink:href="splines_8cpp.html#abf4f97135eec8460579ea43dfc7dc199" target="_top" xlink:title="eval_spline3d">
<polygon fill="none" stroke="black" points="147,-66.5 147,-85.5 228,-85.5 228,-66.5 147,-66.5"/>
<text text-anchor="middle" x="187.5" y="-73.5" font-family="Helvetica,sans-Serif" font-size="10.00">eval_spline3d</text>
</a>
</g>
</g>
<!-- Node44&#45;&gt;Node60 -->
<g id="edge23" class="edge"><title>Node44&#45;&gt;Node60</title>
<path fill="none" stroke="midnightblue" d="M73.8637,-104.426C85.3932,-101.378 98.2277,-98.015 110,-95 118.957,-92.7061 128.514,-90.2996 137.731,-87.9997"/>
<polygon fill="midnightblue" stroke="midnightblue" points="138.695,-91.3666 147.555,-85.5563 137.006,-84.5736 138.695,-91.3666"/>
</g>
<!-- Node62 -->
<g id="node19" class="node"><title>Node62</title>
<g id="a_node19"><a xlink:href="splines_8cpp.html#a64a1a305f8293c46d0acfdd57c558794" target="_top" xlink:title="eval_spline3d_onbrks">
<polygon fill="none" stroke="black" points="128,-28.5 128,-47.5 247,-47.5 247,-28.5 128,-28.5"/>
<text text-anchor="middle" x="187.5" y="-35.5" font-family="Helvetica,sans-Serif" font-size="10.00">eval_spline3d_onbrks</text>
</a>
</g>
</g>
<!-- Node44&#45;&gt;Node62 -->
<g id="edge26" class="edge"><title>Node44&#45;&gt;Node62</title>
<path fill="none" stroke="midnightblue" d="M47.3206,-104.404C60.2276,-91.6726 84.8142,-69.3699 110,-57 114.913,-54.5869 120.159,-52.464 125.513,-50.5995"/>
<polygon fill="midnightblue" stroke="midnightblue" points="126.748,-53.8795 135.219,-47.5158 124.629,-47.2081 126.748,-53.8795"/>
</g>
<!-- Node46 -->
<g id="node3" class="node"><title>Node46</title>
<g id="a_node3"><a xlink:href="group__Splines__Module.html#ga1b4cbde5d98411405871accf877552d2" target="_top" xlink:title="Computes chord length parameters which are required for spline interpolation. ">
<polygon fill="none" stroke="black" points="487.5,-230.5 487.5,-249.5 603.5,-249.5 603.5,-230.5 487.5,-230.5"/>
<text text-anchor="middle" x="545.5" y="-237.5" font-family="Helvetica,sans-Serif" font-size="10.00">Eigen::ChordLengths</text>
</a>
</g>
</g>
<!-- Node45&#45;&gt;Node46 -->
<g id="edge2" class="edge"><title>Node45&#45;&gt;Node46</title>
<path fill="none" stroke="midnightblue" d="M200.075,-161.542C219.524,-176.959 260.611,-206.937 301,-220 358.579,-238.623 427.609,-242.701 477.443,-242.661"/>
<polygon fill="midnightblue" stroke="midnightblue" points="477.481,-246.161 487.459,-242.597 477.437,-239.161 477.481,-246.161"/>
</g>
<!-- Node47 -->
<g id="node4" class="node"><title>Node47</title>
<g id="a_node4"><a xlink:href="common_8h.html#a94360d20ee722c1bcb23e5b2fbba8554" target="_top" xlink:title="matrix">
<polygon fill="none" stroke="black" points="672,-175.5 672,-194.5 719,-194.5 719,-175.5 672,-175.5"/>
<text text-anchor="middle" x="695.5" y="-182.5" font-family="Helvetica,sans-Serif" font-size="10.00">matrix</text>
</a>
</g>
</g>
<!-- Node45&#45;&gt;Node47 -->
<g id="edge7" class="edge"><title>Node45&#45;&gt;Node47</title>
<path fill="none" stroke="midnightblue" d="M265.076,-156.994C377.219,-164.308 581.45,-177.627 661.273,-182.833"/>
<polygon fill="midnightblue" stroke="midnightblue" points="661.481,-186.354 671.688,-183.512 661.937,-179.369 661.481,-186.354"/>
</g>
<!-- Node48 -->
<g id="node5" class="node"><title>Node48</title>
<g id="a_node5"><a xlink:href="Cwise__array__power__array_8cpp.html#aa9e3025f5efca2c2a39d785652f2d710" target="_top" xlink:title="e">
<polygon fill="none" stroke="black" points="360.5,-66.5 360.5,-85.5 389.5,-85.5 389.5,-66.5 360.5,-66.5"/>
<text text-anchor="middle" x="375" y="-73.5" font-family="Helvetica,sans-Serif" font-size="10.00">e</text>
</a>
</g>
</g>
<!-- Node45&#45;&gt;Node48 -->
<g id="edge4" class="edge"><title>Node45&#45;&gt;Node48</title>
<path fill="none" stroke="midnightblue" d="M243.498,-142.398C250.995,-139.941 258.38,-136.86 265,-133 285.097,-121.281 280.969,-106.832 301,-95 316.153,-86.0499 335.513,-81.2607 350.487,-78.7302"/>
<polygon fill="midnightblue" stroke="midnightblue" points="351.109,-82.1766 360.493,-77.2596 350.091,-75.251 351.109,-82.1766"/>
</g>
<!-- Node49 -->
<g id="node6" class="node"><title>Node49</title>
<g id="a_node6"><a xlink:href="structEigen_1_1SplineFitting.html#adc80b6f0dd0dbbea28130fb254626874" target="_top" xlink:title="Fits an interpolating Spline to the given data points. ">
<polygon fill="none" stroke="black" points="321.5,-181 321.5,-211 428.5,-211 428.5,-181 321.5,-181"/>
<text text-anchor="start" x="329.5" y="-199" font-family="Helvetica,sans-Serif" font-size="10.00">Eigen::SplineFitting</text>
<text text-anchor="middle" x="375" y="-188" font-family="Helvetica,sans-Serif" font-size="10.00">::Interpolate</text>
</a>
</g>
</g>
<!-- Node45&#45;&gt;Node49 -->
<g id="edge5" class="edge"><title>Node45&#45;&gt;Node49</title>
<path fill="none" stroke="midnightblue" d="M228.751,-161.547C252.951,-167.288 284.261,-174.714 311.611,-181.202"/>
<polygon fill="midnightblue" stroke="midnightblue" points="310.95,-184.642 321.488,-183.544 312.566,-177.831 310.95,-184.642"/>
</g>
<!-- Node46&#45;&gt;Node47 -->
<g id="edge3" class="edge"><title>Node46&#45;&gt;Node47</title>
<path fill="none" stroke="midnightblue" d="M572.28,-230.42C597.358,-221.1 635.524,-206.917 662.524,-196.883"/>
<polygon fill="midnightblue" stroke="midnightblue" points="663.767,-200.155 671.921,-193.391 661.328,-193.593 663.767,-200.155"/>
</g>
<!-- Node49&#45;&gt;Node46 -->
<g id="edge6" class="edge"><title>Node49&#45;&gt;Node46</title>
<path fill="none" stroke="midnightblue" d="M428.852,-209.801C451.098,-215.61 476.753,-222.309 498.238,-227.92"/>
<polygon fill="midnightblue" stroke="midnightblue" points="497.543,-231.355 508.103,-230.496 499.311,-224.583 497.543,-231.355"/>
</g>
<!-- Node50&#45;&gt;Node46 -->
<g id="edge9" class="edge"><title>Node50&#45;&gt;Node46</title>
<path fill="none" stroke="midnightblue" d="M259.112,-318.234C312.555,-324.728 387.073,-327.795 449,-308 480.439,-297.951 510.368,-273.347 528.085,-256.66"/>
<polygon fill="midnightblue" stroke="midnightblue" points="530.589,-259.108 535.328,-249.631 525.714,-254.084 530.589,-259.108"/>
</g>
<!-- Node51 -->
<g id="node8" class="node"><title>Node51</title>
<g id="a_node8"><a xlink:href="classEigen_1_1Spline.html#a196730cf190dfa16907db888277e5aed" target="_top" xlink:title="Evaluation of spline derivatives of up&#45;to given order. ">
<polygon fill="none" stroke="black" points="307,-356.5 307,-375.5 443,-375.5 443,-356.5 307,-356.5"/>
<text text-anchor="middle" x="375" y="-363.5" font-family="Helvetica,sans-Serif" font-size="10.00">Eigen::Spline::derivatives</text>
</a>
</g>
</g>
<!-- Node50&#45;&gt;Node51 -->
<g id="edge10" class="edge"><title>Node50&#45;&gt;Node51</title>
<path fill="none" stroke="midnightblue" d="M235.309,-321.141C266.033,-331.078 305.753,-343.926 334.807,-353.323"/>
<polygon fill="midnightblue" stroke="midnightblue" points="334.015,-356.745 344.607,-356.493 336.169,-350.085 334.015,-356.745"/>
</g>
<!-- Node57 -->
<g id="node14" class="node"><title>Node57</title>
<g id="a_node14"><a xlink:href="structEigen_1_1SplineFitting.html#a7bd937fdcfa168dbdc27932886a4da9f" target="_top" xlink:title="Fits an interpolating spline to the given data points and derivatives. ">
<polygon fill="none" stroke="black" points="301,-269 301,-299 449,-299 449,-269 301,-269"/>
<text text-anchor="start" x="309" y="-287" font-family="Helvetica,sans-Serif" font-size="10.00">Eigen::SplineFitting</text>
<text text-anchor="middle" x="375" y="-276" font-family="Helvetica,sans-Serif" font-size="10.00">::InterpolateWithDerivatives</text>
</a>
</g>
</g>
<!-- Node50&#45;&gt;Node57 -->
<g id="edge18" class="edge"><title>Node50&#45;&gt;Node57</title>
<path fill="none" stroke="midnightblue" d="M259.159,-297.62C269.478,-296.396 280.185,-295.126 290.727,-293.876"/>
<polygon fill="midnightblue" stroke="midnightblue" points="291.247,-297.339 300.766,-292.685 290.423,-290.388 291.247,-297.339"/>
</g>
<!-- Node52 -->
<g id="node9" class="node"><title>Node52</title>
<g id="a_node9"><a xlink:href="namespaceEigen.html#ae8ed4b8aebde67ffb90eafe2d29dd969" target="_top" xlink:title="Eigen::derivativesImpl">
<polygon fill="none" stroke="black" points="485,-312.5 485,-331.5 606,-331.5 606,-312.5 485,-312.5"/>
<text text-anchor="middle" x="545.5" y="-319.5" font-family="Helvetica,sans-Serif" font-size="10.00">Eigen::derivativesImpl</text>
</a>
</g>
</g>
<!-- Node51&#45;&gt;Node52 -->
<g id="edge11" class="edge"><title>Node51&#45;&gt;Node52</title>
<path fill="none" stroke="midnightblue" d="M412.562,-356.453C437.623,-349.908 471.079,-341.172 498.03,-334.135"/>
<polygon fill="midnightblue" stroke="midnightblue" points="499.218,-337.442 508.009,-331.529 497.449,-330.669 499.218,-337.442"/>
</g>
<!-- Node53 -->
<g id="node10" class="node"><title>Node53</title>
<g id="a_node10"><a xlink:href="classEigen_1_1Spline.html#ab62751802b4cc237aadb0dbf3455df98" target="_top" xlink:title="Returns the span within the knot vector in which u is falling. ">
<polygon fill="none" stroke="black" points="642,-279.5 642,-298.5 749,-298.5 749,-279.5 642,-279.5"/>
<text text-anchor="middle" x="695.5" y="-286.5" font-family="Helvetica,sans-Serif" font-size="10.00">Eigen::Spline::span</text>
</a>
</g>
</g>
<!-- Node52&#45;&gt;Node53 -->
<g id="edge12" class="edge"><title>Node52&#45;&gt;Node53</title>
<path fill="none" stroke="midnightblue" d="M589.308,-312.455C605.722,-308.795 624.642,-304.577 641.871,-300.735"/>
<polygon fill="midnightblue" stroke="midnightblue" points="642.79,-304.116 651.788,-298.524 641.266,-297.284 642.79,-304.116"/>
</g>
<!-- Node54 -->
<g id="node11" class="node"><title>Node54</title>
<g id="a_node11"><a xlink:href="classEigen_1_1Spline.html#aaba7632c61b84194e890696c2b57be1b" target="_top" xlink:title="Computes the spang within the provided knot vector in which u is falling. ">
<polygon fill="none" stroke="black" points="785,-260.5 785,-279.5 894,-279.5 894,-260.5 785,-260.5"/>
<text text-anchor="middle" x="839.5" y="-267.5" font-family="Helvetica,sans-Serif" font-size="10.00">Eigen::Spline::Span</text>
</a>
</g>
</g>
<!-- Node53&#45;&gt;Node54 -->
<g id="edge13" class="edge"><title>Node53&#45;&gt;Node54</title>
<path fill="none" stroke="midnightblue" d="M749.376,-281.925C757.56,-280.83 766.089,-279.689 774.487,-278.565"/>
<polygon fill="midnightblue" stroke="midnightblue" points="775.185,-282.003 784.632,-277.208 774.257,-275.065 775.185,-282.003"/>
</g>
<!-- Node55 -->
<g id="node12" class="node"><title>Node55</title>
<g id="a_node12"><a xlink:href="classEigen_1_1Spline.html#ae3eac8af580ad880d8ad3a259d453aa1" target="_top" xlink:title="Returns the knots of the underlying spline. ">
<polygon fill="none" stroke="black" points="934,-222.5 934,-241.5 1044,-241.5 1044,-222.5 934,-222.5"/>
<text text-anchor="middle" x="989" y="-229.5" font-family="Helvetica,sans-Serif" font-size="10.00">Eigen::Spline::knots</text>
</a>
</g>
</g>
<!-- Node53&#45;&gt;Node55 -->
<g id="edge17" class="edge"><title>Node53&#45;&gt;Node55</title>
<path fill="none" stroke="midnightblue" d="M714.223,-279.425C731.687,-270.468 759.398,-257.522 785,-251 830.439,-239.424 883.208,-234.741 923.554,-232.917"/>
<polygon fill="midnightblue" stroke="midnightblue" points="923.945,-236.404 933.795,-232.502 923.662,-229.409 923.945,-236.404"/>
</g>
<!-- Node56 -->
<g id="node13" class="node"><title>Node56</title>
<g id="a_node13"><a xlink:href="classEigen_1_1Spline.html#a0df23e941ac0f31dcd095a4dd4f4a7ec" target="_top" xlink:title="Returns the spline degree. ">
<polygon fill="none" stroke="black" points="930,-279.5 930,-298.5 1048,-298.5 1048,-279.5 930,-279.5"/>
<text text-anchor="middle" x="989" y="-286.5" font-family="Helvetica,sans-Serif" font-size="10.00">Eigen::Spline::degree</text>
</a>
</g>
</g>
<!-- Node53&#45;&gt;Node56 -->
<g id="edge16" class="edge"><title>Node53&#45;&gt;Node56</title>
<path fill="none" stroke="midnightblue" d="M749.288,-289C797.047,-289 867.662,-289 919.705,-289"/>
<polygon fill="midnightblue" stroke="midnightblue" points="919.854,-292.5 929.854,-289 919.854,-285.5 919.854,-292.5"/>
</g>
<!-- Node54&#45;&gt;Node55 -->
<g id="edge14" class="edge"><title>Node54&#45;&gt;Node55</title>
<path fill="none" stroke="midnightblue" d="M877.72,-260.411C897.009,-255.442 920.758,-249.323 941.271,-244.039"/>
<polygon fill="midnightblue" stroke="midnightblue" points="942.237,-247.404 951.047,-241.52 940.49,-240.626 942.237,-247.404"/>
</g>
<!-- Node54&#45;&gt;Node56 -->
<g id="edge15" class="edge"><title>Node54&#45;&gt;Node56</title>
<path fill="none" stroke="midnightblue" d="M894.168,-276.913C902.516,-277.988 911.235,-279.112 919.852,-280.222"/>
<polygon fill="midnightblue" stroke="midnightblue" points="919.527,-283.709 929.892,-281.515 920.421,-276.766 919.527,-283.709"/>
</g>
<!-- Node57&#45;&gt;Node46 -->
<g id="edge19" class="edge"><title>Node57&#45;&gt;Node46</title>
<path fill="none" stroke="midnightblue" d="M433.517,-268.981C454.641,-263.465 478.266,-257.296 498.271,-252.072"/>
<polygon fill="midnightblue" stroke="midnightblue" points="499.281,-255.425 508.072,-249.512 497.512,-248.653 499.281,-255.425"/>
</g>
<!-- Node58&#45;&gt;Node48 -->
<g id="edge22" class="edge"><title>Node58&#45;&gt;Node48</title>
<path fill="none" stroke="midnightblue" d="M235.309,-104.411C272.046,-96.8855 321.646,-86.7249 350.493,-80.8154"/>
<polygon fill="midnightblue" stroke="midnightblue" points="351.369,-84.2088 360.463,-78.7731 349.964,-77.3512 351.369,-84.2088"/>
</g>
<!-- Node59 -->
<g id="node16" class="node"><title>Node59</title>
<g id="a_node16"><a xlink:href="splines_8cpp.html#adb686331e02adc1bff6567347a642811" target="_top" xlink:title="closed_spline2d">
<polygon fill="none" stroke="black" points="329,-104.5 329,-123.5 421,-123.5 421,-104.5 329,-104.5"/>
<text text-anchor="middle" x="375" y="-111.5" font-family="Helvetica,sans-Serif" font-size="10.00">closed_spline2d</text>
</a>
</g>
</g>
<!-- Node58&#45;&gt;Node59 -->
<g id="edge21" class="edge"><title>Node58&#45;&gt;Node59</title>
<path fill="none" stroke="midnightblue" d="M246.177,-114C269.234,-114 295.683,-114 318.517,-114"/>
<polygon fill="midnightblue" stroke="midnightblue" points="318.729,-117.5 328.729,-114 318.729,-110.5 318.729,-117.5"/>
</g>
<!-- Node60&#45;&gt;Node48 -->
<g id="edge24" class="edge"><title>Node60&#45;&gt;Node48</title>
<path fill="none" stroke="midnightblue" d="M228.294,-76C265.272,-76 319.136,-76 349.957,-76"/>
<polygon fill="midnightblue" stroke="midnightblue" points="350.196,-79.5001 360.196,-76 350.196,-72.5001 350.196,-79.5001"/>
</g>
<!-- Node61 -->
<g id="node18" class="node"><title>Node61</title>
<g id="a_node18"><a xlink:href="splines_8cpp.html#ac95dea2df2ac478a6d2d020798dc2ca7" target="_top" xlink:title="spline3d">
<polygon fill="none" stroke="black" points="347,-28.5 347,-47.5 403,-47.5 403,-28.5 347,-28.5"/>
<text text-anchor="middle" x="375" y="-35.5" font-family="Helvetica,sans-Serif" font-size="10.00">spline3d</text>
</a>
</g>
</g>
<!-- Node60&#45;&gt;Node61 -->
<g id="edge25" class="edge"><title>Node60&#45;&gt;Node61</title>
<path fill="none" stroke="midnightblue" d="M228.294,-67.848C260.431,-61.2648 305.324,-52.0685 336.759,-45.629"/>
<polygon fill="midnightblue" stroke="midnightblue" points="337.771,-48.9943 346.865,-43.5586 336.366,-42.1367 337.771,-48.9943"/>
</g>
<!-- Node62&#45;&gt;Node48 -->
<g id="edge27" class="edge"><title>Node62&#45;&gt;Node48</title>
<path fill="none" stroke="midnightblue" d="M235.309,-47.589C272.046,-55.1145 321.646,-65.2751 350.493,-71.1846"/>
<polygon fill="midnightblue" stroke="midnightblue" points="349.964,-74.6488 360.463,-73.2269 351.369,-67.7912 349.964,-74.6488"/>
</g>
<!-- Node62&#45;&gt;Node55 -->
<g id="edge28" class="edge"><title>Node62&#45;&gt;Node55</title>
<path fill="none" stroke="midnightblue" d="M239.041,-28.4746C258.369,-25.0925 280.653,-21.507 301,-19 408.737,-5.72596 435.949,-0 544.5,-0 544.5,-0 544.5,-0 696.5,-0 833.481,-0 943.319,-158.78 977.175,-213.628"/>
<polygon fill="midnightblue" stroke="midnightblue" points="974.268,-215.585 982.441,-222.327 980.257,-211.959 974.268,-215.585"/>
</g>
<!-- Node62&#45;&gt;Node61 -->
<g id="edge29" class="edge"><title>Node62&#45;&gt;Node61</title>
<path fill="none" stroke="midnightblue" d="M247.193,-38C276.487,-38 311.043,-38 336.678,-38"/>
<polygon fill="midnightblue" stroke="midnightblue" points="336.729,-41.5001 346.729,-38 336.728,-34.5001 336.729,-41.5001"/>
</g>
</g>
</svg>
