<?xml version="1.0" encoding="UTF-8" standalone="no"?>
<!DOCTYPE svg PUBLIC "-//W3C//DTD SVG 1.1//EN"
 "http://www.w3.org/Graphics/SVG/1.1/DTD/svg11.dtd">
<!-- Generated by graphviz version 2.38.0 (20140413.2041)
 -->
<!-- Title: eval_closed_spline2d Pages: 1 -->
<svg width="253pt" height="66pt"
 viewBox="0.00 0.00 253.00 66.00" xmlns="http://www.w3.org/2000/svg" xmlns:xlink="http://www.w3.org/1999/xlink">
<g id="graph0" class="graph" transform="scale(1 1) rotate(0) translate(4 62)">
<title>eval_closed_spline2d</title>
<!-- Node23 -->
<g id="node1" class="node"><title>Node23</title>
<polygon fill="#bfbfbf" stroke="black" points="0,-19.5 0,-38.5 117,-38.5 117,-19.5 0,-19.5"/>
<text text-anchor="middle" x="58.5" y="-26.5" font-family="Helvetica,sans-Serif" font-size="10.00">eval_closed_spline2d</text>
</g>
<!-- Node24 -->
<g id="node2" class="node"><title>Node24</title>
<g id="a_node2"><a xlink:href="splines_8cpp.html#adb686331e02adc1bff6567347a642811" target="_top" xlink:title="closed_spline2d">
<polygon fill="none" stroke="black" points="153,-38.5 153,-57.5 245,-57.5 245,-38.5 153,-38.5"/>
<text text-anchor="middle" x="199" y="-45.5" font-family="Helvetica,sans-Serif" font-size="10.00">closed_spline2d</text>
</a>
</g>
</g>
<!-- Node23&#45;&gt;Node24 -->
<g id="edge1" class="edge"><title>Node23&#45;&gt;Node24</title>
<path fill="none" stroke="midnightblue" d="M117.033,-36.8926C125.487,-38.0524 134.181,-39.2451 142.591,-40.3988"/>
<polygon fill="midnightblue" stroke="midnightblue" points="142.291,-43.8903 152.674,-41.782 143.242,-36.9553 142.291,-43.8903"/>
</g>
<!-- Node25 -->
<g id="node3" class="node"><title>Node25</title>
<g id="a_node3"><a xlink:href="Cwise__array__power__array_8cpp.html#aa9e3025f5efca2c2a39d785652f2d710" target="_top" xlink:title="e">
<polygon fill="none" stroke="black" points="184.5,-0.5 184.5,-19.5 213.5,-19.5 213.5,-0.5 184.5,-0.5"/>
<text text-anchor="middle" x="199" y="-7.5" font-family="Helvetica,sans-Serif" font-size="10.00">e</text>
</a>
</g>
</g>
<!-- Node23&#45;&gt;Node25 -->
<g id="edge2" class="edge"><title>Node23&#45;&gt;Node25</title>
<path fill="none" stroke="midnightblue" d="M117.033,-21.1074C137.202,-18.3405 158.737,-15.3863 174.524,-13.2206"/>
<polygon fill="midnightblue" stroke="midnightblue" points="175.016,-16.686 184.447,-11.8592 174.064,-9.75092 175.016,-16.686"/>
</g>
</g>
</svg>
