<?xml version="1.0" encoding="UTF-8" standalone="no"?>
<!DOCTYPE svg PUBLIC "-//W3C//DTD SVG 1.1//EN"
 "http://www.w3.org/Graphics/SVG/1.1/DTD/svg11.dtd">
<!-- Generated by graphviz version 2.38.0 (20140413.2041)
 -->
<!-- Title: check_global_interpolation2d Pages: 1 -->
<svg width="541pt" height="135pt"
 viewBox="0.00 0.00 541.00 134.50" xmlns="http://www.w3.org/2000/svg" xmlns:xlink="http://www.w3.org/1999/xlink">
<g id="graph0" class="graph" transform="scale(1 1) rotate(0) translate(4 130.5)">
<title>check_global_interpolation2d</title>
<!-- Node0 -->
<g id="node1" class="node"><title>Node0</title>
<polygon fill="#bfbfbf" stroke="black" points="0,-69 0,-88 155,-88 155,-69 0,-69"/>
<text text-anchor="middle" x="77.5" y="-76" font-family="Helvetica,sans-Serif" font-size="10.00">check_global_interpolation2d</text>
</g>
<!-- Node1 -->
<g id="node2" class="node"><title>Node1</title>
<g id="a_node2"><a xlink:href="group__Splines__Module.html#ga1b4cbde5d98411405871accf877552d2" target="_top" xlink:title="Computes chord length parameters which are required for spline interpolation. ">
<polygon fill="none" stroke="black" points="334,-88 334,-107 450,-107 450,-88 334,-88"/>
<text text-anchor="middle" x="392" y="-95" font-family="Helvetica,sans-Serif" font-size="10.00">Eigen::ChordLengths</text>
</a>
</g>
</g>
<!-- Node0&#45;&gt;Node1 -->
<g id="edge1" class="edge"><title>Node0&#45;&gt;Node1</title>
<path fill="none" stroke="midnightblue" d="M155.346,-83.1723C206.805,-86.301 273.914,-90.3812 323.349,-93.3868"/>
<polygon fill="midnightblue" stroke="midnightblue" points="323.424,-96.8978 333.618,-94.0112 323.849,-89.9107 323.424,-96.8978"/>
</g>
<!-- Node2 -->
<g id="node3" class="node"><title>Node2</title>
<g id="a_node3"><a xlink:href="common_8h.html#a94360d20ee722c1bcb23e5b2fbba8554" target="_top" xlink:title="matrix">
<polygon fill="none" stroke="black" points="486,-107 486,-126 533,-126 533,-107 486,-107"/>
<text text-anchor="middle" x="509.5" y="-114" font-family="Helvetica,sans-Serif" font-size="10.00">matrix</text>
</a>
</g>
</g>
<!-- Node0&#45;&gt;Node2 -->
<g id="edge6" class="edge"><title>Node0&#45;&gt;Node2</title>
<path fill="none" stroke="midnightblue" d="M117.868,-88.0348C139.37,-92.9547 166.529,-98.7042 191,-102.5 254.105,-112.288 270.217,-113.385 334,-116.5 383.36,-118.91 440.668,-118.249 475.753,-117.452"/>
<polygon fill="midnightblue" stroke="midnightblue" points="475.983,-120.947 485.894,-117.203 475.811,-113.949 475.983,-120.947"/>
</g>
<!-- Node3 -->
<g id="node4" class="node"><title>Node3</title>
<g id="a_node4"><a xlink:href="Cwise__array__power__array_8cpp.html#aa9e3025f5efca2c2a39d785652f2d710" target="_top" xlink:title="e">
<polygon fill="none" stroke="black" points="230,-50 230,-69 259,-69 259,-50 230,-50"/>
<text text-anchor="middle" x="244.5" y="-57" font-family="Helvetica,sans-Serif" font-size="10.00">e</text>
</a>
</g>
</g>
<!-- Node0&#45;&gt;Node3 -->
<g id="edge3" class="edge"><title>Node0&#45;&gt;Node3</title>
<path fill="none" stroke="midnightblue" d="M155.203,-69.6675C178.676,-66.9646 202.776,-64.1894 219.856,-62.2226"/>
<polygon fill="midnightblue" stroke="midnightblue" points="220.455,-65.6769 229.989,-61.0559 219.654,-58.7229 220.455,-65.6769"/>
</g>
<!-- Node4 -->
<g id="node5" class="node"><title>Node4</title>
<g id="a_node5"><a xlink:href="structEigen_1_1SplineFitting.html#adc80b6f0dd0dbbea28130fb254626874" target="_top" xlink:title="Fits an interpolating Spline to the given data points. ">
<polygon fill="none" stroke="black" points="191,-0.5 191,-30.5 298,-30.5 298,-0.5 191,-0.5"/>
<text text-anchor="start" x="199" y="-18.5" font-family="Helvetica,sans-Serif" font-size="10.00">Eigen::SplineFitting</text>
<text text-anchor="middle" x="244.5" y="-7.5" font-family="Helvetica,sans-Serif" font-size="10.00">::Interpolate</text>
</a>
</g>
</g>
<!-- Node0&#45;&gt;Node4 -->
<g id="edge4" class="edge"><title>Node0&#45;&gt;Node4</title>
<path fill="none" stroke="midnightblue" d="M103.56,-68.9317C127.639,-59.7378 164.679,-45.5954 194.603,-34.1696"/>
<polygon fill="midnightblue" stroke="midnightblue" points="195.95,-37.4019 204.044,-30.565 193.453,-30.8624 195.95,-37.4019"/>
</g>
<!-- Node1&#45;&gt;Node2 -->
<g id="edge2" class="edge"><title>Node1&#45;&gt;Node2</title>
<path fill="none" stroke="midnightblue" d="M450.073,-106.889C458.925,-108.345 467.798,-109.804 475.86,-111.131"/>
<polygon fill="midnightblue" stroke="midnightblue" points="475.486,-114.616 485.922,-112.786 476.623,-107.709 475.486,-114.616"/>
</g>
<!-- Node4&#45;&gt;Node1 -->
<g id="edge5" class="edge"><title>Node4&#45;&gt;Node1</title>
<path fill="none" stroke="midnightblue" d="M278.534,-30.5774C285.049,-33.7335 291.789,-37.1298 298,-40.5 322.349,-53.7115 349.238,-70.4363 367.813,-82.3453"/>
<polygon fill="midnightblue" stroke="midnightblue" points="366.164,-85.4465 376.464,-87.9288 369.96,-79.5651 366.164,-85.4465"/>
</g>
</g>
</svg>
