<?xml version="1.0" encoding="UTF-8" standalone="no"?>
<!DOCTYPE svg PUBLIC "-//W3C//DTD SVG 1.1//EN"
 "http://www.w3.org/Graphics/SVG/1.1/DTD/svg11.dtd">
<!-- Generated by graphviz version 2.38.0 (20140413.2041)
 -->
<!-- Title: main Pages: 1 -->
<!--zoomable 516 -->
<svg id="main" version="1.1" xmlns="http://www.w3.org/2000/svg" xmlns:xlink="http://www.w3.org/1999/xlink" xml:space="preserve" onload="init(evt)">
<style type="text/css"><![CDATA[
.edge:hover path { stroke: red; }
.edge:hover polygon { stroke: red; fill: red; }
]]></style>
<script type="text/javascript"><![CDATA[
var edges = document.getElementsByTagName('g');
if (edges && edges.length) {
  for (var i=0;i<edges.length;i++) {
    if (edges[i].id.substr(0,4)=='edge') {
      edges[i].setAttribute('class','edge');
    }
  }
}
]]></script>
        <defs>
                <circle id="rim" cx="0" cy="0" r="7"/>
                <circle id="rim2" cx="0" cy="0" r="3.5"/>
                <g id="zoomPlus">
                        <use xlink:href="#rim" fill="#404040">
                                <set attributeName="fill" to="#808080" begin="zoomplus.mouseover" end="zoomplus.mouseout"/>
                        </use>
                        <path d="M-4,0h8M0,-4v8" fill="none" stroke="white" stroke-width="1.5" pointer-events="none"/>
                </g>
                <g id="zoomMin">
                        <use xlink:href="#rim" fill="#404040">
                                <set attributeName="fill" to="#808080" begin="zoomminus.mouseover" end="zoomminus.mouseout"/>
                        </use>
                        <path d="M-4,0h8" fill="none" stroke="white" stroke-width="1.5" pointer-events="none"/>
                </g>
                <g id="dirArrow">
                        <path fill="none" stroke="white" stroke-width="1.5" d="M0,-3.0v7 M-2.5,-0.5L0,-3.0L2.5,-0.5"/>
                </g>
               <g id="resetDef">
                       <use xlink:href="#rim2" fill="#404040">
                               <set attributeName="fill" to="#808080" begin="reset.mouseover" end="reset.mouseout"/>
                       </use>
               </g>
        </defs>

<script type="text/javascript">
var viewWidth = 458;
var viewHeight = 516;
var sectionId = 'dynsection-1';
</script>
<script xlink:href="svgpan.js"/>
<svg id="graph" class="graph">
<g id="viewport">
<title>main</title>
<!-- Node0 -->
<g id="node1" class="node"><title>Node0</title>
<polygon fill="#bfbfbf" stroke="black" points="0,-216 0,-235 41,-235 41,-216 0,-216"/>
<text text-anchor="middle" x="20.5" y="-223" font-family="Helvetica,sans-Serif" font-size="10.00">main</text>
</g>
<!-- Node1 -->
<g id="node2" class="node"><title>Node1</title>
<g id="a_node2"><a xlink:href="classEigen_1_1PlainObjectBase.html#ac25699535374b1854cf8494e44ad31b2" target="_top" xlink:title="Eigen::PlainObjectBase\l::data">
<polygon fill="none" stroke="black" points="82,-423.5 82,-453.5 208,-453.5 208,-423.5 82,-423.5"/>
<text text-anchor="start" x="90" y="-441.5" font-family="Helvetica,sans-Serif" font-size="10.00">Eigen::PlainObjectBase</text>
<text text-anchor="middle" x="145" y="-430.5" font-family="Helvetica,sans-Serif" font-size="10.00">::data</text>
</a>
</g>
</g>
<!-- Node0&#45;&gt;Node1 -->
<g id="edge1" class="edge"><title>Node0&#45;&gt;Node1</title>
<path fill="none" stroke="midnightblue" d="M21.4878,-235.143C21.9736,-265.541 27.571,-360.48 77,-413.5 78.3651,-414.964 79.8241,-416.343 81.3597,-417.642"/>
<polygon fill="midnightblue" stroke="midnightblue" points="79.416,-420.554 89.5964,-423.489 83.4679,-414.846 79.416,-420.554"/>
</g>
<!-- Node2 -->
<g id="node3" class="node"><title>Node2</title>
<g id="a_node3"><a xlink:href="BenchSparseUtil_8h.html#a3a793c6a0917359f91a7ddca3df96e23" target="_top" xlink:title="eiToDense">
<polygon fill="none" stroke="black" points="112.5,-341 112.5,-360 177.5,-360 177.5,-341 112.5,-341"/>
<text text-anchor="middle" x="145" y="-348" font-family="Helvetica,sans-Serif" font-size="10.00">eiToDense</text>
</a>
</g>
</g>
<!-- Node0&#45;&gt;Node2 -->
<g id="edge2" class="edge"><title>Node0&#45;&gt;Node2</title>
<path fill="none" stroke="midnightblue" d="M25.5639,-235.06C33.363,-252.492 51.9069,-289.824 77,-313.5 86.8378,-322.782 99.4448,-330.532 111.063,-336.502"/>
<polygon fill="midnightblue" stroke="midnightblue" points="109.575,-339.67 120.098,-340.902 112.64,-333.376 109.575,-339.67"/>
</g>
<!-- Node6 -->
<g id="node7" class="node"><title>Node6</title>
<g id="a_node7"><a xlink:href="BenchSparseUtil_8h.html#aceb6d7bd92608892e3e8163984191f85" target="_top" xlink:title="eiToUblas">
<polygon fill="none" stroke="black" points="114,-385 114,-404 176,-404 176,-385 114,-385"/>
<text text-anchor="middle" x="145" y="-392" font-family="Helvetica,sans-Serif" font-size="10.00">eiToUblas</text>
</a>
</g>
</g>
<!-- Node0&#45;&gt;Node6 -->
<g id="edge6" class="edge"><title>Node0&#45;&gt;Node6</title>
<path fill="none" stroke="midnightblue" d="M22.4882,-235.02C25.6198,-260.418 37.5735,-330.495 77,-369.5 84.48,-376.9 94.3504,-382.14 104.209,-385.84"/>
<polygon fill="midnightblue" stroke="midnightblue" points="103.381,-389.252 113.974,-389.049 105.567,-382.602 103.381,-389.252"/>
</g>
<!-- Node8 -->
<g id="node9" class="node"><title>Node8</title>
<g id="a_node9"><a xlink:href="BenchSparseUtil_8h.html#abafdfa2084e60b4bd47c70212bd0c473" target="_top" xlink:title="fillMatrix2">
<polygon fill="none" stroke="black" points="114,-285 114,-304 176,-304 176,-285 114,-285"/>
<text text-anchor="middle" x="145" y="-292" font-family="Helvetica,sans-Serif" font-size="10.00">fillMatrix2</text>
</a>
</g>
</g>
<!-- Node0&#45;&gt;Node8 -->
<g id="edge10" class="edge"><title>Node0&#45;&gt;Node8</title>
<path fill="none" stroke="midnightblue" d="M29.5487,-235.027C39.5605,-246.287 57.7029,-264.837 77,-275.5 85.3155,-280.095 94.8386,-283.659 104.045,-286.393"/>
<polygon fill="midnightblue" stroke="midnightblue" points="103.27,-289.809 113.837,-289.042 105.098,-283.052 103.27,-289.809"/>
</g>
<!-- Node12 -->
<g id="node13" class="node"><title>Node12</title>
<g id="a_node13"><a xlink:href="classEigen_1_1BenchTimer.html#a32a7276d10363d2d166234d7fb07182a" target="_top" xlink:title="Eigen::BenchTimer::\lreset">
<polygon fill="none" stroke="black" points="89,-235.5 89,-265.5 201,-265.5 201,-235.5 89,-235.5"/>
<text text-anchor="start" x="97" y="-253.5" font-family="Helvetica,sans-Serif" font-size="10.00">Eigen::BenchTimer::</text>
<text text-anchor="middle" x="145" y="-242.5" font-family="Helvetica,sans-Serif" font-size="10.00">reset</text>
</a>
</g>
</g>
<!-- Node0&#45;&gt;Node12 -->
<g id="edge14" class="edge"><title>Node0&#45;&gt;Node12</title>
<path fill="none" stroke="midnightblue" d="M41.1817,-229.517C51.631,-231.649 65.1363,-234.405 78.9019,-237.215"/>
<polygon fill="midnightblue" stroke="midnightblue" points="78.4335,-240.691 88.9314,-239.262 79.8333,-233.833 78.4335,-240.691"/>
</g>
<!-- Node13 -->
<g id="node14" class="node"><title>Node13</title>
<g id="a_node14"><a xlink:href="classEigen_1_1SparseMatrix.html#ad3c7416090f913e8685523cb3ab7c2f7" target="_top" xlink:title="Eigen::SparseMatrix\l::setZero">
<polygon fill="none" stroke="black" points="89,-186.5 89,-216.5 201,-216.5 201,-186.5 89,-186.5"/>
<text text-anchor="start" x="97" y="-204.5" font-family="Helvetica,sans-Serif" font-size="10.00">Eigen::SparseMatrix</text>
<text text-anchor="middle" x="145" y="-193.5" font-family="Helvetica,sans-Serif" font-size="10.00">::setZero</text>
</a>
</g>
</g>
<!-- Node0&#45;&gt;Node13 -->
<g id="edge15" class="edge"><title>Node0&#45;&gt;Node13</title>
<path fill="none" stroke="midnightblue" d="M41.1817,-221.644C51.631,-219.597 65.1363,-216.951 78.9019,-214.254"/>
<polygon fill="midnightblue" stroke="midnightblue" points="79.7909,-217.646 88.9314,-212.289 78.445,-210.777 79.7909,-217.646"/>
</g>
<!-- Node14 -->
<g id="node15" class="node"><title>Node14</title>
<g id="a_node15"><a xlink:href="classEigen_1_1BenchTimer.html#a6b01cc1c0408353022174b867ab29dc9" target="_top" xlink:title="Eigen::BenchTimer::\lstart">
<polygon fill="none" stroke="black" points="89,-137.5 89,-167.5 201,-167.5 201,-137.5 89,-137.5"/>
<text text-anchor="start" x="97" y="-155.5" font-family="Helvetica,sans-Serif" font-size="10.00">Eigen::BenchTimer::</text>
<text text-anchor="middle" x="145" y="-144.5" font-family="Helvetica,sans-Serif" font-size="10.00">start</text>
</a>
</g>
</g>
<!-- Node0&#45;&gt;Node14 -->
<g id="edge16" class="edge"><title>Node0&#45;&gt;Node14</title>
<path fill="none" stroke="midnightblue" d="M30.5106,-215.872C40.8733,-205.265 58.809,-188.283 77,-177.5 80.3875,-175.492 83.9642,-173.598 87.6311,-171.82"/>
<polygon fill="midnightblue" stroke="midnightblue" points="89.2043,-174.95 96.8755,-167.642 86.3215,-168.571 89.2043,-174.95"/>
</g>
<!-- Node18 -->
<g id="node19" class="node"><title>Node18</title>
<g id="a_node19"><a xlink:href="classEigen_1_1BenchTimer.html#a367e14b2e9c1ab6d3f0ff7bcfcd5ee37" target="_top" xlink:title="Eigen::BenchTimer::stop">
<polygon fill="none" stroke="black" points="78.5,-99 78.5,-118 211.5,-118 211.5,-99 78.5,-99"/>
<text text-anchor="middle" x="145" y="-106" font-family="Helvetica,sans-Serif" font-size="10.00">Eigen::BenchTimer::stop</text>
</a>
</g>
</g>
<!-- Node0&#45;&gt;Node18 -->
<g id="edge21" class="edge"><title>Node0&#45;&gt;Node18</title>
<path fill="none" stroke="midnightblue" d="M24.3073,-215.907C30.5014,-196.437 47.2069,-152.132 77,-128.5 79.9304,-126.176 83.126,-124.121 86.4805,-122.305"/>
<polygon fill="midnightblue" stroke="midnightblue" points="88.0691,-125.426 95.6583,-118.033 85.1153,-119.08 88.0691,-125.426"/>
</g>
<!-- Node19 -->
<g id="node20" class="node"><title>Node19</title>
<g id="a_node20"><a xlink:href="classEigen_1_1SparseMatrixBase.html#abef4b43a6c62c8eae9b5087d732b3a4a" target="_top" xlink:title="Eigen::SparseMatrixBase\l::transpose">
<polygon fill="none" stroke="black" points="77,-49.5 77,-79.5 213,-79.5 213,-49.5 77,-49.5"/>
<text text-anchor="start" x="85" y="-67.5" font-family="Helvetica,sans-Serif" font-size="10.00">Eigen::SparseMatrixBase</text>
<text text-anchor="middle" x="145" y="-56.5" font-family="Helvetica,sans-Serif" font-size="10.00">::transpose</text>
</a>
</g>
</g>
<!-- Node0&#45;&gt;Node19 -->
<g id="edge24" class="edge"><title>Node0&#45;&gt;Node19</title>
<path fill="none" stroke="midnightblue" d="M22.7629,-215.792C26.4603,-191.214 39.4776,-125.901 77,-89.5 78.6291,-87.9196 80.3671,-86.4375 82.1903,-85.0476"/>
<polygon fill="midnightblue" stroke="midnightblue" points="84.1918,-87.9208 90.6553,-79.5259 80.3674,-82.0579 84.1918,-87.9208"/>
</g>
<!-- Node20 -->
<g id="node21" class="node"><title>Node20</title>
<g id="a_node21"><a xlink:href="classEigen_1_1BenchTimer.html#a26760f963ed8b64c126159bfea57735e" target="_top" xlink:title="Eigen::BenchTimer::\lvalue">
<polygon fill="none" stroke="black" points="89,-0.5 89,-30.5 201,-30.5 201,-0.5 89,-0.5"/>
<text text-anchor="start" x="97" y="-18.5" font-family="Helvetica,sans-Serif" font-size="10.00">Eigen::BenchTimer::</text>
<text text-anchor="middle" x="145" y="-7.5" font-family="Helvetica,sans-Serif" font-size="10.00">value</text>
</a>
</g>
</g>
<!-- Node0&#45;&gt;Node20 -->
<g id="edge25" class="edge"><title>Node0&#45;&gt;Node20</title>
<path fill="none" stroke="midnightblue" d="M21.4931,-215.93C21.9947,-185.768 27.6339,-91.6062 77,-39.5 78.1977,-38.2359 79.4665,-37.0382 80.7951,-35.9035"/>
<polygon fill="midnightblue" stroke="midnightblue" points="82.8676,-38.7244 88.9776,-30.0688 78.8035,-33.025 82.8676,-38.7244"/>
</g>
<!-- Node3 -->
<g id="node4" class="node"><title>Node3</title>
<g id="a_node4"><a xlink:href="classEigen_1_1SparseMatrix.html#aa391750e3c530227e4a5c3c52e959975" target="_top" xlink:title="Eigen::SparseMatrix\l::cols">
<polygon fill="none" stroke="black" points="261,-379.5 261,-409.5 373,-409.5 373,-379.5 261,-379.5"/>
<text text-anchor="start" x="269" y="-397.5" font-family="Helvetica,sans-Serif" font-size="10.00">Eigen::SparseMatrix</text>
<text text-anchor="middle" x="317" y="-386.5" font-family="Helvetica,sans-Serif" font-size="10.00">::cols</text>
</a>
</g>
</g>
<!-- Node2&#45;&gt;Node3 -->
<g id="edge3" class="edge"><title>Node2&#45;&gt;Node3</title>
<path fill="none" stroke="midnightblue" d="M177.577,-358.673C198.176,-364.004 225.814,-371.158 250.976,-377.67"/>
<polygon fill="midnightblue" stroke="midnightblue" points="250.285,-381.107 260.843,-380.224 252.04,-374.33 250.285,-381.107"/>
</g>
<!-- Node4 -->
<g id="node5" class="node"><title>Node4</title>
<g id="a_node5"><a xlink:href="classEigen_1_1SparseMatrixBase.html#aa75a5f413b9c78b4ff906091cc9706a5" target="_top" xlink:title="Eigen::SparseMatrixBase\l::derived">
<polygon fill="none" stroke="black" points="249,-428.5 249,-458.5 385,-458.5 385,-428.5 249,-428.5"/>
<text text-anchor="start" x="257" y="-446.5" font-family="Helvetica,sans-Serif" font-size="10.00">Eigen::SparseMatrixBase</text>
<text text-anchor="middle" x="317" y="-435.5" font-family="Helvetica,sans-Serif" font-size="10.00">::derived</text>
</a>
</g>
</g>
<!-- Node2&#45;&gt;Node4 -->
<g id="edge4" class="edge"><title>Node2&#45;&gt;Node4</title>
<path fill="none" stroke="midnightblue" d="M177.706,-358.528C189.473,-362.451 202.5,-367.986 213,-375.5 233.548,-390.204 228.356,-404.932 249,-419.5 251.12,-420.996 253.343,-422.408 255.638,-423.74"/>
<polygon fill="midnightblue" stroke="midnightblue" points="254.292,-426.985 264.78,-428.487 257.518,-420.772 254.292,-426.985"/>
</g>
<!-- Node5 -->
<g id="node6" class="node"><title>Node5</title>
<g id="a_node6"><a xlink:href="classEigen_1_1PlainObjectBase.html#ac21ad5f989f320e46958b75ac8d9a1da" target="_top" xlink:title="Eigen::PlainObjectBase\l::setZero">
<polygon fill="none" stroke="black" points="254,-330.5 254,-360.5 380,-360.5 380,-330.5 254,-330.5"/>
<text text-anchor="start" x="262" y="-348.5" font-family="Helvetica,sans-Serif" font-size="10.00">Eigen::PlainObjectBase</text>
<text text-anchor="middle" x="317" y="-337.5" font-family="Helvetica,sans-Serif" font-size="10.00">::setZero</text>
</a>
</g>
</g>
<!-- Node2&#45;&gt;Node5 -->
<g id="edge5" class="edge"><title>Node2&#45;&gt;Node5</title>
<path fill="none" stroke="midnightblue" d="M177.577,-349.571C196.23,-349.023 220.654,-348.304 243.785,-347.624"/>
<polygon fill="midnightblue" stroke="midnightblue" points="244.054,-351.118 253.947,-347.325 243.848,-344.121 244.054,-351.118"/>
</g>
<!-- Node6&#45;&gt;Node3 -->
<g id="edge7" class="edge"><title>Node6&#45;&gt;Node3</title>
<path fill="none" stroke="midnightblue" d="M176.001,-394.5C196.702,-394.5 225.03,-394.5 250.79,-394.5"/>
<polygon fill="midnightblue" stroke="midnightblue" points="250.888,-398 260.888,-394.5 250.888,-391 250.888,-398"/>
</g>
<!-- Node6&#45;&gt;Node4 -->
<g id="edge8" class="edge"><title>Node6&#45;&gt;Node4</title>
<path fill="none" stroke="midnightblue" d="M176.001,-403.147C197.564,-409.363 227.403,-417.963 253.995,-425.628"/>
<polygon fill="midnightblue" stroke="midnightblue" points="253.045,-428.997 263.624,-428.403 254.984,-422.271 253.045,-428.997"/>
</g>
<!-- Node7 -->
<g id="node8" class="node"><title>Node7</title>
<g id="a_node8"><a xlink:href="classEigen_1_1SparseMatrix.html#a62e61bb861eee306d5b069ce652b5aa5" target="_top" xlink:title="Eigen::SparseMatrix\l::rows">
<polygon fill="none" stroke="black" points="261,-477.5 261,-507.5 373,-507.5 373,-477.5 261,-477.5"/>
<text text-anchor="start" x="269" y="-495.5" font-family="Helvetica,sans-Serif" font-size="10.00">Eigen::SparseMatrix</text>
<text text-anchor="middle" x="317" y="-484.5" font-family="Helvetica,sans-Serif" font-size="10.00">::rows</text>
</a>
</g>
</g>
<!-- Node6&#45;&gt;Node7 -->
<g id="edge9" class="edge"><title>Node6&#45;&gt;Node7</title>
<path fill="none" stroke="midnightblue" d="M176.041,-398.852C188.381,-401.755 202.261,-406.564 213,-414.5 236.197,-431.643 226.273,-450.738 249,-468.5 250.78,-469.891 252.647,-471.206 254.58,-472.448"/>
<polygon fill="midnightblue" stroke="midnightblue" points="252.984,-475.566 263.411,-477.442 256.429,-469.473 252.984,-475.566"/>
</g>
<!-- Node9 -->
<g id="node10" class="node"><title>Node9</title>
<g id="a_node10"><a xlink:href="classEigen_1_1SparseMatrix.html#a505802f4dd45f7c036ad28261f065610" target="_top" xlink:title="Eigen::SparseMatrix\l::finalize">
<polygon fill="none" stroke="black" points="261,-281.5 261,-311.5 373,-311.5 373,-281.5 261,-281.5"/>
<text text-anchor="start" x="269" y="-299.5" font-family="Helvetica,sans-Serif" font-size="10.00">Eigen::SparseMatrix</text>
<text text-anchor="middle" x="317" y="-288.5" font-family="Helvetica,sans-Serif" font-size="10.00">::finalize</text>
</a>
</g>
</g>
<!-- Node8&#45;&gt;Node9 -->
<g id="edge11" class="edge"><title>Node8&#45;&gt;Node9</title>
<path fill="none" stroke="midnightblue" d="M176.001,-294.853C196.702,-295.096 225.03,-295.43 250.79,-295.733"/>
<polygon fill="midnightblue" stroke="midnightblue" points="250.848,-299.234 260.888,-295.852 250.93,-292.234 250.848,-299.234"/>
</g>
<!-- Node10 -->
<g id="node11" class="node"><title>Node10</title>
<g id="a_node11"><a xlink:href="classEigen_1_1SparseMatrix.html#aae45e3b5fec7f6a0cdd10eec7c6d3666" target="_top" xlink:title="Eigen::SparseMatrix\l::insert">
<polygon fill="none" stroke="black" points="261,-232.5 261,-262.5 373,-262.5 373,-232.5 261,-232.5"/>
<text text-anchor="start" x="269" y="-250.5" font-family="Helvetica,sans-Serif" font-size="10.00">Eigen::SparseMatrix</text>
<text text-anchor="middle" x="317" y="-239.5" font-family="Helvetica,sans-Serif" font-size="10.00">::insert</text>
</a>
</g>
</g>
<!-- Node8&#45;&gt;Node10 -->
<g id="edge12" class="edge"><title>Node8&#45;&gt;Node10</title>
<path fill="none" stroke="midnightblue" d="M176.001,-286.206C196.963,-280.41 225.744,-272.453 251.761,-265.26"/>
<polygon fill="midnightblue" stroke="midnightblue" points="252.87,-268.585 261.575,-262.547 251.004,-261.838 252.87,-268.585"/>
</g>
<!-- Node11 -->
<g id="node12" class="node"><title>Node11</title>
<g id="a_node12"><a xlink:href="classEigen_1_1SparseMatrix.html#a1518e58ac49bed0e2385b722a034f7d3" target="_top" xlink:title="Eigen::SparseMatrix\l::reserve">
<polygon fill="none" stroke="black" points="261,-183.5 261,-213.5 373,-213.5 373,-183.5 261,-183.5"/>
<text text-anchor="start" x="269" y="-201.5" font-family="Helvetica,sans-Serif" font-size="10.00">Eigen::SparseMatrix</text>
<text text-anchor="middle" x="317" y="-190.5" font-family="Helvetica,sans-Serif" font-size="10.00">::reserve</text>
</a>
</g>
</g>
<!-- Node8&#45;&gt;Node11 -->
<g id="edge13" class="edge"><title>Node8&#45;&gt;Node11</title>
<path fill="none" stroke="midnightblue" d="M176.3,-290.483C188.542,-287.748 202.28,-283.166 213,-275.5 235.865,-259.15 226.815,-240.761 249,-223.5 251.297,-221.713 253.734,-220.044 256.268,-218.486"/>
<polygon fill="midnightblue" stroke="midnightblue" points="258.094,-221.477 265.187,-213.607 254.734,-215.336 258.094,-221.477"/>
</g>
<!-- Node15 -->
<g id="node16" class="node"><title>Node15</title>
<g id="a_node16"><a xlink:href="classEigen_1_1BenchTimer.html#a5e1faf3cf0c7958128fc4ad10377f51c" target="_top" xlink:title="Eigen::BenchTimer::\lgetCpuTime">
<polygon fill="none" stroke="black" points="261,-134.5 261,-164.5 373,-164.5 373,-134.5 261,-134.5"/>
<text text-anchor="start" x="269" y="-152.5" font-family="Helvetica,sans-Serif" font-size="10.00">Eigen::BenchTimer::</text>
<text text-anchor="middle" x="317" y="-141.5" font-family="Helvetica,sans-Serif" font-size="10.00">getCpuTime</text>
</a>
</g>
</g>
<!-- Node14&#45;&gt;Node15 -->
<g id="edge17" class="edge"><title>Node14&#45;&gt;Node15</title>
<path fill="none" stroke="midnightblue" d="M201.194,-151.526C217.011,-151.247 234.404,-150.94 250.763,-150.651"/>
<polygon fill="midnightblue" stroke="midnightblue" points="250.855,-154.15 260.792,-150.474 250.732,-147.151 250.855,-154.15"/>
</g>
<!-- Node17 -->
<g id="node18" class="node"><title>Node17</title>
<g id="a_node18"><a xlink:href="classEigen_1_1BenchTimer.html#af215200501091952ffa5e919fe31cfca" target="_top" xlink:title="Eigen::BenchTimer::\lgetRealTime">
<polygon fill="none" stroke="black" points="261,-85.5 261,-115.5 373,-115.5 373,-85.5 261,-85.5"/>
<text text-anchor="start" x="269" y="-103.5" font-family="Helvetica,sans-Serif" font-size="10.00">Eigen::BenchTimer::</text>
<text text-anchor="middle" x="317" y="-92.5" font-family="Helvetica,sans-Serif" font-size="10.00">getRealTime</text>
</a>
</g>
</g>
<!-- Node14&#45;&gt;Node17 -->
<g id="edge19" class="edge"><title>Node14&#45;&gt;Node17</title>
<path fill="none" stroke="midnightblue" d="M195.171,-137.459C214.554,-131.531 236.978,-124.671 257.208,-118.483"/>
<polygon fill="midnightblue" stroke="midnightblue" points="258.401,-121.779 266.939,-115.507 256.353,-115.085 258.401,-121.779"/>
</g>
<!-- Node16 -->
<g id="node17" class="node"><title>Node16</title>
<g id="a_node17"><a xlink:href="Cwise__array__power__array_8cpp.html#aa9e3025f5efca2c2a39d785652f2d710" target="_top" xlink:title="e">
<polygon fill="none" stroke="black" points="421,-115 421,-134 450,-134 450,-115 421,-115"/>
<text text-anchor="middle" x="435.5" y="-122" font-family="Helvetica,sans-Serif" font-size="10.00">e</text>
</a>
</g>
</g>
<!-- Node15&#45;&gt;Node16 -->
<g id="edge18" class="edge"><title>Node15&#45;&gt;Node16</title>
<path fill="none" stroke="midnightblue" d="M373.179,-137.659C386.412,-134.819 399.857,-131.934 410.771,-129.592"/>
<polygon fill="midnightblue" stroke="midnightblue" points="411.698,-132.973 420.741,-127.453 410.23,-126.129 411.698,-132.973"/>
</g>
<!-- Node17&#45;&gt;Node16 -->
<g id="edge20" class="edge"><title>Node17&#45;&gt;Node16</title>
<path fill="none" stroke="midnightblue" d="M373.179,-111.867C386.412,-114.593 399.857,-117.363 410.771,-119.612"/>
<polygon fill="midnightblue" stroke="midnightblue" points="410.241,-123.076 420.741,-121.666 411.653,-116.22 410.241,-123.076"/>
</g>
<!-- Node18&#45;&gt;Node15 -->
<g id="edge22" class="edge"><title>Node18&#45;&gt;Node15</title>
<path fill="none" stroke="midnightblue" d="M185.429,-118.009C204.822,-122.686 228.709,-128.447 250.727,-133.758"/>
<polygon fill="midnightblue" stroke="midnightblue" points="250.147,-137.218 260.688,-136.16 251.788,-130.413 250.147,-137.218"/>
</g>
<!-- Node18&#45;&gt;Node17 -->
<g id="edge23" class="edge"><title>Node18&#45;&gt;Node17</title>
<path fill="none" stroke="midnightblue" d="M211.726,-105.407C224.555,-104.803 238.001,-104.171 250.812,-103.568"/>
<polygon fill="midnightblue" stroke="midnightblue" points="251.101,-107.058 260.925,-103.092 250.772,-100.066 251.101,-107.058"/>
</g>
</g>
</svg>
        <g id="navigator" transform="translate(0 0)" fill="#404254">
                <rect fill="#f2f5e9" fill-opacity="0.5" stroke="#606060" stroke-width=".5" x="0" y="0" width="60" height="60"/>
                <use id="zoomplus" xlink:href="#zoomPlus" x="17" y="9" onmousedown="handleZoom(evt,'in')"/>
                <use id="zoomminus" xlink:href="#zoomMin" x="42" y="9" onmousedown="handleZoom(evt,'out')"/>
                <use id="reset" xlink:href="#resetDef" x="30" y="36" onmousedown="handleReset()"/>
                <g id="arrowUp" xlink:href="#dirArrow" transform="translate(30 24)" onmousedown="handlePan(0,-1)">
                  <use xlink:href="#rim" fill="#404040">
                        <set attributeName="fill" to="#808080" begin="arrowUp.mouseover" end="arrowUp.mouseout"/>
                  </use>
                  <path fill="none" stroke="white" stroke-width="1.5" d="M0,-3.0v7 M-2.5,-0.5L0,-3.0L2.5,-0.5"/>
                </g>
                <g id="arrowRight" xlink:href="#dirArrow" transform="rotate(90) translate(36 -43)" onmousedown="handlePan(1,0)">
                  <use xlink:href="#rim" fill="#404040">
                        <set attributeName="fill" to="#808080" begin="arrowRight.mouseover" end="arrowRight.mouseout"/>
                  </use>
                  <path fill="none" stroke="white" stroke-width="1.5" d="M0,-3.0v7 M-2.5,-0.5L0,-3.0L2.5,-0.5"/>
                </g>
                <g id="arrowDown" xlink:href="#dirArrow" transform="rotate(180) translate(-30 -48)" onmousedown="handlePan(0,1)">
                  <use xlink:href="#rim" fill="#404040">
                        <set attributeName="fill" to="#808080" begin="arrowDown.mouseover" end="arrowDown.mouseout"/>
                  </use>
                  <path fill="none" stroke="white" stroke-width="1.5" d="M0,-3.0v7 M-2.5,-0.5L0,-3.0L2.5,-0.5"/>
                </g>
                <g id="arrowLeft" xlink:href="#dirArrow" transform="rotate(270) translate(-36 17)" onmousedown="handlePan(-1,0)">
                  <use xlink:href="#rim" fill="#404040">
                        <set attributeName="fill" to="#808080" begin="arrowLeft.mouseover" end="arrowLeft.mouseout"/>
                  </use>
                  <path fill="none" stroke="white" stroke-width="1.5" d="M0,-3.0v7 M-2.5,-0.5L0,-3.0L2.5,-0.5"/>
                </g>
        </g>
        <svg viewBox="0 0 15 15" width="100%" height="30px" preserveAspectRatio="xMaxYMin meet">
         <g id="arrow_out" transform="scale(0.3 0.3)">
          <a xlink:href="spmv_8cpp_a0ddf1224851353fc92bfbff6f499fa97_cgraph_org.svg" target="_base">
           <rect id="button" ry="5" rx="5" y="6" x="6" height="38" width="38"
                fill="#f2f5e9" fill-opacity="0.5" stroke="#606060" stroke-width="1.0"/>
           <path id="arrow"
             d="M 11.500037,31.436501 C 11.940474,20.09759 22.043105,11.32322 32.158766,21.979434 L 37.068811,17.246167 C 37.068811,17.246167 37.088388,32 37.088388,32 L 22.160133,31.978069 C 22.160133,31.978069 26.997745,27.140456 26.997745,27.140456 C 18.528582,18.264221 13.291696,25.230495 11.500037,31.436501 z"
             style="fill:#404040;"/>
          </a>
         </g>
        </svg>
</svg>
