<?xml version="1.0" encoding="UTF-8" standalone="no"?>
<!DOCTYPE svg PUBLIC "-//W3C//DTD SVG 1.1//EN"
 "http://www.w3.org/Graphics/SVG/1.1/DTD/svg11.dtd">
<!-- Generated by graphviz version 2.38.0 (20140413.2041)
 -->
<!-- Title: test_spqr_support Pages: 1 -->
<svg width="954pt" height="270pt"
 viewBox="0.00 0.00 954.00 269.50" xmlns="http://www.w3.org/2000/svg" xmlns:xlink="http://www.w3.org/1999/xlink">
<g id="graph0" class="graph" transform="scale(1 1) rotate(0) translate(4 265.5)">
<title>test_spqr_support</title>
<!-- Node20 -->
<g id="node1" class="node"><title>Node20</title>
<polygon fill="#bfbfbf" stroke="black" points="0,-82.5 0,-101.5 104,-101.5 104,-82.5 0,-82.5"/>
<text text-anchor="middle" x="52" y="-89.5" font-family="Helvetica,sans-Serif" font-size="10.00">test_spqr_support</text>
</g>
<!-- Node21 -->
<g id="node2" class="node"><title>Node21</title>
<g id="a_node2"><a xlink:href="spqr__support_8cpp.html#a304d82d2a0c507e2fc919a50cffaa2cd" target="_top" xlink:title="test_spqr_scalar">
<polygon fill="none" stroke="black" points="140,-82.5 140,-101.5 235,-101.5 235,-82.5 140,-82.5"/>
<text text-anchor="middle" x="187.5" y="-89.5" font-family="Helvetica,sans-Serif" font-size="10.00">test_spqr_scalar</text>
</a>
</g>
</g>
<!-- Node20&#45;&gt;Node21 -->
<g id="edge1" class="edge"><title>Node20&#45;&gt;Node21</title>
<path fill="none" stroke="midnightblue" d="M104.233,-92C112.597,-92 121.305,-92 129.792,-92"/>
<polygon fill="midnightblue" stroke="midnightblue" points="129.996,-95.5001 139.996,-92 129.996,-88.5001 129.996,-95.5001"/>
</g>
<!-- Node22 -->
<g id="node3" class="node"><title>Node22</title>
<g id="a_node3"><a xlink:href="classEigen_1_1SPQR.html#a9fb013cddbd9e634b7174f8d2a4bca33" target="_top" xlink:title="Eigen::SPQR::compute">
<polygon fill="none" stroke="black" points="288,-148.5 288,-167.5 412,-167.5 412,-148.5 288,-148.5"/>
<text text-anchor="middle" x="350" y="-155.5" font-family="Helvetica,sans-Serif" font-size="10.00">Eigen::SPQR::compute</text>
</a>
</g>
</g>
<!-- Node21&#45;&gt;Node22 -->
<g id="edge2" class="edge"><title>Node21&#45;&gt;Node22</title>
<path fill="none" stroke="midnightblue" d="M202.492,-101.594C218.432,-112.13 245.572,-128.891 271,-139 277.265,-141.491 283.948,-143.719 290.667,-145.694"/>
<polygon fill="midnightblue" stroke="midnightblue" points="289.92,-149.119 300.491,-148.409 291.785,-142.372 289.92,-149.119"/>
</g>
<!-- Node32 -->
<g id="node13" class="node"><title>Node32</title>
<g id="a_node13"><a xlink:href="spqr__support_8cpp.html#adab1d196cebe8d8d461590d7417ef00f" target="_top" xlink:title="generate_sparse_rectangular\l_problem">
<polygon fill="none" stroke="black" points="271,-99 271,-129 429,-129 429,-99 271,-99"/>
<text text-anchor="start" x="279" y="-117" font-family="Helvetica,sans-Serif" font-size="10.00">generate_sparse_rectangular</text>
<text text-anchor="middle" x="350" y="-106" font-family="Helvetica,sans-Serif" font-size="10.00">_problem</text>
</a>
</g>
</g>
<!-- Node21&#45;&gt;Node32 -->
<g id="edge12" class="edge"><title>Node21&#45;&gt;Node32</title>
<path fill="none" stroke="midnightblue" d="M235.355,-98.4225C243.489,-99.5374 252.181,-100.729 260.998,-101.937"/>
<polygon fill="midnightblue" stroke="midnightblue" points="260.601,-105.416 270.984,-103.306 261.552,-98.4806 260.601,-105.416"/>
</g>
<!-- Node33 -->
<g id="node14" class="node"><title>Node33</title>
<g id="a_node14"><a xlink:href="classEigen_1_1SPQR.html#a3ab7bacba8d2be20adc10b4d5b6c071f" target="_top" xlink:title="Reports whether previous computation was successful. ">
<polygon fill="none" stroke="black" points="301,-60.5 301,-79.5 399,-79.5 399,-60.5 301,-60.5"/>
<text text-anchor="middle" x="350" y="-67.5" font-family="Helvetica,sans-Serif" font-size="10.00">Eigen::SPQR::info</text>
</a>
</g>
</g>
<!-- Node21&#45;&gt;Node33 -->
<g id="edge13" class="edge"><title>Node21&#45;&gt;Node33</title>
<path fill="none" stroke="midnightblue" d="M235.355,-85.5775C252.764,-83.1912 272.726,-80.455 291.013,-77.9484"/>
<polygon fill="midnightblue" stroke="midnightblue" points="291.541,-81.4088 300.973,-76.5831 290.59,-74.4737 291.541,-81.4088"/>
</g>
<!-- Node34 -->
<g id="node15" class="node"><title>Node34</title>
<g id="a_node15"><a xlink:href="classEigen_1_1SparseSolverBase.html#a4a66e9498b06e3ec4ec36f06b26d4e8f" target="_top" xlink:title="Eigen::SparseSolverBase\l\&lt; SPQR\&lt; _MatrixType \&gt;\l \&gt;::solve">
<polygon fill="none" stroke="black" points="281.5,-0.5 281.5,-41.5 418.5,-41.5 418.5,-0.5 281.5,-0.5"/>
<text text-anchor="start" x="289.5" y="-29.5" font-family="Helvetica,sans-Serif" font-size="10.00">Eigen::SparseSolverBase</text>
<text text-anchor="start" x="289.5" y="-18.5" font-family="Helvetica,sans-Serif" font-size="10.00">&lt; SPQR&lt; _MatrixType &gt;</text>
<text text-anchor="middle" x="350" y="-7.5" font-family="Helvetica,sans-Serif" font-size="10.00"> &gt;::solve</text>
</a>
</g>
</g>
<!-- Node21&#45;&gt;Node34 -->
<g id="edge14" class="edge"><title>Node21&#45;&gt;Node34</title>
<path fill="none" stroke="midnightblue" d="M206.616,-82.3813C223.177,-73.7363 248.452,-60.9129 271,-51 275.337,-49.0932 279.837,-47.1846 284.388,-45.3059"/>
<polygon fill="midnightblue" stroke="midnightblue" points="285.814,-48.5046 293.764,-41.5014 283.182,-42.0183 285.814,-48.5046"/>
</g>
<!-- Node23 -->
<g id="node4" class="node"><title>Node23</title>
<g id="a_node4"><a xlink:href="classEigen_1_1SparseMatrix.html#aa391750e3c530227e4a5c3c52e959975" target="_top" xlink:title="Eigen::SparseMatrix\l::cols">
<polygon fill="none" stroke="black" points="486.5,-231 486.5,-261 598.5,-261 598.5,-231 486.5,-231"/>
<text text-anchor="start" x="494.5" y="-249" font-family="Helvetica,sans-Serif" font-size="10.00">Eigen::SparseMatrix</text>
<text text-anchor="middle" x="542.5" y="-238" font-family="Helvetica,sans-Serif" font-size="10.00">::cols</text>
</a>
</g>
</g>
<!-- Node22&#45;&gt;Node23 -->
<g id="edge3" class="edge"><title>Node22&#45;&gt;Node23</title>
<path fill="none" stroke="midnightblue" d="M366.021,-167.51C387.394,-180.757 428.091,-204.942 465,-221 470.253,-223.285 475.786,-225.48 481.374,-227.554"/>
<polygon fill="midnightblue" stroke="midnightblue" points="480.196,-230.85 490.791,-230.926 482.556,-224.26 480.196,-230.85"/>
</g>
<!-- Node24 -->
<g id="node5" class="node"><title>Node24</title>
<g id="a_node5"><a xlink:href="classEigen_1_1SparseMatrixBase.html#a8f4eaa3c3921ef3823ffc69ebcc356af" target="_top" xlink:title="Eigen::SparseMatrixBase::col">
<polygon fill="none" stroke="black" points="465,-192.5 465,-211.5 620,-211.5 620,-192.5 465,-192.5"/>
<text text-anchor="middle" x="542.5" y="-199.5" font-family="Helvetica,sans-Serif" font-size="10.00">Eigen::SparseMatrixBase::col</text>
</a>
</g>
</g>
<!-- Node22&#45;&gt;Node24 -->
<g id="edge4" class="edge"><title>Node22&#45;&gt;Node24</title>
<path fill="none" stroke="midnightblue" d="M392.336,-167.547C421.044,-174.178 459.494,-183.059 490.167,-190.143"/>
<polygon fill="midnightblue" stroke="midnightblue" points="489.714,-193.631 500.245,-192.471 491.289,-186.811 489.714,-193.631"/>
</g>
<!-- Node25 -->
<g id="node6" class="node"><title>Node25</title>
<g id="a_node6"><a xlink:href="classEigen_1_1SparseMatrix.html#a62e61bb861eee306d5b069ce652b5aa5" target="_top" xlink:title="Eigen::SparseMatrix\l::rows">
<polygon fill="none" stroke="black" points="486.5,-143 486.5,-173 598.5,-173 598.5,-143 486.5,-143"/>
<text text-anchor="start" x="494.5" y="-161" font-family="Helvetica,sans-Serif" font-size="10.00">Eigen::SparseMatrix</text>
<text text-anchor="middle" x="542.5" y="-150" font-family="Helvetica,sans-Serif" font-size="10.00">::rows</text>
</a>
</g>
</g>
<!-- Node22&#45;&gt;Node25 -->
<g id="edge5" class="edge"><title>Node22&#45;&gt;Node25</title>
<path fill="none" stroke="midnightblue" d="M412.061,-158C432.543,-158 455.457,-158 476.247,-158"/>
<polygon fill="midnightblue" stroke="midnightblue" points="476.263,-161.5 486.263,-158 476.263,-154.5 476.263,-161.5"/>
</g>
<!-- Node26 -->
<g id="node7" class="node"><title>Node26</title>
<g id="a_node7"><a xlink:href="namespaceEigen.html#ac9fb9e40cfc9ddbdc7da84ee01bb7545" target="_top" xlink:title="Eigen::viewAsCholmod">
<polygon fill="none" stroke="black" points="480.5,-104.5 480.5,-123.5 604.5,-123.5 604.5,-104.5 480.5,-104.5"/>
<text text-anchor="middle" x="542.5" y="-111.5" font-family="Helvetica,sans-Serif" font-size="10.00">Eigen::viewAsCholmod</text>
</a>
</g>
</g>
<!-- Node22&#45;&gt;Node26 -->
<g id="edge6" class="edge"><title>Node22&#45;&gt;Node26</title>
<path fill="none" stroke="midnightblue" d="M392.336,-148.453C421.044,-141.822 459.494,-132.941 490.167,-125.857"/>
<polygon fill="midnightblue" stroke="midnightblue" points="491.289,-129.189 500.245,-123.529 489.714,-122.369 491.289,-129.189"/>
</g>
<!-- Node31 -->
<g id="node12" class="node"><title>Node31</title>
<g id="a_node12"><a xlink:href="MatrixBase__col_8cpp.html#aa168d9544aa6d49fce0cbfc0bec849b0" target="_top" xlink:title="col">
<polygon fill="none" stroke="black" points="527.5,-66.5 527.5,-85.5 557.5,-85.5 557.5,-66.5 527.5,-66.5"/>
<text text-anchor="middle" x="542.5" y="-73.5" font-family="Helvetica,sans-Serif" font-size="10.00">col</text>
</a>
</g>
</g>
<!-- Node22&#45;&gt;Node31 -->
<g id="edge11" class="edge"><title>Node22&#45;&gt;Node31</title>
<path fill="none" stroke="midnightblue" d="M408.969,-148.391C416.008,-145.939 422.867,-142.862 429,-139 450.381,-125.536 443.65,-108.512 465,-95 480.784,-85.0104 501.485,-80.2719 517.372,-78.0249"/>
<polygon fill="midnightblue" stroke="midnightblue" points="517.961,-81.4799 527.483,-76.8334 517.142,-74.528 517.961,-81.4799"/>
</g>
<!-- Node27 -->
<g id="node8" class="node"><title>Node27</title>
<g id="a_node8"><a xlink:href="namespaceEigen_1_1TensorSycl.html#a789ef14500d782279cc4bb95e6ba3dbd" target="_top" xlink:title="Eigen::TensorSycl::run">
<polygon fill="none" stroke="black" points="656,-104.5 656,-123.5 777,-123.5 777,-104.5 656,-104.5"/>
<text text-anchor="middle" x="716.5" y="-111.5" font-family="Helvetica,sans-Serif" font-size="10.00">Eigen::TensorSycl::run</text>
</a>
</g>
</g>
<!-- Node26&#45;&gt;Node27 -->
<g id="edge7" class="edge"><title>Node26&#45;&gt;Node27</title>
<path fill="none" stroke="midnightblue" d="M604.625,-114C617.86,-114 631.954,-114 645.499,-114"/>
<polygon fill="midnightblue" stroke="midnightblue" points="645.728,-117.5 655.727,-114 645.727,-110.5 645.728,-117.5"/>
</g>
<!-- Node28 -->
<g id="node9" class="node"><title>Node28</title>
<g id="a_node9"><a xlink:href="structEigen_1_1TensorEvaluator.html#ae188d806978166eb8cbffbd63c944fb3" target="_top" xlink:title="Eigen::TensorEvaluator\l::evalSubExprsIfNeeded">
<polygon fill="none" stroke="black" points="814.5,-148 814.5,-178 944.5,-178 944.5,-148 814.5,-148"/>
<text text-anchor="start" x="822.5" y="-166" font-family="Helvetica,sans-Serif" font-size="10.00">Eigen::TensorEvaluator</text>
<text text-anchor="middle" x="879.5" y="-155" font-family="Helvetica,sans-Serif" font-size="10.00">::evalSubExprsIfNeeded</text>
</a>
</g>
</g>
<!-- Node27&#45;&gt;Node28 -->
<g id="edge8" class="edge"><title>Node27&#45;&gt;Node28</title>
<path fill="none" stroke="midnightblue" d="M748.925,-123.564C768.952,-129.659 795.532,-137.749 819.404,-145.014"/>
<polygon fill="midnightblue" stroke="midnightblue" points="818.507,-148.4 829.093,-147.963 820.545,-141.703 818.507,-148.4"/>
</g>
<!-- Node29 -->
<g id="node10" class="node"><title>Node29</title>
<g id="a_node10"><a xlink:href="namespaceEigen_1_1TensorSycl_1_1internal.html#a525ee07cdeb68d18359b511b1ae9ffc7" target="_top" xlink:title="template deduction function for FunctorExtractor ">
<polygon fill="none" stroke="black" points="813,-99 813,-129 946,-129 946,-99 813,-99"/>
<text text-anchor="start" x="821" y="-117" font-family="Helvetica,sans-Serif" font-size="10.00">Eigen::TensorSycl::</text>
<text text-anchor="middle" x="879.5" y="-106" font-family="Helvetica,sans-Serif" font-size="10.00">internal::extractFunctors</text>
</a>
</g>
</g>
<!-- Node27&#45;&gt;Node29 -->
<g id="edge9" class="edge"><title>Node27&#45;&gt;Node29</title>
<path fill="none" stroke="midnightblue" d="M777.45,-114C785.65,-114 794.154,-114 802.59,-114"/>
<polygon fill="midnightblue" stroke="midnightblue" points="802.823,-117.5 812.823,-114 802.823,-110.5 802.823,-117.5"/>
</g>
<!-- Node30 -->
<g id="node11" class="node"><title>Node30</title>
<g id="a_node11"><a xlink:href="structEigen_1_1TensorEvaluator.html#a76ec54bcca9523ec104aaa9adaf74983" target="_top" xlink:title="Eigen::TensorEvaluator\l::cleanup">
<polygon fill="none" stroke="black" points="817,-50 817,-80 942,-80 942,-50 817,-50"/>
<text text-anchor="start" x="825" y="-68" font-family="Helvetica,sans-Serif" font-size="10.00">Eigen::TensorEvaluator</text>
<text text-anchor="middle" x="879.5" y="-57" font-family="Helvetica,sans-Serif" font-size="10.00">::cleanup</text>
</a>
</g>
</g>
<!-- Node27&#45;&gt;Node30 -->
<g id="edge10" class="edge"><title>Node27&#45;&gt;Node30</title>
<path fill="none" stroke="midnightblue" d="M748.925,-104.436C768.952,-98.3408 795.532,-90.2512 819.404,-82.9857"/>
<polygon fill="midnightblue" stroke="midnightblue" points="820.545,-86.297 829.093,-80.037 818.507,-79.6003 820.545,-86.297"/>
</g>
</g>
</svg>
