<?xml version="1.0" encoding="UTF-8" standalone="no"?>
<!DOCTYPE svg PUBLIC "-//W3C//DTD SVG 1.1//EN"
 "http://www.w3.org/Graphics/SVG/1.1/DTD/svg11.dtd">
<!-- Generated by graphviz version 2.38.0 (20140413.2041)
 -->
<!-- Title: test_spqr_scalar Pages: 1 -->
<svg width="814pt" height="270pt"
 viewBox="0.00 0.00 814.00 269.50" xmlns="http://www.w3.org/2000/svg" xmlns:xlink="http://www.w3.org/1999/xlink">
<g id="graph0" class="graph" transform="scale(1 1) rotate(0) translate(4 265.5)">
<title>test_spqr_scalar</title>
<!-- Node4 -->
<g id="node1" class="node"><title>Node4</title>
<polygon fill="#bfbfbf" stroke="black" points="0,-82.5 0,-101.5 95,-101.5 95,-82.5 0,-82.5"/>
<text text-anchor="middle" x="47.5" y="-89.5" font-family="Helvetica,sans-Serif" font-size="10.00">test_spqr_scalar</text>
</g>
<!-- Node5 -->
<g id="node2" class="node"><title>Node5</title>
<g id="a_node2"><a xlink:href="classEigen_1_1SPQR.html#a9fb013cddbd9e634b7174f8d2a4bca33" target="_top" xlink:title="Eigen::SPQR::compute">
<polygon fill="none" stroke="black" points="148,-148.5 148,-167.5 272,-167.5 272,-148.5 148,-148.5"/>
<text text-anchor="middle" x="210" y="-155.5" font-family="Helvetica,sans-Serif" font-size="10.00">Eigen::SPQR::compute</text>
</a>
</g>
</g>
<!-- Node4&#45;&gt;Node5 -->
<g id="edge1" class="edge"><title>Node4&#45;&gt;Node5</title>
<path fill="none" stroke="midnightblue" d="M62.4921,-101.594C78.4321,-112.13 105.572,-128.891 131,-139 137.265,-141.491 143.948,-143.719 150.667,-145.694"/>
<polygon fill="midnightblue" stroke="midnightblue" points="149.92,-149.119 160.491,-148.409 151.785,-142.372 149.92,-149.119"/>
</g>
<!-- Node15 -->
<g id="node12" class="node"><title>Node15</title>
<g id="a_node12"><a xlink:href="spqr__support_8cpp.html#adab1d196cebe8d8d461590d7417ef00f" target="_top" xlink:title="generate_sparse_rectangular\l_problem">
<polygon fill="none" stroke="black" points="131,-99 131,-129 289,-129 289,-99 131,-99"/>
<text text-anchor="start" x="139" y="-117" font-family="Helvetica,sans-Serif" font-size="10.00">generate_sparse_rectangular</text>
<text text-anchor="middle" x="210" y="-106" font-family="Helvetica,sans-Serif" font-size="10.00">_problem</text>
</a>
</g>
</g>
<!-- Node4&#45;&gt;Node15 -->
<g id="edge11" class="edge"><title>Node4&#45;&gt;Node15</title>
<path fill="none" stroke="midnightblue" d="M95.3547,-98.4225C103.489,-99.5374 112.181,-100.729 120.998,-101.937"/>
<polygon fill="midnightblue" stroke="midnightblue" points="120.601,-105.416 130.984,-103.306 121.552,-98.4806 120.601,-105.416"/>
</g>
<!-- Node16 -->
<g id="node13" class="node"><title>Node16</title>
<g id="a_node13"><a xlink:href="classEigen_1_1SPQR.html#a3ab7bacba8d2be20adc10b4d5b6c071f" target="_top" xlink:title="Reports whether previous computation was successful. ">
<polygon fill="none" stroke="black" points="161,-60.5 161,-79.5 259,-79.5 259,-60.5 161,-60.5"/>
<text text-anchor="middle" x="210" y="-67.5" font-family="Helvetica,sans-Serif" font-size="10.00">Eigen::SPQR::info</text>
</a>
</g>
</g>
<!-- Node4&#45;&gt;Node16 -->
<g id="edge12" class="edge"><title>Node4&#45;&gt;Node16</title>
<path fill="none" stroke="midnightblue" d="M95.3547,-85.5775C112.764,-83.1912 132.726,-80.455 151.013,-77.9484"/>
<polygon fill="midnightblue" stroke="midnightblue" points="151.541,-81.4088 160.973,-76.5831 150.59,-74.4737 151.541,-81.4088"/>
</g>
<!-- Node17 -->
<g id="node14" class="node"><title>Node17</title>
<g id="a_node14"><a xlink:href="classEigen_1_1SparseSolverBase.html#a4a66e9498b06e3ec4ec36f06b26d4e8f" target="_top" xlink:title="Eigen::SparseSolverBase\l\&lt; SPQR\&lt; _MatrixType \&gt;\l \&gt;::solve">
<polygon fill="none" stroke="black" points="141.5,-0.5 141.5,-41.5 278.5,-41.5 278.5,-0.5 141.5,-0.5"/>
<text text-anchor="start" x="149.5" y="-29.5" font-family="Helvetica,sans-Serif" font-size="10.00">Eigen::SparseSolverBase</text>
<text text-anchor="start" x="149.5" y="-18.5" font-family="Helvetica,sans-Serif" font-size="10.00">&lt; SPQR&lt; _MatrixType &gt;</text>
<text text-anchor="middle" x="210" y="-7.5" font-family="Helvetica,sans-Serif" font-size="10.00"> &gt;::solve</text>
</a>
</g>
</g>
<!-- Node4&#45;&gt;Node17 -->
<g id="edge13" class="edge"><title>Node4&#45;&gt;Node17</title>
<path fill="none" stroke="midnightblue" d="M66.6158,-82.3813C83.177,-73.7363 108.452,-60.9129 131,-51 135.337,-49.0932 139.837,-47.1846 144.388,-45.3059"/>
<polygon fill="midnightblue" stroke="midnightblue" points="145.814,-48.5046 153.764,-41.5014 143.182,-42.0183 145.814,-48.5046"/>
</g>
<!-- Node6 -->
<g id="node3" class="node"><title>Node6</title>
<g id="a_node3"><a xlink:href="classEigen_1_1SparseMatrix.html#aa391750e3c530227e4a5c3c52e959975" target="_top" xlink:title="Eigen::SparseMatrix\l::cols">
<polygon fill="none" stroke="black" points="346.5,-231 346.5,-261 458.5,-261 458.5,-231 346.5,-231"/>
<text text-anchor="start" x="354.5" y="-249" font-family="Helvetica,sans-Serif" font-size="10.00">Eigen::SparseMatrix</text>
<text text-anchor="middle" x="402.5" y="-238" font-family="Helvetica,sans-Serif" font-size="10.00">::cols</text>
</a>
</g>
</g>
<!-- Node5&#45;&gt;Node6 -->
<g id="edge2" class="edge"><title>Node5&#45;&gt;Node6</title>
<path fill="none" stroke="midnightblue" d="M226.021,-167.51C247.394,-180.757 288.091,-204.942 325,-221 330.253,-223.285 335.786,-225.48 341.374,-227.554"/>
<polygon fill="midnightblue" stroke="midnightblue" points="340.196,-230.85 350.791,-230.926 342.556,-224.26 340.196,-230.85"/>
</g>
<!-- Node7 -->
<g id="node4" class="node"><title>Node7</title>
<g id="a_node4"><a xlink:href="classEigen_1_1SparseMatrixBase.html#a8f4eaa3c3921ef3823ffc69ebcc356af" target="_top" xlink:title="Eigen::SparseMatrixBase::col">
<polygon fill="none" stroke="black" points="325,-192.5 325,-211.5 480,-211.5 480,-192.5 325,-192.5"/>
<text text-anchor="middle" x="402.5" y="-199.5" font-family="Helvetica,sans-Serif" font-size="10.00">Eigen::SparseMatrixBase::col</text>
</a>
</g>
</g>
<!-- Node5&#45;&gt;Node7 -->
<g id="edge3" class="edge"><title>Node5&#45;&gt;Node7</title>
<path fill="none" stroke="midnightblue" d="M252.336,-167.547C281.044,-174.178 319.494,-183.059 350.167,-190.143"/>
<polygon fill="midnightblue" stroke="midnightblue" points="349.714,-193.631 360.245,-192.471 351.289,-186.811 349.714,-193.631"/>
</g>
<!-- Node8 -->
<g id="node5" class="node"><title>Node8</title>
<g id="a_node5"><a xlink:href="classEigen_1_1SparseMatrix.html#a62e61bb861eee306d5b069ce652b5aa5" target="_top" xlink:title="Eigen::SparseMatrix\l::rows">
<polygon fill="none" stroke="black" points="346.5,-143 346.5,-173 458.5,-173 458.5,-143 346.5,-143"/>
<text text-anchor="start" x="354.5" y="-161" font-family="Helvetica,sans-Serif" font-size="10.00">Eigen::SparseMatrix</text>
<text text-anchor="middle" x="402.5" y="-150" font-family="Helvetica,sans-Serif" font-size="10.00">::rows</text>
</a>
</g>
</g>
<!-- Node5&#45;&gt;Node8 -->
<g id="edge4" class="edge"><title>Node5&#45;&gt;Node8</title>
<path fill="none" stroke="midnightblue" d="M272.061,-158C292.543,-158 315.457,-158 336.247,-158"/>
<polygon fill="midnightblue" stroke="midnightblue" points="336.263,-161.5 346.263,-158 336.263,-154.5 336.263,-161.5"/>
</g>
<!-- Node9 -->
<g id="node6" class="node"><title>Node9</title>
<g id="a_node6"><a xlink:href="namespaceEigen.html#ac9fb9e40cfc9ddbdc7da84ee01bb7545" target="_top" xlink:title="Eigen::viewAsCholmod">
<polygon fill="none" stroke="black" points="340.5,-104.5 340.5,-123.5 464.5,-123.5 464.5,-104.5 340.5,-104.5"/>
<text text-anchor="middle" x="402.5" y="-111.5" font-family="Helvetica,sans-Serif" font-size="10.00">Eigen::viewAsCholmod</text>
</a>
</g>
</g>
<!-- Node5&#45;&gt;Node9 -->
<g id="edge5" class="edge"><title>Node5&#45;&gt;Node9</title>
<path fill="none" stroke="midnightblue" d="M252.336,-148.453C281.044,-141.822 319.494,-132.941 350.167,-125.857"/>
<polygon fill="midnightblue" stroke="midnightblue" points="351.289,-129.189 360.245,-123.529 349.714,-122.369 351.289,-129.189"/>
</g>
<!-- Node14 -->
<g id="node11" class="node"><title>Node14</title>
<g id="a_node11"><a xlink:href="MatrixBase__col_8cpp.html#aa168d9544aa6d49fce0cbfc0bec849b0" target="_top" xlink:title="col">
<polygon fill="none" stroke="black" points="387.5,-66.5 387.5,-85.5 417.5,-85.5 417.5,-66.5 387.5,-66.5"/>
<text text-anchor="middle" x="402.5" y="-73.5" font-family="Helvetica,sans-Serif" font-size="10.00">col</text>
</a>
</g>
</g>
<!-- Node5&#45;&gt;Node14 -->
<g id="edge10" class="edge"><title>Node5&#45;&gt;Node14</title>
<path fill="none" stroke="midnightblue" d="M268.969,-148.391C276.008,-145.939 282.867,-142.862 289,-139 310.381,-125.536 303.65,-108.512 325,-95 340.784,-85.0104 361.485,-80.2719 377.372,-78.0249"/>
<polygon fill="midnightblue" stroke="midnightblue" points="377.961,-81.4799 387.483,-76.8334 377.142,-74.528 377.961,-81.4799"/>
</g>
<!-- Node10 -->
<g id="node7" class="node"><title>Node10</title>
<g id="a_node7"><a xlink:href="namespaceEigen_1_1TensorSycl.html#a789ef14500d782279cc4bb95e6ba3dbd" target="_top" xlink:title="Eigen::TensorSycl::run">
<polygon fill="none" stroke="black" points="516,-104.5 516,-123.5 637,-123.5 637,-104.5 516,-104.5"/>
<text text-anchor="middle" x="576.5" y="-111.5" font-family="Helvetica,sans-Serif" font-size="10.00">Eigen::TensorSycl::run</text>
</a>
</g>
</g>
<!-- Node9&#45;&gt;Node10 -->
<g id="edge6" class="edge"><title>Node9&#45;&gt;Node10</title>
<path fill="none" stroke="midnightblue" d="M464.625,-114C477.86,-114 491.954,-114 505.499,-114"/>
<polygon fill="midnightblue" stroke="midnightblue" points="505.728,-117.5 515.727,-114 505.727,-110.5 505.728,-117.5"/>
</g>
<!-- Node11 -->
<g id="node8" class="node"><title>Node11</title>
<g id="a_node8"><a xlink:href="structEigen_1_1TensorEvaluator.html#ae188d806978166eb8cbffbd63c944fb3" target="_top" xlink:title="Eigen::TensorEvaluator\l::evalSubExprsIfNeeded">
<polygon fill="none" stroke="black" points="674.5,-148 674.5,-178 804.5,-178 804.5,-148 674.5,-148"/>
<text text-anchor="start" x="682.5" y="-166" font-family="Helvetica,sans-Serif" font-size="10.00">Eigen::TensorEvaluator</text>
<text text-anchor="middle" x="739.5" y="-155" font-family="Helvetica,sans-Serif" font-size="10.00">::evalSubExprsIfNeeded</text>
</a>
</g>
</g>
<!-- Node10&#45;&gt;Node11 -->
<g id="edge7" class="edge"><title>Node10&#45;&gt;Node11</title>
<path fill="none" stroke="midnightblue" d="M608.925,-123.564C628.952,-129.659 655.532,-137.749 679.404,-145.014"/>
<polygon fill="midnightblue" stroke="midnightblue" points="678.507,-148.4 689.093,-147.963 680.545,-141.703 678.507,-148.4"/>
</g>
<!-- Node12 -->
<g id="node9" class="node"><title>Node12</title>
<g id="a_node9"><a xlink:href="namespaceEigen_1_1TensorSycl_1_1internal.html#a525ee07cdeb68d18359b511b1ae9ffc7" target="_top" xlink:title="template deduction function for FunctorExtractor ">
<polygon fill="none" stroke="black" points="673,-99 673,-129 806,-129 806,-99 673,-99"/>
<text text-anchor="start" x="681" y="-117" font-family="Helvetica,sans-Serif" font-size="10.00">Eigen::TensorSycl::</text>
<text text-anchor="middle" x="739.5" y="-106" font-family="Helvetica,sans-Serif" font-size="10.00">internal::extractFunctors</text>
</a>
</g>
</g>
<!-- Node10&#45;&gt;Node12 -->
<g id="edge8" class="edge"><title>Node10&#45;&gt;Node12</title>
<path fill="none" stroke="midnightblue" d="M637.45,-114C645.65,-114 654.154,-114 662.59,-114"/>
<polygon fill="midnightblue" stroke="midnightblue" points="662.823,-117.5 672.823,-114 662.823,-110.5 662.823,-117.5"/>
</g>
<!-- Node13 -->
<g id="node10" class="node"><title>Node13</title>
<g id="a_node10"><a xlink:href="structEigen_1_1TensorEvaluator.html#a76ec54bcca9523ec104aaa9adaf74983" target="_top" xlink:title="Eigen::TensorEvaluator\l::cleanup">
<polygon fill="none" stroke="black" points="677,-50 677,-80 802,-80 802,-50 677,-50"/>
<text text-anchor="start" x="685" y="-68" font-family="Helvetica,sans-Serif" font-size="10.00">Eigen::TensorEvaluator</text>
<text text-anchor="middle" x="739.5" y="-57" font-family="Helvetica,sans-Serif" font-size="10.00">::cleanup</text>
</a>
</g>
</g>
<!-- Node10&#45;&gt;Node13 -->
<g id="edge9" class="edge"><title>Node10&#45;&gt;Node13</title>
<path fill="none" stroke="midnightblue" d="M608.925,-104.436C628.952,-98.3408 655.532,-90.2512 679.404,-82.9857"/>
<polygon fill="midnightblue" stroke="midnightblue" points="680.545,-86.297 689.093,-80.037 678.507,-79.6003 680.545,-86.297"/>
</g>
</g>
</svg>
