<?xml version="1.0" encoding="UTF-8" standalone="no"?>
<!DOCTYPE svg PUBLIC "-//W3C//DTD SVG 1.1//EN"
 "http://www.w3.org/Graphics/SVG/1.1/DTD/svg11.dtd">
<!-- Generated by graphviz version 2.38.0 (20140413.2041)
 -->
<!-- Title: /travis/libpairinteraction/SQLite.h Pages: 1 -->
<!--zoomable 463 -->
<svg id="main" version="1.1" xmlns="http://www.w3.org/2000/svg" xmlns:xlink="http://www.w3.org/1999/xlink" xml:space="preserve" onload="init(evt)">
<style type="text/css"><![CDATA[
.edge:hover path { stroke: red; }
.edge:hover polygon { stroke: red; fill: red; }
]]></style>
<script type="text/javascript"><![CDATA[
var edges = document.getElementsByTagName('g');
if (edges && edges.length) {
  for (var i=0;i<edges.length;i++) {
    if (edges[i].id.substr(0,4)=='edge') {
      edges[i].setAttribute('class','edge');
    }
  }
}
]]></script>
        <defs>
                <circle id="rim" cx="0" cy="0" r="7"/>
                <circle id="rim2" cx="0" cy="0" r="3.5"/>
                <g id="zoomPlus">
                        <use xlink:href="#rim" fill="#404040">
                                <set attributeName="fill" to="#808080" begin="zoomplus.mouseover" end="zoomplus.mouseout"/>
                        </use>
                        <path d="M-4,0h8M0,-4v8" fill="none" stroke="white" stroke-width="1.5" pointer-events="none"/>
                </g>
                <g id="zoomMin">
                        <use xlink:href="#rim" fill="#404040">
                                <set attributeName="fill" to="#808080" begin="zoomminus.mouseover" end="zoomminus.mouseout"/>
                        </use>
                        <path d="M-4,0h8" fill="none" stroke="white" stroke-width="1.5" pointer-events="none"/>
                </g>
                <g id="dirArrow">
                        <path fill="none" stroke="white" stroke-width="1.5" d="M0,-3.0v7 M-2.5,-0.5L0,-3.0L2.5,-0.5"/>
                </g>
               <g id="resetDef">
                       <use xlink:href="#rim2" fill="#404040">
                               <set attributeName="fill" to="#808080" begin="reset.mouseover" end="reset.mouseout"/>
                       </use>
               </g>
        </defs>

<script type="text/javascript">
var viewWidth = 1042;
var viewHeight = 463;
var sectionId = 'dynsection-1';
</script>
<script xlink:href="svgpan.js"/>
<svg id="graph" class="graph">
<g id="viewport">
<title>/travis/libpairinteraction/SQLite.h</title>
<!-- Node13 -->
<g id="node1" class="node"><title>Node13</title>
<polygon fill="#bfbfbf" stroke="black" points="346,-424.5 346,-454.5 474,-454.5 474,-424.5 346,-424.5"/>
<text text-anchor="start" x="354" y="-442.5" font-family="Helvetica,sans-Serif" font-size="10.00">/travis/libpairinteraction</text>
<text text-anchor="middle" x="410" y="-431.5" font-family="Helvetica,sans-Serif" font-size="10.00">/SQLite.h</text>
</g>
<!-- Node14 -->
<g id="node2" class="node"><title>Node14</title>
<g id="a_node2"><a xlink:href="EmbeddedDatabase_8h.html" target="_top" xlink:title="/travis/libpairinteraction\l/EmbeddedDatabase.h">
<polygon fill="none" stroke="black" points="124,-357.5 124,-387.5 252,-387.5 252,-357.5 124,-357.5"/>
<text text-anchor="start" x="132" y="-375.5" font-family="Helvetica,sans-Serif" font-size="10.00">/travis/libpairinteraction</text>
<text text-anchor="middle" x="188" y="-364.5" font-family="Helvetica,sans-Serif" font-size="10.00">/EmbeddedDatabase.h</text>
</a>
</g>
</g>
<!-- Node13&#45;&gt;Node14 -->
<g id="edge1" class="edge"><title>Node13&#45;&gt;Node14</title>
<path fill="none" stroke="midnightblue" d="M352.211,-421.58C316.154,-411.022 270.284,-397.592 236.194,-387.611"/>
<polygon fill="midnightblue" stroke="midnightblue" points="351.522,-425.025 362.103,-424.476 353.489,-418.307 351.522,-425.025"/>
</g>
<!-- Node15 -->
<g id="node3" class="node"><title>Node15</title>
<g id="a_node3"><a xlink:href="QuantumDefect_8cpp.html" target="_top" xlink:title="/travis/libpairinteraction\l/QuantumDefect.cpp">
<polygon fill="none" stroke="black" points="0,-285 0,-315 128,-315 128,-285 0,-285"/>
<text text-anchor="start" x="8" y="-303" font-family="Helvetica,sans-Serif" font-size="10.00">/travis/libpairinteraction</text>
<text text-anchor="middle" x="64" y="-292" font-family="Helvetica,sans-Serif" font-size="10.00">/QuantumDefect.cpp</text>
</a>
</g>
</g>
<!-- Node13&#45;&gt;Node15 -->
<g id="edge28" class="edge"><title>Node13&#45;&gt;Node15</title>
<path fill="none" stroke="midnightblue" d="M335.39,-432.895C260.01,-425.988 149.847,-412.1 115,-388 89.2244,-370.174 74.5601,-334.741 68.0705,-315.04"/>
<polygon fill="midnightblue" stroke="midnightblue" points="335.513,-436.42 345.785,-433.824 336.136,-429.448 335.513,-436.42"/>
</g>
<!-- Node16 -->
<g id="node4" class="node"><title>Node16</title>
<g id="a_node4"><a xlink:href="quantum__defect__test_8cpp.html" target="_top" xlink:title="/travis/libpairinteraction\l/unit_test/quantum_defect\l_test.cpp">
<polygon fill="none" stroke="black" points="146.5,-279.5 146.5,-320.5 289.5,-320.5 289.5,-279.5 146.5,-279.5"/>
<text text-anchor="start" x="154.5" y="-308.5" font-family="Helvetica,sans-Serif" font-size="10.00">/travis/libpairinteraction</text>
<text text-anchor="start" x="154.5" y="-297.5" font-family="Helvetica,sans-Serif" font-size="10.00">/unit_test/quantum_defect</text>
<text text-anchor="middle" x="218" y="-286.5" font-family="Helvetica,sans-Serif" font-size="10.00">_test.cpp</text>
</a>
</g>
</g>
<!-- Node13&#45;&gt;Node16 -->
<g id="edge29" class="edge"><title>Node13&#45;&gt;Node16</title>
<path fill="none" stroke="midnightblue" d="M363.013,-420.319C343.873,-411.866 322.052,-400.83 304,-388 276.475,-368.437 249.966,-339.614 233.829,-320.58"/>
<polygon fill="midnightblue" stroke="midnightblue" points="361.884,-423.643 372.453,-424.379 364.65,-417.213 361.884,-423.643"/>
</g>
<!-- Node17 -->
<g id="node5" class="node"><title>Node17</title>
<g id="a_node5"><a xlink:href="QuantumDefect_8h.html" target="_top" xlink:title="/travis/libpairinteraction\l/QuantumDefect.h">
<polygon fill="none" stroke="black" points="346,-357.5 346,-387.5 474,-387.5 474,-357.5 346,-357.5"/>
<text text-anchor="start" x="354" y="-375.5" font-family="Helvetica,sans-Serif" font-size="10.00">/travis/libpairinteraction</text>
<text text-anchor="middle" x="410" y="-364.5" font-family="Helvetica,sans-Serif" font-size="10.00">/QuantumDefect.h</text>
</a>
</g>
</g>
<!-- Node13&#45;&gt;Node17 -->
<g id="edge4" class="edge"><title>Node13&#45;&gt;Node17</title>
<path fill="none" stroke="midnightblue" d="M410,-414.108C410,-405.154 410,-395.323 410,-387.577"/>
<polygon fill="midnightblue" stroke="midnightblue" points="406.5,-414.396 410,-424.396 413.5,-414.396 406.5,-414.396"/>
</g>
<!-- Node20 -->
<g id="node8" class="node"><title>Node20</title>
<g id="a_node8"><a xlink:href="HamiltonianOne_8h.html" target="_top" xlink:title="/travis/libpairinteraction\l/HamiltonianOne.h">
<polygon fill="none" stroke="black" points="860,-134.5 860,-164.5 988,-164.5 988,-134.5 860,-134.5"/>
<text text-anchor="start" x="868" y="-152.5" font-family="Helvetica,sans-Serif" font-size="10.00">/travis/libpairinteraction</text>
<text text-anchor="middle" x="924" y="-141.5" font-family="Helvetica,sans-Serif" font-size="10.00">/HamiltonianOne.h</text>
</a>
</g>
</g>
<!-- Node13&#45;&gt;Node20 -->
<g id="edge25" class="edge"><title>Node13&#45;&gt;Node20</title>
<path fill="none" stroke="midnightblue" d="M484.206,-439.272C593.9,-438.892 792.182,-431.913 846,-388 916.951,-330.107 923.932,-206.305 924.194,-164.569"/>
<polygon fill="midnightblue" stroke="midnightblue" points="484.192,-435.772 474.198,-439.289 484.204,-442.772 484.192,-435.772"/>
</g>
<!-- Node22 -->
<g id="node10" class="node"><title>Node22</title>
<g id="a_node10"><a xlink:href="HamiltonianTwo_8h.html" target="_top" xlink:title="/travis/libpairinteraction\l/HamiltonianTwo.h">
<polygon fill="none" stroke="black" points="714,-67.5 714,-97.5 842,-97.5 842,-67.5 714,-67.5"/>
<text text-anchor="start" x="722" y="-85.5" font-family="Helvetica,sans-Serif" font-size="10.00">/travis/libpairinteraction</text>
<text text-anchor="middle" x="778" y="-74.5" font-family="Helvetica,sans-Serif" font-size="10.00">/HamiltonianTwo.h</text>
</a>
</g>
</g>
<!-- Node13&#45;&gt;Node22 -->
<g id="edge26" class="edge"><title>Node13&#45;&gt;Node22</title>
<path fill="none" stroke="midnightblue" d="M484.043,-429.809C605.084,-413.515 832,-373.325 832,-301 832,-301 832,-301 832,-221 832,-173.041 803.186,-121.779 787.654,-97.63"/>
<polygon fill="midnightblue" stroke="midnightblue" points="483.547,-426.344 474.093,-431.127 484.466,-433.283 483.547,-426.344"/>
</g>
<!-- Node25 -->
<g id="node13" class="node"><title>Node25</title>
<g id="a_node13"><a xlink:href="MatrixElements_8cpp.html" target="_top" xlink:title="/travis/libpairinteraction\l/MatrixElements.cpp">
<polygon fill="none" stroke="black" points="292,-134.5 292,-164.5 420,-164.5 420,-134.5 292,-134.5"/>
<text text-anchor="start" x="300" y="-152.5" font-family="Helvetica,sans-Serif" font-size="10.00">/travis/libpairinteraction</text>
<text text-anchor="middle" x="356" y="-141.5" font-family="Helvetica,sans-Serif" font-size="10.00">/MatrixElements.cpp</text>
</a>
</g>
</g>
<!-- Node13&#45;&gt;Node25 -->
<g id="edge27" class="edge"><title>Node13&#45;&gt;Node25</title>
<path fill="none" stroke="midnightblue" d="M367.744,-419.076C355.59,-411.254 343.794,-400.96 337,-388 297.152,-311.98 334.384,-203.161 349.922,-164.658"/>
<polygon fill="midnightblue" stroke="midnightblue" points="366.207,-422.234 376.591,-424.338 369.786,-416.218 366.207,-422.234"/>
</g>
<!-- Node28 -->
<g id="node16" class="node"><title>Node28</title>
<g id="a_node16"><a xlink:href="wavefunction__test_8cpp.html" target="_top" xlink:title="/travis/libpairinteraction\l/unit_test/wavefunction\l_test.cpp">
<polygon fill="none" stroke="black" points="676,-201.5 676,-242.5 804,-242.5 804,-201.5 676,-201.5"/>
<text text-anchor="start" x="684" y="-230.5" font-family="Helvetica,sans-Serif" font-size="10.00">/travis/libpairinteraction</text>
<text text-anchor="start" x="684" y="-219.5" font-family="Helvetica,sans-Serif" font-size="10.00">/unit_test/wavefunction</text>
<text text-anchor="middle" x="740" y="-208.5" font-family="Helvetica,sans-Serif" font-size="10.00">_test.cpp</text>
</a>
</g>
</g>
<!-- Node13&#45;&gt;Node28 -->
<g id="edge31" class="edge"><title>Node13&#45;&gt;Node28</title>
<path fill="none" stroke="midnightblue" d="M484.503,-433.409C559.565,-423.974 672.421,-397.146 731,-321 748.189,-298.656 746.959,-264.404 743.913,-242.876"/>
<polygon fill="midnightblue" stroke="midnightblue" points="483.693,-429.98 474.172,-434.628 484.513,-436.932 483.693,-429.98"/>
</g>
<!-- Node31 -->
<g id="node19" class="node"><title>Node31</title>
<g id="a_node19"><a xlink:href="sqlite__test_8cpp.html" target="_top" xlink:title="/travis/libpairinteraction\l/unit_test/sqlite_test.cpp">
<polygon fill="none" stroke="black" points="898,-357.5 898,-387.5 1032,-387.5 1032,-357.5 898,-357.5"/>
<text text-anchor="start" x="906" y="-375.5" font-family="Helvetica,sans-Serif" font-size="10.00">/travis/libpairinteraction</text>
<text text-anchor="middle" x="965" y="-364.5" font-family="Helvetica,sans-Serif" font-size="10.00">/unit_test/sqlite_test.cpp</text>
</a>
</g>
</g>
<!-- Node13&#45;&gt;Node31 -->
<g id="edge30" class="edge"><title>Node13&#45;&gt;Node31</title>
<path fill="none" stroke="midnightblue" d="M484.405,-432.219C577.919,-423.948 743.239,-408.072 884,-388 888.526,-387.355 893.186,-386.644 897.876,-385.895"/>
<polygon fill="midnightblue" stroke="midnightblue" points="483.851,-428.755 474.196,-433.117 484.465,-435.728 483.851,-428.755"/>
</g>
<!-- Node14&#45;&gt;Node15 -->
<g id="edge2" class="edge"><title>Node14&#45;&gt;Node15</title>
<path fill="none" stroke="midnightblue" d="M154.405,-352.399C133.691,-340.622 107.58,-325.778 88.7523,-315.073"/>
<polygon fill="midnightblue" stroke="midnightblue" points="152.782,-355.503 163.205,-357.403 156.241,-349.418 152.782,-355.503"/>
</g>
<!-- Node14&#45;&gt;Node16 -->
<g id="edge3" class="edge"><title>Node14&#45;&gt;Node16</title>
<path fill="none" stroke="midnightblue" d="M198.067,-347.842C201.835,-338.987 206.07,-329.035 209.664,-320.588"/>
<polygon fill="midnightblue" stroke="midnightblue" points="194.766,-346.661 194.071,-357.233 201.207,-349.402 194.766,-346.661"/>
</g>
<!-- Node17&#45;&gt;Node15 -->
<g id="edge20" class="edge"><title>Node17&#45;&gt;Node15</title>
<path fill="none" stroke="midnightblue" d="M335.946,-359.543C280.834,-350.223 203.898,-336.323 137,-321 129.187,-319.21 120.952,-317.138 112.94,-315.019"/>
<polygon fill="midnightblue" stroke="midnightblue" points="335.533,-363.023 345.975,-361.229 336.694,-356.12 335.533,-363.023"/>
</g>
<!-- Node17&#45;&gt;Node16 -->
<g id="edge22" class="edge"><title>Node17&#45;&gt;Node16</title>
<path fill="none" stroke="midnightblue" d="M362.157,-353.933C334.53,-343.789 299.723,-331.008 271.233,-320.546"/>
<polygon fill="midnightblue" stroke="midnightblue" points="361.014,-357.241 371.607,-357.403 363.427,-350.67 361.014,-357.241"/>
</g>
<!-- Node18 -->
<g id="node6" class="node"><title>Node18</title>
<g id="a_node6"><a xlink:href="Wavefunction_8h.html" target="_top" xlink:title="/travis/libpairinteraction\l/Wavefunction.h">
<polygon fill="none" stroke="black" points="568,-285 568,-315 696,-315 696,-285 568,-285"/>
<text text-anchor="start" x="576" y="-303" font-family="Helvetica,sans-Serif" font-size="10.00">/travis/libpairinteraction</text>
<text text-anchor="middle" x="632" y="-292" font-family="Helvetica,sans-Serif" font-size="10.00">/Wavefunction.h</text>
</a>
</g>
</g>
<!-- Node17&#45;&gt;Node18 -->
<g id="edge5" class="edge"><title>Node17&#45;&gt;Node18</title>
<path fill="none" stroke="midnightblue" d="M463.978,-354.358C501.887,-342.32 551.978,-326.412 587.578,-315.107"/>
<polygon fill="midnightblue" stroke="midnightblue" points="462.597,-351.125 454.125,-357.487 464.716,-357.796 462.597,-351.125"/>
</g>
<!-- Node17&#45;&gt;Node25 -->
<g id="edge19" class="edge"><title>Node17&#45;&gt;Node25</title>
<path fill="none" stroke="midnightblue" d="M403.027,-347.685C395.614,-321.976 383.774,-279.766 375,-243 368.417,-215.412 362.054,-182.868 358.621,-164.665"/>
<polygon fill="midnightblue" stroke="midnightblue" points="399.673,-348.685 405.82,-357.314 406.396,-346.735 399.673,-348.685"/>
</g>
<!-- Node17&#45;&gt;Node28 -->
<g id="edge23" class="edge"><title>Node17&#45;&gt;Node28</title>
<path fill="none" stroke="midnightblue" d="M484.091,-367.253C560.304,-361.443 672.349,-348.427 705,-321 728.24,-301.478 736.051,-265.374 738.675,-242.859"/>
<polygon fill="midnightblue" stroke="midnightblue" points="483.769,-363.768 474.053,-367.993 484.283,-370.749 483.769,-363.768"/>
</g>
<!-- Node29 -->
<g id="node17" class="node"><title>Node29</title>
<g id="a_node17"><a xlink:href="Wavefunction_8cpp.html" target="_top" xlink:title="/travis/libpairinteraction\l/Wavefunction.cpp">
<polygon fill="none" stroke="black" points="384,-207 384,-237 512,-237 512,-207 384,-207"/>
<text text-anchor="start" x="392" y="-225" font-family="Helvetica,sans-Serif" font-size="10.00">/travis/libpairinteraction</text>
<text text-anchor="middle" x="448" y="-214" font-family="Helvetica,sans-Serif" font-size="10.00">/Wavefunction.cpp</text>
</a>
</g>
</g>
<!-- Node17&#45;&gt;Node29 -->
<g id="edge24" class="edge"><title>Node17&#45;&gt;Node29</title>
<path fill="none" stroke="midnightblue" d="M407.388,-347.158C406.153,-328.17 406.194,-301.358 413,-279 417.741,-263.426 427.991,-247.899 436.18,-237.159"/>
<polygon fill="midnightblue" stroke="midnightblue" points="403.917,-347.659 408.22,-357.341 410.894,-347.089 403.917,-347.659"/>
</g>
<!-- Node30 -->
<g id="node18" class="node"><title>Node30</title>
<g id="a_node18"><a xlink:href="State_8cpp.html" target="_top" xlink:title="/travis/libpairinteraction\l/State.cpp">
<polygon fill="none" stroke="black" points="422,-285 422,-315 550,-315 550,-285 422,-285"/>
<text text-anchor="start" x="430" y="-303" font-family="Helvetica,sans-Serif" font-size="10.00">/travis/libpairinteraction</text>
<text text-anchor="middle" x="486" y="-292" font-family="Helvetica,sans-Serif" font-size="10.00">/State.cpp</text>
</a>
</g>
</g>
<!-- Node17&#45;&gt;Node30 -->
<g id="edge21" class="edge"><title>Node17&#45;&gt;Node30</title>
<path fill="none" stroke="midnightblue" d="M433.027,-350.139C445.313,-338.743 460.083,-325.041 470.903,-315.005"/>
<polygon fill="midnightblue" stroke="midnightblue" points="430.331,-347.866 425.38,-357.233 435.091,-352.998 430.331,-347.866"/>
</g>
<!-- Node19 -->
<g id="node7" class="node"><title>Node19</title>
<g id="a_node7"><a xlink:href="MatrixElements_8h.html" target="_top" xlink:title="/travis/libpairinteraction\l/MatrixElements.h">
<polygon fill="none" stroke="black" points="530,-207 530,-237 658,-237 658,-207 530,-207"/>
<text text-anchor="start" x="538" y="-225" font-family="Helvetica,sans-Serif" font-size="10.00">/travis/libpairinteraction</text>
<text text-anchor="middle" x="594" y="-214" font-family="Helvetica,sans-Serif" font-size="10.00">/MatrixElements.h</text>
</a>
</g>
</g>
<!-- Node18&#45;&gt;Node19 -->
<g id="edge6" class="edge"><title>Node18&#45;&gt;Node19</title>
<path fill="none" stroke="midnightblue" d="M620.352,-275.705C614.071,-263.141 606.521,-248.042 601.115,-237.231"/>
<polygon fill="midnightblue" stroke="midnightblue" points="617.25,-277.326 624.852,-284.705 623.511,-274.195 617.25,-277.326"/>
</g>
<!-- Node18&#45;&gt;Node28 -->
<g id="edge17" class="edge"><title>Node18&#45;&gt;Node28</title>
<path fill="none" stroke="midnightblue" d="M660.446,-278.982C676.338,-267.799 696.069,-253.915 711.904,-242.771"/>
<polygon fill="midnightblue" stroke="midnightblue" points="658.225,-276.266 652.061,-284.883 662.253,-281.99 658.225,-276.266"/>
</g>
<!-- Node18&#45;&gt;Node29 -->
<g id="edge18" class="edge"><title>Node18&#45;&gt;Node29</title>
<path fill="none" stroke="midnightblue" d="M588.533,-281.046C555.962,-267.593 512.018,-249.442 481.995,-237.041"/>
<polygon fill="midnightblue" stroke="midnightblue" points="587.243,-284.3 597.822,-284.883 589.916,-277.831 587.243,-284.3"/>
</g>
<!-- Node19&#45;&gt;Node20 -->
<g id="edge7" class="edge"><title>Node19&#45;&gt;Node20</title>
<path fill="none" stroke="midnightblue" d="M653.393,-204.339C657.987,-203.169 662.563,-202.042 667,-201 732.293,-185.663 807.663,-171.234 859.823,-161.759"/>
<polygon fill="midnightblue" stroke="midnightblue" points="652.149,-201.046 643.352,-206.952 653.911,-207.821 652.149,-201.046"/>
</g>
<!-- Node19&#45;&gt;Node22 -->
<g id="edge13" class="edge"><title>Node19&#45;&gt;Node22</title>
<path fill="none" stroke="midnightblue" d="M601.193,-197.286C608.212,-177.838 620.688,-150.857 640,-134 660.758,-115.881 688.562,-104.062 713.773,-96.4525"/>
<polygon fill="midnightblue" stroke="midnightblue" points="597.816,-196.345 597.929,-206.94 604.448,-198.587 597.816,-196.345"/>
</g>
<!-- Node19&#45;&gt;Node25 -->
<g id="edge14" class="edge"><title>Node19&#45;&gt;Node25</title>
<path fill="none" stroke="midnightblue" d="M536.909,-204.089C496.177,-192.023 442.033,-175.984 403.623,-164.607"/>
<polygon fill="midnightblue" stroke="midnightblue" points="536.112,-207.503 546.694,-206.987 538.1,-200.791 536.112,-207.503"/>
</g>
<!-- Node26 -->
<g id="node14" class="node"><title>Node26</title>
<g id="a_node14"><a xlink:href="SystemOne_8cpp.html" target="_top" xlink:title="/travis/libpairinteraction\l/SystemOne.cpp">
<polygon fill="none" stroke="black" points="649,-134.5 649,-164.5 777,-164.5 777,-134.5 649,-134.5"/>
<text text-anchor="start" x="657" y="-152.5" font-family="Helvetica,sans-Serif" font-size="10.00">/travis/libpairinteraction</text>
<text text-anchor="middle" x="713" y="-141.5" font-family="Helvetica,sans-Serif" font-size="10.00">/SystemOne.cpp</text>
</a>
</g>
</g>
<!-- Node19&#45;&gt;Node26 -->
<g id="edge15" class="edge"><title>Node19&#45;&gt;Node26</title>
<path fill="none" stroke="midnightblue" d="M626.509,-201.741C646.344,-189.989 671.258,-175.23 689.246,-164.573"/>
<polygon fill="midnightblue" stroke="midnightblue" points="624.615,-198.794 617.795,-206.903 628.183,-204.817 624.615,-198.794"/>
</g>
<!-- Node27 -->
<g id="node15" class="node"><title>Node27</title>
<g id="a_node15"><a xlink:href="SystemTwo_8cpp.html" target="_top" xlink:title="/travis/libpairinteraction\l/SystemTwo.cpp">
<polygon fill="none" stroke="black" points="465,-134.5 465,-164.5 593,-164.5 593,-134.5 465,-134.5"/>
<text text-anchor="start" x="473" y="-152.5" font-family="Helvetica,sans-Serif" font-size="10.00">/travis/libpairinteraction</text>
<text text-anchor="middle" x="529" y="-141.5" font-family="Helvetica,sans-Serif" font-size="10.00">/SystemTwo.cpp</text>
</a>
</g>
</g>
<!-- Node19&#45;&gt;Node27 -->
<g id="edge16" class="edge"><title>Node19&#45;&gt;Node27</title>
<path fill="none" stroke="midnightblue" d="M574.052,-199.364C563.68,-188.114 551.292,-174.679 542.134,-164.746"/>
<polygon fill="midnightblue" stroke="midnightblue" points="571.495,-201.754 580.846,-206.733 576.641,-197.009 571.495,-201.754"/>
</g>
<!-- Node21 -->
<g id="node9" class="node"><title>Node21</title>
<g id="a_node9"><a xlink:href="HamiltonianOne_8cpp.html" target="_top" xlink:title="/travis/libpairinteraction\l/HamiltonianOne.cpp">
<polygon fill="none" stroke="black" points="860,-67.5 860,-97.5 988,-97.5 988,-67.5 860,-67.5"/>
<text text-anchor="start" x="868" y="-85.5" font-family="Helvetica,sans-Serif" font-size="10.00">/travis/libpairinteraction</text>
<text text-anchor="middle" x="924" y="-74.5" font-family="Helvetica,sans-Serif" font-size="10.00">/HamiltonianOne.cpp</text>
</a>
</g>
</g>
<!-- Node20&#45;&gt;Node21 -->
<g id="edge8" class="edge"><title>Node20&#45;&gt;Node21</title>
<path fill="none" stroke="midnightblue" d="M924,-124.108C924,-115.154 924,-105.323 924,-97.5765"/>
<polygon fill="midnightblue" stroke="midnightblue" points="920.5,-124.396 924,-134.396 927.5,-124.396 920.5,-124.396"/>
</g>
<!-- Node20&#45;&gt;Node22 -->
<g id="edge9" class="edge"><title>Node20&#45;&gt;Node22</title>
<path fill="none" stroke="midnightblue" d="M883.05,-130.269C859.796,-119.916 831.128,-107.153 809.618,-97.5765"/>
<polygon fill="midnightblue" stroke="midnightblue" points="881.761,-133.526 892.32,-134.396 884.608,-127.131 881.761,-133.526"/>
</g>
<!-- Node24 -->
<g id="node12" class="node"><title>Node24</title>
<g id="a_node12"><a xlink:href="Interface_8cpp.html" target="_top" xlink:title="/travis/libpairinteraction\l/Interface.cpp">
<polygon fill="none" stroke="black" points="906,-0.5 906,-30.5 1034,-30.5 1034,-0.5 906,-0.5"/>
<text text-anchor="start" x="914" y="-18.5" font-family="Helvetica,sans-Serif" font-size="10.00">/travis/libpairinteraction</text>
<text text-anchor="middle" x="970" y="-7.5" font-family="Helvetica,sans-Serif" font-size="10.00">/Interface.cpp</text>
</a>
</g>
</g>
<!-- Node20&#45;&gt;Node24 -->
<g id="edge12" class="edge"><title>Node20&#45;&gt;Node24</title>
<path fill="none" stroke="midnightblue" d="M966.256,-129.076C978.41,-121.254 990.206,-110.96 997,-98 1008.69,-75.689 993.182,-47.3173 981.288,-30.6101"/>
<polygon fill="midnightblue" stroke="midnightblue" points="964.214,-126.218 957.409,-134.338 967.793,-132.234 964.214,-126.218"/>
</g>
<!-- Node23 -->
<g id="node11" class="node"><title>Node23</title>
<g id="a_node11"><a xlink:href="HamiltonianTwo_8cpp.html" target="_top" xlink:title="/travis/libpairinteraction\l/HamiltonianTwo.cpp">
<polygon fill="none" stroke="black" points="714,-0.5 714,-30.5 842,-30.5 842,-0.5 714,-0.5"/>
<text text-anchor="start" x="722" y="-18.5" font-family="Helvetica,sans-Serif" font-size="10.00">/travis/libpairinteraction</text>
<text text-anchor="middle" x="778" y="-7.5" font-family="Helvetica,sans-Serif" font-size="10.00">/HamiltonianTwo.cpp</text>
</a>
</g>
</g>
<!-- Node22&#45;&gt;Node23 -->
<g id="edge10" class="edge"><title>Node22&#45;&gt;Node23</title>
<path fill="none" stroke="midnightblue" d="M778,-57.1081C778,-48.1539 778,-38.3227 778,-30.5765"/>
<polygon fill="midnightblue" stroke="midnightblue" points="774.5,-57.3959 778,-67.396 781.5,-57.396 774.5,-57.3959"/>
</g>
<!-- Node22&#45;&gt;Node24 -->
<g id="edge11" class="edge"><title>Node22&#45;&gt;Node24</title>
<path fill="none" stroke="midnightblue" d="M829.422,-64.0917C860.416,-53.5988 899.379,-40.4082 928.42,-30.5765"/>
<polygon fill="midnightblue" stroke="midnightblue" points="828.011,-60.8741 819.661,-67.396 830.255,-67.5044 828.011,-60.8741"/>
</g>
</g>
</svg>
        <g id="navigator" transform="translate(0 0)" fill="#404254">
                <rect fill="#f2f5e9" fill-opacity="0.5" stroke="#606060" stroke-width=".5" x="0" y="0" width="60" height="60"/>
                <use id="zoomplus" xlink:href="#zoomPlus" x="17" y="9" onmousedown="handleZoom(evt,'in')"/>
                <use id="zoomminus" xlink:href="#zoomMin" x="42" y="9" onmousedown="handleZoom(evt,'out')"/>
                <use id="reset" xlink:href="#resetDef" x="30" y="36" onmousedown="handleReset()"/>
                <g id="arrowUp" xlink:href="#dirArrow" transform="translate(30 24)" onmousedown="handlePan(0,-1)">
                  <use xlink:href="#rim" fill="#404040">
                        <set attributeName="fill" to="#808080" begin="arrowUp.mouseover" end="arrowUp.mouseout"/>
                  </use>
                  <path fill="none" stroke="white" stroke-width="1.5" d="M0,-3.0v7 M-2.5,-0.5L0,-3.0L2.5,-0.5"/>
                </g>
                <g id="arrowRight" xlink:href="#dirArrow" transform="rotate(90) translate(36 -43)" onmousedown="handlePan(1,0)">
                  <use xlink:href="#rim" fill="#404040">
                        <set attributeName="fill" to="#808080" begin="arrowRight.mouseover" end="arrowRight.mouseout"/>
                  </use>
                  <path fill="none" stroke="white" stroke-width="1.5" d="M0,-3.0v7 M-2.5,-0.5L0,-3.0L2.5,-0.5"/>
                </g>
                <g id="arrowDown" xlink:href="#dirArrow" transform="rotate(180) translate(-30 -48)" onmousedown="handlePan(0,1)">
                  <use xlink:href="#rim" fill="#404040">
                        <set attributeName="fill" to="#808080" begin="arrowDown.mouseover" end="arrowDown.mouseout"/>
                  </use>
                  <path fill="none" stroke="white" stroke-width="1.5" d="M0,-3.0v7 M-2.5,-0.5L0,-3.0L2.5,-0.5"/>
                </g>
                <g id="arrowLeft" xlink:href="#dirArrow" transform="rotate(270) translate(-36 17)" onmousedown="handlePan(-1,0)">
                  <use xlink:href="#rim" fill="#404040">
                        <set attributeName="fill" to="#808080" begin="arrowLeft.mouseover" end="arrowLeft.mouseout"/>
                  </use>
                  <path fill="none" stroke="white" stroke-width="1.5" d="M0,-3.0v7 M-2.5,-0.5L0,-3.0L2.5,-0.5"/>
                </g>
        </g>
        <svg viewBox="0 0 15 15" width="100%" height="30px" preserveAspectRatio="xMaxYMin meet">
         <g id="arrow_out" transform="scale(0.3 0.3)">
          <a xlink:href="SQLite_8h__dep__incl_org.svg" target="_base">
           <rect id="button" ry="5" rx="5" y="6" x="6" height="38" width="38"
                fill="#f2f5e9" fill-opacity="0.5" stroke="#606060" stroke-width="1.0"/>
           <path id="arrow"
             d="M 11.500037,31.436501 C 11.940474,20.09759 22.043105,11.32322 32.158766,21.979434 L 37.068811,17.246167 C 37.068811,17.246167 37.088388,32 37.088388,32 L 22.160133,31.978069 C 22.160133,31.978069 26.997745,27.140456 26.997745,27.140456 C 18.528582,18.264221 13.291696,25.230495 11.500037,31.436501 z"
             style="fill:#404040;"/>
          </a>
         </g>
        </svg>
</svg>
