<?xml version="1.0" encoding="UTF-8" standalone="no"?>
<!DOCTYPE svg PUBLIC "-//W3C//DTD SVG 1.1//EN"
 "http://www.w3.org/Graphics/SVG/1.1/DTD/svg11.dtd">
<!-- Generated by graphviz version 2.38.0 (20140413.2041)
 -->
<!-- Title: /travis/libpairinteraction/State.h Pages: 1 -->
<svg width="662pt" height="162pt"
 viewBox="0.00 0.00 661.50 162.00" xmlns="http://www.w3.org/2000/svg" xmlns:xlink="http://www.w3.org/1999/xlink">
<g id="graph0" class="graph" transform="scale(1 1) rotate(0) translate(4 158)">
<title>/travis/libpairinteraction/State.h</title>
<!-- Node0 -->
<g id="node1" class="node"><title>Node0</title>
<polygon fill="#bfbfbf" stroke="black" points="157.5,-123.5 157.5,-153.5 285.5,-153.5 285.5,-123.5 157.5,-123.5"/>
<text text-anchor="start" x="165.5" y="-141.5" font-family="Helvetica,sans-Serif" font-size="10.00">/travis/libpairinteraction</text>
<text text-anchor="middle" x="221.5" y="-130.5" font-family="Helvetica,sans-Serif" font-size="10.00">/State.h</text>
</g>
<!-- Node1 -->
<g id="node2" class="node"><title>Node1</title>
<g id="a_node2"><a xlink:href="dtypes_8h.html" target="_top" xlink:title="dtypes.h">
<polygon fill="none" stroke="black" points="53.5,-62 53.5,-81 111.5,-81 111.5,-62 53.5,-62"/>
<text text-anchor="middle" x="82.5" y="-69" font-family="Helvetica,sans-Serif" font-size="10.00">dtypes.h</text>
</a>
</g>
</g>
<!-- Node0&#45;&gt;Node1 -->
<g id="edge1" class="edge"><title>Node0&#45;&gt;Node1</title>
<path fill="none" stroke="midnightblue" d="M191.339,-123.396C167.058,-112.041 133.225,-96.2201 109.752,-85.2437"/>
<polygon fill="midnightblue" stroke="midnightblue" points="111.233,-82.0726 100.692,-81.007 108.268,-88.4135 111.233,-82.0726"/>
</g>
<!-- Node3 -->
<g id="node4" class="node"><title>Node3</title>
<polygon fill="none" stroke="#bfbfbf" points="0,-0.5 0,-19.5 41,-19.5 41,-0.5 0,-0.5"/>
<text text-anchor="middle" x="20.5" y="-7.5" font-family="Helvetica,sans-Serif" font-size="10.00">array</text>
</g>
<!-- Node0&#45;&gt;Node3 -->
<g id="edge6" class="edge"><title>Node0&#45;&gt;Node3</title>
<path fill="none" stroke="midnightblue" d="M157.148,-133.951C119.808,-128.628 74.3969,-116.073 44.5,-87 28.9577,-71.8862 23.4501,-46.8044 21.5161,-29.6175"/>
<polygon fill="midnightblue" stroke="midnightblue" points="25.0039,-29.3248 20.6916,-19.6473 18.0277,-29.9018 25.0039,-29.3248"/>
</g>
<!-- Node6 -->
<g id="node7" class="node"><title>Node6</title>
<polygon fill="none" stroke="#bfbfbf" points="129.5,-62 129.5,-81 173.5,-81 173.5,-62 129.5,-62"/>
<text text-anchor="middle" x="151.5" y="-69" font-family="Helvetica,sans-Serif" font-size="10.00">string</text>
</g>
<!-- Node0&#45;&gt;Node6 -->
<g id="edge7" class="edge"><title>Node0&#45;&gt;Node6</title>
<path fill="none" stroke="midnightblue" d="M206.311,-123.396C195.18,-113.06 180.064,-99.0237 168.525,-88.309"/>
<polygon fill="midnightblue" stroke="midnightblue" points="170.573,-85.4343 160.863,-81.1945 165.81,-90.5639 170.573,-85.4343"/>
</g>
<!-- Node7 -->
<g id="node8" class="node"><title>Node7</title>
<polygon fill="none" stroke="#bfbfbf" points="192,-62 192,-81 251,-81 251,-62 192,-62"/>
<text text-anchor="middle" x="221.5" y="-69" font-family="Helvetica,sans-Serif" font-size="10.00">iostream</text>
</g>
<!-- Node0&#45;&gt;Node7 -->
<g id="edge8" class="edge"><title>Node0&#45;&gt;Node7</title>
<path fill="none" stroke="midnightblue" d="M221.5,-123.396C221.5,-114.064 221.5,-101.714 221.5,-91.5173"/>
<polygon fill="midnightblue" stroke="midnightblue" points="225,-91.1945 221.5,-81.1945 218,-91.1946 225,-91.1945"/>
</g>
<!-- Node8 -->
<g id="node9" class="node"><title>Node8</title>
<polygon fill="none" stroke="#bfbfbf" points="269.5,-62 269.5,-81 409.5,-81 409.5,-62 269.5,-62"/>
<text text-anchor="middle" x="339.5" y="-69" font-family="Helvetica,sans-Serif" font-size="10.00">boost/functional/hash.hpp</text>
</g>
<!-- Node0&#45;&gt;Node8 -->
<g id="edge9" class="edge"><title>Node0&#45;&gt;Node8</title>
<path fill="none" stroke="midnightblue" d="M247.104,-123.396C267.351,-112.243 295.42,-96.7812 315.294,-85.8336"/>
<polygon fill="midnightblue" stroke="midnightblue" points="316.986,-88.8976 324.057,-81.007 313.609,-82.7663 316.986,-88.8976"/>
</g>
<!-- Node9 -->
<g id="node10" class="node"><title>Node9</title>
<polygon fill="none" stroke="#bfbfbf" points="427.5,-56.5 427.5,-86.5 531.5,-86.5 531.5,-56.5 427.5,-56.5"/>
<text text-anchor="start" x="435.5" y="-74.5" font-family="Helvetica,sans-Serif" font-size="10.00">boost/serialization</text>
<text text-anchor="middle" x="479.5" y="-63.5" font-family="Helvetica,sans-Serif" font-size="10.00">/array.hpp</text>
</g>
<!-- Node0&#45;&gt;Node9 -->
<g id="edge10" class="edge"><title>Node0&#45;&gt;Node9</title>
<path fill="none" stroke="midnightblue" d="M277.165,-123.476C318.531,-113.054 374.963,-98.8369 417.721,-88.0645"/>
<polygon fill="midnightblue" stroke="midnightblue" points="418.609,-91.4503 427.451,-85.6132 416.898,-84.6624 418.609,-91.4503"/>
</g>
<!-- Node10 -->
<g id="node11" class="node"><title>Node10</title>
<polygon fill="none" stroke="#bfbfbf" points="549.5,-56.5 549.5,-86.5 653.5,-86.5 653.5,-56.5 549.5,-56.5"/>
<text text-anchor="start" x="557.5" y="-74.5" font-family="Helvetica,sans-Serif" font-size="10.00">boost/serialization</text>
<text text-anchor="middle" x="601.5" y="-63.5" font-family="Helvetica,sans-Serif" font-size="10.00">/string.hpp</text>
</g>
<!-- Node0&#45;&gt;Node10 -->
<g id="edge11" class="edge"><title>Node0&#45;&gt;Node10</title>
<path fill="none" stroke="midnightblue" d="M285.607,-128.82C347.995,-120.039 445.669,-105.416 539.381,-87.1361"/>
<polygon fill="midnightblue" stroke="midnightblue" points="540.178,-90.5466 549.314,-85.1817 538.826,-83.6782 540.178,-90.5466"/>
</g>
<!-- Node2 -->
<g id="node3" class="node"><title>Node2</title>
<polygon fill="none" stroke="#bfbfbf" points="59,-0.5 59,-19.5 106,-19.5 106,-0.5 59,-0.5"/>
<text text-anchor="middle" x="82.5" y="-7.5" font-family="Helvetica,sans-Serif" font-size="10.00">vector</text>
</g>
<!-- Node1&#45;&gt;Node2 -->
<g id="edge2" class="edge"><title>Node1&#45;&gt;Node2</title>
<path fill="none" stroke="midnightblue" d="M82.5,-61.9751C82.5,-53.5803 82.5,-40.4806 82.5,-29.6631"/>
<polygon fill="midnightblue" stroke="midnightblue" points="86.0001,-29.5091 82.5,-19.5091 79.0001,-29.5091 86.0001,-29.5091"/>
</g>
<!-- Node1&#45;&gt;Node3 -->
<g id="edge3" class="edge"><title>Node1&#45;&gt;Node3</title>
<path fill="none" stroke="midnightblue" d="M73.6169,-61.9751C64.0406,-52.785 48.5889,-37.9563 36.8138,-26.656"/>
<polygon fill="midnightblue" stroke="midnightblue" points="39.0051,-23.908 29.3666,-19.5091 34.1582,-28.9585 39.0051,-23.908"/>
</g>
<!-- Node4 -->
<g id="node5" class="node"><title>Node4</title>
<polygon fill="none" stroke="#bfbfbf" points="124.5,-0.5 124.5,-19.5 204.5,-19.5 204.5,-0.5 124.5,-0.5"/>
<text text-anchor="middle" x="164.5" y="-7.5" font-family="Helvetica,sans-Serif" font-size="10.00">Eigen/Sparse</text>
</g>
<!-- Node1&#45;&gt;Node4 -->
<g id="edge4" class="edge"><title>Node1&#45;&gt;Node4</title>
<path fill="none" stroke="midnightblue" d="M94.2486,-61.9751C107.279,-52.5199 128.536,-37.0961 144.259,-25.6871"/>
<polygon fill="midnightblue" stroke="midnightblue" points="146.735,-28.2149 152.773,-19.5091 142.624,-22.5492 146.735,-28.2149"/>
</g>
<!-- Node5 -->
<g id="node6" class="node"><title>Node5</title>
<polygon fill="none" stroke="#bfbfbf" points="223,-0.5 223,-19.5 300,-19.5 300,-0.5 223,-0.5"/>
<text text-anchor="middle" x="261.5" y="-7.5" font-family="Helvetica,sans-Serif" font-size="10.00">Eigen/Dense</text>
</g>
<!-- Node1&#45;&gt;Node5 -->
<g id="edge5" class="edge"><title>Node1&#45;&gt;Node5</title>
<path fill="none" stroke="midnightblue" d="M104.527,-61.8574C109.743,-59.8767 115.302,-57.8198 120.5,-56 155.211,-43.8489 195.183,-31.2189 223.682,-22.4437"/>
<polygon fill="midnightblue" stroke="midnightblue" points="224.723,-25.7856 233.257,-19.5076 222.67,-19.0932 224.723,-25.7856"/>
</g>
</g>
</svg>
