<?xml version="1.0" encoding="UTF-8" standalone="no"?>
<!DOCTYPE svg PUBLIC "-//W3C//DTD SVG 1.1//EN"
 "http://www.w3.org/Graphics/SVG/1.1/DTD/svg11.dtd">
<!-- Generated by graphviz version 2.38.0 (20140413.2041)
 -->
<!-- Title: /travis/libpairinteraction/eigen/bench/btl/libs/STL/STL_interface.hh Pages: 1 -->
<svg width="231pt" height="162pt"
 viewBox="0.00 0.00 230.50 162.00" xmlns="http://www.w3.org/2000/svg" xmlns:xlink="http://www.w3.org/1999/xlink">
<g id="graph0" class="graph" transform="scale(1 1) rotate(0) translate(4 158)">
<title>/travis/libpairinteraction/eigen/bench/btl/libs/STL/STL_interface.hh</title>
<!-- Node0 -->
<g id="node1" class="node"><title>Node0</title>
<polygon fill="#bfbfbf" stroke="black" points="20,-112.5 20,-153.5 152,-153.5 152,-112.5 20,-112.5"/>
<text text-anchor="start" x="28" y="-141.5" font-family="Helvetica,sans-Serif" font-size="10.00">/travis/libpairinteraction</text>
<text text-anchor="start" x="28" y="-130.5" font-family="Helvetica,sans-Serif" font-size="10.00">/eigen/bench/btl/libs/STL</text>
<text text-anchor="middle" x="86" y="-119.5" font-family="Helvetica,sans-Serif" font-size="10.00">/STL_interface.hh</text>
</g>
<!-- Node1 -->
<g id="node2" class="node"><title>Node1</title>
<polygon fill="none" stroke="#bfbfbf" points="-3.55271e-15,-56.5 -3.55271e-15,-75.5 44,-75.5 44,-56.5 -3.55271e-15,-56.5"/>
<text text-anchor="middle" x="22" y="-63.5" font-family="Helvetica,sans-Serif" font-size="10.00">string</text>
</g>
<!-- Node0&#45;&gt;Node1 -->
<g id="edge1" class="edge"><title>Node0&#45;&gt;Node1</title>
<path fill="none" stroke="midnightblue" d="M66.7979,-112.498C57.4572,-103.011 46.3748,-91.7557 37.5698,-82.8131"/>
<polygon fill="midnightblue" stroke="midnightblue" points="40.0294,-80.3226 30.5194,-75.6525 35.0415,-85.2338 40.0294,-80.3226"/>
</g>
<!-- Node2 -->
<g id="node3" class="node"><title>Node2</title>
<polygon fill="none" stroke="#bfbfbf" points="62.5,-56.5 62.5,-75.5 109.5,-75.5 109.5,-56.5 62.5,-56.5"/>
<text text-anchor="middle" x="86" y="-63.5" font-family="Helvetica,sans-Serif" font-size="10.00">vector</text>
</g>
<!-- Node0&#45;&gt;Node2 -->
<g id="edge2" class="edge"><title>Node0&#45;&gt;Node2</title>
<path fill="none" stroke="midnightblue" d="M86,-112.498C86,-104.065 86,-94.2351 86,-85.874"/>
<polygon fill="midnightblue" stroke="midnightblue" points="89.5001,-85.6525 86,-75.6525 82.5001,-85.6525 89.5001,-85.6525"/>
</g>
<!-- Node3 -->
<g id="node4" class="node"><title>Node3</title>
<g id="a_node4"><a xlink:href="utilities_8h.html" target="_top" xlink:title="utilities.h">
<polygon fill="none" stroke="black" points="127.5,-56.5 127.5,-75.5 186.5,-75.5 186.5,-56.5 127.5,-56.5"/>
<text text-anchor="middle" x="157" y="-63.5" font-family="Helvetica,sans-Serif" font-size="10.00">utilities.h</text>
</a>
</g>
</g>
<!-- Node0&#45;&gt;Node3 -->
<g id="edge3" class="edge"><title>Node0&#45;&gt;Node3</title>
<path fill="none" stroke="midnightblue" d="M107.302,-112.498C117.769,-102.915 130.208,-91.5281 140.022,-82.5428"/>
<polygon fill="midnightblue" stroke="midnightblue" points="142.536,-84.9866 147.549,-75.6525 137.81,-79.8235 142.536,-84.9866"/>
</g>
<!-- Node4 -->
<g id="node5" class="node"><title>Node4</title>
<polygon fill="none" stroke="#bfbfbf" points="94.5,-0.5 94.5,-19.5 145.5,-19.5 145.5,-0.5 94.5,-0.5"/>
<text text-anchor="middle" x="120" y="-7.5" font-family="Helvetica,sans-Serif" font-size="10.00">stdlib.h</text>
</g>
<!-- Node3&#45;&gt;Node4 -->
<g id="edge4" class="edge"><title>Node3&#45;&gt;Node4</title>
<path fill="none" stroke="midnightblue" d="M150.89,-56.083C145.718,-48.5341 138.154,-37.4948 131.806,-28.2298"/>
<polygon fill="midnightblue" stroke="midnightblue" points="134.536,-26.0221 125.996,-19.7511 128.761,-29.9787 134.536,-26.0221"/>
</g>
<!-- Node5 -->
<g id="node6" class="node"><title>Node5</title>
<polygon fill="none" stroke="#bfbfbf" points="163.5,-0.5 163.5,-19.5 222.5,-19.5 222.5,-0.5 163.5,-0.5"/>
<text text-anchor="middle" x="193" y="-7.5" font-family="Helvetica,sans-Serif" font-size="10.00">iostream</text>
</g>
<!-- Node3&#45;&gt;Node5 -->
<g id="edge5" class="edge"><title>Node3&#45;&gt;Node5</title>
<path fill="none" stroke="midnightblue" d="M162.945,-56.083C167.977,-48.5341 175.337,-37.4948 181.513,-28.2298"/>
<polygon fill="midnightblue" stroke="midnightblue" points="184.531,-30.0131 187.166,-19.7511 178.707,-26.1301 184.531,-30.0131"/>
</g>
</g>
</svg>
