<?xml version="1.0" encoding="UTF-8" standalone="no"?>
<!DOCTYPE svg PUBLIC "-//W3C//DTD SVG 1.1//EN"
 "http://www.w3.org/Graphics/SVG/1.1/DTD/svg11.dtd">
<!-- Generated by graphviz version 2.38.0 (20140413.2041)
 -->
<!-- Title: Eigen::TensorEvaluator&lt; const TensorBroadcastingOp&lt; Broadcast, ArgType &gt;, Device &gt; Pages: 1 -->
<svg width="1985pt" height="342pt"
 viewBox="0.00 0.00 1985.00 342.00" xmlns="http://www.w3.org/2000/svg" xmlns:xlink="http://www.w3.org/1999/xlink">
<g id="graph0" class="graph" transform="scale(1 1) rotate(0) translate(4 338)">
<title>Eigen::TensorEvaluator&lt; const TensorBroadcastingOp&lt; Broadcast, ArgType &gt;, Device &gt;</title>
<!-- Node1 -->
<g id="node1" class="node"><title>Node1</title>
<polygon fill="#bfbfbf" stroke="black" points="1796,-178.5 1796,-219.5 1977,-219.5 1977,-178.5 1796,-178.5"/>
<text text-anchor="start" x="1804" y="-207.5" font-family="Helvetica,sans-Serif" font-size="10.00">Eigen::TensorEvaluator</text>
<text text-anchor="start" x="1804" y="-196.5" font-family="Helvetica,sans-Serif" font-size="10.00">&lt; const TensorBroadcastingOp</text>
<text text-anchor="middle" x="1886.5" y="-185.5" font-family="Helvetica,sans-Serif" font-size="10.00">&lt; Broadcast, ArgType &gt;, Device &gt;</text>
</g>
<!-- Node2 -->
<g id="node2" class="node"><title>Node2</title>
<g id="a_node2"><a xlink:href="structEigen_1_1DSizes.html" target="_top" xlink:title="Eigen::DSizes\&lt; Index,\l NumDims \&gt;">
<polygon fill="none" stroke="black" points="1329,-177 1329,-207 1451,-207 1451,-177 1329,-177"/>
<text text-anchor="start" x="1337" y="-195" font-family="Helvetica,sans-Serif" font-size="10.00">Eigen::DSizes&lt; Index,</text>
<text text-anchor="middle" x="1390" y="-184" font-family="Helvetica,sans-Serif" font-size="10.00"> NumDims &gt;</text>
</a>
</g>
</g>
<!-- Node2&#45;&gt;Node1 -->
<g id="edge1" class="edge"><title>Node2&#45;&gt;Node1</title>
<path fill="none" stroke="#9a32cd" stroke-dasharray="5,2" d="M1461.27,-192.995C1549.11,-194.238 1699.56,-196.368 1795.68,-197.729"/>
<polygon fill="#9a32cd" stroke="#9a32cd" points="1461.19,-189.493 1451.14,-192.851 1461.09,-196.493 1461.19,-189.493"/>
<text text-anchor="middle" x="1630.5" y="-200" font-family="Helvetica,sans-Serif" font-size="10.00"> m_dimensions</text>
</g>
<!-- Node17 -->
<g id="node17" class="node"><title>Node17</title>
<g id="a_node17"><a xlink:href="structEigen_1_1TensorEvaluator.html" target="_top" xlink:title="Eigen::TensorEvaluator\l\&lt; ArgType, Device \&gt;">
<polygon fill="none" stroke="black" points="1568,-92 1568,-122 1693,-122 1693,-92 1568,-92"/>
<text text-anchor="start" x="1576" y="-110" font-family="Helvetica,sans-Serif" font-size="10.00">Eigen::TensorEvaluator</text>
<text text-anchor="middle" x="1630.5" y="-99" font-family="Helvetica,sans-Serif" font-size="10.00">&lt; ArgType, Device &gt;</text>
</a>
</g>
</g>
<!-- Node2&#45;&gt;Node17 -->
<g id="edge22" class="edge"><title>Node2&#45;&gt;Node17</title>
<path fill="none" stroke="#9a32cd" stroke-dasharray="5,2" d="M1460.81,-174.794C1495.71,-165.681 1533.89,-154.795 1550,-147 1558.88,-142.702 1559.43,-138.9 1568,-134 1575.49,-129.716 1583.79,-125.652 1591.8,-122.04"/>
<polygon fill="#9a32cd" stroke="#9a32cd" points="1459.88,-171.42 1451.07,-177.313 1461.63,-178.196 1459.88,-171.42"/>
<text text-anchor="middle" x="1509.5" y="-176" font-family="Helvetica,sans-Serif" font-size="10.00"> m_dims</text>
</g>
<!-- Node3 -->
<g id="node3" class="node"><title>Node3</title>
<g id="a_node3"><a xlink:href="classEigen_1_1array.html" target="_top" xlink:title="Eigen::array\&lt; Index,\l NumDims \&gt;">
<polygon fill="none" stroke="black" points="1149,-242 1149,-272 1262,-272 1262,-242 1149,-242"/>
<text text-anchor="start" x="1157" y="-260" font-family="Helvetica,sans-Serif" font-size="10.00">Eigen::array&lt; Index,</text>
<text text-anchor="middle" x="1205.5" y="-249" font-family="Helvetica,sans-Serif" font-size="10.00"> NumDims &gt;</text>
</a>
</g>
</g>
<!-- Node3&#45;&gt;Node1 -->
<g id="edge17" class="edge"><title>Node3&#45;&gt;Node1</title>
<path fill="none" stroke="#9a32cd" stroke-dasharray="5,2" d="M1272.27,-259.589C1379.3,-262.508 1597.38,-263.053 1778,-229 1791.33,-226.487 1805.41,-223.106 1818.83,-219.518"/>
<polygon fill="#9a32cd" stroke="#9a32cd" points="1272.36,-256.09 1262.26,-259.3 1272.16,-263.087 1272.36,-256.09"/>
<text text-anchor="middle" x="1509.5" y="-274" font-family="Helvetica,sans-Serif" font-size="10.00"> m_inputStrides</text>
<text text-anchor="middle" x="1509.5" y="-263" font-family="Helvetica,sans-Serif" font-size="10.00">m_outputStrides</text>
</g>
<!-- Node3&#45;&gt;Node2 -->
<g id="edge2" class="edge"><title>Node3&#45;&gt;Node2</title>
<path fill="none" stroke="midnightblue" d="M1258.42,-238.507C1286.32,-228.57 1320.29,-216.472 1346.59,-207.106"/>
<polygon fill="midnightblue" stroke="midnightblue" points="1257.07,-235.272 1248.83,-241.924 1259.42,-241.866 1257.07,-235.272"/>
</g>
<!-- Node4 -->
<g id="node4" class="node"><title>Node4</title>
<g id="a_node4"><a xlink:href="classEigen_1_1Triplet.html" target="_top" xlink:title="Eigen::Triplet\&lt; double \&gt;">
<polygon fill="none" stroke="black" points="948,-247.5 948,-266.5 1079,-266.5 1079,-247.5 948,-247.5"/>
<text text-anchor="middle" x="1013.5" y="-254.5" font-family="Helvetica,sans-Serif" font-size="10.00">Eigen::Triplet&lt; double &gt;</text>
</a>
</g>
</g>
<!-- Node4&#45;&gt;Node3 -->
<g id="edge3" class="edge"><title>Node4&#45;&gt;Node3</title>
<path fill="none" stroke="#9a32cd" stroke-dasharray="5,2" d="M1089.35,-257C1109.22,-257 1130.33,-257 1148.97,-257"/>
<polygon fill="#9a32cd" stroke="#9a32cd" points="1089.09,-253.5 1079.09,-257 1089.09,-260.5 1089.09,-253.5"/>
<text text-anchor="middle" x="1114" y="-260" font-family="Helvetica,sans-Serif" font-size="10.00"> values</text>
</g>
<!-- Node5 -->
<g id="node5" class="node"><title>Node5</title>
<polygon fill="none" stroke="#bfbfbf" points="784.5,-270.5 784.5,-289.5 839.5,-289.5 839.5,-270.5 784.5,-270.5"/>
<text text-anchor="middle" x="812" y="-277.5" font-family="Helvetica,sans-Serif" font-size="10.00">SCALAR</text>
</g>
<!-- Node5&#45;&gt;Node4 -->
<g id="edge4" class="edge"><title>Node5&#45;&gt;Node4</title>
<path fill="none" stroke="#9a32cd" stroke-dasharray="5,2" d="M849.86,-275.75C877.292,-272.588 915.441,-268.19 947.898,-264.448"/>
<polygon fill="#9a32cd" stroke="#9a32cd" points="849.439,-272.276 839.905,-276.898 850.241,-279.23 849.439,-272.276"/>
<text text-anchor="middle" x="908" y="-275" font-family="Helvetica,sans-Serif" font-size="10.00"> m_value</text>
</g>
<!-- Node6 -->
<g id="node6" class="node"><title>Node6</title>
<g id="a_node6"><a xlink:href="classEigen_1_1SparseMatrix.html" target="_top" xlink:title="Eigen::SparseMatrix\l\&lt; double \&gt;">
<polygon fill="none" stroke="black" points="756,-220 756,-250 868,-250 868,-220 756,-220"/>
<text text-anchor="start" x="764" y="-238" font-family="Helvetica,sans-Serif" font-size="10.00">Eigen::SparseMatrix</text>
<text text-anchor="middle" x="812" y="-227" font-family="Helvetica,sans-Serif" font-size="10.00">&lt; double &gt;</text>
</a>
</g>
</g>
<!-- Node6&#45;&gt;Node4 -->
<g id="edge5" class="edge"><title>Node6&#45;&gt;Node4</title>
<path fill="none" stroke="#9a32cd" stroke-dasharray="5,2" d="M878.54,-232.788C895.366,-232.978 913.401,-233.848 930,-236 947.588,-238.28 966.815,-243.037 982.28,-247.447"/>
<polygon fill="#9a32cd" stroke="#9a32cd" points="878.255,-229.287 868.243,-232.751 878.23,-236.287 878.255,-229.287"/>
<text text-anchor="middle" x="908" y="-250" font-family="Helvetica,sans-Serif" font-size="10.00"> m_row</text>
<text text-anchor="middle" x="908" y="-239" font-family="Helvetica,sans-Serif" font-size="10.00">m_col</text>
</g>
<!-- Node7 -->
<g id="node7" class="node"><title>Node7</title>
<g id="a_node7"><a xlink:href="classEigen_1_1SparseCompressedBase.html" target="_top" xlink:title="Common base class for sparse [compressed]&#45;{row|column}&#45;storage format. ">
<polygon fill="none" stroke="black" points="508,-284.5 508,-325.5 675,-325.5 675,-284.5 508,-284.5"/>
<text text-anchor="start" x="516" y="-313.5" font-family="Helvetica,sans-Serif" font-size="10.00">Eigen::SparseCompressedBase</text>
<text text-anchor="start" x="516" y="-302.5" font-family="Helvetica,sans-Serif" font-size="10.00">&lt; SparseMatrix&lt; double,</text>
<text text-anchor="middle" x="591.5" y="-291.5" font-family="Helvetica,sans-Serif" font-size="10.00"> _Options, _StorageIndex &gt; &gt;</text>
</a>
</g>
</g>
<!-- Node7&#45;&gt;Node6 -->
<g id="edge6" class="edge"><title>Node7&#45;&gt;Node6</title>
<path fill="none" stroke="midnightblue" d="M666.426,-281.317C698.672,-270.986 735.518,-259.182 763.942,-250.076"/>
<polygon fill="midnightblue" stroke="midnightblue" points="665.036,-278.087 656.581,-284.471 667.172,-284.753 665.036,-278.087"/>
</g>
<!-- Node8 -->
<g id="node8" class="node"><title>Node8</title>
<g id="a_node8"><a xlink:href="classEigen_1_1SparseMatrixBase.html" target="_top" xlink:title="Base class of any sparse matrices or sparse expressions. ">
<polygon fill="none" stroke="black" points="252,-290 252,-320 388,-320 388,-290 252,-290"/>
<text text-anchor="start" x="260" y="-308" font-family="Helvetica,sans-Serif" font-size="10.00">Eigen::SparseMatrixBase</text>
<text text-anchor="middle" x="320" y="-297" font-family="Helvetica,sans-Serif" font-size="10.00">&lt; Derived &gt;</text>
</a>
</g>
</g>
<!-- Node8&#45;&gt;Node7 -->
<g id="edge7" class="edge"><title>Node8&#45;&gt;Node7</title>
<path fill="none" stroke="midnightblue" d="M398.702,-305C432.843,-305 472.977,-305 507.683,-305"/>
<polygon fill="midnightblue" stroke="midnightblue" points="398.311,-301.5 388.311,-305 398.311,-308.5 398.311,-301.5"/>
</g>
<!-- Node9 -->
<g id="node9" class="node"><title>Node9</title>
<g id="a_node9"><a xlink:href="structEigen_1_1EigenBase.html" target="_top" xlink:title="Eigen::EigenBase\&lt; Derived \&gt;">
<polygon fill="none" stroke="black" points="0,-314.5 0,-333.5 158,-333.5 158,-314.5 0,-314.5"/>
<text text-anchor="middle" x="79" y="-321.5" font-family="Helvetica,sans-Serif" font-size="10.00">Eigen::EigenBase&lt; Derived &gt;</text>
</a>
</g>
</g>
<!-- Node9&#45;&gt;Node8 -->
<g id="edge8" class="edge"><title>Node9&#45;&gt;Node8</title>
<path fill="none" stroke="midnightblue" d="M168.306,-316.98C195.907,-314.786 225.895,-312.402 251.799,-310.342"/>
<polygon fill="midnightblue" stroke="midnightblue" points="167.949,-313.497 158.258,-317.779 168.503,-320.475 167.949,-313.497"/>
</g>
<!-- Node10 -->
<g id="node10" class="node"><title>Node10</title>
<g id="a_node10"><a xlink:href="classbool.html" target="_top" xlink:title="bool">
<polygon fill="none" stroke="black" points="60.5,-276.5 60.5,-295.5 97.5,-295.5 97.5,-276.5 60.5,-276.5"/>
<text text-anchor="middle" x="79" y="-283.5" font-family="Helvetica,sans-Serif" font-size="10.00">bool</text>
</a>
</g>
</g>
<!-- Node10&#45;&gt;Node8 -->
<g id="edge9" class="edge"><title>Node10&#45;&gt;Node8</title>
<path fill="none" stroke="#9a32cd" stroke-dasharray="5,2" d="M107.55,-288.11C138.365,-290.479 189.763,-294.455 234,-298 239.756,-298.461 245.731,-298.944 251.725,-299.432"/>
<polygon fill="#9a32cd" stroke="#9a32cd" points="107.793,-284.618 97.5545,-287.343 107.257,-291.598 107.793,-284.618"/>
<text text-anchor="middle" x="205" y="-301" font-family="Helvetica,sans-Serif" font-size="10.00"> m_isRValue</text>
</g>
<!-- Node11 -->
<g id="node11" class="node"><title>Node11</title>
<polygon fill="none" stroke="#bfbfbf" points="254.5,-216 254.5,-246 385.5,-246 385.5,-216 254.5,-216"/>
<text text-anchor="start" x="262.5" y="-234" font-family="Helvetica,sans-Serif" font-size="10.00">EIGEN_DEFAULT_DENSE</text>
<text text-anchor="middle" x="320" y="-223" font-family="Helvetica,sans-Serif" font-size="10.00">_INDEX_TYPE</text>
</g>
<!-- Node11&#45;&gt;Node6 -->
<g id="edge10" class="edge"><title>Node11&#45;&gt;Node6</title>
<path fill="none" stroke="#9a32cd" stroke-dasharray="5,2" d="M395.806,-231.611C494.952,-232.42 667.596,-233.829 755.757,-234.549"/>
<polygon fill="#9a32cd" stroke="#9a32cd" points="395.591,-228.109 385.563,-231.527 395.534,-235.109 395.591,-228.109"/>
<text text-anchor="middle" x="591.5" y="-248" font-family="Helvetica,sans-Serif" font-size="10.00"> m_outerSize</text>
<text text-anchor="middle" x="591.5" y="-237" font-family="Helvetica,sans-Serif" font-size="10.00">m_innerSize</text>
</g>
<!-- Node13 -->
<g id="node13" class="node"><title>Node13</title>
<g id="a_node13"><a xlink:href="classEigen_1_1internal_1_1CompressedStorage.html" target="_top" xlink:title="Eigen::internal::Compressed\lStorage\&lt; Scalar, StorageIndex \&gt;">
<polygon fill="none" stroke="black" points="503,-167 503,-197 680,-197 680,-167 503,-167"/>
<text text-anchor="start" x="511" y="-185" font-family="Helvetica,sans-Serif" font-size="10.00">Eigen::internal::Compressed</text>
<text text-anchor="middle" x="591.5" y="-174" font-family="Helvetica,sans-Serif" font-size="10.00">Storage&lt; Scalar, StorageIndex &gt;</text>
</a>
</g>
</g>
<!-- Node11&#45;&gt;Node13 -->
<g id="edge13" class="edge"><title>Node11&#45;&gt;Node13</title>
<path fill="none" stroke="#9a32cd" stroke-dasharray="5,2" d="M382.378,-213.424C390.291,-211.444 398.313,-209.575 406,-208 437.372,-201.571 472.072,-196.226 502.834,-192.088"/>
<polygon fill="#9a32cd" stroke="#9a32cd" points="381.259,-210.098 372.447,-215.979 383.003,-216.877 381.259,-210.098"/>
<text text-anchor="middle" x="445.5" y="-222" font-family="Helvetica,sans-Serif" font-size="10.00"> m_size</text>
<text text-anchor="middle" x="445.5" y="-211" font-family="Helvetica,sans-Serif" font-size="10.00">m_allocatedSize</text>
</g>
<!-- Node12 -->
<g id="node12" class="node"><title>Node12</title>
<polygon fill="none" stroke="#bfbfbf" points="275.5,-111.5 275.5,-130.5 364.5,-130.5 364.5,-111.5 275.5,-111.5"/>
<text text-anchor="middle" x="320" y="-118.5" font-family="Helvetica,sans-Serif" font-size="10.00">StorageIndex *</text>
</g>
<!-- Node12&#45;&gt;Node6 -->
<g id="edge11" class="edge"><title>Node12&#45;&gt;Node6</title>
<path fill="none" stroke="#9a32cd" stroke-dasharray="5,2" d="M374.77,-113.268C446.689,-105.096 577.076,-97.9552 680,-135 729.536,-152.829 775.539,-196.689 797.497,-219.95"/>
<polygon fill="#9a32cd" stroke="#9a32cd" points="374.111,-109.822 364.593,-114.476 374.936,-116.773 374.111,-109.822"/>
<text text-anchor="middle" x="591.5" y="-149" font-family="Helvetica,sans-Serif" font-size="10.00"> m_outerIndex</text>
<text text-anchor="middle" x="591.5" y="-138" font-family="Helvetica,sans-Serif" font-size="10.00">m_innerNonZeros</text>
</g>
<!-- Node12&#45;&gt;Node13 -->
<g id="edge14" class="edge"><title>Node12&#45;&gt;Node13</title>
<path fill="none" stroke="#9a32cd" stroke-dasharray="5,2" d="M373.563,-132.834C405.741,-140.084 447.755,-149.562 485,-158 497.732,-160.884 511.327,-163.972 524.377,-166.939"/>
<polygon fill="#9a32cd" stroke="#9a32cd" points="374.005,-129.345 363.48,-130.562 372.466,-136.174 374.005,-129.345"/>
<text text-anchor="middle" x="445.5" y="-161" font-family="Helvetica,sans-Serif" font-size="10.00"> m_indices</text>
</g>
<!-- Node13&#45;&gt;Node6 -->
<g id="edge12" class="edge"><title>Node13&#45;&gt;Node6</title>
<path fill="none" stroke="#9a32cd" stroke-dasharray="5,2" d="M664.446,-199.451C694.207,-206.67 728.165,-214.907 755.894,-221.633"/>
<polygon fill="#9a32cd" stroke="#9a32cd" points="665.072,-196.002 654.529,-197.046 663.422,-202.805 665.072,-196.002"/>
<text text-anchor="middle" x="718" y="-220" font-family="Helvetica,sans-Serif" font-size="10.00"> m_data</text>
</g>
<!-- Node14 -->
<g id="node14" class="node"><title>Node14</title>
<polygon fill="none" stroke="#bfbfbf" points="292.5,-163.5 292.5,-182.5 347.5,-182.5 347.5,-163.5 292.5,-163.5"/>
<text text-anchor="middle" x="320" y="-170.5" font-family="Helvetica,sans-Serif" font-size="10.00">Scalar *</text>
</g>
<!-- Node14&#45;&gt;Node13 -->
<g id="edge15" class="edge"><title>Node14&#45;&gt;Node13</title>
<path fill="none" stroke="#9a32cd" stroke-dasharray="5,2" d="M357.884,-172.493C391.134,-172.21 441.36,-172.215 485,-174 490.781,-174.237 496.737,-174.536 502.737,-174.879"/>
<polygon fill="#9a32cd" stroke="#9a32cd" points="357.68,-168.994 347.715,-172.593 357.749,-175.994 357.68,-168.994"/>
<text text-anchor="middle" x="445.5" y="-177" font-family="Helvetica,sans-Serif" font-size="10.00"> m_values</text>
</g>
<!-- Node15 -->
<g id="node15" class="node"><title>Node15</title>
<polygon fill="none" stroke="#bfbfbf" points="1191,-177.5 1191,-196.5 1220,-196.5 1220,-177.5 1191,-177.5"/>
<text text-anchor="middle" x="1205.5" y="-184.5" font-family="Helvetica,sans-Serif" font-size="10.00">int</text>
</g>
<!-- Node15&#45;&gt;Node1 -->
<g id="edge18" class="edge"><title>Node15&#45;&gt;Node1</title>
<path fill="none" stroke="#9a32cd" stroke-dasharray="5,2" d="M1230.08,-194.311C1254.53,-201.482 1294.02,-211.916 1329,-216 1492.69,-235.112 1685.19,-221.225 1795.52,-209.818"/>
<polygon fill="#9a32cd" stroke="#9a32cd" points="1230.86,-190.89 1220.27,-191.373 1228.85,-197.596 1230.86,-190.89"/>
<text text-anchor="middle" x="1509.5" y="-240" font-family="Helvetica,sans-Serif" font-size="10.00"> NumDims</text>
<text text-anchor="middle" x="1509.5" y="-229" font-family="Helvetica,sans-Serif" font-size="10.00">PacketSize</text>
</g>
<!-- Node15&#45;&gt;Node2 -->
<g id="edge16" class="edge"><title>Node15&#45;&gt;Node2</title>
<path fill="none" stroke="#9a32cd" stroke-dasharray="5,2" d="M1230.05,-186.945C1251.23,-186.963 1283.2,-187.155 1311,-188 1316.83,-188.177 1322.9,-188.408 1328.97,-188.669"/>
<polygon fill="#9a32cd" stroke="#9a32cd" points="1230.03,-183.445 1220.03,-186.95 1230.03,-190.445 1230.03,-183.445"/>
<text text-anchor="middle" x="1295.5" y="-191" font-family="Helvetica,sans-Serif" font-size="10.00"> count</text>
</g>
<!-- Node15&#45;&gt;Node17 -->
<g id="edge25" class="edge"><title>Node15&#45;&gt;Node17</title>
<path fill="none" stroke="#9a32cd" stroke-dasharray="5,2" d="M1226.02,-171.243C1249.05,-153.72 1289.26,-126.385 1329,-115 1409.15,-92.0407 1506.28,-94.6204 1568,-99.8058"/>
<polygon fill="#9a32cd" stroke="#9a32cd" points="1223.82,-168.523 1218.07,-177.425 1228.11,-174.049 1223.82,-168.523"/>
<text text-anchor="middle" x="1390" y="-118" font-family="Helvetica,sans-Serif" font-size="10.00"> NumCoords</text>
</g>
<!-- Node16 -->
<g id="node16" class="node"><title>Node16</title>
<polygon fill="none" stroke="#bfbfbf" points="1583,-143.5 1583,-162.5 1678,-162.5 1678,-143.5 1583,-143.5"/>
<text text-anchor="middle" x="1630.5" y="-150.5" font-family="Helvetica,sans-Serif" font-size="10.00">const Broadcast</text>
</g>
<!-- Node16&#45;&gt;Node1 -->
<g id="edge19" class="edge"><title>Node16&#45;&gt;Node1</title>
<path fill="none" stroke="#9a32cd" stroke-dasharray="5,2" d="M1688.31,-159.985C1715.54,-163.628 1748.55,-168.476 1778,-174 1785.25,-175.36 1792.75,-176.877 1800.26,-178.472"/>
<polygon fill="#9a32cd" stroke="#9a32cd" points="1688.56,-156.487 1678.18,-158.649 1687.64,-163.427 1688.56,-156.487"/>
<text text-anchor="middle" x="1744.5" y="-177" font-family="Helvetica,sans-Serif" font-size="10.00"> m_broadcast</text>
</g>
<!-- Node17&#45;&gt;Node1 -->
<g id="edge20" class="edge"><title>Node17&#45;&gt;Node1</title>
<path fill="none" stroke="#9a32cd" stroke-dasharray="5,2" d="M1701.95,-124.794C1726.3,-131.578 1753.6,-139.891 1778,-149 1800.75,-157.494 1825.37,-168.781 1845.3,-178.481"/>
<polygon fill="#9a32cd" stroke="#9a32cd" points="1702.63,-121.353 1692.06,-122.08 1700.78,-128.103 1702.63,-121.353"/>
<text text-anchor="middle" x="1744.5" y="-152" font-family="Helvetica,sans-Serif" font-size="10.00"> m_impl</text>
</g>
<!-- Node18 -->
<g id="node18" class="node"><title>Node18</title>
<g id="a_node18"><a xlink:href="structEigen_1_1internal_1_1traits.html" target="_top" xlink:title="Eigen::internal::traits\l\&lt; ArgType \&gt;">
<polygon fill="none" stroke="black" points="1332,-39 1332,-69 1448,-69 1448,-39 1332,-39"/>
<text text-anchor="start" x="1340" y="-57" font-family="Helvetica,sans-Serif" font-size="10.00">Eigen::internal::traits</text>
<text text-anchor="middle" x="1390" y="-46" font-family="Helvetica,sans-Serif" font-size="10.00">&lt; ArgType &gt;</text>
</a>
</g>
</g>
<!-- Node18&#45;&gt;Node17 -->
<g id="edge21" class="edge"><title>Node18&#45;&gt;Node17</title>
<path fill="none" stroke="#9a32cd" stroke-dasharray="5,2" d="M1458.34,-63.178C1486.81,-67.6409 1520.22,-73.6453 1550,-81 1562.27,-84.0293 1575.38,-88.0025 1587.34,-91.9282"/>
<polygon fill="#9a32cd" stroke="#9a32cd" points="1458.5,-59.6619 1448.08,-61.6038 1457.44,-66.5809 1458.5,-59.6619"/>
<text text-anchor="middle" x="1509.5" y="-84" font-family="Helvetica,sans-Serif" font-size="10.00"> m_data</text>
</g>
<!-- Node19 -->
<g id="node19" class="node"><title>Node19</title>
<polygon fill="none" stroke="#bfbfbf" points="1365.5,-0.5 1365.5,-19.5 1414.5,-19.5 1414.5,-0.5 1365.5,-0.5"/>
<text text-anchor="middle" x="1390" y="-7.5" font-family="Helvetica,sans-Serif" font-size="10.00">Device</text>
</g>
<!-- Node19&#45;&gt;Node17 -->
<g id="edge23" class="edge"><title>Node19&#45;&gt;Node17</title>
<path fill="none" stroke="#9a32cd" stroke-dasharray="5,2" d="M1424.58,-15.0269C1457.61,-20.7971 1508.91,-32.0029 1550,-51 1573.14,-61.697 1596.64,-79.2582 1612.03,-91.8643"/>
<polygon fill="#9a32cd" stroke="#9a32cd" points="1424.98,-11.5445 1414.54,-13.3414 1423.82,-18.448 1424.98,-11.5445"/>
<text text-anchor="middle" x="1509.5" y="-54" font-family="Helvetica,sans-Serif" font-size="10.00"> m_device</text>
</g>
<!-- Node20 -->
<g id="node20" class="node"><title>Node20</title>
<polygon fill="none" stroke="#bfbfbf" points="1342.5,-135.5 1342.5,-154.5 1437.5,-154.5 1437.5,-135.5 1342.5,-135.5"/>
<text text-anchor="middle" x="1390" y="-142.5" font-family="Helvetica,sans-Serif" font-size="10.00">const ArgType &amp;</text>
</g>
<!-- Node20&#45;&gt;Node17 -->
<g id="edge24" class="edge"><title>Node20&#45;&gt;Node17</title>
<path fill="none" stroke="#9a32cd" stroke-dasharray="5,2" d="M1447.45,-136.006C1483.61,-130.245 1530.55,-122.766 1567.71,-116.845"/>
<polygon fill="#9a32cd" stroke="#9a32cd" points="1446.88,-132.553 1437.55,-137.583 1447.98,-139.466 1446.88,-132.553"/>
<text text-anchor="middle" x="1509.5" y="-135" font-family="Helvetica,sans-Serif" font-size="10.00"> m_impl</text>
</g>
</g>
</svg>
