<?xml version="1.0" encoding="UTF-8" standalone="no"?>
<!DOCTYPE svg PUBLIC "-//W3C//DTD SVG 1.1//EN"
 "http://www.w3.org/Graphics/SVG/1.1/DTD/svg11.dtd">
<!-- Generated by graphviz version 2.38.0 (20140413.2041)
 -->
<!-- Title: Eigen::internal::Assignment&lt; DstXprType, SrcXprType, Functor, SparseSelfAdjoint2Sparse &gt;::run Pages: 1 -->
<svg width="710pt" height="137pt"
 viewBox="0.00 0.00 710.00 137.00" xmlns="http://www.w3.org/2000/svg" xmlns:xlink="http://www.w3.org/1999/xlink">
<g id="graph0" class="graph" transform="scale(1 1) rotate(0) translate(4 133)">
<title>Eigen::internal::Assignment&lt; DstXprType, SrcXprType, Functor, SparseSelfAdjoint2Sparse &gt;::run</title>
<!-- Node2 -->
<g id="node1" class="node"><title>Node2</title>
<polygon fill="#bfbfbf" stroke="black" points="0,-44 0,-85 218,-85 218,-44 0,-44"/>
<text text-anchor="start" x="8" y="-73" font-family="Helvetica,sans-Serif" font-size="10.00">Eigen::internal::Assignment</text>
<text text-anchor="start" x="8" y="-62" font-family="Helvetica,sans-Serif" font-size="10.00">&lt; DstXprType, SrcXprType,</text>
<text text-anchor="middle" x="109" y="-51" font-family="Helvetica,sans-Serif" font-size="10.00"> Functor, SparseSelfAdjoint2Sparse &gt;::run</text>
</g>
<!-- Node3 -->
<g id="node2" class="node"><title>Node3</title>
<g id="a_node2"><a xlink:href="namespaceEigen_1_1internal.html#ad37c6a435875b21fda4d7ca5a4364154" target="_top" xlink:title="Eigen::internal::call\l_assignment_no_alias\l_no_transpose">
<polygon fill="none" stroke="black" points="254,-69 254,-110 376,-110 376,-69 254,-69"/>
<text text-anchor="start" x="262" y="-98" font-family="Helvetica,sans-Serif" font-size="10.00">Eigen::internal::call</text>
<text text-anchor="start" x="262" y="-87" font-family="Helvetica,sans-Serif" font-size="10.00">_assignment_no_alias</text>
<text text-anchor="middle" x="315" y="-76" font-family="Helvetica,sans-Serif" font-size="10.00">_no_transpose</text>
</a>
</g>
</g>
<!-- Node2&#45;&gt;Node3 -->
<g id="edge1" class="edge"><title>Node2&#45;&gt;Node3</title>
<path fill="none" stroke="midnightblue" d="M218.272,-77.7686C226.95,-78.8321 235.567,-79.8881 243.871,-80.9058"/>
<polygon fill="midnightblue" stroke="midnightblue" points="243.476,-84.3835 253.828,-82.126 244.328,-77.4355 243.476,-84.3835"/>
</g>
<!-- Node4 -->
<g id="node3" class="node"><title>Node4</title>
<g id="a_node3"><a xlink:href="namespaceEigen_1_1TensorSycl.html#a789ef14500d782279cc4bb95e6ba3dbd" target="_top" xlink:title="Eigen::TensorSycl::run">
<polygon fill="none" stroke="black" points="412,-55 412,-74 533,-74 533,-55 412,-55"/>
<text text-anchor="middle" x="472.5" y="-62" font-family="Helvetica,sans-Serif" font-size="10.00">Eigen::TensorSycl::run</text>
</a>
</g>
</g>
<!-- Node2&#45;&gt;Node4 -->
<g id="edge6" class="edge"><title>Node2&#45;&gt;Node4</title>
<path fill="none" stroke="midnightblue" d="M218.075,-60.2672C266.396,-58.9422 324.055,-58.1411 376,-59.5 384.35,-59.7184 393.107,-60.0442 401.788,-60.4265"/>
<polygon fill="midnightblue" stroke="midnightblue" points="401.763,-63.9291 411.915,-60.8984 402.089,-56.9366 401.763,-63.9291"/>
</g>
<!-- Node3&#45;&gt;Node4 -->
<g id="edge2" class="edge"><title>Node3&#45;&gt;Node4</title>
<path fill="none" stroke="midnightblue" d="M376.12,-79.8343C384.659,-78.4616 393.497,-77.0407 402.192,-75.6428"/>
<polygon fill="midnightblue" stroke="midnightblue" points="402.99,-79.0595 412.308,-74.0165 401.879,-72.1483 402.99,-79.0595"/>
</g>
<!-- Node5 -->
<g id="node4" class="node"><title>Node5</title>
<g id="a_node4"><a xlink:href="structEigen_1_1TensorEvaluator.html#ae188d806978166eb8cbffbd63c944fb3" target="_top" xlink:title="Eigen::TensorEvaluator\l::evalSubExprsIfNeeded">
<polygon fill="none" stroke="black" points="570.5,-98.5 570.5,-128.5 700.5,-128.5 700.5,-98.5 570.5,-98.5"/>
<text text-anchor="start" x="578.5" y="-116.5" font-family="Helvetica,sans-Serif" font-size="10.00">Eigen::TensorEvaluator</text>
<text text-anchor="middle" x="635.5" y="-105.5" font-family="Helvetica,sans-Serif" font-size="10.00">::evalSubExprsIfNeeded</text>
</a>
</g>
</g>
<!-- Node4&#45;&gt;Node5 -->
<g id="edge3" class="edge"><title>Node4&#45;&gt;Node5</title>
<path fill="none" stroke="midnightblue" d="M504.925,-74.064C524.952,-80.1592 551.532,-88.2488 575.404,-95.5143"/>
<polygon fill="midnightblue" stroke="midnightblue" points="574.507,-98.8997 585.093,-98.463 576.545,-92.203 574.507,-98.8997"/>
</g>
<!-- Node6 -->
<g id="node5" class="node"><title>Node6</title>
<g id="a_node5"><a xlink:href="namespaceEigen_1_1TensorSycl_1_1internal.html#a525ee07cdeb68d18359b511b1ae9ffc7" target="_top" xlink:title="template deduction function for FunctorExtractor ">
<polygon fill="none" stroke="black" points="569,-49.5 569,-79.5 702,-79.5 702,-49.5 569,-49.5"/>
<text text-anchor="start" x="577" y="-67.5" font-family="Helvetica,sans-Serif" font-size="10.00">Eigen::TensorSycl::</text>
<text text-anchor="middle" x="635.5" y="-56.5" font-family="Helvetica,sans-Serif" font-size="10.00">internal::extractFunctors</text>
</a>
</g>
</g>
<!-- Node4&#45;&gt;Node6 -->
<g id="edge4" class="edge"><title>Node4&#45;&gt;Node6</title>
<path fill="none" stroke="midnightblue" d="M533.45,-64.5C541.65,-64.5 550.154,-64.5 558.59,-64.5"/>
<polygon fill="midnightblue" stroke="midnightblue" points="558.823,-68.0001 568.823,-64.5 558.823,-61.0001 558.823,-68.0001"/>
</g>
<!-- Node7 -->
<g id="node6" class="node"><title>Node7</title>
<g id="a_node6"><a xlink:href="structEigen_1_1TensorEvaluator.html#a76ec54bcca9523ec104aaa9adaf74983" target="_top" xlink:title="Eigen::TensorEvaluator\l::cleanup">
<polygon fill="none" stroke="black" points="573,-0.5 573,-30.5 698,-30.5 698,-0.5 573,-0.5"/>
<text text-anchor="start" x="581" y="-18.5" font-family="Helvetica,sans-Serif" font-size="10.00">Eigen::TensorEvaluator</text>
<text text-anchor="middle" x="635.5" y="-7.5" font-family="Helvetica,sans-Serif" font-size="10.00">::cleanup</text>
</a>
</g>
</g>
<!-- Node4&#45;&gt;Node7 -->
<g id="edge5" class="edge"><title>Node4&#45;&gt;Node7</title>
<path fill="none" stroke="midnightblue" d="M504.925,-54.936C524.952,-48.8408 551.532,-40.7512 575.404,-33.4857"/>
<polygon fill="midnightblue" stroke="midnightblue" points="576.545,-36.797 585.093,-30.537 574.507,-30.1003 576.545,-36.797"/>
</g>
</g>
</svg>
