<?xml version="1.0" encoding="UTF-8" standalone="no"?>
<!DOCTYPE svg PUBLIC "-//W3C//DTD SVG 1.1//EN"
 "http://www.w3.org/Graphics/SVG/1.1/DTD/svg11.dtd">
<!-- Generated by graphviz version 2.38.0 (20140413.2041)
 -->
<!-- Title: Eigen::TensorEvaluator&lt; TensorStridingSlicingOp&lt; StartIndices, StopIndices, Strides, ArgType &gt;, Device &gt; Pages: 1 -->
<svg width="2347pt" height="437pt"
 viewBox="0.00 0.00 2347.00 437.00" xmlns="http://www.w3.org/2000/svg" xmlns:xlink="http://www.w3.org/1999/xlink">
<g id="graph0" class="graph" transform="scale(1 1) rotate(0) translate(4 433)">
<title>Eigen::TensorEvaluator&lt; TensorStridingSlicingOp&lt; StartIndices, StopIndices, Strides, ArgType &gt;, Device &gt;</title>
<!-- Node2 -->
<g id="node1" class="node"><title>Node2</title>
<polygon fill="#bfbfbf" stroke="black" points="2181,-28 2181,-80 2339,-80 2339,-28 2181,-28"/>
<text text-anchor="start" x="2189" y="-68" font-family="Helvetica,sans-Serif" font-size="10.00">Eigen::TensorEvaluator</text>
<text text-anchor="start" x="2189" y="-57" font-family="Helvetica,sans-Serif" font-size="10.00">&lt; TensorStridingSlicingOp</text>
<text text-anchor="start" x="2189" y="-46" font-family="Helvetica,sans-Serif" font-size="10.00">&lt; StartIndices, StopIndices,</text>
<text text-anchor="middle" x="2260" y="-35" font-family="Helvetica,sans-Serif" font-size="10.00"> Strides, ArgType &gt;, Device &gt;</text>
</g>
<!-- Node3 -->
<g id="node2" class="node"><title>Node3</title>
<g id="a_node2"><a xlink:href="structEigen_1_1TensorEvaluator_3_01const_01TensorStridingSlicingOp_3_01StartIndices_00_01StopInddb5b8726d99b3d13705801cb27fe62ca.html" target="_top" xlink:title="Eigen::TensorEvaluator\l\&lt; const TensorStridingSlicing\lOp\&lt; StartIndices, StopIndices,\l Strides, ArgType \&gt;, Device \&gt;">
<polygon fill="none" stroke="black" points="1981,-165 1981,-217 2144,-217 2144,-165 1981,-165"/>
<text text-anchor="start" x="1989" y="-205" font-family="Helvetica,sans-Serif" font-size="10.00">Eigen::TensorEvaluator</text>
<text text-anchor="start" x="1989" y="-194" font-family="Helvetica,sans-Serif" font-size="10.00">&lt; const TensorStridingSlicing</text>
<text text-anchor="start" x="1989" y="-183" font-family="Helvetica,sans-Serif" font-size="10.00">Op&lt; StartIndices, StopIndices,</text>
<text text-anchor="middle" x="2062.5" y="-172" font-family="Helvetica,sans-Serif" font-size="10.00"> Strides, ArgType &gt;, Device &gt;</text>
</a>
</g>
</g>
<!-- Node3&#45;&gt;Node2 -->
<g id="edge1" class="edge"><title>Node3&#45;&gt;Node2</title>
<path fill="none" stroke="midnightblue" d="M2109.15,-159.01C2143.34,-135.049 2189.55,-102.669 2221.57,-80.2269"/>
<polygon fill="midnightblue" stroke="midnightblue" points="2106.91,-156.304 2100.73,-164.909 2110.93,-162.036 2106.91,-156.304"/>
</g>
<!-- Node4 -->
<g id="node3" class="node"><title>Node4</title>
<polygon fill="none" stroke="#bfbfbf" points="1717,-242.5 1717,-261.5 1806,-261.5 1806,-242.5 1717,-242.5"/>
<text text-anchor="middle" x="1761.5" y="-249.5" font-family="Helvetica,sans-Serif" font-size="10.00">const Device &amp;</text>
</g>
<!-- Node4&#45;&gt;Node3 -->
<g id="edge2" class="edge"><title>Node4&#45;&gt;Node3</title>
<path fill="none" stroke="#9a32cd" stroke-dasharray="5,2" d="M1816.33,-241.018C1862.19,-231.662 1928.76,-218.081 1980.96,-207.431"/>
<polygon fill="#9a32cd" stroke="#9a32cd" points="1815.4,-237.636 1806.3,-243.065 1816.8,-244.495 1815.4,-237.636"/>
<text text-anchor="middle" x="1902.5" y="-239" font-family="Helvetica,sans-Serif" font-size="10.00"> m_device</text>
</g>
<!-- Node5 -->
<g id="node4" class="node"><title>Node5</title>
<g id="a_node4"><a xlink:href="structEigen_1_1DSizes.html" target="_top" xlink:title="Eigen::DSizes\&lt; Index,\l NumDims \&gt;">
<polygon fill="none" stroke="black" points="1438,-202 1438,-232 1560,-232 1560,-202 1438,-202"/>
<text text-anchor="start" x="1446" y="-220" font-family="Helvetica,sans-Serif" font-size="10.00">Eigen::DSizes&lt; Index,</text>
<text text-anchor="middle" x="1499" y="-209" font-family="Helvetica,sans-Serif" font-size="10.00"> NumDims &gt;</text>
</a>
</g>
</g>
<!-- Node5&#45;&gt;Node3 -->
<g id="edge3" class="edge"><title>Node5&#45;&gt;Node3</title>
<path fill="none" stroke="#9a32cd" stroke-dasharray="5,2" d="M1569.99,-209.981C1608.1,-206.422 1656.09,-202.363 1699,-200 1795.8,-194.668 1907.32,-192.495 1980.82,-191.609"/>
<polygon fill="#9a32cd" stroke="#9a32cd" points="1569.65,-206.498 1560.02,-210.922 1570.31,-213.467 1569.65,-206.498"/>
<text text-anchor="middle" x="1761.5" y="-225" font-family="Helvetica,sans-Serif" font-size="10.00"> m_dimensions</text>
<text text-anchor="middle" x="1761.5" y="-214" font-family="Helvetica,sans-Serif" font-size="10.00">m_startIndices</text>
<text text-anchor="middle" x="1761.5" y="-203" font-family="Helvetica,sans-Serif" font-size="10.00">m_offsets</text>
</g>
<!-- Node22 -->
<g id="node21" class="node"><title>Node22</title>
<g id="a_node21"><a xlink:href="structEigen_1_1TensorEvaluator.html" target="_top" xlink:title="Eigen::TensorEvaluator\l\&lt; ArgType, Device \&gt;">
<polygon fill="none" stroke="black" points="1699,-124 1699,-154 1824,-154 1824,-124 1699,-124"/>
<text text-anchor="start" x="1707" y="-142" font-family="Helvetica,sans-Serif" font-size="10.00">Eigen::TensorEvaluator</text>
<text text-anchor="middle" x="1761.5" y="-131" font-family="Helvetica,sans-Serif" font-size="10.00">&lt; ArgType, Device &gt;</text>
</a>
</g>
</g>
<!-- Node5&#45;&gt;Node22 -->
<g id="edge27" class="edge"><title>Node5&#45;&gt;Node22</title>
<path fill="none" stroke="#9a32cd" stroke-dasharray="5,2" d="M1543.93,-198.13C1554.94,-193.796 1566.8,-189.453 1578,-186 1622.82,-172.184 1635.63,-174.897 1681,-163 1691.32,-160.294 1702.32,-157.147 1712.74,-154.04"/>
<polygon fill="#9a32cd" stroke="#9a32cd" points="1542.5,-194.935 1534.52,-201.913 1545.11,-201.43 1542.5,-194.935"/>
<text text-anchor="middle" x="1629.5" y="-189" font-family="Helvetica,sans-Serif" font-size="10.00"> m_dims</text>
</g>
<!-- Node6 -->
<g id="node5" class="node"><title>Node6</title>
<g id="a_node5"><a xlink:href="classEigen_1_1array.html" target="_top" xlink:title="Eigen::array\&lt; Index,\l NumDims \&gt;">
<polygon fill="none" stroke="black" points="1149,-313 1149,-343 1262,-343 1262,-313 1149,-313"/>
<text text-anchor="start" x="1157" y="-331" font-family="Helvetica,sans-Serif" font-size="10.00">Eigen::array&lt; Index,</text>
<text text-anchor="middle" x="1205.5" y="-320" font-family="Helvetica,sans-Serif" font-size="10.00"> NumDims &gt;</text>
</a>
</g>
</g>
<!-- Node6&#45;&gt;Node3 -->
<g id="edge19" class="edge"><title>Node6&#45;&gt;Node3</title>
<path fill="none" stroke="#9a32cd" stroke-dasharray="5,2" d="M1272.43,-328.907C1432.92,-330.24 1839.73,-328.11 1963,-275 1993.14,-262.017 2020.94,-236.521 2039.26,-217.008"/>
<polygon fill="#9a32cd" stroke="#9a32cd" points="1272.26,-325.406 1262.22,-328.815 1272.19,-332.405 1272.26,-325.406"/>
<text text-anchor="middle" x="1629.5" y="-338" font-family="Helvetica,sans-Serif" font-size="10.00"> m_inputStrides</text>
<text text-anchor="middle" x="1629.5" y="-327" font-family="Helvetica,sans-Serif" font-size="10.00">m_outputStrides</text>
</g>
<!-- Node6&#45;&gt;Node5 -->
<g id="edge4" class="edge"><title>Node6&#45;&gt;Node5</title>
<path fill="none" stroke="midnightblue" d="M1255.65,-309.284C1312.75,-287.541 1405.83,-252.096 1458.47,-232.052"/>
<polygon fill="midnightblue" stroke="midnightblue" points="1254.22,-306.085 1246.12,-312.915 1256.71,-312.627 1254.22,-306.085"/>
</g>
<!-- Node7 -->
<g id="node6" class="node"><title>Node7</title>
<g id="a_node6"><a xlink:href="classEigen_1_1Triplet.html" target="_top" xlink:title="Eigen::Triplet\&lt; double \&gt;">
<polygon fill="none" stroke="black" points="948,-342.5 948,-361.5 1079,-361.5 1079,-342.5 948,-342.5"/>
<text text-anchor="middle" x="1013.5" y="-349.5" font-family="Helvetica,sans-Serif" font-size="10.00">Eigen::Triplet&lt; double &gt;</text>
</a>
</g>
</g>
<!-- Node7&#45;&gt;Node6 -->
<g id="edge5" class="edge"><title>Node7&#45;&gt;Node6</title>
<path fill="none" stroke="#9a32cd" stroke-dasharray="5,2" d="M1082.59,-340.973C1087.46,-340.275 1092.3,-339.61 1097,-339 1113.84,-336.814 1132.2,-334.798 1148.92,-333.107"/>
<polygon fill="#9a32cd" stroke="#9a32cd" points="1081.97,-337.526 1072.59,-342.442 1082.99,-344.452 1081.97,-337.526"/>
<text text-anchor="middle" x="1114" y="-342" font-family="Helvetica,sans-Serif" font-size="10.00"> values</text>
</g>
<!-- Node19 -->
<g id="node18" class="node"><title>Node19</title>
<g id="a_node18"><a xlink:href="classEigen_1_1array.html" target="_top" xlink:title="Eigen::array\&lt; Eigen\l::internal::TensorIntDivisor\l\&lt; Index \&gt;, NumDims \&gt;">
<polygon fill="none" stroke="black" points="1280,-351.5 1280,-392.5 1420,-392.5 1420,-351.5 1280,-351.5"/>
<text text-anchor="start" x="1288" y="-380.5" font-family="Helvetica,sans-Serif" font-size="10.00">Eigen::array&lt; Eigen</text>
<text text-anchor="start" x="1288" y="-369.5" font-family="Helvetica,sans-Serif" font-size="10.00">::internal::TensorIntDivisor</text>
<text text-anchor="middle" x="1350" y="-358.5" font-family="Helvetica,sans-Serif" font-size="10.00">&lt; Index &gt;, NumDims &gt;</text>
</a>
</g>
</g>
<!-- Node7&#45;&gt;Node19 -->
<g id="edge22" class="edge"><title>Node7&#45;&gt;Node19</title>
<path fill="none" stroke="#9a32cd" stroke-dasharray="5,2" d="M1089.43,-356.48C1146.49,-359.892 1224.42,-364.552 1279.97,-367.873"/>
<polygon fill="#9a32cd" stroke="#9a32cd" points="1089.58,-352.983 1079.39,-355.88 1089.16,-359.971 1089.58,-352.983"/>
<text text-anchor="middle" x="1114" y="-361" font-family="Helvetica,sans-Serif" font-size="10.00"> values</text>
</g>
<!-- Node8 -->
<g id="node7" class="node"><title>Node8</title>
<polygon fill="none" stroke="#bfbfbf" points="784.5,-365.5 784.5,-384.5 839.5,-384.5 839.5,-365.5 784.5,-365.5"/>
<text text-anchor="middle" x="812" y="-372.5" font-family="Helvetica,sans-Serif" font-size="10.00">SCALAR</text>
</g>
<!-- Node8&#45;&gt;Node7 -->
<g id="edge6" class="edge"><title>Node8&#45;&gt;Node7</title>
<path fill="none" stroke="#9a32cd" stroke-dasharray="5,2" d="M849.86,-370.75C877.292,-367.588 915.441,-363.19 947.898,-359.448"/>
<polygon fill="#9a32cd" stroke="#9a32cd" points="849.439,-367.276 839.905,-371.898 850.241,-374.23 849.439,-367.276"/>
<text text-anchor="middle" x="908" y="-369" font-family="Helvetica,sans-Serif" font-size="10.00"> m_value</text>
</g>
<!-- Node9 -->
<g id="node8" class="node"><title>Node9</title>
<g id="a_node8"><a xlink:href="classEigen_1_1SparseMatrix.html" target="_top" xlink:title="Eigen::SparseMatrix\l\&lt; double \&gt;">
<polygon fill="none" stroke="black" points="756,-315 756,-345 868,-345 868,-315 756,-315"/>
<text text-anchor="start" x="764" y="-333" font-family="Helvetica,sans-Serif" font-size="10.00">Eigen::SparseMatrix</text>
<text text-anchor="middle" x="812" y="-322" font-family="Helvetica,sans-Serif" font-size="10.00">&lt; double &gt;</text>
</a>
</g>
</g>
<!-- Node9&#45;&gt;Node7 -->
<g id="edge7" class="edge"><title>Node9&#45;&gt;Node7</title>
<path fill="none" stroke="#9a32cd" stroke-dasharray="5,2" d="M878.54,-327.788C895.366,-327.978 913.401,-328.848 930,-331 947.588,-333.28 966.815,-338.037 982.28,-342.447"/>
<polygon fill="#9a32cd" stroke="#9a32cd" points="878.255,-324.287 868.243,-327.751 878.23,-331.287 878.255,-324.287"/>
<text text-anchor="middle" x="908" y="-345" font-family="Helvetica,sans-Serif" font-size="10.00"> m_row</text>
<text text-anchor="middle" x="908" y="-334" font-family="Helvetica,sans-Serif" font-size="10.00">m_col</text>
</g>
<!-- Node10 -->
<g id="node9" class="node"><title>Node10</title>
<g id="a_node9"><a xlink:href="classEigen_1_1SparseCompressedBase.html" target="_top" xlink:title="Common base class for sparse [compressed]&#45;{row|column}&#45;storage format. ">
<polygon fill="none" stroke="black" points="508,-379.5 508,-420.5 675,-420.5 675,-379.5 508,-379.5"/>
<text text-anchor="start" x="516" y="-408.5" font-family="Helvetica,sans-Serif" font-size="10.00">Eigen::SparseCompressedBase</text>
<text text-anchor="start" x="516" y="-397.5" font-family="Helvetica,sans-Serif" font-size="10.00">&lt; SparseMatrix&lt; double,</text>
<text text-anchor="middle" x="591.5" y="-386.5" font-family="Helvetica,sans-Serif" font-size="10.00"> _Options, _StorageIndex &gt; &gt;</text>
</a>
</g>
</g>
<!-- Node10&#45;&gt;Node9 -->
<g id="edge8" class="edge"><title>Node10&#45;&gt;Node9</title>
<path fill="none" stroke="midnightblue" d="M666.426,-376.317C698.672,-365.986 735.518,-354.182 763.942,-345.076"/>
<polygon fill="midnightblue" stroke="midnightblue" points="665.036,-373.087 656.581,-379.471 667.172,-379.753 665.036,-373.087"/>
</g>
<!-- Node11 -->
<g id="node10" class="node"><title>Node11</title>
<g id="a_node10"><a xlink:href="classEigen_1_1SparseMatrixBase.html" target="_top" xlink:title="Base class of any sparse matrices or sparse expressions. ">
<polygon fill="none" stroke="black" points="252,-385 252,-415 388,-415 388,-385 252,-385"/>
<text text-anchor="start" x="260" y="-403" font-family="Helvetica,sans-Serif" font-size="10.00">Eigen::SparseMatrixBase</text>
<text text-anchor="middle" x="320" y="-392" font-family="Helvetica,sans-Serif" font-size="10.00">&lt; Derived &gt;</text>
</a>
</g>
</g>
<!-- Node11&#45;&gt;Node10 -->
<g id="edge9" class="edge"><title>Node11&#45;&gt;Node10</title>
<path fill="none" stroke="midnightblue" d="M398.702,-400C432.843,-400 472.977,-400 507.683,-400"/>
<polygon fill="midnightblue" stroke="midnightblue" points="398.311,-396.5 388.311,-400 398.311,-403.5 398.311,-396.5"/>
</g>
<!-- Node12 -->
<g id="node11" class="node"><title>Node12</title>
<g id="a_node11"><a xlink:href="structEigen_1_1EigenBase.html" target="_top" xlink:title="Eigen::EigenBase\&lt; Derived \&gt;">
<polygon fill="none" stroke="black" points="0,-409.5 0,-428.5 158,-428.5 158,-409.5 0,-409.5"/>
<text text-anchor="middle" x="79" y="-416.5" font-family="Helvetica,sans-Serif" font-size="10.00">Eigen::EigenBase&lt; Derived &gt;</text>
</a>
</g>
</g>
<!-- Node12&#45;&gt;Node11 -->
<g id="edge10" class="edge"><title>Node12&#45;&gt;Node11</title>
<path fill="none" stroke="midnightblue" d="M168.306,-411.98C195.907,-409.786 225.895,-407.402 251.799,-405.342"/>
<polygon fill="midnightblue" stroke="midnightblue" points="167.949,-408.497 158.258,-412.779 168.503,-415.475 167.949,-408.497"/>
</g>
<!-- Node13 -->
<g id="node12" class="node"><title>Node13</title>
<g id="a_node12"><a xlink:href="classbool.html" target="_top" xlink:title="bool">
<polygon fill="none" stroke="black" points="60.5,-371.5 60.5,-390.5 97.5,-390.5 97.5,-371.5 60.5,-371.5"/>
<text text-anchor="middle" x="79" y="-378.5" font-family="Helvetica,sans-Serif" font-size="10.00">bool</text>
</a>
</g>
</g>
<!-- Node13&#45;&gt;Node11 -->
<g id="edge11" class="edge"><title>Node13&#45;&gt;Node11</title>
<path fill="none" stroke="#9a32cd" stroke-dasharray="5,2" d="M107.562,-382.781C138.386,-384.816 189.793,-388.341 234,-392 239.761,-392.477 245.739,-392.994 251.735,-393.528"/>
<polygon fill="#9a32cd" stroke="#9a32cd" points="107.77,-379.287 97.5624,-382.125 107.312,-386.272 107.77,-379.287"/>
<text text-anchor="middle" x="205" y="-395" font-family="Helvetica,sans-Serif" font-size="10.00"> m_isRValue</text>
</g>
<!-- Node14 -->
<g id="node13" class="node"><title>Node14</title>
<polygon fill="none" stroke="#bfbfbf" points="254.5,-311 254.5,-341 385.5,-341 385.5,-311 254.5,-311"/>
<text text-anchor="start" x="262.5" y="-329" font-family="Helvetica,sans-Serif" font-size="10.00">EIGEN_DEFAULT_DENSE</text>
<text text-anchor="middle" x="320" y="-318" font-family="Helvetica,sans-Serif" font-size="10.00">_INDEX_TYPE</text>
</g>
<!-- Node14&#45;&gt;Node9 -->
<g id="edge12" class="edge"><title>Node14&#45;&gt;Node9</title>
<path fill="none" stroke="#9a32cd" stroke-dasharray="5,2" d="M395.806,-326.611C494.952,-327.42 667.596,-328.829 755.757,-329.549"/>
<polygon fill="#9a32cd" stroke="#9a32cd" points="395.591,-323.109 385.563,-326.527 395.534,-330.109 395.591,-323.109"/>
<text text-anchor="middle" x="591.5" y="-342" font-family="Helvetica,sans-Serif" font-size="10.00"> m_outerSize</text>
<text text-anchor="middle" x="591.5" y="-331" font-family="Helvetica,sans-Serif" font-size="10.00">m_innerSize</text>
</g>
<!-- Node16 -->
<g id="node15" class="node"><title>Node16</title>
<g id="a_node15"><a xlink:href="classEigen_1_1internal_1_1CompressedStorage.html" target="_top" xlink:title="Eigen::internal::Compressed\lStorage\&lt; Scalar, StorageIndex \&gt;">
<polygon fill="none" stroke="black" points="503,-262 503,-292 680,-292 680,-262 503,-262"/>
<text text-anchor="start" x="511" y="-280" font-family="Helvetica,sans-Serif" font-size="10.00">Eigen::internal::Compressed</text>
<text text-anchor="middle" x="591.5" y="-269" font-family="Helvetica,sans-Serif" font-size="10.00">Storage&lt; Scalar, StorageIndex &gt;</text>
</a>
</g>
</g>
<!-- Node14&#45;&gt;Node16 -->
<g id="edge15" class="edge"><title>Node14&#45;&gt;Node16</title>
<path fill="none" stroke="#9a32cd" stroke-dasharray="5,2" d="M382.378,-308.424C390.291,-306.444 398.313,-304.575 406,-303 437.372,-296.571 472.072,-291.226 502.834,-287.088"/>
<polygon fill="#9a32cd" stroke="#9a32cd" points="381.259,-305.098 372.447,-310.979 383.003,-311.877 381.259,-305.098"/>
<text text-anchor="middle" x="445.5" y="-317" font-family="Helvetica,sans-Serif" font-size="10.00"> m_size</text>
<text text-anchor="middle" x="445.5" y="-306" font-family="Helvetica,sans-Serif" font-size="10.00">m_allocatedSize</text>
</g>
<!-- Node15 -->
<g id="node14" class="node"><title>Node15</title>
<polygon fill="none" stroke="#bfbfbf" points="275.5,-206.5 275.5,-225.5 364.5,-225.5 364.5,-206.5 275.5,-206.5"/>
<text text-anchor="middle" x="320" y="-213.5" font-family="Helvetica,sans-Serif" font-size="10.00">StorageIndex *</text>
</g>
<!-- Node15&#45;&gt;Node9 -->
<g id="edge13" class="edge"><title>Node15&#45;&gt;Node9</title>
<path fill="none" stroke="#9a32cd" stroke-dasharray="5,2" d="M374.77,-208.268C446.689,-200.096 577.076,-192.955 680,-230 729.536,-247.829 775.539,-291.689 797.497,-314.95"/>
<polygon fill="#9a32cd" stroke="#9a32cd" points="374.111,-204.822 364.593,-209.476 374.936,-211.773 374.111,-204.822"/>
<text text-anchor="middle" x="591.5" y="-244" font-family="Helvetica,sans-Serif" font-size="10.00"> m_outerIndex</text>
<text text-anchor="middle" x="591.5" y="-233" font-family="Helvetica,sans-Serif" font-size="10.00">m_innerNonZeros</text>
</g>
<!-- Node15&#45;&gt;Node16 -->
<g id="edge16" class="edge"><title>Node15&#45;&gt;Node16</title>
<path fill="none" stroke="#9a32cd" stroke-dasharray="5,2" d="M373.563,-227.834C405.741,-235.084 447.755,-244.562 485,-253 497.732,-255.884 511.327,-258.972 524.377,-261.939"/>
<polygon fill="#9a32cd" stroke="#9a32cd" points="374.005,-224.345 363.48,-225.562 372.466,-231.174 374.005,-224.345"/>
<text text-anchor="middle" x="445.5" y="-256" font-family="Helvetica,sans-Serif" font-size="10.00"> m_indices</text>
</g>
<!-- Node16&#45;&gt;Node9 -->
<g id="edge14" class="edge"><title>Node16&#45;&gt;Node9</title>
<path fill="none" stroke="#9a32cd" stroke-dasharray="5,2" d="M664.446,-294.451C694.207,-301.67 728.165,-309.907 755.894,-316.633"/>
<polygon fill="#9a32cd" stroke="#9a32cd" points="665.072,-291.002 654.529,-292.046 663.422,-297.805 665.072,-291.002"/>
<text text-anchor="middle" x="718" y="-315" font-family="Helvetica,sans-Serif" font-size="10.00"> m_data</text>
</g>
<!-- Node17 -->
<g id="node16" class="node"><title>Node17</title>
<polygon fill="none" stroke="#bfbfbf" points="292.5,-258.5 292.5,-277.5 347.5,-277.5 347.5,-258.5 292.5,-258.5"/>
<text text-anchor="middle" x="320" y="-265.5" font-family="Helvetica,sans-Serif" font-size="10.00">Scalar *</text>
</g>
<!-- Node17&#45;&gt;Node16 -->
<g id="edge17" class="edge"><title>Node17&#45;&gt;Node16</title>
<path fill="none" stroke="#9a32cd" stroke-dasharray="5,2" d="M357.884,-267.493C391.134,-267.21 441.36,-267.215 485,-269 490.781,-269.237 496.737,-269.536 502.737,-269.879"/>
<polygon fill="#9a32cd" stroke="#9a32cd" points="357.68,-263.994 347.715,-267.593 357.749,-270.994 357.68,-263.994"/>
<text text-anchor="middle" x="445.5" y="-272" font-family="Helvetica,sans-Serif" font-size="10.00"> m_values</text>
</g>
<!-- Node18 -->
<g id="node17" class="node"><title>Node18</title>
<polygon fill="none" stroke="#bfbfbf" points="1191,-181.5 1191,-200.5 1220,-200.5 1220,-181.5 1191,-181.5"/>
<text text-anchor="middle" x="1205.5" y="-188.5" font-family="Helvetica,sans-Serif" font-size="10.00">int</text>
</g>
<!-- Node18&#45;&gt;Node2 -->
<g id="edge31" class="edge"><title>Node18&#45;&gt;Node2</title>
<path fill="none" stroke="#9a32cd" stroke-dasharray="5,2" d="M1220.1,-173.408C1258.32,-126.151 1372.12,-0 1498,-0 1498,-0 1498,-0 2063.5,-0 2109.63,-0 2159.74,-14.1402 2197.68,-27.949"/>
<polygon fill="#9a32cd" stroke="#9a32cd" points="1217.34,-171.259 1213.86,-181.266 1222.82,-175.613 1217.34,-171.259"/>
<text text-anchor="middle" x="1761.5" y="-3" font-family="Helvetica,sans-Serif" font-size="10.00"> NumDims</text>
</g>
<!-- Node18&#45;&gt;Node3 -->
<g id="edge20" class="edge"><title>Node18&#45;&gt;Node3</title>
<path fill="none" stroke="#9a32cd" stroke-dasharray="5,2" d="M1229.01,-204.171C1243.18,-211.827 1262.1,-220.936 1280,-226 1513.44,-292.043 1582.02,-288.32 1824,-271 1886.25,-266.544 1904.26,-272.109 1963,-251 1985.42,-242.941 2008.28,-229.41 2026.33,-217.235"/>
<polygon fill="#9a32cd" stroke="#9a32cd" points="1230.48,-200.981 1220.04,-199.17 1227.07,-207.096 1230.48,-200.981"/>
<text text-anchor="middle" x="1629.5" y="-285" font-family="Helvetica,sans-Serif" font-size="10.00"> NumDims</text>
</g>
<!-- Node18&#45;&gt;Node5 -->
<g id="edge18" class="edge"><title>Node18&#45;&gt;Node5</title>
<path fill="none" stroke="#9a32cd" stroke-dasharray="5,2" d="M1230.4,-193.132C1275.37,-197.143 1373.83,-205.925 1437.96,-211.645"/>
<polygon fill="#9a32cd" stroke="#9a32cd" points="1230.44,-189.622 1220.17,-192.219 1229.82,-196.594 1230.44,-189.622"/>
<text text-anchor="middle" x="1350" y="-214" font-family="Helvetica,sans-Serif" font-size="10.00"> count</text>
</g>
<!-- Node18&#45;&gt;Node22 -->
<g id="edge30" class="edge"><title>Node18&#45;&gt;Node22</title>
<path fill="none" stroke="#9a32cd" stroke-dasharray="5,2" d="M1230.35,-188.762C1311.23,-181.169 1576.86,-156.237 1698.58,-144.812"/>
<polygon fill="#9a32cd" stroke="#9a32cd" points="1229.82,-185.295 1220.19,-189.715 1230.48,-192.265 1229.82,-185.295"/>
<text text-anchor="middle" x="1499" y="-172" font-family="Helvetica,sans-Serif" font-size="10.00"> NumCoords</text>
</g>
<!-- Node19&#45;&gt;Node3 -->
<g id="edge21" class="edge"><title>Node19&#45;&gt;Node3</title>
<path fill="none" stroke="#9a32cd" stroke-dasharray="5,2" d="M1430.51,-389.667C1553.7,-412.551 1794.05,-438.932 1963,-342 2011.19,-314.352 2039.91,-252.451 2052.99,-217.088"/>
<polygon fill="#9a32cd" stroke="#9a32cd" points="1430.88,-386.175 1420.41,-387.748 1429.58,-393.052 1430.88,-386.175"/>
<text text-anchor="middle" x="1629.5" y="-414" font-family="Helvetica,sans-Serif" font-size="10.00"> m_fastOutputStrides</text>
</g>
<!-- Node20 -->
<g id="node19" class="node"><title>Node20</title>
<polygon fill="none" stroke="#bfbfbf" points="1721.5,-85.5 1721.5,-104.5 1801.5,-104.5 1801.5,-85.5 1721.5,-85.5"/>
<text text-anchor="middle" x="1761.5" y="-92.5" font-family="Helvetica,sans-Serif" font-size="10.00">const Strides</text>
</g>
<!-- Node20&#45;&gt;Node3 -->
<g id="edge23" class="edge"><title>Node20&#45;&gt;Node3</title>
<path fill="none" stroke="#9a32cd" stroke-dasharray="5,2" d="M1811.74,-99.5469C1853.13,-104.487 1913.32,-114.317 1963,-133 1984.36,-141.034 2006.41,-153.554 2024.21,-164.909"/>
<polygon fill="#9a32cd" stroke="#9a32cd" points="1811.97,-96.0507 1801.64,-98.3938 1811.17,-103.006 1811.97,-96.0507"/>
<text text-anchor="middle" x="1902.5" y="-136" font-family="Helvetica,sans-Serif" font-size="10.00"> m_strides</text>
</g>
<!-- Node21 -->
<g id="node20" class="node"><title>Node21</title>
<polygon fill="none" stroke="#bfbfbf" points="1739.5,-47.5 1739.5,-66.5 1783.5,-66.5 1783.5,-47.5 1739.5,-47.5"/>
<text text-anchor="middle" x="1761.5" y="-54.5" font-family="Helvetica,sans-Serif" font-size="10.00">size_t</text>
</g>
<!-- Node21&#45;&gt;Node3 -->
<g id="edge24" class="edge"><title>Node21&#45;&gt;Node3</title>
<path fill="none" stroke="#9a32cd" stroke-dasharray="5,2" d="M1793.99,-56.2527C1835.16,-56.5539 1908.44,-61.5586 1963,-90 1996.88,-107.662 2026.05,-141.304 2043.66,-164.891"/>
<polygon fill="#9a32cd" stroke="#9a32cd" points="1793.75,-52.753 1783.76,-56.2712 1793.76,-59.753 1793.75,-52.753"/>
<text text-anchor="middle" x="1902.5" y="-93" font-family="Helvetica,sans-Serif" font-size="10.00"> m_block_total_size_max</text>
</g>
<!-- Node22&#45;&gt;Node3 -->
<g id="edge25" class="edge"><title>Node22&#45;&gt;Node3</title>
<path fill="none" stroke="#9a32cd" stroke-dasharray="5,2" d="M1834.27,-146.642C1872.64,-151.235 1920.58,-157.789 1963,-166 1968.8,-167.123 1974.77,-168.381 1980.77,-169.718"/>
<polygon fill="#9a32cd" stroke="#9a32cd" points="1834.56,-143.152 1824.22,-145.457 1833.75,-150.104 1834.56,-143.152"/>
<text text-anchor="middle" x="1902.5" y="-169" font-family="Helvetica,sans-Serif" font-size="10.00"> m_impl</text>
</g>
<!-- Node23 -->
<g id="node22" class="node"><title>Node23</title>
<g id="a_node22"><a xlink:href="structEigen_1_1internal_1_1traits.html" target="_top" xlink:title="Eigen::internal::traits\l\&lt; ArgType \&gt;">
<polygon fill="none" stroke="black" points="1441,-105 1441,-135 1557,-135 1557,-105 1441,-105"/>
<text text-anchor="start" x="1449" y="-123" font-family="Helvetica,sans-Serif" font-size="10.00">Eigen::internal::traits</text>
<text text-anchor="middle" x="1499" y="-112" font-family="Helvetica,sans-Serif" font-size="10.00">&lt; ArgType &gt;</text>
</a>
</g>
</g>
<!-- Node23&#45;&gt;Node22 -->
<g id="edge26" class="edge"><title>Node23&#45;&gt;Node22</title>
<path fill="none" stroke="#9a32cd" stroke-dasharray="5,2" d="M1567.48,-120.829C1601.58,-121.7 1643.55,-123.46 1681,-127 1686.84,-127.552 1692.9,-128.245 1698.95,-129.019"/>
<polygon fill="#9a32cd" stroke="#9a32cd" points="1567.25,-117.323 1557.17,-120.587 1567.09,-124.321 1567.25,-117.323"/>
<text text-anchor="middle" x="1629.5" y="-130" font-family="Helvetica,sans-Serif" font-size="10.00"> m_data</text>
</g>
<!-- Node24 -->
<g id="node23" class="node"><title>Node24</title>
<polygon fill="none" stroke="#bfbfbf" points="1474.5,-66.5 1474.5,-85.5 1523.5,-85.5 1523.5,-66.5 1474.5,-66.5"/>
<text text-anchor="middle" x="1499" y="-73.5" font-family="Helvetica,sans-Serif" font-size="10.00">Device</text>
</g>
<!-- Node24&#45;&gt;Node22 -->
<g id="edge28" class="edge"><title>Node24&#45;&gt;Node22</title>
<path fill="none" stroke="#9a32cd" stroke-dasharray="5,2" d="M1533.95,-79.6239C1570.69,-84.0496 1630.75,-92.7593 1681,-107 1683.33,-107.659 1703.79,-115.901 1723.37,-123.854"/>
<polygon fill="#9a32cd" stroke="#9a32cd" points="1534.13,-76.1205 1523.79,-78.4373 1533.31,-83.0732 1534.13,-76.1205"/>
<text text-anchor="middle" x="1629.5" y="-110" font-family="Helvetica,sans-Serif" font-size="10.00"> m_device</text>
</g>
<!-- Node25 -->
<g id="node24" class="node"><title>Node25</title>
<polygon fill="none" stroke="#bfbfbf" points="1451.5,-28.5 1451.5,-47.5 1546.5,-47.5 1546.5,-28.5 1451.5,-28.5"/>
<text text-anchor="middle" x="1499" y="-35.5" font-family="Helvetica,sans-Serif" font-size="10.00">const ArgType &amp;</text>
</g>
<!-- Node25&#45;&gt;Node22 -->
<g id="edge29" class="edge"><title>Node25&#45;&gt;Node22</title>
<path fill="none" stroke="#9a32cd" stroke-dasharray="5,2" d="M1556.74,-34.9316C1595.63,-35.7806 1646.27,-43.0676 1681,-71 1697.14,-83.9845 1684.27,-99.4261 1699,-114 1702.85,-117.811 1707.36,-121.065 1712.16,-123.838"/>
<polygon fill="#9a32cd" stroke="#9a32cd" points="1556.64,-31.4308 1546.61,-34.8481 1556.58,-38.4306 1556.64,-31.4308"/>
<text text-anchor="middle" x="1629.5" y="-74" font-family="Helvetica,sans-Serif" font-size="10.00"> m_impl</text>
</g>
</g>
</svg>
