<?xml version="1.0" encoding="UTF-8" standalone="no"?>
<!DOCTYPE svg PUBLIC "-//W3C//DTD SVG 1.1//EN"
 "http://www.w3.org/Graphics/SVG/1.1/DTD/svg11.dtd">
<!-- Generated by graphviz version 2.38.0 (20140413.2041)
 -->
<!-- Title: my_functor::actual_df Pages: 1 -->
<svg width="381pt" height="66pt"
 viewBox="0.00 0.00 381.00 66.00" xmlns="http://www.w3.org/2000/svg" xmlns:xlink="http://www.w3.org/1999/xlink">
<g id="graph0" class="graph" transform="scale(1 1) rotate(0) translate(4 62)">
<title>my_functor::actual_df</title>
<!-- Node4 -->
<g id="node1" class="node"><title>Node4</title>
<polygon fill="#bfbfbf" stroke="black" points="0,-19.5 0,-38.5 120,-38.5 120,-19.5 0,-19.5"/>
<text text-anchor="middle" x="60" y="-26.5" font-family="Helvetica,sans-Serif" font-size="10.00">my_functor::actual_df</text>
</g>
<!-- Node5 -->
<g id="node2" class="node"><title>Node5</title>
<g id="a_node2"><a xlink:href="NumericalDiff_8cpp.html#a315e0db735f492ca634c96d92292d166" target="_top" xlink:title="test_central">
<polygon fill="none" stroke="black" points="157,-38.5 157,-57.5 231,-57.5 231,-38.5 157,-38.5"/>
<text text-anchor="middle" x="194" y="-45.5" font-family="Helvetica,sans-Serif" font-size="10.00">test_central</text>
</a>
</g>
</g>
<!-- Node4&#45;&gt;Node5 -->
<g id="edge1" class="edge"><title>Node4&#45;&gt;Node5</title>
<path fill="none" stroke="midnightblue" d="M130.043,-38.938C139.255,-40.2639 148.387,-41.5784 156.72,-42.7779"/>
<polygon fill="midnightblue" stroke="midnightblue" points="130.447,-35.4602 120.051,-37.4997 129.45,-42.3888 130.447,-35.4602"/>
</g>
<!-- Node7 -->
<g id="node4" class="node"><title>Node7</title>
<g id="a_node4"><a xlink:href="NumericalDiff_8cpp.html#a06c4f842a39038bad7c486147622980c" target="_top" xlink:title="test_forward">
<polygon fill="none" stroke="black" points="156,-0.5 156,-19.5 232,-19.5 232,-0.5 156,-0.5"/>
<text text-anchor="middle" x="194" y="-7.5" font-family="Helvetica,sans-Serif" font-size="10.00">test_forward</text>
</a>
</g>
</g>
<!-- Node4&#45;&gt;Node7 -->
<g id="edge3" class="edge"><title>Node4&#45;&gt;Node7</title>
<path fill="none" stroke="midnightblue" d="M130.111,-19.0522C139.024,-17.7693 147.861,-16.4973 155.97,-15.3301"/>
<polygon fill="midnightblue" stroke="midnightblue" points="129.45,-15.6112 120.051,-20.5003 130.447,-22.5398 129.45,-15.6112"/>
</g>
<!-- Node6 -->
<g id="node3" class="node"><title>Node6</title>
<g id="a_node3"><a xlink:href="NumericalDiff_8cpp.html#adecd9d7c4903792f18202d104646312d" target="_top" xlink:title="test_NumericalDiff">
<polygon fill="none" stroke="black" points="268,-19.5 268,-38.5 373,-38.5 373,-19.5 268,-19.5"/>
<text text-anchor="middle" x="320.5" y="-26.5" font-family="Helvetica,sans-Serif" font-size="10.00">test_NumericalDiff</text>
</a>
</g>
</g>
<!-- Node5&#45;&gt;Node6 -->
<g id="edge2" class="edge"><title>Node5&#45;&gt;Node6</title>
<path fill="none" stroke="midnightblue" d="M241.007,-40.9789C249.74,-39.6461 258.932,-38.2433 267.827,-36.8858"/>
<polygon fill="midnightblue" stroke="midnightblue" points="240.368,-37.5357 231.011,-42.5044 241.424,-44.4556 240.368,-37.5357"/>
</g>
<!-- Node7&#45;&gt;Node6 -->
<g id="edge4" class="edge"><title>Node7&#45;&gt;Node6</title>
<path fill="none" stroke="midnightblue" d="M241.997,-17.1723C250.375,-18.4508 259.146,-19.7893 267.65,-21.0872"/>
<polygon fill="midnightblue" stroke="midnightblue" points="242.431,-13.698 232.017,-15.6492 241.375,-20.6178 242.431,-13.698"/>
</g>
</g>
</svg>
