<?xml version="1.0" encoding="UTF-8" standalone="no"?>
<!DOCTYPE svg PUBLIC "-//W3C//DTD SVG 1.1//EN"
 "http://www.w3.org/Graphics/SVG/1.1/DTD/svg11.dtd">
<!-- Generated by graphviz version 2.38.0 (20140413.2041)
 -->
<!-- Title: Eigen::internal::Assignment&lt; DstXprType, SrcXprType, Functor, Diagonal2Sparse &gt;::run Pages: 1 -->
<svg width="332pt" height="421pt"
 viewBox="0.00 0.00 332.00 421.00" xmlns="http://www.w3.org/2000/svg" xmlns:xlink="http://www.w3.org/1999/xlink">
<g id="graph0" class="graph" transform="scale(1 1) rotate(0) translate(4 417)">
<title>Eigen::internal::Assignment&lt; DstXprType, SrcXprType, Functor, Diagonal2Sparse &gt;::run</title>
<!-- Node0 -->
<g id="node1" class="node"><title>Node0</title>
<polygon fill="#bfbfbf" stroke="black" points="-2.84217e-14,-181 -2.84217e-14,-222 176,-222 176,-181 -2.84217e-14,-181"/>
<text text-anchor="start" x="8" y="-210" font-family="Helvetica,sans-Serif" font-size="10.00">Eigen::internal::Assignment</text>
<text text-anchor="start" x="8" y="-199" font-family="Helvetica,sans-Serif" font-size="10.00">&lt; DstXprType, SrcXprType,</text>
<text text-anchor="middle" x="88" y="-188" font-family="Helvetica,sans-Serif" font-size="10.00"> Functor, Diagonal2Sparse &gt;::run</text>
</g>
<!-- Node1 -->
<g id="node2" class="node"><title>Node1</title>
<g id="a_node2"><a xlink:href="classEigen_1_1SparseMatrix.html#aa391750e3c530227e4a5c3c52e959975" target="_top" xlink:title="Eigen::SparseMatrix\l::cols">
<polygon fill="none" stroke="black" points="212,-382.5 212,-412.5 324,-412.5 324,-382.5 212,-382.5"/>
<text text-anchor="start" x="220" y="-400.5" font-family="Helvetica,sans-Serif" font-size="10.00">Eigen::SparseMatrix</text>
<text text-anchor="middle" x="268" y="-389.5" font-family="Helvetica,sans-Serif" font-size="10.00">::cols</text>
</a>
</g>
</g>
<!-- Node0&#45;&gt;Node1 -->
<g id="edge1" class="edge"><title>Node0&#45;&gt;Node1</title>
<path fill="none" stroke="midnightblue" d="M99.0723,-222.266C117.172,-257.664 158.366,-330.064 212,-373.5 213.548,-374.754 215.172,-375.955 216.852,-377.103"/>
<polygon fill="midnightblue" stroke="midnightblue" points="215.255,-380.227 225.622,-382.411 218.879,-374.239 215.255,-380.227"/>
</g>
<!-- Node2 -->
<g id="node3" class="node"><title>Node2</title>
<g id="a_node3"><a xlink:href="classEigen_1_1SparseMatrix.html#ae7b804bd39745156d20ca1611a296b67" target="_top" xlink:title="Eigen::SparseMatrix\l::innerIndexPtr">
<polygon fill="none" stroke="black" points="212,-333.5 212,-363.5 324,-363.5 324,-333.5 212,-333.5"/>
<text text-anchor="start" x="220" y="-351.5" font-family="Helvetica,sans-Serif" font-size="10.00">Eigen::SparseMatrix</text>
<text text-anchor="middle" x="268" y="-340.5" font-family="Helvetica,sans-Serif" font-size="10.00">::innerIndexPtr</text>
</a>
</g>
</g>
<!-- Node0&#45;&gt;Node2 -->
<g id="edge2" class="edge"><title>Node0&#45;&gt;Node2</title>
<path fill="none" stroke="midnightblue" d="M105.412,-222.163C127.364,-248.713 168.585,-294.898 212,-324.5 214.109,-325.938 216.318,-327.32 218.588,-328.645"/>
<polygon fill="midnightblue" stroke="midnightblue" points="217.103,-331.82 227.57,-333.461 220.411,-325.651 217.103,-331.82"/>
</g>
<!-- Node3 -->
<g id="node4" class="node"><title>Node3</title>
<g id="a_node4"><a xlink:href="classEigen_1_1SparseMatrix.html#a5ff54ffc10296f9466dc81fa888733fd" target="_top" xlink:title="Eigen::SparseMatrix\l::makeCompressed">
<polygon fill="none" stroke="black" points="212,-284.5 212,-314.5 324,-314.5 324,-284.5 212,-284.5"/>
<text text-anchor="start" x="220" y="-302.5" font-family="Helvetica,sans-Serif" font-size="10.00">Eigen::SparseMatrix</text>
<text text-anchor="middle" x="268" y="-291.5" font-family="Helvetica,sans-Serif" font-size="10.00">::makeCompressed</text>
</a>
</g>
</g>
<!-- Node0&#45;&gt;Node3 -->
<g id="edge3" class="edge"><title>Node0&#45;&gt;Node3</title>
<path fill="none" stroke="midnightblue" d="M120.718,-222.146C145.18,-237.683 180.112,-259.039 212,-275.5 215.055,-277.077 218.236,-278.646 221.46,-280.184"/>
<polygon fill="midnightblue" stroke="midnightblue" points="220.047,-283.386 230.592,-284.411 222.988,-277.034 220.047,-283.386"/>
</g>
<!-- Node4 -->
<g id="node5" class="node"><title>Node4</title>
<g id="a_node5"><a xlink:href="classEigen_1_1SparseMatrix.html#a75506964d86d6badb32d0b4917acf2e2" target="_top" xlink:title="Eigen::SparseMatrix\l::outerIndexPtr">
<polygon fill="none" stroke="black" points="212,-235.5 212,-265.5 324,-265.5 324,-235.5 212,-235.5"/>
<text text-anchor="start" x="220" y="-253.5" font-family="Helvetica,sans-Serif" font-size="10.00">Eigen::SparseMatrix</text>
<text text-anchor="middle" x="268" y="-242.5" font-family="Helvetica,sans-Serif" font-size="10.00">::outerIndexPtr</text>
</a>
</g>
</g>
<!-- Node0&#45;&gt;Node4 -->
<g id="edge4" class="edge"><title>Node0&#45;&gt;Node4</title>
<path fill="none" stroke="midnightblue" d="M163.714,-222.067C176.627,-225.622 189.951,-229.29 202.561,-232.761"/>
<polygon fill="midnightblue" stroke="midnightblue" points="201.93,-236.218 212.5,-235.497 203.788,-229.469 201.93,-236.218"/>
</g>
<!-- Node5 -->
<g id="node6" class="node"><title>Node5</title>
<g id="a_node6"><a xlink:href="classEigen_1_1SparseMatrix.html#af88551f30202341b7cc24cfadabdec5c" target="_top" xlink:title="Eigen::SparseMatrix\l::resize">
<polygon fill="none" stroke="black" points="212,-186.5 212,-216.5 324,-216.5 324,-186.5 212,-186.5"/>
<text text-anchor="start" x="220" y="-204.5" font-family="Helvetica,sans-Serif" font-size="10.00">Eigen::SparseMatrix</text>
<text text-anchor="middle" x="268" y="-193.5" font-family="Helvetica,sans-Serif" font-size="10.00">::resize</text>
</a>
</g>
</g>
<!-- Node0&#45;&gt;Node5 -->
<g id="edge5" class="edge"><title>Node0&#45;&gt;Node5</title>
<path fill="none" stroke="midnightblue" d="M176.175,-201.5C184.817,-201.5 193.482,-201.5 201.844,-201.5"/>
<polygon fill="midnightblue" stroke="midnightblue" points="201.871,-205 211.871,-201.5 201.871,-198 201.871,-205"/>
</g>
<!-- Node6 -->
<g id="node7" class="node"><title>Node6</title>
<g id="a_node7"><a xlink:href="classEigen_1_1SparseMatrix.html#a3a60ad3fcc5941f5a1272e0d13d89fbf" target="_top" xlink:title="Eigen::SparseMatrix\l::resizeNonZeros">
<polygon fill="none" stroke="black" points="212,-137.5 212,-167.5 324,-167.5 324,-137.5 212,-137.5"/>
<text text-anchor="start" x="220" y="-155.5" font-family="Helvetica,sans-Serif" font-size="10.00">Eigen::SparseMatrix</text>
<text text-anchor="middle" x="268" y="-144.5" font-family="Helvetica,sans-Serif" font-size="10.00">::resizeNonZeros</text>
</a>
</g>
</g>
<!-- Node0&#45;&gt;Node6 -->
<g id="edge6" class="edge"><title>Node0&#45;&gt;Node6</title>
<path fill="none" stroke="midnightblue" d="M163.714,-180.933C176.627,-177.378 189.951,-173.71 202.561,-170.239"/>
<polygon fill="midnightblue" stroke="midnightblue" points="203.788,-173.531 212.5,-167.503 201.93,-166.782 203.788,-173.531"/>
</g>
<!-- Node7 -->
<g id="node8" class="node"><title>Node7</title>
<g id="a_node8"><a xlink:href="classEigen_1_1SparseMatrix.html#a62e61bb861eee306d5b069ce652b5aa5" target="_top" xlink:title="Eigen::SparseMatrix\l::rows">
<polygon fill="none" stroke="black" points="212,-88.5 212,-118.5 324,-118.5 324,-88.5 212,-88.5"/>
<text text-anchor="start" x="220" y="-106.5" font-family="Helvetica,sans-Serif" font-size="10.00">Eigen::SparseMatrix</text>
<text text-anchor="middle" x="268" y="-95.5" font-family="Helvetica,sans-Serif" font-size="10.00">::rows</text>
</a>
</g>
</g>
<!-- Node0&#45;&gt;Node7 -->
<g id="edge7" class="edge"><title>Node0&#45;&gt;Node7</title>
<path fill="none" stroke="midnightblue" d="M121.339,-180.992C145.831,-165.785 180.522,-144.933 212,-128.5 215.559,-126.642 219.284,-124.78 223.045,-122.958"/>
<polygon fill="midnightblue" stroke="midnightblue" points="224.853,-125.975 232.395,-118.534 221.859,-119.647 224.853,-125.975"/>
</g>
<!-- Node8 -->
<g id="node9" class="node"><title>Node8</title>
<g id="a_node9"><a xlink:href="DenseBase__setLinSpaced_8cpp.html#addf8e4acfd8da69fd0416cab0e87a99a" target="_top" xlink:title="setLinSpaced">
<polygon fill="none" stroke="black" points="227.5,-50 227.5,-69 308.5,-69 308.5,-50 227.5,-50"/>
<text text-anchor="middle" x="268" y="-57" font-family="Helvetica,sans-Serif" font-size="10.00">setLinSpaced</text>
</a>
</g>
</g>
<!-- Node0&#45;&gt;Node8 -->
<g id="edge8" class="edge"><title>Node0&#45;&gt;Node8</title>
<path fill="none" stroke="midnightblue" d="M105.17,-180.592C126.862,-153.813 167.801,-107.522 212,-79.5 215.82,-77.0782 219.974,-74.8939 224.232,-72.9377"/>
<polygon fill="midnightblue" stroke="midnightblue" points="225.746,-76.0984 233.625,-69.0161 223.049,-69.6387 225.746,-76.0984"/>
</g>
<!-- Node9 -->
<g id="node10" class="node"><title>Node9</title>
<g id="a_node10"><a xlink:href="classEigen_1_1SparseMatrix.html#a9d4354d3f4d121d764bbed33cac05329" target="_top" xlink:title="Eigen::SparseMatrix\l::valuePtr">
<polygon fill="none" stroke="black" points="212,-0.5 212,-30.5 324,-30.5 324,-0.5 212,-0.5"/>
<text text-anchor="start" x="220" y="-18.5" font-family="Helvetica,sans-Serif" font-size="10.00">Eigen::SparseMatrix</text>
<text text-anchor="middle" x="268" y="-7.5" font-family="Helvetica,sans-Serif" font-size="10.00">::valuePtr</text>
</a>
</g>
</g>
<!-- Node0&#45;&gt;Node9 -->
<g id="edge9" class="edge"><title>Node0&#45;&gt;Node9</title>
<path fill="none" stroke="midnightblue" d="M100.234,-180.843C119.305,-147.423 160.958,-81.1478 212,-40.5 214.046,-38.8706 216.215,-37.3214 218.465,-35.8522"/>
<polygon fill="midnightblue" stroke="midnightblue" points="220.591,-38.6625 227.444,-30.5822 217.048,-32.6255 220.591,-38.6625"/>
</g>
</g>
</svg>
