<?xml version="1.0" encoding="UTF-8" standalone="no"?>
<!DOCTYPE svg PUBLIC "-//W3C//DTD SVG 1.1//EN"
 "http://www.w3.org/Graphics/SVG/1.1/DTD/svg11.dtd">
<!-- Generated by graphviz version 2.38.0 (20140413.2041)
 -->
<!-- Title: TestNew4 Pages: 1 -->
<svg width="124pt" height="95pt"
 viewBox="0.00 0.00 123.50 95.00" xmlns="http://www.w3.org/2000/svg" xmlns:xlink="http://www.w3.org/1999/xlink">
<g id="graph0" class="graph" transform="scale(1 1) rotate(0) translate(4 91)">
<title>TestNew4</title>
<!-- Node1 -->
<g id="node1" class="node"><title>Node1</title>
<polygon fill="#bfbfbf" stroke="black" points="21,-0.5 21,-19.5 83,-19.5 83,-0.5 21,-0.5"/>
<text text-anchor="middle" x="52" y="-7.5" font-family="Helvetica,sans-Serif" font-size="10.00">TestNew4</text>
</g>
<!-- Node2 -->
<g id="node2" class="node"><title>Node2</title>
<polygon fill="none" stroke="#bfbfbf" points="0,-67.5 0,-86.5 38,-86.5 38,-67.5 0,-67.5"/>
<text text-anchor="middle" x="19" y="-74.5" font-family="Helvetica,sans-Serif" font-size="10.00">float</text>
</g>
<!-- Node2&#45;&gt;Node1 -->
<g id="edge1" class="edge"><title>Node2&#45;&gt;Node1</title>
<path fill="none" stroke="#9a32cd" stroke-dasharray="5,2" d="M28.0555,-58.1635C34.4196,-45.6281 42.6532,-29.4104 47.62,-19.6273"/>
<polygon fill="#9a32cd" stroke="#9a32cd" points="24.8567,-56.7327 23.4505,-67.2338 31.0983,-59.9016 24.8567,-56.7327"/>
<text text-anchor="middle" x="41.5" y="-41" font-family="Helvetica,sans-Serif" font-size="10.00"> f</text>
</g>
<!-- Node3 -->
<g id="node3" class="node"><title>Node3</title>
<polygon fill="none" stroke="#bfbfbf" points="56.5,-67.5 56.5,-86.5 115.5,-86.5 115.5,-67.5 56.5,-67.5"/>
<text text-anchor="middle" x="86" y="-74.5" font-family="Helvetica,sans-Serif" font-size="10.00">Vector2d</text>
</g>
<!-- Node3&#45;&gt;Node1 -->
<g id="edge2" class="edge"><title>Node3&#45;&gt;Node1</title>
<path fill="none" stroke="#9a32cd" stroke-dasharray="5,2" d="M76.6701,-58.1635C70.1132,-45.6281 61.63,-29.4104 56.5127,-19.6273"/>
<polygon fill="#9a32cd" stroke="#9a32cd" points="73.6782,-59.9951 81.4146,-67.2338 79.8809,-56.7506 73.6782,-59.9951"/>
<text text-anchor="middle" x="78.5" y="-41" font-family="Helvetica,sans-Serif" font-size="10.00"> m</text>
</g>
</g>
</svg>
