<?xml version="1.0" encoding="UTF-8" standalone="no"?>
<!DOCTYPE svg PUBLIC "-//W3C//DTD SVG 1.1//EN"
 "http://www.w3.org/Graphics/SVG/1.1/DTD/svg11.dtd">
<!-- Generated by graphviz version 2.38.0 (20140413.2041)
 -->
<!-- Title: Eigen::internal::conj_helper&lt; Packet2cd, Packet2cd, true, false &gt;::pmadd Pages: 1 -->
<svg width="329pt" height="66pt"
 viewBox="0.00 0.00 329.00 66.00" xmlns="http://www.w3.org/2000/svg" xmlns:xlink="http://www.w3.org/1999/xlink">
<g id="graph0" class="graph" transform="scale(1 1) rotate(0) translate(4 62)">
<title>Eigen::internal::conj_helper&lt; Packet2cd, Packet2cd, true, false &gt;::pmadd</title>
<!-- Node0 -->
<g id="node1" class="node"><title>Node0</title>
<polygon fill="#bfbfbf" stroke="black" points="0,-8.5 0,-49.5 170,-49.5 170,-8.5 0,-8.5"/>
<text text-anchor="start" x="8" y="-37.5" font-family="Helvetica,sans-Serif" font-size="10.00">Eigen::internal::conj</text>
<text text-anchor="start" x="8" y="-26.5" font-family="Helvetica,sans-Serif" font-size="10.00">_helper&lt; Packet2cd, Packet2cd,</text>
<text text-anchor="middle" x="85" y="-15.5" font-family="Helvetica,sans-Serif" font-size="10.00"> true, false &gt;::pmadd</text>
</g>
<!-- Node1 -->
<g id="node2" class="node"><title>Node1</title>
<g id="a_node2"><a xlink:href="namespaceEigen_1_1internal.html#a0f50f3baa0dcc73cd1c0baa06e5c8c13" target="_top" xlink:title="Eigen::internal::padd">
<polygon fill="none" stroke="black" points="206,-38.5 206,-57.5 321,-57.5 321,-38.5 206,-38.5"/>
<text text-anchor="middle" x="263.5" y="-45.5" font-family="Helvetica,sans-Serif" font-size="10.00">Eigen::internal::padd</text>
</a>
</g>
</g>
<!-- Node0&#45;&gt;Node1 -->
<g id="edge1" class="edge"><title>Node0&#45;&gt;Node1</title>
<path fill="none" stroke="midnightblue" d="M170.115,-38.0548C178.762,-38.9858 187.463,-39.9224 195.884,-40.8289"/>
<polygon fill="midnightblue" stroke="midnightblue" points="195.677,-44.3267 205.994,-41.9172 196.426,-37.367 195.677,-44.3267"/>
</g>
<!-- Node2 -->
<g id="node3" class="node"><title>Node2</title>
<g id="a_node3"><a xlink:href="namespaceEigen_1_1internal.html#a776f5f4b514ecaed2a98db928b8f745f" target="_top" xlink:title="Eigen::internal::pmul">
<polygon fill="none" stroke="black" points="206,-0.5 206,-19.5 321,-19.5 321,-0.5 206,-0.5"/>
<text text-anchor="middle" x="263.5" y="-7.5" font-family="Helvetica,sans-Serif" font-size="10.00">Eigen::internal::pmul</text>
</a>
</g>
</g>
<!-- Node0&#45;&gt;Node2 -->
<g id="edge2" class="edge"><title>Node0&#45;&gt;Node2</title>
<path fill="none" stroke="midnightblue" d="M170.115,-19.9452C178.762,-19.0142 187.463,-18.0776 195.884,-17.1711"/>
<polygon fill="midnightblue" stroke="midnightblue" points="196.426,-20.633 205.994,-16.0828 195.677,-13.6733 196.426,-20.633"/>
</g>
</g>
</svg>
