<?xml version="1.0" encoding="UTF-8" standalone="no"?>
<!DOCTYPE svg PUBLIC "-//W3C//DTD SVG 1.1//EN"
 "http://www.w3.org/Graphics/SVG/1.1/DTD/svg11.dtd">
<!-- Generated by graphviz version 2.38.0 (20140413.2041)
 -->
<!-- Title: Eigen::internal::Assignment&lt; DstXprType, Inverse&lt; PartialPivLU&lt; MatrixType &gt; &gt;, internal::assign_op&lt; typename DstXprType::Scalar, typename PartialPivLU&lt; MatrixType &gt;::Scalar &gt;, Dense2Dense &gt;::run Pages: 1 -->
<svg width="461pt" height="104pt"
 viewBox="0.00 0.00 461.00 104.00" xmlns="http://www.w3.org/2000/svg" xmlns:xlink="http://www.w3.org/1999/xlink">
<g id="graph0" class="graph" transform="scale(1 1) rotate(0) translate(4 100)">
<title>Eigen::internal::Assignment&lt; DstXprType, Inverse&lt; PartialPivLU&lt; MatrixType &gt; &gt;, internal::assign_op&lt; typename DstXprType::Scalar, typename PartialPivLU&lt; MatrixType &gt;::Scalar &gt;, Dense2Dense &gt;::run</title>
<!-- Node0 -->
<g id="node1" class="node"><title>Node0</title>
<polygon fill="#bfbfbf" stroke="black" points="0,-11 0,-85 243,-85 243,-11 0,-11"/>
<text text-anchor="start" x="8" y="-73" font-family="Helvetica,sans-Serif" font-size="10.00">Eigen::internal::Assignment</text>
<text text-anchor="start" x="8" y="-62" font-family="Helvetica,sans-Serif" font-size="10.00">&lt; DstXprType, Inverse&lt; PartialPiv</text>
<text text-anchor="start" x="8" y="-51" font-family="Helvetica,sans-Serif" font-size="10.00">LU&lt; MatrixType &gt; &gt;, internal</text>
<text text-anchor="start" x="8" y="-40" font-family="Helvetica,sans-Serif" font-size="10.00">::assign_op&lt; typename DstXprType</text>
<text text-anchor="start" x="8" y="-29" font-family="Helvetica,sans-Serif" font-size="10.00">::Scalar, typename PartialPivLU</text>
<text text-anchor="middle" x="121.5" y="-18" font-family="Helvetica,sans-Serif" font-size="10.00">&lt; MatrixType &gt;::Scalar &gt;, Dense2Dense &gt;::run</text>
</g>
<!-- Node1 -->
<g id="node2" class="node"><title>Node1</title>
<g id="a_node2"><a xlink:href="classEigen_1_1Inverse.html#a506af9d762f0285fe8bd719fff034e4d" target="_top" xlink:title="Eigen::Inverse::cols">
<polygon fill="none" stroke="black" points="312,-76.5 312,-95.5 420,-95.5 420,-76.5 312,-76.5"/>
<text text-anchor="middle" x="366" y="-83.5" font-family="Helvetica,sans-Serif" font-size="10.00">Eigen::Inverse::cols</text>
</a>
</g>
</g>
<!-- Node0&#45;&gt;Node1 -->
<g id="edge1" class="edge"><title>Node0&#45;&gt;Node1</title>
<path fill="none" stroke="midnightblue" d="M243.04,-66.8887C263.305,-70.0643 283.598,-73.2441 301.652,-76.0732"/>
<polygon fill="midnightblue" stroke="midnightblue" points="301.299,-79.5606 311.72,-77.651 302.383,-72.645 301.299,-79.5606"/>
</g>
<!-- Node2 -->
<g id="node3" class="node"><title>Node2</title>
<g id="a_node3"><a xlink:href="classEigen_1_1Inverse.html#ab112d1c3a08075a9f978df4ced8e2152" target="_top" xlink:title="Eigen::Inverse::nestedExpression">
<polygon fill="none" stroke="black" points="279,-38.5 279,-57.5 453,-57.5 453,-38.5 279,-38.5"/>
<text text-anchor="middle" x="366" y="-45.5" font-family="Helvetica,sans-Serif" font-size="10.00">Eigen::Inverse::nestedExpression</text>
</a>
</g>
</g>
<!-- Node0&#45;&gt;Node2 -->
<g id="edge2" class="edge"><title>Node0&#45;&gt;Node2</title>
<path fill="none" stroke="midnightblue" d="M243.04,-48C251.659,-48 260.284,-48 268.739,-48"/>
<polygon fill="midnightblue" stroke="midnightblue" points="268.957,-51.5001 278.957,-48 268.957,-44.5001 268.957,-51.5001"/>
</g>
<!-- Node3 -->
<g id="node4" class="node"><title>Node3</title>
<g id="a_node4"><a xlink:href="classEigen_1_1Inverse.html#af41ff0c72ffb6782474bab6e1ec2ac11" target="_top" xlink:title="Eigen::Inverse::rows">
<polygon fill="none" stroke="black" points="310.5,-0.5 310.5,-19.5 421.5,-19.5 421.5,-0.5 310.5,-0.5"/>
<text text-anchor="middle" x="366" y="-7.5" font-family="Helvetica,sans-Serif" font-size="10.00">Eigen::Inverse::rows</text>
</a>
</g>
</g>
<!-- Node0&#45;&gt;Node3 -->
<g id="edge3" class="edge"><title>Node0&#45;&gt;Node3</title>
<path fill="none" stroke="midnightblue" d="M243.04,-29.1113C262.714,-26.0283 282.414,-22.9413 300.066,-20.1752"/>
<polygon fill="midnightblue" stroke="midnightblue" points="300.87,-23.5921 310.207,-18.5861 299.786,-16.6765 300.87,-23.5921"/>
</g>
</g>
</svg>
