<?xml version="1.0" encoding="UTF-8" standalone="no"?>
<!DOCTYPE svg PUBLIC "-//W3C//DTD SVG 1.1//EN"
 "http://www.w3.org/Graphics/SVG/1.1/DTD/svg11.dtd">
<!-- Generated by graphviz version 2.38.0 (20140413.2041)
 -->
<!-- Title: Eigen::internal::igammac_impl::run Pages: 1 -->
<svg width="311pt" height="389pt"
 viewBox="0.00 0.00 311.00 389.00" xmlns="http://www.w3.org/2000/svg" xmlns:xlink="http://www.w3.org/1999/xlink">
<g id="graph0" class="graph" transform="scale(1 1) rotate(0) translate(4 385)">
<title>Eigen::internal::igammac_impl::run</title>
<!-- Node0 -->
<g id="node1" class="node"><title>Node0</title>
<polygon fill="#bfbfbf" stroke="black" points="0,-181 0,-211 136,-211 136,-181 0,-181"/>
<text text-anchor="start" x="8" y="-199" font-family="Helvetica,sans-Serif" font-size="10.00">Eigen::internal::igammac</text>
<text text-anchor="middle" x="68" y="-188" font-family="Helvetica,sans-Serif" font-size="10.00">_impl::run</text>
</g>
<!-- Node1 -->
<g id="node2" class="node"><title>Node1</title>
<g id="a_node2"><a xlink:href="ArrayCwiseUnaryOps_8h.html#a35560f7dbf19244fda7e463d14157c43" target="_top" xlink:title="abs">
<polygon fill="none" stroke="black" points="220.5,-361.5 220.5,-380.5 254.5,-380.5 254.5,-361.5 220.5,-361.5"/>
<text text-anchor="middle" x="237.5" y="-368.5" font-family="Helvetica,sans-Serif" font-size="10.00">abs</text>
</a>
</g>
</g>
<!-- Node0&#45;&gt;Node1 -->
<g id="edge1" class="edge"><title>Node0&#45;&gt;Node1</title>
<path fill="none" stroke="midnightblue" d="M74.894,-211.457C87.6512,-242.824 120.859,-314.173 172,-352 183.145,-360.244 197.829,-364.928 210.371,-367.581"/>
<polygon fill="midnightblue" stroke="midnightblue" points="209.815,-371.037 220.277,-369.365 211.056,-364.148 209.815,-371.037"/>
</g>
<!-- Node2 -->
<g id="node3" class="node"><title>Node2</title>
<g id="a_node3"><a xlink:href="structEigen_1_1internal_1_1cephes__helper.html#a1a04b366c93aba016bd6fc12152908fe" target="_top" xlink:title="Eigen::internal::cephes\l_helper::big">
<polygon fill="none" stroke="black" points="175,-312 175,-342 300,-342 300,-312 175,-312"/>
<text text-anchor="start" x="183" y="-330" font-family="Helvetica,sans-Serif" font-size="10.00">Eigen::internal::cephes</text>
<text text-anchor="middle" x="237.5" y="-319" font-family="Helvetica,sans-Serif" font-size="10.00">_helper::big</text>
</a>
</g>
</g>
<!-- Node0&#45;&gt;Node2 -->
<g id="edge2" class="edge"><title>Node0&#45;&gt;Node2</title>
<path fill="none" stroke="midnightblue" d="M80.006,-211.203C97.252,-234.043 132.755,-277.269 172,-303 174.389,-304.566 176.894,-306.049 179.473,-307.451"/>
<polygon fill="midnightblue" stroke="midnightblue" points="177.949,-310.602 188.463,-311.905 181.057,-304.329 177.949,-310.602"/>
</g>
<!-- Node3 -->
<g id="node4" class="node"><title>Node3</title>
<g id="a_node4"><a xlink:href="structEigen_1_1internal_1_1cephes__helper.html#aaf9d26dccde22247394ba3f629f7a50e" target="_top" xlink:title="Eigen::internal::cephes\l_helper::biginv">
<polygon fill="none" stroke="black" points="175,-263 175,-293 300,-293 300,-263 175,-263"/>
<text text-anchor="start" x="183" y="-281" font-family="Helvetica,sans-Serif" font-size="10.00">Eigen::internal::cephes</text>
<text text-anchor="middle" x="237.5" y="-270" font-family="Helvetica,sans-Serif" font-size="10.00">_helper::biginv</text>
</a>
</g>
</g>
<!-- Node0&#45;&gt;Node3 -->
<g id="edge3" class="edge"><title>Node0&#45;&gt;Node3</title>
<path fill="none" stroke="midnightblue" d="M93.8996,-211.031C114.458,-223.134 144.603,-240.182 172,-253 176.392,-255.055 181.003,-257.083 185.655,-259.043"/>
<polygon fill="midnightblue" stroke="midnightblue" points="184.622,-262.402 195.203,-262.954 187.276,-255.925 184.622,-262.402"/>
</g>
<!-- Node4 -->
<g id="node5" class="node"><title>Node4</title>
<g id="a_node5"><a xlink:href="ArrayCwiseUnaryOps_8h.html#a2500b5d4f377a445cb98d3f1facfa1cf" target="_top" xlink:title="exp">
<polygon fill="none" stroke="black" points="220.5,-224.5 220.5,-243.5 254.5,-243.5 254.5,-224.5 220.5,-224.5"/>
<text text-anchor="middle" x="237.5" y="-231.5" font-family="Helvetica,sans-Serif" font-size="10.00">exp</text>
</a>
</g>
</g>
<!-- Node0&#45;&gt;Node4 -->
<g id="edge4" class="edge"><title>Node0&#45;&gt;Node4</title>
<path fill="none" stroke="midnightblue" d="M135.2,-211.019C161.555,-216.997 190.337,-223.527 210.463,-228.093"/>
<polygon fill="midnightblue" stroke="midnightblue" points="209.884,-231.551 220.411,-230.35 211.433,-224.724 209.884,-231.551"/>
</g>
<!-- Node5 -->
<g id="node6" class="node"><title>Node5</title>
<g id="a_node6"><a xlink:href="ArrayCwiseUnaryOps_8h.html#a48e72df6412ca98881afcd657352a1d5" target="_top" xlink:title="log">
<polygon fill="none" stroke="black" points="222,-186.5 222,-205.5 253,-205.5 253,-186.5 222,-186.5"/>
<text text-anchor="middle" x="237.5" y="-193.5" font-family="Helvetica,sans-Serif" font-size="10.00">log</text>
</a>
</g>
</g>
<!-- Node0&#45;&gt;Node5 -->
<g id="edge5" class="edge"><title>Node0&#45;&gt;Node5</title>
<path fill="none" stroke="midnightblue" d="M136.164,-196C162.888,-196 191.959,-196 211.897,-196"/>
<polygon fill="midnightblue" stroke="midnightblue" points="211.96,-199.5 221.96,-196 211.96,-192.5 211.96,-199.5"/>
</g>
<!-- Node6 -->
<g id="node7" class="node"><title>Node6</title>
<g id="a_node7"><a xlink:href="structEigen_1_1internal_1_1cephes__helper.html#af8e5a698b386888063ff1aaf0ad58dfc" target="_top" xlink:title="Eigen::internal::cephes\l_helper::machep">
<polygon fill="none" stroke="black" points="175,-137 175,-167 300,-167 300,-137 175,-137"/>
<text text-anchor="start" x="183" y="-155" font-family="Helvetica,sans-Serif" font-size="10.00">Eigen::internal::cephes</text>
<text text-anchor="middle" x="237.5" y="-144" font-family="Helvetica,sans-Serif" font-size="10.00">_helper::machep</text>
</a>
</g>
</g>
<!-- Node0&#45;&gt;Node6 -->
<g id="edge6" class="edge"><title>Node0&#45;&gt;Node6</title>
<path fill="none" stroke="midnightblue" d="M126.176,-180.981C140.113,-177.32 155.146,-173.371 169.495,-169.601"/>
<polygon fill="midnightblue" stroke="midnightblue" points="170.515,-172.952 179.298,-167.026 168.737,-166.182 170.515,-172.952"/>
</g>
<!-- Node7 -->
<g id="node8" class="node"><title>Node7</title>
<g id="a_node8"><a xlink:href="structEigen_1_1internal_1_1cephes_1_1polevl.html#a5a41c063bcf427993b13b1a31b39e3d6" target="_top" xlink:title="Eigen::internal::cephes\l::polevl::run">
<polygon fill="none" stroke="black" points="175,-88 175,-118 300,-118 300,-88 175,-88"/>
<text text-anchor="start" x="183" y="-106" font-family="Helvetica,sans-Serif" font-size="10.00">Eigen::internal::cephes</text>
<text text-anchor="middle" x="237.5" y="-95" font-family="Helvetica,sans-Serif" font-size="10.00">::polevl::run</text>
</a>
</g>
</g>
<!-- Node0&#45;&gt;Node7 -->
<g id="edge7" class="edge"><title>Node0&#45;&gt;Node7</title>
<path fill="none" stroke="midnightblue" d="M89.1182,-180.842C109.326,-166.077 141.728,-143.631 172,-128 176.01,-125.929 180.233,-123.928 184.519,-122.02"/>
<polygon fill="midnightblue" stroke="midnightblue" points="186.119,-125.143 193.946,-118.002 183.375,-118.703 186.119,-125.143"/>
</g>
<!-- Node8 -->
<g id="node9" class="node"><title>Node8</title>
<g id="a_node9"><a xlink:href="structEigen_1_1internal_1_1lgamma__impl.html#a49b248188b843de5df6fec11e12627c5" target="_top" xlink:title="Eigen::internal::lgamma\l_impl::run">
<polygon fill="none" stroke="black" points="172,-39 172,-69 303,-69 303,-39 172,-39"/>
<text text-anchor="start" x="180" y="-57" font-family="Helvetica,sans-Serif" font-size="10.00">Eigen::internal::lgamma</text>
<text text-anchor="middle" x="237.5" y="-46" font-family="Helvetica,sans-Serif" font-size="10.00">_impl::run</text>
</a>
</g>
</g>
<!-- Node0&#45;&gt;Node8 -->
<g id="edge8" class="edge"><title>Node0&#45;&gt;Node8</title>
<path fill="none" stroke="midnightblue" d="M78.8999,-180.605C95.4379,-155.995 130.946,-107.654 172,-79 174.708,-77.1098 177.579,-75.3371 180.546,-73.6787"/>
<polygon fill="midnightblue" stroke="midnightblue" points="182.34,-76.6929 189.67,-69.0423 179.169,-70.4524 182.34,-76.6929"/>
</g>
<!-- Node9 -->
<g id="node10" class="node"><title>Node9</title>
<g id="a_node10"><a xlink:href="svd__common_8h.html#a4a86f5596ff1afa9113ff6cc07a60453" target="_top" xlink:title="zero">
<polygon fill="none" stroke="black" points="218.5,-0.5 218.5,-19.5 256.5,-19.5 256.5,-0.5 218.5,-0.5"/>
<text text-anchor="middle" x="237.5" y="-7.5" font-family="Helvetica,sans-Serif" font-size="10.00">zero</text>
</a>
</g>
</g>
<!-- Node0&#45;&gt;Node9 -->
<g id="edge9" class="edge"><title>Node0&#45;&gt;Node9</title>
<path fill="none" stroke="midnightblue" d="M74.2837,-180.623C86.3098,-147.912 118.869,-71.0708 172,-30 182.403,-21.9588 196.069,-17.1247 208.144,-14.2309"/>
<polygon fill="midnightblue" stroke="midnightblue" points="209.134,-17.6005 218.223,-12.1556 207.722,-10.7443 209.134,-17.6005"/>
</g>
</g>
</svg>
