<?xml version="1.0" encoding="UTF-8" standalone="no"?>
<!DOCTYPE svg PUBLIC "-//W3C//DTD SVG 1.1//EN"
 "http://www.w3.org/Graphics/SVG/1.1/DTD/svg11.dtd">
<!-- Generated by graphviz version 2.38.0 (20140413.2041)
 -->
<!-- Title: action_t Pages: 1 -->
<svg width="244pt" height="165pt"
 viewBox="0.00 0.00 244.00 165.00" xmlns="http://www.w3.org/2000/svg" xmlns:xlink="http://www.w3.org/1999/xlink">
<g id="graph0" class="graph" transform="scale(1 1) rotate(0) translate(4 161)">
<title>action_t</title>
<!-- Node0 -->
<g id="node1" class="node"><title>Node0</title>
<polygon fill="#bfbfbf" stroke="black" points="0,-68.5 0,-87.5 55,-87.5 55,-68.5 0,-68.5"/>
<text text-anchor="middle" x="27.5" y="-75.5" font-family="Helvetica,sans-Serif" font-size="10.00">action_t</text>
</g>
<!-- Node1 -->
<g id="node2" class="node"><title>Node1</title>
<g id="a_node2"><a xlink:href="structevaluate__defaults__action__t.html" target="_top" xlink:title="evaluate_defaults_action_t">
<polygon fill="none" stroke="black" points="91,-137.5 91,-156.5 236,-156.5 236,-137.5 91,-137.5"/>
<text text-anchor="middle" x="163.5" y="-144.5" font-family="Helvetica,sans-Serif" font-size="10.00">evaluate_defaults_action_t</text>
</a>
</g>
</g>
<!-- Node0&#45;&gt;Node1 -->
<g id="edge1" class="edge"><title>Node0&#45;&gt;Node1</title>
<path fill="none" stroke="midnightblue" d="M45.1505,-94.5412C57.0246,-105.483 73.8638,-119.355 91,-128 98.5684,-131.818 106.987,-134.931 115.314,-137.447"/>
<polygon fill="midnightblue" stroke="midnightblue" points="47.4397,-91.8882 37.7806,-87.5346 42.6165,-96.9614 47.4397,-91.8882"/>
</g>
<!-- Node2 -->
<g id="node3" class="node"><title>Node2</title>
<g id="a_node3"><a xlink:href="structmeasure__all__pot__sizes__action__t.html" target="_top" xlink:title="measure_all_pot_sizes\l_action_t">
<polygon fill="none" stroke="black" points="101,-88 101,-118 226,-118 226,-88 101,-88"/>
<text text-anchor="start" x="109" y="-106" font-family="Helvetica,sans-Serif" font-size="10.00">measure_all_pot_sizes</text>
<text text-anchor="middle" x="163.5" y="-95" font-family="Helvetica,sans-Serif" font-size="10.00">_action_t</text>
</a>
</g>
</g>
<!-- Node0&#45;&gt;Node2 -->
<g id="edge2" class="edge"><title>Node0&#45;&gt;Node2</title>
<path fill="none" stroke="midnightblue" d="M65.363,-84.8774C76.3557,-86.9283 88.7156,-89.2343 100.841,-91.4964"/>
<polygon fill="midnightblue" stroke="midnightblue" points="65.7672,-81.3925 55.2948,-82.999 64.4833,-88.2738 65.7672,-81.3925"/>
</g>
<!-- Node3 -->
<g id="node4" class="node"><title>Node3</title>
<g id="a_node4"><a xlink:href="structmeasure__default__sizes__action__t.html" target="_top" xlink:title="measure_default_sizes\l_action_t">
<polygon fill="none" stroke="black" points="100,-39 100,-69 227,-69 227,-39 100,-39"/>
<text text-anchor="start" x="108" y="-57" font-family="Helvetica,sans-Serif" font-size="10.00">measure_default_sizes</text>
<text text-anchor="middle" x="163.5" y="-46" font-family="Helvetica,sans-Serif" font-size="10.00">_action_t</text>
</a>
</g>
</g>
<!-- Node0&#45;&gt;Node3 -->
<g id="edge3" class="edge"><title>Node0&#45;&gt;Node3</title>
<path fill="none" stroke="midnightblue" d="M65.45,-71.3821C76.0833,-69.4776 87.9903,-67.345 99.7239,-65.2435"/>
<polygon fill="midnightblue" stroke="midnightblue" points="64.5211,-67.9927 55.2948,-73.2009 65.7553,-74.883 64.5211,-67.9927"/>
</g>
<!-- Node4 -->
<g id="node5" class="node"><title>Node4</title>
<g id="a_node5"><a xlink:href="structpartition__action__t.html" target="_top" xlink:title="partition_action_t">
<polygon fill="none" stroke="black" points="113.5,-0.5 113.5,-19.5 213.5,-19.5 213.5,-0.5 113.5,-0.5"/>
<text text-anchor="middle" x="163.5" y="-7.5" font-family="Helvetica,sans-Serif" font-size="10.00">partition_action_t</text>
</a>
</g>
</g>
<!-- Node0&#45;&gt;Node4 -->
<g id="edge4" class="edge"><title>Node0&#45;&gt;Node4</title>
<path fill="none" stroke="midnightblue" d="M46.4953,-61.1771C58.3513,-50.8885 74.6555,-38.1761 91,-30 99.4153,-25.7904 108.845,-22.3553 118.027,-19.5953"/>
<polygon fill="midnightblue" stroke="midnightblue" points="43.8305,-58.8648 38.7115,-68.1409 48.4979,-64.0817 43.8305,-58.8648"/>
</g>
</g>
</svg>
