<?xml version="1.0" encoding="UTF-8" standalone="no"?>
<!DOCTYPE svg PUBLIC "-//W3C//DTD SVG 1.1//EN"
 "http://www.w3.org/Graphics/SVG/1.1/DTD/svg11.dtd">
<!-- Generated by graphviz version 2.38.0 (20140413.2041)
 -->
<!-- Title: Eigen::TensorEvaluator&lt; TensorRef&lt; Derived &gt;, Device &gt; Pages: 1 -->
<svg width="262pt" height="341pt"
 viewBox="0.00 0.00 262.00 341.00" xmlns="http://www.w3.org/2000/svg" xmlns:xlink="http://www.w3.org/1999/xlink">
<g id="graph0" class="graph" transform="scale(1 1) rotate(0) translate(4 337)">
<title>Eigen::TensorEvaluator&lt; TensorRef&lt; Derived &gt;, Device &gt;</title>
<!-- Node2 -->
<g id="node1" class="node"><title>Node2</title>
<polygon fill="#bfbfbf" stroke="black" points="103.5,-0.5 103.5,-41.5 235.5,-41.5 235.5,-0.5 103.5,-0.5"/>
<text text-anchor="start" x="111.5" y="-29.5" font-family="Helvetica,sans-Serif" font-size="10.00">Eigen::TensorEvaluator</text>
<text text-anchor="start" x="111.5" y="-18.5" font-family="Helvetica,sans-Serif" font-size="10.00">&lt; TensorRef&lt; Derived &gt;</text>
<text text-anchor="middle" x="169.5" y="-7.5" font-family="Helvetica,sans-Serif" font-size="10.00">, Device &gt;</text>
</g>
<!-- Node3 -->
<g id="node2" class="node"><title>Node3</title>
<g id="a_node2"><a xlink:href="structEigen_1_1TensorEvaluator_3_01const_01TensorRef_3_01Derived_01_4_00_01Device_01_4.html" target="_top" xlink:title="Eigen::TensorEvaluator\l\&lt; const TensorRef\&lt; Derived\l \&gt;, Device \&gt;">
<polygon fill="none" stroke="black" points="94.5,-79.5 94.5,-120.5 244.5,-120.5 244.5,-79.5 94.5,-79.5"/>
<text text-anchor="start" x="102.5" y="-108.5" font-family="Helvetica,sans-Serif" font-size="10.00">Eigen::TensorEvaluator</text>
<text text-anchor="start" x="102.5" y="-97.5" font-family="Helvetica,sans-Serif" font-size="10.00">&lt; const TensorRef&lt; Derived</text>
<text text-anchor="middle" x="169.5" y="-86.5" font-family="Helvetica,sans-Serif" font-size="10.00"> &gt;, Device &gt;</text>
</a>
</g>
</g>
<!-- Node3&#45;&gt;Node2 -->
<g id="edge1" class="edge"><title>Node3&#45;&gt;Node2</title>
<path fill="none" stroke="midnightblue" d="M169.5,-68.9057C169.5,-59.7917 169.5,-50.017 169.5,-41.7622"/>
<polygon fill="midnightblue" stroke="midnightblue" points="166,-69.1706 169.5,-79.1706 173,-69.1706 166,-69.1706"/>
</g>
<!-- Node4 -->
<g id="node3" class="node"><title>Node4</title>
<g id="a_node3"><a xlink:href="classEigen_1_1TensorRef.html" target="_top" xlink:title="Eigen::TensorRef\&lt; Derived \&gt;">
<polygon fill="none" stroke="black" points="93,-168.5 93,-187.5 246,-187.5 246,-168.5 93,-168.5"/>
<text text-anchor="middle" x="169.5" y="-175.5" font-family="Helvetica,sans-Serif" font-size="10.00">Eigen::TensorRef&lt; Derived &gt;</text>
</a>
</g>
</g>
<!-- Node4&#45;&gt;Node3 -->
<g id="edge2" class="edge"><title>Node4&#45;&gt;Node3</title>
<path fill="none" stroke="#9a32cd" stroke-dasharray="5,2" d="M169.5,-158.137C169.5,-146.729 169.5,-132.207 169.5,-120.658"/>
<polygon fill="#9a32cd" stroke="#9a32cd" points="166,-158.282 169.5,-168.282 173,-158.282 166,-158.282"/>
<text text-anchor="middle" x="185" y="-142" font-family="Helvetica,sans-Serif" font-size="10.00"> m_ref</text>
</g>
<!-- Node5 -->
<g id="node4" class="node"><title>Node5</title>
<g id="a_node4"><a xlink:href="classEigen_1_1TensorBase.html" target="_top" xlink:title="Eigen::TensorBase\&lt;\l TensorRef\&lt; Derived \&gt; \&gt;">
<polygon fill="none" stroke="black" points="0,-235.5 0,-265.5 135,-265.5 135,-235.5 0,-235.5"/>
<text text-anchor="start" x="8" y="-253.5" font-family="Helvetica,sans-Serif" font-size="10.00">Eigen::TensorBase&lt;</text>
<text text-anchor="middle" x="67.5" y="-242.5" font-family="Helvetica,sans-Serif" font-size="10.00"> TensorRef&lt; Derived &gt; &gt;</text>
</a>
</g>
</g>
<!-- Node5&#45;&gt;Node4 -->
<g id="edge3" class="edge"><title>Node5&#45;&gt;Node4</title>
<path fill="none" stroke="midnightblue" d="M96.5768,-229.403C116.512,-215.624 141.966,-198.031 156.926,-187.691"/>
<polygon fill="midnightblue" stroke="midnightblue" points="94.3775,-226.668 88.1412,-235.233 98.3576,-232.427 94.3775,-226.668"/>
</g>
<!-- Node6 -->
<g id="node5" class="node"><title>Node6</title>
<polygon fill="none" stroke="#bfbfbf" points="53,-313.5 53,-332.5 82,-332.5 82,-313.5 53,-313.5"/>
<text text-anchor="middle" x="67.5" y="-320.5" font-family="Helvetica,sans-Serif" font-size="10.00">int</text>
</g>
<!-- Node6&#45;&gt;Node5 -->
<g id="edge4" class="edge"><title>Node6&#45;&gt;Node5</title>
<path fill="none" stroke="#9a32cd" stroke-dasharray="5,2" d="M67.5,-303.236C67.5,-291.408 67.5,-276.383 67.5,-265.576"/>
<polygon fill="#9a32cd" stroke="#9a32cd" points="64.0001,-303.355 67.5,-313.355 71.0001,-303.355 64.0001,-303.355"/>
<text text-anchor="middle" x="109" y="-287" font-family="Helvetica,sans-Serif" font-size="10.00"> NumDimensions</text>
</g>
<!-- Node7 -->
<g id="node6" class="node"><title>Node7</title>
<polygon fill="none" stroke="#bfbfbf" points="153,-241 153,-260 254,-260 254,-241 153,-241"/>
<text text-anchor="middle" x="203.5" y="-248" font-family="Helvetica,sans-Serif" font-size="10.00">static const Index</text>
</g>
<!-- Node7&#45;&gt;Node4 -->
<g id="edge5" class="edge"><title>Node7&#45;&gt;Node4</title>
<path fill="none" stroke="#9a32cd" stroke-dasharray="5,2" d="M194.907,-231.682C188.13,-217.63 178.971,-198.638 173.703,-187.715"/>
<polygon fill="#9a32cd" stroke="#9a32cd" points="191.834,-233.368 199.331,-240.855 198.139,-230.328 191.834,-233.368"/>
<text text-anchor="middle" x="217.5" y="-209" font-family="Helvetica,sans-Serif" font-size="10.00"> NumIndices</text>
</g>
</g>
</svg>
