<?xml version="1.0" encoding="UTF-8" standalone="no"?>
<!DOCTYPE svg PUBLIC "-//W3C//DTD SVG 1.1//EN"
 "http://www.w3.org/Graphics/SVG/1.1/DTD/svg11.dtd">
<!-- Generated by graphviz version 2.38.0 (20140413.2041)
 -->
<!-- Title: Eigen::EigenBase::size Pages: 1 -->
<!--zoomable 149 -->
<svg id="main" version="1.1" xmlns="http://www.w3.org/2000/svg" xmlns:xlink="http://www.w3.org/1999/xlink" xml:space="preserve" onload="init(evt)">
<style type="text/css"><![CDATA[
.edge:hover path { stroke: red; }
.edge:hover polygon { stroke: red; fill: red; }
]]></style>
<script type="text/javascript"><![CDATA[
var edges = document.getElementsByTagName('g');
if (edges && edges.length) {
  for (var i=0;i<edges.length;i++) {
    if (edges[i].id.substr(0,4)=='edge') {
      edges[i].setAttribute('class','edge');
    }
  }
}
]]></script>
        <defs>
                <circle id="rim" cx="0" cy="0" r="7"/>
                <circle id="rim2" cx="0" cy="0" r="3.5"/>
                <g id="zoomPlus">
                        <use xlink:href="#rim" fill="#404040">
                                <set attributeName="fill" to="#808080" begin="zoomplus.mouseover" end="zoomplus.mouseout"/>
                        </use>
                        <path d="M-4,0h8M0,-4v8" fill="none" stroke="white" stroke-width="1.5" pointer-events="none"/>
                </g>
                <g id="zoomMin">
                        <use xlink:href="#rim" fill="#404040">
                                <set attributeName="fill" to="#808080" begin="zoomminus.mouseover" end="zoomminus.mouseout"/>
                        </use>
                        <path d="M-4,0h8" fill="none" stroke="white" stroke-width="1.5" pointer-events="none"/>
                </g>
                <g id="dirArrow">
                        <path fill="none" stroke="white" stroke-width="1.5" d="M0,-3.0v7 M-2.5,-0.5L0,-3.0L2.5,-0.5"/>
                </g>
               <g id="resetDef">
                       <use xlink:href="#rim2" fill="#404040">
                               <set attributeName="fill" to="#808080" begin="reset.mouseover" end="reset.mouseout"/>
                       </use>
               </g>
        </defs>

<script type="text/javascript">
var viewWidth = 518;
var viewHeight = 149;
var sectionId = 'dynsection-6';
</script>
<script xlink:href="svgpan.js"/>
<svg id="graph" class="graph">
<g id="viewport">
<title>Eigen::EigenBase::size</title>
<!-- Node142 -->
<g id="node1" class="node"><title>Node142</title>
<polygon fill="#bfbfbf" stroke="black" points="0,-44.5 0,-63.5 124,-63.5 124,-44.5 0,-44.5"/>
<text text-anchor="middle" x="62" y="-51.5" font-family="Helvetica,sans-Serif" font-size="10.00">Eigen::EigenBase::size</text>
</g>
<!-- Node143 -->
<g id="node2" class="node"><title>Node143</title>
<g id="a_node2"><a xlink:href="classEigen_1_1PlainObjectBase.html#ac61a071ebfe1068ff76095b617a35e93" target="_top" xlink:title="Eigen::PlainObjectBase\l\&lt; Matrix\&lt; _Scalar, _Rows,\l _Cols, _Options, _MaxRows,\l _MaxCols \&gt; \&gt;::_resize_to_match">
<polygon fill="none" stroke="black" points="160,-88 160,-140 338,-140 338,-88 160,-88"/>
<text text-anchor="start" x="168" y="-128" font-family="Helvetica,sans-Serif" font-size="10.00">Eigen::PlainObjectBase</text>
<text text-anchor="start" x="168" y="-117" font-family="Helvetica,sans-Serif" font-size="10.00">&lt; Matrix&lt; _Scalar, _Rows,</text>
<text text-anchor="start" x="168" y="-106" font-family="Helvetica,sans-Serif" font-size="10.00"> _Cols, _Options, _MaxRows,</text>
<text text-anchor="middle" x="249" y="-95" font-family="Helvetica,sans-Serif" font-size="10.00"> _MaxCols &gt; &gt;::_resize_to_match</text>
</a>
</g>
</g>
<!-- Node142&#45;&gt;Node143 -->
<g id="edge1" class="edge"><title>Node142&#45;&gt;Node143</title>
<path fill="none" stroke="midnightblue" d="M101.876,-66.6083C121.036,-72.8224 144.885,-80.5573 167.722,-87.964"/>
<polygon fill="midnightblue" stroke="midnightblue" points="102.906,-63.263 92.3138,-63.5072 100.746,-69.9216 102.906,-63.263"/>
</g>
<!-- Node144 -->
<g id="node3" class="node"><title>Node144</title>
<g id="a_node3"><a xlink:href="classEigen_1_1FullPivLU.html#ae2ef37e62e6f776e1958d6a7591863c2" target="_top" xlink:title="Eigen::FullPivLU::compute\lInPlace">
<polygon fill="none" stroke="black" points="180,-39 180,-69 318,-69 318,-39 180,-39"/>
<text text-anchor="start" x="188" y="-57" font-family="Helvetica,sans-Serif" font-size="10.00">Eigen::FullPivLU::compute</text>
<text text-anchor="middle" x="249" y="-46" font-family="Helvetica,sans-Serif" font-size="10.00">InPlace</text>
</a>
</g>
</g>
<!-- Node142&#45;&gt;Node144 -->
<g id="edge2" class="edge"><title>Node142&#45;&gt;Node144</title>
<path fill="none" stroke="midnightblue" d="M134.32,-54C149.309,-54 165.082,-54 179.948,-54"/>
<polygon fill="midnightblue" stroke="midnightblue" points="134.089,-50.5001 124.089,-54 134.089,-57.5001 134.089,-50.5001"/>
</g>
<!-- Node146 -->
<g id="node5" class="node"><title>Node146</title>
<g id="a_node5"><a xlink:href="function__taking__eigenbase_8cpp.html#a0e91892c7e25e25313e5b34d53e9df0f" target="_top" xlink:title="print_size">
<polygon fill="none" stroke="black" points="218,-0.5 218,-19.5 280,-19.5 280,-0.5 218,-0.5"/>
<text text-anchor="middle" x="249" y="-7.5" font-family="Helvetica,sans-Serif" font-size="10.00">print_size</text>
</a>
</g>
</g>
<!-- Node142&#45;&gt;Node146 -->
<g id="edge4" class="edge"><title>Node142&#45;&gt;Node146</title>
<path fill="none" stroke="midnightblue" d="M108.613,-41.8473C124.805,-37.6384 143.183,-32.981 160,-29 179.164,-24.4635 200.781,-19.7899 217.794,-16.2131"/>
<polygon fill="midnightblue" stroke="midnightblue" points="107.637,-38.4848 98.847,-44.3998 109.407,-45.2573 107.637,-38.4848"/>
</g>
<!-- Node145 -->
<g id="node4" class="node"><title>Node145</title>
<g id="a_node4"><a xlink:href="classEigen_1_1FullPivLU.html#a3e903b9f401e3fc5d1ca7c6951c76185" target="_top" xlink:title="Constructs a LU factorization from a given matrix. ">
<polygon fill="none" stroke="black" points="374,-44.5 374,-63.5 510,-63.5 510,-44.5 374,-44.5"/>
<text text-anchor="middle" x="442" y="-51.5" font-family="Helvetica,sans-Serif" font-size="10.00">Eigen::FullPivLU::FullPivLU</text>
</a>
</g>
</g>
<!-- Node144&#45;&gt;Node145 -->
<g id="edge3" class="edge"><title>Node144&#45;&gt;Node145</title>
<path fill="none" stroke="midnightblue" d="M328.463,-54C343.527,-54 359.175,-54 373.843,-54"/>
<polygon fill="midnightblue" stroke="midnightblue" points="328.147,-50.5001 318.146,-54 328.146,-57.5001 328.147,-50.5001"/>
</g>
<!-- Node147 -->
<g id="node6" class="node"><title>Node147</title>
<g id="a_node6"><a xlink:href="function__taking__eigenbase_8cpp.html#ae66f6b31b5ad750f1fe042a706a4e3d4" target="_top" xlink:title="main">
<polygon fill="none" stroke="black" points="421.5,-0.5 421.5,-19.5 462.5,-19.5 462.5,-0.5 421.5,-0.5"/>
<text text-anchor="middle" x="442" y="-7.5" font-family="Helvetica,sans-Serif" font-size="10.00">main</text>
</a>
</g>
</g>
<!-- Node146&#45;&gt;Node147 -->
<g id="edge5" class="edge"><title>Node146&#45;&gt;Node147</title>
<path fill="none" stroke="midnightblue" d="M290.284,-10C330.507,-10 390.637,-10 421.374,-10"/>
<polygon fill="midnightblue" stroke="midnightblue" points="290.265,-6.5001 280.265,-10 290.264,-13.5001 290.265,-6.5001"/>
</g>
</g>
</svg>
        <g id="navigator" transform="translate(0 0)" fill="#404254">
                <rect fill="#f2f5e9" fill-opacity="0.5" stroke="#606060" stroke-width=".5" x="0" y="0" width="60" height="60"/>
                <use id="zoomplus" xlink:href="#zoomPlus" x="17" y="9" onmousedown="handleZoom(evt,'in')"/>
                <use id="zoomminus" xlink:href="#zoomMin" x="42" y="9" onmousedown="handleZoom(evt,'out')"/>
                <use id="reset" xlink:href="#resetDef" x="30" y="36" onmousedown="handleReset()"/>
                <g id="arrowUp" xlink:href="#dirArrow" transform="translate(30 24)" onmousedown="handlePan(0,-1)">
                  <use xlink:href="#rim" fill="#404040">
                        <set attributeName="fill" to="#808080" begin="arrowUp.mouseover" end="arrowUp.mouseout"/>
                  </use>
                  <path fill="none" stroke="white" stroke-width="1.5" d="M0,-3.0v7 M-2.5,-0.5L0,-3.0L2.5,-0.5"/>
                </g>
                <g id="arrowRight" xlink:href="#dirArrow" transform="rotate(90) translate(36 -43)" onmousedown="handlePan(1,0)">
                  <use xlink:href="#rim" fill="#404040">
                        <set attributeName="fill" to="#808080" begin="arrowRight.mouseover" end="arrowRight.mouseout"/>
                  </use>
                  <path fill="none" stroke="white" stroke-width="1.5" d="M0,-3.0v7 M-2.5,-0.5L0,-3.0L2.5,-0.5"/>
                </g>
                <g id="arrowDown" xlink:href="#dirArrow" transform="rotate(180) translate(-30 -48)" onmousedown="handlePan(0,1)">
                  <use xlink:href="#rim" fill="#404040">
                        <set attributeName="fill" to="#808080" begin="arrowDown.mouseover" end="arrowDown.mouseout"/>
                  </use>
                  <path fill="none" stroke="white" stroke-width="1.5" d="M0,-3.0v7 M-2.5,-0.5L0,-3.0L2.5,-0.5"/>
                </g>
                <g id="arrowLeft" xlink:href="#dirArrow" transform="rotate(270) translate(-36 17)" onmousedown="handlePan(-1,0)">
                  <use xlink:href="#rim" fill="#404040">
                        <set attributeName="fill" to="#808080" begin="arrowLeft.mouseover" end="arrowLeft.mouseout"/>
                  </use>
                  <path fill="none" stroke="white" stroke-width="1.5" d="M0,-3.0v7 M-2.5,-0.5L0,-3.0L2.5,-0.5"/>
                </g>
        </g>
        <svg viewBox="0 0 15 15" width="100%" height="30px" preserveAspectRatio="xMaxYMin meet">
         <g id="arrow_out" transform="scale(0.3 0.3)">
          <a xlink:href="structEigen_1_1EigenBase_ac2c9348df3bb9c0044dbae6c278a8977_icgraph_org.svg" target="_base">
           <rect id="button" ry="5" rx="5" y="6" x="6" height="38" width="38"
                fill="#f2f5e9" fill-opacity="0.5" stroke="#606060" stroke-width="1.0"/>
           <path id="arrow"
             d="M 11.500037,31.436501 C 11.940474,20.09759 22.043105,11.32322 32.158766,21.979434 L 37.068811,17.246167 C 37.068811,17.246167 37.088388,32 37.088388,32 L 22.160133,31.978069 C 22.160133,31.978069 26.997745,27.140456 26.997745,27.140456 C 18.528582,18.264221 13.291696,25.230495 11.500037,31.436501 z"
             style="fill:#404040;"/>
          </a>
         </g>
        </svg>
</svg>
