<?xml version="1.0" encoding="UTF-8" standalone="no"?>
<!DOCTYPE svg PUBLIC "-//W3C//DTD SVG 1.1//EN"
 "http://www.w3.org/Graphics/SVG/1.1/DTD/svg11.dtd">
<!-- Generated by graphviz version 2.38.0 (20140413.2041)
 -->
<!-- Title: Eigen::internal::scalar_sign_op&lt; Scalar, true &gt;::operator() Pages: 1 -->
<svg width="242pt" height="104pt"
 viewBox="0.00 0.00 242.00 104.00" xmlns="http://www.w3.org/2000/svg" xmlns:xlink="http://www.w3.org/1999/xlink">
<g id="graph0" class="graph" transform="scale(1 1) rotate(0) translate(4 100)">
<title>Eigen::internal::scalar_sign_op&lt; Scalar, true &gt;::operator()</title>
<!-- Node0 -->
<g id="node1" class="node"><title>Node0</title>
<polygon fill="#bfbfbf" stroke="black" points="0,-27.5 0,-68.5 125,-68.5 125,-27.5 0,-27.5"/>
<text text-anchor="start" x="8" y="-56.5" font-family="Helvetica,sans-Serif" font-size="10.00">Eigen::internal::scalar</text>
<text text-anchor="start" x="8" y="-45.5" font-family="Helvetica,sans-Serif" font-size="10.00">_sign_op&lt; Scalar, true</text>
<text text-anchor="middle" x="62.5" y="-34.5" font-family="Helvetica,sans-Serif" font-size="10.00"> &gt;::operator()</text>
</g>
<!-- Node1 -->
<g id="node2" class="node"><title>Node1</title>
<g id="a_node2"><a xlink:href="ArrayCwiseUnaryOps_8h.html#a35560f7dbf19244fda7e463d14157c43" target="_top" xlink:title="abs">
<polygon fill="none" stroke="black" points="180.5,-76.5 180.5,-95.5 214.5,-95.5 214.5,-76.5 180.5,-76.5"/>
<text text-anchor="middle" x="197.5" y="-83.5" font-family="Helvetica,sans-Serif" font-size="10.00">abs</text>
</a>
</g>
</g>
<!-- Node0&#45;&gt;Node1 -->
<g id="edge1" class="edge"><title>Node0&#45;&gt;Node1</title>
<path fill="none" stroke="midnightblue" d="M125.328,-65.665C141.386,-70.2531 157.809,-74.9454 170.827,-78.6649"/>
<polygon fill="midnightblue" stroke="midnightblue" points="169.889,-82.0367 180.465,-81.4187 171.812,-75.3061 169.889,-82.0367"/>
</g>
<!-- Node2 -->
<g id="node3" class="node"><title>Node2</title>
<g id="a_node3"><a xlink:href="namespaceEigen.html#a524f2d0ae40cbbb4f55ea073c98a1c43" target="_top" xlink:title="Eigen::imag">
<polygon fill="none" stroke="black" points="161,-38.5 161,-57.5 234,-57.5 234,-38.5 161,-38.5"/>
<text text-anchor="middle" x="197.5" y="-45.5" font-family="Helvetica,sans-Serif" font-size="10.00">Eigen::imag</text>
</a>
</g>
</g>
<!-- Node0&#45;&gt;Node2 -->
<g id="edge2" class="edge"><title>Node0&#45;&gt;Node2</title>
<path fill="none" stroke="midnightblue" d="M125.328,-48C133.913,-48 142.603,-48 150.821,-48"/>
<polygon fill="midnightblue" stroke="midnightblue" points="150.935,-51.5001 160.935,-48 150.935,-44.5001 150.935,-51.5001"/>
</g>
<!-- Node3 -->
<g id="node4" class="node"><title>Node3</title>
<g id="a_node4"><a xlink:href="namespaceEigen.html#a32bc447a8f5140365c7ef5ac58ec774c" target="_top" xlink:title="Eigen::real">
<polygon fill="none" stroke="black" points="164,-0.5 164,-19.5 231,-19.5 231,-0.5 164,-0.5"/>
<text text-anchor="middle" x="197.5" y="-7.5" font-family="Helvetica,sans-Serif" font-size="10.00">Eigen::real</text>
</a>
</g>
</g>
<!-- Node0&#45;&gt;Node3 -->
<g id="edge3" class="edge"><title>Node0&#45;&gt;Node3</title>
<path fill="none" stroke="midnightblue" d="M125.328,-30.335C135.092,-27.5452 144.991,-24.7169 154.178,-22.0921"/>
<polygon fill="midnightblue" stroke="midnightblue" points="155.172,-25.448 163.826,-19.3354 153.249,-18.7173 155.172,-25.448"/>
</g>
</g>
</svg>
