<?xml version="1.0" encoding="UTF-8" standalone="no"?>
<!DOCTYPE svg PUBLIC "-//W3C//DTD SVG 1.1//EN"
 "http://www.w3.org/Graphics/SVG/1.1/DTD/svg11.dtd">
<!-- Generated by graphviz version 2.38.0 (20140413.2041)
 -->
<!-- Title: Eigen::TensorEvaluator&lt; const TensorInflationOp&lt; Strides, ArgType &gt;, Device &gt; Pages: 1 -->
<svg width="2063pt" height="463pt"
 viewBox="0.00 0.00 2063.00 462.73" xmlns="http://www.w3.org/2000/svg" xmlns:xlink="http://www.w3.org/1999/xlink">
<g id="graph0" class="graph" transform="scale(1 1) rotate(0) translate(4 458.734)">
<title>Eigen::TensorEvaluator&lt; const TensorInflationOp&lt; Strides, ArgType &gt;, Device &gt;</title>
<!-- Node1 -->
<g id="node1" class="node"><title>Node1</title>
<polygon fill="#bfbfbf" stroke="black" points="1889,-183.234 1889,-224.234 2055,-224.234 2055,-183.234 1889,-183.234"/>
<text text-anchor="start" x="1897" y="-212.234" font-family="Helvetica,sans-Serif" font-size="10.00">Eigen::TensorEvaluator</text>
<text text-anchor="start" x="1897" y="-201.234" font-family="Helvetica,sans-Serif" font-size="10.00">&lt; const TensorInflationOp</text>
<text text-anchor="middle" x="1972" y="-190.234" font-family="Helvetica,sans-Serif" font-size="10.00">&lt; Strides, ArgType &gt;, Device &gt;</text>
</g>
<!-- Node2 -->
<g id="node2" class="node"><title>Node2</title>
<g id="a_node2"><a xlink:href="structEigen_1_1DSizes.html" target="_top" xlink:title="Eigen::DSizes\&lt; Index,\l NumDims \&gt;">
<polygon fill="none" stroke="black" points="1438,-370.734 1438,-400.734 1560,-400.734 1560,-370.734 1438,-370.734"/>
<text text-anchor="start" x="1446" y="-388.734" font-family="Helvetica,sans-Serif" font-size="10.00">Eigen::DSizes&lt; Index,</text>
<text text-anchor="middle" x="1499" y="-377.734" font-family="Helvetica,sans-Serif" font-size="10.00"> NumDims &gt;</text>
</a>
</g>
</g>
<!-- Node2&#45;&gt;Node1 -->
<g id="edge1" class="edge"><title>Node2&#45;&gt;Node1</title>
<path fill="none" stroke="#9a32cd" stroke-dasharray="5,2" d="M1570.37,-385.314C1598.39,-383.661 1630.65,-379.87 1659,-371.734 1771.94,-339.319 1890.03,-261.755 1942.72,-224.457"/>
<polygon fill="#9a32cd" stroke="#9a32cd" points="1570.07,-381.825 1560.26,-385.83 1570.42,-388.816 1570.07,-381.825"/>
<text text-anchor="middle" x="1739.5" y="-368.734" font-family="Helvetica,sans-Serif" font-size="10.00"> m_dimensions</text>
</g>
<!-- Node18 -->
<g id="node18" class="node"><title>Node18</title>
<g id="a_node18"><a xlink:href="structEigen_1_1TensorEvaluator.html" target="_top" xlink:title="Eigen::TensorEvaluator\l\&lt; ArgType, Device \&gt;">
<polygon fill="none" stroke="black" points="1677,-257.734 1677,-287.734 1802,-287.734 1802,-257.734 1677,-257.734"/>
<text text-anchor="start" x="1685" y="-275.734" font-family="Helvetica,sans-Serif" font-size="10.00">Eigen::TensorEvaluator</text>
<text text-anchor="middle" x="1739.5" y="-264.734" font-family="Helvetica,sans-Serif" font-size="10.00">&lt; ArgType, Device &gt;</text>
</a>
</g>
</g>
<!-- Node2&#45;&gt;Node18 -->
<g id="edge24" class="edge"><title>Node2&#45;&gt;Node18</title>
<path fill="none" stroke="#9a32cd" stroke-dasharray="5,2" d="M1556.4,-367.578C1563.66,-365.263 1571.01,-362.935 1578,-360.734 1613.94,-349.429 1625.66,-353.29 1659,-335.734 1683.46,-322.851 1707.82,-302.074 1723,-287.932"/>
<polygon fill="#9a32cd" stroke="#9a32cd" points="1555.04,-364.337 1546.58,-370.714 1557.17,-371.005 1555.04,-364.337"/>
<text text-anchor="middle" x="1618.5" y="-363.734" font-family="Helvetica,sans-Serif" font-size="10.00"> m_dims</text>
</g>
<!-- Node3 -->
<g id="node3" class="node"><title>Node3</title>
<g id="a_node3"><a xlink:href="classEigen_1_1array.html" target="_top" xlink:title="Eigen::array\&lt; Index,\l NumDims \&gt;">
<polygon fill="none" stroke="black" points="1149,-160.734 1149,-190.734 1262,-190.734 1262,-160.734 1149,-160.734"/>
<text text-anchor="start" x="1157" y="-178.734" font-family="Helvetica,sans-Serif" font-size="10.00">Eigen::array&lt; Index,</text>
<text text-anchor="middle" x="1205.5" y="-167.734" font-family="Helvetica,sans-Serif" font-size="10.00"> NumDims &gt;</text>
</a>
</g>
</g>
<!-- Node3&#45;&gt;Node1 -->
<g id="edge17" class="edge"><title>Node3&#45;&gt;Node1</title>
<path fill="none" stroke="#9a32cd" stroke-dasharray="5,2" d="M1272.36,-176.714C1360.46,-178.166 1521.53,-181.32 1659,-186.734 1737.06,-189.809 1826.02,-194.803 1888.92,-198.585"/>
<polygon fill="#9a32cd" stroke="#9a32cd" points="1272.3,-173.212 1262.25,-176.549 1272.19,-180.212 1272.3,-173.212"/>
<text text-anchor="middle" x="1618.5" y="-200.734" font-family="Helvetica,sans-Serif" font-size="10.00"> m_inputStrides</text>
<text text-anchor="middle" x="1618.5" y="-189.734" font-family="Helvetica,sans-Serif" font-size="10.00">m_outputStrides</text>
</g>
<!-- Node3&#45;&gt;Node2 -->
<g id="edge2" class="edge"><title>Node3&#45;&gt;Node2</title>
<path fill="none" stroke="midnightblue" d="M1229.52,-197.828C1269.39,-235.195 1354.99,-311.594 1438,-360.734 1444.12,-364.356 1450.86,-367.709 1457.54,-370.707"/>
<polygon fill="midnightblue" stroke="midnightblue" points="1231.85,-195.211 1222.18,-190.894 1227.05,-200.303 1231.85,-195.211"/>
</g>
<!-- Node4 -->
<g id="node4" class="node"><title>Node4</title>
<g id="a_node4"><a xlink:href="classEigen_1_1Triplet.html" target="_top" xlink:title="Eigen::Triplet\&lt; double \&gt;">
<polygon fill="none" stroke="black" points="948,-141.234 948,-160.234 1079,-160.234 1079,-141.234 948,-141.234"/>
<text text-anchor="middle" x="1013.5" y="-148.234" font-family="Helvetica,sans-Serif" font-size="10.00">Eigen::Triplet&lt; double &gt;</text>
</a>
</g>
</g>
<!-- Node4&#45;&gt;Node3 -->
<g id="edge3" class="edge"><title>Node4&#45;&gt;Node3</title>
<path fill="none" stroke="#9a32cd" stroke-dasharray="5,2" d="M1089.08,-160.547C1109.03,-163.172 1130.24,-165.964 1148.97,-168.427"/>
<polygon fill="#9a32cd" stroke="#9a32cd" points="1089.46,-157.068 1079.09,-159.233 1088.55,-164.008 1089.46,-157.068"/>
<text text-anchor="middle" x="1114" y="-168.734" font-family="Helvetica,sans-Serif" font-size="10.00"> values</text>
</g>
<!-- Node16 -->
<g id="node16" class="node"><title>Node16</title>
<g id="a_node16"><a xlink:href="classEigen_1_1array.html" target="_top" xlink:title="Eigen::array\&lt; Eigen\l::internal::TensorIntDivisor\l\&lt; Index \&gt;, NumDims \&gt;">
<polygon fill="none" stroke="black" points="1280,-111.234 1280,-152.234 1420,-152.234 1420,-111.234 1280,-111.234"/>
<text text-anchor="start" x="1288" y="-140.234" font-family="Helvetica,sans-Serif" font-size="10.00">Eigen::array&lt; Eigen</text>
<text text-anchor="start" x="1288" y="-129.234" font-family="Helvetica,sans-Serif" font-size="10.00">::internal::TensorIntDivisor</text>
<text text-anchor="middle" x="1350" y="-118.234" font-family="Helvetica,sans-Serif" font-size="10.00">&lt; Index &gt;, NumDims &gt;</text>
</a>
</g>
</g>
<!-- Node4&#45;&gt;Node16 -->
<g id="edge20" class="edge"><title>Node4&#45;&gt;Node16</title>
<path fill="none" stroke="#9a32cd" stroke-dasharray="5,2" d="M1089.43,-146.478C1146.49,-143.237 1224.42,-138.81 1279.97,-135.655"/>
<polygon fill="#9a32cd" stroke="#9a32cd" points="1089.18,-142.987 1079.39,-147.048 1089.57,-149.976 1089.18,-142.987"/>
<text text-anchor="middle" x="1114" y="-149.734" font-family="Helvetica,sans-Serif" font-size="10.00"> values</text>
</g>
<!-- Node5 -->
<g id="node5" class="node"><title>Node5</title>
<polygon fill="none" stroke="#bfbfbf" points="784.5,-164.234 784.5,-183.234 839.5,-183.234 839.5,-164.234 784.5,-164.234"/>
<text text-anchor="middle" x="812" y="-171.234" font-family="Helvetica,sans-Serif" font-size="10.00">SCALAR</text>
</g>
<!-- Node5&#45;&gt;Node4 -->
<g id="edge4" class="edge"><title>Node5&#45;&gt;Node4</title>
<path fill="none" stroke="#9a32cd" stroke-dasharray="5,2" d="M849.86,-169.485C877.292,-166.322 915.441,-161.924 947.898,-158.182"/>
<polygon fill="#9a32cd" stroke="#9a32cd" points="849.439,-166.01 839.905,-170.632 850.241,-172.964 849.439,-166.01"/>
<text text-anchor="middle" x="908" y="-168.734" font-family="Helvetica,sans-Serif" font-size="10.00"> m_value</text>
</g>
<!-- Node6 -->
<g id="node6" class="node"><title>Node6</title>
<g id="a_node6"><a xlink:href="classEigen_1_1SparseMatrix.html" target="_top" xlink:title="Eigen::SparseMatrix\l\&lt; double \&gt;">
<polygon fill="none" stroke="black" points="756,-113.734 756,-143.734 868,-143.734 868,-113.734 756,-113.734"/>
<text text-anchor="start" x="764" y="-131.734" font-family="Helvetica,sans-Serif" font-size="10.00">Eigen::SparseMatrix</text>
<text text-anchor="middle" x="812" y="-120.734" font-family="Helvetica,sans-Serif" font-size="10.00">&lt; double &gt;</text>
</a>
</g>
</g>
<!-- Node6&#45;&gt;Node4 -->
<g id="edge5" class="edge"><title>Node6&#45;&gt;Node4</title>
<path fill="none" stroke="#9a32cd" stroke-dasharray="5,2" d="M878.54,-126.522C895.366,-126.713 913.401,-127.583 930,-129.734 947.588,-132.014 966.815,-136.771 982.28,-141.181"/>
<polygon fill="#9a32cd" stroke="#9a32cd" points="878.255,-123.021 868.243,-126.486 878.23,-130.021 878.255,-123.021"/>
<text text-anchor="middle" x="908" y="-143.734" font-family="Helvetica,sans-Serif" font-size="10.00"> m_row</text>
<text text-anchor="middle" x="908" y="-132.734" font-family="Helvetica,sans-Serif" font-size="10.00">m_col</text>
</g>
<!-- Node7 -->
<g id="node7" class="node"><title>Node7</title>
<g id="a_node7"><a xlink:href="classEigen_1_1SparseCompressedBase.html" target="_top" xlink:title="Common base class for sparse [compressed]&#45;{row|column}&#45;storage format. ">
<polygon fill="none" stroke="black" points="508,-178.234 508,-219.234 675,-219.234 675,-178.234 508,-178.234"/>
<text text-anchor="start" x="516" y="-207.234" font-family="Helvetica,sans-Serif" font-size="10.00">Eigen::SparseCompressedBase</text>
<text text-anchor="start" x="516" y="-196.234" font-family="Helvetica,sans-Serif" font-size="10.00">&lt; SparseMatrix&lt; double,</text>
<text text-anchor="middle" x="591.5" y="-185.234" font-family="Helvetica,sans-Serif" font-size="10.00"> _Options, _StorageIndex &gt; &gt;</text>
</a>
</g>
</g>
<!-- Node7&#45;&gt;Node6 -->
<g id="edge6" class="edge"><title>Node7&#45;&gt;Node6</title>
<path fill="none" stroke="midnightblue" d="M666.426,-175.051C698.672,-164.721 735.518,-152.916 763.942,-143.81"/>
<polygon fill="midnightblue" stroke="midnightblue" points="665.036,-171.821 656.581,-178.205 667.172,-178.487 665.036,-171.821"/>
</g>
<!-- Node8 -->
<g id="node8" class="node"><title>Node8</title>
<g id="a_node8"><a xlink:href="classEigen_1_1SparseMatrixBase.html" target="_top" xlink:title="Base class of any sparse matrices or sparse expressions. ">
<polygon fill="none" stroke="black" points="252,-183.734 252,-213.734 388,-213.734 388,-183.734 252,-183.734"/>
<text text-anchor="start" x="260" y="-201.734" font-family="Helvetica,sans-Serif" font-size="10.00">Eigen::SparseMatrixBase</text>
<text text-anchor="middle" x="320" y="-190.734" font-family="Helvetica,sans-Serif" font-size="10.00">&lt; Derived &gt;</text>
</a>
</g>
</g>
<!-- Node8&#45;&gt;Node7 -->
<g id="edge7" class="edge"><title>Node8&#45;&gt;Node7</title>
<path fill="none" stroke="midnightblue" d="M398.702,-198.734C432.843,-198.734 472.977,-198.734 507.683,-198.734"/>
<polygon fill="midnightblue" stroke="midnightblue" points="398.311,-195.234 388.311,-198.734 398.311,-202.234 398.311,-195.234"/>
</g>
<!-- Node9 -->
<g id="node9" class="node"><title>Node9</title>
<g id="a_node9"><a xlink:href="structEigen_1_1EigenBase.html" target="_top" xlink:title="Eigen::EigenBase\&lt; Derived \&gt;">
<polygon fill="none" stroke="black" points="0,-208.234 0,-227.234 158,-227.234 158,-208.234 0,-208.234"/>
<text text-anchor="middle" x="79" y="-215.234" font-family="Helvetica,sans-Serif" font-size="10.00">Eigen::EigenBase&lt; Derived &gt;</text>
</a>
</g>
</g>
<!-- Node9&#45;&gt;Node8 -->
<g id="edge8" class="edge"><title>Node9&#45;&gt;Node8</title>
<path fill="none" stroke="midnightblue" d="M168.306,-210.714C195.907,-208.52 225.895,-206.136 251.799,-204.077"/>
<polygon fill="midnightblue" stroke="midnightblue" points="167.949,-207.231 158.258,-211.513 168.503,-214.209 167.949,-207.231"/>
</g>
<!-- Node10 -->
<g id="node10" class="node"><title>Node10</title>
<g id="a_node10"><a xlink:href="classbool.html" target="_top" xlink:title="bool">
<polygon fill="none" stroke="black" points="60.5,-170.234 60.5,-189.234 97.5,-189.234 97.5,-170.234 60.5,-170.234"/>
<text text-anchor="middle" x="79" y="-177.234" font-family="Helvetica,sans-Serif" font-size="10.00">bool</text>
</a>
</g>
</g>
<!-- Node10&#45;&gt;Node8 -->
<g id="edge9" class="edge"><title>Node10&#45;&gt;Node8</title>
<path fill="none" stroke="#9a32cd" stroke-dasharray="5,2" d="M107.55,-181.844C138.365,-184.213 189.763,-188.189 234,-191.734 239.756,-192.196 245.731,-192.679 251.725,-193.167"/>
<polygon fill="#9a32cd" stroke="#9a32cd" points="107.793,-178.353 97.5545,-181.077 107.257,-185.332 107.793,-178.353"/>
<text text-anchor="middle" x="205" y="-194.734" font-family="Helvetica,sans-Serif" font-size="10.00"> m_isRValue</text>
</g>
<!-- Node11 -->
<g id="node11" class="node"><title>Node11</title>
<polygon fill="none" stroke="#bfbfbf" points="254.5,-109.734 254.5,-139.734 385.5,-139.734 385.5,-109.734 254.5,-109.734"/>
<text text-anchor="start" x="262.5" y="-127.734" font-family="Helvetica,sans-Serif" font-size="10.00">EIGEN_DEFAULT_DENSE</text>
<text text-anchor="middle" x="320" y="-116.734" font-family="Helvetica,sans-Serif" font-size="10.00">_INDEX_TYPE</text>
</g>
<!-- Node11&#45;&gt;Node6 -->
<g id="edge10" class="edge"><title>Node11&#45;&gt;Node6</title>
<path fill="none" stroke="#9a32cd" stroke-dasharray="5,2" d="M395.806,-125.345C494.952,-126.154 667.596,-127.564 755.757,-128.283"/>
<polygon fill="#9a32cd" stroke="#9a32cd" points="395.591,-121.843 385.563,-125.261 395.534,-128.843 395.591,-121.843"/>
<text text-anchor="middle" x="591.5" y="-141.734" font-family="Helvetica,sans-Serif" font-size="10.00"> m_outerSize</text>
<text text-anchor="middle" x="591.5" y="-130.734" font-family="Helvetica,sans-Serif" font-size="10.00">m_innerSize</text>
</g>
<!-- Node13 -->
<g id="node13" class="node"><title>Node13</title>
<g id="a_node13"><a xlink:href="classEigen_1_1internal_1_1CompressedStorage.html" target="_top" xlink:title="Eigen::internal::Compressed\lStorage\&lt; Scalar, StorageIndex \&gt;">
<polygon fill="none" stroke="black" points="503,-60.7343 503,-90.7343 680,-90.7343 680,-60.7343 503,-60.7343"/>
<text text-anchor="start" x="511" y="-78.7343" font-family="Helvetica,sans-Serif" font-size="10.00">Eigen::internal::Compressed</text>
<text text-anchor="middle" x="591.5" y="-67.7343" font-family="Helvetica,sans-Serif" font-size="10.00">Storage&lt; Scalar, StorageIndex &gt;</text>
</a>
</g>
</g>
<!-- Node11&#45;&gt;Node13 -->
<g id="edge13" class="edge"><title>Node11&#45;&gt;Node13</title>
<path fill="none" stroke="#9a32cd" stroke-dasharray="5,2" d="M382.378,-107.158C390.291,-105.178 398.313,-103.31 406,-101.734 437.372,-95.3052 472.072,-89.9603 502.834,-85.8225"/>
<polygon fill="#9a32cd" stroke="#9a32cd" points="381.259,-103.832 372.447,-109.713 383.003,-110.611 381.259,-103.832"/>
<text text-anchor="middle" x="445.5" y="-115.734" font-family="Helvetica,sans-Serif" font-size="10.00"> m_size</text>
<text text-anchor="middle" x="445.5" y="-104.734" font-family="Helvetica,sans-Serif" font-size="10.00">m_allocatedSize</text>
</g>
<!-- Node12 -->
<g id="node12" class="node"><title>Node12</title>
<polygon fill="none" stroke="#bfbfbf" points="275.5,-5.23429 275.5,-24.2343 364.5,-24.2343 364.5,-5.23429 275.5,-5.23429"/>
<text text-anchor="middle" x="320" y="-12.2343" font-family="Helvetica,sans-Serif" font-size="10.00">StorageIndex *</text>
</g>
<!-- Node12&#45;&gt;Node6 -->
<g id="edge11" class="edge"><title>Node12&#45;&gt;Node6</title>
<path fill="none" stroke="#9a32cd" stroke-dasharray="5,2" d="M374.77,-7.00232C446.689,1.16984 577.076,8.31047 680,-28.7343 729.536,-46.5632 775.539,-90.4232 797.497,-113.684"/>
<polygon fill="#9a32cd" stroke="#9a32cd" points="374.111,-3.55587 364.593,-8.2104 374.936,-10.5071 374.111,-3.55587"/>
<text text-anchor="middle" x="591.5" y="-42.7343" font-family="Helvetica,sans-Serif" font-size="10.00"> m_outerIndex</text>
<text text-anchor="middle" x="591.5" y="-31.7343" font-family="Helvetica,sans-Serif" font-size="10.00">m_innerNonZeros</text>
</g>
<!-- Node12&#45;&gt;Node13 -->
<g id="edge14" class="edge"><title>Node12&#45;&gt;Node13</title>
<path fill="none" stroke="#9a32cd" stroke-dasharray="5,2" d="M373.563,-26.568C405.741,-33.8186 447.755,-43.2964 485,-51.7343 497.732,-54.6187 511.327,-57.7059 524.377,-60.6732"/>
<polygon fill="#9a32cd" stroke="#9a32cd" points="374.005,-23.0798 363.48,-24.2963 372.466,-29.9086 374.005,-23.0798"/>
<text text-anchor="middle" x="445.5" y="-54.7343" font-family="Helvetica,sans-Serif" font-size="10.00"> m_indices</text>
</g>
<!-- Node13&#45;&gt;Node6 -->
<g id="edge12" class="edge"><title>Node13&#45;&gt;Node6</title>
<path fill="none" stroke="#9a32cd" stroke-dasharray="5,2" d="M664.446,-93.1856C694.207,-100.405 728.165,-108.641 755.894,-115.368"/>
<polygon fill="#9a32cd" stroke="#9a32cd" points="665.072,-89.7362 654.529,-90.7802 663.422,-96.5389 665.072,-89.7362"/>
<text text-anchor="middle" x="718" y="-113.734" font-family="Helvetica,sans-Serif" font-size="10.00"> m_data</text>
</g>
<!-- Node14 -->
<g id="node14" class="node"><title>Node14</title>
<polygon fill="none" stroke="#bfbfbf" points="292.5,-57.2343 292.5,-76.2343 347.5,-76.2343 347.5,-57.2343 292.5,-57.2343"/>
<text text-anchor="middle" x="320" y="-64.2343" font-family="Helvetica,sans-Serif" font-size="10.00">Scalar *</text>
</g>
<!-- Node14&#45;&gt;Node13 -->
<g id="edge15" class="edge"><title>Node14&#45;&gt;Node13</title>
<path fill="none" stroke="#9a32cd" stroke-dasharray="5,2" d="M357.884,-66.227C391.134,-65.944 441.36,-65.9488 485,-67.7343 490.781,-67.9708 496.737,-68.2703 502.737,-68.6136"/>
<polygon fill="#9a32cd" stroke="#9a32cd" points="357.68,-62.7288 347.715,-66.3271 357.749,-69.7284 357.68,-62.7288"/>
<text text-anchor="middle" x="445.5" y="-70.7343" font-family="Helvetica,sans-Serif" font-size="10.00"> m_values</text>
</g>
<!-- Node15 -->
<g id="node15" class="node"><title>Node15</title>
<polygon fill="none" stroke="#bfbfbf" points="1191,-376.234 1191,-395.234 1220,-395.234 1220,-376.234 1191,-376.234"/>
<text text-anchor="middle" x="1205.5" y="-383.234" font-family="Helvetica,sans-Serif" font-size="10.00">int</text>
</g>
<!-- Node15&#45;&gt;Node1 -->
<g id="edge18" class="edge"><title>Node15&#45;&gt;Node1</title>
<path fill="none" stroke="#9a32cd" stroke-dasharray="5,2" d="M1229.79,-392.414C1313.02,-414.919 1601.37,-481.112 1802,-380.734 1875.14,-344.14 1933.84,-262.498 1958.47,-224.248"/>
<polygon fill="#9a32cd" stroke="#9a32cd" points="1230.63,-389.014 1220.06,-389.724 1228.76,-395.761 1230.63,-389.014"/>
<text text-anchor="middle" x="1618.5" y="-446.734" font-family="Helvetica,sans-Serif" font-size="10.00"> NumDims</text>
<text text-anchor="middle" x="1618.5" y="-435.734" font-family="Helvetica,sans-Serif" font-size="10.00">PacketSize</text>
</g>
<!-- Node15&#45;&gt;Node2 -->
<g id="edge16" class="edge"><title>Node15&#45;&gt;Node2</title>
<path fill="none" stroke="#9a32cd" stroke-dasharray="5,2" d="M1230.4,-385.734C1275.37,-385.734 1373.83,-385.734 1437.96,-385.734"/>
<polygon fill="#9a32cd" stroke="#9a32cd" points="1230.17,-382.234 1220.17,-385.734 1230.17,-389.234 1230.17,-382.234"/>
<text text-anchor="middle" x="1350" y="-388.734" font-family="Helvetica,sans-Serif" font-size="10.00"> count</text>
</g>
<!-- Node15&#45;&gt;Node18 -->
<g id="edge27" class="edge"><title>Node15&#45;&gt;Node18</title>
<path fill="none" stroke="#9a32cd" stroke-dasharray="5,2" d="M1227.56,-369.909C1266.57,-341.7 1353.78,-283.719 1438,-262.734 1518.66,-242.636 1615.25,-251.413 1676.74,-260.917"/>
<polygon fill="#9a32cd" stroke="#9a32cd" points="1225.13,-367.35 1219.13,-376.085 1229.27,-372.996 1225.13,-367.35"/>
<text text-anchor="middle" x="1499" y="-265.734" font-family="Helvetica,sans-Serif" font-size="10.00"> NumCoords</text>
</g>
<!-- Node16&#45;&gt;Node1 -->
<g id="edge19" class="edge"><title>Node16&#45;&gt;Node1</title>
<path fill="none" stroke="#9a32cd" stroke-dasharray="5,2" d="M1430.29,-124.701C1533.73,-117.925 1719.42,-114.036 1871,-155.734 1893.65,-161.966 1917.43,-173.159 1936.11,-183.17"/>
<polygon fill="#9a32cd" stroke="#9a32cd" points="1429.97,-121.214 1420.23,-125.386 1430.44,-128.198 1429.97,-121.214"/>
<text text-anchor="middle" x="1618.5" y="-126.734" font-family="Helvetica,sans-Serif" font-size="10.00"> m_fastStrides</text>
</g>
<!-- Node17 -->
<g id="node17" class="node"><title>Node17</title>
<polygon fill="none" stroke="#bfbfbf" points="1699.5,-84.2343 1699.5,-103.234 1779.5,-103.234 1779.5,-84.2343 1699.5,-84.2343"/>
<text text-anchor="middle" x="1739.5" y="-91.2343" font-family="Helvetica,sans-Serif" font-size="10.00">const Strides</text>
</g>
<!-- Node17&#45;&gt;Node1 -->
<g id="edge21" class="edge"><title>Node17&#45;&gt;Node1</title>
<path fill="none" stroke="#9a32cd" stroke-dasharray="5,2" d="M1789.8,-91.0781C1815.12,-91.5502 1845.86,-95.0614 1871,-106.734 1907.63,-123.746 1939.03,-159.841 1956.43,-182.883"/>
<polygon fill="#9a32cd" stroke="#9a32cd" points="1789.68,-87.5777 1779.66,-91.0426 1789.65,-94.5777 1789.68,-87.5777"/>
<text text-anchor="middle" x="1845.5" y="-109.734" font-family="Helvetica,sans-Serif" font-size="10.00"> m_strides</text>
</g>
<!-- Node18&#45;&gt;Node1 -->
<g id="edge22" class="edge"><title>Node18&#45;&gt;Node1</title>
<path fill="none" stroke="#9a32cd" stroke-dasharray="5,2" d="M1800.67,-254.724C1831.86,-245.384 1870.11,-233.937 1902.45,-224.256"/>
<polygon fill="#9a32cd" stroke="#9a32cd" points="1799.38,-251.456 1790.8,-257.677 1801.38,-258.162 1799.38,-251.456"/>
<text text-anchor="middle" x="1845.5" y="-251.734" font-family="Helvetica,sans-Serif" font-size="10.00"> m_impl</text>
</g>
<!-- Node19 -->
<g id="node19" class="node"><title>Node19</title>
<g id="a_node19"><a xlink:href="structEigen_1_1internal_1_1traits.html" target="_top" xlink:title="Eigen::internal::traits\l\&lt; ArgType \&gt;">
<polygon fill="none" stroke="black" points="1441,-321.734 1441,-351.734 1557,-351.734 1557,-321.734 1441,-321.734"/>
<text text-anchor="start" x="1449" y="-339.734" font-family="Helvetica,sans-Serif" font-size="10.00">Eigen::internal::traits</text>
<text text-anchor="middle" x="1499" y="-328.734" font-family="Helvetica,sans-Serif" font-size="10.00">&lt; ArgType &gt;</text>
</a>
</g>
</g>
<!-- Node19&#45;&gt;Node18 -->
<g id="edge23" class="edge"><title>Node19&#45;&gt;Node18</title>
<path fill="none" stroke="#9a32cd" stroke-dasharray="5,2" d="M1566.95,-323.381C1595.51,-317.221 1629.08,-309.36 1659,-300.734 1672.08,-296.965 1686.14,-292.239 1698.76,-287.749"/>
<polygon fill="#9a32cd" stroke="#9a32cd" points="1566.12,-319.979 1557.07,-325.488 1567.58,-326.825 1566.12,-319.979"/>
<text text-anchor="middle" x="1618.5" y="-323.734" font-family="Helvetica,sans-Serif" font-size="10.00"> m_data</text>
</g>
<!-- Node20 -->
<g id="node20" class="node"><title>Node20</title>
<polygon fill="none" stroke="#bfbfbf" points="1474.5,-283.234 1474.5,-302.234 1523.5,-302.234 1523.5,-283.234 1474.5,-283.234"/>
<text text-anchor="middle" x="1499" y="-290.234" font-family="Helvetica,sans-Serif" font-size="10.00">Device</text>
</g>
<!-- Node20&#45;&gt;Node18 -->
<g id="edge25" class="edge"><title>Node20&#45;&gt;Node18</title>
<path fill="none" stroke="#9a32cd" stroke-dasharray="5,2" d="M1534.01,-289.882C1571.1,-286.772 1631.23,-281.729 1676.71,-277.916"/>
<polygon fill="#9a32cd" stroke="#9a32cd" points="1533.41,-286.42 1523.74,-290.743 1534,-293.396 1533.41,-286.42"/>
<text text-anchor="middle" x="1618.5" y="-288.734" font-family="Helvetica,sans-Serif" font-size="10.00"> m_device</text>
</g>
<!-- Node21 -->
<g id="node21" class="node"><title>Node21</title>
<polygon fill="none" stroke="#bfbfbf" points="1451.5,-198.234 1451.5,-217.234 1546.5,-217.234 1546.5,-198.234 1451.5,-198.234"/>
<text text-anchor="middle" x="1499" y="-205.234" font-family="Helvetica,sans-Serif" font-size="10.00">const ArgType &amp;</text>
</g>
<!-- Node21&#45;&gt;Node18 -->
<g id="edge26" class="edge"><title>Node21&#45;&gt;Node18</title>
<path fill="none" stroke="#9a32cd" stroke-dasharray="5,2" d="M1556.75,-210.079C1587.61,-212.624 1626.09,-217.888 1659,-228.734 1679.68,-235.549 1701.16,-247.803 1716.58,-257.651"/>
<polygon fill="#9a32cd" stroke="#9a32cd" points="1556.83,-206.575 1546.59,-209.315 1556.3,-213.555 1556.83,-206.575"/>
<text text-anchor="middle" x="1618.5" y="-231.734" font-family="Helvetica,sans-Serif" font-size="10.00"> m_impl</text>
</g>
</g>
</svg>
