<?xml version="1.0" encoding="UTF-8" standalone="no"?>
<!DOCTYPE svg PUBLIC "-//W3C//DTD SVG 1.1//EN"
 "http://www.w3.org/Graphics/SVG/1.1/DTD/svg11.dtd">
<!-- Generated by graphviz version 2.38.0 (20140413.2041)
 -->
<!-- Title: Eigen::TensorEvaluator&lt; TensorChippingOp&lt; DimId, ArgType &gt;, Device &gt; Pages: 1 -->
<svg width="2150pt" height="594pt"
 viewBox="0.00 0.00 2150.00 593.73" xmlns="http://www.w3.org/2000/svg" xmlns:xlink="http://www.w3.org/1999/xlink">
<g id="graph0" class="graph" transform="scale(1 1) rotate(0) translate(4 589.734)">
<title>Eigen::TensorEvaluator&lt; TensorChippingOp&lt; DimId, ArgType &gt;, Device &gt;</title>
<!-- Node2 -->
<g id="node1" class="node"><title>Node2</title>
<polygon fill="#bfbfbf" stroke="black" points="1987,-495.234 1987,-536.234 2142,-536.234 2142,-495.234 1987,-495.234"/>
<text text-anchor="start" x="1995" y="-524.234" font-family="Helvetica,sans-Serif" font-size="10.00">Eigen::TensorEvaluator</text>
<text text-anchor="start" x="1995" y="-513.234" font-family="Helvetica,sans-Serif" font-size="10.00">&lt; TensorChippingOp&lt; DimId,</text>
<text text-anchor="middle" x="2064.5" y="-502.234" font-family="Helvetica,sans-Serif" font-size="10.00"> ArgType &gt;, Device &gt;</text>
</g>
<!-- Node3 -->
<g id="node2" class="node"><title>Node3</title>
<g id="a_node2"><a xlink:href="structEigen_1_1TensorEvaluator_3_01const_01TensorChippingOp_3_01DimId_00_01ArgType_01_4_00_01Device_01_4.html" target="_top" xlink:title="Eigen::TensorEvaluator\l\&lt; const TensorChippingOp\l\&lt; DimId, ArgType \&gt;, Device \&gt;">
<polygon fill="none" stroke="black" points="1790,-410.234 1790,-451.234 1950,-451.234 1950,-410.234 1790,-410.234"/>
<text text-anchor="start" x="1798" y="-439.234" font-family="Helvetica,sans-Serif" font-size="10.00">Eigen::TensorEvaluator</text>
<text text-anchor="start" x="1798" y="-428.234" font-family="Helvetica,sans-Serif" font-size="10.00">&lt; const TensorChippingOp</text>
<text text-anchor="middle" x="1870" y="-417.234" font-family="Helvetica,sans-Serif" font-size="10.00">&lt; DimId, ArgType &gt;, Device &gt;</text>
</a>
</g>
</g>
<!-- Node3&#45;&gt;Node2 -->
<g id="edge1" class="edge"><title>Node3&#45;&gt;Node2</title>
<path fill="none" stroke="midnightblue" d="M1927.04,-455.481C1955.6,-468.092 1989.92,-483.245 2017,-495.201"/>
<polygon fill="midnightblue" stroke="midnightblue" points="1928.16,-452.148 1917.6,-451.31 1925.33,-458.552 1928.16,-452.148"/>
</g>
<!-- Node4 -->
<g id="node3" class="node"><title>Node4</title>
<polygon fill="none" stroke="#bfbfbf" points="1578.5,-421.234 1578.5,-440.234 1667.5,-440.234 1667.5,-421.234 1578.5,-421.234"/>
<text text-anchor="middle" x="1623" y="-428.234" font-family="Helvetica,sans-Serif" font-size="10.00">const Device &amp;</text>
</g>
<!-- Node4&#45;&gt;Node3 -->
<g id="edge2" class="edge"><title>Node4&#45;&gt;Node3</title>
<path fill="none" stroke="#9a32cd" stroke-dasharray="5,2" d="M1677.81,-430.734C1710.62,-430.734 1753.14,-430.734 1789.75,-430.734"/>
<polygon fill="#9a32cd" stroke="#9a32cd" points="1677.52,-427.234 1667.52,-430.734 1677.52,-434.234 1677.52,-427.234"/>
<text text-anchor="middle" x="1738" y="-433.734" font-family="Helvetica,sans-Serif" font-size="10.00"> m_device</text>
</g>
<!-- Node5 -->
<g id="node4" class="node"><title>Node5</title>
<polygon fill="none" stroke="#bfbfbf" points="1560,-383.234 1560,-402.234 1686,-402.234 1686,-383.234 1560,-383.234"/>
<text text-anchor="middle" x="1623" y="-390.234" font-family="Helvetica,sans-Serif" font-size="10.00">DimensionId&lt; DimId &gt;</text>
</g>
<!-- Node5&#45;&gt;Node3 -->
<g id="edge3" class="edge"><title>Node5&#45;&gt;Node3</title>
<path fill="none" stroke="#9a32cd" stroke-dasharray="5,2" d="M1695.74,-403.861C1725.26,-408.44 1759.57,-413.761 1789.82,-418.454"/>
<polygon fill="#9a32cd" stroke="#9a32cd" points="1695.93,-400.348 1685.51,-402.274 1694.85,-407.266 1695.93,-400.348"/>
<text text-anchor="middle" x="1738" y="-418.734" font-family="Helvetica,sans-Serif" font-size="10.00"> m_dim</text>
</g>
<!-- Node6 -->
<g id="node5" class="node"><title>Node6</title>
<g id="a_node5"><a xlink:href="structEigen_1_1DSizes.html" target="_top" xlink:title="Eigen::DSizes\&lt; Index,\l NumDims \&gt;">
<polygon fill="none" stroke="black" points="1329,-334.734 1329,-364.734 1451,-364.734 1451,-334.734 1329,-334.734"/>
<text text-anchor="start" x="1337" y="-352.734" font-family="Helvetica,sans-Serif" font-size="10.00">Eigen::DSizes&lt; Index,</text>
<text text-anchor="middle" x="1390" y="-341.734" font-family="Helvetica,sans-Serif" font-size="10.00"> NumDims &gt;</text>
</a>
</g>
</g>
<!-- Node6&#45;&gt;Node3 -->
<g id="edge4" class="edge"><title>Node6&#45;&gt;Node3</title>
<path fill="none" stroke="#9a32cd" stroke-dasharray="5,2" d="M1461.43,-346.733C1521.67,-345.612 1610.36,-347.409 1686,-362.734 1735.33,-372.729 1789.01,-394.01 1825.39,-410.12"/>
<polygon fill="#9a32cd" stroke="#9a32cd" points="1461.19,-343.237 1451.27,-346.955 1461.35,-350.236 1461.19,-343.237"/>
<text text-anchor="middle" x="1623" y="-365.734" font-family="Helvetica,sans-Serif" font-size="10.00"> m_dimensions</text>
</g>
<!-- Node21 -->
<g id="node20" class="node"><title>Node21</title>
<g id="a_node20"><a xlink:href="structEigen_1_1TensorEvaluator.html" target="_top" xlink:title="Eigen::TensorEvaluator\l\&lt; ArgType, Device \&gt;">
<polygon fill="none" stroke="black" points="1560.5,-261.734 1560.5,-291.734 1685.5,-291.734 1685.5,-261.734 1560.5,-261.734"/>
<text text-anchor="start" x="1568.5" y="-279.734" font-family="Helvetica,sans-Serif" font-size="10.00">Eigen::TensorEvaluator</text>
<text text-anchor="middle" x="1623" y="-268.734" font-family="Helvetica,sans-Serif" font-size="10.00">&lt; ArgType, Device &gt;</text>
</a>
</g>
</g>
<!-- Node6&#45;&gt;Node21 -->
<g id="edge24" class="edge"><title>Node6&#45;&gt;Node21</title>
<path fill="none" stroke="#9a32cd" stroke-dasharray="5,2" d="M1455.46,-331.939C1482.33,-324.263 1513.8,-314.945 1542,-305.734 1555.06,-301.469 1569.19,-296.476 1581.89,-291.846"/>
<polygon fill="#9a32cd" stroke="#9a32cd" points="1454.44,-328.589 1445.78,-334.689 1456.35,-335.323 1454.44,-328.589"/>
<text text-anchor="middle" x="1505.5" y="-330.734" font-family="Helvetica,sans-Serif" font-size="10.00"> m_dims</text>
</g>
<!-- Node7 -->
<g id="node6" class="node"><title>Node7</title>
<g id="a_node6"><a xlink:href="classEigen_1_1array.html" target="_top" xlink:title="Eigen::array\&lt; Index,\l NumDims \&gt;">
<polygon fill="none" stroke="black" points="1149,-135.734 1149,-165.734 1262,-165.734 1262,-135.734 1149,-135.734"/>
<text text-anchor="start" x="1157" y="-153.734" font-family="Helvetica,sans-Serif" font-size="10.00">Eigen::array&lt; Index,</text>
<text text-anchor="middle" x="1205.5" y="-142.734" font-family="Helvetica,sans-Serif" font-size="10.00"> NumDims &gt;</text>
</a>
</g>
</g>
<!-- Node7&#45;&gt;Node6 -->
<g id="edge5" class="edge"><title>Node7&#45;&gt;Node6</title>
<path fill="none" stroke="midnightblue" d="M1218.79,-175.303C1237.97,-211.525 1278.15,-279.516 1329,-321.734 1335.01,-326.727 1342.07,-331.043 1349.18,-334.69"/>
<polygon fill="midnightblue" stroke="midnightblue" points="1221.66,-173.238 1213.95,-165.977 1215.45,-176.465 1221.66,-173.238"/>
</g>
<!-- Node8 -->
<g id="node7" class="node"><title>Node8</title>
<g id="a_node7"><a xlink:href="classEigen_1_1Triplet.html" target="_top" xlink:title="Eigen::Triplet\&lt; double \&gt;">
<polygon fill="none" stroke="black" points="948,-141.234 948,-160.234 1079,-160.234 1079,-141.234 948,-141.234"/>
<text text-anchor="middle" x="1013.5" y="-148.234" font-family="Helvetica,sans-Serif" font-size="10.00">Eigen::Triplet&lt; double &gt;</text>
</a>
</g>
</g>
<!-- Node8&#45;&gt;Node7 -->
<g id="edge6" class="edge"><title>Node8&#45;&gt;Node7</title>
<path fill="none" stroke="#9a32cd" stroke-dasharray="5,2" d="M1089.35,-150.734C1109.22,-150.734 1130.33,-150.734 1148.97,-150.734"/>
<polygon fill="#9a32cd" stroke="#9a32cd" points="1089.09,-147.234 1079.09,-150.734 1089.09,-154.234 1089.09,-147.234"/>
<text text-anchor="middle" x="1114" y="-153.734" font-family="Helvetica,sans-Serif" font-size="10.00"> values</text>
</g>
<!-- Node9 -->
<g id="node8" class="node"><title>Node9</title>
<polygon fill="none" stroke="#bfbfbf" points="784.5,-164.234 784.5,-183.234 839.5,-183.234 839.5,-164.234 784.5,-164.234"/>
<text text-anchor="middle" x="812" y="-171.234" font-family="Helvetica,sans-Serif" font-size="10.00">SCALAR</text>
</g>
<!-- Node9&#45;&gt;Node8 -->
<g id="edge7" class="edge"><title>Node9&#45;&gt;Node8</title>
<path fill="none" stroke="#9a32cd" stroke-dasharray="5,2" d="M849.86,-169.485C877.292,-166.322 915.441,-161.924 947.898,-158.182"/>
<polygon fill="#9a32cd" stroke="#9a32cd" points="849.439,-166.01 839.905,-170.632 850.241,-172.964 849.439,-166.01"/>
<text text-anchor="middle" x="908" y="-168.734" font-family="Helvetica,sans-Serif" font-size="10.00"> m_value</text>
</g>
<!-- Node10 -->
<g id="node9" class="node"><title>Node10</title>
<g id="a_node9"><a xlink:href="classEigen_1_1SparseMatrix.html" target="_top" xlink:title="Eigen::SparseMatrix\l\&lt; double \&gt;">
<polygon fill="none" stroke="black" points="756,-113.734 756,-143.734 868,-143.734 868,-113.734 756,-113.734"/>
<text text-anchor="start" x="764" y="-131.734" font-family="Helvetica,sans-Serif" font-size="10.00">Eigen::SparseMatrix</text>
<text text-anchor="middle" x="812" y="-120.734" font-family="Helvetica,sans-Serif" font-size="10.00">&lt; double &gt;</text>
</a>
</g>
</g>
<!-- Node10&#45;&gt;Node8 -->
<g id="edge8" class="edge"><title>Node10&#45;&gt;Node8</title>
<path fill="none" stroke="#9a32cd" stroke-dasharray="5,2" d="M878.54,-126.522C895.366,-126.713 913.401,-127.583 930,-129.734 947.588,-132.014 966.815,-136.771 982.28,-141.181"/>
<polygon fill="#9a32cd" stroke="#9a32cd" points="878.255,-123.021 868.243,-126.486 878.23,-130.021 878.255,-123.021"/>
<text text-anchor="middle" x="908" y="-143.734" font-family="Helvetica,sans-Serif" font-size="10.00"> m_row</text>
<text text-anchor="middle" x="908" y="-132.734" font-family="Helvetica,sans-Serif" font-size="10.00">m_col</text>
</g>
<!-- Node11 -->
<g id="node10" class="node"><title>Node11</title>
<g id="a_node10"><a xlink:href="classEigen_1_1SparseCompressedBase.html" target="_top" xlink:title="Common base class for sparse [compressed]&#45;{row|column}&#45;storage format. ">
<polygon fill="none" stroke="black" points="508,-178.234 508,-219.234 675,-219.234 675,-178.234 508,-178.234"/>
<text text-anchor="start" x="516" y="-207.234" font-family="Helvetica,sans-Serif" font-size="10.00">Eigen::SparseCompressedBase</text>
<text text-anchor="start" x="516" y="-196.234" font-family="Helvetica,sans-Serif" font-size="10.00">&lt; SparseMatrix&lt; double,</text>
<text text-anchor="middle" x="591.5" y="-185.234" font-family="Helvetica,sans-Serif" font-size="10.00"> _Options, _StorageIndex &gt; &gt;</text>
</a>
</g>
</g>
<!-- Node11&#45;&gt;Node10 -->
<g id="edge9" class="edge"><title>Node11&#45;&gt;Node10</title>
<path fill="none" stroke="midnightblue" d="M666.426,-175.051C698.672,-164.721 735.518,-152.916 763.942,-143.81"/>
<polygon fill="midnightblue" stroke="midnightblue" points="665.036,-171.821 656.581,-178.205 667.172,-178.487 665.036,-171.821"/>
</g>
<!-- Node12 -->
<g id="node11" class="node"><title>Node12</title>
<g id="a_node11"><a xlink:href="classEigen_1_1SparseMatrixBase.html" target="_top" xlink:title="Base class of any sparse matrices or sparse expressions. ">
<polygon fill="none" stroke="black" points="252,-183.734 252,-213.734 388,-213.734 388,-183.734 252,-183.734"/>
<text text-anchor="start" x="260" y="-201.734" font-family="Helvetica,sans-Serif" font-size="10.00">Eigen::SparseMatrixBase</text>
<text text-anchor="middle" x="320" y="-190.734" font-family="Helvetica,sans-Serif" font-size="10.00">&lt; Derived &gt;</text>
</a>
</g>
</g>
<!-- Node12&#45;&gt;Node11 -->
<g id="edge10" class="edge"><title>Node12&#45;&gt;Node11</title>
<path fill="none" stroke="midnightblue" d="M398.702,-198.734C432.843,-198.734 472.977,-198.734 507.683,-198.734"/>
<polygon fill="midnightblue" stroke="midnightblue" points="398.311,-195.234 388.311,-198.734 398.311,-202.234 398.311,-195.234"/>
</g>
<!-- Node13 -->
<g id="node12" class="node"><title>Node13</title>
<g id="a_node12"><a xlink:href="structEigen_1_1EigenBase.html" target="_top" xlink:title="Eigen::EigenBase\&lt; Derived \&gt;">
<polygon fill="none" stroke="black" points="0,-208.234 0,-227.234 158,-227.234 158,-208.234 0,-208.234"/>
<text text-anchor="middle" x="79" y="-215.234" font-family="Helvetica,sans-Serif" font-size="10.00">Eigen::EigenBase&lt; Derived &gt;</text>
</a>
</g>
</g>
<!-- Node13&#45;&gt;Node12 -->
<g id="edge11" class="edge"><title>Node13&#45;&gt;Node12</title>
<path fill="none" stroke="midnightblue" d="M168.306,-210.714C195.907,-208.52 225.895,-206.136 251.799,-204.077"/>
<polygon fill="midnightblue" stroke="midnightblue" points="167.949,-207.231 158.258,-211.513 168.503,-214.209 167.949,-207.231"/>
</g>
<!-- Node14 -->
<g id="node13" class="node"><title>Node14</title>
<g id="a_node13"><a xlink:href="classbool.html" target="_top" xlink:title="bool">
<polygon fill="none" stroke="black" points="60.5,-170.234 60.5,-189.234 97.5,-189.234 97.5,-170.234 60.5,-170.234"/>
<text text-anchor="middle" x="79" y="-177.234" font-family="Helvetica,sans-Serif" font-size="10.00">bool</text>
</a>
</g>
</g>
<!-- Node14&#45;&gt;Node12 -->
<g id="edge12" class="edge"><title>Node14&#45;&gt;Node12</title>
<path fill="none" stroke="#9a32cd" stroke-dasharray="5,2" d="M107.55,-181.844C138.365,-184.213 189.763,-188.189 234,-191.734 239.756,-192.196 245.731,-192.679 251.725,-193.167"/>
<polygon fill="#9a32cd" stroke="#9a32cd" points="107.793,-178.353 97.5545,-181.077 107.257,-185.332 107.793,-178.353"/>
<text text-anchor="middle" x="205" y="-194.734" font-family="Helvetica,sans-Serif" font-size="10.00"> m_isRValue</text>
</g>
<!-- Node15 -->
<g id="node14" class="node"><title>Node15</title>
<polygon fill="none" stroke="#bfbfbf" points="254.5,-109.734 254.5,-139.734 385.5,-139.734 385.5,-109.734 254.5,-109.734"/>
<text text-anchor="start" x="262.5" y="-127.734" font-family="Helvetica,sans-Serif" font-size="10.00">EIGEN_DEFAULT_DENSE</text>
<text text-anchor="middle" x="320" y="-116.734" font-family="Helvetica,sans-Serif" font-size="10.00">_INDEX_TYPE</text>
</g>
<!-- Node15&#45;&gt;Node10 -->
<g id="edge13" class="edge"><title>Node15&#45;&gt;Node10</title>
<path fill="none" stroke="#9a32cd" stroke-dasharray="5,2" d="M395.806,-125.345C494.952,-126.154 667.596,-127.564 755.757,-128.283"/>
<polygon fill="#9a32cd" stroke="#9a32cd" points="395.591,-121.843 385.563,-125.261 395.534,-128.843 395.591,-121.843"/>
<text text-anchor="middle" x="591.5" y="-141.734" font-family="Helvetica,sans-Serif" font-size="10.00"> m_outerSize</text>
<text text-anchor="middle" x="591.5" y="-130.734" font-family="Helvetica,sans-Serif" font-size="10.00">m_innerSize</text>
</g>
<!-- Node17 -->
<g id="node16" class="node"><title>Node17</title>
<g id="a_node16"><a xlink:href="classEigen_1_1internal_1_1CompressedStorage.html" target="_top" xlink:title="Eigen::internal::Compressed\lStorage\&lt; Scalar, StorageIndex \&gt;">
<polygon fill="none" stroke="black" points="503,-60.7343 503,-90.7343 680,-90.7343 680,-60.7343 503,-60.7343"/>
<text text-anchor="start" x="511" y="-78.7343" font-family="Helvetica,sans-Serif" font-size="10.00">Eigen::internal::Compressed</text>
<text text-anchor="middle" x="591.5" y="-67.7343" font-family="Helvetica,sans-Serif" font-size="10.00">Storage&lt; Scalar, StorageIndex &gt;</text>
</a>
</g>
</g>
<!-- Node15&#45;&gt;Node17 -->
<g id="edge16" class="edge"><title>Node15&#45;&gt;Node17</title>
<path fill="none" stroke="#9a32cd" stroke-dasharray="5,2" d="M382.378,-107.158C390.291,-105.178 398.313,-103.31 406,-101.734 437.372,-95.3052 472.072,-89.9603 502.834,-85.8225"/>
<polygon fill="#9a32cd" stroke="#9a32cd" points="381.259,-103.832 372.447,-109.713 383.003,-110.611 381.259,-103.832"/>
<text text-anchor="middle" x="445.5" y="-115.734" font-family="Helvetica,sans-Serif" font-size="10.00"> m_size</text>
<text text-anchor="middle" x="445.5" y="-104.734" font-family="Helvetica,sans-Serif" font-size="10.00">m_allocatedSize</text>
</g>
<!-- Node16 -->
<g id="node15" class="node"><title>Node16</title>
<polygon fill="none" stroke="#bfbfbf" points="275.5,-5.23429 275.5,-24.2343 364.5,-24.2343 364.5,-5.23429 275.5,-5.23429"/>
<text text-anchor="middle" x="320" y="-12.2343" font-family="Helvetica,sans-Serif" font-size="10.00">StorageIndex *</text>
</g>
<!-- Node16&#45;&gt;Node10 -->
<g id="edge14" class="edge"><title>Node16&#45;&gt;Node10</title>
<path fill="none" stroke="#9a32cd" stroke-dasharray="5,2" d="M374.77,-7.00232C446.689,1.16984 577.076,8.31047 680,-28.7343 729.536,-46.5632 775.539,-90.4232 797.497,-113.684"/>
<polygon fill="#9a32cd" stroke="#9a32cd" points="374.111,-3.55587 364.593,-8.2104 374.936,-10.5071 374.111,-3.55587"/>
<text text-anchor="middle" x="591.5" y="-42.7343" font-family="Helvetica,sans-Serif" font-size="10.00"> m_outerIndex</text>
<text text-anchor="middle" x="591.5" y="-31.7343" font-family="Helvetica,sans-Serif" font-size="10.00">m_innerNonZeros</text>
</g>
<!-- Node16&#45;&gt;Node17 -->
<g id="edge17" class="edge"><title>Node16&#45;&gt;Node17</title>
<path fill="none" stroke="#9a32cd" stroke-dasharray="5,2" d="M373.563,-26.568C405.741,-33.8186 447.755,-43.2964 485,-51.7343 497.732,-54.6187 511.327,-57.7059 524.377,-60.6732"/>
<polygon fill="#9a32cd" stroke="#9a32cd" points="374.005,-23.0798 363.48,-24.2963 372.466,-29.9086 374.005,-23.0798"/>
<text text-anchor="middle" x="445.5" y="-54.7343" font-family="Helvetica,sans-Serif" font-size="10.00"> m_indices</text>
</g>
<!-- Node17&#45;&gt;Node10 -->
<g id="edge15" class="edge"><title>Node17&#45;&gt;Node10</title>
<path fill="none" stroke="#9a32cd" stroke-dasharray="5,2" d="M664.446,-93.1856C694.207,-100.405 728.165,-108.641 755.894,-115.368"/>
<polygon fill="#9a32cd" stroke="#9a32cd" points="665.072,-89.7362 654.529,-90.7802 663.422,-96.5389 665.072,-89.7362"/>
<text text-anchor="middle" x="718" y="-113.734" font-family="Helvetica,sans-Serif" font-size="10.00"> m_data</text>
</g>
<!-- Node18 -->
<g id="node17" class="node"><title>Node18</title>
<polygon fill="none" stroke="#bfbfbf" points="292.5,-57.2343 292.5,-76.2343 347.5,-76.2343 347.5,-57.2343 292.5,-57.2343"/>
<text text-anchor="middle" x="320" y="-64.2343" font-family="Helvetica,sans-Serif" font-size="10.00">Scalar *</text>
</g>
<!-- Node18&#45;&gt;Node17 -->
<g id="edge18" class="edge"><title>Node18&#45;&gt;Node17</title>
<path fill="none" stroke="#9a32cd" stroke-dasharray="5,2" d="M357.884,-66.227C391.134,-65.944 441.36,-65.9488 485,-67.7343 490.781,-67.9708 496.737,-68.2703 502.737,-68.6136"/>
<polygon fill="#9a32cd" stroke="#9a32cd" points="357.68,-62.7288 347.715,-66.3271 357.749,-69.7284 357.68,-62.7288"/>
<text text-anchor="middle" x="445.5" y="-70.7343" font-family="Helvetica,sans-Serif" font-size="10.00"> m_values</text>
</g>
<!-- Node19 -->
<g id="node18" class="node"><title>Node19</title>
<polygon fill="none" stroke="#bfbfbf" points="1191,-422.234 1191,-441.234 1220,-441.234 1220,-422.234 1191,-422.234"/>
<text text-anchor="middle" x="1205.5" y="-429.234" font-family="Helvetica,sans-Serif" font-size="10.00">int</text>
</g>
<!-- Node19&#45;&gt;Node2 -->
<g id="edge28" class="edge"><title>Node19&#45;&gt;Node2</title>
<path fill="none" stroke="#9a32cd" stroke-dasharray="5,2" d="M1220.59,-449.749C1248.68,-483.467 1315.37,-552.734 1389,-552.734 1389,-552.734 1389,-552.734 1871,-552.734 1911.33,-552.734 1955.57,-544.806 1991.46,-536.29"/>
<polygon fill="#9a32cd" stroke="#9a32cd" points="1223.02,-447.194 1214,-441.636 1217.58,-451.606 1223.02,-447.194"/>
<text text-anchor="middle" x="1623" y="-577.734" font-family="Helvetica,sans-Serif" font-size="10.00"> NumDims</text>
<text text-anchor="middle" x="1623" y="-566.734" font-family="Helvetica,sans-Serif" font-size="10.00">PacketSize</text>
<text text-anchor="middle" x="1623" y="-555.734" font-family="Helvetica,sans-Serif" font-size="10.00">NumInputDims</text>
</g>
<!-- Node19&#45;&gt;Node3 -->
<g id="edge21" class="edge"><title>Node19&#45;&gt;Node3</title>
<path fill="none" stroke="#9a32cd" stroke-dasharray="5,2" d="M1230.62,-433.677C1300.85,-439.108 1511.26,-453.796 1686,-449.734 1724.25,-448.845 1733.93,-449.552 1772,-445.734 1777.85,-445.148 1783.88,-444.447 1789.95,-443.673"/>
<polygon fill="#9a32cd" stroke="#9a32cd" points="1230.47,-430.154 1220.23,-432.861 1229.92,-437.133 1230.47,-430.154"/>
<text text-anchor="middle" x="1505.5" y="-474.734" font-family="Helvetica,sans-Serif" font-size="10.00"> NumDims</text>
<text text-anchor="middle" x="1505.5" y="-463.734" font-family="Helvetica,sans-Serif" font-size="10.00">PacketSize</text>
<text text-anchor="middle" x="1505.5" y="-452.734" font-family="Helvetica,sans-Serif" font-size="10.00">NumInputDims</text>
</g>
<!-- Node19&#45;&gt;Node6 -->
<g id="edge19" class="edge"><title>Node19&#45;&gt;Node6</title>
<path fill="none" stroke="#9a32cd" stroke-dasharray="5,2" d="M1229.57,-421.371C1261.31,-407.106 1318.69,-381.324 1355.27,-364.892"/>
<polygon fill="#9a32cd" stroke="#9a32cd" points="1227.9,-418.28 1220.22,-425.571 1230.77,-424.665 1227.9,-418.28"/>
<text text-anchor="middle" x="1295.5" y="-401.734" font-family="Helvetica,sans-Serif" font-size="10.00"> count</text>
</g>
<!-- Node19&#45;&gt;Node21 -->
<g id="edge27" class="edge"><title>Node19&#45;&gt;Node21</title>
<path fill="none" stroke="#9a32cd" stroke-dasharray="5,2" d="M1209.27,-412.079C1217.34,-363.192 1245.79,-236.348 1329,-184.734 1422.79,-126.559 1556.47,-222.616 1604.21,-261.519"/>
<polygon fill="#9a32cd" stroke="#9a32cd" points="1205.8,-411.595 1207.74,-422.012 1212.72,-412.662 1205.8,-411.595"/>
<text text-anchor="middle" x="1390" y="-187.734" font-family="Helvetica,sans-Serif" font-size="10.00"> NumCoords</text>
</g>
<!-- Node20 -->
<g id="node19" class="node"><title>Node20</title>
<polygon fill="none" stroke="#bfbfbf" points="1602,-497.234 1602,-516.234 1644,-516.234 1644,-497.234 1602,-497.234"/>
<text text-anchor="middle" x="1623" y="-504.234" font-family="Helvetica,sans-Serif" font-size="10.00">Index</text>
</g>
<!-- Node20&#45;&gt;Node3 -->
<g id="edge20" class="edge"><title>Node20&#45;&gt;Node3</title>
<path fill="none" stroke="#9a32cd" stroke-dasharray="5,2" d="M1654.12,-504.781C1684.53,-502.135 1732.52,-496.099 1772,-482.734 1794.8,-475.014 1818.66,-462.297 1837.01,-451.371"/>
<polygon fill="#9a32cd" stroke="#9a32cd" points="1653.82,-501.293 1644.14,-505.582 1654.38,-508.27 1653.82,-501.293"/>
<text text-anchor="middle" x="1738" y="-523.734" font-family="Helvetica,sans-Serif" font-size="10.00"> m_stride</text>
<text text-anchor="middle" x="1738" y="-512.734" font-family="Helvetica,sans-Serif" font-size="10.00">m_inputOffset</text>
<text text-anchor="middle" x="1738" y="-501.734" font-family="Helvetica,sans-Serif" font-size="10.00">m_inputStride</text>
</g>
<!-- Node21&#45;&gt;Node3 -->
<g id="edge22" class="edge"><title>Node21&#45;&gt;Node3</title>
<path fill="none" stroke="#9a32cd" stroke-dasharray="5,2" d="M1695.27,-294.28C1720.7,-302.43 1748.78,-313.715 1772,-328.734 1806.06,-350.768 1836.73,-387.115 1854.09,-409.948"/>
<polygon fill="#9a32cd" stroke="#9a32cd" points="1696.25,-290.921 1685.67,-291.308 1694.18,-297.608 1696.25,-290.921"/>
<text text-anchor="middle" x="1738" y="-331.734" font-family="Helvetica,sans-Serif" font-size="10.00"> m_impl</text>
</g>
<!-- Node22 -->
<g id="node21" class="node"><title>Node22</title>
<g id="a_node21"><a xlink:href="structEigen_1_1internal_1_1traits.html" target="_top" xlink:title="Eigen::internal::traits\l\&lt; ArgType \&gt;">
<polygon fill="none" stroke="black" points="1332,-205.734 1332,-235.734 1448,-235.734 1448,-205.734 1332,-205.734"/>
<text text-anchor="start" x="1340" y="-223.734" font-family="Helvetica,sans-Serif" font-size="10.00">Eigen::internal::traits</text>
<text text-anchor="middle" x="1390" y="-212.734" font-family="Helvetica,sans-Serif" font-size="10.00">&lt; ArgType &gt;</text>
</a>
</g>
</g>
<!-- Node22&#45;&gt;Node21 -->
<g id="edge23" class="edge"><title>Node22&#45;&gt;Node21</title>
<path fill="none" stroke="#9a32cd" stroke-dasharray="5,2" d="M1458.59,-227.51C1484.92,-231.061 1515.16,-236.272 1542,-243.734 1558.36,-248.282 1575.86,-255.245 1590.31,-261.604"/>
<polygon fill="#9a32cd" stroke="#9a32cd" points="1458.69,-223.994 1448.33,-226.182 1457.8,-230.936 1458.69,-223.994"/>
<text text-anchor="middle" x="1505.5" y="-246.734" font-family="Helvetica,sans-Serif" font-size="10.00"> m_data</text>
</g>
<!-- Node23 -->
<g id="node22" class="node"><title>Node23</title>
<polygon fill="none" stroke="#bfbfbf" points="1365.5,-293.234 1365.5,-312.234 1414.5,-312.234 1414.5,-293.234 1365.5,-293.234"/>
<text text-anchor="middle" x="1390" y="-300.234" font-family="Helvetica,sans-Serif" font-size="10.00">Device</text>
</g>
<!-- Node23&#45;&gt;Node21 -->
<g id="edge25" class="edge"><title>Node23&#45;&gt;Node21</title>
<path fill="none" stroke="#9a32cd" stroke-dasharray="5,2" d="M1425.16,-298.89C1460.64,-294.896 1516.92,-288.561 1560.24,-283.686"/>
<polygon fill="#9a32cd" stroke="#9a32cd" points="1424.4,-295.453 1414.85,-300.05 1425.18,-302.409 1424.4,-295.453"/>
<text text-anchor="middle" x="1505.5" y="-296.734" font-family="Helvetica,sans-Serif" font-size="10.00"> m_device</text>
</g>
<!-- Node24 -->
<g id="node23" class="node"><title>Node24</title>
<polygon fill="none" stroke="#bfbfbf" points="1342.5,-255.234 1342.5,-274.234 1437.5,-274.234 1437.5,-255.234 1342.5,-255.234"/>
<text text-anchor="middle" x="1390" y="-262.234" font-family="Helvetica,sans-Serif" font-size="10.00">const ArgType &amp;</text>
</g>
<!-- Node24&#45;&gt;Node21 -->
<g id="edge26" class="edge"><title>Node24&#45;&gt;Node21</title>
<path fill="none" stroke="#9a32cd" stroke-dasharray="5,2" d="M1447.84,-259.878C1476.19,-258.306 1510.97,-257.662 1542,-260.734 1547.92,-261.32 1554.05,-262.145 1560.16,-263.114"/>
<polygon fill="#9a32cd" stroke="#9a32cd" points="1447.47,-256.393 1437.7,-260.493 1447.9,-263.38 1447.47,-256.393"/>
<text text-anchor="middle" x="1505.5" y="-263.734" font-family="Helvetica,sans-Serif" font-size="10.00"> m_impl</text>
</g>
</g>
</svg>
