<?xml version="1.0" encoding="UTF-8" standalone="no"?>
<!DOCTYPE svg PUBLIC "-//W3C//DTD SVG 1.1//EN"
 "http://www.w3.org/Graphics/SVG/1.1/DTD/svg11.dtd">
<!-- Generated by graphviz version 2.38.0 (20140413.2041)
 -->
<!-- Title: Eigen::internal::kiss_cpx_fft::make_twiddles Pages: 1 -->
<svg width="225pt" height="104pt"
 viewBox="0.00 0.00 225.00 104.00" xmlns="http://www.w3.org/2000/svg" xmlns:xlink="http://www.w3.org/1999/xlink">
<g id="graph0" class="graph" transform="scale(1 1) rotate(0) translate(4 100)">
<title>Eigen::internal::kiss_cpx_fft::make_twiddles</title>
<!-- Node25 -->
<g id="node1" class="node"><title>Node25</title>
<polygon fill="#bfbfbf" stroke="black" points="0,-33 0,-63 130,-63 130,-33 0,-33"/>
<text text-anchor="start" x="8" y="-51" font-family="Helvetica,sans-Serif" font-size="10.00">Eigen::internal::kiss</text>
<text text-anchor="middle" x="65" y="-40" font-family="Helvetica,sans-Serif" font-size="10.00">_cpx_fft::make_twiddles</text>
</g>
<!-- Node26 -->
<g id="node2" class="node"><title>Node26</title>
<g id="a_node2"><a xlink:href="ArrayCwiseUnaryOps_8h.html#a4ae93c48c742ccd51e0ec59fa85b49bd" target="_top" xlink:title="acos">
<polygon fill="none" stroke="black" points="172,-76.5 172,-95.5 211,-95.5 211,-76.5 172,-76.5"/>
<text text-anchor="middle" x="191.5" y="-83.5" font-family="Helvetica,sans-Serif" font-size="10.00">acos</text>
</a>
</g>
</g>
<!-- Node25&#45;&gt;Node26 -->
<g id="edge1" class="edge"><title>Node25&#45;&gt;Node26</title>
<path fill="none" stroke="midnightblue" d="M115.206,-63.0186C131.021,-67.8458 148.013,-73.032 161.845,-77.2539"/>
<polygon fill="midnightblue" stroke="midnightblue" points="161.149,-80.7007 171.735,-80.2724 163.192,-74.0056 161.149,-80.7007"/>
</g>
<!-- Node27 -->
<g id="node3" class="node"><title>Node27</title>
<g id="a_node3"><a xlink:href="ArrayCwiseUnaryOps_8h.html#a2500b5d4f377a445cb98d3f1facfa1cf" target="_top" xlink:title="exp">
<polygon fill="none" stroke="black" points="174.5,-38.5 174.5,-57.5 208.5,-57.5 208.5,-38.5 174.5,-38.5"/>
<text text-anchor="middle" x="191.5" y="-45.5" font-family="Helvetica,sans-Serif" font-size="10.00">exp</text>
</a>
</g>
</g>
<!-- Node25&#45;&gt;Node27 -->
<g id="edge2" class="edge"><title>Node25&#45;&gt;Node27</title>
<path fill="none" stroke="midnightblue" d="M130.073,-48C142.15,-48 154.135,-48 164.208,-48"/>
<polygon fill="midnightblue" stroke="midnightblue" points="164.302,-51.5001 174.302,-48 164.302,-44.5001 164.302,-51.5001"/>
</g>
<!-- Node28 -->
<g id="node4" class="node"><title>Node28</title>
<g id="a_node4"><a xlink:href="ArrayCwiseUnaryOps_8h.html#ab3df1b08b9c073db2a7e61a9b06bb295" target="_top" xlink:title="inverse">
<polygon fill="none" stroke="black" points="166,-0.5 166,-19.5 217,-19.5 217,-0.5 166,-0.5"/>
<text text-anchor="middle" x="191.5" y="-7.5" font-family="Helvetica,sans-Serif" font-size="10.00">inverse</text>
</a>
</g>
</g>
<!-- Node25&#45;&gt;Node28 -->
<g id="edge3" class="edge"><title>Node25&#45;&gt;Node28</title>
<path fill="none" stroke="midnightblue" d="M115.206,-32.9814C128.935,-28.7908 143.551,-24.3297 156.217,-20.4638"/>
<polygon fill="midnightblue" stroke="midnightblue" points="157.36,-23.7744 165.903,-17.5076 155.317,-17.0794 157.36,-23.7744"/>
</g>
</g>
</svg>
