<?xml version="1.0" encoding="UTF-8" standalone="no"?>
<!DOCTYPE svg PUBLIC "-//W3C//DTD SVG 1.1//EN"
 "http://www.w3.org/Graphics/SVG/1.1/DTD/svg11.dtd">
<!-- Generated by graphviz version 2.38.0 (20140413.2041)
 -->
<!-- Title: Eigen::TensorEvaluator&lt; const TensorStridingSlicingOp&lt; StartIndices, StopIndices, Strides, ArgType &gt;, Device &gt; Pages: 1 -->
<!--zoomable 501 -->
<svg id="main" version="1.1" xmlns="http://www.w3.org/2000/svg" xmlns:xlink="http://www.w3.org/1999/xlink" xml:space="preserve" onload="init(evt)">
<style type="text/css"><![CDATA[
.edge:hover path { stroke: red; }
.edge:hover polygon { stroke: red; fill: red; }
]]></style>
<script type="text/javascript"><![CDATA[
var edges = document.getElementsByTagName('g');
if (edges && edges.length) {
  for (var i=0;i<edges.length;i++) {
    if (edges[i].id.substr(0,4)=='edge') {
      edges[i].setAttribute('class','edge');
    }
  }
}
]]></script>
        <defs>
                <circle id="rim" cx="0" cy="0" r="7"/>
                <circle id="rim2" cx="0" cy="0" r="3.5"/>
                <g id="zoomPlus">
                        <use xlink:href="#rim" fill="#404040">
                                <set attributeName="fill" to="#808080" begin="zoomplus.mouseover" end="zoomplus.mouseout"/>
                        </use>
                        <path d="M-4,0h8M0,-4v8" fill="none" stroke="white" stroke-width="1.5" pointer-events="none"/>
                </g>
                <g id="zoomMin">
                        <use xlink:href="#rim" fill="#404040">
                                <set attributeName="fill" to="#808080" begin="zoomminus.mouseover" end="zoomminus.mouseout"/>
                        </use>
                        <path d="M-4,0h8" fill="none" stroke="white" stroke-width="1.5" pointer-events="none"/>
                </g>
                <g id="dirArrow">
                        <path fill="none" stroke="white" stroke-width="1.5" d="M0,-3.0v7 M-2.5,-0.5L0,-3.0L2.5,-0.5"/>
                </g>
               <g id="resetDef">
                       <use xlink:href="#rim2" fill="#404040">
                               <set attributeName="fill" to="#808080" begin="reset.mouseover" end="reset.mouseout"/>
                       </use>
               </g>
        </defs>

<script type="text/javascript">
var viewWidth = 2152;
var viewHeight = 501;
var sectionId = 'dynsection-1';
</script>
<script xlink:href="svgpan.js"/>
<svg id="graph" class="graph">
<g id="viewport">
<title>Eigen::TensorEvaluator&lt; const TensorStridingSlicingOp&lt; StartIndices, StopIndices, Strides, ArgType &gt;, Device &gt;</title>
<!-- Node2 -->
<g id="node1" class="node"><title>Node2</title>
<polygon fill="#bfbfbf" stroke="black" points="1981,-176.734 1981,-228.734 2144,-228.734 2144,-176.734 1981,-176.734"/>
<text text-anchor="start" x="1989" y="-216.734" font-family="Helvetica,sans-Serif" font-size="10.00">Eigen::TensorEvaluator</text>
<text text-anchor="start" x="1989" y="-205.734" font-family="Helvetica,sans-Serif" font-size="10.00">&lt; const TensorStridingSlicing</text>
<text text-anchor="start" x="1989" y="-194.734" font-family="Helvetica,sans-Serif" font-size="10.00">Op&lt; StartIndices, StopIndices,</text>
<text text-anchor="middle" x="2062.5" y="-183.734" font-family="Helvetica,sans-Serif" font-size="10.00"> Strides, ArgType &gt;, Device &gt;</text>
</g>
<!-- Node3 -->
<g id="node2" class="node"><title>Node3</title>
<polygon fill="none" stroke="#bfbfbf" points="1717,-464.234 1717,-483.234 1806,-483.234 1806,-464.234 1717,-464.234"/>
<text text-anchor="middle" x="1761.5" y="-471.234" font-family="Helvetica,sans-Serif" font-size="10.00">const Device &amp;</text>
</g>
<!-- Node3&#45;&gt;Node2 -->
<g id="edge1" class="edge"><title>Node3&#45;&gt;Node2</title>
<path fill="none" stroke="#9a32cd" stroke-dasharray="5,2" d="M1816.55,-481.339C1860.41,-484.474 1921.57,-481.575 1963,-449.734 2034.38,-394.879 2054.17,-280.279 2059.55,-228.78"/>
<polygon fill="#9a32cd" stroke="#9a32cd" points="1816.61,-477.832 1806.35,-480.481 1816.02,-484.808 1816.61,-477.832"/>
<text text-anchor="middle" x="1902.5" y="-484.734" font-family="Helvetica,sans-Serif" font-size="10.00"> m_device</text>
</g>
<!-- Node4 -->
<g id="node3" class="node"><title>Node4</title>
<g id="a_node3"><a xlink:href="structEigen_1_1DSizes.html" target="_top" xlink:title="Eigen::DSizes\&lt; Index,\l NumDims \&gt;">
<polygon fill="none" stroke="black" points="1438,-370.734 1438,-400.734 1560,-400.734 1560,-370.734 1438,-370.734"/>
<text text-anchor="start" x="1446" y="-388.734" font-family="Helvetica,sans-Serif" font-size="10.00">Eigen::DSizes&lt; Index,</text>
<text text-anchor="middle" x="1499" y="-377.734" font-family="Helvetica,sans-Serif" font-size="10.00"> NumDims &gt;</text>
</a>
</g>
</g>
<!-- Node4&#45;&gt;Node2 -->
<g id="edge2" class="edge"><title>Node4&#45;&gt;Node2</title>
<path fill="none" stroke="#9a32cd" stroke-dasharray="5,2" d="M1570.32,-382.177C1604.09,-379.5 1644.96,-374.835 1681,-366.734 1810.6,-337.603 1844,-326.76 1963,-267.734 1985.03,-256.809 2008.05,-241.844 2026.29,-229.027"/>
<polygon fill="#9a32cd" stroke="#9a32cd" points="1569.79,-378.707 1560.08,-382.945 1570.31,-385.687 1569.79,-378.707"/>
<text text-anchor="middle" x="1761.5" y="-387.734" font-family="Helvetica,sans-Serif" font-size="10.00"> m_dimensions</text>
<text text-anchor="middle" x="1761.5" y="-376.734" font-family="Helvetica,sans-Serif" font-size="10.00">m_startIndices</text>
<text text-anchor="middle" x="1761.5" y="-365.734" font-family="Helvetica,sans-Serif" font-size="10.00">m_offsets</text>
</g>
<!-- Node21 -->
<g id="node20" class="node"><title>Node21</title>
<g id="a_node20"><a xlink:href="structEigen_1_1TensorEvaluator.html" target="_top" xlink:title="Eigen::TensorEvaluator\l\&lt; ArgType, Device \&gt;">
<polygon fill="none" stroke="black" points="1699,-254.734 1699,-284.734 1824,-284.734 1824,-254.734 1699,-254.734"/>
<text text-anchor="start" x="1707" y="-272.734" font-family="Helvetica,sans-Serif" font-size="10.00">Eigen::TensorEvaluator</text>
<text text-anchor="middle" x="1761.5" y="-261.734" font-family="Helvetica,sans-Serif" font-size="10.00">&lt; ArgType, Device &gt;</text>
</a>
</g>
</g>
<!-- Node4&#45;&gt;Node21 -->
<g id="edge26" class="edge"><title>Node4&#45;&gt;Node21</title>
<path fill="none" stroke="#9a32cd" stroke-dasharray="5,2" d="M1545.25,-367.035C1555.89,-363.001 1567.26,-358.979 1578,-355.734 1622.9,-342.167 1638.66,-352.921 1681,-332.734 1706.27,-320.684 1730.82,-299.299 1745.79,-284.824"/>
<polygon fill="#9a32cd" stroke="#9a32cd" points="1543.79,-363.847 1535.73,-370.72 1546.32,-370.376 1543.79,-363.847"/>
<text text-anchor="middle" x="1629.5" y="-358.734" font-family="Helvetica,sans-Serif" font-size="10.00"> m_dims</text>
</g>
<!-- Node5 -->
<g id="node4" class="node"><title>Node5</title>
<g id="a_node4"><a xlink:href="classEigen_1_1array.html" target="_top" xlink:title="Eigen::array\&lt; Index,\l NumDims \&gt;">
<polygon fill="none" stroke="black" points="1149,-160.734 1149,-190.734 1262,-190.734 1262,-160.734 1149,-160.734"/>
<text text-anchor="start" x="1157" y="-178.734" font-family="Helvetica,sans-Serif" font-size="10.00">Eigen::array&lt; Index,</text>
<text text-anchor="middle" x="1205.5" y="-167.734" font-family="Helvetica,sans-Serif" font-size="10.00"> NumDims &gt;</text>
</a>
</g>
</g>
<!-- Node5&#45;&gt;Node2 -->
<g id="edge18" class="edge"><title>Node5&#45;&gt;Node2</title>
<path fill="none" stroke="#9a32cd" stroke-dasharray="5,2" d="M1272.26,-176.394C1363.88,-177.447 1535.1,-179.901 1681,-184.734 1784.61,-188.167 1903.99,-194.144 1980.99,-198.263"/>
<polygon fill="#9a32cd" stroke="#9a32cd" points="1272.07,-172.892 1262.03,-176.278 1271.99,-179.891 1272.07,-172.892"/>
<text text-anchor="middle" x="1629.5" y="-198.734" font-family="Helvetica,sans-Serif" font-size="10.00"> m_inputStrides</text>
<text text-anchor="middle" x="1629.5" y="-187.734" font-family="Helvetica,sans-Serif" font-size="10.00">m_outputStrides</text>
</g>
<!-- Node5&#45;&gt;Node4 -->
<g id="edge3" class="edge"><title>Node5&#45;&gt;Node4</title>
<path fill="none" stroke="midnightblue" d="M1229.52,-197.828C1269.39,-235.195 1354.99,-311.594 1438,-360.734 1444.12,-364.356 1450.86,-367.709 1457.54,-370.707"/>
<polygon fill="midnightblue" stroke="midnightblue" points="1231.85,-195.211 1222.18,-190.894 1227.05,-200.303 1231.85,-195.211"/>
</g>
<!-- Node6 -->
<g id="node5" class="node"><title>Node6</title>
<g id="a_node5"><a xlink:href="classEigen_1_1Triplet.html" target="_top" xlink:title="Eigen::Triplet\&lt; double \&gt;">
<polygon fill="none" stroke="black" points="948,-141.234 948,-160.234 1079,-160.234 1079,-141.234 948,-141.234"/>
<text text-anchor="middle" x="1013.5" y="-148.234" font-family="Helvetica,sans-Serif" font-size="10.00">Eigen::Triplet&lt; double &gt;</text>
</a>
</g>
</g>
<!-- Node6&#45;&gt;Node5 -->
<g id="edge4" class="edge"><title>Node6&#45;&gt;Node5</title>
<path fill="none" stroke="#9a32cd" stroke-dasharray="5,2" d="M1089.08,-160.547C1109.03,-163.172 1130.24,-165.964 1148.97,-168.427"/>
<polygon fill="#9a32cd" stroke="#9a32cd" points="1089.46,-157.068 1079.09,-159.233 1088.55,-164.008 1089.46,-157.068"/>
<text text-anchor="middle" x="1114" y="-168.734" font-family="Helvetica,sans-Serif" font-size="10.00"> values</text>
</g>
<!-- Node18 -->
<g id="node17" class="node"><title>Node18</title>
<g id="a_node17"><a xlink:href="classEigen_1_1array.html" target="_top" xlink:title="Eigen::array\&lt; Eigen\l::internal::TensorIntDivisor\l\&lt; Index \&gt;, NumDims \&gt;">
<polygon fill="none" stroke="black" points="1280,-111.234 1280,-152.234 1420,-152.234 1420,-111.234 1280,-111.234"/>
<text text-anchor="start" x="1288" y="-140.234" font-family="Helvetica,sans-Serif" font-size="10.00">Eigen::array&lt; Eigen</text>
<text text-anchor="start" x="1288" y="-129.234" font-family="Helvetica,sans-Serif" font-size="10.00">::internal::TensorIntDivisor</text>
<text text-anchor="middle" x="1350" y="-118.234" font-family="Helvetica,sans-Serif" font-size="10.00">&lt; Index &gt;, NumDims &gt;</text>
</a>
</g>
</g>
<!-- Node6&#45;&gt;Node18 -->
<g id="edge21" class="edge"><title>Node6&#45;&gt;Node18</title>
<path fill="none" stroke="#9a32cd" stroke-dasharray="5,2" d="M1089.43,-146.478C1146.49,-143.237 1224.42,-138.81 1279.97,-135.655"/>
<polygon fill="#9a32cd" stroke="#9a32cd" points="1089.18,-142.987 1079.39,-147.048 1089.57,-149.976 1089.18,-142.987"/>
<text text-anchor="middle" x="1114" y="-149.734" font-family="Helvetica,sans-Serif" font-size="10.00"> values</text>
</g>
<!-- Node7 -->
<g id="node6" class="node"><title>Node7</title>
<polygon fill="none" stroke="#bfbfbf" points="784.5,-164.234 784.5,-183.234 839.5,-183.234 839.5,-164.234 784.5,-164.234"/>
<text text-anchor="middle" x="812" y="-171.234" font-family="Helvetica,sans-Serif" font-size="10.00">SCALAR</text>
</g>
<!-- Node7&#45;&gt;Node6 -->
<g id="edge5" class="edge"><title>Node7&#45;&gt;Node6</title>
<path fill="none" stroke="#9a32cd" stroke-dasharray="5,2" d="M849.86,-169.485C877.292,-166.322 915.441,-161.924 947.898,-158.182"/>
<polygon fill="#9a32cd" stroke="#9a32cd" points="849.439,-166.01 839.905,-170.632 850.241,-172.964 849.439,-166.01"/>
<text text-anchor="middle" x="908" y="-168.734" font-family="Helvetica,sans-Serif" font-size="10.00"> m_value</text>
</g>
<!-- Node8 -->
<g id="node7" class="node"><title>Node8</title>
<g id="a_node7"><a xlink:href="classEigen_1_1SparseMatrix.html" target="_top" xlink:title="Eigen::SparseMatrix\l\&lt; double \&gt;">
<polygon fill="none" stroke="black" points="756,-113.734 756,-143.734 868,-143.734 868,-113.734 756,-113.734"/>
<text text-anchor="start" x="764" y="-131.734" font-family="Helvetica,sans-Serif" font-size="10.00">Eigen::SparseMatrix</text>
<text text-anchor="middle" x="812" y="-120.734" font-family="Helvetica,sans-Serif" font-size="10.00">&lt; double &gt;</text>
</a>
</g>
</g>
<!-- Node8&#45;&gt;Node6 -->
<g id="edge6" class="edge"><title>Node8&#45;&gt;Node6</title>
<path fill="none" stroke="#9a32cd" stroke-dasharray="5,2" d="M878.54,-126.522C895.366,-126.713 913.401,-127.583 930,-129.734 947.588,-132.014 966.815,-136.771 982.28,-141.181"/>
<polygon fill="#9a32cd" stroke="#9a32cd" points="878.255,-123.021 868.243,-126.486 878.23,-130.021 878.255,-123.021"/>
<text text-anchor="middle" x="908" y="-143.734" font-family="Helvetica,sans-Serif" font-size="10.00"> m_row</text>
<text text-anchor="middle" x="908" y="-132.734" font-family="Helvetica,sans-Serif" font-size="10.00">m_col</text>
</g>
<!-- Node9 -->
<g id="node8" class="node"><title>Node9</title>
<g id="a_node8"><a xlink:href="classEigen_1_1SparseCompressedBase.html" target="_top" xlink:title="Common base class for sparse [compressed]&#45;{row|column}&#45;storage format. ">
<polygon fill="none" stroke="black" points="508,-178.234 508,-219.234 675,-219.234 675,-178.234 508,-178.234"/>
<text text-anchor="start" x="516" y="-207.234" font-family="Helvetica,sans-Serif" font-size="10.00">Eigen::SparseCompressedBase</text>
<text text-anchor="start" x="516" y="-196.234" font-family="Helvetica,sans-Serif" font-size="10.00">&lt; SparseMatrix&lt; double,</text>
<text text-anchor="middle" x="591.5" y="-185.234" font-family="Helvetica,sans-Serif" font-size="10.00"> _Options, _StorageIndex &gt; &gt;</text>
</a>
</g>
</g>
<!-- Node9&#45;&gt;Node8 -->
<g id="edge7" class="edge"><title>Node9&#45;&gt;Node8</title>
<path fill="none" stroke="midnightblue" d="M666.426,-175.051C698.672,-164.721 735.518,-152.916 763.942,-143.81"/>
<polygon fill="midnightblue" stroke="midnightblue" points="665.036,-171.821 656.581,-178.205 667.172,-178.487 665.036,-171.821"/>
</g>
<!-- Node10 -->
<g id="node9" class="node"><title>Node10</title>
<g id="a_node9"><a xlink:href="classEigen_1_1SparseMatrixBase.html" target="_top" xlink:title="Base class of any sparse matrices or sparse expressions. ">
<polygon fill="none" stroke="black" points="252,-183.734 252,-213.734 388,-213.734 388,-183.734 252,-183.734"/>
<text text-anchor="start" x="260" y="-201.734" font-family="Helvetica,sans-Serif" font-size="10.00">Eigen::SparseMatrixBase</text>
<text text-anchor="middle" x="320" y="-190.734" font-family="Helvetica,sans-Serif" font-size="10.00">&lt; Derived &gt;</text>
</a>
</g>
</g>
<!-- Node10&#45;&gt;Node9 -->
<g id="edge8" class="edge"><title>Node10&#45;&gt;Node9</title>
<path fill="none" stroke="midnightblue" d="M398.702,-198.734C432.843,-198.734 472.977,-198.734 507.683,-198.734"/>
<polygon fill="midnightblue" stroke="midnightblue" points="398.311,-195.234 388.311,-198.734 398.311,-202.234 398.311,-195.234"/>
</g>
<!-- Node11 -->
<g id="node10" class="node"><title>Node11</title>
<g id="a_node10"><a xlink:href="structEigen_1_1EigenBase.html" target="_top" xlink:title="Eigen::EigenBase\&lt; Derived \&gt;">
<polygon fill="none" stroke="black" points="0,-208.234 0,-227.234 158,-227.234 158,-208.234 0,-208.234"/>
<text text-anchor="middle" x="79" y="-215.234" font-family="Helvetica,sans-Serif" font-size="10.00">Eigen::EigenBase&lt; Derived &gt;</text>
</a>
</g>
</g>
<!-- Node11&#45;&gt;Node10 -->
<g id="edge9" class="edge"><title>Node11&#45;&gt;Node10</title>
<path fill="none" stroke="midnightblue" d="M168.306,-210.714C195.907,-208.52 225.895,-206.136 251.799,-204.077"/>
<polygon fill="midnightblue" stroke="midnightblue" points="167.949,-207.231 158.258,-211.513 168.503,-214.209 167.949,-207.231"/>
</g>
<!-- Node12 -->
<g id="node11" class="node"><title>Node12</title>
<g id="a_node11"><a xlink:href="classbool.html" target="_top" xlink:title="bool">
<polygon fill="none" stroke="black" points="60.5,-170.234 60.5,-189.234 97.5,-189.234 97.5,-170.234 60.5,-170.234"/>
<text text-anchor="middle" x="79" y="-177.234" font-family="Helvetica,sans-Serif" font-size="10.00">bool</text>
</a>
</g>
</g>
<!-- Node12&#45;&gt;Node10 -->
<g id="edge10" class="edge"><title>Node12&#45;&gt;Node10</title>
<path fill="none" stroke="#9a32cd" stroke-dasharray="5,2" d="M107.55,-181.844C138.365,-184.213 189.763,-188.189 234,-191.734 239.756,-192.196 245.731,-192.679 251.725,-193.167"/>
<polygon fill="#9a32cd" stroke="#9a32cd" points="107.793,-178.353 97.5545,-181.077 107.257,-185.332 107.793,-178.353"/>
<text text-anchor="middle" x="205" y="-194.734" font-family="Helvetica,sans-Serif" font-size="10.00"> m_isRValue</text>
</g>
<!-- Node13 -->
<g id="node12" class="node"><title>Node13</title>
<polygon fill="none" stroke="#bfbfbf" points="254.5,-109.734 254.5,-139.734 385.5,-139.734 385.5,-109.734 254.5,-109.734"/>
<text text-anchor="start" x="262.5" y="-127.734" font-family="Helvetica,sans-Serif" font-size="10.00">EIGEN_DEFAULT_DENSE</text>
<text text-anchor="middle" x="320" y="-116.734" font-family="Helvetica,sans-Serif" font-size="10.00">_INDEX_TYPE</text>
</g>
<!-- Node13&#45;&gt;Node8 -->
<g id="edge11" class="edge"><title>Node13&#45;&gt;Node8</title>
<path fill="none" stroke="#9a32cd" stroke-dasharray="5,2" d="M395.806,-125.345C494.952,-126.154 667.596,-127.564 755.757,-128.283"/>
<polygon fill="#9a32cd" stroke="#9a32cd" points="395.591,-121.843 385.563,-125.261 395.534,-128.843 395.591,-121.843"/>
<text text-anchor="middle" x="591.5" y="-141.734" font-family="Helvetica,sans-Serif" font-size="10.00"> m_outerSize</text>
<text text-anchor="middle" x="591.5" y="-130.734" font-family="Helvetica,sans-Serif" font-size="10.00">m_innerSize</text>
</g>
<!-- Node15 -->
<g id="node14" class="node"><title>Node15</title>
<g id="a_node14"><a xlink:href="classEigen_1_1internal_1_1CompressedStorage.html" target="_top" xlink:title="Eigen::internal::Compressed\lStorage\&lt; Scalar, StorageIndex \&gt;">
<polygon fill="none" stroke="black" points="503,-60.7343 503,-90.7343 680,-90.7343 680,-60.7343 503,-60.7343"/>
<text text-anchor="start" x="511" y="-78.7343" font-family="Helvetica,sans-Serif" font-size="10.00">Eigen::internal::Compressed</text>
<text text-anchor="middle" x="591.5" y="-67.7343" font-family="Helvetica,sans-Serif" font-size="10.00">Storage&lt; Scalar, StorageIndex &gt;</text>
</a>
</g>
</g>
<!-- Node13&#45;&gt;Node15 -->
<g id="edge14" class="edge"><title>Node13&#45;&gt;Node15</title>
<path fill="none" stroke="#9a32cd" stroke-dasharray="5,2" d="M382.378,-107.158C390.291,-105.178 398.313,-103.31 406,-101.734 437.372,-95.3052 472.072,-89.9603 502.834,-85.8225"/>
<polygon fill="#9a32cd" stroke="#9a32cd" points="381.259,-103.832 372.447,-109.713 383.003,-110.611 381.259,-103.832"/>
<text text-anchor="middle" x="445.5" y="-115.734" font-family="Helvetica,sans-Serif" font-size="10.00"> m_size</text>
<text text-anchor="middle" x="445.5" y="-104.734" font-family="Helvetica,sans-Serif" font-size="10.00">m_allocatedSize</text>
</g>
<!-- Node14 -->
<g id="node13" class="node"><title>Node14</title>
<polygon fill="none" stroke="#bfbfbf" points="275.5,-5.23429 275.5,-24.2343 364.5,-24.2343 364.5,-5.23429 275.5,-5.23429"/>
<text text-anchor="middle" x="320" y="-12.2343" font-family="Helvetica,sans-Serif" font-size="10.00">StorageIndex *</text>
</g>
<!-- Node14&#45;&gt;Node8 -->
<g id="edge12" class="edge"><title>Node14&#45;&gt;Node8</title>
<path fill="none" stroke="#9a32cd" stroke-dasharray="5,2" d="M374.77,-7.00232C446.689,1.16984 577.076,8.31047 680,-28.7343 729.536,-46.5632 775.539,-90.4232 797.497,-113.684"/>
<polygon fill="#9a32cd" stroke="#9a32cd" points="374.111,-3.55587 364.593,-8.2104 374.936,-10.5071 374.111,-3.55587"/>
<text text-anchor="middle" x="591.5" y="-42.7343" font-family="Helvetica,sans-Serif" font-size="10.00"> m_outerIndex</text>
<text text-anchor="middle" x="591.5" y="-31.7343" font-family="Helvetica,sans-Serif" font-size="10.00">m_innerNonZeros</text>
</g>
<!-- Node14&#45;&gt;Node15 -->
<g id="edge15" class="edge"><title>Node14&#45;&gt;Node15</title>
<path fill="none" stroke="#9a32cd" stroke-dasharray="5,2" d="M373.563,-26.568C405.741,-33.8186 447.755,-43.2964 485,-51.7343 497.732,-54.6187 511.327,-57.7059 524.377,-60.6732"/>
<polygon fill="#9a32cd" stroke="#9a32cd" points="374.005,-23.0798 363.48,-24.2963 372.466,-29.9086 374.005,-23.0798"/>
<text text-anchor="middle" x="445.5" y="-54.7343" font-family="Helvetica,sans-Serif" font-size="10.00"> m_indices</text>
</g>
<!-- Node15&#45;&gt;Node8 -->
<g id="edge13" class="edge"><title>Node15&#45;&gt;Node8</title>
<path fill="none" stroke="#9a32cd" stroke-dasharray="5,2" d="M664.446,-93.1856C694.207,-100.405 728.165,-108.641 755.894,-115.368"/>
<polygon fill="#9a32cd" stroke="#9a32cd" points="665.072,-89.7362 654.529,-90.7802 663.422,-96.5389 665.072,-89.7362"/>
<text text-anchor="middle" x="718" y="-113.734" font-family="Helvetica,sans-Serif" font-size="10.00"> m_data</text>
</g>
<!-- Node16 -->
<g id="node15" class="node"><title>Node16</title>
<polygon fill="none" stroke="#bfbfbf" points="292.5,-57.2343 292.5,-76.2343 347.5,-76.2343 347.5,-57.2343 292.5,-57.2343"/>
<text text-anchor="middle" x="320" y="-64.2343" font-family="Helvetica,sans-Serif" font-size="10.00">Scalar *</text>
</g>
<!-- Node16&#45;&gt;Node15 -->
<g id="edge16" class="edge"><title>Node16&#45;&gt;Node15</title>
<path fill="none" stroke="#9a32cd" stroke-dasharray="5,2" d="M357.884,-66.227C391.134,-65.944 441.36,-65.9488 485,-67.7343 490.781,-67.9708 496.737,-68.2703 502.737,-68.6136"/>
<polygon fill="#9a32cd" stroke="#9a32cd" points="357.68,-62.7288 347.715,-66.3271 357.749,-69.7284 357.68,-62.7288"/>
<text text-anchor="middle" x="445.5" y="-70.7343" font-family="Helvetica,sans-Serif" font-size="10.00"> m_values</text>
</g>
<!-- Node17 -->
<g id="node16" class="node"><title>Node17</title>
<polygon fill="none" stroke="#bfbfbf" points="1191,-376.234 1191,-395.234 1220,-395.234 1220,-376.234 1191,-376.234"/>
<text text-anchor="middle" x="1205.5" y="-383.234" font-family="Helvetica,sans-Serif" font-size="10.00">int</text>
</g>
<!-- Node17&#45;&gt;Node2 -->
<g id="edge19" class="edge"><title>Node17&#45;&gt;Node2</title>
<path fill="none" stroke="#9a32cd" stroke-dasharray="5,2" d="M1230.25,-391.627C1314.02,-411.314 1602.63,-469.726 1824,-399.734 1921.31,-368.969 2005.31,-274.903 2041.92,-228.782"/>
<polygon fill="#9a32cd" stroke="#9a32cd" points="1230.97,-388.203 1220.43,-389.276 1229.34,-395.01 1230.97,-388.203"/>
<text text-anchor="middle" x="1629.5" y="-435.734" font-family="Helvetica,sans-Serif" font-size="10.00"> NumDims</text>
</g>
<!-- Node17&#45;&gt;Node4 -->
<g id="edge17" class="edge"><title>Node17&#45;&gt;Node4</title>
<path fill="none" stroke="#9a32cd" stroke-dasharray="5,2" d="M1230.4,-385.734C1275.37,-385.734 1373.83,-385.734 1437.96,-385.734"/>
<polygon fill="#9a32cd" stroke="#9a32cd" points="1230.17,-382.234 1220.17,-385.734 1230.17,-389.234 1230.17,-382.234"/>
<text text-anchor="middle" x="1350" y="-388.734" font-family="Helvetica,sans-Serif" font-size="10.00"> count</text>
</g>
<!-- Node17&#45;&gt;Node21 -->
<g id="edge29" class="edge"><title>Node17&#45;&gt;Node21</title>
<path fill="none" stroke="#9a32cd" stroke-dasharray="5,2" d="M1227.56,-369.909C1266.57,-341.7 1353.78,-283.719 1438,-262.734 1526.58,-240.664 1633.1,-249.537 1698.81,-258.896"/>
<polygon fill="#9a32cd" stroke="#9a32cd" points="1225.13,-367.35 1219.13,-376.085 1229.27,-372.996 1225.13,-367.35"/>
<text text-anchor="middle" x="1499" y="-265.734" font-family="Helvetica,sans-Serif" font-size="10.00"> NumCoords</text>
</g>
<!-- Node18&#45;&gt;Node2 -->
<g id="edge20" class="edge"><title>Node18&#45;&gt;Node2</title>
<path fill="none" stroke="#9a32cd" stroke-dasharray="5,2" d="M1430.39,-124.107C1548.65,-115.132 1777.1,-107.028 1963,-155.734 1980.96,-160.44 1999.61,-168.431 2015.78,-176.502"/>
<polygon fill="#9a32cd" stroke="#9a32cd" points="1430.03,-120.625 1420.34,-124.893 1430.58,-127.603 1430.03,-120.625"/>
<text text-anchor="middle" x="1629.5" y="-121.734" font-family="Helvetica,sans-Serif" font-size="10.00"> m_fastOutputStrides</text>
</g>
<!-- Node19 -->
<g id="node18" class="node"><title>Node19</title>
<polygon fill="none" stroke="#bfbfbf" points="1721.5,-84.2343 1721.5,-103.234 1801.5,-103.234 1801.5,-84.2343 1721.5,-84.2343"/>
<text text-anchor="middle" x="1761.5" y="-91.2343" font-family="Helvetica,sans-Serif" font-size="10.00">const Strides</text>
</g>
<!-- Node19&#45;&gt;Node2 -->
<g id="edge22" class="edge"><title>Node19&#45;&gt;Node2</title>
<path fill="none" stroke="#9a32cd" stroke-dasharray="5,2" d="M1811.69,-87.6974C1853.73,-84.6461 1914.86,-85.3153 1963,-106.734 1996.82,-121.781 2025.79,-153.8 2043.39,-176.723"/>
<polygon fill="#9a32cd" stroke="#9a32cd" points="1811.38,-84.2111 1801.7,-88.5186 1811.96,-91.1875 1811.38,-84.2111"/>
<text text-anchor="middle" x="1902.5" y="-109.734" font-family="Helvetica,sans-Serif" font-size="10.00"> m_strides</text>
</g>
<!-- Node20 -->
<g id="node19" class="node"><title>Node20</title>
<polygon fill="none" stroke="#bfbfbf" points="1739.5,-46.2343 1739.5,-65.2343 1783.5,-65.2343 1783.5,-46.2343 1739.5,-46.2343"/>
<text text-anchor="middle" x="1761.5" y="-53.2343" font-family="Helvetica,sans-Serif" font-size="10.00">size_t</text>
</g>
<!-- Node20&#45;&gt;Node2 -->
<g id="edge23" class="edge"><title>Node20&#45;&gt;Node2</title>
<path fill="none" stroke="#9a32cd" stroke-dasharray="5,2" d="M1793.76,-50.7023C1835.22,-45.6304 1909.38,-42.2427 1963,-71.7343 2005.51,-95.1153 2035.09,-145.461 2050.1,-176.482"/>
<polygon fill="#9a32cd" stroke="#9a32cd" points="1793.16,-47.2511 1783.71,-52.0445 1794.09,-54.1894 1793.16,-47.2511"/>
<text text-anchor="middle" x="1902.5" y="-74.7343" font-family="Helvetica,sans-Serif" font-size="10.00"> m_block_total_size_max</text>
</g>
<!-- Node21&#45;&gt;Node2 -->
<g id="edge24" class="edge"><title>Node21&#45;&gt;Node2</title>
<path fill="none" stroke="#9a32cd" stroke-dasharray="5,2" d="M1833.9,-253.734C1878.16,-243.818 1935.1,-231.058 1980.96,-220.781"/>
<polygon fill="#9a32cd" stroke="#9a32cd" points="1833.08,-250.331 1824.09,-255.933 1834.61,-257.162 1833.08,-250.331"/>
<text text-anchor="middle" x="1902.5" y="-255.734" font-family="Helvetica,sans-Serif" font-size="10.00"> m_impl</text>
</g>
<!-- Node22 -->
<g id="node21" class="node"><title>Node22</title>
<g id="a_node21"><a xlink:href="structEigen_1_1internal_1_1traits.html" target="_top" xlink:title="Eigen::internal::traits\l\&lt; ArgType \&gt;">
<polygon fill="none" stroke="black" points="1441,-321.734 1441,-351.734 1557,-351.734 1557,-321.734 1441,-321.734"/>
<text text-anchor="start" x="1449" y="-339.734" font-family="Helvetica,sans-Serif" font-size="10.00">Eigen::internal::traits</text>
<text text-anchor="middle" x="1499" y="-328.734" font-family="Helvetica,sans-Serif" font-size="10.00">&lt; ArgType &gt;</text>
</a>
</g>
</g>
<!-- Node22&#45;&gt;Node21 -->
<g id="edge25" class="edge"><title>Node22&#45;&gt;Node21</title>
<path fill="none" stroke="#9a32cd" stroke-dasharray="5,2" d="M1567.25,-323.655C1609.49,-315.238 1659.85,-304.779 1681,-298.734 1694.7,-294.818 1709.43,-289.707 1722.45,-284.867"/>
<polygon fill="#9a32cd" stroke="#9a32cd" points="1566.39,-320.257 1557.26,-325.637 1567.75,-327.123 1566.39,-320.257"/>
<text text-anchor="middle" x="1629.5" y="-324.734" font-family="Helvetica,sans-Serif" font-size="10.00"> m_data</text>
</g>
<!-- Node23 -->
<g id="node22" class="node"><title>Node23</title>
<polygon fill="none" stroke="#bfbfbf" points="1474.5,-283.234 1474.5,-302.234 1523.5,-302.234 1523.5,-283.234 1474.5,-283.234"/>
<text text-anchor="middle" x="1499" y="-290.234" font-family="Helvetica,sans-Serif" font-size="10.00">Device</text>
</g>
<!-- Node23&#45;&gt;Node21 -->
<g id="edge27" class="edge"><title>Node23&#45;&gt;Node21</title>
<path fill="none" stroke="#9a32cd" stroke-dasharray="5,2" d="M1533.76,-289.754C1575.5,-286.068 1647.34,-279.725 1698.98,-275.166"/>
<polygon fill="#9a32cd" stroke="#9a32cd" points="1533.23,-286.287 1523.58,-290.653 1533.85,-293.259 1533.23,-286.287"/>
<text text-anchor="middle" x="1629.5" y="-288.734" font-family="Helvetica,sans-Serif" font-size="10.00"> m_device</text>
</g>
<!-- Node24 -->
<g id="node23" class="node"><title>Node24</title>
<polygon fill="none" stroke="#bfbfbf" points="1451.5,-198.234 1451.5,-217.234 1546.5,-217.234 1546.5,-198.234 1451.5,-198.234"/>
<text text-anchor="middle" x="1499" y="-205.234" font-family="Helvetica,sans-Serif" font-size="10.00">const ArgType &amp;</text>
</g>
<!-- Node24&#45;&gt;Node21 -->
<g id="edge28" class="edge"><title>Node24&#45;&gt;Node21</title>
<path fill="none" stroke="#9a32cd" stroke-dasharray="5,2" d="M1557.05,-209.108C1593.23,-211.253 1640.65,-216.437 1681,-228.734 1700.76,-234.756 1721.44,-245.587 1736.76,-254.605"/>
<polygon fill="#9a32cd" stroke="#9a32cd" points="1556.86,-205.593 1546.68,-208.558 1556.48,-212.583 1556.86,-205.593"/>
<text text-anchor="middle" x="1629.5" y="-231.734" font-family="Helvetica,sans-Serif" font-size="10.00"> m_impl</text>
</g>
</g>
</svg>
        <g id="navigator" transform="translate(0 0)" fill="#404254">
                <rect fill="#f2f5e9" fill-opacity="0.5" stroke="#606060" stroke-width=".5" x="0" y="0" width="60" height="60"/>
                <use id="zoomplus" xlink:href="#zoomPlus" x="17" y="9" onmousedown="handleZoom(evt,'in')"/>
                <use id="zoomminus" xlink:href="#zoomMin" x="42" y="9" onmousedown="handleZoom(evt,'out')"/>
                <use id="reset" xlink:href="#resetDef" x="30" y="36" onmousedown="handleReset()"/>
                <g id="arrowUp" xlink:href="#dirArrow" transform="translate(30 24)" onmousedown="handlePan(0,-1)">
                  <use xlink:href="#rim" fill="#404040">
                        <set attributeName="fill" to="#808080" begin="arrowUp.mouseover" end="arrowUp.mouseout"/>
                  </use>
                  <path fill="none" stroke="white" stroke-width="1.5" d="M0,-3.0v7 M-2.5,-0.5L0,-3.0L2.5,-0.5"/>
                </g>
                <g id="arrowRight" xlink:href="#dirArrow" transform="rotate(90) translate(36 -43)" onmousedown="handlePan(1,0)">
                  <use xlink:href="#rim" fill="#404040">
                        <set attributeName="fill" to="#808080" begin="arrowRight.mouseover" end="arrowRight.mouseout"/>
                  </use>
                  <path fill="none" stroke="white" stroke-width="1.5" d="M0,-3.0v7 M-2.5,-0.5L0,-3.0L2.5,-0.5"/>
                </g>
                <g id="arrowDown" xlink:href="#dirArrow" transform="rotate(180) translate(-30 -48)" onmousedown="handlePan(0,1)">
                  <use xlink:href="#rim" fill="#404040">
                        <set attributeName="fill" to="#808080" begin="arrowDown.mouseover" end="arrowDown.mouseout"/>
                  </use>
                  <path fill="none" stroke="white" stroke-width="1.5" d="M0,-3.0v7 M-2.5,-0.5L0,-3.0L2.5,-0.5"/>
                </g>
                <g id="arrowLeft" xlink:href="#dirArrow" transform="rotate(270) translate(-36 17)" onmousedown="handlePan(-1,0)">
                  <use xlink:href="#rim" fill="#404040">
                        <set attributeName="fill" to="#808080" begin="arrowLeft.mouseover" end="arrowLeft.mouseout"/>
                  </use>
                  <path fill="none" stroke="white" stroke-width="1.5" d="M0,-3.0v7 M-2.5,-0.5L0,-3.0L2.5,-0.5"/>
                </g>
        </g>
        <svg viewBox="0 0 15 15" width="100%" height="30px" preserveAspectRatio="xMaxYMin meet">
         <g id="arrow_out" transform="scale(0.3 0.3)">
          <a xlink:href="structEigen_1_1TensorEvaluator_3_01const_01TensorStridingSlicingOp_3_01StartIndices_00_01StopInd3abcac87f58eda43bc9f80a5eb4e0acf_org.svg" target="_base">
           <rect id="button" ry="5" rx="5" y="6" x="6" height="38" width="38"
                fill="#f2f5e9" fill-opacity="0.5" stroke="#606060" stroke-width="1.0"/>
           <path id="arrow"
             d="M 11.500037,31.436501 C 11.940474,20.09759 22.043105,11.32322 32.158766,21.979434 L 37.068811,17.246167 C 37.068811,17.246167 37.088388,32 37.088388,32 L 22.160133,31.978069 C 22.160133,31.978069 26.997745,27.140456 26.997745,27.140456 C 18.528582,18.264221 13.291696,25.230495 11.500037,31.436501 z"
             style="fill:#404040;"/>
          </a>
         </g>
        </svg>
</svg>
