<?xml version="1.0" encoding="UTF-8" standalone="no"?>
<!DOCTYPE svg PUBLIC "-//W3C//DTD SVG 1.1//EN"
 "http://www.w3.org/Graphics/SVG/1.1/DTD/svg11.dtd">
<!-- Generated by graphviz version 2.38.0 (20140413.2041)
 -->
<!-- Title: Eigen::internal::generic_product_impl&lt; Lhs, Rhs, SparseShape, DenseShape, ProductType &gt;::scaleAndAddTo Pages: 1 -->
<svg width="660pt" height="137pt"
 viewBox="0.00 0.00 660.00 137.00" xmlns="http://www.w3.org/2000/svg" xmlns:xlink="http://www.w3.org/1999/xlink">
<g id="graph0" class="graph" transform="scale(1 1) rotate(0) translate(4 133)">
<title>Eigen::internal::generic_product_impl&lt; Lhs, Rhs, SparseShape, DenseShape, ProductType &gt;::scaleAndAddTo</title>
<!-- Node0 -->
<g id="node1" class="node"><title>Node0</title>
<polygon fill="#bfbfbf" stroke="black" points="0,-38.5 0,-90.5 167,-90.5 167,-38.5 0,-38.5"/>
<text text-anchor="start" x="8" y="-78.5" font-family="Helvetica,sans-Serif" font-size="10.00">Eigen::internal::generic</text>
<text text-anchor="start" x="8" y="-67.5" font-family="Helvetica,sans-Serif" font-size="10.00">_product_impl&lt; Lhs, Rhs,</text>
<text text-anchor="start" x="8" y="-56.5" font-family="Helvetica,sans-Serif" font-size="10.00"> SparseShape, DenseShape,</text>
<text text-anchor="middle" x="83.5" y="-45.5" font-family="Helvetica,sans-Serif" font-size="10.00"> ProductType &gt;::scaleAndAddTo</text>
</g>
<!-- Node1 -->
<g id="node2" class="node"><title>Node1</title>
<g id="a_node2"><a xlink:href="namespaceEigen_1_1internal.html#acf3ec87c63d7c9de83c0141f968df7ae" target="_top" xlink:title="Eigen::internal::sparse\l_time_dense_product">
<polygon fill="none" stroke="black" points="203,-49.5 203,-79.5 326,-79.5 326,-49.5 203,-49.5"/>
<text text-anchor="start" x="211" y="-67.5" font-family="Helvetica,sans-Serif" font-size="10.00">Eigen::internal::sparse</text>
<text text-anchor="middle" x="264.5" y="-56.5" font-family="Helvetica,sans-Serif" font-size="10.00">_time_dense_product</text>
</a>
</g>
</g>
<!-- Node0&#45;&gt;Node1 -->
<g id="edge1" class="edge"><title>Node0&#45;&gt;Node1</title>
<path fill="none" stroke="midnightblue" d="M167.188,-64.5C175.72,-64.5 184.334,-64.5 192.719,-64.5"/>
<polygon fill="midnightblue" stroke="midnightblue" points="192.812,-68.0001 202.812,-64.5 192.812,-61.0001 192.812,-68.0001"/>
</g>
<!-- Node2 -->
<g id="node3" class="node"><title>Node2</title>
<g id="a_node3"><a xlink:href="namespaceEigen_1_1TensorSycl.html#a789ef14500d782279cc4bb95e6ba3dbd" target="_top" xlink:title="Eigen::TensorSycl::run">
<polygon fill="none" stroke="black" points="362,-55 362,-74 483,-74 483,-55 362,-55"/>
<text text-anchor="middle" x="422.5" y="-62" font-family="Helvetica,sans-Serif" font-size="10.00">Eigen::TensorSycl::run</text>
</a>
</g>
</g>
<!-- Node1&#45;&gt;Node2 -->
<g id="edge2" class="edge"><title>Node1&#45;&gt;Node2</title>
<path fill="none" stroke="midnightblue" d="M326.26,-64.5C334.593,-64.5 343.202,-64.5 351.68,-64.5"/>
<polygon fill="midnightblue" stroke="midnightblue" points="351.93,-68.0001 361.93,-64.5 351.93,-61.0001 351.93,-68.0001"/>
</g>
<!-- Node3 -->
<g id="node4" class="node"><title>Node3</title>
<g id="a_node4"><a xlink:href="structEigen_1_1TensorEvaluator.html#ae188d806978166eb8cbffbd63c944fb3" target="_top" xlink:title="Eigen::TensorEvaluator\l::evalSubExprsIfNeeded">
<polygon fill="none" stroke="black" points="520.5,-98.5 520.5,-128.5 650.5,-128.5 650.5,-98.5 520.5,-98.5"/>
<text text-anchor="start" x="528.5" y="-116.5" font-family="Helvetica,sans-Serif" font-size="10.00">Eigen::TensorEvaluator</text>
<text text-anchor="middle" x="585.5" y="-105.5" font-family="Helvetica,sans-Serif" font-size="10.00">::evalSubExprsIfNeeded</text>
</a>
</g>
</g>
<!-- Node2&#45;&gt;Node3 -->
<g id="edge3" class="edge"><title>Node2&#45;&gt;Node3</title>
<path fill="none" stroke="midnightblue" d="M454.925,-74.064C474.952,-80.1592 501.532,-88.2488 525.404,-95.5143"/>
<polygon fill="midnightblue" stroke="midnightblue" points="524.507,-98.8997 535.093,-98.463 526.545,-92.203 524.507,-98.8997"/>
</g>
<!-- Node4 -->
<g id="node5" class="node"><title>Node4</title>
<g id="a_node5"><a xlink:href="namespaceEigen_1_1TensorSycl_1_1internal.html#a525ee07cdeb68d18359b511b1ae9ffc7" target="_top" xlink:title="template deduction function for FunctorExtractor ">
<polygon fill="none" stroke="black" points="519,-49.5 519,-79.5 652,-79.5 652,-49.5 519,-49.5"/>
<text text-anchor="start" x="527" y="-67.5" font-family="Helvetica,sans-Serif" font-size="10.00">Eigen::TensorSycl::</text>
<text text-anchor="middle" x="585.5" y="-56.5" font-family="Helvetica,sans-Serif" font-size="10.00">internal::extractFunctors</text>
</a>
</g>
</g>
<!-- Node2&#45;&gt;Node4 -->
<g id="edge4" class="edge"><title>Node2&#45;&gt;Node4</title>
<path fill="none" stroke="midnightblue" d="M483.45,-64.5C491.65,-64.5 500.154,-64.5 508.59,-64.5"/>
<polygon fill="midnightblue" stroke="midnightblue" points="508.823,-68.0001 518.823,-64.5 508.823,-61.0001 508.823,-68.0001"/>
</g>
<!-- Node5 -->
<g id="node6" class="node"><title>Node5</title>
<g id="a_node6"><a xlink:href="structEigen_1_1TensorEvaluator.html#a76ec54bcca9523ec104aaa9adaf74983" target="_top" xlink:title="Eigen::TensorEvaluator\l::cleanup">
<polygon fill="none" stroke="black" points="523,-0.5 523,-30.5 648,-30.5 648,-0.5 523,-0.5"/>
<text text-anchor="start" x="531" y="-18.5" font-family="Helvetica,sans-Serif" font-size="10.00">Eigen::TensorEvaluator</text>
<text text-anchor="middle" x="585.5" y="-7.5" font-family="Helvetica,sans-Serif" font-size="10.00">::cleanup</text>
</a>
</g>
</g>
<!-- Node2&#45;&gt;Node5 -->
<g id="edge5" class="edge"><title>Node2&#45;&gt;Node5</title>
<path fill="none" stroke="midnightblue" d="M454.925,-54.936C474.952,-48.8408 501.532,-40.7512 525.404,-33.4857"/>
<polygon fill="midnightblue" stroke="midnightblue" points="526.545,-36.797 535.093,-30.537 524.507,-30.1003 526.545,-36.797"/>
</g>
</g>
</svg>
