<?xml version="1.0" encoding="UTF-8" standalone="no"?>
<!DOCTYPE svg PUBLIC "-//W3C//DTD SVG 1.1//EN"
 "http://www.w3.org/Graphics/SVG/1.1/DTD/svg11.dtd">
<!-- Generated by graphviz version 2.38.0 (20140413.2041)
 -->
<!-- Title: Eigen::internal::triangular_solve_retval&lt; Side, TriangularType, Rhs &gt; Pages: 1 -->
<svg width="558pt" height="110pt"
 viewBox="0.00 0.00 558.00 110.00" xmlns="http://www.w3.org/2000/svg" xmlns:xlink="http://www.w3.org/1999/xlink">
<g id="graph0" class="graph" transform="scale(1 1) rotate(0) translate(4 106)">
<title>Eigen::internal::triangular_solve_retval&lt; Side, TriangularType, Rhs &gt;</title>
<!-- Node0 -->
<g id="node1" class="node"><title>Node0</title>
<polygon fill="#bfbfbf" stroke="black" points="387,-25 387,-66 550,-66 550,-25 387,-25"/>
<text text-anchor="start" x="395" y="-54" font-family="Helvetica,sans-Serif" font-size="10.00">Eigen::internal::triangular</text>
<text text-anchor="start" x="395" y="-43" font-family="Helvetica,sans-Serif" font-size="10.00">_solve_retval&lt; Side, Triangular</text>
<text text-anchor="middle" x="468.5" y="-32" font-family="Helvetica,sans-Serif" font-size="10.00">Type, Rhs &gt;</text>
</g>
<!-- Node1 -->
<g id="node2" class="node"><title>Node1</title>
<g id="a_node2"><a xlink:href="classEigen_1_1ReturnByValue.html" target="_top" xlink:title="Eigen::ReturnByValue\l\&lt; triangular_solve_retval\l\&lt; Side, TriangularType,\l Rhs \&gt; \&gt;">
<polygon fill="none" stroke="black" points="215,-19.5 215,-71.5 351,-71.5 351,-19.5 215,-19.5"/>
<text text-anchor="start" x="223" y="-59.5" font-family="Helvetica,sans-Serif" font-size="10.00">Eigen::ReturnByValue</text>
<text text-anchor="start" x="223" y="-48.5" font-family="Helvetica,sans-Serif" font-size="10.00">&lt; triangular_solve_retval</text>
<text text-anchor="start" x="223" y="-37.5" font-family="Helvetica,sans-Serif" font-size="10.00">&lt; Side, TriangularType,</text>
<text text-anchor="middle" x="283" y="-26.5" font-family="Helvetica,sans-Serif" font-size="10.00"> Rhs &gt; &gt;</text>
</a>
</g>
</g>
<!-- Node1&#45;&gt;Node0 -->
<g id="edge1" class="edge"><title>Node1&#45;&gt;Node0</title>
<path fill="none" stroke="midnightblue" d="M361.272,-45.5C369.758,-45.5 378.412,-45.5 386.936,-45.5"/>
<polygon fill="midnightblue" stroke="midnightblue" points="361.027,-42.0001 351.027,-45.5 361.027,-49.0001 361.027,-42.0001"/>
</g>
<!-- Node2 -->
<g id="node3" class="node"><title>Node2</title>
<polygon fill="none" stroke="#bfbfbf" points="0,-49.5 0,-101.5 179,-101.5 179,-49.5 0,-49.5"/>
<text text-anchor="start" x="8" y="-89.5" font-family="Helvetica,sans-Serif" font-size="10.00">internal::dense_xpr</text>
<text text-anchor="start" x="8" y="-78.5" font-family="Helvetica,sans-Serif" font-size="10.00">_base::type&lt; ReturnByValue</text>
<text text-anchor="start" x="8" y="-67.5" font-family="Helvetica,sans-Serif" font-size="10.00">&lt; triangular_solve_retval</text>
<text text-anchor="middle" x="89.5" y="-56.5" font-family="Helvetica,sans-Serif" font-size="10.00">&lt; Side, TriangularType, Rhs &gt; &gt; &gt;</text>
</g>
<!-- Node2&#45;&gt;Node1 -->
<g id="edge2" class="edge"><title>Node2&#45;&gt;Node1</title>
<path fill="none" stroke="midnightblue" d="M189.332,-60.0172C197.928,-58.6706 206.49,-57.3292 214.742,-56.0365"/>
<polygon fill="midnightblue" stroke="midnightblue" points="188.58,-56.5921 179.243,-61.5978 189.664,-63.5078 188.58,-56.5921"/>
</g>
<!-- Node3 -->
<g id="node4" class="node"><title>Node3</title>
<g id="a_node4"><a xlink:href="classEigen_1_1internal_1_1no__assignment__operator.html" target="_top" xlink:title="Eigen::internal::no\l_assignment_operator">
<polygon fill="none" stroke="black" points="27,-0.5 27,-30.5 152,-30.5 152,-0.5 27,-0.5"/>
<text text-anchor="start" x="35" y="-18.5" font-family="Helvetica,sans-Serif" font-size="10.00">Eigen::internal::no</text>
<text text-anchor="middle" x="89.5" y="-7.5" font-family="Helvetica,sans-Serif" font-size="10.00">_assignment_operator</text>
</a>
</g>
</g>
<!-- Node3&#45;&gt;Node1 -->
<g id="edge3" class="edge"><title>Node3&#45;&gt;Node1</title>
<path fill="none" stroke="#8b1a1a" d="M162.16,-26.7261C179.419,-29.4299 197.795,-32.3086 214.84,-34.9788"/>
<polygon fill="#8b1a1a" stroke="#8b1a1a" points="162.567,-23.2473 152.146,-25.1573 161.484,-30.1629 162.567,-23.2473"/>
</g>
</g>
</svg>
