<?xml version="1.0" encoding="UTF-8" standalone="no"?>
<!DOCTYPE svg PUBLIC "-//W3C//DTD SVG 1.1//EN"
 "http://www.w3.org/Graphics/SVG/1.1/DTD/svg11.dtd">
<!-- Generated by graphviz version 2.38.0 (20140413.2041)
 -->
<!-- Title: Eigen::internal::compute_inverse_and_det_with_check&lt; MatrixType, ResultType, 4 &gt;::run Pages: 1 -->
<svg width="336pt" height="78pt"
 viewBox="0.00 0.00 336.00 77.50" xmlns="http://www.w3.org/2000/svg" xmlns:xlink="http://www.w3.org/1999/xlink">
<g id="graph0" class="graph" transform="scale(1 1) rotate(0) translate(4 73.5)">
<title>Eigen::internal::compute_inverse_and_det_with_check&lt; MatrixType, ResultType, 4 &gt;::run</title>
<!-- Node0 -->
<g id="node1" class="node"><title>Node0</title>
<polygon fill="#bfbfbf" stroke="black" points="0,-11.5 0,-63.5 158,-63.5 158,-11.5 0,-11.5"/>
<text text-anchor="start" x="8" y="-51.5" font-family="Helvetica,sans-Serif" font-size="10.00">Eigen::internal::compute</text>
<text text-anchor="start" x="8" y="-40.5" font-family="Helvetica,sans-Serif" font-size="10.00">_inverse_and_det_with_check</text>
<text text-anchor="start" x="8" y="-29.5" font-family="Helvetica,sans-Serif" font-size="10.00">&lt; MatrixType, ResultType,</text>
<text text-anchor="middle" x="79" y="-18.5" font-family="Helvetica,sans-Serif" font-size="10.00"> 4 &gt;::run</text>
</g>
<!-- Node1 -->
<g id="node2" class="node"><title>Node1</title>
<g id="a_node2"><a xlink:href="ArrayCwiseUnaryOps_8h.html#a35560f7dbf19244fda7e463d14157c43" target="_top" xlink:title="abs">
<polygon fill="none" stroke="black" points="244,-50 244,-69 278,-69 278,-50 244,-50"/>
<text text-anchor="middle" x="261" y="-57" font-family="Helvetica,sans-Serif" font-size="10.00">abs</text>
</a>
</g>
</g>
<!-- Node0&#45;&gt;Node1 -->
<g id="edge1" class="edge"><title>Node0&#45;&gt;Node1</title>
<path fill="none" stroke="midnightblue" d="M158.165,-47.0535C185.223,-50.3606 213.733,-53.8451 233.682,-56.2834"/>
<polygon fill="midnightblue" stroke="midnightblue" points="233.47,-59.7835 243.821,-57.5226 234.32,-52.8352 233.47,-59.7835"/>
</g>
<!-- Node2 -->
<g id="node3" class="node"><title>Node2</title>
<g id="a_node3"><a xlink:href="structEigen_1_1internal_1_1compute__inverse.html#ab3392d7cab242bdb510741c662dc01dd" target="_top" xlink:title="Eigen::internal::compute\l_inverse::run">
<polygon fill="none" stroke="black" points="194,-0.5 194,-30.5 328,-30.5 328,-0.5 194,-0.5"/>
<text text-anchor="start" x="202" y="-18.5" font-family="Helvetica,sans-Serif" font-size="10.00">Eigen::internal::compute</text>
<text text-anchor="middle" x="261" y="-7.5" font-family="Helvetica,sans-Serif" font-size="10.00">_inverse::run</text>
</a>
</g>
</g>
<!-- Node0&#45;&gt;Node2 -->
<g id="edge2" class="edge"><title>Node0&#45;&gt;Node2</title>
<path fill="none" stroke="midnightblue" d="M158.165,-27.9465C166.597,-26.916 175.169,-25.8682 183.58,-24.8403"/>
<polygon fill="midnightblue" stroke="midnightblue" points="184.237,-28.2861 193.738,-23.5987 183.387,-21.3378 184.237,-28.2861"/>
</g>
</g>
</svg>
