<?xml version="1.0" encoding="UTF-8" standalone="no"?>
<!DOCTYPE svg PUBLIC "-//W3C//DTD SVG 1.1//EN"
 "http://www.w3.org/Graphics/SVG/1.1/DTD/svg11.dtd">
<!-- Generated by graphviz version 2.38.0 (20140413.2041)
 -->
<!-- Title: Eigen::internal::group_theory::dimino_add_cosets_for_rep&lt; Multiply, Equality, id, sub_group_elements, elements, type_list&lt; g, gs... &gt;, rep_element, sub_group_size &gt; Pages: 1 -->
<svg width="196pt" height="150pt"
 viewBox="0.00 0.00 196.00 150.00" xmlns="http://www.w3.org/2000/svg" xmlns:xlink="http://www.w3.org/1999/xlink">
<g id="graph0" class="graph" transform="scale(1 1) rotate(0) translate(4 146)">
<title>Eigen::internal::group_theory::dimino_add_cosets_for_rep&lt; Multiply, Equality, id, sub_group_elements, elements, type_list&lt; g, gs... &gt;, rep_element, sub_group_size &gt;</title>
<!-- Node1 -->
<g id="node1" class="node"><title>Node1</title>
<polygon fill="#bfbfbf" stroke="black" points="0,-0.5 0,-74.5 188,-74.5 188,-0.5 0,-0.5"/>
<text text-anchor="start" x="8" y="-62.5" font-family="Helvetica,sans-Serif" font-size="10.00">Eigen::internal::group</text>
<text text-anchor="start" x="8" y="-51.5" font-family="Helvetica,sans-Serif" font-size="10.00">_theory::dimino_add_cosets</text>
<text text-anchor="start" x="8" y="-40.5" font-family="Helvetica,sans-Serif" font-size="10.00">_for_rep&lt; Multiply, Equality,</text>
<text text-anchor="start" x="8" y="-29.5" font-family="Helvetica,sans-Serif" font-size="10.00"> id, sub_group_elements, elements,</text>
<text text-anchor="start" x="8" y="-18.5" font-family="Helvetica,sans-Serif" font-size="10.00"> type_list&lt; g, gs... &gt;, rep_element,</text>
<text text-anchor="middle" x="94" y="-7.5" font-family="Helvetica,sans-Serif" font-size="10.00"> sub_group_size &gt;</text>
</g>
<!-- Node2 -->
<g id="node2" class="node"><title>Node2</title>
<polygon fill="none" stroke="#bfbfbf" points="38.5,-122.5 38.5,-141.5 67.5,-141.5 67.5,-122.5 38.5,-122.5"/>
<text text-anchor="middle" x="53" y="-129.5" font-family="Helvetica,sans-Serif" font-size="10.00">int</text>
</g>
<!-- Node2&#45;&gt;Node1 -->
<g id="edge1" class="edge"><title>Node2&#45;&gt;Node1</title>
<path fill="none" stroke="#9a32cd" stroke-dasharray="5,2" d="M51.2796,-112.096C51.2918,-105.872 51.9433,-99.0098 54,-93 56.1661,-86.6704 59.3507,-80.4576 62.9927,-74.6234"/>
<polygon fill="#9a32cd" stroke="#9a32cd" points="47.7938,-112.474 51.7825,-122.289 54.7853,-112.129 47.7938,-112.474"/>
<text text-anchor="middle" x="84" y="-96" font-family="Helvetica,sans-Serif" font-size="10.00"> global_flags</text>
</g>
<!-- Node3 -->
<g id="node3" class="node"><title>Node3</title>
<g id="a_node3"><a xlink:href="classbool.html" target="_top" xlink:title="bool">
<polygon fill="none" stroke="black" points="117.5,-122.5 117.5,-141.5 154.5,-141.5 154.5,-122.5 117.5,-122.5"/>
<text text-anchor="middle" x="136" y="-129.5" font-family="Helvetica,sans-Serif" font-size="10.00">bool</text>
</a>
</g>
</g>
<!-- Node3&#45;&gt;Node1 -->
<g id="edge2" class="edge"><title>Node3&#45;&gt;Node1</title>
<path fill="none" stroke="#9a32cd" stroke-dasharray="5,2" d="M127.94,-113.248C123.006,-102.382 116.511,-88.0769 110.524,-74.8925"/>
<polygon fill="#9a32cd" stroke="#9a32cd" points="124.803,-114.805 132.124,-122.464 131.177,-111.911 124.803,-114.805"/>
<text text-anchor="middle" x="149.5" y="-96" font-family="Helvetica,sans-Serif" font-size="10.00"> add_coset</text>
</g>
</g>
</svg>
