<?xml version="1.0" encoding="UTF-8" standalone="no"?>
<!DOCTYPE svg PUBLIC "-//W3C//DTD SVG 1.1//EN"
 "http://www.w3.org/Graphics/SVG/1.1/DTD/svg11.dtd">
<!-- Generated by graphviz version 2.38.0 (20140413.2041)
 -->
<!-- Title: Eigen::internal::CacheSizes::CacheSizes Pages: 1 -->
<svg width="505pt" height="203pt"
 viewBox="0.00 0.00 505.00 202.50" xmlns="http://www.w3.org/2000/svg" xmlns:xlink="http://www.w3.org/1999/xlink">
<g id="graph0" class="graph" transform="scale(1 1) rotate(0) translate(4 198.5)">
<title>Eigen::internal::CacheSizes::CacheSizes</title>
<!-- Node0 -->
<g id="node1" class="node"><title>Node0</title>
<polygon fill="#bfbfbf" stroke="black" points="0,-93.5 0,-123.5 146,-123.5 146,-93.5 0,-93.5"/>
<text text-anchor="start" x="8" y="-111.5" font-family="Helvetica,sans-Serif" font-size="10.00">Eigen::internal::CacheSizes</text>
<text text-anchor="middle" x="73" y="-100.5" font-family="Helvetica,sans-Serif" font-size="10.00">::CacheSizes</text>
</g>
<!-- Node1 -->
<g id="node2" class="node"><title>Node1</title>
<g id="a_node2"><a xlink:href="namespaceEigen.html#a2669f89ff38296a38e6d973552eb4e33" target="_top" xlink:title="Eigen::l1CacheSize">
<polygon fill="none" stroke="black" points="202.5,-175 202.5,-194 309.5,-194 309.5,-175 202.5,-175"/>
<text text-anchor="middle" x="256" y="-182" font-family="Helvetica,sans-Serif" font-size="10.00">Eigen::l1CacheSize</text>
</a>
</g>
</g>
<!-- Node0&#45;&gt;Node1 -->
<g id="edge1" class="edge"><title>Node0&#45;&gt;Node1</title>
<path fill="none" stroke="midnightblue" d="M98.5392,-123.557C119.942,-136.169 152.154,-153.92 182,-165.5 188.316,-167.951 195.061,-170.187 201.803,-172.195"/>
<polygon fill="midnightblue" stroke="midnightblue" points="201.053,-175.62 211.628,-174.973 202.958,-168.884 201.053,-175.62"/>
</g>
<!-- Node3 -->
<g id="node4" class="node"><title>Node3</title>
<g id="a_node4"><a xlink:href="namespaceEigen.html#a2cfc0330ba567d63a496be1cac8427ae" target="_top" xlink:title="Eigen::l2CacheSize">
<polygon fill="none" stroke="black" points="202.5,-137 202.5,-156 309.5,-156 309.5,-137 202.5,-137"/>
<text text-anchor="middle" x="256" y="-144" font-family="Helvetica,sans-Serif" font-size="10.00">Eigen::l2CacheSize</text>
</a>
</g>
</g>
<!-- Node0&#45;&gt;Node3 -->
<g id="edge3" class="edge"><title>Node0&#45;&gt;Node3</title>
<path fill="none" stroke="midnightblue" d="M145.536,-123.519C163.626,-127.316 182.774,-131.337 199.911,-134.934"/>
<polygon fill="midnightblue" stroke="midnightblue" points="199.24,-138.37 209.746,-136.999 200.678,-131.519 199.24,-138.37"/>
</g>
<!-- Node4 -->
<g id="node5" class="node"><title>Node4</title>
<g id="a_node5"><a xlink:href="namespaceEigen.html#ae2efa4852ea90c2d47b7dcec5b40ba2b" target="_top" xlink:title="Eigen::l3CacheSize">
<polygon fill="none" stroke="black" points="202.5,-99 202.5,-118 309.5,-118 309.5,-99 202.5,-99"/>
<text text-anchor="middle" x="256" y="-106" font-family="Helvetica,sans-Serif" font-size="10.00">Eigen::l3CacheSize</text>
</a>
</g>
</g>
<!-- Node0&#45;&gt;Node4 -->
<g id="edge5" class="edge"><title>Node0&#45;&gt;Node4</title>
<path fill="none" stroke="midnightblue" d="M146.056,-108.5C161.355,-108.5 177.389,-108.5 192.306,-108.5"/>
<polygon fill="midnightblue" stroke="midnightblue" points="192.432,-112 202.432,-108.5 192.432,-105 192.432,-112"/>
</g>
<!-- Node5 -->
<g id="node6" class="node"><title>Node5</title>
<g id="a_node6"><a xlink:href="namespaceEigen_1_1internal.html#ac2dabbb388a11b5e16876fccd70920f9" target="_top" xlink:title="Eigen::internal::manage\l_caching_sizes_helper">
<polygon fill="none" stroke="black" points="190.5,-49.5 190.5,-79.5 321.5,-79.5 321.5,-49.5 190.5,-49.5"/>
<text text-anchor="start" x="198.5" y="-67.5" font-family="Helvetica,sans-Serif" font-size="10.00">Eigen::internal::manage</text>
<text text-anchor="middle" x="256" y="-56.5" font-family="Helvetica,sans-Serif" font-size="10.00">_caching_sizes_helper</text>
</a>
</g>
</g>
<!-- Node0&#45;&gt;Node5 -->
<g id="edge7" class="edge"><title>Node0&#45;&gt;Node5</title>
<path fill="none" stroke="midnightblue" d="M135.784,-93.4808C150.989,-89.7844 167.401,-85.7947 183.042,-81.9926"/>
<polygon fill="midnightblue" stroke="midnightblue" points="184.297,-85.2894 193.188,-79.5262 182.644,-78.4875 184.297,-85.2894"/>
</g>
<!-- Node6 -->
<g id="node7" class="node"><title>Node6</title>
<g id="a_node7"><a xlink:href="namespaceEigen_1_1internal.html#a3a3f70166790e15844d6b9804f84f952" target="_top" xlink:title="Eigen::internal::queryCache\lSizes">
<polygon fill="none" stroke="black" points="182,-0.5 182,-30.5 330,-30.5 330,-0.5 182,-0.5"/>
<text text-anchor="start" x="190" y="-18.5" font-family="Helvetica,sans-Serif" font-size="10.00">Eigen::internal::queryCache</text>
<text text-anchor="middle" x="256" y="-7.5" font-family="Helvetica,sans-Serif" font-size="10.00">Sizes</text>
</a>
</g>
</g>
<!-- Node0&#45;&gt;Node6 -->
<g id="edge8" class="edge"><title>Node0&#45;&gt;Node6</title>
<path fill="none" stroke="midnightblue" d="M94.6785,-93.4349C115.824,-78.5301 150.016,-55.7902 182,-40.5 186.566,-38.3171 191.375,-36.234 196.255,-34.2687"/>
<polygon fill="midnightblue" stroke="midnightblue" points="197.607,-37.4987 205.681,-30.6395 195.092,-30.9661 197.607,-37.4987"/>
</g>
<!-- Node2 -->
<g id="node3" class="node"><title>Node2</title>
<g id="a_node3"><a xlink:href="namespaceEigen_1_1internal.html#aa32f9fb4cd20f86ef87d00db101e2f7c" target="_top" xlink:title="Eigen::internal::manage\l_caching_sizes">
<polygon fill="none" stroke="black" points="366,-131.5 366,-161.5 497,-161.5 497,-131.5 366,-131.5"/>
<text text-anchor="start" x="374" y="-149.5" font-family="Helvetica,sans-Serif" font-size="10.00">Eigen::internal::manage</text>
<text text-anchor="middle" x="431.5" y="-138.5" font-family="Helvetica,sans-Serif" font-size="10.00">_caching_sizes</text>
</a>
</g>
</g>
<!-- Node1&#45;&gt;Node2 -->
<g id="edge2" class="edge"><title>Node1&#45;&gt;Node2</title>
<path fill="none" stroke="midnightblue" d="M300.781,-174.911C317.46,-171.258 336.973,-166.984 355.725,-162.877"/>
<polygon fill="midnightblue" stroke="midnightblue" points="356.721,-166.242 365.741,-160.684 355.224,-159.404 356.721,-166.242"/>
</g>
<!-- Node3&#45;&gt;Node2 -->
<g id="edge4" class="edge"><title>Node3&#45;&gt;Node2</title>
<path fill="none" stroke="midnightblue" d="M309.527,-146.5C324.09,-146.5 340.185,-146.5 355.755,-146.5"/>
<polygon fill="midnightblue" stroke="midnightblue" points="355.889,-150 365.889,-146.5 355.889,-143 355.889,-150"/>
</g>
<!-- Node4&#45;&gt;Node2 -->
<g id="edge6" class="edge"><title>Node4&#45;&gt;Node2</title>
<path fill="none" stroke="midnightblue" d="M300.781,-118.089C317.46,-121.742 336.973,-126.016 355.725,-130.123"/>
<polygon fill="midnightblue" stroke="midnightblue" points="355.224,-133.596 365.741,-132.316 356.721,-126.758 355.224,-133.596"/>
</g>
</g>
</svg>
