<?xml version="1.0" encoding="UTF-8" standalone="no"?>
<!DOCTYPE svg PUBLIC "-//W3C//DTD SVG 1.1//EN"
 "http://www.w3.org/Graphics/SVG/1.1/DTD/svg11.dtd">
<!-- Generated by graphviz version 2.38.0 (20140413.2041)
 -->
<!-- Title: Eigen::TensorEvaluator&lt; const TensorStridingOp&lt; Strides, ArgType &gt;, Device &gt; Pages: 1 -->
<svg width="1942pt" height="355pt"
 viewBox="0.00 0.00 1942.00 355.00" xmlns="http://www.w3.org/2000/svg" xmlns:xlink="http://www.w3.org/1999/xlink">
<g id="graph0" class="graph" transform="scale(1 1) rotate(0) translate(4 351)">
<title>Eigen::TensorEvaluator&lt; const TensorStridingOp&lt; Strides, ArgType &gt;, Device &gt;</title>
<!-- Node2 -->
<g id="node1" class="node"><title>Node2</title>
<polygon fill="#bfbfbf" stroke="black" points="1768,-197.5 1768,-238.5 1934,-238.5 1934,-197.5 1768,-197.5"/>
<text text-anchor="start" x="1776" y="-226.5" font-family="Helvetica,sans-Serif" font-size="10.00">Eigen::TensorEvaluator</text>
<text text-anchor="start" x="1776" y="-215.5" font-family="Helvetica,sans-Serif" font-size="10.00">&lt; const TensorStridingOp</text>
<text text-anchor="middle" x="1851" y="-204.5" font-family="Helvetica,sans-Serif" font-size="10.00">&lt; Strides, ArgType &gt;, Device &gt;</text>
</g>
<!-- Node3 -->
<g id="node2" class="node"><title>Node3</title>
<g id="a_node2"><a xlink:href="structEigen_1_1DSizes.html" target="_top" xlink:title="Eigen::DSizes\&lt; Index,\l NumDims \&gt;">
<polygon fill="none" stroke="black" points="1329,-177 1329,-207 1451,-207 1451,-177 1329,-177"/>
<text text-anchor="start" x="1337" y="-195" font-family="Helvetica,sans-Serif" font-size="10.00">Eigen::DSizes&lt; Index,</text>
<text text-anchor="middle" x="1390" y="-184" font-family="Helvetica,sans-Serif" font-size="10.00"> NumDims &gt;</text>
</a>
</g>
</g>
<!-- Node3&#45;&gt;Node2 -->
<g id="edge1" class="edge"><title>Node3&#45;&gt;Node2</title>
<path fill="none" stroke="#9a32cd" stroke-dasharray="5,2" d="M1461.04,-195.967C1543.55,-200.641 1680.45,-208.396 1767.88,-213.348"/>
<polygon fill="#9a32cd" stroke="#9a32cd" points="1461.19,-192.47 1451.01,-195.399 1460.79,-199.459 1461.19,-192.47"/>
<text text-anchor="middle" x="1630.5" y="-212" font-family="Helvetica,sans-Serif" font-size="10.00"> m_dimensions</text>
</g>
<!-- Node17 -->
<g id="node16" class="node"><title>Node17</title>
<g id="a_node16"><a xlink:href="structEigen_1_1TensorEvaluator.html" target="_top" xlink:title="Eigen::TensorEvaluator\l\&lt; ArgType, Device \&gt;">
<polygon fill="none" stroke="black" points="1568,-107 1568,-137 1693,-137 1693,-107 1568,-107"/>
<text text-anchor="start" x="1576" y="-125" font-family="Helvetica,sans-Serif" font-size="10.00">Eigen::TensorEvaluator</text>
<text text-anchor="middle" x="1630.5" y="-114" font-family="Helvetica,sans-Serif" font-size="10.00">&lt; ArgType, Device &gt;</text>
</a>
</g>
</g>
<!-- Node3&#45;&gt;Node17 -->
<g id="edge21" class="edge"><title>Node3&#45;&gt;Node17</title>
<path fill="none" stroke="#9a32cd" stroke-dasharray="5,2" d="M1461.08,-175.493C1488.93,-168.528 1521.15,-159.96 1550,-151 1563.33,-146.861 1577.71,-141.8 1590.53,-137.072"/>
<polygon fill="#9a32cd" stroke="#9a32cd" points="1459.9,-172.181 1451.04,-177.985 1461.58,-178.975 1459.9,-172.181"/>
<text text-anchor="middle" x="1509.5" y="-176" font-family="Helvetica,sans-Serif" font-size="10.00"> m_dims</text>
</g>
<!-- Node4 -->
<g id="node3" class="node"><title>Node4</title>
<g id="a_node3"><a xlink:href="classEigen_1_1array.html" target="_top" xlink:title="Eigen::array\&lt; Index,\l NumDims \&gt;">
<polygon fill="none" stroke="black" points="1149,-242 1149,-272 1262,-272 1262,-242 1149,-242"/>
<text text-anchor="start" x="1157" y="-260" font-family="Helvetica,sans-Serif" font-size="10.00">Eigen::array&lt; Index,</text>
<text text-anchor="middle" x="1205.5" y="-249" font-family="Helvetica,sans-Serif" font-size="10.00"> NumDims &gt;</text>
</a>
</g>
</g>
<!-- Node4&#45;&gt;Node2 -->
<g id="edge17" class="edge"><title>Node4&#45;&gt;Node2</title>
<path fill="none" stroke="#9a32cd" stroke-dasharray="5,2" d="M1272.29,-260.261C1374.97,-264.187 1579.3,-267.314 1750,-241 1755.81,-240.104 1761.78,-239.057 1767.78,-237.913"/>
<polygon fill="#9a32cd" stroke="#9a32cd" points="1272.2,-256.755 1262.07,-259.855 1271.92,-263.75 1272.2,-256.755"/>
<text text-anchor="middle" x="1509.5" y="-276" font-family="Helvetica,sans-Serif" font-size="10.00"> m_inputStrides</text>
<text text-anchor="middle" x="1509.5" y="-265" font-family="Helvetica,sans-Serif" font-size="10.00">m_outputStrides</text>
</g>
<!-- Node4&#45;&gt;Node3 -->
<g id="edge2" class="edge"><title>Node4&#45;&gt;Node3</title>
<path fill="none" stroke="midnightblue" d="M1258.42,-238.507C1286.32,-228.57 1320.29,-216.472 1346.59,-207.106"/>
<polygon fill="midnightblue" stroke="midnightblue" points="1257.07,-235.272 1248.83,-241.924 1259.42,-241.866 1257.07,-235.272"/>
</g>
<!-- Node5 -->
<g id="node4" class="node"><title>Node5</title>
<g id="a_node4"><a xlink:href="classEigen_1_1Triplet.html" target="_top" xlink:title="Eigen::Triplet\&lt; double \&gt;">
<polygon fill="none" stroke="black" points="948,-247.5 948,-266.5 1079,-266.5 1079,-247.5 948,-247.5"/>
<text text-anchor="middle" x="1013.5" y="-254.5" font-family="Helvetica,sans-Serif" font-size="10.00">Eigen::Triplet&lt; double &gt;</text>
</a>
</g>
</g>
<!-- Node5&#45;&gt;Node4 -->
<g id="edge3" class="edge"><title>Node5&#45;&gt;Node4</title>
<path fill="none" stroke="#9a32cd" stroke-dasharray="5,2" d="M1089.35,-257C1109.22,-257 1130.33,-257 1148.97,-257"/>
<polygon fill="#9a32cd" stroke="#9a32cd" points="1089.09,-253.5 1079.09,-257 1089.09,-260.5 1089.09,-253.5"/>
<text text-anchor="middle" x="1114" y="-260" font-family="Helvetica,sans-Serif" font-size="10.00"> values</text>
</g>
<!-- Node6 -->
<g id="node5" class="node"><title>Node6</title>
<polygon fill="none" stroke="#bfbfbf" points="784.5,-270.5 784.5,-289.5 839.5,-289.5 839.5,-270.5 784.5,-270.5"/>
<text text-anchor="middle" x="812" y="-277.5" font-family="Helvetica,sans-Serif" font-size="10.00">SCALAR</text>
</g>
<!-- Node6&#45;&gt;Node5 -->
<g id="edge4" class="edge"><title>Node6&#45;&gt;Node5</title>
<path fill="none" stroke="#9a32cd" stroke-dasharray="5,2" d="M849.86,-275.75C877.292,-272.588 915.441,-268.19 947.898,-264.448"/>
<polygon fill="#9a32cd" stroke="#9a32cd" points="849.439,-272.276 839.905,-276.898 850.241,-279.23 849.439,-272.276"/>
<text text-anchor="middle" x="908" y="-274" font-family="Helvetica,sans-Serif" font-size="10.00"> m_value</text>
</g>
<!-- Node7 -->
<g id="node6" class="node"><title>Node7</title>
<g id="a_node6"><a xlink:href="classEigen_1_1SparseMatrix.html" target="_top" xlink:title="Eigen::SparseMatrix\l\&lt; double \&gt;">
<polygon fill="none" stroke="black" points="756,-220 756,-250 868,-250 868,-220 756,-220"/>
<text text-anchor="start" x="764" y="-238" font-family="Helvetica,sans-Serif" font-size="10.00">Eigen::SparseMatrix</text>
<text text-anchor="middle" x="812" y="-227" font-family="Helvetica,sans-Serif" font-size="10.00">&lt; double &gt;</text>
</a>
</g>
</g>
<!-- Node7&#45;&gt;Node5 -->
<g id="edge5" class="edge"><title>Node7&#45;&gt;Node5</title>
<path fill="none" stroke="#9a32cd" stroke-dasharray="5,2" d="M878.54,-232.788C895.366,-232.978 913.401,-233.848 930,-236 947.588,-238.28 966.815,-243.037 982.28,-247.447"/>
<polygon fill="#9a32cd" stroke="#9a32cd" points="878.255,-229.287 868.243,-232.751 878.23,-236.287 878.255,-229.287"/>
<text text-anchor="middle" x="908" y="-250" font-family="Helvetica,sans-Serif" font-size="10.00"> m_row</text>
<text text-anchor="middle" x="908" y="-239" font-family="Helvetica,sans-Serif" font-size="10.00">m_col</text>
</g>
<!-- Node8 -->
<g id="node7" class="node"><title>Node8</title>
<g id="a_node7"><a xlink:href="classEigen_1_1SparseCompressedBase.html" target="_top" xlink:title="Common base class for sparse [compressed]&#45;{row|column}&#45;storage format. ">
<polygon fill="none" stroke="black" points="508,-297.5 508,-338.5 675,-338.5 675,-297.5 508,-297.5"/>
<text text-anchor="start" x="516" y="-326.5" font-family="Helvetica,sans-Serif" font-size="10.00">Eigen::SparseCompressedBase</text>
<text text-anchor="start" x="516" y="-315.5" font-family="Helvetica,sans-Serif" font-size="10.00">&lt; SparseMatrix&lt; double,</text>
<text text-anchor="middle" x="591.5" y="-304.5" font-family="Helvetica,sans-Serif" font-size="10.00"> _Options, _StorageIndex &gt; &gt;</text>
</a>
</g>
</g>
<!-- Node8&#45;&gt;Node7 -->
<g id="edge6" class="edge"><title>Node8&#45;&gt;Node7</title>
<path fill="none" stroke="midnightblue" d="M675.428,-294.292C696.158,-287.53 718.137,-279.628 738,-271 746.394,-267.354 747.859,-265.18 756,-261 763.141,-257.334 770.889,-253.553 778.255,-250.048"/>
<polygon fill="midnightblue" stroke="midnightblue" points="674.139,-291.03 665.687,-297.418 676.278,-297.695 674.139,-291.03"/>
</g>
<!-- Node9 -->
<g id="node8" class="node"><title>Node9</title>
<g id="a_node8"><a xlink:href="classEigen_1_1SparseMatrixBase.html" target="_top" xlink:title="Base class of any sparse matrices or sparse expressions. ">
<polygon fill="none" stroke="black" points="252,-303 252,-333 388,-333 388,-303 252,-303"/>
<text text-anchor="start" x="260" y="-321" font-family="Helvetica,sans-Serif" font-size="10.00">Eigen::SparseMatrixBase</text>
<text text-anchor="middle" x="320" y="-310" font-family="Helvetica,sans-Serif" font-size="10.00">&lt; Derived &gt;</text>
</a>
</g>
</g>
<!-- Node9&#45;&gt;Node8 -->
<g id="edge7" class="edge"><title>Node9&#45;&gt;Node8</title>
<path fill="none" stroke="midnightblue" d="M398.702,-318C432.843,-318 472.977,-318 507.683,-318"/>
<polygon fill="midnightblue" stroke="midnightblue" points="398.311,-314.5 388.311,-318 398.311,-321.5 398.311,-314.5"/>
</g>
<!-- Node10 -->
<g id="node9" class="node"><title>Node10</title>
<g id="a_node9"><a xlink:href="structEigen_1_1EigenBase.html" target="_top" xlink:title="Eigen::EigenBase\&lt; Derived \&gt;">
<polygon fill="none" stroke="black" points="0,-327.5 0,-346.5 158,-346.5 158,-327.5 0,-327.5"/>
<text text-anchor="middle" x="79" y="-334.5" font-family="Helvetica,sans-Serif" font-size="10.00">Eigen::EigenBase&lt; Derived &gt;</text>
</a>
</g>
</g>
<!-- Node10&#45;&gt;Node9 -->
<g id="edge8" class="edge"><title>Node10&#45;&gt;Node9</title>
<path fill="none" stroke="midnightblue" d="M168.306,-329.98C195.907,-327.786 225.895,-325.402 251.799,-323.342"/>
<polygon fill="midnightblue" stroke="midnightblue" points="167.949,-326.497 158.258,-330.779 168.503,-333.475 167.949,-326.497"/>
</g>
<!-- Node11 -->
<g id="node10" class="node"><title>Node11</title>
<g id="a_node10"><a xlink:href="classbool.html" target="_top" xlink:title="bool">
<polygon fill="none" stroke="black" points="60.5,-289.5 60.5,-308.5 97.5,-308.5 97.5,-289.5 60.5,-289.5"/>
<text text-anchor="middle" x="79" y="-296.5" font-family="Helvetica,sans-Serif" font-size="10.00">bool</text>
</a>
</g>
</g>
<!-- Node11&#45;&gt;Node9 -->
<g id="edge9" class="edge"><title>Node11&#45;&gt;Node9</title>
<path fill="none" stroke="#9a32cd" stroke-dasharray="5,2" d="M107.562,-300.781C138.386,-302.816 189.793,-306.341 234,-310 239.761,-310.477 245.739,-310.994 251.735,-311.528"/>
<polygon fill="#9a32cd" stroke="#9a32cd" points="107.77,-297.287 97.5624,-300.125 107.312,-304.272 107.77,-297.287"/>
<text text-anchor="middle" x="205" y="-313" font-family="Helvetica,sans-Serif" font-size="10.00"> m_isRValue</text>
</g>
<!-- Node12 -->
<g id="node11" class="node"><title>Node12</title>
<polygon fill="none" stroke="#bfbfbf" points="254.5,-229 254.5,-259 385.5,-259 385.5,-229 254.5,-229"/>
<text text-anchor="start" x="262.5" y="-247" font-family="Helvetica,sans-Serif" font-size="10.00">EIGEN_DEFAULT_DENSE</text>
<text text-anchor="middle" x="320" y="-236" font-family="Helvetica,sans-Serif" font-size="10.00">_INDEX_TYPE</text>
</g>
<!-- Node12&#45;&gt;Node7 -->
<g id="edge10" class="edge"><title>Node12&#45;&gt;Node7</title>
<path fill="none" stroke="#9a32cd" stroke-dasharray="5,2" d="M395.769,-243.834C423.763,-243.696 455.841,-243.447 485,-243 580.242,-241.541 691.108,-238.544 755.921,-236.661"/>
<polygon fill="#9a32cd" stroke="#9a32cd" points="395.637,-240.335 385.653,-243.88 395.669,-247.335 395.637,-240.335"/>
<text text-anchor="middle" x="591.5" y="-256" font-family="Helvetica,sans-Serif" font-size="10.00"> m_outerSize</text>
<text text-anchor="middle" x="591.5" y="-245" font-family="Helvetica,sans-Serif" font-size="10.00">m_innerSize</text>
</g>
<!-- Node14 -->
<g id="node13" class="node"><title>Node14</title>
<g id="a_node13"><a xlink:href="classEigen_1_1internal_1_1CompressedStorage.html" target="_top" xlink:title="Eigen::internal::Compressed\lStorage\&lt; Scalar, StorageIndex \&gt;">
<polygon fill="none" stroke="black" points="503,-180 503,-210 680,-210 680,-180 503,-180"/>
<text text-anchor="start" x="511" y="-198" font-family="Helvetica,sans-Serif" font-size="10.00">Eigen::internal::Compressed</text>
<text text-anchor="middle" x="591.5" y="-187" font-family="Helvetica,sans-Serif" font-size="10.00">Storage&lt; Scalar, StorageIndex &gt;</text>
</a>
</g>
</g>
<!-- Node12&#45;&gt;Node14 -->
<g id="edge13" class="edge"><title>Node12&#45;&gt;Node14</title>
<path fill="none" stroke="#9a32cd" stroke-dasharray="5,2" d="M382.378,-226.424C390.291,-224.444 398.313,-222.575 406,-221 437.372,-214.571 472.072,-209.226 502.834,-205.088"/>
<polygon fill="#9a32cd" stroke="#9a32cd" points="381.259,-223.098 372.447,-228.979 383.003,-229.877 381.259,-223.098"/>
<text text-anchor="middle" x="445.5" y="-235" font-family="Helvetica,sans-Serif" font-size="10.00"> m_size</text>
<text text-anchor="middle" x="445.5" y="-224" font-family="Helvetica,sans-Serif" font-size="10.00">m_allocatedSize</text>
</g>
<!-- Node13 -->
<g id="node12" class="node"><title>Node13</title>
<polygon fill="none" stroke="#bfbfbf" points="275.5,-123.5 275.5,-142.5 364.5,-142.5 364.5,-123.5 275.5,-123.5"/>
<text text-anchor="middle" x="320" y="-130.5" font-family="Helvetica,sans-Serif" font-size="10.00">StorageIndex *</text>
</g>
<!-- Node13&#45;&gt;Node7 -->
<g id="edge11" class="edge"><title>Node13&#45;&gt;Node7</title>
<path fill="none" stroke="#9a32cd" stroke-dasharray="5,2" d="M374.726,-126.444C446.332,-119.662 576.09,-114.256 680,-148 726.221,-163.01 771.499,-199.208 794.8,-219.872"/>
<polygon fill="#9a32cd" stroke="#9a32cd" points="374.199,-122.979 364.594,-127.45 374.89,-129.945 374.199,-122.979"/>
<text text-anchor="middle" x="591.5" y="-162" font-family="Helvetica,sans-Serif" font-size="10.00"> m_outerIndex</text>
<text text-anchor="middle" x="591.5" y="-151" font-family="Helvetica,sans-Serif" font-size="10.00">m_innerNonZeros</text>
</g>
<!-- Node13&#45;&gt;Node14 -->
<g id="edge14" class="edge"><title>Node13&#45;&gt;Node14</title>
<path fill="none" stroke="#9a32cd" stroke-dasharray="5,2" d="M372.293,-144.8C415.671,-154.78 478.081,-169.137 525.054,-179.944"/>
<polygon fill="#9a32cd" stroke="#9a32cd" points="373.049,-141.383 362.519,-142.552 371.479,-148.205 373.049,-141.383"/>
<text text-anchor="middle" x="445.5" y="-173" font-family="Helvetica,sans-Serif" font-size="10.00"> m_indices</text>
</g>
<!-- Node14&#45;&gt;Node7 -->
<g id="edge12" class="edge"><title>Node14&#45;&gt;Node7</title>
<path fill="none" stroke="#9a32cd" stroke-dasharray="5,2" d="M684.429,-211.829C708.686,-216.27 734.111,-220.924 755.757,-224.887"/>
<polygon fill="#9a32cd" stroke="#9a32cd" points="684.95,-208.366 674.483,-210.008 683.689,-215.252 684.95,-208.366"/>
<text text-anchor="middle" x="718" y="-224" font-family="Helvetica,sans-Serif" font-size="10.00"> m_data</text>
</g>
<!-- Node15 -->
<g id="node14" class="node"><title>Node15</title>
<polygon fill="none" stroke="#bfbfbf" points="292.5,-176.5 292.5,-195.5 347.5,-195.5 347.5,-176.5 292.5,-176.5"/>
<text text-anchor="middle" x="320" y="-183.5" font-family="Helvetica,sans-Serif" font-size="10.00">Scalar *</text>
</g>
<!-- Node15&#45;&gt;Node14 -->
<g id="edge15" class="edge"><title>Node15&#45;&gt;Node14</title>
<path fill="none" stroke="#9a32cd" stroke-dasharray="5,2" d="M357.884,-185.493C391.134,-185.21 441.36,-185.215 485,-187 490.781,-187.237 496.737,-187.536 502.737,-187.879"/>
<polygon fill="#9a32cd" stroke="#9a32cd" points="357.68,-181.994 347.715,-185.593 357.749,-188.994 357.68,-181.994"/>
<text text-anchor="middle" x="445.5" y="-190" font-family="Helvetica,sans-Serif" font-size="10.00"> m_values</text>
</g>
<!-- Node16 -->
<g id="node15" class="node"><title>Node16</title>
<polygon fill="none" stroke="#bfbfbf" points="1191,-177.5 1191,-196.5 1220,-196.5 1220,-177.5 1191,-177.5"/>
<text text-anchor="middle" x="1205.5" y="-184.5" font-family="Helvetica,sans-Serif" font-size="10.00">int</text>
</g>
<!-- Node16&#45;&gt;Node2 -->
<g id="edge18" class="edge"><title>Node16&#45;&gt;Node2</title>
<path fill="none" stroke="#9a32cd" stroke-dasharray="5,2" d="M1230.11,-194.07C1254.59,-201.048 1294.09,-211.331 1329,-216 1482.98,-236.594 1664.85,-230.455 1767.89,-224.184"/>
<polygon fill="#9a32cd" stroke="#9a32cd" points="1230.87,-190.647 1220.29,-191.218 1228.92,-197.369 1230.87,-190.647"/>
<text text-anchor="middle" x="1509.5" y="-245" font-family="Helvetica,sans-Serif" font-size="10.00"> NumDims</text>
<text text-anchor="middle" x="1509.5" y="-234" font-family="Helvetica,sans-Serif" font-size="10.00">PacketSize</text>
</g>
<!-- Node16&#45;&gt;Node3 -->
<g id="edge16" class="edge"><title>Node16&#45;&gt;Node3</title>
<path fill="none" stroke="#9a32cd" stroke-dasharray="5,2" d="M1230.05,-186.945C1251.23,-186.963 1283.2,-187.155 1311,-188 1316.83,-188.177 1322.9,-188.408 1328.97,-188.669"/>
<polygon fill="#9a32cd" stroke="#9a32cd" points="1230.03,-183.445 1220.03,-186.95 1230.03,-190.445 1230.03,-183.445"/>
<text text-anchor="middle" x="1295.5" y="-191" font-family="Helvetica,sans-Serif" font-size="10.00"> count</text>
</g>
<!-- Node16&#45;&gt;Node17 -->
<g id="edge24" class="edge"><title>Node16&#45;&gt;Node17</title>
<path fill="none" stroke="#9a32cd" stroke-dasharray="5,2" d="M1225.97,-171.053C1248.95,-153.354 1289.11,-125.855 1329,-115 1409.31,-93.1453 1506.2,-101.241 1567.83,-110.45"/>
<polygon fill="#9a32cd" stroke="#9a32cd" points="1223.72,-168.364 1218.04,-177.302 1228.06,-173.862 1223.72,-168.364"/>
<text text-anchor="middle" x="1390" y="-118" font-family="Helvetica,sans-Serif" font-size="10.00"> NumCoords</text>
</g>
<!-- Node17&#45;&gt;Node2 -->
<g id="edge19" class="edge"><title>Node17&#45;&gt;Node2</title>
<path fill="none" stroke="#9a32cd" stroke-dasharray="5,2" d="M1674.98,-141.068C1697.39,-150.899 1725.16,-163.087 1750,-174 1767.36,-181.63 1786.42,-190.013 1803.2,-197.397"/>
<polygon fill="#9a32cd" stroke="#9a32cd" points="1676.29,-137.821 1665.73,-137.01 1673.48,-144.232 1676.29,-137.821"/>
<text text-anchor="middle" x="1730.5" y="-177" font-family="Helvetica,sans-Serif" font-size="10.00"> m_impl</text>
</g>
<!-- Node18 -->
<g id="node17" class="node"><title>Node18</title>
<g id="a_node17"><a xlink:href="structEigen_1_1internal_1_1traits.html" target="_top" xlink:title="Eigen::internal::traits\l\&lt; ArgType \&gt;">
<polygon fill="none" stroke="black" points="1332,-39 1332,-69 1448,-69 1448,-39 1332,-39"/>
<text text-anchor="start" x="1340" y="-57" font-family="Helvetica,sans-Serif" font-size="10.00">Eigen::internal::traits</text>
<text text-anchor="middle" x="1390" y="-46" font-family="Helvetica,sans-Serif" font-size="10.00">&lt; ArgType &gt;</text>
</a>
</g>
</g>
<!-- Node18&#45;&gt;Node17 -->
<g id="edge20" class="edge"><title>Node18&#45;&gt;Node17</title>
<path fill="none" stroke="#9a32cd" stroke-dasharray="5,2" d="M1458.28,-60.7605C1487.03,-64.8367 1520.66,-71.2059 1550,-81 1569.3,-87.4414 1589.66,-98.0266 1604.95,-106.828"/>
<polygon fill="#9a32cd" stroke="#9a32cd" points="1458.71,-57.2866 1448.33,-59.4124 1457.77,-64.2233 1458.71,-57.2866"/>
<text text-anchor="middle" x="1509.5" y="-84" font-family="Helvetica,sans-Serif" font-size="10.00"> m_data</text>
</g>
<!-- Node19 -->
<g id="node18" class="node"><title>Node19</title>
<polygon fill="none" stroke="#bfbfbf" points="1365.5,-0.5 1365.5,-19.5 1414.5,-19.5 1414.5,-0.5 1365.5,-0.5"/>
<text text-anchor="middle" x="1390" y="-7.5" font-family="Helvetica,sans-Serif" font-size="10.00">Device</text>
</g>
<!-- Node19&#45;&gt;Node17 -->
<g id="edge22" class="edge"><title>Node19&#45;&gt;Node17</title>
<path fill="none" stroke="#9a32cd" stroke-dasharray="5,2" d="M1424.89,-13.029C1458.35,-17.1525 1510.16,-26.6438 1550,-48 1577.75,-62.8778 1603.13,-89.8356 1617.42,-106.781"/>
<polygon fill="#9a32cd" stroke="#9a32cd" points="1425.04,-9.52342 1414.7,-11.8705 1424.24,-16.4786 1425.04,-9.52342"/>
<text text-anchor="middle" x="1509.5" y="-51" font-family="Helvetica,sans-Serif" font-size="10.00"> m_device</text>
</g>
<!-- Node20 -->
<g id="node19" class="node"><title>Node20</title>
<polygon fill="none" stroke="#bfbfbf" points="1342.5,-135.5 1342.5,-154.5 1437.5,-154.5 1437.5,-135.5 1342.5,-135.5"/>
<text text-anchor="middle" x="1390" y="-142.5" font-family="Helvetica,sans-Serif" font-size="10.00">const ArgType &amp;</text>
</g>
<!-- Node20&#45;&gt;Node17 -->
<g id="edge23" class="edge"><title>Node20&#45;&gt;Node17</title>
<path fill="none" stroke="#9a32cd" stroke-dasharray="5,2" d="M1447.91,-139.512C1484.01,-136.031 1530.71,-131.527 1567.71,-127.959"/>
<polygon fill="#9a32cd" stroke="#9a32cd" points="1447.17,-136.067 1437.55,-140.511 1447.84,-143.035 1447.17,-136.067"/>
<text text-anchor="middle" x="1509.5" y="-140" font-family="Helvetica,sans-Serif" font-size="10.00"> m_impl</text>
</g>
</g>
</svg>
