<?xml version="1.0" encoding="UTF-8" standalone="no"?>
<!DOCTYPE svg PUBLIC "-//W3C//DTD SVG 1.1//EN"
 "http://www.w3.org/Graphics/SVG/1.1/DTD/svg11.dtd">
<!-- Generated by graphviz version 2.38.0 (20140413.2041)
 -->
<!-- Title: Eigen::internal::kernel_retval_base&lt; _DecompositionType &gt; Pages: 1 -->
<svg width="643pt" height="174pt"
 viewBox="0.00 0.00 643.00 173.50" xmlns="http://www.w3.org/2000/svg" xmlns:xlink="http://www.w3.org/1999/xlink">
<g id="graph0" class="graph" transform="scale(1 1) rotate(0) translate(4 169.5)">
<title>Eigen::internal::kernel_retval_base&lt; _DecompositionType &gt;</title>
<!-- Node4 -->
<g id="node1" class="node"><title>Node4</title>
<polygon fill="#bfbfbf" stroke="black" points="469,-33.5 469,-74.5 635,-74.5 635,-33.5 469,-33.5"/>
<text text-anchor="start" x="477" y="-62.5" font-family="Helvetica,sans-Serif" font-size="10.00">Eigen::internal::kernel</text>
<text text-anchor="start" x="477" y="-51.5" font-family="Helvetica,sans-Serif" font-size="10.00">_retval_base&lt; _Decomposition</text>
<text text-anchor="middle" x="552" y="-40.5" font-family="Helvetica,sans-Serif" font-size="10.00">Type &gt;</text>
</g>
<!-- Node5 -->
<g id="node2" class="node"><title>Node5</title>
<g id="a_node2"><a xlink:href="classEigen_1_1ReturnByValue.html" target="_top" xlink:title="Eigen::ReturnByValue\l\&lt; kernel_retval_base\l\&lt; _DecompositionType \&gt; \&gt;">
<polygon fill="none" stroke="black" points="243.5,-88.5 243.5,-129.5 392.5,-129.5 392.5,-88.5 243.5,-88.5"/>
<text text-anchor="start" x="251.5" y="-117.5" font-family="Helvetica,sans-Serif" font-size="10.00">Eigen::ReturnByValue</text>
<text text-anchor="start" x="251.5" y="-106.5" font-family="Helvetica,sans-Serif" font-size="10.00">&lt; kernel_retval_base</text>
<text text-anchor="middle" x="318" y="-95.5" font-family="Helvetica,sans-Serif" font-size="10.00">&lt; _DecompositionType &gt; &gt;</text>
</a>
</g>
</g>
<!-- Node5&#45;&gt;Node4 -->
<g id="edge1" class="edge"><title>Node5&#45;&gt;Node4</title>
<path fill="none" stroke="midnightblue" d="M402.679,-91.1202C418.742,-87.5454 435.412,-83.7374 451,-80 458.239,-78.2643 465.759,-76.4082 473.279,-74.5161"/>
<polygon fill="midnightblue" stroke="midnightblue" points="401.778,-87.7348 392.771,-93.3131 403.291,-94.5694 401.778,-87.7348"/>
</g>
<!-- Node6 -->
<g id="node3" class="node"><title>Node6</title>
<polygon fill="none" stroke="#bfbfbf" points="0,-113 0,-165 206,-165 206,-113 0,-113"/>
<text text-anchor="start" x="8" y="-153" font-family="Helvetica,sans-Serif" font-size="10.00">internal::dense_xpr</text>
<text text-anchor="start" x="8" y="-142" font-family="Helvetica,sans-Serif" font-size="10.00">_base::type&lt; ReturnByValue</text>
<text text-anchor="start" x="8" y="-131" font-family="Helvetica,sans-Serif" font-size="10.00">&lt; kernel_retval_base&lt; _Decomposition</text>
<text text-anchor="middle" x="103" y="-120" font-family="Helvetica,sans-Serif" font-size="10.00">Type &gt; &gt; &gt;</text>
</g>
<!-- Node6&#45;&gt;Node5 -->
<g id="edge2" class="edge"><title>Node6&#45;&gt;Node5</title>
<path fill="none" stroke="midnightblue" d="M216.176,-123.2C225.424,-121.898 234.614,-120.604 243.467,-119.357"/>
<polygon fill="midnightblue" stroke="midnightblue" points="215.547,-119.755 206.133,-124.615 216.523,-126.686 215.547,-119.755"/>
</g>
<!-- Node7 -->
<g id="node4" class="node"><title>Node7</title>
<g id="a_node4"><a xlink:href="classEigen_1_1internal_1_1no__assignment__operator.html" target="_top" xlink:title="Eigen::internal::no\l_assignment_operator">
<polygon fill="none" stroke="black" points="40.5,-64 40.5,-94 165.5,-94 165.5,-64 40.5,-64"/>
<text text-anchor="start" x="48.5" y="-82" font-family="Helvetica,sans-Serif" font-size="10.00">Eigen::internal::no</text>
<text text-anchor="middle" x="103" y="-71" font-family="Helvetica,sans-Serif" font-size="10.00">_assignment_operator</text>
</a>
</g>
</g>
<!-- Node7&#45;&gt;Node5 -->
<g id="edge3" class="edge"><title>Node7&#45;&gt;Node5</title>
<path fill="none" stroke="#8b1a1a" d="M175.784,-89.1104C197.582,-92.1805 221.558,-95.5575 243.469,-98.6435"/>
<polygon fill="#8b1a1a" stroke="#8b1a1a" points="175.999,-85.6062 165.608,-87.6772 175.023,-92.5378 175.999,-85.6062"/>
</g>
<!-- Node8 -->
<g id="node5" class="node"><title>Node8</title>
<polygon fill="none" stroke="#bfbfbf" points="252.5,-39 252.5,-69 383.5,-69 383.5,-39 252.5,-39"/>
<text text-anchor="start" x="260.5" y="-57" font-family="Helvetica,sans-Serif" font-size="10.00">EIGEN_DEFAULT_DENSE</text>
<text text-anchor="middle" x="318" y="-46" font-family="Helvetica,sans-Serif" font-size="10.00">_INDEX_TYPE</text>
</g>
<!-- Node8&#45;&gt;Node4 -->
<g id="edge4" class="edge"><title>Node8&#45;&gt;Node4</title>
<path fill="none" stroke="#9a32cd" stroke-dasharray="5,2" d="M393.724,-54C417.709,-54 444.402,-54 468.887,-54"/>
<polygon fill="#9a32cd" stroke="#9a32cd" points="393.625,-50.5001 383.625,-54 393.625,-57.5001 393.625,-50.5001"/>
<text text-anchor="middle" x="431" y="-68" font-family="Helvetica,sans-Serif" font-size="10.00"> m_rank</text>
<text text-anchor="middle" x="431" y="-57" font-family="Helvetica,sans-Serif" font-size="10.00">m_cols</text>
</g>
<!-- Node9 -->
<g id="node6" class="node"><title>Node9</title>
<polygon fill="none" stroke="#bfbfbf" points="243,-0.5 243,-19.5 393,-19.5 393,-0.5 243,-0.5"/>
<text text-anchor="middle" x="318" y="-7.5" font-family="Helvetica,sans-Serif" font-size="10.00">const DecompositionType &amp;</text>
</g>
<!-- Node9&#45;&gt;Node4 -->
<g id="edge5" class="edge"><title>Node9&#45;&gt;Node4</title>
<path fill="none" stroke="#9a32cd" stroke-dasharray="5,2" d="M379.511,-21.4763C406.779,-26.6478 439.399,-32.8342 468.833,-38.4166"/>
<polygon fill="#9a32cd" stroke="#9a32cd" points="379.818,-17.9721 369.341,-19.5473 378.513,-24.8495 379.818,-17.9721"/>
<text text-anchor="middle" x="431" y="-38" font-family="Helvetica,sans-Serif" font-size="10.00"> m_dec</text>
</g>
</g>
</svg>
