<?xml version="1.0" encoding="UTF-8" standalone="no"?>
<!DOCTYPE svg PUBLIC "-//W3C//DTD SVG 1.1//EN"
 "http://www.w3.org/Graphics/SVG/1.1/DTD/svg11.dtd">
<!-- Generated by graphviz version 2.38.0 (20140413.2041)
 -->
<!-- Title: Eigen::internal::generic_product_impl&lt; Lhs, Rhs, DenseShape, DenseShape, GemvProduct &gt;::scaleAndAddTo Pages: 1 -->
<!--zoomable 137 -->
<svg id="main" version="1.1" xmlns="http://www.w3.org/2000/svg" xmlns:xlink="http://www.w3.org/1999/xlink" xml:space="preserve" onload="init(evt)">
<style type="text/css"><![CDATA[
.edge:hover path { stroke: red; }
.edge:hover polygon { stroke: red; fill: red; }
]]></style>
<script type="text/javascript"><![CDATA[
var edges = document.getElementsByTagName('g');
if (edges && edges.length) {
  for (var i=0;i<edges.length;i++) {
    if (edges[i].id.substr(0,4)=='edge') {
      edges[i].setAttribute('class','edge');
    }
  }
}
]]></script>
        <defs>
                <circle id="rim" cx="0" cy="0" r="7"/>
                <circle id="rim2" cx="0" cy="0" r="3.5"/>
                <g id="zoomPlus">
                        <use xlink:href="#rim" fill="#404040">
                                <set attributeName="fill" to="#808080" begin="zoomplus.mouseover" end="zoomplus.mouseout"/>
                        </use>
                        <path d="M-4,0h8M0,-4v8" fill="none" stroke="white" stroke-width="1.5" pointer-events="none"/>
                </g>
                <g id="zoomMin">
                        <use xlink:href="#rim" fill="#404040">
                                <set attributeName="fill" to="#808080" begin="zoomminus.mouseover" end="zoomminus.mouseout"/>
                        </use>
                        <path d="M-4,0h8" fill="none" stroke="white" stroke-width="1.5" pointer-events="none"/>
                </g>
                <g id="dirArrow">
                        <path fill="none" stroke="white" stroke-width="1.5" d="M0,-3.0v7 M-2.5,-0.5L0,-3.0L2.5,-0.5"/>
                </g>
               <g id="resetDef">
                       <use xlink:href="#rim2" fill="#404040">
                               <set attributeName="fill" to="#808080" begin="reset.mouseover" end="reset.mouseout"/>
                       </use>
               </g>
        </defs>

<script type="text/javascript">
var viewWidth = 508;
var viewHeight = 137;
var sectionId = 'dynsection-2';
</script>
<script xlink:href="svgpan.js"/>
<svg id="graph" class="graph">
<g id="viewport">
<title>Eigen::internal::generic_product_impl&lt; Lhs, Rhs, DenseShape, DenseShape, GemvProduct &gt;::scaleAndAddTo</title>
<!-- Node0 -->
<g id="node1" class="node"><title>Node0</title>
<polygon fill="#bfbfbf" stroke="black" points="0,-57.5 0,-109.5 174,-109.5 174,-57.5 0,-57.5"/>
<text text-anchor="start" x="8" y="-97.5" font-family="Helvetica,sans-Serif" font-size="10.00">Eigen::internal::generic</text>
<text text-anchor="start" x="8" y="-86.5" font-family="Helvetica,sans-Serif" font-size="10.00">_product_impl&lt; Lhs, Rhs,</text>
<text text-anchor="start" x="8" y="-75.5" font-family="Helvetica,sans-Serif" font-size="10.00"> DenseShape, DenseShape,</text>
<text text-anchor="middle" x="87" y="-64.5" font-family="Helvetica,sans-Serif" font-size="10.00"> GemvProduct &gt;::scaleAndAddTo</text>
</g>
<!-- Node1 -->
<g id="node2" class="node"><title>Node1</title>
<g id="a_node2"><a xlink:href="level1__impl_8h.html#a4e8e1c1bb9d4e05fc671fc133ec9dc9b" target="_top" xlink:title="int">
<polygon fill="none" stroke="black" points="256,-93 256,-112 285,-112 285,-93 256,-93"/>
<text text-anchor="middle" x="270.5" y="-100" font-family="Helvetica,sans-Serif" font-size="10.00">int</text>
</a>
</g>
</g>
<!-- Node0&#45;&gt;Node1 -->
<g id="edge1" class="edge"><title>Node0&#45;&gt;Node1</title>
<path fill="none" stroke="midnightblue" d="M174.232,-92.527C200.563,-95.2835 227.403,-98.0931 245.854,-100.025"/>
<polygon fill="midnightblue" stroke="midnightblue" points="245.62,-103.519 255.93,-101.08 246.349,-96.5573 245.62,-103.519"/>
</g>
<!-- Node2 -->
<g id="node3" class="node"><title>Node2</title>
<g id="a_node3"><a xlink:href="namespaceEigen_1_1TensorSycl.html#a789ef14500d782279cc4bb95e6ba3dbd" target="_top" xlink:title="Eigen::TensorSycl::run">
<polygon fill="none" stroke="black" points="210,-55 210,-74 331,-74 331,-55 210,-55"/>
<text text-anchor="middle" x="270.5" y="-62" font-family="Helvetica,sans-Serif" font-size="10.00">Eigen::TensorSycl::run</text>
</a>
</g>
</g>
<!-- Node0&#45;&gt;Node2 -->
<g id="edge2" class="edge"><title>Node0&#45;&gt;Node2</title>
<path fill="none" stroke="midnightblue" d="M174.232,-74.473C182.815,-73.5744 191.453,-72.6702 199.836,-71.7927"/>
<polygon fill="midnightblue" stroke="midnightblue" points="200.334,-75.2598 209.915,-70.7375 199.605,-68.2978 200.334,-75.2598"/>
</g>
<!-- Node3 -->
<g id="node4" class="node"><title>Node3</title>
<g id="a_node4"><a xlink:href="structEigen_1_1TensorEvaluator.html#ae188d806978166eb8cbffbd63c944fb3" target="_top" xlink:title="Eigen::TensorEvaluator\l::evalSubExprsIfNeeded">
<polygon fill="none" stroke="black" points="368.5,-98.5 368.5,-128.5 498.5,-128.5 498.5,-98.5 368.5,-98.5"/>
<text text-anchor="start" x="376.5" y="-116.5" font-family="Helvetica,sans-Serif" font-size="10.00">Eigen::TensorEvaluator</text>
<text text-anchor="middle" x="433.5" y="-105.5" font-family="Helvetica,sans-Serif" font-size="10.00">::evalSubExprsIfNeeded</text>
</a>
</g>
</g>
<!-- Node2&#45;&gt;Node3 -->
<g id="edge3" class="edge"><title>Node2&#45;&gt;Node3</title>
<path fill="none" stroke="midnightblue" d="M302.925,-74.064C322.952,-80.1592 349.532,-88.2488 373.404,-95.5143"/>
<polygon fill="midnightblue" stroke="midnightblue" points="372.507,-98.8997 383.093,-98.463 374.545,-92.203 372.507,-98.8997"/>
</g>
<!-- Node4 -->
<g id="node5" class="node"><title>Node4</title>
<g id="a_node5"><a xlink:href="namespaceEigen_1_1TensorSycl_1_1internal.html#a525ee07cdeb68d18359b511b1ae9ffc7" target="_top" xlink:title="template deduction function for FunctorExtractor ">
<polygon fill="none" stroke="black" points="367,-49.5 367,-79.5 500,-79.5 500,-49.5 367,-49.5"/>
<text text-anchor="start" x="375" y="-67.5" font-family="Helvetica,sans-Serif" font-size="10.00">Eigen::TensorSycl::</text>
<text text-anchor="middle" x="433.5" y="-56.5" font-family="Helvetica,sans-Serif" font-size="10.00">internal::extractFunctors</text>
</a>
</g>
</g>
<!-- Node2&#45;&gt;Node4 -->
<g id="edge4" class="edge"><title>Node2&#45;&gt;Node4</title>
<path fill="none" stroke="midnightblue" d="M331.45,-64.5C339.65,-64.5 348.154,-64.5 356.59,-64.5"/>
<polygon fill="midnightblue" stroke="midnightblue" points="356.823,-68.0001 366.823,-64.5 356.823,-61.0001 356.823,-68.0001"/>
</g>
<!-- Node5 -->
<g id="node6" class="node"><title>Node5</title>
<g id="a_node6"><a xlink:href="structEigen_1_1TensorEvaluator.html#a76ec54bcca9523ec104aaa9adaf74983" target="_top" xlink:title="Eigen::TensorEvaluator\l::cleanup">
<polygon fill="none" stroke="black" points="371,-0.5 371,-30.5 496,-30.5 496,-0.5 371,-0.5"/>
<text text-anchor="start" x="379" y="-18.5" font-family="Helvetica,sans-Serif" font-size="10.00">Eigen::TensorEvaluator</text>
<text text-anchor="middle" x="433.5" y="-7.5" font-family="Helvetica,sans-Serif" font-size="10.00">::cleanup</text>
</a>
</g>
</g>
<!-- Node2&#45;&gt;Node5 -->
<g id="edge5" class="edge"><title>Node2&#45;&gt;Node5</title>
<path fill="none" stroke="midnightblue" d="M302.925,-54.936C322.952,-48.8408 349.532,-40.7512 373.404,-33.4857"/>
<polygon fill="midnightblue" stroke="midnightblue" points="374.545,-36.797 383.093,-30.537 372.507,-30.1003 374.545,-36.797"/>
</g>
</g>
</svg>
        <g id="navigator" transform="translate(0 0)" fill="#404254">
                <rect fill="#f2f5e9" fill-opacity="0.5" stroke="#606060" stroke-width=".5" x="0" y="0" width="60" height="60"/>
                <use id="zoomplus" xlink:href="#zoomPlus" x="17" y="9" onmousedown="handleZoom(evt,'in')"/>
                <use id="zoomminus" xlink:href="#zoomMin" x="42" y="9" onmousedown="handleZoom(evt,'out')"/>
                <use id="reset" xlink:href="#resetDef" x="30" y="36" onmousedown="handleReset()"/>
                <g id="arrowUp" xlink:href="#dirArrow" transform="translate(30 24)" onmousedown="handlePan(0,-1)">
                  <use xlink:href="#rim" fill="#404040">
                        <set attributeName="fill" to="#808080" begin="arrowUp.mouseover" end="arrowUp.mouseout"/>
                  </use>
                  <path fill="none" stroke="white" stroke-width="1.5" d="M0,-3.0v7 M-2.5,-0.5L0,-3.0L2.5,-0.5"/>
                </g>
                <g id="arrowRight" xlink:href="#dirArrow" transform="rotate(90) translate(36 -43)" onmousedown="handlePan(1,0)">
                  <use xlink:href="#rim" fill="#404040">
                        <set attributeName="fill" to="#808080" begin="arrowRight.mouseover" end="arrowRight.mouseout"/>
                  </use>
                  <path fill="none" stroke="white" stroke-width="1.5" d="M0,-3.0v7 M-2.5,-0.5L0,-3.0L2.5,-0.5"/>
                </g>
                <g id="arrowDown" xlink:href="#dirArrow" transform="rotate(180) translate(-30 -48)" onmousedown="handlePan(0,1)">
                  <use xlink:href="#rim" fill="#404040">
                        <set attributeName="fill" to="#808080" begin="arrowDown.mouseover" end="arrowDown.mouseout"/>
                  </use>
                  <path fill="none" stroke="white" stroke-width="1.5" d="M0,-3.0v7 M-2.5,-0.5L0,-3.0L2.5,-0.5"/>
                </g>
                <g id="arrowLeft" xlink:href="#dirArrow" transform="rotate(270) translate(-36 17)" onmousedown="handlePan(-1,0)">
                  <use xlink:href="#rim" fill="#404040">
                        <set attributeName="fill" to="#808080" begin="arrowLeft.mouseover" end="arrowLeft.mouseout"/>
                  </use>
                  <path fill="none" stroke="white" stroke-width="1.5" d="M0,-3.0v7 M-2.5,-0.5L0,-3.0L2.5,-0.5"/>
                </g>
        </g>
        <svg viewBox="0 0 15 15" width="100%" height="30px" preserveAspectRatio="xMaxYMin meet">
         <g id="arrow_out" transform="scale(0.3 0.3)">
          <a xlink:href="structEigen_1_1internal_1_1generic__product__impl_3_01Lhs_00_01Rhs_00_01DenseShape_00_01DenseShape_00_01GemvProduct_01_4_a8baafd628addab2c5bc815dde9c8eb9b_cgraph_org.svg" target="_base">
           <rect id="button" ry="5" rx="5" y="6" x="6" height="38" width="38"
                fill="#f2f5e9" fill-opacity="0.5" stroke="#606060" stroke-width="1.0"/>
           <path id="arrow"
             d="M 11.500037,31.436501 C 11.940474,20.09759 22.043105,11.32322 32.158766,21.979434 L 37.068811,17.246167 C 37.068811,17.246167 37.088388,32 37.088388,32 L 22.160133,31.978069 C 22.160133,31.978069 26.997745,27.140456 26.997745,27.140456 C 18.528582,18.264221 13.291696,25.230495 11.500037,31.436501 z"
             style="fill:#404040;"/>
          </a>
         </g>
        </svg>
</svg>
