<?xml version="1.0" encoding="UTF-8" standalone="no"?>
<!DOCTYPE svg PUBLIC "-//W3C//DTD SVG 1.1//EN"
 "http://www.w3.org/Graphics/SVG/1.1/DTD/svg11.dtd">
<!-- Generated by graphviz version 2.38.0 (20140413.2041)
 -->
<!-- Title: Eigen::internal::sparse_diagonal_product_evaluator&lt; SparseXprType, DiagCoeffType, SDP_AsCwiseProduct &gt; Pages: 1 -->
<svg width="717pt" height="122pt"
 viewBox="0.00 0.00 717.00 121.50" xmlns="http://www.w3.org/2000/svg" xmlns:xlink="http://www.w3.org/1999/xlink">
<g id="graph0" class="graph" transform="scale(1 1) rotate(0) translate(4 117.5)">
<title>Eigen::internal::sparse_diagonal_product_evaluator&lt; SparseXprType, DiagCoeffType, SDP_AsCwiseProduct &gt;</title>
<!-- Node1 -->
<g id="node1" class="node"><title>Node1</title>
<polygon fill="#bfbfbf" stroke="black" points="534,-30.5 534,-82.5 709,-82.5 709,-30.5 534,-30.5"/>
<text text-anchor="start" x="542" y="-70.5" font-family="Helvetica,sans-Serif" font-size="10.00">Eigen::internal::sparse</text>
<text text-anchor="start" x="542" y="-59.5" font-family="Helvetica,sans-Serif" font-size="10.00">_diagonal_product_evaluator</text>
<text text-anchor="start" x="542" y="-48.5" font-family="Helvetica,sans-Serif" font-size="10.00">&lt; SparseXprType, DiagCoeffType,</text>
<text text-anchor="middle" x="621.5" y="-37.5" font-family="Helvetica,sans-Serif" font-size="10.00"> SDP_AsCwiseProduct &gt;</text>
</g>
<!-- Node2 -->
<g id="node2" class="node"><title>Node2</title>
<g id="a_node2"><a xlink:href="structEigen_1_1internal_1_1nested__eval.html" target="_top" xlink:title="Eigen::internal::nested\l_eval\&lt; DiagCoeffType,\l SparseXprType::IsRowMajor\l ? SparseXprType::RowsAtCompileTime\l :SparseXprType::ColsAtCompileTime \&gt;">
<polygon fill="none" stroke="black" points="197,-50 197,-113 400,-113 400,-50 197,-50"/>
<text text-anchor="start" x="205" y="-101" font-family="Helvetica,sans-Serif" font-size="10.00">Eigen::internal::nested</text>
<text text-anchor="start" x="205" y="-90" font-family="Helvetica,sans-Serif" font-size="10.00">_eval&lt; DiagCoeffType,</text>
<text text-anchor="start" x="205" y="-79" font-family="Helvetica,sans-Serif" font-size="10.00"> SparseXprType::IsRowMajor</text>
<text text-anchor="start" x="205" y="-68" font-family="Helvetica,sans-Serif" font-size="10.00"> ? SparseXprType::RowsAtCompileTime</text>
<text text-anchor="middle" x="298.5" y="-57" font-family="Helvetica,sans-Serif" font-size="10.00"> :SparseXprType::ColsAtCompileTime &gt;</text>
</a>
</g>
</g>
<!-- Node2&#45;&gt;Node1 -->
<g id="edge1" class="edge"><title>Node2&#45;&gt;Node1</title>
<path fill="none" stroke="#9a32cd" stroke-dasharray="5,2" d="M410.363,-72.8658C450.817,-69.7152 495.937,-66.2012 533.966,-63.2394"/>
<polygon fill="#9a32cd" stroke="#9a32cd" points="409.884,-69.3924 400.186,-73.6584 410.427,-76.3713 409.884,-69.3924"/>
<text text-anchor="middle" x="467" y="-74.5" font-family="Helvetica,sans-Serif" font-size="10.00"> m_diagCoeffNested</text>
</g>
<!-- Node3 -->
<g id="node3" class="node"><title>Node3</title>
<g id="a_node3"><a xlink:href="structEigen_1_1internal_1_1evaluator.html" target="_top" xlink:title="Eigen::internal::evaluator\l\&lt; SparseXprType \&gt;">
<polygon fill="none" stroke="black" points="230.5,-0.5 230.5,-30.5 366.5,-30.5 366.5,-0.5 230.5,-0.5"/>
<text text-anchor="start" x="238.5" y="-18.5" font-family="Helvetica,sans-Serif" font-size="10.00">Eigen::internal::evaluator</text>
<text text-anchor="middle" x="298.5" y="-7.5" font-family="Helvetica,sans-Serif" font-size="10.00">&lt; SparseXprType &gt;</text>
</a>
</g>
</g>
<!-- Node3&#45;&gt;Node1 -->
<g id="edge2" class="edge"><title>Node3&#45;&gt;Node1</title>
<path fill="none" stroke="#9a32cd" stroke-dasharray="5,2" d="M376.98,-25.3961C424.279,-31.4374 484.851,-39.1741 533.752,-45.42"/>
<polygon fill="#9a32cd" stroke="#9a32cd" points="377.155,-21.8902 366.792,-24.0949 376.268,-28.8338 377.155,-21.8902"/>
<text text-anchor="middle" x="467" y="-45.5" font-family="Helvetica,sans-Serif" font-size="10.00"> m_sparseXprEval</text>
</g>
<!-- Node4 -->
<g id="node4" class="node"><title>Node4</title>
<g id="a_node4"><a xlink:href="structEigen_1_1internal_1_1unary__evaluator.html" target="_top" xlink:title="Eigen::internal::unary\l_evaluator\&lt; SparseXprType \&gt;">
<polygon fill="none" stroke="black" points="0,-0.5 0,-30.5 160,-30.5 160,-0.5 0,-0.5"/>
<text text-anchor="start" x="8" y="-18.5" font-family="Helvetica,sans-Serif" font-size="10.00">Eigen::internal::unary</text>
<text text-anchor="middle" x="80" y="-7.5" font-family="Helvetica,sans-Serif" font-size="10.00">_evaluator&lt; SparseXprType &gt;</text>
</a>
</g>
</g>
<!-- Node4&#45;&gt;Node3 -->
<g id="edge3" class="edge"><title>Node4&#45;&gt;Node3</title>
<path fill="none" stroke="midnightblue" d="M170.19,-15.5C190.316,-15.5 211.351,-15.5 230.39,-15.5"/>
<polygon fill="midnightblue" stroke="midnightblue" points="170.081,-12.0001 160.08,-15.5 170.08,-19.0001 170.081,-12.0001"/>
</g>
</g>
</svg>
