<?xml version="1.0" encoding="UTF-8" standalone="no"?>
<!DOCTYPE svg PUBLIC "-//W3C//DTD SVG 1.1//EN"
 "http://www.w3.org/Graphics/SVG/1.1/DTD/svg11.dtd">
<!-- Generated by graphviz version 2.38.0 (20140413.2041)
 -->
<!-- Title: Eigen::internal::significant_decimals_impl::run Pages: 1 -->
<svg width="499pt" height="39pt"
 viewBox="0.00 0.00 499.00 39.00" xmlns="http://www.w3.org/2000/svg" xmlns:xlink="http://www.w3.org/1999/xlink">
<g id="graph0" class="graph" transform="scale(1 1) rotate(0) translate(4 35)">
<title>Eigen::internal::significant_decimals_impl::run</title>
<!-- Node1 -->
<g id="node1" class="node"><title>Node1</title>
<polygon fill="#bfbfbf" stroke="black" points="0,-0.5 0,-30.5 139,-30.5 139,-0.5 0,-0.5"/>
<text text-anchor="start" x="8" y="-18.5" font-family="Helvetica,sans-Serif" font-size="10.00">Eigen::internal::significant</text>
<text text-anchor="middle" x="69.5" y="-7.5" font-family="Helvetica,sans-Serif" font-size="10.00">_decimals_impl::run</text>
</g>
<!-- Node2 -->
<g id="node2" class="node"><title>Node2</title>
<g id="a_node2"><a xlink:href="namespaceEigen_1_1internal.html#ab2f70c62aa6708bda65f2ce9d49929e0" target="_top" xlink:title="Eigen::internal::print\l_matrix">
<polygon fill="none" stroke="black" points="175,-0.5 175,-30.5 288,-30.5 288,-0.5 175,-0.5"/>
<text text-anchor="start" x="183" y="-18.5" font-family="Helvetica,sans-Serif" font-size="10.00">Eigen::internal::print</text>
<text text-anchor="middle" x="231.5" y="-7.5" font-family="Helvetica,sans-Serif" font-size="10.00">_matrix</text>
</a>
</g>
</g>
<!-- Node1&#45;&gt;Node2 -->
<g id="edge1" class="edge"><title>Node1&#45;&gt;Node2</title>
<path fill="none" stroke="midnightblue" d="M149.344,-15.5C157.941,-15.5 166.557,-15.5 174.792,-15.5"/>
<polygon fill="midnightblue" stroke="midnightblue" points="149.283,-12.0001 139.283,-15.5 149.283,-19.0001 149.283,-12.0001"/>
</g>
<!-- Node3 -->
<g id="node3" class="node"><title>Node3</title>
<g id="a_node3"><a xlink:href="classEigen_1_1DenseBase.html#a3806d3f42de165878dace160e6aba40a" target="_top" xlink:title="Eigen::DenseBase::operator\&lt;\&lt;">
<polygon fill="none" stroke="black" points="324,-6 324,-25 491,-25 491,-6 324,-6"/>
<text text-anchor="middle" x="407.5" y="-13" font-family="Helvetica,sans-Serif" font-size="10.00">Eigen::DenseBase::operator&lt;&lt;</text>
</a>
</g>
</g>
<!-- Node2&#45;&gt;Node3 -->
<g id="edge2" class="edge"><title>Node2&#45;&gt;Node3</title>
<path fill="none" stroke="midnightblue" d="M298.139,-15.5C306.558,-15.5 315.262,-15.5 323.908,-15.5"/>
<polygon fill="midnightblue" stroke="midnightblue" points="298.033,-12.0001 288.033,-15.5 298.033,-19.0001 298.033,-12.0001"/>
</g>
</g>
</svg>
