<?xml version="1.0" encoding="UTF-8" standalone="no"?>
<!DOCTYPE svg PUBLIC "-//W3C//DTD SVG 1.1//EN"
 "http://www.w3.org/Graphics/SVG/1.1/DTD/svg11.dtd">
<!-- Generated by graphviz version 2.38.0 (20140413.2041)
 -->
<!-- Title: Eigen::TensorEvaluator&lt; const TensorVolumePatchOp&lt; Planes, Rows, Cols, ArgType &gt;, Device &gt;::TensorEvaluator Pages: 1 -->
<svg width="350pt" height="1107pt"
 viewBox="0.00 0.00 350.00 1106.50" xmlns="http://www.w3.org/2000/svg" xmlns:xlink="http://www.w3.org/1999/xlink">
<g id="graph0" class="graph" transform="scale(1 1) rotate(0) translate(4 1102.5)">
<title>Eigen::TensorEvaluator&lt; const TensorVolumePatchOp&lt; Planes, Rows, Cols, ArgType &gt;, Device &gt;::TensorEvaluator</title>
<!-- Node0 -->
<g id="node1" class="node"><title>Node0</title>
<polygon fill="#bfbfbf" stroke="black" points="0,-528.5 0,-580.5 164,-580.5 164,-528.5 0,-528.5"/>
<text text-anchor="start" x="8" y="-568.5" font-family="Helvetica,sans-Serif" font-size="10.00">Eigen::TensorEvaluator</text>
<text text-anchor="start" x="8" y="-557.5" font-family="Helvetica,sans-Serif" font-size="10.00">&lt; const TensorVolumePatchOp</text>
<text text-anchor="start" x="8" y="-546.5" font-family="Helvetica,sans-Serif" font-size="10.00">&lt; Planes, Rows, Cols, ArgType</text>
<text text-anchor="middle" x="82" y="-535.5" font-family="Helvetica,sans-Serif" font-size="10.00"> &gt;, Device &gt;::TensorEvaluator</text>
</g>
<!-- Node1 -->
<g id="node2" class="node"><title>Node1</title>
<g id="a_node2"><a xlink:href="ArrayCwiseUnaryOps_8h.html#a63043b6807e8e10fb1adf4667e3664d2" target="_top" xlink:title="ceil">
<polygon fill="none" stroke="black" points="255,-1079 255,-1098 287,-1098 287,-1079 255,-1079"/>
<text text-anchor="middle" x="271" y="-1086" font-family="Helvetica,sans-Serif" font-size="10.00">ceil</text>
</a>
</g>
</g>
<!-- Node0&#45;&gt;Node1 -->
<g id="edge1" class="edge"><title>Node0&#45;&gt;Node1</title>
<path fill="none" stroke="midnightblue" d="M85.4274,-580.731C94.7013,-675.371 130.898,-997.458 200,-1069.5 211.504,-1081.49 229.749,-1086.17 244.728,-1087.89"/>
<polygon fill="midnightblue" stroke="midnightblue" points="244.675,-1091.39 254.915,-1088.68 245.216,-1084.41 244.675,-1091.39"/>
</g>
<!-- Node2 -->
<g id="node3" class="node"><title>Node2</title>
<g id="a_node3"><a xlink:href="classEigen_1_1TensorVolumePatchOp.html#ae4689d47bf6784443f60f14ddff059a4" target="_top" xlink:title="Eigen::TensorVolumePatch\lOp::col_inflate_strides">
<polygon fill="none" stroke="black" points="200,-1029.5 200,-1059.5 342,-1059.5 342,-1029.5 200,-1029.5"/>
<text text-anchor="start" x="208" y="-1047.5" font-family="Helvetica,sans-Serif" font-size="10.00">Eigen::TensorVolumePatch</text>
<text text-anchor="middle" x="271" y="-1036.5" font-family="Helvetica,sans-Serif" font-size="10.00">Op::col_inflate_strides</text>
</a>
</g>
</g>
<!-- Node0&#45;&gt;Node2 -->
<g id="edge2" class="edge"><title>Node0&#45;&gt;Node2</title>
<path fill="none" stroke="midnightblue" d="M86.2517,-580.523C97.7519,-668.682 139.111,-954.248 200,-1020.5 200.782,-1021.35 201.596,-1022.17 202.439,-1022.96"/>
<polygon fill="midnightblue" stroke="midnightblue" points="200.642,-1026 210.697,-1029.34 204.917,-1020.46 200.642,-1026"/>
</g>
<!-- Node3 -->
<g id="node4" class="node"><title>Node3</title>
<g id="a_node4"><a xlink:href="classEigen_1_1TensorVolumePatchOp.html#a3d36f431162ace90c6fd88c2c099d6eb" target="_top" xlink:title="Eigen::TensorVolumePatch\lOp::col_strides">
<polygon fill="none" stroke="black" points="200,-980.5 200,-1010.5 342,-1010.5 342,-980.5 200,-980.5"/>
<text text-anchor="start" x="208" y="-998.5" font-family="Helvetica,sans-Serif" font-size="10.00">Eigen::TensorVolumePatch</text>
<text text-anchor="middle" x="271" y="-987.5" font-family="Helvetica,sans-Serif" font-size="10.00">Op::col_strides</text>
</a>
</g>
</g>
<!-- Node0&#45;&gt;Node3 -->
<g id="edge3" class="edge"><title>Node0&#45;&gt;Node3</title>
<path fill="none" stroke="midnightblue" d="M82.4692,-580.732C82.4596,-653.092 92.463,-857.68 200,-971.5 200.918,-972.472 201.877,-973.404 202.873,-974.299"/>
<polygon fill="midnightblue" stroke="midnightblue" points="201.019,-977.283 211.131,-980.445 205.199,-971.667 201.019,-977.283"/>
</g>
<!-- Node4 -->
<g id="node5" class="node"><title>Node4</title>
<g id="a_node5"><a xlink:href="structEigen_1_1TensorEvaluator.html#af32e0f48e24581602b66e9d33af58c85" target="_top" xlink:title="Eigen::TensorEvaluator\l::dimensions">
<polygon fill="none" stroke="black" points="208.5,-931.5 208.5,-961.5 333.5,-961.5 333.5,-931.5 208.5,-931.5"/>
<text text-anchor="start" x="216.5" y="-949.5" font-family="Helvetica,sans-Serif" font-size="10.00">Eigen::TensorEvaluator</text>
<text text-anchor="middle" x="271" y="-938.5" font-family="Helvetica,sans-Serif" font-size="10.00">::dimensions</text>
</a>
</g>
</g>
<!-- Node0&#45;&gt;Node4 -->
<g id="edge4" class="edge"><title>Node0&#45;&gt;Node4</title>
<path fill="none" stroke="midnightblue" d="M83.6405,-580.797C86.6912,-647.367 103.918,-824.235 200,-922.5 200.935,-923.456 201.909,-924.374 202.918,-925.255"/>
<polygon fill="midnightblue" stroke="midnightblue" points="201.114,-928.271 211.26,-931.321 205.231,-922.609 201.114,-928.271"/>
</g>
<!-- Node5 -->
<g id="node6" class="node"><title>Node5</title>
<g id="a_node6"><a xlink:href="classEigen_1_1TensorVolumePatchOp.html#acf7081fc28c88e5444c0264b721d4001" target="_top" xlink:title="Eigen::TensorVolumePatch\lOp::in_col_strides">
<polygon fill="none" stroke="black" points="200,-882.5 200,-912.5 342,-912.5 342,-882.5 200,-882.5"/>
<text text-anchor="start" x="208" y="-900.5" font-family="Helvetica,sans-Serif" font-size="10.00">Eigen::TensorVolumePatch</text>
<text text-anchor="middle" x="271" y="-889.5" font-family="Helvetica,sans-Serif" font-size="10.00">Op::in_col_strides</text>
</a>
</g>
</g>
<!-- Node0&#45;&gt;Node5 -->
<g id="edge5" class="edge"><title>Node0&#45;&gt;Node5</title>
<path fill="none" stroke="midnightblue" d="M85.1485,-580.86C91.4671,-641.205 115.274,-790.554 200,-873.5 201.09,-874.567 202.23,-875.587 203.412,-876.562"/>
<polygon fill="midnightblue" stroke="midnightblue" points="201.549,-879.529 211.758,-882.359 205.542,-873.78 201.549,-879.529"/>
</g>
<!-- Node6 -->
<g id="node7" class="node"><title>Node6</title>
<g id="a_node7"><a xlink:href="classEigen_1_1TensorVolumePatchOp.html#a7649aeb8e06d893f3a89f444882b6ccc" target="_top" xlink:title="Eigen::TensorVolumePatch\lOp::in_plane_strides">
<polygon fill="none" stroke="black" points="200,-833.5 200,-863.5 342,-863.5 342,-833.5 200,-833.5"/>
<text text-anchor="start" x="208" y="-851.5" font-family="Helvetica,sans-Serif" font-size="10.00">Eigen::TensorVolumePatch</text>
<text text-anchor="middle" x="271" y="-840.5" font-family="Helvetica,sans-Serif" font-size="10.00">Op::in_plane_strides</text>
</a>
</g>
</g>
<!-- Node0&#45;&gt;Node6 -->
<g id="edge6" class="edge"><title>Node0&#45;&gt;Node6</title>
<path fill="none" stroke="midnightblue" d="M87.1509,-580.842C96.9494,-634.372 126.47,-756.534 200,-824.5 201.15,-825.563 202.349,-826.579 203.59,-827.55"/>
<polygon fill="midnightblue" stroke="midnightblue" points="202.041,-830.723 212.31,-833.332 205.91,-824.889 202.041,-830.723"/>
</g>
<!-- Node7 -->
<g id="node8" class="node"><title>Node7</title>
<g id="a_node8"><a xlink:href="classEigen_1_1TensorVolumePatchOp.html#a09e2dca0c18334d9c680291d55d0215f" target="_top" xlink:title="Eigen::TensorVolumePatch\lOp::in_row_strides">
<polygon fill="none" stroke="black" points="200,-784.5 200,-814.5 342,-814.5 342,-784.5 200,-784.5"/>
<text text-anchor="start" x="208" y="-802.5" font-family="Helvetica,sans-Serif" font-size="10.00">Eigen::TensorVolumePatch</text>
<text text-anchor="middle" x="271" y="-791.5" font-family="Helvetica,sans-Serif" font-size="10.00">Op::in_row_strides</text>
</a>
</g>
</g>
<!-- Node0&#45;&gt;Node7 -->
<g id="edge7" class="edge"><title>Node0&#45;&gt;Node7</title>
<path fill="none" stroke="midnightblue" d="M89.922,-580.672C103.396,-626.638 137.456,-722.056 200,-775.5 201.502,-776.783 203.075,-777.999 204.707,-779.15"/>
<polygon fill="midnightblue" stroke="midnightblue" points="202.927,-782.164 213.285,-784.39 206.576,-776.19 202.927,-782.164"/>
</g>
<!-- Node8 -->
<g id="node9" class="node"><title>Node8</title>
<g id="a_node9"><a xlink:href="classEigen_1_1TensorVolumePatchOp.html#aacfbeea312c868ff6da371751e0ec110" target="_top" xlink:title="Eigen::TensorVolumePatch\lOp::padding_bottom">
<polygon fill="none" stroke="black" points="200,-735.5 200,-765.5 342,-765.5 342,-735.5 200,-735.5"/>
<text text-anchor="start" x="208" y="-753.5" font-family="Helvetica,sans-Serif" font-size="10.00">Eigen::TensorVolumePatch</text>
<text text-anchor="middle" x="271" y="-742.5" font-family="Helvetica,sans-Serif" font-size="10.00">Op::padding_bottom</text>
</a>
</g>
</g>
<!-- Node0&#45;&gt;Node8 -->
<g id="edge8" class="edge"><title>Node0&#45;&gt;Node8</title>
<path fill="none" stroke="midnightblue" d="M94.1491,-580.549C111.474,-618.049 148.323,-687.062 200,-726.5 201.826,-727.893 203.737,-729.209 205.715,-730.451"/>
<polygon fill="midnightblue" stroke="midnightblue" points="204.293,-733.664 214.738,-735.439 207.679,-727.538 204.293,-733.664"/>
</g>
<!-- Node9 -->
<g id="node10" class="node"><title>Node9</title>
<g id="a_node10"><a xlink:href="classEigen_1_1TensorVolumePatchOp.html#af69e5958efe2d9d3610aee5dc2cd978c" target="_top" xlink:title="Eigen::TensorVolumePatch\lOp::padding_bottom_z">
<polygon fill="none" stroke="black" points="200,-686.5 200,-716.5 342,-716.5 342,-686.5 200,-686.5"/>
<text text-anchor="start" x="208" y="-704.5" font-family="Helvetica,sans-Serif" font-size="10.00">Eigen::TensorVolumePatch</text>
<text text-anchor="middle" x="271" y="-693.5" font-family="Helvetica,sans-Serif" font-size="10.00">Op::padding_bottom_z</text>
</a>
</g>
</g>
<!-- Node0&#45;&gt;Node9 -->
<g id="edge9" class="edge"><title>Node0&#45;&gt;Node9</title>
<path fill="none" stroke="midnightblue" d="M101.708,-580.628C122.742,-608.264 159.317,-651.403 200,-677.5 202.567,-679.146 205.259,-680.694 208.032,-682.146"/>
<polygon fill="midnightblue" stroke="midnightblue" points="206.572,-685.328 217.105,-686.468 209.582,-679.008 206.572,-685.328"/>
</g>
<!-- Node10 -->
<g id="node11" class="node"><title>Node10</title>
<g id="a_node11"><a xlink:href="classEigen_1_1TensorVolumePatchOp.html#a82cd679f27fe48e3f69749ff05f9a6cb" target="_top" xlink:title="Eigen::TensorVolumePatch\lOp::padding_explicit">
<polygon fill="none" stroke="black" points="200,-637.5 200,-667.5 342,-667.5 342,-637.5 200,-637.5"/>
<text text-anchor="start" x="208" y="-655.5" font-family="Helvetica,sans-Serif" font-size="10.00">Eigen::TensorVolumePatch</text>
<text text-anchor="middle" x="271" y="-644.5" font-family="Helvetica,sans-Serif" font-size="10.00">Op::padding_explicit</text>
</a>
</g>
</g>
<!-- Node0&#45;&gt;Node10 -->
<g id="edge10" class="edge"><title>Node0&#45;&gt;Node10</title>
<path fill="none" stroke="midnightblue" d="M119.396,-580.638C141.867,-595.974 171.719,-614.939 200,-628.5 203.779,-630.312 207.732,-632.052 211.753,-633.709"/>
<polygon fill="midnightblue" stroke="midnightblue" points="210.622,-637.025 221.209,-637.42 213.178,-630.509 210.622,-637.025"/>
</g>
<!-- Node11 -->
<g id="node12" class="node"><title>Node11</title>
<g id="a_node12"><a xlink:href="classEigen_1_1TensorVolumePatchOp.html#ad27206fe7f69ae54383b918146e2966f" target="_top" xlink:title="Eigen::TensorVolumePatch\lOp::padding_left">
<polygon fill="none" stroke="black" points="200,-588.5 200,-618.5 342,-618.5 342,-588.5 200,-588.5"/>
<text text-anchor="start" x="208" y="-606.5" font-family="Helvetica,sans-Serif" font-size="10.00">Eigen::TensorVolumePatch</text>
<text text-anchor="middle" x="271" y="-595.5" font-family="Helvetica,sans-Serif" font-size="10.00">Op::padding_left</text>
</a>
</g>
</g>
<!-- Node0&#45;&gt;Node11 -->
<g id="edge11" class="edge"><title>Node0&#45;&gt;Node11</title>
<path fill="none" stroke="midnightblue" d="M164.205,-575.778C177.038,-579.141 190.185,-582.586 202.657,-585.854"/>
<polygon fill="midnightblue" stroke="midnightblue" points="201.935,-589.283 212.496,-588.432 203.71,-582.512 201.935,-589.283"/>
</g>
<!-- Node12 -->
<g id="node13" class="node"><title>Node12</title>
<g id="a_node13"><a xlink:href="classEigen_1_1TensorVolumePatchOp.html#aa8afb8908e6f399a14fc09aaa4108787" target="_top" xlink:title="Eigen::TensorVolumePatch\lOp::padding_right">
<polygon fill="none" stroke="black" points="200,-539.5 200,-569.5 342,-569.5 342,-539.5 200,-539.5"/>
<text text-anchor="start" x="208" y="-557.5" font-family="Helvetica,sans-Serif" font-size="10.00">Eigen::TensorVolumePatch</text>
<text text-anchor="middle" x="271" y="-546.5" font-family="Helvetica,sans-Serif" font-size="10.00">Op::padding_right</text>
</a>
</g>
</g>
<!-- Node0&#45;&gt;Node12 -->
<g id="edge12" class="edge"><title>Node0&#45;&gt;Node12</title>
<path fill="none" stroke="midnightblue" d="M164.205,-554.5C172.614,-554.5 181.158,-554.5 189.559,-554.5"/>
<polygon fill="midnightblue" stroke="midnightblue" points="189.715,-558 199.715,-554.5 189.715,-551 189.715,-558"/>
</g>
<!-- Node13 -->
<g id="node14" class="node"><title>Node13</title>
<g id="a_node14"><a xlink:href="classEigen_1_1TensorVolumePatchOp.html#a2ab323da058e39ab44b3df4839a20e9e" target="_top" xlink:title="Eigen::TensorVolumePatch\lOp::padding_top">
<polygon fill="none" stroke="black" points="200,-490.5 200,-520.5 342,-520.5 342,-490.5 200,-490.5"/>
<text text-anchor="start" x="208" y="-508.5" font-family="Helvetica,sans-Serif" font-size="10.00">Eigen::TensorVolumePatch</text>
<text text-anchor="middle" x="271" y="-497.5" font-family="Helvetica,sans-Serif" font-size="10.00">Op::padding_top</text>
</a>
</g>
</g>
<!-- Node0&#45;&gt;Node13 -->
<g id="edge13" class="edge"><title>Node0&#45;&gt;Node13</title>
<path fill="none" stroke="midnightblue" d="M164.205,-533.222C177.038,-529.859 190.185,-526.414 202.657,-523.146"/>
<polygon fill="midnightblue" stroke="midnightblue" points="203.71,-526.488 212.496,-520.568 201.935,-519.717 203.71,-526.488"/>
</g>
<!-- Node14 -->
<g id="node15" class="node"><title>Node14</title>
<g id="a_node15"><a xlink:href="classEigen_1_1TensorVolumePatchOp.html#a98223a5b0475c83295beda5113f08f82" target="_top" xlink:title="Eigen::TensorVolumePatch\lOp::padding_top_z">
<polygon fill="none" stroke="black" points="200,-441.5 200,-471.5 342,-471.5 342,-441.5 200,-441.5"/>
<text text-anchor="start" x="208" y="-459.5" font-family="Helvetica,sans-Serif" font-size="10.00">Eigen::TensorVolumePatch</text>
<text text-anchor="middle" x="271" y="-448.5" font-family="Helvetica,sans-Serif" font-size="10.00">Op::padding_top_z</text>
</a>
</g>
</g>
<!-- Node0&#45;&gt;Node14 -->
<g id="edge14" class="edge"><title>Node0&#45;&gt;Node14</title>
<path fill="none" stroke="midnightblue" d="M120.286,-528.355C142.704,-513.377 172.195,-494.946 200,-481.5 204.531,-479.309 209.306,-477.205 214.145,-475.213"/>
<polygon fill="midnightblue" stroke="midnightblue" points="215.468,-478.454 223.484,-471.526 212.898,-471.943 215.468,-478.454"/>
</g>
<!-- Node15 -->
<g id="node16" class="node"><title>Node15</title>
<g id="a_node16"><a xlink:href="classEigen_1_1TensorVolumePatchOp.html#a654090d3e2dfcf741fb184096b3f58a1" target="_top" xlink:title="Eigen::TensorVolumePatch\lOp::padding_type">
<polygon fill="none" stroke="black" points="200,-392.5 200,-422.5 342,-422.5 342,-392.5 200,-392.5"/>
<text text-anchor="start" x="208" y="-410.5" font-family="Helvetica,sans-Serif" font-size="10.00">Eigen::TensorVolumePatch</text>
<text text-anchor="middle" x="271" y="-399.5" font-family="Helvetica,sans-Serif" font-size="10.00">Op::padding_type</text>
</a>
</g>
</g>
<!-- Node0&#45;&gt;Node15 -->
<g id="edge15" class="edge"><title>Node0&#45;&gt;Node15</title>
<path fill="none" stroke="midnightblue" d="M102.013,-528.441C123.171,-501.111 159.726,-458.581 200,-432.5 203.107,-430.488 206.397,-428.613 209.79,-426.869"/>
<polygon fill="midnightblue" stroke="midnightblue" points="211.396,-429.981 218.955,-422.557 208.417,-423.647 211.396,-429.981"/>
</g>
<!-- Node16 -->
<g id="node17" class="node"><title>Node16</title>
<g id="a_node17"><a xlink:href="classEigen_1_1TensorVolumePatchOp.html#af2bc93a4dbbd600e020ff1eda193437e" target="_top" xlink:title="Eigen::TensorVolumePatch\lOp::padding_value">
<polygon fill="none" stroke="black" points="200,-343.5 200,-373.5 342,-373.5 342,-343.5 200,-343.5"/>
<text text-anchor="start" x="208" y="-361.5" font-family="Helvetica,sans-Serif" font-size="10.00">Eigen::TensorVolumePatch</text>
<text text-anchor="middle" x="271" y="-350.5" font-family="Helvetica,sans-Serif" font-size="10.00">Op::padding_value</text>
</a>
</g>
</g>
<!-- Node0&#45;&gt;Node16 -->
<g id="edge16" class="edge"><title>Node0&#45;&gt;Node16</title>
<path fill="none" stroke="midnightblue" d="M94.4015,-528.379C111.919,-491.136 148.868,-422.929 200,-383.5 202.425,-381.63 205.003,-379.891 207.683,-378.276"/>
<polygon fill="midnightblue" stroke="midnightblue" points="209.376,-381.34 216.534,-373.529 206.067,-375.172 209.376,-381.34"/>
</g>
<!-- Node17 -->
<g id="node18" class="node"><title>Node17</title>
<g id="a_node18"><a xlink:href="classEigen_1_1TensorVolumePatchOp.html#ae0dbc8f349fd171b2fc59a07b1582b62" target="_top" xlink:title="Eigen::TensorVolumePatch\lOp::patch_cols">
<polygon fill="none" stroke="black" points="200,-294.5 200,-324.5 342,-324.5 342,-294.5 200,-294.5"/>
<text text-anchor="start" x="208" y="-312.5" font-family="Helvetica,sans-Serif" font-size="10.00">Eigen::TensorVolumePatch</text>
<text text-anchor="middle" x="271" y="-301.5" font-family="Helvetica,sans-Serif" font-size="10.00">Op::patch_cols</text>
</a>
</g>
</g>
<!-- Node0&#45;&gt;Node17 -->
<g id="edge17" class="edge"><title>Node0&#45;&gt;Node17</title>
<path fill="none" stroke="midnightblue" d="M90.1338,-528.164C103.843,-482.391 138.13,-387.951 200,-334.5 201.965,-332.802 204.054,-331.217 206.235,-329.737"/>
<polygon fill="midnightblue" stroke="midnightblue" points="208.209,-332.636 215.036,-324.534 204.647,-326.61 208.209,-332.636"/>
</g>
<!-- Node18 -->
<g id="node19" class="node"><title>Node18</title>
<g id="a_node19"><a xlink:href="classEigen_1_1TensorVolumePatchOp.html#a4717a5f0dce3370fb6ef4c1683a539ea" target="_top" xlink:title="Eigen::TensorVolumePatch\lOp::patch_planes">
<polygon fill="none" stroke="black" points="200,-245.5 200,-275.5 342,-275.5 342,-245.5 200,-245.5"/>
<text text-anchor="start" x="208" y="-263.5" font-family="Helvetica,sans-Serif" font-size="10.00">Eigen::TensorVolumePatch</text>
<text text-anchor="middle" x="271" y="-252.5" font-family="Helvetica,sans-Serif" font-size="10.00">Op::patch_planes</text>
</a>
</g>
</g>
<!-- Node0&#45;&gt;Node18 -->
<g id="edge18" class="edge"><title>Node0&#45;&gt;Node18</title>
<path fill="none" stroke="midnightblue" d="M87.2524,-528.331C97.238,-475.137 127.085,-353.67 200,-285.5 201.685,-283.925 203.476,-282.447 205.35,-281.062"/>
<polygon fill="midnightblue" stroke="midnightblue" points="207.455,-283.872 214.026,-275.56 203.707,-277.96 207.455,-283.872"/>
</g>
<!-- Node19 -->
<g id="node20" class="node"><title>Node19</title>
<g id="a_node20"><a xlink:href="classEigen_1_1TensorVolumePatchOp.html#ae5d5a1fd280f5c7f1f6e6313f8f43b50" target="_top" xlink:title="Eigen::TensorVolumePatch\lOp::patch_rows">
<polygon fill="none" stroke="black" points="200,-196.5 200,-226.5 342,-226.5 342,-196.5 200,-196.5"/>
<text text-anchor="start" x="208" y="-214.5" font-family="Helvetica,sans-Serif" font-size="10.00">Eigen::TensorVolumePatch</text>
<text text-anchor="middle" x="271" y="-203.5" font-family="Helvetica,sans-Serif" font-size="10.00">Op::patch_rows</text>
</a>
</g>
</g>
<!-- Node0&#45;&gt;Node19 -->
<g id="edge19" class="edge"><title>Node0&#45;&gt;Node19</title>
<path fill="none" stroke="midnightblue" d="M85.2482,-528.295C91.7764,-468.292 115.993,-319.71 200,-236.5 201.602,-234.914 203.311,-233.427 205.105,-232.035"/>
<polygon fill="midnightblue" stroke="midnightblue" points="207.043,-234.949 213.449,-226.511 203.179,-229.113 207.043,-234.949"/>
</g>
<!-- Node20 -->
<g id="node21" class="node"><title>Node20</title>
<g id="a_node21"><a xlink:href="classEigen_1_1TensorVolumePatchOp.html#a35a464b0b9c41b02233235ed6c83ff3f" target="_top" xlink:title="Eigen::TensorVolumePatch\lOp::plane_inflate_strides">
<polygon fill="none" stroke="black" points="200,-147.5 200,-177.5 342,-177.5 342,-147.5 200,-147.5"/>
<text text-anchor="start" x="208" y="-165.5" font-family="Helvetica,sans-Serif" font-size="10.00">Eigen::TensorVolumePatch</text>
<text text-anchor="middle" x="271" y="-154.5" font-family="Helvetica,sans-Serif" font-size="10.00">Op::plane_inflate_strides</text>
</a>
</g>
</g>
<!-- Node0&#45;&gt;Node20 -->
<g id="edge20" class="edge"><title>Node0&#45;&gt;Node20</title>
<path fill="none" stroke="midnightblue" d="M83.7386,-528.346C87.0195,-462.122 104.742,-286.093 200,-187.5 201.412,-186.038 202.916,-184.662 204.494,-183.366"/>
<polygon fill="midnightblue" stroke="midnightblue" points="206.696,-186.098 212.929,-177.531 202.714,-180.341 206.696,-186.098"/>
</g>
<!-- Node21 -->
<g id="node22" class="node"><title>Node21</title>
<g id="a_node22"><a xlink:href="classEigen_1_1TensorVolumePatchOp.html#a05afb9a406a9a8ca58c4105c3bc63e44" target="_top" xlink:title="Eigen::TensorVolumePatch\lOp::plane_strides">
<polygon fill="none" stroke="black" points="200,-98.5 200,-128.5 342,-128.5 342,-98.5 200,-98.5"/>
<text text-anchor="start" x="208" y="-116.5" font-family="Helvetica,sans-Serif" font-size="10.00">Eigen::TensorVolumePatch</text>
<text text-anchor="middle" x="271" y="-105.5" font-family="Helvetica,sans-Serif" font-size="10.00">Op::plane_strides</text>
</a>
</g>
</g>
<!-- Node0&#45;&gt;Node21 -->
<g id="edge21" class="edge"><title>Node0&#45;&gt;Node21</title>
<path fill="none" stroke="midnightblue" d="M82.5661,-528.401C82.8059,-456.393 93.3912,-252.714 200,-138.5 201.241,-137.17 202.558,-135.912 203.938,-134.719"/>
<polygon fill="midnightblue" stroke="midnightblue" points="206.375,-137.277 212.451,-128.597 202.288,-131.594 206.375,-137.277"/>
</g>
<!-- Node22 -->
<g id="node23" class="node"><title>Node22</title>
<g id="a_node23"><a xlink:href="classEigen_1_1TensorVolumePatchOp.html#a7ec8a659e3a9df305a5e883cb99eb4cd" target="_top" xlink:title="Eigen::TensorVolumePatch\lOp::row_inflate_strides">
<polygon fill="none" stroke="black" points="200,-49.5 200,-79.5 342,-79.5 342,-49.5 200,-49.5"/>
<text text-anchor="start" x="208" y="-67.5" font-family="Helvetica,sans-Serif" font-size="10.00">Eigen::TensorVolumePatch</text>
<text text-anchor="middle" x="271" y="-56.5" font-family="Helvetica,sans-Serif" font-size="10.00">Op::row_inflate_strides</text>
</a>
</g>
</g>
<!-- Node0&#45;&gt;Node22 -->
<g id="edge22" class="edge"><title>Node0&#45;&gt;Node22</title>
<path fill="none" stroke="midnightblue" d="M86.3314,-528.254C98.0146,-440.022 139.709,-155.911 200,-89.5 201.193,-88.1863 202.459,-86.9415 203.788,-85.7621"/>
<polygon fill="midnightblue" stroke="midnightblue" points="206.037,-88.4525 212.003,-79.6973 201.879,-82.821 206.037,-88.4525"/>
</g>
<!-- Node23 -->
<g id="node24" class="node"><title>Node23</title>
<g id="a_node24"><a xlink:href="classEigen_1_1TensorVolumePatchOp.html#a8624b86945a5d22eaca15010f9094cda" target="_top" xlink:title="Eigen::TensorVolumePatch\lOp::row_strides">
<polygon fill="none" stroke="black" points="200,-0.5 200,-30.5 342,-30.5 342,-0.5 200,-0.5"/>
<text text-anchor="start" x="208" y="-18.5" font-family="Helvetica,sans-Serif" font-size="10.00">Eigen::TensorVolumePatch</text>
<text text-anchor="middle" x="271" y="-7.5" font-family="Helvetica,sans-Serif" font-size="10.00">Op::row_strides</text>
</a>
</g>
</g>
<!-- Node0&#45;&gt;Node23 -->
<g id="edge23" class="edge"><title>Node0&#45;&gt;Node23</title>
<path fill="none" stroke="midnightblue" d="M85.6261,-528.496C95.588,-434.648 133.865,-115.029 200,-40.5 201.178,-39.1728 202.431,-37.9161 203.748,-36.726"/>
<polygon fill="midnightblue" stroke="midnightblue" points="206.004,-39.4095 211.91,-30.6138 201.808,-33.8064 206.004,-39.4095"/>
</g>
</g>
</svg>
