<?xml version="1.0" encoding="UTF-8" standalone="no"?>
<!DOCTYPE svg PUBLIC "-//W3C//DTD SVG 1.1//EN"
 "http://www.w3.org/Graphics/SVG/1.1/DTD/svg11.dtd">
<!-- Generated by graphviz version 2.38.0 (20140413.2041)
 -->
<!-- Title: rat42_functor::df Pages: 1 -->
<svg width="174pt" height="66pt"
 viewBox="0.00 0.00 174.00 66.00" xmlns="http://www.w3.org/2000/svg" xmlns:xlink="http://www.w3.org/1999/xlink">
<g id="graph0" class="graph" transform="scale(1 1) rotate(0) translate(4 62)">
<title>rat42_functor::df</title>
<!-- Node8 -->
<g id="node1" class="node"><title>Node8</title>
<polygon fill="#bfbfbf" stroke="black" points="0,-19.5 0,-38.5 96,-38.5 96,-19.5 0,-19.5"/>
<text text-anchor="middle" x="48" y="-26.5" font-family="Helvetica,sans-Serif" font-size="10.00">rat42_functor::df</text>
</g>
<!-- Node9 -->
<g id="node2" class="node"><title>Node9</title>
<g id="a_node2"><a xlink:href="Cwise__array__power__array_8cpp.html#aa9e3025f5efca2c2a39d785652f2d710" target="_top" xlink:title="e">
<polygon fill="none" stroke="black" points="134.5,-38.5 134.5,-57.5 163.5,-57.5 163.5,-38.5 134.5,-38.5"/>
<text text-anchor="middle" x="149" y="-45.5" font-family="Helvetica,sans-Serif" font-size="10.00">e</text>
</a>
</g>
</g>
<!-- Node8&#45;&gt;Node9 -->
<g id="edge1" class="edge"><title>Node8&#45;&gt;Node9</title>
<path fill="none" stroke="midnightblue" d="M96.1804,-38.0548C105.985,-39.9365 115.912,-41.8416 124.416,-43.4738"/>
<polygon fill="midnightblue" stroke="midnightblue" points="123.832,-46.9255 134.312,-45.3731 125.151,-40.051 123.832,-46.9255"/>
</g>
<!-- Node10 -->
<g id="node3" class="node"><title>Node10</title>
<g id="a_node3"><a xlink:href="ArrayCwiseUnaryOps_8h.html#a2500b5d4f377a445cb98d3f1facfa1cf" target="_top" xlink:title="exp">
<polygon fill="none" stroke="black" points="132,-0.5 132,-19.5 166,-19.5 166,-0.5 132,-0.5"/>
<text text-anchor="middle" x="149" y="-7.5" font-family="Helvetica,sans-Serif" font-size="10.00">exp</text>
</a>
</g>
</g>
<!-- Node8&#45;&gt;Node10 -->
<g id="edge2" class="edge"><title>Node8&#45;&gt;Node10</title>
<path fill="none" stroke="midnightblue" d="M96.1804,-19.9452C104.946,-18.263 113.808,-16.5621 121.665,-15.0542"/>
<polygon fill="midnightblue" stroke="midnightblue" points="122.491,-18.4596 131.652,-13.1375 121.172,-11.5851 122.491,-18.4596"/>
</g>
</g>
</svg>
