<?xml version="1.0" encoding="UTF-8" standalone="no"?>
<!DOCTYPE svg PUBLIC "-//W3C//DTD SVG 1.1//EN"
 "http://www.w3.org/Graphics/SVG/1.1/DTD/svg11.dtd">
<!-- Generated by graphviz version 2.38.0 (20140413.2041)
 -->
<!-- Title: Eigen::internal::lpNorm_selector::run Pages: 1 -->
<svg width="286pt" height="78pt"
 viewBox="0.00 0.00 286.00 77.50" xmlns="http://www.w3.org/2000/svg" xmlns:xlink="http://www.w3.org/1999/xlink">
<g id="graph0" class="graph" transform="scale(1 1) rotate(0) translate(4 73.5)">
<title>Eigen::internal::lpNorm_selector::run</title>
<!-- Node0 -->
<g id="node1" class="node"><title>Node0</title>
<polygon fill="#bfbfbf" stroke="black" points="0,-17 0,-47 126,-47 126,-17 0,-17"/>
<text text-anchor="start" x="8" y="-35" font-family="Helvetica,sans-Serif" font-size="10.00">Eigen::internal::lpNorm</text>
<text text-anchor="middle" x="63" y="-24" font-family="Helvetica,sans-Serif" font-size="10.00">_selector::run</text>
</g>
<!-- Node1 -->
<g id="node2" class="node"><title>Node1</title>
<g id="a_node2"><a xlink:href="classEigen_1_1MatrixBase.html#a8f2dbd5d9573c79c5dd356ddb29a0ee9" target="_top" xlink:title="Eigen::MatrixBase::\lcwiseAbs">
<polygon fill="none" stroke="black" points="166,-39 166,-69 274,-69 274,-39 166,-39"/>
<text text-anchor="start" x="174" y="-57" font-family="Helvetica,sans-Serif" font-size="10.00">Eigen::MatrixBase::</text>
<text text-anchor="middle" x="220" y="-46" font-family="Helvetica,sans-Serif" font-size="10.00">cwiseAbs</text>
</a>
</g>
</g>
<!-- Node0&#45;&gt;Node1 -->
<g id="edge1" class="edge"><title>Node0&#45;&gt;Node1</title>
<path fill="none" stroke="midnightblue" d="M126.151,-40.8215C135.903,-42.2056 145.992,-43.6376 155.767,-45.0251"/>
<polygon fill="midnightblue" stroke="midnightblue" points="155.421,-48.5109 165.814,-46.451 156.405,-41.5803 155.421,-48.5109"/>
</g>
<!-- Node2 -->
<g id="node3" class="node"><title>Node2</title>
<g id="a_node3"><a xlink:href="namespaceEigen_1_1half__impl.html#a829ad00a9c93131d5a8342b4ee29d83d" target="_top" xlink:title="Eigen::half_impl::pow">
<polygon fill="none" stroke="black" points="162,-0.5 162,-19.5 278,-19.5 278,-0.5 162,-0.5"/>
<text text-anchor="middle" x="220" y="-7.5" font-family="Helvetica,sans-Serif" font-size="10.00">Eigen::half_impl::pow</text>
</a>
</g>
</g>
<!-- Node0&#45;&gt;Node2 -->
<g id="edge2" class="edge"><title>Node0&#45;&gt;Node2</title>
<path fill="none" stroke="midnightblue" d="M126.151,-23.1785C134.626,-21.9756 143.356,-20.7365 151.914,-19.5219"/>
<polygon fill="midnightblue" stroke="midnightblue" points="152.446,-22.9816 161.855,-18.1109 151.462,-16.051 152.446,-22.9816"/>
</g>
</g>
</svg>
