<?xml version="1.0" encoding="UTF-8" standalone="no"?>
<!DOCTYPE svg PUBLIC "-//W3C//DTD SVG 1.1//EN"
 "http://www.w3.org/Graphics/SVG/1.1/DTD/svg11.dtd">
<!-- Generated by graphviz version 2.38.0 (20140413.2041)
 -->
<!-- Title: loop_on_m::run Pages: 1 -->
<svg width="331pt" height="28pt"
 viewBox="0.00 0.00 331.00 28.00" xmlns="http://www.w3.org/2000/svg" xmlns:xlink="http://www.w3.org/1999/xlink">
<g id="graph0" class="graph" transform="scale(1 1) rotate(0) translate(4 24)">
<title>loop_on_m::run</title>
<!-- Node0 -->
<g id="node1" class="node"><title>Node0</title>
<polygon fill="#bfbfbf" stroke="black" points="0,-0.5 0,-19.5 91,-19.5 91,-0.5 0,-0.5"/>
<text text-anchor="middle" x="45.5" y="-7.5" font-family="Helvetica,sans-Serif" font-size="10.00">loop_on_m::run</text>
</g>
<!-- Node1 -->
<g id="node2" class="node"><title>Node1</title>
<g id="a_node2"><a xlink:href="structloop__on__n.html#a5b37014688c83c2c42383a2d0165d586" target="_top" xlink:title="loop_on_n::run">
<polygon fill="none" stroke="black" points="127,-0.5 127,-19.5 214,-19.5 214,-0.5 127,-0.5"/>
<text text-anchor="middle" x="170.5" y="-7.5" font-family="Helvetica,sans-Serif" font-size="10.00">loop_on_n::run</text>
</a>
</g>
</g>
<!-- Node0&#45;&gt;Node1 -->
<g id="edge1" class="edge"><title>Node0&#45;&gt;Node1</title>
<path fill="none" stroke="midnightblue" d="M91.2538,-10C99.4578,-10 108.092,-10 116.51,-10"/>
<polygon fill="midnightblue" stroke="midnightblue" points="116.626,-13.5001 126.626,-10 116.626,-6.5001 116.626,-13.5001"/>
</g>
<!-- Node2 -->
<g id="node3" class="node"><title>Node2</title>
<g id="a_node3"><a xlink:href="product__threshold_8cpp.html#ab169b0450a59ab1c7fbdbc76dd7dafe0" target="_top" xlink:title="bench_prod">
<polygon fill="none" stroke="black" points="250,-0.5 250,-19.5 323,-19.5 323,-0.5 250,-0.5"/>
<text text-anchor="middle" x="286.5" y="-7.5" font-family="Helvetica,sans-Serif" font-size="10.00">bench_prod</text>
</a>
</g>
</g>
<!-- Node1&#45;&gt;Node2 -->
<g id="edge2" class="edge"><title>Node1&#45;&gt;Node2</title>
<path fill="none" stroke="midnightblue" d="M214.274,-10C222.628,-10 231.418,-10 239.862,-10"/>
<polygon fill="midnightblue" stroke="midnightblue" points="239.936,-13.5001 249.936,-10 239.936,-6.5001 239.936,-13.5001"/>
</g>
</g>
</svg>
