<?xml version="1.0" encoding="UTF-8" standalone="no"?>
<!DOCTYPE svg PUBLIC "-//W3C//DTD SVG 1.1//EN"
 "http://www.w3.org/Graphics/SVG/1.1/DTD/svg11.dtd">
<!-- Generated by graphviz version 2.38.0 (20140413.2041)
 -->
<!-- Title: Eigen::SluMatrixMapHelper&lt; SparseMatrixBase&lt; Derived &gt; &gt;::run Pages: 1 -->
<svg width="380pt" height="66pt"
 viewBox="0.00 0.00 380.00 66.00" xmlns="http://www.w3.org/2000/svg" xmlns:xlink="http://www.w3.org/1999/xlink">
<g id="graph0" class="graph" transform="scale(1 1) rotate(0) translate(4 62)">
<title>Eigen::SluMatrixMapHelper&lt; SparseMatrixBase&lt; Derived &gt; &gt;::run</title>
<!-- Node0 -->
<g id="node1" class="node"><title>Node0</title>
<polygon fill="#bfbfbf" stroke="black" points="0,-8.5 0,-49.5 163,-49.5 163,-8.5 0,-8.5"/>
<text text-anchor="start" x="8" y="-37.5" font-family="Helvetica,sans-Serif" font-size="10.00">Eigen::SluMatrixMapHelper</text>
<text text-anchor="start" x="8" y="-26.5" font-family="Helvetica,sans-Serif" font-size="10.00">&lt; SparseMatrixBase&lt; Derived</text>
<text text-anchor="middle" x="81.5" y="-15.5" font-family="Helvetica,sans-Serif" font-size="10.00"> &gt; &gt;::run</text>
</g>
<!-- Node1 -->
<g id="node2" class="node"><title>Node1</title>
<g id="a_node2"><a xlink:href="structEigen_1_1SluMatrix.html#a77c5ddf8fd6cfb5314f937976046cf46" target="_top" xlink:title="Eigen::SluMatrix::setScalarType">
<polygon fill="none" stroke="black" points="203,-38.5 203,-57.5 368,-57.5 368,-38.5 203,-38.5"/>
<text text-anchor="middle" x="285.5" y="-45.5" font-family="Helvetica,sans-Serif" font-size="10.00">Eigen::SluMatrix::setScalarType</text>
</a>
</g>
</g>
<!-- Node0&#45;&gt;Node1 -->
<g id="edge1" class="edge"><title>Node0&#45;&gt;Node1</title>
<path fill="none" stroke="midnightblue" d="M163.207,-36.5912C172.912,-37.5041 182.879,-38.4416 192.727,-39.3679"/>
<polygon fill="midnightblue" stroke="midnightblue" points="192.648,-42.8758 202.932,-40.3278 193.304,-35.9066 192.648,-42.8758"/>
</g>
<!-- Node2 -->
<g id="node3" class="node"><title>Node2</title>
<g id="a_node3"><a xlink:href="structEigen_1_1SluMatrix.html#ae36a82e01409ad0c3cbbf5847c096f0b" target="_top" xlink:title="Eigen::SluMatrix::setStorageType">
<polygon fill="none" stroke="black" points="199,-0.5 199,-19.5 372,-19.5 372,-0.5 199,-0.5"/>
<text text-anchor="middle" x="285.5" y="-7.5" font-family="Helvetica,sans-Serif" font-size="10.00">Eigen::SluMatrix::setStorageType</text>
</a>
</g>
</g>
<!-- Node0&#45;&gt;Node2 -->
<g id="edge2" class="edge"><title>Node0&#45;&gt;Node2</title>
<path fill="none" stroke="midnightblue" d="M163.207,-21.4088C171.658,-20.6138 180.307,-19.8003 188.904,-18.9917"/>
<polygon fill="midnightblue" stroke="midnightblue" points="189.329,-22.4673 198.957,-18.0461 188.673,-15.4981 189.329,-22.4673"/>
</g>
</g>
</svg>
