<?xml version="1.0" encoding="UTF-8" standalone="no"?>
<!DOCTYPE svg PUBLIC "-//W3C//DTD SVG 1.1//EN"
 "http://www.w3.org/Graphics/SVG/1.1/DTD/svg11.dtd">
<!-- Generated by graphviz version 2.38.0 (20140413.2041)
 -->
<!-- Title: Eigen::internal::binary_evaluator&lt; CwiseBinaryOp&lt; BinaryOp, Lhs, Rhs &gt;, IndexBased, IteratorBased &gt; Pages: 1 -->
<svg width="201pt" height="195pt"
 viewBox="0.00 0.00 201.00 195.00" xmlns="http://www.w3.org/2000/svg" xmlns:xlink="http://www.w3.org/1999/xlink">
<g id="graph0" class="graph" transform="scale(1 1) rotate(0) translate(4 191)">
<title>Eigen::internal::binary_evaluator&lt; CwiseBinaryOp&lt; BinaryOp, Lhs, Rhs &gt;, IndexBased, IteratorBased &gt;</title>
<!-- Node0 -->
<g id="node1" class="node"><title>Node0</title>
<polygon fill="#bfbfbf" stroke="black" points="0,-0.5 0,-52.5 193,-52.5 193,-0.5 0,-0.5"/>
<text text-anchor="start" x="8" y="-40.5" font-family="Helvetica,sans-Serif" font-size="10.00">Eigen::internal::binary</text>
<text text-anchor="start" x="8" y="-29.5" font-family="Helvetica,sans-Serif" font-size="10.00">_evaluator&lt; CwiseBinaryOp</text>
<text text-anchor="start" x="8" y="-18.5" font-family="Helvetica,sans-Serif" font-size="10.00">&lt; BinaryOp, Lhs, Rhs &gt;, IndexBased,</text>
<text text-anchor="middle" x="96.5" y="-7.5" font-family="Helvetica,sans-Serif" font-size="10.00"> IteratorBased &gt;</text>
</g>
<!-- Node1 -->
<g id="node2" class="node"><title>Node1</title>
<g id="a_node2"><a xlink:href="structEigen_1_1internal_1_1evaluator__base.html" target="_top" xlink:title="Eigen::internal::evaluator\l_base\&lt; CwiseBinaryOp\&lt; BinaryOp,\l Lhs, Rhs \&gt; \&gt;">
<polygon fill="none" stroke="black" points="4,-89.5 4,-130.5 189,-130.5 189,-89.5 4,-89.5"/>
<text text-anchor="start" x="12" y="-118.5" font-family="Helvetica,sans-Serif" font-size="10.00">Eigen::internal::evaluator</text>
<text text-anchor="start" x="12" y="-107.5" font-family="Helvetica,sans-Serif" font-size="10.00">_base&lt; CwiseBinaryOp&lt; BinaryOp,</text>
<text text-anchor="middle" x="96.5" y="-96.5" font-family="Helvetica,sans-Serif" font-size="10.00"> Lhs, Rhs &gt; &gt;</text>
</a>
</g>
</g>
<!-- Node1&#45;&gt;Node0 -->
<g id="edge1" class="edge"><title>Node1&#45;&gt;Node0</title>
<path fill="none" stroke="midnightblue" d="M96.5,-79.1211C96.5,-70.4126 96.5,-60.9894 96.5,-52.6073"/>
<polygon fill="midnightblue" stroke="midnightblue" points="93.0001,-79.2711 96.5,-89.2711 100,-79.2712 93.0001,-79.2711"/>
</g>
<!-- Node2 -->
<g id="node3" class="node"><title>Node2</title>
<g id="a_node3"><a xlink:href="classEigen_1_1internal_1_1noncopyable.html" target="_top" xlink:title="Eigen::internal::noncopyable">
<polygon fill="none" stroke="black" points="20.5,-167.5 20.5,-186.5 172.5,-186.5 172.5,-167.5 20.5,-167.5"/>
<text text-anchor="middle" x="96.5" y="-174.5" font-family="Helvetica,sans-Serif" font-size="10.00">Eigen::internal::noncopyable</text>
</a>
</g>
</g>
<!-- Node2&#45;&gt;Node1 -->
<g id="edge2" class="edge"><title>Node2&#45;&gt;Node1</title>
<path fill="none" stroke="midnightblue" d="M96.5,-157.037C96.5,-148.708 96.5,-138.936 96.5,-130.542"/>
<polygon fill="midnightblue" stroke="midnightblue" points="93.0001,-157.234 96.5,-167.234 100,-157.234 93.0001,-157.234"/>
</g>
</g>
</svg>
