<?xml version="1.0" encoding="UTF-8" standalone="no"?>
<!DOCTYPE svg PUBLIC "-//W3C//DTD SVG 1.1//EN"
 "http://www.w3.org/Graphics/SVG/1.1/DTD/svg11.dtd">
<!-- Generated by graphviz version 2.38.0 (20140413.2041)
 -->
<!-- Title: Eigen::internal::mapbase_evaluator&lt; Derived, PlainObjectType &gt; Pages: 1 -->
<!--zoomable 198 -->
<svg id="main" version="1.1" xmlns="http://www.w3.org/2000/svg" xmlns:xlink="http://www.w3.org/1999/xlink" xml:space="preserve" onload="init(evt)">
<style type="text/css"><![CDATA[
.edge:hover path { stroke: red; }
.edge:hover polygon { stroke: red; fill: red; }
]]></style>
<script type="text/javascript"><![CDATA[
var edges = document.getElementsByTagName('g');
if (edges && edges.length) {
  for (var i=0;i<edges.length;i++) {
    if (edges[i].id.substr(0,4)=='edge') {
      edges[i].setAttribute('class','edge');
    }
  }
}
]]></script>
        <defs>
                <circle id="rim" cx="0" cy="0" r="7"/>
                <circle id="rim2" cx="0" cy="0" r="3.5"/>
                <g id="zoomPlus">
                        <use xlink:href="#rim" fill="#404040">
                                <set attributeName="fill" to="#808080" begin="zoomplus.mouseover" end="zoomplus.mouseout"/>
                        </use>
                        <path d="M-4,0h8M0,-4v8" fill="none" stroke="white" stroke-width="1.5" pointer-events="none"/>
                </g>
                <g id="zoomMin">
                        <use xlink:href="#rim" fill="#404040">
                                <set attributeName="fill" to="#808080" begin="zoomminus.mouseover" end="zoomminus.mouseout"/>
                        </use>
                        <path d="M-4,0h8" fill="none" stroke="white" stroke-width="1.5" pointer-events="none"/>
                </g>
                <g id="dirArrow">
                        <path fill="none" stroke="white" stroke-width="1.5" d="M0,-3.0v7 M-2.5,-0.5L0,-3.0L2.5,-0.5"/>
                </g>
               <g id="resetDef">
                       <use xlink:href="#rim2" fill="#404040">
                               <set attributeName="fill" to="#808080" begin="reset.mouseover" end="reset.mouseout"/>
                       </use>
               </g>
        </defs>

<script type="text/javascript">
var viewWidth = 642;
var viewHeight = 198;
var sectionId = 'dynsection-1';
</script>
<script xlink:href="svgpan.js"/>
<svg id="graph" class="graph">
<g id="viewport">
<title>Eigen::internal::mapbase_evaluator&lt; Derived, PlainObjectType &gt;</title>
<!-- Node3 -->
<g id="node1" class="node"><title>Node3</title>
<polygon fill="#bfbfbf" stroke="black" points="460,-73.5 460,-114.5 634,-114.5 634,-73.5 460,-73.5"/>
<text text-anchor="start" x="468" y="-102.5" font-family="Helvetica,sans-Serif" font-size="10.00">Eigen::internal::mapbase</text>
<text text-anchor="start" x="468" y="-91.5" font-family="Helvetica,sans-Serif" font-size="10.00">_evaluator&lt; Derived, PlainObject</text>
<text text-anchor="middle" x="547" y="-80.5" font-family="Helvetica,sans-Serif" font-size="10.00">Type &gt;</text>
</g>
<!-- Node4 -->
<g id="node2" class="node"><title>Node4</title>
<g id="a_node2"><a xlink:href="structEigen_1_1internal_1_1evaluator__base.html" target="_top" xlink:title="Eigen::internal::evaluator\l_base\&lt; Derived \&gt;">
<polygon fill="none" stroke="black" points="202,-159 202,-189 338,-189 338,-159 202,-159"/>
<text text-anchor="start" x="210" y="-177" font-family="Helvetica,sans-Serif" font-size="10.00">Eigen::internal::evaluator</text>
<text text-anchor="middle" x="270" y="-166" font-family="Helvetica,sans-Serif" font-size="10.00">_base&lt; Derived &gt;</text>
</a>
</g>
</g>
<!-- Node4&#45;&gt;Node3 -->
<g id="edge1" class="edge"><title>Node4&#45;&gt;Node3</title>
<path fill="none" stroke="midnightblue" d="M333.961,-156.131C366.281,-146.915 406.272,-135.443 442,-125 453.483,-121.643 465.669,-118.045 477.501,-114.53"/>
<polygon fill="midnightblue" stroke="midnightblue" points="332.848,-152.809 324.19,-158.916 334.766,-159.541 332.848,-152.809"/>
</g>
<!-- Node5 -->
<g id="node3" class="node"><title>Node5</title>
<g id="a_node3"><a xlink:href="classEigen_1_1internal_1_1noncopyable.html" target="_top" xlink:title="Eigen::internal::noncopyable">
<polygon fill="none" stroke="black" points="0,-164.5 0,-183.5 152,-183.5 152,-164.5 0,-164.5"/>
<text text-anchor="middle" x="76" y="-171.5" font-family="Helvetica,sans-Serif" font-size="10.00">Eigen::internal::noncopyable</text>
</a>
</g>
</g>
<!-- Node5&#45;&gt;Node4 -->
<g id="edge2" class="edge"><title>Node5&#45;&gt;Node4</title>
<path fill="none" stroke="midnightblue" d="M162.145,-174C175.43,-174 188.996,-174 201.808,-174"/>
<polygon fill="midnightblue" stroke="midnightblue" points="162.057,-170.5 152.057,-174 162.057,-177.5 162.057,-170.5"/>
</g>
<!-- Node6 -->
<g id="node4" class="node"><title>Node6</title>
<g id="a_node4"><a xlink:href="classEigen_1_1internal_1_1variable__if__dynamic.html" target="_top" xlink:title="Eigen::internal::variable\l_if_dynamic\&lt; Index, XprType\l::InnerStrideAtCompileTime \&gt;">
<polygon fill="none" stroke="black" points="190.5,-98.5 190.5,-139.5 349.5,-139.5 349.5,-98.5 190.5,-98.5"/>
<text text-anchor="start" x="198.5" y="-127.5" font-family="Helvetica,sans-Serif" font-size="10.00">Eigen::internal::variable</text>
<text text-anchor="start" x="198.5" y="-116.5" font-family="Helvetica,sans-Serif" font-size="10.00">_if_dynamic&lt; Index, XprType</text>
<text text-anchor="middle" x="270" y="-105.5" font-family="Helvetica,sans-Serif" font-size="10.00">::InnerStrideAtCompileTime &gt;</text>
</a>
</g>
</g>
<!-- Node6&#45;&gt;Node3 -->
<g id="edge3" class="edge"><title>Node6&#45;&gt;Node3</title>
<path fill="none" stroke="#9a32cd" stroke-dasharray="5,2" d="M360.057,-110.904C392.103,-107.991 428.175,-104.711 459.959,-101.822"/>
<polygon fill="#9a32cd" stroke="#9a32cd" points="359.446,-107.445 349.804,-111.836 360.08,-114.416 359.446,-107.445"/>
<text text-anchor="middle" x="405.5" y="-113" font-family="Helvetica,sans-Serif" font-size="10.00"> m_innerStride</text>
</g>
<!-- Node7 -->
<g id="node5" class="node"><title>Node7</title>
<polygon fill="none" stroke="#bfbfbf" points="234.5,-60.5 234.5,-79.5 305.5,-79.5 305.5,-60.5 234.5,-60.5"/>
<text text-anchor="middle" x="270" y="-67.5" font-family="Helvetica,sans-Serif" font-size="10.00">PointerType</text>
</g>
<!-- Node7&#45;&gt;Node3 -->
<g id="edge4" class="edge"><title>Node7&#45;&gt;Node3</title>
<path fill="none" stroke="#9a32cd" stroke-dasharray="5,2" d="M315.518,-73.8852C354.446,-77.2825 412.081,-82.3126 459.978,-86.4926"/>
<polygon fill="#9a32cd" stroke="#9a32cd" points="315.817,-70.3981 305.55,-73.0153 315.208,-77.3716 315.817,-70.3981"/>
<text text-anchor="middle" x="405.5" y="-88" font-family="Helvetica,sans-Serif" font-size="10.00"> m_data</text>
</g>
<!-- Node8 -->
<g id="node6" class="node"><title>Node8</title>
<g id="a_node6"><a xlink:href="classEigen_1_1internal_1_1variable__if__dynamic.html" target="_top" xlink:title="Eigen::internal::variable\l_if_dynamic\&lt; Index, XprType\l::OuterStrideAtCompileTime \&gt;">
<polygon fill="none" stroke="black" points="189,-0.5 189,-41.5 351,-41.5 351,-0.5 189,-0.5"/>
<text text-anchor="start" x="197" y="-29.5" font-family="Helvetica,sans-Serif" font-size="10.00">Eigen::internal::variable</text>
<text text-anchor="start" x="197" y="-18.5" font-family="Helvetica,sans-Serif" font-size="10.00">_if_dynamic&lt; Index, XprType</text>
<text text-anchor="middle" x="270" y="-7.5" font-family="Helvetica,sans-Serif" font-size="10.00">::OuterStrideAtCompileTime &gt;</text>
</a>
</g>
</g>
<!-- Node8&#45;&gt;Node3 -->
<g id="edge5" class="edge"><title>Node8&#45;&gt;Node3</title>
<path fill="none" stroke="#9a32cd" stroke-dasharray="5,2" d="M361.014,-43.8002C387.162,-50.5211 415.745,-57.9623 442,-65 452.048,-67.6935 462.628,-70.5821 473.036,-73.4546"/>
<polygon fill="#9a32cd" stroke="#9a32cd" points="361.678,-40.3572 351.122,-41.262 359.938,-47.1376 361.678,-40.3572"/>
<text text-anchor="middle" x="405.5" y="-68" font-family="Helvetica,sans-Serif" font-size="10.00"> m_outerStride</text>
</g>
</g>
</svg>
        <g id="navigator" transform="translate(0 0)" fill="#404254">
                <rect fill="#f2f5e9" fill-opacity="0.5" stroke="#606060" stroke-width=".5" x="0" y="0" width="60" height="60"/>
                <use id="zoomplus" xlink:href="#zoomPlus" x="17" y="9" onmousedown="handleZoom(evt,'in')"/>
                <use id="zoomminus" xlink:href="#zoomMin" x="42" y="9" onmousedown="handleZoom(evt,'out')"/>
                <use id="reset" xlink:href="#resetDef" x="30" y="36" onmousedown="handleReset()"/>
                <g id="arrowUp" xlink:href="#dirArrow" transform="translate(30 24)" onmousedown="handlePan(0,-1)">
                  <use xlink:href="#rim" fill="#404040">
                        <set attributeName="fill" to="#808080" begin="arrowUp.mouseover" end="arrowUp.mouseout"/>
                  </use>
                  <path fill="none" stroke="white" stroke-width="1.5" d="M0,-3.0v7 M-2.5,-0.5L0,-3.0L2.5,-0.5"/>
                </g>
                <g id="arrowRight" xlink:href="#dirArrow" transform="rotate(90) translate(36 -43)" onmousedown="handlePan(1,0)">
                  <use xlink:href="#rim" fill="#404040">
                        <set attributeName="fill" to="#808080" begin="arrowRight.mouseover" end="arrowRight.mouseout"/>
                  </use>
                  <path fill="none" stroke="white" stroke-width="1.5" d="M0,-3.0v7 M-2.5,-0.5L0,-3.0L2.5,-0.5"/>
                </g>
                <g id="arrowDown" xlink:href="#dirArrow" transform="rotate(180) translate(-30 -48)" onmousedown="handlePan(0,1)">
                  <use xlink:href="#rim" fill="#404040">
                        <set attributeName="fill" to="#808080" begin="arrowDown.mouseover" end="arrowDown.mouseout"/>
                  </use>
                  <path fill="none" stroke="white" stroke-width="1.5" d="M0,-3.0v7 M-2.5,-0.5L0,-3.0L2.5,-0.5"/>
                </g>
                <g id="arrowLeft" xlink:href="#dirArrow" transform="rotate(270) translate(-36 17)" onmousedown="handlePan(-1,0)">
                  <use xlink:href="#rim" fill="#404040">
                        <set attributeName="fill" to="#808080" begin="arrowLeft.mouseover" end="arrowLeft.mouseout"/>
                  </use>
                  <path fill="none" stroke="white" stroke-width="1.5" d="M0,-3.0v7 M-2.5,-0.5L0,-3.0L2.5,-0.5"/>
                </g>
        </g>
        <svg viewBox="0 0 15 15" width="100%" height="30px" preserveAspectRatio="xMaxYMin meet">
         <g id="arrow_out" transform="scale(0.3 0.3)">
          <a xlink:href="structEigen_1_1internal_1_1mapbase__evaluator__coll__graph_org.svg" target="_base">
           <rect id="button" ry="5" rx="5" y="6" x="6" height="38" width="38"
                fill="#f2f5e9" fill-opacity="0.5" stroke="#606060" stroke-width="1.0"/>
           <path id="arrow"
             d="M 11.500037,31.436501 C 11.940474,20.09759 22.043105,11.32322 32.158766,21.979434 L 37.068811,17.246167 C 37.068811,17.246167 37.088388,32 37.088388,32 L 22.160133,31.978069 C 22.160133,31.978069 26.997745,27.140456 26.997745,27.140456 C 18.528582,18.264221 13.291696,25.230495 11.500037,31.436501 z"
             style="fill:#404040;"/>
          </a>
         </g>
        </svg>
</svg>
