<?xml version="1.0" encoding="UTF-8" standalone="no"?>
<!DOCTYPE svg PUBLIC "-//W3C//DTD SVG 1.1//EN"
 "http://www.w3.org/Graphics/SVG/1.1/DTD/svg11.dtd">
<!-- Generated by graphviz version 2.38.0 (20140413.2041)
 -->
<!-- Title: Eigen::internal::pardiso_run_selector::run Pages: 1 -->
<svg width="306pt" height="290pt"
 viewBox="0.00 0.00 306.00 290.00" xmlns="http://www.w3.org/2000/svg" xmlns:xlink="http://www.w3.org/1999/xlink">
<g id="graph0" class="graph" transform="scale(1 1) rotate(0) translate(4 286)">
<title>Eigen::internal::pardiso_run_selector::run</title>
<!-- Node1 -->
<g id="node1" class="node"><title>Node1</title>
<polygon fill="#bfbfbf" stroke="black" points="0,-126 0,-156 126,-156 126,-126 0,-126"/>
<text text-anchor="start" x="8" y="-144" font-family="Helvetica,sans-Serif" font-size="10.00">Eigen::internal::pardiso</text>
<text text-anchor="middle" x="63" y="-133" font-family="Helvetica,sans-Serif" font-size="10.00">_run_selector::run</text>
</g>
<!-- Node2 -->
<g id="node2" class="node"><title>Node2</title>
<g id="a_node2"><a xlink:href="classEigen_1_1PardisoImpl.html#a5bc3793e432180b0e990bb8fedcb302d" target="_top" xlink:title="Eigen::PardisoImpl\l\&lt; PardisoLU\&lt; MatrixType\l \&gt; \&gt;::_solve_impl">
<polygon fill="none" stroke="black" points="162,-240.5 162,-281.5 298,-281.5 298,-240.5 162,-240.5"/>
<text text-anchor="start" x="170" y="-269.5" font-family="Helvetica,sans-Serif" font-size="10.00">Eigen::PardisoImpl</text>
<text text-anchor="start" x="170" y="-258.5" font-family="Helvetica,sans-Serif" font-size="10.00">&lt; PardisoLU&lt; MatrixType</text>
<text text-anchor="middle" x="230" y="-247.5" font-family="Helvetica,sans-Serif" font-size="10.00"> &gt; &gt;::_solve_impl</text>
</a>
</g>
</g>
<!-- Node1&#45;&gt;Node2 -->
<g id="edge1" class="edge"><title>Node1&#45;&gt;Node2</title>
<path fill="none" stroke="midnightblue" d="M84.5888,-163.656C103.341,-183.322 132.527,-211.609 162,-231 167.111,-234.362 172.66,-237.519 178.304,-240.428"/>
<polygon fill="midnightblue" stroke="midnightblue" points="87.0949,-161.211 77.6966,-156.32 81.9935,-166.005 87.0949,-161.211"/>
</g>
<!-- Node3 -->
<g id="node3" class="node"><title>Node3</title>
<g id="a_node3"><a xlink:href="classEigen_1_1PardisoImpl.html#af1773ce06014b55a69cd42daf34eeec4" target="_top" xlink:title="Eigen::PardisoImpl\l\&lt; PardisoLU\&lt; MatrixType\l \&gt; \&gt;::analyzePattern">
<polygon fill="none" stroke="black" points="162,-180.5 162,-221.5 298,-221.5 298,-180.5 162,-180.5"/>
<text text-anchor="start" x="170" y="-209.5" font-family="Helvetica,sans-Serif" font-size="10.00">Eigen::PardisoImpl</text>
<text text-anchor="start" x="170" y="-198.5" font-family="Helvetica,sans-Serif" font-size="10.00">&lt; PardisoLU&lt; MatrixType</text>
<text text-anchor="middle" x="230" y="-187.5" font-family="Helvetica,sans-Serif" font-size="10.00"> &gt; &gt;::analyzePattern</text>
</a>
</g>
</g>
<!-- Node1&#45;&gt;Node3 -->
<g id="edge2" class="edge"><title>Node1&#45;&gt;Node3</title>
<path fill="none" stroke="midnightblue" d="M115.167,-159.606C133.317,-166.206 153.843,-173.67 172.418,-180.425"/>
<polygon fill="midnightblue" stroke="midnightblue" points="116.231,-156.269 105.636,-156.141 113.838,-162.847 116.231,-156.269"/>
</g>
<!-- Node4 -->
<g id="node4" class="node"><title>Node4</title>
<g id="a_node4"><a xlink:href="classEigen_1_1PardisoImpl.html#a01d51b4c6a2aa4d269f77d9f12ab8c34" target="_top" xlink:title="Eigen::PardisoImpl\l\&lt; PardisoLU\&lt; MatrixType\l \&gt; \&gt;::compute">
<polygon fill="none" stroke="black" points="162,-120.5 162,-161.5 298,-161.5 298,-120.5 162,-120.5"/>
<text text-anchor="start" x="170" y="-149.5" font-family="Helvetica,sans-Serif" font-size="10.00">Eigen::PardisoImpl</text>
<text text-anchor="start" x="170" y="-138.5" font-family="Helvetica,sans-Serif" font-size="10.00">&lt; PardisoLU&lt; MatrixType</text>
<text text-anchor="middle" x="230" y="-127.5" font-family="Helvetica,sans-Serif" font-size="10.00"> &gt; &gt;::compute</text>
</a>
</g>
</g>
<!-- Node1&#45;&gt;Node4 -->
<g id="edge3" class="edge"><title>Node1&#45;&gt;Node4</title>
<path fill="none" stroke="midnightblue" d="M136.548,-141C144.96,-141 153.513,-141 161.849,-141"/>
<polygon fill="midnightblue" stroke="midnightblue" points="136.379,-137.5 126.379,-141 136.379,-144.5 136.379,-137.5"/>
</g>
<!-- Node5 -->
<g id="node5" class="node"><title>Node5</title>
<g id="a_node5"><a xlink:href="classEigen_1_1PardisoImpl.html#a6a4c092c5fb581a946d3c4e5ec347dfb" target="_top" xlink:title="Eigen::PardisoImpl\l\&lt; PardisoLU\&lt; MatrixType\l \&gt; \&gt;::factorize">
<polygon fill="none" stroke="black" points="162,-60.5 162,-101.5 298,-101.5 298,-60.5 162,-60.5"/>
<text text-anchor="start" x="170" y="-89.5" font-family="Helvetica,sans-Serif" font-size="10.00">Eigen::PardisoImpl</text>
<text text-anchor="start" x="170" y="-78.5" font-family="Helvetica,sans-Serif" font-size="10.00">&lt; PardisoLU&lt; MatrixType</text>
<text text-anchor="middle" x="230" y="-67.5" font-family="Helvetica,sans-Serif" font-size="10.00"> &gt; &gt;::factorize</text>
</a>
</g>
</g>
<!-- Node1&#45;&gt;Node5 -->
<g id="edge4" class="edge"><title>Node1&#45;&gt;Node5</title>
<path fill="none" stroke="midnightblue" d="M115.167,-122.394C133.317,-115.794 153.843,-108.33 172.418,-101.575"/>
<polygon fill="midnightblue" stroke="midnightblue" points="113.838,-119.153 105.636,-125.859 116.231,-125.731 113.838,-119.153"/>
</g>
<!-- Node6 -->
<g id="node6" class="node"><title>Node6</title>
<g id="a_node6"><a xlink:href="classEigen_1_1PardisoImpl.html#aa480e5ca316d25bb2b556ed5473ab0de" target="_top" xlink:title="Eigen::PardisoImpl\l\&lt; PardisoLU\&lt; MatrixType\l \&gt; \&gt;::pardisoRelease">
<polygon fill="none" stroke="black" points="162,-0.5 162,-41.5 298,-41.5 298,-0.5 162,-0.5"/>
<text text-anchor="start" x="170" y="-29.5" font-family="Helvetica,sans-Serif" font-size="10.00">Eigen::PardisoImpl</text>
<text text-anchor="start" x="170" y="-18.5" font-family="Helvetica,sans-Serif" font-size="10.00">&lt; PardisoLU&lt; MatrixType</text>
<text text-anchor="middle" x="230" y="-7.5" font-family="Helvetica,sans-Serif" font-size="10.00"> &gt; &gt;::pardisoRelease</text>
</a>
</g>
</g>
<!-- Node1&#45;&gt;Node6 -->
<g id="edge5" class="edge"><title>Node1&#45;&gt;Node6</title>
<path fill="none" stroke="midnightblue" d="M84.5888,-118.344C103.341,-98.6778 132.527,-70.3912 162,-51 167.111,-47.6376 172.66,-44.4814 178.304,-41.5723"/>
<polygon fill="midnightblue" stroke="midnightblue" points="81.9935,-115.995 77.6966,-125.68 87.0949,-120.789 81.9935,-115.995"/>
</g>
</g>
</svg>
