<?xml version="1.0" encoding="UTF-8" standalone="no"?>
<!DOCTYPE svg PUBLIC "-//W3C//DTD SVG 1.1//EN"
 "http://www.w3.org/Graphics/SVG/1.1/DTD/svg11.dtd">
<!-- Generated by graphviz version 2.38.0 (20140413.2041)
 -->
<!-- Title: Eigen::internal::unary_evaluator&lt; CwiseUnaryOp&lt; UnaryOp, ArgType &gt;, IteratorBased &gt; Pages: 1 -->
<!--zoomable 138 -->
<svg id="main" version="1.1" xmlns="http://www.w3.org/2000/svg" xmlns:xlink="http://www.w3.org/1999/xlink" xml:space="preserve" onload="init(evt)">
<style type="text/css"><![CDATA[
.edge:hover path { stroke: red; }
.edge:hover polygon { stroke: red; fill: red; }
]]></style>
<script type="text/javascript"><![CDATA[
var edges = document.getElementsByTagName('g');
if (edges && edges.length) {
  for (var i=0;i<edges.length;i++) {
    if (edges[i].id.substr(0,4)=='edge') {
      edges[i].setAttribute('class','edge');
    }
  }
}
]]></script>
        <defs>
                <circle id="rim" cx="0" cy="0" r="7"/>
                <circle id="rim2" cx="0" cy="0" r="3.5"/>
                <g id="zoomPlus">
                        <use xlink:href="#rim" fill="#404040">
                                <set attributeName="fill" to="#808080" begin="zoomplus.mouseover" end="zoomplus.mouseout"/>
                        </use>
                        <path d="M-4,0h8M0,-4v8" fill="none" stroke="white" stroke-width="1.5" pointer-events="none"/>
                </g>
                <g id="zoomMin">
                        <use xlink:href="#rim" fill="#404040">
                                <set attributeName="fill" to="#808080" begin="zoomminus.mouseover" end="zoomminus.mouseout"/>
                        </use>
                        <path d="M-4,0h8" fill="none" stroke="white" stroke-width="1.5" pointer-events="none"/>
                </g>
                <g id="dirArrow">
                        <path fill="none" stroke="white" stroke-width="1.5" d="M0,-3.0v7 M-2.5,-0.5L0,-3.0L2.5,-0.5"/>
                </g>
               <g id="resetDef">
                       <use xlink:href="#rim2" fill="#404040">
                               <set attributeName="fill" to="#808080" begin="reset.mouseover" end="reset.mouseout"/>
                       </use>
               </g>
        </defs>

<script type="text/javascript">
var viewWidth = 677;
var viewHeight = 138;
var sectionId = 'dynsection-1';
</script>
<script xlink:href="svgpan.js"/>
<svg id="graph" class="graph">
<g id="viewport">
<title>Eigen::internal::unary_evaluator&lt; CwiseUnaryOp&lt; UnaryOp, ArgType &gt;, IteratorBased &gt;</title>
<!-- Node3 -->
<g id="node1" class="node"><title>Node3</title>
<polygon fill="#bfbfbf" stroke="black" points="462,-39 462,-80 669,-80 669,-39 462,-39"/>
<text text-anchor="start" x="470" y="-68" font-family="Helvetica,sans-Serif" font-size="10.00">Eigen::internal::unary</text>
<text text-anchor="start" x="470" y="-57" font-family="Helvetica,sans-Serif" font-size="10.00">_evaluator&lt; CwiseUnaryOp</text>
<text text-anchor="middle" x="565.5" y="-46" font-family="Helvetica,sans-Serif" font-size="10.00">&lt; UnaryOp, ArgType &gt;, IteratorBased &gt;</text>
</g>
<!-- Node4 -->
<g id="node2" class="node"><title>Node4</title>
<g id="a_node2"><a xlink:href="structEigen_1_1internal_1_1evaluator__base.html" target="_top" xlink:title="Eigen::internal::evaluator\l_base\&lt; CwiseUnaryOp\&lt; UnaryOp,\l ArgType \&gt; \&gt;">
<polygon fill="none" stroke="black" points="189,-88 189,-129 371,-129 371,-88 189,-88"/>
<text text-anchor="start" x="197" y="-117" font-family="Helvetica,sans-Serif" font-size="10.00">Eigen::internal::evaluator</text>
<text text-anchor="start" x="197" y="-106" font-family="Helvetica,sans-Serif" font-size="10.00">_base&lt; CwiseUnaryOp&lt; UnaryOp,</text>
<text text-anchor="middle" x="280" y="-95" font-family="Helvetica,sans-Serif" font-size="10.00"> ArgType &gt; &gt;</text>
</a>
</g>
</g>
<!-- Node4&#45;&gt;Node3 -->
<g id="edge1" class="edge"><title>Node4&#45;&gt;Node3</title>
<path fill="none" stroke="midnightblue" d="M381.018,-91.213C407.207,-86.6864 435.484,-81.7991 461.81,-77.2488"/>
<polygon fill="midnightblue" stroke="midnightblue" points="380.348,-87.7767 371.091,-92.9288 381.541,-94.6744 380.348,-87.7767"/>
</g>
<!-- Node5 -->
<g id="node3" class="node"><title>Node5</title>
<g id="a_node3"><a xlink:href="classEigen_1_1internal_1_1noncopyable.html" target="_top" xlink:title="Eigen::internal::noncopyable">
<polygon fill="none" stroke="black" points="0,-99 0,-118 152,-118 152,-99 0,-99"/>
<text text-anchor="middle" x="76" y="-106" font-family="Helvetica,sans-Serif" font-size="10.00">Eigen::internal::noncopyable</text>
</a>
</g>
</g>
<!-- Node5&#45;&gt;Node4 -->
<g id="edge2" class="edge"><title>Node5&#45;&gt;Node4</title>
<path fill="none" stroke="midnightblue" d="M162.355,-108.5C171.066,-108.5 179.937,-108.5 188.699,-108.5"/>
<polygon fill="midnightblue" stroke="midnightblue" points="162.217,-105 152.217,-108.5 162.217,-112 162.217,-105"/>
</g>
<!-- Node6 -->
<g id="node4" class="node"><title>Node6</title>
<polygon fill="none" stroke="#bfbfbf" points="236,-50 236,-69 324,-69 324,-50 236,-50"/>
<text text-anchor="middle" x="280" y="-57" font-family="Helvetica,sans-Serif" font-size="10.00">const UnaryOp</text>
</g>
<!-- Node6&#45;&gt;Node3 -->
<g id="edge3" class="edge"><title>Node6&#45;&gt;Node3</title>
<path fill="none" stroke="#9a32cd" stroke-dasharray="5,2" d="M334.292,-59.5C370.151,-59.5 418.59,-59.5 461.785,-59.5"/>
<polygon fill="#9a32cd" stroke="#9a32cd" points="334.058,-56.0001 324.058,-59.5 334.058,-63.0001 334.058,-56.0001"/>
<text text-anchor="middle" x="416.5" y="-62.5" font-family="Helvetica,sans-Serif" font-size="10.00"> m_functor</text>
</g>
<!-- Node7 -->
<g id="node5" class="node"><title>Node7</title>
<g id="a_node5"><a xlink:href="structEigen_1_1internal_1_1evaluator.html" target="_top" xlink:title="Eigen::internal::evaluator\l\&lt; ArgType \&gt;">
<polygon fill="none" stroke="black" points="212,-0.5 212,-30.5 348,-30.5 348,-0.5 212,-0.5"/>
<text text-anchor="start" x="220" y="-18.5" font-family="Helvetica,sans-Serif" font-size="10.00">Eigen::internal::evaluator</text>
<text text-anchor="middle" x="280" y="-7.5" font-family="Helvetica,sans-Serif" font-size="10.00">&lt; ArgType &gt;</text>
</a>
</g>
</g>
<!-- Node7&#45;&gt;Node3 -->
<g id="edge4" class="edge"><title>Node7&#45;&gt;Node3</title>
<path fill="none" stroke="#9a32cd" stroke-dasharray="5,2" d="M358.332,-27.5021C390.214,-32.4504 427.619,-38.2557 461.752,-43.5533"/>
<polygon fill="#9a32cd" stroke="#9a32cd" points="358.604,-24.0025 348.186,-25.9274 357.53,-30.9197 358.604,-24.0025"/>
<text text-anchor="middle" x="416.5" y="-43.5" font-family="Helvetica,sans-Serif" font-size="10.00"> m_argImpl</text>
</g>
<!-- Node8 -->
<g id="node6" class="node"><title>Node8</title>
<g id="a_node6"><a xlink:href="structEigen_1_1internal_1_1unary__evaluator.html" target="_top" xlink:title="Eigen::internal::unary\l_evaluator\&lt; ArgType \&gt;">
<polygon fill="none" stroke="black" points="12.5,-0.5 12.5,-30.5 139.5,-30.5 139.5,-0.5 12.5,-0.5"/>
<text text-anchor="start" x="20.5" y="-18.5" font-family="Helvetica,sans-Serif" font-size="10.00">Eigen::internal::unary</text>
<text text-anchor="middle" x="76" y="-7.5" font-family="Helvetica,sans-Serif" font-size="10.00">_evaluator&lt; ArgType &gt;</text>
</a>
</g>
</g>
<!-- Node8&#45;&gt;Node7 -->
<g id="edge5" class="edge"><title>Node8&#45;&gt;Node7</title>
<path fill="none" stroke="midnightblue" d="M149.656,-15.5C169.948,-15.5 191.901,-15.5 211.859,-15.5"/>
<polygon fill="midnightblue" stroke="midnightblue" points="149.531,-12.0001 139.531,-15.5 149.531,-19.0001 149.531,-12.0001"/>
</g>
</g>
</svg>
        <g id="navigator" transform="translate(0 0)" fill="#404254">
                <rect fill="#f2f5e9" fill-opacity="0.5" stroke="#606060" stroke-width=".5" x="0" y="0" width="60" height="60"/>
                <use id="zoomplus" xlink:href="#zoomPlus" x="17" y="9" onmousedown="handleZoom(evt,'in')"/>
                <use id="zoomminus" xlink:href="#zoomMin" x="42" y="9" onmousedown="handleZoom(evt,'out')"/>
                <use id="reset" xlink:href="#resetDef" x="30" y="36" onmousedown="handleReset()"/>
                <g id="arrowUp" xlink:href="#dirArrow" transform="translate(30 24)" onmousedown="handlePan(0,-1)">
                  <use xlink:href="#rim" fill="#404040">
                        <set attributeName="fill" to="#808080" begin="arrowUp.mouseover" end="arrowUp.mouseout"/>
                  </use>
                  <path fill="none" stroke="white" stroke-width="1.5" d="M0,-3.0v7 M-2.5,-0.5L0,-3.0L2.5,-0.5"/>
                </g>
                <g id="arrowRight" xlink:href="#dirArrow" transform="rotate(90) translate(36 -43)" onmousedown="handlePan(1,0)">
                  <use xlink:href="#rim" fill="#404040">
                        <set attributeName="fill" to="#808080" begin="arrowRight.mouseover" end="arrowRight.mouseout"/>
                  </use>
                  <path fill="none" stroke="white" stroke-width="1.5" d="M0,-3.0v7 M-2.5,-0.5L0,-3.0L2.5,-0.5"/>
                </g>
                <g id="arrowDown" xlink:href="#dirArrow" transform="rotate(180) translate(-30 -48)" onmousedown="handlePan(0,1)">
                  <use xlink:href="#rim" fill="#404040">
                        <set attributeName="fill" to="#808080" begin="arrowDown.mouseover" end="arrowDown.mouseout"/>
                  </use>
                  <path fill="none" stroke="white" stroke-width="1.5" d="M0,-3.0v7 M-2.5,-0.5L0,-3.0L2.5,-0.5"/>
                </g>
                <g id="arrowLeft" xlink:href="#dirArrow" transform="rotate(270) translate(-36 17)" onmousedown="handlePan(-1,0)">
                  <use xlink:href="#rim" fill="#404040">
                        <set attributeName="fill" to="#808080" begin="arrowLeft.mouseover" end="arrowLeft.mouseout"/>
                  </use>
                  <path fill="none" stroke="white" stroke-width="1.5" d="M0,-3.0v7 M-2.5,-0.5L0,-3.0L2.5,-0.5"/>
                </g>
        </g>
        <svg viewBox="0 0 15 15" width="100%" height="30px" preserveAspectRatio="xMaxYMin meet">
         <g id="arrow_out" transform="scale(0.3 0.3)">
          <a xlink:href="structEigen_1_1internal_1_1unary__evaluator_3_01CwiseUnaryOp_3_01UnaryOp_00_01ArgType_01_4_00_01IteratorBased_01_4__coll__graph_org.svg" target="_base">
           <rect id="button" ry="5" rx="5" y="6" x="6" height="38" width="38"
                fill="#f2f5e9" fill-opacity="0.5" stroke="#606060" stroke-width="1.0"/>
           <path id="arrow"
             d="M 11.500037,31.436501 C 11.940474,20.09759 22.043105,11.32322 32.158766,21.979434 L 37.068811,17.246167 C 37.068811,17.246167 37.088388,32 37.088388,32 L 22.160133,31.978069 C 22.160133,31.978069 26.997745,27.140456 26.997745,27.140456 C 18.528582,18.264221 13.291696,25.230495 11.500037,31.436501 z"
             style="fill:#404040;"/>
          </a>
         </g>
        </svg>
</svg>
