<?xml version="1.0" encoding="UTF-8" standalone="no"?>
<!DOCTYPE svg PUBLIC "-//W3C//DTD SVG 1.1//EN"
 "http://www.w3.org/Graphics/SVG/1.1/DTD/svg11.dtd">
<!-- Generated by graphviz version 2.38.0 (20140413.2041)
 -->
<!-- Title: Eigen::internal::TensorPrinter&lt; Tensor, 0 &gt;::run Pages: 1 -->
<svg width="812pt" height="151pt"
 viewBox="0.00 0.00 812.00 151.00" xmlns="http://www.w3.org/2000/svg" xmlns:xlink="http://www.w3.org/1999/xlink">
<g id="graph0" class="graph" transform="scale(1 1) rotate(0) translate(4 147)">
<title>Eigen::internal::TensorPrinter&lt; Tensor, 0 &gt;::run</title>
<!-- Node0 -->
<g id="node1" class="node"><title>Node0</title>
<polygon fill="#bfbfbf" stroke="black" points="0,-44.5 0,-74.5 153,-74.5 153,-44.5 0,-44.5"/>
<text text-anchor="start" x="8" y="-62.5" font-family="Helvetica,sans-Serif" font-size="10.00">Eigen::internal::TensorPrinter</text>
<text text-anchor="middle" x="76.5" y="-51.5" font-family="Helvetica,sans-Serif" font-size="10.00">&lt; Tensor, 0 &gt;::run</text>
</g>
<!-- Node1 -->
<g id="node2" class="node"><title>Node1</title>
<g id="a_node2"><a xlink:href="classEigen_1_1Tensor.html#a7dfc391a1418c82a8ca7d73da9908ffb" target="_top" xlink:title="Eigen::Tensor::coeff">
<polygon fill="none" stroke="black" points="189,-50 189,-69 298,-69 298,-50 189,-50"/>
<text text-anchor="middle" x="243.5" y="-57" font-family="Helvetica,sans-Serif" font-size="10.00">Eigen::Tensor::coeff</text>
</a>
</g>
</g>
<!-- Node0&#45;&gt;Node1 -->
<g id="edge1" class="edge"><title>Node0&#45;&gt;Node1</title>
<path fill="none" stroke="midnightblue" d="M153.239,-59.5C161.792,-59.5 170.442,-59.5 178.819,-59.5"/>
<polygon fill="midnightblue" stroke="midnightblue" points="178.876,-63.0001 188.876,-59.5 178.876,-56.0001 178.876,-63.0001"/>
</g>
<!-- Node2 -->
<g id="node3" class="node"><title>Node2</title>
<g id="a_node3"><a xlink:href="classEigen_1_1Tensor.html#a8362c995157473f21e6e5190d428e2c1" target="_top" xlink:title="Eigen::Tensor::checkIndex\lRange">
<polygon fill="none" stroke="black" points="334,-88.5 334,-118.5 473,-118.5 473,-88.5 334,-88.5"/>
<text text-anchor="start" x="342" y="-106.5" font-family="Helvetica,sans-Serif" font-size="10.00">Eigen::Tensor::checkIndex</text>
<text text-anchor="middle" x="403.5" y="-95.5" font-family="Helvetica,sans-Serif" font-size="10.00">Range</text>
</a>
</g>
</g>
<!-- Node1&#45;&gt;Node2 -->
<g id="edge2" class="edge"><title>Node1&#45;&gt;Node2</title>
<path fill="none" stroke="midnightblue" d="M278.784,-69.0473C296.255,-73.9128 318.077,-79.9898 338.508,-85.6796"/>
<polygon fill="midnightblue" stroke="midnightblue" points="337.829,-89.1235 348.402,-88.4346 339.707,-82.3801 337.829,-89.1235"/>
</g>
<!-- Node7 -->
<g id="node8" class="node"><title>Node7</title>
<g id="a_node8"><a xlink:href="classEigen_1_1Tensor.html#ae81c979a82b4c82f31c5212056a2df97" target="_top" xlink:title="Eigen::Tensor::coeff">
<polygon fill="none" stroke="black" points="349,-50 349,-69 458,-69 458,-50 349,-50"/>
<text text-anchor="middle" x="403.5" y="-57" font-family="Helvetica,sans-Serif" font-size="10.00">Eigen::Tensor::coeff</text>
</a>
</g>
</g>
<!-- Node1&#45;&gt;Node7 -->
<g id="edge7" class="edge"><title>Node1&#45;&gt;Node7</title>
<path fill="none" stroke="midnightblue" d="M298.433,-59.5C311.398,-59.5 325.368,-59.5 338.734,-59.5"/>
<polygon fill="midnightblue" stroke="midnightblue" points="338.81,-63.0001 348.81,-59.5 338.81,-56.0001 338.81,-63.0001"/>
</g>
<!-- Node8 -->
<g id="node9" class="node"><title>Node8</title>
<g id="a_node9"><a xlink:href="classEigen_1_1Tensor.html#a5994bdce0e90c9079966a6cb412f8727" target="_top" xlink:title="Eigen::Tensor::linearized\lIndex">
<polygon fill="none" stroke="black" points="338,-0.5 338,-30.5 469,-30.5 469,-0.5 338,-0.5"/>
<text text-anchor="start" x="346" y="-18.5" font-family="Helvetica,sans-Serif" font-size="10.00">Eigen::Tensor::linearized</text>
<text text-anchor="middle" x="403.5" y="-7.5" font-family="Helvetica,sans-Serif" font-size="10.00">Index</text>
</a>
</g>
</g>
<!-- Node1&#45;&gt;Node8 -->
<g id="edge8" class="edge"><title>Node1&#45;&gt;Node8</title>
<path fill="none" stroke="midnightblue" d="M278.784,-49.9527C296.255,-45.0872 318.077,-39.0102 338.508,-33.3204"/>
<polygon fill="midnightblue" stroke="midnightblue" points="339.707,-36.6199 348.402,-30.5654 337.829,-29.8765 339.707,-36.6199"/>
</g>
<!-- Node3 -->
<g id="node4" class="node"><title>Node3</title>
<g id="a_node4"><a xlink:href="namespaceEigen_1_1internal.html#a78ca9587e39563e2c3b9d7c114e471fa" target="_top" xlink:title="Eigen::internal::array\l_apply_and_reduce">
<polygon fill="none" stroke="black" points="509,-112.5 509,-142.5 625,-142.5 625,-112.5 509,-112.5"/>
<text text-anchor="start" x="517" y="-130.5" font-family="Helvetica,sans-Serif" font-size="10.00">Eigen::internal::array</text>
<text text-anchor="middle" x="567" y="-119.5" font-family="Helvetica,sans-Serif" font-size="10.00">_apply_and_reduce</text>
</a>
</g>
</g>
<!-- Node2&#45;&gt;Node3 -->
<g id="edge3" class="edge"><title>Node2&#45;&gt;Node3</title>
<path fill="none" stroke="midnightblue" d="M473.459,-113.748C481.87,-114.998 490.456,-116.274 498.84,-117.52"/>
<polygon fill="midnightblue" stroke="midnightblue" points="498.536,-121.013 508.942,-119.021 499.565,-114.089 498.536,-121.013"/>
</g>
<!-- Node5 -->
<g id="node6" class="node"><title>Node5</title>
<g id="a_node6"><a xlink:href="namespaceEigen_1_1internal.html#a279cda04d38e51de5ca7933d83c93abf" target="_top" xlink:title="Eigen::internal::array\l_zip_and_reduce">
<polygon fill="none" stroke="black" points="509,-63.5 509,-93.5 625,-93.5 625,-63.5 509,-63.5"/>
<text text-anchor="start" x="517" y="-81.5" font-family="Helvetica,sans-Serif" font-size="10.00">Eigen::internal::array</text>
<text text-anchor="middle" x="567" y="-70.5" font-family="Helvetica,sans-Serif" font-size="10.00">_zip_and_reduce</text>
</a>
</g>
</g>
<!-- Node2&#45;&gt;Node5 -->
<g id="edge5" class="edge"><title>Node2&#45;&gt;Node5</title>
<path fill="none" stroke="midnightblue" d="M473.459,-92.8252C481.87,-91.5232 490.456,-90.1941 498.84,-88.8963"/>
<polygon fill="midnightblue" stroke="midnightblue" points="499.595,-92.3211 508.942,-87.3325 498.524,-85.4035 499.595,-92.3211"/>
</g>
<!-- Node4 -->
<g id="node5" class="node"><title>Node4</title>
<g id="a_node5"><a xlink:href="structEigen_1_1internal_1_1ArrayApplyAndReduce.html#a053cdf235cfc2311a2befbe28f863611" target="_top" xlink:title="Eigen::internal::ArrayApply\lAndReduce::run">
<polygon fill="none" stroke="black" points="661,-112.5 661,-142.5 804,-142.5 804,-112.5 661,-112.5"/>
<text text-anchor="start" x="669" y="-130.5" font-family="Helvetica,sans-Serif" font-size="10.00">Eigen::internal::ArrayApply</text>
<text text-anchor="middle" x="732.5" y="-119.5" font-family="Helvetica,sans-Serif" font-size="10.00">AndReduce::run</text>
</a>
</g>
</g>
<!-- Node3&#45;&gt;Node4 -->
<g id="edge4" class="edge"><title>Node3&#45;&gt;Node4</title>
<path fill="none" stroke="midnightblue" d="M625.184,-127.5C633.458,-127.5 642.101,-127.5 650.73,-127.5"/>
<polygon fill="midnightblue" stroke="midnightblue" points="650.83,-131 660.83,-127.5 650.83,-124 650.83,-131"/>
</g>
<!-- Node6 -->
<g id="node7" class="node"><title>Node6</title>
<g id="a_node7"><a xlink:href="structEigen_1_1internal_1_1ArrayZipAndReduce.html#a8cfdcb7b280d76182b8583b9064ed780" target="_top" xlink:title="Eigen::internal::ArrayZip\lAndReduce::run">
<polygon fill="none" stroke="black" points="666.5,-63.5 666.5,-93.5 798.5,-93.5 798.5,-63.5 666.5,-63.5"/>
<text text-anchor="start" x="674.5" y="-81.5" font-family="Helvetica,sans-Serif" font-size="10.00">Eigen::internal::ArrayZip</text>
<text text-anchor="middle" x="732.5" y="-70.5" font-family="Helvetica,sans-Serif" font-size="10.00">AndReduce::run</text>
</a>
</g>
</g>
<!-- Node5&#45;&gt;Node6 -->
<g id="edge6" class="edge"><title>Node5&#45;&gt;Node6</title>
<path fill="none" stroke="midnightblue" d="M625.184,-78.5C635.13,-78.5 645.61,-78.5 655.957,-78.5"/>
<polygon fill="midnightblue" stroke="midnightblue" points="656.234,-82.0001 666.234,-78.5 656.234,-75.0001 656.234,-82.0001"/>
</g>
</g>
</svg>
