<?xml version="1.0" encoding="UTF-8" standalone="no"?>
<!DOCTYPE svg PUBLIC "-//W3C//DTD SVG 1.1//EN"
 "http://www.w3.org/Graphics/SVG/1.1/DTD/svg11.dtd">
<!-- Generated by graphviz version 2.38.0 (20140413.2041)
 -->
<!-- Title: Eigen::internal::conj_helper&lt; std::complex&lt; RealScalar &gt;, std::complex&lt; RealScalar &gt;, false, true &gt;::pmul Pages: 1 -->
<svg width="563pt" height="85pt"
 viewBox="0.00 0.00 563.00 85.00" xmlns="http://www.w3.org/2000/svg" xmlns:xlink="http://www.w3.org/1999/xlink">
<g id="graph0" class="graph" transform="scale(1 1) rotate(0) translate(4 81)">
<title>Eigen::internal::conj_helper&lt; std::complex&lt; RealScalar &gt;, std::complex&lt; RealScalar &gt;, false, true &gt;::pmul</title>
<!-- Node3 -->
<g id="node1" class="node"><title>Node3</title>
<polygon fill="#bfbfbf" stroke="black" points="0,-3 0,-55 184,-55 184,-3 0,-3"/>
<text text-anchor="start" x="8" y="-43" font-family="Helvetica,sans-Serif" font-size="10.00">Eigen::internal::conj</text>
<text text-anchor="start" x="8" y="-32" font-family="Helvetica,sans-Serif" font-size="10.00">_helper&lt; std::complex</text>
<text text-anchor="start" x="8" y="-21" font-family="Helvetica,sans-Serif" font-size="10.00">&lt; RealScalar &gt;, std::complex</text>
<text text-anchor="middle" x="92" y="-10" font-family="Helvetica,sans-Serif" font-size="10.00">&lt; RealScalar &gt;, false, true &gt;::pmul</text>
</g>
<!-- Node4 -->
<g id="node2" class="node"><title>Node4</title>
<g id="a_node2"><a xlink:href="CommonCwiseUnaryOps_8h.html#a8f366de9a7bba88c7988324754f1756e" target="_top" xlink:title="imag">
<polygon fill="none" stroke="black" points="220,-19.5 220,-38.5 261,-38.5 261,-19.5 220,-19.5"/>
<text text-anchor="middle" x="240.5" y="-26.5" font-family="Helvetica,sans-Serif" font-size="10.00">imag</text>
</a>
</g>
</g>
<!-- Node3&#45;&gt;Node4 -->
<g id="edge1" class="edge"><title>Node3&#45;&gt;Node4</title>
<path fill="none" stroke="midnightblue" d="M184.115,-29C193.211,-29 201.916,-29 209.62,-29"/>
<polygon fill="midnightblue" stroke="midnightblue" points="209.783,-32.5001 219.783,-29 209.783,-25.5001 209.783,-32.5001"/>
</g>
<!-- Node5 -->
<g id="node3" class="node"><title>Node5</title>
<g id="a_node3"><a xlink:href="CommonCwiseUnaryOps_8h.html#ab8047e72312c629685f323ffa253de80" target="_top" xlink:title="Apply a unary operator coefficient&#45;wise. ">
<polygon fill="none" stroke="black" points="297,-57.5 297,-76.5 362,-76.5 362,-57.5 297,-57.5"/>
<text text-anchor="middle" x="329.5" y="-64.5" font-family="Helvetica,sans-Serif" font-size="10.00">unaryExpr</text>
</a>
</g>
</g>
<!-- Node4&#45;&gt;Node5 -->
<g id="edge2" class="edge"><title>Node4&#45;&gt;Node5</title>
<path fill="none" stroke="midnightblue" d="M261.242,-37.6228C271.923,-42.288 285.36,-48.1573 297.411,-53.4208"/>
<polygon fill="midnightblue" stroke="midnightblue" points="296.134,-56.6823 306.699,-57.4777 298.936,-50.2675 296.134,-56.6823"/>
</g>
<!-- Node6 -->
<g id="node4" class="node"><title>Node6</title>
<g id="a_node4"><a xlink:href="CommonCwiseUnaryOps_8h.html#a77fe7ae45351d38a1936f075e555760d" target="_top" xlink:title="unaryViewExpr">
<polygon fill="none" stroke="black" points="398,-19.5 398,-38.5 484,-38.5 484,-19.5 398,-19.5"/>
<text text-anchor="middle" x="441" y="-26.5" font-family="Helvetica,sans-Serif" font-size="10.00">unaryViewExpr</text>
</a>
</g>
</g>
<!-- Node5&#45;&gt;Node6 -->
<g id="edge3" class="edge"><title>Node5&#45;&gt;Node6</title>
<path fill="none" stroke="midnightblue" d="M358.131,-57.411C371.618,-52.7306 388.043,-47.0308 402.63,-41.9685"/>
<polygon fill="midnightblue" stroke="midnightblue" points="404.078,-45.1711 412.377,-38.5859 401.783,-38.558 404.078,-45.1711"/>
</g>
<!-- Node6&#45;&gt;Node4 -->
<g id="edge4" class="edge"><title>Node6&#45;&gt;Node4</title>
<path fill="none" stroke="midnightblue" d="M397.862,-29C359.889,-29 305.01,-29 271.382,-29"/>
<polygon fill="midnightblue" stroke="midnightblue" points="271.259,-25.5001 261.259,-29 271.259,-32.5001 271.259,-25.5001"/>
</g>
<!-- Node7 -->
<g id="node5" class="node"><title>Node7</title>
<g id="a_node5"><a xlink:href="CommonCwiseUnaryOps_8h.html#a756e40bd56eb3768e9dd9d2ecf0a0c4f" target="_top" xlink:title="real">
<polygon fill="none" stroke="black" points="520,-0.5 520,-19.5 555,-19.5 555,-0.5 520,-0.5"/>
<text text-anchor="middle" x="537.5" y="-7.5" font-family="Helvetica,sans-Serif" font-size="10.00">real</text>
</a>
</g>
</g>
<!-- Node6&#45;&gt;Node7 -->
<g id="edge5" class="edge"><title>Node6&#45;&gt;Node7</title>
<path fill="none" stroke="midnightblue" d="M484.275,-20.5003C493.022,-18.7416 502,-16.9366 509.99,-15.3301"/>
<polygon fill="midnightblue" stroke="midnightblue" points="510.709,-18.7556 519.823,-13.3531 509.329,-11.893 510.709,-18.7556"/>
</g>
<!-- Node7&#45;&gt;Node4 -->
<g id="edge6" class="edge"><title>Node7&#45;&gt;Node4</title>
<path fill="none" stroke="midnightblue" d="M519.851,-9.35198C493.823,-8.48499 441.922,-7.34354 398,-10 353.767,-12.6753 302.884,-19.5667 271.456,-24.271"/>
<polygon fill="midnightblue" stroke="midnightblue" points="270.554,-20.868 261.194,-25.8333 271.607,-27.7883 270.554,-20.868"/>
</g>
</g>
</svg>
