<?xml version="1.0" encoding="UTF-8" standalone="no"?>
<!DOCTYPE svg PUBLIC "-//W3C//DTD SVG 1.1//EN"
 "http://www.w3.org/Graphics/SVG/1.1/DTD/svg11.dtd">
<!-- Generated by graphviz version 2.38.0 (20140413.2041)
 -->
<!-- Title: Eigen::TensorSycl::internal::LeafCount&lt; TensorMap&lt; PlainObjectType, Options_, MakePointer_ &gt; &gt; Pages: 1 -->
<svg width="503pt" height="61pt"
 viewBox="0.00 0.00 503.00 61.00" xmlns="http://www.w3.org/2000/svg" xmlns:xlink="http://www.w3.org/1999/xlink">
<g id="graph0" class="graph" transform="scale(1 1) rotate(0) translate(4 57)">
<title>Eigen::TensorSycl::internal::LeafCount&lt; TensorMap&lt; PlainObjectType, Options_, MakePointer_ &gt; &gt;</title>
<!-- Node2 -->
<g id="node1" class="node"><title>Node2</title>
<polygon fill="#bfbfbf" stroke="black" points="328,-0.5 328,-52.5 495,-52.5 495,-0.5 328,-0.5"/>
<text text-anchor="start" x="336" y="-40.5" font-family="Helvetica,sans-Serif" font-size="10.00">Eigen::TensorSycl::</text>
<text text-anchor="start" x="336" y="-29.5" font-family="Helvetica,sans-Serif" font-size="10.00">internal::LeafCount</text>
<text text-anchor="start" x="336" y="-18.5" font-family="Helvetica,sans-Serif" font-size="10.00">&lt; TensorMap&lt; PlainObjectType,</text>
<text text-anchor="middle" x="411.5" y="-7.5" font-family="Helvetica,sans-Serif" font-size="10.00"> Options_, MakePointer_ &gt; &gt;</text>
</g>
<!-- Node3 -->
<g id="node2" class="node"><title>Node3</title>
<g id="a_node2"><a xlink:href="structEigen_1_1TensorSycl_1_1internal_1_1LeafCount_3_01const_01TensorMap_3_01PlainObjectType_00_d2d7af7ad7788ead0e2ff0e9e9bd69be.html" target="_top" xlink:title="specialisation of the LeafCount struct when the node type is const TensorMap ">
<polygon fill="none" stroke="black" points="112,-0.5 112,-52.5 291,-52.5 291,-0.5 112,-0.5"/>
<text text-anchor="start" x="120" y="-40.5" font-family="Helvetica,sans-Serif" font-size="10.00">Eigen::TensorSycl::</text>
<text text-anchor="start" x="120" y="-29.5" font-family="Helvetica,sans-Serif" font-size="10.00">internal::LeafCount</text>
<text text-anchor="start" x="120" y="-18.5" font-family="Helvetica,sans-Serif" font-size="10.00">&lt; const TensorMap&lt; PlainObject</text>
<text text-anchor="middle" x="201.5" y="-7.5" font-family="Helvetica,sans-Serif" font-size="10.00">Type, Options_, MakePointer_ &gt; &gt;</text>
</a>
</g>
</g>
<!-- Node3&#45;&gt;Node2 -->
<g id="edge1" class="edge"><title>Node3&#45;&gt;Node2</title>
<path fill="none" stroke="midnightblue" d="M301.04,-26.5C309.955,-26.5 318.923,-26.5 327.682,-26.5"/>
<polygon fill="midnightblue" stroke="midnightblue" points="301.012,-23.0001 291.012,-26.5 301.012,-30.0001 301.012,-23.0001"/>
</g>
<!-- Node4 -->
<g id="node3" class="node"><title>Node4</title>
<g id="a_node3"><a xlink:href="classsize__t.html" target="_top" xlink:title="size_t">
<polygon fill="none" stroke="black" points="0,-17 0,-36 44,-36 44,-17 0,-17"/>
<text text-anchor="middle" x="22" y="-24" font-family="Helvetica,sans-Serif" font-size="10.00">size_t</text>
</a>
</g>
</g>
<!-- Node4&#45;&gt;Node3 -->
<g id="edge2" class="edge"><title>Node4&#45;&gt;Node3</title>
<path fill="none" stroke="#9a32cd" stroke-dasharray="5,2" d="M54.4808,-26.5C70.633,-26.5 91.2024,-26.5 111.77,-26.5"/>
<polygon fill="#9a32cd" stroke="#9a32cd" points="54.0586,-23.0001 44.0586,-26.5 54.0586,-30.0001 54.0586,-23.0001"/>
<text text-anchor="middle" x="78" y="-29.5" font-family="Helvetica,sans-Serif" font-size="10.00"> Count</text>
</g>
</g>
</svg>
