<?xml version="1.0" encoding="UTF-8" standalone="no"?>
<!DOCTYPE svg PUBLIC "-//W3C//DTD SVG 1.1//EN"
 "http://www.w3.org/Graphics/SVG/1.1/DTD/svg11.dtd">
<!-- Generated by graphviz version 2.38.0 (20140413.2041)
 -->
<!-- Title: internal::colamd_col&lt; IndexType &gt; Pages: 1 -->
<svg width="626pt" height="216pt"
 viewBox="0.00 0.00 625.50 216.00" xmlns="http://www.w3.org/2000/svg" xmlns:xlink="http://www.w3.org/1999/xlink">
<g id="graph0" class="graph" transform="scale(1 1) rotate(0) translate(4 212)">
<title>internal::colamd_col&lt; IndexType &gt;</title>
<!-- Node1 -->
<g id="node1" class="node"><title>Node1</title>
<polygon fill="#bfbfbf" stroke="black" points="267,-0.5 267,-30.5 380,-30.5 380,-0.5 267,-0.5"/>
<text text-anchor="start" x="275" y="-18.5" font-family="Helvetica,sans-Serif" font-size="10.00">internal::colamd_col</text>
<text text-anchor="middle" x="323.5" y="-7.5" font-family="Helvetica,sans-Serif" font-size="10.00">&lt; IndexType &gt;</text>
</g>
<!-- Node2 -->
<g id="node2" class="node"><title>Node2</title>
<polygon fill="none" stroke="#bfbfbf" points="0,-188.5 0,-207.5 115,-207.5 115,-188.5 0,-188.5"/>
<text text-anchor="middle" x="57.5" y="-195.5" font-family="Helvetica,sans-Serif" font-size="10.00">anonymous:shared1</text>
</g>
<!-- Node2&#45;&gt;Node1 -->
<g id="edge1" class="edge"><title>Node2&#45;&gt;Node1</title>
<path fill="none" stroke="#9a32cd" stroke-dasharray="5,2" d="M64.1808,-178.829C76.886,-146.994 107.699,-81.444 156.5,-49 188.968,-27.4144 232.354,-19.4483 266.766,-16.7954"/>
<polygon fill="#9a32cd" stroke="#9a32cd" points="60.8859,-177.646 60.5665,-188.236 67.4202,-180.157 60.8859,-177.646"/>
<text text-anchor="middle" x="178" y="-107" font-family="Helvetica,sans-Serif" font-size="10.00"> shared1</text>
</g>
<!-- Node3 -->
<g id="node3" class="node"><title>Node3</title>
<polygon fill="none" stroke="#bfbfbf" points="133,-188.5 133,-207.5 248,-207.5 248,-188.5 133,-188.5"/>
<text text-anchor="middle" x="190.5" y="-195.5" font-family="Helvetica,sans-Serif" font-size="10.00">anonymous:shared2</text>
</g>
<!-- Node3&#45;&gt;Node1 -->
<g id="edge2" class="edge"><title>Node3&#45;&gt;Node1</title>
<path fill="none" stroke="#9a32cd" stroke-dasharray="5,2" d="M197.829,-179.026C210.54,-149.416 238.953,-89.6211 276.5,-49 282.965,-42.0063 291.19,-35.6876 298.947,-30.5211"/>
<polygon fill="#9a32cd" stroke="#9a32cd" points="194.505,-177.902 193.869,-188.478 200.962,-180.608 194.505,-177.902"/>
<text text-anchor="middle" x="298" y="-107" font-family="Helvetica,sans-Serif" font-size="10.00"> shared2</text>
</g>
<!-- Node4 -->
<g id="node4" class="node"><title>Node4</title>
<polygon fill="none" stroke="#bfbfbf" points="266,-188.5 266,-207.5 381,-207.5 381,-188.5 266,-188.5"/>
<text text-anchor="middle" x="323.5" y="-195.5" font-family="Helvetica,sans-Serif" font-size="10.00">anonymous:shared3</text>
</g>
<!-- Node4&#45;&gt;Node1 -->
<g id="edge3" class="edge"><title>Node4&#45;&gt;Node1</title>
<path fill="none" stroke="#9a32cd" stroke-dasharray="5,2" d="M323.5,-178.09C323.5,-141.701 323.5,-62.6941 323.5,-30.5391"/>
<polygon fill="#9a32cd" stroke="#9a32cd" points="320,-178.294 323.5,-188.294 327,-178.294 320,-178.294"/>
<text text-anchor="middle" x="345" y="-107" font-family="Helvetica,sans-Serif" font-size="10.00"> shared3</text>
</g>
<!-- Node5 -->
<g id="node5" class="node"><title>Node5</title>
<polygon fill="none" stroke="#bfbfbf" points="399,-188.5 399,-207.5 514,-207.5 514,-188.5 399,-188.5"/>
<text text-anchor="middle" x="456.5" y="-195.5" font-family="Helvetica,sans-Serif" font-size="10.00">anonymous:shared4</text>
</g>
<!-- Node5&#45;&gt;Node1 -->
<g id="edge4" class="edge"><title>Node5&#45;&gt;Node1</title>
<path fill="none" stroke="#9a32cd" stroke-dasharray="5,2" d="M449.171,-179.026C436.46,-149.416 408.047,-89.6211 370.5,-49 364.035,-42.0063 355.81,-35.6876 348.053,-30.5211"/>
<polygon fill="#9a32cd" stroke="#9a32cd" points="446.038,-180.608 453.131,-188.478 452.495,-177.902 446.038,-180.608"/>
<text text-anchor="middle" x="465" y="-107" font-family="Helvetica,sans-Serif" font-size="10.00"> shared4</text>
</g>
<!-- Node6 -->
<g id="node6" class="node"><title>Node6</title>
<polygon fill="none" stroke="#bfbfbf" points="532,-188.5 532,-207.5 595,-207.5 595,-188.5 532,-188.5"/>
<text text-anchor="middle" x="563.5" y="-195.5" font-family="Helvetica,sans-Serif" font-size="10.00">IndexType</text>
</g>
<!-- Node6&#45;&gt;Node1 -->
<g id="edge5" class="edge"><title>Node6&#45;&gt;Node1</title>
<path fill="none" stroke="#9a32cd" stroke-dasharray="5,2" d="M559.835,-178.102C552.591,-146.135 533.283,-81.6853 490.5,-49 473.366,-35.91 421.458,-27.18 380.012,-22.0944"/>
<polygon fill="#9a32cd" stroke="#9a32cd" points="556.495,-179.226 561.979,-188.29 563.345,-177.784 556.495,-179.226"/>
<text text-anchor="middle" x="587" y="-162" font-family="Helvetica,sans-Serif" font-size="10.00"> prev</text>
<text text-anchor="middle" x="587" y="-151" font-family="Helvetica,sans-Serif" font-size="10.00">order</text>
<text text-anchor="middle" x="587" y="-140" font-family="Helvetica,sans-Serif" font-size="10.00">length</text>
<text text-anchor="middle" x="587" y="-129" font-family="Helvetica,sans-Serif" font-size="10.00">thickness</text>
<text text-anchor="middle" x="587" y="-118" font-family="Helvetica,sans-Serif" font-size="10.00">score</text>
<text text-anchor="middle" x="587" y="-107" font-family="Helvetica,sans-Serif" font-size="10.00">parent</text>
<text text-anchor="middle" x="587" y="-96" font-family="Helvetica,sans-Serif" font-size="10.00">start</text>
<text text-anchor="middle" x="587" y="-85" font-family="Helvetica,sans-Serif" font-size="10.00">hash_next</text>
<text text-anchor="middle" x="587" y="-74" font-family="Helvetica,sans-Serif" font-size="10.00">degree_next</text>
<text text-anchor="middle" x="587" y="-63" font-family="Helvetica,sans-Serif" font-size="10.00">headhash</text>
<text text-anchor="middle" x="587" y="-52" font-family="Helvetica,sans-Serif" font-size="10.00">...</text>
</g>
</g>
</svg>
