<?xml version="1.0" encoding="UTF-8" standalone="no"?>
<!DOCTYPE svg PUBLIC "-//W3C//DTD SVG 1.1//EN"
 "http://www.w3.org/Graphics/SVG/1.1/DTD/svg11.dtd">
<!-- Generated by graphviz version 2.38.0 (20140413.2041)
 -->
<!-- Title: Eigen::internal::extract_data_selector::run Pages: 1 -->
<!--zoomable 359 -->
<svg id="main" version="1.1" xmlns="http://www.w3.org/2000/svg" xmlns:xlink="http://www.w3.org/1999/xlink" xml:space="preserve" onload="init(evt)">
<style type="text/css"><![CDATA[
.edge:hover path { stroke: red; }
.edge:hover polygon { stroke: red; fill: red; }
]]></style>
<script type="text/javascript"><![CDATA[
var edges = document.getElementsByTagName('g');
if (edges && edges.length) {
  for (var i=0;i<edges.length;i++) {
    if (edges[i].id.substr(0,4)=='edge') {
      edges[i].setAttribute('class','edge');
    }
  }
}
]]></script>
        <defs>
                <circle id="rim" cx="0" cy="0" r="7"/>
                <circle id="rim2" cx="0" cy="0" r="3.5"/>
                <g id="zoomPlus">
                        <use xlink:href="#rim" fill="#404040">
                                <set attributeName="fill" to="#808080" begin="zoomplus.mouseover" end="zoomplus.mouseout"/>
                        </use>
                        <path d="M-4,0h8M0,-4v8" fill="none" stroke="white" stroke-width="1.5" pointer-events="none"/>
                </g>
                <g id="zoomMin">
                        <use xlink:href="#rim" fill="#404040">
                                <set attributeName="fill" to="#808080" begin="zoomminus.mouseover" end="zoomminus.mouseout"/>
                        </use>
                        <path d="M-4,0h8" fill="none" stroke="white" stroke-width="1.5" pointer-events="none"/>
                </g>
                <g id="dirArrow">
                        <path fill="none" stroke="white" stroke-width="1.5" d="M0,-3.0v7 M-2.5,-0.5L0,-3.0L2.5,-0.5"/>
                </g>
               <g id="resetDef">
                       <use xlink:href="#rim2" fill="#404040">
                               <set attributeName="fill" to="#808080" begin="reset.mouseover" end="reset.mouseout"/>
                       </use>
               </g>
        </defs>

<script type="text/javascript">
var viewWidth = 943;
var viewHeight = 359;
var sectionId = 'dynsection-1';
</script>
<script xlink:href="svgpan.js"/>
<svg id="graph" class="graph">
<g id="viewport">
<title>Eigen::internal::extract_data_selector::run</title>
<!-- Node2 -->
<g id="node1" class="node"><title>Node2</title>
<polygon fill="#bfbfbf" stroke="black" points="0,-173 0,-203 125,-203 125,-173 0,-173"/>
<text text-anchor="start" x="8" y="-191" font-family="Helvetica,sans-Serif" font-size="10.00">Eigen::internal::extract</text>
<text text-anchor="middle" x="62.5" y="-180" font-family="Helvetica,sans-Serif" font-size="10.00">_data_selector::run</text>
</g>
<!-- Node3 -->
<g id="node2" class="node"><title>Node3</title>
<g id="a_node2"><a xlink:href="namespaceEigen_1_1internal.html#a61201d7da2eeda8e5469dc7b46d93c4d" target="_top" xlink:title="Eigen::internal::extract_data">
<polygon fill="none" stroke="black" points="161,-178.5 161,-197.5 313,-197.5 313,-178.5 161,-178.5"/>
<text text-anchor="middle" x="237" y="-185.5" font-family="Helvetica,sans-Serif" font-size="10.00">Eigen::internal::extract_data</text>
</a>
</g>
</g>
<!-- Node2&#45;&gt;Node3 -->
<g id="edge1" class="edge"><title>Node2&#45;&gt;Node3</title>
<path fill="none" stroke="midnightblue" d="M135.402,-188C143.787,-188 152.357,-188 160.785,-188"/>
<polygon fill="midnightblue" stroke="midnightblue" points="135.289,-184.5 125.289,-188 135.289,-191.5 135.289,-184.5"/>
</g>
<!-- Node4 -->
<g id="node3" class="node"><title>Node4</title>
<g id="a_node3"><a xlink:href="classEigen_1_1TriangularViewImpl_3_01MatrixType_00_01Mode_00_01Sparse_01_4.html#a6a290dc48e4276fcbf574c6af28af5cc" target="_top" xlink:title="Eigen::TriangularViewImpl\l\&lt; MatrixType, Mode, Sparse\l \&gt;::_solve_impl">
<polygon fill="none" stroke="black" points="375.5,-309.5 375.5,-350.5 525.5,-350.5 525.5,-309.5 375.5,-309.5"/>
<text text-anchor="start" x="383.5" y="-338.5" font-family="Helvetica,sans-Serif" font-size="10.00">Eigen::TriangularViewImpl</text>
<text text-anchor="start" x="383.5" y="-327.5" font-family="Helvetica,sans-Serif" font-size="10.00">&lt; MatrixType, Mode, Sparse</text>
<text text-anchor="middle" x="450.5" y="-316.5" font-family="Helvetica,sans-Serif" font-size="10.00"> &gt;::_solve_impl</text>
</a>
</g>
</g>
<!-- Node3&#45;&gt;Node4 -->
<g id="edge2" class="edge"><title>Node3&#45;&gt;Node4</title>
<path fill="none" stroke="midnightblue" d="M250.954,-205.827C269.814,-230.524 307.175,-274.929 349,-300 357.199,-304.915 366.262,-309.075 375.49,-312.585"/>
<polygon fill="midnightblue" stroke="midnightblue" points="253.662,-203.603 244.869,-197.692 248.057,-207.796 253.662,-203.603"/>
</g>
<!-- Node5 -->
<g id="node4" class="node"><title>Node5</title>
<g id="a_node4"><a xlink:href="structEigen_1_1internal_1_1Assignment_3_01DstXprType_00_01Inverse_3_01XprType_01_4_00_01internal6c5c4776bbb1b16e08b6cbd291af318a.html#a450acc4a5ca9172c882fd6d19a5ba35c" target="_top" xlink:title="Eigen::internal::Assignment\l\&lt; DstXprType, Inverse\&lt; XprType\l \&gt;, internal::assign_op\&lt; typename\l DstXprType::Scalar, typename XprType\l::Scalar \&gt;, Dense2Dense \&gt;::run">
<polygon fill="none" stroke="black" points="349,-227.5 349,-290.5 552,-290.5 552,-227.5 349,-227.5"/>
<text text-anchor="start" x="357" y="-278.5" font-family="Helvetica,sans-Serif" font-size="10.00">Eigen::internal::Assignment</text>
<text text-anchor="start" x="357" y="-267.5" font-family="Helvetica,sans-Serif" font-size="10.00">&lt; DstXprType, Inverse&lt; XprType</text>
<text text-anchor="start" x="357" y="-256.5" font-family="Helvetica,sans-Serif" font-size="10.00"> &gt;, internal::assign_op&lt; typename</text>
<text text-anchor="start" x="357" y="-245.5" font-family="Helvetica,sans-Serif" font-size="10.00"> DstXprType::Scalar, typename XprType</text>
<text text-anchor="middle" x="450.5" y="-234.5" font-family="Helvetica,sans-Serif" font-size="10.00">::Scalar &gt;, Dense2Dense &gt;::run</text>
</a>
</g>
</g>
<!-- Node3&#45;&gt;Node5 -->
<g id="edge3" class="edge"><title>Node3&#45;&gt;Node5</title>
<path fill="none" stroke="midnightblue" d="M276.227,-200.833C298.457,-208.295 327.529,-218.055 355.492,-227.442"/>
<polygon fill="midnightblue" stroke="midnightblue" points="277.118,-197.44 266.524,-197.575 274.89,-204.076 277.118,-197.44"/>
</g>
<!-- Node6 -->
<g id="node5" class="node"><title>Node6</title>
<g id="a_node5"><a xlink:href="structEigen_1_1internal_1_1check__transpose__aliasing__run__time__selector.html#afe5ddaa724ea7106086bc07105d3a55f" target="_top" xlink:title="Eigen::internal::check\l_transpose_aliasing_run\l_time_selector::run">
<polygon fill="none" stroke="black" points="384.5,-167.5 384.5,-208.5 516.5,-208.5 516.5,-167.5 384.5,-167.5"/>
<text text-anchor="start" x="392.5" y="-196.5" font-family="Helvetica,sans-Serif" font-size="10.00">Eigen::internal::check</text>
<text text-anchor="start" x="392.5" y="-185.5" font-family="Helvetica,sans-Serif" font-size="10.00">_transpose_aliasing_run</text>
<text text-anchor="middle" x="450.5" y="-174.5" font-family="Helvetica,sans-Serif" font-size="10.00">_time_selector::run</text>
</a>
</g>
</g>
<!-- Node3&#45;&gt;Node6 -->
<g id="edge4" class="edge"><title>Node3&#45;&gt;Node6</title>
<path fill="none" stroke="midnightblue" d="M323.373,-188C343.725,-188 365.124,-188 384.398,-188"/>
<polygon fill="midnightblue" stroke="midnightblue" points="323.163,-184.5 313.163,-188 323.162,-191.5 323.163,-184.5"/>
</g>
<!-- Node7 -->
<g id="node6" class="node"><title>Node7</title>
<g id="a_node6"><a xlink:href="structEigen_1_1internal_1_1check__transpose__aliasing__run__time__selector_3_01Scalar_00_01DestI58f9a1beb146afb27323273625e1789c.html#ae6e2eebec28efcb71ed43e9c1fe1d49c" target="_top" xlink:title="Eigen::internal::check\l_transpose_aliasing_run\l_time_selector\&lt; Scalar,\l DestIsTransposed, CwiseBinaryOp\l\&lt; BinOp, DerivedA, DerivedB \&gt; \&gt;::run">
<polygon fill="none" stroke="black" points="350.5,-85.5 350.5,-148.5 550.5,-148.5 550.5,-85.5 350.5,-85.5"/>
<text text-anchor="start" x="358.5" y="-136.5" font-family="Helvetica,sans-Serif" font-size="10.00">Eigen::internal::check</text>
<text text-anchor="start" x="358.5" y="-125.5" font-family="Helvetica,sans-Serif" font-size="10.00">_transpose_aliasing_run</text>
<text text-anchor="start" x="358.5" y="-114.5" font-family="Helvetica,sans-Serif" font-size="10.00">_time_selector&lt; Scalar,</text>
<text text-anchor="start" x="358.5" y="-103.5" font-family="Helvetica,sans-Serif" font-size="10.00"> DestIsTransposed, CwiseBinaryOp</text>
<text text-anchor="middle" x="450.5" y="-92.5" font-family="Helvetica,sans-Serif" font-size="10.00">&lt; BinOp, DerivedA, DerivedB &gt; &gt;::run</text>
</a>
</g>
</g>
<!-- Node3&#45;&gt;Node7 -->
<g id="edge5" class="edge"><title>Node3&#45;&gt;Node7</title>
<path fill="none" stroke="midnightblue" d="M276.227,-175.167C298.457,-167.705 327.529,-157.945 355.492,-148.558"/>
<polygon fill="midnightblue" stroke="midnightblue" points="274.89,-171.924 266.524,-178.425 277.118,-178.56 274.89,-171.924"/>
</g>
<!-- Node8 -->
<g id="node7" class="node"><title>Node8</title>
<g id="a_node7"><a xlink:href="structEigen_1_1internal_1_1checkTransposeAliasing__impl.html#a01cee326e5f97de5675845081f35a9ab" target="_top" xlink:title="Eigen::internal::checkTranspose\lAliasing_impl::run">
<polygon fill="none" stroke="black" points="367,-36 367,-66 534,-66 534,-36 367,-36"/>
<text text-anchor="start" x="375" y="-54" font-family="Helvetica,sans-Serif" font-size="10.00">Eigen::internal::checkTranspose</text>
<text text-anchor="middle" x="450.5" y="-43" font-family="Helvetica,sans-Serif" font-size="10.00">Aliasing_impl::run</text>
</a>
</g>
</g>
<!-- Node3&#45;&gt;Node8 -->
<g id="edge6" class="edge"><title>Node3&#45;&gt;Node8</title>
<path fill="none" stroke="midnightblue" d="M250.518,-170.276C269.097,-145.332 306.394,-100.217 349,-76 355.8,-72.1353 363.19,-68.8621 370.775,-66.091"/>
<polygon fill="midnightblue" stroke="midnightblue" points="247.603,-168.334 244.545,-178.477 253.261,-172.455 247.603,-168.334"/>
</g>
<!-- Node9 -->
<g id="node8" class="node"><title>Node9</title>
<g id="a_node8"><a xlink:href="namespaceEigen_1_1internal.html#a2088791fb8428a2cfad6bd71298795a2" target="_top" xlink:title="Eigen::internal::check\l_for_aliasing">
<polygon fill="none" stroke="black" points="588,-36 588,-66 707,-66 707,-36 588,-36"/>
<text text-anchor="start" x="596" y="-54" font-family="Helvetica,sans-Serif" font-size="10.00">Eigen::internal::check</text>
<text text-anchor="middle" x="647.5" y="-43" font-family="Helvetica,sans-Serif" font-size="10.00">_for_aliasing</text>
</a>
</g>
</g>
<!-- Node8&#45;&gt;Node9 -->
<g id="edge7" class="edge"><title>Node8&#45;&gt;Node9</title>
<path fill="none" stroke="midnightblue" d="M544.414,-51C559.227,-51 574.182,-51 587.907,-51"/>
<polygon fill="midnightblue" stroke="midnightblue" points="544.198,-47.5001 534.198,-51 544.198,-54.5001 544.198,-47.5001"/>
</g>
<!-- Node10 -->
<g id="node9" class="node"><title>Node10</title>
<g id="a_node9"><a xlink:href="namespaceEigen_1_1internal.html#a29a5ab3dff368b97b02bc85877353d27" target="_top" xlink:title="Eigen::internal::call\l_assignment_no_alias\l_no_transpose">
<polygon fill="none" stroke="black" points="778,-60.5 778,-101.5 900,-101.5 900,-60.5 778,-60.5"/>
<text text-anchor="start" x="786" y="-89.5" font-family="Helvetica,sans-Serif" font-size="10.00">Eigen::internal::call</text>
<text text-anchor="start" x="786" y="-78.5" font-family="Helvetica,sans-Serif" font-size="10.00">_assignment_no_alias</text>
<text text-anchor="middle" x="839" y="-67.5" font-family="Helvetica,sans-Serif" font-size="10.00">_no_transpose</text>
</a>
</g>
</g>
<!-- Node9&#45;&gt;Node10 -->
<g id="edge8" class="edge"><title>Node9&#45;&gt;Node10</title>
<path fill="none" stroke="midnightblue" d="M717.099,-61.8599C737.025,-65.0145 758.625,-68.4341 777.982,-71.4984"/>
<polygon fill="midnightblue" stroke="midnightblue" points="717.586,-58.3935 707.161,-60.2867 716.491,-65.3074 717.586,-58.3935"/>
</g>
<!-- Node11 -->
<g id="node10" class="node"><title>Node11</title>
<g id="a_node10"><a xlink:href="structEigen_1_1internal_1_1Assignment_3_01DstXprType_00_01SrcXprType_00_01Functor_00_01Dense2Dense_00_01Weak_01_4.html#a23b7a4281a249055ccd7f123144a3a84" target="_top" xlink:title="Eigen::internal::Assignment\l\&lt; DstXprType, SrcXprType,\l Functor, Dense2Dense, Weak \&gt;::run">
<polygon fill="none" stroke="black" points="743,-0.5 743,-41.5 935,-41.5 935,-0.5 743,-0.5"/>
<text text-anchor="start" x="751" y="-29.5" font-family="Helvetica,sans-Serif" font-size="10.00">Eigen::internal::Assignment</text>
<text text-anchor="start" x="751" y="-18.5" font-family="Helvetica,sans-Serif" font-size="10.00">&lt; DstXprType, SrcXprType,</text>
<text text-anchor="middle" x="839" y="-7.5" font-family="Helvetica,sans-Serif" font-size="10.00"> Functor, Dense2Dense, Weak &gt;::run</text>
</a>
</g>
</g>
<!-- Node9&#45;&gt;Node11 -->
<g id="edge9" class="edge"><title>Node9&#45;&gt;Node11</title>
<path fill="none" stroke="midnightblue" d="M717.147,-40.1323C725.468,-38.815 734.081,-37.4516 742.699,-36.0872"/>
<polygon fill="midnightblue" stroke="midnightblue" points="716.491,-36.6926 707.161,-41.7133 717.586,-43.6065 716.491,-36.6926"/>
</g>
</g>
</svg>
        <g id="navigator" transform="translate(0 0)" fill="#404254">
                <rect fill="#f2f5e9" fill-opacity="0.5" stroke="#606060" stroke-width=".5" x="0" y="0" width="60" height="60"/>
                <use id="zoomplus" xlink:href="#zoomPlus" x="17" y="9" onmousedown="handleZoom(evt,'in')"/>
                <use id="zoomminus" xlink:href="#zoomMin" x="42" y="9" onmousedown="handleZoom(evt,'out')"/>
                <use id="reset" xlink:href="#resetDef" x="30" y="36" onmousedown="handleReset()"/>
                <g id="arrowUp" xlink:href="#dirArrow" transform="translate(30 24)" onmousedown="handlePan(0,-1)">
                  <use xlink:href="#rim" fill="#404040">
                        <set attributeName="fill" to="#808080" begin="arrowUp.mouseover" end="arrowUp.mouseout"/>
                  </use>
                  <path fill="none" stroke="white" stroke-width="1.5" d="M0,-3.0v7 M-2.5,-0.5L0,-3.0L2.5,-0.5"/>
                </g>
                <g id="arrowRight" xlink:href="#dirArrow" transform="rotate(90) translate(36 -43)" onmousedown="handlePan(1,0)">
                  <use xlink:href="#rim" fill="#404040">
                        <set attributeName="fill" to="#808080" begin="arrowRight.mouseover" end="arrowRight.mouseout"/>
                  </use>
                  <path fill="none" stroke="white" stroke-width="1.5" d="M0,-3.0v7 M-2.5,-0.5L0,-3.0L2.5,-0.5"/>
                </g>
                <g id="arrowDown" xlink:href="#dirArrow" transform="rotate(180) translate(-30 -48)" onmousedown="handlePan(0,1)">
                  <use xlink:href="#rim" fill="#404040">
                        <set attributeName="fill" to="#808080" begin="arrowDown.mouseover" end="arrowDown.mouseout"/>
                  </use>
                  <path fill="none" stroke="white" stroke-width="1.5" d="M0,-3.0v7 M-2.5,-0.5L0,-3.0L2.5,-0.5"/>
                </g>
                <g id="arrowLeft" xlink:href="#dirArrow" transform="rotate(270) translate(-36 17)" onmousedown="handlePan(-1,0)">
                  <use xlink:href="#rim" fill="#404040">
                        <set attributeName="fill" to="#808080" begin="arrowLeft.mouseover" end="arrowLeft.mouseout"/>
                  </use>
                  <path fill="none" stroke="white" stroke-width="1.5" d="M0,-3.0v7 M-2.5,-0.5L0,-3.0L2.5,-0.5"/>
                </g>
        </g>
        <svg viewBox="0 0 15 15" width="100%" height="30px" preserveAspectRatio="xMaxYMin meet">
         <g id="arrow_out" transform="scale(0.3 0.3)">
          <a xlink:href="structEigen_1_1internal_1_1extract__data__selector_a5e4c8df8b5b38f6787b61035b5118d77_icgraph_org.svg" target="_base">
           <rect id="button" ry="5" rx="5" y="6" x="6" height="38" width="38"
                fill="#f2f5e9" fill-opacity="0.5" stroke="#606060" stroke-width="1.0"/>
           <path id="arrow"
             d="M 11.500037,31.436501 C 11.940474,20.09759 22.043105,11.32322 32.158766,21.979434 L 37.068811,17.246167 C 37.068811,17.246167 37.088388,32 37.088388,32 L 22.160133,31.978069 C 22.160133,31.978069 26.997745,27.140456 26.997745,27.140456 C 18.528582,18.264221 13.291696,25.230495 11.500037,31.436501 z"
             style="fill:#404040;"/>
          </a>
         </g>
        </svg>
</svg>
