<?xml version="1.0" encoding="UTF-8" standalone="no"?>
<!DOCTYPE svg PUBLIC "-//W3C//DTD SVG 1.1//EN"
 "http://www.w3.org/Graphics/SVG/1.1/DTD/svg11.dtd">
<!-- Generated by graphviz version 2.38.0 (20140413.2041)
 -->
<!-- Title: Eigen::internal::traits&lt; TensorScanOp&lt; Op, XprType &gt; &gt; Pages: 1 -->
<svg width="220pt" height="128pt"
 viewBox="0.00 0.00 220.00 128.00" xmlns="http://www.w3.org/2000/svg" xmlns:xlink="http://www.w3.org/1999/xlink">
<g id="graph0" class="graph" transform="scale(1 1) rotate(0) translate(4 124)">
<title>Eigen::internal::traits&lt; TensorScanOp&lt; Op, XprType &gt; &gt;</title>
<!-- Node2 -->
<g id="node1" class="node"><title>Node2</title>
<polygon fill="#bfbfbf" stroke="black" points="10,-0.5 10,-30.5 196,-30.5 196,-0.5 10,-0.5"/>
<text text-anchor="start" x="18" y="-18.5" font-family="Helvetica,sans-Serif" font-size="10.00">Eigen::internal::traits</text>
<text text-anchor="middle" x="103" y="-7.5" font-family="Helvetica,sans-Serif" font-size="10.00">&lt; TensorScanOp&lt; Op, XprType &gt; &gt;</text>
</g>
<!-- Node3 -->
<g id="node2" class="node"><title>Node3</title>
<g id="a_node2"><a xlink:href="structEigen_1_1internal_1_1traits.html" target="_top" xlink:title="Eigen::internal::traits\l\&lt; XprType \&gt;">
<polygon fill="none" stroke="black" points="0,-89.5 0,-119.5 116,-119.5 116,-89.5 0,-89.5"/>
<text text-anchor="start" x="8" y="-107.5" font-family="Helvetica,sans-Serif" font-size="10.00">Eigen::internal::traits</text>
<text text-anchor="middle" x="58" y="-96.5" font-family="Helvetica,sans-Serif" font-size="10.00">&lt; XprType &gt;</text>
</a>
</g>
</g>
<!-- Node3&#45;&gt;Node2 -->
<g id="edge1" class="edge"><title>Node3&#45;&gt;Node2</title>
<path fill="none" stroke="midnightblue" d="M70.1612,-79.9883C78.3248,-64.2053 88.8089,-43.9362 95.7074,-30.599"/>
<polygon fill="midnightblue" stroke="midnightblue" points="66.9164,-78.6435 65.4308,-89.1337 73.1339,-81.8595 66.9164,-78.6435"/>
</g>
<!-- Node4 -->
<g id="node3" class="node"><title>Node4</title>
<polygon fill="none" stroke="#bfbfbf" points="134.5,-95 134.5,-114 163.5,-114 163.5,-95 134.5,-95"/>
<text text-anchor="middle" x="149" y="-102" font-family="Helvetica,sans-Serif" font-size="10.00">int</text>
</g>
<!-- Node4&#45;&gt;Node2 -->
<g id="edge2" class="edge"><title>Node4&#45;&gt;Node2</title>
<path fill="none" stroke="#9a32cd" stroke-dasharray="5,2" d="M139.646,-85.8089C131.02,-69.4934 118.381,-45.5903 110.427,-30.5475"/>
<polygon fill="#9a32cd" stroke="#9a32cd" points="136.653,-87.6357 144.421,-94.84 142.841,-84.3637 136.653,-87.6357"/>
<text text-anchor="middle" x="172" y="-63" font-family="Helvetica,sans-Serif" font-size="10.00"> Layout</text>
<text text-anchor="middle" x="172" y="-52" font-family="Helvetica,sans-Serif" font-size="10.00">NumDimensions</text>
</g>
</g>
</svg>
