<?xml version="1.0" encoding="UTF-8" standalone="no"?>
<!DOCTYPE svg PUBLIC "-//W3C//DTD SVG 1.1//EN"
 "http://www.w3.org/Graphics/SVG/1.1/DTD/svg11.dtd">
<!-- Generated by graphviz version 2.38.0 (20140413.2041)
 -->
<!-- Title: Eigen::internal::unary_evaluator&lt; ArrayWrapper&lt; TArgType &gt; &gt; Pages: 1 -->
<svg width="829pt" height="88pt"
 viewBox="0.00 0.00 829.00 88.00" xmlns="http://www.w3.org/2000/svg" xmlns:xlink="http://www.w3.org/1999/xlink">
<g id="graph0" class="graph" transform="scale(1 1) rotate(0) translate(4 84)">
<title>Eigen::internal::unary_evaluator&lt; ArrayWrapper&lt; TArgType &gt; &gt;</title>
<!-- Node4 -->
<g id="node1" class="node"><title>Node4</title>
<polygon fill="#bfbfbf" stroke="black" points="678,-22 678,-63 821,-63 821,-22 678,-22"/>
<text text-anchor="start" x="686" y="-51" font-family="Helvetica,sans-Serif" font-size="10.00">Eigen::internal::unary</text>
<text text-anchor="start" x="686" y="-40" font-family="Helvetica,sans-Serif" font-size="10.00">_evaluator&lt; ArrayWrapper</text>
<text text-anchor="middle" x="749.5" y="-29" font-family="Helvetica,sans-Serif" font-size="10.00">&lt; TArgType &gt; &gt;</text>
</g>
<!-- Node5 -->
<g id="node2" class="node"><title>Node5</title>
<g id="a_node2"><a xlink:href="structEigen_1_1internal_1_1evaluator__wrapper__base.html" target="_top" xlink:title="Eigen::internal::evaluator\l_wrapper_base\&lt; ArrayWrapper\l\&lt; TArgType \&gt; \&gt;">
<polygon fill="none" stroke="black" points="477,-22 477,-63 641,-63 641,-22 477,-22"/>
<text text-anchor="start" x="485" y="-51" font-family="Helvetica,sans-Serif" font-size="10.00">Eigen::internal::evaluator</text>
<text text-anchor="start" x="485" y="-40" font-family="Helvetica,sans-Serif" font-size="10.00">_wrapper_base&lt; ArrayWrapper</text>
<text text-anchor="middle" x="559" y="-29" font-family="Helvetica,sans-Serif" font-size="10.00">&lt; TArgType &gt; &gt;</text>
</a>
</g>
</g>
<!-- Node5&#45;&gt;Node4 -->
<g id="edge1" class="edge"><title>Node5&#45;&gt;Node4</title>
<path fill="none" stroke="midnightblue" d="M651.154,-42.5C660.146,-42.5 669.176,-42.5 677.916,-42.5"/>
<polygon fill="midnightblue" stroke="midnightblue" points="651.035,-39.0001 641.035,-42.5 651.035,-46.0001 651.035,-39.0001"/>
</g>
<!-- Node6 -->
<g id="node3" class="node"><title>Node6</title>
<g id="a_node3"><a xlink:href="structEigen_1_1internal_1_1evaluator__base.html" target="_top" xlink:title="Eigen::internal::evaluator\l_base\&lt; ArrayWrapper\&lt; TArgType \&gt; \&gt;">
<polygon fill="none" stroke="black" points="189,-49.5 189,-79.5 386,-79.5 386,-49.5 189,-49.5"/>
<text text-anchor="start" x="197" y="-67.5" font-family="Helvetica,sans-Serif" font-size="10.00">Eigen::internal::evaluator</text>
<text text-anchor="middle" x="287.5" y="-56.5" font-family="Helvetica,sans-Serif" font-size="10.00">_base&lt; ArrayWrapper&lt; TArgType &gt; &gt;</text>
</a>
</g>
</g>
<!-- Node6&#45;&gt;Node5 -->
<g id="edge2" class="edge"><title>Node6&#45;&gt;Node5</title>
<path fill="none" stroke="midnightblue" d="M396.353,-55.6957C423.116,-53.5109 451.356,-51.2057 476.612,-49.1439"/>
<polygon fill="midnightblue" stroke="midnightblue" points="395.859,-52.2243 386.177,-56.5264 396.428,-59.2011 395.859,-52.2243"/>
</g>
<!-- Node7 -->
<g id="node4" class="node"><title>Node7</title>
<g id="a_node4"><a xlink:href="classEigen_1_1internal_1_1noncopyable.html" target="_top" xlink:title="Eigen::internal::noncopyable">
<polygon fill="none" stroke="black" points="0,-55 0,-74 152,-74 152,-55 0,-55"/>
<text text-anchor="middle" x="76" y="-62" font-family="Helvetica,sans-Serif" font-size="10.00">Eigen::internal::noncopyable</text>
</a>
</g>
</g>
<!-- Node7&#45;&gt;Node6 -->
<g id="edge3" class="edge"><title>Node7&#45;&gt;Node6</title>
<path fill="none" stroke="midnightblue" d="M162.266,-64.5C171.062,-64.5 180.048,-64.5 188.964,-64.5"/>
<polygon fill="midnightblue" stroke="midnightblue" points="162.043,-61.0001 152.043,-64.5 162.043,-68.0001 162.043,-61.0001"/>
</g>
<!-- Node8 -->
<g id="node5" class="node"><title>Node8</title>
<g id="a_node5"><a xlink:href="structEigen_1_1internal_1_1evaluator.html" target="_top" xlink:title="Eigen::internal::evaluator\l\&lt; Eigen::Triplet \&gt;">
<polygon fill="none" stroke="black" points="219.5,-0.5 219.5,-30.5 355.5,-30.5 355.5,-0.5 219.5,-0.5"/>
<text text-anchor="start" x="227.5" y="-18.5" font-family="Helvetica,sans-Serif" font-size="10.00">Eigen::internal::evaluator</text>
<text text-anchor="middle" x="287.5" y="-7.5" font-family="Helvetica,sans-Serif" font-size="10.00">&lt; Eigen::Triplet &gt;</text>
</a>
</g>
</g>
<!-- Node8&#45;&gt;Node5 -->
<g id="edge4" class="edge"><title>Node8&#45;&gt;Node5</title>
<path fill="none" stroke="#9a32cd" stroke-dasharray="5,2" d="M365.892,-23.2535C400.586,-26.7294 441.518,-30.8302 476.666,-34.3515"/>
<polygon fill="#9a32cd" stroke="#9a32cd" points="366.11,-19.758 355.811,-22.2436 365.412,-26.7231 366.11,-19.758"/>
<text text-anchor="middle" x="431.5" y="-35.5" font-family="Helvetica,sans-Serif" font-size="10.00"> m_argImpl</text>
</g>
<!-- Node9 -->
<g id="node6" class="node"><title>Node9</title>
<g id="a_node6"><a xlink:href="structEigen_1_1internal_1_1unary__evaluator.html" target="_top" xlink:title="Eigen::internal::unary\l_evaluator\&lt; Eigen::Triplet \&gt;">
<polygon fill="none" stroke="black" points="1.5,-0.5 1.5,-30.5 150.5,-30.5 150.5,-0.5 1.5,-0.5"/>
<text text-anchor="start" x="9.5" y="-18.5" font-family="Helvetica,sans-Serif" font-size="10.00">Eigen::internal::unary</text>
<text text-anchor="middle" x="76" y="-7.5" font-family="Helvetica,sans-Serif" font-size="10.00">_evaluator&lt; Eigen::Triplet &gt;</text>
</a>
</g>
</g>
<!-- Node9&#45;&gt;Node8 -->
<g id="edge5" class="edge"><title>Node9&#45;&gt;Node8</title>
<path fill="none" stroke="midnightblue" d="M160.666,-15.5C180.184,-15.5 200.721,-15.5 219.413,-15.5"/>
<polygon fill="midnightblue" stroke="midnightblue" points="160.567,-12.0001 150.567,-15.5 160.567,-19.0001 160.567,-12.0001"/>
</g>
</g>
</svg>
