<?xml version="1.0" encoding="UTF-8" standalone="no"?>
<!DOCTYPE svg PUBLIC "-//W3C//DTD SVG 1.1//EN"
 "http://www.w3.org/Graphics/SVG/1.1/DTD/svg11.dtd">
<!-- Generated by graphviz version 2.38.0 (20140413.2041)
 -->
<!-- Title: internal::band_solve_triangular_selector&lt; Index, Mode, LhsScalar, ConjLhs, RhsScalar, RowMajor &gt;::run Pages: 1 -->
<svg width="466pt" height="88pt"
 viewBox="0.00 0.00 466.00 88.00" xmlns="http://www.w3.org/2000/svg" xmlns:xlink="http://www.w3.org/1999/xlink">
<g id="graph0" class="graph" transform="scale(1 1) rotate(0) translate(4 84)">
<title>internal::band_solve_triangular_selector&lt; Index, Mode, LhsScalar, ConjLhs, RhsScalar, RowMajor &gt;::run</title>
<!-- Node0 -->
<g id="node1" class="node"><title>Node0</title>
<polygon fill="#bfbfbf" stroke="black" points="0,-25 0,-77 194,-77 194,-25 0,-25"/>
<text text-anchor="start" x="8" y="-65" font-family="Helvetica,sans-Serif" font-size="10.00">internal::band_solve</text>
<text text-anchor="start" x="8" y="-54" font-family="Helvetica,sans-Serif" font-size="10.00">_triangular_selector</text>
<text text-anchor="start" x="8" y="-43" font-family="Helvetica,sans-Serif" font-size="10.00">&lt; Index, Mode, LhsScalar,</text>
<text text-anchor="middle" x="97" y="-32" font-family="Helvetica,sans-Serif" font-size="10.00"> ConjLhs, RhsScalar, RowMajor &gt;::run</text>
</g>
<!-- Node1 -->
<g id="node2" class="node"><title>Node1</title>
<g id="a_node2"><a xlink:href="MatrixBase__col_8cpp.html#aa168d9544aa6d49fce0cbfc0bec849b0" target="_top" xlink:title="col">
<polygon fill="none" stroke="black" points="248,-60.5 248,-79.5 278,-79.5 278,-60.5 248,-60.5"/>
<text text-anchor="middle" x="263" y="-67.5" font-family="Helvetica,sans-Serif" font-size="10.00">col</text>
</a>
</g>
</g>
<!-- Node0&#45;&gt;Node1 -->
<g id="edge1" class="edge"><title>Node0&#45;&gt;Node1</title>
<path fill="none" stroke="midnightblue" d="M194.348,-62.1623C210.469,-64.03 225.827,-65.8092 237.823,-67.199"/>
<polygon fill="midnightblue" stroke="midnightblue" points="237.484,-70.683 247.82,-68.3572 238.289,-63.7295 237.484,-70.683"/>
</g>
<!-- Node2 -->
<g id="node3" class="node"><title>Node2</title>
<g id="a_node3"><a xlink:href="namespacempfr.html#ae94ad8b45bc3c448549d7c094e7f24fd" target="_top" xlink:title="mpfr::sum">
<polygon fill="none" stroke="black" points="230,-22.5 230,-41.5 296,-41.5 296,-22.5 230,-22.5"/>
<text text-anchor="middle" x="263" y="-29.5" font-family="Helvetica,sans-Serif" font-size="10.00">mpfr::sum</text>
</a>
</g>
</g>
<!-- Node0&#45;&gt;Node2 -->
<g id="edge2" class="edge"><title>Node0&#45;&gt;Node2</title>
<path fill="none" stroke="midnightblue" d="M194.348,-39.8377C203.171,-38.8155 211.766,-37.8198 219.706,-36.9"/>
<polygon fill="midnightblue" stroke="midnightblue" points="220.2,-40.3662 229.73,-35.7386 219.394,-33.4127 220.2,-40.3662"/>
</g>
<!-- Node3 -->
<g id="node4" class="node"><title>Node3</title>
<g id="a_node4"><a xlink:href="classmpfr_1_1mpreal.html#a566f64ca066c54923d19c11d6c3d15cd" target="_top" xlink:title="mpfr::mpreal::mpfr\l_srcptr">
<polygon fill="none" stroke="black" points="341.5,-39 341.5,-69 448.5,-69 448.5,-39 341.5,-39"/>
<text text-anchor="start" x="349.5" y="-57" font-family="Helvetica,sans-Serif" font-size="10.00">mpfr::mpreal::mpfr</text>
<text text-anchor="middle" x="395" y="-46" font-family="Helvetica,sans-Serif" font-size="10.00">_srcptr</text>
</a>
</g>
</g>
<!-- Node2&#45;&gt;Node3 -->
<g id="edge3" class="edge"><title>Node2&#45;&gt;Node3</title>
<path fill="none" stroke="midnightblue" d="M296.135,-37.4382C306.826,-39.2474 319.126,-41.3291 331.318,-43.3923"/>
<polygon fill="midnightblue" stroke="midnightblue" points="331.052,-46.8969 341.496,-45.1147 332.22,-39.9951 331.052,-46.8969"/>
</g>
<!-- Node4 -->
<g id="node5" class="node"><title>Node4</title>
<g id="a_node5"><a xlink:href="classmpfr_1_1mpreal.html#af4e3b56888463376c675cac70b6ceca3" target="_top" xlink:title="mpfr::mpreal::mpfr_ptr">
<polygon fill="none" stroke="black" points="332,-0.5 332,-19.5 458,-19.5 458,-0.5 332,-0.5"/>
<text text-anchor="middle" x="395" y="-7.5" font-family="Helvetica,sans-Serif" font-size="10.00">mpfr::mpreal::mpfr_ptr</text>
</a>
</g>
</g>
<!-- Node2&#45;&gt;Node4 -->
<g id="edge4" class="edge"><title>Node2&#45;&gt;Node4</title>
<path fill="none" stroke="midnightblue" d="M296.135,-26.5618C305.748,-24.9349 316.664,-23.0877 327.631,-21.2317"/>
<polygon fill="midnightblue" stroke="midnightblue" points="328.406,-24.6504 337.682,-19.5308 327.238,-17.7485 328.406,-24.6504"/>
</g>
</g>
</svg>
