<?xml version="1.0" encoding="UTF-8" standalone="no"?>
<!DOCTYPE svg PUBLIC "-//W3C//DTD SVG 1.1//EN"
 "http://www.w3.org/Graphics/SVG/1.1/DTD/svg11.dtd">
<!-- Generated by graphviz version 2.38.0 (20140413.2041)
 -->
<!-- Title: Eigen::internal::generic_product_impl&lt; Lhs, Rhs, MatrixShape, TranspositionsShape, ProductTag &gt;::evalTo Pages: 1 -->
<svg width="518pt" height="61pt"
 viewBox="0.00 0.00 518.00 61.00" xmlns="http://www.w3.org/2000/svg" xmlns:xlink="http://www.w3.org/1999/xlink">
<g id="graph0" class="graph" transform="scale(1 1) rotate(0) translate(4 57)">
<title>Eigen::internal::generic_product_impl&lt; Lhs, Rhs, MatrixShape, TranspositionsShape, ProductTag &gt;::evalTo</title>
<!-- Node0 -->
<g id="node1" class="node"><title>Node0</title>
<polygon fill="#bfbfbf" stroke="black" points="0,-0.5 0,-52.5 187,-52.5 187,-0.5 0,-0.5"/>
<text text-anchor="start" x="8" y="-40.5" font-family="Helvetica,sans-Serif" font-size="10.00">Eigen::internal::generic</text>
<text text-anchor="start" x="8" y="-29.5" font-family="Helvetica,sans-Serif" font-size="10.00">_product_impl&lt; Lhs, Rhs,</text>
<text text-anchor="start" x="8" y="-18.5" font-family="Helvetica,sans-Serif" font-size="10.00"> MatrixShape, TranspositionsShape,</text>
<text text-anchor="middle" x="93.5" y="-7.5" font-family="Helvetica,sans-Serif" font-size="10.00"> ProductTag &gt;::evalTo</text>
</g>
<!-- Node1 -->
<g id="node2" class="node"><title>Node1</title>
<g id="a_node2"><a xlink:href="structEigen_1_1internal_1_1transposition__matrix__product.html#a35b39d1ac053d48b58de279b9256823c" target="_top" xlink:title="Eigen::internal::transposition\l_matrix_product::run">
<polygon fill="none" stroke="black" points="223,-11.5 223,-41.5 376,-41.5 376,-11.5 223,-11.5"/>
<text text-anchor="start" x="231" y="-29.5" font-family="Helvetica,sans-Serif" font-size="10.00">Eigen::internal::transposition</text>
<text text-anchor="middle" x="299.5" y="-18.5" font-family="Helvetica,sans-Serif" font-size="10.00">_matrix_product::run</text>
</a>
</g>
</g>
<!-- Node0&#45;&gt;Node1 -->
<g id="edge1" class="edge"><title>Node0&#45;&gt;Node1</title>
<path fill="none" stroke="midnightblue" d="M187.248,-26.5C195.703,-26.5 204.244,-26.5 212.636,-26.5"/>
<polygon fill="midnightblue" stroke="midnightblue" points="212.782,-30.0001 222.782,-26.5 212.782,-23.0001 212.782,-30.0001"/>
</g>
<!-- Node2 -->
<g id="node3" class="node"><title>Node2</title>
<g id="a_node3"><a xlink:href="namespaceEigen_1_1internal.html#ae3479b3708befc55b8b7bba82f95266f" target="_top" xlink:title="Eigen::internal::is\l_same_dense">
<polygon fill="none" stroke="black" points="412,-11.5 412,-41.5 510,-41.5 510,-11.5 412,-11.5"/>
<text text-anchor="start" x="420" y="-29.5" font-family="Helvetica,sans-Serif" font-size="10.00">Eigen::internal::is</text>
<text text-anchor="middle" x="461" y="-18.5" font-family="Helvetica,sans-Serif" font-size="10.00">_same_dense</text>
</a>
</g>
</g>
<!-- Node1&#45;&gt;Node2 -->
<g id="edge2" class="edge"><title>Node1&#45;&gt;Node2</title>
<path fill="none" stroke="midnightblue" d="M376.046,-26.5C384.538,-26.5 393.094,-26.5 401.328,-26.5"/>
<polygon fill="midnightblue" stroke="midnightblue" points="401.554,-30.0001 411.554,-26.5 401.554,-23.0001 401.554,-30.0001"/>
</g>
</g>
</svg>
