<?xml version="1.0" encoding="UTF-8" standalone="no"?>
<!DOCTYPE svg PUBLIC "-//W3C//DTD SVG 1.1//EN"
 "http://www.w3.org/Graphics/SVG/1.1/DTD/svg11.dtd">
<!-- Generated by graphviz version 2.38.0 (20140413.2041)
 -->
<!-- Title: Eigen::internal::matrix_exp_computeUV&lt; MatrixType, long double &gt;::run Pages: 1 -->
<svg width="494pt" height="400pt"
 viewBox="0.00 0.00 494.00 399.50" xmlns="http://www.w3.org/2000/svg" xmlns:xlink="http://www.w3.org/1999/xlink">
<g id="graph0" class="graph" transform="scale(1 1) rotate(0) translate(4 395.5)">
<title>Eigen::internal::matrix_exp_computeUV&lt; MatrixType, long double &gt;::run</title>
<!-- Node0 -->
<g id="node1" class="node"><title>Node0</title>
<polygon fill="#bfbfbf" stroke="black" points="0,-181 0,-222 166,-222 166,-181 0,-181"/>
<text text-anchor="start" x="8" y="-210" font-family="Helvetica,sans-Serif" font-size="10.00">Eigen::internal::matrix</text>
<text text-anchor="start" x="8" y="-199" font-family="Helvetica,sans-Serif" font-size="10.00">_exp_computeUV&lt; MatrixType,</text>
<text text-anchor="middle" x="83" y="-188" font-family="Helvetica,sans-Serif" font-size="10.00"> long double &gt;::run</text>
</g>
<!-- Node1 -->
<g id="node2" class="node"><title>Node1</title>
<g id="a_node2"><a xlink:href="Cwise__array__power__array_8cpp.html#aa9e3025f5efca2c2a39d785652f2d710" target="_top" xlink:title="e">
<polygon fill="none" stroke="black" points="248.5,-372 248.5,-391 277.5,-391 277.5,-372 248.5,-372"/>
<text text-anchor="middle" x="263" y="-379" font-family="Helvetica,sans-Serif" font-size="10.00">e</text>
</a>
</g>
</g>
<!-- Node0&#45;&gt;Node1 -->
<g id="edge1" class="edge"><title>Node0&#45;&gt;Node1</title>
<path fill="none" stroke="midnightblue" d="M93.6217,-222.049C110.656,-256.224 149.351,-324.715 202,-362.5 212.602,-370.109 226.372,-374.754 238.045,-377.544"/>
<polygon fill="midnightblue" stroke="midnightblue" points="237.523,-381.01 248.026,-379.617 238.947,-374.156 237.523,-381.01"/>
</g>
<!-- Node2 -->
<g id="node3" class="node"><title>Node2</title>
<g id="a_node3"><a xlink:href="namespacempfr.html#abdb6197c40bc63bf3ad4892d9608d052" target="_top" xlink:title="mpfr::frexp">
<polygon fill="none" stroke="black" points="228.5,-334 228.5,-353 297.5,-353 297.5,-334 228.5,-334"/>
<text text-anchor="middle" x="263" y="-341" font-family="Helvetica,sans-Serif" font-size="10.00">mpfr::frexp</text>
</a>
</g>
</g>
<!-- Node0&#45;&gt;Node2 -->
<g id="edge2" class="edge"><title>Node0&#45;&gt;Node2</title>
<path fill="none" stroke="midnightblue" d="M98.7572,-222.435C119.031,-249.715 158.026,-297.15 202,-324.5 207.112,-327.679 212.802,-330.37 218.586,-332.636"/>
<polygon fill="midnightblue" stroke="midnightblue" points="217.726,-336.043 228.32,-336.058 220.047,-329.439 217.726,-336.043"/>
</g>
<!-- Node5 -->
<g id="node6" class="node"><title>Node5</title>
<g id="a_node6"><a xlink:href="namespaceEigen_1_1internal.html#ae7d0962a143c96343984440db683905a" target="_top" xlink:title="Compute the (13,13)&#45;Padé approximant to the exponential. ">
<polygon fill="none" stroke="black" points="202,-137.5 202,-167.5 324,-167.5 324,-137.5 202,-137.5"/>
<text text-anchor="start" x="210" y="-155.5" font-family="Helvetica,sans-Serif" font-size="10.00">Eigen::internal::matrix</text>
<text text-anchor="middle" x="263" y="-144.5" font-family="Helvetica,sans-Serif" font-size="10.00">_exp_pade13</text>
</a>
</g>
</g>
<!-- Node0&#45;&gt;Node5 -->
<g id="edge5" class="edge"><title>Node0&#45;&gt;Node5</title>
<path fill="none" stroke="midnightblue" d="M158.714,-180.933C171.627,-177.378 184.951,-173.71 197.561,-170.239"/>
<polygon fill="midnightblue" stroke="midnightblue" points="198.788,-173.531 207.5,-167.503 196.93,-166.782 198.788,-173.531"/>
</g>
<!-- Node8 -->
<g id="node9" class="node"><title>Node8</title>
<g id="a_node9"><a xlink:href="namespaceEigen_1_1internal.html#a7e6cf2e01b6fb376d33b9bb8183e5777" target="_top" xlink:title="Compute the (3,3)&#45;Padé approximant to the exponential. ">
<polygon fill="none" stroke="black" points="202,-88.5 202,-118.5 324,-118.5 324,-88.5 202,-88.5"/>
<text text-anchor="start" x="210" y="-106.5" font-family="Helvetica,sans-Serif" font-size="10.00">Eigen::internal::matrix</text>
<text text-anchor="middle" x="263" y="-95.5" font-family="Helvetica,sans-Serif" font-size="10.00">_exp_pade3</text>
</a>
</g>
</g>
<!-- Node0&#45;&gt;Node8 -->
<g id="edge8" class="edge"><title>Node0&#45;&gt;Node8</title>
<path fill="none" stroke="midnightblue" d="M114.276,-180.907C137.663,-165.463 171.142,-144.346 202,-128.5 205.783,-126.557 209.753,-124.645 213.772,-122.795"/>
<polygon fill="midnightblue" stroke="midnightblue" points="215.462,-125.874 223.176,-118.611 212.617,-119.479 215.462,-125.874"/>
</g>
<!-- Node9 -->
<g id="node10" class="node"><title>Node9</title>
<g id="a_node10"><a xlink:href="namespaceEigen_1_1internal.html#af4992d182490219270a24aaa8285e63a" target="_top" xlink:title="Compute the (5,5)&#45;Padé approximant to the exponential. ">
<polygon fill="none" stroke="black" points="202,-284.5 202,-314.5 324,-314.5 324,-284.5 202,-284.5"/>
<text text-anchor="start" x="210" y="-302.5" font-family="Helvetica,sans-Serif" font-size="10.00">Eigen::internal::matrix</text>
<text text-anchor="middle" x="263" y="-291.5" font-family="Helvetica,sans-Serif" font-size="10.00">_exp_pade5</text>
</a>
</g>
</g>
<!-- Node0&#45;&gt;Node9 -->
<g id="edge11" class="edge"><title>Node0&#45;&gt;Node9</title>
<path fill="none" stroke="midnightblue" d="M113.687,-222.211C137.039,-237.981 170.744,-259.611 202,-275.5 205.294,-277.175 208.734,-278.816 212.227,-280.404"/>
<polygon fill="midnightblue" stroke="midnightblue" points="210.971,-283.675 221.536,-284.472 213.774,-277.26 210.971,-283.675"/>
</g>
<!-- Node10 -->
<g id="node11" class="node"><title>Node10</title>
<g id="a_node11"><a xlink:href="namespaceEigen_1_1internal.html#a1abecb439e6cb1b5188828cdb7e0ab60" target="_top" xlink:title="Compute the (7,7)&#45;Padé approximant to the exponential. ">
<polygon fill="none" stroke="black" points="202,-235.5 202,-265.5 324,-265.5 324,-235.5 202,-235.5"/>
<text text-anchor="start" x="210" y="-253.5" font-family="Helvetica,sans-Serif" font-size="10.00">Eigen::internal::matrix</text>
<text text-anchor="middle" x="263" y="-242.5" font-family="Helvetica,sans-Serif" font-size="10.00">_exp_pade7</text>
</a>
</g>
</g>
<!-- Node0&#45;&gt;Node10 -->
<g id="edge14" class="edge"><title>Node0&#45;&gt;Node10</title>
<path fill="none" stroke="midnightblue" d="M158.714,-222.067C171.627,-225.622 184.951,-229.29 197.561,-232.761"/>
<polygon fill="midnightblue" stroke="midnightblue" points="196.93,-236.218 207.5,-235.497 198.788,-229.469 196.93,-236.218"/>
</g>
<!-- Node11 -->
<g id="node12" class="node"><title>Node11</title>
<g id="a_node12"><a xlink:href="namespaceEigen_1_1internal.html#a218447e97bf869bf354f92e020a7355a" target="_top" xlink:title="Compute the (9,9)&#45;Padé approximant to the exponential. ">
<polygon fill="none" stroke="black" points="202,-186.5 202,-216.5 324,-216.5 324,-186.5 202,-186.5"/>
<text text-anchor="start" x="210" y="-204.5" font-family="Helvetica,sans-Serif" font-size="10.00">Eigen::internal::matrix</text>
<text text-anchor="middle" x="263" y="-193.5" font-family="Helvetica,sans-Serif" font-size="10.00">_exp_pade9</text>
</a>
</g>
</g>
<!-- Node0&#45;&gt;Node11 -->
<g id="edge17" class="edge"><title>Node0&#45;&gt;Node11</title>
<path fill="none" stroke="midnightblue" d="M166.227,-201.5C174.775,-201.5 183.407,-201.5 191.805,-201.5"/>
<polygon fill="midnightblue" stroke="midnightblue" points="191.912,-205 201.912,-201.5 191.912,-198 191.912,-205"/>
</g>
<!-- Node12 -->
<g id="node13" class="node"><title>Node12</title>
<g id="a_node13"><a xlink:href="namespaceEigen_1_1half__impl.html#a829ad00a9c93131d5a8342b4ee29d83d" target="_top" xlink:title="Eigen::half_impl::pow">
<polygon fill="none" stroke="black" points="205,-50 205,-69 321,-69 321,-50 205,-50"/>
<text text-anchor="middle" x="263" y="-57" font-family="Helvetica,sans-Serif" font-size="10.00">Eigen::half_impl::pow</text>
</a>
</g>
</g>
<!-- Node0&#45;&gt;Node12 -->
<g id="edge20" class="edge"><title>Node0&#45;&gt;Node12</title>
<path fill="none" stroke="midnightblue" d="M98.7572,-180.565C119.031,-153.285 158.026,-105.85 202,-78.5 205.349,-76.4171 208.946,-74.5439 212.655,-72.8626"/>
<polygon fill="midnightblue" stroke="midnightblue" points="214.071,-76.0653 222.027,-69.0686 211.445,-69.5768 214.071,-76.0653"/>
</g>
<!-- Node13 -->
<g id="node14" class="node"><title>Node13</title>
<g id="a_node14"><a xlink:href="structEigen_1_1internal_1_1matrix__exp__computeUV.html#a7847531ae0fccc8ec7648f95846c8adb" target="_top" xlink:title="Compute Padé approximant to the exponential. ">
<polygon fill="none" stroke="black" points="202,-0.5 202,-30.5 324,-30.5 324,-0.5 202,-0.5"/>
<text text-anchor="start" x="210" y="-18.5" font-family="Helvetica,sans-Serif" font-size="10.00">Eigen::internal::matrix</text>
<text text-anchor="middle" x="263" y="-7.5" font-family="Helvetica,sans-Serif" font-size="10.00">_exp_computeUV::run</text>
</a>
</g>
</g>
<!-- Node0&#45;&gt;Node13 -->
<g id="edge21" class="edge"><title>Node0&#45;&gt;Node13</title>
<path fill="none" stroke="midnightblue" d="M94.2795,-180.909C112.003,-147.286 151.339,-80.3532 202,-40.5 204.245,-38.7339 206.633,-37.0727 209.113,-35.5128"/>
<polygon fill="midnightblue" stroke="midnightblue" points="210.84,-38.5573 217.829,-30.5947 207.4,-32.4608 210.84,-38.5573"/>
</g>
<!-- Node3 -->
<g id="node4" class="node"><title>Node3</title>
<g id="a_node4"><a xlink:href="classmpfr_1_1mpreal.html#af4e3b56888463376c675cac70b6ceca3" target="_top" xlink:title="mpfr::mpreal::mpfr_ptr">
<polygon fill="none" stroke="black" points="360,-356 360,-375 486,-375 486,-356 360,-356"/>
<text text-anchor="middle" x="423" y="-363" font-family="Helvetica,sans-Serif" font-size="10.00">mpfr::mpreal::mpfr_ptr</text>
</a>
</g>
</g>
<!-- Node2&#45;&gt;Node3 -->
<g id="edge3" class="edge"><title>Node2&#45;&gt;Node3</title>
<path fill="none" stroke="midnightblue" d="M297.508,-348.166C312.794,-350.294 331.527,-352.903 349.775,-355.443"/>
<polygon fill="midnightblue" stroke="midnightblue" points="349.451,-358.932 359.838,-356.844 350.416,-351.999 349.451,-358.932"/>
</g>
<!-- Node4 -->
<g id="node5" class="node"><title>Node4</title>
<g id="a_node5"><a xlink:href="classmpfr_1_1mpreal.html#a566f64ca066c54923d19c11d6c3d15cd" target="_top" xlink:title="mpfr::mpreal::mpfr\l_srcptr">
<polygon fill="none" stroke="black" points="369.5,-306.5 369.5,-336.5 476.5,-336.5 476.5,-306.5 369.5,-306.5"/>
<text text-anchor="start" x="377.5" y="-324.5" font-family="Helvetica,sans-Serif" font-size="10.00">mpfr::mpreal::mpfr</text>
<text text-anchor="middle" x="423" y="-313.5" font-family="Helvetica,sans-Serif" font-size="10.00">_srcptr</text>
</a>
</g>
</g>
<!-- Node2&#45;&gt;Node4 -->
<g id="edge4" class="edge"><title>Node2&#45;&gt;Node4</title>
<path fill="none" stroke="midnightblue" d="M297.508,-338.834C315.412,-336.341 338.046,-333.19 359.09,-330.26"/>
<polygon fill="midnightblue" stroke="midnightblue" points="359.843,-333.689 369.265,-328.843 358.878,-326.756 359.843,-333.689"/>
</g>
<!-- Node6 -->
<g id="node7" class="node"><title>Node6</title>
<g id="a_node7"><a xlink:href="classEigen_1_1PlainObjectBase.html#a10b8b33b7587da564415561aa246f78f" target="_top" xlink:title="Eigen::PlainObjectBase\l::cols">
<polygon fill="none" stroke="black" points="360,-210.5 360,-240.5 486,-240.5 486,-210.5 360,-210.5"/>
<text text-anchor="start" x="368" y="-228.5" font-family="Helvetica,sans-Serif" font-size="10.00">Eigen::PlainObjectBase</text>
<text text-anchor="middle" x="423" y="-217.5" font-family="Helvetica,sans-Serif" font-size="10.00">::cols</text>
</a>
</g>
</g>
<!-- Node5&#45;&gt;Node6 -->
<g id="edge6" class="edge"><title>Node5&#45;&gt;Node6</title>
<path fill="none" stroke="midnightblue" d="M303.241,-167.564C310.265,-170.622 317.433,-173.986 324,-177.5 340.954,-186.574 342.932,-192.643 360,-201.5 363.266,-203.195 366.679,-204.839 370.153,-206.42"/>
<polygon fill="midnightblue" stroke="midnightblue" points="368.864,-209.676 379.431,-210.446 371.651,-203.255 368.864,-209.676"/>
</g>
<!-- Node7 -->
<g id="node8" class="node"><title>Node7</title>
<g id="a_node8"><a xlink:href="classEigen_1_1PlainObjectBase.html#aba7a925ce36c08ba2a08c90086f34718" target="_top" xlink:title="Eigen::PlainObjectBase\l::rows">
<polygon fill="none" stroke="black" points="360,-161.5 360,-191.5 486,-191.5 486,-161.5 360,-161.5"/>
<text text-anchor="start" x="368" y="-179.5" font-family="Helvetica,sans-Serif" font-size="10.00">Eigen::PlainObjectBase</text>
<text text-anchor="middle" x="423" y="-168.5" font-family="Helvetica,sans-Serif" font-size="10.00">::rows</text>
</a>
</g>
</g>
<!-- Node5&#45;&gt;Node7 -->
<g id="edge7" class="edge"><title>Node5&#45;&gt;Node7</title>
<path fill="none" stroke="midnightblue" d="M324.184,-161.642C332.583,-162.918 341.284,-164.239 349.875,-165.544"/>
<polygon fill="midnightblue" stroke="midnightblue" points="349.473,-169.023 359.886,-167.065 350.525,-162.103 349.473,-169.023"/>
</g>
<!-- Node8&#45;&gt;Node6 -->
<g id="edge9" class="edge"><title>Node8&#45;&gt;Node6</title>
<path fill="none" stroke="midnightblue" d="M310.036,-118.511C315.09,-121.332 319.886,-124.639 324,-128.5 350.377,-153.257 333.31,-177.081 360,-201.5 361.288,-202.678 362.64,-203.801 364.045,-204.871"/>
<polygon fill="midnightblue" stroke="midnightblue" points="362.286,-207.903 372.574,-210.436 366.111,-202.041 362.286,-207.903"/>
</g>
<!-- Node8&#45;&gt;Node7 -->
<g id="edge10" class="edge"><title>Node8&#45;&gt;Node7</title>
<path fill="none" stroke="midnightblue" d="M301.279,-118.621C308.836,-121.801 316.701,-125.196 324,-128.5 343.694,-137.416 365.302,-147.92 383.205,-156.826"/>
<polygon fill="midnightblue" stroke="midnightblue" points="381.69,-159.981 392.2,-161.32 384.819,-153.719 381.69,-159.981"/>
</g>
<!-- Node9&#45;&gt;Node6 -->
<g id="edge12" class="edge"><title>Node9&#45;&gt;Node6</title>
<path fill="none" stroke="midnightblue" d="M303.271,-284.39C310.223,-281.545 317.36,-278.514 324,-275.5 344.439,-266.222 366.763,-254.926 384.936,-245.419"/>
<polygon fill="midnightblue" stroke="midnightblue" points="386.811,-248.388 394.029,-240.632 383.55,-242.194 386.811,-248.388"/>
</g>
<!-- Node9&#45;&gt;Node7 -->
<g id="edge13" class="edge"><title>Node9&#45;&gt;Node7</title>
<path fill="none" stroke="midnightblue" d="M311.556,-284.472C316.053,-281.91 320.303,-278.939 324,-275.5 350.779,-250.589 333.255,-226.448 360,-201.5 361.655,-199.956 363.417,-198.503 365.262,-197.134"/>
<polygon fill="midnightblue" stroke="midnightblue" points="367.26,-200.011 373.789,-191.667 363.482,-194.118 367.26,-200.011"/>
</g>
<!-- Node10&#45;&gt;Node6 -->
<g id="edge15" class="edge"><title>Node10&#45;&gt;Node6</title>
<path fill="none" stroke="midnightblue" d="M324.184,-240.977C332.583,-239.648 341.284,-238.272 349.875,-236.912"/>
<polygon fill="midnightblue" stroke="midnightblue" points="350.555,-240.348 359.886,-235.328 349.461,-233.434 350.555,-240.348"/>
</g>
<!-- Node10&#45;&gt;Node7 -->
<g id="edge16" class="edge"><title>Node10&#45;&gt;Node7</title>
<path fill="none" stroke="midnightblue" d="M305.234,-235.447C311.628,-232.703 318.073,-229.69 324,-226.5 341.153,-217.268 342.86,-210.756 360,-201.5 363.676,-199.515 367.545,-197.593 371.479,-195.757"/>
<polygon fill="midnightblue" stroke="midnightblue" points="373.009,-198.907 380.717,-191.638 370.158,-192.514 373.009,-198.907"/>
</g>
<!-- Node11&#45;&gt;Node6 -->
<g id="edge18" class="edge"><title>Node11&#45;&gt;Node6</title>
<path fill="none" stroke="midnightblue" d="M324.184,-210.642C332.583,-211.918 341.284,-213.239 349.875,-214.544"/>
<polygon fill="midnightblue" stroke="midnightblue" points="349.473,-218.023 359.886,-216.065 350.525,-211.103 349.473,-218.023"/>
</g>
<!-- Node11&#45;&gt;Node7 -->
<g id="edge19" class="edge"><title>Node11&#45;&gt;Node7</title>
<path fill="none" stroke="midnightblue" d="M324.184,-191.977C332.583,-190.648 341.284,-189.272 349.875,-187.912"/>
<polygon fill="midnightblue" stroke="midnightblue" points="350.555,-191.348 359.886,-186.328 349.461,-184.434 350.555,-191.348"/>
</g>
</g>
</svg>
