<?xml version="1.0" encoding="UTF-8" standalone="no"?>
<!DOCTYPE svg PUBLIC "-//W3C//DTD SVG 1.1//EN"
 "http://www.w3.org/Graphics/SVG/1.1/DTD/svg11.dtd">
<!-- Generated by graphviz version 2.38.0 (20140413.2041)
 -->
<!-- Title: Eigen::TensorEvaluator&lt; const TensorAssignOp&lt; LeftArgType, RightArgType &gt;, Device &gt;::evalSubExprsIfNeeded Pages: 1 -->
<svg width="701pt" height="137pt"
 viewBox="0.00 0.00 701.00 137.00" xmlns="http://www.w3.org/2000/svg" xmlns:xlink="http://www.w3.org/1999/xlink">
<g id="graph0" class="graph" transform="scale(1 1) rotate(0) translate(4 133)">
<title>Eigen::TensorEvaluator&lt; const TensorAssignOp&lt; LeftArgType, RightArgType &gt;, Device &gt;::evalSubExprsIfNeeded</title>
<!-- Node16 -->
<g id="node1" class="node"><title>Node16</title>
<polygon fill="#bfbfbf" stroke="black" points="0,-38.5 0,-90.5 191,-90.5 191,-38.5 0,-38.5"/>
<text text-anchor="start" x="8" y="-78.5" font-family="Helvetica,sans-Serif" font-size="10.00">Eigen::TensorEvaluator</text>
<text text-anchor="start" x="8" y="-67.5" font-family="Helvetica,sans-Serif" font-size="10.00">&lt; const TensorAssignOp</text>
<text text-anchor="start" x="8" y="-56.5" font-family="Helvetica,sans-Serif" font-size="10.00">&lt; LeftArgType, RightArgType</text>
<text text-anchor="middle" x="95.5" y="-45.5" font-family="Helvetica,sans-Serif" font-size="10.00"> &gt;, Device &gt;::evalSubExprsIfNeeded</text>
</g>
<!-- Node17 -->
<g id="node2" class="node"><title>Node17</title>
<g id="a_node2"><a xlink:href="namespaceEigen.html#a607e3b444d5d3d8bf23c06cd0ffba625" target="_top" xlink:title="Eigen::dimensions_match">
<polygon fill="none" stroke="black" points="227,-55 227,-74 367,-74 367,-55 227,-55"/>
<text text-anchor="middle" x="297" y="-62" font-family="Helvetica,sans-Serif" font-size="10.00">Eigen::dimensions_match</text>
</a>
</g>
</g>
<!-- Node16&#45;&gt;Node17 -->
<g id="edge1" class="edge"><title>Node16&#45;&gt;Node17</title>
<path fill="none" stroke="midnightblue" d="M191.284,-64.5C199.789,-64.5 208.343,-64.5 216.697,-64.5"/>
<polygon fill="midnightblue" stroke="midnightblue" points="216.771,-68.0001 226.771,-64.5 216.771,-61.0001 216.771,-68.0001"/>
</g>
<!-- Node18 -->
<g id="node3" class="node"><title>Node18</title>
<g id="a_node3"><a xlink:href="namespaceEigen_1_1TensorSycl.html#a789ef14500d782279cc4bb95e6ba3dbd" target="_top" xlink:title="Eigen::TensorSycl::run">
<polygon fill="none" stroke="black" points="403,-55 403,-74 524,-74 524,-55 403,-55"/>
<text text-anchor="middle" x="463.5" y="-62" font-family="Helvetica,sans-Serif" font-size="10.00">Eigen::TensorSycl::run</text>
</a>
</g>
</g>
<!-- Node17&#45;&gt;Node18 -->
<g id="edge2" class="edge"><title>Node17&#45;&gt;Node18</title>
<path fill="none" stroke="midnightblue" d="M367.286,-64.5C375.713,-64.5 384.327,-64.5 392.761,-64.5"/>
<polygon fill="midnightblue" stroke="midnightblue" points="392.935,-68.0001 402.935,-64.5 392.935,-61.0001 392.935,-68.0001"/>
</g>
<!-- Node19 -->
<g id="node4" class="node"><title>Node19</title>
<g id="a_node4"><a xlink:href="structEigen_1_1TensorEvaluator.html#ae188d806978166eb8cbffbd63c944fb3" target="_top" xlink:title="Eigen::TensorEvaluator\l::evalSubExprsIfNeeded">
<polygon fill="none" stroke="black" points="561.5,-98.5 561.5,-128.5 691.5,-128.5 691.5,-98.5 561.5,-98.5"/>
<text text-anchor="start" x="569.5" y="-116.5" font-family="Helvetica,sans-Serif" font-size="10.00">Eigen::TensorEvaluator</text>
<text text-anchor="middle" x="626.5" y="-105.5" font-family="Helvetica,sans-Serif" font-size="10.00">::evalSubExprsIfNeeded</text>
</a>
</g>
</g>
<!-- Node18&#45;&gt;Node19 -->
<g id="edge3" class="edge"><title>Node18&#45;&gt;Node19</title>
<path fill="none" stroke="midnightblue" d="M495.925,-74.064C515.952,-80.1592 542.532,-88.2488 566.404,-95.5143"/>
<polygon fill="midnightblue" stroke="midnightblue" points="565.507,-98.8997 576.093,-98.463 567.545,-92.203 565.507,-98.8997"/>
</g>
<!-- Node20 -->
<g id="node5" class="node"><title>Node20</title>
<g id="a_node5"><a xlink:href="namespaceEigen_1_1TensorSycl_1_1internal.html#a525ee07cdeb68d18359b511b1ae9ffc7" target="_top" xlink:title="template deduction function for FunctorExtractor ">
<polygon fill="none" stroke="black" points="560,-49.5 560,-79.5 693,-79.5 693,-49.5 560,-49.5"/>
<text text-anchor="start" x="568" y="-67.5" font-family="Helvetica,sans-Serif" font-size="10.00">Eigen::TensorSycl::</text>
<text text-anchor="middle" x="626.5" y="-56.5" font-family="Helvetica,sans-Serif" font-size="10.00">internal::extractFunctors</text>
</a>
</g>
</g>
<!-- Node18&#45;&gt;Node20 -->
<g id="edge4" class="edge"><title>Node18&#45;&gt;Node20</title>
<path fill="none" stroke="midnightblue" d="M524.45,-64.5C532.65,-64.5 541.154,-64.5 549.59,-64.5"/>
<polygon fill="midnightblue" stroke="midnightblue" points="549.823,-68.0001 559.823,-64.5 549.823,-61.0001 549.823,-68.0001"/>
</g>
<!-- Node21 -->
<g id="node6" class="node"><title>Node21</title>
<g id="a_node6"><a xlink:href="structEigen_1_1TensorEvaluator.html#a76ec54bcca9523ec104aaa9adaf74983" target="_top" xlink:title="Eigen::TensorEvaluator\l::cleanup">
<polygon fill="none" stroke="black" points="564,-0.5 564,-30.5 689,-30.5 689,-0.5 564,-0.5"/>
<text text-anchor="start" x="572" y="-18.5" font-family="Helvetica,sans-Serif" font-size="10.00">Eigen::TensorEvaluator</text>
<text text-anchor="middle" x="626.5" y="-7.5" font-family="Helvetica,sans-Serif" font-size="10.00">::cleanup</text>
</a>
</g>
</g>
<!-- Node18&#45;&gt;Node21 -->
<g id="edge5" class="edge"><title>Node18&#45;&gt;Node21</title>
<path fill="none" stroke="midnightblue" d="M495.925,-54.936C515.952,-48.8408 542.532,-40.7512 566.404,-33.4857"/>
<polygon fill="midnightblue" stroke="midnightblue" points="567.545,-36.797 576.093,-30.537 565.507,-30.1003 567.545,-36.797"/>
</g>
</g>
</svg>
