<?xml version="1.0" encoding="UTF-8" standalone="no"?>
<!DOCTYPE svg PUBLIC "-//W3C//DTD SVG 1.1//EN"
 "http://www.w3.org/Graphics/SVG/1.1/DTD/svg11.dtd">
<!-- Generated by graphviz version 2.38.0 (20140413.2041)
 -->
<!-- Title: Eigen::internal::scalar_exp_op::packetOp Pages: 1 -->
<svg width="347pt" height="39pt"
 viewBox="0.00 0.00 347.00 39.00" xmlns="http://www.w3.org/2000/svg" xmlns:xlink="http://www.w3.org/1999/xlink">
<g id="graph0" class="graph" transform="scale(1 1) rotate(0) translate(4 35)">
<title>Eigen::internal::scalar_exp_op::packetOp</title>
<!-- Node3 -->
<g id="node1" class="node"><title>Node3</title>
<polygon fill="#bfbfbf" stroke="black" points="0,-0.5 0,-30.5 119,-30.5 119,-0.5 0,-0.5"/>
<text text-anchor="start" x="8" y="-18.5" font-family="Helvetica,sans-Serif" font-size="10.00">Eigen::internal::scalar</text>
<text text-anchor="middle" x="59.5" y="-7.5" font-family="Helvetica,sans-Serif" font-size="10.00">_exp_op::packetOp</text>
</g>
<!-- Node4 -->
<g id="node2" class="node"><title>Node4</title>
<g id="a_node2"><a xlink:href="namespaceEigen_1_1internal.html#a4e432b17ec36570c3588a088737da8b2" target="_top" xlink:title="Eigen::internal::pexp">
<polygon fill="none" stroke="black" points="155,-6 155,-25 269,-25 269,-6 155,-6"/>
<text text-anchor="middle" x="212" y="-13" font-family="Helvetica,sans-Serif" font-size="10.00">Eigen::internal::pexp</text>
</a>
</g>
</g>
<!-- Node3&#45;&gt;Node4 -->
<g id="edge1" class="edge"><title>Node3&#45;&gt;Node4</title>
<path fill="none" stroke="midnightblue" d="M119.118,-15.5C127.45,-15.5 136.069,-15.5 144.537,-15.5"/>
<polygon fill="midnightblue" stroke="midnightblue" points="144.762,-19.0001 154.762,-15.5 144.762,-12.0001 144.762,-19.0001"/>
</g>
<!-- Node5 -->
<g id="node3" class="node"><title>Node5</title>
<g id="a_node3"><a xlink:href="ArrayCwiseUnaryOps_8h.html#a2500b5d4f377a445cb98d3f1facfa1cf" target="_top" xlink:title="exp">
<polygon fill="none" stroke="black" points="305,-6 305,-25 339,-25 339,-6 305,-6"/>
<text text-anchor="middle" x="322" y="-13" font-family="Helvetica,sans-Serif" font-size="10.00">exp</text>
</a>
</g>
</g>
<!-- Node4&#45;&gt;Node5 -->
<g id="edge2" class="edge"><title>Node4&#45;&gt;Node5</title>
<path fill="none" stroke="midnightblue" d="M269.214,-15.5C278.132,-15.5 286.97,-15.5 294.752,-15.5"/>
<polygon fill="midnightblue" stroke="midnightblue" points="294.948,-19.0001 304.948,-15.5 294.948,-12.0001 294.948,-19.0001"/>
</g>
</g>
</svg>
