<?xml version="1.0" encoding="UTF-8" standalone="no"?>
<!DOCTYPE svg PUBLIC "-//W3C//DTD SVG 1.1//EN"
 "http://www.w3.org/Graphics/SVG/1.1/DTD/svg11.dtd">
<!-- Generated by graphviz version 2.38.0 (20140413.2041)
 -->
<!-- Title: Eigen::CommaInitializer&lt; XprType &gt; Pages: 1 -->
<svg width="235pt" height="139pt"
 viewBox="0.00 0.00 234.50 139.00" xmlns="http://www.w3.org/2000/svg" xmlns:xlink="http://www.w3.org/1999/xlink">
<g id="graph0" class="graph" transform="scale(1 1) rotate(0) translate(4 135)">
<title>Eigen::CommaInitializer&lt; XprType &gt;</title>
<!-- Node1 -->
<g id="node1" class="node"><title>Node1</title>
<polygon fill="#bfbfbf" stroke="black" points="26,-0.5 26,-30.5 155,-30.5 155,-0.5 26,-0.5"/>
<text text-anchor="start" x="34" y="-18.5" font-family="Helvetica,sans-Serif" font-size="10.00">Eigen::CommaInitializer</text>
<text text-anchor="middle" x="90.5" y="-7.5" font-family="Helvetica,sans-Serif" font-size="10.00">&lt; XprType &gt;</text>
</g>
<!-- Node2 -->
<g id="node2" class="node"><title>Node2</title>
<polygon fill="none" stroke="#bfbfbf" points="0,-106 0,-125 65,-125 65,-106 0,-106"/>
<text text-anchor="middle" x="32.5" y="-113" font-family="Helvetica,sans-Serif" font-size="10.00">XprType &amp;</text>
</g>
<!-- Node2&#45;&gt;Node1 -->
<g id="edge1" class="edge"><title>Node2&#45;&gt;Node1</title>
<path fill="none" stroke="#9a32cd" stroke-dasharray="5,2" d="M42.8517,-97.0092C54.0711,-78.0522 71.7571,-48.169 82.1331,-30.6372"/>
<polygon fill="#9a32cd" stroke="#9a32cd" points="39.7283,-95.4147 37.6471,-105.803 45.7524,-98.98 39.7283,-95.4147"/>
<text text-anchor="middle" x="87.5" y="-63" font-family="Helvetica,sans-Serif" font-size="10.00"> m_xpr</text>
</g>
<!-- Node3 -->
<g id="node3" class="node"><title>Node3</title>
<polygon fill="none" stroke="#bfbfbf" points="83,-100.5 83,-130.5 214,-130.5 214,-100.5 83,-100.5"/>
<text text-anchor="start" x="91" y="-118.5" font-family="Helvetica,sans-Serif" font-size="10.00">EIGEN_DEFAULT_DENSE</text>
<text text-anchor="middle" x="148.5" y="-107.5" font-family="Helvetica,sans-Serif" font-size="10.00">_INDEX_TYPE</text>
</g>
<!-- Node3&#45;&gt;Node1 -->
<g id="edge2" class="edge"><title>Node3&#45;&gt;Node1</title>
<path fill="none" stroke="#9a32cd" stroke-dasharray="5,2" d="M135.091,-91.8432C123.886,-72.9115 108.263,-46.5137 98.7946,-30.515"/>
<polygon fill="#9a32cd" stroke="#9a32cd" points="132.085,-93.6358 140.19,-100.459 138.109,-90.0706 132.085,-93.6358"/>
<text text-anchor="middle" x="177" y="-74" font-family="Helvetica,sans-Serif" font-size="10.00"> m_row</text>
<text text-anchor="middle" x="177" y="-63" font-family="Helvetica,sans-Serif" font-size="10.00">m_currentBlockRows</text>
<text text-anchor="middle" x="177" y="-52" font-family="Helvetica,sans-Serif" font-size="10.00">m_col</text>
</g>
</g>
</svg>
