<?xml version="1.0" encoding="UTF-8" standalone="no"?>
<!DOCTYPE svg PUBLIC "-//W3C//DTD SVG 1.1//EN"
 "http://www.w3.org/Graphics/SVG/1.1/DTD/svg11.dtd">
<!-- Generated by graphviz version 2.38.0 (20140413.2041)
 -->
<!-- Title: Eigen::internal::scalar_sqrt_op::packetOp Pages: 1 -->
<svg width="350pt" height="39pt"
 viewBox="0.00 0.00 350.00 39.00" xmlns="http://www.w3.org/2000/svg" xmlns:xlink="http://www.w3.org/1999/xlink">
<g id="graph0" class="graph" transform="scale(1 1) rotate(0) translate(4 35)">
<title>Eigen::internal::scalar_sqrt_op::packetOp</title>
<!-- Node4 -->
<g id="node1" class="node"><title>Node4</title>
<polygon fill="#bfbfbf" stroke="black" points="0,-0.5 0,-30.5 119,-30.5 119,-0.5 0,-0.5"/>
<text text-anchor="start" x="8" y="-18.5" font-family="Helvetica,sans-Serif" font-size="10.00">Eigen::internal::scalar</text>
<text text-anchor="middle" x="59.5" y="-7.5" font-family="Helvetica,sans-Serif" font-size="10.00">_sqrt_op::packetOp</text>
</g>
<!-- Node5 -->
<g id="node2" class="node"><title>Node5</title>
<g id="a_node2"><a xlink:href="namespaceEigen_1_1internal.html#a749f13785228504bff14b030f51319d7" target="_top" xlink:title="Eigen::internal::psqrt">
<polygon fill="none" stroke="black" points="155,-6 155,-25 271,-25 271,-6 155,-6"/>
<text text-anchor="middle" x="213" y="-13" font-family="Helvetica,sans-Serif" font-size="10.00">Eigen::internal::psqrt</text>
</a>
</g>
</g>
<!-- Node4&#45;&gt;Node5 -->
<g id="edge1" class="edge"><title>Node4&#45;&gt;Node5</title>
<path fill="none" stroke="midnightblue" d="M119.074,-15.5C127.361,-15.5 135.938,-15.5 144.379,-15.5"/>
<polygon fill="midnightblue" stroke="midnightblue" points="144.579,-19.0001 154.579,-15.5 144.579,-12.0001 144.579,-19.0001"/>
</g>
<!-- Node6 -->
<g id="node3" class="node"><title>Node6</title>
<g id="a_node3"><a xlink:href="ArrayCwiseUnaryOps_8h.html#a656b9217a2fcb6de59dc8d1eb3079cc7" target="_top" xlink:title="sqrt">
<polygon fill="none" stroke="black" points="307,-6 307,-25 342,-25 342,-6 307,-6"/>
<text text-anchor="middle" x="324.5" y="-13" font-family="Helvetica,sans-Serif" font-size="10.00">sqrt</text>
</a>
</g>
</g>
<!-- Node5&#45;&gt;Node6 -->
<g id="edge2" class="edge"><title>Node5&#45;&gt;Node6</title>
<path fill="none" stroke="midnightblue" d="M271.316,-15.5C280.179,-15.5 288.952,-15.5 296.703,-15.5"/>
<polygon fill="midnightblue" stroke="midnightblue" points="296.884,-19.0001 306.884,-15.5 296.884,-12.0001 296.884,-19.0001"/>
</g>
</g>
</svg>
