<?xml version="1.0" encoding="UTF-8" standalone="no"?>
<!DOCTYPE svg PUBLIC "-//W3C//DTD SVG 1.1//EN"
 "http://www.w3.org/Graphics/SVG/1.1/DTD/svg11.dtd">
<!-- Generated by graphviz version 2.38.0 (20140413.2041)
 -->
<!-- Title: Eigen::internal::generic_product_impl&lt; Transpose&lt; Lhs &gt;, Rhs, TranspositionsShape, MatrixShape, ProductTag &gt;::evalTo Pages: 1 -->
<svg width="517pt" height="88pt"
 viewBox="0.00 0.00 517.00 88.00" xmlns="http://www.w3.org/2000/svg" xmlns:xlink="http://www.w3.org/1999/xlink">
<g id="graph0" class="graph" transform="scale(1 1) rotate(0) translate(4 84)">
<title>Eigen::internal::generic_product_impl&lt; Transpose&lt; Lhs &gt;, Rhs, TranspositionsShape, MatrixShape, ProductTag &gt;::evalTo</title>
<!-- Node0 -->
<g id="node1" class="node"><title>Node0</title>
<polygon fill="#bfbfbf" stroke="black" points="0,-13.5 0,-65.5 186,-65.5 186,-13.5 0,-13.5"/>
<text text-anchor="start" x="8" y="-53.5" font-family="Helvetica,sans-Serif" font-size="10.00">Eigen::internal::generic</text>
<text text-anchor="start" x="8" y="-42.5" font-family="Helvetica,sans-Serif" font-size="10.00">_product_impl&lt; Transpose</text>
<text text-anchor="start" x="8" y="-31.5" font-family="Helvetica,sans-Serif" font-size="10.00">&lt; Lhs &gt;, Rhs, TranspositionsShape,</text>
<text text-anchor="middle" x="93" y="-20.5" font-family="Helvetica,sans-Serif" font-size="10.00"> MatrixShape, ProductTag &gt;::evalTo</text>
</g>
<!-- Node1 -->
<g id="node2" class="node"><title>Node1</title>
<g id="a_node2"><a xlink:href="classEigen_1_1Transpose.html#a72aefbf67f5e3caf62a99f73409b4a63" target="_top" xlink:title="Eigen::Transpose::nested\lExpression">
<polygon fill="none" stroke="black" points="230.5,-49.5 230.5,-79.5 366.5,-79.5 366.5,-49.5 230.5,-49.5"/>
<text text-anchor="start" x="238.5" y="-67.5" font-family="Helvetica,sans-Serif" font-size="10.00">Eigen::Transpose::nested</text>
<text text-anchor="middle" x="298.5" y="-56.5" font-family="Helvetica,sans-Serif" font-size="10.00">Expression</text>
</a>
</g>
</g>
<!-- Node0&#45;&gt;Node1 -->
<g id="edge1" class="edge"><title>Node0&#45;&gt;Node1</title>
<path fill="none" stroke="midnightblue" d="M186.223,-50.8297C197.576,-52.2243 209.088,-53.6386 220.188,-55.0022"/>
<polygon fill="midnightblue" stroke="midnightblue" points="219.897,-58.4927 230.25,-56.2383 220.751,-51.545 219.897,-58.4927"/>
</g>
<!-- Node2 -->
<g id="node3" class="node"><title>Node2</title>
<g id="a_node3"><a xlink:href="structEigen_1_1internal_1_1transposition__matrix__product.html#a35b39d1ac053d48b58de279b9256823c" target="_top" xlink:title="Eigen::internal::transposition\l_matrix_product::run">
<polygon fill="none" stroke="black" points="222,-0.5 222,-30.5 375,-30.5 375,-0.5 222,-0.5"/>
<text text-anchor="start" x="230" y="-18.5" font-family="Helvetica,sans-Serif" font-size="10.00">Eigen::internal::transposition</text>
<text text-anchor="middle" x="298.5" y="-7.5" font-family="Helvetica,sans-Serif" font-size="10.00">_matrix_product::run</text>
</a>
</g>
</g>
<!-- Node0&#45;&gt;Node2 -->
<g id="edge2" class="edge"><title>Node0&#45;&gt;Node2</title>
<path fill="none" stroke="midnightblue" d="M186.223,-28.6235C194.672,-27.6272 203.208,-26.6204 211.598,-25.631"/>
<polygon fill="midnightblue" stroke="midnightblue" points="212.221,-29.0818 221.742,-24.4346 211.401,-22.13 212.221,-29.0818"/>
</g>
<!-- Node3 -->
<g id="node4" class="node"><title>Node3</title>
<g id="a_node4"><a xlink:href="namespaceEigen_1_1internal.html#ae3479b3708befc55b8b7bba82f95266f" target="_top" xlink:title="Eigen::internal::is\l_same_dense">
<polygon fill="none" stroke="black" points="411,-0.5 411,-30.5 509,-30.5 509,-0.5 411,-0.5"/>
<text text-anchor="start" x="419" y="-18.5" font-family="Helvetica,sans-Serif" font-size="10.00">Eigen::internal::is</text>
<text text-anchor="middle" x="460" y="-7.5" font-family="Helvetica,sans-Serif" font-size="10.00">_same_dense</text>
</a>
</g>
</g>
<!-- Node2&#45;&gt;Node3 -->
<g id="edge3" class="edge"><title>Node2&#45;&gt;Node3</title>
<path fill="none" stroke="midnightblue" d="M375.046,-15.5C383.538,-15.5 392.094,-15.5 400.328,-15.5"/>
<polygon fill="midnightblue" stroke="midnightblue" points="400.554,-19.0001 410.554,-15.5 400.554,-12.0001 400.554,-19.0001"/>
</g>
</g>
</svg>
