<?xml version="1.0" encoding="UTF-8" standalone="no"?>
<!DOCTYPE svg PUBLIC "-//W3C//DTD SVG 1.1//EN"
 "http://www.w3.org/Graphics/SVG/1.1/DTD/svg11.dtd">
<!-- Generated by graphviz version 2.38.0 (20140413.2041)
 -->
<!-- Title: Eigen::internal::transform_construct_from_matrix&lt; Other, Mode, Options, Dim, HDim, Dim, HDim &gt;::run Pages: 1 -->
<svg width="676pt" height="137pt"
 viewBox="0.00 0.00 676.00 137.00" xmlns="http://www.w3.org/2000/svg" xmlns:xlink="http://www.w3.org/1999/xlink">
<g id="graph0" class="graph" transform="scale(1 1) rotate(0) translate(4 133)">
<title>Eigen::internal::transform_construct_from_matrix&lt; Other, Mode, Options, Dim, HDim, Dim, HDim &gt;::run</title>
<!-- Node0 -->
<g id="node1" class="node"><title>Node0</title>
<polygon fill="#bfbfbf" stroke="black" points="0,-19.5 0,-71.5 150,-71.5 150,-19.5 0,-19.5"/>
<text text-anchor="start" x="8" y="-59.5" font-family="Helvetica,sans-Serif" font-size="10.00">Eigen::internal::transform</text>
<text text-anchor="start" x="8" y="-48.5" font-family="Helvetica,sans-Serif" font-size="10.00">_construct_from_matrix&lt;</text>
<text text-anchor="start" x="8" y="-37.5" font-family="Helvetica,sans-Serif" font-size="10.00"> Other, Mode, Options, Dim,</text>
<text text-anchor="middle" x="75" y="-26.5" font-family="Helvetica,sans-Serif" font-size="10.00"> HDim, Dim, HDim &gt;::run</text>
</g>
<!-- Node1 -->
<g id="node2" class="node"><title>Node1</title>
<g id="a_node2"><a xlink:href="classEigen_1_1Transform.html#a88c996ca4cccf46ab4d520b7d99c332b" target="_top" xlink:title="Eigen::Transform::affine">
<polygon fill="none" stroke="black" points="200,-55 200,-74 328,-74 328,-55 200,-55"/>
<text text-anchor="middle" x="264" y="-62" font-family="Helvetica,sans-Serif" font-size="10.00">Eigen::Transform::affine</text>
</a>
</g>
</g>
<!-- Node0&#45;&gt;Node1 -->
<g id="edge1" class="edge"><title>Node0&#45;&gt;Node1</title>
<path fill="none" stroke="midnightblue" d="M150.176,-53.0366C163.13,-54.3528 176.602,-55.7216 189.537,-57.0358"/>
<polygon fill="midnightblue" stroke="midnightblue" points="189.473,-60.5473 199.775,-58.0761 190.18,-53.5831 189.473,-60.5473"/>
</g>
<!-- Node6 -->
<g id="node7" class="node"><title>Node6</title>
<g id="a_node7"><a xlink:href="classEigen_1_1Transform.html#a18580c6c151bac89f03818164dd19632" target="_top" xlink:title="Eigen::Transform::makeAffine">
<polygon fill="none" stroke="black" points="186,-17 186,-36 342,-36 342,-17 186,-17"/>
<text text-anchor="middle" x="264" y="-24" font-family="Helvetica,sans-Serif" font-size="10.00">Eigen::Transform::makeAffine</text>
</a>
</g>
</g>
<!-- Node0&#45;&gt;Node6 -->
<g id="edge6" class="edge"><title>Node0&#45;&gt;Node6</title>
<path fill="none" stroke="midnightblue" d="M150.176,-37.9634C158.604,-37.107 167.252,-36.2284 175.828,-35.357"/>
<polygon fill="midnightblue" stroke="midnightblue" points="176.251,-38.8322 185.846,-34.3392 175.543,-31.868 176.251,-38.8322"/>
</g>
<!-- Node2 -->
<g id="node3" class="node"><title>Node2</title>
<g id="a_node3"><a xlink:href="namespaceEigen_1_1TensorSycl.html#a789ef14500d782279cc4bb95e6ba3dbd" target="_top" xlink:title="Eigen::TensorSycl::run">
<polygon fill="none" stroke="black" points="378,-55 378,-74 499,-74 499,-55 378,-55"/>
<text text-anchor="middle" x="438.5" y="-62" font-family="Helvetica,sans-Serif" font-size="10.00">Eigen::TensorSycl::run</text>
</a>
</g>
</g>
<!-- Node1&#45;&gt;Node2 -->
<g id="edge2" class="edge"><title>Node1&#45;&gt;Node2</title>
<path fill="none" stroke="midnightblue" d="M328.253,-64.5C341.076,-64.5 354.63,-64.5 367.664,-64.5"/>
<polygon fill="midnightblue" stroke="midnightblue" points="367.982,-68.0001 377.982,-64.5 367.982,-61.0001 367.982,-68.0001"/>
</g>
<!-- Node3 -->
<g id="node4" class="node"><title>Node3</title>
<g id="a_node4"><a xlink:href="structEigen_1_1TensorEvaluator.html#ae188d806978166eb8cbffbd63c944fb3" target="_top" xlink:title="Eigen::TensorEvaluator\l::evalSubExprsIfNeeded">
<polygon fill="none" stroke="black" points="536.5,-98.5 536.5,-128.5 666.5,-128.5 666.5,-98.5 536.5,-98.5"/>
<text text-anchor="start" x="544.5" y="-116.5" font-family="Helvetica,sans-Serif" font-size="10.00">Eigen::TensorEvaluator</text>
<text text-anchor="middle" x="601.5" y="-105.5" font-family="Helvetica,sans-Serif" font-size="10.00">::evalSubExprsIfNeeded</text>
</a>
</g>
</g>
<!-- Node2&#45;&gt;Node3 -->
<g id="edge3" class="edge"><title>Node2&#45;&gt;Node3</title>
<path fill="none" stroke="midnightblue" d="M470.925,-74.064C490.952,-80.1592 517.532,-88.2488 541.404,-95.5143"/>
<polygon fill="midnightblue" stroke="midnightblue" points="540.507,-98.8997 551.093,-98.463 542.545,-92.203 540.507,-98.8997"/>
</g>
<!-- Node4 -->
<g id="node5" class="node"><title>Node4</title>
<g id="a_node5"><a xlink:href="namespaceEigen_1_1TensorSycl_1_1internal.html#a525ee07cdeb68d18359b511b1ae9ffc7" target="_top" xlink:title="template deduction function for FunctorExtractor ">
<polygon fill="none" stroke="black" points="535,-49.5 535,-79.5 668,-79.5 668,-49.5 535,-49.5"/>
<text text-anchor="start" x="543" y="-67.5" font-family="Helvetica,sans-Serif" font-size="10.00">Eigen::TensorSycl::</text>
<text text-anchor="middle" x="601.5" y="-56.5" font-family="Helvetica,sans-Serif" font-size="10.00">internal::extractFunctors</text>
</a>
</g>
</g>
<!-- Node2&#45;&gt;Node4 -->
<g id="edge4" class="edge"><title>Node2&#45;&gt;Node4</title>
<path fill="none" stroke="midnightblue" d="M499.45,-64.5C507.65,-64.5 516.154,-64.5 524.59,-64.5"/>
<polygon fill="midnightblue" stroke="midnightblue" points="524.823,-68.0001 534.823,-64.5 524.823,-61.0001 524.823,-68.0001"/>
</g>
<!-- Node5 -->
<g id="node6" class="node"><title>Node5</title>
<g id="a_node6"><a xlink:href="structEigen_1_1TensorEvaluator.html#a76ec54bcca9523ec104aaa9adaf74983" target="_top" xlink:title="Eigen::TensorEvaluator\l::cleanup">
<polygon fill="none" stroke="black" points="539,-0.5 539,-30.5 664,-30.5 664,-0.5 539,-0.5"/>
<text text-anchor="start" x="547" y="-18.5" font-family="Helvetica,sans-Serif" font-size="10.00">Eigen::TensorEvaluator</text>
<text text-anchor="middle" x="601.5" y="-7.5" font-family="Helvetica,sans-Serif" font-size="10.00">::cleanup</text>
</a>
</g>
</g>
<!-- Node2&#45;&gt;Node5 -->
<g id="edge5" class="edge"><title>Node2&#45;&gt;Node5</title>
<path fill="none" stroke="midnightblue" d="M470.925,-54.936C490.952,-48.8408 517.532,-40.7512 541.404,-33.4857"/>
<polygon fill="midnightblue" stroke="midnightblue" points="542.545,-36.797 551.093,-30.537 540.507,-30.1003 542.545,-36.797"/>
</g>
</g>
</svg>
