<?xml version="1.0" encoding="UTF-8" standalone="no"?>
<!DOCTYPE svg PUBLIC "-//W3C//DTD SVG 1.1//EN"
 "http://www.w3.org/Graphics/SVG/1.1/DTD/svg11.dtd">
<!-- Generated by graphviz version 2.38.0 (20140413.2041)
 -->
<!-- Title: Eigen::internal::bind2nd_op&lt; BinaryOp &gt; Pages: 1 -->
<svg width="216pt" height="106pt"
 viewBox="0.00 0.00 216.00 106.00" xmlns="http://www.w3.org/2000/svg" xmlns:xlink="http://www.w3.org/1999/xlink">
<g id="graph0" class="graph" transform="scale(1 1) rotate(0) translate(4 102)">
<title>Eigen::internal::bind2nd_op&lt; BinaryOp &gt;</title>
<!-- Node2 -->
<g id="node1" class="node"><title>Node2</title>
<polygon fill="#bfbfbf" stroke="black" points="21.5,-0.5 21.5,-30.5 150.5,-30.5 150.5,-0.5 21.5,-0.5"/>
<text text-anchor="start" x="29.5" y="-18.5" font-family="Helvetica,sans-Serif" font-size="10.00">Eigen::internal::bind2nd</text>
<text text-anchor="middle" x="86" y="-7.5" font-family="Helvetica,sans-Serif" font-size="10.00">_op&lt; BinaryOp &gt;</text>
</g>
<!-- Node3 -->
<g id="node2" class="node"><title>Node3</title>
<g id="a_node2"><a xlink:href="classBinaryOp.html" target="_top" xlink:title="BinaryOp">
<polygon fill="none" stroke="black" points="0,-78.5 0,-97.5 60,-97.5 60,-78.5 0,-78.5"/>
<text text-anchor="middle" x="30" y="-85.5" font-family="Helvetica,sans-Serif" font-size="10.00">BinaryOp</text>
</a>
</g>
</g>
<!-- Node3&#45;&gt;Node2 -->
<g id="edge1" class="edge"><title>Node3&#45;&gt;Node2</title>
<path fill="none" stroke="midnightblue" d="M43.1916,-70.3927C52.8109,-58.2828 65.7039,-42.0514 74.8189,-30.5762"/>
<polygon fill="midnightblue" stroke="midnightblue" points="40.3459,-68.348 36.8667,-78.3553 45.8272,-72.7019 40.3459,-68.348"/>
</g>
<!-- Node4 -->
<g id="node3" class="node"><title>Node4</title>
<polygon fill="none" stroke="#bfbfbf" points="78,-78.5 78,-97.5 208,-97.5 208,-78.5 78,-78.5"/>
<text text-anchor="middle" x="143" y="-85.5" font-family="Helvetica,sans-Serif" font-size="10.00">second_argument_type</text>
</g>
<!-- Node4&#45;&gt;Node2 -->
<g id="edge2" class="edge"><title>Node4&#45;&gt;Node2</title>
<path fill="none" stroke="#9a32cd" stroke-dasharray="5,2" d="M129.573,-70.3927C119.782,-58.2828 106.659,-42.0514 97.3807,-30.5762"/>
<polygon fill="#9a32cd" stroke="#9a32cd" points="127.002,-72.7795 136.011,-78.3553 132.445,-68.3785 127.002,-72.7795"/>
<text text-anchor="middle" x="141" y="-52" font-family="Helvetica,sans-Serif" font-size="10.00"> m_value</text>
</g>
</g>
</svg>
