<?xml version="1.0" encoding="UTF-8" standalone="no"?>
<!DOCTYPE svg PUBLIC "-//W3C//DTD SVG 1.1//EN"
 "http://www.w3.org/Graphics/SVG/1.1/DTD/svg11.dtd">
<!-- Generated by graphviz version 2.38.0 (20140413.2041)
 -->
<!-- Title: Eigen::EigenBase::rows Pages: 1 -->
<svg width="554pt" height="1090pt"
 viewBox="0.00 0.00 554.00 1089.50" xmlns="http://www.w3.org/2000/svg" xmlns:xlink="http://www.w3.org/1999/xlink">
<g id="graph0" class="graph" transform="scale(1 1) rotate(0) translate(4 1085.5)">
<title>Eigen::EigenBase::rows</title>
<!-- Node119 -->
<g id="node1" class="node"><title>Node119</title>
<polygon fill="#bfbfbf" stroke="black" points="0,-553.5 0,-572.5 127,-572.5 127,-553.5 0,-553.5"/>
<text text-anchor="middle" x="63.5" y="-560.5" font-family="Helvetica,sans-Serif" font-size="10.00">Eigen::EigenBase::rows</text>
</g>
<!-- Node120 -->
<g id="node2" class="node"><title>Node120</title>
<g id="a_node2"><a xlink:href="classEigen_1_1PlainObjectBase.html#ac61a071ebfe1068ff76095b617a35e93" target="_top" xlink:title="Eigen::PlainObjectBase\l\&lt; Matrix\&lt; _Scalar, _Rows,\l _Cols, _Options, _MaxRows,\l _MaxCols \&gt; \&gt;::_resize_to_match">
<polygon fill="none" stroke="black" points="186.5,-1029 186.5,-1081 364.5,-1081 364.5,-1029 186.5,-1029"/>
<text text-anchor="start" x="194.5" y="-1069" font-family="Helvetica,sans-Serif" font-size="10.00">Eigen::PlainObjectBase</text>
<text text-anchor="start" x="194.5" y="-1058" font-family="Helvetica,sans-Serif" font-size="10.00">&lt; Matrix&lt; _Scalar, _Rows,</text>
<text text-anchor="start" x="194.5" y="-1047" font-family="Helvetica,sans-Serif" font-size="10.00"> _Cols, _Options, _MaxRows,</text>
<text text-anchor="middle" x="275.5" y="-1036" font-family="Helvetica,sans-Serif" font-size="10.00"> _MaxCols &gt; &gt;::_resize_to_match</text>
</a>
</g>
</g>
<!-- Node119&#45;&gt;Node120 -->
<g id="edge1" class="edge"><title>Node119&#45;&gt;Node120</title>
<path fill="none" stroke="midnightblue" d="M66.1642,-582.953C73.1605,-662.23 102.659,-953.844 163,-1020 169.563,-1027.2 177.584,-1032.92 186.287,-1037.48"/>
<polygon fill="midnightblue" stroke="midnightblue" points="69.6393,-582.512 65.2943,-572.849 62.6651,-583.112 69.6393,-582.512"/>
</g>
<!-- Node121 -->
<g id="node3" class="node"><title>Node121</title>
<g id="a_node3"><a xlink:href="structEigen_1_1EigenBase.html#ad4300dbb47b34596d8ce6b2361c07b52" target="_top" xlink:title="Eigen::EigenBase\&lt; Matrix\lReplacement \&gt;::addTo">
<polygon fill="none" stroke="black" points="205.5,-980 205.5,-1010 345.5,-1010 345.5,-980 205.5,-980"/>
<text text-anchor="start" x="213.5" y="-998" font-family="Helvetica,sans-Serif" font-size="10.00">Eigen::EigenBase&lt; Matrix</text>
<text text-anchor="middle" x="275.5" y="-987" font-family="Helvetica,sans-Serif" font-size="10.00">Replacement &gt;::addTo</text>
</a>
</g>
</g>
<!-- Node119&#45;&gt;Node121 -->
<g id="edge2" class="edge"><title>Node119&#45;&gt;Node121</title>
<path fill="none" stroke="midnightblue" d="M66.5433,-582.757C74.5664,-656.496 106.29,-914.239 163,-970 174.458,-981.266 189.828,-987.906 205.487,-991.719"/>
<polygon fill="midnightblue" stroke="midnightblue" points="69.997,-582.135 65.4589,-572.562 63.0362,-582.876 69.997,-582.135"/>
</g>
<!-- Node122 -->
<g id="node4" class="node"><title>Node122</title>
<g id="a_node4"><a xlink:href="classEigen_1_1internal_1_1BandMatrixBase.html#aca78a4990b6827b0b3086e28e6ae4257" target="_top" xlink:title="Eigen::internal::BandMatrix\lBase\&lt; BandMatrixWrapper\l\&lt; _CoefficientsType, _Rows,\l _Cols, _Supers, _Subs, _Options\l \&gt; \&gt;::col">
<polygon fill="none" stroke="black" points="189,-897.5 189,-960.5 362,-960.5 362,-897.5 189,-897.5"/>
<text text-anchor="start" x="197" y="-948.5" font-family="Helvetica,sans-Serif" font-size="10.00">Eigen::internal::BandMatrix</text>
<text text-anchor="start" x="197" y="-937.5" font-family="Helvetica,sans-Serif" font-size="10.00">Base&lt; BandMatrixWrapper</text>
<text text-anchor="start" x="197" y="-926.5" font-family="Helvetica,sans-Serif" font-size="10.00">&lt; _CoefficientsType, _Rows,</text>
<text text-anchor="start" x="197" y="-915.5" font-family="Helvetica,sans-Serif" font-size="10.00"> _Cols, _Supers, _Subs, _Options</text>
<text text-anchor="middle" x="275.5" y="-904.5" font-family="Helvetica,sans-Serif" font-size="10.00"> &gt; &gt;::col</text>
</a>
</g>
</g>
<!-- Node119&#45;&gt;Node122 -->
<g id="edge3" class="edge"><title>Node119&#45;&gt;Node122</title>
<path fill="none" stroke="midnightblue" d="M64.698,-583.053C66.3368,-638.995 78.574,-798.522 163,-888 170.36,-895.801 179.331,-902.124 188.954,-907.248"/>
<polygon fill="midnightblue" stroke="midnightblue" points="68.1912,-582.676 64.4871,-572.75 61.1926,-582.82 68.1912,-582.676"/>
</g>
<!-- Node123 -->
<g id="node5" class="node"><title>Node123</title>
<g id="a_node5"><a xlink:href="classEigen_1_1HessenbergDecomposition.html#a239a6fd42c57aab3c0b048c47fde3004" target="_top" xlink:title="Computes Hessenberg decomposition of given matrix. ">
<polygon fill="none" stroke="black" points="186,-848 186,-878 365,-878 365,-848 186,-848"/>
<text text-anchor="start" x="194" y="-866" font-family="Helvetica,sans-Serif" font-size="10.00">Eigen::HessenbergDecomposition</text>
<text text-anchor="middle" x="275.5" y="-855" font-family="Helvetica,sans-Serif" font-size="10.00">&lt; MatrixType &gt;::compute</text>
</a>
</g>
</g>
<!-- Node119&#45;&gt;Node123 -->
<g id="edge4" class="edge"><title>Node119&#45;&gt;Node123</title>
<path fill="none" stroke="midnightblue" d="M65.311,-582.94C68.5184,-633.96 84.4006,-770.062 163,-839 169.699,-844.875 177.488,-849.427 185.777,-852.938"/>
<polygon fill="midnightblue" stroke="midnightblue" points="68.7896,-582.44 64.7685,-572.638 61.7993,-582.808 68.7896,-582.44"/>
</g>
<!-- Node124 -->
<g id="node6" class="node"><title>Node124</title>
<g id="a_node6"><a xlink:href="classEigen_1_1Tridiagonalization.html#acd288abb081d3b40b87e4b98cd8f6ee9" target="_top" xlink:title="Computes tridiagonal decomposition of given matrix. ">
<polygon fill="none" stroke="black" points="210,-799 210,-829 341,-829 341,-799 210,-799"/>
<text text-anchor="start" x="218" y="-817" font-family="Helvetica,sans-Serif" font-size="10.00">Eigen::Tridiagonalization</text>
<text text-anchor="middle" x="275.5" y="-806" font-family="Helvetica,sans-Serif" font-size="10.00">::compute</text>
</a>
</g>
</g>
<!-- Node119&#45;&gt;Node124 -->
<g id="edge5" class="edge"><title>Node119&#45;&gt;Node124</title>
<path fill="none" stroke="midnightblue" d="M66.9847,-582.653C73.6873,-627.032 96.3742,-735.38 163,-790 176.169,-800.796 193.073,-807.047 209.717,-810.588"/>
<polygon fill="midnightblue" stroke="midnightblue" points="70.4296,-582.015 65.5792,-572.595 63.497,-582.984 70.4296,-582.015"/>
</g>
<!-- Node126 -->
<g id="node8" class="node"><title>Node126</title>
<g id="a_node8"><a xlink:href="classEigen_1_1RealSchur.html#aa6d762f59f27cfbe33db709a2e0a2ba1" target="_top" xlink:title="Eigen::RealSchur\&lt; Matrix\lType \&gt;::compute">
<polygon fill="none" stroke="black" points="207,-750 207,-780 344,-780 344,-750 207,-750"/>
<text text-anchor="start" x="215" y="-768" font-family="Helvetica,sans-Serif" font-size="10.00">Eigen::RealSchur&lt; Matrix</text>
<text text-anchor="middle" x="275.5" y="-757" font-family="Helvetica,sans-Serif" font-size="10.00">Type &gt;::compute</text>
</a>
</g>
</g>
<!-- Node119&#45;&gt;Node126 -->
<g id="edge7" class="edge"><title>Node119&#45;&gt;Node126</title>
<path fill="none" stroke="midnightblue" d="M69.5115,-582.633C80.0694,-619.803 108.263,-700.357 163,-741 175.718,-750.443 191.376,-756.328 206.895,-759.957"/>
<polygon fill="midnightblue" stroke="midnightblue" points="72.7824,-581.321 66.7913,-572.583 66.0255,-583.15 72.7824,-581.321"/>
</g>
<!-- Node127 -->
<g id="node9" class="node"><title>Node127</title>
<g id="a_node9"><a xlink:href="classEigen_1_1ComplexEigenSolver.html#a077a28fcef2f7eecb6041380cfcd83fd" target="_top" xlink:title="Eigen::ComplexEigenSolver\l::compute">
<polygon fill="none" stroke="black" points="202,-701 202,-731 349,-731 349,-701 202,-701"/>
<text text-anchor="start" x="210" y="-719" font-family="Helvetica,sans-Serif" font-size="10.00">Eigen::ComplexEigenSolver</text>
<text text-anchor="middle" x="275.5" y="-708" font-family="Helvetica,sans-Serif" font-size="10.00">::compute</text>
</a>
</g>
</g>
<!-- Node119&#45;&gt;Node127 -->
<g id="edge8" class="edge"><title>Node119&#45;&gt;Node127</title>
<path fill="none" stroke="midnightblue" d="M73.4391,-581.946C87.9793,-610.576 119.558,-664.44 163,-692 174.704,-699.425 188.344,-704.584 201.986,-708.161"/>
<polygon fill="midnightblue" stroke="midnightblue" points="76.4149,-580.065 68.8626,-572.635 70.1328,-583.153 76.4149,-580.065"/>
</g>
<!-- Node128 -->
<g id="node10" class="node"><title>Node128</title>
<g id="a_node10"><a xlink:href="classEigen_1_1ComplexSchur.html#aeaf9ab3a08a463b865a9ac64d2cea592" target="_top" xlink:title="Eigen::ComplexSchur\l\&lt; MatrixType \&gt;::compute">
<polygon fill="none" stroke="black" points="206.5,-652 206.5,-682 344.5,-682 344.5,-652 206.5,-652"/>
<text text-anchor="start" x="214.5" y="-670" font-family="Helvetica,sans-Serif" font-size="10.00">Eigen::ComplexSchur</text>
<text text-anchor="middle" x="275.5" y="-659" font-family="Helvetica,sans-Serif" font-size="10.00">&lt; MatrixType &gt;::compute</text>
</a>
</g>
</g>
<!-- Node119&#45;&gt;Node128 -->
<g id="edge9" class="edge"><title>Node119&#45;&gt;Node128</title>
<path fill="none" stroke="midnightblue" d="M81.0016,-580.272C99.3277,-598.414 130.621,-626.428 163,-642 176.409,-648.449 191.531,-653.264 206.212,-656.851"/>
<polygon fill="midnightblue" stroke="midnightblue" points="83.0532,-577.368 73.5367,-572.711 78.072,-582.286 83.0532,-577.368"/>
</g>
<!-- Node129 -->
<g id="node11" class="node"><title>Node129</title>
<g id="a_node11"><a xlink:href="classEigen_1_1EigenSolver.html#a99e6120839b1f65c4e1f1ba61efa264e" target="_top" xlink:title="Eigen::EigenSolver\l\&lt; CompanionMatrixType\l \&gt;::compute">
<polygon fill="none" stroke="black" points="209,-591.5 209,-632.5 342,-632.5 342,-591.5 209,-591.5"/>
<text text-anchor="start" x="217" y="-620.5" font-family="Helvetica,sans-Serif" font-size="10.00">Eigen::EigenSolver</text>
<text text-anchor="start" x="217" y="-609.5" font-family="Helvetica,sans-Serif" font-size="10.00">&lt; CompanionMatrixType</text>
<text text-anchor="middle" x="275.5" y="-598.5" font-family="Helvetica,sans-Serif" font-size="10.00"> &gt;::compute</text>
</a>
</g>
</g>
<!-- Node119&#45;&gt;Node129 -->
<g id="edge10" class="edge"><title>Node119&#45;&gt;Node129</title>
<path fill="none" stroke="midnightblue" d="M115.235,-574.838C143.303,-581.387 178.506,-589.601 208.672,-596.64"/>
<polygon fill="midnightblue" stroke="midnightblue" points="115.773,-571.37 105.239,-572.506 114.182,-578.187 115.773,-571.37"/>
</g>
<!-- Node130 -->
<g id="node12" class="node"><title>Node130</title>
<g id="a_node12"><a xlink:href="classEigen_1_1LLT.html#aecb45daf711328e0804f272131142b57" target="_top" xlink:title="Eigen::LLT::compute">
<polygon fill="none" stroke="black" points="220,-553.5 220,-572.5 331,-572.5 331,-553.5 220,-553.5"/>
<text text-anchor="middle" x="275.5" y="-560.5" font-family="Helvetica,sans-Serif" font-size="10.00">Eigen::LLT::compute</text>
</a>
</g>
</g>
<!-- Node119&#45;&gt;Node130 -->
<g id="edge11" class="edge"><title>Node119&#45;&gt;Node130</title>
<path fill="none" stroke="midnightblue" d="M137.433,-563C164.521,-563 194.758,-563 219.927,-563"/>
<polygon fill="midnightblue" stroke="midnightblue" points="137.223,-559.5 127.222,-563 137.222,-566.5 137.223,-559.5"/>
</g>
<!-- Node131 -->
<g id="node13" class="node"><title>Node131</title>
<g id="a_node13"><a xlink:href="classEigen_1_1LDLT.html#a1777488d0bde83d5f23a622bf8431ef2" target="_top" xlink:title="Eigen::LDLT::compute">
<polygon fill="none" stroke="black" points="216,-515.5 216,-534.5 335,-534.5 335,-515.5 216,-515.5"/>
<text text-anchor="middle" x="275.5" y="-522.5" font-family="Helvetica,sans-Serif" font-size="10.00">Eigen::LDLT::compute</text>
</a>
</g>
</g>
<!-- Node119&#45;&gt;Node131 -->
<g id="edge12" class="edge"><title>Node119&#45;&gt;Node131</title>
<path fill="none" stroke="midnightblue" d="M122.743,-551.548C135.968,-549.008 149.96,-546.368 163,-544 180.582,-540.807 199.753,-537.483 217.162,-534.525"/>
<polygon fill="midnightblue" stroke="midnightblue" points="121.963,-548.133 112.807,-553.464 123.289,-555.007 121.963,-548.133"/>
</g>
<!-- Node132 -->
<g id="node14" class="node"><title>Node132</title>
<g id="a_node14"><a xlink:href="classEigen_1_1internal_1_1BandMatrixBase.html#abce1c4d69e72ec594f67a841d1040606" target="_top" xlink:title="Eigen::internal::BandMatrix\lBase\&lt; BandMatrixWrapper\l\&lt; _CoefficientsType, _Rows,\l _Cols, _Supers, _Subs, _Options\l \&gt; \&gt;::diagonal">
<polygon fill="none" stroke="black" points="189,-433.5 189,-496.5 362,-496.5 362,-433.5 189,-433.5"/>
<text text-anchor="start" x="197" y="-484.5" font-family="Helvetica,sans-Serif" font-size="10.00">Eigen::internal::BandMatrix</text>
<text text-anchor="start" x="197" y="-473.5" font-family="Helvetica,sans-Serif" font-size="10.00">Base&lt; BandMatrixWrapper</text>
<text text-anchor="start" x="197" y="-462.5" font-family="Helvetica,sans-Serif" font-size="10.00">&lt; _CoefficientsType, _Rows,</text>
<text text-anchor="start" x="197" y="-451.5" font-family="Helvetica,sans-Serif" font-size="10.00"> _Cols, _Supers, _Subs, _Options</text>
<text text-anchor="middle" x="275.5" y="-440.5" font-family="Helvetica,sans-Serif" font-size="10.00"> &gt; &gt;::diagonal</text>
</a>
</g>
</g>
<!-- Node119&#45;&gt;Node132 -->
<g id="edge13" class="edge"><title>Node119&#45;&gt;Node132</title>
<path fill="none" stroke="midnightblue" d="M87.6326,-548.087C107.216,-535.838 136.284,-518.528 163,-506 171.31,-502.103 180.1,-498.322 188.952,-494.735"/>
<polygon fill="midnightblue" stroke="midnightblue" points="85.6724,-545.185 79.0891,-553.486 89.4122,-551.103 85.6724,-545.185"/>
</g>
<!-- Node133 -->
<g id="node15" class="node"><title>Node133</title>
<g id="a_node15"><a xlink:href="classEigen_1_1internal_1_1BandMatrixBase.html#a591e1a809bd6957740356a962f922626" target="_top" xlink:title="Eigen::internal::BandMatrix\lBase\&lt; BandMatrixWrapper\l\&lt; _CoefficientsType, _Rows,\l _Cols, _Supers, _Subs, _Options\l \&gt; \&gt;::diagonalLength">
<polygon fill="none" stroke="black" points="189,-351.5 189,-414.5 362,-414.5 362,-351.5 189,-351.5"/>
<text text-anchor="start" x="197" y="-402.5" font-family="Helvetica,sans-Serif" font-size="10.00">Eigen::internal::BandMatrix</text>
<text text-anchor="start" x="197" y="-391.5" font-family="Helvetica,sans-Serif" font-size="10.00">Base&lt; BandMatrixWrapper</text>
<text text-anchor="start" x="197" y="-380.5" font-family="Helvetica,sans-Serif" font-size="10.00">&lt; _CoefficientsType, _Rows,</text>
<text text-anchor="start" x="197" y="-369.5" font-family="Helvetica,sans-Serif" font-size="10.00"> _Cols, _Supers, _Subs, _Options</text>
<text text-anchor="middle" x="275.5" y="-358.5" font-family="Helvetica,sans-Serif" font-size="10.00"> &gt; &gt;::diagonalLength</text>
</a>
</g>
</g>
<!-- Node119&#45;&gt;Node133 -->
<g id="edge14" class="edge"><title>Node119&#45;&gt;Node133</title>
<path fill="none" stroke="midnightblue" d="M73.1721,-544.181C87.7119,-514.585 119.722,-457.128 163,-424 170.861,-417.982 179.694,-412.78 188.859,-408.299"/>
<polygon fill="midnightblue" stroke="midnightblue" points="69.9196,-542.87 68.7679,-553.402 76.2361,-545.887 69.9196,-542.87"/>
</g>
<!-- Node134 -->
<g id="node16" class="node"><title>Node134</title>
<g id="a_node16"><a xlink:href="classEigen_1_1internal_1_1BandMatrixBase.html#a48c573fc9b58a2d4dd0741b284124a64" target="_top" xlink:title="Eigen::internal::BandMatrix\lBase\&lt; BandMatrixWrapper\l\&lt; _CoefficientsType, _Rows,\l _Cols, _Supers, _Subs, _Options\l \&gt; \&gt;::evalTo">
<polygon fill="none" stroke="black" points="189,-269.5 189,-332.5 362,-332.5 362,-269.5 189,-269.5"/>
<text text-anchor="start" x="197" y="-320.5" font-family="Helvetica,sans-Serif" font-size="10.00">Eigen::internal::BandMatrix</text>
<text text-anchor="start" x="197" y="-309.5" font-family="Helvetica,sans-Serif" font-size="10.00">Base&lt; BandMatrixWrapper</text>
<text text-anchor="start" x="197" y="-298.5" font-family="Helvetica,sans-Serif" font-size="10.00">&lt; _CoefficientsType, _Rows,</text>
<text text-anchor="start" x="197" y="-287.5" font-family="Helvetica,sans-Serif" font-size="10.00"> _Cols, _Supers, _Subs, _Options</text>
<text text-anchor="middle" x="275.5" y="-276.5" font-family="Helvetica,sans-Serif" font-size="10.00"> &gt; &gt;::evalTo</text>
</a>
</g>
</g>
<!-- Node119&#45;&gt;Node134 -->
<g id="edge15" class="edge"><title>Node119&#45;&gt;Node134</title>
<path fill="none" stroke="midnightblue" d="M67.9865,-543.039C76.4782,-500.234 102.168,-398.893 163,-342 170.532,-334.956 179.375,-329.1 188.73,-324.235"/>
<polygon fill="midnightblue" stroke="midnightblue" points="64.5145,-542.565 66.1092,-553.039 71.3943,-543.856 64.5145,-542.565"/>
</g>
<!-- Node135 -->
<g id="node17" class="node"><title>Node135</title>
<g id="a_node17"><a xlink:href="classEigen_1_1HessenbergDecomposition.html#acd22602a3e3e5a02f79990ba1e445dc9" target="_top" xlink:title="Constructor; computes Hessenberg decomposition of given matrix. ">
<polygon fill="none" stroke="black" points="163,-220 163,-250 388,-250 388,-220 163,-220"/>
<text text-anchor="start" x="171" y="-238" font-family="Helvetica,sans-Serif" font-size="10.00">Eigen::HessenbergDecomposition</text>
<text text-anchor="middle" x="275.5" y="-227" font-family="Helvetica,sans-Serif" font-size="10.00">&lt; MatrixType &gt;::HessenbergDecomposition</text>
</a>
</g>
</g>
<!-- Node119&#45;&gt;Node135 -->
<g id="edge16" class="edge"><title>Node119&#45;&gt;Node135</title>
<path fill="none" stroke="midnightblue" d="M64.6223,-543.016C66.0986,-488.717 78.0228,-337.363 163,-260 167.181,-256.194 171.813,-252.925 176.743,-250.122"/>
<polygon fill="midnightblue" stroke="midnightblue" points="61.1173,-543.273 64.4413,-553.333 68.1162,-543.396 61.1173,-543.273"/>
</g>
<!-- Node136 -->
<g id="node18" class="node"><title>Node136</title>
<g id="a_node18"><a xlink:href="function__taking__eigenbase_8cpp.html#a0e91892c7e25e25313e5b34d53e9df0f" target="_top" xlink:title="print_size">
<polygon fill="none" stroke="black" points="244.5,-181.5 244.5,-200.5 306.5,-200.5 306.5,-181.5 244.5,-181.5"/>
<text text-anchor="middle" x="275.5" y="-188.5" font-family="Helvetica,sans-Serif" font-size="10.00">print_size</text>
</a>
</g>
</g>
<!-- Node119&#45;&gt;Node136 -->
<g id="edge17" class="edge"><title>Node119&#45;&gt;Node136</title>
<path fill="none" stroke="midnightblue" d="M67.2477,-543.284C77.0262,-476.007 112.282,-257.098 163,-211 184.83,-191.158 219.359,-187.702 244.21,-188.242"/>
<polygon fill="midnightblue" stroke="midnightblue" points="63.7556,-542.981 65.8084,-553.375 70.6855,-543.97 63.7556,-542.981"/>
</g>
<!-- Node138 -->
<g id="node20" class="node"><title>Node138</title>
<g id="a_node20"><a xlink:href="structEigen_1_1EigenBase.html#ac2c9348df3bb9c0044dbae6c278a8977" target="_top" xlink:title="Eigen::EigenBase\&lt; Matrix\lReplacement \&gt;::size">
<polygon fill="none" stroke="black" points="205.5,-132 205.5,-162 345.5,-162 345.5,-132 205.5,-132"/>
<text text-anchor="start" x="213.5" y="-150" font-family="Helvetica,sans-Serif" font-size="10.00">Eigen::EigenBase&lt; Matrix</text>
<text text-anchor="middle" x="275.5" y="-139" font-family="Helvetica,sans-Serif" font-size="10.00">Replacement &gt;::size</text>
</a>
</g>
</g>
<!-- Node119&#45;&gt;Node138 -->
<g id="edge19" class="edge"><title>Node119&#45;&gt;Node138</title>
<path fill="none" stroke="midnightblue" d="M66.769,-543.104C75.3846,-471.052 108.375,-225.211 163,-172 174.439,-160.857 189.71,-154.249 205.27,-150.427"/>
<polygon fill="midnightblue" stroke="midnightblue" points="63.2434,-543.119 65.5572,-553.458 70.196,-543.933 63.2434,-543.119"/>
</g>
<!-- Node139 -->
<g id="node21" class="node"><title>Node139</title>
<g id="a_node21"><a xlink:href="structEigen_1_1EigenBase.html#a677a970c7d063d7033180dd9dbb53565" target="_top" xlink:title="Eigen::EigenBase\&lt; Matrix\lReplacement \&gt;::subTo">
<polygon fill="none" stroke="black" points="205.5,-83 205.5,-113 345.5,-113 345.5,-83 205.5,-83"/>
<text text-anchor="start" x="213.5" y="-101" font-family="Helvetica,sans-Serif" font-size="10.00">Eigen::EigenBase&lt; Matrix</text>
<text text-anchor="middle" x="275.5" y="-90" font-family="Helvetica,sans-Serif" font-size="10.00">Replacement &gt;::subTo</text>
</a>
</g>
</g>
<!-- Node119&#45;&gt;Node139 -->
<g id="edge20" class="edge"><title>Node119&#45;&gt;Node139</title>
<path fill="none" stroke="midnightblue" d="M66.1656,-543.164C73.0819,-465.581 102.069,-183.952 163,-123 174.361,-111.636 189.695,-104.96 205.35,-101.144"/>
<polygon fill="midnightblue" stroke="midnightblue" points="62.6515,-543.177 65.2737,-553.442 69.6253,-543.782 62.6515,-543.177"/>
</g>
<!-- Node140 -->
<g id="node22" class="node"><title>Node140</title>
<g id="a_node22"><a xlink:href="classEigen_1_1internal_1_1BandMatrixBase.html#aacfa0b85201b8503376a9998987f81f7" target="_top" xlink:title="Eigen::internal::BandMatrix\lBase\&lt; BandMatrixWrapper\l\&lt; _CoefficientsType, _Rows,\l _Cols, _Supers, _Subs, _Options\l \&gt; \&gt;::toDenseMatrix">
<polygon fill="none" stroke="black" points="189,-0.5 189,-63.5 362,-63.5 362,-0.5 189,-0.5"/>
<text text-anchor="start" x="197" y="-51.5" font-family="Helvetica,sans-Serif" font-size="10.00">Eigen::internal::BandMatrix</text>
<text text-anchor="start" x="197" y="-40.5" font-family="Helvetica,sans-Serif" font-size="10.00">Base&lt; BandMatrixWrapper</text>
<text text-anchor="start" x="197" y="-29.5" font-family="Helvetica,sans-Serif" font-size="10.00">&lt; _CoefficientsType, _Rows,</text>
<text text-anchor="start" x="197" y="-18.5" font-family="Helvetica,sans-Serif" font-size="10.00"> _Cols, _Supers, _Subs, _Options</text>
<text text-anchor="middle" x="275.5" y="-7.5" font-family="Helvetica,sans-Serif" font-size="10.00"> &gt; &gt;::toDenseMatrix</text>
</a>
</g>
</g>
<!-- Node119&#45;&gt;Node140 -->
<g id="edge21" class="edge"><title>Node119&#45;&gt;Node140</title>
<path fill="none" stroke="midnightblue" d="M65.9509,-543.352C72.3722,-461.345 100.716,-147.251 163,-74 170.102,-65.6478 179.042,-58.9538 188.755,-53.5893"/>
<polygon fill="midnightblue" stroke="midnightblue" points="62.4603,-543.096 65.1891,-553.333 69.44,-543.629 62.4603,-543.096"/>
</g>
<!-- Node125 -->
<g id="node7" class="node"><title>Node125</title>
<g id="a_node7"><a xlink:href="nomalloc_8cpp.html#ac6a1cc3b954c50458ab44676411eece1" target="_top" xlink:title="ctms_decompositions">
<polygon fill="none" stroke="black" points="424,-804.5 424,-823.5 546,-823.5 546,-804.5 424,-804.5"/>
<text text-anchor="middle" x="485" y="-811.5" font-family="Helvetica,sans-Serif" font-size="10.00">ctms_decompositions</text>
</a>
</g>
</g>
<!-- Node124&#45;&gt;Node125 -->
<g id="edge6" class="edge"><title>Node124&#45;&gt;Node125</title>
<path fill="none" stroke="midnightblue" d="M351.091,-814C374.956,-814 401.061,-814 423.769,-814"/>
<polygon fill="midnightblue" stroke="midnightblue" points="351.017,-810.5 341.017,-814 351.017,-817.5 351.017,-810.5"/>
</g>
<!-- Node137 -->
<g id="node19" class="node"><title>Node137</title>
<g id="a_node19"><a xlink:href="function__taking__eigenbase_8cpp.html#ae66f6b31b5ad750f1fe042a706a4e3d4" target="_top" xlink:title="main">
<polygon fill="none" stroke="black" points="464.5,-181.5 464.5,-200.5 505.5,-200.5 505.5,-181.5 464.5,-181.5"/>
<text text-anchor="middle" x="485" y="-188.5" font-family="Helvetica,sans-Serif" font-size="10.00">main</text>
</a>
</g>
</g>
<!-- Node136&#45;&gt;Node137 -->
<g id="edge18" class="edge"><title>Node136&#45;&gt;Node137</title>
<path fill="none" stroke="midnightblue" d="M316.83,-191C361.207,-191 430.701,-191 464.385,-191"/>
<polygon fill="midnightblue" stroke="midnightblue" points="316.672,-187.5 306.672,-191 316.672,-194.5 316.672,-187.5"/>
</g>
</g>
</svg>
