<?xml version="1.0" encoding="UTF-8" standalone="no"?>
<!DOCTYPE svg PUBLIC "-//W3C//DTD SVG 1.1//EN"
 "http://www.w3.org/Graphics/SVG/1.1/DTD/svg11.dtd">
<!-- Generated by graphviz version 2.38.0 (20140413.2041)
 -->
<!-- Title: Eigen::EigenBase::const_cast_derived Pages: 1 -->
<svg width="460pt" height="88pt"
 viewBox="0.00 0.00 460.00 88.00" xmlns="http://www.w3.org/2000/svg" xmlns:xlink="http://www.w3.org/1999/xlink">
<g id="graph0" class="graph" transform="scale(1 1) rotate(0) translate(4 84)">
<title>Eigen::EigenBase::const_cast_derived</title>
<!-- Node26 -->
<g id="node1" class="node"><title>Node26</title>
<polygon fill="#bfbfbf" stroke="black" points="0,-30 0,-60 131,-60 131,-30 0,-30"/>
<text text-anchor="start" x="8" y="-48" font-family="Helvetica,sans-Serif" font-size="10.00">Eigen::EigenBase::const</text>
<text text-anchor="middle" x="65.5" y="-37" font-family="Helvetica,sans-Serif" font-size="10.00">_cast_derived</text>
</g>
<!-- Node27 -->
<g id="node2" class="node"><title>Node27</title>
<g id="a_node2"><a xlink:href="namespaceEigen.html#a84aed880e36b89f807fcb7542f7e72ee" target="_top" xlink:title="Eigen::copy_using_evaluator">
<polygon fill="none" stroke="black" points="170,-60.5 170,-79.5 322,-79.5 322,-60.5 170,-60.5"/>
<text text-anchor="middle" x="246" y="-67.5" font-family="Helvetica,sans-Serif" font-size="10.00">Eigen::copy_using_evaluator</text>
</a>
</g>
</g>
<!-- Node26&#45;&gt;Node27 -->
<g id="edge1" class="edge"><title>Node26&#45;&gt;Node27</title>
<path fill="none" stroke="midnightblue" d="M141.43,-55.4944C153.2,-57.1429 165.312,-58.8393 176.918,-60.4646"/>
<polygon fill="midnightblue" stroke="midnightblue" points="141.584,-51.9819 131.195,-54.0609 140.613,-58.9142 141.584,-51.9819"/>
</g>
<!-- Node29 -->
<g id="node4" class="node"><title>Node29</title>
<g id="a_node4"><a xlink:href="classEigen_1_1TriangularViewImpl_3_01__MatrixType_00_01__Mode_00_01Dense_01_4.html#a154127e98e3b30d829220c61eb3c12b1" target="_top" xlink:title="Eigen::TriangularViewImpl\l\&lt; _MatrixType, _Mode, Dense\l \&gt;::swap">
<polygon fill="none" stroke="black" points="167,-0.5 167,-41.5 325,-41.5 325,-0.5 167,-0.5"/>
<text text-anchor="start" x="175" y="-29.5" font-family="Helvetica,sans-Serif" font-size="10.00">Eigen::TriangularViewImpl</text>
<text text-anchor="start" x="175" y="-18.5" font-family="Helvetica,sans-Serif" font-size="10.00">&lt; _MatrixType, _Mode, Dense</text>
<text text-anchor="middle" x="246" y="-7.5" font-family="Helvetica,sans-Serif" font-size="10.00"> &gt;::swap</text>
</a>
</g>
</g>
<!-- Node26&#45;&gt;Node29 -->
<g id="edge3" class="edge"><title>Node26&#45;&gt;Node29</title>
<path fill="none" stroke="midnightblue" d="M141.36,-34.9347C149.783,-33.8023 158.381,-32.6463 166.843,-31.5085"/>
<polygon fill="midnightblue" stroke="midnightblue" points="140.639,-31.5001 131.195,-36.3015 141.572,-38.4377 140.639,-31.5001"/>
</g>
<!-- Node28 -->
<g id="node3" class="node"><title>Node28</title>
<g id="a_node3"><a xlink:href="evaluators_8cpp.html#a1c1067359dbb27f67f541e6a9981e912" target="_top" xlink:title="test_evaluators">
<polygon fill="none" stroke="black" points="361,-60.5 361,-79.5 452,-79.5 452,-60.5 361,-60.5"/>
<text text-anchor="middle" x="406.5" y="-67.5" font-family="Helvetica,sans-Serif" font-size="10.00">test_evaluators</text>
</a>
</g>
</g>
<!-- Node27&#45;&gt;Node28 -->
<g id="edge2" class="edge"><title>Node27&#45;&gt;Node28</title>
<path fill="none" stroke="midnightblue" d="M332.351,-70C342.195,-70 351.913,-70 360.892,-70"/>
<polygon fill="midnightblue" stroke="midnightblue" points="332.073,-66.5001 322.073,-70 332.072,-73.5001 332.073,-66.5001"/>
</g>
</g>
</svg>
