<?xml version="1.0" encoding="UTF-8" standalone="no"?>
<!DOCTYPE svg PUBLIC "-//W3C//DTD SVG 1.1//EN"
 "http://www.w3.org/Graphics/SVG/1.1/DTD/svg11.dtd">
<!-- Generated by graphviz version 2.38.0 (20140413.2041)
 -->
<!-- Title: Eigen::internal::triangular_solver_unroller&lt; Lhs, Rhs, Mode, LoopIndex, Size, false &gt;::run Pages: 1 -->
<svg width="522pt" height="137pt"
 viewBox="0.00 0.00 522.00 137.00" xmlns="http://www.w3.org/2000/svg" xmlns:xlink="http://www.w3.org/1999/xlink">
<g id="graph0" class="graph" transform="scale(1 1) rotate(0) translate(4 133)">
<title>Eigen::internal::triangular_solver_unroller&lt; Lhs, Rhs, Mode, LoopIndex, Size, false &gt;::run</title>
<!-- Node0 -->
<g id="node1" class="node"><title>Node0</title>
<polygon fill="#bfbfbf" stroke="black" points="0,-44 0,-85 188,-85 188,-44 0,-44"/>
<text text-anchor="start" x="8" y="-73" font-family="Helvetica,sans-Serif" font-size="10.00">Eigen::internal::triangular</text>
<text text-anchor="start" x="8" y="-62" font-family="Helvetica,sans-Serif" font-size="10.00">_solver_unroller&lt; Lhs, Rhs,</text>
<text text-anchor="middle" x="94" y="-51" font-family="Helvetica,sans-Serif" font-size="10.00"> Mode, LoopIndex, Size, false &gt;::run</text>
</g>
<!-- Node1 -->
<g id="node2" class="node"><title>Node1</title>
<g id="a_node2"><a xlink:href="namespaceEigen_1_1TensorSycl.html#a789ef14500d782279cc4bb95e6ba3dbd" target="_top" xlink:title="Eigen::TensorSycl::run">
<polygon fill="none" stroke="black" points="224,-55 224,-74 345,-74 345,-55 224,-55"/>
<text text-anchor="middle" x="284.5" y="-62" font-family="Helvetica,sans-Serif" font-size="10.00">Eigen::TensorSycl::run</text>
</a>
</g>
</g>
<!-- Node0&#45;&gt;Node1 -->
<g id="edge1" class="edge"><title>Node0&#45;&gt;Node1</title>
<path fill="none" stroke="midnightblue" d="M188.146,-64.5C196.784,-64.5 205.435,-64.5 213.808,-64.5"/>
<polygon fill="midnightblue" stroke="midnightblue" points="213.864,-68.0001 223.863,-64.5 213.863,-61.0001 213.864,-68.0001"/>
</g>
<!-- Node2 -->
<g id="node3" class="node"><title>Node2</title>
<g id="a_node3"><a xlink:href="structEigen_1_1TensorEvaluator.html#ae188d806978166eb8cbffbd63c944fb3" target="_top" xlink:title="Eigen::TensorEvaluator\l::evalSubExprsIfNeeded">
<polygon fill="none" stroke="black" points="382.5,-98.5 382.5,-128.5 512.5,-128.5 512.5,-98.5 382.5,-98.5"/>
<text text-anchor="start" x="390.5" y="-116.5" font-family="Helvetica,sans-Serif" font-size="10.00">Eigen::TensorEvaluator</text>
<text text-anchor="middle" x="447.5" y="-105.5" font-family="Helvetica,sans-Serif" font-size="10.00">::evalSubExprsIfNeeded</text>
</a>
</g>
</g>
<!-- Node1&#45;&gt;Node2 -->
<g id="edge2" class="edge"><title>Node1&#45;&gt;Node2</title>
<path fill="none" stroke="midnightblue" d="M316.925,-74.064C336.952,-80.1592 363.532,-88.2488 387.404,-95.5143"/>
<polygon fill="midnightblue" stroke="midnightblue" points="386.507,-98.8997 397.093,-98.463 388.545,-92.203 386.507,-98.8997"/>
</g>
<!-- Node3 -->
<g id="node4" class="node"><title>Node3</title>
<g id="a_node4"><a xlink:href="namespaceEigen_1_1TensorSycl_1_1internal.html#a525ee07cdeb68d18359b511b1ae9ffc7" target="_top" xlink:title="template deduction function for FunctorExtractor ">
<polygon fill="none" stroke="black" points="381,-49.5 381,-79.5 514,-79.5 514,-49.5 381,-49.5"/>
<text text-anchor="start" x="389" y="-67.5" font-family="Helvetica,sans-Serif" font-size="10.00">Eigen::TensorSycl::</text>
<text text-anchor="middle" x="447.5" y="-56.5" font-family="Helvetica,sans-Serif" font-size="10.00">internal::extractFunctors</text>
</a>
</g>
</g>
<!-- Node1&#45;&gt;Node3 -->
<g id="edge3" class="edge"><title>Node1&#45;&gt;Node3</title>
<path fill="none" stroke="midnightblue" d="M345.45,-64.5C353.65,-64.5 362.154,-64.5 370.59,-64.5"/>
<polygon fill="midnightblue" stroke="midnightblue" points="370.823,-68.0001 380.823,-64.5 370.823,-61.0001 370.823,-68.0001"/>
</g>
<!-- Node4 -->
<g id="node5" class="node"><title>Node4</title>
<g id="a_node5"><a xlink:href="structEigen_1_1TensorEvaluator.html#a76ec54bcca9523ec104aaa9adaf74983" target="_top" xlink:title="Eigen::TensorEvaluator\l::cleanup">
<polygon fill="none" stroke="black" points="385,-0.5 385,-30.5 510,-30.5 510,-0.5 385,-0.5"/>
<text text-anchor="start" x="393" y="-18.5" font-family="Helvetica,sans-Serif" font-size="10.00">Eigen::TensorEvaluator</text>
<text text-anchor="middle" x="447.5" y="-7.5" font-family="Helvetica,sans-Serif" font-size="10.00">::cleanup</text>
</a>
</g>
</g>
<!-- Node1&#45;&gt;Node4 -->
<g id="edge4" class="edge"><title>Node1&#45;&gt;Node4</title>
<path fill="none" stroke="midnightblue" d="M316.925,-54.936C336.952,-48.8408 363.532,-40.7512 387.404,-33.4857"/>
<polygon fill="midnightblue" stroke="midnightblue" points="388.545,-36.797 397.093,-30.537 386.507,-30.1003 388.545,-36.797"/>
</g>
</g>
</svg>
