<?xml version="1.0" encoding="UTF-8" standalone="no"?>
<!DOCTYPE svg PUBLIC "-//W3C//DTD SVG 1.1//EN"
 "http://www.w3.org/Graphics/SVG/1.1/DTD/svg11.dtd">
<!-- Generated by graphviz version 2.38.0 (20140413.2041)
 -->
<!-- Title: Eigen::internal::InnerReducer&lt; Self, Op, const Eigen::SyclDevice &gt;::run Pages: 1 -->
<svg width="370pt" height="137pt"
 viewBox="0.00 0.00 370.00 137.00" xmlns="http://www.w3.org/2000/svg" xmlns:xlink="http://www.w3.org/1999/xlink">
<g id="graph0" class="graph" transform="scale(1 1) rotate(0) translate(4 133)">
<title>Eigen::internal::InnerReducer&lt; Self, Op, const Eigen::SyclDevice &gt;::run</title>
<!-- Node0 -->
<g id="node1" class="node"><title>Node0</title>
<polygon fill="#bfbfbf" stroke="black" points="0,-44 0,-85 153,-85 153,-44 0,-44"/>
<text text-anchor="start" x="8" y="-73" font-family="Helvetica,sans-Serif" font-size="10.00">Eigen::internal::InnerReducer</text>
<text text-anchor="start" x="8" y="-62" font-family="Helvetica,sans-Serif" font-size="10.00">&lt; Self, Op, const Eigen::</text>
<text text-anchor="middle" x="76.5" y="-51" font-family="Helvetica,sans-Serif" font-size="10.00">SyclDevice &gt;::run</text>
</g>
<!-- Node1 -->
<g id="node2" class="node"><title>Node1</title>
<g id="a_node2"><a xlink:href="namespaceEigen_1_1TensorSycl_1_1internal.html#aa93846494e766618619e24bc400b8aaa" target="_top" xlink:title="template deduction for ExtractAccessor ">
<polygon fill="none" stroke="black" points="189,-98.5 189,-128.5 362,-128.5 362,-98.5 189,-98.5"/>
<text text-anchor="start" x="197" y="-116.5" font-family="Helvetica,sans-Serif" font-size="10.00">Eigen::TensorSycl::</text>
<text text-anchor="middle" x="275.5" y="-105.5" font-family="Helvetica,sans-Serif" font-size="10.00">internal::createTupleOfAccessors</text>
</a>
</g>
</g>
<!-- Node0&#45;&gt;Node1 -->
<g id="edge1" class="edge"><title>Node0&#45;&gt;Node1</title>
<path fill="none" stroke="midnightblue" d="M153.102,-83.3045C169.815,-87.4617 187.46,-91.8504 203.962,-95.9551"/>
<polygon fill="midnightblue" stroke="midnightblue" points="203.522,-99.4522 214.071,-98.4696 205.212,-92.6592 203.522,-99.4522"/>
</g>
<!-- Node2 -->
<g id="node3" class="node"><title>Node2</title>
<g id="a_node3"><a xlink:href="namespaceEigen_1_1TensorSycl_1_1internal.html#a525ee07cdeb68d18359b511b1ae9ffc7" target="_top" xlink:title="template deduction function for FunctorExtractor ">
<polygon fill="none" stroke="black" points="209,-49.5 209,-79.5 342,-79.5 342,-49.5 209,-49.5"/>
<text text-anchor="start" x="217" y="-67.5" font-family="Helvetica,sans-Serif" font-size="10.00">Eigen::TensorSycl::</text>
<text text-anchor="middle" x="275.5" y="-56.5" font-family="Helvetica,sans-Serif" font-size="10.00">internal::extractFunctors</text>
</a>
</g>
</g>
<!-- Node0&#45;&gt;Node2 -->
<g id="edge2" class="edge"><title>Node0&#45;&gt;Node2</title>
<path fill="none" stroke="midnightblue" d="M153.102,-64.5C168.001,-64.5 183.64,-64.5 198.551,-64.5"/>
<polygon fill="midnightblue" stroke="midnightblue" points="198.739,-68.0001 208.739,-64.5 198.739,-61.0001 198.739,-68.0001"/>
</g>
<!-- Node3 -->
<g id="node4" class="node"><title>Node3</title>
<g id="a_node4"><a xlink:href="structEigen_1_1internal_1_1GenericDimReducer.html#ad65e721ea1322448fb0ac5558897396c" target="_top" xlink:title="Eigen::internal::Generic\lDimReducer::reduce">
<polygon fill="none" stroke="black" points="211.5,-0.5 211.5,-30.5 339.5,-30.5 339.5,-0.5 211.5,-0.5"/>
<text text-anchor="start" x="219.5" y="-18.5" font-family="Helvetica,sans-Serif" font-size="10.00">Eigen::internal::Generic</text>
<text text-anchor="middle" x="275.5" y="-7.5" font-family="Helvetica,sans-Serif" font-size="10.00">DimReducer::reduce</text>
</a>
</g>
</g>
<!-- Node0&#45;&gt;Node3 -->
<g id="edge3" class="edge"><title>Node0&#45;&gt;Node3</title>
<path fill="none" stroke="midnightblue" d="M153.102,-45.6955C169.815,-41.5383 187.46,-37.1496 203.962,-33.0449"/>
<polygon fill="midnightblue" stroke="midnightblue" points="205.212,-36.3408 214.071,-30.5304 203.522,-29.5478 205.212,-36.3408"/>
</g>
</g>
</svg>
