<?xml version="1.0" encoding="UTF-8" standalone="no"?>
<!DOCTYPE svg PUBLIC "-//W3C//DTD SVG 1.1//EN"
 "http://www.w3.org/Graphics/SVG/1.1/DTD/svg11.dtd">
<!-- Generated by graphviz version 2.38.0 (20140413.2041)
 -->
<!-- Title: Eigen::TensorEvaluator&lt; const Derived, Device &gt; Pages: 1 -->
<svg width="482pt" height="117pt"
 viewBox="0.00 0.00 482.00 117.00" xmlns="http://www.w3.org/2000/svg" xmlns:xlink="http://www.w3.org/1999/xlink">
<g id="graph0" class="graph" transform="scale(1 1) rotate(0) translate(4 113)">
<title>Eigen::TensorEvaluator&lt; const Derived, Device &gt;</title>
<!-- Node1 -->
<g id="node1" class="node"><title>Node1</title>
<polygon fill="#bfbfbf" stroke="black" points="185,-0.5 185,-30.5 328,-30.5 328,-0.5 185,-0.5"/>
<text text-anchor="start" x="193" y="-18.5" font-family="Helvetica,sans-Serif" font-size="10.00">Eigen::TensorEvaluator</text>
<text text-anchor="middle" x="256.5" y="-7.5" font-family="Helvetica,sans-Serif" font-size="10.00">&lt; const Derived, Device &gt;</text>
</g>
<!-- Node2 -->
<g id="node2" class="node"><title>Node2</title>
<polygon fill="none" stroke="#bfbfbf" points="0,-84 0,-103 89,-103 89,-84 0,-84"/>
<text text-anchor="middle" x="44.5" y="-91" font-family="Helvetica,sans-Serif" font-size="10.00">const Device &amp;</text>
</g>
<!-- Node2&#45;&gt;Node1 -->
<g id="edge1" class="edge"><title>Node2&#45;&gt;Node1</title>
<path fill="none" stroke="#9a32cd" stroke-dasharray="5,2" d="M70.7367,-79.3005C89.7837,-70.0435 116.343,-57.7992 140.5,-49 159.562,-42.0568 180.832,-35.7092 199.901,-30.5028"/>
<polygon fill="#9a32cd" stroke="#9a32cd" points="68.9434,-76.282 61.5135,-83.835 72.0318,-82.5639 68.9434,-76.282"/>
<text text-anchor="middle" x="165" y="-52" font-family="Helvetica,sans-Serif" font-size="10.00"> m_device</text>
</g>
<!-- Node3 -->
<g id="node3" class="node"><title>Node3</title>
<polygon fill="none" stroke="#bfbfbf" points="107,-84 107,-103 180,-103 180,-84 107,-84"/>
<text text-anchor="middle" x="143.5" y="-91" font-family="Helvetica,sans-Serif" font-size="10.00">Dimensions</text>
</g>
<!-- Node3&#45;&gt;Node1 -->
<g id="edge2" class="edge"><title>Node3&#45;&gt;Node1</title>
<path fill="none" stroke="#9a32cd" stroke-dasharray="5,2" d="M165.021,-78.0257C185.328,-64.3682 215.572,-44.0265 235.655,-30.5198"/>
<polygon fill="#9a32cd" stroke="#9a32cd" points="162.807,-75.2967 156.463,-83.7818 166.714,-81.1052 162.807,-75.2967"/>
<text text-anchor="middle" x="228.5" y="-52" font-family="Helvetica,sans-Serif" font-size="10.00"> m_dims</text>
</g>
<!-- Node4 -->
<g id="node4" class="node"><title>Node4</title>
<g id="a_node4"><a xlink:href="structEigen_1_1internal_1_1traits.html" target="_top" xlink:title="Eigen::internal::traits\l\&lt; Derived \&gt;">
<polygon fill="none" stroke="black" points="198.5,-78.5 198.5,-108.5 314.5,-108.5 314.5,-78.5 198.5,-78.5"/>
<text text-anchor="start" x="206.5" y="-96.5" font-family="Helvetica,sans-Serif" font-size="10.00">Eigen::internal::traits</text>
<text text-anchor="middle" x="256.5" y="-85.5" font-family="Helvetica,sans-Serif" font-size="10.00">&lt; Derived &gt;</text>
</a>
</g>
</g>
<!-- Node4&#45;&gt;Node1 -->
<g id="edge3" class="edge"><title>Node4&#45;&gt;Node1</title>
<path fill="none" stroke="#9a32cd" stroke-dasharray="5,2" d="M256.5,-68.0898C256.5,-55.7565 256.5,-41.2237 256.5,-30.7309"/>
<polygon fill="#9a32cd" stroke="#9a32cd" points="253,-68.2049 256.5,-78.205 260,-68.205 253,-68.2049"/>
<text text-anchor="middle" x="276.5" y="-52" font-family="Helvetica,sans-Serif" font-size="10.00"> m_data</text>
</g>
<!-- Node5 -->
<g id="node5" class="node"><title>Node5</title>
<polygon fill="none" stroke="#bfbfbf" points="332.5,-84 332.5,-103 426.5,-103 426.5,-84 332.5,-84"/>
<text text-anchor="middle" x="379.5" y="-91" font-family="Helvetica,sans-Serif" font-size="10.00">const Derived &amp;</text>
</g>
<!-- Node5&#45;&gt;Node1 -->
<g id="edge4" class="edge"><title>Node5&#45;&gt;Node1</title>
<path fill="none" stroke="#9a32cd" stroke-dasharray="5,2" d="M356.669,-78.3932C334.565,-64.7352 301.246,-44.1482 279.19,-30.5198"/>
<polygon fill="#9a32cd" stroke="#9a32cd" points="355.043,-81.5029 365.39,-83.7818 358.723,-75.5479 355.043,-81.5029"/>
<text text-anchor="middle" x="345" y="-52" font-family="Helvetica,sans-Serif" font-size="10.00"> m_impl</text>
</g>
<!-- Node6 -->
<g id="node6" class="node"><title>Node6</title>
<polygon fill="none" stroke="#bfbfbf" points="445,-84 445,-103 474,-103 474,-84 445,-84"/>
<text text-anchor="middle" x="459.5" y="-91" font-family="Helvetica,sans-Serif" font-size="10.00">int</text>
</g>
<!-- Node6&#45;&gt;Node1 -->
<g id="edge5" class="edge"><title>Node6&#45;&gt;Node1</title>
<path fill="none" stroke="#9a32cd" stroke-dasharray="5,2" d="M437.134,-78.8571C436.586,-78.565 436.041,-78.2788 435.5,-78 406.659,-63.1322 399.031,-59.9875 368.5,-49 349.64,-42.2126 328.617,-35.8144 309.925,-30.5194"/>
<polygon fill="#9a32cd" stroke="#9a32cd" points="435.553,-81.9846 445.975,-83.8934 439.018,-75.9023 435.553,-81.9846"/>
<text text-anchor="middle" x="428" y="-52" font-family="Helvetica,sans-Serif" font-size="10.00"> NumCoords</text>
</g>
</g>
</svg>
