<?xml version="1.0" encoding="UTF-8" standalone="no"?>
<!DOCTYPE svg PUBLIC "-//W3C//DTD SVG 1.1//EN"
 "http://www.w3.org/Graphics/SVG/1.1/DTD/svg11.dtd">
<!-- Generated by graphviz version 2.38.0 (20140413.2041)
 -->
<!-- Title: Eigen::internal::FullReducer::run Pages: 1 -->
<!--zoomable 231 -->
<svg id="main" version="1.1" xmlns="http://www.w3.org/2000/svg" xmlns:xlink="http://www.w3.org/1999/xlink" xml:space="preserve" onload="init(evt)">
<style type="text/css"><![CDATA[
.edge:hover path { stroke: red; }
.edge:hover polygon { stroke: red; fill: red; }
]]></style>
<script type="text/javascript"><![CDATA[
var edges = document.getElementsByTagName('g');
if (edges && edges.length) {
  for (var i=0;i<edges.length;i++) {
    if (edges[i].id.substr(0,4)=='edge') {
      edges[i].setAttribute('class','edge');
    }
  }
}
]]></script>
        <defs>
                <circle id="rim" cx="0" cy="0" r="7"/>
                <circle id="rim2" cx="0" cy="0" r="3.5"/>
                <g id="zoomPlus">
                        <use xlink:href="#rim" fill="#404040">
                                <set attributeName="fill" to="#808080" begin="zoomplus.mouseover" end="zoomplus.mouseout"/>
                        </use>
                        <path d="M-4,0h8M0,-4v8" fill="none" stroke="white" stroke-width="1.5" pointer-events="none"/>
                </g>
                <g id="zoomMin">
                        <use xlink:href="#rim" fill="#404040">
                                <set attributeName="fill" to="#808080" begin="zoomminus.mouseover" end="zoomminus.mouseout"/>
                        </use>
                        <path d="M-4,0h8" fill="none" stroke="white" stroke-width="1.5" pointer-events="none"/>
                </g>
                <g id="dirArrow">
                        <path fill="none" stroke="white" stroke-width="1.5" d="M0,-3.0v7 M-2.5,-0.5L0,-3.0L2.5,-0.5"/>
                </g>
               <g id="resetDef">
                       <use xlink:href="#rim2" fill="#404040">
                               <set attributeName="fill" to="#808080" begin="reset.mouseover" end="reset.mouseout"/>
                       </use>
               </g>
        </defs>

<script type="text/javascript">
var viewWidth = 732;
var viewHeight = 231;
var sectionId = 'dynsection-1';
</script>
<script xlink:href="svgpan.js"/>
<svg id="graph" class="graph">
<g id="viewport">
<title>Eigen::internal::FullReducer::run</title>
<!-- Node0 -->
<g id="node1" class="node"><title>Node0</title>
<polygon fill="#bfbfbf" stroke="black" points="0,-123 0,-142 166,-142 166,-123 0,-123"/>
<text text-anchor="middle" x="83" y="-130" font-family="Helvetica,sans-Serif" font-size="10.00">Eigen::internal::FullReducer::run</text>
</g>
<!-- Node1 -->
<g id="node2" class="node"><title>Node1</title>
<g id="a_node2"><a xlink:href="namespaceEigen_1_1internal.html#a3b99e338d92a91c8b3f89d32d0ca2c39" target="_top" xlink:title="Eigen::internal::array_prod">
<polygon fill="none" stroke="black" points="202,-192 202,-211 345,-211 345,-192 202,-192"/>
<text text-anchor="middle" x="273.5" y="-199" font-family="Helvetica,sans-Serif" font-size="10.00">Eigen::internal::array_prod</text>
</a>
</g>
</g>
<!-- Node0&#45;&gt;Node1 -->
<g id="edge1" class="edge"><title>Node0&#45;&gt;Node1</title>
<path fill="none" stroke="midnightblue" d="M105.027,-142.111C128.406,-152.589 167.434,-169.467 202,-181.5 209.688,-184.176 217.937,-186.764 225.986,-189.141"/>
<polygon fill="midnightblue" stroke="midnightblue" points="225.076,-192.521 235.655,-191.926 227.014,-185.795 225.076,-192.521"/>
</g>
<!-- Node4 -->
<g id="node5" class="node"><title>Node4</title>
<g id="a_node5"><a xlink:href="classEigen_1_1TensorCostModel.html#a718b68d6a884d2c862b5dc3c4c3f5ab4" target="_top" xlink:title="Eigen::TensorCostModel\l::numThreads">
<polygon fill="none" stroke="black" points="208.5,-142.5 208.5,-172.5 338.5,-172.5 338.5,-142.5 208.5,-142.5"/>
<text text-anchor="start" x="216.5" y="-160.5" font-family="Helvetica,sans-Serif" font-size="10.00">Eigen::TensorCostModel</text>
<text text-anchor="middle" x="273.5" y="-149.5" font-family="Helvetica,sans-Serif" font-size="10.00">::numThreads</text>
</a>
</g>
</g>
<!-- Node0&#45;&gt;Node4 -->
<g id="edge4" class="edge"><title>Node0&#45;&gt;Node4</title>
<path fill="none" stroke="midnightblue" d="M155.802,-142.023C169.699,-143.866 184.289,-145.801 198.263,-147.654"/>
<polygon fill="midnightblue" stroke="midnightblue" points="197.937,-151.142 208.31,-148.987 198.857,-144.202 197.937,-151.142"/>
</g>
<!-- Node5 -->
<g id="node6" class="node"><title>Node5</title>
<g id="a_node6"><a xlink:href="structEigen_1_1internal_1_1InnerMostDimReducer.html#aaee4143a17ab9c390cd30bef090003de" target="_top" xlink:title="Eigen::internal::InnerMost\lDimReducer::reduce">
<polygon fill="none" stroke="black" points="204.5,-93.5 204.5,-123.5 342.5,-123.5 342.5,-93.5 204.5,-93.5"/>
<text text-anchor="start" x="212.5" y="-111.5" font-family="Helvetica,sans-Serif" font-size="10.00">Eigen::internal::InnerMost</text>
<text text-anchor="middle" x="273.5" y="-100.5" font-family="Helvetica,sans-Serif" font-size="10.00">DimReducer::reduce</text>
</a>
</g>
</g>
<!-- Node0&#45;&gt;Node5 -->
<g id="edge5" class="edge"><title>Node0&#45;&gt;Node5</title>
<path fill="none" stroke="midnightblue" d="M158.771,-122.98C170.378,-121.502 182.397,-119.972 194.082,-118.484"/>
<polygon fill="midnightblue" stroke="midnightblue" points="194.768,-121.925 204.246,-117.19 193.884,-114.981 194.768,-121.925"/>
</g>
<!-- Node6 -->
<g id="node7" class="node"><title>Node6</title>
<g id="a_node7"><a xlink:href="namespaceEigen_1_1TensorSycl.html#a789ef14500d782279cc4bb95e6ba3dbd" target="_top" xlink:title="Eigen::TensorSycl::run">
<polygon fill="none" stroke="black" points="213,-55 213,-74 334,-74 334,-55 213,-55"/>
<text text-anchor="middle" x="273.5" y="-62" font-family="Helvetica,sans-Serif" font-size="10.00">Eigen::TensorSycl::run</text>
</a>
</g>
</g>
<!-- Node0&#45;&gt;Node6 -->
<g id="edge6" class="edge"><title>Node0&#45;&gt;Node6</title>
<path fill="none" stroke="midnightblue" d="M104.575,-122.993C127.877,-112.454 167.146,-95.3769 202,-83.5 208.929,-81.1388 216.32,-78.876 223.611,-76.7874"/>
<polygon fill="midnightblue" stroke="midnightblue" points="224.743,-80.1056 233.44,-74.0543 222.867,-73.3615 224.743,-80.1056"/>
</g>
<!-- Node2 -->
<g id="node3" class="node"><title>Node2</title>
<g id="a_node3"><a xlink:href="structEigen_1_1internal_1_1fixed__size__tensor__index__linearization__helper.html#ad9f850bf5d539ce2ceb45a27e8ae4975" target="_top" xlink:title="Eigen::internal::fixed\l_size_tensor_index_linearization\l_helper::run">
<polygon fill="none" stroke="black" points="381,-181 381,-222 551,-222 551,-181 381,-181"/>
<text text-anchor="start" x="389" y="-210" font-family="Helvetica,sans-Serif" font-size="10.00">Eigen::internal::fixed</text>
<text text-anchor="start" x="389" y="-199" font-family="Helvetica,sans-Serif" font-size="10.00">_size_tensor_index_linearization</text>
<text text-anchor="middle" x="466" y="-188" font-family="Helvetica,sans-Serif" font-size="10.00">_helper::run</text>
</a>
</g>
</g>
<!-- Node1&#45;&gt;Node2 -->
<g id="edge2" class="edge"><title>Node1&#45;&gt;Node2</title>
<path fill="none" stroke="midnightblue" d="M345.164,-201.5C353.536,-201.5 362.18,-201.5 370.812,-201.5"/>
<polygon fill="midnightblue" stroke="midnightblue" points="370.923,-205 380.923,-201.5 370.923,-198 370.923,-205"/>
</g>
<!-- Node3 -->
<g id="node4" class="node"><title>Node3</title>
<g id="a_node4"><a xlink:href="namespaceEigen_1_1internal.html#a7dd131bbd4a892f4d48cfce903de56c5" target="_top" xlink:title="Eigen::internal::array_get">
<polygon fill="none" stroke="black" points="587,-192 587,-211 724,-211 724,-192 587,-192"/>
<text text-anchor="middle" x="655.5" y="-199" font-family="Helvetica,sans-Serif" font-size="10.00">Eigen::internal::array_get</text>
</a>
</g>
</g>
<!-- Node2&#45;&gt;Node3 -->
<g id="edge3" class="edge"><title>Node2&#45;&gt;Node3</title>
<path fill="none" stroke="midnightblue" d="M551.152,-201.5C559.665,-201.5 568.285,-201.5 576.727,-201.5"/>
<polygon fill="midnightblue" stroke="midnightblue" points="576.916,-205 586.916,-201.5 576.916,-198 576.916,-205"/>
</g>
<!-- Node7 -->
<g id="node8" class="node"><title>Node7</title>
<g id="a_node8"><a xlink:href="structEigen_1_1TensorEvaluator.html#ae188d806978166eb8cbffbd63c944fb3" target="_top" xlink:title="Eigen::TensorEvaluator\l::evalSubExprsIfNeeded">
<polygon fill="none" stroke="black" points="401,-98.5 401,-128.5 531,-128.5 531,-98.5 401,-98.5"/>
<text text-anchor="start" x="409" y="-116.5" font-family="Helvetica,sans-Serif" font-size="10.00">Eigen::TensorEvaluator</text>
<text text-anchor="middle" x="466" y="-105.5" font-family="Helvetica,sans-Serif" font-size="10.00">::evalSubExprsIfNeeded</text>
</a>
</g>
</g>
<!-- Node6&#45;&gt;Node7 -->
<g id="edge7" class="edge"><title>Node6&#45;&gt;Node7</title>
<path fill="none" stroke="midnightblue" d="M311.683,-74.064C335.8,-80.2676 367.95,-88.5371 396.579,-95.901"/>
<polygon fill="midnightblue" stroke="midnightblue" points="395.983,-99.3615 406.54,-98.463 397.727,-92.5822 395.983,-99.3615"/>
</g>
<!-- Node8 -->
<g id="node9" class="node"><title>Node8</title>
<g id="a_node9"><a xlink:href="namespaceEigen_1_1TensorSycl_1_1internal.html#a525ee07cdeb68d18359b511b1ae9ffc7" target="_top" xlink:title="template deduction function for FunctorExtractor ">
<polygon fill="none" stroke="black" points="399.5,-49.5 399.5,-79.5 532.5,-79.5 532.5,-49.5 399.5,-49.5"/>
<text text-anchor="start" x="407.5" y="-67.5" font-family="Helvetica,sans-Serif" font-size="10.00">Eigen::TensorSycl::</text>
<text text-anchor="middle" x="466" y="-56.5" font-family="Helvetica,sans-Serif" font-size="10.00">internal::extractFunctors</text>
</a>
</g>
</g>
<!-- Node6&#45;&gt;Node8 -->
<g id="edge8" class="edge"><title>Node6&#45;&gt;Node8</title>
<path fill="none" stroke="midnightblue" d="M334.253,-64.5C351.653,-64.5 370.898,-64.5 389.151,-64.5"/>
<polygon fill="midnightblue" stroke="midnightblue" points="389.171,-68.0001 399.171,-64.5 389.171,-61.0001 389.171,-68.0001"/>
</g>
<!-- Node9 -->
<g id="node10" class="node"><title>Node9</title>
<g id="a_node10"><a xlink:href="structEigen_1_1TensorEvaluator.html#a76ec54bcca9523ec104aaa9adaf74983" target="_top" xlink:title="Eigen::TensorEvaluator\l::cleanup">
<polygon fill="none" stroke="black" points="403.5,-0.5 403.5,-30.5 528.5,-30.5 528.5,-0.5 403.5,-0.5"/>
<text text-anchor="start" x="411.5" y="-18.5" font-family="Helvetica,sans-Serif" font-size="10.00">Eigen::TensorEvaluator</text>
<text text-anchor="middle" x="466" y="-7.5" font-family="Helvetica,sans-Serif" font-size="10.00">::cleanup</text>
</a>
</g>
</g>
<!-- Node6&#45;&gt;Node9 -->
<g id="edge9" class="edge"><title>Node6&#45;&gt;Node9</title>
<path fill="none" stroke="midnightblue" d="M311.683,-54.936C335.8,-48.7324 367.95,-40.4629 396.579,-33.099"/>
<polygon fill="midnightblue" stroke="midnightblue" points="397.727,-36.4178 406.54,-30.537 395.983,-29.6385 397.727,-36.4178"/>
</g>
</g>
</svg>
        <g id="navigator" transform="translate(0 0)" fill="#404254">
                <rect fill="#f2f5e9" fill-opacity="0.5" stroke="#606060" stroke-width=".5" x="0" y="0" width="60" height="60"/>
                <use id="zoomplus" xlink:href="#zoomPlus" x="17" y="9" onmousedown="handleZoom(evt,'in')"/>
                <use id="zoomminus" xlink:href="#zoomMin" x="42" y="9" onmousedown="handleZoom(evt,'out')"/>
                <use id="reset" xlink:href="#resetDef" x="30" y="36" onmousedown="handleReset()"/>
                <g id="arrowUp" xlink:href="#dirArrow" transform="translate(30 24)" onmousedown="handlePan(0,-1)">
                  <use xlink:href="#rim" fill="#404040">
                        <set attributeName="fill" to="#808080" begin="arrowUp.mouseover" end="arrowUp.mouseout"/>
                  </use>
                  <path fill="none" stroke="white" stroke-width="1.5" d="M0,-3.0v7 M-2.5,-0.5L0,-3.0L2.5,-0.5"/>
                </g>
                <g id="arrowRight" xlink:href="#dirArrow" transform="rotate(90) translate(36 -43)" onmousedown="handlePan(1,0)">
                  <use xlink:href="#rim" fill="#404040">
                        <set attributeName="fill" to="#808080" begin="arrowRight.mouseover" end="arrowRight.mouseout"/>
                  </use>
                  <path fill="none" stroke="white" stroke-width="1.5" d="M0,-3.0v7 M-2.5,-0.5L0,-3.0L2.5,-0.5"/>
                </g>
                <g id="arrowDown" xlink:href="#dirArrow" transform="rotate(180) translate(-30 -48)" onmousedown="handlePan(0,1)">
                  <use xlink:href="#rim" fill="#404040">
                        <set attributeName="fill" to="#808080" begin="arrowDown.mouseover" end="arrowDown.mouseout"/>
                  </use>
                  <path fill="none" stroke="white" stroke-width="1.5" d="M0,-3.0v7 M-2.5,-0.5L0,-3.0L2.5,-0.5"/>
                </g>
                <g id="arrowLeft" xlink:href="#dirArrow" transform="rotate(270) translate(-36 17)" onmousedown="handlePan(-1,0)">
                  <use xlink:href="#rim" fill="#404040">
                        <set attributeName="fill" to="#808080" begin="arrowLeft.mouseover" end="arrowLeft.mouseout"/>
                  </use>
                  <path fill="none" stroke="white" stroke-width="1.5" d="M0,-3.0v7 M-2.5,-0.5L0,-3.0L2.5,-0.5"/>
                </g>
        </g>
        <svg viewBox="0 0 15 15" width="100%" height="30px" preserveAspectRatio="xMaxYMin meet">
         <g id="arrow_out" transform="scale(0.3 0.3)">
          <a xlink:href="structEigen_1_1internal_1_1FullReducer_a506159dc2c13ca4882575512f42f972f_cgraph_org.svg" target="_base">
           <rect id="button" ry="5" rx="5" y="6" x="6" height="38" width="38"
                fill="#f2f5e9" fill-opacity="0.5" stroke="#606060" stroke-width="1.0"/>
           <path id="arrow"
             d="M 11.500037,31.436501 C 11.940474,20.09759 22.043105,11.32322 32.158766,21.979434 L 37.068811,17.246167 C 37.068811,17.246167 37.088388,32 37.088388,32 L 22.160133,31.978069 C 22.160133,31.978069 26.997745,27.140456 26.997745,27.140456 C 18.528582,18.264221 13.291696,25.230495 11.500037,31.436501 z"
             style="fill:#404040;"/>
          </a>
         </g>
        </svg>
</svg>
