<?xml version="1.0" encoding="UTF-8" standalone="no"?>
<!DOCTYPE svg PUBLIC "-//W3C//DTD SVG 1.1//EN"
 "http://www.w3.org/Graphics/SVG/1.1/DTD/svg11.dtd">
<!-- Generated by graphviz version 2.38.0 (20140413.2041)
 -->
<!-- Title: Eigen::TensorSycl::internal::ExtractAccessor&lt; TensorEvaluator&lt; const BinaryCategory&lt; OP, LHSExpr, RHSExpr &gt;, Dev &gt; &gt;::getTuple Pages: 1 -->
<svg width="441pt" height="85pt"
 viewBox="0.00 0.00 441.00 85.00" xmlns="http://www.w3.org/2000/svg" xmlns:xlink="http://www.w3.org/1999/xlink">
<g id="graph0" class="graph" transform="scale(1 1) rotate(0) translate(4 81)">
<title>Eigen::TensorSycl::internal::ExtractAccessor&lt; TensorEvaluator&lt; const BinaryCategory&lt; OP, LHSExpr, RHSExpr &gt;, Dev &gt; &gt;::getTuple</title>
<!-- Node0 -->
<g id="node1" class="node"><title>Node0</title>
<polygon fill="#bfbfbf" stroke="black" points="0,-13.5 0,-76.5 167,-76.5 167,-13.5 0,-13.5"/>
<text text-anchor="start" x="8" y="-64.5" font-family="Helvetica,sans-Serif" font-size="10.00">Eigen::TensorSycl::</text>
<text text-anchor="start" x="8" y="-53.5" font-family="Helvetica,sans-Serif" font-size="10.00">internal::ExtractAccessor</text>
<text text-anchor="start" x="8" y="-42.5" font-family="Helvetica,sans-Serif" font-size="10.00">&lt; TensorEvaluator&lt; const</text>
<text text-anchor="start" x="8" y="-31.5" font-family="Helvetica,sans-Serif" font-size="10.00"> BinaryCategory&lt; OP, LHSExpr,</text>
<text text-anchor="middle" x="83.5" y="-20.5" font-family="Helvetica,sans-Serif" font-size="10.00"> RHSExpr &gt;, Dev &gt; &gt;::getTuple</text>
</g>
<!-- Node1 -->
<g id="node2" class="node"><title>Node1</title>
<g id="a_node2"><a xlink:href="sparse__permutations_8cpp.html#ad87822100feba90851ac71ba08fce30b" target="_top" xlink:title="eval">
<polygon fill="none" stroke="black" points="397,-35.5 397,-54.5 433,-54.5 433,-35.5 397,-35.5"/>
<text text-anchor="middle" x="415" y="-42.5" font-family="Helvetica,sans-Serif" font-size="10.00">eval</text>
</a>
</g>
</g>
<!-- Node0&#45;&gt;Node1 -->
<g id="edge1" class="edge"><title>Node0&#45;&gt;Node1</title>
<path fill="none" stroke="midnightblue" d="M167.133,-50.1584C222.115,-52.7624 295.923,-54.6719 361,-51 369.451,-50.5232 378.624,-49.6219 386.926,-48.6601"/>
<polygon fill="midnightblue" stroke="midnightblue" points="387.359,-52.1333 396.856,-47.4368 386.503,-45.1858 387.359,-52.1333"/>
</g>
<!-- Node2 -->
<g id="node3" class="node"><title>Node2</title>
<g id="a_node3"><a xlink:href="structEigen_1_1TensorSycl_1_1internal_1_1AccessorConstructor.html#a7afcb4b214e2371f61cdeb81eda14e5a" target="_top" xlink:title="Eigen::TensorSycl::\linternal::AccessorConstructor\l::getTuple">
<polygon fill="none" stroke="black" points="203,-0.5 203,-41.5 361,-41.5 361,-0.5 203,-0.5"/>
<text text-anchor="start" x="211" y="-29.5" font-family="Helvetica,sans-Serif" font-size="10.00">Eigen::TensorSycl::</text>
<text text-anchor="start" x="211" y="-18.5" font-family="Helvetica,sans-Serif" font-size="10.00">internal::AccessorConstructor</text>
<text text-anchor="middle" x="282" y="-7.5" font-family="Helvetica,sans-Serif" font-size="10.00">::getTuple</text>
</a>
</g>
</g>
<!-- Node0&#45;&gt;Node2 -->
<g id="edge2" class="edge"><title>Node0&#45;&gt;Node2</title>
<path fill="none" stroke="midnightblue" d="M167.264,-34.8914C175.616,-33.8714 184.121,-32.8326 192.529,-31.8056"/>
<polygon fill="midnightblue" stroke="midnightblue" points="193.219,-35.2475 202.72,-30.5609 192.37,-28.2991 193.219,-35.2475"/>
</g>
<!-- Node2&#45;&gt;Node1 -->
<g id="edge3" class="edge"><title>Node2&#45;&gt;Node1</title>
<path fill="none" stroke="midnightblue" d="M361.095,-35.3075C370.182,-36.9723 378.933,-38.5755 386.612,-39.9824"/>
<polygon fill="midnightblue" stroke="midnightblue" points="386.211,-43.4671 396.678,-41.8265 387.473,-36.5817 386.211,-43.4671"/>
</g>
</g>
</svg>
