<?xml version="1.0" encoding="UTF-8" standalone="no"?>
<!DOCTYPE svg PUBLIC "-//W3C//DTD SVG 1.1//EN"
 "http://www.w3.org/Graphics/SVG/1.1/DTD/svg11.dtd">
<!-- Generated by graphviz version 2.38.0 (20140413.2041)
 -->
<!-- Title: BallPointStuff::intersectVolumeVolume Pages: 1 -->
<svg width="730pt" height="39pt"
 viewBox="0.00 0.00 730.00 39.00" xmlns="http://www.w3.org/2000/svg" xmlns:xlink="http://www.w3.org/1999/xlink">
<g id="graph0" class="graph" transform="scale(1 1) rotate(0) translate(4 35)">
<title>BallPointStuff::intersectVolumeVolume</title>
<!-- Node28 -->
<g id="node1" class="node"><title>Node28</title>
<polygon fill="#bfbfbf" stroke="black" points="0,-0.5 0,-30.5 128,-30.5 128,-0.5 0,-0.5"/>
<text text-anchor="start" x="8" y="-18.5" font-family="Helvetica,sans-Serif" font-size="10.00">BallPointStuff::intersect</text>
<text text-anchor="middle" x="64" y="-7.5" font-family="Helvetica,sans-Serif" font-size="10.00">VolumeVolume</text>
</g>
<!-- Node29 -->
<g id="node2" class="node"><title>Node29</title>
<g id="a_node2"><a xlink:href="classEigen_1_1AlignedBox.html#ac31024e7fccb025810535eb5a673ed14" target="_top" xlink:title="Eigen::AlignedBox::\lintersection">
<polygon fill="none" stroke="black" points="164,-0.5 164,-30.5 272,-30.5 272,-0.5 164,-0.5"/>
<text text-anchor="start" x="172" y="-18.5" font-family="Helvetica,sans-Serif" font-size="10.00">Eigen::AlignedBox::</text>
<text text-anchor="middle" x="218" y="-7.5" font-family="Helvetica,sans-Serif" font-size="10.00">intersection</text>
</a>
</g>
</g>
<!-- Node28&#45;&gt;Node29 -->
<g id="edge1" class="edge"><title>Node28&#45;&gt;Node29</title>
<path fill="none" stroke="midnightblue" d="M128.141,-15.5C136.607,-15.5 145.293,-15.5 153.761,-15.5"/>
<polygon fill="midnightblue" stroke="midnightblue" points="153.953,-19.0001 163.953,-15.5 153.953,-12.0001 153.953,-19.0001"/>
</g>
<!-- Node30 -->
<g id="node3" class="node"><title>Node30</title>
<g id="a_node3"><a xlink:href="classEigen_1_1AlignedBox.html#aeb7682d3d8676752e9b789b51d950872" target="_top" xlink:title="Eigen::AlignedBox::\lAlignedBox">
<polygon fill="none" stroke="black" points="308,-0.5 308,-30.5 416,-30.5 416,-0.5 308,-0.5"/>
<text text-anchor="start" x="316" y="-18.5" font-family="Helvetica,sans-Serif" font-size="10.00">Eigen::AlignedBox::</text>
<text text-anchor="middle" x="362" y="-7.5" font-family="Helvetica,sans-Serif" font-size="10.00">AlignedBox</text>
</a>
</g>
</g>
<!-- Node29&#45;&gt;Node30 -->
<g id="edge2" class="edge"><title>Node29&#45;&gt;Node30</title>
<path fill="none" stroke="midnightblue" d="M272.28,-15.5C280.56,-15.5 289.184,-15.5 297.661,-15.5"/>
<polygon fill="midnightblue" stroke="midnightblue" points="297.894,-19.0001 307.894,-15.5 297.894,-12.0001 297.894,-19.0001"/>
</g>
<!-- Node31 -->
<g id="node4" class="node"><title>Node31</title>
<g id="a_node4"><a xlink:href="classEigen_1_1AlignedBox.html#ae946a0964de83d4e688fa462fe6d6725" target="_top" xlink:title="Eigen::AlignedBox::\lsetEmpty">
<polygon fill="none" stroke="black" points="452,-0.5 452,-30.5 560,-30.5 560,-0.5 452,-0.5"/>
<text text-anchor="start" x="460" y="-18.5" font-family="Helvetica,sans-Serif" font-size="10.00">Eigen::AlignedBox::</text>
<text text-anchor="middle" x="506" y="-7.5" font-family="Helvetica,sans-Serif" font-size="10.00">setEmpty</text>
</a>
</g>
</g>
<!-- Node30&#45;&gt;Node31 -->
<g id="edge3" class="edge"><title>Node30&#45;&gt;Node31</title>
<path fill="none" stroke="midnightblue" d="M416.28,-15.5C424.56,-15.5 433.184,-15.5 441.661,-15.5"/>
<polygon fill="midnightblue" stroke="midnightblue" points="441.894,-19.0001 451.894,-15.5 441.894,-12.0001 441.894,-19.0001"/>
</g>
<!-- Node32 -->
<g id="node5" class="node"><title>Node32</title>
<g id="a_node5"><a xlink:href="classEigen_1_1PlainObjectBase.html#ac8dea1df3d92b752cc683ff42abf6f9b" target="_top" xlink:title="Eigen::PlainObjectBase\l::setConstant">
<polygon fill="none" stroke="black" points="596,-0.5 596,-30.5 722,-30.5 722,-0.5 596,-0.5"/>
<text text-anchor="start" x="604" y="-18.5" font-family="Helvetica,sans-Serif" font-size="10.00">Eigen::PlainObjectBase</text>
<text text-anchor="middle" x="659" y="-7.5" font-family="Helvetica,sans-Serif" font-size="10.00">::setConstant</text>
</a>
</g>
</g>
<!-- Node31&#45;&gt;Node32 -->
<g id="edge4" class="edge"><title>Node31&#45;&gt;Node32</title>
<path fill="none" stroke="midnightblue" d="M560.237,-15.5C568.537,-15.5 577.231,-15.5 585.866,-15.5"/>
<polygon fill="midnightblue" stroke="midnightblue" points="585.949,-19.0001 595.949,-15.5 585.949,-12.0001 585.949,-19.0001"/>
</g>
</g>
</svg>
