<?xml version="1.0" encoding="UTF-8" standalone="no"?>
<!DOCTYPE svg PUBLIC "-//W3C//DTD SVG 1.1//EN"
 "http://www.w3.org/Graphics/SVG/1.1/DTD/svg11.dtd">
<!-- Generated by graphviz version 2.38.0 (20140413.2041)
 -->
<!-- Title: Eigen::TensorEvaluator&lt; Derived, Device &gt; Pages: 1 -->
<svg width="401pt" height="117pt"
 viewBox="0.00 0.00 401.00 117.00" xmlns="http://www.w3.org/2000/svg" xmlns:xlink="http://www.w3.org/1999/xlink">
<g id="graph0" class="graph" transform="scale(1 1) rotate(0) translate(4 113)">
<title>Eigen::TensorEvaluator&lt; Derived, Device &gt;</title>
<!-- Node1 -->
<g id="node1" class="node"><title>Node1</title>
<polygon fill="#bfbfbf" stroke="black" points="122,-0.5 122,-30.5 247,-30.5 247,-0.5 122,-0.5"/>
<text text-anchor="start" x="130" y="-18.5" font-family="Helvetica,sans-Serif" font-size="10.00">Eigen::TensorEvaluator</text>
<text text-anchor="middle" x="184.5" y="-7.5" font-family="Helvetica,sans-Serif" font-size="10.00">&lt; Derived, Device &gt;</text>
</g>
<!-- Node2 -->
<g id="node2" class="node"><title>Node2</title>
<polygon fill="none" stroke="#bfbfbf" points="0,-84 0,-103 49,-103 49,-84 0,-84"/>
<text text-anchor="middle" x="24.5" y="-91" font-family="Helvetica,sans-Serif" font-size="10.00">Device</text>
</g>
<!-- Node2&#45;&gt;Node1 -->
<g id="edge1" class="edge"><title>Node2&#45;&gt;Node1</title>
<path fill="none" stroke="#9a32cd" stroke-dasharray="5,2" d="M39.8229,-76.8009C49.5789,-67.5793 62.9021,-56.3311 76.5,-49 90.6329,-41.3804 106.793,-35.3076 122.231,-30.5725"/>
<polygon fill="#9a32cd" stroke="#9a32cd" points="37.2309,-74.4405 32.5392,-83.9399 42.1308,-79.4397 37.2309,-74.4405"/>
<text text-anchor="middle" x="101" y="-52" font-family="Helvetica,sans-Serif" font-size="10.00"> m_device</text>
</g>
<!-- Node3 -->
<g id="node3" class="node"><title>Node3</title>
<polygon fill="none" stroke="#bfbfbf" points="67,-84 67,-103 140,-103 140,-84 67,-84"/>
<text text-anchor="middle" x="103.5" y="-91" font-family="Helvetica,sans-Serif" font-size="10.00">Dimensions</text>
</g>
<!-- Node3&#45;&gt;Node1 -->
<g id="edge2" class="edge"><title>Node3&#45;&gt;Node1</title>
<path fill="none" stroke="#9a32cd" stroke-dasharray="5,2" d="M115.391,-75.5488C121.742,-67.0933 129.991,-56.9931 138.5,-49 145.627,-42.305 154.205,-35.8813 162.013,-30.5386"/>
<polygon fill="#9a32cd" stroke="#9a32cd" points="112.369,-73.7536 109.323,-83.901 118.032,-77.8683 112.369,-73.7536"/>
<text text-anchor="middle" x="159.5" y="-52" font-family="Helvetica,sans-Serif" font-size="10.00"> m_dims</text>
</g>
<!-- Node4 -->
<g id="node4" class="node"><title>Node4</title>
<polygon fill="none" stroke="#bfbfbf" points="158,-84 158,-103 211,-103 211,-84 158,-84"/>
<text text-anchor="middle" x="184.5" y="-91" font-family="Helvetica,sans-Serif" font-size="10.00">Derived</text>
</g>
<!-- Node4&#45;&gt;Node1 -->
<g id="edge3" class="edge"><title>Node4&#45;&gt;Node1</title>
<path fill="none" stroke="#9a32cd" stroke-dasharray="5,2" d="M184.5,-73.7816C184.5,-60.4036 184.5,-42.688 184.5,-30.5198"/>
<polygon fill="#9a32cd" stroke="#9a32cd" points="181,-73.7818 184.5,-83.7818 188,-73.7819 181,-73.7818"/>
<text text-anchor="middle" x="204" y="-52" font-family="Helvetica,sans-Serif" font-size="10.00"> m_impl</text>
</g>
<!-- Node5 -->
<g id="node5" class="node"><title>Node5</title>
<g id="a_node5"><a xlink:href="structEigen_1_1internal_1_1traits.html" target="_top" xlink:title="Eigen::internal::traits\l\&lt; Derived \&gt;">
<polygon fill="none" stroke="black" points="229.5,-78.5 229.5,-108.5 345.5,-108.5 345.5,-78.5 229.5,-78.5"/>
<text text-anchor="start" x="237.5" y="-96.5" font-family="Helvetica,sans-Serif" font-size="10.00">Eigen::internal::traits</text>
<text text-anchor="middle" x="287.5" y="-85.5" font-family="Helvetica,sans-Serif" font-size="10.00">&lt; Derived &gt;</text>
</a>
</g>
</g>
<!-- Node5&#45;&gt;Node1 -->
<g id="edge4" class="edge"><title>Node5&#45;&gt;Node1</title>
<path fill="none" stroke="#9a32cd" stroke-dasharray="5,2" d="M259.867,-72.1108C242.147,-59.0359 219.587,-42.3895 203.787,-30.7309"/>
<polygon fill="#9a32cd" stroke="#9a32cd" points="258.002,-75.0839 268.126,-78.205 262.158,-69.4513 258.002,-75.0839"/>
<text text-anchor="middle" x="262.5" y="-52" font-family="Helvetica,sans-Serif" font-size="10.00"> m_data</text>
</g>
<!-- Node6 -->
<g id="node6" class="node"><title>Node6</title>
<polygon fill="none" stroke="#bfbfbf" points="364,-84 364,-103 393,-103 393,-84 364,-84"/>
<text text-anchor="middle" x="378.5" y="-91" font-family="Helvetica,sans-Serif" font-size="10.00">int</text>
</g>
<!-- Node6&#45;&gt;Node1 -->
<g id="edge5" class="edge"><title>Node6&#45;&gt;Node1</title>
<path fill="none" stroke="#9a32cd" stroke-dasharray="5,2" d="M356.136,-78.8532C355.588,-78.5622 355.042,-78.2774 354.5,-78 315.39,-57.9711 268.214,-41.4558 233.492,-30.6013"/>
<polygon fill="#9a32cd" stroke="#9a32cd" points="354.558,-81.9821 364.982,-83.8802 358.017,-75.8962 354.558,-81.9821"/>
<text text-anchor="middle" x="345" y="-52" font-family="Helvetica,sans-Serif" font-size="10.00"> NumCoords</text>
</g>
</g>
</svg>
