<?xml version="1.0" encoding="UTF-8" standalone="no"?>
<!DOCTYPE svg PUBLIC "-//W3C//DTD SVG 1.1//EN"
 "http://www.w3.org/Graphics/SVG/1.1/DTD/svg11.dtd">
<!-- Generated by graphviz version 2.38.0 (20140413.2041)
 -->
<!-- Title: Eigen::internal::direct_selfadjoint_eigenvalues&lt; SolverType, 3, false &gt;::run Pages: 1 -->
<!--zoomable 557 -->
<svg id="main" version="1.1" xmlns="http://www.w3.org/2000/svg" xmlns:xlink="http://www.w3.org/1999/xlink" xml:space="preserve" onload="init(evt)">
<style type="text/css"><![CDATA[
.edge:hover path { stroke: red; }
.edge:hover polygon { stroke: red; fill: red; }
]]></style>
<script type="text/javascript"><![CDATA[
var edges = document.getElementsByTagName('g');
if (edges && edges.length) {
  for (var i=0;i<edges.length;i++) {
    if (edges[i].id.substr(0,4)=='edge') {
      edges[i].setAttribute('class','edge');
    }
  }
}
]]></script>
        <defs>
                <circle id="rim" cx="0" cy="0" r="7"/>
                <circle id="rim2" cx="0" cy="0" r="3.5"/>
                <g id="zoomPlus">
                        <use xlink:href="#rim" fill="#404040">
                                <set attributeName="fill" to="#808080" begin="zoomplus.mouseover" end="zoomplus.mouseout"/>
                        </use>
                        <path d="M-4,0h8M0,-4v8" fill="none" stroke="white" stroke-width="1.5" pointer-events="none"/>
                </g>
                <g id="zoomMin">
                        <use xlink:href="#rim" fill="#404040">
                                <set attributeName="fill" to="#808080" begin="zoomminus.mouseover" end="zoomminus.mouseout"/>
                        </use>
                        <path d="M-4,0h8" fill="none" stroke="white" stroke-width="1.5" pointer-events="none"/>
                </g>
                <g id="dirArrow">
                        <path fill="none" stroke="white" stroke-width="1.5" d="M0,-3.0v7 M-2.5,-0.5L0,-3.0L2.5,-0.5"/>
                </g>
               <g id="resetDef">
                       <use xlink:href="#rim2" fill="#404040">
                               <set attributeName="fill" to="#808080" begin="reset.mouseover" end="reset.mouseout"/>
                       </use>
               </g>
        </defs>

<script type="text/javascript">
var viewWidth = 609;
var viewHeight = 557;
var sectionId = 'dynsection-2';
</script>
<script xlink:href="svgpan.js"/>
<svg id="graph" class="graph">
<g id="viewport">
<title>Eigen::internal::direct_selfadjoint_eigenvalues&lt; SolverType, 3, false &gt;::run</title>
<!-- Node21 -->
<g id="node1" class="node"><title>Node21</title>
<polygon fill="#bfbfbf" stroke="black" points="0,-120.5 0,-161.5 152,-161.5 152,-120.5 0,-120.5"/>
<text text-anchor="start" x="8" y="-149.5" font-family="Helvetica,sans-Serif" font-size="10.00">Eigen::internal::direct</text>
<text text-anchor="start" x="8" y="-138.5" font-family="Helvetica,sans-Serif" font-size="10.00">_selfadjoint_eigenvalues</text>
<text text-anchor="middle" x="76" y="-127.5" font-family="Helvetica,sans-Serif" font-size="10.00">&lt; SolverType, 3, false &gt;::run</text>
</g>
<!-- Node22 -->
<g id="node2" class="node"><title>Node22</title>
<g id="a_node2"><a xlink:href="eig33_8cpp.html#a9b30d5945effb5111b5c9d18c4c241ee" target="_top" xlink:title="computeRoots">
<polygon fill="none" stroke="black" points="203,-161.5 203,-180.5 289,-180.5 289,-161.5 203,-161.5"/>
<text text-anchor="middle" x="246" y="-168.5" font-family="Helvetica,sans-Serif" font-size="10.00">computeRoots</text>
</a>
</g>
</g>
<!-- Node21&#45;&gt;Node22 -->
<g id="edge1" class="edge"><title>Node21&#45;&gt;Node22</title>
<path fill="none" stroke="midnightblue" d="M152.155,-154.421C165.805,-156.858 179.769,-159.352 192.585,-161.64"/>
<polygon fill="midnightblue" stroke="midnightblue" points="192.13,-165.114 202.59,-163.427 193.361,-158.223 192.13,-165.114"/>
</g>
<!-- Node38 -->
<g id="node18" class="node"><title>Node38</title>
<g id="a_node18"><a xlink:href="namespaceEigen_1_1numext.html#a3b617b6220683f86218071c40c41d381" target="_top" xlink:title="Eigen::numext::swap">
<polygon fill="none" stroke="black" points="188,-72.5 188,-91.5 304,-91.5 304,-72.5 188,-72.5"/>
<text text-anchor="middle" x="246" y="-79.5" font-family="Helvetica,sans-Serif" font-size="10.00">Eigen::numext::swap</text>
</a>
</g>
</g>
<!-- Node21&#45;&gt;Node38 -->
<g id="edge19" class="edge"><title>Node21&#45;&gt;Node38</title>
<path fill="none" stroke="midnightblue" d="M135.758,-120.365C159.774,-111.931 186.824,-102.431 207.998,-94.9946"/>
<polygon fill="midnightblue" stroke="midnightblue" points="209.306,-98.2451 217.581,-91.6292 206.986,-91.6405 209.306,-98.2451"/>
</g>
<!-- Node23 -->
<g id="node3" class="node"><title>Node23</title>
<g id="a_node3"><a xlink:href="namespaceEigen.html#a005dd347b005fd91307df49f89186e06" target="_top" xlink:title="Eigen::atan2">
<polygon fill="none" stroke="black" points="340,-262.5 340,-281.5 417,-281.5 417,-262.5 340,-262.5"/>
<text text-anchor="middle" x="378.5" y="-269.5" font-family="Helvetica,sans-Serif" font-size="10.00">Eigen::atan2</text>
</a>
</g>
</g>
<!-- Node22&#45;&gt;Node23 -->
<g id="edge2" class="edge"><title>Node22&#45;&gt;Node23</title>
<path fill="none" stroke="midnightblue" d="M259.513,-180.684C282.078,-198.149 329.778,-235.066 357.114,-256.222"/>
<polygon fill="midnightblue" stroke="midnightblue" points="355.165,-259.14 365.216,-262.492 359.45,-253.604 355.165,-259.14"/>
</g>
<!-- Node27 -->
<g id="node7" class="node"><title>Node27</title>
<g id="a_node7"><a xlink:href="ArrayCwiseUnaryOps_8h.html#a92b03396990b0e9eea0731aa406e31a4" target="_top" xlink:title="cos">
<polygon fill="none" stroke="black" points="510.5,-529.5 510.5,-548.5 543.5,-548.5 543.5,-529.5 510.5,-529.5"/>
<text text-anchor="middle" x="527" y="-536.5" font-family="Helvetica,sans-Serif" font-size="10.00">cos</text>
</a>
</g>
</g>
<!-- Node22&#45;&gt;Node27 -->
<g id="edge16" class="edge"><title>Node22&#45;&gt;Node27</title>
<path fill="none" stroke="midnightblue" d="M249.681,-180.613C262.977,-226.445 326.322,-424.476 453,-520 466.547,-530.215 485.078,-534.957 500.08,-537.149"/>
<polygon fill="midnightblue" stroke="midnightblue" points="499.919,-540.654 510.257,-538.337 500.73,-533.701 499.919,-540.654"/>
</g>
<!-- Node33 -->
<g id="node13" class="node"><title>Node33</title>
<g id="a_node13"><a xlink:href="ArrayCwiseUnaryOps_8h.html#a656b9217a2fcb6de59dc8d1eb3079cc7" target="_top" xlink:title="sqrt">
<polygon fill="none" stroke="black" points="509.5,-38.5 509.5,-57.5 544.5,-57.5 544.5,-38.5 509.5,-38.5"/>
<text text-anchor="middle" x="527" y="-45.5" font-family="Helvetica,sans-Serif" font-size="10.00">sqrt</text>
</a>
</g>
</g>
<!-- Node22&#45;&gt;Node33 -->
<g id="edge18" class="edge"><title>Node22&#45;&gt;Node33</title>
<path fill="none" stroke="midnightblue" d="M289.36,-177.407C326.616,-180.653 380.456,-179.251 417,-152 449.889,-127.475 421.951,-93.8169 453,-67 465.681,-56.0477 483.92,-51.2971 498.995,-49.2849"/>
<polygon fill="midnightblue" stroke="midnightblue" points="499.686,-52.7332 509.288,-48.2541 498.989,-45.7681 499.686,-52.7332"/>
</g>
<!-- Node37 -->
<g id="node17" class="node"><title>Node37</title>
<g id="a_node17"><a xlink:href="ArrayCwiseUnaryOps_8h.html#a9cfb0ea58bd813510a9e2db18a5e49f0" target="_top" xlink:title="sin">
<polygon fill="none" stroke="black" points="363.5,-123.5 363.5,-142.5 393.5,-142.5 393.5,-123.5 363.5,-123.5"/>
<text text-anchor="middle" x="378.5" y="-130.5" font-family="Helvetica,sans-Serif" font-size="10.00">sin</text>
</a>
</g>
</g>
<!-- Node22&#45;&gt;Node37 -->
<g id="edge17" class="edge"><title>Node22&#45;&gt;Node37</title>
<path fill="none" stroke="midnightblue" d="M279.931,-161.411C302.821,-154.746 332.811,-146.013 353.468,-139.998"/>
<polygon fill="midnightblue" stroke="midnightblue" points="354.71,-143.282 363.333,-137.125 352.753,-136.561 354.71,-143.282"/>
</g>
<!-- Node24 -->
<g id="node4" class="node"><title>Node24</title>
<g id="a_node4"><a xlink:href="ArrayCwiseUnaryOps_8h.html#a4921dbe62d034394f6fa7810e8711356" target="_top" xlink:title="abs2">
<polygon fill="none" stroke="black" points="507,-491.5 507,-510.5 547,-510.5 547,-491.5 507,-491.5"/>
<text text-anchor="middle" x="527" y="-498.5" font-family="Helvetica,sans-Serif" font-size="10.00">abs2</text>
</a>
</g>
</g>
<!-- Node23&#45;&gt;Node24 -->
<g id="edge3" class="edge"><title>Node23&#45;&gt;Node24</title>
<path fill="none" stroke="midnightblue" d="M381.598,-281.583C389.929,-318.813 421.748,-453.213 453,-482 464.781,-492.852 481.969,-497.672 496.708,-499.746"/>
<polygon fill="midnightblue" stroke="midnightblue" points="496.583,-503.252 506.894,-500.818 497.316,-496.29 496.583,-503.252"/>
</g>
<!-- Node25 -->
<g id="node5" class="node"><title>Node25</title>
<g id="a_node5"><a xlink:href="ArrayCwiseUnaryOps_8h.html#a4ae93c48c742ccd51e0ec59fa85b49bd" target="_top" xlink:title="acos">
<polygon fill="none" stroke="black" points="507.5,-453.5 507.5,-472.5 546.5,-472.5 546.5,-453.5 507.5,-453.5"/>
<text text-anchor="middle" x="527" y="-460.5" font-family="Helvetica,sans-Serif" font-size="10.00">acos</text>
</a>
</g>
</g>
<!-- Node23&#45;&gt;Node25 -->
<g id="edge4" class="edge"><title>Node23&#45;&gt;Node25</title>
<path fill="none" stroke="midnightblue" d="M380.644,-281.516C384.66,-310.604 400.827,-399.084 453,-444 465.219,-454.519 482.569,-459.315 497.289,-461.46"/>
<polygon fill="midnightblue" stroke="midnightblue" points="497.104,-464.961 507.432,-462.596 497.884,-458.004 497.104,-464.961"/>
</g>
<!-- Node26 -->
<g id="node6" class="node"><title>Node26</title>
<g id="a_node6"><a xlink:href="ArrayCwiseUnaryOps_8h.html#a65b7255208b30e0a3a5a0389b77465db" target="_top" xlink:title="asin">
<polygon fill="none" stroke="black" points="509,-415.5 509,-434.5 545,-434.5 545,-415.5 509,-415.5"/>
<text text-anchor="middle" x="527" y="-422.5" font-family="Helvetica,sans-Serif" font-size="10.00">asin</text>
</a>
</g>
</g>
<!-- Node23&#45;&gt;Node26 -->
<g id="edge5" class="edge"><title>Node23&#45;&gt;Node26</title>
<path fill="none" stroke="midnightblue" d="M381.98,-281.855C388.772,-306.753 410.091,-372.57 453,-406 466.051,-416.168 484,-420.928 498.833,-423.14"/>
<polygon fill="midnightblue" stroke="midnightblue" points="498.626,-426.64 508.969,-424.343 499.451,-419.689 498.626,-426.64"/>
</g>
<!-- Node23&#45;&gt;Node27 -->
<g id="edge6" class="edge"><title>Node23&#45;&gt;Node27</title>
<path fill="none" stroke="midnightblue" d="M381.742,-281.545C392.016,-324.965 434.882,-502.479 453,-520 465.544,-532.131 484.807,-536.781 500.396,-538.451"/>
<polygon fill="midnightblue" stroke="midnightblue" points="500.246,-541.949 510.474,-539.187 500.756,-534.968 500.246,-541.949"/>
</g>
<!-- Node28 -->
<g id="node8" class="node"><title>Node28</title>
<g id="a_node8"><a xlink:href="ArrayCwiseUnaryOps_8h.html#ada19e3b661917a4cd32736c1cead1a04" target="_top" xlink:title="cosh">
<polygon fill="none" stroke="black" points="507.5,-377.5 507.5,-396.5 546.5,-396.5 546.5,-377.5 507.5,-377.5"/>
<text text-anchor="middle" x="527" y="-384.5" font-family="Helvetica,sans-Serif" font-size="10.00">cosh</text>
</a>
</g>
</g>
<!-- Node23&#45;&gt;Node28 -->
<g id="edge7" class="edge"><title>Node23&#45;&gt;Node28</title>
<path fill="none" stroke="midnightblue" d="M384.071,-281.599C393.848,-301.061 418.722,-345.247 453,-368 466.042,-376.657 482.82,-381.372 497.002,-383.939"/>
<polygon fill="midnightblue" stroke="midnightblue" points="496.82,-387.452 507.235,-385.513 497.884,-380.533 496.82,-387.452"/>
</g>
<!-- Node29 -->
<g id="node9" class="node"><title>Node29</title>
<g id="a_node9"><a xlink:href="classEigen_1_1AutoDiffScalar.html#a751db20e34259b41b88a6358ef20e857" target="_top" xlink:title="Eigen::AutoDiffScalar\l::derivatives">
<polygon fill="none" stroke="black" points="468.5,-328 468.5,-358 585.5,-358 585.5,-328 468.5,-328"/>
<text text-anchor="start" x="476.5" y="-346" font-family="Helvetica,sans-Serif" font-size="10.00">Eigen::AutoDiffScalar</text>
<text text-anchor="middle" x="527" y="-335" font-family="Helvetica,sans-Serif" font-size="10.00">::derivatives</text>
</a>
</g>
</g>
<!-- Node23&#45;&gt;Node29 -->
<g id="edge8" class="edge"><title>Node23&#45;&gt;Node29</title>
<path fill="none" stroke="midnightblue" d="M392.201,-281.531C406.417,-291.855 430.424,-308.281 453,-319 456.864,-320.835 460.905,-322.586 465.019,-324.247"/>
<polygon fill="midnightblue" stroke="midnightblue" points="464.108,-327.646 474.698,-327.952 466.61,-321.108 464.108,-327.646"/>
</g>
<!-- Node30 -->
<g id="node10" class="node"><title>Node30</title>
<g id="a_node10"><a xlink:href="namespaceEigen.html#ade972f79dcb91f919a4a9939178e1024" target="_top" xlink:title="Eigen::EIGEN_AUTODIFF\l_DECLARE_GLOBAL_UNARY">
<polygon fill="none" stroke="black" points="453,-279 453,-309 601,-309 601,-279 453,-279"/>
<text text-anchor="start" x="461" y="-297" font-family="Helvetica,sans-Serif" font-size="10.00">Eigen::EIGEN_AUTODIFF</text>
<text text-anchor="middle" x="527" y="-286" font-family="Helvetica,sans-Serif" font-size="10.00">_DECLARE_GLOBAL_UNARY</text>
</a>
</g>
</g>
<!-- Node23&#45;&gt;Node30 -->
<g id="edge9" class="edge"><title>Node23&#45;&gt;Node30</title>
<path fill="none" stroke="midnightblue" d="M417.227,-277.666C425.173,-278.859 433.855,-280.163 442.737,-281.496"/>
<polygon fill="midnightblue" stroke="midnightblue" points="442.413,-284.987 452.822,-283.011 443.453,-278.064 442.413,-284.987"/>
</g>
<!-- Node31 -->
<g id="node11" class="node"><title>Node31</title>
<g id="a_node11"><a xlink:href="namespaceEigen.html#af2ab563fb98de79fa59e7f78e37591ab" target="_top" xlink:title="Eigen::MakeAutoDiffScalar">
<polygon fill="none" stroke="black" points="455.5,-240.5 455.5,-259.5 598.5,-259.5 598.5,-240.5 455.5,-240.5"/>
<text text-anchor="middle" x="527" y="-247.5" font-family="Helvetica,sans-Serif" font-size="10.00">Eigen::MakeAutoDiffScalar</text>
</a>
</g>
</g>
<!-- Node23&#45;&gt;Node31 -->
<g id="edge10" class="edge"><title>Node23&#45;&gt;Node31</title>
<path fill="none" stroke="midnightblue" d="M417.227,-266.334C428.023,-264.713 440.178,-262.888 452.347,-261.06"/>
<polygon fill="midnightblue" stroke="midnightblue" points="453.174,-264.476 462.543,-259.529 452.135,-257.553 453.174,-264.476"/>
</g>
<!-- Node32 -->
<g id="node12" class="node"><title>Node32</title>
<g id="a_node12"><a xlink:href="ArrayCwiseUnaryOps_8h.html#a2a79b4dc952416cf485d5f84af4c798e" target="_top" xlink:title="sinh">
<polygon fill="none" stroke="black" points="509,-202.5 509,-221.5 545,-221.5 545,-202.5 509,-202.5"/>
<text text-anchor="middle" x="527" y="-209.5" font-family="Helvetica,sans-Serif" font-size="10.00">sinh</text>
</a>
</g>
</g>
<!-- Node23&#45;&gt;Node32 -->
<g id="edge11" class="edge"><title>Node23&#45;&gt;Node32</title>
<path fill="none" stroke="midnightblue" d="M394.148,-262.356C408.599,-253.202 431.576,-239.6 453,-231 467.721,-225.091 484.853,-220.52 498.82,-217.344"/>
<polygon fill="midnightblue" stroke="midnightblue" points="499.757,-220.722 508.792,-215.188 498.278,-213.88 499.757,-220.722"/>
</g>
<!-- Node23&#45;&gt;Node33 -->
<g id="edge12" class="edge"><title>Node23&#45;&gt;Node33</title>
<path fill="none" stroke="midnightblue" d="M384.015,-262.485C391.443,-246.634 406.466,-213.721 417,-185 435.881,-133.522 413.433,-104.959 453,-67 465.285,-55.2141 483.918,-50.4987 499.284,-48.712"/>
<polygon fill="midnightblue" stroke="midnightblue" points="499.601,-52.1978 509.281,-47.8921 499.029,-45.2213 499.601,-52.1978"/>
</g>
<!-- Node34 -->
<g id="node14" class="node"><title>Node34</title>
<g id="a_node14"><a xlink:href="ArrayCwiseUnaryOps_8h.html#a0c32a3874bfc5438d11b75c9f40256d1" target="_top" xlink:title="tan">
<polygon fill="none" stroke="black" points="511,-164.5 511,-183.5 543,-183.5 543,-164.5 511,-164.5"/>
<text text-anchor="middle" x="527" y="-171.5" font-family="Helvetica,sans-Serif" font-size="10.00">tan</text>
</a>
</g>
</g>
<!-- Node23&#45;&gt;Node34 -->
<g id="edge13" class="edge"><title>Node23&#45;&gt;Node34</title>
<path fill="none" stroke="midnightblue" d="M385.721,-262.327C397.024,-245.557 422.596,-211.144 453,-193 467.569,-184.306 486.088,-179.545 500.828,-176.964"/>
<polygon fill="midnightblue" stroke="midnightblue" points="501.425,-180.413 510.782,-175.444 500.369,-173.493 501.425,-180.413"/>
</g>
<!-- Node35 -->
<g id="node15" class="node"><title>Node35</title>
<g id="a_node15"><a xlink:href="ArrayCwiseUnaryOps_8h.html#ad7864d65f1037041e3f06ee1a8a5ae1e" target="_top" xlink:title="tanh">
<polygon fill="none" stroke="black" points="508,-126.5 508,-145.5 546,-145.5 546,-126.5 508,-126.5"/>
<text text-anchor="middle" x="527" y="-133.5" font-family="Helvetica,sans-Serif" font-size="10.00">tanh</text>
</a>
</g>
</g>
<!-- Node23&#45;&gt;Node35 -->
<g id="edge14" class="edge"><title>Node23&#45;&gt;Node35</title>
<path fill="none" stroke="midnightblue" d="M382.714,-262.401C390.747,-239.927 413.911,-183.636 453,-155 466.007,-145.472 483.387,-140.714 497.926,-138.341"/>
<polygon fill="midnightblue" stroke="midnightblue" points="498.462,-141.801 507.907,-137.002 497.53,-134.863 498.462,-141.801"/>
</g>
<!-- Node36 -->
<g id="node16" class="node"><title>Node36</title>
<g id="a_node16"><a xlink:href="classEigen_1_1AutoDiffScalar.html#a3fb25233941b46affc60c9569829656b" target="_top" xlink:title="Eigen::AutoDiffScalar\l::value">
<polygon fill="none" stroke="black" points="468.5,-77 468.5,-107 585.5,-107 585.5,-77 468.5,-77"/>
<text text-anchor="start" x="476.5" y="-95" font-family="Helvetica,sans-Serif" font-size="10.00">Eigen::AutoDiffScalar</text>
<text text-anchor="middle" x="527" y="-84" font-family="Helvetica,sans-Serif" font-size="10.00">::value</text>
</a>
</g>
</g>
<!-- Node23&#45;&gt;Node36 -->
<g id="edge15" class="edge"><title>Node23&#45;&gt;Node36</title>
<path fill="none" stroke="midnightblue" d="M383.633,-262.167C397.333,-229.743 441.061,-127.663 453,-117 454.967,-115.243 457.063,-113.609 459.257,-112.088"/>
<polygon fill="midnightblue" stroke="midnightblue" points="461.356,-114.911 468.137,-106.771 457.76,-108.906 461.356,-114.911"/>
</g>
<!-- Node39 -->
<g id="node19" class="node"><title>Node39</title>
<g id="a_node19"><a xlink:href="namespacestd.html#ad33a269e67f055aaa18f57f76b015387" target="_top" xlink:title="std::swap">
<polygon fill="none" stroke="black" points="347.5,-43.5 347.5,-62.5 409.5,-62.5 409.5,-43.5 347.5,-43.5"/>
<text text-anchor="middle" x="378.5" y="-50.5" font-family="Helvetica,sans-Serif" font-size="10.00">std::swap</text>
</a>
</g>
</g>
<!-- Node38&#45;&gt;Node39 -->
<g id="edge20" class="edge"><title>Node38&#45;&gt;Node39</title>
<path fill="none" stroke="midnightblue" d="M290.092,-72.4239C305.293,-69.0459 322.315,-65.2634 337.27,-61.94"/>
<polygon fill="midnightblue" stroke="midnightblue" points="338.243,-65.3093 347.245,-59.7232 336.724,-58.4759 338.243,-65.3093"/>
</g>
<!-- Node40 -->
<g id="node20" class="node"><title>Node40</title>
<g id="a_node20"><a xlink:href="namespacempfr.html#aa617cb4d22ad8120d69f10b306b97f19" target="_top" xlink:title="mpfr::swap">
<polygon fill="none" stroke="black" points="492.5,-0.5 492.5,-19.5 561.5,-19.5 561.5,-0.5 492.5,-0.5"/>
<text text-anchor="middle" x="527" y="-7.5" font-family="Helvetica,sans-Serif" font-size="10.00">mpfr::swap</text>
</a>
</g>
</g>
<!-- Node39&#45;&gt;Node40 -->
<g id="edge21" class="edge"><title>Node39&#45;&gt;Node40</title>
<path fill="none" stroke="midnightblue" d="M407.297,-43.4806C420.996,-38.9025 437.8,-33.4553 453,-29 462.514,-26.2115 472.784,-23.4107 482.532,-20.8487"/>
<polygon fill="midnightblue" stroke="midnightblue" points="483.648,-24.1753 492.448,-18.2758 481.889,-17.3997 483.648,-24.1753"/>
</g>
</g>
</svg>
        <g id="navigator" transform="translate(0 0)" fill="#404254">
                <rect fill="#f2f5e9" fill-opacity="0.5" stroke="#606060" stroke-width=".5" x="0" y="0" width="60" height="60"/>
                <use id="zoomplus" xlink:href="#zoomPlus" x="17" y="9" onmousedown="handleZoom(evt,'in')"/>
                <use id="zoomminus" xlink:href="#zoomMin" x="42" y="9" onmousedown="handleZoom(evt,'out')"/>
                <use id="reset" xlink:href="#resetDef" x="30" y="36" onmousedown="handleReset()"/>
                <g id="arrowUp" xlink:href="#dirArrow" transform="translate(30 24)" onmousedown="handlePan(0,-1)">
                  <use xlink:href="#rim" fill="#404040">
                        <set attributeName="fill" to="#808080" begin="arrowUp.mouseover" end="arrowUp.mouseout"/>
                  </use>
                  <path fill="none" stroke="white" stroke-width="1.5" d="M0,-3.0v7 M-2.5,-0.5L0,-3.0L2.5,-0.5"/>
                </g>
                <g id="arrowRight" xlink:href="#dirArrow" transform="rotate(90) translate(36 -43)" onmousedown="handlePan(1,0)">
                  <use xlink:href="#rim" fill="#404040">
                        <set attributeName="fill" to="#808080" begin="arrowRight.mouseover" end="arrowRight.mouseout"/>
                  </use>
                  <path fill="none" stroke="white" stroke-width="1.5" d="M0,-3.0v7 M-2.5,-0.5L0,-3.0L2.5,-0.5"/>
                </g>
                <g id="arrowDown" xlink:href="#dirArrow" transform="rotate(180) translate(-30 -48)" onmousedown="handlePan(0,1)">
                  <use xlink:href="#rim" fill="#404040">
                        <set attributeName="fill" to="#808080" begin="arrowDown.mouseover" end="arrowDown.mouseout"/>
                  </use>
                  <path fill="none" stroke="white" stroke-width="1.5" d="M0,-3.0v7 M-2.5,-0.5L0,-3.0L2.5,-0.5"/>
                </g>
                <g id="arrowLeft" xlink:href="#dirArrow" transform="rotate(270) translate(-36 17)" onmousedown="handlePan(-1,0)">
                  <use xlink:href="#rim" fill="#404040">
                        <set attributeName="fill" to="#808080" begin="arrowLeft.mouseover" end="arrowLeft.mouseout"/>
                  </use>
                  <path fill="none" stroke="white" stroke-width="1.5" d="M0,-3.0v7 M-2.5,-0.5L0,-3.0L2.5,-0.5"/>
                </g>
        </g>
        <svg viewBox="0 0 15 15" width="100%" height="30px" preserveAspectRatio="xMaxYMin meet">
         <g id="arrow_out" transform="scale(0.3 0.3)">
          <a xlink:href="structEigen_1_1internal_1_1direct__selfadjoint__eigenvalues_3_01SolverType_00_013_00_01false_01_4_a9bba7b5bd5aeb6d3ede0cd70ed18f231_cgraph_org.svg" target="_base">
           <rect id="button" ry="5" rx="5" y="6" x="6" height="38" width="38"
                fill="#f2f5e9" fill-opacity="0.5" stroke="#606060" stroke-width="1.0"/>
           <path id="arrow"
             d="M 11.500037,31.436501 C 11.940474,20.09759 22.043105,11.32322 32.158766,21.979434 L 37.068811,17.246167 C 37.068811,17.246167 37.088388,32 37.088388,32 L 22.160133,31.978069 C 22.160133,31.978069 26.997745,27.140456 26.997745,27.140456 C 18.528582,18.264221 13.291696,25.230495 11.500037,31.436501 z"
             style="fill:#404040;"/>
          </a>
         </g>
        </svg>
</svg>
