<?xml version="1.0" encoding="UTF-8" standalone="no"?>
<!DOCTYPE svg PUBLIC "-//W3C//DTD SVG 1.1//EN"
 "http://www.w3.org/Graphics/SVG/1.1/DTD/svg11.dtd">
<!-- Generated by graphviz version 2.38.0 (20140413.2041)
 -->
<!-- Title: Eigen::internal::make_coherent_impl&lt; A, Matrix&lt; B_Scalar, B_Rows, B_Cols, B_Options, B_MaxRows, B_MaxCols &gt; &gt;::run Pages: 1 -->
<svg width="357pt" height="88pt"
 viewBox="0.00 0.00 357.00 88.00" xmlns="http://www.w3.org/2000/svg" xmlns:xlink="http://www.w3.org/1999/xlink">
<g id="graph0" class="graph" transform="scale(1 1) rotate(0) translate(4 84)">
<title>Eigen::internal::make_coherent_impl&lt; A, Matrix&lt; B_Scalar, B_Rows, B_Cols, B_Options, B_MaxRows, B_MaxCols &gt; &gt;::run</title>
<!-- Node0 -->
<g id="node1" class="node"><title>Node0</title>
<polygon fill="#bfbfbf" stroke="black" points="0,-8 0,-71 187,-71 187,-8 0,-8"/>
<text text-anchor="start" x="8" y="-59" font-family="Helvetica,sans-Serif" font-size="10.00">Eigen::internal::make</text>
<text text-anchor="start" x="8" y="-48" font-family="Helvetica,sans-Serif" font-size="10.00">_coherent_impl&lt; A, Matrix</text>
<text text-anchor="start" x="8" y="-37" font-family="Helvetica,sans-Serif" font-size="10.00">&lt; B_Scalar, B_Rows, B_Cols,</text>
<text text-anchor="start" x="8" y="-26" font-family="Helvetica,sans-Serif" font-size="10.00"> B_Options, B_MaxRows, B_MaxCols</text>
<text text-anchor="middle" x="93.5" y="-15" font-family="Helvetica,sans-Serif" font-size="10.00"> &gt; &gt;::run</text>
</g>
<!-- Node1 -->
<g id="node2" class="node"><title>Node1</title>
<g id="a_node2"><a xlink:href="classEigen_1_1PlainObjectBase.html#a99d9054ee2d5a40c6e00ded0265e9cea" target="_top" xlink:title="Eigen::PlainObjectBase\l::resize">
<polygon fill="none" stroke="black" points="223,-49.5 223,-79.5 349,-79.5 349,-49.5 223,-49.5"/>
<text text-anchor="start" x="231" y="-67.5" font-family="Helvetica,sans-Serif" font-size="10.00">Eigen::PlainObjectBase</text>
<text text-anchor="middle" x="286" y="-56.5" font-family="Helvetica,sans-Serif" font-size="10.00">::resize</text>
</a>
</g>
</g>
<!-- Node0&#45;&gt;Node1 -->
<g id="edge1" class="edge"><title>Node0&#45;&gt;Node1</title>
<path fill="none" stroke="midnightblue" d="M187.239,-51.6704C195.85,-52.8005 204.488,-53.9341 212.871,-55.0343"/>
<polygon fill="midnightblue" stroke="midnightblue" points="212.582,-58.5263 222.953,-56.3573 213.493,-51.5858 212.582,-58.5263"/>
</g>
<!-- Node2 -->
<g id="node3" class="node"><title>Node2</title>
<g id="a_node3"><a xlink:href="classEigen_1_1PlainObjectBase.html#ac21ad5f989f320e46958b75ac8d9a1da" target="_top" xlink:title="Eigen::PlainObjectBase\l::setZero">
<polygon fill="none" stroke="black" points="223,-0.5 223,-30.5 349,-30.5 349,-0.5 223,-0.5"/>
<text text-anchor="start" x="231" y="-18.5" font-family="Helvetica,sans-Serif" font-size="10.00">Eigen::PlainObjectBase</text>
<text text-anchor="middle" x="286" y="-7.5" font-family="Helvetica,sans-Serif" font-size="10.00">::setZero</text>
</a>
</g>
</g>
<!-- Node0&#45;&gt;Node2 -->
<g id="edge2" class="edge"><title>Node0&#45;&gt;Node2</title>
<path fill="none" stroke="midnightblue" d="M187.239,-27.8164C195.85,-26.7316 204.488,-25.6433 212.871,-24.5871"/>
<polygon fill="midnightblue" stroke="midnightblue" points="213.469,-28.0396 222.953,-23.317 212.594,-21.0945 213.469,-28.0396"/>
</g>
</g>
</svg>
