<?xml version="1.0" encoding="UTF-8" standalone="no"?>
<!DOCTYPE svg PUBLIC "-//W3C//DTD SVG 1.1//EN"
 "http://www.w3.org/Graphics/SVG/1.1/DTD/svg11.dtd">
<!-- Generated by graphviz version 2.38.0 (20140413.2041)
 -->
<!-- Title: Eigen::TensorSycl::internal::ExtractAccessor&lt; TensorEvaluator&lt; const TernaryCategory&lt; OP, Arg1Expr, Arg2Expr, Arg3Expr &gt;, Dev &gt; &gt;::getTuple Pages: 1 -->
<svg width="449pt" height="90pt"
 viewBox="0.00 0.00 449.00 90.50" xmlns="http://www.w3.org/2000/svg" xmlns:xlink="http://www.w3.org/1999/xlink">
<g id="graph0" class="graph" transform="scale(1 1) rotate(0) translate(4 86.5)">
<title>Eigen::TensorSycl::internal::ExtractAccessor&lt; TensorEvaluator&lt; const TernaryCategory&lt; OP, Arg1Expr, Arg2Expr, Arg3Expr &gt;, Dev &gt; &gt;::getTuple</title>
<!-- Node0 -->
<g id="node1" class="node"><title>Node0</title>
<polygon fill="#bfbfbf" stroke="black" points="0,-8 0,-82 175,-82 175,-8 0,-8"/>
<text text-anchor="start" x="8" y="-70" font-family="Helvetica,sans-Serif" font-size="10.00">Eigen::TensorSycl::</text>
<text text-anchor="start" x="8" y="-59" font-family="Helvetica,sans-Serif" font-size="10.00">internal::ExtractAccessor</text>
<text text-anchor="start" x="8" y="-48" font-family="Helvetica,sans-Serif" font-size="10.00">&lt; TensorEvaluator&lt; const</text>
<text text-anchor="start" x="8" y="-37" font-family="Helvetica,sans-Serif" font-size="10.00"> TernaryCategory&lt; OP, Arg1Expr,</text>
<text text-anchor="start" x="8" y="-26" font-family="Helvetica,sans-Serif" font-size="10.00"> Arg2Expr, Arg3Expr &gt;, Dev &gt;</text>
<text text-anchor="middle" x="87.5" y="-15" font-family="Helvetica,sans-Serif" font-size="10.00"> &gt;::getTuple</text>
</g>
<!-- Node1 -->
<g id="node2" class="node"><title>Node1</title>
<g id="a_node2"><a xlink:href="sparse__permutations_8cpp.html#ad87822100feba90851ac71ba08fce30b" target="_top" xlink:title="eval">
<polygon fill="none" stroke="black" points="405,-35.5 405,-54.5 441,-54.5 441,-35.5 405,-35.5"/>
<text text-anchor="middle" x="423" y="-42.5" font-family="Helvetica,sans-Serif" font-size="10.00">eval</text>
</a>
</g>
</g>
<!-- Node0&#45;&gt;Node1 -->
<g id="edge1" class="edge"><title>Node0&#45;&gt;Node1</title>
<path fill="none" stroke="midnightblue" d="M175.118,-50.3231C230.586,-52.8741 304.077,-54.6632 369,-51 377.451,-50.5232 386.624,-49.6219 394.926,-48.6601"/>
<polygon fill="midnightblue" stroke="midnightblue" points="395.359,-52.1333 404.856,-47.4368 394.503,-45.1858 395.359,-52.1333"/>
</g>
<!-- Node2 -->
<g id="node3" class="node"><title>Node2</title>
<g id="a_node3"><a xlink:href="structEigen_1_1TensorSycl_1_1internal_1_1AccessorConstructor.html#a7afcb4b214e2371f61cdeb81eda14e5a" target="_top" xlink:title="Eigen::TensorSycl::\linternal::AccessorConstructor\l::getTuple">
<polygon fill="none" stroke="black" points="211,-0.5 211,-41.5 369,-41.5 369,-0.5 211,-0.5"/>
<text text-anchor="start" x="219" y="-29.5" font-family="Helvetica,sans-Serif" font-size="10.00">Eigen::TensorSycl::</text>
<text text-anchor="start" x="219" y="-18.5" font-family="Helvetica,sans-Serif" font-size="10.00">internal::AccessorConstructor</text>
<text text-anchor="middle" x="290" y="-7.5" font-family="Helvetica,sans-Serif" font-size="10.00">::getTuple</text>
</a>
</g>
</g>
<!-- Node0&#45;&gt;Node2 -->
<g id="edge2" class="edge"><title>Node0&#45;&gt;Node2</title>
<path fill="none" stroke="midnightblue" d="M175.276,-34.6128C183.796,-33.593 192.448,-32.5574 200.98,-31.5361"/>
<polygon fill="midnightblue" stroke="midnightblue" points="201.412,-35.0094 210.925,-30.3456 200.58,-28.059 201.412,-35.0094"/>
</g>
<!-- Node2&#45;&gt;Node1 -->
<g id="edge3" class="edge"><title>Node2&#45;&gt;Node1</title>
<path fill="none" stroke="midnightblue" d="M369.095,-35.3075C378.182,-36.9723 386.933,-38.5755 394.612,-39.9824"/>
<polygon fill="midnightblue" stroke="midnightblue" points="394.211,-43.4671 404.678,-41.8265 395.473,-36.5817 394.211,-43.4671"/>
</g>
</g>
</svg>
