<?xml version="1.0" encoding="UTF-8" standalone="no"?>
<!DOCTYPE svg PUBLIC "-//W3C//DTD SVG 1.1//EN"
 "http://www.w3.org/Graphics/SVG/1.1/DTD/svg11.dtd">
<!-- Generated by graphviz version 2.38.0 (20140413.2041)
 -->
<!-- Title: Eigen::internal::generic_product_impl&lt; Lhs, Transpose&lt; Rhs &gt;, MatrixShape, TranspositionsShape, ProductTag &gt;::evalTo Pages: 1 -->
<svg width="527pt" height="88pt"
 viewBox="0.00 0.00 527.00 88.00" xmlns="http://www.w3.org/2000/svg" xmlns:xlink="http://www.w3.org/1999/xlink">
<g id="graph0" class="graph" transform="scale(1 1) rotate(0) translate(4 84)">
<title>Eigen::internal::generic_product_impl&lt; Lhs, Transpose&lt; Rhs &gt;, MatrixShape, TranspositionsShape, ProductTag &gt;::evalTo</title>
<!-- Node0 -->
<g id="node1" class="node"><title>Node0</title>
<polygon fill="#bfbfbf" stroke="black" points="0,-13.5 0,-65.5 196,-65.5 196,-13.5 0,-13.5"/>
<text text-anchor="start" x="8" y="-53.5" font-family="Helvetica,sans-Serif" font-size="10.00">Eigen::internal::generic</text>
<text text-anchor="start" x="8" y="-42.5" font-family="Helvetica,sans-Serif" font-size="10.00">_product_impl&lt; Lhs, Transpose</text>
<text text-anchor="start" x="8" y="-31.5" font-family="Helvetica,sans-Serif" font-size="10.00">&lt; Rhs &gt;, MatrixShape, Transpositions</text>
<text text-anchor="middle" x="98" y="-20.5" font-family="Helvetica,sans-Serif" font-size="10.00">Shape, ProductTag &gt;::evalTo</text>
</g>
<!-- Node1 -->
<g id="node2" class="node"><title>Node1</title>
<g id="a_node2"><a xlink:href="classEigen_1_1Transpose.html#a72aefbf67f5e3caf62a99f73409b4a63" target="_top" xlink:title="Eigen::Transpose::nested\lExpression">
<polygon fill="none" stroke="black" points="240.5,-49.5 240.5,-79.5 376.5,-79.5 376.5,-49.5 240.5,-49.5"/>
<text text-anchor="start" x="248.5" y="-67.5" font-family="Helvetica,sans-Serif" font-size="10.00">Eigen::Transpose::nested</text>
<text text-anchor="middle" x="308.5" y="-56.5" font-family="Helvetica,sans-Serif" font-size="10.00">Expression</text>
</a>
</g>
</g>
<!-- Node0&#45;&gt;Node1 -->
<g id="edge1" class="edge"><title>Node0&#45;&gt;Node1</title>
<path fill="none" stroke="midnightblue" d="M196.23,-51.1583C207.691,-52.5325 219.265,-53.9203 230.396,-55.2549"/>
<polygon fill="midnightblue" stroke="midnightblue" points="230.132,-58.7483 240.478,-56.4637 230.965,-51.798 230.132,-58.7483"/>
</g>
<!-- Node2 -->
<g id="node3" class="node"><title>Node2</title>
<g id="a_node3"><a xlink:href="structEigen_1_1internal_1_1transposition__matrix__product.html#a35b39d1ac053d48b58de279b9256823c" target="_top" xlink:title="Eigen::internal::transposition\l_matrix_product::run">
<polygon fill="none" stroke="black" points="232,-0.5 232,-30.5 385,-30.5 385,-0.5 232,-0.5"/>
<text text-anchor="start" x="240" y="-18.5" font-family="Helvetica,sans-Serif" font-size="10.00">Eigen::internal::transposition</text>
<text text-anchor="middle" x="308.5" y="-7.5" font-family="Helvetica,sans-Serif" font-size="10.00">_matrix_product::run</text>
</a>
</g>
</g>
<!-- Node0&#45;&gt;Node2 -->
<g id="edge2" class="edge"><title>Node0&#45;&gt;Node2</title>
<path fill="none" stroke="midnightblue" d="M196.23,-28.308C204.759,-27.3263 213.351,-26.3373 221.776,-25.3675"/>
<polygon fill="midnightblue" stroke="midnightblue" points="222.42,-28.8166 231.954,-24.1959 221.62,-21.8625 222.42,-28.8166"/>
</g>
<!-- Node3 -->
<g id="node4" class="node"><title>Node3</title>
<g id="a_node4"><a xlink:href="namespaceEigen_1_1internal.html#ae3479b3708befc55b8b7bba82f95266f" target="_top" xlink:title="Eigen::internal::is\l_same_dense">
<polygon fill="none" stroke="black" points="421,-0.5 421,-30.5 519,-30.5 519,-0.5 421,-0.5"/>
<text text-anchor="start" x="429" y="-18.5" font-family="Helvetica,sans-Serif" font-size="10.00">Eigen::internal::is</text>
<text text-anchor="middle" x="470" y="-7.5" font-family="Helvetica,sans-Serif" font-size="10.00">_same_dense</text>
</a>
</g>
</g>
<!-- Node2&#45;&gt;Node3 -->
<g id="edge3" class="edge"><title>Node2&#45;&gt;Node3</title>
<path fill="none" stroke="midnightblue" d="M385.046,-15.5C393.538,-15.5 402.094,-15.5 410.328,-15.5"/>
<polygon fill="midnightblue" stroke="midnightblue" points="410.554,-19.0001 420.554,-15.5 410.554,-12.0001 410.554,-19.0001"/>
</g>
</g>
</svg>
