<?xml version="1.0" encoding="UTF-8" standalone="no"?>
<!DOCTYPE svg PUBLIC "-//W3C//DTD SVG 1.1//EN"
 "http://www.w3.org/Graphics/SVG/1.1/DTD/svg11.dtd">
<!-- Generated by graphviz version 2.38.0 (20140413.2041)
 -->
<!-- Title: BallPointStuff::minimumOnVolume Pages: 1 -->
<svg width="486pt" height="39pt"
 viewBox="0.00 0.00 486.00 39.00" xmlns="http://www.w3.org/2000/svg" xmlns:xlink="http://www.w3.org/1999/xlink">
<g id="graph0" class="graph" transform="scale(1 1) rotate(0) translate(4 35)">
<title>BallPointStuff::minimumOnVolume</title>
<!-- Node50 -->
<g id="node1" class="node"><title>Node50</title>
<polygon fill="#bfbfbf" stroke="black" points="0,-0.5 0,-30.5 146,-30.5 146,-0.5 0,-0.5"/>
<text text-anchor="start" x="8" y="-18.5" font-family="Helvetica,sans-Serif" font-size="10.00">BallPointStuff::minimumOn</text>
<text text-anchor="middle" x="73" y="-7.5" font-family="Helvetica,sans-Serif" font-size="10.00">Volume</text>
</g>
<!-- Node51 -->
<g id="node2" class="node"><title>Node51</title>
<g id="a_node2"><a xlink:href="classEigen_1_1AlignedBox.html#aa6d9ffc81bd77da631fef6559f45cf13" target="_top" xlink:title="Eigen::AlignedBox::\lsquaredExteriorDistance">
<polygon fill="none" stroke="black" points="182,-0.5 182,-30.5 316,-30.5 316,-0.5 182,-0.5"/>
<text text-anchor="start" x="190" y="-18.5" font-family="Helvetica,sans-Serif" font-size="10.00">Eigen::AlignedBox::</text>
<text text-anchor="middle" x="249" y="-7.5" font-family="Helvetica,sans-Serif" font-size="10.00">squaredExteriorDistance</text>
</a>
</g>
</g>
<!-- Node50&#45;&gt;Node51 -->
<g id="edge1" class="edge"><title>Node50&#45;&gt;Node51</title>
<path fill="none" stroke="midnightblue" d="M146.028,-15.5C154.47,-15.5 163.105,-15.5 171.603,-15.5"/>
<polygon fill="midnightblue" stroke="midnightblue" points="171.879,-19.0001 181.879,-15.5 171.879,-12.0001 171.879,-19.0001"/>
</g>
<!-- Node52 -->
<g id="node3" class="node"><title>Node52</title>
<g id="a_node3"><a xlink:href="classEigen_1_1AlignedBox.html#ab774df3608d0be913a3aa5d67476a521" target="_top" xlink:title="Eigen::AlignedBox::dim">
<polygon fill="none" stroke="black" points="352,-6 352,-25 478,-25 478,-6 352,-6"/>
<text text-anchor="middle" x="415" y="-13" font-family="Helvetica,sans-Serif" font-size="10.00">Eigen::AlignedBox::dim</text>
</a>
</g>
</g>
<!-- Node51&#45;&gt;Node52 -->
<g id="edge2" class="edge"><title>Node51&#45;&gt;Node52</title>
<path fill="none" stroke="midnightblue" d="M316.232,-15.5C324.575,-15.5 333.144,-15.5 341.576,-15.5"/>
<polygon fill="midnightblue" stroke="midnightblue" points="341.768,-19.0001 351.768,-15.5 341.768,-12.0001 341.768,-19.0001"/>
</g>
</g>
</svg>
