<?xml version="1.0" encoding="UTF-8" standalone="no"?>
<!DOCTYPE svg PUBLIC "-//W3C//DTD SVG 1.1//EN"
 "http://www.w3.org/Graphics/SVG/1.1/DTD/svg11.dtd">
<!-- Generated by graphviz version 2.38.0 (20140413.2041)
 -->
<!-- Title: Eigen::internal::Assignment&lt; DstXprType, Product&lt; Lhs, Rhs, AliasFreeProduct &gt;, internal::assign_op&lt; typename DstXprType::Scalar, typename Product&lt; Lhs, Rhs, AliasFreeProduct &gt;::Scalar &gt;, Sparse2Dense &gt;::run Pages: 1 -->
<svg width="350pt" height="142pt"
 viewBox="0.00 0.00 350.00 142.00" xmlns="http://www.w3.org/2000/svg" xmlns:xlink="http://www.w3.org/1999/xlink">
<g id="graph0" class="graph" transform="scale(1 1) rotate(0) translate(4 138)">
<title>Eigen::internal::Assignment&lt; DstXprType, Product&lt; Lhs, Rhs, AliasFreeProduct &gt;, internal::assign_op&lt; typename DstXprType::Scalar, typename Product&lt; Lhs, Rhs, AliasFreeProduct &gt;::Scalar &gt;, Sparse2Dense &gt;::run</title>
<!-- Node0 -->
<g id="node1" class="node"><title>Node0</title>
<polygon fill="#bfbfbf" stroke="black" points="0,-24.5 0,-109.5 193,-109.5 193,-24.5 0,-24.5"/>
<text text-anchor="start" x="8" y="-97.5" font-family="Helvetica,sans-Serif" font-size="10.00">Eigen::internal::Assignment</text>
<text text-anchor="start" x="8" y="-86.5" font-family="Helvetica,sans-Serif" font-size="10.00">&lt; DstXprType, Product&lt; Lhs,</text>
<text text-anchor="start" x="8" y="-75.5" font-family="Helvetica,sans-Serif" font-size="10.00"> Rhs, AliasFreeProduct &gt;,</text>
<text text-anchor="start" x="8" y="-64.5" font-family="Helvetica,sans-Serif" font-size="10.00"> internal::assign_op&lt; typename</text>
<text text-anchor="start" x="8" y="-53.5" font-family="Helvetica,sans-Serif" font-size="10.00"> DstXprType::Scalar, typename</text>
<text text-anchor="start" x="8" y="-42.5" font-family="Helvetica,sans-Serif" font-size="10.00"> Product&lt; Lhs, Rhs, AliasFreeProduct</text>
<text text-anchor="middle" x="96.5" y="-31.5" font-family="Helvetica,sans-Serif" font-size="10.00"> &gt;::Scalar &gt;, Sparse2Dense &gt;::run</text>
</g>
<!-- Node1 -->
<g id="node2" class="node"><title>Node1</title>
<g id="a_node2"><a xlink:href="classEigen_1_1Product.html#a11f1acf00c3ee7f7dffa59bb13bc5cbf" target="_top" xlink:title="Eigen::Product::cols">
<polygon fill="none" stroke="black" points="230.5,-114.5 230.5,-133.5 340.5,-133.5 340.5,-114.5 230.5,-114.5"/>
<text text-anchor="middle" x="285.5" y="-121.5" font-family="Helvetica,sans-Serif" font-size="10.00">Eigen::Product::cols</text>
</a>
</g>
</g>
<!-- Node0&#45;&gt;Node1 -->
<g id="edge1" class="edge"><title>Node0&#45;&gt;Node1</title>
<path fill="none" stroke="midnightblue" d="M193.191,-96.1679C210.86,-101.554 228.424,-106.907 243.359,-111.46"/>
<polygon fill="midnightblue" stroke="midnightblue" points="242.66,-114.906 253.246,-114.474 244.701,-108.21 242.66,-114.906"/>
</g>
<!-- Node2 -->
<g id="node3" class="node"><title>Node2</title>
<g id="a_node3"><a xlink:href="classEigen_1_1Product.html#a1b43ae06c2a56d9e51880240fa75a7fb" target="_top" xlink:title="Eigen::Product::lhs">
<polygon fill="none" stroke="black" points="233,-76.5 233,-95.5 338,-95.5 338,-76.5 233,-76.5"/>
<text text-anchor="middle" x="285.5" y="-83.5" font-family="Helvetica,sans-Serif" font-size="10.00">Eigen::Product::lhs</text>
</a>
</g>
</g>
<!-- Node0&#45;&gt;Node2 -->
<g id="edge2" class="edge"><title>Node0&#45;&gt;Node2</title>
<path fill="none" stroke="midnightblue" d="M193.191,-76.7226C203.222,-77.7418 213.219,-78.7575 222.72,-79.7229"/>
<polygon fill="midnightblue" stroke="midnightblue" points="222.511,-83.2196 232.813,-80.7484 223.218,-76.2554 222.511,-83.2196"/>
</g>
<!-- Node3 -->
<g id="node4" class="node"><title>Node3</title>
<g id="a_node4"><a xlink:href="classEigen_1_1Product.html#ac22144fef8af19dc90c87d15af7ad7e1" target="_top" xlink:title="Eigen::Product::rhs">
<polygon fill="none" stroke="black" points="232,-38.5 232,-57.5 339,-57.5 339,-38.5 232,-38.5"/>
<text text-anchor="middle" x="285.5" y="-45.5" font-family="Helvetica,sans-Serif" font-size="10.00">Eigen::Product::rhs</text>
</a>
</g>
</g>
<!-- Node0&#45;&gt;Node3 -->
<g id="edge3" class="edge"><title>Node0&#45;&gt;Node3</title>
<path fill="none" stroke="midnightblue" d="M193.191,-57.2774C202.854,-56.2956 212.486,-55.317 221.673,-54.3835"/>
<polygon fill="midnightblue" stroke="midnightblue" points="222.24,-57.844 231.835,-53.351 221.532,-50.8799 222.24,-57.844"/>
</g>
<!-- Node4 -->
<g id="node5" class="node"><title>Node4</title>
<g id="a_node5"><a xlink:href="classEigen_1_1Product.html#ab115cc82ac3541ea76251e2a413bad68" target="_top" xlink:title="Eigen::Product::rows">
<polygon fill="none" stroke="black" points="229,-0.5 229,-19.5 342,-19.5 342,-0.5 229,-0.5"/>
<text text-anchor="middle" x="285.5" y="-7.5" font-family="Helvetica,sans-Serif" font-size="10.00">Eigen::Product::rows</text>
</a>
</g>
</g>
<!-- Node0&#45;&gt;Node4 -->
<g id="edge4" class="edge"><title>Node0&#45;&gt;Node4</title>
<path fill="none" stroke="midnightblue" d="M193.191,-37.8321C210.86,-32.4464 228.424,-27.0926 243.359,-22.5404"/>
<polygon fill="midnightblue" stroke="midnightblue" points="244.701,-25.7902 253.246,-19.5265 242.66,-19.0943 244.701,-25.7902"/>
</g>
</g>
</svg>
