<?xml version="1.0" encoding="UTF-8" standalone="no"?>
<!DOCTYPE svg PUBLIC "-//W3C//DTD SVG 1.1//EN"
 "http://www.w3.org/Graphics/SVG/1.1/DTD/svg11.dtd">
<!-- Generated by graphviz version 2.38.0 (20140413.2041)
 -->
<!-- Title: Eigen::TensorEvaluator&lt; const TensorForcedEvalOp&lt; ArgType, MakePointer_ &gt;, Device &gt;::evalSubExprsIfNeeded Pages: 1 -->
<svg width="745pt" height="198pt"
 viewBox="0.00 0.00 745.00 197.50" xmlns="http://www.w3.org/2000/svg" xmlns:xlink="http://www.w3.org/1999/xlink">
<g id="graph0" class="graph" transform="scale(1 1) rotate(0) translate(4 193.5)">
<title>Eigen::TensorEvaluator&lt; const TensorForcedEvalOp&lt; ArgType, MakePointer_ &gt;, Device &gt;::evalSubExprsIfNeeded</title>
<!-- Node14 -->
<g id="node1" class="node"><title>Node14</title>
<polygon fill="#bfbfbf" stroke="black" points="0,-89.5 0,-141.5 179,-141.5 179,-89.5 0,-89.5"/>
<text text-anchor="start" x="8" y="-129.5" font-family="Helvetica,sans-Serif" font-size="10.00">Eigen::TensorEvaluator</text>
<text text-anchor="start" x="8" y="-118.5" font-family="Helvetica,sans-Serif" font-size="10.00">&lt; const TensorForcedEvalOp</text>
<text text-anchor="start" x="8" y="-107.5" font-family="Helvetica,sans-Serif" font-size="10.00">&lt; ArgType, MakePointer_ &gt;</text>
<text text-anchor="middle" x="89.5" y="-96.5" font-family="Helvetica,sans-Serif" font-size="10.00">, Device &gt;::evalSubExprsIfNeeded</text>
</g>
<!-- Node15 -->
<g id="node2" class="node"><title>Node15</title>
<g id="a_node2"><a xlink:href="namespaceEigen_1_1internal.html#a3b99e338d92a91c8b3f89d32d0ca2c39" target="_top" xlink:title="Eigen::internal::array_prod">
<polygon fill="none" stroke="black" points="215,-142 215,-161 358,-161 358,-142 215,-142"/>
<text text-anchor="middle" x="286.5" y="-149" font-family="Helvetica,sans-Serif" font-size="10.00">Eigen::internal::array_prod</text>
</a>
</g>
</g>
<!-- Node14&#45;&gt;Node15 -->
<g id="edge1" class="edge"><title>Node14&#45;&gt;Node15</title>
<path fill="none" stroke="midnightblue" d="M179.156,-131.867C194.214,-134.647 209.556,-137.48 223.73,-140.096"/>
<polygon fill="midnightblue" stroke="midnightblue" points="223.353,-143.586 233.822,-141.96 224.624,-136.702 223.353,-143.586"/>
</g>
<!-- Node18 -->
<g id="node5" class="node"><title>Node18</title>
<g id="a_node5"><a xlink:href="namespaceEigen_1_1TensorSycl.html#a789ef14500d782279cc4bb95e6ba3dbd" target="_top" xlink:title="Eigen::TensorSycl::run">
<polygon fill="none" stroke="black" points="226,-71 226,-90 347,-90 347,-71 226,-71"/>
<text text-anchor="middle" x="286.5" y="-78" font-family="Helvetica,sans-Serif" font-size="10.00">Eigen::TensorSycl::run</text>
</a>
</g>
</g>
<!-- Node14&#45;&gt;Node18 -->
<g id="edge4" class="edge"><title>Node14&#45;&gt;Node18</title>
<path fill="none" stroke="midnightblue" d="M179.156,-99.5874C193.809,-96.9573 208.732,-94.2789 222.584,-91.7926"/>
<polygon fill="midnightblue" stroke="midnightblue" points="223.238,-95.2312 232.462,-90.0196 222.001,-88.3413 223.238,-95.2312"/>
</g>
<!-- Node16 -->
<g id="node3" class="node"><title>Node16</title>
<g id="a_node3"><a xlink:href="structEigen_1_1internal_1_1fixed__size__tensor__index__linearization__helper.html#ad9f850bf5d539ce2ceb45a27e8ae4975" target="_top" xlink:title="Eigen::internal::fixed\l_size_tensor_index_linearization\l_helper::run">
<polygon fill="none" stroke="black" points="394,-148 394,-189 564,-189 564,-148 394,-148"/>
<text text-anchor="start" x="402" y="-177" font-family="Helvetica,sans-Serif" font-size="10.00">Eigen::internal::fixed</text>
<text text-anchor="start" x="402" y="-166" font-family="Helvetica,sans-Serif" font-size="10.00">_size_tensor_index_linearization</text>
<text text-anchor="middle" x="479" y="-155" font-family="Helvetica,sans-Serif" font-size="10.00">_helper::run</text>
</a>
</g>
</g>
<!-- Node15&#45;&gt;Node16 -->
<g id="edge2" class="edge"><title>Node15&#45;&gt;Node16</title>
<path fill="none" stroke="midnightblue" d="M358.164,-157.806C366.536,-158.553 375.18,-159.324 383.812,-160.095"/>
<polygon fill="midnightblue" stroke="midnightblue" points="383.651,-163.594 393.923,-160.997 384.274,-156.622 383.651,-163.594"/>
</g>
<!-- Node17 -->
<g id="node4" class="node"><title>Node17</title>
<g id="a_node4"><a xlink:href="namespaceEigen_1_1internal.html#a7dd131bbd4a892f4d48cfce903de56c5" target="_top" xlink:title="Eigen::internal::array_get">
<polygon fill="none" stroke="black" points="600,-159 600,-178 737,-178 737,-159 600,-159"/>
<text text-anchor="middle" x="668.5" y="-166" font-family="Helvetica,sans-Serif" font-size="10.00">Eigen::internal::array_get</text>
</a>
</g>
</g>
<!-- Node16&#45;&gt;Node17 -->
<g id="edge3" class="edge"><title>Node16&#45;&gt;Node17</title>
<path fill="none" stroke="midnightblue" d="M564.152,-168.5C572.665,-168.5 581.285,-168.5 589.727,-168.5"/>
<polygon fill="midnightblue" stroke="midnightblue" points="589.916,-172 599.916,-168.5 589.916,-165 589.916,-172"/>
</g>
<!-- Node19 -->
<g id="node6" class="node"><title>Node19</title>
<g id="a_node6"><a xlink:href="structEigen_1_1TensorEvaluator.html#ae188d806978166eb8cbffbd63c944fb3" target="_top" xlink:title="Eigen::TensorEvaluator\l::evalSubExprsIfNeeded">
<polygon fill="none" stroke="black" points="414,-98.5 414,-128.5 544,-128.5 544,-98.5 414,-98.5"/>
<text text-anchor="start" x="422" y="-116.5" font-family="Helvetica,sans-Serif" font-size="10.00">Eigen::TensorEvaluator</text>
<text text-anchor="middle" x="479" y="-105.5" font-family="Helvetica,sans-Serif" font-size="10.00">::evalSubExprsIfNeeded</text>
</a>
</g>
</g>
<!-- Node18&#45;&gt;Node19 -->
<g id="edge5" class="edge"><title>Node18&#45;&gt;Node19</title>
<path fill="none" stroke="midnightblue" d="M342.345,-90.0007C361.52,-93.3224 383.377,-97.1087 403.863,-100.657"/>
<polygon fill="midnightblue" stroke="midnightblue" points="403.341,-104.119 413.791,-102.377 404.535,-97.2216 403.341,-104.119"/>
</g>
<!-- Node20 -->
<g id="node7" class="node"><title>Node20</title>
<g id="a_node7"><a xlink:href="namespaceEigen_1_1TensorSycl_1_1internal.html#a525ee07cdeb68d18359b511b1ae9ffc7" target="_top" xlink:title="template deduction function for FunctorExtractor ">
<polygon fill="none" stroke="black" points="412.5,-49.5 412.5,-79.5 545.5,-79.5 545.5,-49.5 412.5,-49.5"/>
<text text-anchor="start" x="420.5" y="-67.5" font-family="Helvetica,sans-Serif" font-size="10.00">Eigen::TensorSycl::</text>
<text text-anchor="middle" x="479" y="-56.5" font-family="Helvetica,sans-Serif" font-size="10.00">internal::extractFunctors</text>
</a>
</g>
</g>
<!-- Node18&#45;&gt;Node20 -->
<g id="edge6" class="edge"><title>Node18&#45;&gt;Node20</title>
<path fill="none" stroke="midnightblue" d="M347.253,-75.4814C364.653,-74.0199 383.898,-72.4036 402.151,-70.8705"/>
<polygon fill="midnightblue" stroke="midnightblue" points="402.499,-74.3537 412.171,-70.029 401.913,-67.3783 402.499,-74.3537"/>
</g>
<!-- Node21 -->
<g id="node8" class="node"><title>Node21</title>
<g id="a_node8"><a xlink:href="structEigen_1_1TensorEvaluator.html#a76ec54bcca9523ec104aaa9adaf74983" target="_top" xlink:title="Eigen::TensorEvaluator\l::cleanup">
<polygon fill="none" stroke="black" points="416.5,-0.5 416.5,-30.5 541.5,-30.5 541.5,-0.5 416.5,-0.5"/>
<text text-anchor="start" x="424.5" y="-18.5" font-family="Helvetica,sans-Serif" font-size="10.00">Eigen::TensorEvaluator</text>
<text text-anchor="middle" x="479" y="-7.5" font-family="Helvetica,sans-Serif" font-size="10.00">::cleanup</text>
</a>
</g>
</g>
<!-- Node18&#45;&gt;Node21 -->
<g id="edge7" class="edge"><title>Node18&#45;&gt;Node21</title>
<path fill="none" stroke="midnightblue" d="M310.552,-70.9404C331.979,-62.2192 364.878,-49.2444 394,-39.5 400.041,-37.4787 406.361,-35.4746 412.705,-33.5366"/>
<polygon fill="midnightblue" stroke="midnightblue" points="414.085,-36.7768 422.659,-30.5523 412.075,-30.0717 414.085,-36.7768"/>
</g>
</g>
</svg>
