<?xml version="1.0" encoding="UTF-8" standalone="no"?>
<!DOCTYPE svg PUBLIC "-//W3C//DTD SVG 1.1//EN"
 "http://www.w3.org/Graphics/SVG/1.1/DTD/svg11.dtd">
<!-- Generated by graphviz version 2.38.0 (20140413.2041)
 -->
<!-- Title: Eigen::internal::scalar_log_op::packetOp Pages: 1 -->
<svg width="341pt" height="39pt"
 viewBox="0.00 0.00 341.00 39.00" xmlns="http://www.w3.org/2000/svg" xmlns:xlink="http://www.w3.org/1999/xlink">
<g id="graph0" class="graph" transform="scale(1 1) rotate(0) translate(4 35)">
<title>Eigen::internal::scalar_log_op::packetOp</title>
<!-- Node3 -->
<g id="node1" class="node"><title>Node3</title>
<polygon fill="#bfbfbf" stroke="black" points="0,-0.5 0,-30.5 119,-30.5 119,-0.5 0,-0.5"/>
<text text-anchor="start" x="8" y="-18.5" font-family="Helvetica,sans-Serif" font-size="10.00">Eigen::internal::scalar</text>
<text text-anchor="middle" x="59.5" y="-7.5" font-family="Helvetica,sans-Serif" font-size="10.00">_log_op::packetOp</text>
</g>
<!-- Node4 -->
<g id="node2" class="node"><title>Node4</title>
<g id="a_node2"><a xlink:href="namespaceEigen_1_1internal.html#a3df2f47dad3f497cb70171f03353fccc" target="_top" xlink:title="Eigen::internal::plog">
<polygon fill="none" stroke="black" points="155,-6 155,-25 266,-25 266,-6 155,-6"/>
<text text-anchor="middle" x="210.5" y="-13" font-family="Helvetica,sans-Serif" font-size="10.00">Eigen::internal::plog</text>
</a>
</g>
</g>
<!-- Node3&#45;&gt;Node4 -->
<g id="edge1" class="edge"><title>Node3&#45;&gt;Node4</title>
<path fill="none" stroke="midnightblue" d="M119.389,-15.5C127.716,-15.5 136.316,-15.5 144.747,-15.5"/>
<polygon fill="midnightblue" stroke="midnightblue" points="144.917,-19.0001 154.917,-15.5 144.917,-12.0001 144.917,-19.0001"/>
</g>
<!-- Node5 -->
<g id="node3" class="node"><title>Node5</title>
<g id="a_node3"><a xlink:href="ArrayCwiseUnaryOps_8h.html#a48e72df6412ca98881afcd657352a1d5" target="_top" xlink:title="log">
<polygon fill="none" stroke="black" points="302,-6 302,-25 333,-25 333,-6 302,-6"/>
<text text-anchor="middle" x="317.5" y="-13" font-family="Helvetica,sans-Serif" font-size="10.00">log</text>
</a>
</g>
</g>
<!-- Node4&#45;&gt;Node5 -->
<g id="edge2" class="edge"><title>Node4&#45;&gt;Node5</title>
<path fill="none" stroke="midnightblue" d="M266.153,-15.5C275.094,-15.5 283.952,-15.5 291.687,-15.5"/>
<polygon fill="midnightblue" stroke="midnightblue" points="291.765,-19.0001 301.765,-15.5 291.765,-12.0001 291.765,-19.0001"/>
</g>
</g>
</svg>
