<?xml version="1.0" encoding="UTF-8" standalone="no"?>
<!DOCTYPE svg PUBLIC "-//W3C//DTD SVG 1.1//EN"
 "http://www.w3.org/Graphics/SVG/1.1/DTD/svg11.dtd">
<!-- Generated by graphviz version 2.38.0 (20140413.2041)
 -->
<!-- Title: Eigen::TensorEvaluator&lt; const TensorTupleReducerOp&lt; ReduceOp, Dims, ArgType &gt;, Device &gt; Pages: 1 -->
<svg width="2169pt" height="730pt"
 viewBox="0.00 0.00 2169.00 730.00" xmlns="http://www.w3.org/2000/svg" xmlns:xlink="http://www.w3.org/1999/xlink">
<g id="graph0" class="graph" transform="scale(1 1) rotate(0) translate(4 726)">
<title>Eigen::TensorEvaluator&lt; const TensorTupleReducerOp&lt; ReduceOp, Dims, ArgType &gt;, Device &gt;</title>
<!-- Node1 -->
<g id="node1" class="node"><title>Node1</title>
<polygon fill="#bfbfbf" stroke="black" points="1997,-193 1997,-245 2161,-245 2161,-193 1997,-193"/>
<text text-anchor="start" x="2005" y="-233" font-family="Helvetica,sans-Serif" font-size="10.00">Eigen::TensorEvaluator</text>
<text text-anchor="start" x="2005" y="-222" font-family="Helvetica,sans-Serif" font-size="10.00">&lt; const TensorTupleReducerOp</text>
<text text-anchor="start" x="2005" y="-211" font-family="Helvetica,sans-Serif" font-size="10.00">&lt; ReduceOp, Dims, ArgType</text>
<text text-anchor="middle" x="2079" y="-200" font-family="Helvetica,sans-Serif" font-size="10.00"> &gt;, Device &gt;</text>
</g>
<!-- Node2 -->
<g id="node2" class="node"><title>Node2</title>
<g id="a_node2"><a xlink:href="structEigen_1_1TensorEvaluator.html" target="_top" xlink:title="Eigen::TensorEvaluator\l\&lt; const Eigen::TensorIndexTuple\lOp\&lt; ArgType \&gt;, Device \&gt;">
<polygon fill="none" stroke="black" points="1445.5,-244.5 1445.5,-285.5 1615.5,-285.5 1615.5,-244.5 1445.5,-244.5"/>
<text text-anchor="start" x="1453.5" y="-273.5" font-family="Helvetica,sans-Serif" font-size="10.00">Eigen::TensorEvaluator</text>
<text text-anchor="start" x="1453.5" y="-262.5" font-family="Helvetica,sans-Serif" font-size="10.00">&lt; const Eigen::TensorIndexTuple</text>
<text text-anchor="middle" x="1530.5" y="-251.5" font-family="Helvetica,sans-Serif" font-size="10.00">Op&lt; ArgType &gt;, Device &gt;</text>
</a>
</g>
</g>
<!-- Node2&#45;&gt;Node1 -->
<g id="edge1" class="edge"><title>Node2&#45;&gt;Node1</title>
<path fill="none" stroke="#9a32cd" stroke-dasharray="5,2" d="M1625.74,-266.566C1716.69,-266.719 1858.02,-263.377 1979,-245 1984.89,-244.106 1990.93,-243.001 1996.98,-241.755"/>
<polygon fill="#9a32cd" stroke="#9a32cd" points="1625.74,-263.066 1615.73,-266.534 1625.72,-270.066 1625.74,-263.066"/>
<text text-anchor="middle" x="1797" y="-269" font-family="Helvetica,sans-Serif" font-size="10.00"> m_orig_impl</text>
</g>
<!-- Node3 -->
<g id="node3" class="node"><title>Node3</title>
<polygon fill="none" stroke="#bfbfbf" points="33.5,-407.5 33.5,-426.5 82.5,-426.5 82.5,-407.5 33.5,-407.5"/>
<text text-anchor="middle" x="58" y="-414.5" font-family="Helvetica,sans-Serif" font-size="10.00">Device</text>
</g>
<!-- Node3&#45;&gt;Node2 -->
<g id="edge2" class="edge"><title>Node3&#45;&gt;Node2</title>
<path fill="none" stroke="#9a32cd" stroke-dasharray="5,2" d="M92.4354,-423.922C105.376,-426.422 120.336,-429.094 134,-431 214.9,-442.284 235.316,-448 317,-448 317,-448 317,-448 820.5,-448 1056.98,-448 1116.48,-410.209 1340,-333 1384.93,-317.48 1435.61,-299.258 1473.24,-285.586"/>
<polygon fill="#9a32cd" stroke="#9a32cd" points="93.0427,-420.474 82.5542,-421.972 91.6874,-427.342 93.0427,-420.474"/>
<text text-anchor="middle" x="819.5" y="-451" font-family="Helvetica,sans-Serif" font-size="10.00"> m_device</text>
</g>
<!-- Node12 -->
<g id="node12" class="node"><title>Node12</title>
<g id="a_node12"><a xlink:href="structEigen_1_1TensorEvaluator.html" target="_top" xlink:title="Eigen::TensorEvaluator\l\&lt; Expr, Device \&gt;">
<polygon fill="none" stroke="black" points="255.5,-291 255.5,-321 380.5,-321 380.5,-291 255.5,-291"/>
<text text-anchor="start" x="263.5" y="-309" font-family="Helvetica,sans-Serif" font-size="10.00">Eigen::TensorEvaluator</text>
<text text-anchor="middle" x="318" y="-298" font-family="Helvetica,sans-Serif" font-size="10.00">&lt; Expr, Device &gt;</text>
</a>
</g>
</g>
<!-- Node3&#45;&gt;Node12 -->
<g id="edge13" class="edge"><title>Node3&#45;&gt;Node12</title>
<path fill="none" stroke="#9a32cd" stroke-dasharray="5,2" d="M92.1213,-404.516C124.657,-391.796 175.338,-370.753 217,-348 225.438,-343.391 226.425,-340.349 235,-336 245.951,-330.446 258.181,-325.403 269.785,-321.104"/>
<polygon fill="#9a32cd" stroke="#9a32cd" points="90.6979,-401.314 82.6366,-408.189 93.2257,-407.841 90.6979,-401.314"/>
<text text-anchor="middle" x="175.5" y="-390" font-family="Helvetica,sans-Serif" font-size="10.00"> m_device</text>
</g>
<!-- Node29 -->
<g id="node29" class="node"><title>Node29</title>
<g id="a_node29"><a xlink:href="structEigen_1_1TensorEvaluator.html" target="_top" xlink:title="Eigen::TensorEvaluator\l\&lt; const Eigen::TensorReduction\lOp\&lt; ReduceOp, Dims, const Eigen\l::TensorIndexTupleOp\&lt; ArgType\l \&gt; \&gt;, Device \&gt;">
<polygon fill="none" stroke="black" points="1706,-89.5 1706,-152.5 1888,-152.5 1888,-89.5 1706,-89.5"/>
<text text-anchor="start" x="1714" y="-140.5" font-family="Helvetica,sans-Serif" font-size="10.00">Eigen::TensorEvaluator</text>
<text text-anchor="start" x="1714" y="-129.5" font-family="Helvetica,sans-Serif" font-size="10.00">&lt; const Eigen::TensorReduction</text>
<text text-anchor="start" x="1714" y="-118.5" font-family="Helvetica,sans-Serif" font-size="10.00">Op&lt; ReduceOp, Dims, const Eigen</text>
<text text-anchor="start" x="1714" y="-107.5" font-family="Helvetica,sans-Serif" font-size="10.00">::TensorIndexTupleOp&lt; ArgType</text>
<text text-anchor="middle" x="1797" y="-96.5" font-family="Helvetica,sans-Serif" font-size="10.00"> &gt; &gt;, Device &gt;</text>
</a>
</g>
</g>
<!-- Node3&#45;&gt;Node29 -->
<g id="edge41" class="edge"><title>Node3&#45;&gt;Node29</title>
<path fill="none" stroke="#9a32cd" stroke-dasharray="5,2" d="M93.0997,-416.555C224.956,-414.872 714.115,-409 1117,-409 1117,-409 1117,-409 1531.5,-409 1652.51,-409 1622.41,-287.497 1706,-200 1721.8,-183.464 1740.64,-166.552 1756.99,-152.642"/>
<polygon fill="#9a32cd" stroke="#9a32cd" points="92.7905,-413.058 82.8363,-416.686 92.8804,-420.058 92.7905,-413.058"/>
<text text-anchor="middle" x="972.5" y="-413" font-family="Helvetica,sans-Serif" font-size="10.00"> m_device</text>
</g>
<!-- Node4 -->
<g id="node4" class="node"><title>Node4</title>
<polygon fill="none" stroke="#bfbfbf" points="43.5,-143.5 43.5,-162.5 72.5,-162.5 72.5,-143.5 43.5,-143.5"/>
<text text-anchor="middle" x="58" y="-150.5" font-family="Helvetica,sans-Serif" font-size="10.00">int</text>
</g>
<!-- Node4&#45;&gt;Node1 -->
<g id="edge33" class="edge"><title>Node4&#45;&gt;Node1</title>
<path fill="none" stroke="#9a32cd" stroke-dasharray="5,2" d="M82.748,-153C128.217,-153 230.723,-153 317,-153 317,-153 317,-153 1119,-153 1445.06,-153 1832,-191.442 1996.98,-209.649"/>
<polygon fill="#9a32cd" stroke="#9a32cd" points="82.7052,-149.5 72.7052,-153 82.7051,-156.5 82.7052,-149.5"/>
<text text-anchor="middle" x="1118" y="-167" font-family="Helvetica,sans-Serif" font-size="10.00"> NumDims</text>
<text text-anchor="middle" x="1118" y="-156" font-family="Helvetica,sans-Serif" font-size="10.00">m_return_dim</text>
</g>
<!-- Node4&#45;&gt;Node2 -->
<g id="edge3" class="edge"><title>Node4&#45;&gt;Node2</title>
<path fill="none" stroke="#9a32cd" stroke-dasharray="5,2" d="M82.5768,-158.835C127.756,-169.487 229.792,-191 317,-191 317,-191 317,-191 1256,-191 1326.05,-191 1345.72,-185.488 1413,-205 1443.37,-213.808 1475.11,-230.74 1497.77,-244.377"/>
<polygon fill="#9a32cd" stroke="#9a32cd" points="83.1419,-155.371 72.6011,-156.439 81.5075,-162.177 83.1419,-155.371"/>
<text text-anchor="middle" x="819.5" y="-194" font-family="Helvetica,sans-Serif" font-size="10.00"> NumCoords</text>
</g>
<!-- Node4&#45;&gt;Node12 -->
<g id="edge16" class="edge"><title>Node4&#45;&gt;Node12</title>
<path fill="none" stroke="#9a32cd" stroke-dasharray="5,2" d="M81.3055,-167.732C96.1843,-177.519 116.207,-190.615 134,-202 170.667,-225.461 185.786,-223.658 217,-254 227.341,-264.053 223.426,-272.395 235,-281 241.091,-285.529 248.01,-289.246 255.184,-292.294"/>
<polygon fill="#9a32cd" stroke="#9a32cd" points="83.0483,-164.689 72.7721,-162.11 79.1974,-170.534 83.0483,-164.689"/>
<text text-anchor="middle" x="175.5" y="-257" font-family="Helvetica,sans-Serif" font-size="10.00"> NumCoords</text>
</g>
<!-- Node4&#45;&gt;Node29 -->
<g id="edge42" class="edge"><title>Node4&#45;&gt;Node29</title>
<path fill="none" stroke="#9a32cd" stroke-dasharray="5,2" d="M74.2281,-135.8C111.403,-95.8179 211.5,-0 317,-0 317,-0 317,-0 1531.5,-0 1576.08,-0 1588.44,-2.84555 1630,-19 1675.24,-36.5873 1721.92,-66.5073 1754.21,-89.4077"/>
<polygon fill="#9a32cd" stroke="#9a32cd" points="71.4227,-133.682 67.2711,-143.429 76.5952,-138.398 71.4227,-133.682"/>
<text text-anchor="middle" x="972.5" y="-3" font-family="Helvetica,sans-Serif" font-size="10.00"> NumCoords</text>
</g>
<!-- Node31 -->
<g id="node31" class="node"><title>Node31</title>
<g id="a_node31"><a xlink:href="classEigen_1_1TensorBase.html" target="_top" xlink:title="Eigen::TensorBase\&lt;\l TensorReductionOp\&lt;\l ReduceOp, Dims, const\l Eigen::TensorIndexTupleOp\l\&lt; ArgType \&gt;, MakePointer_\l \&gt;, ReadOnlyAccessors \&gt;">
<polygon fill="none" stroke="black" points="419,-39 419,-113 566,-113 566,-39 419,-39"/>
<text text-anchor="start" x="427" y="-101" font-family="Helvetica,sans-Serif" font-size="10.00">Eigen::TensorBase&lt;</text>
<text text-anchor="start" x="427" y="-90" font-family="Helvetica,sans-Serif" font-size="10.00"> TensorReductionOp&lt;</text>
<text text-anchor="start" x="427" y="-79" font-family="Helvetica,sans-Serif" font-size="10.00"> ReduceOp, Dims, const</text>
<text text-anchor="start" x="427" y="-68" font-family="Helvetica,sans-Serif" font-size="10.00"> Eigen::TensorIndexTupleOp</text>
<text text-anchor="start" x="427" y="-57" font-family="Helvetica,sans-Serif" font-size="10.00">&lt; ArgType &gt;, MakePointer_</text>
<text text-anchor="middle" x="492.5" y="-46" font-family="Helvetica,sans-Serif" font-size="10.00"> &gt;, ReadOnlyAccessors &gt;</text>
</a>
</g>
</g>
<!-- Node4&#45;&gt;Node31 -->
<g id="edge37" class="edge"><title>Node4&#45;&gt;Node31</title>
<path fill="none" stroke="#9a32cd" stroke-dasharray="5,2" d="M82.3461,-144.028C96.9926,-138.698 116.377,-132.184 134,-128 231.332,-104.892 346.156,-90.3933 418.892,-82.7458"/>
<polygon fill="#9a32cd" stroke="#9a32cd" points="80.7636,-140.882 72.6114,-147.649 83.2043,-147.443 80.7636,-140.882"/>
<text text-anchor="middle" x="175.5" y="-131" font-family="Helvetica,sans-Serif" font-size="10.00"> NumDimensions</text>
</g>
<!-- Node5 -->
<g id="node5" class="node"><title>Node5</title>
<g id="a_node5"><a xlink:href="classEigen_1_1TensorIndexTupleOp.html" target="_top" xlink:title="Eigen::TensorIndexTupleOp\l\&lt; ArgType \&gt;">
<polygon fill="none" stroke="black" points="1183.5,-233 1183.5,-263 1326.5,-263 1326.5,-233 1183.5,-233"/>
<text text-anchor="start" x="1191.5" y="-251" font-family="Helvetica,sans-Serif" font-size="10.00">Eigen::TensorIndexTupleOp</text>
<text text-anchor="middle" x="1255" y="-240" font-family="Helvetica,sans-Serif" font-size="10.00">&lt; ArgType &gt;</text>
</a>
</g>
</g>
<!-- Node5&#45;&gt;Node2 -->
<g id="edge4" class="edge"><title>Node5&#45;&gt;Node2</title>
<path fill="none" stroke="#9a32cd" stroke-dasharray="5,2" d="M1337.19,-253.046C1371.3,-255.167 1410.97,-257.632 1445.39,-259.772"/>
<polygon fill="#9a32cd" stroke="#9a32cd" points="1336.99,-249.527 1326.79,-252.4 1336.55,-256.514 1336.99,-249.527"/>
<text text-anchor="middle" x="1385.5" y="-272" font-family="Helvetica,sans-Serif" font-size="10.00"> m_impl</text>
<text text-anchor="middle" x="1385.5" y="-261" font-family="Helvetica,sans-Serif" font-size="10.00">m_dims</text>
</g>
<!-- Node30 -->
<g id="node30" class="node"><title>Node30</title>
<g id="a_node30"><a xlink:href="classEigen_1_1TensorReductionOp.html" target="_top" xlink:title="Eigen::TensorReductionOp\l\&lt; ReduceOp, Dims, const\l Eigen::TensorIndexTupleOp\l\&lt; ArgType \&gt; \&gt;">
<polygon fill="none" stroke="black" points="1457.5,-29 1457.5,-81 1603.5,-81 1603.5,-29 1457.5,-29"/>
<text text-anchor="start" x="1465.5" y="-69" font-family="Helvetica,sans-Serif" font-size="10.00">Eigen::TensorReductionOp</text>
<text text-anchor="start" x="1465.5" y="-58" font-family="Helvetica,sans-Serif" font-size="10.00">&lt; ReduceOp, Dims, const</text>
<text text-anchor="start" x="1465.5" y="-47" font-family="Helvetica,sans-Serif" font-size="10.00"> Eigen::TensorIndexTupleOp</text>
<text text-anchor="middle" x="1530.5" y="-36" font-family="Helvetica,sans-Serif" font-size="10.00">&lt; ArgType &gt; &gt;</text>
</a>
</g>
</g>
<!-- Node5&#45;&gt;Node30 -->
<g id="edge40" class="edge"><title>Node5&#45;&gt;Node30</title>
<path fill="none" stroke="#9a32cd" stroke-dasharray="5,2" d="M1282.49,-226.342C1314.4,-199.896 1369.17,-153.322 1413,-110 1421.51,-101.594 1421.06,-96.6504 1431,-90 1439.07,-84.6006 1448.07,-79.9293 1457.26,-75.9177"/>
<polygon fill="#9a32cd" stroke="#9a32cd" points="1279.99,-223.867 1274.51,-232.933 1284.45,-229.265 1279.99,-223.867"/>
<text text-anchor="middle" x="1385.5" y="-165" font-family="Helvetica,sans-Serif" font-size="10.00"> m_expr</text>
</g>
<!-- Node6 -->
<g id="node6" class="node"><title>Node6</title>
<g id="a_node6"><a xlink:href="classEigen_1_1TensorBase.html" target="_top" xlink:title="The tensor base class. ">
<polygon fill="none" stroke="black" points="879,-225.5 879,-266.5 1066,-266.5 1066,-225.5 879,-225.5"/>
<text text-anchor="start" x="887" y="-254.5" font-family="Helvetica,sans-Serif" font-size="10.00">Eigen::TensorBase&lt;</text>
<text text-anchor="start" x="887" y="-243.5" font-family="Helvetica,sans-Serif" font-size="10.00"> TensorIndexTupleOp</text>
<text text-anchor="middle" x="972.5" y="-232.5" font-family="Helvetica,sans-Serif" font-size="10.00">&lt; ArgType &gt;, ReadOnlyAccessors &gt;</text>
</a>
</g>
</g>
<!-- Node6&#45;&gt;Node5 -->
<g id="edge5" class="edge"><title>Node6&#45;&gt;Node5</title>
<path fill="none" stroke="midnightblue" d="M1076.52,-246.735C1112.01,-246.988 1150.92,-247.265 1183.25,-247.496"/>
<polygon fill="midnightblue" stroke="midnightblue" points="1076.15,-243.232 1066.12,-246.66 1076.1,-250.232 1076.15,-243.232"/>
</g>
<!-- Node7 -->
<g id="node7" class="node"><title>Node7</title>
<polygon fill="none" stroke="#bfbfbf" points="628.5,-236.5 628.5,-255.5 715.5,-255.5 715.5,-236.5 628.5,-236.5"/>
<text text-anchor="middle" x="672" y="-243.5" font-family="Helvetica,sans-Serif" font-size="10.00">static const int</text>
</g>
<!-- Node7&#45;&gt;Node6 -->
<g id="edge6" class="edge"><title>Node7&#45;&gt;Node6</title>
<path fill="none" stroke="#9a32cd" stroke-dasharray="5,2" d="M725.857,-246C768.2,-246 828.633,-246 878.96,-246"/>
<polygon fill="#9a32cd" stroke="#9a32cd" points="725.768,-242.5 715.768,-246 725.768,-249.5 725.768,-242.5"/>
<text text-anchor="middle" x="819.5" y="-249" font-family="Helvetica,sans-Serif" font-size="10.00"> NumDimensions</text>
</g>
<!-- Node8 -->
<g id="node8" class="node"><title>Node8</title>
<g id="a_node8"><a xlink:href="classEigen_1_1internal_1_1TensorLazyEvaluatorWritable.html" target="_top" xlink:title="Eigen::internal::TensorLazy\lEvaluatorWritable\&lt; Dimensions,\l Expr, Device \&gt;">
<polygon fill="none" stroke="black" points="887.5,-285.5 887.5,-326.5 1057.5,-326.5 1057.5,-285.5 887.5,-285.5"/>
<text text-anchor="start" x="895.5" y="-314.5" font-family="Helvetica,sans-Serif" font-size="10.00">Eigen::internal::TensorLazy</text>
<text text-anchor="start" x="895.5" y="-303.5" font-family="Helvetica,sans-Serif" font-size="10.00">EvaluatorWritable&lt; Dimensions,</text>
<text text-anchor="middle" x="972.5" y="-292.5" font-family="Helvetica,sans-Serif" font-size="10.00"> Expr, Device &gt;</text>
</a>
</g>
</g>
<!-- Node8&#45;&gt;Node5 -->
<g id="edge7" class="edge"><title>Node8&#45;&gt;Node5</title>
<path fill="none" stroke="#9a32cd" stroke-dasharray="5,2" d="M1067.65,-286.533C1105.38,-278.731 1148.13,-269.892 1183.15,-262.65"/>
<polygon fill="#9a32cd" stroke="#9a32cd" points="1066.74,-283.146 1057.66,-288.598 1068.16,-290.001 1066.74,-283.146"/>
<text text-anchor="middle" x="1118" y="-286" font-family="Helvetica,sans-Serif" font-size="10.00"> m_xpr</text>
</g>
<!-- Node9 -->
<g id="node9" class="node"><title>Node9</title>
<g id="a_node9"><a xlink:href="classEigen_1_1internal_1_1TensorLazyEvaluatorReadOnly.html" target="_top" xlink:title="Eigen::internal::TensorLazy\lEvaluatorReadOnly\&lt; Dimensions,\l Expr, Device \&gt;">
<polygon fill="none" stroke="black" points="584,-285.5 584,-326.5 760,-326.5 760,-285.5 584,-285.5"/>
<text text-anchor="start" x="592" y="-314.5" font-family="Helvetica,sans-Serif" font-size="10.00">Eigen::internal::TensorLazy</text>
<text text-anchor="start" x="592" y="-303.5" font-family="Helvetica,sans-Serif" font-size="10.00">EvaluatorReadOnly&lt; Dimensions,</text>
<text text-anchor="middle" x="672" y="-292.5" font-family="Helvetica,sans-Serif" font-size="10.00"> Expr, Device &gt;</text>
</a>
</g>
</g>
<!-- Node9&#45;&gt;Node8 -->
<g id="edge8" class="edge"><title>Node9&#45;&gt;Node8</title>
<path fill="none" stroke="midnightblue" d="M770.147,-306C807.957,-306 850.869,-306 887.335,-306"/>
<polygon fill="midnightblue" stroke="midnightblue" points="770.141,-302.5 760.141,-306 770.141,-309.5 770.141,-302.5"/>
</g>
<!-- Node10 -->
<g id="node10" class="node"><title>Node10</title>
<g id="a_node10"><a xlink:href="classEigen_1_1internal_1_1TensorLazyBaseEvaluator.html" target="_top" xlink:title="Eigen::internal::TensorLazy\lBaseEvaluator\&lt; Dimensions,\l TensorEvaluator\&lt; Expr, Device\l \&gt;::Scalar \&gt;">
<polygon fill="none" stroke="black" points="235,-220 235,-272 401,-272 401,-220 235,-220"/>
<text text-anchor="start" x="243" y="-260" font-family="Helvetica,sans-Serif" font-size="10.00">Eigen::internal::TensorLazy</text>
<text text-anchor="start" x="243" y="-249" font-family="Helvetica,sans-Serif" font-size="10.00">BaseEvaluator&lt; Dimensions,</text>
<text text-anchor="start" x="243" y="-238" font-family="Helvetica,sans-Serif" font-size="10.00"> TensorEvaluator&lt; Expr, Device</text>
<text text-anchor="middle" x="318" y="-227" font-family="Helvetica,sans-Serif" font-size="10.00"> &gt;::Scalar &gt;</text>
</a>
</g>
</g>
<!-- Node10&#45;&gt;Node9 -->
<g id="edge9" class="edge"><title>Node10&#45;&gt;Node9</title>
<path fill="none" stroke="midnightblue" d="M411.229,-261.721C464.602,-270.818 531.379,-282.201 583.863,-291.147"/>
<polygon fill="midnightblue" stroke="midnightblue" points="411.53,-258.222 401.084,-259.992 410.354,-265.122 411.53,-258.222"/>
</g>
<!-- Node11 -->
<g id="node11" class="node"><title>Node11</title>
<polygon fill="none" stroke="#bfbfbf" points="21.5,-337.5 21.5,-356.5 94.5,-356.5 94.5,-337.5 21.5,-337.5"/>
<text text-anchor="middle" x="58" y="-344.5" font-family="Helvetica,sans-Serif" font-size="10.00">Dimensions</text>
</g>
<!-- Node11&#45;&gt;Node9 -->
<g id="edge10" class="edge"><title>Node11&#45;&gt;Node9</title>
<path fill="none" stroke="#9a32cd" stroke-dasharray="5,2" d="M104.608,-348.958C193.757,-352.058 397.164,-355.544 566,-332 575.858,-330.625 586.134,-328.705 596.234,-326.525"/>
<polygon fill="#9a32cd" stroke="#9a32cd" points="104.686,-345.459 94.5657,-348.594 104.432,-352.454 104.686,-345.459"/>
<text text-anchor="middle" x="318" y="-355" font-family="Helvetica,sans-Serif" font-size="10.00"> m_dims</text>
</g>
<!-- Node11&#45;&gt;Node12 -->
<g id="edge14" class="edge"><title>Node11&#45;&gt;Node12</title>
<path fill="none" stroke="#9a32cd" stroke-dasharray="5,2" d="M104.668,-338.189C114.34,-336.403 124.497,-334.587 134,-333 174.387,-326.254 219.938,-319.53 255.491,-314.48"/>
<polygon fill="#9a32cd" stroke="#9a32cd" points="103.999,-334.753 94.8109,-340.028 105.283,-341.634 103.999,-334.753"/>
<text text-anchor="middle" x="175.5" y="-336" font-family="Helvetica,sans-Serif" font-size="10.00"> m_dims</text>
</g>
<!-- Node12&#45;&gt;Node9 -->
<g id="edge11" class="edge"><title>Node12&#45;&gt;Node9</title>
<path fill="none" stroke="#9a32cd" stroke-dasharray="5,2" d="M390.885,-306C446.755,-306 524.48,-306 583.885,-306"/>
<polygon fill="#9a32cd" stroke="#9a32cd" points="390.717,-302.5 380.717,-306 390.716,-309.5 390.717,-302.5"/>
<text text-anchor="middle" x="492.5" y="-320" font-family="Helvetica,sans-Serif" font-size="10.00"> m_impl</text>
<text text-anchor="middle" x="492.5" y="-309" font-family="Helvetica,sans-Serif" font-size="10.00">m_dummy</text>
</g>
<!-- Node13 -->
<g id="node13" class="node"><title>Node13</title>
<polygon fill="none" stroke="#bfbfbf" points="19,-290.5 19,-309.5 97,-309.5 97,-290.5 19,-290.5"/>
<text text-anchor="middle" x="58" y="-297.5" font-family="Helvetica,sans-Serif" font-size="10.00">const Expr &amp;</text>
</g>
<!-- Node13&#45;&gt;Node12 -->
<g id="edge12" class="edge"><title>Node13&#45;&gt;Node12</title>
<path fill="none" stroke="#9a32cd" stroke-dasharray="5,2" d="M107.363,-299.26C116.223,-299.152 125.389,-299.057 134,-299 170.888,-298.754 180.134,-297.711 217,-299 229.436,-299.435 242.726,-300.173 255.423,-301.011"/>
<polygon fill="#9a32cd" stroke="#9a32cd" points="107.107,-295.763 97.1534,-299.393 107.198,-302.763 107.107,-295.763"/>
<text text-anchor="middle" x="175.5" y="-302" font-family="Helvetica,sans-Serif" font-size="10.00"> m_impl</text>
</g>
<!-- Node14 -->
<g id="node14" class="node"><title>Node14</title>
<g id="a_node14"><a xlink:href="structEigen_1_1internal_1_1traits.html" target="_top" xlink:title="Eigen::internal::traits\l\&lt; Expr \&gt;">
<polygon fill="none" stroke="black" points="0,-241 0,-271 116,-271 116,-241 0,-241"/>
<text text-anchor="start" x="8" y="-259" font-family="Helvetica,sans-Serif" font-size="10.00">Eigen::internal::traits</text>
<text text-anchor="middle" x="58" y="-248" font-family="Helvetica,sans-Serif" font-size="10.00">&lt; Expr &gt;</text>
</a>
</g>
</g>
<!-- Node14&#45;&gt;Node12 -->
<g id="edge15" class="edge"><title>Node14&#45;&gt;Node12</title>
<path fill="none" stroke="#9a32cd" stroke-dasharray="5,2" d="M126.265,-267.292C154.36,-272.171 187.31,-278.106 217,-284 229.467,-286.475 242.77,-289.283 255.471,-292.046"/>
<polygon fill="#9a32cd" stroke="#9a32cd" points="126.6,-263.798 116.15,-265.544 125.408,-270.696 126.6,-263.798"/>
<text text-anchor="middle" x="175.5" y="-287" font-family="Helvetica,sans-Serif" font-size="10.00"> m_data</text>
</g>
<!-- Node15 -->
<g id="node15" class="node"><title>Node15</title>
<g id="a_node15"><a xlink:href="structEigen_1_1internal_1_1traits.html" target="_top" xlink:title="Eigen::internal::traits\l\&lt; const Eigen::TensorIndexTuple\lOp\&lt; ArgType \&gt; \&gt;">
<polygon fill="none" stroke="black" points="1170,-282.5 1170,-323.5 1340,-323.5 1340,-282.5 1170,-282.5"/>
<text text-anchor="start" x="1178" y="-311.5" font-family="Helvetica,sans-Serif" font-size="10.00">Eigen::internal::traits</text>
<text text-anchor="start" x="1178" y="-300.5" font-family="Helvetica,sans-Serif" font-size="10.00">&lt; const Eigen::TensorIndexTuple</text>
<text text-anchor="middle" x="1255" y="-289.5" font-family="Helvetica,sans-Serif" font-size="10.00">Op&lt; ArgType &gt; &gt;</text>
</a>
</g>
</g>
<!-- Node15&#45;&gt;Node2 -->
<g id="edge17" class="edge"><title>Node15&#45;&gt;Node2</title>
<path fill="none" stroke="#9a32cd" stroke-dasharray="5,2" d="M1350.22,-289.91C1381.17,-285.609 1415.35,-280.861 1445.49,-276.673"/>
<polygon fill="#9a32cd" stroke="#9a32cd" points="1349.71,-286.446 1340.29,-291.289 1350.68,-293.379 1349.71,-286.446"/>
<text text-anchor="middle" x="1385.5" y="-292" font-family="Helvetica,sans-Serif" font-size="10.00"> m_data</text>
</g>
<!-- Node16 -->
<g id="node16" class="node"><title>Node16</title>
<polygon fill="none" stroke="#bfbfbf" points="1776,-209.5 1776,-228.5 1818,-228.5 1818,-209.5 1776,-209.5"/>
<text text-anchor="middle" x="1797" y="-216.5" font-family="Helvetica,sans-Serif" font-size="10.00">Index</text>
</g>
<!-- Node16&#45;&gt;Node1 -->
<g id="edge18" class="edge"><title>Node16&#45;&gt;Node1</title>
<path fill="none" stroke="#9a32cd" stroke-dasharray="5,2" d="M1828.31,-219C1868.34,-219 1940.39,-219 1996.84,-219"/>
<polygon fill="#9a32cd" stroke="#9a32cd" points="1828.14,-215.5 1818.14,-219 1828.14,-222.5 1828.14,-215.5"/>
<text text-anchor="middle" x="1942.5" y="-233" font-family="Helvetica,sans-Serif" font-size="10.00"> m_stride_mod</text>
<text text-anchor="middle" x="1942.5" y="-222" font-family="Helvetica,sans-Serif" font-size="10.00">m_stride_div</text>
</g>
<!-- Node17 -->
<g id="node17" class="node"><title>Node17</title>
<g id="a_node17"><a xlink:href="classEigen_1_1array.html" target="_top" xlink:title="Eigen::array\&lt; Index,\l NumDims \&gt;">
<polygon fill="none" stroke="black" points="1740.5,-369 1740.5,-399 1853.5,-399 1853.5,-369 1740.5,-369"/>
<text text-anchor="start" x="1748.5" y="-387" font-family="Helvetica,sans-Serif" font-size="10.00">Eigen::array&lt; Index,</text>
<text text-anchor="middle" x="1797" y="-376" font-family="Helvetica,sans-Serif" font-size="10.00"> NumDims &gt;</text>
</a>
</g>
</g>
<!-- Node17&#45;&gt;Node1 -->
<g id="edge19" class="edge"><title>Node17&#45;&gt;Node1</title>
<path fill="none" stroke="#9a32cd" stroke-dasharray="5,2" d="M1833.27,-363.806C1869.83,-342.81 1928.59,-308.894 1979,-279 1997.5,-268.031 2017.83,-255.75 2035.23,-245.169"/>
<polygon fill="#9a32cd" stroke="#9a32cd" points="1831.4,-360.843 1824.47,-368.856 1834.89,-366.914 1831.4,-360.843"/>
<text text-anchor="middle" x="1942.5" y="-323" font-family="Helvetica,sans-Serif" font-size="10.00"> m_strides</text>
</g>
<!-- Node18 -->
<g id="node18" class="node"><title>Node18</title>
<g id="a_node18"><a xlink:href="classEigen_1_1Triplet.html" target="_top" xlink:title="Eigen::Triplet\&lt; double \&gt;">
<polygon fill="none" stroke="black" points="1465,-477.5 1465,-496.5 1596,-496.5 1596,-477.5 1465,-477.5"/>
<text text-anchor="middle" x="1530.5" y="-484.5" font-family="Helvetica,sans-Serif" font-size="10.00">Eigen::Triplet&lt; double &gt;</text>
</a>
</g>
</g>
<!-- Node18&#45;&gt;Node17 -->
<g id="edge20" class="edge"><title>Node18&#45;&gt;Node17</title>
<path fill="none" stroke="#9a32cd" stroke-dasharray="5,2" d="M1565.46,-473.776C1614.65,-454.619 1705.51,-419.239 1757.26,-399.087"/>
<polygon fill="#9a32cd" stroke="#9a32cd" points="1563.96,-470.604 1555.91,-477.495 1566.5,-477.127 1563.96,-470.604"/>
<text text-anchor="middle" x="1668" y="-442" font-family="Helvetica,sans-Serif" font-size="10.00"> values</text>
</g>
<!-- Node19 -->
<g id="node19" class="node"><title>Node19</title>
<polygon fill="none" stroke="#bfbfbf" points="1227.5,-477.5 1227.5,-496.5 1282.5,-496.5 1282.5,-477.5 1227.5,-477.5"/>
<text text-anchor="middle" x="1255" y="-484.5" font-family="Helvetica,sans-Serif" font-size="10.00">SCALAR</text>
</g>
<!-- Node19&#45;&gt;Node18 -->
<g id="edge21" class="edge"><title>Node19&#45;&gt;Node18</title>
<path fill="none" stroke="#9a32cd" stroke-dasharray="5,2" d="M1292.96,-487C1336.98,-487 1411.28,-487 1464.87,-487"/>
<polygon fill="#9a32cd" stroke="#9a32cd" points="1292.72,-483.5 1282.72,-487 1292.72,-490.5 1292.72,-483.5"/>
<text text-anchor="middle" x="1385.5" y="-490" font-family="Helvetica,sans-Serif" font-size="10.00"> m_value</text>
</g>
<!-- Node20 -->
<g id="node20" class="node"><title>Node20</title>
<g id="a_node20"><a xlink:href="classEigen_1_1SparseMatrix.html" target="_top" xlink:title="Eigen::SparseMatrix\l\&lt; double \&gt;">
<polygon fill="none" stroke="black" points="1199,-557 1199,-587 1311,-587 1311,-557 1199,-557"/>
<text text-anchor="start" x="1207" y="-575" font-family="Helvetica,sans-Serif" font-size="10.00">Eigen::SparseMatrix</text>
<text text-anchor="middle" x="1255" y="-564" font-family="Helvetica,sans-Serif" font-size="10.00">&lt; double &gt;</text>
</a>
</g>
</g>
<!-- Node20&#45;&gt;Node18 -->
<g id="edge22" class="edge"><title>Node20&#45;&gt;Node18</title>
<path fill="none" stroke="#9a32cd" stroke-dasharray="5,2" d="M1314.13,-553.936C1370.56,-536.396 1454.05,-510.448 1498.69,-496.574"/>
<polygon fill="#9a32cd" stroke="#9a32cd" points="1312.78,-550.689 1304.27,-556.999 1314.85,-557.374 1312.78,-550.689"/>
<text text-anchor="middle" x="1385.5" y="-554" font-family="Helvetica,sans-Serif" font-size="10.00"> m_row</text>
<text text-anchor="middle" x="1385.5" y="-543" font-family="Helvetica,sans-Serif" font-size="10.00">m_col</text>
</g>
<!-- Node21 -->
<g id="node21" class="node"><title>Node21</title>
<g id="a_node21"><a xlink:href="classEigen_1_1SparseCompressedBase.html" target="_top" xlink:title="Common base class for sparse [compressed]&#45;{row|column}&#45;storage format. ">
<polygon fill="none" stroke="black" points="889,-672.5 889,-713.5 1056,-713.5 1056,-672.5 889,-672.5"/>
<text text-anchor="start" x="897" y="-701.5" font-family="Helvetica,sans-Serif" font-size="10.00">Eigen::SparseCompressedBase</text>
<text text-anchor="start" x="897" y="-690.5" font-family="Helvetica,sans-Serif" font-size="10.00">&lt; SparseMatrix&lt; double,</text>
<text text-anchor="middle" x="972.5" y="-679.5" font-family="Helvetica,sans-Serif" font-size="10.00"> _Options, _StorageIndex &gt; &gt;</text>
</a>
</g>
</g>
<!-- Node21&#45;&gt;Node20 -->
<g id="edge23" class="edge"><title>Node21&#45;&gt;Node20</title>
<path fill="none" stroke="midnightblue" d="M1066.07,-675.528C1094.42,-668.368 1125.19,-658.706 1152,-646 1184.82,-630.448 1217.96,-603.95 1237.21,-587.241"/>
<polygon fill="midnightblue" stroke="midnightblue" points="1065.03,-672.178 1056.15,-677.956 1066.7,-678.977 1065.03,-672.178"/>
</g>
<!-- Node22 -->
<g id="node22" class="node"><title>Node22</title>
<g id="a_node22"><a xlink:href="classEigen_1_1SparseMatrixBase.html" target="_top" xlink:title="Base class of any sparse matrices or sparse expressions. ">
<polygon fill="none" stroke="black" points="604,-678 604,-708 740,-708 740,-678 604,-678"/>
<text text-anchor="start" x="612" y="-696" font-family="Helvetica,sans-Serif" font-size="10.00">Eigen::SparseMatrixBase</text>
<text text-anchor="middle" x="672" y="-685" font-family="Helvetica,sans-Serif" font-size="10.00">&lt; Derived &gt;</text>
</a>
</g>
</g>
<!-- Node22&#45;&gt;Node21 -->
<g id="edge24" class="edge"><title>Node22&#45;&gt;Node21</title>
<path fill="none" stroke="midnightblue" d="M750.38,-693C792.898,-693 845.638,-693 888.946,-693"/>
<polygon fill="midnightblue" stroke="midnightblue" points="750.361,-689.5 740.361,-693 750.361,-696.5 750.361,-689.5"/>
</g>
<!-- Node23 -->
<g id="node23" class="node"><title>Node23</title>
<g id="a_node23"><a xlink:href="structEigen_1_1EigenBase.html" target="_top" xlink:title="Eigen::EigenBase\&lt; Derived \&gt;">
<polygon fill="none" stroke="black" points="239,-702.5 239,-721.5 397,-721.5 397,-702.5 239,-702.5"/>
<text text-anchor="middle" x="318" y="-709.5" font-family="Helvetica,sans-Serif" font-size="10.00">Eigen::EigenBase&lt; Derived &gt;</text>
</a>
</g>
</g>
<!-- Node23&#45;&gt;Node22 -->
<g id="edge25" class="edge"><title>Node23&#45;&gt;Node22</title>
<path fill="none" stroke="midnightblue" d="M407.116,-707.244C468.065,-703.954 547.93,-699.643 603.768,-696.629"/>
<polygon fill="midnightblue" stroke="midnightblue" points="406.917,-703.749 397.12,-707.783 407.294,-710.739 406.917,-703.749"/>
</g>
<!-- Node24 -->
<g id="node24" class="node"><title>Node24</title>
<g id="a_node24"><a xlink:href="classbool.html" target="_top" xlink:title="bool">
<polygon fill="none" stroke="black" points="299.5,-664.5 299.5,-683.5 336.5,-683.5 336.5,-664.5 299.5,-664.5"/>
<text text-anchor="middle" x="318" y="-671.5" font-family="Helvetica,sans-Serif" font-size="10.00">bool</text>
</a>
</g>
</g>
<!-- Node24&#45;&gt;Node22 -->
<g id="edge26" class="edge"><title>Node24&#45;&gt;Node22</title>
<path fill="none" stroke="#9a32cd" stroke-dasharray="5,2" d="M346.715,-674.715C392.428,-675.986 486.496,-678.986 566,-684 578.234,-684.772 591.256,-685.756 603.817,-686.788"/>
<polygon fill="#9a32cd" stroke="#9a32cd" points="346.776,-671.215 336.685,-674.443 346.586,-678.213 346.776,-671.215"/>
<text text-anchor="middle" x="492.5" y="-687" font-family="Helvetica,sans-Serif" font-size="10.00"> m_isRValue</text>
</g>
<!-- Node25 -->
<g id="node25" class="node"><title>Node25</title>
<polygon fill="none" stroke="#bfbfbf" points="606.5,-496 606.5,-526 737.5,-526 737.5,-496 606.5,-496"/>
<text text-anchor="start" x="614.5" y="-514" font-family="Helvetica,sans-Serif" font-size="10.00">EIGEN_DEFAULT_DENSE</text>
<text text-anchor="middle" x="672" y="-503" font-family="Helvetica,sans-Serif" font-size="10.00">_INDEX_TYPE</text>
</g>
<!-- Node25&#45;&gt;Node20 -->
<g id="edge27" class="edge"><title>Node25&#45;&gt;Node20</title>
<path fill="none" stroke="#9a32cd" stroke-dasharray="5,2" d="M748.082,-509.029C827.475,-508.028 956.177,-509.491 1066,-525 1114.14,-531.798 1167.83,-545.896 1205.47,-556.888"/>
<polygon fill="#9a32cd" stroke="#9a32cd" points="747.642,-505.535 737.693,-509.178 747.742,-512.534 747.642,-505.535"/>
<text text-anchor="middle" x="972.5" y="-539" font-family="Helvetica,sans-Serif" font-size="10.00"> m_outerSize</text>
<text text-anchor="middle" x="972.5" y="-528" font-family="Helvetica,sans-Serif" font-size="10.00">m_innerSize</text>
</g>
<!-- Node27 -->
<g id="node27" class="node"><title>Node27</title>
<g id="a_node27"><a xlink:href="classEigen_1_1internal_1_1CompressedStorage.html" target="_top" xlink:title="Eigen::internal::Compressed\lStorage\&lt; Scalar, StorageIndex \&gt;">
<polygon fill="none" stroke="black" points="884,-557 884,-587 1061,-587 1061,-557 884,-557"/>
<text text-anchor="start" x="892" y="-575" font-family="Helvetica,sans-Serif" font-size="10.00">Eigen::internal::Compressed</text>
<text text-anchor="middle" x="972.5" y="-564" font-family="Helvetica,sans-Serif" font-size="10.00">Storage&lt; Scalar, StorageIndex &gt;</text>
</a>
</g>
</g>
<!-- Node25&#45;&gt;Node27 -->
<g id="edge30" class="edge"><title>Node25&#45;&gt;Node27</title>
<path fill="none" stroke="#9a32cd" stroke-dasharray="5,2" d="M747.56,-524.048C782.14,-530.313 823.744,-538.153 861,-546 876.91,-549.351 894.042,-553.242 909.955,-556.978"/>
<polygon fill="#9a32cd" stroke="#9a32cd" points="747.998,-520.571 737.536,-522.241 746.756,-527.46 747.998,-520.571"/>
<text text-anchor="middle" x="819.5" y="-560" font-family="Helvetica,sans-Serif" font-size="10.00"> m_size</text>
<text text-anchor="middle" x="819.5" y="-549" font-family="Helvetica,sans-Serif" font-size="10.00">m_allocatedSize</text>
</g>
<!-- Node26 -->
<g id="node26" class="node"><title>Node26</title>
<polygon fill="none" stroke="#bfbfbf" points="627.5,-611.5 627.5,-630.5 716.5,-630.5 716.5,-611.5 627.5,-611.5"/>
<text text-anchor="middle" x="672" y="-618.5" font-family="Helvetica,sans-Serif" font-size="10.00">StorageIndex *</text>
</g>
<!-- Node26&#45;&gt;Node20 -->
<g id="edge28" class="edge"><title>Node26&#45;&gt;Node20</title>
<path fill="none" stroke="#9a32cd" stroke-dasharray="5,2" d="M726.956,-621.427C764.563,-621.41 815.88,-620.758 861,-618 990.823,-610.065 1022.97,-603.354 1152,-587 1167.18,-585.076 1183.6,-582.764 1198.74,-580.537"/>
<polygon fill="#9a32cd" stroke="#9a32cd" points="726.732,-617.927 716.729,-621.417 726.725,-624.927 726.732,-617.927"/>
<text text-anchor="middle" x="972.5" y="-631" font-family="Helvetica,sans-Serif" font-size="10.00"> m_outerIndex</text>
<text text-anchor="middle" x="972.5" y="-620" font-family="Helvetica,sans-Serif" font-size="10.00">m_innerNonZeros</text>
</g>
<!-- Node26&#45;&gt;Node27 -->
<g id="edge31" class="edge"><title>Node26&#45;&gt;Node27</title>
<path fill="none" stroke="#9a32cd" stroke-dasharray="5,2" d="M726.852,-612.16C770.534,-604.989 832.985,-594.738 883.855,-586.387"/>
<polygon fill="#9a32cd" stroke="#9a32cd" points="726.025,-608.749 716.724,-613.823 727.159,-615.656 726.025,-608.749"/>
<text text-anchor="middle" x="819.5" y="-607" font-family="Helvetica,sans-Serif" font-size="10.00"> m_indices</text>
</g>
<!-- Node27&#45;&gt;Node20 -->
<g id="edge29" class="edge"><title>Node27&#45;&gt;Node20</title>
<path fill="none" stroke="#9a32cd" stroke-dasharray="5,2" d="M1071.25,-572C1113.97,-572 1162.49,-572 1198.8,-572"/>
<polygon fill="#9a32cd" stroke="#9a32cd" points="1071.1,-568.5 1061.1,-572 1071.1,-575.5 1071.1,-568.5"/>
<text text-anchor="middle" x="1118" y="-575" font-family="Helvetica,sans-Serif" font-size="10.00"> m_data</text>
</g>
<!-- Node28 -->
<g id="node28" class="node"><title>Node28</title>
<polygon fill="none" stroke="#bfbfbf" points="644.5,-562.5 644.5,-581.5 699.5,-581.5 699.5,-562.5 644.5,-562.5"/>
<text text-anchor="middle" x="672" y="-569.5" font-family="Helvetica,sans-Serif" font-size="10.00">Scalar *</text>
</g>
<!-- Node28&#45;&gt;Node27 -->
<g id="edge32" class="edge"><title>Node28&#45;&gt;Node27</title>
<path fill="none" stroke="#9a32cd" stroke-dasharray="5,2" d="M709.797,-572C752.97,-572 826.015,-572 883.98,-572"/>
<polygon fill="#9a32cd" stroke="#9a32cd" points="709.753,-568.5 699.753,-572 709.753,-575.5 709.753,-568.5"/>
<text text-anchor="middle" x="819.5" y="-575" font-family="Helvetica,sans-Serif" font-size="10.00"> m_values</text>
</g>
<!-- Node29&#45;&gt;Node1 -->
<g id="edge34" class="edge"><title>Node29&#45;&gt;Node1</title>
<path fill="none" stroke="#9a32cd" stroke-dasharray="5,2" d="M1898.44,-133.495C1925.2,-138.678 1953.69,-145.923 1979,-156 2002.09,-165.193 2025.66,-179.932 2044,-192.843"/>
<polygon fill="#9a32cd" stroke="#9a32cd" points="1898.75,-129.993 1888.28,-131.608 1897.47,-136.875 1898.75,-129.993"/>
<text text-anchor="middle" x="1942.5" y="-159" font-family="Helvetica,sans-Serif" font-size="10.00"> m_impl</text>
</g>
<!-- Node30&#45;&gt;Node29 -->
<g id="edge35" class="edge"><title>Node30&#45;&gt;Node29</title>
<path fill="none" stroke="#9a32cd" stroke-dasharray="5,2" d="M1613.54,-75.4723C1642.81,-82.776 1675.94,-91.0412 1705.85,-98.5057"/>
<polygon fill="#9a32cd" stroke="#9a32cd" points="1614.33,-72.06 1603.78,-73.0348 1612.63,-78.8518 1614.33,-72.06"/>
<text text-anchor="middle" x="1668" y="-108" font-family="Helvetica,sans-Serif" font-size="10.00"> m_impl</text>
<text text-anchor="middle" x="1668" y="-97" font-family="Helvetica,sans-Serif" font-size="10.00">m_dims</text>
</g>
<!-- Node31&#45;&gt;Node30 -->
<g id="edge36" class="edge"><title>Node31&#45;&gt;Node30</title>
<path fill="none" stroke="midnightblue" d="M576.422,-61.3139C641.92,-50.9859 735.757,-39 818.5,-39 818.5,-39 818.5,-39 1256,-39 1324.37,-39 1402.2,-44.0449 1457.3,-48.4691"/>
<polygon fill="midnightblue" stroke="midnightblue" points="575.481,-57.9198 566.16,-62.9552 576.587,-64.832 575.481,-57.9198"/>
</g>
<!-- Node32 -->
<g id="node32" class="node"><title>Node32</title>
<polygon fill="none" stroke="#bfbfbf" points="1208,-105.5 1208,-124.5 1302,-124.5 1302,-105.5 1208,-105.5"/>
<text text-anchor="middle" x="1255" y="-112.5" font-family="Helvetica,sans-Serif" font-size="10.00">const ReduceOp</text>
</g>
<!-- Node32&#45;&gt;Node30 -->
<g id="edge38" class="edge"><title>Node32&#45;&gt;Node30</title>
<path fill="none" stroke="#9a32cd" stroke-dasharray="5,2" d="M1312.03,-104.628C1342.05,-98.8969 1379.62,-91.4447 1413,-84 1427.34,-80.8011 1442.62,-77.1647 1457.23,-73.5744"/>
<polygon fill="#9a32cd" stroke="#9a32cd" points="1311.32,-101.199 1302.15,-106.504 1312.63,-108.076 1311.32,-101.199"/>
<text text-anchor="middle" x="1385.5" y="-98" font-family="Helvetica,sans-Serif" font-size="10.00"> m_reducer</text>
</g>
<!-- Node33 -->
<g id="node33" class="node"><title>Node33</title>
<polygon fill="none" stroke="#bfbfbf" points="1234.5,-67.5 1234.5,-86.5 1275.5,-86.5 1275.5,-67.5 1234.5,-67.5"/>
<text text-anchor="middle" x="1255" y="-74.5" font-family="Helvetica,sans-Serif" font-size="10.00">Dims</text>
</g>
<!-- Node33&#45;&gt;Node30 -->
<g id="edge39" class="edge"><title>Node33&#45;&gt;Node30</title>
<path fill="none" stroke="#9a32cd" stroke-dasharray="5,2" d="M1285.78,-74.6044C1326.67,-71.3152 1401.5,-65.2962 1457.5,-60.7919"/>
<polygon fill="#9a32cd" stroke="#9a32cd" points="1285.36,-71.1272 1275.67,-75.4178 1285.92,-78.1047 1285.36,-71.1272"/>
<text text-anchor="middle" x="1385.5" y="-72" font-family="Helvetica,sans-Serif" font-size="10.00"> m_dims</text>
</g>
<!-- Node34 -->
<g id="node34" class="node"><title>Node34</title>
<g id="a_node34"><a xlink:href="structEigen_1_1internal_1_1traits.html" target="_top" xlink:title="Eigen::internal::traits\l\&lt; const Eigen::TensorReduction\lOp\&lt; ReduceOp, Dims, const Eigen\l::TensorIndexTupleOp\&lt; ArgType \&gt; \&gt; \&gt;">
<polygon fill="none" stroke="black" points="1431,-100 1431,-152 1630,-152 1630,-100 1431,-100"/>
<text text-anchor="start" x="1439" y="-140" font-family="Helvetica,sans-Serif" font-size="10.00">Eigen::internal::traits</text>
<text text-anchor="start" x="1439" y="-129" font-family="Helvetica,sans-Serif" font-size="10.00">&lt; const Eigen::TensorReduction</text>
<text text-anchor="start" x="1439" y="-118" font-family="Helvetica,sans-Serif" font-size="10.00">Op&lt; ReduceOp, Dims, const Eigen</text>
<text text-anchor="middle" x="1530.5" y="-107" font-family="Helvetica,sans-Serif" font-size="10.00">::TensorIndexTupleOp&lt; ArgType &gt; &gt; &gt;</text>
</a>
</g>
</g>
<!-- Node34&#45;&gt;Node29 -->
<g id="edge43" class="edge"><title>Node34&#45;&gt;Node29</title>
<path fill="none" stroke="#9a32cd" stroke-dasharray="5,2" d="M1640.62,-123.937C1662.36,-123.526 1684.97,-123.099 1705.98,-122.702"/>
<polygon fill="#9a32cd" stroke="#9a32cd" points="1640.3,-120.443 1630.37,-124.131 1640.43,-127.441 1640.3,-120.443"/>
<text text-anchor="middle" x="1668" y="-127" font-family="Helvetica,sans-Serif" font-size="10.00"> m_data</text>
</g>
</g>
</svg>
