<?xml version="1.0" encoding="UTF-8" standalone="no"?>
<!DOCTYPE svg PUBLIC "-//W3C//DTD SVG 1.1//EN"
 "http://www.w3.org/Graphics/SVG/1.1/DTD/svg11.dtd">
<!-- Generated by graphviz version 2.38.0 (20140413.2041)
 -->
<!-- Title: Eigen::internal::product_evaluator&lt; Product&lt; Lhs, RhsView, DefaultProduct &gt;, ProductTag, SparseShape, SparseSelfAdjointShape &gt; Pages: 1 -->
<!--zoomable 99 -->
<svg id="main" version="1.1" xmlns="http://www.w3.org/2000/svg" xmlns:xlink="http://www.w3.org/1999/xlink" xml:space="preserve" onload="init(evt)">
<style type="text/css"><![CDATA[
.edge:hover path { stroke: red; }
.edge:hover polygon { stroke: red; fill: red; }
]]></style>
<script type="text/javascript"><![CDATA[
var edges = document.getElementsByTagName('g');
if (edges && edges.length) {
  for (var i=0;i<edges.length;i++) {
    if (edges[i].id.substr(0,4)=='edge') {
      edges[i].setAttribute('class','edge');
    }
  }
}
]]></script>
        <defs>
                <circle id="rim" cx="0" cy="0" r="7"/>
                <circle id="rim2" cx="0" cy="0" r="3.5"/>
                <g id="zoomPlus">
                        <use xlink:href="#rim" fill="#404040">
                                <set attributeName="fill" to="#808080" begin="zoomplus.mouseover" end="zoomplus.mouseout"/>
                        </use>
                        <path d="M-4,0h8M0,-4v8" fill="none" stroke="white" stroke-width="1.5" pointer-events="none"/>
                </g>
                <g id="zoomMin">
                        <use xlink:href="#rim" fill="#404040">
                                <set attributeName="fill" to="#808080" begin="zoomminus.mouseover" end="zoomminus.mouseout"/>
                        </use>
                        <path d="M-4,0h8" fill="none" stroke="white" stroke-width="1.5" pointer-events="none"/>
                </g>
                <g id="dirArrow">
                        <path fill="none" stroke="white" stroke-width="1.5" d="M0,-3.0v7 M-2.5,-0.5L0,-3.0L2.5,-0.5"/>
                </g>
               <g id="resetDef">
                       <use xlink:href="#rim2" fill="#404040">
                               <set attributeName="fill" to="#808080" begin="reset.mouseover" end="reset.mouseout"/>
                       </use>
               </g>
        </defs>

<script type="text/javascript">
var viewWidth = 637;
var viewHeight = 99;
var sectionId = 'dynsection-1';
</script>
<script xlink:href="svgpan.js"/>
<svg id="graph" class="graph">
<g id="viewport">
<title>Eigen::internal::product_evaluator&lt; Product&lt; Lhs, RhsView, DefaultProduct &gt;, ProductTag, SparseShape, SparseSelfAdjointShape &gt;</title>
<!-- Node3 -->
<g id="node1" class="node"><title>Node3</title>
<polygon fill="#bfbfbf" stroke="black" points="469,-6.5 469,-69.5 629,-69.5 629,-6.5 469,-6.5"/>
<text text-anchor="start" x="477" y="-57.5" font-family="Helvetica,sans-Serif" font-size="10.00">Eigen::internal::product</text>
<text text-anchor="start" x="477" y="-46.5" font-family="Helvetica,sans-Serif" font-size="10.00">_evaluator&lt; Product&lt; Lhs,</text>
<text text-anchor="start" x="477" y="-35.5" font-family="Helvetica,sans-Serif" font-size="10.00"> RhsView, DefaultProduct</text>
<text text-anchor="start" x="477" y="-24.5" font-family="Helvetica,sans-Serif" font-size="10.00"> &gt;, ProductTag, SparseShape,</text>
<text text-anchor="middle" x="549" y="-13.5" font-family="Helvetica,sans-Serif" font-size="10.00"> SparseSelfAdjointShape &gt;</text>
</g>
<!-- Node4 -->
<g id="node2" class="node"><title>Node4</title>
<g id="a_node2"><a xlink:href="structEigen_1_1internal_1_1evaluator.html" target="_top" xlink:title="Eigen::internal::evaluator\l\&lt; Product\&lt; Lhs, Lhs::PlainObject,\l DefaultProduct \&gt;::PlainObject \&gt;">
<polygon fill="none" stroke="black" points="210,-43.5 210,-84.5 387,-84.5 387,-43.5 210,-43.5"/>
<text text-anchor="start" x="218" y="-72.5" font-family="Helvetica,sans-Serif" font-size="10.00">Eigen::internal::evaluator</text>
<text text-anchor="start" x="218" y="-61.5" font-family="Helvetica,sans-Serif" font-size="10.00">&lt; Product&lt; Lhs, Lhs::PlainObject,</text>
<text text-anchor="middle" x="298.5" y="-50.5" font-family="Helvetica,sans-Serif" font-size="10.00"> DefaultProduct &gt;::PlainObject &gt;</text>
</a>
</g>
</g>
<!-- Node4&#45;&gt;Node3 -->
<g id="edge1" class="edge"><title>Node4&#45;&gt;Node3</title>
<path fill="none" stroke="midnightblue" d="M397.648,-55.3769C415.414,-53.6889 433.767,-51.8617 451,-50 456.82,-49.3712 462.834,-48.694 468.882,-47.9927"/>
<polygon fill="midnightblue" stroke="midnightblue" points="396.896,-51.9321 387.268,-56.3539 397.552,-58.9013 396.896,-51.9321"/>
</g>
<!-- Node5 -->
<g id="node3" class="node"><title>Node5</title>
<g id="a_node3"><a xlink:href="structEigen_1_1internal_1_1unary__evaluator.html" target="_top" xlink:title="Eigen::internal::unary\l_evaluator\&lt; Product\&lt; Lhs,\l Lhs::PlainObject, DefaultProduct\l \&gt;::PlainObject \&gt;">
<polygon fill="none" stroke="black" points="0,-38 0,-90 173,-90 173,-38 0,-38"/>
<text text-anchor="start" x="8" y="-78" font-family="Helvetica,sans-Serif" font-size="10.00">Eigen::internal::unary</text>
<text text-anchor="start" x="8" y="-67" font-family="Helvetica,sans-Serif" font-size="10.00">_evaluator&lt; Product&lt; Lhs,</text>
<text text-anchor="start" x="8" y="-56" font-family="Helvetica,sans-Serif" font-size="10.00"> Lhs::PlainObject, DefaultProduct</text>
<text text-anchor="middle" x="86.5" y="-45" font-family="Helvetica,sans-Serif" font-size="10.00"> &gt;::PlainObject &gt;</text>
</a>
</g>
</g>
<!-- Node5&#45;&gt;Node4 -->
<g id="edge2" class="edge"><title>Node5&#45;&gt;Node4</title>
<path fill="none" stroke="midnightblue" d="M183.429,-64C192.174,-64 201.003,-64 209.671,-64"/>
<polygon fill="midnightblue" stroke="midnightblue" points="183.218,-60.5001 173.218,-64 183.218,-67.5001 183.218,-60.5001"/>
</g>
<!-- Node6 -->
<g id="node4" class="node"><title>Node6</title>
<polygon fill="none" stroke="#bfbfbf" points="263.5,-0.5 263.5,-19.5 333.5,-19.5 333.5,-0.5 263.5,-0.5"/>
<text text-anchor="middle" x="298.5" y="-7.5" font-family="Helvetica,sans-Serif" font-size="10.00">PlainObject</text>
</g>
<!-- Node6&#45;&gt;Node3 -->
<g id="edge3" class="edge"><title>Node6&#45;&gt;Node3</title>
<path fill="none" stroke="#9a32cd" stroke-dasharray="5,2" d="M343.802,-14.9917C378.465,-18.8975 427.559,-24.4291 468.921,-29.0897"/>
<polygon fill="#9a32cd" stroke="#9a32cd" points="343.861,-11.4763 333.532,-13.8346 343.077,-18.4323 343.861,-11.4763"/>
<text text-anchor="middle" x="428" y="-30" font-family="Helvetica,sans-Serif" font-size="10.00"> m_rhs</text>
</g>
<!-- Node6&#45;&gt;Node3 -->
<g id="edge4" class="edge"><title>Node6&#45;&gt;Node3</title>
<path fill="none" stroke="#9a32cd" stroke-dasharray="5,2" d="M343.97,-5.62889C374.299,-3.57136 415.287,-2.60344 451,-8 456.839,-8.8823 462.811,-10.0474 468.781,-11.4062"/>
<polygon fill="#9a32cd" stroke="#9a32cd" points="343.424,-2.15972 333.712,-6.39345 343.945,-9.14036 343.424,-2.15972"/>
<text text-anchor="middle" x="428" y="-11" font-family="Helvetica,sans-Serif" font-size="10.00"> m_result</text>
</g>
</g>
</svg>
        <g id="navigator" transform="translate(0 0)" fill="#404254">
                <rect fill="#f2f5e9" fill-opacity="0.5" stroke="#606060" stroke-width=".5" x="0" y="0" width="60" height="60"/>
                <use id="zoomplus" xlink:href="#zoomPlus" x="17" y="9" onmousedown="handleZoom(evt,'in')"/>
                <use id="zoomminus" xlink:href="#zoomMin" x="42" y="9" onmousedown="handleZoom(evt,'out')"/>
                <use id="reset" xlink:href="#resetDef" x="30" y="36" onmousedown="handleReset()"/>
                <g id="arrowUp" xlink:href="#dirArrow" transform="translate(30 24)" onmousedown="handlePan(0,-1)">
                  <use xlink:href="#rim" fill="#404040">
                        <set attributeName="fill" to="#808080" begin="arrowUp.mouseover" end="arrowUp.mouseout"/>
                  </use>
                  <path fill="none" stroke="white" stroke-width="1.5" d="M0,-3.0v7 M-2.5,-0.5L0,-3.0L2.5,-0.5"/>
                </g>
                <g id="arrowRight" xlink:href="#dirArrow" transform="rotate(90) translate(36 -43)" onmousedown="handlePan(1,0)">
                  <use xlink:href="#rim" fill="#404040">
                        <set attributeName="fill" to="#808080" begin="arrowRight.mouseover" end="arrowRight.mouseout"/>
                  </use>
                  <path fill="none" stroke="white" stroke-width="1.5" d="M0,-3.0v7 M-2.5,-0.5L0,-3.0L2.5,-0.5"/>
                </g>
                <g id="arrowDown" xlink:href="#dirArrow" transform="rotate(180) translate(-30 -48)" onmousedown="handlePan(0,1)">
                  <use xlink:href="#rim" fill="#404040">
                        <set attributeName="fill" to="#808080" begin="arrowDown.mouseover" end="arrowDown.mouseout"/>
                  </use>
                  <path fill="none" stroke="white" stroke-width="1.5" d="M0,-3.0v7 M-2.5,-0.5L0,-3.0L2.5,-0.5"/>
                </g>
                <g id="arrowLeft" xlink:href="#dirArrow" transform="rotate(270) translate(-36 17)" onmousedown="handlePan(-1,0)">
                  <use xlink:href="#rim" fill="#404040">
                        <set attributeName="fill" to="#808080" begin="arrowLeft.mouseover" end="arrowLeft.mouseout"/>
                  </use>
                  <path fill="none" stroke="white" stroke-width="1.5" d="M0,-3.0v7 M-2.5,-0.5L0,-3.0L2.5,-0.5"/>
                </g>
        </g>
        <svg viewBox="0 0 15 15" width="100%" height="30px" preserveAspectRatio="xMaxYMin meet">
         <g id="arrow_out" transform="scale(0.3 0.3)">
          <a xlink:href="structEigen_1_1internal_1_1product__evaluator_3_01Product_3_01Lhs_00_01RhsView_00_01DefaultProdu1c19ffed2b0c3fa2b6108984966aae0a_org.svg" target="_base">
           <rect id="button" ry="5" rx="5" y="6" x="6" height="38" width="38"
                fill="#f2f5e9" fill-opacity="0.5" stroke="#606060" stroke-width="1.0"/>
           <path id="arrow"
             d="M 11.500037,31.436501 C 11.940474,20.09759 22.043105,11.32322 32.158766,21.979434 L 37.068811,17.246167 C 37.068811,17.246167 37.088388,32 37.088388,32 L 22.160133,31.978069 C 22.160133,31.978069 26.997745,27.140456 26.997745,27.140456 C 18.528582,18.264221 13.291696,25.230495 11.500037,31.436501 z"
             style="fill:#404040;"/>
          </a>
         </g>
        </svg>
</svg>
