<?xml version="1.0" encoding="UTF-8" standalone="no"?>
<!DOCTYPE svg PUBLIC "-//W3C//DTD SVG 1.1//EN"
 "http://www.w3.org/Graphics/SVG/1.1/DTD/svg11.dtd">
<!-- Generated by graphviz version 2.38.0 (20140413.2041)
 -->
<!-- Title: Eigen::internal::etor_product_packet_impl&lt; RowMajor, UnrollingIndex, Lhs, Rhs, Packet, LoadMode &gt;::run Pages: 1 -->
<svg width="523pt" height="159pt"
 viewBox="0.00 0.00 523.00 158.50" xmlns="http://www.w3.org/2000/svg" xmlns:xlink="http://www.w3.org/1999/xlink">
<g id="graph0" class="graph" transform="scale(1 1) rotate(0) translate(4 154.5)">
<title>Eigen::internal::etor_product_packet_impl&lt; RowMajor, UnrollingIndex, Lhs, Rhs, Packet, LoadMode &gt;::run</title>
<!-- Node0 -->
<g id="node1" class="node"><title>Node0</title>
<polygon fill="#bfbfbf" stroke="black" points="0,-76.5 0,-128.5 185,-128.5 185,-76.5 0,-76.5"/>
<text text-anchor="start" x="8" y="-116.5" font-family="Helvetica,sans-Serif" font-size="10.00">Eigen::internal::etor</text>
<text text-anchor="start" x="8" y="-105.5" font-family="Helvetica,sans-Serif" font-size="10.00">_product_packet_impl</text>
<text text-anchor="start" x="8" y="-94.5" font-family="Helvetica,sans-Serif" font-size="10.00">&lt; RowMajor, UnrollingIndex,</text>
<text text-anchor="middle" x="92.5" y="-83.5" font-family="Helvetica,sans-Serif" font-size="10.00"> Lhs, Rhs, Packet, LoadMode &gt;::run</text>
</g>
<!-- Node1 -->
<g id="node2" class="node"><title>Node1</title>
<g id="a_node2"><a xlink:href="MatrixBase__col_8cpp.html#aa168d9544aa6d49fce0cbfc0bec849b0" target="_top" xlink:title="col">
<polygon fill="none" stroke="black" points="268.5,-131 268.5,-150 298.5,-150 298.5,-131 268.5,-131"/>
<text text-anchor="middle" x="283.5" y="-138" font-family="Helvetica,sans-Serif" font-size="10.00">col</text>
</a>
</g>
</g>
<!-- Node0&#45;&gt;Node1 -->
<g id="edge1" class="edge"><title>Node0&#45;&gt;Node1</title>
<path fill="none" stroke="midnightblue" d="M185.232,-120.943C212.278,-126.381 239.626,-131.88 258.405,-135.656"/>
<polygon fill="midnightblue" stroke="midnightblue" points="257.912,-139.126 268.405,-137.666 259.291,-132.264 257.912,-139.126"/>
</g>
<!-- Node2 -->
<g id="node3" class="node"><title>Node2</title>
<g id="a_node3"><a xlink:href="namespaceEigen_1_1internal.html#a74b4d1fb91602aebe1ae5742e8c2d566" target="_top" xlink:title="Eigen::internal::pmadd">
<polygon fill="none" stroke="black" points="221,-93 221,-112 346,-112 346,-93 221,-93"/>
<text text-anchor="middle" x="283.5" y="-100" font-family="Helvetica,sans-Serif" font-size="10.00">Eigen::internal::pmadd</text>
</a>
</g>
</g>
<!-- Node0&#45;&gt;Node2 -->
<g id="edge2" class="edge"><title>Node0&#45;&gt;Node2</title>
<path fill="none" stroke="midnightblue" d="M185.232,-102.5C193.791,-102.5 202.38,-102.5 210.718,-102.5"/>
<polygon fill="midnightblue" stroke="midnightblue" points="210.745,-106 220.745,-102.5 210.745,-99.0001 210.745,-106"/>
</g>
<!-- Node3 -->
<g id="node4" class="node"><title>Node3</title>
<g id="a_node4"><a xlink:href="namespaceEigen_1_1TensorSycl.html#a789ef14500d782279cc4bb95e6ba3dbd" target="_top" xlink:title="Eigen::TensorSycl::run">
<polygon fill="none" stroke="black" points="223,-55 223,-74 344,-74 344,-55 223,-55"/>
<text text-anchor="middle" x="283.5" y="-62" font-family="Helvetica,sans-Serif" font-size="10.00">Eigen::TensorSycl::run</text>
</a>
</g>
</g>
<!-- Node0&#45;&gt;Node3 -->
<g id="edge3" class="edge"><title>Node0&#45;&gt;Node3</title>
<path fill="none" stroke="midnightblue" d="M185.232,-84.0566C198.887,-81.3111 212.619,-78.5501 225.287,-76.0032"/>
<polygon fill="midnightblue" stroke="midnightblue" points="226.082,-79.4134 235.196,-74.0109 224.702,-72.5508 226.082,-79.4134"/>
</g>
<!-- Node4 -->
<g id="node5" class="node"><title>Node4</title>
<g id="a_node5"><a xlink:href="structEigen_1_1TensorEvaluator.html#ae188d806978166eb8cbffbd63c944fb3" target="_top" xlink:title="Eigen::TensorEvaluator\l::evalSubExprsIfNeeded">
<polygon fill="none" stroke="black" points="383.5,-98.5 383.5,-128.5 513.5,-128.5 513.5,-98.5 383.5,-98.5"/>
<text text-anchor="start" x="391.5" y="-116.5" font-family="Helvetica,sans-Serif" font-size="10.00">Eigen::TensorEvaluator</text>
<text text-anchor="middle" x="448.5" y="-105.5" font-family="Helvetica,sans-Serif" font-size="10.00">::evalSubExprsIfNeeded</text>
</a>
</g>
</g>
<!-- Node3&#45;&gt;Node4 -->
<g id="edge4" class="edge"><title>Node3&#45;&gt;Node4</title>
<path fill="none" stroke="midnightblue" d="M316.315,-74.064C336.591,-80.1592 363.501,-88.2488 387.67,-95.5143"/>
<polygon fill="midnightblue" stroke="midnightblue" points="386.895,-98.9359 397.479,-98.463 388.91,-92.2323 386.895,-98.9359"/>
</g>
<!-- Node5 -->
<g id="node6" class="node"><title>Node5</title>
<g id="a_node6"><a xlink:href="namespaceEigen_1_1TensorSycl_1_1internal.html#a525ee07cdeb68d18359b511b1ae9ffc7" target="_top" xlink:title="template deduction function for FunctorExtractor ">
<polygon fill="none" stroke="black" points="382,-49.5 382,-79.5 515,-79.5 515,-49.5 382,-49.5"/>
<text text-anchor="start" x="390" y="-67.5" font-family="Helvetica,sans-Serif" font-size="10.00">Eigen::TensorSycl::</text>
<text text-anchor="middle" x="448.5" y="-56.5" font-family="Helvetica,sans-Serif" font-size="10.00">internal::extractFunctors</text>
</a>
</g>
</g>
<!-- Node3&#45;&gt;Node5 -->
<g id="edge5" class="edge"><title>Node3&#45;&gt;Node5</title>
<path fill="none" stroke="midnightblue" d="M344.27,-64.5C353.278,-64.5 362.667,-64.5 371.954,-64.5"/>
<polygon fill="midnightblue" stroke="midnightblue" points="371.967,-68.0001 381.967,-64.5 371.967,-61.0001 371.967,-68.0001"/>
</g>
<!-- Node6 -->
<g id="node7" class="node"><title>Node6</title>
<g id="a_node7"><a xlink:href="structEigen_1_1TensorEvaluator.html#a76ec54bcca9523ec104aaa9adaf74983" target="_top" xlink:title="Eigen::TensorEvaluator\l::cleanup">
<polygon fill="none" stroke="black" points="386,-0.5 386,-30.5 511,-30.5 511,-0.5 386,-0.5"/>
<text text-anchor="start" x="394" y="-18.5" font-family="Helvetica,sans-Serif" font-size="10.00">Eigen::TensorEvaluator</text>
<text text-anchor="middle" x="448.5" y="-7.5" font-family="Helvetica,sans-Serif" font-size="10.00">::cleanup</text>
</a>
</g>
</g>
<!-- Node3&#45;&gt;Node6 -->
<g id="edge6" class="edge"><title>Node3&#45;&gt;Node6</title>
<path fill="none" stroke="midnightblue" d="M316.315,-54.936C336.591,-48.8408 363.501,-40.7512 387.67,-33.4857"/>
<polygon fill="midnightblue" stroke="midnightblue" points="388.91,-36.7677 397.479,-30.537 386.895,-30.0641 388.91,-36.7677"/>
</g>
</g>
</svg>
