<?xml version="1.0" encoding="UTF-8" standalone="no"?>
<!DOCTYPE svg PUBLIC "-//W3C//DTD SVG 1.1//EN"
 "http://www.w3.org/Graphics/SVG/1.1/DTD/svg11.dtd">
<!-- Generated by graphviz version 2.38.0 (20140413.2041)
 -->
<!-- Title: Eigen::internal::evaluator_wrapper_base&lt; XprType &gt; Pages: 1 -->
<svg width="572pt" height="88pt"
 viewBox="0.00 0.00 572.00 88.00" xmlns="http://www.w3.org/2000/svg" xmlns:xlink="http://www.w3.org/1999/xlink">
<g id="graph0" class="graph" transform="scale(1 1) rotate(0) translate(4 84)">
<title>Eigen::internal::evaluator_wrapper_base&lt; XprType &gt;</title>
<!-- Node3 -->
<g id="node1" class="node"><title>Node3</title>
<polygon fill="#bfbfbf" stroke="black" points="416,-27.5 416,-57.5 564,-57.5 564,-27.5 416,-27.5"/>
<text text-anchor="start" x="424" y="-45.5" font-family="Helvetica,sans-Serif" font-size="10.00">Eigen::internal::evaluator</text>
<text text-anchor="middle" x="490" y="-34.5" font-family="Helvetica,sans-Serif" font-size="10.00">_wrapper_base&lt; XprType &gt;</text>
</g>
<!-- Node4 -->
<g id="node2" class="node"><title>Node4</title>
<g id="a_node2"><a xlink:href="structEigen_1_1internal_1_1evaluator__base.html" target="_top" xlink:title="Eigen::internal::evaluator\l_base\&lt; XprType \&gt;">
<polygon fill="none" stroke="black" points="189,-49.5 189,-79.5 325,-79.5 325,-49.5 189,-49.5"/>
<text text-anchor="start" x="197" y="-67.5" font-family="Helvetica,sans-Serif" font-size="10.00">Eigen::internal::evaluator</text>
<text text-anchor="middle" x="257" y="-56.5" font-family="Helvetica,sans-Serif" font-size="10.00">_base&lt; XprType &gt;</text>
</a>
</g>
</g>
<!-- Node4&#45;&gt;Node3 -->
<g id="edge1" class="edge"><title>Node4&#45;&gt;Node3</title>
<path fill="none" stroke="midnightblue" d="M335.282,-57.1398C361.207,-54.6708 390.027,-51.926 415.642,-49.4865"/>
<polygon fill="midnightblue" stroke="midnightblue" points="334.748,-53.6747 325.125,-58.1071 335.412,-60.6432 334.748,-53.6747"/>
</g>
<!-- Node5 -->
<g id="node3" class="node"><title>Node5</title>
<g id="a_node3"><a xlink:href="classEigen_1_1internal_1_1noncopyable.html" target="_top" xlink:title="Eigen::internal::noncopyable">
<polygon fill="none" stroke="black" points="0,-55 0,-74 152,-74 152,-55 0,-55"/>
<text text-anchor="middle" x="76" y="-62" font-family="Helvetica,sans-Serif" font-size="10.00">Eigen::internal::noncopyable</text>
</a>
</g>
</g>
<!-- Node5&#45;&gt;Node4 -->
<g id="edge2" class="edge"><title>Node5&#45;&gt;Node4</title>
<path fill="none" stroke="midnightblue" d="M162.164,-64.5C171.086,-64.5 180.065,-64.5 188.747,-64.5"/>
<polygon fill="midnightblue" stroke="midnightblue" points="162.134,-61.0001 152.134,-64.5 162.134,-68.0001 162.134,-61.0001"/>
</g>
<!-- Node6 -->
<g id="node4" class="node"><title>Node6</title>
<g id="a_node4"><a xlink:href="structEigen_1_1internal_1_1evaluator.html" target="_top" xlink:title="Eigen::internal::evaluator\l\&lt; Eigen::Triplet \&gt;">
<polygon fill="none" stroke="black" points="189,-0.5 189,-30.5 325,-30.5 325,-0.5 189,-0.5"/>
<text text-anchor="start" x="197" y="-18.5" font-family="Helvetica,sans-Serif" font-size="10.00">Eigen::internal::evaluator</text>
<text text-anchor="middle" x="257" y="-7.5" font-family="Helvetica,sans-Serif" font-size="10.00">&lt; Eigen::Triplet &gt;</text>
</a>
</g>
</g>
<!-- Node6&#45;&gt;Node3 -->
<g id="edge3" class="edge"><title>Node6&#45;&gt;Node3</title>
<path fill="none" stroke="#9a32cd" stroke-dasharray="5,2" d="M335.282,-24.5329C361.207,-27.5631 390.027,-30.9317 415.642,-33.9257"/>
<polygon fill="#9a32cd" stroke="#9a32cd" points="335.464,-21.0305 325.125,-23.3458 334.651,-27.9831 335.464,-21.0305"/>
<text text-anchor="middle" x="370.5" y="-34.5" font-family="Helvetica,sans-Serif" font-size="10.00"> m_argImpl</text>
</g>
<!-- Node7 -->
<g id="node5" class="node"><title>Node7</title>
<g id="a_node5"><a xlink:href="structEigen_1_1internal_1_1unary__evaluator.html" target="_top" xlink:title="Eigen::internal::unary\l_evaluator\&lt; Eigen::Triplet \&gt;">
<polygon fill="none" stroke="black" points="1.5,-0.5 1.5,-30.5 150.5,-30.5 150.5,-0.5 1.5,-0.5"/>
<text text-anchor="start" x="9.5" y="-18.5" font-family="Helvetica,sans-Serif" font-size="10.00">Eigen::internal::unary</text>
<text text-anchor="middle" x="76" y="-7.5" font-family="Helvetica,sans-Serif" font-size="10.00">_evaluator&lt; Eigen::Triplet &gt;</text>
</a>
</g>
</g>
<!-- Node7&#45;&gt;Node6 -->
<g id="edge4" class="edge"><title>Node7&#45;&gt;Node6</title>
<path fill="none" stroke="midnightblue" d="M160.72,-15.5C170.113,-15.5 179.591,-15.5 188.738,-15.5"/>
<polygon fill="midnightblue" stroke="midnightblue" points="160.581,-12.0001 150.581,-15.5 160.581,-19.0001 160.581,-12.0001"/>
</g>
</g>
</svg>
