<?xml version="1.0" encoding="UTF-8" standalone="no"?>
<!DOCTYPE svg PUBLIC "-//W3C//DTD SVG 1.1//EN"
 "http://www.w3.org/Graphics/SVG/1.1/DTD/svg11.dtd">
<!-- Generated by graphviz version 2.38.0 (20140413.2041)
 -->
<!-- Title: Eigen::EigenBase::size Pages: 1 -->
<svg width="518pt" height="149pt"
 viewBox="0.00 0.00 518.00 148.50" xmlns="http://www.w3.org/2000/svg" xmlns:xlink="http://www.w3.org/1999/xlink">
<g id="graph0" class="graph" transform="scale(1 1) rotate(0) translate(4 144.5)">
<title>Eigen::EigenBase::size</title>
<!-- Node142 -->
<g id="node1" class="node"><title>Node142</title>
<polygon fill="#bfbfbf" stroke="black" points="0,-44.5 0,-63.5 124,-63.5 124,-44.5 0,-44.5"/>
<text text-anchor="middle" x="62" y="-51.5" font-family="Helvetica,sans-Serif" font-size="10.00">Eigen::EigenBase::size</text>
</g>
<!-- Node143 -->
<g id="node2" class="node"><title>Node143</title>
<g id="a_node2"><a xlink:href="classEigen_1_1PlainObjectBase.html#ac61a071ebfe1068ff76095b617a35e93" target="_top" xlink:title="Eigen::PlainObjectBase\l\&lt; Matrix\&lt; _Scalar, _Rows,\l _Cols, _Options, _MaxRows,\l _MaxCols \&gt; \&gt;::_resize_to_match">
<polygon fill="none" stroke="black" points="160,-88 160,-140 338,-140 338,-88 160,-88"/>
<text text-anchor="start" x="168" y="-128" font-family="Helvetica,sans-Serif" font-size="10.00">Eigen::PlainObjectBase</text>
<text text-anchor="start" x="168" y="-117" font-family="Helvetica,sans-Serif" font-size="10.00">&lt; Matrix&lt; _Scalar, _Rows,</text>
<text text-anchor="start" x="168" y="-106" font-family="Helvetica,sans-Serif" font-size="10.00"> _Cols, _Options, _MaxRows,</text>
<text text-anchor="middle" x="249" y="-95" font-family="Helvetica,sans-Serif" font-size="10.00"> _MaxCols &gt; &gt;::_resize_to_match</text>
</a>
</g>
</g>
<!-- Node142&#45;&gt;Node143 -->
<g id="edge1" class="edge"><title>Node142&#45;&gt;Node143</title>
<path fill="none" stroke="midnightblue" d="M101.876,-66.6083C121.036,-72.8224 144.885,-80.5573 167.722,-87.964"/>
<polygon fill="midnightblue" stroke="midnightblue" points="102.906,-63.263 92.3138,-63.5072 100.746,-69.9216 102.906,-63.263"/>
</g>
<!-- Node144 -->
<g id="node3" class="node"><title>Node144</title>
<g id="a_node3"><a xlink:href="classEigen_1_1FullPivLU.html#ae2ef37e62e6f776e1958d6a7591863c2" target="_top" xlink:title="Eigen::FullPivLU::compute\lInPlace">
<polygon fill="none" stroke="black" points="180,-39 180,-69 318,-69 318,-39 180,-39"/>
<text text-anchor="start" x="188" y="-57" font-family="Helvetica,sans-Serif" font-size="10.00">Eigen::FullPivLU::compute</text>
<text text-anchor="middle" x="249" y="-46" font-family="Helvetica,sans-Serif" font-size="10.00">InPlace</text>
</a>
</g>
</g>
<!-- Node142&#45;&gt;Node144 -->
<g id="edge2" class="edge"><title>Node142&#45;&gt;Node144</title>
<path fill="none" stroke="midnightblue" d="M134.32,-54C149.309,-54 165.082,-54 179.948,-54"/>
<polygon fill="midnightblue" stroke="midnightblue" points="134.089,-50.5001 124.089,-54 134.089,-57.5001 134.089,-50.5001"/>
</g>
<!-- Node146 -->
<g id="node5" class="node"><title>Node146</title>
<g id="a_node5"><a xlink:href="function__taking__eigenbase_8cpp.html#a0e91892c7e25e25313e5b34d53e9df0f" target="_top" xlink:title="print_size">
<polygon fill="none" stroke="black" points="218,-0.5 218,-19.5 280,-19.5 280,-0.5 218,-0.5"/>
<text text-anchor="middle" x="249" y="-7.5" font-family="Helvetica,sans-Serif" font-size="10.00">print_size</text>
</a>
</g>
</g>
<!-- Node142&#45;&gt;Node146 -->
<g id="edge4" class="edge"><title>Node142&#45;&gt;Node146</title>
<path fill="none" stroke="midnightblue" d="M108.613,-41.8473C124.805,-37.6384 143.183,-32.981 160,-29 179.164,-24.4635 200.781,-19.7899 217.794,-16.2131"/>
<polygon fill="midnightblue" stroke="midnightblue" points="107.637,-38.4848 98.847,-44.3998 109.407,-45.2573 107.637,-38.4848"/>
</g>
<!-- Node145 -->
<g id="node4" class="node"><title>Node145</title>
<g id="a_node4"><a xlink:href="classEigen_1_1FullPivLU.html#a3e903b9f401e3fc5d1ca7c6951c76185" target="_top" xlink:title="Constructs a LU factorization from a given matrix. ">
<polygon fill="none" stroke="black" points="374,-44.5 374,-63.5 510,-63.5 510,-44.5 374,-44.5"/>
<text text-anchor="middle" x="442" y="-51.5" font-family="Helvetica,sans-Serif" font-size="10.00">Eigen::FullPivLU::FullPivLU</text>
</a>
</g>
</g>
<!-- Node144&#45;&gt;Node145 -->
<g id="edge3" class="edge"><title>Node144&#45;&gt;Node145</title>
<path fill="none" stroke="midnightblue" d="M328.463,-54C343.527,-54 359.175,-54 373.843,-54"/>
<polygon fill="midnightblue" stroke="midnightblue" points="328.147,-50.5001 318.146,-54 328.146,-57.5001 328.147,-50.5001"/>
</g>
<!-- Node147 -->
<g id="node6" class="node"><title>Node147</title>
<g id="a_node6"><a xlink:href="function__taking__eigenbase_8cpp.html#ae66f6b31b5ad750f1fe042a706a4e3d4" target="_top" xlink:title="main">
<polygon fill="none" stroke="black" points="421.5,-0.5 421.5,-19.5 462.5,-19.5 462.5,-0.5 421.5,-0.5"/>
<text text-anchor="middle" x="442" y="-7.5" font-family="Helvetica,sans-Serif" font-size="10.00">main</text>
</a>
</g>
</g>
<!-- Node146&#45;&gt;Node147 -->
<g id="edge5" class="edge"><title>Node146&#45;&gt;Node147</title>
<path fill="none" stroke="midnightblue" d="M290.284,-10C330.507,-10 390.637,-10 421.374,-10"/>
<polygon fill="midnightblue" stroke="midnightblue" points="290.265,-6.5001 280.265,-10 290.264,-13.5001 290.265,-6.5001"/>
</g>
</g>
</svg>
