<?xml version="1.0" encoding="UTF-8" standalone="no"?>
<!DOCTYPE svg PUBLIC "-//W3C//DTD SVG 1.1//EN"
 "http://www.w3.org/Graphics/SVG/1.1/DTD/svg11.dtd">
<!-- Generated by graphviz version 2.38.0 (20140413.2041)
 -->
<!-- Title: Eigen::internal::conj_helper&lt; std::complex&lt; RealScalar &gt;, std::complex&lt; RealScalar &gt;, true, true &gt;::pmul Pages: 1 -->
<svg width="560pt" height="85pt"
 viewBox="0.00 0.00 560.00 85.00" xmlns="http://www.w3.org/2000/svg" xmlns:xlink="http://www.w3.org/1999/xlink">
<g id="graph0" class="graph" transform="scale(1 1) rotate(0) translate(4 81)">
<title>Eigen::internal::conj_helper&lt; std::complex&lt; RealScalar &gt;, std::complex&lt; RealScalar &gt;, true, true &gt;::pmul</title>
<!-- Node3 -->
<g id="node1" class="node"><title>Node3</title>
<polygon fill="#bfbfbf" stroke="black" points="0,-3 0,-55 181,-55 181,-3 0,-3"/>
<text text-anchor="start" x="8" y="-43" font-family="Helvetica,sans-Serif" font-size="10.00">Eigen::internal::conj</text>
<text text-anchor="start" x="8" y="-32" font-family="Helvetica,sans-Serif" font-size="10.00">_helper&lt; std::complex</text>
<text text-anchor="start" x="8" y="-21" font-family="Helvetica,sans-Serif" font-size="10.00">&lt; RealScalar &gt;, std::complex</text>
<text text-anchor="middle" x="90.5" y="-10" font-family="Helvetica,sans-Serif" font-size="10.00">&lt; RealScalar &gt;, true, true &gt;::pmul</text>
</g>
<!-- Node4 -->
<g id="node2" class="node"><title>Node4</title>
<g id="a_node2"><a xlink:href="CommonCwiseUnaryOps_8h.html#a8f366de9a7bba88c7988324754f1756e" target="_top" xlink:title="imag">
<polygon fill="none" stroke="black" points="217,-19.5 217,-38.5 258,-38.5 258,-19.5 217,-19.5"/>
<text text-anchor="middle" x="237.5" y="-26.5" font-family="Helvetica,sans-Serif" font-size="10.00">imag</text>
</a>
</g>
</g>
<!-- Node3&#45;&gt;Node4 -->
<g id="edge1" class="edge"><title>Node3&#45;&gt;Node4</title>
<path fill="none" stroke="midnightblue" d="M181.268,-29C190.325,-29 199.001,-29 206.683,-29"/>
<polygon fill="midnightblue" stroke="midnightblue" points="206.819,-32.5001 216.819,-29 206.819,-25.5001 206.819,-32.5001"/>
</g>
<!-- Node5 -->
<g id="node3" class="node"><title>Node5</title>
<g id="a_node3"><a xlink:href="CommonCwiseUnaryOps_8h.html#ab8047e72312c629685f323ffa253de80" target="_top" xlink:title="Apply a unary operator coefficient&#45;wise. ">
<polygon fill="none" stroke="black" points="294,-57.5 294,-76.5 359,-76.5 359,-57.5 294,-57.5"/>
<text text-anchor="middle" x="326.5" y="-64.5" font-family="Helvetica,sans-Serif" font-size="10.00">unaryExpr</text>
</a>
</g>
</g>
<!-- Node4&#45;&gt;Node5 -->
<g id="edge2" class="edge"><title>Node4&#45;&gt;Node5</title>
<path fill="none" stroke="midnightblue" d="M258.242,-37.6228C268.923,-42.288 282.36,-48.1573 294.411,-53.4208"/>
<polygon fill="midnightblue" stroke="midnightblue" points="293.134,-56.6823 303.699,-57.4777 295.936,-50.2675 293.134,-56.6823"/>
</g>
<!-- Node6 -->
<g id="node4" class="node"><title>Node6</title>
<g id="a_node4"><a xlink:href="CommonCwiseUnaryOps_8h.html#a77fe7ae45351d38a1936f075e555760d" target="_top" xlink:title="unaryViewExpr">
<polygon fill="none" stroke="black" points="395,-19.5 395,-38.5 481,-38.5 481,-19.5 395,-19.5"/>
<text text-anchor="middle" x="438" y="-26.5" font-family="Helvetica,sans-Serif" font-size="10.00">unaryViewExpr</text>
</a>
</g>
</g>
<!-- Node5&#45;&gt;Node6 -->
<g id="edge3" class="edge"><title>Node5&#45;&gt;Node6</title>
<path fill="none" stroke="midnightblue" d="M355.131,-57.411C368.618,-52.7306 385.043,-47.0308 399.63,-41.9685"/>
<polygon fill="midnightblue" stroke="midnightblue" points="401.078,-45.1711 409.377,-38.5859 398.783,-38.558 401.078,-45.1711"/>
</g>
<!-- Node6&#45;&gt;Node4 -->
<g id="edge4" class="edge"><title>Node6&#45;&gt;Node4</title>
<path fill="none" stroke="midnightblue" d="M394.862,-29C356.889,-29 302.01,-29 268.382,-29"/>
<polygon fill="midnightblue" stroke="midnightblue" points="268.259,-25.5001 258.259,-29 268.259,-32.5001 268.259,-25.5001"/>
</g>
<!-- Node7 -->
<g id="node5" class="node"><title>Node7</title>
<g id="a_node5"><a xlink:href="CommonCwiseUnaryOps_8h.html#a756e40bd56eb3768e9dd9d2ecf0a0c4f" target="_top" xlink:title="real">
<polygon fill="none" stroke="black" points="517,-0.5 517,-19.5 552,-19.5 552,-0.5 517,-0.5"/>
<text text-anchor="middle" x="534.5" y="-7.5" font-family="Helvetica,sans-Serif" font-size="10.00">real</text>
</a>
</g>
</g>
<!-- Node6&#45;&gt;Node7 -->
<g id="edge5" class="edge"><title>Node6&#45;&gt;Node7</title>
<path fill="none" stroke="midnightblue" d="M481.275,-20.5003C490.022,-18.7416 499,-16.9366 506.99,-15.3301"/>
<polygon fill="midnightblue" stroke="midnightblue" points="507.709,-18.7556 516.823,-13.3531 506.329,-11.893 507.709,-18.7556"/>
</g>
<!-- Node7&#45;&gt;Node4 -->
<g id="edge6" class="edge"><title>Node7&#45;&gt;Node4</title>
<path fill="none" stroke="midnightblue" d="M516.851,-9.35198C490.823,-8.48499 438.922,-7.34354 395,-10 350.767,-12.6753 299.884,-19.5667 268.456,-24.271"/>
<polygon fill="midnightblue" stroke="midnightblue" points="267.554,-20.868 258.194,-25.8333 268.607,-27.7883 267.554,-20.868"/>
</g>
</g>
</svg>
