<?xml version="1.0" encoding="UTF-8" standalone="no"?>
<!DOCTYPE svg PUBLIC "-//W3C//DTD SVG 1.1//EN"
 "http://www.w3.org/Graphics/SVG/1.1/DTD/svg11.dtd">
<!-- Generated by graphviz version 2.38.0 (20140413.2041)
 -->
<!-- Title: Eigen::TensorEvaluator&lt; const TensorTupleReducerOp&lt; ReduceOp, Dims, ArgType &gt;, Device &gt;::TensorEvaluator Pages: 1 -->
<svg width="730pt" height="61pt"
 viewBox="0.00 0.00 730.00 61.00" xmlns="http://www.w3.org/2000/svg" xmlns:xlink="http://www.w3.org/1999/xlink">
<g id="graph0" class="graph" transform="scale(1 1) rotate(0) translate(4 57)">
<title>Eigen::TensorEvaluator&lt; const TensorTupleReducerOp&lt; ReduceOp, Dims, ArgType &gt;, Device &gt;::TensorEvaluator</title>
<!-- Node0 -->
<g id="node1" class="node"><title>Node0</title>
<polygon fill="#bfbfbf" stroke="black" points="0,-0.5 0,-52.5 164,-52.5 164,-0.5 0,-0.5"/>
<text text-anchor="start" x="8" y="-40.5" font-family="Helvetica,sans-Serif" font-size="10.00">Eigen::TensorEvaluator</text>
<text text-anchor="start" x="8" y="-29.5" font-family="Helvetica,sans-Serif" font-size="10.00">&lt; const TensorTupleReducerOp</text>
<text text-anchor="start" x="8" y="-18.5" font-family="Helvetica,sans-Serif" font-size="10.00">&lt; ReduceOp, Dims, ArgType</text>
<text text-anchor="middle" x="82" y="-7.5" font-family="Helvetica,sans-Serif" font-size="10.00"> &gt;, Device &gt;::TensorEvaluator</text>
</g>
<!-- Node1 -->
<g id="node2" class="node"><title>Node1</title>
<g id="a_node2"><a xlink:href="namespaceEigen_1_1internal.html#a3b99e338d92a91c8b3f89d32d0ca2c39" target="_top" xlink:title="Eigen::internal::array_prod">
<polygon fill="none" stroke="black" points="200,-17 200,-36 343,-36 343,-17 200,-17"/>
<text text-anchor="middle" x="271.5" y="-24" font-family="Helvetica,sans-Serif" font-size="10.00">Eigen::internal::array_prod</text>
</a>
</g>
</g>
<!-- Node0&#45;&gt;Node1 -->
<g id="edge1" class="edge"><title>Node0&#45;&gt;Node1</title>
<path fill="none" stroke="midnightblue" d="M164.15,-26.5C172.593,-26.5 181.176,-26.5 189.616,-26.5"/>
<polygon fill="midnightblue" stroke="midnightblue" points="189.823,-30.0001 199.823,-26.5 189.823,-23.0001 189.823,-30.0001"/>
</g>
<!-- Node2 -->
<g id="node3" class="node"><title>Node2</title>
<g id="a_node3"><a xlink:href="structEigen_1_1internal_1_1fixed__size__tensor__index__linearization__helper.html#ad9f850bf5d539ce2ceb45a27e8ae4975" target="_top" xlink:title="Eigen::internal::fixed\l_size_tensor_index_linearization\l_helper::run">
<polygon fill="none" stroke="black" points="379,-6 379,-47 549,-47 549,-6 379,-6"/>
<text text-anchor="start" x="387" y="-35" font-family="Helvetica,sans-Serif" font-size="10.00">Eigen::internal::fixed</text>
<text text-anchor="start" x="387" y="-24" font-family="Helvetica,sans-Serif" font-size="10.00">_size_tensor_index_linearization</text>
<text text-anchor="middle" x="464" y="-13" font-family="Helvetica,sans-Serif" font-size="10.00">_helper::run</text>
</a>
</g>
</g>
<!-- Node1&#45;&gt;Node2 -->
<g id="edge2" class="edge"><title>Node1&#45;&gt;Node2</title>
<path fill="none" stroke="midnightblue" d="M343.164,-26.5C351.536,-26.5 360.18,-26.5 368.812,-26.5"/>
<polygon fill="midnightblue" stroke="midnightblue" points="368.923,-30.0001 378.923,-26.5 368.923,-23.0001 368.923,-30.0001"/>
</g>
<!-- Node3 -->
<g id="node4" class="node"><title>Node3</title>
<g id="a_node4"><a xlink:href="namespaceEigen_1_1internal.html#a7dd131bbd4a892f4d48cfce903de56c5" target="_top" xlink:title="Eigen::internal::array_get">
<polygon fill="none" stroke="black" points="585,-17 585,-36 722,-36 722,-17 585,-17"/>
<text text-anchor="middle" x="653.5" y="-24" font-family="Helvetica,sans-Serif" font-size="10.00">Eigen::internal::array_get</text>
</a>
</g>
</g>
<!-- Node2&#45;&gt;Node3 -->
<g id="edge3" class="edge"><title>Node2&#45;&gt;Node3</title>
<path fill="none" stroke="midnightblue" d="M549.152,-26.5C557.665,-26.5 566.285,-26.5 574.727,-26.5"/>
<polygon fill="midnightblue" stroke="midnightblue" points="574.916,-30.0001 584.916,-26.5 574.916,-23.0001 574.916,-30.0001"/>
</g>
</g>
</svg>
