<?xml version="1.0" encoding="UTF-8" standalone="no"?>
<!DOCTYPE svg PUBLIC "-//W3C//DTD SVG 1.1//EN"
 "http://www.w3.org/Graphics/SVG/1.1/DTD/svg11.dtd">
<!-- Generated by graphviz version 2.38.0 (20140413.2041)
 -->
<!-- Title: svd_check_full Pages: 1 -->
<svg width="514pt" height="91pt"
 viewBox="0.00 0.00 514.00 91.00" xmlns="http://www.w3.org/2000/svg" xmlns:xlink="http://www.w3.org/1999/xlink">
<g id="graph0" class="graph" transform="scale(1 1) rotate(0) translate(4 87)">
<title>svd_check_full</title>
<!-- Node9 -->
<g id="node1" class="node"><title>Node9</title>
<polygon fill="#bfbfbf" stroke="black" points="0,-22.5 0,-41.5 85,-41.5 85,-22.5 0,-22.5"/>
<text text-anchor="middle" x="42.5" y="-29.5" font-family="Helvetica,sans-Serif" font-size="10.00">svd_check_full</text>
</g>
<!-- Node10 -->
<g id="node2" class="node"><title>Node10</title>
<g id="a_node2"><a xlink:href="svd__common_8h.html#ab1630fb76a0e3e342bffe3dd03e8619d" target="_top" xlink:title="svd_test_all_computation\l_options">
<polygon fill="none" stroke="black" points="121,-39 121,-69 260,-69 260,-39 121,-39"/>
<text text-anchor="start" x="129" y="-57" font-family="Helvetica,sans-Serif" font-size="10.00">svd_test_all_computation</text>
<text text-anchor="middle" x="190.5" y="-46" font-family="Helvetica,sans-Serif" font-size="10.00">_options</text>
</a>
</g>
</g>
<!-- Node9&#45;&gt;Node10 -->
<g id="edge1" class="edge"><title>Node9&#45;&gt;Node10</title>
<path fill="none" stroke="midnightblue" d="M95.2484,-39.7977C103.564,-41.0507 112.283,-42.3645 120.919,-43.6658"/>
<polygon fill="midnightblue" stroke="midnightblue" points="95.7476,-36.3335 85.3377,-38.3043 94.7046,-43.2554 95.7476,-36.3335"/>
</g>
<!-- Node15 -->
<g id="node7" class="node"><title>Node15</title>
<g id="a_node7"><a xlink:href="svd__common_8h.html#a7cbc24ede5c93bde20c682c51ef2439a" target="_top" xlink:title="svd_underoverflow">
<polygon fill="none" stroke="black" points="138,-0.5 138,-19.5 243,-19.5 243,-0.5 138,-0.5"/>
<text text-anchor="middle" x="190.5" y="-7.5" font-family="Helvetica,sans-Serif" font-size="10.00">svd_underoverflow</text>
</a>
</g>
</g>
<!-- Node9&#45;&gt;Node15 -->
<g id="edge7" class="edge"><title>Node9&#45;&gt;Node15</title>
<path fill="none" stroke="midnightblue" d="M95.5809,-24.1522C109.297,-22.0853 124.09,-19.8563 137.787,-17.7924"/>
<polygon fill="midnightblue" stroke="midnightblue" points="94.7046,-20.7446 85.3377,-25.6957 95.7476,-27.6665 94.7046,-20.7446"/>
</g>
<!-- Node11 -->
<g id="node3" class="node"><title>Node11</title>
<g id="a_node3"><a xlink:href="bdcsvd_8cpp.html#a55d9069ac4c9bf0feb5f2e1d3760f118" target="_top" xlink:title="bdcsvd">
<polygon fill="none" stroke="black" points="301.5,-63.5 301.5,-82.5 351.5,-82.5 351.5,-63.5 301.5,-63.5"/>
<text text-anchor="middle" x="326.5" y="-70.5" font-family="Helvetica,sans-Serif" font-size="10.00">bdcsvd</text>
</a>
</g>
</g>
<!-- Node10&#45;&gt;Node11 -->
<g id="edge2" class="edge"><title>Node10&#45;&gt;Node11</title>
<path fill="none" stroke="midnightblue" d="M270.087,-65.1429C281.391,-66.7457 292.241,-68.2841 301.297,-69.5682"/>
<polygon fill="midnightblue" stroke="midnightblue" points="270.463,-61.6613 260.07,-63.7226 269.48,-68.5919 270.463,-61.6613"/>
</g>
<!-- Node14 -->
<g id="node6" class="node"><title>Node14</title>
<g id="a_node6"><a xlink:href="jacobisvd_8cpp.html#a2d5810666a5ef33f431b89cce0a56958" target="_top" xlink:title="jacobisvd">
<polygon fill="none" stroke="black" points="296,-25.5 296,-44.5 357,-44.5 357,-25.5 296,-25.5"/>
<text text-anchor="middle" x="326.5" y="-32.5" font-family="Helvetica,sans-Serif" font-size="10.00">jacobisvd</text>
</a>
</g>
</g>
<!-- Node10&#45;&gt;Node14 -->
<g id="edge5" class="edge"><title>Node10&#45;&gt;Node14</title>
<path fill="none" stroke="midnightblue" d="M270.078,-42.8583C279.225,-41.5615 288.074,-40.3067 295.917,-39.1946"/>
<polygon fill="midnightblue" stroke="midnightblue" points="269.48,-39.4081 260.07,-44.2774 270.463,-46.3387 269.48,-39.4081"/>
</g>
<!-- Node12 -->
<g id="node4" class="node"><title>Node12</title>
<g id="a_node4"><a xlink:href="dense__solvers_8cpp.html#a578ba2d5aea4aaa8751e7311d8384181" target="_top" xlink:title="bench">
<polygon fill="none" stroke="black" points="426.5,-63.5 426.5,-82.5 472.5,-82.5 472.5,-63.5 426.5,-63.5"/>
<text text-anchor="middle" x="449.5" y="-70.5" font-family="Helvetica,sans-Serif" font-size="10.00">bench</text>
</a>
</g>
</g>
<!-- Node11&#45;&gt;Node12 -->
<g id="edge3" class="edge"><title>Node11&#45;&gt;Node12</title>
<path fill="none" stroke="midnightblue" d="M361.708,-73C382.449,-73 408.309,-73 426.384,-73"/>
<polygon fill="midnightblue" stroke="midnightblue" points="361.695,-69.5001 351.695,-73 361.695,-76.5001 361.695,-69.5001"/>
</g>
<!-- Node13 -->
<g id="node5" class="node"><title>Node13</title>
<g id="a_node5"><a xlink:href="boostmultiprec_8cpp.html#af8983cadf0ba3b55cb55879f4b3d833d" target="_top" xlink:title="test_boostmultiprec">
<polygon fill="none" stroke="black" points="393,-25.5 393,-44.5 506,-44.5 506,-25.5 393,-25.5"/>
<text text-anchor="middle" x="449.5" y="-32.5" font-family="Helvetica,sans-Serif" font-size="10.00">test_boostmultiprec</text>
</a>
</g>
</g>
<!-- Node11&#45;&gt;Node13 -->
<g id="edge4" class="edge"><title>Node11&#45;&gt;Node13</title>
<path fill="none" stroke="midnightblue" d="M361.618,-62.2853C379.308,-56.7299 400.739,-49.9992 417.891,-44.6128"/>
<polygon fill="midnightblue" stroke="midnightblue" points="360.187,-59.066 351.695,-65.4015 362.285,-65.7444 360.187,-59.066"/>
</g>
<!-- Node14&#45;&gt;Node13 -->
<g id="edge6" class="edge"><title>Node14&#45;&gt;Node13</title>
<path fill="none" stroke="midnightblue" d="M367.115,-35C375.31,-35 384.088,-35 392.736,-35"/>
<polygon fill="midnightblue" stroke="midnightblue" points="367.1,-31.5001 357.1,-35 367.1,-38.5001 367.1,-31.5001"/>
</g>
</g>
</svg>
