<?xml version="1.0" encoding="UTF-8" standalone="no"?>
<!DOCTYPE svg PUBLIC "-//W3C//DTD SVG 1.1//EN"
 "http://www.w3.org/Graphics/SVG/1.1/DTD/svg11.dtd">
<!-- Generated by graphviz version 2.38.0 (20140413.2041)
 -->
<!-- Title: EIGEN_LAPACK_FUNC Pages: 1 -->
<!--zoomable 328 -->
<svg id="main" version="1.1" xmlns="http://www.w3.org/2000/svg" xmlns:xlink="http://www.w3.org/1999/xlink" xml:space="preserve" onload="init(evt)">
<style type="text/css"><![CDATA[
.edge:hover path { stroke: red; }
.edge:hover polygon { stroke: red; fill: red; }
]]></style>
<script type="text/javascript"><![CDATA[
var edges = document.getElementsByTagName('g');
if (edges && edges.length) {
  for (var i=0;i<edges.length;i++) {
    if (edges[i].id.substr(0,4)=='edge') {
      edges[i].setAttribute('class','edge');
    }
  }
}
]]></script>
        <defs>
                <circle id="rim" cx="0" cy="0" r="7"/>
                <circle id="rim2" cx="0" cy="0" r="3.5"/>
                <g id="zoomPlus">
                        <use xlink:href="#rim" fill="#404040">
                                <set attributeName="fill" to="#808080" begin="zoomplus.mouseover" end="zoomplus.mouseout"/>
                        </use>
                        <path d="M-4,0h8M0,-4v8" fill="none" stroke="white" stroke-width="1.5" pointer-events="none"/>
                </g>
                <g id="zoomMin">
                        <use xlink:href="#rim" fill="#404040">
                                <set attributeName="fill" to="#808080" begin="zoomminus.mouseover" end="zoomminus.mouseout"/>
                        </use>
                        <path d="M-4,0h8" fill="none" stroke="white" stroke-width="1.5" pointer-events="none"/>
                </g>
                <g id="dirArrow">
                        <path fill="none" stroke="white" stroke-width="1.5" d="M0,-3.0v7 M-2.5,-0.5L0,-3.0L2.5,-0.5"/>
                </g>
               <g id="resetDef">
                       <use xlink:href="#rim2" fill="#404040">
                               <set attributeName="fill" to="#808080" begin="reset.mouseover" end="reset.mouseout"/>
                       </use>
               </g>
        </defs>

<script type="text/javascript">
var viewWidth = 531;
var viewHeight = 328;
var sectionId = 'dynsection-2';
</script>
<script xlink:href="svgpan.js"/>
<svg id="graph" class="graph">
<g id="viewport">
<title>EIGEN_LAPACK_FUNC</title>
<!-- Node0 -->
<g id="node1" class="node"><title>Node0</title>
<polygon fill="#bfbfbf" stroke="black" points="0,-155.5 0,-174.5 120,-174.5 120,-155.5 0,-155.5"/>
<text text-anchor="middle" x="60" y="-162.5" font-family="Helvetica,sans-Serif" font-size="10.00">EIGEN_LAPACK_FUNC</text>
</g>
<!-- Node1 -->
<g id="node2" class="node"><title>Node1</title>
<g id="a_node2"><a xlink:href="Cwise__array__power__array_8cpp.html#aa9e3025f5efca2c2a39d785652f2d710" target="_top" xlink:title="e">
<polygon fill="none" stroke="black" points="232,-300.5 232,-319.5 261,-319.5 261,-300.5 232,-300.5"/>
<text text-anchor="middle" x="246.5" y="-307.5" font-family="Helvetica,sans-Serif" font-size="10.00">e</text>
</a>
</g>
</g>
<!-- Node0&#45;&gt;Node1 -->
<g id="edge1" class="edge"><title>Node0&#45;&gt;Node1</title>
<path fill="none" stroke="midnightblue" d="M65.3313,-174.769C76.5222,-198.795 108.857,-260.984 156,-291 175.825,-303.623 202.631,-308.001 221.726,-309.449"/>
<polygon fill="midnightblue" stroke="midnightblue" points="221.792,-312.957 231.967,-310.003 222.17,-305.968 221.792,-312.957"/>
</g>
<!-- Node2 -->
<g id="node3" class="node"><title>Node2</title>
<g id="a_node3"><a xlink:href="common_8h.html#a7fecc876b02cead11e333e3d17465a3b" target="_top" xlink:title="make_vector">
<polygon fill="none" stroke="black" points="207,-262.5 207,-281.5 286,-281.5 286,-262.5 207,-262.5"/>
<text text-anchor="middle" x="246.5" y="-269.5" font-family="Helvetica,sans-Serif" font-size="10.00">make_vector</text>
</a>
</g>
</g>
<!-- Node0&#45;&gt;Node2 -->
<g id="edge2" class="edge"><title>Node0&#45;&gt;Node2</title>
<path fill="none" stroke="midnightblue" d="M68.4293,-174.738C83.0438,-193.156 117.477,-233.034 156,-253 168.597,-259.529 183.299,-263.815 197.103,-266.628"/>
<polygon fill="midnightblue" stroke="midnightblue" points="196.487,-270.073 206.954,-268.427 197.745,-263.187 196.487,-270.073"/>
</g>
<!-- Node3 -->
<g id="node4" class="node"><title>Node3</title>
<g id="a_node4"><a xlink:href="common_8h.html#a94360d20ee722c1bcb23e5b2fbba8554" target="_top" xlink:title="matrix">
<polygon fill="none" stroke="black" points="223,-224.5 223,-243.5 270,-243.5 270,-224.5 223,-224.5"/>
<text text-anchor="middle" x="246.5" y="-231.5" font-family="Helvetica,sans-Serif" font-size="10.00">matrix</text>
</a>
</g>
</g>
<!-- Node0&#45;&gt;Node3 -->
<g id="edge3" class="edge"><title>Node0&#45;&gt;Node3</title>
<path fill="none" stroke="midnightblue" d="M76.1946,-174.689C94.4643,-185.932 126.377,-204.293 156,-215 174.309,-221.618 195.601,-226.254 212.824,-229.289"/>
<polygon fill="midnightblue" stroke="midnightblue" points="212.519,-232.786 222.958,-230.975 213.668,-225.881 212.519,-232.786"/>
</g>
<!-- Node4 -->
<g id="node5" class="node"><title>Node4</title>
<g id="a_node5"><a xlink:href="classEigen_1_1SVDBase.html#afc7fe1546b0f6e1801b86f22f5664cb8" target="_top" xlink:title="Eigen::SVDBase\&lt; BDCSVD\l\&lt; _MatrixType \&gt; \&gt;::matrixU">
<polygon fill="none" stroke="black" points="171.5,-175 171.5,-205 321.5,-205 321.5,-175 171.5,-175"/>
<text text-anchor="start" x="179.5" y="-193" font-family="Helvetica,sans-Serif" font-size="10.00">Eigen::SVDBase&lt; BDCSVD</text>
<text text-anchor="middle" x="246.5" y="-182" font-family="Helvetica,sans-Serif" font-size="10.00">&lt; _MatrixType &gt; &gt;::matrixU</text>
</a>
</g>
</g>
<!-- Node0&#45;&gt;Node4 -->
<g id="edge4" class="edge"><title>Node0&#45;&gt;Node4</title>
<path fill="none" stroke="midnightblue" d="M120.138,-173.013C133.285,-174.795 147.465,-176.716 161.396,-178.604"/>
<polygon fill="midnightblue" stroke="midnightblue" points="161.098,-182.095 171.478,-179.97 162.038,-175.159 161.098,-182.095"/>
</g>
<!-- Node6 -->
<g id="node7" class="node"><title>Node6</title>
<g id="a_node7"><a xlink:href="classEigen_1_1SVDBase.html#a245a453b5e7347f737295c23133238c4" target="_top" xlink:title="Eigen::SVDBase\&lt; BDCSVD\l\&lt; _MatrixType \&gt; \&gt;::matrixV">
<polygon fill="none" stroke="black" points="172,-126 172,-156 321,-156 321,-126 172,-126"/>
<text text-anchor="start" x="180" y="-144" font-family="Helvetica,sans-Serif" font-size="10.00">Eigen::SVDBase&lt; BDCSVD</text>
<text text-anchor="middle" x="246.5" y="-133" font-family="Helvetica,sans-Serif" font-size="10.00">&lt; _MatrixType &gt; &gt;::matrixV</text>
</a>
</g>
</g>
<!-- Node0&#45;&gt;Node6 -->
<g id="edge6" class="edge"><title>Node0&#45;&gt;Node6</title>
<path fill="none" stroke="midnightblue" d="M120.138,-157.307C133.369,-155.586 147.648,-153.729 161.666,-151.905"/>
<polygon fill="midnightblue" stroke="midnightblue" points="162.343,-155.347 171.808,-150.586 161.44,-148.405 162.343,-155.347"/>
</g>
<!-- Node8 -->
<g id="node9" class="node"><title>Node8</title>
<g id="a_node9"><a xlink:href="classEigen_1_1SVDBase.html#a4e7bac123570c348f7ed6be909e1e474" target="_top" xlink:title="Eigen::SVDBase\&lt; BDCSVD\l\&lt; _MatrixType \&gt; \&gt;::singularValues">
<polygon fill="none" stroke="black" points="156,-77 156,-107 337,-107 337,-77 156,-77"/>
<text text-anchor="start" x="164" y="-95" font-family="Helvetica,sans-Serif" font-size="10.00">Eigen::SVDBase&lt; BDCSVD</text>
<text text-anchor="middle" x="246.5" y="-84" font-family="Helvetica,sans-Serif" font-size="10.00">&lt; _MatrixType &gt; &gt;::singularValues</text>
</a>
</g>
</g>
<!-- Node0&#45;&gt;Node8 -->
<g id="edge8" class="edge"><title>Node0&#45;&gt;Node8</title>
<path fill="none" stroke="midnightblue" d="M77.3654,-155.488C95.9475,-144.984 127.402,-128.096 156,-117 162.265,-114.569 168.861,-112.267 175.515,-110.117"/>
<polygon fill="midnightblue" stroke="midnightblue" points="176.765,-113.393 185.272,-107.078 174.683,-106.71 176.765,-113.393"/>
</g>
<!-- Node9 -->
<g id="node10" class="node"><title>Node9</title>
<g id="a_node10"><a xlink:href="JacobiSVD__basic_8cpp.html#a8c2eee92a525e7841f9014ea113ef50a" target="_top" xlink:title="svd">
<polygon fill="none" stroke="black" points="230,-38.5 230,-57.5 263,-57.5 263,-38.5 230,-38.5"/>
<text text-anchor="middle" x="246.5" y="-45.5" font-family="Helvetica,sans-Serif" font-size="10.00">svd</text>
</a>
</g>
</g>
<!-- Node0&#45;&gt;Node9 -->
<g id="edge9" class="edge"><title>Node0&#45;&gt;Node9</title>
<path fill="none" stroke="midnightblue" d="M67.5566,-155.215C81.3894,-135.391 115.63,-90.4664 156,-68 175.77,-56.9974 201.171,-52.0472 219.858,-49.8203"/>
<polygon fill="midnightblue" stroke="midnightblue" points="220.394,-53.2841 229.992,-48.7986 219.691,-46.3194 220.394,-53.2841"/>
</g>
<!-- Node10 -->
<g id="node11" class="node"><title>Node10</title>
<g id="a_node11"><a xlink:href="xerbla_8cpp.html#a62138258d20ba11e2039fc20f90b4e4a" target="_top" xlink:title="xerbla_">
<polygon fill="none" stroke="black" points="221,-0.5 221,-19.5 272,-19.5 272,-0.5 221,-0.5"/>
<text text-anchor="middle" x="246.5" y="-7.5" font-family="Helvetica,sans-Serif" font-size="10.00">xerbla_</text>
</a>
</g>
</g>
<!-- Node0&#45;&gt;Node10 -->
<g id="edge10" class="edge"><title>Node0&#45;&gt;Node10</title>
<path fill="none" stroke="midnightblue" d="M64.796,-155.213C75.1649,-129.863 106.54,-61.7682 156,-29 172.01,-18.3929 192.861,-13.5669 210.409,-11.4274"/>
<polygon fill="midnightblue" stroke="midnightblue" points="211.221,-14.8651 220.836,-10.4147 210.544,-7.8979 211.221,-14.8651"/>
</g>
<!-- Node5 -->
<g id="node6" class="node"><title>Node5</title>
<g id="a_node6"><a xlink:href="classEigen_1_1SVDBase.html#a705a7c2709e1624ccc19aa748a78d473" target="_top" xlink:title="Eigen::SVDBase::computeU">
<polygon fill="none" stroke="black" points="373,-180.5 373,-199.5 523,-199.5 523,-180.5 373,-180.5"/>
<text text-anchor="middle" x="448" y="-187.5" font-family="Helvetica,sans-Serif" font-size="10.00">Eigen::SVDBase::computeU</text>
</a>
</g>
</g>
<!-- Node4&#45;&gt;Node5 -->
<g id="edge5" class="edge"><title>Node4&#45;&gt;Node5</title>
<path fill="none" stroke="midnightblue" d="M321.503,-190C334.846,-190 348.849,-190 362.465,-190"/>
<polygon fill="midnightblue" stroke="midnightblue" points="362.784,-193.5 372.784,-190 362.784,-186.5 362.784,-193.5"/>
</g>
<!-- Node7 -->
<g id="node8" class="node"><title>Node7</title>
<g id="a_node8"><a xlink:href="classEigen_1_1SVDBase.html#a5f12efcb791eb007d4a4890ac5255ac4" target="_top" xlink:title="Eigen::SVDBase::computeV">
<polygon fill="none" stroke="black" points="373.5,-131.5 373.5,-150.5 522.5,-150.5 522.5,-131.5 373.5,-131.5"/>
<text text-anchor="middle" x="448" y="-138.5" font-family="Helvetica,sans-Serif" font-size="10.00">Eigen::SVDBase::computeV</text>
</a>
</g>
</g>
<!-- Node6&#45;&gt;Node7 -->
<g id="edge7" class="edge"><title>Node6&#45;&gt;Node7</title>
<path fill="none" stroke="midnightblue" d="M321.22,-141C334.885,-141 349.252,-141 363.192,-141"/>
<polygon fill="midnightblue" stroke="midnightblue" points="363.251,-144.5 373.251,-141 363.25,-137.5 363.251,-144.5"/>
</g>
</g>
</svg>
        <g id="navigator" transform="translate(0 0)" fill="#404254">
                <rect fill="#f2f5e9" fill-opacity="0.5" stroke="#606060" stroke-width=".5" x="0" y="0" width="60" height="60"/>
                <use id="zoomplus" xlink:href="#zoomPlus" x="17" y="9" onmousedown="handleZoom(evt,'in')"/>
                <use id="zoomminus" xlink:href="#zoomMin" x="42" y="9" onmousedown="handleZoom(evt,'out')"/>
                <use id="reset" xlink:href="#resetDef" x="30" y="36" onmousedown="handleReset()"/>
                <g id="arrowUp" xlink:href="#dirArrow" transform="translate(30 24)" onmousedown="handlePan(0,-1)">
                  <use xlink:href="#rim" fill="#404040">
                        <set attributeName="fill" to="#808080" begin="arrowUp.mouseover" end="arrowUp.mouseout"/>
                  </use>
                  <path fill="none" stroke="white" stroke-width="1.5" d="M0,-3.0v7 M-2.5,-0.5L0,-3.0L2.5,-0.5"/>
                </g>
                <g id="arrowRight" xlink:href="#dirArrow" transform="rotate(90) translate(36 -43)" onmousedown="handlePan(1,0)">
                  <use xlink:href="#rim" fill="#404040">
                        <set attributeName="fill" to="#808080" begin="arrowRight.mouseover" end="arrowRight.mouseout"/>
                  </use>
                  <path fill="none" stroke="white" stroke-width="1.5" d="M0,-3.0v7 M-2.5,-0.5L0,-3.0L2.5,-0.5"/>
                </g>
                <g id="arrowDown" xlink:href="#dirArrow" transform="rotate(180) translate(-30 -48)" onmousedown="handlePan(0,1)">
                  <use xlink:href="#rim" fill="#404040">
                        <set attributeName="fill" to="#808080" begin="arrowDown.mouseover" end="arrowDown.mouseout"/>
                  </use>
                  <path fill="none" stroke="white" stroke-width="1.5" d="M0,-3.0v7 M-2.5,-0.5L0,-3.0L2.5,-0.5"/>
                </g>
                <g id="arrowLeft" xlink:href="#dirArrow" transform="rotate(270) translate(-36 17)" onmousedown="handlePan(-1,0)">
                  <use xlink:href="#rim" fill="#404040">
                        <set attributeName="fill" to="#808080" begin="arrowLeft.mouseover" end="arrowLeft.mouseout"/>
                  </use>
                  <path fill="none" stroke="white" stroke-width="1.5" d="M0,-3.0v7 M-2.5,-0.5L0,-3.0L2.5,-0.5"/>
                </g>
        </g>
        <svg viewBox="0 0 15 15" width="100%" height="30px" preserveAspectRatio="xMaxYMin meet">
         <g id="arrow_out" transform="scale(0.3 0.3)">
          <a xlink:href="svd_8cpp_a4a44471f69d21254726136c268ccaeb3_cgraph_org.svg" target="_base">
           <rect id="button" ry="5" rx="5" y="6" x="6" height="38" width="38"
                fill="#f2f5e9" fill-opacity="0.5" stroke="#606060" stroke-width="1.0"/>
           <path id="arrow"
             d="M 11.500037,31.436501 C 11.940474,20.09759 22.043105,11.32322 32.158766,21.979434 L 37.068811,17.246167 C 37.068811,17.246167 37.088388,32 37.088388,32 L 22.160133,31.978069 C 22.160133,31.978069 26.997745,27.140456 26.997745,27.140456 C 18.528582,18.264221 13.291696,25.230495 11.500037,31.436501 z"
             style="fill:#404040;"/>
          </a>
         </g>
        </svg>
</svg>
