<?xml version="1.0" encoding="UTF-8" standalone="no"?>
<!DOCTYPE svg PUBLIC "-//W3C//DTD SVG 1.1//EN"
 "http://www.w3.org/Graphics/SVG/1.1/DTD/svg11.dtd">
<!-- Generated by graphviz version 2.38.0 (20140413.2041)
 -->
<!-- Title: /travis/libpairinteraction/eigen/bench/tensors/tensor_benchmarks_sycl.cc Pages: 1 -->
<svg width="402pt" height="229pt"
 viewBox="0.00 0.00 401.50 229.00" xmlns="http://www.w3.org/2000/svg" xmlns:xlink="http://www.w3.org/1999/xlink">
<g id="graph0" class="graph" transform="scale(1 1) rotate(0) translate(4 225)">
<title>/travis/libpairinteraction/eigen/bench/tensors/tensor_benchmarks_sycl.cc</title>
<!-- Node0 -->
<g id="node1" class="node"><title>Node0</title>
<polygon fill="#bfbfbf" stroke="black" points="54.5,-179.5 54.5,-220.5 205.5,-220.5 205.5,-179.5 54.5,-179.5"/>
<text text-anchor="start" x="62.5" y="-208.5" font-family="Helvetica,sans-Serif" font-size="10.00">/travis/libpairinteraction</text>
<text text-anchor="start" x="62.5" y="-197.5" font-family="Helvetica,sans-Serif" font-size="10.00">/eigen/bench/tensors/tensor</text>
<text text-anchor="middle" x="130" y="-186.5" font-family="Helvetica,sans-Serif" font-size="10.00">_benchmarks_sycl.cc</text>
</g>
<!-- Node1 -->
<g id="node2" class="node"><title>Node1</title>
<polygon fill="none" stroke="#bfbfbf" points="0,-123.5 0,-142.5 82,-142.5 82,-123.5 0,-123.5"/>
<text text-anchor="middle" x="41" y="-130.5" font-family="Helvetica,sans-Serif" font-size="10.00">SYCL/sycl.hpp</text>
</g>
<!-- Node0&#45;&gt;Node1 -->
<g id="edge1" class="edge"><title>Node0&#45;&gt;Node1</title>
<path fill="none" stroke="midnightblue" d="M103.297,-179.498C89.7829,-169.628 73.6469,-157.843 61.1835,-148.741"/>
<polygon fill="midnightblue" stroke="midnightblue" points="62.9871,-145.724 52.8473,-142.652 58.8586,-151.377 62.9871,-145.724"/>
</g>
<!-- Node2 -->
<g id="node3" class="node"><title>Node2</title>
<polygon fill="none" stroke="#bfbfbf" points="100.5,-123.5 100.5,-142.5 159.5,-142.5 159.5,-123.5 100.5,-123.5"/>
<text text-anchor="middle" x="130" y="-130.5" font-family="Helvetica,sans-Serif" font-size="10.00">iostream</text>
</g>
<!-- Node0&#45;&gt;Node2 -->
<g id="edge2" class="edge"><title>Node0&#45;&gt;Node2</title>
<path fill="none" stroke="midnightblue" d="M130,-179.498C130,-171.065 130,-161.235 130,-152.874"/>
<polygon fill="midnightblue" stroke="midnightblue" points="133.5,-152.652 130,-142.652 126.5,-152.653 133.5,-152.652"/>
</g>
<!-- Node3 -->
<g id="node4" class="node"><title>Node3</title>
<g id="a_node4"><a xlink:href="tensor__benchmarks_8h.html" target="_top" xlink:title="tensor_benchmarks.h">
<polygon fill="none" stroke="black" points="177.5,-123.5 177.5,-142.5 298.5,-142.5 298.5,-123.5 177.5,-123.5"/>
<text text-anchor="middle" x="238" y="-130.5" font-family="Helvetica,sans-Serif" font-size="10.00">tensor_benchmarks.h</text>
</a>
</g>
</g>
<!-- Node0&#45;&gt;Node3 -->
<g id="edge3" class="edge"><title>Node0&#45;&gt;Node3</title>
<path fill="none" stroke="midnightblue" d="M162.404,-179.498C179.28,-169.34 199.527,-157.155 214.818,-147.952"/>
<polygon fill="midnightblue" stroke="midnightblue" points="216.86,-150.808 223.624,-142.652 213.251,-144.81 216.86,-150.808"/>
</g>
<!-- Node4 -->
<g id="node5" class="node"><title>Node4</title>
<polygon fill="none" stroke="#bfbfbf" points="104,-56.5 104,-86.5 244,-86.5 244,-56.5 104,-56.5"/>
<text text-anchor="start" x="112" y="-74.5" font-family="Helvetica,sans-Serif" font-size="10.00">unsupported/Eigen/CXX11</text>
<text text-anchor="middle" x="174" y="-63.5" font-family="Helvetica,sans-Serif" font-size="10.00">/Tensor</text>
</g>
<!-- Node3&#45;&gt;Node4 -->
<g id="edge4" class="edge"><title>Node3&#45;&gt;Node4</title>
<path fill="none" stroke="midnightblue" d="M228.83,-123.475C220.405,-115.643 207.575,-103.714 196.444,-93.3656"/>
<polygon fill="midnightblue" stroke="midnightblue" points="198.791,-90.7685 189.084,-86.523 194.024,-95.8953 198.791,-90.7685"/>
</g>
<!-- Node5 -->
<g id="node6" class="node"><title>Node5</title>
<g id="a_node6"><a xlink:href="benchmark_8h.html" target="_top" xlink:title="benchmark.h">
<polygon fill="none" stroke="black" points="262,-62 262,-81 342,-81 342,-62 262,-62"/>
<text text-anchor="middle" x="302" y="-69" font-family="Helvetica,sans-Serif" font-size="10.00">benchmark.h</text>
</a>
</g>
</g>
<!-- Node3&#45;&gt;Node5 -->
<g id="edge5" class="edge"><title>Node3&#45;&gt;Node5</title>
<path fill="none" stroke="midnightblue" d="M247.17,-123.475C257.15,-114.197 273.312,-99.1706 285.509,-87.831"/>
<polygon fill="midnightblue" stroke="midnightblue" points="287.907,-90.3814 292.847,-81.0091 283.14,-85.2547 287.907,-90.3814"/>
</g>
<!-- Node6 -->
<g id="node7" class="node"><title>Node6</title>
<polygon fill="none" stroke="#bfbfbf" points="202.5,-0.5 202.5,-19.5 257.5,-19.5 257.5,-0.5 202.5,-0.5"/>
<text text-anchor="middle" x="230" y="-7.5" font-family="Helvetica,sans-Serif" font-size="10.00">stddef.h</text>
</g>
<!-- Node5&#45;&gt;Node6 -->
<g id="edge6" class="edge"><title>Node5&#45;&gt;Node6</title>
<path fill="none" stroke="midnightblue" d="M291.684,-61.9751C280.349,-52.6082 261.927,-37.3839 248.161,-26.0081"/>
<polygon fill="midnightblue" stroke="midnightblue" points="250.235,-23.1813 240.297,-19.5091 245.776,-28.5773 250.235,-23.1813"/>
</g>
<!-- Node7 -->
<g id="node8" class="node"><title>Node7</title>
<polygon fill="none" stroke="#bfbfbf" points="275.5,-0.5 275.5,-19.5 328.5,-19.5 328.5,-0.5 275.5,-0.5"/>
<text text-anchor="middle" x="302" y="-7.5" font-family="Helvetica,sans-Serif" font-size="10.00">stdint.h</text>
</g>
<!-- Node5&#45;&gt;Node7 -->
<g id="edge7" class="edge"><title>Node5&#45;&gt;Node7</title>
<path fill="none" stroke="midnightblue" d="M302,-61.9751C302,-53.5803 302,-40.4806 302,-29.6631"/>
<polygon fill="midnightblue" stroke="midnightblue" points="305.5,-29.5091 302,-19.5091 298.5,-29.5091 305.5,-29.5091"/>
</g>
<!-- Node8 -->
<g id="node9" class="node"><title>Node8</title>
<polygon fill="none" stroke="#bfbfbf" points="346.5,-0.5 346.5,-19.5 393.5,-19.5 393.5,-0.5 346.5,-0.5"/>
<text text-anchor="middle" x="370" y="-7.5" font-family="Helvetica,sans-Serif" font-size="10.00">vector</text>
</g>
<!-- Node5&#45;&gt;Node8 -->
<g id="edge8" class="edge"><title>Node5&#45;&gt;Node8</title>
<path fill="none" stroke="midnightblue" d="M311.743,-61.9751C322.347,-52.6966 339.519,-37.6706 352.479,-26.331"/>
<polygon fill="midnightblue" stroke="midnightblue" points="355.054,-28.7282 360.275,-19.5091 350.445,-23.4601 355.054,-28.7282"/>
</g>
</g>
</svg>
