<?xml version="1.0" encoding="UTF-8" standalone="no"?>
<!DOCTYPE svg PUBLIC "-//W3C//DTD SVG 1.1//EN"
 "http://www.w3.org/Graphics/SVG/1.1/DTD/svg11.dtd">
<!-- Generated by graphviz version 2.38.0 (20140413.2041)
 -->
<!-- Title: run_test Pages: 1 -->
<svg width="406pt" height="372pt"
 viewBox="0.00 0.00 406.00 371.50" xmlns="http://www.w3.org/2000/svg" xmlns:xlink="http://www.w3.org/1999/xlink">
<g id="graph0" class="graph" transform="scale(1 1) rotate(0) translate(4 367.5)">
<title>run_test</title>
<!-- Node20 -->
<g id="node1" class="node"><title>Node20</title>
<polygon fill="#bfbfbf" stroke="black" points="0,-294.5 0,-313.5 56,-313.5 56,-294.5 0,-294.5"/>
<text text-anchor="middle" x="28" y="-301.5" font-family="Helvetica,sans-Serif" font-size="10.00">run_test</text>
</g>
<!-- Node21 -->
<g id="node2" class="node"><title>Node21</title>
<g id="a_node2"><a xlink:href="ArrayCwiseUnaryOps_8h.html#a35560f7dbf19244fda7e463d14157c43" target="_top" xlink:title="abs">
<polygon fill="none" stroke="black" points="124,-332.5 124,-351.5 158,-351.5 158,-332.5 124,-332.5"/>
<text text-anchor="middle" x="141" y="-339.5" font-family="Helvetica,sans-Serif" font-size="10.00">abs</text>
</a>
</g>
</g>
<!-- Node20&#45;&gt;Node21 -->
<g id="edge1" class="edge"><title>Node20&#45;&gt;Node21</title>
<path fill="none" stroke="midnightblue" d="M56.1537,-313.296C73.859,-319.357 96.8254,-327.22 114.244,-333.183"/>
<polygon fill="midnightblue" stroke="midnightblue" points="113.182,-336.519 123.777,-336.446 115.45,-329.896 113.182,-336.519"/>
</g>
<!-- Node22 -->
<g id="node3" class="node"><title>Node22</title>
<g id="a_node3"><a xlink:href="namespacempfr.html#a301ea848bad1f87ea6388df0eba8b13c" target="_top" xlink:title="mpfr::dim">
<polygon fill="none" stroke="black" points="109.5,-294.5 109.5,-313.5 172.5,-313.5 172.5,-294.5 109.5,-294.5"/>
<text text-anchor="middle" x="141" y="-301.5" font-family="Helvetica,sans-Serif" font-size="10.00">mpfr::dim</text>
</a>
</g>
</g>
<!-- Node20&#45;&gt;Node22 -->
<g id="edge2" class="edge"><title>Node20&#45;&gt;Node22</title>
<path fill="none" stroke="midnightblue" d="M56.1537,-304C69.0654,-304 84.775,-304 99.0905,-304"/>
<polygon fill="midnightblue" stroke="midnightblue" points="99.2082,-307.5 109.208,-304 99.2081,-300.5 99.2082,-307.5"/>
</g>
<!-- Node25 -->
<g id="node6" class="node"><title>Node25</title>
<g id="a_node6"><a xlink:href="group__Geometry__Module.html#gab3f5a82a24490b936f8694cf8fef8e60" target="_top" xlink:title="Returns the transformation between two point sets. ">
<polygon fill="none" stroke="black" points="92,-180.5 92,-199.5 190,-199.5 190,-180.5 92,-180.5"/>
<text text-anchor="middle" x="141" y="-187.5" font-family="Helvetica,sans-Serif" font-size="10.00">Eigen::umeyama</text>
</a>
</g>
</g>
<!-- Node20&#45;&gt;Node25 -->
<g id="edge5" class="edge"><title>Node20&#45;&gt;Node25</title>
<path fill="none" stroke="midnightblue" d="M38.4638,-294.28C57.3049,-274.93 99.7205,-231.368 123.334,-207.116"/>
<polygon fill="midnightblue" stroke="midnightblue" points="126.092,-209.301 130.56,-199.695 121.076,-204.418 126.092,-209.301"/>
</g>
<!-- Node23 -->
<g id="node4" class="node"><title>Node23</title>
<g id="a_node4"><a xlink:href="classmpfr_1_1mpreal.html#a566f64ca066c54923d19c11d6c3d15cd" target="_top" xlink:title="mpfr::mpreal::mpfr\l_srcptr">
<polygon fill="none" stroke="black" points="258.5,-333 258.5,-363 365.5,-363 365.5,-333 258.5,-333"/>
<text text-anchor="start" x="266.5" y="-351" font-family="Helvetica,sans-Serif" font-size="10.00">mpfr::mpreal::mpfr</text>
<text text-anchor="middle" x="312" y="-340" font-family="Helvetica,sans-Serif" font-size="10.00">_srcptr</text>
</a>
</g>
</g>
<!-- Node22&#45;&gt;Node23 -->
<g id="edge3" class="edge"><title>Node22&#45;&gt;Node23</title>
<path fill="none" stroke="midnightblue" d="M172.605,-311.968C193.775,-317.48 222.692,-325.008 248.619,-331.759"/>
<polygon fill="midnightblue" stroke="midnightblue" points="247.829,-335.17 258.388,-334.302 249.592,-328.395 247.829,-335.17"/>
</g>
<!-- Node24 -->
<g id="node5" class="node"><title>Node24</title>
<g id="a_node5"><a xlink:href="classmpfr_1_1mpreal.html#af4e3b56888463376c675cac70b6ceca3" target="_top" xlink:title="mpfr::mpreal::mpfr_ptr">
<polygon fill="none" stroke="black" points="249,-294.5 249,-313.5 375,-313.5 375,-294.5 249,-294.5"/>
<text text-anchor="middle" x="312" y="-301.5" font-family="Helvetica,sans-Serif" font-size="10.00">mpfr::mpreal::mpfr_ptr</text>
</a>
</g>
</g>
<!-- Node22&#45;&gt;Node24 -->
<g id="edge4" class="edge"><title>Node22&#45;&gt;Node24</title>
<path fill="none" stroke="midnightblue" d="M172.605,-304C191.082,-304 215.46,-304 238.602,-304"/>
<polygon fill="midnightblue" stroke="midnightblue" points="238.771,-307.5 248.771,-304 238.771,-300.5 238.771,-307.5"/>
</g>
<!-- Node26 -->
<g id="node7" class="node"><title>Node26</title>
<g id="a_node7"><a xlink:href="classEigen_1_1DenseBase.html#af9662cd704ffc16c5b88c7b2d331576f" target="_top" xlink:title="Eigen::DenseBase::rowwise">
<polygon fill="none" stroke="black" points="239,-256.5 239,-275.5 385,-275.5 385,-256.5 239,-256.5"/>
<text text-anchor="middle" x="312" y="-263.5" font-family="Helvetica,sans-Serif" font-size="10.00">Eigen::DenseBase::rowwise</text>
</a>
</g>
</g>
<!-- Node25&#45;&gt;Node26 -->
<g id="edge6" class="edge"><title>Node25&#45;&gt;Node26</title>
<path fill="none" stroke="midnightblue" d="M153.141,-199.614C168.502,-212.366 197.529,-234.691 226,-247 231.829,-249.52 238.034,-251.725 244.334,-253.65"/>
<polygon fill="midnightblue" stroke="midnightblue" points="243.697,-257.106 254.271,-256.449 245.595,-250.369 243.697,-257.106"/>
</g>
<!-- Node27 -->
<g id="node8" class="node"><title>Node27</title>
<g id="a_node8"><a xlink:href="classEigen_1_1DenseBase.html#a978724c07b70cb9b8fdef67a4de08788" target="_top" xlink:title="Eigen::DenseBase::colwise">
<polygon fill="none" stroke="black" points="240.5,-218.5 240.5,-237.5 383.5,-237.5 383.5,-218.5 240.5,-218.5"/>
<text text-anchor="middle" x="312" y="-225.5" font-family="Helvetica,sans-Serif" font-size="10.00">Eigen::DenseBase::colwise</text>
</a>
</g>
</g>
<!-- Node25&#45;&gt;Node27 -->
<g id="edge7" class="edge"><title>Node25&#45;&gt;Node27</title>
<path fill="none" stroke="midnightblue" d="M184.297,-199.589C197.638,-202.608 212.434,-205.949 226,-209 236.397,-211.338 247.512,-213.829 258.161,-216.211"/>
<polygon fill="midnightblue" stroke="midnightblue" points="257.667,-219.687 268.19,-218.453 259.194,-212.855 257.667,-219.687"/>
</g>
<!-- Node28 -->
<g id="node9" class="node"><title>Node28</title>
<g id="a_node9"><a xlink:href="JacobiSVD__basic_8cpp.html#a8c2eee92a525e7841f9014ea113ef50a" target="_top" xlink:title="svd">
<polygon fill="none" stroke="black" points="295.5,-180.5 295.5,-199.5 328.5,-199.5 328.5,-180.5 295.5,-180.5"/>
<text text-anchor="middle" x="312" y="-187.5" font-family="Helvetica,sans-Serif" font-size="10.00">svd</text>
</a>
</g>
</g>
<!-- Node25&#45;&gt;Node28 -->
<g id="edge8" class="edge"><title>Node25&#45;&gt;Node28</title>
<path fill="none" stroke="midnightblue" d="M190.429,-190C221.186,-190 259.792,-190 284.912,-190"/>
<polygon fill="midnightblue" stroke="midnightblue" points="285.109,-193.5 295.109,-190 285.109,-186.5 285.109,-193.5"/>
</g>
<!-- Node29 -->
<g id="node10" class="node"><title>Node29</title>
<g id="a_node10"><a xlink:href="classEigen_1_1SVDBase.html#afc7fe1546b0f6e1801b86f22f5664cb8" target="_top" xlink:title="Eigen::SVDBase\&lt; JacobiSVD\l\&lt; _MatrixType, QRPreconditioner\l \&gt; \&gt;::matrixU">
<polygon fill="none" stroke="black" points="226,-120.5 226,-161.5 398,-161.5 398,-120.5 226,-120.5"/>
<text text-anchor="start" x="234" y="-149.5" font-family="Helvetica,sans-Serif" font-size="10.00">Eigen::SVDBase&lt; JacobiSVD</text>
<text text-anchor="start" x="234" y="-138.5" font-family="Helvetica,sans-Serif" font-size="10.00">&lt; _MatrixType, QRPreconditioner</text>
<text text-anchor="middle" x="312" y="-127.5" font-family="Helvetica,sans-Serif" font-size="10.00"> &gt; &gt;::matrixU</text>
</a>
</g>
</g>
<!-- Node25&#45;&gt;Node29 -->
<g id="edge9" class="edge"><title>Node25&#45;&gt;Node29</title>
<path fill="none" stroke="midnightblue" d="M174.986,-180.436C190.846,-175.838 210.621,-170.104 230.137,-164.446"/>
<polygon fill="midnightblue" stroke="midnightblue" points="231.356,-167.736 239.986,-161.59 229.407,-161.013 231.356,-167.736"/>
</g>
<!-- Node30 -->
<g id="node11" class="node"><title>Node30</title>
<g id="a_node11"><a xlink:href="classEigen_1_1SVDBase.html#a245a453b5e7347f737295c23133238c4" target="_top" xlink:title="Eigen::SVDBase\&lt; JacobiSVD\l\&lt; _MatrixType, QRPreconditioner\l \&gt; \&gt;::matrixV">
<polygon fill="none" stroke="black" points="226,-60.5 226,-101.5 398,-101.5 398,-60.5 226,-60.5"/>
<text text-anchor="start" x="234" y="-89.5" font-family="Helvetica,sans-Serif" font-size="10.00">Eigen::SVDBase&lt; JacobiSVD</text>
<text text-anchor="start" x="234" y="-78.5" font-family="Helvetica,sans-Serif" font-size="10.00">&lt; _MatrixType, QRPreconditioner</text>
<text text-anchor="middle" x="312" y="-67.5" font-family="Helvetica,sans-Serif" font-size="10.00"> &gt; &gt;::matrixV</text>
</a>
</g>
</g>
<!-- Node25&#45;&gt;Node30 -->
<g id="edge10" class="edge"><title>Node25&#45;&gt;Node30</title>
<path fill="none" stroke="midnightblue" d="M149.828,-180.383C163.621,-164.005 193.855,-130.576 226,-111 228.807,-109.291 231.725,-107.66 234.718,-106.106"/>
<polygon fill="midnightblue" stroke="midnightblue" points="236.402,-109.18 243.881,-101.676 233.355,-102.878 236.402,-109.18"/>
</g>
<!-- Node31 -->
<g id="node12" class="node"><title>Node31</title>
<g id="a_node12"><a xlink:href="classEigen_1_1SVDBase.html#a4e7bac123570c348f7ed6be909e1e474" target="_top" xlink:title="Eigen::SVDBase\&lt; JacobiSVD\l\&lt; _MatrixType, QRPreconditioner\l \&gt; \&gt;::singularValues">
<polygon fill="none" stroke="black" points="226,-0.5 226,-41.5 398,-41.5 398,-0.5 226,-0.5"/>
<text text-anchor="start" x="234" y="-29.5" font-family="Helvetica,sans-Serif" font-size="10.00">Eigen::SVDBase&lt; JacobiSVD</text>
<text text-anchor="start" x="234" y="-18.5" font-family="Helvetica,sans-Serif" font-size="10.00">&lt; _MatrixType, QRPreconditioner</text>
<text text-anchor="middle" x="312" y="-7.5" font-family="Helvetica,sans-Serif" font-size="10.00"> &gt; &gt;::singularValues</text>
</a>
</g>
</g>
<!-- Node25&#45;&gt;Node31 -->
<g id="edge11" class="edge"><title>Node25&#45;&gt;Node31</title>
<path fill="none" stroke="midnightblue" d="M145.206,-180.36C154.012,-155.33 180.954,-87.6695 226,-51 227.775,-49.5551 229.624,-48.1774 231.534,-46.8639"/>
<polygon fill="midnightblue" stroke="midnightblue" points="233.563,-49.7252 240.25,-41.5071 229.898,-43.7616 233.563,-49.7252"/>
</g>
</g>
</svg>
