<?xml version="1.0" encoding="UTF-8" standalone="no"?>
<!DOCTYPE svg PUBLIC "-//W3C//DTD SVG 1.1//EN"
 "http://www.w3.org/Graphics/SVG/1.1/DTD/svg11.dtd">
<!-- Generated by graphviz version 2.38.0 (20140413.2041)
 -->
<!-- Title: /travis/libpairinteraction/utils.h Pages: 1 -->
<svg width="305pt" height="95pt"
 viewBox="0.00 0.00 304.50 95.00" xmlns="http://www.w3.org/2000/svg" xmlns:xlink="http://www.w3.org/1999/xlink">
<g id="graph0" class="graph" transform="scale(1 1) rotate(0) translate(4 91)">
<title>/travis/libpairinteraction/utils.h</title>
<!-- Node0 -->
<g id="node1" class="node"><title>Node0</title>
<polygon fill="#bfbfbf" stroke="black" points="80.5,-56.5 80.5,-86.5 208.5,-86.5 208.5,-56.5 80.5,-56.5"/>
<text text-anchor="start" x="88.5" y="-74.5" font-family="Helvetica,sans-Serif" font-size="10.00">/travis/libpairinteraction</text>
<text text-anchor="middle" x="144.5" y="-63.5" font-family="Helvetica,sans-Serif" font-size="10.00">/utils.h</text>
</g>
<!-- Node1 -->
<g id="node2" class="node"><title>Node1</title>
<polygon fill="none" stroke="#bfbfbf" points="0,-0.5 0,-19.5 57,-19.5 57,-0.5 0,-0.5"/>
<text text-anchor="middle" x="28.5" y="-7.5" font-family="Helvetica,sans-Serif" font-size="10.00">complex</text>
</g>
<!-- Node0&#45;&gt;Node1 -->
<g id="edge1" class="edge"><title>Node0&#45;&gt;Node1</title>
<path fill="none" stroke="midnightblue" d="M117.01,-56.3993C98.0681,-46.6837 73.0577,-33.8551 54.4562,-24.3137"/>
<polygon fill="midnightblue" stroke="midnightblue" points="55.8742,-21.1076 45.379,-19.6578 52.6794,-27.336 55.8742,-21.1076"/>
</g>
<!-- Node2 -->
<g id="node3" class="node"><title>Node2</title>
<polygon fill="none" stroke="#bfbfbf" points="75,-0.5 75,-19.5 138,-19.5 138,-0.5 75,-0.5"/>
<text text-anchor="middle" x="106.5" y="-7.5" font-family="Helvetica,sans-Serif" font-size="10.00">functional</text>
</g>
<!-- Node0&#45;&gt;Node2 -->
<g id="edge2" class="edge"><title>Node0&#45;&gt;Node2</title>
<path fill="none" stroke="midnightblue" d="M135.495,-56.3993C130.087,-47.9315 123.168,-37.0991 117.446,-28.1393"/>
<polygon fill="midnightblue" stroke="midnightblue" points="120.362,-26.2018 112.029,-19.6578 114.462,-29.9695 120.362,-26.2018"/>
</g>
<!-- Node3 -->
<g id="node4" class="node"><title>Node3</title>
<polygon fill="none" stroke="#bfbfbf" points="156.5,-0.5 156.5,-19.5 210.5,-19.5 210.5,-0.5 156.5,-0.5"/>
<text text-anchor="middle" x="183.5" y="-7.5" font-family="Helvetica,sans-Serif" font-size="10.00">random</text>
</g>
<!-- Node0&#45;&gt;Node3 -->
<g id="edge3" class="edge"><title>Node0&#45;&gt;Node3</title>
<path fill="none" stroke="midnightblue" d="M153.742,-56.3993C159.293,-47.9315 166.393,-37.0991 172.266,-28.1393"/>
<polygon fill="midnightblue" stroke="midnightblue" points="175.27,-29.94 177.825,-19.6578 169.416,-26.1026 175.27,-29.94"/>
</g>
<!-- Node4 -->
<g id="node5" class="node"><title>Node4</title>
<polygon fill="none" stroke="#bfbfbf" points="228.5,-0.5 228.5,-19.5 296.5,-19.5 296.5,-0.5 228.5,-0.5"/>
<text text-anchor="middle" x="262.5" y="-7.5" font-family="Helvetica,sans-Serif" font-size="10.00">type_traits</text>
</g>
<!-- Node0&#45;&gt;Node4 -->
<g id="edge4" class="edge"><title>Node0&#45;&gt;Node4</title>
<path fill="none" stroke="midnightblue" d="M172.464,-56.3993C191.821,-46.6391 217.408,-33.7373 236.356,-24.1826"/>
<polygon fill="midnightblue" stroke="midnightblue" points="237.977,-27.2854 245.33,-19.6578 234.825,-21.035 237.977,-27.2854"/>
</g>
</g>
</svg>
