<?xml version="1.0" encoding="UTF-8" standalone="no"?>
<!DOCTYPE svg PUBLIC "-//W3C//DTD SVG 1.1//EN"
 "http://www.w3.org/Graphics/SVG/1.1/DTD/svg11.dtd">
<!-- Generated by graphviz version 2.38.0 (20140413.2041)
 -->
<!-- Title: /travis/libpairinteraction/utils.h Pages: 1 -->
<!--zoomable 530 -->
<svg id="main" version="1.1" xmlns="http://www.w3.org/2000/svg" xmlns:xlink="http://www.w3.org/1999/xlink" xml:space="preserve" onload="init(evt)">
<style type="text/css"><![CDATA[
.edge:hover path { stroke: red; }
.edge:hover polygon { stroke: red; fill: red; }
]]></style>
<script type="text/javascript"><![CDATA[
var edges = document.getElementsByTagName('g');
if (edges && edges.length) {
  for (var i=0;i<edges.length;i++) {
    if (edges[i].id.substr(0,4)=='edge') {
      edges[i].setAttribute('class','edge');
    }
  }
}
]]></script>
        <defs>
                <circle id="rim" cx="0" cy="0" r="7"/>
                <circle id="rim2" cx="0" cy="0" r="3.5"/>
                <g id="zoomPlus">
                        <use xlink:href="#rim" fill="#404040">
                                <set attributeName="fill" to="#808080" begin="zoomplus.mouseover" end="zoomplus.mouseout"/>
                        </use>
                        <path d="M-4,0h8M0,-4v8" fill="none" stroke="white" stroke-width="1.5" pointer-events="none"/>
                </g>
                <g id="zoomMin">
                        <use xlink:href="#rim" fill="#404040">
                                <set attributeName="fill" to="#808080" begin="zoomminus.mouseover" end="zoomminus.mouseout"/>
                        </use>
                        <path d="M-4,0h8" fill="none" stroke="white" stroke-width="1.5" pointer-events="none"/>
                </g>
                <g id="dirArrow">
                        <path fill="none" stroke="white" stroke-width="1.5" d="M0,-3.0v7 M-2.5,-0.5L0,-3.0L2.5,-0.5"/>
                </g>
               <g id="resetDef">
                       <use xlink:href="#rim2" fill="#404040">
                               <set attributeName="fill" to="#808080" begin="reset.mouseover" end="reset.mouseout"/>
                       </use>
               </g>
        </defs>

<script type="text/javascript">
var viewWidth = 1130;
var viewHeight = 530;
var sectionId = 'dynsection-1';
</script>
<script xlink:href="svgpan.js"/>
<svg id="graph" class="graph">
<g id="viewport">
<title>/travis/libpairinteraction/utils.h</title>
<!-- Node5 -->
<g id="node1" class="node"><title>Node5</title>
<polygon fill="#bfbfbf" stroke="black" points="370,-491.5 370,-521.5 498,-521.5 498,-491.5 370,-491.5"/>
<text text-anchor="start" x="378" y="-509.5" font-family="Helvetica,sans-Serif" font-size="10.00">/travis/libpairinteraction</text>
<text text-anchor="middle" x="434" y="-498.5" font-family="Helvetica,sans-Serif" font-size="10.00">/utils.h</text>
</g>
<!-- Node6 -->
<g id="node2" class="node"><title>Node6</title>
<g id="a_node2"><a xlink:href="Hamiltonianmatrix_8h.html" target="_top" xlink:title="/travis/libpairinteraction\l/Hamiltonianmatrix.h">
<polygon fill="none" stroke="black" points="146,-285 146,-315 274,-315 274,-285 146,-285"/>
<text text-anchor="start" x="154" y="-303" font-family="Helvetica,sans-Serif" font-size="10.00">/travis/libpairinteraction</text>
<text text-anchor="middle" x="210" y="-292" font-family="Helvetica,sans-Serif" font-size="10.00">/Hamiltonianmatrix.h</text>
</a>
</g>
</g>
<!-- Node5&#45;&gt;Node6 -->
<g id="edge1" class="edge"><title>Node5&#45;&gt;Node6</title>
<path fill="none" stroke="midnightblue" d="M405.893,-485.035C375.647,-462.53 326.681,-424.675 288,-388 262.68,-363.994 236.173,-332.973 221.504,-315.2"/>
<polygon fill="midnightblue" stroke="midnightblue" points="404.153,-488.102 414.274,-491.235 408.316,-482.475 404.153,-488.102"/>
</g>
<!-- Node14 -->
<g id="node10" class="node"><title>Node14</title>
<g id="a_node10"><a xlink:href="SQLite_8h.html" target="_top" xlink:title="/travis/libpairinteraction\l/SQLite.h">
<polygon fill="none" stroke="black" points="579,-424.5 579,-454.5 707,-454.5 707,-424.5 579,-424.5"/>
<text text-anchor="start" x="587" y="-442.5" font-family="Helvetica,sans-Serif" font-size="10.00">/travis/libpairinteraction</text>
<text text-anchor="middle" x="643" y="-431.5" font-family="Helvetica,sans-Serif" font-size="10.00">/SQLite.h</text>
</a>
</g>
</g>
<!-- Node5&#45;&gt;Node14 -->
<g id="edge11" class="edge"><title>Node5&#45;&gt;Node14</title>
<path fill="none" stroke="midnightblue" d="M488.841,-488.444C522.72,-477.908 565.672,-464.549 597.628,-454.611"/>
<polygon fill="midnightblue" stroke="midnightblue" points="487.602,-485.164 479.093,-491.476 489.681,-491.848 487.602,-485.164"/>
</g>
<!-- Node7 -->
<g id="node3" class="node"><title>Node7</title>
<g id="a_node3"><a xlink:href="Hamiltonian_8h.html" target="_top" xlink:title="/travis/libpairinteraction\l/Hamiltonian.h">
<polygon fill="none" stroke="black" points="146,-207 146,-237 274,-237 274,-207 146,-207"/>
<text text-anchor="start" x="154" y="-225" font-family="Helvetica,sans-Serif" font-size="10.00">/travis/libpairinteraction</text>
<text text-anchor="middle" x="210" y="-214" font-family="Helvetica,sans-Serif" font-size="10.00">/Hamiltonian.h</text>
</a>
</g>
</g>
<!-- Node6&#45;&gt;Node7 -->
<g id="edge2" class="edge"><title>Node6&#45;&gt;Node7</title>
<path fill="none" stroke="midnightblue" d="M210,-274.59C210,-262.257 210,-247.724 210,-237.231"/>
<polygon fill="midnightblue" stroke="midnightblue" points="206.5,-274.705 210,-284.705 213.5,-274.705 206.5,-274.705"/>
</g>
<!-- Node13 -->
<g id="node9" class="node"><title>Node13</title>
<g id="a_node9"><a xlink:href="Hamiltonianmatrix_8cpp.html" target="_top" xlink:title="/travis/libpairinteraction\l/Hamiltonianmatrix.cpp">
<polygon fill="none" stroke="black" points="0,-207 0,-237 128,-237 128,-207 0,-207"/>
<text text-anchor="start" x="8" y="-225" font-family="Helvetica,sans-Serif" font-size="10.00">/travis/libpairinteraction</text>
<text text-anchor="middle" x="64" y="-214" font-family="Helvetica,sans-Serif" font-size="10.00">/Hamiltonianmatrix.cpp</text>
</a>
</g>
</g>
<!-- Node6&#45;&gt;Node13 -->
<g id="edge10" class="edge"><title>Node6&#45;&gt;Node13</title>
<path fill="none" stroke="midnightblue" d="M173.834,-280.174C148.174,-266.817 114.286,-249.176 90.9741,-237.041"/>
<polygon fill="midnightblue" stroke="midnightblue" points="172.394,-283.37 182.881,-284.883 175.627,-277.161 172.394,-283.37"/>
</g>
<!-- Node8 -->
<g id="node4" class="node"><title>Node8</title>
<g id="a_node4"><a xlink:href="HamiltonianOne_8h.html" target="_top" xlink:title="/travis/libpairinteraction\l/HamiltonianOne.h">
<polygon fill="none" stroke="black" points="368,-134.5 368,-164.5 496,-164.5 496,-134.5 368,-134.5"/>
<text text-anchor="start" x="376" y="-152.5" font-family="Helvetica,sans-Serif" font-size="10.00">/travis/libpairinteraction</text>
<text text-anchor="middle" x="432" y="-141.5" font-family="Helvetica,sans-Serif" font-size="10.00">/HamiltonianOne.h</text>
</a>
</g>
</g>
<!-- Node7&#45;&gt;Node8 -->
<g id="edge3" class="edge"><title>Node7&#45;&gt;Node8</title>
<path fill="none" stroke="midnightblue" d="M263.978,-203.858C301.887,-191.82 351.978,-175.912 387.578,-164.607"/>
<polygon fill="midnightblue" stroke="midnightblue" points="262.597,-200.625 254.125,-206.987 264.716,-207.296 262.597,-200.625"/>
</g>
<!-- Node10 -->
<g id="node6" class="node"><title>Node10</title>
<g id="a_node6"><a xlink:href="HamiltonianTwo_8h.html" target="_top" xlink:title="/travis/libpairinteraction\l/HamiltonianTwo.h">
<polygon fill="none" stroke="black" points="230,-67.5 230,-97.5 358,-97.5 358,-67.5 230,-67.5"/>
<text text-anchor="start" x="238" y="-85.5" font-family="Helvetica,sans-Serif" font-size="10.00">/travis/libpairinteraction</text>
<text text-anchor="middle" x="294" y="-74.5" font-family="Helvetica,sans-Serif" font-size="10.00">/HamiltonianTwo.h</text>
</a>
</g>
</g>
<!-- Node7&#45;&gt;Node10 -->
<g id="edge9" class="edge"><title>Node7&#45;&gt;Node10</title>
<path fill="none" stroke="midnightblue" d="M224.103,-197.914C241.554,-169.349 270.733,-121.585 285.248,-97.8258"/>
<polygon fill="midnightblue" stroke="midnightblue" points="220.9,-196.445 218.673,-206.803 226.873,-200.094 220.9,-196.445"/>
</g>
<!-- Node9 -->
<g id="node5" class="node"><title>Node9</title>
<g id="a_node5"><a xlink:href="HamiltonianOne_8cpp.html" target="_top" xlink:title="/travis/libpairinteraction\l/HamiltonianOne.cpp">
<polygon fill="none" stroke="black" points="376,-67.5 376,-97.5 504,-97.5 504,-67.5 376,-67.5"/>
<text text-anchor="start" x="384" y="-85.5" font-family="Helvetica,sans-Serif" font-size="10.00">/travis/libpairinteraction</text>
<text text-anchor="middle" x="440" y="-74.5" font-family="Helvetica,sans-Serif" font-size="10.00">/HamiltonianOne.cpp</text>
</a>
</g>
</g>
<!-- Node8&#45;&gt;Node9 -->
<g id="edge4" class="edge"><title>Node8&#45;&gt;Node9</title>
<path fill="none" stroke="midnightblue" d="M434.966,-124.403C436.078,-115.37 437.304,-105.408 438.268,-97.5765"/>
<polygon fill="midnightblue" stroke="midnightblue" points="431.484,-124.043 433.736,-134.396 438.431,-124.898 431.484,-124.043"/>
</g>
<!-- Node8&#45;&gt;Node10 -->
<g id="edge5" class="edge"><title>Node8&#45;&gt;Node10</title>
<path fill="none" stroke="midnightblue" d="M393,-130.131C371.073,-119.802 344.126,-107.11 323.886,-97.5765"/>
<polygon fill="midnightblue" stroke="midnightblue" points="391.518,-133.301 402.056,-134.396 394.501,-126.968 391.518,-133.301"/>
</g>
<!-- Node12 -->
<g id="node8" class="node"><title>Node12</title>
<g id="a_node8"><a xlink:href="Interface_8cpp.html" target="_top" xlink:title="/travis/libpairinteraction\l/Interface.cpp">
<polygon fill="none" stroke="black" points="422,-0.5 422,-30.5 550,-30.5 550,-0.5 422,-0.5"/>
<text text-anchor="start" x="430" y="-18.5" font-family="Helvetica,sans-Serif" font-size="10.00">/travis/libpairinteraction</text>
<text text-anchor="middle" x="486" y="-7.5" font-family="Helvetica,sans-Serif" font-size="10.00">/Interface.cpp</text>
</a>
</g>
</g>
<!-- Node8&#45;&gt;Node12 -->
<g id="edge8" class="edge"><title>Node8&#45;&gt;Node12</title>
<path fill="none" stroke="midnightblue" d="M479.761,-129.448C492.889,-121.741 505.552,-111.421 513,-98 525.224,-75.9742 509.542,-47.5111 497.471,-30.709"/>
<polygon fill="midnightblue" stroke="midnightblue" points="477.788,-126.536 470.656,-134.371 481.117,-132.693 477.788,-126.536"/>
</g>
<!-- Node11 -->
<g id="node7" class="node"><title>Node11</title>
<g id="a_node7"><a xlink:href="HamiltonianTwo_8cpp.html" target="_top" xlink:title="/travis/libpairinteraction\l/HamiltonianTwo.cpp">
<polygon fill="none" stroke="black" points="230,-0.5 230,-30.5 358,-30.5 358,-0.5 230,-0.5"/>
<text text-anchor="start" x="238" y="-18.5" font-family="Helvetica,sans-Serif" font-size="10.00">/travis/libpairinteraction</text>
<text text-anchor="middle" x="294" y="-7.5" font-family="Helvetica,sans-Serif" font-size="10.00">/HamiltonianTwo.cpp</text>
</a>
</g>
</g>
<!-- Node10&#45;&gt;Node11 -->
<g id="edge6" class="edge"><title>Node10&#45;&gt;Node11</title>
<path fill="none" stroke="midnightblue" d="M294,-57.1081C294,-48.1539 294,-38.3227 294,-30.5765"/>
<polygon fill="midnightblue" stroke="midnightblue" points="290.5,-57.3959 294,-67.396 297.5,-57.396 290.5,-57.3959"/>
</g>
<!-- Node10&#45;&gt;Node12 -->
<g id="edge7" class="edge"><title>Node10&#45;&gt;Node12</title>
<path fill="none" stroke="midnightblue" d="M345.422,-64.0917C376.416,-53.5988 415.379,-40.4082 444.42,-30.5765"/>
<polygon fill="midnightblue" stroke="midnightblue" points="344.011,-60.8741 335.661,-67.396 346.255,-67.5044 344.011,-60.8741"/>
</g>
<!-- Node14&#45;&gt;Node8 -->
<g id="edge28" class="edge"><title>Node14&#45;&gt;Node8</title>
<path fill="none" stroke="midnightblue" d="M568.847,-435.707C524.039,-430.707 467.88,-418.226 427,-388 355.89,-335.424 317.943,-279.327 359,-201 367.442,-184.894 383.612,-172.906 398.591,-164.662"/>
<polygon fill="midnightblue" stroke="midnightblue" points="568.505,-439.19 578.808,-436.718 569.212,-432.226 568.505,-439.19"/>
</g>
<!-- Node14&#45;&gt;Node10 -->
<g id="edge29" class="edge"><title>Node14&#45;&gt;Node10</title>
<path fill="none" stroke="midnightblue" d="M568.883,-435.523C515.53,-430.693 443.335,-418.476 387,-388 339.454,-362.278 302,-355.058 302,-301 302,-301 302,-301 302,-221 302,-175.807 297.64,-122.398 295.357,-97.5382"/>
<polygon fill="midnightblue" stroke="midnightblue" points="568.697,-439.019 578.955,-436.368 569.282,-432.044 568.697,-439.019"/>
</g>
<!-- Node15 -->
<g id="node11" class="node"><title>Node15</title>
<g id="a_node11"><a xlink:href="QuantumDefect_8h.html" target="_top" xlink:title="/travis/libpairinteraction\l/QuantumDefect.h">
<polygon fill="none" stroke="black" points="579,-357.5 579,-387.5 707,-387.5 707,-357.5 579,-357.5"/>
<text text-anchor="start" x="587" y="-375.5" font-family="Helvetica,sans-Serif" font-size="10.00">/travis/libpairinteraction</text>
<text text-anchor="middle" x="643" y="-364.5" font-family="Helvetica,sans-Serif" font-size="10.00">/QuantumDefect.h</text>
</a>
</g>
</g>
<!-- Node14&#45;&gt;Node15 -->
<g id="edge12" class="edge"><title>Node14&#45;&gt;Node15</title>
<path fill="none" stroke="midnightblue" d="M643,-414.108C643,-405.154 643,-395.323 643,-387.577"/>
<polygon fill="midnightblue" stroke="midnightblue" points="639.5,-414.396 643,-424.396 646.5,-414.396 639.5,-414.396"/>
</g>
<!-- Node18 -->
<g id="node14" class="node"><title>Node18</title>
<g id="a_node14"><a xlink:href="MatrixElements_8cpp.html" target="_top" xlink:title="/travis/libpairinteraction\l/MatrixElements.cpp">
<polygon fill="none" stroke="black" points="806,-134.5 806,-164.5 934,-164.5 934,-134.5 806,-134.5"/>
<text text-anchor="start" x="814" y="-152.5" font-family="Helvetica,sans-Serif" font-size="10.00">/travis/libpairinteraction</text>
<text text-anchor="middle" x="870" y="-141.5" font-family="Helvetica,sans-Serif" font-size="10.00">/MatrixElements.cpp</text>
</a>
</g>
</g>
<!-- Node14&#45;&gt;Node18 -->
<g id="edge30" class="edge"><title>Node14&#45;&gt;Node18</title>
<path fill="none" stroke="midnightblue" d="M717.666,-431.428C837.97,-418.235 1065.74,-385.209 1110,-321 1163.74,-243.044 1014.03,-188.63 927.174,-164.507"/>
<polygon fill="midnightblue" stroke="midnightblue" points="716.995,-427.979 707.428,-432.531 717.745,-434.939 716.995,-427.979"/>
</g>
<!-- Node21 -->
<g id="node17" class="node"><title>Node21</title>
<g id="a_node17"><a xlink:href="wavefunction__test_8cpp.html" target="_top" xlink:title="/travis/libpairinteraction\l/unit_test/wavefunction\l_test.cpp">
<polygon fill="none" stroke="black" points="368,-201.5 368,-242.5 496,-242.5 496,-201.5 368,-201.5"/>
<text text-anchor="start" x="376" y="-230.5" font-family="Helvetica,sans-Serif" font-size="10.00">/travis/libpairinteraction</text>
<text text-anchor="start" x="376" y="-219.5" font-family="Helvetica,sans-Serif" font-size="10.00">/unit_test/wavefunction</text>
<text text-anchor="middle" x="432" y="-208.5" font-family="Helvetica,sans-Serif" font-size="10.00">_test.cpp</text>
</a>
</g>
</g>
<!-- Node14&#45;&gt;Node21 -->
<g id="edge34" class="edge"><title>Node14&#45;&gt;Node21</title>
<path fill="none" stroke="midnightblue" d="M569.028,-425.168C511.173,-410.434 434.467,-380.418 397,-321 381.293,-296.091 399.777,-263.171 415.28,-242.541"/>
<polygon fill="midnightblue" stroke="midnightblue" points="568.323,-428.599 578.868,-427.574 569.986,-421.799 568.323,-428.599"/>
</g>
<!-- Node23 -->
<g id="node19" class="node"><title>Node23</title>
<g id="a_node19"><a xlink:href="QuantumDefect_8cpp.html" target="_top" xlink:title="/travis/libpairinteraction\l/QuantumDefect.cpp">
<polygon fill="none" stroke="black" points="812,-285 812,-315 940,-315 940,-285 812,-285"/>
<text text-anchor="start" x="820" y="-303" font-family="Helvetica,sans-Serif" font-size="10.00">/travis/libpairinteraction</text>
<text text-anchor="middle" x="876" y="-292" font-family="Helvetica,sans-Serif" font-size="10.00">/QuantumDefect.cpp</text>
</a>
</g>
</g>
<!-- Node14&#45;&gt;Node23 -->
<g id="edge31" class="edge"><title>Node14&#45;&gt;Node23</title>
<path fill="none" stroke="midnightblue" d="M717.414,-431.193C775.042,-423.889 848.276,-410.449 868,-388 885.62,-367.945 882.794,-334.345 879.307,-315.303"/>
<polygon fill="midnightblue" stroke="midnightblue" points="716.717,-427.752 707.217,-432.443 717.569,-434.7 716.717,-427.752"/>
</g>
<!-- Node25 -->
<g id="node21" class="node"><title>Node25</title>
<g id="a_node21"><a xlink:href="quantum__defect__test_8cpp.html" target="_top" xlink:title="/travis/libpairinteraction\l/unit_test/quantum_defect\l_test.cpp">
<polygon fill="none" stroke="black" points="958.5,-279.5 958.5,-320.5 1101.5,-320.5 1101.5,-279.5 958.5,-279.5"/>
<text text-anchor="start" x="966.5" y="-308.5" font-family="Helvetica,sans-Serif" font-size="10.00">/travis/libpairinteraction</text>
<text text-anchor="start" x="966.5" y="-297.5" font-family="Helvetica,sans-Serif" font-size="10.00">/unit_test/quantum_defect</text>
<text text-anchor="middle" x="1030" y="-286.5" font-family="Helvetica,sans-Serif" font-size="10.00">_test.cpp</text>
</a>
</g>
</g>
<!-- Node14&#45;&gt;Node25 -->
<g id="edge32" class="edge"><title>Node14&#45;&gt;Node25</title>
<path fill="none" stroke="midnightblue" d="M717.25,-430.158C767.101,-422.906 833.55,-409.997 889,-388 932.314,-370.817 977.272,-340.542 1004.45,-320.626"/>
<polygon fill="midnightblue" stroke="midnightblue" points="716.605,-426.715 707.192,-431.578 717.583,-433.646 716.605,-426.715"/>
</g>
<!-- Node26 -->
<g id="node22" class="node"><title>Node26</title>
<g id="a_node22"><a xlink:href="sqlite__test_8cpp.html" target="_top" xlink:title="/travis/libpairinteraction\l/unit_test/sqlite_test.cpp">
<polygon fill="none" stroke="black" points="725,-357.5 725,-387.5 859,-387.5 859,-357.5 725,-357.5"/>
<text text-anchor="start" x="733" y="-375.5" font-family="Helvetica,sans-Serif" font-size="10.00">/travis/libpairinteraction</text>
<text text-anchor="middle" x="792" y="-364.5" font-family="Helvetica,sans-Serif" font-size="10.00">/unit_test/sqlite_test.cpp</text>
</a>
</g>
</g>
<!-- Node14&#45;&gt;Node26 -->
<g id="edge33" class="edge"><title>Node14&#45;&gt;Node26</title>
<path fill="none" stroke="midnightblue" d="M684.792,-420.269C708.524,-409.916 737.78,-397.153 759.732,-387.577"/>
<polygon fill="midnightblue" stroke="midnightblue" points="683.097,-417.189 675.331,-424.396 685.896,-423.605 683.097,-417.189"/>
</g>
<!-- Node16 -->
<g id="node12" class="node"><title>Node16</title>
<g id="a_node12"><a xlink:href="Wavefunction_8h.html" target="_top" xlink:title="/travis/libpairinteraction\l/Wavefunction.h">
<polygon fill="none" stroke="black" points="590,-285 590,-315 718,-315 718,-285 590,-285"/>
<text text-anchor="start" x="598" y="-303" font-family="Helvetica,sans-Serif" font-size="10.00">/travis/libpairinteraction</text>
<text text-anchor="middle" x="654" y="-292" font-family="Helvetica,sans-Serif" font-size="10.00">/Wavefunction.h</text>
</a>
</g>
</g>
<!-- Node15&#45;&gt;Node16 -->
<g id="edge13" class="edge"><title>Node15&#45;&gt;Node16</title>
<path fill="none" stroke="midnightblue" d="M646.787,-347.232C648.45,-336.568 650.347,-324.414 651.777,-315.246"/>
<polygon fill="midnightblue" stroke="midnightblue" points="643.31,-346.813 645.226,-357.233 650.226,-347.892 643.31,-346.813"/>
</g>
<!-- Node15&#45;&gt;Node18 -->
<g id="edge22" class="edge"><title>Node15&#45;&gt;Node18</title>
<path fill="none" stroke="midnightblue" d="M692.102,-353.3C710.214,-345.136 730.161,-334.312 746,-321 802.039,-273.902 846.201,-196.33 862.84,-164.646"/>
<polygon fill="midnightblue" stroke="midnightblue" points="690.609,-350.133 682.83,-357.325 693.397,-356.554 690.609,-350.133"/>
</g>
<!-- Node15&#45;&gt;Node21 -->
<g id="edge26" class="edge"><title>Node15&#45;&gt;Node21</title>
<path fill="none" stroke="midnightblue" d="M616.056,-351.017C604.884,-342.154 591.991,-331.435 581,-321 562.744,-303.668 563.02,-294.26 543,-279 523.946,-264.476 500.547,-252.019 480.153,-242.566"/>
<polygon fill="midnightblue" stroke="midnightblue" points="614.174,-353.988 624.205,-357.397 618.489,-348.477 614.174,-353.988"/>
</g>
<!-- Node22 -->
<g id="node18" class="node"><title>Node22</title>
<g id="a_node18"><a xlink:href="Wavefunction_8cpp.html" target="_top" xlink:title="/travis/libpairinteraction\l/Wavefunction.cpp">
<polygon fill="none" stroke="black" points="660,-207 660,-237 788,-237 788,-207 660,-207"/>
<text text-anchor="start" x="668" y="-225" font-family="Helvetica,sans-Serif" font-size="10.00">/travis/libpairinteraction</text>
<text text-anchor="middle" x="724" y="-214" font-family="Helvetica,sans-Serif" font-size="10.00">/Wavefunction.cpp</text>
</a>
</g>
</g>
<!-- Node15&#45;&gt;Node22 -->
<g id="edge27" class="edge"><title>Node15&#45;&gt;Node22</title>
<path fill="none" stroke="midnightblue" d="M692.456,-352.828C706.08,-345.137 719.235,-334.729 727,-321 742.001,-294.479 734.557,-257.133 728.722,-237.067"/>
<polygon fill="midnightblue" stroke="midnightblue" points="690.741,-349.775 683.488,-357.498 693.974,-355.984 690.741,-349.775"/>
</g>
<!-- Node15&#45;&gt;Node23 -->
<g id="edge23" class="edge"><title>Node15&#45;&gt;Node23</title>
<path fill="none" stroke="midnightblue" d="M698.892,-354.589C738.768,-342.523 791.775,-326.484 829.377,-315.107"/>
<polygon fill="midnightblue" stroke="midnightblue" points="697.87,-351.241 689.312,-357.487 699.897,-357.941 697.87,-351.241"/>
</g>
<!-- Node24 -->
<g id="node20" class="node"><title>Node24</title>
<g id="a_node20"><a xlink:href="State_8cpp.html" target="_top" xlink:title="/travis/libpairinteraction\l/State.cpp">
<polygon fill="none" stroke="black" points="406,-285 406,-315 534,-315 534,-285 406,-285"/>
<text text-anchor="start" x="414" y="-303" font-family="Helvetica,sans-Serif" font-size="10.00">/travis/libpairinteraction</text>
<text text-anchor="middle" x="470" y="-292" font-family="Helvetica,sans-Serif" font-size="10.00">/State.cpp</text>
</a>
</g>
</g>
<!-- Node15&#45;&gt;Node24 -->
<g id="edge24" class="edge"><title>Node15&#45;&gt;Node24</title>
<path fill="none" stroke="midnightblue" d="M598.828,-353.499C569.527,-341.559 531.626,-326.114 504.533,-315.073"/>
<polygon fill="midnightblue" stroke="midnightblue" points="597.825,-356.87 608.407,-357.403 600.467,-350.388 597.825,-356.87"/>
</g>
<!-- Node15&#45;&gt;Node25 -->
<g id="edge25" class="edge"><title>Node15&#45;&gt;Node25</title>
<path fill="none" stroke="midnightblue" d="M717.019,-356.874C820.898,-338.936 849.367,-340.956 949,-321 951.983,-320.403 955.021,-319.769 958.086,-319.108"/>
<polygon fill="midnightblue" stroke="midnightblue" points="716.313,-353.444 707.065,-358.614 717.518,-360.34 716.313,-353.444"/>
</g>
<!-- Node17 -->
<g id="node13" class="node"><title>Node17</title>
<g id="a_node13"><a xlink:href="MatrixElements_8h.html" target="_top" xlink:title="/travis/libpairinteraction\l/MatrixElements.h">
<polygon fill="none" stroke="black" points="514,-207 514,-237 642,-237 642,-207 514,-207"/>
<text text-anchor="start" x="522" y="-225" font-family="Helvetica,sans-Serif" font-size="10.00">/travis/libpairinteraction</text>
<text text-anchor="middle" x="578" y="-214" font-family="Helvetica,sans-Serif" font-size="10.00">/MatrixElements.h</text>
</a>
</g>
</g>
<!-- Node16&#45;&gt;Node17 -->
<g id="edge14" class="edge"><title>Node16&#45;&gt;Node17</title>
<path fill="none" stroke="midnightblue" d="M632.533,-277.533C619.632,-264.632 603.572,-248.572 592.231,-237.231"/>
<polygon fill="midnightblue" stroke="midnightblue" points="630.159,-280.109 639.705,-284.705 635.109,-275.159 630.159,-280.109"/>
</g>
<!-- Node16&#45;&gt;Node21 -->
<g id="edge20" class="edge"><title>Node16&#45;&gt;Node21</title>
<path fill="none" stroke="midnightblue" d="M603.279,-281.636C569.236,-269.982 524.335,-254.61 489.048,-242.53"/>
<polygon fill="midnightblue" stroke="midnightblue" points="602.428,-285.044 613.023,-284.972 604.696,-278.422 602.428,-285.044"/>
</g>
<!-- Node16&#45;&gt;Node22 -->
<g id="edge21" class="edge"><title>Node16&#45;&gt;Node22</title>
<path fill="none" stroke="midnightblue" d="M674.106,-277.171C685.931,-264.332 700.545,-248.466 710.893,-237.231"/>
<polygon fill="midnightblue" stroke="midnightblue" points="671.367,-274.978 667.166,-284.705 676.516,-279.721 671.367,-274.978"/>
</g>
<!-- Node17&#45;&gt;Node8 -->
<g id="edge15" class="edge"><title>Node17&#45;&gt;Node8</title>
<path fill="none" stroke="midnightblue" d="M539.75,-202.53C515.161,-190.656 483.71,-175.47 461.144,-164.573"/>
<polygon fill="midnightblue" stroke="midnightblue" points="538.279,-205.706 548.806,-206.903 541.322,-199.403 538.279,-205.706"/>
</g>
<!-- Node17&#45;&gt;Node10 -->
<g id="edge16" class="edge"><title>Node17&#45;&gt;Node10</title>
<path fill="none" stroke="midnightblue" d="M517.509,-204.298C513.279,-203.17 509.077,-202.061 505,-201 440.322,-184.169 415.279,-201.045 359,-165 332.329,-147.918 311.748,-116.105 301.394,-97.684"/>
<polygon fill="midnightblue" stroke="midnightblue" points="516.82,-207.737 527.386,-206.953 518.637,-200.977 516.82,-207.737"/>
</g>
<!-- Node17&#45;&gt;Node18 -->
<g id="edge17" class="edge"><title>Node17&#45;&gt;Node18</title>
<path fill="none" stroke="midnightblue" d="M637.891,-204.38C642.322,-203.216 646.728,-202.077 651,-201 703.022,-187.882 762.34,-174.287 806.108,-164.512"/>
<polygon fill="midnightblue" stroke="midnightblue" points="636.959,-201.007 628.194,-206.959 638.758,-207.772 636.959,-201.007"/>
</g>
<!-- Node19 -->
<g id="node15" class="node"><title>Node19</title>
<g id="a_node15"><a xlink:href="SystemOne_8cpp.html" target="_top" xlink:title="/travis/libpairinteraction\l/SystemOne.cpp">
<polygon fill="none" stroke="black" points="660,-134.5 660,-164.5 788,-164.5 788,-134.5 660,-134.5"/>
<text text-anchor="start" x="668" y="-152.5" font-family="Helvetica,sans-Serif" font-size="10.00">/travis/libpairinteraction</text>
<text text-anchor="middle" x="724" y="-141.5" font-family="Helvetica,sans-Serif" font-size="10.00">/SystemOne.cpp</text>
</a>
</g>
</g>
<!-- Node17&#45;&gt;Node19 -->
<g id="edge18" class="edge"><title>Node17&#45;&gt;Node19</title>
<path fill="none" stroke="midnightblue" d="M616.25,-202.53C640.839,-190.656 672.29,-175.47 694.856,-164.573"/>
<polygon fill="midnightblue" stroke="midnightblue" points="614.678,-199.403 607.194,-206.903 617.721,-205.706 614.678,-199.403"/>
</g>
<!-- Node20 -->
<g id="node16" class="node"><title>Node20</title>
<g id="a_node16"><a xlink:href="SystemTwo_8cpp.html" target="_top" xlink:title="/travis/libpairinteraction\l/SystemTwo.cpp">
<polygon fill="none" stroke="black" points="514,-134.5 514,-164.5 642,-164.5 642,-134.5 514,-134.5"/>
<text text-anchor="start" x="522" y="-152.5" font-family="Helvetica,sans-Serif" font-size="10.00">/travis/libpairinteraction</text>
<text text-anchor="middle" x="578" y="-141.5" font-family="Helvetica,sans-Serif" font-size="10.00">/SystemTwo.cpp</text>
</a>
</g>
</g>
<!-- Node17&#45;&gt;Node20 -->
<g id="edge19" class="edge"><title>Node17&#45;&gt;Node20</title>
<path fill="none" stroke="midnightblue" d="M578,-196.732C578,-186.068 578,-173.914 578,-164.746"/>
<polygon fill="midnightblue" stroke="midnightblue" points="574.5,-196.733 578,-206.733 581.5,-196.733 574.5,-196.733"/>
</g>
</g>
</svg>
        <g id="navigator" transform="translate(0 0)" fill="#404254">
                <rect fill="#f2f5e9" fill-opacity="0.5" stroke="#606060" stroke-width=".5" x="0" y="0" width="60" height="60"/>
                <use id="zoomplus" xlink:href="#zoomPlus" x="17" y="9" onmousedown="handleZoom(evt,'in')"/>
                <use id="zoomminus" xlink:href="#zoomMin" x="42" y="9" onmousedown="handleZoom(evt,'out')"/>
                <use id="reset" xlink:href="#resetDef" x="30" y="36" onmousedown="handleReset()"/>
                <g id="arrowUp" xlink:href="#dirArrow" transform="translate(30 24)" onmousedown="handlePan(0,-1)">
                  <use xlink:href="#rim" fill="#404040">
                        <set attributeName="fill" to="#808080" begin="arrowUp.mouseover" end="arrowUp.mouseout"/>
                  </use>
                  <path fill="none" stroke="white" stroke-width="1.5" d="M0,-3.0v7 M-2.5,-0.5L0,-3.0L2.5,-0.5"/>
                </g>
                <g id="arrowRight" xlink:href="#dirArrow" transform="rotate(90) translate(36 -43)" onmousedown="handlePan(1,0)">
                  <use xlink:href="#rim" fill="#404040">
                        <set attributeName="fill" to="#808080" begin="arrowRight.mouseover" end="arrowRight.mouseout"/>
                  </use>
                  <path fill="none" stroke="white" stroke-width="1.5" d="M0,-3.0v7 M-2.5,-0.5L0,-3.0L2.5,-0.5"/>
                </g>
                <g id="arrowDown" xlink:href="#dirArrow" transform="rotate(180) translate(-30 -48)" onmousedown="handlePan(0,1)">
                  <use xlink:href="#rim" fill="#404040">
                        <set attributeName="fill" to="#808080" begin="arrowDown.mouseover" end="arrowDown.mouseout"/>
                  </use>
                  <path fill="none" stroke="white" stroke-width="1.5" d="M0,-3.0v7 M-2.5,-0.5L0,-3.0L2.5,-0.5"/>
                </g>
                <g id="arrowLeft" xlink:href="#dirArrow" transform="rotate(270) translate(-36 17)" onmousedown="handlePan(-1,0)">
                  <use xlink:href="#rim" fill="#404040">
                        <set attributeName="fill" to="#808080" begin="arrowLeft.mouseover" end="arrowLeft.mouseout"/>
                  </use>
                  <path fill="none" stroke="white" stroke-width="1.5" d="M0,-3.0v7 M-2.5,-0.5L0,-3.0L2.5,-0.5"/>
                </g>
        </g>
        <svg viewBox="0 0 15 15" width="100%" height="30px" preserveAspectRatio="xMaxYMin meet">
         <g id="arrow_out" transform="scale(0.3 0.3)">
          <a xlink:href="utils_8h__dep__incl_org.svg" target="_base">
           <rect id="button" ry="5" rx="5" y="6" x="6" height="38" width="38"
                fill="#f2f5e9" fill-opacity="0.5" stroke="#606060" stroke-width="1.0"/>
           <path id="arrow"
             d="M 11.500037,31.436501 C 11.940474,20.09759 22.043105,11.32322 32.158766,21.979434 L 37.068811,17.246167 C 37.068811,17.246167 37.088388,32 37.088388,32 L 22.160133,31.978069 C 22.160133,31.978069 26.997745,27.140456 26.997745,27.140456 C 18.528582,18.264221 13.291696,25.230495 11.500037,31.436501 z"
             style="fill:#404040;"/>
          </a>
         </g>
        </svg>
</svg>
