<?xml version="1.0" encoding="UTF-8" standalone="no"?>
<!DOCTYPE svg PUBLIC "-//W3C//DTD SVG 1.1//EN"
 "http://www.w3.org/Graphics/SVG/1.1/DTD/svg11.dtd">
<!-- Generated by graphviz version 2.38.0 (20140413.2041)
 -->
<!-- Title: /travis/libpairinteraction/Wavefunction.h Pages: 1 -->
<!--zoomable 274 -->
<svg id="main" version="1.1" xmlns="http://www.w3.org/2000/svg" xmlns:xlink="http://www.w3.org/1999/xlink" xml:space="preserve" onload="init(evt)">
<style type="text/css"><![CDATA[
.edge:hover path { stroke: red; }
.edge:hover polygon { stroke: red; fill: red; }
]]></style>
<script type="text/javascript"><![CDATA[
var edges = document.getElementsByTagName('g');
if (edges && edges.length) {
  for (var i=0;i<edges.length;i++) {
    if (edges[i].id.substr(0,4)=='edge') {
      edges[i].setAttribute('class','edge');
    }
  }
}
]]></script>
        <defs>
                <circle id="rim" cx="0" cy="0" r="7"/>
                <circle id="rim2" cx="0" cy="0" r="3.5"/>
                <g id="zoomPlus">
                        <use xlink:href="#rim" fill="#404040">
                                <set attributeName="fill" to="#808080" begin="zoomplus.mouseover" end="zoomplus.mouseout"/>
                        </use>
                        <path d="M-4,0h8M0,-4v8" fill="none" stroke="white" stroke-width="1.5" pointer-events="none"/>
                </g>
                <g id="zoomMin">
                        <use xlink:href="#rim" fill="#404040">
                                <set attributeName="fill" to="#808080" begin="zoomminus.mouseover" end="zoomminus.mouseout"/>
                        </use>
                        <path d="M-4,0h8" fill="none" stroke="white" stroke-width="1.5" pointer-events="none"/>
                </g>
                <g id="dirArrow">
                        <path fill="none" stroke="white" stroke-width="1.5" d="M0,-3.0v7 M-2.5,-0.5L0,-3.0L2.5,-0.5"/>
                </g>
               <g id="resetDef">
                       <use xlink:href="#rim2" fill="#404040">
                               <set attributeName="fill" to="#808080" begin="reset.mouseover" end="reset.mouseout"/>
                       </use>
               </g>
        </defs>

<script type="text/javascript">
var viewWidth = 1054;
var viewHeight = 274;
var sectionId = 'dynsection-0';
</script>
<script xlink:href="svgpan.js"/>
<svg id="graph" class="graph">
<g id="viewport">
<title>/travis/libpairinteraction/Wavefunction.h</title>
<!-- Node0 -->
<g id="node1" class="node"><title>Node0</title>
<polygon fill="#bfbfbf" stroke="black" points="361.5,-235.5 361.5,-265.5 489.5,-265.5 489.5,-235.5 361.5,-235.5"/>
<text text-anchor="start" x="369.5" y="-253.5" font-family="Helvetica,sans-Serif" font-size="10.00">/travis/libpairinteraction</text>
<text text-anchor="middle" x="425.5" y="-242.5" font-family="Helvetica,sans-Serif" font-size="10.00">/Wavefunction.h</text>
</g>
<!-- Node1 -->
<g id="node2" class="node"><title>Node1</title>
<polygon fill="none" stroke="#bfbfbf" points="1001.5,-62 1001.5,-81 1045.5,-81 1045.5,-62 1001.5,-62"/>
<text text-anchor="middle" x="1023.5" y="-69" font-family="Helvetica,sans-Serif" font-size="10.00">string</text>
</g>
<!-- Node0&#45;&gt;Node1 -->
<g id="edge1" class="edge"><title>Node0&#45;&gt;Node1</title>
<path fill="none" stroke="midnightblue" d="M476.812,-235.493C513.519,-225.436 564.085,-211.505 608.5,-199 695.295,-174.562 717.222,-169.206 803.5,-143 870.826,-122.55 949.194,-97.02 991.852,-82.9762"/>
<polygon fill="midnightblue" stroke="midnightblue" points="992.997,-86.2838 1001.4,-79.8285 990.806,-79.6358 992.997,-86.2838"/>
</g>
<!-- Node2 -->
<g id="node3" class="node"><title>Node2</title>
<polygon fill="none" stroke="#bfbfbf" points="0,-62 0,-81 47,-81 47,-62 0,-62"/>
<text text-anchor="middle" x="23.5" y="-69" font-family="Helvetica,sans-Serif" font-size="10.00">vector</text>
</g>
<!-- Node0&#45;&gt;Node2 -->
<g id="edge2" class="edge"><title>Node0&#45;&gt;Node2</title>
<path fill="none" stroke="midnightblue" d="M389.797,-235.402C364.935,-225.477 331.065,-211.741 301.5,-199 208.825,-159.062 100.302,-108.594 50.712,-85.3235"/>
<polygon fill="midnightblue" stroke="midnightblue" points="52.141,-82.1279 41.6019,-81.0433 49.1643,-88.4635 52.141,-82.1279"/>
</g>
<!-- Node3 -->
<g id="node4" class="node"><title>Node3</title>
<g id="a_node4"><a xlink:href="dtypes_8h.html" target="_top" xlink:title="dtypes.h">
<polygon fill="none" stroke="black" points="191.5,-123.5 191.5,-142.5 249.5,-142.5 249.5,-123.5 191.5,-123.5"/>
<text text-anchor="middle" x="220.5" y="-130.5" font-family="Helvetica,sans-Serif" font-size="10.00">dtypes.h</text>
</a>
</g>
</g>
<!-- Node0&#45;&gt;Node3 -->
<g id="edge3" class="edge"><title>Node0&#45;&gt;Node3</title>
<path fill="none" stroke="midnightblue" d="M400.363,-235.337C360.642,-212.958 283.864,-169.7 244.721,-147.647"/>
<polygon fill="midnightblue" stroke="midnightblue" points="246.057,-144.382 235.626,-142.522 242.62,-150.48 246.057,-144.382"/>
</g>
<!-- Node7 -->
<g id="node8" class="node"><title>Node7</title>
<g id="a_node8"><a xlink:href="QuantumDefect_8h.html" target="_top" xlink:title="QuantumDefect.h">
<polygon fill="none" stroke="black" points="497.5,-179.5 497.5,-198.5 599.5,-198.5 599.5,-179.5 497.5,-179.5"/>
<text text-anchor="middle" x="548.5" y="-186.5" font-family="Helvetica,sans-Serif" font-size="10.00">QuantumDefect.h</text>
</a>
</g>
</g>
<!-- Node0&#45;&gt;Node7 -->
<g id="edge8" class="edge"><title>Node0&#45;&gt;Node7</title>
<path fill="none" stroke="midnightblue" d="M454.649,-235.399C474.918,-225.595 501.741,-212.619 521.519,-203.052"/>
<polygon fill="midnightblue" stroke="midnightblue" points="523.124,-206.163 530.602,-198.658 520.076,-199.862 523.124,-206.163"/>
</g>
<!-- Node3&#45;&gt;Node2 -->
<g id="edge4" class="edge"><title>Node3&#45;&gt;Node2</title>
<path fill="none" stroke="midnightblue" d="M191.453,-125.56C158.152,-117.838 102.15,-103.809 55.5,-87 53.8826,-86.4172 52.2334,-85.7869 50.579,-85.1267"/>
<polygon fill="midnightblue" stroke="midnightblue" points="51.804,-81.8442 41.2325,-81.1402 49.0576,-88.2829 51.804,-81.8442"/>
</g>
<!-- Node4 -->
<g id="node5" class="node"><title>Node4</title>
<polygon fill="none" stroke="#bfbfbf" points="160,-62 160,-81 201,-81 201,-62 160,-62"/>
<text text-anchor="middle" x="180.5" y="-69" font-family="Helvetica,sans-Serif" font-size="10.00">array</text>
</g>
<!-- Node3&#45;&gt;Node4 -->
<g id="edge5" class="edge"><title>Node3&#45;&gt;Node4</title>
<path fill="none" stroke="midnightblue" d="M214.769,-123.475C208.828,-114.638 199.383,-100.589 191.912,-89.475"/>
<polygon fill="midnightblue" stroke="midnightblue" points="194.704,-87.3554 186.22,-81.0091 188.895,-91.2608 194.704,-87.3554"/>
</g>
<!-- Node5 -->
<g id="node6" class="node"><title>Node5</title>
<polygon fill="none" stroke="#bfbfbf" points="219.5,-62 219.5,-81 299.5,-81 299.5,-62 219.5,-62"/>
<text text-anchor="middle" x="259.5" y="-69" font-family="Helvetica,sans-Serif" font-size="10.00">Eigen/Sparse</text>
</g>
<!-- Node3&#45;&gt;Node5 -->
<g id="edge6" class="edge"><title>Node3&#45;&gt;Node5</title>
<path fill="none" stroke="midnightblue" d="M226.088,-123.475C231.88,-114.638 241.089,-100.589 248.374,-89.475"/>
<polygon fill="midnightblue" stroke="midnightblue" points="251.368,-91.2913 253.923,-81.0091 245.513,-87.4539 251.368,-91.2913"/>
</g>
<!-- Node6 -->
<g id="node7" class="node"><title>Node6</title>
<polygon fill="none" stroke="#bfbfbf" points="65,-62 65,-81 142,-81 142,-62 65,-62"/>
<text text-anchor="middle" x="103.5" y="-69" font-family="Helvetica,sans-Serif" font-size="10.00">Eigen/Dense</text>
</g>
<!-- Node3&#45;&gt;Node6 -->
<g id="edge7" class="edge"><title>Node3&#45;&gt;Node6</title>
<path fill="none" stroke="midnightblue" d="M203.737,-123.475C184.275,-113.578 151.955,-97.1416 129.289,-85.6151"/>
<polygon fill="midnightblue" stroke="midnightblue" points="130.732,-82.4224 120.232,-81.0091 127.559,-88.6619 130.732,-82.4224"/>
</g>
<!-- Node7&#45;&gt;Node1 -->
<g id="edge26" class="edge"><title>Node7&#45;&gt;Node1</title>
<path fill="none" stroke="midnightblue" d="M588.556,-179.494C664.583,-163.141 834.867,-125.512 976.5,-87 981.295,-85.6963 986.338,-84.2361 991.269,-82.7579"/>
<polygon fill="midnightblue" stroke="midnightblue" points="992.58,-86.0169 1001.12,-79.7429 990.531,-79.3235 992.58,-86.0169"/>
</g>
<!-- Node7&#45;&gt;Node3 -->
<g id="edge25" class="edge"><title>Node7&#45;&gt;Node3</title>
<path fill="none" stroke="midnightblue" d="M497.25,-179.562C431.641,-168.761 319.372,-150.278 259.998,-140.503"/>
<polygon fill="midnightblue" stroke="midnightblue" points="260.332,-137.011 249.896,-138.84 259.195,-143.918 260.332,-137.011"/>
</g>
<!-- Node8 -->
<g id="node9" class="node"><title>Node8</title>
<g id="a_node9"><a xlink:href="SQLite_8h.html" target="_top" xlink:title="SQLite.h">
<polygon fill="none" stroke="black" points="604,-123.5 604,-142.5 661,-142.5 661,-123.5 604,-123.5"/>
<text text-anchor="middle" x="632.5" y="-130.5" font-family="Helvetica,sans-Serif" font-size="10.00">SQLite.h</text>
</a>
</g>
</g>
<!-- Node7&#45;&gt;Node8 -->
<g id="edge9" class="edge"><title>Node7&#45;&gt;Node8</title>
<path fill="none" stroke="midnightblue" d="M561.996,-179.324C575.1,-170.9 595.212,-157.971 610.607,-148.074"/>
<polygon fill="midnightblue" stroke="midnightblue" points="612.518,-151.006 619.037,-142.655 608.733,-145.118 612.518,-151.006"/>
</g>
<!-- Node8&#45;&gt;Node1 -->
<g id="edge15" class="edge"><title>Node8&#45;&gt;Node1</title>
<path fill="none" stroke="midnightblue" d="M661.039,-130.863C721.938,-127.901 868.755,-117.89 987.5,-87 990.011,-86.3469 992.58,-85.5623 995.134,-84.7005"/>
<polygon fill="midnightblue" stroke="midnightblue" points="996.608,-87.8866 1004.75,-81.1092 994.159,-81.3289 996.608,-87.8866"/>
</g>
<!-- Node9 -->
<g id="node10" class="node"><title>Node9</title>
<polygon fill="none" stroke="#bfbfbf" points="942,-0.5 942,-19.5 1005,-19.5 1005,-0.5 942,-0.5"/>
<text text-anchor="middle" x="973.5" y="-7.5" font-family="Helvetica,sans-Serif" font-size="10.00">functional</text>
</g>
<!-- Node8&#45;&gt;Node9 -->
<g id="edge10" class="edge"><title>Node8&#45;&gt;Node9</title>
<path fill="none" stroke="midnightblue" d="M661.14,-131.954C731.755,-131.242 911.581,-125.589 954.5,-87 970.429,-72.6779 973.95,-47.2117 974.301,-29.7349"/>
<polygon fill="midnightblue" stroke="midnightblue" points="977.799,-29.5562 974.172,-19.6014 970.799,-29.645 977.799,-29.5562"/>
</g>
<!-- Node10 -->
<g id="node11" class="node"><title>Node10</title>
<polygon fill="none" stroke="#bfbfbf" points="318,-62 318,-81 377,-81 377,-62 318,-62"/>
<text text-anchor="middle" x="347.5" y="-69" font-family="Helvetica,sans-Serif" font-size="10.00">iostream</text>
</g>
<!-- Node8&#45;&gt;Node10 -->
<g id="edge11" class="edge"><title>Node8&#45;&gt;Node10</title>
<path fill="none" stroke="midnightblue" d="M603.725,-128.402C557.419,-122.242 463.735,-108.246 386.5,-87 383.692,-86.2276 380.802,-85.339 377.924,-84.3898"/>
<polygon fill="midnightblue" stroke="midnightblue" points="378.924,-81.0312 368.329,-81.0105 376.598,-87.6337 378.924,-81.0312"/>
</g>
<!-- Node11 -->
<g id="node12" class="node"><title>Node11</title>
<polygon fill="none" stroke="#bfbfbf" points="395,-62 395,-81 452,-81 452,-62 395,-62"/>
<text text-anchor="middle" x="423.5" y="-69" font-family="Helvetica,sans-Serif" font-size="10.00">memory</text>
</g>
<!-- Node8&#45;&gt;Node11 -->
<g id="edge12" class="edge"><title>Node8&#45;&gt;Node11</title>
<path fill="none" stroke="midnightblue" d="M603.858,-124.798C570.652,-116.318 514.355,-101.54 466.5,-87 463.579,-86.1125 460.557,-85.1614 457.532,-84.1864"/>
<polygon fill="midnightblue" stroke="midnightblue" points="458.569,-80.8431 447.976,-81.0388 456.379,-87.4917 458.569,-80.8431"/>
</g>
<!-- Node12 -->
<g id="node13" class="node"><title>Node12</title>
<polygon fill="none" stroke="#bfbfbf" points="541.5,-0.5 541.5,-19.5 595.5,-19.5 595.5,-0.5 541.5,-0.5"/>
<text text-anchor="middle" x="568.5" y="-7.5" font-family="Helvetica,sans-Serif" font-size="10.00">random</text>
</g>
<!-- Node8&#45;&gt;Node12 -->
<g id="edge13" class="edge"><title>Node8&#45;&gt;Node12</title>
<path fill="none" stroke="midnightblue" d="M603.773,-131.438C572.301,-129.095 523.157,-119.979 499.5,-87 491.469,-75.8048 492.938,-68.1145 499.5,-56 507.249,-41.6958 521.734,-31.2188 535.44,-23.992"/>
<polygon fill="midnightblue" stroke="midnightblue" points="537.238,-27.0103 544.712,-19.501 534.186,-20.7104 537.238,-27.0103"/>
</g>
<!-- Node13 -->
<g id="node14" class="node"><title>Node13</title>
<polygon fill="none" stroke="#bfbfbf" points="508.5,-62 508.5,-81 564.5,-81 564.5,-62 508.5,-62"/>
<text text-anchor="middle" x="536.5" y="-69" font-family="Helvetica,sans-Serif" font-size="10.00">sstream</text>
</g>
<!-- Node8&#45;&gt;Node13 -->
<g id="edge14" class="edge"><title>Node8&#45;&gt;Node13</title>
<path fill="none" stroke="midnightblue" d="M618.746,-123.475C603.134,-113.799 577.437,-97.8721 558.917,-86.3941"/>
<polygon fill="midnightblue" stroke="midnightblue" points="560.573,-83.3023 550.229,-81.0091 556.885,-89.2522 560.573,-83.3023"/>
</g>
<!-- Node14 -->
<g id="node15" class="node"><title>Node14</title>
<polygon fill="none" stroke="#bfbfbf" points="582.5,-62 582.5,-81 630.5,-81 630.5,-62 582.5,-62"/>
<text text-anchor="middle" x="606.5" y="-69" font-family="Helvetica,sans-Serif" font-size="10.00">thread</text>
</g>
<!-- Node8&#45;&gt;Node14 -->
<g id="edge16" class="edge"><title>Node8&#45;&gt;Node14</title>
<path fill="none" stroke="midnightblue" d="M628.775,-123.475C625.029,-114.904 619.14,-101.427 614.358,-90.483"/>
<polygon fill="midnightblue" stroke="midnightblue" points="617.43,-88.771 610.218,-81.0091 611.015,-91.5739 617.43,-88.771"/>
</g>
<!-- Node15 -->
<g id="node16" class="node"><title>Node15</title>
<polygon fill="none" stroke="#bfbfbf" points="702.5,-0.5 702.5,-19.5 770.5,-19.5 770.5,-0.5 702.5,-0.5"/>
<text text-anchor="middle" x="736.5" y="-7.5" font-family="Helvetica,sans-Serif" font-size="10.00">type_traits</text>
</g>
<!-- Node8&#45;&gt;Node15 -->
<g id="edge17" class="edge"><title>Node8&#45;&gt;Node15</title>
<path fill="none" stroke="midnightblue" d="M636.283,-123.321C643.054,-108.431 658.342,-77.5411 677.5,-56 688.006,-44.1869 701.997,-33.3587 713.718,-25.2857"/>
<polygon fill="midnightblue" stroke="midnightblue" points="715.758,-28.1327 722.144,-19.6786 711.88,-22.3053 715.758,-28.1327"/>
</g>
<!-- Node16 -->
<g id="node17" class="node"><title>Node16</title>
<polygon fill="none" stroke="#bfbfbf" points="686.5,-56.5 686.5,-86.5 806.5,-86.5 806.5,-56.5 686.5,-56.5"/>
<text text-anchor="start" x="694.5" y="-74.5" font-family="Helvetica,sans-Serif" font-size="10.00">boost/iterator/iterator</text>
<text text-anchor="middle" x="746.5" y="-63.5" font-family="Helvetica,sans-Serif" font-size="10.00">_facade.hpp</text>
</g>
<!-- Node8&#45;&gt;Node16 -->
<g id="edge18" class="edge"><title>Node8&#45;&gt;Node16</title>
<path fill="none" stroke="midnightblue" d="M648.833,-123.475C664.922,-115.078 690.031,-101.973 710.761,-91.1534"/>
<polygon fill="midnightblue" stroke="midnightblue" points="712.387,-94.2528 719.632,-86.523 709.148,-88.0472 712.387,-94.2528"/>
</g>
<!-- Node17 -->
<g id="node18" class="node"><title>Node17</title>
<polygon fill="none" stroke="#bfbfbf" points="825,-62 825,-81 882,-81 882,-62 825,-62"/>
<text text-anchor="middle" x="853.5" y="-69" font-family="Helvetica,sans-Serif" font-size="10.00">sqlite3.h</text>
</g>
<!-- Node8&#45;&gt;Node17 -->
<g id="edge19" class="edge"><title>Node8&#45;&gt;Node17</title>
<path fill="none" stroke="midnightblue" d="M661.013,-126.132C697.269,-118.411 761.631,-103.83 815.5,-87 817.918,-86.2446 820.404,-85.4161 822.893,-84.5499"/>
<polygon fill="midnightblue" stroke="midnightblue" points="824.163,-87.8121 832.358,-81.0969 821.764,-81.236 824.163,-87.8121"/>
</g>
<!-- Node18 -->
<g id="node19" class="node"><title>Node18</title>
<g id="a_node19"><a xlink:href="utils_8h.html" target="_top" xlink:title="utils.h">
<polygon fill="none" stroke="black" points="900,-62 900,-81 945,-81 945,-62 900,-62"/>
<text text-anchor="middle" x="922.5" y="-69" font-family="Helvetica,sans-Serif" font-size="10.00">utils.h</text>
</a>
</g>
</g>
<!-- Node8&#45;&gt;Node18 -->
<g id="edge20" class="edge"><title>Node8&#45;&gt;Node18</title>
<path fill="none" stroke="midnightblue" d="M661.061,-129.536C709.416,-124.817 810.088,-112.61 891.5,-87 893.37,-86.4116 895.274,-85.734 897.17,-84.9999"/>
<polygon fill="midnightblue" stroke="midnightblue" points="898.62,-88.1864 906.415,-81.0107 895.847,-81.7593 898.62,-88.1864"/>
</g>
<!-- Node18&#45;&gt;Node9 -->
<g id="edge22" class="edge"><title>Node18&#45;&gt;Node9</title>
<path fill="none" stroke="midnightblue" d="M929.807,-61.9751C937.533,-52.9617 949.908,-38.5246 959.518,-27.3118"/>
<polygon fill="midnightblue" stroke="midnightblue" points="962.356,-29.3795 966.206,-19.5091 957.041,-24.8239 962.356,-29.3795"/>
</g>
<!-- Node18&#45;&gt;Node12 -->
<g id="edge23" class="edge"><title>Node18&#45;&gt;Node12</title>
<path fill="none" stroke="midnightblue" d="M906.448,-61.8807C901.743,-59.6624 896.513,-57.4849 891.5,-56 838.594,-40.3291 679.007,-22.4346 605.859,-14.7871"/>
<polygon fill="midnightblue" stroke="midnightblue" points="606.025,-11.2855 595.717,-13.7346 605.302,-18.2482 606.025,-11.2855"/>
</g>
<!-- Node18&#45;&gt;Node15 -->
<g id="edge24" class="edge"><title>Node18&#45;&gt;Node15</title>
<path fill="none" stroke="midnightblue" d="M905.324,-61.8889C900.879,-59.821 896.06,-57.7165 891.5,-56 854.704,-42.1483 811.679,-29.9622 780.308,-21.7771"/>
<polygon fill="midnightblue" stroke="midnightblue" points="781.112,-18.3699 770.554,-19.2631 779.364,-25.1484 781.112,-18.3699"/>
</g>
<!-- Node19 -->
<g id="node20" class="node"><title>Node19</title>
<polygon fill="none" stroke="#bfbfbf" points="867,-0.5 867,-19.5 924,-19.5 924,-0.5 867,-0.5"/>
<text text-anchor="middle" x="895.5" y="-7.5" font-family="Helvetica,sans-Serif" font-size="10.00">complex</text>
</g>
<!-- Node18&#45;&gt;Node19 -->
<g id="edge21" class="edge"><title>Node18&#45;&gt;Node19</title>
<path fill="none" stroke="midnightblue" d="M918.632,-61.9751C914.702,-53.3152 908.5,-39.6486 903.507,-28.6453"/>
<polygon fill="midnightblue" stroke="midnightblue" points="906.681,-27.1691 899.361,-19.5091 900.306,-30.0617 906.681,-27.1691"/>
</g>
</g>
</svg>
        <g id="navigator" transform="translate(0 0)" fill="#404254">
                <rect fill="#f2f5e9" fill-opacity="0.5" stroke="#606060" stroke-width=".5" x="0" y="0" width="60" height="60"/>
                <use id="zoomplus" xlink:href="#zoomPlus" x="17" y="9" onmousedown="handleZoom(evt,'in')"/>
                <use id="zoomminus" xlink:href="#zoomMin" x="42" y="9" onmousedown="handleZoom(evt,'out')"/>
                <use id="reset" xlink:href="#resetDef" x="30" y="36" onmousedown="handleReset()"/>
                <g id="arrowUp" xlink:href="#dirArrow" transform="translate(30 24)" onmousedown="handlePan(0,-1)">
                  <use xlink:href="#rim" fill="#404040">
                        <set attributeName="fill" to="#808080" begin="arrowUp.mouseover" end="arrowUp.mouseout"/>
                  </use>
                  <path fill="none" stroke="white" stroke-width="1.5" d="M0,-3.0v7 M-2.5,-0.5L0,-3.0L2.5,-0.5"/>
                </g>
                <g id="arrowRight" xlink:href="#dirArrow" transform="rotate(90) translate(36 -43)" onmousedown="handlePan(1,0)">
                  <use xlink:href="#rim" fill="#404040">
                        <set attributeName="fill" to="#808080" begin="arrowRight.mouseover" end="arrowRight.mouseout"/>
                  </use>
                  <path fill="none" stroke="white" stroke-width="1.5" d="M0,-3.0v7 M-2.5,-0.5L0,-3.0L2.5,-0.5"/>
                </g>
                <g id="arrowDown" xlink:href="#dirArrow" transform="rotate(180) translate(-30 -48)" onmousedown="handlePan(0,1)">
                  <use xlink:href="#rim" fill="#404040">
                        <set attributeName="fill" to="#808080" begin="arrowDown.mouseover" end="arrowDown.mouseout"/>
                  </use>
                  <path fill="none" stroke="white" stroke-width="1.5" d="M0,-3.0v7 M-2.5,-0.5L0,-3.0L2.5,-0.5"/>
                </g>
                <g id="arrowLeft" xlink:href="#dirArrow" transform="rotate(270) translate(-36 17)" onmousedown="handlePan(-1,0)">
                  <use xlink:href="#rim" fill="#404040">
                        <set attributeName="fill" to="#808080" begin="arrowLeft.mouseover" end="arrowLeft.mouseout"/>
                  </use>
                  <path fill="none" stroke="white" stroke-width="1.5" d="M0,-3.0v7 M-2.5,-0.5L0,-3.0L2.5,-0.5"/>
                </g>
        </g>
        <svg viewBox="0 0 15 15" width="100%" height="30px" preserveAspectRatio="xMaxYMin meet">
         <g id="arrow_out" transform="scale(0.3 0.3)">
          <a xlink:href="Wavefunction_8h__incl_org.svg" target="_base">
           <rect id="button" ry="5" rx="5" y="6" x="6" height="38" width="38"
                fill="#f2f5e9" fill-opacity="0.5" stroke="#606060" stroke-width="1.0"/>
           <path id="arrow"
             d="M 11.500037,31.436501 C 11.940474,20.09759 22.043105,11.32322 32.158766,21.979434 L 37.068811,17.246167 C 37.068811,17.246167 37.088388,32 37.088388,32 L 22.160133,31.978069 C 22.160133,31.978069 26.997745,27.140456 26.997745,27.140456 C 18.528582,18.264221 13.291696,25.230495 11.500037,31.436501 z"
             style="fill:#404040;"/>
          </a>
         </g>
        </svg>
</svg>
