<?xml version="1.0" encoding="UTF-8" standalone="no"?>
<!DOCTYPE svg PUBLIC "-//W3C//DTD SVG 1.1//EN"
 "http://www.w3.org/Graphics/SVG/1.1/DTD/svg11.dtd">
<!-- Generated by graphviz version 2.38.0 (20140413.2041)
 -->
<!-- Title: /travis/libpairinteraction/WignerD.h Pages: 1 -->
<svg width="420pt" height="307pt"
 viewBox="0.00 0.00 420.00 307.00" xmlns="http://www.w3.org/2000/svg" xmlns:xlink="http://www.w3.org/1999/xlink">
<g id="graph0" class="graph" transform="scale(1 1) rotate(0) translate(4 303)">
<title>/travis/libpairinteraction/WignerD.h</title>
<!-- Node7 -->
<g id="node1" class="node"><title>Node7</title>
<polygon fill="#bfbfbf" stroke="black" points="211,-268.5 211,-298.5 339,-298.5 339,-268.5 211,-268.5"/>
<text text-anchor="start" x="219" y="-286.5" font-family="Helvetica,sans-Serif" font-size="10.00">/travis/libpairinteraction</text>
<text text-anchor="middle" x="275" y="-275.5" font-family="Helvetica,sans-Serif" font-size="10.00">/WignerD.h</text>
</g>
<!-- Node8 -->
<g id="node2" class="node"><title>Node8</title>
<g id="a_node2"><a xlink:href="SystemBase_8h.html" target="_top" xlink:title="/travis/libpairinteraction\l/SystemBase.h">
<polygon fill="none" stroke="black" points="138,-201.5 138,-231.5 266,-231.5 266,-201.5 138,-201.5"/>
<text text-anchor="start" x="146" y="-219.5" font-family="Helvetica,sans-Serif" font-size="10.00">/travis/libpairinteraction</text>
<text text-anchor="middle" x="202" y="-208.5" font-family="Helvetica,sans-Serif" font-size="10.00">/SystemBase.h</text>
</a>
</g>
</g>
<!-- Node7&#45;&gt;Node8 -->
<g id="edge1" class="edge"><title>Node7&#45;&gt;Node8</title>
<path fill="none" stroke="midnightblue" d="M251.525,-261.598C240.503,-251.783 227.656,-240.344 217.809,-231.577"/>
<polygon fill="midnightblue" stroke="midnightblue" points="249.364,-264.36 259.16,-268.396 254.019,-259.132 249.364,-264.36"/>
</g>
<!-- Node14 -->
<g id="node8" class="node"><title>Node14</title>
<g id="a_node8"><a xlink:href="WignerD_8cpp.html" target="_top" xlink:title="/travis/libpairinteraction\l/WignerD.cpp">
<polygon fill="none" stroke="black" points="284,-201.5 284,-231.5 412,-231.5 412,-201.5 284,-201.5"/>
<text text-anchor="start" x="292" y="-219.5" font-family="Helvetica,sans-Serif" font-size="10.00">/travis/libpairinteraction</text>
<text text-anchor="middle" x="348" y="-208.5" font-family="Helvetica,sans-Serif" font-size="10.00">/WignerD.cpp</text>
</a>
</g>
</g>
<!-- Node7&#45;&gt;Node14 -->
<g id="edge9" class="edge"><title>Node7&#45;&gt;Node14</title>
<path fill="none" stroke="midnightblue" d="M298.475,-261.598C309.497,-251.783 322.344,-240.344 332.191,-231.577"/>
<polygon fill="midnightblue" stroke="midnightblue" points="295.981,-259.132 290.84,-268.396 300.636,-264.36 295.981,-259.132"/>
</g>
<!-- Node9 -->
<g id="node3" class="node"><title>Node9</title>
<g id="a_node3"><a xlink:href="SystemOne_8h.html" target="_top" xlink:title="/travis/libpairinteraction\l/SystemOne.h">
<polygon fill="none" stroke="black" points="92,-134.5 92,-164.5 220,-164.5 220,-134.5 92,-134.5"/>
<text text-anchor="start" x="100" y="-152.5" font-family="Helvetica,sans-Serif" font-size="10.00">/travis/libpairinteraction</text>
<text text-anchor="middle" x="156" y="-141.5" font-family="Helvetica,sans-Serif" font-size="10.00">/SystemOne.h</text>
</a>
</g>
</g>
<!-- Node8&#45;&gt;Node9 -->
<g id="edge2" class="edge"><title>Node8&#45;&gt;Node9</title>
<path fill="none" stroke="midnightblue" d="M186.188,-193.157C179.48,-183.679 171.865,-172.919 165.962,-164.577"/>
<polygon fill="midnightblue" stroke="midnightblue" points="183.385,-195.255 192.019,-201.396 189.099,-191.211 183.385,-195.255"/>
</g>
<!-- Node11 -->
<g id="node5" class="node"><title>Node11</title>
<g id="a_node5"><a xlink:href="SystemTwo_8h.html" target="_top" xlink:title="/travis/libpairinteraction\l/SystemTwo.h">
<polygon fill="none" stroke="black" points="184,-67.5 184,-97.5 312,-97.5 312,-67.5 184,-67.5"/>
<text text-anchor="start" x="192" y="-85.5" font-family="Helvetica,sans-Serif" font-size="10.00">/travis/libpairinteraction</text>
<text text-anchor="middle" x="248" y="-74.5" font-family="Helvetica,sans-Serif" font-size="10.00">/SystemTwo.h</text>
</a>
</g>
</g>
<!-- Node8&#45;&gt;Node11 -->
<g id="edge8" class="edge"><title>Node8&#45;&gt;Node11</title>
<path fill="none" stroke="midnightblue" d="M215.92,-192.529C220.586,-184.097 225.488,-174.329 229,-165 237.599,-142.156 243.094,-114.196 245.856,-97.6724"/>
<polygon fill="midnightblue" stroke="midnightblue" points="212.779,-190.971 210.841,-201.387 218.852,-194.454 212.779,-190.971"/>
</g>
<!-- Node10 -->
<g id="node4" class="node"><title>Node10</title>
<g id="a_node4"><a xlink:href="SystemOne_8cpp.html" target="_top" xlink:title="/travis/libpairinteraction\l/SystemOne.cpp">
<polygon fill="none" stroke="black" points="0,-67.5 0,-97.5 128,-97.5 128,-67.5 0,-67.5"/>
<text text-anchor="start" x="8" y="-85.5" font-family="Helvetica,sans-Serif" font-size="10.00">/travis/libpairinteraction</text>
<text text-anchor="middle" x="64" y="-74.5" font-family="Helvetica,sans-Serif" font-size="10.00">/SystemOne.cpp</text>
</a>
</g>
</g>
<!-- Node9&#45;&gt;Node10 -->
<g id="edge3" class="edge"><title>Node9&#45;&gt;Node10</title>
<path fill="none" stroke="midnightblue" d="M127.623,-128.451C113.47,-118.452 96.6947,-106.6 83.9237,-97.5765"/>
<polygon fill="midnightblue" stroke="midnightblue" points="125.851,-131.484 136.037,-134.396 129.89,-125.767 125.851,-131.484"/>
</g>
<!-- Node9&#45;&gt;Node11 -->
<g id="edge4" class="edge"><title>Node9&#45;&gt;Node11</title>
<path fill="none" stroke="midnightblue" d="M184.377,-128.451C198.53,-118.452 215.305,-106.6 228.076,-97.5765"/>
<polygon fill="midnightblue" stroke="midnightblue" points="182.11,-125.767 175.963,-134.396 186.149,-131.484 182.11,-125.767"/>
</g>
<!-- Node13 -->
<g id="node7" class="node"><title>Node13</title>
<g id="a_node7"><a xlink:href="integration__test_8cpp.html" target="_top" xlink:title="/travis/libpairinteraction\l/unit_test/integration_test.cpp">
<polygon fill="none" stroke="black" points="75.5,-0.5 75.5,-30.5 236.5,-30.5 236.5,-0.5 75.5,-0.5"/>
<text text-anchor="start" x="83.5" y="-18.5" font-family="Helvetica,sans-Serif" font-size="10.00">/travis/libpairinteraction</text>
<text text-anchor="middle" x="156" y="-7.5" font-family="Helvetica,sans-Serif" font-size="10.00">/unit_test/integration_test.cpp</text>
</a>
</g>
</g>
<!-- Node9&#45;&gt;Node13 -->
<g id="edge7" class="edge"><title>Node9&#45;&gt;Node13</title>
<path fill="none" stroke="midnightblue" d="M156,-124.024C156,-96.5121 156,-52.7894 156,-30.5247"/>
<polygon fill="midnightblue" stroke="midnightblue" points="152.5,-124.374 156,-134.374 159.5,-124.374 152.5,-124.374"/>
</g>
<!-- Node12 -->
<g id="node6" class="node"><title>Node12</title>
<g id="a_node6"><a xlink:href="SystemTwo_8cpp.html" target="_top" xlink:title="/travis/libpairinteraction\l/SystemTwo.cpp">
<polygon fill="none" stroke="black" points="255,-0.5 255,-30.5 383,-30.5 383,-0.5 255,-0.5"/>
<text text-anchor="start" x="263" y="-18.5" font-family="Helvetica,sans-Serif" font-size="10.00">/travis/libpairinteraction</text>
<text text-anchor="middle" x="319" y="-7.5" font-family="Helvetica,sans-Serif" font-size="10.00">/SystemTwo.cpp</text>
</a>
</g>
</g>
<!-- Node11&#45;&gt;Node12 -->
<g id="edge5" class="edge"><title>Node11&#45;&gt;Node12</title>
<path fill="none" stroke="midnightblue" d="M270.832,-60.5978C281.552,-50.7831 294.047,-39.3442 303.624,-30.5765"/>
<polygon fill="midnightblue" stroke="midnightblue" points="268.418,-58.0618 263.406,-67.396 273.145,-63.225 268.418,-58.0618"/>
</g>
<!-- Node11&#45;&gt;Node13 -->
<g id="edge6" class="edge"><title>Node11&#45;&gt;Node13</title>
<path fill="none" stroke="midnightblue" d="M219.623,-61.4511C205.47,-51.4517 188.695,-39.5995 175.924,-30.5765"/>
<polygon fill="midnightblue" stroke="midnightblue" points="217.851,-64.4841 228.037,-67.396 221.89,-58.7671 217.851,-64.4841"/>
</g>
</g>
</svg>
