<?xml version="1.0" encoding="UTF-8" standalone="no"?>
<!DOCTYPE svg PUBLIC "-//W3C//DTD SVG 1.1//EN"
 "http://www.w3.org/Graphics/SVG/1.1/DTD/svg11.dtd">
<!-- Generated by graphviz version 2.38.0 (20140413.2041)
 -->
<!-- Title: /travis/libpairinteraction/eigen/bench/btl/generic_bench/timers/x86_timer.hh Pages: 1 -->
<svg width="733pt" height="162pt"
 viewBox="0.00 0.00 733.00 162.00" xmlns="http://www.w3.org/2000/svg" xmlns:xlink="http://www.w3.org/1999/xlink">
<g id="graph0" class="graph" transform="scale(1 1) rotate(0) translate(4 158)">
<title>/travis/libpairinteraction/eigen/bench/btl/generic_bench/timers/x86_timer.hh</title>
<!-- Node0 -->
<g id="node1" class="node"><title>Node0</title>
<polygon fill="#bfbfbf" stroke="black" points="351,-112.5 351,-153.5 501,-153.5 501,-112.5 351,-112.5"/>
<text text-anchor="start" x="359" y="-141.5" font-family="Helvetica,sans-Serif" font-size="10.00">/travis/libpairinteraction</text>
<text text-anchor="start" x="359" y="-130.5" font-family="Helvetica,sans-Serif" font-size="10.00">/eigen/bench/btl/generic</text>
<text text-anchor="middle" x="426" y="-119.5" font-family="Helvetica,sans-Serif" font-size="10.00">_bench/timers/x86_timer.hh</text>
</g>
<!-- Node1 -->
<g id="node2" class="node"><title>Node1</title>
<polygon fill="none" stroke="#bfbfbf" points="0,-56.5 0,-75.5 66,-75.5 66,-56.5 0,-56.5"/>
<text text-anchor="middle" x="33" y="-63.5" font-family="Helvetica,sans-Serif" font-size="10.00">sys/time.h</text>
</g>
<!-- Node0&#45;&gt;Node1 -->
<g id="edge1" class="edge"><title>Node0&#45;&gt;Node1</title>
<path fill="none" stroke="midnightblue" d="M350.827,-121.182C281.914,-110.997 176.819,-94.7891 76.4483,-76.1972"/>
<polygon fill="midnightblue" stroke="midnightblue" points="76.9105,-72.7232 66.4386,-74.3321 75.6282,-79.6047 76.9105,-72.7232"/>
</g>
<!-- Node2 -->
<g id="node3" class="node"><title>Node2</title>
<polygon fill="none" stroke="#bfbfbf" points="84,-56.5 84,-75.5 170,-75.5 170,-56.5 84,-56.5"/>
<text text-anchor="middle" x="127" y="-63.5" font-family="Helvetica,sans-Serif" font-size="10.00">sys/resource.h</text>
</g>
<!-- Node0&#45;&gt;Node2 -->
<g id="edge2" class="edge"><title>Node0&#45;&gt;Node2</title>
<path fill="none" stroke="midnightblue" d="M350.936,-115.682C296.302,-103.805 223.862,-88.0569 176.371,-77.7328"/>
<polygon fill="midnightblue" stroke="midnightblue" points="176.852,-74.2558 166.337,-75.5515 175.365,-81.096 176.852,-74.2558"/>
</g>
<!-- Node3 -->
<g id="node4" class="node"><title>Node3</title>
<polygon fill="none" stroke="#bfbfbf" points="188.5,-56.5 188.5,-75.5 243.5,-75.5 243.5,-56.5 188.5,-56.5"/>
<text text-anchor="middle" x="216" y="-63.5" font-family="Helvetica,sans-Serif" font-size="10.00">unistd.h</text>
</g>
<!-- Node0&#45;&gt;Node3 -->
<g id="edge3" class="edge"><title>Node0&#45;&gt;Node3</title>
<path fill="none" stroke="midnightblue" d="M362.993,-112.498C327.282,-101.444 283.812,-87.9895 253.444,-78.59"/>
<polygon fill="midnightblue" stroke="midnightblue" points="254.266,-75.1805 243.678,-75.5671 252.196,-81.8675 254.266,-75.1805"/>
</g>
<!-- Node4 -->
<g id="node5" class="node"><title>Node4</title>
<polygon fill="none" stroke="#bfbfbf" points="261.5,-56.5 261.5,-75.5 332.5,-75.5 332.5,-56.5 261.5,-56.5"/>
<text text-anchor="middle" x="297" y="-63.5" font-family="Helvetica,sans-Serif" font-size="10.00">sys/times.h</text>
</g>
<!-- Node0&#45;&gt;Node4 -->
<g id="edge4" class="edge"><title>Node0&#45;&gt;Node4</title>
<path fill="none" stroke="midnightblue" d="M387.296,-112.498C366.567,-102.053 341.582,-89.4638 323.154,-80.1782"/>
<polygon fill="midnightblue" stroke="midnightblue" points="324.677,-77.0267 314.172,-75.6525 321.527,-83.278 324.677,-77.0267"/>
</g>
<!-- Node5 -->
<g id="node6" class="node"><title>Node5</title>
<polygon fill="none" stroke="#bfbfbf" points="351,-56.5 351,-75.5 419,-75.5 419,-56.5 351,-56.5"/>
<text text-anchor="middle" x="385" y="-63.5" font-family="Helvetica,sans-Serif" font-size="10.00">asm/msr.h</text>
</g>
<!-- Node0&#45;&gt;Node5 -->
<g id="edge5" class="edge"><title>Node0&#45;&gt;Node5</title>
<path fill="none" stroke="midnightblue" d="M413.699,-112.498C408.017,-103.49 401.329,-92.8881 395.84,-84.1852"/>
<polygon fill="midnightblue" stroke="midnightblue" points="398.753,-82.2432 390.458,-75.6525 392.833,-85.9778 398.753,-82.2432"/>
</g>
<!-- Node6 -->
<g id="node7" class="node"><title>Node6</title>
<g id="a_node7"><a xlink:href="utilities_8h.html" target="_top" xlink:title="utilities.h">
<polygon fill="none" stroke="black" points="437.5,-56.5 437.5,-75.5 496.5,-75.5 496.5,-56.5 437.5,-56.5"/>
<text text-anchor="middle" x="467" y="-63.5" font-family="Helvetica,sans-Serif" font-size="10.00">utilities.h</text>
</a>
</g>
</g>
<!-- Node0&#45;&gt;Node6 -->
<g id="edge6" class="edge"><title>Node0&#45;&gt;Node6</title>
<path fill="none" stroke="midnightblue" d="M438.301,-112.498C443.983,-103.49 450.671,-92.8881 456.16,-84.1852"/>
<polygon fill="midnightblue" stroke="midnightblue" points="459.167,-85.9778 461.542,-75.6525 453.247,-82.2432 459.167,-85.9778"/>
</g>
<!-- Node8 -->
<g id="node9" class="node"><title>Node8</title>
<polygon fill="none" stroke="#bfbfbf" points="495.5,-0.5 495.5,-19.5 554.5,-19.5 554.5,-0.5 495.5,-0.5"/>
<text text-anchor="middle" x="525" y="-7.5" font-family="Helvetica,sans-Serif" font-size="10.00">iostream</text>
</g>
<!-- Node0&#45;&gt;Node8 -->
<g id="edge12" class="edge"><title>Node0&#45;&gt;Node8</title>
<path fill="none" stroke="midnightblue" d="M464.598,-112.409C479.422,-103.17 495.328,-90.8782 506,-76 515.743,-62.4161 520.525,-43.8698 522.85,-30.0641"/>
<polygon fill="midnightblue" stroke="midnightblue" points="526.368,-30.1826 524.281,-19.7952 519.435,-29.2164 526.368,-30.1826"/>
</g>
<!-- Node9 -->
<g id="node10" class="node"><title>Node9</title>
<polygon fill="none" stroke="#bfbfbf" points="553,-56.5 553,-75.5 591,-75.5 591,-56.5 553,-56.5"/>
<text text-anchor="middle" x="572" y="-63.5" font-family="Helvetica,sans-Serif" font-size="10.00">map</text>
</g>
<!-- Node0&#45;&gt;Node9 -->
<g id="edge9" class="edge"><title>Node0&#45;&gt;Node9</title>
<path fill="none" stroke="midnightblue" d="M469.805,-112.498C493.733,-101.845 522.673,-88.9608 543.639,-79.6267"/>
<polygon fill="midnightblue" stroke="midnightblue" points="545.236,-82.7467 552.948,-75.482 542.389,-76.3518 545.236,-82.7467"/>
</g>
<!-- Node10 -->
<g id="node11" class="node"><title>Node10</title>
<polygon fill="none" stroke="#bfbfbf" points="609,-56.5 609,-75.5 663,-75.5 663,-56.5 609,-56.5"/>
<text text-anchor="middle" x="636" y="-63.5" font-family="Helvetica,sans-Serif" font-size="10.00">fstream</text>
</g>
<!-- Node0&#45;&gt;Node10 -->
<g id="edge10" class="edge"><title>Node0&#45;&gt;Node10</title>
<path fill="none" stroke="midnightblue" d="M489.007,-112.498C524.935,-101.377 568.717,-87.8258 599.108,-78.419"/>
<polygon fill="midnightblue" stroke="midnightblue" points="600.353,-81.6976 608.871,-75.3972 598.283,-75.0106 600.353,-81.6976"/>
</g>
<!-- Node11 -->
<g id="node12" class="node"><title>Node11</title>
<polygon fill="none" stroke="#bfbfbf" points="681,-56.5 681,-75.5 725,-75.5 725,-56.5 681,-56.5"/>
<text text-anchor="middle" x="703" y="-63.5" font-family="Helvetica,sans-Serif" font-size="10.00">string</text>
</g>
<!-- Node0&#45;&gt;Node11 -->
<g id="edge11" class="edge"><title>Node0&#45;&gt;Node11</title>
<path fill="none" stroke="midnightblue" d="M501.097,-116.103C547.476,-106.006 608.405,-92.2406 670.687,-76.2342"/>
<polygon fill="midnightblue" stroke="midnightblue" points="671.887,-79.5389 680.692,-73.6462 670.134,-72.7619 671.887,-79.5389"/>
</g>
<!-- Node7 -->
<g id="node8" class="node"><title>Node7</title>
<polygon fill="none" stroke="#bfbfbf" points="426.5,-0.5 426.5,-19.5 477.5,-19.5 477.5,-0.5 426.5,-0.5"/>
<text text-anchor="middle" x="452" y="-7.5" font-family="Helvetica,sans-Serif" font-size="10.00">stdlib.h</text>
</g>
<!-- Node6&#45;&gt;Node7 -->
<g id="edge7" class="edge"><title>Node6&#45;&gt;Node7</title>
<path fill="none" stroke="midnightblue" d="M464.523,-56.083C462.514,-48.8486 459.614,-38.4087 457.11,-29.3968"/>
<polygon fill="midnightblue" stroke="midnightblue" points="460.48,-28.4495 454.431,-19.7511 453.735,-30.323 460.48,-28.4495"/>
</g>
<!-- Node6&#45;&gt;Node8 -->
<g id="edge8" class="edge"><title>Node6&#45;&gt;Node8</title>
<path fill="none" stroke="midnightblue" d="M476.319,-56.324C484.893,-48.3414 497.812,-36.3128 508.188,-26.6529"/>
<polygon fill="midnightblue" stroke="midnightblue" points="510.578,-29.2098 515.512,-19.8339 505.808,-24.0865 510.578,-29.2098"/>
</g>
</g>
</svg>
