<?xml version="1.0" encoding="UTF-8" standalone="no"?>
<!DOCTYPE svg PUBLIC "-//W3C//DTD SVG 1.1//EN"
 "http://www.w3.org/Graphics/SVG/1.1/DTD/svg11.dtd">
<!-- Generated by graphviz version 2.38.0 (20140413.2041)
 -->
<!-- Title: zchk2 Pages: 1 -->
<svg width="212pt" height="142pt"
 viewBox="0.00 0.00 212.00 142.00" xmlns="http://www.w3.org/2000/svg" xmlns:xlink="http://www.w3.org/1999/xlink">
<g id="graph0" class="graph" transform="scale(1 1) rotate(0) translate(4 138)">
<title>zchk2</title>
<!-- Node52 -->
<g id="node1" class="node"><title>Node52</title>
<polygon fill="#bfbfbf" stroke="black" points="0,-57.5 0,-76.5 44,-76.5 44,-57.5 0,-57.5"/>
<text text-anchor="middle" x="22" y="-64.5" font-family="Helvetica,sans-Serif" font-size="10.00">zchk2</text>
</g>
<!-- Node53 -->
<g id="node2" class="node"><title>Node53</title>
<g id="a_node2"><a xlink:href="bench_2btl_2libs_2BLAS_2blas_8h.html#ad8bacc454daad8bf7e9fa5e48c2917ad" target="_top" xlink:title="zhemm">
<polygon fill="none" stroke="black" points="80,-114.5 80,-133.5 133,-133.5 133,-114.5 80,-114.5"/>
<text text-anchor="middle" x="106.5" y="-121.5" font-family="Helvetica,sans-Serif" font-size="10.00">zhemm</text>
</a>
</g>
</g>
<!-- Node52&#45;&gt;Node53 -->
<g id="edge1" class="edge"><title>Node52&#45;&gt;Node53</title>
<path fill="none" stroke="midnightblue" d="M36.995,-76.6693C49.6344,-85.4019 68.4532,-98.404 83.1702,-108.572"/>
<polygon fill="midnightblue" stroke="midnightblue" points="81.4948,-111.669 91.7117,-114.474 85.4739,-105.91 81.4948,-111.669"/>
</g>
<!-- Node54 -->
<g id="node3" class="node"><title>Node54</title>
<g id="a_node3"><a xlink:href="zblat2_8f.html#adedd6c58099503010cc6951c138fa2b6" target="_top" xlink:title="zmake">
<polygon fill="none" stroke="black" points="82,-76.5 82,-95.5 131,-95.5 131,-76.5 82,-76.5"/>
<text text-anchor="middle" x="106.5" y="-83.5" font-family="Helvetica,sans-Serif" font-size="10.00">zmake</text>
</a>
</g>
</g>
<!-- Node52&#45;&gt;Node54 -->
<g id="edge2" class="edge"><title>Node52&#45;&gt;Node54</title>
<path fill="none" stroke="midnightblue" d="M44.2458,-71.893C52.6604,-73.8309 62.5404,-76.1063 71.8797,-78.2571"/>
<polygon fill="midnightblue" stroke="midnightblue" points="71.1763,-81.6867 81.7068,-80.5203 72.7474,-74.8653 71.1763,-81.6867"/>
</g>
<!-- Node55 -->
<g id="node4" class="node"><title>Node55</title>
<g id="a_node4"><a xlink:href="zblat3_8f.html#aa3b6f173885a4f541795864085fadd4d" target="_top" xlink:title="zmmch">
<polygon fill="none" stroke="black" points="80,-38.5 80,-57.5 133,-57.5 133,-38.5 80,-38.5"/>
<text text-anchor="middle" x="106.5" y="-45.5" font-family="Helvetica,sans-Serif" font-size="10.00">zmmch</text>
</a>
</g>
</g>
<!-- Node52&#45;&gt;Node55 -->
<g id="edge3" class="edge"><title>Node52&#45;&gt;Node55</title>
<path fill="none" stroke="midnightblue" d="M44.2458,-62.107C52.0696,-60.3052 61.1602,-58.2116 69.9052,-56.1976"/>
<polygon fill="midnightblue" stroke="midnightblue" points="70.9563,-59.5472 79.9157,-53.8921 69.3852,-52.7258 70.9563,-59.5472"/>
</g>
<!-- Node57 -->
<g id="node6" class="node"><title>Node57</title>
<g id="a_node6"><a xlink:href="bench_2btl_2libs_2BLAS_2blas_8h.html#a11998c1cc50c87a6b8d3be26a8dd2dbc" target="_top" xlink:title="zsymm">
<polygon fill="none" stroke="black" points="80.5,-0.5 80.5,-19.5 132.5,-19.5 132.5,-0.5 80.5,-0.5"/>
<text text-anchor="middle" x="106.5" y="-7.5" font-family="Helvetica,sans-Serif" font-size="10.00">zsymm</text>
</a>
</g>
</g>
<!-- Node52&#45;&gt;Node57 -->
<g id="edge5" class="edge"><title>Node52&#45;&gt;Node57</title>
<path fill="none" stroke="midnightblue" d="M36.995,-57.3307C49.6344,-48.5981 68.4532,-35.596 83.1702,-25.4278"/>
<polygon fill="midnightblue" stroke="midnightblue" points="85.4739,-28.0904 91.7117,-19.5265 81.4948,-22.3313 85.4739,-28.0904"/>
</g>
<!-- Node56 -->
<g id="node5" class="node"><title>Node56</title>
<g id="a_node5"><a xlink:href="ArrayCwiseUnaryOps_8h.html#a656b9217a2fcb6de59dc8d1eb3079cc7" target="_top" xlink:title="sqrt">
<polygon fill="none" stroke="black" points="169,-38.5 169,-57.5 204,-57.5 204,-38.5 169,-38.5"/>
<text text-anchor="middle" x="186.5" y="-45.5" font-family="Helvetica,sans-Serif" font-size="10.00">sqrt</text>
</a>
</g>
</g>
<!-- Node55&#45;&gt;Node56 -->
<g id="edge4" class="edge"><title>Node55&#45;&gt;Node56</title>
<path fill="none" stroke="midnightblue" d="M133.04,-48C141.196,-48 150.247,-48 158.502,-48"/>
<polygon fill="midnightblue" stroke="midnightblue" points="158.755,-51.5001 168.755,-48 158.755,-44.5001 158.755,-51.5001"/>
</g>
</g>
</svg>
